<?xml version="1.0" encoding="UTF-8" standalone="no"?>
<!DOCTYPE svg PUBLIC "-//W3C//DTD SVG 1.1//EN"
 "http://www.w3.org/Graphics/SVG/1.1/DTD/svg11.dtd">
<!-- Generated by graphviz version 2.36.0 (20140111.2315)
 -->
<!-- Title: authoring.concretefeatures.LevelEditor Pages: 1 -->
<svg width="770pt" height="361pt"
 viewBox="0.00 0.00 770.00 361.00" xmlns="http://www.w3.org/2000/svg" xmlns:xlink="http://www.w3.org/1999/xlink">
<g id="graph0" class="graph" transform="scale(1 1) rotate(0) translate(4 357)">
<title>authoring.concretefeatures.LevelEditor</title>
<polygon fill="white" stroke="none" points="-4,4 -4,-357 766,-357 766,4 -4,4"/>
<!-- Node1 -->
<g id="node1" class="node"><title>Node1</title>
<polygon fill="#bfbfbf" stroke="black" points="612,-163 612,-193 762,-193 762,-163 612,-163"/>
<text text-anchor="start" x="620" y="-181" font-family="Helvetica,sans-Serif" font-size="10.00">authoring.concretefeatures.</text>
<text text-anchor="middle" x="687" y="-170" font-family="Helvetica,sans-Serif" font-size="10.00">LevelEditor</text>
</g>
<!-- Node2 -->
<g id="node2" class="node"><title>Node2</title>
<g id="a_node2"><a xlink:href="../../d9/df3/classauthoring__environment_1_1_super_grid.html" target="_top" xlink:title="authoring_environment.SuperGrid">
<polygon fill="white" stroke="black" points="292.5,-284.5 292.5,-303.5 471.5,-303.5 471.5,-284.5 292.5,-284.5"/>
<text text-anchor="middle" x="382" y="-291.5" font-family="Helvetica,sans-Serif" font-size="10.00">authoring_environment.SuperGrid</text>
</a>
</g>
</g>
<!-- Node2&#45;&gt;Node1 -->
<g id="edge1" class="edge"><title>Node2&#45;&gt;Node1</title>
<path fill="none" stroke="#9a32cd" stroke-dasharray="5,2" d="M417.653,-280.733C474.422,-259 586.88,-215.947 646.596,-193.085"/>
<polygon fill="#9a32cd" stroke="#9a32cd" points="416.141,-277.564 408.054,-284.409 418.644,-284.102 416.141,-277.564"/>
<text text-anchor="middle" x="548" y="-249" font-family="Helvetica,sans-Serif" font-size="10.00"> shapeGrid</text>
</g>
<!-- Node3 -->
<g id="node3" class="node"><title>Node3</title>
<polygon fill="white" stroke="#bfbfbf" points="18,-323 18,-353 170,-353 170,-323 18,-323"/>
<text text-anchor="start" x="26" y="-341" font-family="Helvetica,sans-Serif" font-size="10.00">List&lt; List&lt; authoring</text>
<text text-anchor="middle" x="94" y="-330" font-family="Helvetica,sans-Serif" font-size="10.00">_environment.SuperTile &gt; &gt;</text>
</g>
<!-- Node3&#45;&gt;Node2 -->
<g id="edge2" class="edge"><title>Node3&#45;&gt;Node2</title>
<path fill="none" stroke="#9a32cd" stroke-dasharray="5,2" d="M180.092,-324.909C224.666,-318.051 278.273,-309.804 318.898,-303.554"/>
<polygon fill="#9a32cd" stroke="#9a32cd" points="179.495,-321.46 170.143,-326.44 180.559,-328.378 179.495,-321.46"/>
<text text-anchor="middle" x="234" y="-322" font-family="Helvetica,sans-Serif" font-size="10.00"> myGrid</text>
</g>
<!-- Node4 -->
<g id="node4" class="node"><title>Node4</title>
<polygon fill="white" stroke="#bfbfbf" points="74,-284.5 74,-303.5 114,-303.5 114,-284.5 74,-284.5"/>
<text text-anchor="middle" x="94" y="-291.5" font-family="Helvetica,sans-Serif" font-size="10.00">Pane</text>
</g>
<!-- Node4&#45;&gt;Node2 -->
<g id="edge3" class="edge"><title>Node4&#45;&gt;Node2</title>
<path fill="none" stroke="#9a32cd" stroke-dasharray="5,2" d="M124.383,-294C163.594,-294 234.756,-294 292.212,-294"/>
<polygon fill="#9a32cd" stroke="#9a32cd" points="124.209,-290.5 114.209,-294 124.209,-297.5 124.209,-290.5"/>
<text text-anchor="middle" x="234" y="-297" font-family="Helvetica,sans-Serif" font-size="10.00"> myPane</text>
</g>
<!-- Node5 -->
<g id="node5" class="node"><title>Node5</title>
<g id="a_node5"><a xlink:href="../../d7/dd4/classauthoring_1_1data_1_1_patch_instance_data.html" target="_top" xlink:title="authoring.data.PatchInstanceData">
<polygon fill="white" stroke="black" points="292,-191.5 292,-210.5 472,-210.5 472,-191.5 292,-191.5"/>
<text text-anchor="middle" x="382" y="-198.5" font-family="Helvetica,sans-Serif" font-size="10.00">authoring.data.PatchInstanceData</text>
</a>
</g>
</g>
<!-- Node5&#45;&gt;Node1 -->
<g id="edge4" class="edge"><title>Node5&#45;&gt;Node1</title>
<path fill="none" stroke="#9a32cd" stroke-dasharray="5,2" d="M482.278,-193.464C524.41,-190.266 572.683,-186.602 611.66,-183.643"/>
<polygon fill="#9a32cd" stroke="#9a32cd" points="481.978,-189.977 472.271,-194.224 482.507,-196.957 481.978,-189.977"/>
<text text-anchor="middle" x="548" y="-195" font-family="Helvetica,sans-Serif" font-size="10.00"> patchData</text>
</g>
<!-- Node6 -->
<g id="node6" class="node"><title>Node6</title>
<g id="a_node6"><a xlink:href="../../d5/d29/interfaceauthoring_1_1data_1_1_authoring_data.html" target="_top" xlink:title="authoring.data.Authoring\lData\&lt; Patch \&gt;">
<polygon fill="white" stroke="black" points="25.5,-235 25.5,-265 162.5,-265 162.5,-235 25.5,-235"/>
<text text-anchor="start" x="33.5" y="-253" font-family="Helvetica,sans-Serif" font-size="10.00">authoring.data.Authoring</text>
<text text-anchor="middle" x="94" y="-242" font-family="Helvetica,sans-Serif" font-size="10.00">Data&lt; Patch &gt;</text>
</a>
</g>
</g>
<!-- Node6&#45;&gt;Node5 -->
<g id="edge5" class="edge"><title>Node6&#45;&gt;Node5</title>
<path fill="none" stroke="midnightblue" d="M172.862,-236.66C221.065,-228.402 281.824,-217.992 325.231,-210.555"/>
<polygon fill="midnightblue" stroke="midnightblue" points="172.043,-233.249 162.778,-238.388 173.225,-240.149 172.043,-233.249"/>
</g>
<!-- Node7 -->
<g id="node7" class="node"><title>Node7</title>
<polygon fill="white" stroke="#bfbfbf" points="0,-186 0,-216 188,-216 188,-186 0,-186"/>
<text text-anchor="start" x="8" y="-204" font-family="Helvetica,sans-Serif" font-size="10.00">List&lt; gamedata.gamecomponents.</text>
<text text-anchor="middle" x="94" y="-193" font-family="Helvetica,sans-Serif" font-size="10.00">Patch &gt;</text>
</g>
<!-- Node7&#45;&gt;Node5 -->
<g id="edge6" class="edge"><title>Node7&#45;&gt;Node5</title>
<path fill="none" stroke="#9a32cd" stroke-dasharray="5,2" d="M198.501,-201C229.047,-201 262.201,-201 291.767,-201"/>
<polygon fill="#9a32cd" stroke="#9a32cd" points="198.251,-197.5 188.251,-201 198.251,-204.5 198.251,-197.5"/>
<text text-anchor="middle" x="234" y="-204" font-family="Helvetica,sans-Serif" font-size="10.00"> myPatches</text>
</g>
<!-- Node8 -->
<g id="node8" class="node"><title>Node8</title>
<g id="a_node8"><a xlink:href="../../de/dfa/classauthoring__environment_1_1_workspace_view.html" target="_top" xlink:title="authoring_environment.WorkspaceView">
<polygon fill="white" stroke="black" points="280,-147.5 280,-166.5 484,-166.5 484,-147.5 280,-147.5"/>
<text text-anchor="middle" x="382" y="-154.5" font-family="Helvetica,sans-Serif" font-size="10.00">authoring_environment.WorkspaceView</text>
</a>
</g>
</g>
<!-- Node8&#45;&gt;Node1 -->
<g id="edge7" class="edge"><title>Node8&#45;&gt;Node1</title>
<path fill="none" stroke="#9a32cd" stroke-dasharray="5,2" d="M494.361,-159.087C526.554,-160.268 561.712,-162.114 594,-165 599.784,-165.517 605.761,-166.146 611.761,-166.844"/>
<polygon fill="#9a32cd" stroke="#9a32cd" points="494.136,-155.577 484.02,-158.726 493.892,-162.572 494.136,-155.577"/>
<text text-anchor="middle" x="548" y="-168" font-family="Helvetica,sans-Serif" font-size="10.00"> myWorkspaceView</text>
</g>
<!-- Node9 -->
<g id="node9" class="node"><title>Node9</title>
<polygon fill="white" stroke="#bfbfbf" points="66,-147.5 66,-166.5 122,-166.5 122,-147.5 66,-147.5"/>
<text text-anchor="middle" x="94" y="-154.5" font-family="Helvetica,sans-Serif" font-size="10.00">TabPane</text>
</g>
<!-- Node9&#45;&gt;Node8 -->
<g id="edge8" class="edge"><title>Node9&#45;&gt;Node8</title>
<path fill="none" stroke="midnightblue" d="M132.567,-157C169.924,-157 228.88,-157 279.985,-157"/>
<polygon fill="midnightblue" stroke="midnightblue" points="132.164,-153.5 122.164,-157 132.164,-160.5 132.164,-153.5"/>
</g>
<!-- Node10 -->
<g id="node10" class="node"><title>Node10</title>
<polygon fill="white" stroke="#bfbfbf" points="14.5,-98 14.5,-128 173.5,-128 173.5,-98 14.5,-98"/>
<text text-anchor="start" x="22.5" y="-116" font-family="Helvetica,sans-Serif" font-size="10.00">List&lt; authoring_environment.</text>
<text text-anchor="middle" x="94" y="-105" font-family="Helvetica,sans-Serif" font-size="10.00">SuperGrid &gt;</text>
</g>
<!-- Node10&#45;&gt;Node8 -->
<g id="edge9" class="edge"><title>Node10&#45;&gt;Node8</title>
<path fill="none" stroke="#9a32cd" stroke-dasharray="5,2" d="M183.625,-126.635C227.494,-133.384 279.386,-141.367 318.95,-147.454"/>
<polygon fill="#9a32cd" stroke="#9a32cd" points="183.945,-123.143 173.529,-125.081 182.881,-130.061 183.945,-123.143"/>
<text text-anchor="middle" x="234" y="-141" font-family="Helvetica,sans-Serif" font-size="10.00"> myGrids</text>
</g>
<!-- Node11 -->
<g id="node11" class="node"><title>Node11</title>
<g id="a_node11"><a xlink:href="../../d6/dda/classauthoring_1_1data_1_1_piece_instance_data.html" target="_top" xlink:title="authoring.data.PieceInstanceData">
<polygon fill="white" stroke="black" points="292.5,-54.5 292.5,-73.5 471.5,-73.5 471.5,-54.5 292.5,-54.5"/>
<text text-anchor="middle" x="382" y="-61.5" font-family="Helvetica,sans-Serif" font-size="10.00">authoring.data.PieceInstanceData</text>
</a>
</g>
</g>
<!-- Node11&#45;&gt;Node1 -->
<g id="edge10" class="edge"><title>Node11&#45;&gt;Node1</title>
<path fill="none" stroke="#9a32cd" stroke-dasharray="5,2" d="M417.895,-77.1289C474.525,-98.435 586.111,-140.418 645.913,-162.918"/>
<polygon fill="#9a32cd" stroke="#9a32cd" points="418.904,-73.7691 408.312,-73.5235 416.439,-80.3208 418.904,-73.7691"/>
<text text-anchor="middle" x="548" y="-145" font-family="Helvetica,sans-Serif" font-size="10.00"> pieceData</text>
</g>
<!-- Node12 -->
<g id="node12" class="node"><title>Node12</title>
<g id="a_node12"><a xlink:href="../../d5/d29/interfaceauthoring_1_1data_1_1_authoring_data.html" target="_top" xlink:title="authoring.data.Authoring\lData\&lt; Piece \&gt;">
<polygon fill="white" stroke="black" points="25.5,-49 25.5,-79 162.5,-79 162.5,-49 25.5,-49"/>
<text text-anchor="start" x="33.5" y="-67" font-family="Helvetica,sans-Serif" font-size="10.00">authoring.data.Authoring</text>
<text text-anchor="middle" x="94" y="-56" font-family="Helvetica,sans-Serif" font-size="10.00">Data&lt; Piece &gt;</text>
</a>
</g>
</g>
<!-- Node12&#45;&gt;Node11 -->
<g id="edge11" class="edge"><title>Node12&#45;&gt;Node11</title>
<path fill="none" stroke="midnightblue" d="M172.981,-64C209.887,-64 254.133,-64 292.312,-64"/>
<polygon fill="midnightblue" stroke="midnightblue" points="172.778,-60.5001 162.778,-64 172.778,-67.5001 172.778,-60.5001"/>
</g>
<!-- Node13 -->
<g id="node13" class="node"><title>Node13</title>
<polygon fill="white" stroke="#bfbfbf" points="0,-0 0,-30 188,-30 188,-0 0,-0"/>
<text text-anchor="start" x="8" y="-18" font-family="Helvetica,sans-Serif" font-size="10.00">List&lt; gamedata.gamecomponents.</text>
<text text-anchor="middle" x="94" y="-7" font-family="Helvetica,sans-Serif" font-size="10.00">Piece &gt;</text>
</g>
<!-- Node13&#45;&gt;Node11 -->
<g id="edge12" class="edge"><title>Node13&#45;&gt;Node11</title>
<path fill="none" stroke="#9a32cd" stroke-dasharray="5,2" d="M192.683,-31.7359C236.975,-39.3244 287.736,-48.0212 325.388,-54.472"/>
<polygon fill="#9a32cd" stroke="#9a32cd" points="193.201,-28.2736 182.753,-30.0346 192.018,-35.1731 193.201,-28.2736"/>
<text text-anchor="middle" x="234" y="-46" font-family="Helvetica,sans-Serif" font-size="10.00"> myPieces</text>
</g>
</g>
</svg>
