<?xml version="1.0" encoding="UTF-8" standalone="no"?>
<!DOCTYPE svg PUBLIC "-//W3C//DTD SVG 1.1//EN"
 "http://www.w3.org/Graphics/SVG/1.1/DTD/svg11.dtd">
<!-- Generated by graphviz version 2.36.0 (20140111.2315)
 -->
<!-- Title: authoring_environment.ShapeGrid.initGridTiles Pages: 1 -->
<svg width="368pt" height="87pt"
 viewBox="0.00 0.00 368.00 87.00" xmlns="http://www.w3.org/2000/svg" xmlns:xlink="http://www.w3.org/1999/xlink">
<g id="graph0" class="graph" transform="scale(1 1) rotate(0) translate(4 83)">
<title>authoring_environment.ShapeGrid.initGridTiles</title>
<polygon fill="white" stroke="none" points="-4,4 -4,-83 364,-83 364,4 -4,4"/>
<!-- Node1 -->
<g id="node1" class="node"><title>Node1</title>
<polygon fill="#bfbfbf" stroke="black" points="0,-24 0,-54 162,-54 162,-24 0,-24"/>
<text text-anchor="start" x="8" y="-42" font-family="Helvetica,sans-Serif" font-size="10.00">authoring_environment.Shape</text>
<text text-anchor="middle" x="81" y="-31" font-family="Helvetica,sans-Serif" font-size="10.00">Grid.initGridTiles</text>
</g>
<!-- Node2 -->
<g id="node2" class="node"><title>Node2</title>
<g id="a_node2"><a xlink:href="../../d1/d4e/classauthoring__environment_1_1_shape_grid.html#a8a53932fada3e0de5306d4adc9d802d8" target="_top" xlink:title="authoring_environment.Shape\lGrid.getCenter">
<polygon fill="white" stroke="black" points="198,-49 198,-79 360,-79 360,-49 198,-49"/>
<text text-anchor="start" x="206" y="-67" font-family="Helvetica,sans-Serif" font-size="10.00">authoring_environment.Shape</text>
<text text-anchor="middle" x="279" y="-56" font-family="Helvetica,sans-Serif" font-size="10.00">Grid.getCenter</text>
</a>
</g>
</g>
<!-- Node1&#45;&gt;Node2 -->
<g id="edge1" class="edge"><title>Node1&#45;&gt;Node2</title>
<path fill="none" stroke="midnightblue" d="M162.003,-49.2045C170.524,-50.2914 179.234,-51.4022 187.861,-52.5027"/>
<polygon fill="midnightblue" stroke="midnightblue" points="187.572,-55.9941 197.935,-53.7876 188.458,-49.0504 187.572,-55.9941"/>
</g>
<!-- Node3 -->
<g id="node3" class="node"><title>Node3</title>
<g id="a_node3"><a xlink:href="../../d1/d4e/classauthoring__environment_1_1_shape_grid.html#ac70e97072b29864b6b2b4c41c8e4ddd6" target="_top" xlink:title="authoring_environment.Shape\lGrid.makeShape">
<polygon fill="white" stroke="black" points="198,-0 198,-30 360,-30 360,-0 198,-0"/>
<text text-anchor="start" x="206" y="-18" font-family="Helvetica,sans-Serif" font-size="10.00">authoring_environment.Shape</text>
<text text-anchor="middle" x="279" y="-7" font-family="Helvetica,sans-Serif" font-size="10.00">Grid.makeShape</text>
</a>
</g>
</g>
<!-- Node1&#45;&gt;Node3 -->
<g id="edge2" class="edge"><title>Node1&#45;&gt;Node3</title>
<path fill="none" stroke="midnightblue" d="M162.003,-29.2037C170.524,-28.1603 179.234,-27.0939 187.861,-26.0375"/>
<polygon fill="midnightblue" stroke="midnightblue" points="188.434,-29.4935 197.935,-24.8039 187.583,-22.5454 188.434,-29.4935"/>
</g>
</g>
</svg>
