<?xml version="1.0" encoding="UTF-8" standalone="no"?>
<!DOCTYPE svg PUBLIC "-//W3C//DTD SVG 1.1//EN"
 "http://www.w3.org/Graphics/SVG/1.1/DTD/svg11.dtd">
<!-- Generated by graphviz version 2.36.0 (20140111.2315)
 -->
<!-- Title: authoring_environment.ShapeGrid.removePatches Pages: 1 -->
<svg width="560pt" height="38pt"
 viewBox="0.00 0.00 560.00 38.00" xmlns="http://www.w3.org/2000/svg" xmlns:xlink="http://www.w3.org/1999/xlink">
<g id="graph0" class="graph" transform="scale(1 1) rotate(0) translate(4 34)">
<title>authoring_environment.ShapeGrid.removePatches</title>
<polygon fill="white" stroke="none" points="-4,4 -4,-34 556,-34 556,4 -4,4"/>
<!-- Node1 -->
<g id="node1" class="node"><title>Node1</title>
<polygon fill="#bfbfbf" stroke="black" points="0,-0 0,-30 162,-30 162,-0 0,-0"/>
<text text-anchor="start" x="8" y="-18" font-family="Helvetica,sans-Serif" font-size="10.00">authoring_environment.Shape</text>
<text text-anchor="middle" x="81" y="-7" font-family="Helvetica,sans-Serif" font-size="10.00">Grid.removePatches</text>
</g>
<!-- Node2 -->
<g id="node2" class="node"><title>Node2</title>
<g id="a_node2"><a xlink:href="../../d7/dd4/classauthoring_1_1data_1_1_patch_instance_data.html#a11093c677748d5c3da9e4aa2ca9acee2" target="_top" xlink:title="authoring.data.PatchInstance\lData.terrainAtLoc">
<polygon fill="white" stroke="black" points="198.5,-0 198.5,-30 355.5,-30 355.5,-0 198.5,-0"/>
<text text-anchor="start" x="206.5" y="-18" font-family="Helvetica,sans-Serif" font-size="10.00">authoring.data.PatchInstance</text>
<text text-anchor="middle" x="277" y="-7" font-family="Helvetica,sans-Serif" font-size="10.00">Data.terrainAtLoc</text>
</a>
</g>
</g>
<!-- Node1&#45;&gt;Node2 -->
<g id="edge1" class="edge"><title>Node1&#45;&gt;Node2</title>
<path fill="none" stroke="midnightblue" d="M162.027,-15C170.654,-15 179.466,-15 188.179,-15"/>
<polygon fill="midnightblue" stroke="midnightblue" points="188.344,-18.5001 198.344,-15 188.344,-11.5001 188.344,-18.5001"/>
</g>
<!-- Node3 -->
<g id="node3" class="node"><title>Node3</title>
<g id="a_node3"><a xlink:href="../../dd/dc6/classgamedata_1_1gamecomponents_1_1_patch.html#afe2960a2f8ab420ef2f42baf360d9a96" target="_top" xlink:title="gamedata.gamecomponents.\lPatch.toString">
<polygon fill="white" stroke="black" points="392,-0 392,-30 552,-30 552,-0 392,-0"/>
<text text-anchor="start" x="400" y="-18" font-family="Helvetica,sans-Serif" font-size="10.00">gamedata.gamecomponents.</text>
<text text-anchor="middle" x="472" y="-7" font-family="Helvetica,sans-Serif" font-size="10.00">Patch.toString</text>
</a>
</g>
</g>
<!-- Node2&#45;&gt;Node3 -->
<g id="edge2" class="edge"><title>Node2&#45;&gt;Node3</title>
<path fill="none" stroke="midnightblue" d="M355.666,-15C364.249,-15 373.038,-15 381.748,-15"/>
<polygon fill="midnightblue" stroke="midnightblue" points="381.92,-18.5001 391.92,-15 381.92,-11.5001 381.92,-18.5001"/>
</g>
</g>
</svg>
