<?xml version="1.0" encoding="UTF-8" standalone="no"?>
<!DOCTYPE svg PUBLIC "-//W3C//DTD SVG 1.1//EN"
 "http://www.w3.org/Graphics/SVG/1.1/DTD/svg11.dtd">
<!-- Generated by graphviz version 2.36.0 (20140111.2315)
 -->
<!-- Title: authoring_environment.ShapeGrid Pages: 1 -->
<svg width="385pt" height="140pt"
 viewBox="0.00 0.00 385.00 140.00" xmlns="http://www.w3.org/2000/svg" xmlns:xlink="http://www.w3.org/1999/xlink">
<g id="graph0" class="graph" transform="scale(1 1) rotate(0) translate(4 136)">
<title>authoring_environment.ShapeGrid</title>
<polygon fill="white" stroke="none" points="-4,4 -4,-136 381,-136 381,4 -4,4"/>
<!-- Node1 -->
<g id="node1" class="node"><title>Node1</title>
<polygon fill="#bfbfbf" stroke="black" points="97,-56.5 97,-75.5 279,-75.5 279,-56.5 97,-56.5"/>
<text text-anchor="middle" x="188" y="-63.5" font-family="Helvetica,sans-Serif" font-size="10.00">authoring_environment.ShapeGrid</text>
</g>
<!-- Node3 -->
<g id="node3" class="node"><title>Node3</title>
<g id="a_node3"><a xlink:href="../../df/d00/classauthoring__environment_1_1_jennie_grid.html" target="_top" xlink:title="authoring_environment.JennieGrid">
<polygon fill="white" stroke="black" points="-0.5,-0.5 -0.5,-19.5 178.5,-19.5 178.5,-0.5 -0.5,-0.5"/>
<text text-anchor="middle" x="89" y="-7.5" font-family="Helvetica,sans-Serif" font-size="10.00">authoring_environment.JennieGrid</text>
</a>
</g>
</g>
<!-- Node1&#45;&gt;Node3 -->
<g id="edge2" class="edge"><title>Node1&#45;&gt;Node3</title>
<path fill="none" stroke="midnightblue" d="M163.163,-51.4526C144.886,-41.4835 120.584,-28.2279 104.867,-19.6545"/>
<polygon fill="midnightblue" stroke="midnightblue" points="161.639,-54.608 172.094,-56.324 164.991,-48.4628 161.639,-54.608"/>
</g>
<!-- Node4 -->
<g id="node4" class="node"><title>Node4</title>
<g id="a_node4"><a xlink:href="../../d0/d82/classauthoring__environment_1_1_sandy_grid.html" target="_top" xlink:title="authoring_environment.SandyGrid">
<polygon fill="white" stroke="black" points="196.5,-0.5 196.5,-19.5 377.5,-19.5 377.5,-0.5 196.5,-0.5"/>
<text text-anchor="middle" x="287" y="-7.5" font-family="Helvetica,sans-Serif" font-size="10.00">authoring_environment.SandyGrid</text>
</a>
</g>
</g>
<!-- Node1&#45;&gt;Node4 -->
<g id="edge3" class="edge"><title>Node1&#45;&gt;Node4</title>
<path fill="none" stroke="midnightblue" d="M212.837,-51.4526C231.114,-41.4835 255.416,-28.2279 271.133,-19.6545"/>
<polygon fill="midnightblue" stroke="midnightblue" points="211.009,-48.4628 203.906,-56.324 214.361,-54.608 211.009,-48.4628"/>
</g>
<!-- Node2 -->
<g id="node2" class="node"><title>Node2</title>
<polygon fill="white" stroke="#bfbfbf" points="168,-112.5 168,-131.5 208,-131.5 208,-112.5 168,-112.5"/>
<text text-anchor="middle" x="188" y="-119.5" font-family="Helvetica,sans-Serif" font-size="10.00">Pane</text>
</g>
<!-- Node2&#45;&gt;Node1 -->
<g id="edge1" class="edge"><title>Node2&#45;&gt;Node1</title>
<path fill="none" stroke="midnightblue" d="M188,-101.805C188,-92.9102 188,-82.7798 188,-75.7511"/>
<polygon fill="midnightblue" stroke="midnightblue" points="184.5,-102.083 188,-112.083 191.5,-102.083 184.5,-102.083"/>
</g>
</g>
</svg>
