<?xml version="1.0" encoding="UTF-8" standalone="no"?>
<!DOCTYPE svg PUBLIC "-//W3C//DTD SVG 1.1//EN"
 "http://www.w3.org/Graphics/SVG/1.1/DTD/svg11.dtd">
<!-- Generated by graphviz version 2.36.0 (20140111.2315)
 -->
<!-- Title: gamedata.wrappers.GameData Pages: 1 -->
<svg width="326pt" height="96pt"
 viewBox="0.00 0.00 326.00 96.00" xmlns="http://www.w3.org/2000/svg" xmlns:xlink="http://www.w3.org/1999/xlink">
<g id="graph0" class="graph" transform="scale(1 1) rotate(0) translate(4 92)">
<title>gamedata.wrappers.GameData</title>
<polygon fill="white" stroke="none" points="-4,4 -4,-92 322,-92 322,4 -4,4"/>
<!-- Node1 -->
<g id="node1" class="node"><title>Node1</title>
<polygon fill="#bfbfbf" stroke="black" points="76,-0.5 76,-19.5 244,-19.5 244,-0.5 76,-0.5"/>
<text text-anchor="middle" x="160" y="-7.5" font-family="Helvetica,sans-Serif" font-size="10.00">gamedata.wrappers.GameData</text>
</g>
<!-- Node2 -->
<g id="node2" class="node"><title>Node2</title>
<polygon fill="white" stroke="#bfbfbf" points="0,-68.5 0,-87.5 152,-87.5 152,-68.5 0,-68.5"/>
<text text-anchor="middle" x="76" y="-75.5" font-family="Helvetica,sans-Serif" font-size="10.00">List&lt; PlayerDataIndividual &gt;</text>
</g>
<!-- Node2&#45;&gt;Node1 -->
<g id="edge1" class="edge"><title>Node2&#45;&gt;Node1</title>
<path fill="none" stroke="#9a32cd" stroke-dasharray="5,2" d="M94.9686,-62.0961C111.635,-49.0012 135.306,-30.4028 149.016,-19.6305"/>
<polygon fill="#9a32cd" stroke="#9a32cd" points="92.6823,-59.4413 86.9815,-68.3717 97.0071,-64.9455 92.6823,-59.4413"/>
<text text-anchor="middle" x="152.5" y="-41.5" font-family="Helvetica,sans-Serif" font-size="10.00"> myPlayers</text>
</g>
<!-- Node3 -->
<g id="node3" class="node"><title>Node3</title>
<polygon fill="white" stroke="#bfbfbf" points="170,-68.5 170,-87.5 318,-87.5 318,-68.5 170,-68.5"/>
<text text-anchor="middle" x="244" y="-75.5" font-family="Helvetica,sans-Serif" font-size="10.00">List&lt; LevelDataIndividual &gt;</text>
</g>
<!-- Node3&#45;&gt;Node1 -->
<g id="edge2" class="edge"><title>Node3&#45;&gt;Node1</title>
<path fill="none" stroke="#9a32cd" stroke-dasharray="5,2" d="M225.031,-62.0961C208.365,-49.0012 184.694,-30.4028 170.984,-19.6305"/>
<polygon fill="#9a32cd" stroke="#9a32cd" points="222.993,-64.9455 233.018,-68.3717 227.318,-59.4413 222.993,-64.9455"/>
<text text-anchor="middle" x="233.5" y="-41.5" font-family="Helvetica,sans-Serif" font-size="10.00"> myLevels</text>
</g>
</g>
</svg>
