<?xml version="1.0" encoding="UTF-8" standalone="no"?>
<!DOCTYPE svg PUBLIC "-//W3C//DTD SVG 1.1//EN"
 "http://www.w3.org/Graphics/SVG/1.1/DTD/svg11.dtd">
<!-- Generated by graphviz version 2.36.0 (20140111.2315)
 -->
<!-- Title: authoring_environment.SuperGrid.getNumRows Pages: 1 -->
<svg width="2170pt" height="448pt"
 viewBox="0.00 0.00 2170.00 448.00" xmlns="http://www.w3.org/2000/svg" xmlns:xlink="http://www.w3.org/1999/xlink">
<g id="graph0" class="graph" transform="scale(1 1) rotate(0) translate(4 444)">
<title>authoring_environment.SuperGrid.getNumRows</title>
<polygon fill="white" stroke="none" points="-4,4 -4,-444 2166,-444 2166,4 -4,4"/>
<!-- Node1 -->
<g id="node1" class="node"><title>Node1</title>
<polygon fill="#bfbfbf" stroke="black" points="0,-107 0,-137 160,-137 160,-107 0,-107"/>
<text text-anchor="start" x="8" y="-125" font-family="Helvetica,sans-Serif" font-size="10.00">authoring_environment.Super</text>
<text text-anchor="middle" x="80" y="-114" font-family="Helvetica,sans-Serif" font-size="10.00">Grid.getNumRows</text>
</g>
<!-- Node2 -->
<g id="node2" class="node"><title>Node2</title>
<g id="a_node2"><a xlink:href="../../d3/d12/classtests_1_1_test_game_creator.html#a4c85cf768c7e38e9b2f6db858e8764ec" target="_top" xlink:title="tests.TestGameCreator.create\lNewGrid">
<polygon fill="white" stroke="black" points="213.5,-273 213.5,-303 374.5,-303 374.5,-273 213.5,-273"/>
<text text-anchor="start" x="221.5" y="-291" font-family="Helvetica,sans-Serif" font-size="10.00">tests.TestGameCreator.create</text>
<text text-anchor="middle" x="294" y="-280" font-family="Helvetica,sans-Serif" font-size="10.00">NewGrid</text>
</a>
</g>
</g>
<!-- Node1&#45;&gt;Node2 -->
<g id="edge1" class="edge"><title>Node1&#45;&gt;Node2</title>
<path fill="none" stroke="midnightblue" d="M108.328,-143.398C151.855,-177.481 235.87,-243.266 273.703,-272.89"/>
<polygon fill="midnightblue" stroke="midnightblue" points="110.219,-140.434 100.187,-137.024 105.903,-145.945 110.219,-140.434"/>
</g>
<!-- Node10 -->
<g id="node10" class="node"><title>Node10</title>
<g id="a_node10"><a xlink:href="../../da/dd4/classauthoring_1_1data_1_1_authoring_level.html#ac281ccfd05fbd5b7d89b77500b97c97f" target="_top" xlink:title="authoring.data.Authoring\lLevel.getNumRows">
<polygon fill="white" stroke="black" points="225.5,-156 225.5,-186 362.5,-186 362.5,-156 225.5,-156"/>
<text text-anchor="start" x="233.5" y="-174" font-family="Helvetica,sans-Serif" font-size="10.00">authoring.data.Authoring</text>
<text text-anchor="middle" x="294" y="-163" font-family="Helvetica,sans-Serif" font-size="10.00">Level.getNumRows</text>
</a>
</g>
</g>
<!-- Node1&#45;&gt;Node10 -->
<g id="edge9" class="edge"><title>Node1&#45;&gt;Node10</title>
<path fill="none" stroke="midnightblue" d="M155.983,-139.331C179.52,-144.771 205.295,-150.729 228.075,-155.994"/>
<polygon fill="midnightblue" stroke="midnightblue" points="156.579,-135.877 146.048,-137.035 155.003,-142.697 156.579,-135.877"/>
</g>
<!-- Node11 -->
<g id="node11" class="node"><title>Node11</title>
<g id="a_node11"><a xlink:href="../../d5/dfb/classgame_player_1_1_game_grid_effect.html#ae71ddafff23aecd0ee6697d732e0a919" target="_top" xlink:title="gamePlayer.GameGridEffect.highlight\lActionRange">
<polygon fill="white" stroke="black" points="196.5,-107 196.5,-137 391.5,-137 391.5,-107 196.5,-107"/>
<text text-anchor="start" x="204.5" y="-125" font-family="Helvetica,sans-Serif" font-size="10.00">gamePlayer.GameGridEffect.highlight</text>
<text text-anchor="middle" x="294" y="-114" font-family="Helvetica,sans-Serif" font-size="10.00">ActionRange</text>
</a>
</g>
</g>
<!-- Node1&#45;&gt;Node11 -->
<g id="edge10" class="edge"><title>Node1&#45;&gt;Node11</title>
<path fill="none" stroke="midnightblue" d="M170.263,-122C178.87,-122 187.629,-122 196.303,-122"/>
<polygon fill="midnightblue" stroke="midnightblue" points="170.242,-118.5 160.242,-122 170.242,-125.5 170.242,-118.5"/>
</g>
<!-- Node15 -->
<g id="node15" class="node"><title>Node15</title>
<g id="a_node15"><a xlink:href="../../da/d55/classgame_player_1_1_keyboard_movement.html#af45fd8d279b1ee2d6be5466d425485ab" target="_top" xlink:title="gamePlayer.KeyboardMovement.set\lMovementKeyControl">
<polygon fill="white" stroke="black" points="1084.5,-120 1084.5,-150 1273.5,-150 1273.5,-120 1084.5,-120"/>
<text text-anchor="start" x="1092.5" y="-138" font-family="Helvetica,sans-Serif" font-size="10.00">gamePlayer.KeyboardMovement.set</text>
<text text-anchor="middle" x="1179" y="-127" font-family="Helvetica,sans-Serif" font-size="10.00">MovementKeyControl</text>
</a>
</g>
</g>
<!-- Node1&#45;&gt;Node15 -->
<g id="edge33" class="edge"><title>Node1&#45;&gt;Node15</title>
<path fill="none" stroke="midnightblue" d="M153.422,-104.816C238.506,-86.1624 384.173,-59 511,-59 511,-59 511,-59 730,-59 872.561,-59 908.102,-73.5777 1048,-101 1074.1,-106.116 1102.73,-113.417 1126.47,-119.944"/>
<polygon fill="midnightblue" stroke="midnightblue" points="152.612,-101.411 143.605,-106.99 154.126,-108.245 152.612,-101.411"/>
</g>
<!-- Node30 -->
<g id="node30" class="node"><title>Node30</title>
<g id="a_node30"><a xlink:href="../../de/d8c/classfxml__main_1_1_level_editor.html#a014e481bcd2183307716f56c746af0bd" target="_top" xlink:title="fxml_main.LevelEditor.Level\lEditor">
<polygon fill="white" stroke="black" points="219.5,-0 219.5,-30 368.5,-30 368.5,-0 219.5,-0"/>
<text text-anchor="start" x="227.5" y="-18" font-family="Helvetica,sans-Serif" font-size="10.00">fxml_main.LevelEditor.Level</text>
<text text-anchor="middle" x="294" y="-7" font-family="Helvetica,sans-Serif" font-size="10.00">Editor</text>
</a>
</g>
</g>
<!-- Node1&#45;&gt;Node30 -->
<g id="edge32" class="edge"><title>Node1&#45;&gt;Node30</title>
<path fill="none" stroke="midnightblue" d="M107.958,-100.651C130.444,-83.6764 163.884,-60.3151 196,-45 208.172,-39.1956 221.731,-34.1813 234.761,-30.0032"/>
<polygon fill="midnightblue" stroke="midnightblue" points="105.717,-97.958 99.9013,-106.814 109.97,-103.518 105.717,-97.958"/>
</g>
<!-- Node3 -->
<g id="node3" class="node"><title>Node3</title>
<g id="a_node3"><a xlink:href="../../d3/d12/classtests_1_1_test_game_creator.html#a6088501ec4cce8d90d4561b695065a0d" target="_top" xlink:title="tests.TestGameCreator.create\lNewGame">
<polygon fill="white" stroke="black" points="431.5,-322 431.5,-352 592.5,-352 592.5,-322 431.5,-322"/>
<text text-anchor="start" x="439.5" y="-340" font-family="Helvetica,sans-Serif" font-size="10.00">tests.TestGameCreator.create</text>
<text text-anchor="middle" x="512" y="-329" font-family="Helvetica,sans-Serif" font-size="10.00">NewGame</text>
</a>
</g>
</g>
<!-- Node2&#45;&gt;Node3 -->
<g id="edge2" class="edge"><title>Node2&#45;&gt;Node3</title>
<path fill="none" stroke="midnightblue" d="M371.077,-305.258C395.144,-310.718 421.536,-316.705 444.85,-321.994"/>
<polygon fill="midnightblue" stroke="midnightblue" points="371.802,-301.834 361.275,-303.035 370.253,-308.66 371.802,-301.834"/>
</g>
<!-- Node4 -->
<g id="node4" class="node"><title>Node4</title>
<g id="a_node4"><a xlink:href="../../d8/d93/classauthoring_1_1concretefeatures_1_1menus_1_1_file_x.html#a06eadcf7852f723bc5a70d08a1bc5f3f" target="_top" xlink:title="authoring.concretefeatures.menus.\lFileX.handleSave">
<polygon fill="white" stroke="black" points="636,-410 636,-440 822,-440 822,-410 636,-410"/>
<text text-anchor="start" x="644" y="-428" font-family="Helvetica,sans-Serif" font-size="10.00">authoring.concretefeatures.menus.</text>
<text text-anchor="middle" x="729" y="-417" font-family="Helvetica,sans-Serif" font-size="10.00">FileX.handleSave</text>
</a>
</g>
</g>
<!-- Node3&#45;&gt;Node4 -->
<g id="edge3" class="edge"><title>Node3&#45;&gt;Node4</title>
<path fill="none" stroke="midnightblue" d="M546.073,-357.188C569.421,-370.764 601.802,-388.259 632,-400 641.551,-403.714 651.848,-407.051 662.029,-409.988"/>
<polygon fill="midnightblue" stroke="midnightblue" points="547.672,-354.068 537.279,-352.011 544.121,-360.1 547.672,-354.068"/>
</g>
<!-- Node6 -->
<g id="node6" class="node"><title>Node6</title>
<g id="a_node6"><a xlink:href="../../df/dd5/classgame_player_1_1_view_controller.html#ac0350fa190876455755b7fb25f567af1" target="_top" xlink:title="gamePlayer.ViewController.testGame">
<polygon fill="white" stroke="black" points="632,-371.5 632,-390.5 826,-390.5 826,-371.5 632,-371.5"/>
<text text-anchor="middle" x="729" y="-378.5" font-family="Helvetica,sans-Serif" font-size="10.00">gamePlayer.ViewController.testGame</text>
</a>
</g>
</g>
<!-- Node3&#45;&gt;Node6 -->
<g id="edge5" class="edge"><title>Node3&#45;&gt;Node6</title>
<path fill="none" stroke="midnightblue" d="M596.489,-354.086C625.372,-359.997 656.692,-366.407 681.519,-371.488"/>
<polygon fill="midnightblue" stroke="midnightblue" points="596.888,-350.595 586.389,-352.019 595.485,-357.453 596.888,-350.595"/>
</g>
<!-- Node7 -->
<g id="node7" class="node"><title>Node7</title>
<g id="a_node7"><a xlink:href="../../d9/d51/classtests_1_1_global_action_tester.html#acc8e81a79086b93c043129dba02b3854" target="_top" xlink:title="tests.GlobalActionTester.\lGlobalActionTester">
<polygon fill="white" stroke="black" points="662,-322 662,-352 796,-352 796,-322 662,-322"/>
<text text-anchor="start" x="670" y="-340" font-family="Helvetica,sans-Serif" font-size="10.00">tests.GlobalActionTester.</text>
<text text-anchor="middle" x="729" y="-329" font-family="Helvetica,sans-Serif" font-size="10.00">GlobalActionTester</text>
</a>
</g>
</g>
<!-- Node3&#45;&gt;Node7 -->
<g id="edge6" class="edge"><title>Node3&#45;&gt;Node7</title>
<path fill="none" stroke="midnightblue" d="M602.966,-337C622.667,-337 643.175,-337 661.747,-337"/>
<polygon fill="midnightblue" stroke="midnightblue" points="602.753,-333.5 592.753,-337 602.752,-340.5 602.753,-333.5"/>
</g>
<!-- Node8 -->
<g id="node8" class="node"><title>Node8</title>
<g id="a_node8"><a xlink:href="../../d7/df4/classtests_1_1_j_s_o_n_tester_main.html#a5f1fa68f3fcb37a473271cdbfeaaa92e" target="_top" xlink:title="tests.JSONTesterMain.test\lJSONwrite">
<polygon fill="white" stroke="black" points="659,-273 659,-303 799,-303 799,-273 659,-273"/>
<text text-anchor="start" x="667" y="-291" font-family="Helvetica,sans-Serif" font-size="10.00">tests.JSONTesterMain.test</text>
<text text-anchor="middle" x="729" y="-280" font-family="Helvetica,sans-Serif" font-size="10.00">JSONwrite</text>
</a>
</g>
</g>
<!-- Node3&#45;&gt;Node8 -->
<g id="edge7" class="edge"><title>Node3&#45;&gt;Node8</title>
<path fill="none" stroke="midnightblue" d="M588.724,-319.742C612.681,-314.282 638.951,-308.295 662.157,-303.006"/>
<polygon fill="midnightblue" stroke="midnightblue" points="587.94,-316.331 578.968,-321.965 589.496,-323.156 587.94,-316.331"/>
</g>
<!-- Node5 -->
<g id="node5" class="node"><title>Node5</title>
<g id="a_node5"><a xlink:href="../../d8/d93/classauthoring_1_1concretefeatures_1_1menus_1_1_file_x.html#a4b99e0877ab0c9e769217c815f3b99a1" target="_top" xlink:title="authoring.concretefeatures.menus.\lFileX.FileX">
<polygon fill="white" stroke="black" points="862,-410 862,-440 1048,-440 1048,-410 862,-410"/>
<text text-anchor="start" x="870" y="-428" font-family="Helvetica,sans-Serif" font-size="10.00">authoring.concretefeatures.menus.</text>
<text text-anchor="middle" x="955" y="-417" font-family="Helvetica,sans-Serif" font-size="10.00">FileX.FileX</text>
</a>
</g>
</g>
<!-- Node4&#45;&gt;Node5 -->
<g id="edge4" class="edge"><title>Node4&#45;&gt;Node5</title>
<path fill="none" stroke="midnightblue" d="M832.315,-425C842.184,-425 852.155,-425 861.916,-425"/>
<polygon fill="midnightblue" stroke="midnightblue" points="832.079,-421.5 822.079,-425 832.079,-428.5 832.079,-421.5"/>
</g>
<!-- Node9 -->
<g id="node9" class="node"><title>Node9</title>
<g id="a_node9"><a xlink:href="../../d7/df4/classtests_1_1_j_s_o_n_tester_main.html#a931215da47157cbc5157c6a9df31ccd4" target="_top" xlink:title="tests.JSONTesterMain.main">
<polygon fill="white" stroke="black" points="882,-278.5 882,-297.5 1028,-297.5 1028,-278.5 882,-278.5"/>
<text text-anchor="middle" x="955" y="-285.5" font-family="Helvetica,sans-Serif" font-size="10.00">tests.JSONTesterMain.main</text>
</a>
</g>
</g>
<!-- Node8&#45;&gt;Node9 -->
<g id="edge8" class="edge"><title>Node8&#45;&gt;Node9</title>
<path fill="none" stroke="midnightblue" d="M809.346,-288C832.918,-288 858.605,-288 881.704,-288"/>
<polygon fill="midnightblue" stroke="midnightblue" points="809.035,-284.5 799.035,-288 809.035,-291.5 809.035,-284.5"/>
</g>
<!-- Node12 -->
<g id="node12" class="node"><title>Node12</title>
<g id="a_node12"><a xlink:href="../../df/dd5/classgame_player_1_1_view_controller.html#a7eb038fd9f20604ade0406f27ef76657" target="_top" xlink:title="gamePlayer.ViewController.bind\lAction">
<polygon fill="white" stroke="black" points="428.5,-126 428.5,-156 595.5,-156 595.5,-126 428.5,-126"/>
<text text-anchor="start" x="436.5" y="-144" font-family="Helvetica,sans-Serif" font-size="10.00">gamePlayer.ViewController.bind</text>
<text text-anchor="middle" x="512" y="-133" font-family="Helvetica,sans-Serif" font-size="10.00">Action</text>
</a>
</g>
</g>
<!-- Node11&#45;&gt;Node12 -->
<g id="edge11" class="edge"><title>Node11&#45;&gt;Node12</title>
<path fill="none" stroke="midnightblue" d="M401.703,-131.386C410.642,-132.172 419.593,-132.96 428.311,-133.726"/>
<polygon fill="midnightblue" stroke="midnightblue" points="401.896,-127.889 391.628,-130.5 401.283,-134.863 401.896,-127.889"/>
</g>
<!-- Node13 -->
<g id="node13" class="node"><title>Node13</title>
<g id="a_node13"><a xlink:href="../../d1/db7/classgame_player_1_1_keyboard_action.html#a08ace57322b8639020688dd9493c3e1f" target="_top" xlink:title="gamePlayer.KeyboardAction.set\lActionKeyControl">
<polygon fill="white" stroke="black" points="645,-224 645,-254 813,-254 813,-224 645,-224"/>
<text text-anchor="start" x="653" y="-242" font-family="Helvetica,sans-Serif" font-size="10.00">gamePlayer.KeyboardAction.set</text>
<text text-anchor="middle" x="729" y="-231" font-family="Helvetica,sans-Serif" font-size="10.00">ActionKeyControl</text>
</a>
</g>
</g>
<!-- Node12&#45;&gt;Node13 -->
<g id="edge12" class="edge"><title>Node12&#45;&gt;Node13</title>
<path fill="none" stroke="midnightblue" d="M541.85,-162.071C565.17,-178.252 599.373,-200.109 632,-214 640.874,-217.778 650.459,-221.099 660.02,-223.983"/>
<polygon fill="midnightblue" stroke="midnightblue" points="543.664,-159.068 533.472,-156.176 539.636,-164.793 543.664,-159.068"/>
</g>
<!-- Node26 -->
<g id="node26" class="node"><title>Node26</title>
<g id="a_node26"><a xlink:href="../../df/dd5/classgame_player_1_1_view_controller.html#ab8c14a8c53be9021a62d0107c2f75ef6" target="_top" xlink:title="gamePlayer.ViewController.update\lActions">
<polygon fill="white" stroke="black" points="639,-175 639,-205 819,-205 819,-175 639,-175"/>
<text text-anchor="start" x="647" y="-193" font-family="Helvetica,sans-Serif" font-size="10.00">gamePlayer.ViewController.update</text>
<text text-anchor="middle" x="729" y="-182" font-family="Helvetica,sans-Serif" font-size="10.00">Actions</text>
</a>
</g>
</g>
<!-- Node12&#45;&gt;Node26 -->
<g id="edge28" class="edge"><title>Node12&#45;&gt;Node26</title>
<path fill="none" stroke="midnightblue" d="M588.724,-158.258C612.681,-163.718 638.951,-169.705 662.157,-174.994"/>
<polygon fill="midnightblue" stroke="midnightblue" points="589.496,-154.844 578.968,-156.035 587.94,-161.669 589.496,-154.844"/>
</g>
<!-- Node29 -->
<g id="node29" class="node"><title>Node29</title>
<g id="a_node29"><a xlink:href="../../df/df0/classtests_1_1_view_controller_test.html#a74e99f9c72cbdcd2d56271b2ad2df1ce" target="_top" xlink:title="tests.ViewControllerTest.bind\lActionTest">
<polygon fill="white" stroke="black" points="652,-126 652,-156 806,-156 806,-126 652,-126"/>
<text text-anchor="start" x="660" y="-144" font-family="Helvetica,sans-Serif" font-size="10.00">tests.ViewControllerTest.bind</text>
<text text-anchor="middle" x="729" y="-133" font-family="Helvetica,sans-Serif" font-size="10.00">ActionTest</text>
</a>
</g>
</g>
<!-- Node12&#45;&gt;Node29 -->
<g id="edge31" class="edge"><title>Node12&#45;&gt;Node29</title>
<path fill="none" stroke="midnightblue" d="M605.555,-141C620.955,-141 636.771,-141 651.707,-141"/>
<polygon fill="midnightblue" stroke="midnightblue" points="605.51,-137.5 595.51,-141 605.51,-144.5 605.51,-137.5"/>
</g>
<!-- Node14 -->
<g id="node14" class="node"><title>Node14</title>
<g id="a_node14"><a xlink:href="../../df/dd5/classgame_player_1_1_view_controller.html#a95c2acd43bb39b8606c69971c1cd30f5" target="_top" xlink:title="gamePlayer.ViewController.perform\lAction">
<polygon fill="white" stroke="black" points="862.5,-224 862.5,-254 1047.5,-254 1047.5,-224 862.5,-224"/>
<text text-anchor="start" x="870.5" y="-242" font-family="Helvetica,sans-Serif" font-size="10.00">gamePlayer.ViewController.perform</text>
<text text-anchor="middle" x="955" y="-231" font-family="Helvetica,sans-Serif" font-size="10.00">Action</text>
</a>
</g>
</g>
<!-- Node13&#45;&gt;Node14 -->
<g id="edge13" class="edge"><title>Node13&#45;&gt;Node14</title>
<path fill="none" stroke="midnightblue" d="M823.355,-239C836.261,-239 849.507,-239 862.381,-239"/>
<polygon fill="midnightblue" stroke="midnightblue" points="823.091,-235.5 813.091,-239 823.091,-242.5 823.091,-235.5"/>
</g>
<!-- Node14&#45;&gt;Node15 -->
<g id="edge14" class="edge"><title>Node14&#45;&gt;Node15</title>
<path fill="none" stroke="midnightblue" d="M1000.64,-221.066C1015.97,-216.612 1033.03,-211.43 1048,-205 1083.67,-189.678 1121.24,-165.904 1146.77,-150.141"/>
<polygon fill="midnightblue" stroke="midnightblue" points="999.49,-217.754 990.855,-223.893 1001.43,-224.479 999.49,-217.754"/>
</g>
<!-- Node17 -->
<g id="node17" class="node"><title>Node17</title>
<g id="a_node17"><a xlink:href="../../df/dd5/classgame_player_1_1_view_controller.html#a22ee80193bbac79a935ee961a183bfcd" target="_top" xlink:title="gamePlayer.ViewController.set\lOnClick">
<polygon fill="white" stroke="black" points="1098.5,-248 1098.5,-278 1259.5,-278 1259.5,-248 1098.5,-248"/>
<text text-anchor="start" x="1106.5" y="-266" font-family="Helvetica,sans-Serif" font-size="10.00">gamePlayer.ViewController.set</text>
<text text-anchor="middle" x="1179" y="-255" font-family="Helvetica,sans-Serif" font-size="10.00">OnClick</text>
</a>
</g>
</g>
<!-- Node14&#45;&gt;Node17 -->
<g id="edge18" class="edge"><title>Node14&#45;&gt;Node17</title>
<path fill="none" stroke="midnightblue" d="M1057.9,-250.016C1071.47,-251.483 1085.22,-252.969 1098.33,-254.387"/>
<polygon fill="midnightblue" stroke="midnightblue" points="1057.9,-246.495 1047.58,-248.9 1057.14,-253.455 1057.9,-246.495"/>
</g>
<!-- Node15&#45;&gt;Node12 -->
<g id="edge15" class="edge"><title>Node15&#45;&gt;Node12</title>
<path fill="none" stroke="midnightblue" d="M1074.38,-119.35C1065.47,-118.401 1056.59,-117.592 1048,-117 863.548,-104.291 815.974,-98.6329 632,-117 613.545,-118.842 593.716,-122.254 575.639,-125.939"/>
<polygon fill="midnightblue" stroke="midnightblue" points="1074.1,-122.841 1084.43,-120.478 1074.88,-115.885 1074.1,-122.841"/>
</g>
<!-- Node15&#45;&gt;Node14 -->
<g id="edge16" class="edge"><title>Node15&#45;&gt;Node14</title>
<path fill="none" stroke="midnightblue" d="M1157.33,-156.512C1132.48,-176.631 1088.99,-205.395 1048,-223 1047.24,-223.327 1046.47,-223.65 1045.7,-223.97"/>
<polygon fill="midnightblue" stroke="midnightblue" points="1159.61,-159.165 1165.01,-150.049 1155.11,-153.808 1159.61,-159.165"/>
</g>
<!-- Node16 -->
<g id="node16" class="node"><title>Node16</title>
<g id="a_node16"><a xlink:href="../../df/dd5/classgame_player_1_1_view_controller.html#a27da17c1280cd953a14f6b76b18f9a4b" target="_top" xlink:title="gamePlayer.ViewController.toggle\lKeyboardControl">
<polygon fill="white" stroke="black" points="1324,-120 1324,-150 1500,-150 1500,-120 1324,-120"/>
<text text-anchor="start" x="1332" y="-138" font-family="Helvetica,sans-Serif" font-size="10.00">gamePlayer.ViewController.toggle</text>
<text text-anchor="middle" x="1412" y="-127" font-family="Helvetica,sans-Serif" font-size="10.00">KeyboardControl</text>
</a>
</g>
</g>
<!-- Node15&#45;&gt;Node16 -->
<g id="edge17" class="edge"><title>Node15&#45;&gt;Node16</title>
<path fill="none" stroke="midnightblue" d="M1283.83,-135C1297.24,-135 1310.86,-135 1323.96,-135"/>
<polygon fill="midnightblue" stroke="midnightblue" points="1283.62,-131.5 1273.62,-135 1283.62,-138.5 1283.62,-131.5"/>
</g>
<!-- Node18 -->
<g id="node18" class="node"><title>Node18</title>
<g id="a_node18"><a xlink:href="../../df/dd5/classgame_player_1_1_view_controller.html#a10a40967a873f067cf91b024ff85b38e" target="_top" xlink:title="gamePlayer.ViewController.initializeGrid">
<polygon fill="white" stroke="black" points="1310,-255.5 1310,-274.5 1514,-274.5 1514,-255.5 1310,-255.5"/>
<text text-anchor="middle" x="1412" y="-262.5" font-family="Helvetica,sans-Serif" font-size="10.00">gamePlayer.ViewController.initializeGrid</text>
</a>
</g>
</g>
<!-- Node17&#45;&gt;Node18 -->
<g id="edge19" class="edge"><title>Node17&#45;&gt;Node18</title>
<path fill="none" stroke="midnightblue" d="M1270.18,-263.781C1283.23,-263.894 1296.74,-264.011 1309.99,-264.125"/>
<polygon fill="midnightblue" stroke="midnightblue" points="1269.85,-260.278 1259.82,-263.691 1269.79,-267.278 1269.85,-260.278"/>
</g>
<!-- Node19 -->
<g id="node19" class="node"><title>Node19</title>
<g id="a_node19"><a xlink:href="../../df/dd5/classgame_player_1_1_view_controller.html#a0d1a3d443966f151b070dc751d2faf9a" target="_top" xlink:title="gamePlayer.ViewController.restartGame">
<polygon fill="white" stroke="black" points="1550,-337.5 1550,-356.5 1758,-356.5 1758,-337.5 1550,-337.5"/>
<text text-anchor="middle" x="1654" y="-344.5" font-family="Helvetica,sans-Serif" font-size="10.00">gamePlayer.ViewController.restartGame</text>
</a>
</g>
</g>
<!-- Node18&#45;&gt;Node19 -->
<g id="edge20" class="edge"><title>Node18&#45;&gt;Node19</title>
<path fill="none" stroke="midnightblue" d="M1438.99,-279.327C1465.98,-293.633 1509.81,-315.273 1550,-328 1561.96,-331.788 1574.96,-334.915 1587.56,-337.461"/>
<polygon fill="midnightblue" stroke="midnightblue" points="1440.64,-276.242 1430.18,-274.599 1437.33,-282.411 1440.64,-276.242"/>
</g>
<!-- Node20 -->
<g id="node20" class="node"><title>Node20</title>
<g id="a_node20"><a xlink:href="../../df/dd5/classgame_player_1_1_view_controller.html#af1870a0b6786d96d118021fc62b6475d" target="_top" xlink:title="gamePlayer.ViewController.beginGame">
<polygon fill="white" stroke="black" points="1553,-299.5 1553,-318.5 1755,-318.5 1755,-299.5 1553,-299.5"/>
<text text-anchor="middle" x="1654" y="-306.5" font-family="Helvetica,sans-Serif" font-size="10.00">gamePlayer.ViewController.beginGame</text>
</a>
</g>
</g>
<!-- Node18&#45;&gt;Node20 -->
<g id="edge21" class="edge"><title>Node18&#45;&gt;Node20</title>
<path fill="none" stroke="midnightblue" d="M1475.27,-276.417C1514.33,-283.577 1564.09,-292.701 1601.03,-299.471"/>
<polygon fill="midnightblue" stroke="midnightblue" points="1475.54,-272.908 1465.08,-274.547 1474.28,-279.793 1475.54,-272.908"/>
</g>
<!-- Node21 -->
<g id="node21" class="node"><title>Node21</title>
<g id="a_node21"><a xlink:href="../../df/dd5/classgame_player_1_1_view_controller.html#a4c1754d129a4eac955390b428eaa448a" target="_top" xlink:title="gamePlayer.ViewController.test\lPlayGame">
<polygon fill="white" stroke="black" points="1571.5,-250 1571.5,-280 1736.5,-280 1736.5,-250 1571.5,-250"/>
<text text-anchor="start" x="1579.5" y="-268" font-family="Helvetica,sans-Serif" font-size="10.00">gamePlayer.ViewController.test</text>
<text text-anchor="middle" x="1654" y="-257" font-family="Helvetica,sans-Serif" font-size="10.00">PlayGame</text>
</a>
</g>
</g>
<!-- Node18&#45;&gt;Node21 -->
<g id="edge22" class="edge"><title>Node18&#45;&gt;Node21</title>
<path fill="none" stroke="midnightblue" d="M1524.43,-265C1540.23,-265 1556.22,-265 1571.32,-265"/>
<polygon fill="midnightblue" stroke="midnightblue" points="1524.09,-261.5 1514.09,-265 1524.09,-268.5 1524.09,-261.5"/>
</g>
<!-- Node23 -->
<g id="node23" class="node"><title>Node23</title>
<g id="a_node23"><a xlink:href="../../df/dd5/classgame_player_1_1_view_controller.html#a620f8a02d3ac7677cd179fcd812aca55" target="_top" xlink:title="gamePlayer.ViewController.check\lEndActions">
<polygon fill="white" stroke="black" points="1567,-201 1567,-231 1741,-231 1741,-201 1567,-201"/>
<text text-anchor="start" x="1575" y="-219" font-family="Helvetica,sans-Serif" font-size="10.00">gamePlayer.ViewController.check</text>
<text text-anchor="middle" x="1654" y="-208" font-family="Helvetica,sans-Serif" font-size="10.00">EndActions</text>
</a>
</g>
</g>
<!-- Node18&#45;&gt;Node23 -->
<g id="edge24" class="edge"><title>Node18&#45;&gt;Node23</title>
<path fill="none" stroke="midnightblue" d="M1469.42,-253.48C1502.19,-246.791 1543.84,-238.287 1579.18,-231.071"/>
<polygon fill="midnightblue" stroke="midnightblue" points="1468.66,-250.064 1459.56,-255.494 1470.06,-256.923 1468.66,-250.064"/>
</g>
<!-- Node22 -->
<g id="node22" class="node"><title>Node22</title>
<g id="a_node22"><a xlink:href="../../db/d40/classfxml__main_1_1_authoring_controller.html#a2ec133c8edf0a7ab1e84f2e12455233d" target="_top" xlink:title="fxml_main.AuthoringController.save\lAsGame">
<polygon fill="white" stroke="black" points="1794.5,-250 1794.5,-280 1981.5,-280 1981.5,-250 1794.5,-250"/>
<text text-anchor="start" x="1802.5" y="-268" font-family="Helvetica,sans-Serif" font-size="10.00">fxml_main.AuthoringController.save</text>
<text text-anchor="middle" x="1888" y="-257" font-family="Helvetica,sans-Serif" font-size="10.00">AsGame</text>
</a>
</g>
</g>
<!-- Node21&#45;&gt;Node22 -->
<g id="edge23" class="edge"><title>Node21&#45;&gt;Node22</title>
<path fill="none" stroke="midnightblue" d="M1746.96,-265C1762.59,-265 1778.83,-265 1794.47,-265"/>
<polygon fill="midnightblue" stroke="midnightblue" points="1746.79,-261.5 1736.79,-265 1746.79,-268.5 1746.79,-261.5"/>
</g>
<!-- Node23&#45;&gt;Node14 -->
<g id="edge25" class="edge"><title>Node23&#45;&gt;Node14</title>
<path fill="none" stroke="midnightblue" d="M1556.7,-219.178C1422.22,-223.615 1179.88,-231.612 1047.84,-235.97"/>
<polygon fill="midnightblue" stroke="midnightblue" points="1557.11,-222.666 1566.98,-218.838 1556.87,-215.67 1557.11,-222.666"/>
</g>
<!-- Node24 -->
<g id="node24" class="node"><title>Node24</title>
<g id="a_node24"><a xlink:href="../../df/dd5/classgame_player_1_1_view_controller.html#a13ea7814bde61a8042c5b1a23af41416" target="_top" xlink:title="gamePlayer.ViewController.end\lAction">
<polygon fill="white" stroke="black" points="1806,-201 1806,-231 1970,-231 1970,-201 1806,-201"/>
<text text-anchor="start" x="1814" y="-219" font-family="Helvetica,sans-Serif" font-size="10.00">gamePlayer.ViewController.end</text>
<text text-anchor="middle" x="1888" y="-208" font-family="Helvetica,sans-Serif" font-size="10.00">Action</text>
</a>
</g>
</g>
<!-- Node23&#45;&gt;Node24 -->
<g id="edge26" class="edge"><title>Node23&#45;&gt;Node24</title>
<path fill="none" stroke="midnightblue" d="M1751.06,-216C1769.22,-216 1788.05,-216 1805.7,-216"/>
<polygon fill="midnightblue" stroke="midnightblue" points="1751.06,-212.5 1741.06,-216 1751.06,-219.5 1751.06,-212.5"/>
</g>
<!-- Node25 -->
<g id="node25" class="node"><title>Node25</title>
<g id="a_node25"><a xlink:href="../../db/d00/classgame_player_1_1_apply_state.html#aed42c1aba25264bc6880036f693a1c9e" target="_top" xlink:title="gamePlayer.ApplyState.on\lClick">
<polygon fill="white" stroke="black" points="2018.5,-201 2018.5,-231 2161.5,-231 2161.5,-201 2018.5,-201"/>
<text text-anchor="start" x="2026.5" y="-219" font-family="Helvetica,sans-Serif" font-size="10.00">gamePlayer.ApplyState.on</text>
<text text-anchor="middle" x="2090" y="-208" font-family="Helvetica,sans-Serif" font-size="10.00">Click</text>
</a>
</g>
</g>
<!-- Node24&#45;&gt;Node25 -->
<g id="edge27" class="edge"><title>Node24&#45;&gt;Node25</title>
<path fill="none" stroke="midnightblue" d="M1980.27,-216C1993.08,-216 2006.08,-216 2018.43,-216"/>
<polygon fill="midnightblue" stroke="midnightblue" points="1980.06,-212.5 1970.06,-216 1980.06,-219.5 1980.06,-212.5"/>
</g>
<!-- Node27 -->
<g id="node27" class="node"><title>Node27</title>
<g id="a_node27"><a xlink:href="../../d6/d24/classgame_player_1_1_select_state.html#a801827392f0faeee6b96925060d77838" target="_top" xlink:title="gamePlayer.SelectState.on\lClick">
<polygon fill="white" stroke="black" points="881.5,-175 881.5,-205 1028.5,-205 1028.5,-175 881.5,-175"/>
<text text-anchor="start" x="889.5" y="-193" font-family="Helvetica,sans-Serif" font-size="10.00">gamePlayer.SelectState.on</text>
<text text-anchor="middle" x="955" y="-182" font-family="Helvetica,sans-Serif" font-size="10.00">Click</text>
</a>
</g>
</g>
<!-- Node26&#45;&gt;Node27 -->
<g id="edge29" class="edge"><title>Node26&#45;&gt;Node27</title>
<path fill="none" stroke="midnightblue" d="M829.397,-190C846.862,-190 864.741,-190 881.306,-190"/>
<polygon fill="midnightblue" stroke="midnightblue" points="829.174,-186.5 819.174,-190 829.174,-193.5 829.174,-186.5"/>
</g>
<!-- Node28 -->
<g id="node28" class="node"><title>Node28</title>
<g id="a_node28"><a xlink:href="../../df/df0/classtests_1_1_view_controller_test.html#a785df2c49a72c183c22163ce927f5df1" target="_top" xlink:title="tests.ViewControllerTest.update\lActionsTest">
<polygon fill="white" stroke="black" points="871.5,-126 871.5,-156 1038.5,-156 1038.5,-126 871.5,-126"/>
<text text-anchor="start" x="879.5" y="-144" font-family="Helvetica,sans-Serif" font-size="10.00">tests.ViewControllerTest.update</text>
<text text-anchor="middle" x="955" y="-133" font-family="Helvetica,sans-Serif" font-size="10.00">ActionsTest</text>
</a>
</g>
</g>
<!-- Node26&#45;&gt;Node28 -->
<g id="edge30" class="edge"><title>Node26&#45;&gt;Node28</title>
<path fill="none" stroke="midnightblue" d="M808.562,-172.815C833.61,-167.335 861.115,-161.318 885.4,-156.006"/>
<polygon fill="midnightblue" stroke="midnightblue" points="807.751,-169.409 798.73,-174.965 809.247,-176.247 807.751,-169.409"/>
</g>
</g>
</svg>
