<?xml version="1.0" encoding="UTF-8" standalone="no"?>
<!DOCTYPE svg PUBLIC "-//W3C//DTD SVG 1.1//EN"
 "http://www.w3.org/Graphics/SVG/1.1/DTD/svg11.dtd">
<!-- Generated by graphviz version 2.36.0 (20140111.2315)
 -->
<!-- Title: authoring_environment.SuperGrid.findClickedCoordinate Pages: 1 -->
<svg width="2146pt" height="539pt"
 viewBox="0.00 0.00 2146.00 539.00" xmlns="http://www.w3.org/2000/svg" xmlns:xlink="http://www.w3.org/1999/xlink">
<g id="graph0" class="graph" transform="scale(1 1) rotate(0) translate(4 535)">
<title>authoring_environment.SuperGrid.findClickedCoordinate</title>
<polygon fill="white" stroke="none" points="-4,4 -4,-535 2142,-535 2142,4 -4,4"/>
<!-- Node1 -->
<g id="node1" class="node"><title>Node1</title>
<polygon fill="#bfbfbf" stroke="black" points="0,-147 0,-177 160,-177 160,-147 0,-147"/>
<text text-anchor="start" x="8" y="-165" font-family="Helvetica,sans-Serif" font-size="10.00">authoring_environment.Super</text>
<text text-anchor="middle" x="80" y="-154" font-family="Helvetica,sans-Serif" font-size="10.00">Grid.findClickedCoordinate</text>
</g>
<!-- Node2 -->
<g id="node2" class="node"><title>Node2</title>
<g id="a_node2"><a xlink:href="../../df/dd5/classgame_player_1_1_view_controller.html#a8df1cc776c0ee37d0a324870b9e37275" target="_top" xlink:title="gamePlayer.ViewController.find\lPosition">
<polygon fill="white" stroke="black" points="200,-294 200,-324 364,-324 364,-294 200,-294"/>
<text text-anchor="start" x="208" y="-312" font-family="Helvetica,sans-Serif" font-size="10.00">gamePlayer.ViewController.find</text>
<text text-anchor="middle" x="282" y="-301" font-family="Helvetica,sans-Serif" font-size="10.00">Position</text>
</a>
</g>
</g>
<!-- Node1&#45;&gt;Node2 -->
<g id="edge1" class="edge"><title>Node1&#45;&gt;Node2</title>
<path fill="none" stroke="midnightblue" d="M97.0642,-185.465C117.109,-213.001 153.917,-258.17 196,-284 202.293,-287.862 209.214,-291.155 216.307,-293.956"/>
<polygon fill="midnightblue" stroke="midnightblue" points="99.8176,-183.298 91.1597,-177.192 94.1198,-187.365 99.8176,-183.298"/>
</g>
<!-- Node25 -->
<g id="node25" class="node"><title>Node25</title>
<g id="a_node25"><a xlink:href="../../d4/d3f/classfxml__main_1_1_patch_controller.html#a0a171a684c98c85bae1083e59444eac6" target="_top" xlink:title="fxml_main.PatchController.init\lGlobalDelBtn">
<polygon fill="white" stroke="black" points="203,-245 203,-275 361,-275 361,-245 203,-245"/>
<text text-anchor="start" x="211" y="-263" font-family="Helvetica,sans-Serif" font-size="10.00">fxml_main.PatchController.init</text>
<text text-anchor="middle" x="282" y="-252" font-family="Helvetica,sans-Serif" font-size="10.00">GlobalDelBtn</text>
</a>
</g>
</g>
<!-- Node1&#45;&gt;Node25 -->
<g id="edge27" class="edge"><title>Node1&#45;&gt;Node25</title>
<path fill="none" stroke="midnightblue" d="M109.191,-183.063C131.726,-199.1 164.629,-220.771 196,-235 204.125,-238.685 212.931,-241.984 221.693,-244.882"/>
<polygon fill="midnightblue" stroke="midnightblue" points="110.95,-180.016 100.792,-177.005 106.855,-185.694 110.95,-180.016"/>
</g>
<!-- Node26 -->
<g id="node26" class="node"><title>Node26</title>
<g id="a_node26"><a xlink:href="../../dc/d77/classfxml__main_1_1_piece_controller.html#a7190534f96aae2433b925ff2ba45ee20" target="_top" xlink:title="fxml_main.PieceController.init\lGlobalDelBtn">
<polygon fill="white" stroke="black" points="203,-196 203,-226 361,-226 361,-196 203,-196"/>
<text text-anchor="start" x="211" y="-214" font-family="Helvetica,sans-Serif" font-size="10.00">fxml_main.PieceController.init</text>
<text text-anchor="middle" x="282" y="-203" font-family="Helvetica,sans-Serif" font-size="10.00">GlobalDelBtn</text>
</a>
</g>
</g>
<!-- Node1&#45;&gt;Node26 -->
<g id="edge28" class="edge"><title>Node1&#45;&gt;Node26</title>
<path fill="none" stroke="midnightblue" d="M152.334,-179.477C174.378,-184.877 198.451,-190.776 219.75,-195.994"/>
<polygon fill="midnightblue" stroke="midnightblue" points="152.911,-176.015 142.366,-177.035 151.246,-182.814 152.911,-176.015"/>
</g>
<!-- Node27 -->
<g id="node27" class="node"><title>Node27</title>
<g id="a_node27"><a xlink:href="../../d4/d3f/classfxml__main_1_1_patch_controller.html#a5157fa914edaba5f23f4fda5951224d2" target="_top" xlink:title="fxml_main.PatchController.init\lGlobalEditBtn">
<polygon fill="white" stroke="black" points="203,-147 203,-177 361,-177 361,-147 203,-147"/>
<text text-anchor="start" x="211" y="-165" font-family="Helvetica,sans-Serif" font-size="10.00">fxml_main.PatchController.init</text>
<text text-anchor="middle" x="282" y="-154" font-family="Helvetica,sans-Serif" font-size="10.00">GlobalEditBtn</text>
</a>
</g>
</g>
<!-- Node1&#45;&gt;Node27 -->
<g id="edge29" class="edge"><title>Node1&#45;&gt;Node27</title>
<path fill="none" stroke="midnightblue" d="M170.364,-162C181.199,-162 192.201,-162 202.856,-162"/>
<polygon fill="midnightblue" stroke="midnightblue" points="170.045,-158.5 160.045,-162 170.045,-165.5 170.045,-158.5"/>
</g>
<!-- Node28 -->
<g id="node28" class="node"><title>Node28</title>
<g id="a_node28"><a xlink:href="../../dc/d77/classfxml__main_1_1_piece_controller.html#a33f528825344a5932f5820d55f67765e" target="_top" xlink:title="fxml_main.PieceController.init\lGlobalEditBtn">
<polygon fill="white" stroke="black" points="203,-98 203,-128 361,-128 361,-98 203,-98"/>
<text text-anchor="start" x="211" y="-116" font-family="Helvetica,sans-Serif" font-size="10.00">fxml_main.PieceController.init</text>
<text text-anchor="middle" x="282" y="-105" font-family="Helvetica,sans-Serif" font-size="10.00">GlobalEditBtn</text>
</a>
</g>
</g>
<!-- Node1&#45;&gt;Node28 -->
<g id="edge30" class="edge"><title>Node1&#45;&gt;Node28</title>
<path fill="none" stroke="midnightblue" d="M152.334,-144.523C174.378,-139.123 198.451,-133.224 219.75,-128.006"/>
<polygon fill="midnightblue" stroke="midnightblue" points="151.246,-141.186 142.366,-146.965 152.911,-147.985 151.246,-141.186"/>
</g>
<!-- Node29 -->
<g id="node29" class="node"><title>Node29</title>
<g id="a_node29"><a xlink:href="../../d4/d3f/classfxml__main_1_1_patch_controller.html#a806919701c76bb361bf89e0815a76a96" target="_top" xlink:title="fxml_main.PatchController.make\lEntryBox">
<polygon fill="white" stroke="black" points="196.5,-49 196.5,-79 367.5,-79 367.5,-49 196.5,-49"/>
<text text-anchor="start" x="204.5" y="-67" font-family="Helvetica,sans-Serif" font-size="10.00">fxml_main.PatchController.make</text>
<text text-anchor="middle" x="282" y="-56" font-family="Helvetica,sans-Serif" font-size="10.00">EntryBox</text>
</a>
</g>
</g>
<!-- Node1&#45;&gt;Node29 -->
<g id="edge31" class="edge"><title>Node1&#45;&gt;Node29</title>
<path fill="none" stroke="midnightblue" d="M108.397,-141.043C130.899,-124.672 164.141,-102.361 196,-88 203.409,-84.6603 211.394,-81.6748 219.398,-79.0399"/>
<polygon fill="midnightblue" stroke="midnightblue" points="106.295,-138.245 100.324,-146.998 110.45,-143.878 106.295,-138.245"/>
</g>
<!-- Node30 -->
<g id="node30" class="node"><title>Node30</title>
<g id="a_node30"><a xlink:href="../../dc/d77/classfxml__main_1_1_piece_controller.html#a57d25cb33125e10494c536f9fbce1434" target="_top" xlink:title="fxml_main.PieceController.make\lEntryBox">
<polygon fill="white" stroke="black" points="197,-0 197,-30 367,-30 367,-0 197,-0"/>
<text text-anchor="start" x="205" y="-18" font-family="Helvetica,sans-Serif" font-size="10.00">fxml_main.PieceController.make</text>
<text text-anchor="middle" x="282" y="-7" font-family="Helvetica,sans-Serif" font-size="10.00">EntryBox</text>
</a>
</g>
</g>
<!-- Node1&#45;&gt;Node30 -->
<g id="edge32" class="edge"><title>Node1&#45;&gt;Node30</title>
<path fill="none" stroke="midnightblue" d="M96.9717,-138.259C116.926,-110.417 153.646,-64.7983 196,-39 201.631,-35.57 207.769,-32.6151 214.084,-30.0725"/>
<polygon fill="midnightblue" stroke="midnightblue" points="93.9785,-136.431 91.0962,-146.627 99.7072,-140.454 93.9785,-136.431"/>
</g>
<!-- Node3 -->
<g id="node3" class="node"><title>Node3</title>
<g id="a_node3"><a xlink:href="../../df/dd5/classgame_player_1_1_view_controller.html#a22ee80193bbac79a935ee961a183bfcd" target="_top" xlink:title="gamePlayer.ViewController.set\lOnClick">
<polygon fill="white" stroke="black" points="404.5,-318 404.5,-348 565.5,-348 565.5,-318 404.5,-318"/>
<text text-anchor="start" x="412.5" y="-336" font-family="Helvetica,sans-Serif" font-size="10.00">gamePlayer.ViewController.set</text>
<text text-anchor="middle" x="485" y="-325" font-family="Helvetica,sans-Serif" font-size="10.00">OnClick</text>
</a>
</g>
</g>
<!-- Node2&#45;&gt;Node3 -->
<g id="edge2" class="edge"><title>Node2&#45;&gt;Node3</title>
<path fill="none" stroke="midnightblue" d="M374.217,-319.892C384.316,-321.097 394.542,-322.318 404.481,-323.505"/>
<polygon fill="midnightblue" stroke="midnightblue" points="374.519,-316.403 364.175,-318.693 373.689,-323.354 374.519,-316.403"/>
</g>
<!-- Node24 -->
<g id="node24" class="node"><title>Node24</title>
<g id="a_node24"><a xlink:href="../../df/df0/classtests_1_1_view_controller_test.html#afca3b7e154edffacc0e07c977df9876c" target="_top" xlink:title="tests.ViewControllerTest.find\lPositionTest">
<polygon fill="white" stroke="black" points="409.5,-269 409.5,-299 560.5,-299 560.5,-269 409.5,-269"/>
<text text-anchor="start" x="417.5" y="-287" font-family="Helvetica,sans-Serif" font-size="10.00">tests.ViewControllerTest.find</text>
<text text-anchor="middle" x="485" y="-276" font-family="Helvetica,sans-Serif" font-size="10.00">PositionTest</text>
</a>
</g>
</g>
<!-- Node2&#45;&gt;Node24 -->
<g id="edge26" class="edge"><title>Node2&#45;&gt;Node24</title>
<path fill="none" stroke="midnightblue" d="M374.396,-297.632C386.093,-296.178 397.956,-294.702 409.344,-293.286"/>
<polygon fill="midnightblue" stroke="midnightblue" points="373.667,-294.196 364.175,-298.904 374.531,-301.142 373.667,-294.196"/>
</g>
<!-- Node4 -->
<g id="node4" class="node"><title>Node4</title>
<g id="a_node4"><a xlink:href="../../df/dd5/classgame_player_1_1_view_controller.html#a10a40967a873f067cf91b024ff85b38e" target="_top" xlink:title="gamePlayer.ViewController.initializeGrid">
<polygon fill="white" stroke="black" points="602,-369.5 602,-388.5 806,-388.5 806,-369.5 602,-369.5"/>
<text text-anchor="middle" x="704" y="-376.5" font-family="Helvetica,sans-Serif" font-size="10.00">gamePlayer.ViewController.initializeGrid</text>
</a>
</g>
</g>
<!-- Node3&#45;&gt;Node4 -->
<g id="edge3" class="edge"><title>Node3&#45;&gt;Node4</title>
<path fill="none" stroke="midnightblue" d="M566.934,-350.157C597.752,-356.689 631.748,-363.896 658.05,-369.471"/>
<polygon fill="midnightblue" stroke="midnightblue" points="567.562,-346.712 557.054,-348.062 566.111,-353.56 567.562,-346.712"/>
</g>
<!-- Node5 -->
<g id="node5" class="node"><title>Node5</title>
<g id="a_node5"><a xlink:href="../../df/dd5/classgame_player_1_1_view_controller.html#aabf431713b65ec510f1cb2df12da4e45" target="_top" xlink:title="gamePlayer.ViewController.test\lPlayGameInTab">
<polygon fill="white" stroke="black" points="863.5,-430 863.5,-460 1028.5,-460 1028.5,-430 863.5,-430"/>
<text text-anchor="start" x="871.5" y="-448" font-family="Helvetica,sans-Serif" font-size="10.00">gamePlayer.ViewController.test</text>
<text text-anchor="middle" x="946" y="-437" font-family="Helvetica,sans-Serif" font-size="10.00">PlayGameInTab</text>
</a>
</g>
</g>
<!-- Node4&#45;&gt;Node5 -->
<g id="edge4" class="edge"><title>Node4&#45;&gt;Node5</title>
<path fill="none" stroke="midnightblue" d="M744.912,-391.55C772.158,-399.967 809.132,-411.1 842,-420 854.522,-423.391 867.958,-426.81 880.856,-429.985"/>
<polygon fill="midnightblue" stroke="midnightblue" points="745.928,-388.2 735.34,-388.58 743.854,-394.886 745.928,-388.2"/>
</g>
<!-- Node6 -->
<g id="node6" class="node"><title>Node6</title>
<g id="a_node6"><a xlink:href="../../df/dd5/classgame_player_1_1_view_controller.html#a0d1a3d443966f151b070dc751d2faf9a" target="_top" xlink:title="gamePlayer.ViewController.restartGame">
<polygon fill="white" stroke="black" points="842,-391.5 842,-410.5 1050,-410.5 1050,-391.5 842,-391.5"/>
<text text-anchor="middle" x="946" y="-398.5" font-family="Helvetica,sans-Serif" font-size="10.00">gamePlayer.ViewController.restartGame</text>
</a>
</g>
</g>
<!-- Node4&#45;&gt;Node6 -->
<g id="edge5" class="edge"><title>Node4&#45;&gt;Node6</title>
<path fill="none" stroke="midnightblue" d="M816.079,-389.182C824.624,-389.966 833.23,-390.754 841.722,-391.533"/>
<polygon fill="midnightblue" stroke="midnightblue" points="816.364,-385.694 806.086,-388.266 815.725,-392.665 816.364,-385.694"/>
</g>
<!-- Node7 -->
<g id="node7" class="node"><title>Node7</title>
<g id="a_node7"><a xlink:href="../../df/dd5/classgame_player_1_1_view_controller.html#a620f8a02d3ac7677cd179fcd812aca55" target="_top" xlink:title="gamePlayer.ViewController.check\lEndActions">
<polygon fill="white" stroke="black" points="859,-342 859,-372 1033,-372 1033,-342 859,-342"/>
<text text-anchor="start" x="867" y="-360" font-family="Helvetica,sans-Serif" font-size="10.00">gamePlayer.ViewController.check</text>
<text text-anchor="middle" x="946" y="-349" font-family="Helvetica,sans-Serif" font-size="10.00">EndActions</text>
</a>
</g>
</g>
<!-- Node4&#45;&gt;Node7 -->
<g id="edge6" class="edge"><title>Node4&#45;&gt;Node7</title>
<path fill="none" stroke="midnightblue" d="M816.421,-368.786C830.67,-367.48 845.082,-366.159 858.846,-364.897"/>
<polygon fill="midnightblue" stroke="midnightblue" points="815.725,-365.335 806.086,-369.734 816.364,-372.306 815.725,-365.335"/>
</g>
<!-- Node19 -->
<g id="node19" class="node"><title>Node19</title>
<g id="a_node19"><a xlink:href="../../df/dd5/classgame_player_1_1_view_controller.html#adc15cd81cefb88c58f9d3b7478328df8" target="_top" xlink:title="gamePlayer.ViewController.test\lPlayGUIGame">
<polygon fill="white" stroke="black" points="863.5,-293 863.5,-323 1028.5,-323 1028.5,-293 863.5,-293"/>
<text text-anchor="start" x="871.5" y="-311" font-family="Helvetica,sans-Serif" font-size="10.00">gamePlayer.ViewController.test</text>
<text text-anchor="middle" x="946" y="-300" font-family="Helvetica,sans-Serif" font-size="10.00">PlayGUIGame</text>
</a>
</g>
</g>
<!-- Node4&#45;&gt;Node19 -->
<g id="edge21" class="edge"><title>Node4&#45;&gt;Node19</title>
<path fill="none" stroke="midnightblue" d="M740.885,-366.011C768.368,-356.292 807.328,-343.009 842,-333 854.022,-329.53 866.925,-326.139 879.392,-323.031"/>
<polygon fill="midnightblue" stroke="midnightblue" points="739.557,-362.768 731.308,-369.417 741.903,-369.363 739.557,-362.768"/>
</g>
<!-- Node20 -->
<g id="node20" class="node"><title>Node20</title>
<g id="a_node20"><a xlink:href="../../df/dd5/classgame_player_1_1_view_controller.html#a4c1754d129a4eac955390b428eaa448a" target="_top" xlink:title="gamePlayer.ViewController.test\lPlayGame">
<polygon fill="white" stroke="black" points="863.5,-479 863.5,-509 1028.5,-509 1028.5,-479 863.5,-479"/>
<text text-anchor="start" x="871.5" y="-497" font-family="Helvetica,sans-Serif" font-size="10.00">gamePlayer.ViewController.test</text>
<text text-anchor="middle" x="946" y="-486" font-family="Helvetica,sans-Serif" font-size="10.00">PlayGame</text>
</a>
</g>
</g>
<!-- Node4&#45;&gt;Node20 -->
<g id="edge22" class="edge"><title>Node4&#45;&gt;Node20</title>
<path fill="none" stroke="midnightblue" d="M724.782,-395.187C750.344,-415.324 796.935,-449.431 842,-469 850.777,-472.811 860.238,-476.106 869.743,-478.936"/>
<polygon fill="midnightblue" stroke="midnightblue" points="726.652,-392.201 716.654,-388.694 722.283,-397.671 726.652,-392.201"/>
</g>
<!-- Node8 -->
<g id="node8" class="node"><title>Node8</title>
<g id="a_node8"><a xlink:href="../../df/dd5/classgame_player_1_1_view_controller.html#a95c2acd43bb39b8606c69971c1cd30f5" target="_top" xlink:title="gamePlayer.ViewController.perform\lAction">
<polygon fill="white" stroke="black" points="1090.5,-271 1090.5,-301 1275.5,-301 1275.5,-271 1090.5,-271"/>
<text text-anchor="start" x="1098.5" y="-289" font-family="Helvetica,sans-Serif" font-size="10.00">gamePlayer.ViewController.perform</text>
<text text-anchor="middle" x="1183" y="-278" font-family="Helvetica,sans-Serif" font-size="10.00">Action</text>
</a>
</g>
</g>
<!-- Node7&#45;&gt;Node8 -->
<g id="edge7" class="edge"><title>Node7&#45;&gt;Node8</title>
<path fill="none" stroke="midnightblue" d="M1023.05,-339.428C1032.16,-337.06 1041.32,-334.561 1050,-332 1081.31,-322.769 1116.16,-310.54 1142.18,-301.012"/>
<polygon fill="midnightblue" stroke="midnightblue" points="1022.02,-336.079 1013.19,-341.942 1023.75,-342.862 1022.02,-336.079"/>
</g>
<!-- Node17 -->
<g id="node17" class="node"><title>Node17</title>
<g id="a_node17"><a xlink:href="../../df/dd5/classgame_player_1_1_view_controller.html#a13ea7814bde61a8042c5b1a23af41416" target="_top" xlink:title="gamePlayer.ViewController.end\lAction">
<polygon fill="white" stroke="black" points="1101,-342 1101,-372 1265,-372 1265,-342 1101,-342"/>
<text text-anchor="start" x="1109" y="-360" font-family="Helvetica,sans-Serif" font-size="10.00">gamePlayer.ViewController.end</text>
<text text-anchor="middle" x="1183" y="-349" font-family="Helvetica,sans-Serif" font-size="10.00">Action</text>
</a>
</g>
</g>
<!-- Node7&#45;&gt;Node17 -->
<g id="edge19" class="edge"><title>Node7&#45;&gt;Node17</title>
<path fill="none" stroke="midnightblue" d="M1043.39,-357C1062.5,-357 1082.38,-357 1100.92,-357"/>
<polygon fill="midnightblue" stroke="midnightblue" points="1043.17,-353.5 1033.17,-357 1043.17,-360.5 1043.17,-353.5"/>
</g>
<!-- Node8&#45;&gt;Node3 -->
<g id="edge18" class="edge"><title>Node8&#45;&gt;Node3</title>
<path fill="none" stroke="midnightblue" d="M1080.21,-284.303C1070,-284.179 1059.8,-284.074 1050,-284 957.558,-283.3 934.228,-277.683 842,-284 746.458,-290.544 637.498,-306.858 565.562,-318.872"/>
<polygon fill="midnightblue" stroke="midnightblue" points="1080.36,-287.805 1090.4,-284.433 1080.44,-280.806 1080.36,-287.805"/>
</g>
<!-- Node9 -->
<g id="node9" class="node"><title>Node9</title>
<g id="a_node9"><a xlink:href="../../da/d55/classgame_player_1_1_keyboard_movement.html#af45fd8d279b1ee2d6be5466d425485ab" target="_top" xlink:title="gamePlayer.KeyboardMovement.set\lMovementKeyControl">
<polygon fill="white" stroke="black" points="1316.5,-271 1316.5,-301 1505.5,-301 1505.5,-271 1316.5,-271"/>
<text text-anchor="start" x="1324.5" y="-289" font-family="Helvetica,sans-Serif" font-size="10.00">gamePlayer.KeyboardMovement.set</text>
<text text-anchor="middle" x="1411" y="-278" font-family="Helvetica,sans-Serif" font-size="10.00">MovementKeyControl</text>
</a>
</g>
</g>
<!-- Node8&#45;&gt;Node9 -->
<g id="edge8" class="edge"><title>Node8&#45;&gt;Node9</title>
<path fill="none" stroke="midnightblue" d="M1285.76,-279.28C1295.97,-279.226 1306.31,-279.245 1316.43,-279.34"/>
<polygon fill="midnightblue" stroke="midnightblue" points="1285.57,-275.781 1275.6,-279.359 1285.62,-282.781 1285.57,-275.781"/>
</g>
<!-- Node9&#45;&gt;Node8 -->
<g id="edge16" class="edge"><title>Node9&#45;&gt;Node8</title>
<path fill="none" stroke="midnightblue" d="M1306.25,-292.73C1296.02,-292.774 1285.69,-292.745 1275.6,-292.641"/>
<polygon fill="midnightblue" stroke="midnightblue" points="1306.46,-296.229 1316.43,-292.66 1306.41,-289.229 1306.46,-296.229"/>
</g>
<!-- Node10 -->
<g id="node10" class="node"><title>Node10</title>
<g id="a_node10"><a xlink:href="../../df/dd5/classgame_player_1_1_view_controller.html#a7eb038fd9f20604ade0406f27ef76657" target="_top" xlink:title="gamePlayer.ViewController.bind\lAction">
<polygon fill="white" stroke="black" points="1546.5,-271 1546.5,-301 1713.5,-301 1713.5,-271 1546.5,-271"/>
<text text-anchor="start" x="1554.5" y="-289" font-family="Helvetica,sans-Serif" font-size="10.00">gamePlayer.ViewController.bind</text>
<text text-anchor="middle" x="1630" y="-278" font-family="Helvetica,sans-Serif" font-size="10.00">Action</text>
</a>
</g>
</g>
<!-- Node9&#45;&gt;Node10 -->
<g id="edge9" class="edge"><title>Node9&#45;&gt;Node10</title>
<path fill="none" stroke="midnightblue" d="M1515.8,-286C1526.03,-286 1536.31,-286 1546.29,-286"/>
<polygon fill="midnightblue" stroke="midnightblue" points="1515.6,-282.5 1505.6,-286 1515.6,-289.5 1515.6,-282.5"/>
</g>
<!-- Node16 -->
<g id="node16" class="node"><title>Node16</title>
<g id="a_node16"><a xlink:href="../../df/dd5/classgame_player_1_1_view_controller.html#a27da17c1280cd953a14f6b76b18f9a4b" target="_top" xlink:title="gamePlayer.ViewController.toggle\lKeyboardControl">
<polygon fill="white" stroke="black" points="1542,-320 1542,-350 1718,-350 1718,-320 1542,-320"/>
<text text-anchor="start" x="1550" y="-338" font-family="Helvetica,sans-Serif" font-size="10.00">gamePlayer.ViewController.toggle</text>
<text text-anchor="middle" x="1630" y="-327" font-family="Helvetica,sans-Serif" font-size="10.00">KeyboardControl</text>
</a>
</g>
</g>
<!-- Node9&#45;&gt;Node16 -->
<g id="edge17" class="edge"><title>Node9&#45;&gt;Node16</title>
<path fill="none" stroke="midnightblue" d="M1488.43,-303.258C1512.61,-308.718 1539.12,-314.705 1562.54,-319.994"/>
<polygon fill="midnightblue" stroke="midnightblue" points="1489.11,-299.823 1478.58,-301.035 1487.57,-306.651 1489.11,-299.823"/>
</g>
<!-- Node11 -->
<g id="node11" class="node"><title>Node11</title>
<g id="a_node11"><a xlink:href="../../d1/db7/classgame_player_1_1_keyboard_action.html#a08ace57322b8639020688dd9493c3e1f" target="_top" xlink:title="gamePlayer.KeyboardAction.set\lActionKeyControl">
<polygon fill="white" stroke="black" points="1760,-224 1760,-254 1928,-254 1928,-224 1760,-224"/>
<text text-anchor="start" x="1768" y="-242" font-family="Helvetica,sans-Serif" font-size="10.00">gamePlayer.KeyboardAction.set</text>
<text text-anchor="middle" x="1844" y="-231" font-family="Helvetica,sans-Serif" font-size="10.00">ActionKeyControl</text>
</a>
</g>
</g>
<!-- Node10&#45;&gt;Node11 -->
<g id="edge10" class="edge"><title>Node10&#45;&gt;Node11</title>
<path fill="none" stroke="midnightblue" d="M1708.57,-268.804C1730.42,-263.958 1754.02,-258.726 1775.25,-254.019"/>
<polygon fill="midnightblue" stroke="midnightblue" points="1707.67,-265.418 1698.66,-271 1709.18,-272.252 1707.67,-265.418"/>
</g>
<!-- Node12 -->
<g id="node12" class="node"><title>Node12</title>
<g id="a_node12"><a xlink:href="../../df/dd5/classgame_player_1_1_view_controller.html#ab8c14a8c53be9021a62d0107c2f75ef6" target="_top" xlink:title="gamePlayer.ViewController.update\lActions">
<polygon fill="white" stroke="black" points="1754,-273 1754,-303 1934,-303 1934,-273 1754,-273"/>
<text text-anchor="start" x="1762" y="-291" font-family="Helvetica,sans-Serif" font-size="10.00">gamePlayer.ViewController.update</text>
<text text-anchor="middle" x="1844" y="-280" font-family="Helvetica,sans-Serif" font-size="10.00">Actions</text>
</a>
</g>
</g>
<!-- Node10&#45;&gt;Node12 -->
<g id="edge12" class="edge"><title>Node10&#45;&gt;Node12</title>
<path fill="none" stroke="midnightblue" d="M1723.59,-286.874C1733.69,-286.969 1743.94,-287.066 1753.99,-287.16"/>
<polygon fill="midnightblue" stroke="midnightblue" points="1723.6,-283.374 1713.57,-286.779 1723.54,-290.373 1723.6,-283.374"/>
</g>
<!-- Node15 -->
<g id="node15" class="node"><title>Node15</title>
<g id="a_node15"><a xlink:href="../../df/df0/classtests_1_1_view_controller_test.html#a74e99f9c72cbdcd2d56271b2ad2df1ce" target="_top" xlink:title="tests.ViewControllerTest.bind\lActionTest">
<polygon fill="white" stroke="black" points="1767,-322 1767,-352 1921,-352 1921,-322 1767,-322"/>
<text text-anchor="start" x="1775" y="-340" font-family="Helvetica,sans-Serif" font-size="10.00">tests.ViewControllerTest.bind</text>
<text text-anchor="middle" x="1844" y="-329" font-family="Helvetica,sans-Serif" font-size="10.00">ActionTest</text>
</a>
</g>
</g>
<!-- Node10&#45;&gt;Node15 -->
<g id="edge15" class="edge"><title>Node10&#45;&gt;Node15</title>
<path fill="none" stroke="midnightblue" d="M1703.3,-303.393C1728.42,-309.437 1756.37,-316.159 1780.62,-321.994"/>
<polygon fill="midnightblue" stroke="midnightblue" points="1704,-299.962 1693.46,-301.026 1702.36,-306.768 1704,-299.962"/>
</g>
<!-- Node11&#45;&gt;Node8 -->
<g id="edge11" class="edge"><title>Node11&#45;&gt;Node8</title>
<path fill="none" stroke="midnightblue" d="M1749.36,-239.245C1643.76,-240.412 1467.05,-245.052 1316,-262 1296.67,-264.169 1275.91,-267.476 1256.7,-270.948"/>
<polygon fill="midnightblue" stroke="midnightblue" points="1749.7,-242.741 1759.67,-239.139 1749.63,-235.742 1749.7,-242.741"/>
</g>
<!-- Node13 -->
<g id="node13" class="node"><title>Node13</title>
<g id="a_node13"><a xlink:href="../../d6/d24/classgame_player_1_1_select_state.html#a801827392f0faeee6b96925060d77838" target="_top" xlink:title="gamePlayer.SelectState.on\lClick">
<polygon fill="white" stroke="black" points="1980.5,-298 1980.5,-328 2127.5,-328 2127.5,-298 1980.5,-298"/>
<text text-anchor="start" x="1988.5" y="-316" font-family="Helvetica,sans-Serif" font-size="10.00">gamePlayer.SelectState.on</text>
<text text-anchor="middle" x="2054" y="-305" font-family="Helvetica,sans-Serif" font-size="10.00">Click</text>
</a>
</g>
</g>
<!-- Node12&#45;&gt;Node13 -->
<g id="edge13" class="edge"><title>Node12&#45;&gt;Node13</title>
<path fill="none" stroke="midnightblue" d="M1944.3,-299.935C1956.46,-301.396 1968.7,-302.868 1980.37,-304.27"/>
<polygon fill="midnightblue" stroke="midnightblue" points="1944.46,-296.429 1934.12,-298.711 1943.63,-303.379 1944.46,-296.429"/>
</g>
<!-- Node14 -->
<g id="node14" class="node"><title>Node14</title>
<g id="a_node14"><a xlink:href="../../df/df0/classtests_1_1_view_controller_test.html#a785df2c49a72c183c22163ce927f5df1" target="_top" xlink:title="tests.ViewControllerTest.update\lActionsTest">
<polygon fill="white" stroke="black" points="1970.5,-249 1970.5,-279 2137.5,-279 2137.5,-249 1970.5,-249"/>
<text text-anchor="start" x="1978.5" y="-267" font-family="Helvetica,sans-Serif" font-size="10.00">tests.ViewControllerTest.update</text>
<text text-anchor="middle" x="2054" y="-256" font-family="Helvetica,sans-Serif" font-size="10.00">ActionsTest</text>
</a>
</g>
</g>
<!-- Node12&#45;&gt;Node14 -->
<g id="edge14" class="edge"><title>Node12&#45;&gt;Node14</title>
<path fill="none" stroke="midnightblue" d="M1944.31,-276.542C1953.02,-275.537 1961.77,-274.526 1970.32,-273.54"/>
<polygon fill="midnightblue" stroke="midnightblue" points="1943.65,-273.094 1934.12,-277.717 1944.45,-280.048 1943.65,-273.094"/>
</g>
<!-- Node18 -->
<g id="node18" class="node"><title>Node18</title>
<g id="a_node18"><a xlink:href="../../db/d00/classgame_player_1_1_apply_state.html#aed42c1aba25264bc6880036f693a1c9e" target="_top" xlink:title="gamePlayer.ApplyState.on\lClick">
<polygon fill="white" stroke="black" points="1339.5,-342 1339.5,-372 1482.5,-372 1482.5,-342 1339.5,-342"/>
<text text-anchor="start" x="1347.5" y="-360" font-family="Helvetica,sans-Serif" font-size="10.00">gamePlayer.ApplyState.on</text>
<text text-anchor="middle" x="1411" y="-349" font-family="Helvetica,sans-Serif" font-size="10.00">Click</text>
</a>
</g>
</g>
<!-- Node17&#45;&gt;Node18 -->
<g id="edge20" class="edge"><title>Node17&#45;&gt;Node18</title>
<path fill="none" stroke="midnightblue" d="M1275.29,-357C1296.57,-357 1318.93,-357 1339.17,-357"/>
<polygon fill="midnightblue" stroke="midnightblue" points="1275.27,-353.5 1265.27,-357 1275.27,-360.5 1275.27,-353.5"/>
</g>
<!-- Node21 -->
<g id="node21" class="node"><title>Node21</title>
<g id="a_node21"><a xlink:href="../../db/d40/classfxml__main_1_1_authoring_controller.html#a2ec133c8edf0a7ab1e84f2e12455233d" target="_top" xlink:title="fxml_main.AuthoringController.save\lAsGame">
<polygon fill="white" stroke="black" points="1089.5,-501 1089.5,-531 1276.5,-531 1276.5,-501 1089.5,-501"/>
<text text-anchor="start" x="1097.5" y="-519" font-family="Helvetica,sans-Serif" font-size="10.00">fxml_main.AuthoringController.save</text>
<text text-anchor="middle" x="1183" y="-508" font-family="Helvetica,sans-Serif" font-size="10.00">AsGame</text>
</a>
</g>
</g>
<!-- Node20&#45;&gt;Node21 -->
<g id="edge23" class="edge"><title>Node20&#45;&gt;Node21</title>
<path fill="none" stroke="midnightblue" d="M1038.77,-502.591C1055.38,-504.146 1072.7,-505.768 1089.34,-507.325"/>
<polygon fill="midnightblue" stroke="midnightblue" points="1038.81,-499.08 1028.53,-501.633 1038.16,-506.05 1038.81,-499.08"/>
</g>
<!-- Node22 -->
<g id="node22" class="node"><title>Node22</title>
<g id="a_node22"><a xlink:href="../../df/dd5/classgame_player_1_1_view_controller.html#a2bf1dce04187ad5eacb5359ef2b4eff8" target="_top" xlink:title="gamePlayer.ViewController.newGame">
<polygon fill="white" stroke="black" points="1086,-462.5 1086,-481.5 1280,-481.5 1280,-462.5 1086,-462.5"/>
<text text-anchor="middle" x="1183" y="-469.5" font-family="Helvetica,sans-Serif" font-size="10.00">gamePlayer.ViewController.newGame</text>
</a>
</g>
</g>
<!-- Node20&#45;&gt;Node22 -->
<g id="edge24" class="edge"><title>Node20&#45;&gt;Node22</title>
<path fill="none" stroke="midnightblue" d="M1038.58,-485.427C1054.03,-483.981 1070.1,-482.476 1085.66,-481.019"/>
<polygon fill="midnightblue" stroke="midnightblue" points="1038.16,-481.95 1028.53,-486.367 1038.81,-488.92 1038.16,-481.95"/>
</g>
<!-- Node23 -->
<g id="node23" class="node"><title>Node23</title>
<g id="a_node23"><a xlink:href="../../df/dd5/classgame_player_1_1_view_controller.html#a2acd822c93c35674b6978a97b4ce6e3f" target="_top" xlink:title="gamePlayer.ViewController.\lViewController">
<polygon fill="white" stroke="black" points="1338,-457 1338,-487 1484,-487 1484,-457 1338,-457"/>
<text text-anchor="start" x="1346" y="-475" font-family="Helvetica,sans-Serif" font-size="10.00">gamePlayer.ViewController.</text>
<text text-anchor="middle" x="1411" y="-464" font-family="Helvetica,sans-Serif" font-size="10.00">ViewController</text>
</a>
</g>
</g>
<!-- Node22&#45;&gt;Node23 -->
<g id="edge25" class="edge"><title>Node22&#45;&gt;Node23</title>
<path fill="none" stroke="midnightblue" d="M1290.19,-472C1306.35,-472 1322.68,-472 1337.88,-472"/>
<polygon fill="midnightblue" stroke="midnightblue" points="1290.17,-468.5 1280.17,-472 1290.17,-475.5 1290.17,-468.5"/>
</g>
</g>
</svg>
