<?xml version="1.0" encoding="UTF-8" standalone="no"?>
<!DOCTYPE svg PUBLIC "-//W3C//DTD SVG 1.1//EN"
 "http://www.w3.org/Graphics/SVG/1.1/DTD/svg11.dtd">
<!-- Generated by graphviz version 2.36.0 (20140111.2315)
 -->
<!-- Title: authoring_environment.SuperGrid.initGridTiles Pages: 1 -->
<!--zoomable 292 -->
<svg id="main" version="1.1" xmlns="http://www.w3.org/2000/svg" xmlns:xlink="http://www.w3.org/1999/xlink" xml:space="preserve" onload="init(evt)">
<style type="text/css"><![CDATA[
.edge:hover path { stroke: red; }
.edge:hover polygon { stroke: red; fill: red; }
]]></style>
<script type="text/javascript"><![CDATA[
var edges = document.getElementsByTagName('g');
if (edges && edges.length) {
  for (var i=0;i<edges.length;i++) {
    if (edges[i].id.substr(0,4)=='edge') {
      edges[i].setAttribute('class','edge');
    }
  }
}
]]></script>
        <defs>
                <circle id="rim" cx="0" cy="0" r="7"/>
                <circle id="rim2" cx="0" cy="0" r="3.5"/>
                <g id="zoomPlus">
                        <use xlink:href="#rim" fill="#404040">
                                <set attributeName="fill" to="#808080" begin="zoomplus.mouseover" end="zoomplus.mouseout"/>
                        </use>
                        <path d="M-4,0h8M0,-4v8" fill="none" stroke="white" stroke-width="1.5" pointer-events="none"/>
                </g>
                <g id="zoomMin">
                        <use xlink:href="#rim" fill="#404040">
                                <set attributeName="fill" to="#808080" begin="zoomminus.mouseover" end="zoomminus.mouseout"/>
                        </use>
                        <path d="M-4,0h8" fill="none" stroke="white" stroke-width="1.5" pointer-events="none"/>
                </g>
                <g id="dirArrow">
                        <path fill="none" stroke="white" stroke-width="1.5" d="M0,-3.0v7 M-2.5,-0.5L0,-3.0L2.5,-0.5"/>
                </g>
               <g id="resetDef">
                       <use xlink:href="#rim2" fill="#404040">
                               <set attributeName="fill" to="#808080" begin="reset.mouseover" end="reset.mouseout"/>
                       </use>
               </g>
        </defs>

<script type="text/javascript">
var viewWidth = 1840;
var viewHeight = 292;
var sectionId = 'dynsection-12';
</script>
<script xlink:href="../../svgpan.js"/>
<svg id="graph" class="graph">
<g id="viewport">
<title>authoring_environment.SuperGrid.initGridTiles</title>
<polygon fill="white" stroke="none" points="-4,4 -4,-288 1836,-288 1836,4 -4,4"/>
<!-- Node1 -->
<g id="node1" class="node"><title>Node1</title>
<polygon fill="#bfbfbf" stroke="black" points="0,-115 0,-145 160,-145 160,-115 0,-115"/>
<text text-anchor="start" x="8" y="-133" font-family="Helvetica,sans-Serif" font-size="10.00">authoring_environment.Super</text>
<text text-anchor="middle" x="80" y="-122" font-family="Helvetica,sans-Serif" font-size="10.00">Grid.initGridTiles</text>
</g>
<!-- Node2 -->
<g id="node2" class="node"><title>Node2</title>
<g id="a_node2"><a xlink:href="../../d5/da8/classauthoring__environment_1_1_range_grid.html#a450be605083bd4836209bae32f834402" target="_top" xlink:title="authoring_environment.Range\lGrid.RangeGrid">
<polygon fill="white" stroke="black" points="236.5,-159 236.5,-189 397.5,-189 397.5,-159 236.5,-159"/>
<text text-anchor="start" x="244.5" y="-177" font-family="Helvetica,sans-Serif" font-size="10.00">authoring_environment.Range</text>
<text text-anchor="middle" x="317" y="-166" font-family="Helvetica,sans-Serif" font-size="10.00">Grid.RangeGrid</text>
</a>
</g>
</g>
<!-- Node1&#45;&gt;Node2 -->
<g id="edge1" class="edge"><title>Node1&#45;&gt;Node2</title>
<path fill="none" stroke="midnightblue" d="M170.122,-146.687C191.882,-150.761 215.024,-155.094 236.312,-159.08"/>
<polygon fill="midnightblue" stroke="midnightblue" points="170.706,-143.235 160.233,-144.835 169.418,-150.116 170.706,-143.235"/>
</g>
<!-- Node3 -->
<g id="node3" class="node"><title>Node3</title>
<g id="a_node3"><a xlink:href="../../da/d4c/classauthoring__environment_1_1_g_u_i_grid.html#a0dd951cc5155fadf7b6d1f01ba887540" target="_top" xlink:title="authoring_environment.GUIGrid.repopulateGrid">
<polygon fill="white" stroke="black" points="196,-120.5 196,-139.5 438,-139.5 438,-120.5 196,-120.5"/>
<text text-anchor="middle" x="317" y="-127.5" font-family="Helvetica,sans-Serif" font-size="10.00">authoring_environment.GUIGrid.repopulateGrid</text>
</a>
</g>
</g>
<!-- Node1&#45;&gt;Node3 -->
<g id="edge2" class="edge"><title>Node1&#45;&gt;Node3</title>
<path fill="none" stroke="midnightblue" d="M170.294,-130C178.635,-130 187.178,-130 195.74,-130"/>
<polygon fill="midnightblue" stroke="midnightblue" points="170.233,-126.5 160.233,-130 170.233,-133.5 170.233,-126.5"/>
</g>
<!-- Node25 -->
<g id="node25" class="node"><title>Node25</title>
<g id="a_node25"><a xlink:href="../../d9/df3/classauthoring__environment_1_1_super_grid.html#a823d70302038c08b7d5e9c2219fd3342" target="_top" xlink:title="authoring_environment.Super\lGrid.SuperGrid">
<polygon fill="white" stroke="black" points="237,-71 237,-101 397,-101 397,-71 237,-71"/>
<text text-anchor="start" x="245" y="-89" font-family="Helvetica,sans-Serif" font-size="10.00">authoring_environment.Super</text>
<text text-anchor="middle" x="317" y="-78" font-family="Helvetica,sans-Serif" font-size="10.00">Grid.SuperGrid</text>
</a>
</g>
</g>
<!-- Node1&#45;&gt;Node25 -->
<g id="edge30" class="edge"><title>Node1&#45;&gt;Node25</title>
<path fill="none" stroke="midnightblue" d="M170.176,-113.303C192.057,-109.206 215.331,-104.849 236.712,-100.845"/>
<polygon fill="midnightblue" stroke="midnightblue" points="169.418,-109.884 160.233,-115.165 170.706,-116.765 169.418,-109.884"/>
</g>
<!-- Node4 -->
<g id="node4" class="node"><title>Node4</title>
<g id="a_node4"><a xlink:href="../../df/dd5/classgame_player_1_1_view_controller.html#af1870a0b6786d96d118021fc62b6475d" target="_top" xlink:title="gamePlayer.ViewController.beginGame">
<polygon fill="white" stroke="black" points="1403,-264.5 1403,-283.5 1605,-283.5 1605,-264.5 1403,-264.5"/>
<text text-anchor="middle" x="1504" y="-271.5" font-family="Helvetica,sans-Serif" font-size="10.00">gamePlayer.ViewController.beginGame</text>
</a>
</g>
</g>
<!-- Node3&#45;&gt;Node4 -->
<g id="edge3" class="edge"><title>Node3&#45;&gt;Node4</title>
<path fill="none" stroke="midnightblue" d="M430.515,-144.175C433.096,-145.656 435.597,-147.261 438,-149 466.342,-169.509 445.741,-198.376 474,-219 594.104,-306.656 655.31,-274 804,-274 804,-274 804,-274 1030,-274 1158.72,-274 1307.14,-274 1402.88,-274"/>
<polygon fill="midnightblue" stroke="midnightblue" points="431.961,-140.985 421.456,-139.605 428.808,-147.234 431.961,-140.985"/>
</g>
<!-- Node5 -->
<g id="node5" class="node"><title>Node5</title>
<g id="a_node5"><a xlink:href="../../df/dd5/classgame_player_1_1_view_controller.html#a620f8a02d3ac7677cd179fcd812aca55" target="_top" xlink:title="gamePlayer.ViewController.check\lEndActions">
<polygon fill="white" stroke="black" points="488,-137 488,-167 662,-167 662,-137 488,-137"/>
<text text-anchor="start" x="496" y="-155" font-family="Helvetica,sans-Serif" font-size="10.00">gamePlayer.ViewController.check</text>
<text text-anchor="middle" x="575" y="-144" font-family="Helvetica,sans-Serif" font-size="10.00">EndActions</text>
</a>
</g>
</g>
<!-- Node3&#45;&gt;Node5 -->
<g id="edge4" class="edge"><title>Node3&#45;&gt;Node5</title>
<path fill="none" stroke="midnightblue" d="M439.009,-140.399C455.458,-141.813 472.062,-143.24 487.729,-144.586"/>
<polygon fill="midnightblue" stroke="midnightblue" points="439.059,-136.891 428.796,-139.522 438.46,-143.865 439.059,-136.891"/>
</g>
<!-- Node18 -->
<g id="node18" class="node"><title>Node18</title>
<g id="a_node18"><a xlink:href="../../df/dd5/classgame_player_1_1_view_controller.html#a4c1754d129a4eac955390b428eaa448a" target="_top" xlink:title="gamePlayer.ViewController.test\lPlayGame">
<polygon fill="white" stroke="black" points="1421.5,-215 1421.5,-245 1586.5,-245 1586.5,-215 1421.5,-215"/>
<text text-anchor="start" x="1429.5" y="-233" font-family="Helvetica,sans-Serif" font-size="10.00">gamePlayer.ViewController.test</text>
<text text-anchor="middle" x="1504" y="-222" font-family="Helvetica,sans-Serif" font-size="10.00">PlayGame</text>
</a>
</g>
</g>
<!-- Node3&#45;&gt;Node18 -->
<g id="edge29" class="edge"><title>Node3&#45;&gt;Node18</title>
<path fill="none" stroke="midnightblue" d="M418.62,-142.158C425.282,-144.113 431.8,-146.377 438,-149 456.419,-156.793 455.671,-167.997 474,-176 610.616,-235.65 654.929,-236 804,-236 804,-236 804,-236 1030,-236 1167.35,-236 1327.12,-233.439 1421.4,-231.663"/>
<polygon fill="midnightblue" stroke="midnightblue" points="419.343,-138.729 408.777,-139.511 417.525,-145.488 419.343,-138.729"/>
</g>
<!-- Node20 -->
<g id="node20" class="node"><title>Node20</title>
<g id="a_node20"><a xlink:href="../../df/dd5/classgame_player_1_1_view_controller.html#a13ea7814bde61a8042c5b1a23af41416" target="_top" xlink:title="gamePlayer.ViewController.end\lAction">
<polygon fill="white" stroke="black" points="723,-68 723,-98 887,-98 887,-68 723,-68"/>
<text text-anchor="start" x="731" y="-86" font-family="Helvetica,sans-Serif" font-size="10.00">gamePlayer.ViewController.end</text>
<text text-anchor="middle" x="805" y="-75" font-family="Helvetica,sans-Serif" font-size="10.00">Action</text>
</a>
</g>
</g>
<!-- Node3&#45;&gt;Node20 -->
<g id="edge26" class="edge"><title>Node3&#45;&gt;Node20</title>
<path fill="none" stroke="midnightblue" d="M426.553,-119.502C516.217,-110.831 641.521,-98.713 722.714,-90.861"/>
<polygon fill="midnightblue" stroke="midnightblue" points="425.966,-116.042 416.349,-120.489 426.64,-123.01 425.966,-116.042"/>
</g>
<!-- Node22 -->
<g id="node22" class="node"><title>Node22</title>
<g id="a_node22"><a xlink:href="../../d0/d47/classgameengine_1_1movement_1_1_movement.html#a8ea733019f1f434af7d41aa4b91bd533" target="_top" xlink:title="gameengine.movement.Movement.do\lBehavior">
<polygon fill="white" stroke="black" points="474.5,-49 474.5,-79 675.5,-79 675.5,-49 474.5,-49"/>
<text text-anchor="start" x="482.5" y="-67" font-family="Helvetica,sans-Serif" font-size="10.00">gameengine.movement.Movement.do</text>
<text text-anchor="middle" x="575" y="-56" font-family="Helvetica,sans-Serif" font-size="10.00">Behavior</text>
</a>
</g>
</g>
<!-- Node3&#45;&gt;Node22 -->
<g id="edge25" class="edge"><title>Node3&#45;&gt;Node22</title>
<path fill="none" stroke="midnightblue" d="M403.137,-118.561C414.956,-116.177 426.858,-113.345 438,-110 454.77,-104.965 457.582,-100.083 474,-94 488.532,-88.6156 504.511,-83.4814 519.351,-79.031"/>
<polygon fill="midnightblue" stroke="midnightblue" points="402.407,-115.137 393.246,-120.46 403.727,-122.011 402.407,-115.137"/>
</g>
<!-- Node23 -->
<g id="node23" class="node"><title>Node23</title>
<g id="a_node23"><a xlink:href="../../d8/d4d/classgameengine_1_1player_1_1_simple_a_i_player.html#a4939c006130cc2f30060ccb3abd9d5e5" target="_top" xlink:title="gameengine.player.Simple\lAIPlayer.play">
<polygon fill="white" stroke="black" points="503,-0 503,-30 647,-30 647,-0 503,-0"/>
<text text-anchor="start" x="511" y="-18" font-family="Helvetica,sans-Serif" font-size="10.00">gameengine.player.Simple</text>
<text text-anchor="middle" x="575" y="-7" font-family="Helvetica,sans-Serif" font-size="10.00">AIPlayer.play</text>
</a>
</g>
</g>
<!-- Node3&#45;&gt;Node23 -->
<g id="edge27" class="edge"><title>Node3&#45;&gt;Node23</title>
<path fill="none" stroke="midnightblue" d="M428.471,-116.055C431.782,-114.237 434.97,-112.225 438,-110 466.518,-89.0606 446.236,-60.93 474,-39 482.476,-32.3047 492.532,-27.4335 502.946,-23.8982"/>
<polygon fill="midnightblue" stroke="midnightblue" points="426.921,-112.917 419.448,-120.428 429.974,-119.216 426.921,-112.917"/>
</g>
<!-- Node6 -->
<g id="node6" class="node"><title>Node6</title>
<g id="a_node6"><a xlink:href="../../df/dd5/classgame_player_1_1_view_controller.html#a95c2acd43bb39b8606c69971c1cd30f5" target="_top" xlink:title="gamePlayer.ViewController.perform\lAction">
<polygon fill="white" stroke="black" points="712.5,-117 712.5,-147 897.5,-147 897.5,-117 712.5,-117"/>
<text text-anchor="start" x="720.5" y="-135" font-family="Helvetica,sans-Serif" font-size="10.00">gamePlayer.ViewController.perform</text>
<text text-anchor="middle" x="805" y="-124" font-family="Helvetica,sans-Serif" font-size="10.00">Action</text>
</a>
</g>
</g>
<!-- Node5&#45;&gt;Node6 -->
<g id="edge5" class="edge"><title>Node5&#45;&gt;Node6</title>
<path fill="none" stroke="midnightblue" d="M672.276,-143.555C685.555,-142.39 699.164,-141.196 712.357,-140.039"/>
<polygon fill="midnightblue" stroke="midnightblue" points="671.853,-140.078 662.197,-144.439 672.465,-147.052 671.853,-140.078"/>
</g>
<!-- Node5&#45;&gt;Node20 -->
<g id="edge23" class="edge"><title>Node5&#45;&gt;Node20</title>
<path fill="none" stroke="midnightblue" d="M639.456,-134.041C651.658,-130.284 664.282,-126.186 676,-122 692.323,-116.169 695.574,-112.534 712,-107 721.386,-103.838 731.425,-100.839 741.297,-98.1018"/>
<polygon fill="midnightblue" stroke="midnightblue" points="638.339,-130.722 629.787,-136.976 640.372,-137.421 638.339,-130.722"/>
</g>
<!-- Node7 -->
<g id="node7" class="node"><title>Node7</title>
<g id="a_node7"><a xlink:href="../../da/d55/classgame_player_1_1_keyboard_movement.html#af45fd8d279b1ee2d6be5466d425485ab" target="_top" xlink:title="gamePlayer.KeyboardMovement.set\lMovementKeyControl">
<polygon fill="white" stroke="black" points="934.5,-51 934.5,-81 1123.5,-81 1123.5,-51 934.5,-51"/>
<text text-anchor="start" x="942.5" y="-69" font-family="Helvetica,sans-Serif" font-size="10.00">gamePlayer.KeyboardMovement.set</text>
<text text-anchor="middle" x="1029" y="-58" font-family="Helvetica,sans-Serif" font-size="10.00">MovementKeyControl</text>
</a>
</g>
</g>
<!-- Node6&#45;&gt;Node7 -->
<g id="edge6" class="edge"><title>Node6&#45;&gt;Node7</title>
<path fill="none" stroke="midnightblue" d="M844.157,-113.732C860.745,-108.557 880.376,-103.171 898,-98 909.297,-94.685 931.451,-87.7532 954.316,-81.0453"/>
<polygon fill="midnightblue" stroke="midnightblue" points="842.71,-110.522 834.268,-116.924 844.86,-117.183 842.71,-110.522"/>
</g>
<!-- Node15 -->
<g id="node15" class="node"><title>Node15</title>
<g id="a_node15"><a xlink:href="../../df/dd5/classgame_player_1_1_view_controller.html#a22ee80193bbac79a935ee961a183bfcd" target="_top" xlink:title="gamePlayer.ViewController.set\lOnClick">
<polygon fill="white" stroke="black" points="948.5,-139 948.5,-169 1109.5,-169 1109.5,-139 948.5,-139"/>
<text text-anchor="start" x="956.5" y="-157" font-family="Helvetica,sans-Serif" font-size="10.00">gamePlayer.ViewController.set</text>
<text text-anchor="middle" x="1029" y="-146" font-family="Helvetica,sans-Serif" font-size="10.00">OnClick</text>
</a>
</g>
</g>
<!-- Node6&#45;&gt;Node15 -->
<g id="edge16" class="edge"><title>Node6&#45;&gt;Node15</title>
<path fill="none" stroke="midnightblue" d="M907.903,-142.098C921.469,-143.443 935.217,-144.805 948.331,-146.105"/>
<polygon fill="midnightblue" stroke="midnightblue" points="907.874,-138.579 897.578,-141.075 907.184,-145.544 907.874,-138.579"/>
</g>
<!-- Node7&#45;&gt;Node6 -->
<g id="edge14" class="edge"><title>Node7&#45;&gt;Node6</title>
<path fill="none" stroke="midnightblue" d="M991.18,-84.8152C959.269,-96.982 915.544,-110.852 898,-116 896.888,-116.326 895.769,-116.653 894.642,-116.981"/>
<polygon fill="midnightblue" stroke="midnightblue" points="992.624,-88.0085 1000.66,-81.1055 990.074,-81.4896 992.624,-88.0085"/>
</g>
<!-- Node8 -->
<g id="node8" class="node"><title>Node8</title>
<g id="a_node8"><a xlink:href="../../df/dd5/classgame_player_1_1_view_controller.html#a7eb038fd9f20604ade0406f27ef76657" target="_top" xlink:title="gamePlayer.ViewController.bind\lAction">
<polygon fill="white" stroke="black" points="1178.5,-51 1178.5,-81 1345.5,-81 1345.5,-51 1178.5,-51"/>
<text text-anchor="start" x="1186.5" y="-69" font-family="Helvetica,sans-Serif" font-size="10.00">gamePlayer.ViewController.bind</text>
<text text-anchor="middle" x="1262" y="-58" font-family="Helvetica,sans-Serif" font-size="10.00">Action</text>
</a>
</g>
</g>
<!-- Node7&#45;&gt;Node8 -->
<g id="edge7" class="edge"><title>Node7&#45;&gt;Node8</title>
<path fill="none" stroke="midnightblue" d="M1133.89,-66C1148.8,-66 1163.97,-66 1178.39,-66"/>
<polygon fill="midnightblue" stroke="midnightblue" points="1133.62,-62.5001 1123.62,-66 1133.62,-69.5001 1133.62,-62.5001"/>
</g>
<!-- Node14 -->
<g id="node14" class="node"><title>Node14</title>
<g id="a_node14"><a xlink:href="../../df/dd5/classgame_player_1_1_view_controller.html#a27da17c1280cd953a14f6b76b18f9a4b" target="_top" xlink:title="gamePlayer.ViewController.toggle\lKeyboardControl">
<polygon fill="white" stroke="black" points="1174,-2 1174,-32 1350,-32 1350,-2 1174,-2"/>
<text text-anchor="start" x="1182" y="-20" font-family="Helvetica,sans-Serif" font-size="10.00">gamePlayer.ViewController.toggle</text>
<text text-anchor="middle" x="1262" y="-9" font-family="Helvetica,sans-Serif" font-size="10.00">KeyboardControl</text>
</a>
</g>
</g>
<!-- Node7&#45;&gt;Node14 -->
<g id="edge15" class="edge"><title>Node7&#45;&gt;Node14</title>
<path fill="none" stroke="midnightblue" d="M1110.67,-48.8873C1136.6,-43.3885 1165.1,-37.342 1190.26,-32.0062"/>
<polygon fill="midnightblue" stroke="midnightblue" points="1109.93,-45.4664 1100.88,-50.9654 1111.39,-52.3141 1109.93,-45.4664"/>
</g>
<!-- Node9 -->
<g id="node9" class="node"><title>Node9</title>
<g id="a_node9"><a xlink:href="../../d1/db7/classgame_player_1_1_keyboard_action.html#a08ace57322b8639020688dd9493c3e1f" target="_top" xlink:title="gamePlayer.KeyboardAction.set\lActionKeyControl">
<polygon fill="white" stroke="black" points="1420,-98 1420,-128 1588,-128 1588,-98 1420,-98"/>
<text text-anchor="start" x="1428" y="-116" font-family="Helvetica,sans-Serif" font-size="10.00">gamePlayer.KeyboardAction.set</text>
<text text-anchor="middle" x="1504" y="-105" font-family="Helvetica,sans-Serif" font-size="10.00">ActionKeyControl</text>
</a>
</g>
</g>
<!-- Node8&#45;&gt;Node9 -->
<g id="edge8" class="edge"><title>Node8&#45;&gt;Node9</title>
<path fill="none" stroke="midnightblue" d="M1349.48,-82.9347C1374.59,-87.8532 1401.84,-93.1888 1426.31,-97.981"/>
<polygon fill="midnightblue" stroke="midnightblue" points="1350.08,-79.4875 1339.6,-81.0003 1348.74,-86.357 1350.08,-79.4875"/>
</g>
<!-- Node10 -->
<g id="node10" class="node"><title>Node10</title>
<g id="a_node10"><a xlink:href="../../df/dd5/classgame_player_1_1_view_controller.html#ab8c14a8c53be9021a62d0107c2f75ef6" target="_top" xlink:title="gamePlayer.ViewController.update\lActions">
<polygon fill="white" stroke="black" points="1414,-49 1414,-79 1594,-79 1594,-49 1414,-49"/>
<text text-anchor="start" x="1422" y="-67" font-family="Helvetica,sans-Serif" font-size="10.00">gamePlayer.ViewController.update</text>
<text text-anchor="middle" x="1504" y="-56" font-family="Helvetica,sans-Serif" font-size="10.00">Actions</text>
</a>
</g>
</g>
<!-- Node8&#45;&gt;Node10 -->
<g id="edge10" class="edge"><title>Node8&#45;&gt;Node10</title>
<path fill="none" stroke="midnightblue" d="M1355.75,-65.2271C1374.78,-65.0685 1394.78,-64.9018 1413.69,-64.7442"/>
<polygon fill="midnightblue" stroke="midnightblue" points="1355.56,-61.7284 1345.59,-65.3117 1355.62,-68.7282 1355.56,-61.7284"/>
</g>
<!-- Node13 -->
<g id="node13" class="node"><title>Node13</title>
<g id="a_node13"><a xlink:href="../../df/df0/classtests_1_1_view_controller_test.html#a74e99f9c72cbdcd2d56271b2ad2df1ce" target="_top" xlink:title="tests.ViewControllerTest.bind\lActionTest">
<polygon fill="white" stroke="black" points="1427,-0 1427,-30 1581,-30 1581,-0 1427,-0"/>
<text text-anchor="start" x="1435" y="-18" font-family="Helvetica,sans-Serif" font-size="10.00">tests.ViewControllerTest.bind</text>
<text text-anchor="middle" x="1504" y="-7" font-family="Helvetica,sans-Serif" font-size="10.00">ActionTest</text>
</a>
</g>
</g>
<!-- Node8&#45;&gt;Node13 -->
<g id="edge13" class="edge"><title>Node8&#45;&gt;Node13</title>
<path fill="none" stroke="midnightblue" d="M1343.72,-48.8471C1372.45,-42.7415 1404.56,-35.9183 1432.38,-30.0065"/>
<polygon fill="midnightblue" stroke="midnightblue" points="1342.76,-45.4719 1333.71,-50.9742 1344.22,-52.3191 1342.76,-45.4719"/>
</g>
<!-- Node9&#45;&gt;Node6 -->
<g id="edge9" class="edge"><title>Node9&#45;&gt;Node6</title>
<path fill="none" stroke="midnightblue" d="M1409.71,-115.543C1275.86,-119.192 1030.87,-125.87 897.837,-129.497"/>
<polygon fill="midnightblue" stroke="midnightblue" points="1410.04,-119.036 1419.94,-115.264 1409.85,-112.038 1410.04,-119.036"/>
</g>
<!-- Node11 -->
<g id="node11" class="node"><title>Node11</title>
<g id="a_node11"><a xlink:href="../../d6/d24/classgame_player_1_1_select_state.html#a801827392f0faeee6b96925060d77838" target="_top" xlink:title="gamePlayer.SelectState.on\lClick">
<polygon fill="white" stroke="black" points="1664.5,-25 1664.5,-55 1811.5,-55 1811.5,-25 1664.5,-25"/>
<text text-anchor="start" x="1672.5" y="-43" font-family="Helvetica,sans-Serif" font-size="10.00">gamePlayer.SelectState.on</text>
<text text-anchor="middle" x="1738" y="-32" font-family="Helvetica,sans-Serif" font-size="10.00">Click</text>
</a>
</g>
</g>
<!-- Node10&#45;&gt;Node11 -->
<g id="edge11" class="edge"><title>Node10&#45;&gt;Node11</title>
<path fill="none" stroke="midnightblue" d="M1604.2,-53.7378C1624.4,-51.6479 1645.3,-49.4862 1664.37,-47.5135"/>
<polygon fill="midnightblue" stroke="midnightblue" points="1603.62,-50.2791 1594.03,-54.7896 1604.34,-57.242 1603.62,-50.2791"/>
</g>
<!-- Node12 -->
<g id="node12" class="node"><title>Node12</title>
<g id="a_node12"><a xlink:href="../../df/df0/classtests_1_1_view_controller_test.html#a785df2c49a72c183c22163ce927f5df1" target="_top" xlink:title="tests.ViewControllerTest.update\lActionsTest">
<polygon fill="white" stroke="black" points="1654.5,-74 1654.5,-104 1821.5,-104 1821.5,-74 1654.5,-74"/>
<text text-anchor="start" x="1662.5" y="-92" font-family="Helvetica,sans-Serif" font-size="10.00">tests.ViewControllerTest.update</text>
<text text-anchor="middle" x="1738" y="-81" font-family="Helvetica,sans-Serif" font-size="10.00">ActionsTest</text>
</a>
</g>
</g>
<!-- Node10&#45;&gt;Node12 -->
<g id="edge12" class="edge"><title>Node10&#45;&gt;Node12</title>
<path fill="none" stroke="midnightblue" d="M1604.33,-74.7039C1620.99,-76.4989 1638.12,-78.3443 1654.3,-80.088"/>
<polygon fill="midnightblue" stroke="midnightblue" points="1604.35,-71.1858 1594.03,-73.5942 1603.6,-78.1455 1604.35,-71.1858"/>
</g>
<!-- Node16 -->
<g id="node16" class="node"><title>Node16</title>
<g id="a_node16"><a xlink:href="../../df/dd5/classgame_player_1_1_view_controller.html#a10a40967a873f067cf91b024ff85b38e" target="_top" xlink:title="gamePlayer.ViewController.initializeGrid">
<polygon fill="white" stroke="black" points="1160,-188.5 1160,-207.5 1364,-207.5 1364,-188.5 1160,-188.5"/>
<text text-anchor="middle" x="1262" y="-195.5" font-family="Helvetica,sans-Serif" font-size="10.00">gamePlayer.ViewController.initializeGrid</text>
</a>
</g>
</g>
<!-- Node15&#45;&gt;Node16 -->
<g id="edge17" class="edge"><title>Node15&#45;&gt;Node16</title>
<path fill="none" stroke="midnightblue" d="M1118.89,-170.931C1150.15,-176.885 1184.15,-183.362 1211.06,-188.488"/>
<polygon fill="midnightblue" stroke="midnightblue" points="1119.33,-167.452 1108.85,-169.019 1118.02,-174.329 1119.33,-167.452"/>
</g>
<!-- Node16&#45;&gt;Node4 -->
<g id="edge19" class="edge"><title>Node16&#45;&gt;Node4</title>
<path fill="none" stroke="midnightblue" d="M1292.34,-211.963C1319.68,-224.494 1361.84,-242.617 1400,-254 1413.88,-258.14 1429.07,-261.637 1443.42,-264.492"/>
<polygon fill="midnightblue" stroke="midnightblue" points="1293.52,-208.652 1282.98,-207.622 1290.58,-215.003 1293.52,-208.652"/>
</g>
<!-- Node16&#45;&gt;Node5 -->
<g id="edge22" class="edge"><title>Node16&#45;&gt;Node5</title>
<path fill="none" stroke="midnightblue" d="M1149.71,-191.509C1086.45,-187.741 1005.78,-182.801 934,-178 841.045,-171.782 734.567,-163.959 662.061,-158.527"/>
<polygon fill="midnightblue" stroke="midnightblue" points="1149.52,-195.004 1159.71,-192.104 1149.94,-188.016 1149.52,-195.004"/>
</g>
<!-- Node17 -->
<g id="node17" class="node"><title>Node17</title>
<g id="a_node17"><a xlink:href="../../df/dd5/classgame_player_1_1_view_controller.html#a0d1a3d443966f151b070dc751d2faf9a" target="_top" xlink:title="gamePlayer.ViewController.restartGame">
<polygon fill="white" stroke="black" points="1400,-176.5 1400,-195.5 1608,-195.5 1608,-176.5 1400,-176.5"/>
<text text-anchor="middle" x="1504" y="-183.5" font-family="Helvetica,sans-Serif" font-size="10.00">gamePlayer.ViewController.restartGame</text>
</a>
</g>
</g>
<!-- Node16&#45;&gt;Node17 -->
<g id="edge18" class="edge"><title>Node16&#45;&gt;Node17</title>
<path fill="none" stroke="midnightblue" d="M1374.08,-192.446C1382.62,-192.019 1391.23,-191.588 1399.72,-191.164"/>
<polygon fill="midnightblue" stroke="midnightblue" points="1373.9,-188.951 1364.09,-192.946 1374.25,-195.942 1373.9,-188.951"/>
</g>
<!-- Node16&#45;&gt;Node18 -->
<g id="edge20" class="edge"><title>Node16&#45;&gt;Node18</title>
<path fill="none" stroke="midnightblue" d="M1344.46,-208.862C1369.28,-212.171 1396.56,-215.808 1421.38,-219.118"/>
<polygon fill="midnightblue" stroke="midnightblue" points="1344.73,-205.367 1334.36,-207.514 1343.81,-212.305 1344.73,-205.367"/>
</g>
<!-- Node19 -->
<g id="node19" class="node"><title>Node19</title>
<g id="a_node19"><a xlink:href="../../db/d40/classfxml__main_1_1_authoring_controller.html#a2ec133c8edf0a7ab1e84f2e12455233d" target="_top" xlink:title="fxml_main.AuthoringController.save\lAsGame">
<polygon fill="white" stroke="black" points="1644.5,-215 1644.5,-245 1831.5,-245 1831.5,-215 1644.5,-215"/>
<text text-anchor="start" x="1652.5" y="-233" font-family="Helvetica,sans-Serif" font-size="10.00">fxml_main.AuthoringController.save</text>
<text text-anchor="middle" x="1738" y="-222" font-family="Helvetica,sans-Serif" font-size="10.00">AsGame</text>
</a>
</g>
</g>
<!-- Node18&#45;&gt;Node19 -->
<g id="edge21" class="edge"><title>Node18&#45;&gt;Node19</title>
<path fill="none" stroke="midnightblue" d="M1596.96,-230C1612.59,-230 1628.83,-230 1644.47,-230"/>
<polygon fill="midnightblue" stroke="midnightblue" points="1596.79,-226.5 1586.79,-230 1596.79,-233.5 1596.79,-226.5"/>
</g>
<!-- Node21 -->
<g id="node21" class="node"><title>Node21</title>
<g id="a_node21"><a xlink:href="../../db/d00/classgame_player_1_1_apply_state.html#aed42c1aba25264bc6880036f693a1c9e" target="_top" xlink:title="gamePlayer.ApplyState.on\lClick">
<polygon fill="white" stroke="black" points="957.5,-2 957.5,-32 1100.5,-32 1100.5,-2 957.5,-2"/>
<text text-anchor="start" x="965.5" y="-20" font-family="Helvetica,sans-Serif" font-size="10.00">gamePlayer.ApplyState.on</text>
<text text-anchor="middle" x="1029" y="-9" font-family="Helvetica,sans-Serif" font-size="10.00">Click</text>
</a>
</g>
</g>
<!-- Node20&#45;&gt;Node21 -->
<g id="edge24" class="edge"><title>Node20&#45;&gt;Node21</title>
<path fill="none" stroke="midnightblue" d="M858.881,-64.7652C881.855,-57.0728 909.146,-48.2416 934,-41 944.511,-37.9375 955.744,-34.8829 966.656,-32.0297"/>
<polygon fill="midnightblue" stroke="midnightblue" points="857.68,-61.4766 849.319,-67.9843 859.913,-68.1107 857.68,-61.4766"/>
</g>
<!-- Node24 -->
<g id="node24" class="node"><title>Node24</title>
<g id="a_node24"><a xlink:href="../../d8/d4d/classgameengine_1_1player_1_1_simple_a_i_player.html#a9a241075e35d6039a453f51445e9837c" target="_top" xlink:title="gameengine.player.Simple\lAIPlayer.startTurn">
<polygon fill="white" stroke="black" points="733,-0 733,-30 877,-30 877,-0 733,-0"/>
<text text-anchor="start" x="741" y="-18" font-family="Helvetica,sans-Serif" font-size="10.00">gameengine.player.Simple</text>
<text text-anchor="middle" x="805" y="-7" font-family="Helvetica,sans-Serif" font-size="10.00">AIPlayer.startTurn</text>
</a>
</g>
</g>
<!-- Node23&#45;&gt;Node24 -->
<g id="edge28" class="edge"><title>Node23&#45;&gt;Node24</title>
<path fill="none" stroke="midnightblue" d="M657.278,-15C681.996,-15 708.956,-15 732.945,-15"/>
<polygon fill="midnightblue" stroke="midnightblue" points="657.203,-11.5001 647.203,-15 657.203,-18.5001 657.203,-11.5001"/>
</g>
</g>
</svg>
        <g id="navigator" transform="translate(0 0)" fill="#404254">
                <rect fill="#f2f5e9" fill-opacity="0.5" stroke="#606060" stroke-width=".5" x="0" y="0" width="60" height="60"/>
                <use id="zoomplus" xlink:href="#zoomPlus" x="17" y="9" onmousedown="handleZoom(evt,'in')"/>
                <use id="zoomminus" xlink:href="#zoomMin" x="42" y="9" onmousedown="handleZoom(evt,'out')"/>
                <use id="reset" xlink:href="#resetDef" x="30" y="36" onmousedown="handleReset()"/>
                <g id="arrowUp" xlink:href="#dirArrow" transform="translate(30 24)" onmousedown="handlePan(0,-1)">
                  <use xlink:href="#rim" fill="#404040">
                        <set attributeName="fill" to="#808080" begin="arrowUp.mouseover" end="arrowUp.mouseout"/>
                  </use>
                  <path fill="none" stroke="white" stroke-width="1.5" d="M0,-3.0v7 M-2.5,-0.5L0,-3.0L2.5,-0.5"/>
                </g>
                <g id="arrowRight" xlink:href="#dirArrow" transform="rotate(90) translate(36 -43)" onmousedown="handlePan(1,0)">
                  <use xlink:href="#rim" fill="#404040">
                        <set attributeName="fill" to="#808080" begin="arrowRight.mouseover" end="arrowRight.mouseout"/>
                  </use>
                  <path fill="none" stroke="white" stroke-width="1.5" d="M0,-3.0v7 M-2.5,-0.5L0,-3.0L2.5,-0.5"/>
                </g>
                <g id="arrowDown" xlink:href="#dirArrow" transform="rotate(180) translate(-30 -48)" onmousedown="handlePan(0,1)">
                  <use xlink:href="#rim" fill="#404040">
                        <set attributeName="fill" to="#808080" begin="arrowDown.mouseover" end="arrowDown.mouseout"/>
                  </use>
                  <path fill="none" stroke="white" stroke-width="1.5" d="M0,-3.0v7 M-2.5,-0.5L0,-3.0L2.5,-0.5"/>
                </g>
                <g id="arrowLeft" xlink:href="#dirArrow" transform="rotate(270) translate(-36 17)" onmousedown="handlePan(-1,0)">
                  <use xlink:href="#rim" fill="#404040">
                        <set attributeName="fill" to="#808080" begin="arrowLeft.mouseover" end="arrowLeft.mouseout"/>
                  </use>
                  <path fill="none" stroke="white" stroke-width="1.5" d="M0,-3.0v7 M-2.5,-0.5L0,-3.0L2.5,-0.5"/>
                </g>
        </g>
        <svg viewBox="0 0 15 15" width="100%" height="30px" preserveAspectRatio="xMaxYMin meet">
         <g id="arrow_out" transform="scale(0.3 0.3)">
          <a xlink:href="classauthoring__environment_1_1_super_grid_a05c3a225e4a4cab14f9cce4921eaef82_icgraph_org.svg" target="_base">
           <rect id="button" ry="5" rx="5" y="6" x="6" height="38" width="38"
                fill="#f2f5e9" fill-opacity="0.5" stroke="#606060" stroke-width="1.0"/>
           <path id="arrow"
             d="M 11.500037,31.436501 C 11.940474,20.09759 22.043105,11.32322 32.158766,21.979434 L 37.068811,17.246167 C 37.068811,17.246167 37.088388,32 37.088388,32 L 22.160133,31.978069 C 22.160133,31.978069 26.997745,27.140456 26.997745,27.140456 C 18.528582,18.264221 13.291696,25.230495 11.500037,31.436501 z"
             style="fill:#404040;"/>
          </a>
         </g>
        </svg>
</svg>
