<?xml version="1.0" encoding="UTF-8" standalone="no"?>
<!DOCTYPE svg PUBLIC "-//W3C//DTD SVG 1.1//EN"
 "http://www.w3.org/Graphics/SVG/1.1/DTD/svg11.dtd">
<!-- Generated by graphviz version 2.36.0 (20140111.2315)
 -->
<!-- Title: authoring_environment.SuperGrid.getNumRows Pages: 1 -->
<svg width="2178pt" height="459pt"
 viewBox="0.00 0.00 2178.00 459.00" xmlns="http://www.w3.org/2000/svg" xmlns:xlink="http://www.w3.org/1999/xlink">
<g id="graph0" class="graph" transform="scale(1 1) rotate(0) translate(4 455)">
<title>authoring_environment.SuperGrid.getNumRows</title>
<polygon fill="white" stroke="none" points="-4,4 -4,-455 2174,-455 2174,4 -4,4"/>
<!-- Node1 -->
<g id="node1" class="node"><title>Node1</title>
<polygon fill="#bfbfbf" stroke="black" points="0,-112 0,-142 160,-142 160,-112 0,-112"/>
<text text-anchor="start" x="8" y="-130" font-family="Helvetica,sans-Serif" font-size="10.00">authoring_environment.Super</text>
<text text-anchor="middle" x="80" y="-119" font-family="Helvetica,sans-Serif" font-size="10.00">Grid.getNumRows</text>
</g>
<!-- Node2 -->
<g id="node2" class="node"><title>Node2</title>
<g id="a_node2"><a xlink:href="../../d3/d12/classtests_1_1_test_game_creator.html#a4c85cf768c7e38e9b2f6db858e8764ec" target="_top" xlink:title="tests.TestGameCreator.create\lNewGrid">
<polygon fill="white" stroke="black" points="213.5,-276 213.5,-306 374.5,-306 374.5,-276 213.5,-276"/>
<text text-anchor="start" x="221.5" y="-294" font-family="Helvetica,sans-Serif" font-size="10.00">tests.TestGameCreator.create</text>
<text text-anchor="middle" x="294" y="-283" font-family="Helvetica,sans-Serif" font-size="10.00">NewGrid</text>
</a>
</g>
</g>
<!-- Node1&#45;&gt;Node2 -->
<g id="edge1" class="edge"><title>Node1&#45;&gt;Node2</title>
<path fill="none" stroke="midnightblue" d="M108.719,-148.443C152.272,-182.135 235.658,-246.641 273.483,-275.902"/>
<polygon fill="midnightblue" stroke="midnightblue" points="110.616,-145.485 100.564,-142.135 106.332,-151.022 110.616,-145.485"/>
</g>
<!-- Node10 -->
<g id="node10" class="node"><title>Node10</title>
<g id="a_node10"><a xlink:href="../../da/dd4/classauthoring_1_1data_1_1_authoring_level.html#ac281ccfd05fbd5b7d89b77500b97c97f" target="_top" xlink:title="authoring.data.Authoring\lLevel.getNumRows">
<polygon fill="white" stroke="black" points="225.5,-161 225.5,-191 362.5,-191 362.5,-161 225.5,-161"/>
<text text-anchor="start" x="233.5" y="-179" font-family="Helvetica,sans-Serif" font-size="10.00">authoring.data.Authoring</text>
<text text-anchor="middle" x="294" y="-168" font-family="Helvetica,sans-Serif" font-size="10.00">Level.getNumRows</text>
</a>
</g>
</g>
<!-- Node1&#45;&gt;Node10 -->
<g id="edge9" class="edge"><title>Node1&#45;&gt;Node10</title>
<path fill="none" stroke="midnightblue" d="M155.983,-144.331C179.52,-149.771 205.295,-155.729 228.075,-160.994"/>
<polygon fill="midnightblue" stroke="midnightblue" points="156.579,-140.877 146.048,-142.035 155.003,-147.697 156.579,-140.877"/>
</g>
<!-- Node11 -->
<g id="node11" class="node"><title>Node11</title>
<g id="a_node11"><a xlink:href="../../d5/dfb/classgame_player_1_1_game_grid_effect.html#ae71ddafff23aecd0ee6697d732e0a919" target="_top" xlink:title="gamePlayer.GameGridEffect.highlight\lActionRange">
<polygon fill="white" stroke="black" points="196.5,-112 196.5,-142 391.5,-142 391.5,-112 196.5,-112"/>
<text text-anchor="start" x="204.5" y="-130" font-family="Helvetica,sans-Serif" font-size="10.00">gamePlayer.GameGridEffect.highlight</text>
<text text-anchor="middle" x="294" y="-119" font-family="Helvetica,sans-Serif" font-size="10.00">ActionRange</text>
</a>
</g>
</g>
<!-- Node1&#45;&gt;Node11 -->
<g id="edge10" class="edge"><title>Node1&#45;&gt;Node11</title>
<path fill="none" stroke="midnightblue" d="M170.263,-127C178.87,-127 187.629,-127 196.303,-127"/>
<polygon fill="midnightblue" stroke="midnightblue" points="170.242,-123.5 160.242,-127 170.242,-130.5 170.242,-123.5"/>
</g>
<!-- Node15 -->
<g id="node15" class="node"><title>Node15</title>
<g id="a_node15"><a xlink:href="../../da/d55/classgame_player_1_1_keyboard_movement.html#af45fd8d279b1ee2d6be5466d425485ab" target="_top" xlink:title="gamePlayer.KeyboardMovement.set\lMovementKeyControl">
<polygon fill="white" stroke="black" points="1084.5,-181 1084.5,-211 1273.5,-211 1273.5,-181 1084.5,-181"/>
<text text-anchor="start" x="1092.5" y="-199" font-family="Helvetica,sans-Serif" font-size="10.00">gamePlayer.KeyboardMovement.set</text>
<text text-anchor="middle" x="1179" y="-188" font-family="Helvetica,sans-Serif" font-size="10.00">MovementKeyControl</text>
</a>
</g>
</g>
<!-- Node1&#45;&gt;Node15 -->
<g id="edge36" class="edge"><title>Node1&#45;&gt;Node15</title>
<path fill="none" stroke="midnightblue" d="M148.567,-109.59C232.818,-89.4424 381.54,-59 511,-59 511,-59 511,-59 730,-59 871.613,-59 917.446,-24.1389 1048,-79 1100.91,-101.232 1146.55,-154.409 1166.82,-180.721"/>
<polygon fill="midnightblue" stroke="midnightblue" points="147.516,-106.243 138.617,-111.993 149.159,-113.047 147.516,-106.243"/>
</g>
<!-- Node33 -->
<g id="node33" class="node"><title>Node33</title>
<g id="a_node33"><a xlink:href="../../de/d8c/classfxml__main_1_1_level_editor.html#a014e481bcd2183307716f56c746af0bd" target="_top" xlink:title="fxml_main.LevelEditor.Level\lEditor">
<polygon fill="white" stroke="black" points="219.5,-0 219.5,-30 368.5,-30 368.5,-0 219.5,-0"/>
<text text-anchor="start" x="227.5" y="-18" font-family="Helvetica,sans-Serif" font-size="10.00">fxml_main.LevelEditor.Level</text>
<text text-anchor="middle" x="294" y="-7" font-family="Helvetica,sans-Serif" font-size="10.00">Editor</text>
</a>
</g>
</g>
<!-- Node1&#45;&gt;Node33 -->
<g id="edge35" class="edge"><title>Node1&#45;&gt;Node33</title>
<path fill="none" stroke="midnightblue" d="M106.536,-105.129C128.886,-86.9175 162.874,-61.3995 196,-45 207.769,-39.1736 220.903,-34.1977 233.611,-30.0706"/>
<polygon fill="midnightblue" stroke="midnightblue" points="104.044,-102.648 98.5668,-111.717 108.504,-108.043 104.044,-102.648"/>
</g>
<!-- Node3 -->
<g id="node3" class="node"><title>Node3</title>
<g id="a_node3"><a xlink:href="../../d3/d12/classtests_1_1_test_game_creator.html#a6088501ec4cce8d90d4561b695065a0d" target="_top" xlink:title="tests.TestGameCreator.create\lNewGame">
<polygon fill="white" stroke="black" points="431.5,-318 431.5,-348 592.5,-348 592.5,-318 431.5,-318"/>
<text text-anchor="start" x="439.5" y="-336" font-family="Helvetica,sans-Serif" font-size="10.00">tests.TestGameCreator.create</text>
<text text-anchor="middle" x="512" y="-325" font-family="Helvetica,sans-Serif" font-size="10.00">NewGame</text>
</a>
</g>
</g>
<!-- Node2&#45;&gt;Node3 -->
<g id="edge2" class="edge"><title>Node2&#45;&gt;Node3</title>
<path fill="none" stroke="midnightblue" d="M382.311,-307.977C399.357,-311.292 417.117,-314.745 433.807,-317.99"/>
<polygon fill="midnightblue" stroke="midnightblue" points="382.855,-304.517 372.371,-306.044 381.519,-311.389 382.855,-304.517"/>
</g>
<!-- Node4 -->
<g id="node4" class="node"><title>Node4</title>
<g id="a_node4"><a xlink:href="../../d8/d93/classauthoring_1_1concretefeatures_1_1menus_1_1_file_x.html#a06eadcf7852f723bc5a70d08a1bc5f3f" target="_top" xlink:title="authoring.concretefeatures.menus.\lFileX.handleSave">
<polygon fill="white" stroke="black" points="636,-362 636,-392 822,-392 822,-362 636,-362"/>
<text text-anchor="start" x="644" y="-380" font-family="Helvetica,sans-Serif" font-size="10.00">authoring.concretefeatures.menus.</text>
<text text-anchor="middle" x="729" y="-369" font-family="Helvetica,sans-Serif" font-size="10.00">FileX.handleSave</text>
</a>
</g>
</g>
<!-- Node3&#45;&gt;Node4 -->
<g id="edge3" class="edge"><title>Node3&#45;&gt;Node4</title>
<path fill="none" stroke="midnightblue" d="M596.321,-350.052C615.53,-353.983 635.825,-358.136 654.576,-361.974"/>
<polygon fill="midnightblue" stroke="midnightblue" points="596.888,-346.595 586.389,-348.019 595.485,-353.453 596.888,-346.595"/>
</g>
<!-- Node6 -->
<g id="node6" class="node"><title>Node6</title>
<g id="a_node6"><a xlink:href="../../df/dd5/classgame_player_1_1_view_controller.html#ac0350fa190876455755b7fb25f567af1" target="_top" xlink:title="gamePlayer.ViewController.testGame">
<polygon fill="white" stroke="black" points="632,-323.5 632,-342.5 826,-342.5 826,-323.5 632,-323.5"/>
<text text-anchor="middle" x="729" y="-330.5" font-family="Helvetica,sans-Serif" font-size="10.00">gamePlayer.ViewController.testGame</text>
</a>
</g>
</g>
<!-- Node3&#45;&gt;Node6 -->
<g id="edge5" class="edge"><title>Node3&#45;&gt;Node6</title>
<path fill="none" stroke="midnightblue" d="M602.949,-333C612.427,-333 622.093,-333 631.639,-333"/>
<polygon fill="midnightblue" stroke="midnightblue" points="602.753,-329.5 592.753,-333 602.752,-336.5 602.753,-329.5"/>
</g>
<!-- Node7 -->
<g id="node7" class="node"><title>Node7</title>
<g id="a_node7"><a xlink:href="../../d9/d51/classtests_1_1_global_action_tester.html#acc8e81a79086b93c043129dba02b3854" target="_top" xlink:title="tests.GlobalActionTester.\lGlobalActionTester">
<polygon fill="white" stroke="black" points="662,-274 662,-304 796,-304 796,-274 662,-274"/>
<text text-anchor="start" x="670" y="-292" font-family="Helvetica,sans-Serif" font-size="10.00">tests.GlobalActionTester.</text>
<text text-anchor="middle" x="729" y="-281" font-family="Helvetica,sans-Serif" font-size="10.00">GlobalActionTester</text>
</a>
</g>
</g>
<!-- Node3&#45;&gt;Node7 -->
<g id="edge6" class="edge"><title>Node3&#45;&gt;Node7</title>
<path fill="none" stroke="midnightblue" d="M596.257,-315.961C617.977,-311.516 641.089,-306.786 661.792,-302.549"/>
<polygon fill="midnightblue" stroke="midnightblue" points="595.485,-312.547 586.389,-317.981 596.888,-319.405 595.485,-312.547"/>
</g>
<!-- Node8 -->
<g id="node8" class="node"><title>Node8</title>
<g id="a_node8"><a xlink:href="../../d7/df4/classtests_1_1_j_s_o_n_tester_main.html#a5f1fa68f3fcb37a473271cdbfeaaa92e" target="_top" xlink:title="tests.JSONTesterMain.test\lJSONwrite">
<polygon fill="white" stroke="black" points="659,-411 659,-441 799,-441 799,-411 659,-411"/>
<text text-anchor="start" x="667" y="-429" font-family="Helvetica,sans-Serif" font-size="10.00">tests.JSONTesterMain.test</text>
<text text-anchor="middle" x="729" y="-418" font-family="Helvetica,sans-Serif" font-size="10.00">JSONwrite</text>
</a>
</g>
</g>
<!-- Node3&#45;&gt;Node8 -->
<g id="edge7" class="edge"><title>Node3&#45;&gt;Node8</title>
<path fill="none" stroke="midnightblue" d="M543.787,-353.62C567.162,-368.512 600.542,-388.181 632,-401 641.171,-404.737 651.065,-408.057 660.895,-410.958"/>
<polygon fill="midnightblue" stroke="midnightblue" points="545.643,-350.652 535.343,-348.17 541.848,-356.534 545.643,-350.652"/>
</g>
<!-- Node5 -->
<g id="node5" class="node"><title>Node5</title>
<g id="a_node5"><a xlink:href="../../d8/d93/classauthoring_1_1concretefeatures_1_1menus_1_1_file_x.html#a4b99e0877ab0c9e769217c815f3b99a1" target="_top" xlink:title="authoring.concretefeatures.menus.\lFileX.FileX">
<polygon fill="white" stroke="black" points="862,-362 862,-392 1048,-392 1048,-362 862,-362"/>
<text text-anchor="start" x="870" y="-380" font-family="Helvetica,sans-Serif" font-size="10.00">authoring.concretefeatures.menus.</text>
<text text-anchor="middle" x="955" y="-369" font-family="Helvetica,sans-Serif" font-size="10.00">FileX.FileX</text>
</a>
</g>
</g>
<!-- Node4&#45;&gt;Node5 -->
<g id="edge4" class="edge"><title>Node4&#45;&gt;Node5</title>
<path fill="none" stroke="midnightblue" d="M832.315,-377C842.184,-377 852.155,-377 861.916,-377"/>
<polygon fill="midnightblue" stroke="midnightblue" points="832.079,-373.5 822.079,-377 832.079,-380.5 832.079,-373.5"/>
</g>
<!-- Node9 -->
<g id="node9" class="node"><title>Node9</title>
<g id="a_node9"><a xlink:href="../../d7/df4/classtests_1_1_j_s_o_n_tester_main.html#a931215da47157cbc5157c6a9df31ccd4" target="_top" xlink:title="tests.JSONTesterMain.main">
<polygon fill="white" stroke="black" points="882,-416.5 882,-435.5 1028,-435.5 1028,-416.5 882,-416.5"/>
<text text-anchor="middle" x="955" y="-423.5" font-family="Helvetica,sans-Serif" font-size="10.00">tests.JSONTesterMain.main</text>
</a>
</g>
</g>
<!-- Node8&#45;&gt;Node9 -->
<g id="edge8" class="edge"><title>Node8&#45;&gt;Node9</title>
<path fill="none" stroke="midnightblue" d="M809.346,-426C832.918,-426 858.605,-426 881.704,-426"/>
<polygon fill="midnightblue" stroke="midnightblue" points="809.035,-422.5 799.035,-426 809.035,-429.5 809.035,-422.5"/>
</g>
<!-- Node12 -->
<g id="node12" class="node"><title>Node12</title>
<g id="a_node12"><a xlink:href="../../df/dd5/classgame_player_1_1_view_controller.html#a7eb038fd9f20604ade0406f27ef76657" target="_top" xlink:title="gamePlayer.ViewController.bind\lAction">
<polygon fill="white" stroke="black" points="428.5,-137 428.5,-167 595.5,-167 595.5,-137 428.5,-137"/>
<text text-anchor="start" x="436.5" y="-155" font-family="Helvetica,sans-Serif" font-size="10.00">gamePlayer.ViewController.bind</text>
<text text-anchor="middle" x="512" y="-144" font-family="Helvetica,sans-Serif" font-size="10.00">Action</text>
</a>
</g>
</g>
<!-- Node11&#45;&gt;Node12 -->
<g id="edge11" class="edge"><title>Node11&#45;&gt;Node12</title>
<path fill="none" stroke="midnightblue" d="M401.703,-139.35C410.642,-140.385 419.593,-141.421 428.311,-142.43"/>
<polygon fill="midnightblue" stroke="midnightblue" points="401.964,-135.857 391.628,-138.184 401.159,-142.81 401.964,-135.857"/>
</g>
<!-- Node13 -->
<g id="node13" class="node"><title>Node13</title>
<g id="a_node13"><a xlink:href="../../d1/db7/classgame_player_1_1_keyboard_action.html#a08ace57322b8639020688dd9493c3e1f" target="_top" xlink:title="gamePlayer.KeyboardAction.set\lActionKeyControl">
<polygon fill="white" stroke="black" points="645,-225 645,-255 813,-255 813,-225 645,-225"/>
<text text-anchor="start" x="653" y="-243" font-family="Helvetica,sans-Serif" font-size="10.00">gamePlayer.KeyboardAction.set</text>
<text text-anchor="middle" x="729" y="-232" font-family="Helvetica,sans-Serif" font-size="10.00">ActionKeyControl</text>
</a>
</g>
</g>
<!-- Node12&#45;&gt;Node13 -->
<g id="edge12" class="edge"><title>Node12&#45;&gt;Node13</title>
<path fill="none" stroke="midnightblue" d="M549.954,-171.801C573.125,-183.765 603.841,-198.812 632,-210 645.631,-215.416 660.653,-220.508 674.685,-224.905"/>
<polygon fill="midnightblue" stroke="midnightblue" points="551.318,-168.565 540.833,-167.05 548.085,-174.774 551.318,-168.565"/>
</g>
<!-- Node29 -->
<g id="node29" class="node"><title>Node29</title>
<g id="a_node29"><a xlink:href="../../df/dd5/classgame_player_1_1_view_controller.html#ab8c14a8c53be9021a62d0107c2f75ef6" target="_top" xlink:title="gamePlayer.ViewController.update\lActions">
<polygon fill="white" stroke="black" points="639,-137 639,-167 819,-167 819,-137 639,-137"/>
<text text-anchor="start" x="647" y="-155" font-family="Helvetica,sans-Serif" font-size="10.00">gamePlayer.ViewController.update</text>
<text text-anchor="middle" x="729" y="-144" font-family="Helvetica,sans-Serif" font-size="10.00">Actions</text>
</a>
</g>
</g>
<!-- Node12&#45;&gt;Node29 -->
<g id="edge31" class="edge"><title>Node12&#45;&gt;Node29</title>
<path fill="none" stroke="midnightblue" d="M605.589,-152C616.646,-152 627.916,-152 638.922,-152"/>
<polygon fill="midnightblue" stroke="midnightblue" points="605.51,-148.5 595.51,-152 605.51,-155.5 605.51,-148.5"/>
</g>
<!-- Node32 -->
<g id="node32" class="node"><title>Node32</title>
<g id="a_node32"><a xlink:href="../../df/df0/classtests_1_1_view_controller_test.html#a74e99f9c72cbdcd2d56271b2ad2df1ce" target="_top" xlink:title="tests.ViewControllerTest.bind\lActionTest">
<polygon fill="white" stroke="black" points="652,-88 652,-118 806,-118 806,-88 652,-88"/>
<text text-anchor="start" x="660" y="-106" font-family="Helvetica,sans-Serif" font-size="10.00">tests.ViewControllerTest.bind</text>
<text text-anchor="middle" x="729" y="-95" font-family="Helvetica,sans-Serif" font-size="10.00">ActionTest</text>
</a>
</g>
</g>
<!-- Node12&#45;&gt;Node32 -->
<g id="edge34" class="edge"><title>Node12&#45;&gt;Node32</title>
<path fill="none" stroke="midnightblue" d="M588.724,-134.742C612.681,-129.282 638.951,-123.295 662.157,-118.006"/>
<polygon fill="midnightblue" stroke="midnightblue" points="587.94,-131.331 578.968,-136.965 589.496,-138.156 587.94,-131.331"/>
</g>
<!-- Node14 -->
<g id="node14" class="node"><title>Node14</title>
<g id="a_node14"><a xlink:href="../../df/dd5/classgame_player_1_1_view_controller.html#a95c2acd43bb39b8606c69971c1cd30f5" target="_top" xlink:title="gamePlayer.ViewController.perform\lAction">
<polygon fill="white" stroke="black" points="862.5,-225 862.5,-255 1047.5,-255 1047.5,-225 862.5,-225"/>
<text text-anchor="start" x="870.5" y="-243" font-family="Helvetica,sans-Serif" font-size="10.00">gamePlayer.ViewController.perform</text>
<text text-anchor="middle" x="955" y="-232" font-family="Helvetica,sans-Serif" font-size="10.00">Action</text>
</a>
</g>
</g>
<!-- Node13&#45;&gt;Node14 -->
<g id="edge13" class="edge"><title>Node13&#45;&gt;Node14</title>
<path fill="none" stroke="midnightblue" d="M823.355,-240C836.261,-240 849.507,-240 862.381,-240"/>
<polygon fill="midnightblue" stroke="midnightblue" points="823.091,-236.5 813.091,-240 823.091,-243.5 823.091,-236.5"/>
</g>
<!-- Node14&#45;&gt;Node15 -->
<g id="edge14" class="edge"><title>Node14&#45;&gt;Node15</title>
<path fill="none" stroke="midnightblue" d="M1013.32,-222.646C1034.9,-217.708 1060.06,-212.495 1084.11,-207.931"/>
<polygon fill="midnightblue" stroke="midnightblue" points="1012.3,-219.291 1003.35,-224.968 1013.89,-226.108 1012.3,-219.291"/>
</g>
<!-- Node17 -->
<g id="node17" class="node"><title>Node17</title>
<g id="a_node17"><a xlink:href="../../df/dd5/classgame_player_1_1_view_controller.html#a22ee80193bbac79a935ee961a183bfcd" target="_top" xlink:title="gamePlayer.ViewController.set\lOnClick">
<polygon fill="white" stroke="black" points="1098.5,-282 1098.5,-312 1259.5,-312 1259.5,-282 1098.5,-282"/>
<text text-anchor="start" x="1106.5" y="-300" font-family="Helvetica,sans-Serif" font-size="10.00">gamePlayer.ViewController.set</text>
<text text-anchor="middle" x="1179" y="-289" font-family="Helvetica,sans-Serif" font-size="10.00">OnClick</text>
</a>
</g>
</g>
<!-- Node14&#45;&gt;Node17 -->
<g id="edge18" class="edge"><title>Node14&#45;&gt;Node17</title>
<path fill="none" stroke="midnightblue" d="M1024.31,-257.539C1054.75,-265.354 1090.24,-274.466 1119.44,-281.964"/>
<polygon fill="midnightblue" stroke="midnightblue" points="1025.17,-254.148 1014.62,-255.051 1023.43,-260.928 1025.17,-254.148"/>
</g>
<!-- Node15&#45;&gt;Node12 -->
<g id="edge15" class="edge"><title>Node15&#45;&gt;Node12</title>
<path fill="none" stroke="midnightblue" d="M1074.31,-197.195C964.19,-197.3 785.233,-194.137 632,-176 614.21,-173.894 595.114,-170.541 577.542,-167.001"/>
<polygon fill="midnightblue" stroke="midnightblue" points="1074.42,-200.695 1084.42,-197.176 1074.41,-193.695 1074.42,-200.695"/>
</g>
<!-- Node15&#45;&gt;Node14 -->
<g id="edge16" class="edge"><title>Node15&#45;&gt;Node14</title>
<path fill="none" stroke="midnightblue" d="M1120.7,-213.349C1098.42,-218.447 1072.33,-223.839 1047.58,-228.507"/>
<polygon fill="midnightblue" stroke="midnightblue" points="1121.7,-216.709 1130.65,-211.031 1120.12,-209.891 1121.7,-216.709"/>
</g>
<!-- Node16 -->
<g id="node16" class="node"><title>Node16</title>
<g id="a_node16"><a xlink:href="../../df/dd5/classgame_player_1_1_view_controller.html#a27da17c1280cd953a14f6b76b18f9a4b" target="_top" xlink:title="gamePlayer.ViewController.toggle\lKeyboardControl">
<polygon fill="white" stroke="black" points="1324,-181 1324,-211 1500,-211 1500,-181 1324,-181"/>
<text text-anchor="start" x="1332" y="-199" font-family="Helvetica,sans-Serif" font-size="10.00">gamePlayer.ViewController.toggle</text>
<text text-anchor="middle" x="1412" y="-188" font-family="Helvetica,sans-Serif" font-size="10.00">KeyboardControl</text>
</a>
</g>
</g>
<!-- Node15&#45;&gt;Node16 -->
<g id="edge17" class="edge"><title>Node15&#45;&gt;Node16</title>
<path fill="none" stroke="midnightblue" d="M1283.83,-196C1297.24,-196 1310.86,-196 1323.96,-196"/>
<polygon fill="midnightblue" stroke="midnightblue" points="1283.62,-192.5 1273.62,-196 1283.62,-199.5 1283.62,-192.5"/>
</g>
<!-- Node18 -->
<g id="node18" class="node"><title>Node18</title>
<g id="a_node18"><a xlink:href="../../df/dd5/classgame_player_1_1_view_controller.html#a10a40967a873f067cf91b024ff85b38e" target="_top" xlink:title="gamePlayer.ViewController.initializeGrid">
<polygon fill="white" stroke="black" points="1310,-289.5 1310,-308.5 1514,-308.5 1514,-289.5 1310,-289.5"/>
<text text-anchor="middle" x="1412" y="-296.5" font-family="Helvetica,sans-Serif" font-size="10.00">gamePlayer.ViewController.initializeGrid</text>
</a>
</g>
</g>
<!-- Node17&#45;&gt;Node18 -->
<g id="edge19" class="edge"><title>Node17&#45;&gt;Node18</title>
<path fill="none" stroke="midnightblue" d="M1270.18,-297.781C1283.23,-297.894 1296.74,-298.011 1309.99,-298.125"/>
<polygon fill="midnightblue" stroke="midnightblue" points="1269.85,-294.278 1259.82,-297.691 1269.79,-301.278 1269.85,-294.278"/>
</g>
<!-- Node19 -->
<g id="node19" class="node"><title>Node19</title>
<g id="a_node19"><a xlink:href="../../df/dd5/classgame_player_1_1_view_controller.html#aabf431713b65ec510f1cb2df12da4e45" target="_top" xlink:title="gamePlayer.ViewController.test\lPlayGameInTab">
<polygon fill="white" stroke="black" points="1571.5,-350 1571.5,-380 1736.5,-380 1736.5,-350 1571.5,-350"/>
<text text-anchor="start" x="1579.5" y="-368" font-family="Helvetica,sans-Serif" font-size="10.00">gamePlayer.ViewController.test</text>
<text text-anchor="middle" x="1654" y="-357" font-family="Helvetica,sans-Serif" font-size="10.00">PlayGameInTab</text>
</a>
</g>
</g>
<!-- Node18&#45;&gt;Node19 -->
<g id="edge20" class="edge"><title>Node18&#45;&gt;Node19</title>
<path fill="none" stroke="midnightblue" d="M1452.91,-311.55C1480.16,-319.967 1517.13,-331.1 1550,-340 1562.52,-343.391 1575.96,-346.81 1588.86,-349.985"/>
<polygon fill="midnightblue" stroke="midnightblue" points="1453.93,-308.2 1443.34,-308.58 1451.85,-314.886 1453.93,-308.2"/>
</g>
<!-- Node20 -->
<g id="node20" class="node"><title>Node20</title>
<g id="a_node20"><a xlink:href="../../df/dd5/classgame_player_1_1_view_controller.html#a0d1a3d443966f151b070dc751d2faf9a" target="_top" xlink:title="gamePlayer.ViewController.restartGame">
<polygon fill="white" stroke="black" points="1550,-311.5 1550,-330.5 1758,-330.5 1758,-311.5 1550,-311.5"/>
<text text-anchor="middle" x="1654" y="-318.5" font-family="Helvetica,sans-Serif" font-size="10.00">gamePlayer.ViewController.restartGame</text>
</a>
</g>
</g>
<!-- Node18&#45;&gt;Node20 -->
<g id="edge21" class="edge"><title>Node18&#45;&gt;Node20</title>
<path fill="none" stroke="midnightblue" d="M1524.08,-309.182C1532.62,-309.966 1541.23,-310.754 1549.72,-311.533"/>
<polygon fill="midnightblue" stroke="midnightblue" points="1524.36,-305.694 1514.09,-308.266 1523.72,-312.665 1524.36,-305.694"/>
</g>
<!-- Node21 -->
<g id="node21" class="node"><title>Node21</title>
<g id="a_node21"><a xlink:href="../../df/dd5/classgame_player_1_1_view_controller.html#a620f8a02d3ac7677cd179fcd812aca55" target="_top" xlink:title="gamePlayer.ViewController.check\lEndActions">
<polygon fill="white" stroke="black" points="1567,-213 1567,-243 1741,-243 1741,-213 1567,-213"/>
<text text-anchor="start" x="1575" y="-231" font-family="Helvetica,sans-Serif" font-size="10.00">gamePlayer.ViewController.check</text>
<text text-anchor="middle" x="1654" y="-220" font-family="Helvetica,sans-Serif" font-size="10.00">EndActions</text>
</a>
</g>
</g>
<!-- Node18&#45;&gt;Node21 -->
<g id="edge22" class="edge"><title>Node18&#45;&gt;Node21</title>
<path fill="none" stroke="midnightblue" d="M1448.88,-286.011C1476.37,-276.292 1515.33,-263.009 1550,-253 1562.02,-249.53 1574.92,-246.139 1587.39,-243.031"/>
<polygon fill="midnightblue" stroke="midnightblue" points="1447.56,-282.768 1439.31,-289.417 1449.9,-289.363 1447.56,-282.768"/>
</g>
<!-- Node24 -->
<g id="node24" class="node"><title>Node24</title>
<g id="a_node24"><a xlink:href="../../df/dd5/classgame_player_1_1_view_controller.html#adc15cd81cefb88c58f9d3b7478328df8" target="_top" xlink:title="gamePlayer.ViewController.test\lPlayGUIGame">
<polygon fill="white" stroke="black" points="1571.5,-262 1571.5,-292 1736.5,-292 1736.5,-262 1571.5,-262"/>
<text text-anchor="start" x="1579.5" y="-280" font-family="Helvetica,sans-Serif" font-size="10.00">gamePlayer.ViewController.test</text>
<text text-anchor="middle" x="1654" y="-269" font-family="Helvetica,sans-Serif" font-size="10.00">PlayGUIGame</text>
</a>
</g>
</g>
<!-- Node18&#45;&gt;Node24 -->
<g id="edge26" class="edge"><title>Node18&#45;&gt;Node24</title>
<path fill="none" stroke="midnightblue" d="M1524.43,-288.786C1540.23,-287.338 1556.22,-285.871 1571.32,-284.488"/>
<polygon fill="midnightblue" stroke="midnightblue" points="1523.72,-285.335 1514.09,-289.734 1524.36,-292.306 1523.72,-285.335"/>
</g>
<!-- Node25 -->
<g id="node25" class="node"><title>Node25</title>
<g id="a_node25"><a xlink:href="../../df/dd5/classgame_player_1_1_view_controller.html#a4c1754d129a4eac955390b428eaa448a" target="_top" xlink:title="gamePlayer.ViewController.test\lPlayGame">
<polygon fill="white" stroke="black" points="1571.5,-399 1571.5,-429 1736.5,-429 1736.5,-399 1571.5,-399"/>
<text text-anchor="start" x="1579.5" y="-417" font-family="Helvetica,sans-Serif" font-size="10.00">gamePlayer.ViewController.test</text>
<text text-anchor="middle" x="1654" y="-406" font-family="Helvetica,sans-Serif" font-size="10.00">PlayGame</text>
</a>
</g>
</g>
<!-- Node18&#45;&gt;Node25 -->
<g id="edge27" class="edge"><title>Node18&#45;&gt;Node25</title>
<path fill="none" stroke="midnightblue" d="M1432.78,-315.187C1458.34,-335.324 1504.93,-369.431 1550,-389 1558.78,-392.811 1568.24,-396.106 1577.74,-398.936"/>
<polygon fill="midnightblue" stroke="midnightblue" points="1434.65,-312.201 1424.65,-308.694 1430.28,-317.671 1434.65,-312.201"/>
</g>
<!-- Node21&#45;&gt;Node14 -->
<g id="edge23" class="edge"><title>Node21&#45;&gt;Node14</title>
<path fill="none" stroke="midnightblue" d="M1556.7,-229.658C1422.22,-231.973 1179.88,-236.146 1047.84,-238.419"/>
<polygon fill="midnightblue" stroke="midnightblue" points="1557.05,-233.153 1566.98,-229.481 1556.93,-226.154 1557.05,-233.153"/>
</g>
<!-- Node22 -->
<g id="node22" class="node"><title>Node22</title>
<g id="a_node22"><a xlink:href="../../df/dd5/classgame_player_1_1_view_controller.html#a13ea7814bde61a8042c5b1a23af41416" target="_top" xlink:title="gamePlayer.ViewController.end\lAction">
<polygon fill="white" stroke="black" points="1809,-213 1809,-243 1973,-243 1973,-213 1809,-213"/>
<text text-anchor="start" x="1817" y="-231" font-family="Helvetica,sans-Serif" font-size="10.00">gamePlayer.ViewController.end</text>
<text text-anchor="middle" x="1891" y="-220" font-family="Helvetica,sans-Serif" font-size="10.00">Action</text>
</a>
</g>
</g>
<!-- Node21&#45;&gt;Node22 -->
<g id="edge24" class="edge"><title>Node21&#45;&gt;Node22</title>
<path fill="none" stroke="midnightblue" d="M1751.39,-228C1770.5,-228 1790.38,-228 1808.92,-228"/>
<polygon fill="midnightblue" stroke="midnightblue" points="1751.17,-224.5 1741.17,-228 1751.17,-231.5 1751.17,-224.5"/>
</g>
<!-- Node23 -->
<g id="node23" class="node"><title>Node23</title>
<g id="a_node23"><a xlink:href="../../db/d00/classgame_player_1_1_apply_state.html#aed42c1aba25264bc6880036f693a1c9e" target="_top" xlink:title="gamePlayer.ApplyState.on\lClick">
<polygon fill="white" stroke="black" points="2025.5,-213 2025.5,-243 2168.5,-243 2168.5,-213 2025.5,-213"/>
<text text-anchor="start" x="2033.5" y="-231" font-family="Helvetica,sans-Serif" font-size="10.00">gamePlayer.ApplyState.on</text>
<text text-anchor="middle" x="2097" y="-220" font-family="Helvetica,sans-Serif" font-size="10.00">Click</text>
</a>
</g>
</g>
<!-- Node22&#45;&gt;Node23 -->
<g id="edge25" class="edge"><title>Node22&#45;&gt;Node23</title>
<path fill="none" stroke="midnightblue" d="M1983.38,-228C1997.44,-228 2011.76,-228 2025.28,-228"/>
<polygon fill="midnightblue" stroke="midnightblue" points="1983.21,-224.5 1973.21,-228 1983.21,-231.5 1983.21,-224.5"/>
</g>
<!-- Node26 -->
<g id="node26" class="node"><title>Node26</title>
<g id="a_node26"><a xlink:href="../../db/d40/classfxml__main_1_1_authoring_controller.html#a2ec133c8edf0a7ab1e84f2e12455233d" target="_top" xlink:title="fxml_main.AuthoringController.save\lAsGame">
<polygon fill="white" stroke="black" points="1797.5,-377 1797.5,-407 1984.5,-407 1984.5,-377 1797.5,-377"/>
<text text-anchor="start" x="1805.5" y="-395" font-family="Helvetica,sans-Serif" font-size="10.00">fxml_main.AuthoringController.save</text>
<text text-anchor="middle" x="1891" y="-384" font-family="Helvetica,sans-Serif" font-size="10.00">AsGame</text>
</a>
</g>
</g>
<!-- Node25&#45;&gt;Node26 -->
<g id="edge28" class="edge"><title>Node25&#45;&gt;Node26</title>
<path fill="none" stroke="midnightblue" d="M1746.77,-405.409C1763.38,-403.854 1780.7,-402.232 1797.34,-400.675"/>
<polygon fill="midnightblue" stroke="midnightblue" points="1746.16,-401.95 1736.53,-406.367 1746.81,-408.92 1746.16,-401.95"/>
</g>
<!-- Node27 -->
<g id="node27" class="node"><title>Node27</title>
<g id="a_node27"><a xlink:href="../../df/dd5/classgame_player_1_1_view_controller.html#a2bf1dce04187ad5eacb5359ef2b4eff8" target="_top" xlink:title="gamePlayer.ViewController.newGame">
<polygon fill="white" stroke="black" points="1794,-426.5 1794,-445.5 1988,-445.5 1988,-426.5 1794,-426.5"/>
<text text-anchor="middle" x="1891" y="-433.5" font-family="Helvetica,sans-Serif" font-size="10.00">gamePlayer.ViewController.newGame</text>
</a>
</g>
</g>
<!-- Node25&#45;&gt;Node27 -->
<g id="edge29" class="edge"><title>Node25&#45;&gt;Node27</title>
<path fill="none" stroke="midnightblue" d="M1746.58,-422.573C1762.03,-424.019 1778.1,-425.524 1793.66,-426.981"/>
<polygon fill="midnightblue" stroke="midnightblue" points="1746.81,-419.08 1736.53,-421.633 1746.16,-426.05 1746.81,-419.08"/>
</g>
<!-- Node28 -->
<g id="node28" class="node"><title>Node28</title>
<g id="a_node28"><a xlink:href="../../df/dd5/classgame_player_1_1_view_controller.html#a2acd822c93c35674b6978a97b4ce6e3f" target="_top" xlink:title="gamePlayer.ViewController.\lViewController">
<polygon fill="white" stroke="black" points="2024,-421 2024,-451 2170,-451 2170,-421 2024,-421"/>
<text text-anchor="start" x="2032" y="-439" font-family="Helvetica,sans-Serif" font-size="10.00">gamePlayer.ViewController.</text>
<text text-anchor="middle" x="2097" y="-428" font-family="Helvetica,sans-Serif" font-size="10.00">ViewController</text>
</a>
</g>
</g>
<!-- Node27&#45;&gt;Node28 -->
<g id="edge30" class="edge"><title>Node27&#45;&gt;Node28</title>
<path fill="none" stroke="midnightblue" d="M1998.24,-436C2006.94,-436 2015.59,-436 2023.95,-436"/>
<polygon fill="midnightblue" stroke="midnightblue" points="1998.03,-432.5 1988.03,-436 1998.03,-439.5 1998.03,-432.5"/>
</g>
<!-- Node30 -->
<g id="node30" class="node"><title>Node30</title>
<g id="a_node30"><a xlink:href="../../d6/d24/classgame_player_1_1_select_state.html#a801827392f0faeee6b96925060d77838" target="_top" xlink:title="gamePlayer.SelectState.on\lClick">
<polygon fill="white" stroke="black" points="881.5,-137 881.5,-167 1028.5,-167 1028.5,-137 881.5,-137"/>
<text text-anchor="start" x="889.5" y="-155" font-family="Helvetica,sans-Serif" font-size="10.00">gamePlayer.SelectState.on</text>
<text text-anchor="middle" x="955" y="-144" font-family="Helvetica,sans-Serif" font-size="10.00">Click</text>
</a>
</g>
</g>
<!-- Node29&#45;&gt;Node30 -->
<g id="edge32" class="edge"><title>Node29&#45;&gt;Node30</title>
<path fill="none" stroke="midnightblue" d="M829.397,-152C846.862,-152 864.741,-152 881.306,-152"/>
<polygon fill="midnightblue" stroke="midnightblue" points="829.174,-148.5 819.174,-152 829.174,-155.5 829.174,-148.5"/>
</g>
<!-- Node31 -->
<g id="node31" class="node"><title>Node31</title>
<g id="a_node31"><a xlink:href="../../df/df0/classtests_1_1_view_controller_test.html#a785df2c49a72c183c22163ce927f5df1" target="_top" xlink:title="tests.ViewControllerTest.update\lActionsTest">
<polygon fill="white" stroke="black" points="871.5,-88 871.5,-118 1038.5,-118 1038.5,-88 871.5,-88"/>
<text text-anchor="start" x="879.5" y="-106" font-family="Helvetica,sans-Serif" font-size="10.00">tests.ViewControllerTest.update</text>
<text text-anchor="middle" x="955" y="-95" font-family="Helvetica,sans-Serif" font-size="10.00">ActionsTest</text>
</a>
</g>
</g>
<!-- Node29&#45;&gt;Node31 -->
<g id="edge33" class="edge"><title>Node29&#45;&gt;Node31</title>
<path fill="none" stroke="midnightblue" d="M808.562,-134.815C833.61,-129.335 861.115,-123.318 885.4,-118.006"/>
<polygon fill="midnightblue" stroke="midnightblue" points="807.751,-131.409 798.73,-136.965 809.247,-138.247 807.751,-131.409"/>
</g>
</g>
</svg>
