<?xml version="1.0" encoding="UTF-8" standalone="no"?>
<!DOCTYPE svg PUBLIC "-//W3C//DTD SVG 1.1//EN"
 "http://www.w3.org/Graphics/SVG/1.1/DTD/svg11.dtd">
<!-- Generated by graphviz version 2.36.0 (20140111.2315)
 -->
<!-- Title: authoring_environment.SuperGrid.findClickedTile Pages: 1 -->
<!--zoomable 513 -->
<svg id="main" version="1.1" xmlns="http://www.w3.org/2000/svg" xmlns:xlink="http://www.w3.org/1999/xlink" xml:space="preserve" onload="init(evt)">
<style type="text/css"><![CDATA[
.edge:hover path { stroke: red; }
.edge:hover polygon { stroke: red; fill: red; }
]]></style>
<script type="text/javascript"><![CDATA[
var edges = document.getElementsByTagName('g');
if (edges && edges.length) {
  for (var i=0;i<edges.length;i++) {
    if (edges[i].id.substr(0,4)=='edge') {
      edges[i].setAttribute('class','edge');
    }
  }
}
]]></script>
        <defs>
                <circle id="rim" cx="0" cy="0" r="7"/>
                <circle id="rim2" cx="0" cy="0" r="3.5"/>
                <g id="zoomPlus">
                        <use xlink:href="#rim" fill="#404040">
                                <set attributeName="fill" to="#808080" begin="zoomplus.mouseover" end="zoomplus.mouseout"/>
                        </use>
                        <path d="M-4,0h8M0,-4v8" fill="none" stroke="white" stroke-width="1.5" pointer-events="none"/>
                </g>
                <g id="zoomMin">
                        <use xlink:href="#rim" fill="#404040">
                                <set attributeName="fill" to="#808080" begin="zoomminus.mouseover" end="zoomminus.mouseout"/>
                        </use>
                        <path d="M-4,0h8" fill="none" stroke="white" stroke-width="1.5" pointer-events="none"/>
                </g>
                <g id="dirArrow">
                        <path fill="none" stroke="white" stroke-width="1.5" d="M0,-3.0v7 M-2.5,-0.5L0,-3.0L2.5,-0.5"/>
                </g>
               <g id="resetDef">
                       <use xlink:href="#rim2" fill="#404040">
                               <set attributeName="fill" to="#808080" begin="reset.mouseover" end="reset.mouseout"/>
                       </use>
               </g>
        </defs>

<script type="text/javascript">
var viewWidth = 2344;
var viewHeight = 513;
var sectionId = 'dynsection-6';
</script>
<script xlink:href="../../svgpan.js"/>
<svg id="graph" class="graph">
<g id="viewport">
<title>authoring_environment.SuperGrid.findClickedTile</title>
<polygon fill="white" stroke="none" points="-4,4 -4,-509 2340,-509 2340,4 -4,4"/>
<!-- Node1 -->
<g id="node1" class="node"><title>Node1</title>
<polygon fill="#bfbfbf" stroke="black" points="0,-44 0,-74 160,-74 160,-44 0,-44"/>
<text text-anchor="start" x="8" y="-62" font-family="Helvetica,sans-Serif" font-size="10.00">authoring_environment.Super</text>
<text text-anchor="middle" x="80" y="-51" font-family="Helvetica,sans-Serif" font-size="10.00">Grid.findClickedTile</text>
</g>
<!-- Node2 -->
<g id="node2" class="node"><title>Node2</title>
<g id="a_node2"><a xlink:href="../../d9/df3/classauthoring__environment_1_1_super_grid.html#a0f8021e23df3eb8657622455e0a2c70e" target="_top" xlink:title="authoring_environment.Super\lGrid.findClickedCoordinate">
<polygon fill="white" stroke="black" points="197,-171 197,-201 357,-201 357,-171 197,-171"/>
<text text-anchor="start" x="205" y="-189" font-family="Helvetica,sans-Serif" font-size="10.00">authoring_environment.Super</text>
<text text-anchor="middle" x="277" y="-178" font-family="Helvetica,sans-Serif" font-size="10.00">Grid.findClickedCoordinate</text>
</a>
</g>
</g>
<!-- Node1&#45;&gt;Node2 -->
<g id="edge1" class="edge"><title>Node1&#45;&gt;Node2</title>
<path fill="none" stroke="midnightblue" d="M112.563,-79.5563C151.852,-105.145 218.023,-148.24 252.895,-170.952"/>
<polygon fill="midnightblue" stroke="midnightblue" points="114.424,-76.5919 104.135,-74.0673 110.604,-82.4576 114.424,-76.5919"/>
</g>
<!-- Node32 -->
<g id="node32" class="node"><title>Node32</title>
<g id="a_node32"><a xlink:href="../../db/d00/classgame_player_1_1_apply_state.html#ab752906e9e7f3d4a5ff3a1114668bc14" target="_top" xlink:title="gamePlayer.ApplyState.handle\lMouseMove">
<polygon fill="white" stroke="black" points="398,-0 398,-30 562,-30 562,-0 398,-0"/>
<text text-anchor="start" x="406" y="-18" font-family="Helvetica,sans-Serif" font-size="10.00">gamePlayer.ApplyState.handle</text>
<text text-anchor="middle" x="480" y="-7" font-family="Helvetica,sans-Serif" font-size="10.00">MouseMove</text>
</a>
</g>
</g>
<!-- Node1&#45;&gt;Node32 -->
<g id="edge34" class="edge"><title>Node1&#45;&gt;Node32</title>
<path fill="none" stroke="midnightblue" d="M170.379,-55.3567C224.788,-52.4422 295.602,-47.408 358,-39 375.298,-36.6691 393.846,-33.3899 411.094,-30.0024"/>
<polygon fill="midnightblue" stroke="midnightblue" points="169.874,-51.8782 160.07,-55.8942 170.239,-58.8687 169.874,-51.8782"/>
</g>
<!-- Node34 -->
<g id="node34" class="node"><title>Node34</title>
<g id="a_node34"><a xlink:href="../../d5/dfb/classgame_player_1_1_game_grid_effect.html#a1c7aa054e990a15b89b678d88df45ec1" target="_top" xlink:title="gamePlayer.GameGridEffect.is\lHoveringOverActionHighlight">
<polygon fill="white" stroke="black" points="196,-0 196,-30 358,-30 358,-0 196,-0"/>
<text text-anchor="start" x="204" y="-18" font-family="Helvetica,sans-Serif" font-size="10.00">gamePlayer.GameGridEffect.is</text>
<text text-anchor="middle" x="277" y="-7" font-family="Helvetica,sans-Serif" font-size="10.00">HoveringOverActionHighlight</text>
</a>
</g>
</g>
<!-- Node1&#45;&gt;Node34 -->
<g id="edge36" class="edge"><title>Node1&#45;&gt;Node34</title>
<path fill="none" stroke="midnightblue" d="M157.531,-41.7316C174.667,-37.8648 192.711,-33.7934 209.407,-30.0262"/>
<polygon fill="midnightblue" stroke="midnightblue" points="156.547,-38.3654 147.563,-43.9808 158.088,-45.1938 156.547,-38.3654"/>
</g>
<!-- Node3 -->
<g id="node3" class="node"><title>Node3</title>
<g id="a_node3"><a xlink:href="../../df/dd5/classgame_player_1_1_view_controller.html#a8df1cc776c0ee37d0a324870b9e37275" target="_top" xlink:title="gamePlayer.ViewController.find\lPosition">
<polygon fill="white" stroke="black" points="398,-294 398,-324 562,-324 562,-294 398,-294"/>
<text text-anchor="start" x="406" y="-312" font-family="Helvetica,sans-Serif" font-size="10.00">gamePlayer.ViewController.find</text>
<text text-anchor="middle" x="480" y="-301" font-family="Helvetica,sans-Serif" font-size="10.00">Position</text>
</a>
</g>
</g>
<!-- Node2&#45;&gt;Node3 -->
<g id="edge2" class="edge"><title>Node2&#45;&gt;Node3</title>
<path fill="none" stroke="midnightblue" d="M298.984,-208.523C320.775,-230.674 356.828,-263.993 394,-284 401.043,-287.791 408.732,-291.073 416.514,-293.897"/>
<polygon fill="midnightblue" stroke="midnightblue" points="301.361,-205.947 291.892,-201.194 296.33,-210.815 301.361,-205.947"/>
</g>
<!-- Node26 -->
<g id="node26" class="node"><title>Node26</title>
<g id="a_node26"><a xlink:href="../../d4/d3f/classfxml__main_1_1_patch_controller.html#a0a171a684c98c85bae1083e59444eac6" target="_top" xlink:title="fxml_main.PatchController.init\lGlobalDelBtn">
<polygon fill="white" stroke="black" points="401,-245 401,-275 559,-275 559,-245 401,-245"/>
<text text-anchor="start" x="409" y="-263" font-family="Helvetica,sans-Serif" font-size="10.00">fxml_main.PatchController.init</text>
<text text-anchor="middle" x="480" y="-252" font-family="Helvetica,sans-Serif" font-size="10.00">GlobalDelBtn</text>
</a>
</g>
</g>
<!-- Node2&#45;&gt;Node26 -->
<g id="edge28" class="edge"><title>Node2&#45;&gt;Node26</title>
<path fill="none" stroke="midnightblue" d="M320.397,-205.276C342.165,-214.823 369.249,-226.165 394,-235 403.706,-238.465 414.154,-241.828 424.29,-244.906"/>
<polygon fill="midnightblue" stroke="midnightblue" points="321.668,-202.012 311.107,-201.17 318.838,-208.414 321.668,-202.012"/>
</g>
<!-- Node27 -->
<g id="node27" class="node"><title>Node27</title>
<g id="a_node27"><a xlink:href="../../dc/d77/classfxml__main_1_1_piece_controller.html#a7190534f96aae2433b925ff2ba45ee20" target="_top" xlink:title="fxml_main.PieceController.init\lGlobalDelBtn">
<polygon fill="white" stroke="black" points="401,-196 401,-226 559,-226 559,-196 401,-196"/>
<text text-anchor="start" x="409" y="-214" font-family="Helvetica,sans-Serif" font-size="10.00">fxml_main.PieceController.init</text>
<text text-anchor="middle" x="480" y="-203" font-family="Helvetica,sans-Serif" font-size="10.00">GlobalDelBtn</text>
</a>
</g>
</g>
<!-- Node2&#45;&gt;Node27 -->
<g id="edge29" class="edge"><title>Node2&#45;&gt;Node27</title>
<path fill="none" stroke="midnightblue" d="M367.356,-197.114C378.541,-198.505 389.913,-199.92 400.908,-201.287"/>
<polygon fill="midnightblue" stroke="midnightblue" points="367.508,-193.606 357.152,-195.845 366.644,-200.552 367.508,-193.606"/>
</g>
<!-- Node28 -->
<g id="node28" class="node"><title>Node28</title>
<g id="a_node28"><a xlink:href="../../d4/d3f/classfxml__main_1_1_patch_controller.html#a5157fa914edaba5f23f4fda5951224d2" target="_top" xlink:title="fxml_main.PatchController.init\lGlobalEditBtn">
<polygon fill="white" stroke="black" points="401,-147 401,-177 559,-177 559,-147 401,-147"/>
<text text-anchor="start" x="409" y="-165" font-family="Helvetica,sans-Serif" font-size="10.00">fxml_main.PatchController.init</text>
<text text-anchor="middle" x="480" y="-154" font-family="Helvetica,sans-Serif" font-size="10.00">GlobalEditBtn</text>
</a>
</g>
</g>
<!-- Node2&#45;&gt;Node28 -->
<g id="edge30" class="edge"><title>Node2&#45;&gt;Node28</title>
<path fill="none" stroke="midnightblue" d="M367.356,-175.331C378.541,-173.995 389.913,-172.637 400.908,-171.324"/>
<polygon fill="midnightblue" stroke="midnightblue" points="366.666,-171.888 357.152,-176.549 367.496,-178.839 366.666,-171.888"/>
</g>
<!-- Node29 -->
<g id="node29" class="node"><title>Node29</title>
<g id="a_node29"><a xlink:href="../../dc/d77/classfxml__main_1_1_piece_controller.html#a33f528825344a5932f5820d55f67765e" target="_top" xlink:title="fxml_main.PieceController.init\lGlobalEditBtn">
<polygon fill="white" stroke="black" points="401,-98 401,-128 559,-128 559,-98 401,-98"/>
<text text-anchor="start" x="409" y="-116" font-family="Helvetica,sans-Serif" font-size="10.00">fxml_main.PieceController.init</text>
<text text-anchor="middle" x="480" y="-105" font-family="Helvetica,sans-Serif" font-size="10.00">GlobalEditBtn</text>
</a>
</g>
</g>
<!-- Node2&#45;&gt;Node29 -->
<g id="edge31" class="edge"><title>Node2&#45;&gt;Node29</title>
<path fill="none" stroke="midnightblue" d="M319.884,-166.818C341.722,-157.199 369.022,-145.764 394,-137 402.971,-133.853 412.582,-130.822 421.997,-128.036"/>
<polygon fill="midnightblue" stroke="midnightblue" points="318.291,-163.696 310.574,-170.955 321.133,-170.093 318.291,-163.696"/>
</g>
<!-- Node30 -->
<g id="node30" class="node"><title>Node30</title>
<g id="a_node30"><a xlink:href="../../d4/d3f/classfxml__main_1_1_patch_controller.html#a806919701c76bb361bf89e0815a76a96" target="_top" xlink:title="fxml_main.PatchController.make\lEntryBox">
<polygon fill="white" stroke="black" points="394.5,-49 394.5,-79 565.5,-79 565.5,-49 394.5,-49"/>
<text text-anchor="start" x="402.5" y="-67" font-family="Helvetica,sans-Serif" font-size="10.00">fxml_main.PatchController.make</text>
<text text-anchor="middle" x="480" y="-56" font-family="Helvetica,sans-Serif" font-size="10.00">EntryBox</text>
</a>
</g>
</g>
<!-- Node2&#45;&gt;Node30 -->
<g id="edge32" class="edge"><title>Node2&#45;&gt;Node30</title>
<path fill="none" stroke="midnightblue" d="M298.938,-163.392C320.694,-141.174 356.72,-107.805 394,-88 400.365,-84.6188 407.257,-81.6702 414.269,-79.1093"/>
<polygon fill="midnightblue" stroke="midnightblue" points="296.273,-161.113 291.859,-170.744 301.316,-165.968 296.273,-161.113"/>
</g>
<!-- Node31 -->
<g id="node31" class="node"><title>Node31</title>
<g id="a_node31"><a xlink:href="../../dc/d77/classfxml__main_1_1_piece_controller.html#a57d25cb33125e10494c536f9fbce1434" target="_top" xlink:title="fxml_main.PieceController.make\lEntryBox">
<polygon fill="white" stroke="black" points="395,-343 395,-373 565,-373 565,-343 395,-343"/>
<text text-anchor="start" x="403" y="-361" font-family="Helvetica,sans-Serif" font-size="10.00">fxml_main.PieceController.make</text>
<text text-anchor="middle" x="480" y="-350" font-family="Helvetica,sans-Serif" font-size="10.00">EntryBox</text>
</a>
</g>
</g>
<!-- Node2&#45;&gt;Node31 -->
<g id="edge33" class="edge"><title>Node2&#45;&gt;Node31</title>
<path fill="none" stroke="midnightblue" d="M290.553,-209.885C308.922,-242.525 346.197,-300.689 394,-333 399.735,-336.876 406.08,-340.162 412.643,-342.946"/>
<polygon fill="midnightblue" stroke="midnightblue" points="293.56,-208.09 285.674,-201.015 287.427,-211.463 293.56,-208.09"/>
</g>
<!-- Node4 -->
<g id="node4" class="node"><title>Node4</title>
<g id="a_node4"><a xlink:href="../../df/dd5/classgame_player_1_1_view_controller.html#a22ee80193bbac79a935ee961a183bfcd" target="_top" xlink:title="gamePlayer.ViewController.set\lOnClick">
<polygon fill="white" stroke="black" points="602.5,-269 602.5,-299 763.5,-299 763.5,-269 602.5,-269"/>
<text text-anchor="start" x="610.5" y="-287" font-family="Helvetica,sans-Serif" font-size="10.00">gamePlayer.ViewController.set</text>
<text text-anchor="middle" x="683" y="-276" font-family="Helvetica,sans-Serif" font-size="10.00">OnClick</text>
</a>
</g>
</g>
<!-- Node3&#45;&gt;Node4 -->
<g id="edge3" class="edge"><title>Node3&#45;&gt;Node4</title>
<path fill="none" stroke="midnightblue" d="M572.217,-297.655C582.316,-296.398 592.542,-295.127 602.481,-293.89"/>
<polygon fill="midnightblue" stroke="midnightblue" points="571.667,-294.196 562.175,-298.904 572.531,-301.142 571.667,-294.196"/>
</g>
<!-- Node25 -->
<g id="node25" class="node"><title>Node25</title>
<g id="a_node25"><a xlink:href="../../df/df0/classtests_1_1_view_controller_test.html#afca3b7e154edffacc0e07c977df9876c" target="_top" xlink:title="tests.ViewControllerTest.find\lPositionTest">
<polygon fill="white" stroke="black" points="607.5,-318 607.5,-348 758.5,-348 758.5,-318 607.5,-318"/>
<text text-anchor="start" x="615.5" y="-336" font-family="Helvetica,sans-Serif" font-size="10.00">tests.ViewControllerTest.find</text>
<text text-anchor="middle" x="683" y="-325" font-family="Helvetica,sans-Serif" font-size="10.00">PositionTest</text>
</a>
</g>
</g>
<!-- Node3&#45;&gt;Node25 -->
<g id="edge27" class="edge"><title>Node3&#45;&gt;Node25</title>
<path fill="none" stroke="midnightblue" d="M572.396,-319.913C584.093,-321.31 595.956,-322.726 607.344,-324.086"/>
<polygon fill="midnightblue" stroke="midnightblue" points="572.519,-316.403 562.175,-318.693 571.689,-323.354 572.519,-316.403"/>
</g>
<!-- Node5 -->
<g id="node5" class="node"><title>Node5</title>
<g id="a_node5"><a xlink:href="../../df/dd5/classgame_player_1_1_view_controller.html#a10a40967a873f067cf91b024ff85b38e" target="_top" xlink:title="gamePlayer.ViewController.initializeGrid">
<polygon fill="white" stroke="black" points="800,-343.5 800,-362.5 1004,-362.5 1004,-343.5 800,-343.5"/>
<text text-anchor="middle" x="902" y="-350.5" font-family="Helvetica,sans-Serif" font-size="10.00">gamePlayer.ViewController.initializeGrid</text>
</a>
</g>
</g>
<!-- Node4&#45;&gt;Node5 -->
<g id="edge4" class="edge"><title>Node4&#45;&gt;Node5</title>
<path fill="none" stroke="midnightblue" d="M741.934,-302.045C749.363,-304.376 756.863,-306.739 764,-309 801.151,-320.77 843.897,-334.535 871.624,-343.492"/>
<polygon fill="midnightblue" stroke="midnightblue" points="742.835,-298.66 732.246,-299.009 740.742,-305.34 742.835,-298.66"/>
</g>
<!-- Node6 -->
<g id="node6" class="node"><title>Node6</title>
<g id="a_node6"><a xlink:href="../../df/dd5/classgame_player_1_1_view_controller.html#aabf431713b65ec510f1cb2df12da4e45" target="_top" xlink:title="gamePlayer.ViewController.test\lPlayGameInTab">
<polygon fill="white" stroke="black" points="1061.5,-404 1061.5,-434 1226.5,-434 1226.5,-404 1061.5,-404"/>
<text text-anchor="start" x="1069.5" y="-422" font-family="Helvetica,sans-Serif" font-size="10.00">gamePlayer.ViewController.test</text>
<text text-anchor="middle" x="1144" y="-411" font-family="Helvetica,sans-Serif" font-size="10.00">PlayGameInTab</text>
</a>
</g>
</g>
<!-- Node5&#45;&gt;Node6 -->
<g id="edge5" class="edge"><title>Node5&#45;&gt;Node6</title>
<path fill="none" stroke="midnightblue" d="M942.912,-365.55C970.158,-373.967 1007.13,-385.1 1040,-394 1052.52,-397.391 1065.96,-400.81 1078.86,-403.985"/>
<polygon fill="midnightblue" stroke="midnightblue" points="943.928,-362.2 933.34,-362.58 941.854,-368.886 943.928,-362.2"/>
</g>
<!-- Node7 -->
<g id="node7" class="node"><title>Node7</title>
<g id="a_node7"><a xlink:href="../../df/dd5/classgame_player_1_1_view_controller.html#a0d1a3d443966f151b070dc751d2faf9a" target="_top" xlink:title="gamePlayer.ViewController.restartGame">
<polygon fill="white" stroke="black" points="1040,-365.5 1040,-384.5 1248,-384.5 1248,-365.5 1040,-365.5"/>
<text text-anchor="middle" x="1144" y="-372.5" font-family="Helvetica,sans-Serif" font-size="10.00">gamePlayer.ViewController.restartGame</text>
</a>
</g>
</g>
<!-- Node5&#45;&gt;Node7 -->
<g id="edge6" class="edge"><title>Node5&#45;&gt;Node7</title>
<path fill="none" stroke="midnightblue" d="M1014.08,-363.182C1022.62,-363.966 1031.23,-364.754 1039.72,-365.533"/>
<polygon fill="midnightblue" stroke="midnightblue" points="1014.36,-359.694 1004.09,-362.266 1013.72,-366.665 1014.36,-359.694"/>
</g>
<!-- Node8 -->
<g id="node8" class="node"><title>Node8</title>
<g id="a_node8"><a xlink:href="../../df/dd5/classgame_player_1_1_view_controller.html#a620f8a02d3ac7677cd179fcd812aca55" target="_top" xlink:title="gamePlayer.ViewController.check\lEndActions">
<polygon fill="white" stroke="black" points="1057,-316 1057,-346 1231,-346 1231,-316 1057,-316"/>
<text text-anchor="start" x="1065" y="-334" font-family="Helvetica,sans-Serif" font-size="10.00">gamePlayer.ViewController.check</text>
<text text-anchor="middle" x="1144" y="-323" font-family="Helvetica,sans-Serif" font-size="10.00">EndActions</text>
</a>
</g>
</g>
<!-- Node5&#45;&gt;Node8 -->
<g id="edge7" class="edge"><title>Node5&#45;&gt;Node8</title>
<path fill="none" stroke="midnightblue" d="M1014.42,-342.786C1028.67,-341.48 1043.08,-340.159 1056.85,-338.897"/>
<polygon fill="midnightblue" stroke="midnightblue" points="1013.72,-339.335 1004.09,-343.734 1014.36,-346.306 1013.72,-339.335"/>
</g>
<!-- Node20 -->
<g id="node20" class="node"><title>Node20</title>
<g id="a_node20"><a xlink:href="../../df/dd5/classgame_player_1_1_view_controller.html#adc15cd81cefb88c58f9d3b7478328df8" target="_top" xlink:title="gamePlayer.ViewController.test\lPlayGUIGame">
<polygon fill="white" stroke="black" points="1061.5,-267 1061.5,-297 1226.5,-297 1226.5,-267 1061.5,-267"/>
<text text-anchor="start" x="1069.5" y="-285" font-family="Helvetica,sans-Serif" font-size="10.00">gamePlayer.ViewController.test</text>
<text text-anchor="middle" x="1144" y="-274" font-family="Helvetica,sans-Serif" font-size="10.00">PlayGUIGame</text>
</a>
</g>
</g>
<!-- Node5&#45;&gt;Node20 -->
<g id="edge22" class="edge"><title>Node5&#45;&gt;Node20</title>
<path fill="none" stroke="midnightblue" d="M938.885,-340.011C966.368,-330.292 1005.33,-317.009 1040,-307 1052.02,-303.53 1064.92,-300.139 1077.39,-297.031"/>
<polygon fill="midnightblue" stroke="midnightblue" points="937.557,-336.768 929.308,-343.417 939.903,-343.363 937.557,-336.768"/>
</g>
<!-- Node21 -->
<g id="node21" class="node"><title>Node21</title>
<g id="a_node21"><a xlink:href="../../df/dd5/classgame_player_1_1_view_controller.html#a4c1754d129a4eac955390b428eaa448a" target="_top" xlink:title="gamePlayer.ViewController.test\lPlayGame">
<polygon fill="white" stroke="black" points="1061.5,-453 1061.5,-483 1226.5,-483 1226.5,-453 1061.5,-453"/>
<text text-anchor="start" x="1069.5" y="-471" font-family="Helvetica,sans-Serif" font-size="10.00">gamePlayer.ViewController.test</text>
<text text-anchor="middle" x="1144" y="-460" font-family="Helvetica,sans-Serif" font-size="10.00">PlayGame</text>
</a>
</g>
</g>
<!-- Node5&#45;&gt;Node21 -->
<g id="edge23" class="edge"><title>Node5&#45;&gt;Node21</title>
<path fill="none" stroke="midnightblue" d="M922.782,-369.187C948.344,-389.324 994.935,-423.431 1040,-443 1048.78,-446.811 1058.24,-450.106 1067.74,-452.936"/>
<polygon fill="midnightblue" stroke="midnightblue" points="924.652,-366.201 914.654,-362.694 920.283,-371.671 924.652,-366.201"/>
</g>
<!-- Node9 -->
<g id="node9" class="node"><title>Node9</title>
<g id="a_node9"><a xlink:href="../../df/dd5/classgame_player_1_1_view_controller.html#a95c2acd43bb39b8606c69971c1cd30f5" target="_top" xlink:title="gamePlayer.ViewController.perform\lAction">
<polygon fill="white" stroke="black" points="1288.5,-245 1288.5,-275 1473.5,-275 1473.5,-245 1288.5,-245"/>
<text text-anchor="start" x="1296.5" y="-263" font-family="Helvetica,sans-Serif" font-size="10.00">gamePlayer.ViewController.perform</text>
<text text-anchor="middle" x="1381" y="-252" font-family="Helvetica,sans-Serif" font-size="10.00">Action</text>
</a>
</g>
</g>
<!-- Node8&#45;&gt;Node9 -->
<g id="edge8" class="edge"><title>Node8&#45;&gt;Node9</title>
<path fill="none" stroke="midnightblue" d="M1221.05,-313.428C1230.16,-311.06 1239.32,-308.561 1248,-306 1279.31,-296.769 1314.16,-284.54 1340.18,-275.012"/>
<polygon fill="midnightblue" stroke="midnightblue" points="1220.02,-310.079 1211.19,-315.942 1221.75,-316.862 1220.02,-310.079"/>
</g>
<!-- Node18 -->
<g id="node18" class="node"><title>Node18</title>
<g id="a_node18"><a xlink:href="../../df/dd5/classgame_player_1_1_view_controller.html#a13ea7814bde61a8042c5b1a23af41416" target="_top" xlink:title="gamePlayer.ViewController.end\lAction">
<polygon fill="white" stroke="black" points="1299,-316 1299,-346 1463,-346 1463,-316 1299,-316"/>
<text text-anchor="start" x="1307" y="-334" font-family="Helvetica,sans-Serif" font-size="10.00">gamePlayer.ViewController.end</text>
<text text-anchor="middle" x="1381" y="-323" font-family="Helvetica,sans-Serif" font-size="10.00">Action</text>
</a>
</g>
</g>
<!-- Node8&#45;&gt;Node18 -->
<g id="edge20" class="edge"><title>Node8&#45;&gt;Node18</title>
<path fill="none" stroke="midnightblue" d="M1241.39,-331C1260.5,-331 1280.38,-331 1298.92,-331"/>
<polygon fill="midnightblue" stroke="midnightblue" points="1241.17,-327.5 1231.17,-331 1241.17,-334.5 1241.17,-327.5"/>
</g>
<!-- Node9&#45;&gt;Node4 -->
<g id="edge19" class="edge"><title>Node9&#45;&gt;Node4</title>
<path fill="none" stroke="midnightblue" d="M1278.21,-258.303C1268,-258.179 1257.8,-258.074 1248,-258 1155.56,-257.3 1132.38,-254.631 1040,-258 944.939,-261.467 835.884,-270.124 763.794,-276.501"/>
<polygon fill="midnightblue" stroke="midnightblue" points="1278.36,-261.805 1288.4,-258.433 1278.44,-254.806 1278.36,-261.805"/>
</g>
<!-- Node10 -->
<g id="node10" class="node"><title>Node10</title>
<g id="a_node10"><a xlink:href="../../da/d55/classgame_player_1_1_keyboard_movement.html#af45fd8d279b1ee2d6be5466d425485ab" target="_top" xlink:title="gamePlayer.KeyboardMovement.set\lMovementKeyControl">
<polygon fill="white" stroke="black" points="1514.5,-245 1514.5,-275 1703.5,-275 1703.5,-245 1514.5,-245"/>
<text text-anchor="start" x="1522.5" y="-263" font-family="Helvetica,sans-Serif" font-size="10.00">gamePlayer.KeyboardMovement.set</text>
<text text-anchor="middle" x="1609" y="-252" font-family="Helvetica,sans-Serif" font-size="10.00">MovementKeyControl</text>
</a>
</g>
</g>
<!-- Node9&#45;&gt;Node10 -->
<g id="edge9" class="edge"><title>Node9&#45;&gt;Node10</title>
<path fill="none" stroke="midnightblue" d="M1483.76,-253.28C1493.97,-253.226 1504.31,-253.245 1514.43,-253.34"/>
<polygon fill="midnightblue" stroke="midnightblue" points="1483.57,-249.781 1473.6,-253.359 1483.62,-256.781 1483.57,-249.781"/>
</g>
<!-- Node10&#45;&gt;Node9 -->
<g id="edge17" class="edge"><title>Node10&#45;&gt;Node9</title>
<path fill="none" stroke="midnightblue" d="M1504.25,-266.73C1494.02,-266.774 1483.69,-266.745 1473.6,-266.641"/>
<polygon fill="midnightblue" stroke="midnightblue" points="1504.46,-270.229 1514.43,-266.66 1504.41,-263.229 1504.46,-270.229"/>
</g>
<!-- Node11 -->
<g id="node11" class="node"><title>Node11</title>
<g id="a_node11"><a xlink:href="../../df/dd5/classgame_player_1_1_view_controller.html#a7eb038fd9f20604ade0406f27ef76657" target="_top" xlink:title="gamePlayer.ViewController.bind\lAction">
<polygon fill="white" stroke="black" points="1744.5,-245 1744.5,-275 1911.5,-275 1911.5,-245 1744.5,-245"/>
<text text-anchor="start" x="1752.5" y="-263" font-family="Helvetica,sans-Serif" font-size="10.00">gamePlayer.ViewController.bind</text>
<text text-anchor="middle" x="1828" y="-252" font-family="Helvetica,sans-Serif" font-size="10.00">Action</text>
</a>
</g>
</g>
<!-- Node10&#45;&gt;Node11 -->
<g id="edge10" class="edge"><title>Node10&#45;&gt;Node11</title>
<path fill="none" stroke="midnightblue" d="M1713.8,-260C1724.03,-260 1734.31,-260 1744.29,-260"/>
<polygon fill="midnightblue" stroke="midnightblue" points="1713.6,-256.5 1703.6,-260 1713.6,-263.5 1713.6,-256.5"/>
</g>
<!-- Node17 -->
<g id="node17" class="node"><title>Node17</title>
<g id="a_node17"><a xlink:href="../../df/dd5/classgame_player_1_1_view_controller.html#a27da17c1280cd953a14f6b76b18f9a4b" target="_top" xlink:title="gamePlayer.ViewController.toggle\lKeyboardControl">
<polygon fill="white" stroke="black" points="1740,-294 1740,-324 1916,-324 1916,-294 1740,-294"/>
<text text-anchor="start" x="1748" y="-312" font-family="Helvetica,sans-Serif" font-size="10.00">gamePlayer.ViewController.toggle</text>
<text text-anchor="middle" x="1828" y="-301" font-family="Helvetica,sans-Serif" font-size="10.00">KeyboardControl</text>
</a>
</g>
</g>
<!-- Node10&#45;&gt;Node17 -->
<g id="edge18" class="edge"><title>Node10&#45;&gt;Node17</title>
<path fill="none" stroke="midnightblue" d="M1686.43,-277.258C1710.61,-282.718 1737.12,-288.705 1760.54,-293.994"/>
<polygon fill="midnightblue" stroke="midnightblue" points="1687.11,-273.823 1676.58,-275.035 1685.57,-280.651 1687.11,-273.823"/>
</g>
<!-- Node12 -->
<g id="node12" class="node"><title>Node12</title>
<g id="a_node12"><a xlink:href="../../d1/db7/classgame_player_1_1_keyboard_action.html#a08ace57322b8639020688dd9493c3e1f" target="_top" xlink:title="gamePlayer.KeyboardAction.set\lActionKeyControl">
<polygon fill="white" stroke="black" points="1958,-198 1958,-228 2126,-228 2126,-198 1958,-198"/>
<text text-anchor="start" x="1966" y="-216" font-family="Helvetica,sans-Serif" font-size="10.00">gamePlayer.KeyboardAction.set</text>
<text text-anchor="middle" x="2042" y="-205" font-family="Helvetica,sans-Serif" font-size="10.00">ActionKeyControl</text>
</a>
</g>
</g>
<!-- Node11&#45;&gt;Node12 -->
<g id="edge11" class="edge"><title>Node11&#45;&gt;Node12</title>
<path fill="none" stroke="midnightblue" d="M1906.57,-242.804C1928.42,-237.958 1952.02,-232.726 1973.25,-228.019"/>
<polygon fill="midnightblue" stroke="midnightblue" points="1905.67,-239.418 1896.66,-245 1907.18,-246.252 1905.67,-239.418"/>
</g>
<!-- Node13 -->
<g id="node13" class="node"><title>Node13</title>
<g id="a_node13"><a xlink:href="../../df/dd5/classgame_player_1_1_view_controller.html#ab8c14a8c53be9021a62d0107c2f75ef6" target="_top" xlink:title="gamePlayer.ViewController.update\lActions">
<polygon fill="white" stroke="black" points="1952,-247 1952,-277 2132,-277 2132,-247 1952,-247"/>
<text text-anchor="start" x="1960" y="-265" font-family="Helvetica,sans-Serif" font-size="10.00">gamePlayer.ViewController.update</text>
<text text-anchor="middle" x="2042" y="-254" font-family="Helvetica,sans-Serif" font-size="10.00">Actions</text>
</a>
</g>
</g>
<!-- Node11&#45;&gt;Node13 -->
<g id="edge13" class="edge"><title>Node11&#45;&gt;Node13</title>
<path fill="none" stroke="midnightblue" d="M1921.59,-260.874C1931.69,-260.969 1941.94,-261.066 1951.99,-261.16"/>
<polygon fill="midnightblue" stroke="midnightblue" points="1921.6,-257.374 1911.57,-260.779 1921.54,-264.373 1921.6,-257.374"/>
</g>
<!-- Node16 -->
<g id="node16" class="node"><title>Node16</title>
<g id="a_node16"><a xlink:href="../../df/df0/classtests_1_1_view_controller_test.html#a74e99f9c72cbdcd2d56271b2ad2df1ce" target="_top" xlink:title="tests.ViewControllerTest.bind\lActionTest">
<polygon fill="white" stroke="black" points="1965,-296 1965,-326 2119,-326 2119,-296 1965,-296"/>
<text text-anchor="start" x="1973" y="-314" font-family="Helvetica,sans-Serif" font-size="10.00">tests.ViewControllerTest.bind</text>
<text text-anchor="middle" x="2042" y="-303" font-family="Helvetica,sans-Serif" font-size="10.00">ActionTest</text>
</a>
</g>
</g>
<!-- Node11&#45;&gt;Node16 -->
<g id="edge16" class="edge"><title>Node11&#45;&gt;Node16</title>
<path fill="none" stroke="midnightblue" d="M1901.3,-277.393C1926.42,-283.437 1954.37,-290.159 1978.62,-295.994"/>
<polygon fill="midnightblue" stroke="midnightblue" points="1902,-273.962 1891.46,-275.026 1900.36,-280.768 1902,-273.962"/>
</g>
<!-- Node12&#45;&gt;Node9 -->
<g id="edge12" class="edge"><title>Node12&#45;&gt;Node9</title>
<path fill="none" stroke="midnightblue" d="M1947.36,-213.245C1841.76,-214.412 1665.05,-219.052 1514,-236 1494.67,-238.169 1473.91,-241.476 1454.7,-244.948"/>
<polygon fill="midnightblue" stroke="midnightblue" points="1947.7,-216.741 1957.67,-213.139 1947.63,-209.742 1947.7,-216.741"/>
</g>
<!-- Node14 -->
<g id="node14" class="node"><title>Node14</title>
<g id="a_node14"><a xlink:href="../../d6/d24/classgame_player_1_1_select_state.html#a801827392f0faeee6b96925060d77838" target="_top" xlink:title="gamePlayer.SelectState.on\lClick">
<polygon fill="white" stroke="black" points="2178.5,-272 2178.5,-302 2325.5,-302 2325.5,-272 2178.5,-272"/>
<text text-anchor="start" x="2186.5" y="-290" font-family="Helvetica,sans-Serif" font-size="10.00">gamePlayer.SelectState.on</text>
<text text-anchor="middle" x="2252" y="-279" font-family="Helvetica,sans-Serif" font-size="10.00">Click</text>
</a>
</g>
</g>
<!-- Node13&#45;&gt;Node14 -->
<g id="edge14" class="edge"><title>Node13&#45;&gt;Node14</title>
<path fill="none" stroke="midnightblue" d="M2142.3,-273.935C2154.46,-275.396 2166.7,-276.868 2178.37,-278.27"/>
<polygon fill="midnightblue" stroke="midnightblue" points="2142.46,-270.429 2132.12,-272.711 2141.63,-277.379 2142.46,-270.429"/>
</g>
<!-- Node15 -->
<g id="node15" class="node"><title>Node15</title>
<g id="a_node15"><a xlink:href="../../df/df0/classtests_1_1_view_controller_test.html#a785df2c49a72c183c22163ce927f5df1" target="_top" xlink:title="tests.ViewControllerTest.update\lActionsTest">
<polygon fill="white" stroke="black" points="2168.5,-223 2168.5,-253 2335.5,-253 2335.5,-223 2168.5,-223"/>
<text text-anchor="start" x="2176.5" y="-241" font-family="Helvetica,sans-Serif" font-size="10.00">tests.ViewControllerTest.update</text>
<text text-anchor="middle" x="2252" y="-230" font-family="Helvetica,sans-Serif" font-size="10.00">ActionsTest</text>
</a>
</g>
</g>
<!-- Node13&#45;&gt;Node15 -->
<g id="edge15" class="edge"><title>Node13&#45;&gt;Node15</title>
<path fill="none" stroke="midnightblue" d="M2142.31,-250.542C2151.02,-249.537 2159.77,-248.526 2168.32,-247.54"/>
<polygon fill="midnightblue" stroke="midnightblue" points="2141.65,-247.094 2132.12,-251.717 2142.45,-254.048 2141.65,-247.094"/>
</g>
<!-- Node19 -->
<g id="node19" class="node"><title>Node19</title>
<g id="a_node19"><a xlink:href="../../db/d00/classgame_player_1_1_apply_state.html#aed42c1aba25264bc6880036f693a1c9e" target="_top" xlink:title="gamePlayer.ApplyState.on\lClick">
<polygon fill="white" stroke="black" points="1537.5,-316 1537.5,-346 1680.5,-346 1680.5,-316 1537.5,-316"/>
<text text-anchor="start" x="1545.5" y="-334" font-family="Helvetica,sans-Serif" font-size="10.00">gamePlayer.ApplyState.on</text>
<text text-anchor="middle" x="1609" y="-323" font-family="Helvetica,sans-Serif" font-size="10.00">Click</text>
</a>
</g>
</g>
<!-- Node18&#45;&gt;Node19 -->
<g id="edge21" class="edge"><title>Node18&#45;&gt;Node19</title>
<path fill="none" stroke="midnightblue" d="M1473.29,-331C1494.57,-331 1516.93,-331 1537.17,-331"/>
<polygon fill="midnightblue" stroke="midnightblue" points="1473.27,-327.5 1463.27,-331 1473.27,-334.5 1473.27,-327.5"/>
</g>
<!-- Node22 -->
<g id="node22" class="node"><title>Node22</title>
<g id="a_node22"><a xlink:href="../../db/d40/classfxml__main_1_1_authoring_controller.html#a2ec133c8edf0a7ab1e84f2e12455233d" target="_top" xlink:title="fxml_main.AuthoringController.save\lAsGame">
<polygon fill="white" stroke="black" points="1287.5,-475 1287.5,-505 1474.5,-505 1474.5,-475 1287.5,-475"/>
<text text-anchor="start" x="1295.5" y="-493" font-family="Helvetica,sans-Serif" font-size="10.00">fxml_main.AuthoringController.save</text>
<text text-anchor="middle" x="1381" y="-482" font-family="Helvetica,sans-Serif" font-size="10.00">AsGame</text>
</a>
</g>
</g>
<!-- Node21&#45;&gt;Node22 -->
<g id="edge24" class="edge"><title>Node21&#45;&gt;Node22</title>
<path fill="none" stroke="midnightblue" d="M1236.77,-476.591C1253.38,-478.146 1270.7,-479.768 1287.34,-481.325"/>
<polygon fill="midnightblue" stroke="midnightblue" points="1236.81,-473.08 1226.53,-475.633 1236.16,-480.05 1236.81,-473.08"/>
</g>
<!-- Node23 -->
<g id="node23" class="node"><title>Node23</title>
<g id="a_node23"><a xlink:href="../../df/dd5/classgame_player_1_1_view_controller.html#a2bf1dce04187ad5eacb5359ef2b4eff8" target="_top" xlink:title="gamePlayer.ViewController.newGame">
<polygon fill="white" stroke="black" points="1284,-436.5 1284,-455.5 1478,-455.5 1478,-436.5 1284,-436.5"/>
<text text-anchor="middle" x="1381" y="-443.5" font-family="Helvetica,sans-Serif" font-size="10.00">gamePlayer.ViewController.newGame</text>
</a>
</g>
</g>
<!-- Node21&#45;&gt;Node23 -->
<g id="edge25" class="edge"><title>Node21&#45;&gt;Node23</title>
<path fill="none" stroke="midnightblue" d="M1236.58,-459.427C1252.03,-457.981 1268.1,-456.476 1283.66,-455.019"/>
<polygon fill="midnightblue" stroke="midnightblue" points="1236.16,-455.95 1226.53,-460.367 1236.81,-462.92 1236.16,-455.95"/>
</g>
<!-- Node24 -->
<g id="node24" class="node"><title>Node24</title>
<g id="a_node24"><a xlink:href="../../df/dd5/classgame_player_1_1_view_controller.html#a2acd822c93c35674b6978a97b4ce6e3f" target="_top" xlink:title="gamePlayer.ViewController.\lViewController">
<polygon fill="white" stroke="black" points="1536,-431 1536,-461 1682,-461 1682,-431 1536,-431"/>
<text text-anchor="start" x="1544" y="-449" font-family="Helvetica,sans-Serif" font-size="10.00">gamePlayer.ViewController.</text>
<text text-anchor="middle" x="1609" y="-438" font-family="Helvetica,sans-Serif" font-size="10.00">ViewController</text>
</a>
</g>
</g>
<!-- Node23&#45;&gt;Node24 -->
<g id="edge26" class="edge"><title>Node23&#45;&gt;Node24</title>
<path fill="none" stroke="midnightblue" d="M1488.19,-446C1504.35,-446 1520.68,-446 1535.88,-446"/>
<polygon fill="midnightblue" stroke="midnightblue" points="1488.17,-442.5 1478.17,-446 1488.17,-449.5 1488.17,-442.5"/>
</g>
<!-- Node33 -->
<g id="node33" class="node"><title>Node33</title>
<g id="a_node33"><a xlink:href="../../db/d00/classgame_player_1_1_apply_state.html#ac9cc1c36c4c541a7a34361733704936c" target="_top" xlink:title="gamePlayer.ApplyState.Apply\lState">
<polygon fill="white" stroke="black" points="604,-0 604,-30 762,-30 762,-0 604,-0"/>
<text text-anchor="start" x="612" y="-18" font-family="Helvetica,sans-Serif" font-size="10.00">gamePlayer.ApplyState.Apply</text>
<text text-anchor="middle" x="683" y="-7" font-family="Helvetica,sans-Serif" font-size="10.00">State</text>
</a>
</g>
</g>
<!-- Node32&#45;&gt;Node33 -->
<g id="edge35" class="edge"><title>Node32&#45;&gt;Node33</title>
<path fill="none" stroke="midnightblue" d="M572.222,-15C582.761,-15 593.438,-15 603.782,-15"/>
<polygon fill="midnightblue" stroke="midnightblue" points="572.175,-11.5001 562.175,-15 572.175,-18.5001 572.175,-11.5001"/>
</g>
<!-- Node34&#45;&gt;Node32 -->
<g id="edge37" class="edge"><title>Node34&#45;&gt;Node32</title>
<path fill="none" stroke="midnightblue" d="M368.26,-15C378.15,-15 388.174,-15 397.943,-15"/>
<polygon fill="midnightblue" stroke="midnightblue" points="368.018,-11.5001 358.018,-15 368.018,-18.5001 368.018,-11.5001"/>
</g>
</g>
</svg>
        <g id="navigator" transform="translate(0 0)" fill="#404254">
                <rect fill="#f2f5e9" fill-opacity="0.5" stroke="#606060" stroke-width=".5" x="0" y="0" width="60" height="60"/>
                <use id="zoomplus" xlink:href="#zoomPlus" x="17" y="9" onmousedown="handleZoom(evt,'in')"/>
                <use id="zoomminus" xlink:href="#zoomMin" x="42" y="9" onmousedown="handleZoom(evt,'out')"/>
                <use id="reset" xlink:href="#resetDef" x="30" y="36" onmousedown="handleReset()"/>
                <g id="arrowUp" xlink:href="#dirArrow" transform="translate(30 24)" onmousedown="handlePan(0,-1)">
                  <use xlink:href="#rim" fill="#404040">
                        <set attributeName="fill" to="#808080" begin="arrowUp.mouseover" end="arrowUp.mouseout"/>
                  </use>
                  <path fill="none" stroke="white" stroke-width="1.5" d="M0,-3.0v7 M-2.5,-0.5L0,-3.0L2.5,-0.5"/>
                </g>
                <g id="arrowRight" xlink:href="#dirArrow" transform="rotate(90) translate(36 -43)" onmousedown="handlePan(1,0)">
                  <use xlink:href="#rim" fill="#404040">
                        <set attributeName="fill" to="#808080" begin="arrowRight.mouseover" end="arrowRight.mouseout"/>
                  </use>
                  <path fill="none" stroke="white" stroke-width="1.5" d="M0,-3.0v7 M-2.5,-0.5L0,-3.0L2.5,-0.5"/>
                </g>
                <g id="arrowDown" xlink:href="#dirArrow" transform="rotate(180) translate(-30 -48)" onmousedown="handlePan(0,1)">
                  <use xlink:href="#rim" fill="#404040">
                        <set attributeName="fill" to="#808080" begin="arrowDown.mouseover" end="arrowDown.mouseout"/>
                  </use>
                  <path fill="none" stroke="white" stroke-width="1.5" d="M0,-3.0v7 M-2.5,-0.5L0,-3.0L2.5,-0.5"/>
                </g>
                <g id="arrowLeft" xlink:href="#dirArrow" transform="rotate(270) translate(-36 17)" onmousedown="handlePan(-1,0)">
                  <use xlink:href="#rim" fill="#404040">
                        <set attributeName="fill" to="#808080" begin="arrowLeft.mouseover" end="arrowLeft.mouseout"/>
                  </use>
                  <path fill="none" stroke="white" stroke-width="1.5" d="M0,-3.0v7 M-2.5,-0.5L0,-3.0L2.5,-0.5"/>
                </g>
        </g>
        <svg viewBox="0 0 15 15" width="100%" height="30px" preserveAspectRatio="xMaxYMin meet">
         <g id="arrow_out" transform="scale(0.3 0.3)">
          <a xlink:href="classauthoring__environment_1_1_super_grid_a1fb6edb8c7c3cffe52aa25606fe261df_icgraph_org.svg" target="_base">
           <rect id="button" ry="5" rx="5" y="6" x="6" height="38" width="38"
                fill="#f2f5e9" fill-opacity="0.5" stroke="#606060" stroke-width="1.0"/>
           <path id="arrow"
             d="M 11.500037,31.436501 C 11.940474,20.09759 22.043105,11.32322 32.158766,21.979434 L 37.068811,17.246167 C 37.068811,17.246167 37.088388,32 37.088388,32 L 22.160133,31.978069 C 22.160133,31.978069 26.997745,27.140456 26.997745,27.140456 C 18.528582,18.264221 13.291696,25.230495 11.500037,31.436501 z"
             style="fill:#404040;"/>
          </a>
         </g>
        </svg>
</svg>
