<?xml version="1.0" encoding="UTF-8" standalone="no"?>
<!DOCTYPE svg PUBLIC "-//W3C//DTD SVG 1.1//EN"
 "http://www.w3.org/Graphics/SVG/1.1/DTD/svg11.dtd">
<!-- Generated by graphviz version 2.36.0 (20140111.2315)
 -->
<!-- Title: authoring.createedit.SuperEditorMenu.initializeButtons Pages: 1 -->
<svg width="338pt" height="38pt"
 viewBox="0.00 0.00 338.00 38.00" xmlns="http://www.w3.org/2000/svg" xmlns:xlink="http://www.w3.org/1999/xlink">
<g id="graph0" class="graph" transform="scale(1 1) rotate(0) translate(4 34)">
<title>authoring.createedit.SuperEditorMenu.initializeButtons</title>
<polygon fill="white" stroke="none" points="-4,4 -4,-34 334,-34 334,4 -4,4"/>
<!-- Node1 -->
<g id="node1" class="node"><title>Node1</title>
<polygon fill="#bfbfbf" stroke="black" points="0.5,-0 0.5,-30 149.5,-30 149.5,-0 0.5,-0"/>
<text text-anchor="start" x="8.5" y="-18" font-family="Helvetica,sans-Serif" font-size="10.00">authoring.createedit.Super</text>
<text text-anchor="middle" x="75" y="-7" font-family="Helvetica,sans-Serif" font-size="10.00">EditorMenu.initializeButtons</text>
</g>
<!-- Node2 -->
<g id="node2" class="node"><title>Node2</title>
<g id="a_node2"><a xlink:href="../../da/dcb/classauthoring_1_1createedit_1_1_event_editor.html#aa7993958714b67ecde44181c18561e02" target="_top" xlink:title="authoring.createedit.Event\lEditor.EventEditor">
<polygon fill="white" stroke="black" points="186,-0 186,-30 330,-30 330,-0 186,-0"/>
<text text-anchor="start" x="194" y="-18" font-family="Helvetica,sans-Serif" font-size="10.00">authoring.createedit.Event</text>
<text text-anchor="middle" x="258" y="-7" font-family="Helvetica,sans-Serif" font-size="10.00">Editor.EventEditor</text>
</a>
</g>
</g>
<!-- Node1&#45;&gt;Node2 -->
<g id="edge1" class="edge"><title>Node1&#45;&gt;Node2</title>
<path fill="none" stroke="midnightblue" d="M159.771,-15C168.468,-15 177.249,-15 185.789,-15"/>
<polygon fill="midnightblue" stroke="midnightblue" points="159.62,-11.5001 149.62,-15 159.62,-18.5001 159.62,-11.5001"/>
</g>
</g>
</svg>
