<?xml version="1.0" encoding="UTF-8" standalone="no"?>
<!DOCTYPE svg PUBLIC "-//W3C//DTD SVG 1.1//EN"
 "http://www.w3.org/Graphics/SVG/1.1/DTD/svg11.dtd">
<!-- Generated by graphviz version 2.36.0 (20140111.2315)
 -->
<!-- Title: gameengine.movement.Movement Pages: 1 -->
<!--zoomable 274 -->
<svg id="main" version="1.1" xmlns="http://www.w3.org/2000/svg" xmlns:xlink="http://www.w3.org/1999/xlink" xml:space="preserve" onload="init(evt)">
<style type="text/css"><![CDATA[
.edge:hover path { stroke: red; }
.edge:hover polygon { stroke: red; fill: red; }
]]></style>
<script type="text/javascript"><![CDATA[
var edges = document.getElementsByTagName('g');
if (edges && edges.length) {
  for (var i=0;i<edges.length;i++) {
    if (edges[i].id.substr(0,4)=='edge') {
      edges[i].setAttribute('class','edge');
    }
  }
}
]]></script>
        <defs>
                <circle id="rim" cx="0" cy="0" r="7"/>
                <circle id="rim2" cx="0" cy="0" r="3.5"/>
                <g id="zoomPlus">
                        <use xlink:href="#rim" fill="#404040">
                                <set attributeName="fill" to="#808080" begin="zoomplus.mouseover" end="zoomplus.mouseout"/>
                        </use>
                        <path d="M-4,0h8M0,-4v8" fill="none" stroke="white" stroke-width="1.5" pointer-events="none"/>
                </g>
                <g id="zoomMin">
                        <use xlink:href="#rim" fill="#404040">
                                <set attributeName="fill" to="#808080" begin="zoomminus.mouseover" end="zoomminus.mouseout"/>
                        </use>
                        <path d="M-4,0h8" fill="none" stroke="white" stroke-width="1.5" pointer-events="none"/>
                </g>
                <g id="dirArrow">
                        <path fill="none" stroke="white" stroke-width="1.5" d="M0,-3.0v7 M-2.5,-0.5L0,-3.0L2.5,-0.5"/>
                </g>
               <g id="resetDef">
                       <use xlink:href="#rim2" fill="#404040">
                               <set attributeName="fill" to="#808080" begin="reset.mouseover" end="reset.mouseout"/>
                       </use>
               </g>
        </defs>

<script type="text/javascript">
var viewWidth = 1070;
var viewHeight = 274;
var sectionId = 'dynsection-1';
</script>
<script xlink:href="../../svgpan.js"/>
<svg id="graph" class="graph">
<g id="viewport">
<title>gameengine.movement.Movement</title>
<polygon fill="white" stroke="none" points="-4,4 -4,-270 1066,-270 1066,4 -4,4"/>
<!-- Node1 -->
<g id="node1" class="node"><title>Node1</title>
<polygon fill="#bfbfbf" stroke="black" points="876,-135.5 876,-154.5 1062,-154.5 1062,-135.5 876,-135.5"/>
<text text-anchor="middle" x="969" y="-142.5" font-family="Helvetica,sans-Serif" font-size="10.00">gameengine.movement.Movement</text>
</g>
<!-- Node2 -->
<g id="node2" class="node"><title>Node2</title>
<g id="a_node2"><a xlink:href="../../d8/d85/interfacegamedata_1_1action_1_1_action.html" target="_top" xlink:title="gamedata.action.Action">
<polygon fill="white" stroke="black" points="590.5,-211.5 590.5,-230.5 721.5,-230.5 721.5,-211.5 590.5,-211.5"/>
<text text-anchor="middle" x="656" y="-218.5" font-family="Helvetica,sans-Serif" font-size="10.00">gamedata.action.Action</text>
</a>
</g>
</g>
<!-- Node2&#45;&gt;Node1 -->
<g id="edge1" class="edge"><title>Node2&#45;&gt;Node1</title>
<path fill="none" stroke="midnightblue" d="M731.932,-211.309C770.047,-205.536 816.887,-197.139 858,-186 889.278,-177.526 924.136,-163.762 946.061,-154.548"/>
<polygon fill="midnightblue" stroke="midnightblue" points="731.311,-207.863 721.934,-212.794 732.339,-214.787 731.311,-207.863"/>
</g>
<!-- Node3 -->
<g id="node3" class="node"><title>Node3</title>
<polygon fill="white" stroke="#bfbfbf" points="571.5,-173.5 571.5,-192.5 740.5,-192.5 740.5,-173.5 571.5,-173.5"/>
<text text-anchor="middle" x="656" y="-180.5" font-family="Helvetica,sans-Serif" font-size="10.00">List&lt; List&lt; Point2D.Double &gt; &gt;</text>
</g>
<!-- Node3&#45;&gt;Node1 -->
<g id="edge2" class="edge"><title>Node3&#45;&gt;Node1</title>
<path fill="none" stroke="#9a32cd" stroke-dasharray="5,2" d="M750.984,-172.671C784.748,-168.848 823.1,-164.376 858,-160 871.578,-158.298 886.086,-156.386 899.963,-154.511"/>
<polygon fill="#9a32cd" stroke="#9a32cd" points="750.206,-169.236 740.662,-173.836 750.991,-176.192 750.206,-169.236"/>
<text text-anchor="middle" x="812" y="-174" font-family="Helvetica,sans-Serif" font-size="10.00"> myPaths</text>
</g>
<!-- Node4 -->
<g id="node4" class="node"><title>Node4</title>
<g id="a_node4"><a xlink:href="../../da/d4c/classauthoring__environment_1_1_g_u_i_grid.html" target="_top" xlink:title="authoring_environment.GUIGrid">
<polygon fill="white" stroke="black" points="572,-135.5 572,-154.5 740,-154.5 740,-135.5 572,-135.5"/>
<text text-anchor="middle" x="656" y="-142.5" font-family="Helvetica,sans-Serif" font-size="10.00">authoring_environment.GUIGrid</text>
</a>
</g>
</g>
<!-- Node4&#45;&gt;Node1 -->
<g id="edge3" class="edge"><title>Node4&#45;&gt;Node1</title>
<path fill="none" stroke="#9a32cd" stroke-dasharray="5,2" d="M750.556,-145C790.259,-145 836.402,-145 875.941,-145"/>
<polygon fill="#9a32cd" stroke="#9a32cd" points="750.342,-141.5 740.342,-145 750.342,-148.5 750.342,-141.5"/>
<text text-anchor="middle" x="812" y="-148" font-family="Helvetica,sans-Serif" font-size="10.00"> myGrid</text>
</g>
<!-- Node5 -->
<g id="node5" class="node"><title>Node5</title>
<g id="a_node5"><a xlink:href="../../d9/df3/classauthoring__environment_1_1_super_grid.html" target="_top" xlink:title="authoring_environment.SuperGrid">
<polygon fill="white" stroke="black" points="280.5,-196.5 280.5,-215.5 459.5,-215.5 459.5,-196.5 280.5,-196.5"/>
<text text-anchor="middle" x="370" y="-203.5" font-family="Helvetica,sans-Serif" font-size="10.00">authoring_environment.SuperGrid</text>
</a>
</g>
</g>
<!-- Node5&#45;&gt;Node4 -->
<g id="edge4" class="edge"><title>Node5&#45;&gt;Node4</title>
<path fill="none" stroke="midnightblue" d="M424.297,-194.275C463.036,-185.784 516.743,-174.075 564,-164 578.522,-160.904 594.359,-157.579 608.69,-154.59"/>
<polygon fill="midnightblue" stroke="midnightblue" points="423.304,-190.91 414.286,-196.471 424.804,-197.747 423.304,-190.91"/>
</g>
<!-- Node6 -->
<g id="node6" class="node"><title>Node6</title>
<polygon fill="white" stroke="#bfbfbf" points="18,-235 18,-265 170,-265 170,-235 18,-235"/>
<text text-anchor="start" x="26" y="-253" font-family="Helvetica,sans-Serif" font-size="10.00">List&lt; List&lt; authoring</text>
<text text-anchor="middle" x="94" y="-242" font-family="Helvetica,sans-Serif" font-size="10.00">_environment.SuperTile &gt; &gt;</text>
</g>
<!-- Node6&#45;&gt;Node5 -->
<g id="edge5" class="edge"><title>Node6&#45;&gt;Node5</title>
<path fill="none" stroke="#9a32cd" stroke-dasharray="5,2" d="M180.172,-236.323C222.144,-229.583 271.729,-221.62 309.553,-215.546"/>
<polygon fill="#9a32cd" stroke="#9a32cd" points="179.553,-232.877 170.234,-237.919 180.663,-239.789 179.553,-232.877"/>
<text text-anchor="middle" x="234" y="-235" font-family="Helvetica,sans-Serif" font-size="10.00"> myGrid</text>
</g>
<!-- Node7 -->
<g id="node7" class="node"><title>Node7</title>
<polygon fill="white" stroke="#bfbfbf" points="74,-196.5 74,-215.5 114,-215.5 114,-196.5 74,-196.5"/>
<text text-anchor="middle" x="94" y="-203.5" font-family="Helvetica,sans-Serif" font-size="10.00">Pane</text>
</g>
<!-- Node7&#45;&gt;Node5 -->
<g id="edge6" class="edge"><title>Node7&#45;&gt;Node5</title>
<path fill="none" stroke="#9a32cd" stroke-dasharray="5,2" d="M124.344,-206C161.282,-206 226.409,-206 280.184,-206"/>
<polygon fill="#9a32cd" stroke="#9a32cd" points="124.267,-202.5 114.267,-206 124.267,-209.5 124.267,-202.5"/>
<text text-anchor="middle" x="234" y="-209" font-family="Helvetica,sans-Serif" font-size="10.00"> myPane</text>
</g>
<!-- Node8 -->
<g id="node8" class="node"><title>Node8</title>
<polygon fill="white" stroke="#bfbfbf" points="340,-148.5 340,-167.5 400,-167.5 400,-148.5 340,-148.5"/>
<text text-anchor="middle" x="370" y="-155.5" font-family="Helvetica,sans-Serif" font-size="10.00">Observer</text>
</g>
<!-- Node8&#45;&gt;Node4 -->
<g id="edge7" class="edge"><title>Node8&#45;&gt;Node4</title>
<path fill="none" stroke="midnightblue" d="M410.311,-156.201C451.864,-154.298 518.636,-151.242 571.938,-148.802"/>
<polygon fill="midnightblue" stroke="midnightblue" points="409.888,-152.716 400.058,-156.67 410.208,-159.709 409.888,-152.716"/>
</g>
<!-- Node9 -->
<g id="node9" class="node"><title>Node9</title>
<g id="a_node9"><a xlink:href="../../d7/dd4/classauthoring_1_1data_1_1_patch_instance_data.html" target="_top" xlink:title="authoring.data.PatchInstanceData">
<polygon fill="white" stroke="black" points="280,-110.5 280,-129.5 460,-129.5 460,-110.5 280,-110.5"/>
<text text-anchor="middle" x="370" y="-117.5" font-family="Helvetica,sans-Serif" font-size="10.00">authoring.data.PatchInstanceData</text>
</a>
</g>
</g>
<!-- Node9&#45;&gt;Node4 -->
<g id="edge8" class="edge"><title>Node9&#45;&gt;Node4</title>
<path fill="none" stroke="#9a32cd" stroke-dasharray="5,2" d="M470.227,-128.735C503.307,-131.647 539.801,-134.859 571.559,-137.655"/>
<polygon fill="#9a32cd" stroke="#9a32cd" points="470.349,-125.232 460.08,-127.842 469.735,-132.205 470.349,-125.232"/>
<text text-anchor="middle" x="512" y="-138" font-family="Helvetica,sans-Serif" font-size="10.00"> myPatchData</text>
</g>
<!-- Node10 -->
<g id="node10" class="node"><title>Node10</title>
<g id="a_node10"><a xlink:href="../../d5/d29/interfaceauthoring_1_1data_1_1_authoring_data.html" target="_top" xlink:title="authoring.data.Authoring\lData\&lt; Patch \&gt;">
<polygon fill="white" stroke="black" points="25.5,-147 25.5,-177 162.5,-177 162.5,-147 25.5,-147"/>
<text text-anchor="start" x="33.5" y="-165" font-family="Helvetica,sans-Serif" font-size="10.00">authoring.data.Authoring</text>
<text text-anchor="middle" x="94" y="-154" font-family="Helvetica,sans-Serif" font-size="10.00">Data&lt; Patch &gt;</text>
</a>
</g>
</g>
<!-- Node10&#45;&gt;Node9 -->
<g id="edge9" class="edge"><title>Node10&#45;&gt;Node9</title>
<path fill="none" stroke="midnightblue" d="M172.743,-150.083C215.173,-143.579 266.997,-135.635 306.734,-129.544"/>
<polygon fill="midnightblue" stroke="midnightblue" points="172.085,-146.643 162.73,-151.618 173.145,-153.562 172.085,-146.643"/>
</g>
<!-- Node11 -->
<g id="node11" class="node"><title>Node11</title>
<polygon fill="white" stroke="#bfbfbf" points="0,-98 0,-128 188,-128 188,-98 0,-98"/>
<text text-anchor="start" x="8" y="-116" font-family="Helvetica,sans-Serif" font-size="10.00">List&lt; gamedata.gamecomponents.</text>
<text text-anchor="middle" x="94" y="-105" font-family="Helvetica,sans-Serif" font-size="10.00">Patch &gt;</text>
</g>
<!-- Node11&#45;&gt;Node9 -->
<g id="edge10" class="edge"><title>Node11&#45;&gt;Node9</title>
<path fill="none" stroke="#9a32cd" stroke-dasharray="5,2" d="M198.325,-115.64C225.142,-116.325 253.795,-117.057 279.816,-117.722"/>
<polygon fill="#9a32cd" stroke="#9a32cd" points="198.232,-112.136 188.146,-115.38 198.054,-119.134 198.232,-112.136"/>
<text text-anchor="middle" x="234" y="-121" font-family="Helvetica,sans-Serif" font-size="10.00"> myPatches</text>
</g>
<!-- Node12 -->
<g id="node12" class="node"><title>Node12</title>
<g id="a_node12"><a xlink:href="../../d6/dda/classauthoring_1_1data_1_1_piece_instance_data.html" target="_top" xlink:title="authoring.data.PieceInstanceData">
<polygon fill="white" stroke="black" points="280.5,-54.5 280.5,-73.5 459.5,-73.5 459.5,-54.5 280.5,-54.5"/>
<text text-anchor="middle" x="370" y="-61.5" font-family="Helvetica,sans-Serif" font-size="10.00">authoring.data.PieceInstanceData</text>
</a>
</g>
</g>
<!-- Node12&#45;&gt;Node4 -->
<g id="edge11" class="edge"><title>Node12&#45;&gt;Node4</title>
<path fill="none" stroke="#9a32cd" stroke-dasharray="5,2" d="M425.73,-75.9831C460.912,-84.6427 507.14,-97.8296 546,-115 554.576,-118.789 555.284,-122.547 564,-126 573.603,-129.804 584.092,-132.894 594.424,-135.389"/>
<polygon fill="#9a32cd" stroke="#9a32cd" points="426.193,-72.4947 415.651,-73.5516 424.552,-79.2994 426.193,-72.4947"/>
<text text-anchor="middle" x="512" y="-118" font-family="Helvetica,sans-Serif" font-size="10.00"> myPieceData</text>
</g>
<!-- Node13 -->
<g id="node13" class="node"><title>Node13</title>
<g id="a_node13"><a xlink:href="../../d5/d29/interfaceauthoring_1_1data_1_1_authoring_data.html" target="_top" xlink:title="authoring.data.Authoring\lData\&lt; Piece \&gt;">
<polygon fill="white" stroke="black" points="25.5,-49 25.5,-79 162.5,-79 162.5,-49 25.5,-49"/>
<text text-anchor="start" x="33.5" y="-67" font-family="Helvetica,sans-Serif" font-size="10.00">authoring.data.Authoring</text>
<text text-anchor="middle" x="94" y="-56" font-family="Helvetica,sans-Serif" font-size="10.00">Data&lt; Piece &gt;</text>
</a>
</g>
</g>
<!-- Node13&#45;&gt;Node12 -->
<g id="edge12" class="edge"><title>Node13&#45;&gt;Node12</title>
<path fill="none" stroke="midnightblue" d="M172.925,-64C206.413,-64 245.726,-64 280.324,-64"/>
<polygon fill="midnightblue" stroke="midnightblue" points="172.73,-60.5001 162.73,-64 172.73,-67.5001 172.73,-60.5001"/>
</g>
<!-- Node14 -->
<g id="node14" class="node"><title>Node14</title>
<polygon fill="white" stroke="#bfbfbf" points="0,-0 0,-30 188,-30 188,-0 0,-0"/>
<text text-anchor="start" x="8" y="-18" font-family="Helvetica,sans-Serif" font-size="10.00">List&lt; gamedata.gamecomponents.</text>
<text text-anchor="middle" x="94" y="-7" font-family="Helvetica,sans-Serif" font-size="10.00">Piece &gt;</text>
</g>
<!-- Node14&#45;&gt;Node12 -->
<g id="edge13" class="edge"><title>Node14&#45;&gt;Node12</title>
<path fill="none" stroke="#9a32cd" stroke-dasharray="5,2" d="M189.12,-31.8316C231.427,-39.3974 279.801,-48.0483 315.721,-54.472"/>
<polygon fill="#9a32cd" stroke="#9a32cd" points="189.531,-28.3497 179.071,-30.0346 188.299,-35.2404 189.531,-28.3497"/>
<text text-anchor="middle" x="234" y="-47" font-family="Helvetica,sans-Serif" font-size="10.00"> myPieces</text>
</g>
<!-- Node15 -->
<g id="node15" class="node"><title>Node15</title>
<g id="a_node15"><a xlink:href="../../d1/dac/classgameengine_1_1movement_1_1_orientator.html" target="_top" xlink:title="gameengine.movement.Orientator">
<polygon fill="white" stroke="black" points="564,-97.5 564,-116.5 748,-116.5 748,-97.5 564,-97.5"/>
<text text-anchor="middle" x="656" y="-104.5" font-family="Helvetica,sans-Serif" font-size="10.00">gameengine.movement.Orientator</text>
</a>
</g>
</g>
<!-- Node15&#45;&gt;Node1 -->
<g id="edge14" class="edge"><title>Node15&#45;&gt;Node1</title>
<path fill="none" stroke="#9a32cd" stroke-dasharray="5,2" d="M754.206,-117.695C787.174,-121.436 824.206,-125.763 858,-130 871.578,-131.702 886.086,-133.614 899.963,-135.489"/>
<polygon fill="#9a32cd" stroke="#9a32cd" points="754.443,-114.199 744.113,-116.553 753.656,-121.155 754.443,-114.199"/>
<text text-anchor="middle" x="812" y="-133" font-family="Helvetica,sans-Serif" font-size="10.00"> myOrientator</text>
</g>
<!-- Node16 -->
<g id="node16" class="node"><title>Node16</title>
<polygon fill="white" stroke="#bfbfbf" points="591,-54.5 591,-73.5 721,-73.5 721,-54.5 591,-54.5"/>
<text text-anchor="middle" x="656" y="-61.5" font-family="Helvetica,sans-Serif" font-size="10.00">List&lt; Point2D.Double &gt;</text>
</g>
<!-- Node16&#45;&gt;Node1 -->
<g id="edge15" class="edge"><title>Node16&#45;&gt;Node1</title>
<path fill="none" stroke="#9a32cd" stroke-dasharray="5,2" d="M731.455,-69.9868C769.83,-74.352 817.047,-81.7279 858,-94 892.682,-104.393 930.416,-123.843 951.445,-135.487"/>
<polygon fill="#9a32cd" stroke="#9a32cd" points="731.711,-66.494 721.39,-68.8874 730.95,-73.4526 731.711,-66.494"/>
<text text-anchor="middle" x="812" y="-108" font-family="Helvetica,sans-Serif" font-size="10.00"> myAbsoluteMoves</text>
<text text-anchor="middle" x="812" y="-97" font-family="Helvetica,sans-Serif" font-size="10.00">myMoves</text>
</g>
</g>
</svg>
        <g id="navigator" transform="translate(0 0)" fill="#404254">
                <rect fill="#f2f5e9" fill-opacity="0.5" stroke="#606060" stroke-width=".5" x="0" y="0" width="60" height="60"/>
                <use id="zoomplus" xlink:href="#zoomPlus" x="17" y="9" onmousedown="handleZoom(evt,'in')"/>
                <use id="zoomminus" xlink:href="#zoomMin" x="42" y="9" onmousedown="handleZoom(evt,'out')"/>
                <use id="reset" xlink:href="#resetDef" x="30" y="36" onmousedown="handleReset()"/>
                <g id="arrowUp" xlink:href="#dirArrow" transform="translate(30 24)" onmousedown="handlePan(0,-1)">
                  <use xlink:href="#rim" fill="#404040">
                        <set attributeName="fill" to="#808080" begin="arrowUp.mouseover" end="arrowUp.mouseout"/>
                  </use>
                  <path fill="none" stroke="white" stroke-width="1.5" d="M0,-3.0v7 M-2.5,-0.5L0,-3.0L2.5,-0.5"/>
                </g>
                <g id="arrowRight" xlink:href="#dirArrow" transform="rotate(90) translate(36 -43)" onmousedown="handlePan(1,0)">
                  <use xlink:href="#rim" fill="#404040">
                        <set attributeName="fill" to="#808080" begin="arrowRight.mouseover" end="arrowRight.mouseout"/>
                  </use>
                  <path fill="none" stroke="white" stroke-width="1.5" d="M0,-3.0v7 M-2.5,-0.5L0,-3.0L2.5,-0.5"/>
                </g>
                <g id="arrowDown" xlink:href="#dirArrow" transform="rotate(180) translate(-30 -48)" onmousedown="handlePan(0,1)">
                  <use xlink:href="#rim" fill="#404040">
                        <set attributeName="fill" to="#808080" begin="arrowDown.mouseover" end="arrowDown.mouseout"/>
                  </use>
                  <path fill="none" stroke="white" stroke-width="1.5" d="M0,-3.0v7 M-2.5,-0.5L0,-3.0L2.5,-0.5"/>
                </g>
                <g id="arrowLeft" xlink:href="#dirArrow" transform="rotate(270) translate(-36 17)" onmousedown="handlePan(-1,0)">
                  <use xlink:href="#rim" fill="#404040">
                        <set attributeName="fill" to="#808080" begin="arrowLeft.mouseover" end="arrowLeft.mouseout"/>
                  </use>
                  <path fill="none" stroke="white" stroke-width="1.5" d="M0,-3.0v7 M-2.5,-0.5L0,-3.0L2.5,-0.5"/>
                </g>
        </g>
        <svg viewBox="0 0 15 15" width="100%" height="30px" preserveAspectRatio="xMaxYMin meet">
         <g id="arrow_out" transform="scale(0.3 0.3)">
          <a xlink:href="classgameengine_1_1movement_1_1_movement__coll__graph_org.svg" target="_base">
           <rect id="button" ry="5" rx="5" y="6" x="6" height="38" width="38"
                fill="#f2f5e9" fill-opacity="0.5" stroke="#606060" stroke-width="1.0"/>
           <path id="arrow"
             d="M 11.500037,31.436501 C 11.940474,20.09759 22.043105,11.32322 32.158766,21.979434 L 37.068811,17.246167 C 37.068811,17.246167 37.088388,32 37.088388,32 L 22.160133,31.978069 C 22.160133,31.978069 26.997745,27.140456 26.997745,27.140456 C 18.528582,18.264221 13.291696,25.230495 11.500037,31.436501 z"
             style="fill:#404040;"/>
          </a>
         </g>
        </svg>
</svg>
