<?xml version="1.0" encoding="UTF-8" standalone="no"?>
<!DOCTYPE svg PUBLIC "-//W3C//DTD SVG 1.1//EN"
 "http://www.w3.org/Graphics/SVG/1.1/DTD/svg11.dtd">
<!-- Generated by graphviz version 2.36.0 (20140111.2315)
 -->
<!-- Title: fxml_main.PieceController Pages: 1 -->
<svg width="754pt" height="213pt"
 viewBox="0.00 0.00 754.00 213.00" xmlns="http://www.w3.org/2000/svg" xmlns:xlink="http://www.w3.org/1999/xlink">
<g id="graph0" class="graph" transform="scale(1 1) rotate(0) translate(4 209)">
<title>fxml_main.PieceController</title>
<polygon fill="white" stroke="none" points="-4,4 -4,-209 750,-209 750,4 -4,4"/>
<!-- Node1 -->
<g id="node1" class="node"><title>Node1</title>
<polygon fill="#bfbfbf" stroke="black" points="604.5,-116.5 604.5,-135.5 745.5,-135.5 745.5,-116.5 604.5,-116.5"/>
<text text-anchor="middle" x="675" y="-123.5" font-family="Helvetica,sans-Serif" font-size="10.00">fxml_main.PieceController</text>
</g>
<!-- Node2 -->
<g id="node2" class="node"><title>Node2</title>
<g id="a_node2"><a xlink:href="../../da/d40/classfxml__main_1_1_grid_component_abst_ctrl.html" target="_top" xlink:title="fxml_main.GridComponentAbst\lCtrl\&lt; Piece \&gt;">
<polygon fill="white" stroke="black" points="290.5,-175 290.5,-205 457.5,-205 457.5,-175 290.5,-175"/>
<text text-anchor="start" x="298.5" y="-193" font-family="Helvetica,sans-Serif" font-size="10.00">fxml_main.GridComponentAbst</text>
<text text-anchor="middle" x="374" y="-182" font-family="Helvetica,sans-Serif" font-size="10.00">Ctrl&lt; Piece &gt;</text>
</a>
</g>
</g>
<!-- Node2&#45;&gt;Node1 -->
<g id="edge1" class="edge"><title>Node2&#45;&gt;Node1</title>
<path fill="none" stroke="midnightblue" d="M467.917,-176.263C504.878,-170.134 547.656,-162.207 586,-153 606.356,-148.112 628.922,-141.157 646.106,-135.53"/>
<polygon fill="midnightblue" stroke="midnightblue" points="466.958,-172.873 457.655,-177.943 468.089,-179.781 466.958,-172.873"/>
</g>
<!-- Node3 -->
<g id="node3" class="node"><title>Node3</title>
<g id="a_node3"><a xlink:href="../../d2/da6/classauthoring_1_1data_1_1_action_data.html" target="_top" xlink:title="authoring.data.ActionData">
<polygon fill="white" stroke="black" points="302.5,-136.5 302.5,-155.5 445.5,-155.5 445.5,-136.5 302.5,-136.5"/>
<text text-anchor="middle" x="374" y="-143.5" font-family="Helvetica,sans-Serif" font-size="10.00">authoring.data.ActionData</text>
</a>
</g>
</g>
<!-- Node3&#45;&gt;Node1 -->
<g id="edge2" class="edge"><title>Node3&#45;&gt;Node1</title>
<path fill="none" stroke="#9a32cd" stroke-dasharray="5,2" d="M455.888,-140.589C502.322,-137.484 560.031,-133.623 604.424,-130.654"/>
<polygon fill="#9a32cd" stroke="#9a32cd" points="455.603,-137.101 445.859,-141.26 456.07,-144.085 455.603,-137.101"/>
<text text-anchor="middle" x="537" y="-141" font-family="Helvetica,sans-Serif" font-size="10.00"> myActionData</text>
</g>
<!-- Node4 -->
<g id="node4" class="node"><title>Node4</title>
<g id="a_node4"><a xlink:href="../../d5/d29/interfaceauthoring_1_1data_1_1_authoring_data.html" target="_top" xlink:title="authoring.data.Authoring\lData\&lt; Action \&gt;">
<polygon fill="white" stroke="black" points="25.5,-175 25.5,-205 162.5,-205 162.5,-175 25.5,-175"/>
<text text-anchor="start" x="33.5" y="-193" font-family="Helvetica,sans-Serif" font-size="10.00">authoring.data.Authoring</text>
<text text-anchor="middle" x="94" y="-182" font-family="Helvetica,sans-Serif" font-size="10.00">Data&lt; Action &gt;</text>
</a>
</g>
</g>
<!-- Node4&#45;&gt;Node3 -->
<g id="edge3" class="edge"><title>Node4&#45;&gt;Node3</title>
<path fill="none" stroke="midnightblue" d="M172.792,-177.688C217.044,-170.684 271.637,-162.043 312.632,-155.555"/>
<polygon fill="midnightblue" stroke="midnightblue" points="171.981,-174.272 162.651,-179.293 173.075,-181.186 171.981,-174.272"/>
</g>
<!-- Node5 -->
<g id="node5" class="node"><title>Node5</title>
<polygon fill="white" stroke="#bfbfbf" points="9,-136.5 9,-155.5 179,-155.5 179,-136.5 9,-136.5"/>
<text text-anchor="middle" x="94" y="-143.5" font-family="Helvetica,sans-Serif" font-size="10.00">List&lt; gamedata.action.Action &gt;</text>
</g>
<!-- Node5&#45;&gt;Node3 -->
<g id="edge4" class="edge"><title>Node5&#45;&gt;Node3</title>
<path fill="none" stroke="#9a32cd" stroke-dasharray="5,2" d="M189.443,-146C226.367,-146 267.981,-146 302.239,-146"/>
<polygon fill="#9a32cd" stroke="#9a32cd" points="189.164,-142.5 179.164,-146 189.164,-149.5 189.164,-142.5"/>
<text text-anchor="middle" x="233" y="-149" font-family="Helvetica,sans-Serif" font-size="10.00"> myActions</text>
</g>
<!-- Node6 -->
<g id="node6" class="node"><title>Node6</title>
<g id="a_node6"><a xlink:href="../../d2/dcf/classauthoring_1_1data_1_1_game_properties_data.html" target="_top" xlink:title="authoring.data.GamePropertiesData">
<polygon fill="white" stroke="black" points="278.5,-98.5 278.5,-117.5 469.5,-117.5 469.5,-98.5 278.5,-98.5"/>
<text text-anchor="middle" x="374" y="-105.5" font-family="Helvetica,sans-Serif" font-size="10.00">authoring.data.GamePropertiesData</text>
</a>
</g>
</g>
<!-- Node6&#45;&gt;Node1 -->
<g id="edge5" class="edge"><title>Node6&#45;&gt;Node1</title>
<path fill="none" stroke="#9a32cd" stroke-dasharray="5,2" d="M480.078,-106.3C513.949,-106.605 551.615,-107.844 586,-111 599.118,-112.204 613.227,-114.262 626.222,-116.474"/>
<polygon fill="#9a32cd" stroke="#9a32cd" points="479.719,-102.798 469.696,-106.234 479.674,-109.798 479.719,-102.798"/>
<text text-anchor="middle" x="537" y="-114" font-family="Helvetica,sans-Serif" font-size="10.00"> myGameProperties</text>
</g>
<!-- Node7 -->
<g id="node7" class="node"><title>Node7</title>
<g id="a_node7"><a xlink:href="../../d5/d98/classauthoring_1_1data_1_1_piece_type_data.html" target="_top" xlink:title="authoring.data.PieceTypeData">
<polygon fill="white" stroke="black" points="294,-56.5 294,-75.5 454,-75.5 454,-56.5 294,-56.5"/>
<text text-anchor="middle" x="374" y="-63.5" font-family="Helvetica,sans-Serif" font-size="10.00">authoring.data.PieceTypeData</text>
</a>
</g>
</g>
<!-- Node7&#45;&gt;Node1 -->
<g id="edge6" class="edge"><title>Node7&#45;&gt;Node1</title>
<path fill="none" stroke="#9a32cd" stroke-dasharray="5,2" d="M464.019,-72.0736C501.997,-75.9202 546.563,-82.1126 586,-92 609.83,-97.9745 635.947,-108.621 653.489,-116.413"/>
<polygon fill="#9a32cd" stroke="#9a32cd" points="464.296,-68.5841 454.003,-71.0976 463.617,-75.5511 464.296,-68.5841"/>
<text text-anchor="middle" x="537" y="-95" font-family="Helvetica,sans-Serif" font-size="10.00"> myPieceTypes</text>
</g>
<!-- Node8 -->
<g id="node8" class="node"><title>Node8</title>
<polygon fill="white" stroke="#bfbfbf" points="58.5,-98.5 58.5,-117.5 129.5,-117.5 129.5,-98.5 58.5,-98.5"/>
<text text-anchor="middle" x="94" y="-105.5" font-family="Helvetica,sans-Serif" font-size="10.00">Observable</text>
</g>
<!-- Node8&#45;&gt;Node7 -->
<g id="edge7" class="edge"><title>Node8&#45;&gt;Node7</title>
<path fill="none" stroke="midnightblue" d="M139.64,-101.256C185.759,-94.2882 258.131,-83.3542 310.051,-75.5103"/>
<polygon fill="midnightblue" stroke="midnightblue" points="139.012,-97.8109 129.647,-102.766 140.057,-104.732 139.012,-97.8109"/>
</g>
<!-- Node9 -->
<g id="node9" class="node"><title>Node9</title>
<g id="a_node9"><a xlink:href="../../d5/d29/interfaceauthoring_1_1data_1_1_authoring_data.html" target="_top" xlink:title="authoring.data.Authoring\lData\&lt; Piece \&gt;">
<polygon fill="white" stroke="black" points="25.5,-49 25.5,-79 162.5,-79 162.5,-49 25.5,-49"/>
<text text-anchor="start" x="33.5" y="-67" font-family="Helvetica,sans-Serif" font-size="10.00">authoring.data.Authoring</text>
<text text-anchor="middle" x="94" y="-56" font-family="Helvetica,sans-Serif" font-size="10.00">Data&lt; Piece &gt;</text>
</a>
</g>
</g>
<!-- Node9&#45;&gt;Node7 -->
<g id="edge8" class="edge"><title>Node9&#45;&gt;Node7</title>
<path fill="none" stroke="midnightblue" d="M173.088,-64.5618C210.836,-64.8334 256.056,-65.1587 293.933,-65.4312"/>
<polygon fill="midnightblue" stroke="midnightblue" points="172.676,-61.0588 162.651,-64.4867 172.625,-68.0586 172.676,-61.0588"/>
</g>
<!-- Node10 -->
<g id="node10" class="node"><title>Node10</title>
<polygon fill="white" stroke="#bfbfbf" points="0,-0 0,-30 188,-30 188,-0 0,-0"/>
<text text-anchor="start" x="8" y="-18" font-family="Helvetica,sans-Serif" font-size="10.00">List&lt; gamedata.gamecomponents.</text>
<text text-anchor="middle" x="94" y="-7" font-family="Helvetica,sans-Serif" font-size="10.00">Piece &gt;</text>
</g>
<!-- Node10&#45;&gt;Node7 -->
<g id="edge9" class="edge"><title>Node10&#45;&gt;Node7</title>
<path fill="none" stroke="#9a32cd" stroke-dasharray="5,2" d="M186.881,-31.8559C231.443,-40.0309 283.333,-49.5503 320.986,-56.4578"/>
<polygon fill="#9a32cd" stroke="#9a32cd" points="187.373,-28.3878 176.906,-30.0258 186.11,-35.2729 187.373,-28.3878"/>
<text text-anchor="middle" x="233" y="-49" font-family="Helvetica,sans-Serif" font-size="10.00"> myPieces</text>
</g>
</g>
</svg>
