<?xml version="1.0" encoding="UTF-8" standalone="no"?>
<!DOCTYPE svg PUBLIC "-//W3C//DTD SVG 1.1//EN"
 "http://www.w3.org/Graphics/SVG/1.1/DTD/svg11.dtd">
<!-- Generated by graphviz version 2.36.0 (20140111.2315)
 -->
<!-- Title: gameengine.player.HumanPlayer Pages: 1 -->
<svg width="956pt" height="133pt"
 viewBox="0.00 0.00 956.00 133.00" xmlns="http://www.w3.org/2000/svg" xmlns:xlink="http://www.w3.org/1999/xlink">
<g id="graph0" class="graph" transform="scale(1 1) rotate(0) translate(4 129)">
<title>gameengine.player.HumanPlayer</title>
<polygon fill="white" stroke="none" points="-4,4 -4,-129 952,-129 952,4 -4,4"/>
<!-- Node1 -->
<g id="node1" class="node"><title>Node1</title>
<polygon fill="#bfbfbf" stroke="black" points="772,-49.5 772,-68.5 948,-68.5 948,-49.5 772,-49.5"/>
<text text-anchor="middle" x="860" y="-56.5" font-family="Helvetica,sans-Serif" font-size="10.00">gameengine.player.HumanPlayer</text>
</g>
<!-- Node2 -->
<g id="node2" class="node"><title>Node2</title>
<g id="a_node2"><a xlink:href="../../d0/dfd/classgameengine_1_1player_1_1_player.html" target="_top" xlink:title="gameengine.player.Player">
<polygon fill="white" stroke="black" points="469,-87.5 469,-106.5 609,-106.5 609,-87.5 469,-87.5"/>
<text text-anchor="middle" x="539" y="-94.5" font-family="Helvetica,sans-Serif" font-size="10.00">gameengine.player.Player</text>
</a>
</g>
</g>
<!-- Node2&#45;&gt;Node1 -->
<g id="edge1" class="edge"><title>Node2&#45;&gt;Node1</title>
<path fill="none" stroke="midnightblue" d="M619.504,-89.1208C659.834,-84.955 709.565,-79.5601 754,-74 767.247,-72.3424 781.412,-70.4206 794.913,-68.5173"/>
<polygon fill="midnightblue" stroke="midnightblue" points="619.052,-85.6487 609.463,-90.1527 619.768,-92.612 619.052,-85.6487"/>
</g>
<!-- Node3 -->
<g id="node3" class="node"><title>Node3</title>
<g id="a_node3"><a xlink:href="../../dc/d5b/interfacegamedata_1_1gamecomponents_1_1_i_has_stats.html" target="_top" xlink:title="gamedata.gamecomponents.\lIHasStats">
<polygon fill="white" stroke="black" points="208,-95 208,-125 368,-125 368,-95 208,-95"/>
<text text-anchor="start" x="216" y="-113" font-family="Helvetica,sans-Serif" font-size="10.00">gamedata.gamecomponents.</text>
<text text-anchor="middle" x="288" y="-102" font-family="Helvetica,sans-Serif" font-size="10.00">IHasStats</text>
</a>
</g>
</g>
<!-- Node3&#45;&gt;Node2 -->
<g id="edge2" class="edge"><title>Node3&#45;&gt;Node2</title>
<path fill="none" stroke="midnightblue" d="M378.501,-105.327C408.204,-103.776 440.801,-102.075 468.741,-100.616"/>
<polygon fill="midnightblue" stroke="midnightblue" points="377.931,-101.852 368.127,-105.869 378.296,-108.843 377.931,-101.852"/>
</g>
<!-- Node4 -->
<g id="node4" class="node"><title>Node4</title>
<g id="a_node4"><a xlink:href="../../d6/d1d/classgamedata_1_1stats_1_1_stats.html" target="_top" xlink:title="gamedata.stats.Stats">
<polygon fill="white" stroke="black" points="227,-56.5 227,-75.5 349,-75.5 349,-56.5 227,-56.5"/>
<text text-anchor="middle" x="288" y="-63.5" font-family="Helvetica,sans-Serif" font-size="10.00">gamedata.stats.Stats</text>
</a>
</g>
</g>
<!-- Node4&#45;&gt;Node2 -->
<g id="edge3" class="edge"><title>Node4&#45;&gt;Node2</title>
<path fill="none" stroke="#9a32cd" stroke-dasharray="5,2" d="M359.2,-74.7397C393.428,-79.001 434.465,-84.1102 468.588,-88.3583"/>
<polygon fill="#9a32cd" stroke="#9a32cd" points="359.632,-71.2666 349.276,-73.5042 358.767,-78.213 359.632,-71.2666"/>
<text text-anchor="middle" x="408" y="-87" font-family="Helvetica,sans-Serif" font-size="10.00"> myStats</text>
</g>
<!-- Node5 -->
<g id="node5" class="node"><title>Node5</title>
<polygon fill="white" stroke="#bfbfbf" points="0,-56.5 0,-75.5 128,-75.5 128,-56.5 0,-56.5"/>
<text text-anchor="middle" x="64" y="-63.5" font-family="Helvetica,sans-Serif" font-size="10.00">Map&lt; String, Double &gt;</text>
</g>
<!-- Node5&#45;&gt;Node4 -->
<g id="edge4" class="edge"><title>Node5&#45;&gt;Node4</title>
<path fill="none" stroke="#9a32cd" stroke-dasharray="5,2" d="M138.03,-66C166.821,-66 199.487,-66 226.878,-66"/>
<polygon fill="#9a32cd" stroke="#9a32cd" points="138.023,-62.5001 128.022,-66 138.022,-69.5001 138.023,-62.5001"/>
<text text-anchor="middle" x="168" y="-69" font-family="Helvetica,sans-Serif" font-size="10.00"> myStats</text>
</g>
<!-- Node6 -->
<g id="node6" class="node"><title>Node6</title>
<polygon fill="white" stroke="#bfbfbf" points="448.5,-49.5 448.5,-68.5 629.5,-68.5 629.5,-49.5 448.5,-49.5"/>
<text text-anchor="middle" x="539" y="-56.5" font-family="Helvetica,sans-Serif" font-size="10.00">Map&lt; KeyCode, Point2D.Double &gt;</text>
</g>
<!-- Node6&#45;&gt;Node1 -->
<g id="edge5" class="edge"><title>Node6&#45;&gt;Node1</title>
<path fill="none" stroke="#9a32cd" stroke-dasharray="5,2" d="M639.759,-59C682.107,-59 731.023,-59 771.89,-59"/>
<polygon fill="#9a32cd" stroke="#9a32cd" points="639.708,-55.5001 629.708,-59 639.708,-62.5001 639.708,-55.5001"/>
<text text-anchor="middle" x="701" y="-62" font-family="Helvetica,sans-Serif" font-size="10.00"> myMovementKeyMap</text>
</g>
<!-- Node7 -->
<g id="node7" class="node"><title>Node7</title>
<polygon fill="white" stroke="#bfbfbf" points="449,-0 449,-30 629,-30 629,-0 449,-0"/>
<text text-anchor="start" x="457" y="-18" font-family="Helvetica,sans-Serif" font-size="10.00">Map&lt; KeyCode, gamedata.action.</text>
<text text-anchor="middle" x="539" y="-7" font-family="Helvetica,sans-Serif" font-size="10.00">Action &gt;</text>
</g>
<!-- Node7&#45;&gt;Node1 -->
<g id="edge6" class="edge"><title>Node7&#45;&gt;Node1</title>
<path fill="none" stroke="#9a32cd" stroke-dasharray="5,2" d="M639.101,-28.2782C675.27,-33.1642 716.493,-38.7796 754,-44 766.585,-45.7516 780.013,-47.6486 792.917,-49.4855"/>
<polygon fill="#9a32cd" stroke="#9a32cd" points="639.42,-24.7895 629.041,-26.9204 638.483,-31.7266 639.42,-24.7895"/>
<text text-anchor="middle" x="701" y="-47" font-family="Helvetica,sans-Serif" font-size="10.00"> myActionKeyMap</text>
</g>
</g>
</svg>
