<?xml version="1.0" encoding="UTF-8" standalone="no"?>
<!DOCTYPE svg PUBLIC "-//W3C//DTD SVG 1.1//EN"
 "http://www.w3.org/Graphics/SVG/1.1/DTD/svg11.dtd">
<!-- Generated by graphviz version 2.36.0 (20140111.2315)
 -->
<!-- Title: tests.GlobalActionTester.TestDeletePiece Pages: 1 -->
<svg width="1044pt" height="235pt"
 viewBox="0.00 0.00 1044.00 235.00" xmlns="http://www.w3.org/2000/svg" xmlns:xlink="http://www.w3.org/1999/xlink">
<g id="graph0" class="graph" transform="scale(1 1) rotate(0) translate(4 231)">
<title>tests.GlobalActionTester.TestDeletePiece</title>
<polygon fill="white" stroke="none" points="-4,4 -4,-231 1040,-231 1040,4 -4,4"/>
<!-- Node1 -->
<g id="node1" class="node"><title>Node1</title>
<polygon fill="#bfbfbf" stroke="black" points="0,-125 0,-155 134,-155 134,-125 0,-125"/>
<text text-anchor="start" x="8" y="-143" font-family="Helvetica,sans-Serif" font-size="10.00">tests.GlobalActionTester.</text>
<text text-anchor="middle" x="67" y="-132" font-family="Helvetica,sans-Serif" font-size="10.00">TestDeletePiece</text>
</g>
<!-- Node2 -->
<g id="node2" class="node"><title>Node2</title>
<g id="a_node2"><a xlink:href="../../dd/dfa/classgamedata_1_1events_1_1globalaction_1_1_delete_piece_at_location.html#ab1fe115131d732f046e4775b1aa33b54" target="_top" xlink:title="gamedata.events.globalaction.\lDeletePieceAtLocation.doBehavior">
<polygon fill="white" stroke="black" points="170,-150 170,-180 352,-180 352,-150 170,-150"/>
<text text-anchor="start" x="178" y="-168" font-family="Helvetica,sans-Serif" font-size="10.00">gamedata.events.globalaction.</text>
<text text-anchor="middle" x="261" y="-157" font-family="Helvetica,sans-Serif" font-size="10.00">DeletePieceAtLocation.doBehavior</text>
</a>
</g>
</g>
<!-- Node1&#45;&gt;Node2 -->
<g id="edge1" class="edge"><title>Node1&#45;&gt;Node2</title>
<path fill="none" stroke="midnightblue" d="M134.076,-148.604C142.34,-149.68 150.933,-150.799 159.574,-151.924"/>
<polygon fill="midnightblue" stroke="midnightblue" points="159.355,-155.425 169.723,-153.245 160.259,-148.483 159.355,-155.425"/>
</g>
<!-- Node4 -->
<g id="node4" class="node"><title>Node4</title>
<g id="a_node4"><a xlink:href="../../da/d4c/classauthoring__environment_1_1_g_u_i_grid.html#a1ac1af9ff6b3cff9aee00db73948d1c0" target="_top" xlink:title="authoring_environment.GUIGrid.get\lPiece">
<polygon fill="white" stroke="black" points="642.5,-197 642.5,-227 829.5,-227 829.5,-197 642.5,-197"/>
<text text-anchor="start" x="650.5" y="-215" font-family="Helvetica,sans-Serif" font-size="10.00">authoring_environment.GUIGrid.get</text>
<text text-anchor="middle" x="736" y="-204" font-family="Helvetica,sans-Serif" font-size="10.00">Piece</text>
</a>
</g>
</g>
<!-- Node1&#45;&gt;Node4 -->
<g id="edge14" class="edge"><title>Node1&#45;&gt;Node4</title>
<path fill="none" stroke="midnightblue" d="M92.0805,-155.05C112.104,-166.69 141.787,-181.968 170,-189 327.656,-228.294 517.613,-226.394 632.21,-220.14"/>
<polygon fill="midnightblue" stroke="midnightblue" points="632.592,-223.624 642.377,-219.563 632.195,-216.636 632.592,-223.624"/>
</g>
<!-- Node12 -->
<g id="node12" class="node"><title>Node12</title>
<g id="a_node12"><a xlink:href="../../d2/d99/classgamedata_1_1gamecomponents_1_1_game.html#a4b6fcd24022b5c11ff2a992661259e54" target="_top" xlink:title="gamedata.gamecomponents.\lGame.getCurrentLevel">
<polygon fill="white" stroke="black" points="181,-101 181,-131 341,-131 341,-101 181,-101"/>
<text text-anchor="start" x="189" y="-119" font-family="Helvetica,sans-Serif" font-size="10.00">gamedata.gamecomponents.</text>
<text text-anchor="middle" x="261" y="-108" font-family="Helvetica,sans-Serif" font-size="10.00">Game.getCurrentLevel</text>
</a>
</g>
</g>
<!-- Node1&#45;&gt;Node12 -->
<g id="edge12" class="edge"><title>Node1&#45;&gt;Node12</title>
<path fill="none" stroke="midnightblue" d="M134.076,-131.741C145.855,-130.268 158.303,-128.712 170.605,-127.174"/>
<polygon fill="midnightblue" stroke="midnightblue" points="171.398,-130.603 180.887,-125.889 170.53,-123.657 171.398,-130.603"/>
</g>
<!-- Node13 -->
<g id="node13" class="node"><title>Node13</title>
<g id="a_node13"><a xlink:href="../../d8/d01/classgamedata_1_1gamecomponents_1_1_level.html#adef1fc175daf62d54468e35e67413edb" target="_top" xlink:title="gamedata.gamecomponents.\lLevel.getGrid">
<polygon fill="white" stroke="black" points="181,-52 181,-82 341,-82 341,-52 181,-52"/>
<text text-anchor="start" x="189" y="-70" font-family="Helvetica,sans-Serif" font-size="10.00">gamedata.gamecomponents.</text>
<text text-anchor="middle" x="261" y="-59" font-family="Helvetica,sans-Serif" font-size="10.00">Level.getGrid</text>
</a>
</g>
</g>
<!-- Node1&#45;&gt;Node13 -->
<g id="edge13" class="edge"><title>Node1&#45;&gt;Node13</title>
<path fill="none" stroke="midnightblue" d="M96.8966,-124.797C117.018,-114.612 144.68,-101.398 170,-92 176.435,-89.6115 183.203,-87.3294 190.017,-85.1838"/>
<polygon fill="midnightblue" stroke="midnightblue" points="191.455,-88.4045 200.001,-82.1414 189.415,-81.7085 191.455,-88.4045"/>
</g>
<!-- Node3 -->
<g id="node3" class="node"><title>Node3</title>
<g id="a_node3"><a xlink:href="../../da/d4c/classauthoring__environment_1_1_g_u_i_grid.html#afe59bd9dfeddc383a541f50fda3e647a" target="_top" xlink:title="authoring_environment.GUIGrid.remove\lPieceAtCoordinate">
<polygon fill="white" stroke="black" points="388,-149 388,-179 596,-179 596,-149 388,-149"/>
<text text-anchor="start" x="396" y="-167" font-family="Helvetica,sans-Serif" font-size="10.00">authoring_environment.GUIGrid.remove</text>
<text text-anchor="middle" x="492" y="-156" font-family="Helvetica,sans-Serif" font-size="10.00">PieceAtCoordinate</text>
</a>
</g>
</g>
<!-- Node2&#45;&gt;Node3 -->
<g id="edge2" class="edge"><title>Node2&#45;&gt;Node3</title>
<path fill="none" stroke="midnightblue" d="M352.178,-164.606C360.544,-164.57 369.092,-164.532 377.632,-164.495"/>
<polygon fill="midnightblue" stroke="midnightblue" points="377.657,-167.995 387.641,-164.451 377.626,-160.995 377.657,-167.995"/>
</g>
<!-- Node3&#45;&gt;Node4 -->
<g id="edge3" class="edge"><title>Node3&#45;&gt;Node4</title>
<path fill="none" stroke="midnightblue" d="M568.906,-179.056C594.472,-184.127 623.172,-189.819 649.43,-195.028"/>
<polygon fill="midnightblue" stroke="midnightblue" points="648.873,-198.485 659.363,-196.998 650.235,-191.619 648.873,-198.485"/>
</g>
<!-- Node6 -->
<g id="node6" class="node"><title>Node6</title>
<g id="a_node6"><a xlink:href="../../da/d4c/classauthoring__environment_1_1_g_u_i_grid.html#a11c99629d13f4fd80d59bcd66a794695" target="_top" xlink:title="authoring_environment.GUIGrid.is\lPieceOccupied">
<polygon fill="white" stroke="black" points="646.5,-148 646.5,-178 825.5,-178 825.5,-148 646.5,-148"/>
<text text-anchor="start" x="654.5" y="-166" font-family="Helvetica,sans-Serif" font-size="10.00">authoring_environment.GUIGrid.is</text>
<text text-anchor="middle" x="736" y="-155" font-family="Helvetica,sans-Serif" font-size="10.00">PieceOccupied</text>
</a>
</g>
</g>
<!-- Node3&#45;&gt;Node6 -->
<g id="edge5" class="edge"><title>Node3&#45;&gt;Node6</title>
<path fill="none" stroke="midnightblue" d="M596.332,-163.573C609.408,-163.519 622.766,-163.464 635.777,-163.41"/>
<polygon fill="midnightblue" stroke="midnightblue" points="636.139,-166.909 646.124,-163.367 636.11,-159.909 636.139,-166.909"/>
</g>
<!-- Node7 -->
<g id="node7" class="node"><title>Node7</title>
<g id="a_node7"><a xlink:href="../../da/d4c/classauthoring__environment_1_1_g_u_i_grid.html#a53382a0de9f44f0642c3c9c5b009e613" target="_top" xlink:title="authoring_environment.GUIGrid.remove\lPiece">
<polygon fill="white" stroke="black" points="632,-99 632,-129 840,-129 840,-99 632,-99"/>
<text text-anchor="start" x="640" y="-117" font-family="Helvetica,sans-Serif" font-size="10.00">authoring_environment.GUIGrid.remove</text>
<text text-anchor="middle" x="736" y="-106" font-family="Helvetica,sans-Serif" font-size="10.00">Piece</text>
</a>
</g>
</g>
<!-- Node3&#45;&gt;Node7 -->
<g id="edge7" class="edge"><title>Node3&#45;&gt;Node7</title>
<path fill="none" stroke="midnightblue" d="M565.608,-148.998C592.882,-143.363 624.084,-136.917 652.215,-131.104"/>
<polygon fill="midnightblue" stroke="midnightblue" points="652.94,-134.528 662.025,-129.077 651.524,-127.673 652.94,-134.528"/>
</g>
<!-- Node5 -->
<g id="node5" class="node"><title>Node5</title>
<g id="a_node5"><a xlink:href="../../d6/dda/classauthoring_1_1data_1_1_piece_instance_data.html#afb4443eda20595533c28fe05f079fb48" target="_top" xlink:title="authoring.data.PieceInstance\lData.getData">
<polygon fill="white" stroke="black" points="878,-197 878,-227 1034,-227 1034,-197 878,-197"/>
<text text-anchor="start" x="886" y="-215" font-family="Helvetica,sans-Serif" font-size="10.00">authoring.data.PieceInstance</text>
<text text-anchor="middle" x="956" y="-204" font-family="Helvetica,sans-Serif" font-size="10.00">Data.getData</text>
</a>
</g>
</g>
<!-- Node4&#45;&gt;Node5 -->
<g id="edge4" class="edge"><title>Node4&#45;&gt;Node5</title>
<path fill="none" stroke="midnightblue" d="M829.768,-212C842.262,-212 855.047,-212 867.446,-212"/>
<polygon fill="midnightblue" stroke="midnightblue" points="867.757,-215.5 877.757,-212 867.757,-208.5 867.757,-215.5"/>
</g>
<!-- Node6&#45;&gt;Node5 -->
<g id="edge6" class="edge"><title>Node6&#45;&gt;Node5</title>
<path fill="none" stroke="midnightblue" d="M803.889,-178.035C827.43,-183.326 854.067,-189.313 878.349,-194.771"/>
<polygon fill="midnightblue" stroke="midnightblue" points="877.714,-198.216 888.238,-196.994 879.249,-191.386 877.714,-198.216"/>
</g>
<!-- Node8 -->
<g id="node8" class="node"><title>Node8</title>
<g id="a_node8"><a xlink:href="../../d9/df3/classauthoring__environment_1_1_super_grid.html#aa57ca0acf0ef3aab7d5d98cf9cbbd1d7" target="_top" xlink:title="authoring_environment.Super\lGrid.findTile">
<polygon fill="white" stroke="black" points="876,-148 876,-178 1036,-178 1036,-148 876,-148"/>
<text text-anchor="start" x="884" y="-166" font-family="Helvetica,sans-Serif" font-size="10.00">authoring_environment.Super</text>
<text text-anchor="middle" x="956" y="-155" font-family="Helvetica,sans-Serif" font-size="10.00">Grid.findTile</text>
</a>
</g>
</g>
<!-- Node7&#45;&gt;Node8 -->
<g id="edge8" class="edge"><title>Node7&#45;&gt;Node8</title>
<path fill="none" stroke="midnightblue" d="M803.889,-129.035C827.43,-134.326 854.067,-140.313 878.349,-145.771"/>
<polygon fill="midnightblue" stroke="midnightblue" points="877.714,-149.216 888.238,-147.994 879.249,-142.386 877.714,-149.216"/>
</g>
<!-- Node9 -->
<g id="node9" class="node"><title>Node9</title>
<g id="a_node9"><a xlink:href="../../d9/df2/classgamedata_1_1gamecomponents_1_1_grid_component.html#a97439a493db38860397436079b123e8c" target="_top" xlink:title="gamedata.gamecomponents.\lGridComponent.getLoc">
<polygon fill="white" stroke="black" points="876,-99 876,-129 1036,-129 1036,-99 876,-99"/>
<text text-anchor="start" x="884" y="-117" font-family="Helvetica,sans-Serif" font-size="10.00">gamedata.gamecomponents.</text>
<text text-anchor="middle" x="956" y="-106" font-family="Helvetica,sans-Serif" font-size="10.00">GridComponent.getLoc</text>
</a>
</g>
</g>
<!-- Node7&#45;&gt;Node9 -->
<g id="edge9" class="edge"><title>Node7&#45;&gt;Node9</title>
<path fill="none" stroke="midnightblue" d="M840.254,-114C848.782,-114 857.358,-114 865.77,-114"/>
<polygon fill="midnightblue" stroke="midnightblue" points="865.937,-117.5 875.937,-114 865.937,-110.5 865.937,-117.5"/>
</g>
<!-- Node10 -->
<g id="node10" class="node"><title>Node10</title>
<g id="a_node10"><a xlink:href="../../d6/dda/classauthoring_1_1data_1_1_piece_instance_data.html#a80a0e534e9cb103879f99230bc05efe7" target="_top" xlink:title="authoring.data.PieceInstance\lData.remove">
<polygon fill="white" stroke="black" points="878,-50 878,-80 1034,-80 1034,-50 878,-50"/>
<text text-anchor="start" x="886" y="-68" font-family="Helvetica,sans-Serif" font-size="10.00">authoring.data.PieceInstance</text>
<text text-anchor="middle" x="956" y="-57" font-family="Helvetica,sans-Serif" font-size="10.00">Data.remove</text>
</a>
</g>
</g>
<!-- Node7&#45;&gt;Node10 -->
<g id="edge10" class="edge"><title>Node7&#45;&gt;Node10</title>
<path fill="none" stroke="midnightblue" d="M803.889,-98.9654C827.43,-93.6741 854.067,-87.6867 878.349,-82.2288"/>
<polygon fill="midnightblue" stroke="midnightblue" points="879.249,-85.6141 888.238,-80.0062 877.714,-78.7845 879.249,-85.6141"/>
</g>
<!-- Node11 -->
<g id="node11" class="node"><title>Node11</title>
<g id="a_node11"><a xlink:href="../../dc/d5a/classauthoring__environment_1_1_super_tile.html#aab4ca6a2e399a4f20d41eb9bc038f7aa" target="_top" xlink:title="authoring_environment.Super\lTile.removePieceImage">
<polygon fill="white" stroke="black" points="876,-1 876,-31 1036,-31 1036,-1 876,-1"/>
<text text-anchor="start" x="884" y="-19" font-family="Helvetica,sans-Serif" font-size="10.00">authoring_environment.Super</text>
<text text-anchor="middle" x="956" y="-8" font-family="Helvetica,sans-Serif" font-size="10.00">Tile.removePieceImage</text>
</a>
</g>
</g>
<!-- Node7&#45;&gt;Node11 -->
<g id="edge11" class="edge"><title>Node7&#45;&gt;Node11</title>
<path fill="none" stroke="midnightblue" d="M762.469,-98.8672C789.853,-83.018 834.992,-58.0984 876,-41 881.444,-38.7302 887.17,-36.5461 892.949,-34.4786"/>
<polygon fill="midnightblue" stroke="midnightblue" points="894.375,-37.689 902.684,-31.1147 892.089,-31.0729 894.375,-37.689"/>
</g>
</g>
</svg>
