<?xml version="1.0" encoding="UTF-8" standalone="no"?>
<!DOCTYPE svg PUBLIC "-//W3C//DTD SVG 1.1//EN"
 "http://www.w3.org/Graphics/SVG/1.1/DTD/svg11.dtd">
<!-- Generated by graphviz version 2.36.0 (20140111.2315)
 -->
<!-- Title: tests.GlobalActionTester.TestEndTurn Pages: 1 -->
<svg width="346pt" height="126pt"
 viewBox="0.00 0.00 346.00 126.00" xmlns="http://www.w3.org/2000/svg" xmlns:xlink="http://www.w3.org/1999/xlink">
<g id="graph0" class="graph" transform="scale(1 1) rotate(0) translate(4 122)">
<title>tests.GlobalActionTester.TestEndTurn</title>
<polygon fill="white" stroke="none" points="-4,4 -4,-122 342,-122 342,4 -4,4"/>
<!-- Node1 -->
<g id="node1" class="node"><title>Node1</title>
<polygon fill="#bfbfbf" stroke="black" points="0,-39 0,-69 134,-69 134,-39 0,-39"/>
<text text-anchor="start" x="8" y="-57" font-family="Helvetica,sans-Serif" font-size="10.00">tests.GlobalActionTester.</text>
<text text-anchor="middle" x="67" y="-46" font-family="Helvetica,sans-Serif" font-size="10.00">TestEndTurn</text>
</g>
<!-- Node2 -->
<g id="node2" class="node"><title>Node2</title>
<g id="a_node2"><a xlink:href="../../d6/dc0/classgamedata_1_1events_1_1globalaction_1_1_end_turn.html#addc55601945fb791cb08bf3ca549fa36" target="_top" xlink:title="gamedata.events.globalaction.\lEndTurn.doBehavior">
<polygon fill="white" stroke="black" points="171.5,-88 171.5,-118 336.5,-118 336.5,-88 171.5,-88"/>
<text text-anchor="start" x="179.5" y="-106" font-family="Helvetica,sans-Serif" font-size="10.00">gamedata.events.globalaction.</text>
<text text-anchor="middle" x="254" y="-95" font-family="Helvetica,sans-Serif" font-size="10.00">EndTurn.doBehavior</text>
</a>
</g>
</g>
<!-- Node1&#45;&gt;Node2 -->
<g id="edge1" class="edge"><title>Node1&#45;&gt;Node2</title>
<path fill="none" stroke="midnightblue" d="M124.763,-69.0346C144.297,-74.2083 166.343,-80.0475 186.576,-85.4066"/>
<polygon fill="midnightblue" stroke="midnightblue" points="185.781,-88.8167 196.344,-87.9938 187.573,-82.05 185.781,-88.8167"/>
</g>
<!-- Node3 -->
<g id="node3" class="node"><title>Node3</title>
<g id="a_node3"><a xlink:href="../../d2/d99/classgamedata_1_1gamecomponents_1_1_game.html#ac18deb24161cdf0ecc89cf051ace563a" target="_top" xlink:title="gamedata.gamecomponents.\lGame.getCurrentPlayer">
<polygon fill="white" stroke="black" points="174,-39 174,-69 334,-69 334,-39 174,-39"/>
<text text-anchor="start" x="182" y="-57" font-family="Helvetica,sans-Serif" font-size="10.00">gamedata.gamecomponents.</text>
<text text-anchor="middle" x="254" y="-46" font-family="Helvetica,sans-Serif" font-size="10.00">Game.getCurrentPlayer</text>
</a>
</g>
</g>
<!-- Node1&#45;&gt;Node3 -->
<g id="edge2" class="edge"><title>Node1&#45;&gt;Node3</title>
<path fill="none" stroke="midnightblue" d="M134.006,-54C143.556,-54 153.517,-54 163.433,-54"/>
<polygon fill="midnightblue" stroke="midnightblue" points="163.732,-57.5001 173.732,-54 163.732,-50.5001 163.732,-57.5001"/>
</g>
<!-- Node4 -->
<g id="node4" class="node"><title>Node4</title>
<g id="a_node4"><a xlink:href="../../d0/dfd/classgameengine_1_1player_1_1_player.html#adb3e2795226ff40955d4164d2122b08d" target="_top" xlink:title="gameengine.player.Player.getID">
<polygon fill="white" stroke="black" points="170,-0.5 170,-19.5 338,-19.5 338,-0.5 170,-0.5"/>
<text text-anchor="middle" x="254" y="-7.5" font-family="Helvetica,sans-Serif" font-size="10.00">gameengine.player.Player.getID</text>
</a>
</g>
</g>
<!-- Node1&#45;&gt;Node4 -->
<g id="edge3" class="edge"><title>Node1&#45;&gt;Node4</title>
<path fill="none" stroke="midnightblue" d="M131.149,-38.9808C154.659,-33.3892 180.991,-27.1265 203.145,-21.8574"/>
<polygon fill="midnightblue" stroke="midnightblue" points="204.086,-25.2313 213.005,-19.5124 202.466,-18.4213 204.086,-25.2313"/>
</g>
</g>
</svg>
