<?xml version="1.0" encoding="UTF-8" standalone="no"?>
<!DOCTYPE svg PUBLIC "-//W3C//DTD SVG 1.1//EN"
 "http://www.w3.org/Graphics/SVG/1.1/DTD/svg11.dtd">
<!-- Generated by graphviz version 2.36.0 (20140111.2315)
 -->
<!-- Title: authoring.eventeditor.EventEditorController Pages: 1 -->
<svg width="828pt" height="616pt"
 viewBox="0.00 0.00 828.00 616.02" xmlns="http://www.w3.org/2000/svg" xmlns:xlink="http://www.w3.org/1999/xlink">
<g id="graph0" class="graph" transform="scale(1 1) rotate(0) translate(4 612.019)">
<title>authoring.eventeditor.EventEditorController</title>
<polygon fill="white" stroke="none" points="-4,4 -4,-612.019 824,-612.019 824,4 -4,4"/>
<!-- Node1 -->
<g id="node1" class="node"><title>Node1</title>
<polygon fill="#bfbfbf" stroke="black" points="670.5,-326.68 670.5,-356.68 819.5,-356.68 819.5,-326.68 670.5,-326.68"/>
<text text-anchor="start" x="678.5" y="-344.68" font-family="Helvetica,sans-Serif" font-size="10.00">authoring.eventeditor.Event</text>
<text text-anchor="middle" x="745" y="-333.68" font-family="Helvetica,sans-Serif" font-size="10.00">EditorController</text>
</g>
<!-- Node2 -->
<g id="node2" class="node"><title>Node2</title>
<polygon fill="white" stroke="#bfbfbf" points="369.5,-582.18 369.5,-601.18 438.5,-601.18 438.5,-582.18 369.5,-582.18"/>
<text text-anchor="middle" x="404" y="-589.18" font-family="Helvetica,sans-Serif" font-size="10.00">Initializable</text>
</g>
<!-- Node2&#45;&gt;Node1 -->
<g id="edge1" class="edge"><title>Node2&#45;&gt;Node1</title>
<path fill="none" stroke="midnightblue" d="M448.928,-601.186C502.355,-610.092 592.727,-616.286 652,-572.68 724.673,-519.215 740.004,-399.082 743.184,-356.773"/>
<polygon fill="midnightblue" stroke="midnightblue" points="449.213,-597.682 438.755,-599.383 447.991,-604.575 449.213,-597.682"/>
</g>
<!-- Node3 -->
<g id="node3" class="node"><title>Node3</title>
<polygon fill="white" stroke="#bfbfbf" points="301,-532.68 301,-562.68 507,-562.68 507,-532.68 301,-532.68"/>
<text text-anchor="start" x="309" y="-550.68" font-family="Helvetica,sans-Serif" font-size="10.00">ListView&lt; gamedata.events.conditions.</text>
<text text-anchor="middle" x="404" y="-539.68" font-family="Helvetica,sans-Serif" font-size="10.00">Condition &gt;</text>
</g>
<!-- Node3&#45;&gt;Node1 -->
<g id="edge2" class="edge"><title>Node3&#45;&gt;Node1</title>
<path fill="none" stroke="#9a32cd" stroke-dasharray="5,2" d="M517.452,-558.684C562.708,-557.709 613.242,-549.236 652,-522.68 710.885,-482.333 734.177,-392.564 741.341,-356.805"/>
<polygon fill="#9a32cd" stroke="#9a32cd" points="517.248,-555.186 507.282,-558.781 517.315,-562.186 517.248,-555.186"/>
<text text-anchor="middle" x="591" y="-560.68" font-family="Helvetica,sans-Serif" font-size="10.00"> conditionsListView</text>
</g>
<!-- Node4 -->
<g id="node4" class="node"><title>Node4</title>
<polygon fill="white" stroke="#bfbfbf" points="311,-483.68 311,-513.68 497,-513.68 497,-483.68 311,-483.68"/>
<text text-anchor="start" x="319" y="-501.68" font-family="Helvetica,sans-Serif" font-size="10.00">ObservableList&lt; gamedata.events.</text>
<text text-anchor="middle" x="404" y="-490.68" font-family="Helvetica,sans-Serif" font-size="10.00">Event &gt;</text>
</g>
<!-- Node4&#45;&gt;Node1 -->
<g id="edge3" class="edge"><title>Node4&#45;&gt;Node1</title>
<path fill="none" stroke="#9a32cd" stroke-dasharray="5,2" d="M507.461,-508.264C554.398,-508.043 609.011,-500.925 652,-475.68 698.964,-448.1 727.405,-385.943 738.56,-357.021"/>
<polygon fill="#9a32cd" stroke="#9a32cd" points="507.281,-504.763 497.261,-508.206 507.241,-511.763 507.281,-504.763"/>
<text text-anchor="middle" x="591" y="-510.68" font-family="Helvetica,sans-Serif" font-size="10.00"> myObservableEventsList</text>
</g>
<!-- Node5 -->
<g id="node5" class="node"><title>Node5</title>
<polygon fill="white" stroke="#bfbfbf" points="381.5,-444.18 381.5,-463.18 426.5,-463.18 426.5,-444.18 381.5,-444.18"/>
<text text-anchor="middle" x="404" y="-451.18" font-family="Helvetica,sans-Serif" font-size="10.00">Stage</text>
</g>
<!-- Node5&#45;&gt;Node1 -->
<g id="edge4" class="edge"><title>Node5&#45;&gt;Node1</title>
<path fill="none" stroke="#9a32cd" stroke-dasharray="5,2" d="M436.802,-450.357C494.463,-444.011 613.828,-429.311 652,-412.68 682.704,-399.303 712.272,-373.421 729.267,-356.876"/>
<polygon fill="#9a32cd" stroke="#9a32cd" points="436.352,-446.885 426.788,-451.443 437.107,-453.844 436.352,-446.885"/>
<text text-anchor="middle" x="591" y="-463.68" font-family="Helvetica,sans-Serif" font-size="10.00"> newConditionStage</text>
<text text-anchor="middle" x="591" y="-452.68" font-family="Helvetica,sans-Serif" font-size="10.00">myStage</text>
<text text-anchor="middle" x="591" y="-441.68" font-family="Helvetica,sans-Serif" font-size="10.00">newActionStage</text>
</g>
<!-- Node6 -->
<g id="node6" class="node"><title>Node6</title>
<g id="a_node6"><a xlink:href="../../d5/daf/interfacegamedata_1_1gamecomponents_1_1_i_change_game_state.html" target="_top" xlink:title="gamedata.gamecomponents.\lIChangeGameState">
<polygon fill="white" stroke="black" points="324,-394.68 324,-424.68 484,-424.68 484,-394.68 324,-394.68"/>
<text text-anchor="start" x="332" y="-412.68" font-family="Helvetica,sans-Serif" font-size="10.00">gamedata.gamecomponents.</text>
<text text-anchor="middle" x="404" y="-401.68" font-family="Helvetica,sans-Serif" font-size="10.00">IChangeGameState</text>
</a>
</g>
</g>
<!-- Node6&#45;&gt;Node1 -->
<g id="edge5" class="edge"><title>Node6&#45;&gt;Node1</title>
<path fill="none" stroke="#9a32cd" stroke-dasharray="5,2" d="M494.426,-401.451C541.718,-395.987 600.494,-387.425 652,-374.68 670.613,-370.074 690.72,-363.104 707.375,-356.755"/>
<polygon fill="#9a32cd" stroke="#9a32cd" points="493.753,-398.005 484.208,-402.604 494.538,-404.961 493.753,-398.005"/>
<text text-anchor="middle" x="591" y="-400.68" font-family="Helvetica,sans-Serif" font-size="10.00"> myState</text>
</g>
<!-- Node7 -->
<g id="node7" class="node"><title>Node7</title>
<polygon fill="white" stroke="#bfbfbf" points="312,-345.68 312,-375.68 496,-375.68 496,-345.68 312,-345.68"/>
<text text-anchor="start" x="320" y="-363.68" font-family="Helvetica,sans-Serif" font-size="10.00">List&lt; gamedata.events.conditions.</text>
<text text-anchor="middle" x="404" y="-352.68" font-family="Helvetica,sans-Serif" font-size="10.00">Condition &gt;</text>
</g>
<!-- Node7&#45;&gt;Node1 -->
<g id="edge6" class="edge"><title>Node7&#45;&gt;Node1</title>
<path fill="none" stroke="#9a32cd" stroke-dasharray="5,2" d="M506.038,-360.128C550.812,-359.287 604.091,-357.473 652,-353.68 657.941,-353.209 664.087,-352.624 670.254,-351.967"/>
<polygon fill="#9a32cd" stroke="#9a32cd" points="505.968,-356.628 496.031,-360.302 506.091,-363.627 505.968,-356.628"/>
<text text-anchor="middle" x="591" y="-362.68" font-family="Helvetica,sans-Serif" font-size="10.00"> myConditions</text>
</g>
<!-- Node8 -->
<g id="node8" class="node"><title>Node8</title>
<polygon fill="white" stroke="#bfbfbf" points="307.5,-296.68 307.5,-326.68 500.5,-326.68 500.5,-296.68 307.5,-296.68"/>
<text text-anchor="start" x="315.5" y="-314.68" font-family="Helvetica,sans-Serif" font-size="10.00">List&lt; gamedata.events.globalaction.</text>
<text text-anchor="middle" x="404" y="-303.68" font-family="Helvetica,sans-Serif" font-size="10.00">GlobalAction &gt;</text>
</g>
<!-- Node8&#45;&gt;Node1 -->
<g id="edge7" class="edge"><title>Node8&#45;&gt;Node1</title>
<path fill="none" stroke="#9a32cd" stroke-dasharray="5,2" d="M510.999,-321.06C562.719,-325.637 623.661,-331.03 670.245,-335.153"/>
<polygon fill="#9a32cd" stroke="#9a32cd" points="511.054,-317.551 500.784,-320.156 510.437,-324.524 511.054,-317.551"/>
<text text-anchor="middle" x="591" y="-336.68" font-family="Helvetica,sans-Serif" font-size="10.00"> myActions</text>
</g>
<!-- Node9 -->
<g id="node9" class="node"><title>Node9</title>
<polygon fill="white" stroke="#bfbfbf" points="379.5,-230.18 379.5,-249.18 428.5,-249.18 428.5,-230.18 379.5,-230.18"/>
<text text-anchor="middle" x="404" y="-237.18" font-family="Helvetica,sans-Serif" font-size="10.00">Button</text>
</g>
<!-- Node9&#45;&gt;Node1 -->
<g id="edge8" class="edge"><title>Node9&#45;&gt;Node1</title>
<path fill="none" stroke="#9a32cd" stroke-dasharray="5,2" d="M438.408,-232.938C496.959,-221.804 615.379,-202.519 652,-220.68 697.156,-243.073 726.143,-299.407 737.952,-326.57"/>
<polygon fill="#9a32cd" stroke="#9a32cd" points="437.693,-229.511 428.539,-234.846 439.022,-236.384 437.693,-229.511"/>
<text text-anchor="middle" x="591" y="-311.68" font-family="Helvetica,sans-Serif" font-size="10.00"> newEvent</text>
<text text-anchor="middle" x="591" y="-300.68" font-family="Helvetica,sans-Serif" font-size="10.00">newAction</text>
<text text-anchor="middle" x="591" y="-289.68" font-family="Helvetica,sans-Serif" font-size="10.00">delAction</text>
<text text-anchor="middle" x="591" y="-278.68" font-family="Helvetica,sans-Serif" font-size="10.00">delCondition</text>
<text text-anchor="middle" x="591" y="-267.68" font-family="Helvetica,sans-Serif" font-size="10.00">editAction</text>
<text text-anchor="middle" x="591" y="-256.68" font-family="Helvetica,sans-Serif" font-size="10.00">editCondition</text>
<text text-anchor="middle" x="591" y="-245.68" font-family="Helvetica,sans-Serif" font-size="10.00">saveEvents</text>
<text text-anchor="middle" x="591" y="-234.68" font-family="Helvetica,sans-Serif" font-size="10.00">delEvent</text>
<text text-anchor="middle" x="591" y="-223.68" font-family="Helvetica,sans-Serif" font-size="10.00">newCondition</text>
</g>
<!-- Node10 -->
<g id="node10" class="node"><title>Node10</title>
<g id="a_node10"><a xlink:href="../../d5/d55/classauthoring_1_1data_1_1_events_data_wrapper.html" target="_top" xlink:title="authoring.data.EventsData\lWrapper">
<polygon fill="white" stroke="black" points="331,-180.68 331,-210.68 477,-210.68 477,-180.68 331,-180.68"/>
<text text-anchor="start" x="339" y="-198.68" font-family="Helvetica,sans-Serif" font-size="10.00">authoring.data.EventsData</text>
<text text-anchor="middle" x="404" y="-187.68" font-family="Helvetica,sans-Serif" font-size="10.00">Wrapper</text>
</a>
</g>
</g>
<!-- Node10&#45;&gt;Node1 -->
<g id="edge9" class="edge"><title>Node10&#45;&gt;Node1</title>
<path fill="none" stroke="#9a32cd" stroke-dasharray="5,2" d="M478.916,-179.044C530.604,-171.427 599.503,-169.616 652,-198.68 702.62,-226.705 729.657,-295.64 739.55,-326.415"/>
<polygon fill="#9a32cd" stroke="#9a32cd" points="478.15,-175.622 468.817,-180.638 479.241,-182.536 478.15,-175.622"/>
<text text-anchor="middle" x="591" y="-201.68" font-family="Helvetica,sans-Serif" font-size="10.00"> myData</text>
</g>
<!-- Node11 -->
<g id="node11" class="node"><title>Node11</title>
<polygon fill="white" stroke="#bfbfbf" points="0,-241.68 0,-271.68 188,-271.68 188,-241.68 0,-241.68"/>
<text text-anchor="start" x="8" y="-259.68" font-family="Helvetica,sans-Serif" font-size="10.00">List&lt; gamedata.gamecomponents.</text>
<text text-anchor="middle" x="94" y="-248.68" font-family="Helvetica,sans-Serif" font-size="10.00">Piece &gt;</text>
</g>
<!-- Node11&#45;&gt;Node10 -->
<g id="edge10" class="edge"><title>Node11&#45;&gt;Node10</title>
<path fill="none" stroke="#9a32cd" stroke-dasharray="5,2" d="M180.661,-239.714C227.964,-230.346 286.057,-218.841 330.998,-209.94"/>
<polygon fill="#9a32cd" stroke="#9a32cd" points="179.869,-236.303 170.74,-241.679 181.229,-243.17 179.869,-236.303"/>
<text text-anchor="middle" x="242" y="-236.68" font-family="Helvetica,sans-Serif" font-size="10.00"> myPieceTypes</text>
</g>
<!-- Node12 -->
<g id="node12" class="node"><title>Node12</title>
<polygon fill="white" stroke="#bfbfbf" points="0,-192.68 0,-222.68 188,-222.68 188,-192.68 0,-192.68"/>
<text text-anchor="start" x="8" y="-210.68" font-family="Helvetica,sans-Serif" font-size="10.00">List&lt; gamedata.gamecomponents.</text>
<text text-anchor="middle" x="94" y="-199.68" font-family="Helvetica,sans-Serif" font-size="10.00">Patch &gt;</text>
</g>
<!-- Node12&#45;&gt;Node10 -->
<g id="edge11" class="edge"><title>Node12&#45;&gt;Node10</title>
<path fill="none" stroke="#9a32cd" stroke-dasharray="5,2" d="M198.275,-203.656C241.695,-201.964 291.172,-200.037 330.608,-198.5"/>
<polygon fill="#9a32cd" stroke="#9a32cd" points="198.102,-200.16 188.246,-204.047 198.375,-207.155 198.102,-200.16"/>
<text text-anchor="middle" x="242" y="-206.68" font-family="Helvetica,sans-Serif" font-size="10.00"> myPatchTypes</text>
</g>
<!-- Node13 -->
<g id="node13" class="node"><title>Node13</title>
<polygon fill="white" stroke="#bfbfbf" points="24.5,-134.68 24.5,-164.68 163.5,-164.68 163.5,-134.68 24.5,-134.68"/>
<text text-anchor="start" x="32.5" y="-152.68" font-family="Helvetica,sans-Serif" font-size="10.00">List&lt; gameengine.player.</text>
<text text-anchor="middle" x="94" y="-141.68" font-family="Helvetica,sans-Serif" font-size="10.00">Player &gt;</text>
</g>
<!-- Node13&#45;&gt;Node10 -->
<g id="edge12" class="edge"><title>Node13&#45;&gt;Node10</title>
<path fill="none" stroke="#9a32cd" stroke-dasharray="5,2" d="M173.864,-161.458C222.301,-168.692 283.873,-177.888 330.991,-184.925"/>
<polygon fill="#9a32cd" stroke="#9a32cd" points="174.145,-157.961 163.738,-159.946 173.111,-164.885 174.145,-157.961"/>
<text text-anchor="middle" x="242" y="-180.68" font-family="Helvetica,sans-Serif" font-size="10.00"> myPlayers</text>
</g>
<!-- Node14 -->
<g id="node14" class="node"><title>Node14</title>
<g id="a_node14"><a xlink:href="../../de/dd8/classauthoring_1_1data_1_1_player_data.html" target="_top" xlink:title="authoring.data.PlayerData">
<polygon fill="white" stroke="black" points="332.5,-142.18 332.5,-161.18 475.5,-161.18 475.5,-142.18 332.5,-142.18"/>
<text text-anchor="middle" x="404" y="-149.18" font-family="Helvetica,sans-Serif" font-size="10.00">authoring.data.PlayerData</text>
</a>
</g>
</g>
<!-- Node13&#45;&gt;Node14 -->
<g id="edge14" class="edge"><title>Node13&#45;&gt;Node14</title>
<path fill="none" stroke="#9a32cd" stroke-dasharray="5,2" d="M173.899,-142.493C184.678,-141.742 195.606,-141.1 206,-140.68 237.974,-139.386 246.031,-139.276 278,-140.68 295.629,-141.454 314.616,-142.839 332.337,-144.372"/>
<polygon fill="#9a32cd" stroke="#9a32cd" points="173.352,-139.023 163.633,-143.242 173.861,-146.005 173.352,-139.023"/>
<text text-anchor="middle" x="242" y="-143.68" font-family="Helvetica,sans-Serif" font-size="10.00"> myPlayers</text>
</g>
<!-- Node14&#45;&gt;Node1 -->
<g id="edge13" class="edge"><title>Node14&#45;&gt;Node1</title>
<path fill="none" stroke="#9a32cd" stroke-dasharray="5,2" d="M485.778,-145.623C547.097,-142.605 625.27,-142.638 652,-159.68 712.603,-198.317 734.943,-290.119 741.596,-326.475"/>
<polygon fill="#9a32cd" stroke="#9a32cd" points="485.508,-142.132 475.706,-146.153 485.876,-149.122 485.508,-142.132"/>
<text text-anchor="middle" x="591" y="-162.68" font-family="Helvetica,sans-Serif" font-size="10.00"> myPlayerData</text>
</g>
<!-- Node15 -->
<g id="node15" class="node"><title>Node15</title>
<polygon fill="white" stroke="#bfbfbf" points="319,-104.18 319,-123.18 489,-123.18 489,-104.18 319,-104.18"/>
<text text-anchor="middle" x="404" y="-111.18" font-family="Helvetica,sans-Serif" font-size="10.00">List&lt; gamedata.events.Event &gt;</text>
</g>
<!-- Node15&#45;&gt;Node1 -->
<g id="edge15" class="edge"><title>Node15&#45;&gt;Node1</title>
<path fill="none" stroke="#9a32cd" stroke-dasharray="5,2" d="M456.897,-102.45C510.731,-93.8872 594.877,-89.4978 652,-129.68 719.929,-177.463 738.156,-286.583 742.645,-326.604"/>
<polygon fill="#9a32cd" stroke="#9a32cd" points="456.156,-99.0254 446.881,-104.147 457.325,-105.927 456.156,-99.0254"/>
<text text-anchor="middle" x="591" y="-132.68" font-family="Helvetica,sans-Serif" font-size="10.00"> myEvents</text>
</g>
<!-- Node16 -->
<g id="node16" class="node"><title>Node16</title>
<polygon fill="white" stroke="#bfbfbf" points="296.5,-54.6798 296.5,-84.6798 511.5,-84.6798 511.5,-54.6798 296.5,-54.6798"/>
<text text-anchor="start" x="304.5" y="-72.6798" font-family="Helvetica,sans-Serif" font-size="10.00">ListView&lt; gamedata.events.globalaction.</text>
<text text-anchor="middle" x="404" y="-61.6798" font-family="Helvetica,sans-Serif" font-size="10.00">GlobalAction &gt;</text>
</g>
<!-- Node16&#45;&gt;Node1 -->
<g id="edge16" class="edge"><title>Node16&#45;&gt;Node1</title>
<path fill="none" stroke="#9a32cd" stroke-dasharray="5,2" d="M480.73,-53.2249C533.786,-46.2062 603.582,-46.5524 652,-82.6798 732.888,-143.034 742.917,-280.445 743.959,-326.394"/>
<polygon fill="#9a32cd" stroke="#9a32cd" points="480.092,-49.7805 470.691,-54.6661 481.087,-56.7095 480.092,-49.7805"/>
<text text-anchor="middle" x="591" y="-85.6798" font-family="Helvetica,sans-Serif" font-size="10.00"> actionsListView</text>
</g>
<!-- Node17 -->
<g id="node17" class="node"><title>Node17</title>
<polygon fill="white" stroke="#bfbfbf" points="327,-5.67976 327,-35.6798 481,-35.6798 481,-5.67976 327,-5.67976"/>
<text text-anchor="start" x="335" y="-23.6798" font-family="Helvetica,sans-Serif" font-size="10.00">ListView&lt; gamedata.events.</text>
<text text-anchor="middle" x="404" y="-12.6798" font-family="Helvetica,sans-Serif" font-size="10.00">Event &gt;</text>
</g>
<!-- Node17&#45;&gt;Node1 -->
<g id="edge17" class="edge"><title>Node17&#45;&gt;Node1</title>
<path fill="none" stroke="#9a32cd" stroke-dasharray="5,2" d="M479.202,-4.14502C532.803,3.28034 603.934,3.25427 652,-34.6798 699.826,-72.4247 733.153,-270.261 741.787,-326.66"/>
<polygon fill="#9a32cd" stroke="#9a32cd" points="478.438,-0.720415 469.068,-5.66539 479.477,-7.64295 478.438,-0.720415"/>
<text text-anchor="middle" x="591" y="-37.6798" font-family="Helvetica,sans-Serif" font-size="10.00"> eventsListView</text>
</g>
</g>
</svg>
