<?xml version="1.0" encoding="UTF-8" standalone="no"?>
<!DOCTYPE svg PUBLIC "-//W3C//DTD SVG 1.1//EN"
 "http://www.w3.org/Graphics/SVG/1.1/DTD/svg11.dtd">
<!-- Generated by graphviz version 2.36.0 (20140111.2315)
 -->
<!-- Title: authoring.concretefeatures.StatsTotalEditor.addStatHBox Pages: 1 -->
<svg width="588pt" height="77pt"
 viewBox="0.00 0.00 588.00 77.00" xmlns="http://www.w3.org/2000/svg" xmlns:xlink="http://www.w3.org/1999/xlink">
<g id="graph0" class="graph" transform="scale(1 1) rotate(0) translate(4 73)">
<title>authoring.concretefeatures.StatsTotalEditor.addStatHBox</title>
<polygon fill="white" stroke="none" points="-4,4 -4,-73 584,-73 584,4 -4,4"/>
<!-- Node1 -->
<g id="node1" class="node"><title>Node1</title>
<polygon fill="#bfbfbf" stroke="black" points="0,-22 0,-52 158,-52 158,-22 0,-22"/>
<text text-anchor="start" x="8" y="-40" font-family="Helvetica,sans-Serif" font-size="10.00">authoring.concretefeatures.</text>
<text text-anchor="middle" x="79" y="-29" font-family="Helvetica,sans-Serif" font-size="10.00">StatsTotalEditor.addStatHBox</text>
</g>
<!-- Node2 -->
<g id="node2" class="node"><title>Node2</title>
<g id="a_node2"><a xlink:href="../../de/d18/classauthoring_1_1concretefeatures_1_1_stats_total_editor.html#a62b32dc4fbbb29f9c96c441a808d2da9" target="_top" xlink:title="authoring.concretefeatures.\lStatsTotalEditor.makeDeleteButton">
<polygon fill="white" stroke="black" points="194.5,-22 194.5,-52 379.5,-52 379.5,-22 194.5,-22"/>
<text text-anchor="start" x="202.5" y="-40" font-family="Helvetica,sans-Serif" font-size="10.00">authoring.concretefeatures.</text>
<text text-anchor="middle" x="287" y="-29" font-family="Helvetica,sans-Serif" font-size="10.00">StatsTotalEditor.makeDeleteButton</text>
</a>
</g>
</g>
<!-- Node1&#45;&gt;Node2 -->
<g id="edge1" class="edge"><title>Node1&#45;&gt;Node2</title>
<path fill="none" stroke="midnightblue" d="M158.173,-37C166.682,-37 175.43,-37 184.167,-37"/>
<polygon fill="midnightblue" stroke="midnightblue" points="184.404,-40.5001 194.404,-37 184.404,-33.5001 184.404,-40.5001"/>
</g>
<!-- Node3 -->
<g id="node3" class="node"><title>Node3</title>
<g id="a_node3"><a xlink:href="../../d6/d1d/classgamedata_1_1stats_1_1_stats.html#a255b2684db0dc7c91a722e44c938ee01" target="_top" xlink:title="gamedata.stats.Stats.remove">
<polygon fill="white" stroke="black" points="417.5,-49.5 417.5,-68.5 578.5,-68.5 578.5,-49.5 417.5,-49.5"/>
<text text-anchor="middle" x="498" y="-56.5" font-family="Helvetica,sans-Serif" font-size="10.00">gamedata.stats.Stats.remove</text>
</a>
</g>
</g>
<!-- Node2&#45;&gt;Node3 -->
<g id="edge2" class="edge"><title>Node2&#45;&gt;Node3</title>
<path fill="none" stroke="midnightblue" d="M379.67,-46.6495C388.755,-47.6058 397.971,-48.5759 407.038,-49.5303"/>
<polygon fill="midnightblue" stroke="midnightblue" points="406.885,-53.0335 417.196,-50.5996 407.618,-46.0719 406.885,-53.0335"/>
</g>
<!-- Node4 -->
<g id="node4" class="node"><title>Node4</title>
<g id="a_node4"><a xlink:href="../../d1/d45/classauthoring_1_1concretefeatures_1_1_stats_creator_box.html#aab35bf4ad64655cc0ef72ad6334e5086" target="_top" xlink:title="authoring.concretefeatures.\lStatsCreatorBox.getStatName">
<polygon fill="white" stroke="black" points="416,-0 416,-30 580,-30 580,-0 416,-0"/>
<text text-anchor="start" x="424" y="-18" font-family="Helvetica,sans-Serif" font-size="10.00">authoring.concretefeatures.</text>
<text text-anchor="middle" x="498" y="-7" font-family="Helvetica,sans-Serif" font-size="10.00">StatsCreatorBox.getStatName</text>
</a>
</g>
</g>
<!-- Node2&#45;&gt;Node4 -->
<g id="edge3" class="edge"><title>Node2&#45;&gt;Node4</title>
<path fill="none" stroke="midnightblue" d="M379.67,-27.3505C388.342,-26.4377 397.133,-25.5123 405.8,-24.6"/>
<polygon fill="midnightblue" stroke="midnightblue" points="406.324,-28.0642 415.903,-23.5365 405.592,-21.1027 406.324,-28.0642"/>
</g>
</g>
</svg>
