<?xml version="1.0" encoding="UTF-8" standalone="no"?>
<!DOCTYPE svg PUBLIC "-//W3C//DTD SVG 1.1//EN"
 "http://www.w3.org/Graphics/SVG/1.1/DTD/svg11.dtd">
<!-- Generated by graphviz version 2.36.0 (20140111.2315)
 -->
<!-- Title: authoring.concretefeatures.StatsTotalEditor.initStatsCreatorBoxes Pages: 1 -->
<svg width="824pt" height="154pt"
 viewBox="0.00 0.00 824.00 154.00" xmlns="http://www.w3.org/2000/svg" xmlns:xlink="http://www.w3.org/1999/xlink">
<g id="graph0" class="graph" transform="scale(1 1) rotate(0) translate(4 150)">
<title>authoring.concretefeatures.StatsTotalEditor.initStatsCreatorBoxes</title>
<polygon fill="white" stroke="none" points="-4,4 -4,-150 820,-150 820,4 -4,4"/>
<!-- Node1 -->
<g id="node1" class="node"><title>Node1</title>
<polygon fill="#bfbfbf" stroke="black" points="0.5,-50 0.5,-80 199.5,-80 199.5,-50 0.5,-50"/>
<text text-anchor="start" x="8.5" y="-68" font-family="Helvetica,sans-Serif" font-size="10.00">authoring.concretefeatures.</text>
<text text-anchor="middle" x="100" y="-57" font-family="Helvetica,sans-Serif" font-size="10.00">StatsTotalEditor.initStatsCreatorBoxes</text>
</g>
<!-- Node2 -->
<g id="node2" class="node"><title>Node2</title>
<g id="a_node2"><a xlink:href="../../de/d18/classauthoring_1_1concretefeatures_1_1_stats_total_editor.html#ab40fcac1825b2f518cedb59c4401f307" target="_top" xlink:title="authoring.concretefeatures.\lStatsTotalEditor.addStatHBox">
<polygon fill="white" stroke="black" points="236,-99 236,-129 394,-129 394,-99 236,-99"/>
<text text-anchor="start" x="244" y="-117" font-family="Helvetica,sans-Serif" font-size="10.00">authoring.concretefeatures.</text>
<text text-anchor="middle" x="315" y="-106" font-family="Helvetica,sans-Serif" font-size="10.00">StatsTotalEditor.addStatHBox</text>
</a>
</g>
</g>
<!-- Node1&#45;&gt;Node2 -->
<g id="edge1" class="edge"><title>Node1&#45;&gt;Node2</title>
<path fill="none" stroke="midnightblue" d="M166.355,-80.0346C189.253,-85.3024 215.151,-91.2601 238.791,-96.6984"/>
<polygon fill="midnightblue" stroke="midnightblue" points="238.239,-100.163 248.769,-98.9938 239.808,-93.3409 238.239,-100.163"/>
</g>
<!-- Node6 -->
<g id="node6" class="node"><title>Node6</title>
<g id="a_node6"><a xlink:href="../../d6/d1d/classgamedata_1_1stats_1_1_stats.html#a697416262aa5871d7b38fdcc0b92c586" target="_top" xlink:title="gamedata.stats.Stats.get\lStatNames">
<polygon fill="white" stroke="black" points="245,-50 245,-80 385,-80 385,-50 245,-50"/>
<text text-anchor="start" x="253" y="-68" font-family="Helvetica,sans-Serif" font-size="10.00">gamedata.stats.Stats.get</text>
<text text-anchor="middle" x="315" y="-57" font-family="Helvetica,sans-Serif" font-size="10.00">StatNames</text>
</a>
</g>
</g>
<!-- Node1&#45;&gt;Node6 -->
<g id="edge5" class="edge"><title>Node1&#45;&gt;Node6</title>
<path fill="none" stroke="midnightblue" d="M199.706,-65C211.37,-65 223.16,-65 234.511,-65"/>
<polygon fill="midnightblue" stroke="midnightblue" points="234.797,-68.5001 244.797,-65 234.797,-61.5001 234.797,-68.5001"/>
</g>
<!-- Node7 -->
<g id="node7" class="node"><title>Node7</title>
<g id="a_node7"><a xlink:href="../../d6/d1d/classgamedata_1_1stats_1_1_stats.html#af856afc55d980f35020bbeaefeb1777d" target="_top" xlink:title="gamedata.stats.Stats.get\lValue">
<polygon fill="white" stroke="black" points="245,-1 245,-31 385,-31 385,-1 245,-1"/>
<text text-anchor="start" x="253" y="-19" font-family="Helvetica,sans-Serif" font-size="10.00">gamedata.stats.Stats.get</text>
<text text-anchor="middle" x="315" y="-8" font-family="Helvetica,sans-Serif" font-size="10.00">Value</text>
</a>
</g>
</g>
<!-- Node1&#45;&gt;Node7 -->
<g id="edge6" class="edge"><title>Node1&#45;&gt;Node7</title>
<path fill="none" stroke="midnightblue" d="M166.355,-49.9654C189.253,-44.6976 215.151,-38.7399 238.791,-33.3016"/>
<polygon fill="midnightblue" stroke="midnightblue" points="239.808,-36.6591 248.769,-31.0062 238.239,-29.8373 239.808,-36.6591"/>
</g>
<!-- Node3 -->
<g id="node3" class="node"><title>Node3</title>
<g id="a_node3"><a xlink:href="../../de/d18/classauthoring_1_1concretefeatures_1_1_stats_total_editor.html#a62b32dc4fbbb29f9c96c441a808d2da9" target="_top" xlink:title="authoring.concretefeatures.\lStatsTotalEditor.makeDeleteButton">
<polygon fill="white" stroke="black" points="430.5,-99 430.5,-129 615.5,-129 615.5,-99 430.5,-99"/>
<text text-anchor="start" x="438.5" y="-117" font-family="Helvetica,sans-Serif" font-size="10.00">authoring.concretefeatures.</text>
<text text-anchor="middle" x="523" y="-106" font-family="Helvetica,sans-Serif" font-size="10.00">StatsTotalEditor.makeDeleteButton</text>
</a>
</g>
</g>
<!-- Node2&#45;&gt;Node3 -->
<g id="edge2" class="edge"><title>Node2&#45;&gt;Node3</title>
<path fill="none" stroke="midnightblue" d="M394.173,-114C402.682,-114 411.43,-114 420.167,-114"/>
<polygon fill="midnightblue" stroke="midnightblue" points="420.404,-117.5 430.404,-114 420.404,-110.5 420.404,-117.5"/>
</g>
<!-- Node4 -->
<g id="node4" class="node"><title>Node4</title>
<g id="a_node4"><a xlink:href="../../d6/d1d/classgamedata_1_1stats_1_1_stats.html#a255b2684db0dc7c91a722e44c938ee01" target="_top" xlink:title="gamedata.stats.Stats.remove">
<polygon fill="white" stroke="black" points="653.5,-126.5 653.5,-145.5 814.5,-145.5 814.5,-126.5 653.5,-126.5"/>
<text text-anchor="middle" x="734" y="-133.5" font-family="Helvetica,sans-Serif" font-size="10.00">gamedata.stats.Stats.remove</text>
</a>
</g>
</g>
<!-- Node3&#45;&gt;Node4 -->
<g id="edge3" class="edge"><title>Node3&#45;&gt;Node4</title>
<path fill="none" stroke="midnightblue" d="M615.67,-123.65C624.755,-124.606 633.971,-125.576 643.038,-126.53"/>
<polygon fill="midnightblue" stroke="midnightblue" points="642.885,-130.033 653.196,-127.6 643.618,-123.072 642.885,-130.033"/>
</g>
<!-- Node5 -->
<g id="node5" class="node"><title>Node5</title>
<g id="a_node5"><a xlink:href="../../d1/d45/classauthoring_1_1concretefeatures_1_1_stats_creator_box.html#aab35bf4ad64655cc0ef72ad6334e5086" target="_top" xlink:title="authoring.concretefeatures.\lStatsCreatorBox.getStatName">
<polygon fill="white" stroke="black" points="652,-77 652,-107 816,-107 816,-77 652,-77"/>
<text text-anchor="start" x="660" y="-95" font-family="Helvetica,sans-Serif" font-size="10.00">authoring.concretefeatures.</text>
<text text-anchor="middle" x="734" y="-84" font-family="Helvetica,sans-Serif" font-size="10.00">StatsCreatorBox.getStatName</text>
</a>
</g>
</g>
<!-- Node3&#45;&gt;Node5 -->
<g id="edge4" class="edge"><title>Node3&#45;&gt;Node5</title>
<path fill="none" stroke="midnightblue" d="M615.67,-104.35C624.342,-103.438 633.133,-102.512 641.8,-101.6"/>
<polygon fill="midnightblue" stroke="midnightblue" points="642.324,-105.064 651.903,-100.537 641.592,-98.1027 642.324,-105.064"/>
</g>
</g>
</svg>
