<?xml version="1.0" encoding="UTF-8" standalone="no"?>
<!DOCTYPE svg PUBLIC "-//W3C//DTD SVG 1.1//EN"
 "http://www.w3.org/Graphics/SVG/1.1/DTD/svg11.dtd">
<!-- Generated by graphviz version 2.36.0 (20140111.2315)
 -->
<!-- Title: authoring.concretefeatures.StatsTotalEditor.makeDeleteButton Pages: 1 -->
<svg width="394pt" height="77pt"
 viewBox="0.00 0.00 394.00 77.00" xmlns="http://www.w3.org/2000/svg" xmlns:xlink="http://www.w3.org/1999/xlink">
<g id="graph0" class="graph" transform="scale(1 1) rotate(0) translate(4 73)">
<title>authoring.concretefeatures.StatsTotalEditor.makeDeleteButton</title>
<polygon fill="white" stroke="none" points="-4,4 -4,-73 390,-73 390,4 -4,4"/>
<!-- Node1 -->
<g id="node1" class="node"><title>Node1</title>
<polygon fill="#bfbfbf" stroke="black" points="0.5,-17 0.5,-47 185.5,-47 185.5,-17 0.5,-17"/>
<text text-anchor="start" x="8.5" y="-35" font-family="Helvetica,sans-Serif" font-size="10.00">authoring.concretefeatures.</text>
<text text-anchor="middle" x="93" y="-24" font-family="Helvetica,sans-Serif" font-size="10.00">StatsTotalEditor.makeDeleteButton</text>
</g>
<!-- Node2 -->
<g id="node2" class="node"><title>Node2</title>
<g id="a_node2"><a xlink:href="../../d1/d45/classauthoring_1_1concretefeatures_1_1_stats_creator_box.html#aab35bf4ad64655cc0ef72ad6334e5086" target="_top" xlink:title="authoring.concretefeatures.\lStatsCreatorBox.getStatName">
<polygon fill="white" stroke="black" points="222,-39 222,-69 386,-69 386,-39 222,-39"/>
<text text-anchor="start" x="230" y="-57" font-family="Helvetica,sans-Serif" font-size="10.00">authoring.concretefeatures.</text>
<text text-anchor="middle" x="304" y="-46" font-family="Helvetica,sans-Serif" font-size="10.00">StatsCreatorBox.getStatName</text>
</a>
</g>
</g>
<!-- Node1&#45;&gt;Node2 -->
<g id="edge1" class="edge"><title>Node1&#45;&gt;Node2</title>
<path fill="none" stroke="midnightblue" d="M185.67,-41.6495C194.342,-42.5623 203.133,-43.4877 211.8,-44.4"/>
<polygon fill="midnightblue" stroke="midnightblue" points="211.592,-47.8973 221.903,-45.4635 212.324,-40.9358 211.592,-47.8973"/>
</g>
<!-- Node3 -->
<g id="node3" class="node"><title>Node3</title>
<g id="a_node3"><a xlink:href="../../d6/d1d/classgamedata_1_1stats_1_1_stats.html#a255b2684db0dc7c91a722e44c938ee01" target="_top" xlink:title="gamedata.stats.Stats.remove">
<polygon fill="white" stroke="black" points="223.5,-0.5 223.5,-19.5 384.5,-19.5 384.5,-0.5 223.5,-0.5"/>
<text text-anchor="middle" x="304" y="-7.5" font-family="Helvetica,sans-Serif" font-size="10.00">gamedata.stats.Stats.remove</text>
</a>
</g>
</g>
<!-- Node1&#45;&gt;Node3 -->
<g id="edge2" class="edge"><title>Node1&#45;&gt;Node3</title>
<path fill="none" stroke="midnightblue" d="M185.67,-22.3505C194.755,-21.3942 203.971,-20.4241 213.038,-19.4697"/>
<polygon fill="midnightblue" stroke="midnightblue" points="213.618,-22.9281 223.196,-18.4004 212.885,-15.9665 213.618,-22.9281"/>
</g>
</g>
</svg>
