<?xml version="1.0" encoding="UTF-8" standalone="no"?>
<!DOCTYPE svg PUBLIC "-//W3C//DTD SVG 1.1//EN"
 "http://www.w3.org/Graphics/SVG/1.1/DTD/svg11.dtd">
<!-- Generated by graphviz version 2.36.0 (20140111.2315)
 -->
<!-- Title: authoring.concretefeatures.StatsTotalEditor Pages: 1 -->
<svg width="628pt" height="126pt"
 viewBox="0.00 0.00 628.00 126.00" xmlns="http://www.w3.org/2000/svg" xmlns:xlink="http://www.w3.org/1999/xlink">
<g id="graph0" class="graph" transform="scale(1 1) rotate(0) translate(4 122)">
<title>authoring.concretefeatures.StatsTotalEditor</title>
<polygon fill="white" stroke="none" points="-4,4 -4,-122 624,-122 624,4 -4,4"/>
<!-- Node1 -->
<g id="node1" class="node"><title>Node1</title>
<polygon fill="#bfbfbf" stroke="black" points="470,-44 470,-74 620,-74 620,-44 470,-44"/>
<text text-anchor="start" x="478" y="-62" font-family="Helvetica,sans-Serif" font-size="10.00">authoring.concretefeatures.</text>
<text text-anchor="middle" x="545" y="-51" font-family="Helvetica,sans-Serif" font-size="10.00">StatsTotalEditor</text>
</g>
<!-- Node2 -->
<g id="node2" class="node"><title>Node2</title>
<g id="a_node2"><a xlink:href="../../d4/d2e/classauthoring_1_1abstractfeatures_1_1_popup_window.html" target="_top" xlink:title="authoring.abstractfeatures.\lPopupWindow">
<polygon fill="white" stroke="black" points="223,-88 223,-118 371,-118 371,-88 223,-88"/>
<text text-anchor="start" x="231" y="-106" font-family="Helvetica,sans-Serif" font-size="10.00">authoring.abstractfeatures.</text>
<text text-anchor="middle" x="297" y="-95" font-family="Helvetica,sans-Serif" font-size="10.00">PopupWindow</text>
</a>
</g>
</g>
<!-- Node2&#45;&gt;Node1 -->
<g id="edge1" class="edge"><title>Node2&#45;&gt;Node1</title>
<path fill="none" stroke="midnightblue" d="M381.16,-88.1258C409.901,-82.9852 441.895,-77.2627 469.864,-72.2602"/>
<polygon fill="midnightblue" stroke="midnightblue" points="380.37,-84.7116 371.142,-89.9177 381.602,-91.6022 380.37,-84.7116"/>
</g>
<!-- Node3 -->
<g id="node3" class="node"><title>Node3</title>
<polygon fill="white" stroke="#bfbfbf" points="41.5,-93.5 41.5,-112.5 86.5,-112.5 86.5,-93.5 41.5,-93.5"/>
<text text-anchor="middle" x="64" y="-100.5" font-family="Helvetica,sans-Serif" font-size="10.00">Stage</text>
</g>
<!-- Node3&#45;&gt;Node2 -->
<g id="edge2" class="edge"><title>Node3&#45;&gt;Node2</title>
<path fill="none" stroke="midnightblue" d="M96.9441,-103C129.303,-103 180.485,-103 222.847,-103"/>
<polygon fill="midnightblue" stroke="midnightblue" points="96.732,-99.5001 86.7319,-103 96.7319,-106.5 96.732,-99.5001"/>
</g>
<!-- Node4 -->
<g id="node4" class="node"><title>Node4</title>
<g id="a_node4"><a xlink:href="../../d6/d1d/classgamedata_1_1stats_1_1_stats.html" target="_top" xlink:title="gamedata.stats.Stats">
<polygon fill="white" stroke="black" points="236,-49.5 236,-68.5 358,-68.5 358,-49.5 236,-49.5"/>
<text text-anchor="middle" x="297" y="-56.5" font-family="Helvetica,sans-Serif" font-size="10.00">gamedata.stats.Stats</text>
</a>
</g>
</g>
<!-- Node4&#45;&gt;Node1 -->
<g id="edge3" class="edge"><title>Node4&#45;&gt;Node1</title>
<path fill="none" stroke="#9a32cd" stroke-dasharray="5,2" d="M368.287,-59C400.092,-59 437.697,-59 469.94,-59"/>
<polygon fill="#9a32cd" stroke="#9a32cd" points="368.178,-55.5001 358.178,-59 368.178,-62.5001 368.178,-55.5001"/>
<text text-anchor="middle" x="428" y="-62" font-family="Helvetica,sans-Serif" font-size="10.00"> myStats</text>
</g>
<!-- Node5 -->
<g id="node5" class="node"><title>Node5</title>
<polygon fill="white" stroke="#bfbfbf" points="0,-49.5 0,-68.5 128,-68.5 128,-49.5 0,-49.5"/>
<text text-anchor="middle" x="64" y="-56.5" font-family="Helvetica,sans-Serif" font-size="10.00">Map&lt; String, Double &gt;</text>
</g>
<!-- Node5&#45;&gt;Node4 -->
<g id="edge4" class="edge"><title>Node5&#45;&gt;Node4</title>
<path fill="none" stroke="#9a32cd" stroke-dasharray="5,2" d="M138.144,-59C169.584,-59 205.884,-59 235.741,-59"/>
<polygon fill="#9a32cd" stroke="#9a32cd" points="138.122,-55.5001 128.122,-59 138.122,-62.5001 138.122,-55.5001"/>
<text text-anchor="middle" x="168" y="-62" font-family="Helvetica,sans-Serif" font-size="10.00"> myStats</text>
</g>
<!-- Node6 -->
<g id="node6" class="node"><title>Node6</title>
<polygon fill="white" stroke="#bfbfbf" points="208,-0 208,-30 386,-30 386,-0 208,-0"/>
<text text-anchor="start" x="216" y="-18" font-family="Helvetica,sans-Serif" font-size="10.00">List&lt; authoring.concretefeatures.</text>
<text text-anchor="middle" x="297" y="-7" font-family="Helvetica,sans-Serif" font-size="10.00">StatsCreatorBox &gt;</text>
</g>
<!-- Node6&#45;&gt;Node1 -->
<g id="edge5" class="edge"><title>Node6&#45;&gt;Node1</title>
<path fill="none" stroke="#9a32cd" stroke-dasharray="5,2" d="M392.12,-31.8345C417.871,-36.4403 445.412,-41.3663 469.873,-45.7414"/>
<polygon fill="#9a32cd" stroke="#9a32cd" points="392.431,-28.3347 381.971,-30.0192 391.199,-35.2253 392.431,-28.3347"/>
<text text-anchor="middle" x="428" y="-46" font-family="Helvetica,sans-Serif" font-size="10.00"> myBoxes</text>
</g>
</g>
</svg>
