<?xml version="1.0" encoding="UTF-8" standalone="no"?>
<!DOCTYPE svg PUBLIC "-//W3C//DTD SVG 1.1//EN"
 "http://www.w3.org/Graphics/SVG/1.1/DTD/svg11.dtd">
<!-- Generated by graphviz version 2.36.0 (20140111.2315)
 -->
<!-- Title: authoring_environment.SuperTile.deselectTile Pages: 1 -->
<svg width="2158pt" height="346pt"
 viewBox="0.00 0.00 2158.00 346.00" xmlns="http://www.w3.org/2000/svg" xmlns:xlink="http://www.w3.org/1999/xlink">
<g id="graph0" class="graph" transform="scale(1 1) rotate(0) translate(4 342)">
<title>authoring_environment.SuperTile.deselectTile</title>
<polygon fill="white" stroke="none" points="-4,4 -4,-342 2154,-342 2154,4 -4,4"/>
<!-- Node1 -->
<g id="node1" class="node"><title>Node1</title>
<polygon fill="#bfbfbf" stroke="black" points="0,-182 0,-212 160,-212 160,-182 0,-182"/>
<text text-anchor="start" x="8" y="-200" font-family="Helvetica,sans-Serif" font-size="10.00">authoring_environment.Super</text>
<text text-anchor="middle" x="80" y="-189" font-family="Helvetica,sans-Serif" font-size="10.00">Tile.deselectTile</text>
</g>
<!-- Node2 -->
<g id="node2" class="node"><title>Node2</title>
<g id="a_node2"><a xlink:href="../../d5/da8/classauthoring__environment_1_1_range_grid.html#a01e0c5aeb77c4301820a374b0770483f" target="_top" xlink:title="authoring_environment.Range\lGrid.rangeAll">
<polygon fill="white" stroke="black" points="210.5,-308 210.5,-338 371.5,-338 371.5,-308 210.5,-308"/>
<text text-anchor="start" x="218.5" y="-326" font-family="Helvetica,sans-Serif" font-size="10.00">authoring_environment.Range</text>
<text text-anchor="middle" x="291" y="-315" font-family="Helvetica,sans-Serif" font-size="10.00">Grid.rangeAll</text>
</a>
</g>
</g>
<!-- Node1&#45;&gt;Node2 -->
<g id="edge1" class="edge"><title>Node1&#45;&gt;Node2</title>
<path fill="none" stroke="midnightblue" d="M102.316,-219.237C124.07,-240.79 159.704,-273.064 196,-293 206.811,-298.938 218.976,-303.908 230.878,-307.987"/>
<polygon fill="midnightblue" stroke="midnightblue" points="104.753,-216.725 95.2217,-212.099 99.7882,-221.659 104.753,-216.725"/>
</g>
<!-- Node4 -->
<g id="node4" class="node"><title>Node4</title>
<g id="a_node4"><a xlink:href="../../d5/da8/classauthoring__environment_1_1_range_grid.html#a1586131f94cc78931c9eb19ce22c9bba" target="_top" xlink:title="authoring_environment.Range\lGrid.rangeRadius">
<polygon fill="white" stroke="black" points="429.5,-292 429.5,-322 590.5,-322 590.5,-292 429.5,-292"/>
<text text-anchor="start" x="437.5" y="-310" font-family="Helvetica,sans-Serif" font-size="10.00">authoring_environment.Range</text>
<text text-anchor="middle" x="510" y="-299" font-family="Helvetica,sans-Serif" font-size="10.00">Grid.rangeRadius</text>
</a>
</g>
</g>
<!-- Node1&#45;&gt;Node4 -->
<g id="edge7" class="edge"><title>Node1&#45;&gt;Node4</title>
<path fill="none" stroke="midnightblue" d="M119.065,-216.548C141.063,-227.162 169.543,-239.762 196,-248 273.611,-272.167 365.296,-288.033 429.3,-297.164"/>
<polygon fill="midnightblue" stroke="midnightblue" points="120.579,-213.393 110.058,-212.14 117.501,-219.68 120.579,-213.393"/>
</g>
<!-- Node5 -->
<g id="node5" class="node"><title>Node5</title>
<g id="a_node5"><a xlink:href="../../d5/da8/classauthoring__environment_1_1_range_grid.html#ac170da90f00d9a8703aaab1cd3657888" target="_top" xlink:title="authoring_environment.Range\lGrid.rangeColumn">
<polygon fill="white" stroke="black" points="429.5,-243 429.5,-273 590.5,-273 590.5,-243 429.5,-243"/>
<text text-anchor="start" x="437.5" y="-261" font-family="Helvetica,sans-Serif" font-size="10.00">authoring_environment.Range</text>
<text text-anchor="middle" x="510" y="-250" font-family="Helvetica,sans-Serif" font-size="10.00">Grid.rangeColumn</text>
</a>
</g>
</g>
<!-- Node1&#45;&gt;Node5 -->
<g id="edge5" class="edge"><title>Node1&#45;&gt;Node5</title>
<path fill="none" stroke="midnightblue" d="M158.056,-214.056C170.7,-216.574 183.69,-218.992 196,-221 274.982,-233.884 365.875,-244.123 429.292,-250.534"/>
<polygon fill="midnightblue" stroke="midnightblue" points="158.505,-210.576 148.009,-212.021 157.115,-217.437 158.505,-210.576"/>
</g>
<!-- Node6 -->
<g id="node6" class="node"><title>Node6</title>
<g id="a_node6"><a xlink:href="../../d5/da8/classauthoring__environment_1_1_range_grid.html#a5f6bb1c5cb9fb99ca4a1c45c0e9913bd" target="_top" xlink:title="authoring_environment.Range\lGrid.rangeRow">
<polygon fill="white" stroke="black" points="210.5,-182 210.5,-212 371.5,-212 371.5,-182 210.5,-182"/>
<text text-anchor="start" x="218.5" y="-200" font-family="Helvetica,sans-Serif" font-size="10.00">authoring_environment.Range</text>
<text text-anchor="middle" x="291" y="-189" font-family="Helvetica,sans-Serif" font-size="10.00">Grid.rangeRow</text>
</a>
</g>
</g>
<!-- Node1&#45;&gt;Node6 -->
<g id="edge8" class="edge"><title>Node1&#45;&gt;Node6</title>
<path fill="none" stroke="midnightblue" d="M170.112,-197C183.424,-197 197.077,-197 210.18,-197"/>
<polygon fill="midnightblue" stroke="midnightblue" points="170.014,-193.5 160.014,-197 170.014,-200.5 170.014,-193.5"/>
</g>
<!-- Node7 -->
<g id="node7" class="node"><title>Node7</title>
<g id="a_node7"><a xlink:href="../../da/d55/classgame_player_1_1_keyboard_movement.html#af45fd8d279b1ee2d6be5466d425485ab" target="_top" xlink:title="gamePlayer.KeyboardMovement.set\lMovementKeyControl">
<polygon fill="white" stroke="black" points="196.5,-102 196.5,-132 385.5,-132 385.5,-102 196.5,-102"/>
<text text-anchor="start" x="204.5" y="-120" font-family="Helvetica,sans-Serif" font-size="10.00">gamePlayer.KeyboardMovement.set</text>
<text text-anchor="middle" x="291" y="-109" font-family="Helvetica,sans-Serif" font-size="10.00">MovementKeyControl</text>
</a>
</g>
</g>
<!-- Node1&#45;&gt;Node7 -->
<g id="edge10" class="edge"><title>Node1&#45;&gt;Node7</title>
<path fill="none" stroke="midnightblue" d="M129.829,-178.31C166.565,-164.248 216.264,-145.224 250.51,-132.116"/>
<polygon fill="midnightblue" stroke="midnightblue" points="128.399,-175.109 120.311,-181.953 130.902,-181.646 128.399,-175.109"/>
</g>
<!-- Node24 -->
<g id="node24" class="node"><title>Node24</title>
<g id="a_node24"><a xlink:href="../../df/dd5/classgame_player_1_1_view_controller.html#a27da17c1280cd953a14f6b76b18f9a4b" target="_top" xlink:title="gamePlayer.ViewController.toggle\lKeyboardControl">
<polygon fill="white" stroke="black" points="422,-49 422,-79 598,-79 598,-49 422,-49"/>
<text text-anchor="start" x="430" y="-67" font-family="Helvetica,sans-Serif" font-size="10.00">gamePlayer.ViewController.toggle</text>
<text text-anchor="middle" x="510" y="-56" font-family="Helvetica,sans-Serif" font-size="10.00">KeyboardControl</text>
</a>
</g>
</g>
<!-- Node1&#45;&gt;Node24 -->
<g id="edge34" class="edge"><title>Node1&#45;&gt;Node24</title>
<path fill="none" stroke="midnightblue" d="M98.3385,-173.991C118.672,-148.959 154.871,-110.101 196,-92 267.532,-60.5182 357.016,-55.5016 421.963,-57.1895"/>
<polygon fill="midnightblue" stroke="midnightblue" points="95.5379,-171.889 92.0669,-181.899 101.023,-176.239 95.5379,-171.889"/>
</g>
<!-- Node25 -->
<g id="node25" class="node"><title>Node25</title>
<g id="a_node25"><a xlink:href="../../d5/da8/classauthoring__environment_1_1_range_grid.html#a8d379fe2032420f63eaf093720af2b28" target="_top" xlink:title="authoring_environment.Range\lGrid.swtichHighlight">
<polygon fill="white" stroke="black" points="210.5,-4 210.5,-34 371.5,-34 371.5,-4 210.5,-4"/>
<text text-anchor="start" x="218.5" y="-22" font-family="Helvetica,sans-Serif" font-size="10.00">authoring_environment.Range</text>
<text text-anchor="middle" x="291" y="-11" font-family="Helvetica,sans-Serif" font-size="10.00">Grid.swtichHighlight</text>
</a>
</g>
</g>
<!-- Node1&#45;&gt;Node25 -->
<g id="edge31" class="edge"><title>Node1&#45;&gt;Node25</title>
<path fill="none" stroke="midnightblue" d="M95.1761,-172.846C114.438,-141.906 151.613,-88.4175 196,-56 208.463,-46.8974 223.466,-39.6807 237.789,-34.1291"/>
<polygon fill="midnightblue" stroke="midnightblue" points="92.0089,-171.317 89.7853,-181.676 97.9834,-174.965 92.0089,-171.317"/>
</g>
<!-- Node3 -->
<g id="node3" class="node"><title>Node3</title>
<g id="a_node3"><a xlink:href="../../d2/d0a/classauthoring_1_1concretefeatures_1_1_range_editor_1_1select_range_handler.html#aeb6a8188897ef8831cb7a9b2ed41cad1" target="_top" xlink:title="authoring.concretefeatures.\lRangeEditor.selectRangeHandler.handle">
<polygon fill="white" stroke="black" points="634.5,-302 634.5,-332 841.5,-332 841.5,-302 634.5,-302"/>
<text text-anchor="start" x="642.5" y="-320" font-family="Helvetica,sans-Serif" font-size="10.00">authoring.concretefeatures.</text>
<text text-anchor="middle" x="738" y="-309" font-family="Helvetica,sans-Serif" font-size="10.00">RangeEditor.selectRangeHandler.handle</text>
</a>
</g>
</g>
<!-- Node2&#45;&gt;Node3 -->
<g id="edge2" class="edge"><title>Node2&#45;&gt;Node3</title>
<path fill="none" stroke="midnightblue" d="M381.918,-329.255C395.348,-329.98 409.032,-330.601 422,-331 500.185,-333.403 519.876,-334.924 598,-331 609.748,-330.41 622.034,-329.541 634.232,-328.52"/>
<polygon fill="midnightblue" stroke="midnightblue" points="381.895,-325.748 371.715,-328.682 381.503,-332.737 381.895,-325.748"/>
</g>
<!-- Node2&#45;&gt;Node4 -->
<g id="edge3" class="edge"><title>Node2&#45;&gt;Node4</title>
<path fill="none" stroke="midnightblue" d="M381.85,-316.375C397.634,-315.211 413.96,-314.008 429.439,-312.866"/>
<polygon fill="midnightblue" stroke="midnightblue" points="381.286,-312.907 371.571,-317.133 381.801,-319.888 381.286,-312.907"/>
</g>
<!-- Node4&#45;&gt;Node3 -->
<g id="edge4" class="edge"><title>Node4&#45;&gt;Node3</title>
<path fill="none" stroke="midnightblue" d="M600.71,-310.969C611.742,-311.458 623.083,-311.959 634.288,-312.455"/>
<polygon fill="midnightblue" stroke="midnightblue" points="600.824,-307.471 590.679,-310.526 600.515,-314.464 600.824,-307.471"/>
</g>
<!-- Node5&#45;&gt;Node3 -->
<g id="edge6" class="edge"><title>Node5&#45;&gt;Node3</title>
<path fill="none" stroke="midnightblue" d="M573.759,-275.759C593.049,-281.107 614.369,-286.906 634,-292 646.824,-295.328 660.582,-298.761 673.734,-301.978"/>
<polygon fill="midnightblue" stroke="midnightblue" points="574.449,-272.318 563.877,-273.01 572.573,-279.062 574.449,-272.318"/>
</g>
<!-- Node6&#45;&gt;Node3 -->
<g id="edge9" class="edge"><title>Node6&#45;&gt;Node3</title>
<path fill="none" stroke="midnightblue" d="M382.027,-198.985C459.2,-202.225 563.252,-210.726 598,-233 623.861,-249.577 609.188,-273.89 634,-292 639.351,-295.906 645.233,-299.207 651.393,-301.997"/>
<polygon fill="midnightblue" stroke="midnightblue" points="381.934,-195.479 371.803,-198.58 381.657,-202.473 381.934,-195.479"/>
</g>
<!-- Node8 -->
<g id="node8" class="node"><title>Node8</title>
<g id="a_node8"><a xlink:href="../../df/dd5/classgame_player_1_1_view_controller.html#a7eb038fd9f20604ade0406f27ef76657" target="_top" xlink:title="gamePlayer.ViewController.bind\lAction">
<polygon fill="white" stroke="black" points="426.5,-155 426.5,-185 593.5,-185 593.5,-155 426.5,-155"/>
<text text-anchor="start" x="434.5" y="-173" font-family="Helvetica,sans-Serif" font-size="10.00">gamePlayer.ViewController.bind</text>
<text text-anchor="middle" x="510" y="-162" font-family="Helvetica,sans-Serif" font-size="10.00">Action</text>
</a>
</g>
</g>
<!-- Node7&#45;&gt;Node8 -->
<g id="edge11" class="edge"><title>Node7&#45;&gt;Node8</title>
<path fill="none" stroke="midnightblue" d="M363.412,-134.442C390.508,-141.06 421.112,-148.534 447.243,-154.916"/>
<polygon fill="midnightblue" stroke="midnightblue" points="364.148,-131.019 353.603,-132.046 362.487,-137.819 364.148,-131.019"/>
</g>
<!-- Node10 -->
<g id="node10" class="node"><title>Node10</title>
<g id="a_node10"><a xlink:href="../../df/dd5/classgame_player_1_1_view_controller.html#a95c2acd43bb39b8606c69971c1cd30f5" target="_top" xlink:title="gamePlayer.ViewController.perform\lAction">
<polygon fill="white" stroke="black" points="878.5,-102 878.5,-132 1063.5,-132 1063.5,-102 878.5,-102"/>
<text text-anchor="start" x="886.5" y="-120" font-family="Helvetica,sans-Serif" font-size="10.00">gamePlayer.ViewController.perform</text>
<text text-anchor="middle" x="971" y="-109" font-family="Helvetica,sans-Serif" font-size="10.00">Action</text>
</a>
</g>
</g>
<!-- Node7&#45;&gt;Node10 -->
<g id="edge29" class="edge"><title>Node7&#45;&gt;Node10</title>
<path fill="none" stroke="midnightblue" d="M395.665,-111.978C527.422,-109.599 752.805,-109.676 878.482,-112.21"/>
<polygon fill="midnightblue" stroke="midnightblue" points="395.493,-108.481 385.561,-112.169 395.626,-115.479 395.493,-108.481"/>
</g>
<!-- Node7&#45;&gt;Node24 -->
<g id="edge30" class="edge"><title>Node7&#45;&gt;Node24</title>
<path fill="none" stroke="midnightblue" d="M363.412,-99.5583C390.508,-92.9405 421.112,-85.4658 447.243,-79.0835"/>
<polygon fill="midnightblue" stroke="midnightblue" points="362.487,-96.1813 353.603,-101.954 364.148,-102.981 362.487,-96.1813"/>
</g>
<!-- Node9 -->
<g id="node9" class="node"><title>Node9</title>
<g id="a_node9"><a xlink:href="../../d1/db7/classgame_player_1_1_keyboard_action.html#a08ace57322b8639020688dd9493c3e1f" target="_top" xlink:title="gamePlayer.KeyboardAction.set\lActionKeyControl">
<polygon fill="white" stroke="black" points="654,-204 654,-234 822,-234 822,-204 654,-204"/>
<text text-anchor="start" x="662" y="-222" font-family="Helvetica,sans-Serif" font-size="10.00">gamePlayer.KeyboardAction.set</text>
<text text-anchor="middle" x="738" y="-211" font-family="Helvetica,sans-Serif" font-size="10.00">ActionKeyControl</text>
</a>
</g>
</g>
<!-- Node8&#45;&gt;Node9 -->
<g id="edge12" class="edge"><title>Node8&#45;&gt;Node9</title>
<path fill="none" stroke="midnightblue" d="M590.263,-187.185C615.535,-192.665 643.286,-198.682 667.788,-203.994"/>
<polygon fill="midnightblue" stroke="midnightblue" points="590.858,-183.733 580.343,-185.035 589.375,-190.574 590.858,-183.733"/>
</g>
<!-- Node20 -->
<g id="node20" class="node"><title>Node20</title>
<g id="a_node20"><a xlink:href="../../df/dd5/classgame_player_1_1_view_controller.html#ab8c14a8c53be9021a62d0107c2f75ef6" target="_top" xlink:title="gamePlayer.ViewController.update\lActions">
<polygon fill="white" stroke="black" points="648,-253 648,-283 828,-283 828,-253 648,-253"/>
<text text-anchor="start" x="656" y="-271" font-family="Helvetica,sans-Serif" font-size="10.00">gamePlayer.ViewController.update</text>
<text text-anchor="middle" x="738" y="-260" font-family="Helvetica,sans-Serif" font-size="10.00">Actions</text>
</a>
</g>
</g>
<!-- Node8&#45;&gt;Node20 -->
<g id="edge25" class="edge"><title>Node8&#45;&gt;Node20</title>
<path fill="none" stroke="midnightblue" d="M578.643,-189.158C585.441,-192.293 592.029,-195.889 598,-200 618.53,-214.133 612.829,-229.846 634,-243 640.252,-246.884 647.065,-250.165 654.111,-252.937"/>
<polygon fill="midnightblue" stroke="midnightblue" points="579.852,-185.869 569.281,-185.165 577.106,-192.308 579.852,-185.869"/>
</g>
<!-- Node23 -->
<g id="node23" class="node"><title>Node23</title>
<g id="a_node23"><a xlink:href="../../df/df0/classtests_1_1_view_controller_test.html#a74e99f9c72cbdcd2d56271b2ad2df1ce" target="_top" xlink:title="tests.ViewControllerTest.bind\lActionTest">
<polygon fill="white" stroke="black" points="661,-155 661,-185 815,-185 815,-155 661,-155"/>
<text text-anchor="start" x="669" y="-173" font-family="Helvetica,sans-Serif" font-size="10.00">tests.ViewControllerTest.bind</text>
<text text-anchor="middle" x="738" y="-162" font-family="Helvetica,sans-Serif" font-size="10.00">ActionTest</text>
</a>
</g>
</g>
<!-- Node8&#45;&gt;Node23 -->
<g id="edge28" class="edge"><title>Node8&#45;&gt;Node23</title>
<path fill="none" stroke="midnightblue" d="M603.68,-170C622.633,-170 642.375,-170 660.678,-170"/>
<polygon fill="midnightblue" stroke="midnightblue" points="603.551,-166.5 593.551,-170 603.55,-173.5 603.551,-166.5"/>
</g>
<!-- Node9&#45;&gt;Node10 -->
<g id="edge13" class="edge"><title>Node9&#45;&gt;Node10</title>
<path fill="none" stroke="midnightblue" d="M822.733,-200.971C829.331,-198.857 835.825,-196.537 842,-194 882.299,-177.442 924.83,-149.456 949.309,-132.171"/>
<polygon fill="midnightblue" stroke="midnightblue" points="821.569,-197.667 813.017,-203.921 823.603,-204.365 821.569,-197.667"/>
</g>
<!-- Node10&#45;&gt;Node7 -->
<g id="edge14" class="edge"><title>Node10&#45;&gt;Node7</title>
<path fill="none" stroke="midnightblue" d="M868.46,-121.983C737.719,-124.389 512.309,-124.338 385.561,-121.831"/>
<polygon fill="midnightblue" stroke="midnightblue" points="868.551,-125.482 878.482,-121.79 868.417,-118.483 868.551,-125.482"/>
</g>
<!-- Node11 -->
<g id="node11" class="node"><title>Node11</title>
<g id="a_node11"><a xlink:href="../../df/dd5/classgame_player_1_1_view_controller.html#a22ee80193bbac79a935ee961a183bfcd" target="_top" xlink:title="gamePlayer.ViewController.set\lOnClick">
<polygon fill="white" stroke="black" points="1100.5,-124 1100.5,-154 1261.5,-154 1261.5,-124 1100.5,-124"/>
<text text-anchor="start" x="1108.5" y="-142" font-family="Helvetica,sans-Serif" font-size="10.00">gamePlayer.ViewController.set</text>
<text text-anchor="middle" x="1181" y="-131" font-family="Helvetica,sans-Serif" font-size="10.00">OnClick</text>
</a>
</g>
</g>
<!-- Node10&#45;&gt;Node11 -->
<g id="edge15" class="edge"><title>Node10&#45;&gt;Node11</title>
<path fill="none" stroke="midnightblue" d="M1073.68,-127.754C1082.68,-128.707 1091.71,-129.661 1100.49,-130.59"/>
<polygon fill="midnightblue" stroke="midnightblue" points="1073.85,-124.253 1063.53,-126.682 1073.11,-131.214 1073.85,-124.253"/>
</g>
<!-- Node12 -->
<g id="node12" class="node"><title>Node12</title>
<g id="a_node12"><a xlink:href="../../df/dd5/classgame_player_1_1_view_controller.html#a10a40967a873f067cf91b024ff85b38e" target="_top" xlink:title="gamePlayer.ViewController.initializeGrid">
<polygon fill="white" stroke="black" points="1298,-131.5 1298,-150.5 1502,-150.5 1502,-131.5 1298,-131.5"/>
<text text-anchor="middle" x="1400" y="-138.5" font-family="Helvetica,sans-Serif" font-size="10.00">gamePlayer.ViewController.initializeGrid</text>
</a>
</g>
</g>
<!-- Node11&#45;&gt;Node12 -->
<g id="edge16" class="edge"><title>Node11&#45;&gt;Node12</title>
<path fill="none" stroke="midnightblue" d="M1271.68,-139.827C1280.36,-139.907 1289.21,-139.988 1298,-140.069"/>
<polygon fill="midnightblue" stroke="midnightblue" points="1271.6,-136.326 1261.57,-139.733 1271.54,-143.325 1271.6,-136.326"/>
</g>
<!-- Node13 -->
<g id="node13" class="node"><title>Node13</title>
<g id="a_node13"><a xlink:href="../../df/dd5/classgame_player_1_1_view_controller.html#a0d1a3d443966f151b070dc751d2faf9a" target="_top" xlink:title="gamePlayer.ViewController.restartGame">
<polygon fill="white" stroke="black" points="1538,-213.5 1538,-232.5 1746,-232.5 1746,-213.5 1538,-213.5"/>
<text text-anchor="middle" x="1642" y="-220.5" font-family="Helvetica,sans-Serif" font-size="10.00">gamePlayer.ViewController.restartGame</text>
</a>
</g>
</g>
<!-- Node12&#45;&gt;Node13 -->
<g id="edge17" class="edge"><title>Node12&#45;&gt;Node13</title>
<path fill="none" stroke="midnightblue" d="M1426.99,-155.327C1453.98,-169.633 1497.81,-191.273 1538,-204 1549.96,-207.788 1562.96,-210.915 1575.56,-213.461"/>
<polygon fill="midnightblue" stroke="midnightblue" points="1428.64,-152.242 1418.18,-150.599 1425.33,-158.411 1428.64,-152.242"/>
</g>
<!-- Node14 -->
<g id="node14" class="node"><title>Node14</title>
<g id="a_node14"><a xlink:href="../../df/dd5/classgame_player_1_1_view_controller.html#af1870a0b6786d96d118021fc62b6475d" target="_top" xlink:title="gamePlayer.ViewController.beginGame">
<polygon fill="white" stroke="black" points="1541,-175.5 1541,-194.5 1743,-194.5 1743,-175.5 1541,-175.5"/>
<text text-anchor="middle" x="1642" y="-182.5" font-family="Helvetica,sans-Serif" font-size="10.00">gamePlayer.ViewController.beginGame</text>
</a>
</g>
</g>
<!-- Node12&#45;&gt;Node14 -->
<g id="edge18" class="edge"><title>Node12&#45;&gt;Node14</title>
<path fill="none" stroke="midnightblue" d="M1463.27,-152.417C1502.33,-159.577 1552.09,-168.701 1589.03,-175.471"/>
<polygon fill="midnightblue" stroke="midnightblue" points="1463.54,-148.908 1453.08,-150.547 1462.28,-155.793 1463.54,-148.908"/>
</g>
<!-- Node15 -->
<g id="node15" class="node"><title>Node15</title>
<g id="a_node15"><a xlink:href="../../df/dd5/classgame_player_1_1_view_controller.html#a4c1754d129a4eac955390b428eaa448a" target="_top" xlink:title="gamePlayer.ViewController.test\lPlayGame">
<polygon fill="white" stroke="black" points="1559.5,-126 1559.5,-156 1724.5,-156 1724.5,-126 1559.5,-126"/>
<text text-anchor="start" x="1567.5" y="-144" font-family="Helvetica,sans-Serif" font-size="10.00">gamePlayer.ViewController.test</text>
<text text-anchor="middle" x="1642" y="-133" font-family="Helvetica,sans-Serif" font-size="10.00">PlayGame</text>
</a>
</g>
</g>
<!-- Node12&#45;&gt;Node15 -->
<g id="edge19" class="edge"><title>Node12&#45;&gt;Node15</title>
<path fill="none" stroke="midnightblue" d="M1512.43,-141C1528.23,-141 1544.22,-141 1559.32,-141"/>
<polygon fill="midnightblue" stroke="midnightblue" points="1512.09,-137.5 1502.09,-141 1512.09,-144.5 1512.09,-137.5"/>
</g>
<!-- Node17 -->
<g id="node17" class="node"><title>Node17</title>
<g id="a_node17"><a xlink:href="../../df/dd5/classgame_player_1_1_view_controller.html#a620f8a02d3ac7677cd179fcd812aca55" target="_top" xlink:title="gamePlayer.ViewController.check\lEndActions">
<polygon fill="white" stroke="black" points="1555,-77 1555,-107 1729,-107 1729,-77 1555,-77"/>
<text text-anchor="start" x="1563" y="-95" font-family="Helvetica,sans-Serif" font-size="10.00">gamePlayer.ViewController.check</text>
<text text-anchor="middle" x="1642" y="-84" font-family="Helvetica,sans-Serif" font-size="10.00">EndActions</text>
</a>
</g>
</g>
<!-- Node12&#45;&gt;Node17 -->
<g id="edge21" class="edge"><title>Node12&#45;&gt;Node17</title>
<path fill="none" stroke="midnightblue" d="M1457.42,-129.48C1490.19,-122.791 1531.84,-114.287 1567.18,-107.071"/>
<polygon fill="midnightblue" stroke="midnightblue" points="1456.66,-126.064 1447.56,-131.494 1458.06,-132.923 1456.66,-126.064"/>
</g>
<!-- Node16 -->
<g id="node16" class="node"><title>Node16</title>
<g id="a_node16"><a xlink:href="../../db/d40/classfxml__main_1_1_authoring_controller.html#a2ec133c8edf0a7ab1e84f2e12455233d" target="_top" xlink:title="fxml_main.AuthoringController.save\lAsGame">
<polygon fill="white" stroke="black" points="1782.5,-126 1782.5,-156 1969.5,-156 1969.5,-126 1782.5,-126"/>
<text text-anchor="start" x="1790.5" y="-144" font-family="Helvetica,sans-Serif" font-size="10.00">fxml_main.AuthoringController.save</text>
<text text-anchor="middle" x="1876" y="-133" font-family="Helvetica,sans-Serif" font-size="10.00">AsGame</text>
</a>
</g>
</g>
<!-- Node15&#45;&gt;Node16 -->
<g id="edge20" class="edge"><title>Node15&#45;&gt;Node16</title>
<path fill="none" stroke="midnightblue" d="M1734.96,-141C1750.59,-141 1766.83,-141 1782.47,-141"/>
<polygon fill="midnightblue" stroke="midnightblue" points="1734.79,-137.5 1724.79,-141 1734.79,-144.5 1734.79,-137.5"/>
</g>
<!-- Node17&#45;&gt;Node10 -->
<g id="edge22" class="edge"><title>Node17&#45;&gt;Node10</title>
<path fill="none" stroke="midnightblue" d="M1544.76,-95.5966C1416.15,-100.403 1189.83,-108.86 1063.62,-113.576"/>
<polygon fill="midnightblue" stroke="midnightblue" points="1545.12,-99.0854 1554.98,-95.2143 1544.86,-92.0903 1545.12,-99.0854"/>
</g>
<!-- Node18 -->
<g id="node18" class="node"><title>Node18</title>
<g id="a_node18"><a xlink:href="../../df/dd5/classgame_player_1_1_view_controller.html#a13ea7814bde61a8042c5b1a23af41416" target="_top" xlink:title="gamePlayer.ViewController.end\lAction">
<polygon fill="white" stroke="black" points="1794,-77 1794,-107 1958,-107 1958,-77 1794,-77"/>
<text text-anchor="start" x="1802" y="-95" font-family="Helvetica,sans-Serif" font-size="10.00">gamePlayer.ViewController.end</text>
<text text-anchor="middle" x="1876" y="-84" font-family="Helvetica,sans-Serif" font-size="10.00">Action</text>
</a>
</g>
</g>
<!-- Node17&#45;&gt;Node18 -->
<g id="edge23" class="edge"><title>Node17&#45;&gt;Node18</title>
<path fill="none" stroke="midnightblue" d="M1739.06,-92C1757.22,-92 1776.05,-92 1793.7,-92"/>
<polygon fill="midnightblue" stroke="midnightblue" points="1739.06,-88.5001 1729.06,-92 1739.06,-95.5001 1739.06,-88.5001"/>
</g>
<!-- Node19 -->
<g id="node19" class="node"><title>Node19</title>
<g id="a_node19"><a xlink:href="../../db/d00/classgame_player_1_1_apply_state.html#aed42c1aba25264bc6880036f693a1c9e" target="_top" xlink:title="gamePlayer.ApplyState.on\lClick">
<polygon fill="white" stroke="black" points="2006.5,-77 2006.5,-107 2149.5,-107 2149.5,-77 2006.5,-77"/>
<text text-anchor="start" x="2014.5" y="-95" font-family="Helvetica,sans-Serif" font-size="10.00">gamePlayer.ApplyState.on</text>
<text text-anchor="middle" x="2078" y="-84" font-family="Helvetica,sans-Serif" font-size="10.00">Click</text>
</a>
</g>
</g>
<!-- Node18&#45;&gt;Node19 -->
<g id="edge24" class="edge"><title>Node18&#45;&gt;Node19</title>
<path fill="none" stroke="midnightblue" d="M1968.27,-92C1981.08,-92 1994.08,-92 2006.43,-92"/>
<polygon fill="midnightblue" stroke="midnightblue" points="1968.06,-88.5001 1958.06,-92 1968.06,-95.5001 1968.06,-88.5001"/>
</g>
<!-- Node21 -->
<g id="node21" class="node"><title>Node21</title>
<g id="a_node21"><a xlink:href="../../d6/d24/classgame_player_1_1_select_state.html#a801827392f0faeee6b96925060d77838" target="_top" xlink:title="gamePlayer.SelectState.on\lClick">
<polygon fill="white" stroke="black" points="897.5,-277 897.5,-307 1044.5,-307 1044.5,-277 897.5,-277"/>
<text text-anchor="start" x="905.5" y="-295" font-family="Helvetica,sans-Serif" font-size="10.00">gamePlayer.SelectState.on</text>
<text text-anchor="middle" x="971" y="-284" font-family="Helvetica,sans-Serif" font-size="10.00">Click</text>
</a>
</g>
</g>
<!-- Node20&#45;&gt;Node21 -->
<g id="edge26" class="edge"><title>Node20&#45;&gt;Node21</title>
<path fill="none" stroke="midnightblue" d="M838.298,-278.317C858.137,-280.378 878.625,-282.507 897.361,-284.453"/>
<polygon fill="midnightblue" stroke="midnightblue" points="838.619,-274.831 828.311,-277.279 837.895,-281.794 838.619,-274.831"/>
</g>
<!-- Node22 -->
<g id="node22" class="node"><title>Node22</title>
<g id="a_node22"><a xlink:href="../../df/df0/classtests_1_1_view_controller_test.html#a785df2c49a72c183c22163ce927f5df1" target="_top" xlink:title="tests.ViewControllerTest.update\lActionsTest">
<polygon fill="white" stroke="black" points="887.5,-228 887.5,-258 1054.5,-258 1054.5,-228 887.5,-228"/>
<text text-anchor="start" x="895.5" y="-246" font-family="Helvetica,sans-Serif" font-size="10.00">tests.ViewControllerTest.update</text>
<text text-anchor="middle" x="971" y="-235" font-family="Helvetica,sans-Serif" font-size="10.00">ActionsTest</text>
</a>
</g>
</g>
<!-- Node20&#45;&gt;Node22 -->
<g id="edge27" class="edge"><title>Node20&#45;&gt;Node22</title>
<path fill="none" stroke="midnightblue" d="M838.407,-257.242C854.733,-255.475 871.495,-253.661 887.357,-251.944"/>
<polygon fill="midnightblue" stroke="midnightblue" points="837.876,-253.779 828.311,-258.334 838.629,-260.738 837.876,-253.779"/>
</g>
<!-- Node26 -->
<g id="node26" class="node"><title>Node26</title>
<g id="a_node26"><a xlink:href="../../d5/da8/classauthoring__environment_1_1_range_grid.html#ae120672edc5e219fce147a9b0057e651" target="_top" xlink:title="authoring_environment.Range\lGrid.addSelectAction">
<polygon fill="white" stroke="black" points="429.5,-0 429.5,-30 590.5,-30 590.5,-0 429.5,-0"/>
<text text-anchor="start" x="437.5" y="-18" font-family="Helvetica,sans-Serif" font-size="10.00">authoring_environment.Range</text>
<text text-anchor="middle" x="510" y="-7" font-family="Helvetica,sans-Serif" font-size="10.00">Grid.addSelectAction</text>
</a>
</g>
</g>
<!-- Node25&#45;&gt;Node26 -->
<g id="edge32" class="edge"><title>Node25&#45;&gt;Node26</title>
<path fill="none" stroke="midnightblue" d="M381.85,-17.3438C397.634,-17.0528 413.96,-16.7519 429.439,-16.4666"/>
<polygon fill="midnightblue" stroke="midnightblue" points="381.504,-13.8495 371.571,-17.5333 381.633,-20.8483 381.504,-13.8495"/>
</g>
<!-- Node27 -->
<g id="node27" class="node"><title>Node27</title>
<g id="a_node27"><a xlink:href="../../d5/da8/classauthoring__environment_1_1_range_grid.html#a450be605083bd4836209bae32f834402" target="_top" xlink:title="authoring_environment.Range\lGrid.RangeGrid">
<polygon fill="white" stroke="black" points="657.5,-0 657.5,-30 818.5,-30 818.5,-0 657.5,-0"/>
<text text-anchor="start" x="665.5" y="-18" font-family="Helvetica,sans-Serif" font-size="10.00">authoring_environment.Range</text>
<text text-anchor="middle" x="738" y="-7" font-family="Helvetica,sans-Serif" font-size="10.00">Grid.RangeGrid</text>
</a>
</g>
</g>
<!-- Node26&#45;&gt;Node27 -->
<g id="edge33" class="edge"><title>Node26&#45;&gt;Node27</title>
<path fill="none" stroke="midnightblue" d="M600.923,-15C619.549,-15 639.048,-15 657.279,-15"/>
<polygon fill="midnightblue" stroke="midnightblue" points="600.679,-11.5001 590.679,-15 600.679,-18.5001 600.679,-11.5001"/>
</g>
</g>
</svg>
