<?xml version="1.0" encoding="UTF-8" standalone="no"?>
<!DOCTYPE svg PUBLIC "-//W3C//DTD SVG 1.1//EN"
 "http://www.w3.org/Graphics/SVG/1.1/DTD/svg11.dtd">
<!-- Generated by graphviz version 2.36.0 (20140111.2315)
 -->
<!-- Title: authoring_environment.SuperTile.isSelected Pages: 1 -->
<svg width="966pt" height="113pt"
 viewBox="0.00 0.00 966.00 113.00" xmlns="http://www.w3.org/2000/svg" xmlns:xlink="http://www.w3.org/1999/xlink">
<g id="graph0" class="graph" transform="scale(1 1) rotate(0) translate(4 109)">
<title>authoring_environment.SuperTile.isSelected</title>
<polygon fill="white" stroke="none" points="-4,4 -4,-109 962,-109 962,4 -4,4"/>
<!-- Node1 -->
<g id="node1" class="node"><title>Node1</title>
<polygon fill="#bfbfbf" stroke="black" points="0,-25 0,-55 160,-55 160,-25 0,-25"/>
<text text-anchor="start" x="8" y="-43" font-family="Helvetica,sans-Serif" font-size="10.00">authoring_environment.Super</text>
<text text-anchor="middle" x="80" y="-32" font-family="Helvetica,sans-Serif" font-size="10.00">Tile.isSelected</text>
</g>
<!-- Node2 -->
<g id="node2" class="node"><title>Node2</title>
<g id="a_node2"><a xlink:href="../../d5/da8/classauthoring__environment_1_1_range_grid.html#a5d631da91234e98b2970a530dc860503" target="_top" xlink:title="authoring_environment.Range\lGrid.selectedRangeList">
<polygon fill="white" stroke="black" points="196.5,-50 196.5,-80 357.5,-80 357.5,-50 196.5,-50"/>
<text text-anchor="start" x="204.5" y="-68" font-family="Helvetica,sans-Serif" font-size="10.00">authoring_environment.Range</text>
<text text-anchor="middle" x="277" y="-57" font-family="Helvetica,sans-Serif" font-size="10.00">Grid.selectedRangeList</text>
</a>
</g>
</g>
<!-- Node1&#45;&gt;Node2 -->
<g id="edge1" class="edge"><title>Node1&#45;&gt;Node2</title>
<path fill="none" stroke="midnightblue" d="M170.173,-51.4324C178.859,-52.5461 187.635,-53.6711 196.221,-54.7719"/>
<polygon fill="midnightblue" stroke="midnightblue" points="170.397,-47.9326 160.033,-50.1324 169.507,-54.8757 170.397,-47.9326"/>
</g>
<!-- Node7 -->
<g id="node7" class="node"><title>Node7</title>
<g id="a_node7"><a xlink:href="../../d5/da8/classauthoring__environment_1_1_range_grid.html#ad6be3076da674c7d925b08f21a68b1f2" target="_top" xlink:title="authoring_environment.Range\lGrid.switchHighlight">
<polygon fill="white" stroke="black" points="196.5,-1 196.5,-31 357.5,-31 357.5,-1 196.5,-1"/>
<text text-anchor="start" x="204.5" y="-19" font-family="Helvetica,sans-Serif" font-size="10.00">authoring_environment.Range</text>
<text text-anchor="middle" x="277" y="-8" font-family="Helvetica,sans-Serif" font-size="10.00">Grid.switchHighlight</text>
</a>
</g>
</g>
<!-- Node1&#45;&gt;Node7 -->
<g id="edge6" class="edge"><title>Node1&#45;&gt;Node7</title>
<path fill="none" stroke="midnightblue" d="M170.173,-29.0249C178.859,-27.9558 187.635,-26.8757 196.221,-25.819"/>
<polygon fill="midnightblue" stroke="midnightblue" points="169.53,-25.5775 160.033,-30.2729 170.386,-32.525 169.53,-25.5775"/>
</g>
<!-- Node3 -->
<g id="node3" class="node"><title>Node3</title>
<g id="a_node3"><a xlink:href="../../d5/df6/classauthoring__environment_1_1_range_grid_view.html#abb88e480de6be8db723c9a30874e857d" target="_top" xlink:title="authoring_environment.Range\lGridView.returnSelectedList">
<polygon fill="white" stroke="black" points="394.5,-50 394.5,-80 555.5,-80 555.5,-50 394.5,-50"/>
<text text-anchor="start" x="402.5" y="-68" font-family="Helvetica,sans-Serif" font-size="10.00">authoring_environment.Range</text>
<text text-anchor="middle" x="475" y="-57" font-family="Helvetica,sans-Serif" font-size="10.00">GridView.returnSelectedList</text>
</a>
</g>
</g>
<!-- Node2&#45;&gt;Node3 -->
<g id="edge2" class="edge"><title>Node2&#45;&gt;Node3</title>
<path fill="none" stroke="midnightblue" d="M367.989,-65C376.785,-65 385.667,-65 394.35,-65"/>
<polygon fill="midnightblue" stroke="midnightblue" points="367.721,-61.5001 357.721,-65 367.721,-68.5001 367.721,-61.5001"/>
</g>
<!-- Node4 -->
<g id="node4" class="node"><title>Node4</title>
<g id="a_node4"><a xlink:href="../../dd/de3/classauthoring_1_1concretefeatures_1_1_range_editor_1_1_select_handler.html#acf2dc5425ba80cff4d5c5b35d1d22ae9" target="_top" xlink:title="authoring.concretefeatures.\lRangeEditor.SelectHandler.handle">
<polygon fill="white" stroke="black" points="592.5,-75 592.5,-105 771.5,-105 771.5,-75 592.5,-75"/>
<text text-anchor="start" x="600.5" y="-93" font-family="Helvetica,sans-Serif" font-size="10.00">authoring.concretefeatures.</text>
<text text-anchor="middle" x="682" y="-82" font-family="Helvetica,sans-Serif" font-size="10.00">RangeEditor.SelectHandler.handle</text>
</a>
</g>
</g>
<!-- Node3&#45;&gt;Node4 -->
<g id="edge3" class="edge"><title>Node3&#45;&gt;Node4</title>
<path fill="none" stroke="midnightblue" d="M565.516,-75.9166C574.404,-77.0005 583.424,-78.1005 592.304,-79.1834"/>
<polygon fill="midnightblue" stroke="midnightblue" points="565.902,-72.4378 555.552,-74.7014 565.055,-79.3863 565.902,-72.4378"/>
</g>
<!-- Node5 -->
<g id="node5" class="node"><title>Node5</title>
<g id="a_node5"><a xlink:href="../../d6/d17/classauthoring_1_1concretefeatures_1_1_range_editor.html#a8fce9ab5a871769da6f36c3df0b8991b" target="_top" xlink:title="authoring.concretefeatures.\lRangeEditor.initialize">
<polygon fill="white" stroke="black" points="607,-26 607,-56 757,-56 757,-26 607,-26"/>
<text text-anchor="start" x="615" y="-44" font-family="Helvetica,sans-Serif" font-size="10.00">authoring.concretefeatures.</text>
<text text-anchor="middle" x="682" y="-33" font-family="Helvetica,sans-Serif" font-size="10.00">RangeEditor.initialize</text>
</a>
</g>
</g>
<!-- Node3&#45;&gt;Node5 -->
<g id="edge4" class="edge"><title>Node3&#45;&gt;Node5</title>
<path fill="none" stroke="midnightblue" d="M565.529,-54.5185C579.329,-52.903 593.447,-51.2501 606.862,-49.6795"/>
<polygon fill="midnightblue" stroke="midnightblue" points="565.077,-51.0475 555.552,-55.6866 565.891,-58 565.077,-51.0475"/>
</g>
<!-- Node6 -->
<g id="node6" class="node"><title>Node6</title>
<g id="a_node6"><a xlink:href="../../d6/d17/classauthoring_1_1concretefeatures_1_1_range_editor.html#a7190503f2f2f1733838c08a04a4663a9" target="_top" xlink:title="authoring.concretefeatures.\lRangeEditor.RangeEditor">
<polygon fill="white" stroke="black" points="808,-26 808,-56 958,-56 958,-26 808,-26"/>
<text text-anchor="start" x="816" y="-44" font-family="Helvetica,sans-Serif" font-size="10.00">authoring.concretefeatures.</text>
<text text-anchor="middle" x="883" y="-33" font-family="Helvetica,sans-Serif" font-size="10.00">RangeEditor.RangeEditor</text>
</a>
</g>
</g>
<!-- Node5&#45;&gt;Node6 -->
<g id="edge5" class="edge"><title>Node5&#45;&gt;Node6</title>
<path fill="none" stroke="midnightblue" d="M767.309,-41C780.778,-41 794.627,-41 807.838,-41"/>
<polygon fill="midnightblue" stroke="midnightblue" points="767.1,-37.5001 757.1,-41 767.1,-44.5001 767.1,-37.5001"/>
</g>
</g>
</svg>
