<?xml version="1.0" encoding="UTF-8" standalone="no"?>
<!DOCTYPE svg PUBLIC "-//W3C//DTD SVG 1.1//EN"
 "http://www.w3.org/Graphics/SVG/1.1/DTD/svg11.dtd">
<!-- Generated by graphviz version 2.36.0 (20140111.2315)
 -->
<!-- Title: authoring_environment.SuperTile.getCoordinates Pages: 1 -->
<!--zoomable 438 -->
<svg id="main" version="1.1" xmlns="http://www.w3.org/2000/svg" xmlns:xlink="http://www.w3.org/1999/xlink" xml:space="preserve" onload="init(evt)">
<style type="text/css"><![CDATA[
.edge:hover path { stroke: red; }
.edge:hover polygon { stroke: red; fill: red; }
]]></style>
<script type="text/javascript"><![CDATA[
var edges = document.getElementsByTagName('g');
if (edges && edges.length) {
  for (var i=0;i<edges.length;i++) {
    if (edges[i].id.substr(0,4)=='edge') {
      edges[i].setAttribute('class','edge');
    }
  }
}
]]></script>
        <defs>
                <circle id="rim" cx="0" cy="0" r="7"/>
                <circle id="rim2" cx="0" cy="0" r="3.5"/>
                <g id="zoomPlus">
                        <use xlink:href="#rim" fill="#404040">
                                <set attributeName="fill" to="#808080" begin="zoomplus.mouseover" end="zoomplus.mouseout"/>
                        </use>
                        <path d="M-4,0h8M0,-4v8" fill="none" stroke="white" stroke-width="1.5" pointer-events="none"/>
                </g>
                <g id="zoomMin">
                        <use xlink:href="#rim" fill="#404040">
                                <set attributeName="fill" to="#808080" begin="zoomminus.mouseover" end="zoomminus.mouseout"/>
                        </use>
                        <path d="M-4,0h8" fill="none" stroke="white" stroke-width="1.5" pointer-events="none"/>
                </g>
                <g id="dirArrow">
                        <path fill="none" stroke="white" stroke-width="1.5" d="M0,-3.0v7 M-2.5,-0.5L0,-3.0L2.5,-0.5"/>
                </g>
               <g id="resetDef">
                       <use xlink:href="#rim2" fill="#404040">
                               <set attributeName="fill" to="#808080" begin="reset.mouseover" end="reset.mouseout"/>
                       </use>
               </g>
        </defs>

<script type="text/javascript">
var viewWidth = 2338;
var viewHeight = 438;
var sectionId = 'dynsection-7';
</script>
<script xlink:href="../../svgpan.js"/>
<svg id="graph" class="graph">
<g id="viewport">
<title>authoring_environment.SuperTile.getCoordinates</title>
<polygon fill="white" stroke="none" points="-4,4 -4,-434 2334,-434 2334,4 -4,4"/>
<!-- Node1 -->
<g id="node1" class="node"><title>Node1</title>
<polygon fill="#bfbfbf" stroke="black" points="0,-110 0,-140 160,-140 160,-110 0,-110"/>
<text text-anchor="start" x="8" y="-128" font-family="Helvetica,sans-Serif" font-size="10.00">authoring_environment.Super</text>
<text text-anchor="middle" x="80" y="-117" font-family="Helvetica,sans-Serif" font-size="10.00">Tile.getCoordinates</text>
</g>
<!-- Node2 -->
<g id="node2" class="node"><title>Node2</title>
<g id="a_node2"><a xlink:href="../../d9/df3/classauthoring__environment_1_1_super_grid.html#a0f8021e23df3eb8657622455e0a2c70e" target="_top" xlink:title="authoring_environment.Super\lGrid.findClickedCoordinate">
<polygon fill="white" stroke="black" points="197,-171 197,-201 357,-201 357,-171 197,-171"/>
<text text-anchor="start" x="205" y="-189" font-family="Helvetica,sans-Serif" font-size="10.00">authoring_environment.Super</text>
<text text-anchor="middle" x="277" y="-178" font-family="Helvetica,sans-Serif" font-size="10.00">Grid.findClickedCoordinate</text>
</a>
</g>
</g>
<!-- Node1&#45;&gt;Node2 -->
<g id="edge1" class="edge"><title>Node1&#45;&gt;Node2</title>
<path fill="none" stroke="midnightblue" d="M138.994,-143.142C167.368,-152.018 201.114,-162.574 228.015,-170.989"/>
<polygon fill="midnightblue" stroke="midnightblue" points="139.791,-139.724 129.202,-140.079 137.701,-146.405 139.791,-139.724"/>
</g>
<!-- Node29 -->
<g id="node29" class="node"><title>Node29</title>
<g id="a_node29"><a xlink:href="../../d5/dfb/classgame_player_1_1_game_grid_effect.html#a1c7aa054e990a15b89b678d88df45ec1" target="_top" xlink:title="gamePlayer.GameGridEffect.is\lHoveringOverActionHighlight">
<polygon fill="white" stroke="black" points="196,-37 196,-67 358,-67 358,-37 196,-37"/>
<text text-anchor="start" x="204" y="-55" font-family="Helvetica,sans-Serif" font-size="10.00">gamePlayer.GameGridEffect.is</text>
<text text-anchor="middle" x="277" y="-44" font-family="Helvetica,sans-Serif" font-size="10.00">HoveringOverActionHighlight</text>
</a>
</g>
</g>
<!-- Node1&#45;&gt;Node29 -->
<g id="edge31" class="edge"><title>Node1&#45;&gt;Node29</title>
<path fill="none" stroke="midnightblue" d="M131.159,-106.222C163.622,-94.0696 205.331,-78.4555 235.648,-67.1063"/>
<polygon fill="midnightblue" stroke="midnightblue" points="129.542,-103.09 121.404,-109.874 131.997,-109.646 129.542,-103.09"/>
</g>
<!-- Node3 -->
<g id="node3" class="node"><title>Node3</title>
<g id="a_node3"><a xlink:href="../../df/dd5/classgame_player_1_1_view_controller.html#a8df1cc776c0ee37d0a324870b9e37275" target="_top" xlink:title="gamePlayer.ViewController.find\lPosition">
<polygon fill="white" stroke="black" points="398,-245 398,-275 562,-275 562,-245 398,-245"/>
<text text-anchor="start" x="406" y="-263" font-family="Helvetica,sans-Serif" font-size="10.00">gamePlayer.ViewController.find</text>
<text text-anchor="middle" x="480" y="-252" font-family="Helvetica,sans-Serif" font-size="10.00">Position</text>
</a>
</g>
</g>
<!-- Node2&#45;&gt;Node3 -->
<g id="edge2" class="edge"><title>Node2&#45;&gt;Node3</title>
<path fill="none" stroke="midnightblue" d="M320.397,-205.276C342.165,-214.823 369.249,-226.165 394,-235 403.706,-238.465 414.154,-241.828 424.29,-244.906"/>
<polygon fill="midnightblue" stroke="midnightblue" points="321.668,-202.012 311.107,-201.17 318.838,-208.414 321.668,-202.012"/>
</g>
<!-- Node23 -->
<g id="node23" class="node"><title>Node23</title>
<g id="a_node23"><a xlink:href="../../d4/d3f/classfxml__main_1_1_patch_controller.html#a0a171a684c98c85bae1083e59444eac6" target="_top" xlink:title="fxml_main.PatchController.init\lGlobalDelBtn">
<polygon fill="white" stroke="black" points="401,-196 401,-226 559,-226 559,-196 401,-196"/>
<text text-anchor="start" x="409" y="-214" font-family="Helvetica,sans-Serif" font-size="10.00">fxml_main.PatchController.init</text>
<text text-anchor="middle" x="480" y="-203" font-family="Helvetica,sans-Serif" font-size="10.00">GlobalDelBtn</text>
</a>
</g>
</g>
<!-- Node2&#45;&gt;Node23 -->
<g id="edge25" class="edge"><title>Node2&#45;&gt;Node23</title>
<path fill="none" stroke="midnightblue" d="M367.356,-197.114C378.541,-198.505 389.913,-199.92 400.908,-201.287"/>
<polygon fill="midnightblue" stroke="midnightblue" points="367.508,-193.606 357.152,-195.845 366.644,-200.552 367.508,-193.606"/>
</g>
<!-- Node24 -->
<g id="node24" class="node"><title>Node24</title>
<g id="a_node24"><a xlink:href="../../dc/d77/classfxml__main_1_1_piece_controller.html#a7190534f96aae2433b925ff2ba45ee20" target="_top" xlink:title="fxml_main.PieceController.init\lGlobalDelBtn">
<polygon fill="white" stroke="black" points="401,-147 401,-177 559,-177 559,-147 401,-147"/>
<text text-anchor="start" x="409" y="-165" font-family="Helvetica,sans-Serif" font-size="10.00">fxml_main.PieceController.init</text>
<text text-anchor="middle" x="480" y="-154" font-family="Helvetica,sans-Serif" font-size="10.00">GlobalDelBtn</text>
</a>
</g>
</g>
<!-- Node2&#45;&gt;Node24 -->
<g id="edge26" class="edge"><title>Node2&#45;&gt;Node24</title>
<path fill="none" stroke="midnightblue" d="M367.356,-175.331C378.541,-173.995 389.913,-172.637 400.908,-171.324"/>
<polygon fill="midnightblue" stroke="midnightblue" points="366.666,-171.888 357.152,-176.549 367.496,-178.839 366.666,-171.888"/>
</g>
<!-- Node25 -->
<g id="node25" class="node"><title>Node25</title>
<g id="a_node25"><a xlink:href="../../d4/d3f/classfxml__main_1_1_patch_controller.html#a5157fa914edaba5f23f4fda5951224d2" target="_top" xlink:title="fxml_main.PatchController.init\lGlobalEditBtn">
<polygon fill="white" stroke="black" points="401,-98 401,-128 559,-128 559,-98 401,-98"/>
<text text-anchor="start" x="409" y="-116" font-family="Helvetica,sans-Serif" font-size="10.00">fxml_main.PatchController.init</text>
<text text-anchor="middle" x="480" y="-105" font-family="Helvetica,sans-Serif" font-size="10.00">GlobalEditBtn</text>
</a>
</g>
</g>
<!-- Node2&#45;&gt;Node25 -->
<g id="edge27" class="edge"><title>Node2&#45;&gt;Node25</title>
<path fill="none" stroke="midnightblue" d="M319.884,-166.818C341.722,-157.199 369.022,-145.764 394,-137 402.971,-133.853 412.582,-130.822 421.997,-128.036"/>
<polygon fill="midnightblue" stroke="midnightblue" points="318.291,-163.696 310.574,-170.955 321.133,-170.093 318.291,-163.696"/>
</g>
<!-- Node26 -->
<g id="node26" class="node"><title>Node26</title>
<g id="a_node26"><a xlink:href="../../dc/d77/classfxml__main_1_1_piece_controller.html#a33f528825344a5932f5820d55f67765e" target="_top" xlink:title="fxml_main.PieceController.init\lGlobalEditBtn">
<polygon fill="white" stroke="black" points="401,-49 401,-79 559,-79 559,-49 401,-49"/>
<text text-anchor="start" x="409" y="-67" font-family="Helvetica,sans-Serif" font-size="10.00">fxml_main.PieceController.init</text>
<text text-anchor="middle" x="480" y="-56" font-family="Helvetica,sans-Serif" font-size="10.00">GlobalEditBtn</text>
</a>
</g>
</g>
<!-- Node2&#45;&gt;Node26 -->
<g id="edge28" class="edge"><title>Node2&#45;&gt;Node26</title>
<path fill="none" stroke="midnightblue" d="M298.938,-163.392C320.694,-141.174 356.72,-107.805 394,-88 400.365,-84.6188 407.257,-81.6702 414.269,-79.1093"/>
<polygon fill="midnightblue" stroke="midnightblue" points="296.273,-161.113 291.859,-170.744 301.316,-165.968 296.273,-161.113"/>
</g>
<!-- Node27 -->
<g id="node27" class="node"><title>Node27</title>
<g id="a_node27"><a xlink:href="../../d4/d3f/classfxml__main_1_1_patch_controller.html#a806919701c76bb361bf89e0815a76a96" target="_top" xlink:title="fxml_main.PatchController.make\lEntryBox">
<polygon fill="white" stroke="black" points="394.5,-343 394.5,-373 565.5,-373 565.5,-343 394.5,-343"/>
<text text-anchor="start" x="402.5" y="-361" font-family="Helvetica,sans-Serif" font-size="10.00">fxml_main.PatchController.make</text>
<text text-anchor="middle" x="480" y="-350" font-family="Helvetica,sans-Serif" font-size="10.00">EntryBox</text>
</a>
</g>
</g>
<!-- Node2&#45;&gt;Node27 -->
<g id="edge29" class="edge"><title>Node2&#45;&gt;Node27</title>
<path fill="none" stroke="midnightblue" d="M290.553,-209.885C308.922,-242.525 346.197,-300.689 394,-333 399.735,-336.876 406.08,-340.162 412.643,-342.946"/>
<polygon fill="midnightblue" stroke="midnightblue" points="293.56,-208.09 285.674,-201.015 287.427,-211.463 293.56,-208.09"/>
</g>
<!-- Node28 -->
<g id="node28" class="node"><title>Node28</title>
<g id="a_node28"><a xlink:href="../../dc/d77/classfxml__main_1_1_piece_controller.html#a57d25cb33125e10494c536f9fbce1434" target="_top" xlink:title="fxml_main.PieceController.make\lEntryBox">
<polygon fill="white" stroke="black" points="395,-294 395,-324 565,-324 565,-294 395,-294"/>
<text text-anchor="start" x="403" y="-312" font-family="Helvetica,sans-Serif" font-size="10.00">fxml_main.PieceController.make</text>
<text text-anchor="middle" x="480" y="-301" font-family="Helvetica,sans-Serif" font-size="10.00">EntryBox</text>
</a>
</g>
</g>
<!-- Node2&#45;&gt;Node28 -->
<g id="edge30" class="edge"><title>Node2&#45;&gt;Node28</title>
<path fill="none" stroke="midnightblue" d="M298.984,-208.523C320.775,-230.674 356.828,-263.993 394,-284 401.043,-287.791 408.732,-291.073 416.514,-293.897"/>
<polygon fill="midnightblue" stroke="midnightblue" points="301.361,-205.947 291.892,-201.194 296.33,-210.815 301.361,-205.947"/>
</g>
<!-- Node4 -->
<g id="node4" class="node"><title>Node4</title>
<g id="a_node4"><a xlink:href="../../df/dd5/classgame_player_1_1_view_controller.html#a22ee80193bbac79a935ee961a183bfcd" target="_top" xlink:title="gamePlayer.ViewController.set\lOnClick">
<polygon fill="white" stroke="black" points="602.5,-269 602.5,-299 763.5,-299 763.5,-269 602.5,-269"/>
<text text-anchor="start" x="610.5" y="-287" font-family="Helvetica,sans-Serif" font-size="10.00">gamePlayer.ViewController.set</text>
<text text-anchor="middle" x="683" y="-276" font-family="Helvetica,sans-Serif" font-size="10.00">OnClick</text>
</a>
</g>
</g>
<!-- Node3&#45;&gt;Node4 -->
<g id="edge3" class="edge"><title>Node3&#45;&gt;Node4</title>
<path fill="none" stroke="midnightblue" d="M572.217,-270.892C582.316,-272.097 592.542,-273.318 602.481,-274.505"/>
<polygon fill="midnightblue" stroke="midnightblue" points="572.519,-267.403 562.175,-269.693 571.689,-274.354 572.519,-267.403"/>
</g>
<!-- Node22 -->
<g id="node22" class="node"><title>Node22</title>
<g id="a_node22"><a xlink:href="../../df/df0/classtests_1_1_view_controller_test.html#afca3b7e154edffacc0e07c977df9876c" target="_top" xlink:title="tests.ViewControllerTest.find\lPositionTest">
<polygon fill="white" stroke="black" points="607.5,-220 607.5,-250 758.5,-250 758.5,-220 607.5,-220"/>
<text text-anchor="start" x="615.5" y="-238" font-family="Helvetica,sans-Serif" font-size="10.00">tests.ViewControllerTest.find</text>
<text text-anchor="middle" x="683" y="-227" font-family="Helvetica,sans-Serif" font-size="10.00">PositionTest</text>
</a>
</g>
</g>
<!-- Node3&#45;&gt;Node22 -->
<g id="edge24" class="edge"><title>Node3&#45;&gt;Node22</title>
<path fill="none" stroke="midnightblue" d="M572.396,-248.632C584.093,-247.178 595.956,-245.702 607.344,-244.286"/>
<polygon fill="midnightblue" stroke="midnightblue" points="571.667,-245.196 562.175,-249.904 572.531,-252.142 571.667,-245.196"/>
</g>
<!-- Node5 -->
<g id="node5" class="node"><title>Node5</title>
<g id="a_node5"><a xlink:href="../../df/dd5/classgame_player_1_1_view_controller.html#a10a40967a873f067cf91b024ff85b38e" target="_top" xlink:title="gamePlayer.ViewController.initializeGrid">
<polygon fill="white" stroke="black" points="800,-312.5 800,-331.5 1004,-331.5 1004,-312.5 800,-312.5"/>
<text text-anchor="middle" x="902" y="-319.5" font-family="Helvetica,sans-Serif" font-size="10.00">gamePlayer.ViewController.initializeGrid</text>
</a>
</g>
</g>
<!-- Node4&#45;&gt;Node5 -->
<g id="edge4" class="edge"><title>Node4&#45;&gt;Node5</title>
<path fill="none" stroke="midnightblue" d="M773.694,-299.707C798.404,-304.034 824.457,-308.596 846.513,-312.459"/>
<polygon fill="midnightblue" stroke="midnightblue" points="774.024,-296.211 763.571,-297.934 772.817,-303.107 774.024,-296.211"/>
</g>
<!-- Node6 -->
<g id="node6" class="node"><title>Node6</title>
<g id="a_node6"><a xlink:href="../../df/dd5/classgame_player_1_1_view_controller.html#a0d1a3d443966f151b070dc751d2faf9a" target="_top" xlink:title="gamePlayer.ViewController.restartGame">
<polygon fill="white" stroke="black" points="1040,-312.5 1040,-331.5 1248,-331.5 1248,-312.5 1040,-312.5"/>
<text text-anchor="middle" x="1144" y="-319.5" font-family="Helvetica,sans-Serif" font-size="10.00">gamePlayer.ViewController.restartGame</text>
</a>
</g>
</g>
<!-- Node5&#45;&gt;Node6 -->
<g id="edge5" class="edge"><title>Node5&#45;&gt;Node6</title>
<path fill="none" stroke="midnightblue" d="M1014.36,-322C1022.81,-322 1031.32,-322 1039.72,-322"/>
<polygon fill="midnightblue" stroke="midnightblue" points="1014.09,-318.5 1004.09,-322 1014.09,-325.5 1014.09,-318.5"/>
</g>
<!-- Node7 -->
<g id="node7" class="node"><title>Node7</title>
<g id="a_node7"><a xlink:href="../../df/dd5/classgame_player_1_1_view_controller.html#af1870a0b6786d96d118021fc62b6475d" target="_top" xlink:title="gamePlayer.ViewController.beginGame">
<polygon fill="white" stroke="black" points="1043,-274.5 1043,-293.5 1245,-293.5 1245,-274.5 1043,-274.5"/>
<text text-anchor="middle" x="1144" y="-281.5" font-family="Helvetica,sans-Serif" font-size="10.00">gamePlayer.ViewController.beginGame</text>
</a>
</g>
</g>
<!-- Node5&#45;&gt;Node7 -->
<g id="edge6" class="edge"><title>Node5&#45;&gt;Node7</title>
<path fill="none" stroke="midnightblue" d="M973.321,-310.866C1008.03,-305.37 1049.48,-298.807 1082.72,-293.544"/>
<polygon fill="midnightblue" stroke="midnightblue" points="972.582,-307.439 963.252,-312.46 973.677,-314.353 972.582,-307.439"/>
</g>
<!-- Node8 -->
<g id="node8" class="node"><title>Node8</title>
<g id="a_node8"><a xlink:href="../../df/dd5/classgame_player_1_1_view_controller.html#a4c1754d129a4eac955390b428eaa448a" target="_top" xlink:title="gamePlayer.ViewController.test\lPlayGame">
<polygon fill="white" stroke="black" points="1061.5,-400 1061.5,-430 1226.5,-430 1226.5,-400 1061.5,-400"/>
<text text-anchor="start" x="1069.5" y="-418" font-family="Helvetica,sans-Serif" font-size="10.00">gamePlayer.ViewController.test</text>
<text text-anchor="middle" x="1144" y="-407" font-family="Helvetica,sans-Serif" font-size="10.00">PlayGame</text>
</a>
</g>
</g>
<!-- Node5&#45;&gt;Node8 -->
<g id="edge7" class="edge"><title>Node5&#45;&gt;Node8</title>
<path fill="none" stroke="midnightblue" d="M928.101,-336.59C955.018,-351.722 999.382,-375.2 1040,-390 1050.2,-393.717 1061.17,-397.048 1072.01,-399.975"/>
<polygon fill="midnightblue" stroke="midnightblue" points="929.765,-333.51 919.342,-331.613 926.307,-339.597 929.765,-333.51"/>
</g>
<!-- Node10 -->
<g id="node10" class="node"><title>Node10</title>
<g id="a_node10"><a xlink:href="../../df/dd5/classgame_player_1_1_view_controller.html#a620f8a02d3ac7677cd179fcd812aca55" target="_top" xlink:title="gamePlayer.ViewController.check\lEndActions">
<polygon fill="white" stroke="black" points="1057,-351 1057,-381 1231,-381 1231,-351 1057,-351"/>
<text text-anchor="start" x="1065" y="-369" font-family="Helvetica,sans-Serif" font-size="10.00">gamePlayer.ViewController.check</text>
<text text-anchor="middle" x="1144" y="-358" font-family="Helvetica,sans-Serif" font-size="10.00">EndActions</text>
</a>
</g>
</g>
<!-- Node5&#45;&gt;Node10 -->
<g id="edge9" class="edge"><title>Node5&#45;&gt;Node10</title>
<path fill="none" stroke="midnightblue" d="M965.13,-333.39C994.306,-338.739 1029.48,-345.189 1060.83,-350.935"/>
<polygon fill="midnightblue" stroke="midnightblue" points="965.544,-329.908 955.076,-331.547 964.281,-336.793 965.544,-329.908"/>
</g>
<!-- Node9 -->
<g id="node9" class="node"><title>Node9</title>
<g id="a_node9"><a xlink:href="../../db/d40/classfxml__main_1_1_authoring_controller.html#a2ec133c8edf0a7ab1e84f2e12455233d" target="_top" xlink:title="fxml_main.AuthoringController.save\lAsGame">
<polygon fill="white" stroke="black" points="1284.5,-400 1284.5,-430 1471.5,-430 1471.5,-400 1284.5,-400"/>
<text text-anchor="start" x="1292.5" y="-418" font-family="Helvetica,sans-Serif" font-size="10.00">fxml_main.AuthoringController.save</text>
<text text-anchor="middle" x="1378" y="-407" font-family="Helvetica,sans-Serif" font-size="10.00">AsGame</text>
</a>
</g>
</g>
<!-- Node8&#45;&gt;Node9 -->
<g id="edge8" class="edge"><title>Node8&#45;&gt;Node9</title>
<path fill="none" stroke="midnightblue" d="M1236.96,-415C1252.59,-415 1268.83,-415 1284.47,-415"/>
<polygon fill="midnightblue" stroke="midnightblue" points="1236.79,-411.5 1226.79,-415 1236.79,-418.5 1236.79,-411.5"/>
</g>
<!-- Node11 -->
<g id="node11" class="node"><title>Node11</title>
<g id="a_node11"><a xlink:href="../../df/dd5/classgame_player_1_1_view_controller.html#a95c2acd43bb39b8606c69971c1cd30f5" target="_top" xlink:title="gamePlayer.ViewController.perform\lAction">
<polygon fill="white" stroke="black" points="1285.5,-247 1285.5,-277 1470.5,-277 1470.5,-247 1285.5,-247"/>
<text text-anchor="start" x="1293.5" y="-265" font-family="Helvetica,sans-Serif" font-size="10.00">gamePlayer.ViewController.perform</text>
<text text-anchor="middle" x="1378" y="-254" font-family="Helvetica,sans-Serif" font-size="10.00">Action</text>
</a>
</g>
</g>
<!-- Node10&#45;&gt;Node11 -->
<g id="edge10" class="edge"><title>Node10&#45;&gt;Node11</title>
<path fill="none" stroke="midnightblue" d="M1228.76,-348.025C1235.35,-345.899 1241.83,-343.562 1248,-341 1288.99,-323.97 1332.08,-294.996 1356.63,-277.27"/>
<polygon fill="midnightblue" stroke="midnightblue" points="1227.59,-344.722 1219.05,-350.989 1229.63,-351.417 1227.59,-344.722"/>
</g>
<!-- Node20 -->
<g id="node20" class="node"><title>Node20</title>
<g id="a_node20"><a xlink:href="../../df/dd5/classgame_player_1_1_view_controller.html#a13ea7814bde61a8042c5b1a23af41416" target="_top" xlink:title="gamePlayer.ViewController.end\lAction">
<polygon fill="white" stroke="black" points="1296,-351 1296,-381 1460,-381 1460,-351 1296,-351"/>
<text text-anchor="start" x="1304" y="-369" font-family="Helvetica,sans-Serif" font-size="10.00">gamePlayer.ViewController.end</text>
<text text-anchor="middle" x="1378" y="-358" font-family="Helvetica,sans-Serif" font-size="10.00">Action</text>
</a>
</g>
</g>
<!-- Node10&#45;&gt;Node20 -->
<g id="edge22" class="edge"><title>Node10&#45;&gt;Node20</title>
<path fill="none" stroke="midnightblue" d="M1241.06,-366C1259.22,-366 1278.05,-366 1295.7,-366"/>
<polygon fill="midnightblue" stroke="midnightblue" points="1241.06,-362.5 1231.06,-366 1241.06,-369.5 1241.06,-362.5"/>
</g>
<!-- Node11&#45;&gt;Node4 -->
<g id="edge21" class="edge"><title>Node11&#45;&gt;Node4</title>
<path fill="none" stroke="midnightblue" d="M1275.32,-261.73C1208.44,-261.842 1118.99,-262.542 1040,-265 945.039,-267.955 835.964,-274.198 763.842,-278.723"/>
<polygon fill="midnightblue" stroke="midnightblue" points="1275.44,-265.23 1285.44,-261.717 1275.43,-258.23 1275.44,-265.23"/>
</g>
<!-- Node12 -->
<g id="node12" class="node"><title>Node12</title>
<g id="a_node12"><a xlink:href="../../da/d55/classgame_player_1_1_keyboard_movement.html#af45fd8d279b1ee2d6be5466d425485ab" target="_top" xlink:title="gamePlayer.KeyboardMovement.set\lMovementKeyControl">
<polygon fill="white" stroke="black" points="1508.5,-247 1508.5,-277 1697.5,-277 1697.5,-247 1508.5,-247"/>
<text text-anchor="start" x="1516.5" y="-265" font-family="Helvetica,sans-Serif" font-size="10.00">gamePlayer.KeyboardMovement.set</text>
<text text-anchor="middle" x="1603" y="-254" font-family="Helvetica,sans-Serif" font-size="10.00">MovementKeyControl</text>
</a>
</g>
</g>
<!-- Node11&#45;&gt;Node12 -->
<g id="edge11" class="edge"><title>Node11&#45;&gt;Node12</title>
<path fill="none" stroke="midnightblue" d="M1480.88,-255.272C1489.97,-255.23 1499.14,-255.248 1508.16,-255.326"/>
<polygon fill="midnightblue" stroke="midnightblue" points="1480.64,-251.774 1470.67,-255.346 1480.69,-258.774 1480.64,-251.774"/>
</g>
<!-- Node12&#45;&gt;Node11 -->
<g id="edge19" class="edge"><title>Node12&#45;&gt;Node11</title>
<path fill="none" stroke="midnightblue" d="M1497.93,-268.737C1488.83,-268.769 1479.66,-268.742 1470.67,-268.654"/>
<polygon fill="midnightblue" stroke="midnightblue" points="1498.18,-272.235 1508.16,-268.674 1498.14,-265.235 1498.18,-272.235"/>
</g>
<!-- Node13 -->
<g id="node13" class="node"><title>Node13</title>
<g id="a_node13"><a xlink:href="../../df/dd5/classgame_player_1_1_view_controller.html#a7eb038fd9f20604ade0406f27ef76657" target="_top" xlink:title="gamePlayer.ViewController.bind\lAction">
<polygon fill="white" stroke="black" points="1738.5,-198 1738.5,-228 1905.5,-228 1905.5,-198 1738.5,-198"/>
<text text-anchor="start" x="1746.5" y="-216" font-family="Helvetica,sans-Serif" font-size="10.00">gamePlayer.ViewController.bind</text>
<text text-anchor="middle" x="1822" y="-205" font-family="Helvetica,sans-Serif" font-size="10.00">Action</text>
</a>
</g>
</g>
<!-- Node12&#45;&gt;Node13 -->
<g id="edge12" class="edge"><title>Node12&#45;&gt;Node13</title>
<path fill="none" stroke="midnightblue" d="M1680.43,-244.742C1704.61,-239.282 1731.12,-233.295 1754.54,-228.006"/>
<polygon fill="midnightblue" stroke="midnightblue" points="1679.57,-241.349 1670.58,-246.965 1681.11,-248.177 1679.57,-241.349"/>
</g>
<!-- Node19 -->
<g id="node19" class="node"><title>Node19</title>
<g id="a_node19"><a xlink:href="../../df/dd5/classgame_player_1_1_view_controller.html#a27da17c1280cd953a14f6b76b18f9a4b" target="_top" xlink:title="gamePlayer.ViewController.toggle\lKeyboardControl">
<polygon fill="white" stroke="black" points="1734,-247 1734,-277 1910,-277 1910,-247 1734,-247"/>
<text text-anchor="start" x="1742" y="-265" font-family="Helvetica,sans-Serif" font-size="10.00">gamePlayer.ViewController.toggle</text>
<text text-anchor="middle" x="1822" y="-254" font-family="Helvetica,sans-Serif" font-size="10.00">KeyboardControl</text>
</a>
</g>
</g>
<!-- Node12&#45;&gt;Node19 -->
<g id="edge20" class="edge"><title>Node12&#45;&gt;Node19</title>
<path fill="none" stroke="midnightblue" d="M1707.81,-262C1716.53,-262 1725.3,-262 1733.88,-262"/>
<polygon fill="midnightblue" stroke="midnightblue" points="1707.6,-258.5 1697.6,-262 1707.6,-265.5 1707.6,-258.5"/>
</g>
<!-- Node14 -->
<g id="node14" class="node"><title>Node14</title>
<g id="a_node14"><a xlink:href="../../d1/db7/classgame_player_1_1_keyboard_action.html#a08ace57322b8639020688dd9493c3e1f" target="_top" xlink:title="gamePlayer.KeyboardAction.set\lActionKeyControl">
<polygon fill="white" stroke="black" points="1952,-269 1952,-299 2120,-299 2120,-269 1952,-269"/>
<text text-anchor="start" x="1960" y="-287" font-family="Helvetica,sans-Serif" font-size="10.00">gamePlayer.KeyboardAction.set</text>
<text text-anchor="middle" x="2036" y="-276" font-family="Helvetica,sans-Serif" font-size="10.00">ActionKeyControl</text>
</a>
</g>
</g>
<!-- Node13&#45;&gt;Node14 -->
<g id="edge13" class="edge"><title>Node13&#45;&gt;Node14</title>
<path fill="none" stroke="midnightblue" d="M1887.78,-231.05C1895.3,-233.311 1902.83,-235.655 1910,-238 1939.23,-247.564 1971.83,-259.606 1996.4,-268.971"/>
<polygon fill="midnightblue" stroke="midnightblue" points="1888.53,-227.622 1877.95,-228.133 1886.54,-234.332 1888.53,-227.622"/>
</g>
<!-- Node15 -->
<g id="node15" class="node"><title>Node15</title>
<g id="a_node15"><a xlink:href="../../df/dd5/classgame_player_1_1_view_controller.html#ab8c14a8c53be9021a62d0107c2f75ef6" target="_top" xlink:title="gamePlayer.ViewController.update\lActions">
<polygon fill="white" stroke="black" points="1946,-160 1946,-190 2126,-190 2126,-160 1946,-160"/>
<text text-anchor="start" x="1954" y="-178" font-family="Helvetica,sans-Serif" font-size="10.00">gamePlayer.ViewController.update</text>
<text text-anchor="middle" x="2036" y="-167" font-family="Helvetica,sans-Serif" font-size="10.00">Actions</text>
</a>
</g>
</g>
<!-- Node13&#45;&gt;Node15 -->
<g id="edge15" class="edge"><title>Node13&#45;&gt;Node15</title>
<path fill="none" stroke="midnightblue" d="M1915.5,-196.421C1927.39,-194.289 1939.51,-192.115 1951.26,-190.011"/>
<polygon fill="midnightblue" stroke="midnightblue" points="1914.8,-192.99 1905.57,-198.199 1916.03,-199.88 1914.8,-192.99"/>
</g>
<!-- Node18 -->
<g id="node18" class="node"><title>Node18</title>
<g id="a_node18"><a xlink:href="../../df/df0/classtests_1_1_view_controller_test.html#a74e99f9c72cbdcd2d56271b2ad2df1ce" target="_top" xlink:title="tests.ViewControllerTest.bind\lActionTest">
<polygon fill="white" stroke="black" points="1959,-209 1959,-239 2113,-239 2113,-209 1959,-209"/>
<text text-anchor="start" x="1967" y="-227" font-family="Helvetica,sans-Serif" font-size="10.00">tests.ViewControllerTest.bind</text>
<text text-anchor="middle" x="2036" y="-216" font-family="Helvetica,sans-Serif" font-size="10.00">ActionTest</text>
</a>
</g>
</g>
<!-- Node13&#45;&gt;Node18 -->
<g id="edge18" class="edge"><title>Node13&#45;&gt;Node18</title>
<path fill="none" stroke="midnightblue" d="M1915.95,-217.823C1930.29,-218.567 1944.96,-219.328 1958.89,-220.051"/>
<polygon fill="midnightblue" stroke="midnightblue" points="1915.74,-214.307 1905.57,-217.284 1915.38,-221.298 1915.74,-214.307"/>
</g>
<!-- Node14&#45;&gt;Node11 -->
<g id="edge14" class="edge"><title>Node14&#45;&gt;Node11</title>
<path fill="none" stroke="midnightblue" d="M1941.42,-289.742C1835.87,-294.969 1659.21,-299.947 1508,-286 1487.92,-284.148 1466.31,-280.709 1446.63,-277"/>
<polygon fill="midnightblue" stroke="midnightblue" points="1941.91,-293.222 1951.72,-289.22 1941.56,-286.231 1941.91,-293.222"/>
</g>
<!-- Node16 -->
<g id="node16" class="node"><title>Node16</title>
<g id="a_node16"><a xlink:href="../../d6/d24/classgame_player_1_1_select_state.html#a801827392f0faeee6b96925060d77838" target="_top" xlink:title="gamePlayer.SelectState.on\lClick">
<polygon fill="white" stroke="black" points="2172.5,-185 2172.5,-215 2319.5,-215 2319.5,-185 2172.5,-185"/>
<text text-anchor="start" x="2180.5" y="-203" font-family="Helvetica,sans-Serif" font-size="10.00">gamePlayer.SelectState.on</text>
<text text-anchor="middle" x="2246" y="-192" font-family="Helvetica,sans-Serif" font-size="10.00">Click</text>
</a>
</g>
</g>
<!-- Node15&#45;&gt;Node16 -->
<g id="edge16" class="edge"><title>Node15&#45;&gt;Node16</title>
<path fill="none" stroke="midnightblue" d="M2136.3,-186.935C2148.46,-188.396 2160.7,-189.868 2172.37,-191.27"/>
<polygon fill="midnightblue" stroke="midnightblue" points="2136.46,-183.429 2126.12,-185.711 2135.63,-190.379 2136.46,-183.429"/>
</g>
<!-- Node17 -->
<g id="node17" class="node"><title>Node17</title>
<g id="a_node17"><a xlink:href="../../df/df0/classtests_1_1_view_controller_test.html#a785df2c49a72c183c22163ce927f5df1" target="_top" xlink:title="tests.ViewControllerTest.update\lActionsTest">
<polygon fill="white" stroke="black" points="2162.5,-136 2162.5,-166 2329.5,-166 2329.5,-136 2162.5,-136"/>
<text text-anchor="start" x="2170.5" y="-154" font-family="Helvetica,sans-Serif" font-size="10.00">tests.ViewControllerTest.update</text>
<text text-anchor="middle" x="2246" y="-143" font-family="Helvetica,sans-Serif" font-size="10.00">ActionsTest</text>
</a>
</g>
</g>
<!-- Node15&#45;&gt;Node17 -->
<g id="edge17" class="edge"><title>Node15&#45;&gt;Node17</title>
<path fill="none" stroke="midnightblue" d="M2136.31,-163.542C2145.02,-162.537 2153.77,-161.526 2162.32,-160.54"/>
<polygon fill="midnightblue" stroke="midnightblue" points="2135.65,-160.094 2126.12,-164.717 2136.45,-167.048 2135.65,-160.094"/>
</g>
<!-- Node21 -->
<g id="node21" class="node"><title>Node21</title>
<g id="a_node21"><a xlink:href="../../db/d00/classgame_player_1_1_apply_state.html#aed42c1aba25264bc6880036f693a1c9e" target="_top" xlink:title="gamePlayer.ApplyState.on\lClick">
<polygon fill="white" stroke="black" points="1531.5,-351 1531.5,-381 1674.5,-381 1674.5,-351 1531.5,-351"/>
<text text-anchor="start" x="1539.5" y="-369" font-family="Helvetica,sans-Serif" font-size="10.00">gamePlayer.ApplyState.on</text>
<text text-anchor="middle" x="1603" y="-358" font-family="Helvetica,sans-Serif" font-size="10.00">Click</text>
</a>
</g>
</g>
<!-- Node20&#45;&gt;Node21 -->
<g id="edge23" class="edge"><title>Node20&#45;&gt;Node21</title>
<path fill="none" stroke="midnightblue" d="M1470.34,-366C1490.66,-366 1511.9,-366 1531.24,-366"/>
<polygon fill="midnightblue" stroke="midnightblue" points="1470.14,-362.5 1460.14,-366 1470.14,-369.5 1470.14,-362.5"/>
</g>
<!-- Node30 -->
<g id="node30" class="node"><title>Node30</title>
<g id="a_node30"><a xlink:href="../../db/d00/classgame_player_1_1_apply_state.html#ab752906e9e7f3d4a5ff3a1114668bc14" target="_top" xlink:title="gamePlayer.ApplyState.handle\lMouseMove">
<polygon fill="white" stroke="black" points="398,-0 398,-30 562,-30 562,-0 398,-0"/>
<text text-anchor="start" x="406" y="-18" font-family="Helvetica,sans-Serif" font-size="10.00">gamePlayer.ApplyState.handle</text>
<text text-anchor="middle" x="480" y="-7" font-family="Helvetica,sans-Serif" font-size="10.00">MouseMove</text>
</a>
</g>
</g>
<!-- Node29&#45;&gt;Node30 -->
<g id="edge32" class="edge"><title>Node29&#45;&gt;Node30</title>
<path fill="none" stroke="midnightblue" d="M367.948,-35.4425C377.939,-33.6033 388.071,-31.7382 397.943,-29.921"/>
<polygon fill="midnightblue" stroke="midnightblue" points="367.219,-32.0177 358.018,-37.2703 368.486,-38.902 367.219,-32.0177"/>
</g>
<!-- Node31 -->
<g id="node31" class="node"><title>Node31</title>
<g id="a_node31"><a xlink:href="../../db/d00/classgame_player_1_1_apply_state.html#ac9cc1c36c4c541a7a34361733704936c" target="_top" xlink:title="gamePlayer.ApplyState.Apply\lState">
<polygon fill="white" stroke="black" points="604,-0 604,-30 762,-30 762,-0 604,-0"/>
<text text-anchor="start" x="612" y="-18" font-family="Helvetica,sans-Serif" font-size="10.00">gamePlayer.ApplyState.Apply</text>
<text text-anchor="middle" x="683" y="-7" font-family="Helvetica,sans-Serif" font-size="10.00">State</text>
</a>
</g>
</g>
<!-- Node30&#45;&gt;Node31 -->
<g id="edge33" class="edge"><title>Node30&#45;&gt;Node31</title>
<path fill="none" stroke="midnightblue" d="M572.222,-15C582.761,-15 593.438,-15 603.782,-15"/>
<polygon fill="midnightblue" stroke="midnightblue" points="572.175,-11.5001 562.175,-15 572.175,-18.5001 572.175,-11.5001"/>
</g>
</g>
</svg>
        <g id="navigator" transform="translate(0 0)" fill="#404254">
                <rect fill="#f2f5e9" fill-opacity="0.5" stroke="#606060" stroke-width=".5" x="0" y="0" width="60" height="60"/>
                <use id="zoomplus" xlink:href="#zoomPlus" x="17" y="9" onmousedown="handleZoom(evt,'in')"/>
                <use id="zoomminus" xlink:href="#zoomMin" x="42" y="9" onmousedown="handleZoom(evt,'out')"/>
                <use id="reset" xlink:href="#resetDef" x="30" y="36" onmousedown="handleReset()"/>
                <g id="arrowUp" xlink:href="#dirArrow" transform="translate(30 24)" onmousedown="handlePan(0,-1)">
                  <use xlink:href="#rim" fill="#404040">
                        <set attributeName="fill" to="#808080" begin="arrowUp.mouseover" end="arrowUp.mouseout"/>
                  </use>
                  <path fill="none" stroke="white" stroke-width="1.5" d="M0,-3.0v7 M-2.5,-0.5L0,-3.0L2.5,-0.5"/>
                </g>
                <g id="arrowRight" xlink:href="#dirArrow" transform="rotate(90) translate(36 -43)" onmousedown="handlePan(1,0)">
                  <use xlink:href="#rim" fill="#404040">
                        <set attributeName="fill" to="#808080" begin="arrowRight.mouseover" end="arrowRight.mouseout"/>
                  </use>
                  <path fill="none" stroke="white" stroke-width="1.5" d="M0,-3.0v7 M-2.5,-0.5L0,-3.0L2.5,-0.5"/>
                </g>
                <g id="arrowDown" xlink:href="#dirArrow" transform="rotate(180) translate(-30 -48)" onmousedown="handlePan(0,1)">
                  <use xlink:href="#rim" fill="#404040">
                        <set attributeName="fill" to="#808080" begin="arrowDown.mouseover" end="arrowDown.mouseout"/>
                  </use>
                  <path fill="none" stroke="white" stroke-width="1.5" d="M0,-3.0v7 M-2.5,-0.5L0,-3.0L2.5,-0.5"/>
                </g>
                <g id="arrowLeft" xlink:href="#dirArrow" transform="rotate(270) translate(-36 17)" onmousedown="handlePan(-1,0)">
                  <use xlink:href="#rim" fill="#404040">
                        <set attributeName="fill" to="#808080" begin="arrowLeft.mouseover" end="arrowLeft.mouseout"/>
                  </use>
                  <path fill="none" stroke="white" stroke-width="1.5" d="M0,-3.0v7 M-2.5,-0.5L0,-3.0L2.5,-0.5"/>
                </g>
        </g>
        <svg viewBox="0 0 15 15" width="100%" height="30px" preserveAspectRatio="xMaxYMin meet">
         <g id="arrow_out" transform="scale(0.3 0.3)">
          <a xlink:href="classauthoring__environment_1_1_super_tile_af9a11e74113f35feeb5142a4927cebbb_icgraph_org.svg" target="_base">
           <rect id="button" ry="5" rx="5" y="6" x="6" height="38" width="38"
                fill="#f2f5e9" fill-opacity="0.5" stroke="#606060" stroke-width="1.0"/>
           <path id="arrow"
             d="M 11.500037,31.436501 C 11.940474,20.09759 22.043105,11.32322 32.158766,21.979434 L 37.068811,17.246167 C 37.068811,17.246167 37.088388,32 37.088388,32 L 22.160133,31.978069 C 22.160133,31.978069 26.997745,27.140456 26.997745,27.140456 C 18.528582,18.264221 13.291696,25.230495 11.500037,31.436501 z"
             style="fill:#404040;"/>
          </a>
         </g>
        </svg>
</svg>
