<?xml version="1.0" encoding="UTF-8" standalone="no"?>
<!DOCTYPE svg PUBLIC "-//W3C//DTD SVG 1.1//EN"
 "http://www.w3.org/Graphics/SVG/1.1/DTD/svg11.dtd">
<!-- Generated by graphviz version 2.36.0 (20140111.2315)
 -->
<!-- Title: authoring_environment.SuperTile.isSelected Pages: 1 -->
<!--zoomable 113 -->
<svg id="main" version="1.1" xmlns="http://www.w3.org/2000/svg" xmlns:xlink="http://www.w3.org/1999/xlink" xml:space="preserve" onload="init(evt)">
<style type="text/css"><![CDATA[
.edge:hover path { stroke: red; }
.edge:hover polygon { stroke: red; fill: red; }
]]></style>
<script type="text/javascript"><![CDATA[
var edges = document.getElementsByTagName('g');
if (edges && edges.length) {
  for (var i=0;i<edges.length;i++) {
    if (edges[i].id.substr(0,4)=='edge') {
      edges[i].setAttribute('class','edge');
    }
  }
}
]]></script>
        <defs>
                <circle id="rim" cx="0" cy="0" r="7"/>
                <circle id="rim2" cx="0" cy="0" r="3.5"/>
                <g id="zoomPlus">
                        <use xlink:href="#rim" fill="#404040">
                                <set attributeName="fill" to="#808080" begin="zoomplus.mouseover" end="zoomplus.mouseout"/>
                        </use>
                        <path d="M-4,0h8M0,-4v8" fill="none" stroke="white" stroke-width="1.5" pointer-events="none"/>
                </g>
                <g id="zoomMin">
                        <use xlink:href="#rim" fill="#404040">
                                <set attributeName="fill" to="#808080" begin="zoomminus.mouseover" end="zoomminus.mouseout"/>
                        </use>
                        <path d="M-4,0h8" fill="none" stroke="white" stroke-width="1.5" pointer-events="none"/>
                </g>
                <g id="dirArrow">
                        <path fill="none" stroke="white" stroke-width="1.5" d="M0,-3.0v7 M-2.5,-0.5L0,-3.0L2.5,-0.5"/>
                </g>
               <g id="resetDef">
                       <use xlink:href="#rim2" fill="#404040">
                               <set attributeName="fill" to="#808080" begin="reset.mouseover" end="reset.mouseout"/>
                       </use>
               </g>
        </defs>

<script type="text/javascript">
var viewWidth = 966;
var viewHeight = 113;
var sectionId = 'dynsection-8';
</script>
<script xlink:href="../../svgpan.js"/>
<svg id="graph" class="graph">
<g id="viewport">
<title>authoring_environment.SuperTile.isSelected</title>
<polygon fill="white" stroke="none" points="-4,4 -4,-109 962,-109 962,4 -4,4"/>
<!-- Node1 -->
<g id="node1" class="node"><title>Node1</title>
<polygon fill="#bfbfbf" stroke="black" points="0,-25 0,-55 160,-55 160,-25 0,-25"/>
<text text-anchor="start" x="8" y="-43" font-family="Helvetica,sans-Serif" font-size="10.00">authoring_environment.Super</text>
<text text-anchor="middle" x="80" y="-32" font-family="Helvetica,sans-Serif" font-size="10.00">Tile.isSelected</text>
</g>
<!-- Node2 -->
<g id="node2" class="node"><title>Node2</title>
<g id="a_node2"><a xlink:href="../../d5/da8/classauthoring__environment_1_1_range_grid.html#a5d631da91234e98b2970a530dc860503" target="_top" xlink:title="authoring_environment.Range\lGrid.selectedRangeList">
<polygon fill="white" stroke="black" points="196.5,-50 196.5,-80 357.5,-80 357.5,-50 196.5,-50"/>
<text text-anchor="start" x="204.5" y="-68" font-family="Helvetica,sans-Serif" font-size="10.00">authoring_environment.Range</text>
<text text-anchor="middle" x="277" y="-57" font-family="Helvetica,sans-Serif" font-size="10.00">Grid.selectedRangeList</text>
</a>
</g>
</g>
<!-- Node1&#45;&gt;Node2 -->
<g id="edge1" class="edge"><title>Node1&#45;&gt;Node2</title>
<path fill="none" stroke="midnightblue" d="M170.173,-51.4324C178.859,-52.5461 187.635,-53.6711 196.221,-54.7719"/>
<polygon fill="midnightblue" stroke="midnightblue" points="170.397,-47.9326 160.033,-50.1324 169.507,-54.8757 170.397,-47.9326"/>
</g>
<!-- Node7 -->
<g id="node7" class="node"><title>Node7</title>
<g id="a_node7"><a xlink:href="../../d5/da8/classauthoring__environment_1_1_range_grid.html#ad6be3076da674c7d925b08f21a68b1f2" target="_top" xlink:title="authoring_environment.Range\lGrid.switchHighlight">
<polygon fill="white" stroke="black" points="196.5,-1 196.5,-31 357.5,-31 357.5,-1 196.5,-1"/>
<text text-anchor="start" x="204.5" y="-19" font-family="Helvetica,sans-Serif" font-size="10.00">authoring_environment.Range</text>
<text text-anchor="middle" x="277" y="-8" font-family="Helvetica,sans-Serif" font-size="10.00">Grid.switchHighlight</text>
</a>
</g>
</g>
<!-- Node1&#45;&gt;Node7 -->
<g id="edge6" class="edge"><title>Node1&#45;&gt;Node7</title>
<path fill="none" stroke="midnightblue" d="M170.173,-29.0249C178.859,-27.9558 187.635,-26.8757 196.221,-25.819"/>
<polygon fill="midnightblue" stroke="midnightblue" points="169.53,-25.5775 160.033,-30.2729 170.386,-32.525 169.53,-25.5775"/>
</g>
<!-- Node3 -->
<g id="node3" class="node"><title>Node3</title>
<g id="a_node3"><a xlink:href="../../d5/df6/classauthoring__environment_1_1_range_grid_view.html#abb88e480de6be8db723c9a30874e857d" target="_top" xlink:title="authoring_environment.Range\lGridView.returnSelectedList">
<polygon fill="white" stroke="black" points="394.5,-50 394.5,-80 555.5,-80 555.5,-50 394.5,-50"/>
<text text-anchor="start" x="402.5" y="-68" font-family="Helvetica,sans-Serif" font-size="10.00">authoring_environment.Range</text>
<text text-anchor="middle" x="475" y="-57" font-family="Helvetica,sans-Serif" font-size="10.00">GridView.returnSelectedList</text>
</a>
</g>
</g>
<!-- Node2&#45;&gt;Node3 -->
<g id="edge2" class="edge"><title>Node2&#45;&gt;Node3</title>
<path fill="none" stroke="midnightblue" d="M367.989,-65C376.785,-65 385.667,-65 394.35,-65"/>
<polygon fill="midnightblue" stroke="midnightblue" points="367.721,-61.5001 357.721,-65 367.721,-68.5001 367.721,-61.5001"/>
</g>
<!-- Node4 -->
<g id="node4" class="node"><title>Node4</title>
<g id="a_node4"><a xlink:href="../../dd/de3/classauthoring_1_1concretefeatures_1_1_range_editor_1_1_select_handler.html#acf2dc5425ba80cff4d5c5b35d1d22ae9" target="_top" xlink:title="authoring.concretefeatures.\lRangeEditor.SelectHandler.handle">
<polygon fill="white" stroke="black" points="592.5,-75 592.5,-105 771.5,-105 771.5,-75 592.5,-75"/>
<text text-anchor="start" x="600.5" y="-93" font-family="Helvetica,sans-Serif" font-size="10.00">authoring.concretefeatures.</text>
<text text-anchor="middle" x="682" y="-82" font-family="Helvetica,sans-Serif" font-size="10.00">RangeEditor.SelectHandler.handle</text>
</a>
</g>
</g>
<!-- Node3&#45;&gt;Node4 -->
<g id="edge3" class="edge"><title>Node3&#45;&gt;Node4</title>
<path fill="none" stroke="midnightblue" d="M565.516,-75.9166C574.404,-77.0005 583.424,-78.1005 592.304,-79.1834"/>
<polygon fill="midnightblue" stroke="midnightblue" points="565.902,-72.4378 555.552,-74.7014 565.055,-79.3863 565.902,-72.4378"/>
</g>
<!-- Node5 -->
<g id="node5" class="node"><title>Node5</title>
<g id="a_node5"><a xlink:href="../../d6/d17/classauthoring_1_1concretefeatures_1_1_range_editor.html#a8fce9ab5a871769da6f36c3df0b8991b" target="_top" xlink:title="authoring.concretefeatures.\lRangeEditor.initialize">
<polygon fill="white" stroke="black" points="607,-26 607,-56 757,-56 757,-26 607,-26"/>
<text text-anchor="start" x="615" y="-44" font-family="Helvetica,sans-Serif" font-size="10.00">authoring.concretefeatures.</text>
<text text-anchor="middle" x="682" y="-33" font-family="Helvetica,sans-Serif" font-size="10.00">RangeEditor.initialize</text>
</a>
</g>
</g>
<!-- Node3&#45;&gt;Node5 -->
<g id="edge4" class="edge"><title>Node3&#45;&gt;Node5</title>
<path fill="none" stroke="midnightblue" d="M565.529,-54.5185C579.329,-52.903 593.447,-51.2501 606.862,-49.6795"/>
<polygon fill="midnightblue" stroke="midnightblue" points="565.077,-51.0475 555.552,-55.6866 565.891,-58 565.077,-51.0475"/>
</g>
<!-- Node6 -->
<g id="node6" class="node"><title>Node6</title>
<g id="a_node6"><a xlink:href="../../d6/d17/classauthoring_1_1concretefeatures_1_1_range_editor.html#a7190503f2f2f1733838c08a04a4663a9" target="_top" xlink:title="authoring.concretefeatures.\lRangeEditor.RangeEditor">
<polygon fill="white" stroke="black" points="808,-26 808,-56 958,-56 958,-26 808,-26"/>
<text text-anchor="start" x="816" y="-44" font-family="Helvetica,sans-Serif" font-size="10.00">authoring.concretefeatures.</text>
<text text-anchor="middle" x="883" y="-33" font-family="Helvetica,sans-Serif" font-size="10.00">RangeEditor.RangeEditor</text>
</a>
</g>
</g>
<!-- Node5&#45;&gt;Node6 -->
<g id="edge5" class="edge"><title>Node5&#45;&gt;Node6</title>
<path fill="none" stroke="midnightblue" d="M767.309,-41C780.778,-41 794.627,-41 807.838,-41"/>
<polygon fill="midnightblue" stroke="midnightblue" points="767.1,-37.5001 757.1,-41 767.1,-44.5001 767.1,-37.5001"/>
</g>
</g>
</svg>
        <g id="navigator" transform="translate(0 0)" fill="#404254">
                <rect fill="#f2f5e9" fill-opacity="0.5" stroke="#606060" stroke-width=".5" x="0" y="0" width="60" height="60"/>
                <use id="zoomplus" xlink:href="#zoomPlus" x="17" y="9" onmousedown="handleZoom(evt,'in')"/>
                <use id="zoomminus" xlink:href="#zoomMin" x="42" y="9" onmousedown="handleZoom(evt,'out')"/>
                <use id="reset" xlink:href="#resetDef" x="30" y="36" onmousedown="handleReset()"/>
                <g id="arrowUp" xlink:href="#dirArrow" transform="translate(30 24)" onmousedown="handlePan(0,-1)">
                  <use xlink:href="#rim" fill="#404040">
                        <set attributeName="fill" to="#808080" begin="arrowUp.mouseover" end="arrowUp.mouseout"/>
                  </use>
                  <path fill="none" stroke="white" stroke-width="1.5" d="M0,-3.0v7 M-2.5,-0.5L0,-3.0L2.5,-0.5"/>
                </g>
                <g id="arrowRight" xlink:href="#dirArrow" transform="rotate(90) translate(36 -43)" onmousedown="handlePan(1,0)">
                  <use xlink:href="#rim" fill="#404040">
                        <set attributeName="fill" to="#808080" begin="arrowRight.mouseover" end="arrowRight.mouseout"/>
                  </use>
                  <path fill="none" stroke="white" stroke-width="1.5" d="M0,-3.0v7 M-2.5,-0.5L0,-3.0L2.5,-0.5"/>
                </g>
                <g id="arrowDown" xlink:href="#dirArrow" transform="rotate(180) translate(-30 -48)" onmousedown="handlePan(0,1)">
                  <use xlink:href="#rim" fill="#404040">
                        <set attributeName="fill" to="#808080" begin="arrowDown.mouseover" end="arrowDown.mouseout"/>
                  </use>
                  <path fill="none" stroke="white" stroke-width="1.5" d="M0,-3.0v7 M-2.5,-0.5L0,-3.0L2.5,-0.5"/>
                </g>
                <g id="arrowLeft" xlink:href="#dirArrow" transform="rotate(270) translate(-36 17)" onmousedown="handlePan(-1,0)">
                  <use xlink:href="#rim" fill="#404040">
                        <set attributeName="fill" to="#808080" begin="arrowLeft.mouseover" end="arrowLeft.mouseout"/>
                  </use>
                  <path fill="none" stroke="white" stroke-width="1.5" d="M0,-3.0v7 M-2.5,-0.5L0,-3.0L2.5,-0.5"/>
                </g>
        </g>
        <svg viewBox="0 0 15 15" width="100%" height="30px" preserveAspectRatio="xMaxYMin meet">
         <g id="arrow_out" transform="scale(0.3 0.3)">
          <a xlink:href="classauthoring__environment_1_1_super_tile_afafc82a52123f943132cdfcf6d72370b_icgraph_org.svg" target="_base">
           <rect id="button" ry="5" rx="5" y="6" x="6" height="38" width="38"
                fill="#f2f5e9" fill-opacity="0.5" stroke="#606060" stroke-width="1.0"/>
           <path id="arrow"
             d="M 11.500037,31.436501 C 11.940474,20.09759 22.043105,11.32322 32.158766,21.979434 L 37.068811,17.246167 C 37.068811,17.246167 37.088388,32 37.088388,32 L 22.160133,31.978069 C 22.160133,31.978069 26.997745,27.140456 26.997745,27.140456 C 18.528582,18.264221 13.291696,25.230495 11.500037,31.436501 z"
             style="fill:#404040;"/>
          </a>
         </g>
        </svg>
</svg>
