<?xml version="1.0" encoding="UTF-8" standalone="no"?>
<!DOCTYPE svg PUBLIC "-//W3C//DTD SVG 1.1//EN"
 "http://www.w3.org/Graphics/SVG/1.1/DTD/svg11.dtd">
<!-- Generated by graphviz version 2.36.0 (20140111.2315)
 -->
<!-- Title: authoring_environment.SuperTile.ifSelected Pages: 1 -->
<svg width="762pt" height="38pt"
 viewBox="0.00 0.00 762.00 38.00" xmlns="http://www.w3.org/2000/svg" xmlns:xlink="http://www.w3.org/1999/xlink">
<g id="graph0" class="graph" transform="scale(1 1) rotate(0) translate(4 34)">
<title>authoring_environment.SuperTile.ifSelected</title>
<polygon fill="white" stroke="none" points="-4,4 -4,-34 758,-34 758,4 -4,4"/>
<!-- Node1 -->
<g id="node1" class="node"><title>Node1</title>
<polygon fill="#bfbfbf" stroke="black" points="0,-0 0,-30 160,-30 160,-0 0,-0"/>
<text text-anchor="start" x="8" y="-18" font-family="Helvetica,sans-Serif" font-size="10.00">authoring_environment.Super</text>
<text text-anchor="middle" x="80" y="-7" font-family="Helvetica,sans-Serif" font-size="10.00">Tile.ifSelected</text>
</g>
<!-- Node2 -->
<g id="node2" class="node"><title>Node2</title>
<g id="a_node2"><a xlink:href="../../d5/da8/classauthoring__environment_1_1_range_grid.html#a8d379fe2032420f63eaf093720af2b28" target="_top" xlink:title="authoring_environment.Range\lGrid.swtichHighlight">
<polygon fill="white" stroke="black" points="196.5,-0 196.5,-30 357.5,-30 357.5,-0 196.5,-0"/>
<text text-anchor="start" x="204.5" y="-18" font-family="Helvetica,sans-Serif" font-size="10.00">authoring_environment.Range</text>
<text text-anchor="middle" x="277" y="-7" font-family="Helvetica,sans-Serif" font-size="10.00">Grid.swtichHighlight</text>
</a>
</g>
</g>
<!-- Node1&#45;&gt;Node2 -->
<g id="edge1" class="edge"><title>Node1&#45;&gt;Node2</title>
<path fill="none" stroke="midnightblue" d="M170.173,-15C178.859,-15 187.635,-15 196.221,-15"/>
<polygon fill="midnightblue" stroke="midnightblue" points="170.033,-11.5001 160.033,-15 170.033,-18.5001 170.033,-11.5001"/>
</g>
<!-- Node3 -->
<g id="node3" class="node"><title>Node3</title>
<g id="a_node3"><a xlink:href="../../d5/da8/classauthoring__environment_1_1_range_grid.html#ae120672edc5e219fce147a9b0057e651" target="_top" xlink:title="authoring_environment.Range\lGrid.addSelectAction">
<polygon fill="white" stroke="black" points="394.5,-0 394.5,-30 555.5,-30 555.5,-0 394.5,-0"/>
<text text-anchor="start" x="402.5" y="-18" font-family="Helvetica,sans-Serif" font-size="10.00">authoring_environment.Range</text>
<text text-anchor="middle" x="475" y="-7" font-family="Helvetica,sans-Serif" font-size="10.00">Grid.addSelectAction</text>
</a>
</g>
</g>
<!-- Node2&#45;&gt;Node3 -->
<g id="edge2" class="edge"><title>Node2&#45;&gt;Node3</title>
<path fill="none" stroke="midnightblue" d="M367.989,-15C376.785,-15 385.667,-15 394.35,-15"/>
<polygon fill="midnightblue" stroke="midnightblue" points="367.721,-11.5001 357.721,-15 367.721,-18.5001 367.721,-11.5001"/>
</g>
<!-- Node4 -->
<g id="node4" class="node"><title>Node4</title>
<g id="a_node4"><a xlink:href="../../d5/da8/classauthoring__environment_1_1_range_grid.html#a450be605083bd4836209bae32f834402" target="_top" xlink:title="authoring_environment.Range\lGrid.RangeGrid">
<polygon fill="white" stroke="black" points="592.5,-0 592.5,-30 753.5,-30 753.5,-0 592.5,-0"/>
<text text-anchor="start" x="600.5" y="-18" font-family="Helvetica,sans-Serif" font-size="10.00">authoring_environment.Range</text>
<text text-anchor="middle" x="673" y="-7" font-family="Helvetica,sans-Serif" font-size="10.00">Grid.RangeGrid</text>
</a>
</g>
</g>
<!-- Node3&#45;&gt;Node4 -->
<g id="edge3" class="edge"><title>Node3&#45;&gt;Node4</title>
<path fill="none" stroke="midnightblue" d="M565.989,-15C574.785,-15 583.667,-15 592.35,-15"/>
<polygon fill="midnightblue" stroke="midnightblue" points="565.721,-11.5001 555.721,-15 565.721,-18.5001 565.721,-11.5001"/>
</g>
</g>
</svg>
