<?xml version="1.0" encoding="UTF-8" standalone="no"?>
<!DOCTYPE svg PUBLIC "-//W3C//DTD SVG 1.1//EN"
 "http://www.w3.org/Graphics/SVG/1.1/DTD/svg11.dtd">
<!-- Generated by graphviz version 2.36.0 (20140111.2315)
 -->
<!-- Title: authoring_environment.SuperTile.setPatchImage Pages: 1 -->
<svg width="2090pt" height="557pt"
 viewBox="0.00 0.00 2090.00 557.00" xmlns="http://www.w3.org/2000/svg" xmlns:xlink="http://www.w3.org/1999/xlink">
<g id="graph0" class="graph" transform="scale(1 1) rotate(0) translate(4 553)">
<title>authoring_environment.SuperTile.setPatchImage</title>
<polygon fill="white" stroke="none" points="-4,4 -4,-553 2086,-553 2086,4 -4,4"/>
<!-- Node1 -->
<g id="node1" class="node"><title>Node1</title>
<polygon fill="#bfbfbf" stroke="black" points="0,-341 0,-371 160,-371 160,-341 0,-341"/>
<text text-anchor="start" x="8" y="-359" font-family="Helvetica,sans-Serif" font-size="10.00">authoring_environment.Super</text>
<text text-anchor="middle" x="80" y="-348" font-family="Helvetica,sans-Serif" font-size="10.00">Tile.setPatchImage</text>
</g>
<!-- Node2 -->
<g id="node2" class="node"><title>Node2</title>
<g id="a_node2"><a xlink:href="../../d5/da8/classauthoring__environment_1_1_range_grid.html#a7d110ef99cda80cf648f0e01d312ee43" target="_top" xlink:title="authoring_environment.Range\lGrid.addCenterImage">
<polygon fill="white" stroke="black" points="218.5,-439 218.5,-469 379.5,-469 379.5,-439 218.5,-439"/>
<text text-anchor="start" x="226.5" y="-457" font-family="Helvetica,sans-Serif" font-size="10.00">authoring_environment.Range</text>
<text text-anchor="middle" x="299" y="-446" font-family="Helvetica,sans-Serif" font-size="10.00">Grid.addCenterImage</text>
</a>
</g>
</g>
<!-- Node1&#45;&gt;Node2 -->
<g id="edge1" class="edge"><title>Node1&#45;&gt;Node2</title>
<path fill="none" stroke="midnightblue" d="M123.685,-375.277C164.968,-393.921 226.684,-421.793 264.531,-438.885"/>
<polygon fill="midnightblue" stroke="midnightblue" points="124.985,-372.024 114.431,-371.098 122.104,-378.403 124.985,-372.024"/>
</g>
<!-- Node4 -->
<g id="node4" class="node"><title>Node4</title>
<g id="a_node4"><a xlink:href="../../da/d4c/classauthoring__environment_1_1_g_u_i_grid.html#a964e976497a8a32ae8db18c037b8fac1" target="_top" xlink:title="authoring_environment.GUIGrid.add\lPatchAtLoc">
<polygon fill="white" stroke="black" points="204.5,-366 204.5,-396 393.5,-396 393.5,-366 204.5,-366"/>
<text text-anchor="start" x="212.5" y="-384" font-family="Helvetica,sans-Serif" font-size="10.00">authoring_environment.GUIGrid.add</text>
<text text-anchor="middle" x="299" y="-373" font-family="Helvetica,sans-Serif" font-size="10.00">PatchAtLoc</text>
</a>
</g>
</g>
<!-- Node1&#45;&gt;Node4 -->
<g id="edge3" class="edge"><title>Node1&#45;&gt;Node4</title>
<path fill="none" stroke="midnightblue" d="M170.415,-366.301C181.569,-367.586 193.001,-368.903 204.219,-370.196"/>
<polygon fill="midnightblue" stroke="midnightblue" points="170.598,-362.799 160.263,-365.132 169.797,-369.753 170.598,-362.799"/>
</g>
<!-- Node14 -->
<g id="node14" class="node"><title>Node14</title>
<g id="a_node14"><a xlink:href="../../da/d4c/classauthoring__environment_1_1_g_u_i_grid.html#a12341db20ff77949c83ff8e9db4f2e10" target="_top" xlink:title="authoring_environment.GUIGrid.add\lPatchToTile">
<polygon fill="white" stroke="black" points="204.5,-317 204.5,-347 393.5,-347 393.5,-317 204.5,-317"/>
<text text-anchor="start" x="212.5" y="-335" font-family="Helvetica,sans-Serif" font-size="10.00">authoring_environment.GUIGrid.add</text>
<text text-anchor="middle" x="299" y="-324" font-family="Helvetica,sans-Serif" font-size="10.00">PatchToTile</text>
</a>
</g>
</g>
<!-- Node1&#45;&gt;Node14 -->
<g id="edge13" class="edge"><title>Node1&#45;&gt;Node14</title>
<path fill="none" stroke="midnightblue" d="M170.415,-346.111C181.569,-344.877 193.001,-343.613 204.219,-342.372"/>
<polygon fill="midnightblue" stroke="midnightblue" points="169.818,-342.655 160.263,-347.234 170.587,-349.613 169.818,-342.655"/>
</g>
<!-- Node39 -->
<g id="node39" class="node"><title>Node39</title>
<g id="a_node39"><a xlink:href="../../da/d4c/classauthoring__environment_1_1_g_u_i_grid.html#a952391a274a83f5eee0044d7e5be3673" target="_top" xlink:title="authoring_environment.GUIGrid.replace\lPatchType">
<polygon fill="white" stroke="black" points="196,-257 196,-287 402,-287 402,-257 196,-257"/>
<text text-anchor="start" x="204" y="-275" font-family="Helvetica,sans-Serif" font-size="10.00">authoring_environment.GUIGrid.replace</text>
<text text-anchor="middle" x="299" y="-264" font-family="Helvetica,sans-Serif" font-size="10.00">PatchType</text>
</a>
</g>
</g>
<!-- Node1&#45;&gt;Node39 -->
<g id="edge44" class="edge"><title>Node1&#45;&gt;Node39</title>
<path fill="none" stroke="midnightblue" d="M123.657,-336.955C145.195,-327.562 171.822,-316.285 196,-307 214.089,-300.053 234.224,-293.003 251.794,-287.068"/>
<polygon fill="midnightblue" stroke="midnightblue" points="122.207,-333.769 114.453,-340.989 125.017,-340.18 122.207,-333.769"/>
</g>
<!-- Node3 -->
<g id="node3" class="node"><title>Node3</title>
<g id="a_node3"><a xlink:href="../../d5/da8/classauthoring__environment_1_1_range_grid.html#a450be605083bd4836209bae32f834402" target="_top" xlink:title="authoring_environment.Range\lGrid.RangeGrid">
<polygon fill="white" stroke="black" points="478.5,-462 478.5,-492 639.5,-492 639.5,-462 478.5,-462"/>
<text text-anchor="start" x="486.5" y="-480" font-family="Helvetica,sans-Serif" font-size="10.00">authoring_environment.Range</text>
<text text-anchor="middle" x="559" y="-469" font-family="Helvetica,sans-Serif" font-size="10.00">Grid.RangeGrid</text>
</a>
</g>
</g>
<!-- Node2&#45;&gt;Node3 -->
<g id="edge2" class="edge"><title>Node2&#45;&gt;Node3</title>
<path fill="none" stroke="midnightblue" d="M389.588,-461.987C418.444,-464.559 450.211,-467.391 478.305,-469.895"/>
<polygon fill="midnightblue" stroke="midnightblue" points="389.785,-458.49 379.514,-461.088 389.163,-465.463 389.785,-458.49"/>
</g>
<!-- Node5 -->
<g id="node5" class="node"><title>Node5</title>
<g id="a_node5"><a xlink:href="../../d3/d12/classtests_1_1_test_game_creator.html#a4c85cf768c7e38e9b2f6db858e8764ec" target="_top" xlink:title="tests.TestGameCreator.create\lNewGrid">
<polygon fill="white" stroke="black" points="478.5,-413 478.5,-443 639.5,-443 639.5,-413 478.5,-413"/>
<text text-anchor="start" x="486.5" y="-431" font-family="Helvetica,sans-Serif" font-size="10.00">tests.TestGameCreator.create</text>
<text text-anchor="middle" x="559" y="-420" font-family="Helvetica,sans-Serif" font-size="10.00">NewGrid</text>
</a>
</g>
</g>
<!-- Node4&#45;&gt;Node5 -->
<g id="edge4" class="edge"><title>Node4&#45;&gt;Node5</title>
<path fill="none" stroke="midnightblue" d="M392.542,-397.858C420.565,-402.963 451.088,-408.524 478.2,-413.463"/>
<polygon fill="midnightblue" stroke="midnightblue" points="392.808,-394.349 382.342,-396 391.553,-401.236 392.808,-394.349"/>
</g>
<!-- Node13 -->
<g id="node13" class="node"><title>Node13</title>
<g id="a_node13"><a xlink:href="../../d4/d3f/classfxml__main_1_1_patch_controller.html#a806919701c76bb361bf89e0815a76a96" target="_top" xlink:title="fxml_main.PatchController.make\lEntryBox">
<polygon fill="white" stroke="black" points="473.5,-364 473.5,-394 644.5,-394 644.5,-364 473.5,-364"/>
<text text-anchor="start" x="481.5" y="-382" font-family="Helvetica,sans-Serif" font-size="10.00">fxml_main.PatchController.make</text>
<text text-anchor="middle" x="559" y="-371" font-family="Helvetica,sans-Serif" font-size="10.00">EntryBox</text>
</a>
</g>
</g>
<!-- Node4&#45;&gt;Node13 -->
<g id="edge12" class="edge"><title>Node4&#45;&gt;Node13</title>
<path fill="none" stroke="midnightblue" d="M403.697,-380.196C426.838,-380.017 451.109,-379.829 473.373,-379.656"/>
<polygon fill="midnightblue" stroke="midnightblue" points="403.481,-376.698 393.509,-380.275 403.536,-383.697 403.481,-376.698"/>
</g>
<!-- Node6 -->
<g id="node6" class="node"><title>Node6</title>
<g id="a_node6"><a xlink:href="../../d3/d12/classtests_1_1_test_game_creator.html#a6088501ec4cce8d90d4561b695065a0d" target="_top" xlink:title="tests.TestGameCreator.create\lNewGame">
<polygon fill="white" stroke="black" points="736.5,-425 736.5,-455 897.5,-455 897.5,-425 736.5,-425"/>
<text text-anchor="start" x="744.5" y="-443" font-family="Helvetica,sans-Serif" font-size="10.00">tests.TestGameCreator.create</text>
<text text-anchor="middle" x="817" y="-432" font-family="Helvetica,sans-Serif" font-size="10.00">NewGame</text>
</a>
</g>
</g>
<!-- Node5&#45;&gt;Node6 -->
<g id="edge5" class="edge"><title>Node5&#45;&gt;Node6</title>
<path fill="none" stroke="midnightblue" d="M649.857,-432.212C678.07,-433.535 709.005,-434.985 736.453,-436.271"/>
<polygon fill="midnightblue" stroke="midnightblue" points="649.75,-428.703 639.597,-431.731 649.422,-435.696 649.75,-428.703"/>
</g>
<!-- Node7 -->
<g id="node7" class="node"><title>Node7</title>
<g id="a_node7"><a xlink:href="../../d8/d93/classauthoring_1_1concretefeatures_1_1menus_1_1_file_x.html#a06eadcf7852f723bc5a70d08a1bc5f3f" target="_top" xlink:title="authoring.concretefeatures.menus.\lFileX.handleSave">
<polygon fill="white" stroke="black" points="958,-420 958,-450 1144,-450 1144,-420 958,-420"/>
<text text-anchor="start" x="966" y="-438" font-family="Helvetica,sans-Serif" font-size="10.00">authoring.concretefeatures.menus.</text>
<text text-anchor="middle" x="1051" y="-427" font-family="Helvetica,sans-Serif" font-size="10.00">FileX.handleSave</text>
</a>
</g>
</g>
<!-- Node6&#45;&gt;Node7 -->
<g id="edge6" class="edge"><title>Node6&#45;&gt;Node7</title>
<path fill="none" stroke="midnightblue" d="M907.648,-438.068C924.096,-437.713 941.29,-437.343 957.81,-436.987"/>
<polygon fill="midnightblue" stroke="midnightblue" points="907.439,-434.572 897.517,-438.286 907.59,-441.57 907.439,-434.572"/>
</g>
<!-- Node9 -->
<g id="node9" class="node"><title>Node9</title>
<g id="a_node9"><a xlink:href="../../df/dd5/classgame_player_1_1_view_controller.html#ac0350fa190876455755b7fb25f567af1" target="_top" xlink:title="gamePlayer.ViewController.testGame">
<polygon fill="white" stroke="black" points="954,-381.5 954,-400.5 1148,-400.5 1148,-381.5 954,-381.5"/>
<text text-anchor="middle" x="1051" y="-388.5" font-family="Helvetica,sans-Serif" font-size="10.00">gamePlayer.ViewController.testGame</text>
</a>
</g>
</g>
<!-- Node6&#45;&gt;Node9 -->
<g id="edge8" class="edge"><title>Node6&#45;&gt;Node9</title>
<path fill="none" stroke="midnightblue" d="M894.664,-422.783C914.011,-418.523 934.754,-414.027 954,-410 969.133,-406.834 985.638,-403.518 1000.63,-400.558"/>
<polygon fill="midnightblue" stroke="midnightblue" points="893.7,-419.412 884.69,-424.986 895.21,-426.247 893.7,-419.412"/>
</g>
<!-- Node10 -->
<g id="node10" class="node"><title>Node10</title>
<g id="a_node10"><a xlink:href="../../d9/d51/classtests_1_1_global_action_tester.html#acc8e81a79086b93c043129dba02b3854" target="_top" xlink:title="tests.GlobalActionTester.\lGlobalActionTester">
<polygon fill="white" stroke="black" points="984,-518 984,-548 1118,-548 1118,-518 984,-518"/>
<text text-anchor="start" x="992" y="-536" font-family="Helvetica,sans-Serif" font-size="10.00">tests.GlobalActionTester.</text>
<text text-anchor="middle" x="1051" y="-525" font-family="Helvetica,sans-Serif" font-size="10.00">GlobalActionTester</text>
</a>
</g>
</g>
<!-- Node6&#45;&gt;Node10 -->
<g id="edge9" class="edge"><title>Node6&#45;&gt;Node10</title>
<path fill="none" stroke="midnightblue" d="M853.374,-460.256C880.299,-475.033 918.629,-494.719 954,-508 963.755,-511.663 974.26,-514.991 984.617,-517.937"/>
<polygon fill="midnightblue" stroke="midnightblue" points="854.793,-457.04 844.35,-455.252 851.398,-463.162 854.793,-457.04"/>
</g>
<!-- Node11 -->
<g id="node11" class="node"><title>Node11</title>
<g id="a_node11"><a xlink:href="../../d7/df4/classtests_1_1_j_s_o_n_tester_main.html#a5f1fa68f3fcb37a473271cdbfeaaa92e" target="_top" xlink:title="tests.JSONTesterMain.test\lJSONwrite">
<polygon fill="white" stroke="black" points="981,-469 981,-499 1121,-499 1121,-469 981,-469"/>
<text text-anchor="start" x="989" y="-487" font-family="Helvetica,sans-Serif" font-size="10.00">tests.JSONTesterMain.test</text>
<text text-anchor="middle" x="1051" y="-476" font-family="Helvetica,sans-Serif" font-size="10.00">JSONwrite</text>
</a>
</g>
</g>
<!-- Node6&#45;&gt;Node11 -->
<g id="edge10" class="edge"><title>Node6&#45;&gt;Node11</title>
<path fill="none" stroke="midnightblue" d="M907.184,-456.914C931.617,-461.548 957.729,-466.5 980.855,-470.886"/>
<polygon fill="midnightblue" stroke="midnightblue" points="907.669,-453.444 897.192,-455.019 906.365,-460.321 907.669,-453.444"/>
</g>
<!-- Node8 -->
<g id="node8" class="node"><title>Node8</title>
<g id="a_node8"><a xlink:href="../../d8/d93/classauthoring_1_1concretefeatures_1_1menus_1_1_file_x.html#a4b99e0877ab0c9e769217c815f3b99a1" target="_top" xlink:title="authoring.concretefeatures.menus.\lFileX.FileX">
<polygon fill="white" stroke="black" points="1186,-420 1186,-450 1372,-450 1372,-420 1186,-420"/>
<text text-anchor="start" x="1194" y="-438" font-family="Helvetica,sans-Serif" font-size="10.00">authoring.concretefeatures.menus.</text>
<text text-anchor="middle" x="1279" y="-427" font-family="Helvetica,sans-Serif" font-size="10.00">FileX.FileX</text>
</a>
</g>
</g>
<!-- Node7&#45;&gt;Node8 -->
<g id="edge7" class="edge"><title>Node7&#45;&gt;Node8</title>
<path fill="none" stroke="midnightblue" d="M1154.57,-435C1164.94,-435 1175.43,-435 1185.68,-435"/>
<polygon fill="midnightblue" stroke="midnightblue" points="1154.25,-431.5 1144.25,-435 1154.25,-438.5 1154.25,-431.5"/>
</g>
<!-- Node12 -->
<g id="node12" class="node"><title>Node12</title>
<g id="a_node12"><a xlink:href="../../d7/df4/classtests_1_1_j_s_o_n_tester_main.html#a931215da47157cbc5157c6a9df31ccd4" target="_top" xlink:title="tests.JSONTesterMain.main">
<polygon fill="white" stroke="black" points="1206,-474.5 1206,-493.5 1352,-493.5 1352,-474.5 1206,-474.5"/>
<text text-anchor="middle" x="1279" y="-481.5" font-family="Helvetica,sans-Serif" font-size="10.00">tests.JSONTesterMain.main</text>
</a>
</g>
</g>
<!-- Node11&#45;&gt;Node12 -->
<g id="edge11" class="edge"><title>Node11&#45;&gt;Node12</title>
<path fill="none" stroke="midnightblue" d="M1131.28,-484C1155.55,-484 1182.1,-484 1205.87,-484"/>
<polygon fill="midnightblue" stroke="midnightblue" points="1131.04,-480.5 1121.04,-484 1131.04,-487.5 1131.04,-480.5"/>
</g>
<!-- Node15 -->
<g id="node15" class="node"><title>Node15</title>
<g id="a_node15"><a xlink:href="../../da/d4c/classauthoring__environment_1_1_g_u_i_grid.html#a786f87ee51b7799ca0b502d33b41dfc4" target="_top" xlink:title="authoring_environment.GUIGrid.repopulate">
<polygon fill="white" stroke="black" points="447.5,-324.5 447.5,-343.5 670.5,-343.5 670.5,-324.5 447.5,-324.5"/>
<text text-anchor="middle" x="559" y="-331.5" font-family="Helvetica,sans-Serif" font-size="10.00">authoring_environment.GUIGrid.repopulate</text>
</a>
</g>
</g>
<!-- Node14&#45;&gt;Node15 -->
<g id="edge14" class="edge"><title>Node14&#45;&gt;Node15</title>
<path fill="none" stroke="midnightblue" d="M403.83,-332.805C418.123,-332.916 432.845,-333.03 447.256,-333.142"/>
<polygon fill="midnightblue" stroke="midnightblue" points="403.536,-329.303 393.509,-332.725 403.481,-336.302 403.536,-329.303"/>
</g>
<!-- Node17 -->
<g id="node17" class="node"><title>Node17</title>
<g id="a_node17"><a xlink:href="../../da/d4c/classauthoring__environment_1_1_g_u_i_grid.html#a0dd951cc5155fadf7b6d1f01ba887540" target="_top" xlink:title="authoring_environment.GUIGrid.repopulateGrid">
<polygon fill="white" stroke="black" points="438,-262.5 438,-281.5 680,-281.5 680,-262.5 438,-262.5"/>
<text text-anchor="middle" x="559" y="-269.5" font-family="Helvetica,sans-Serif" font-size="10.00">authoring_environment.GUIGrid.repopulateGrid</text>
</a>
</g>
</g>
<!-- Node14&#45;&gt;Node17 -->
<g id="edge16" class="edge"><title>Node14&#45;&gt;Node17</title>
<path fill="none" stroke="midnightblue" d="M374.776,-314.61C421.118,-303.833 478.874,-290.401 517.012,-281.532"/>
<polygon fill="midnightblue" stroke="midnightblue" points="373.719,-311.263 364.771,-316.937 375.304,-318.081 373.719,-311.263"/>
</g>
<!-- Node16 -->
<g id="node16" class="node"><title>Node16</title>
<g id="a_node16"><a xlink:href="../../da/d4c/classauthoring__environment_1_1_g_u_i_grid.html#ac4b264670ba8b690674e9a8bec280428" target="_top" xlink:title="authoring_environment.GUIGrid.\lGUIGrid">
<polygon fill="white" stroke="black" points="731.5,-376 731.5,-406 902.5,-406 902.5,-376 731.5,-376"/>
<text text-anchor="start" x="739.5" y="-394" font-family="Helvetica,sans-Serif" font-size="10.00">authoring_environment.GUIGrid.</text>
<text text-anchor="middle" x="817" y="-383" font-family="Helvetica,sans-Serif" font-size="10.00">GUIGrid</text>
</a>
</g>
</g>
<!-- Node15&#45;&gt;Node16 -->
<g id="edge15" class="edge"><title>Node15&#45;&gt;Node16</title>
<path fill="none" stroke="midnightblue" d="M638.613,-345.286C652.48,-347.793 666.722,-350.702 680,-354 696.368,-358.065 699.807,-361.285 716,-366 727.855,-369.452 740.585,-372.86 752.856,-375.996"/>
<polygon fill="midnightblue" stroke="midnightblue" points="639.054,-341.81 628.6,-343.532 637.847,-348.705 639.054,-341.81"/>
</g>
<!-- Node18 -->
<g id="node18" class="node"><title>Node18</title>
<g id="a_node18"><a xlink:href="../../df/dd5/classgame_player_1_1_view_controller.html#af1870a0b6786d96d118021fc62b6475d" target="_top" xlink:title="gamePlayer.ViewController.beginGame">
<polygon fill="white" stroke="black" points="1653,-244.5 1653,-263.5 1855,-263.5 1855,-244.5 1653,-244.5"/>
<text text-anchor="middle" x="1754" y="-251.5" font-family="Helvetica,sans-Serif" font-size="10.00">gamePlayer.ViewController.beginGame</text>
</a>
</g>
</g>
<!-- Node17&#45;&gt;Node18 -->
<g id="edge17" class="edge"><title>Node17&#45;&gt;Node18</title>
<path fill="none" stroke="midnightblue" d="M690.076,-267.081C788.811,-263.768 927.933,-260 1050,-260 1050,-260 1050,-260 1280,-260 1408.73,-260 1557.15,-257.75 1652.89,-256.006"/>
<polygon fill="midnightblue" stroke="midnightblue" points="689.924,-263.584 680.048,-267.421 690.161,-270.58 689.924,-263.584"/>
</g>
<!-- Node19 -->
<g id="node19" class="node"><title>Node19</title>
<g id="a_node19"><a xlink:href="../../df/dd5/classgame_player_1_1_view_controller.html#a620f8a02d3ac7677cd179fcd812aca55" target="_top" xlink:title="gamePlayer.ViewController.check\lEndActions">
<polygon fill="white" stroke="black" points="730,-201 730,-231 904,-231 904,-201 730,-201"/>
<text text-anchor="start" x="738" y="-219" font-family="Helvetica,sans-Serif" font-size="10.00">gamePlayer.ViewController.check</text>
<text text-anchor="middle" x="817" y="-208" font-family="Helvetica,sans-Serif" font-size="10.00">EndActions</text>
</a>
</g>
</g>
<!-- Node17&#45;&gt;Node19 -->
<g id="edge18" class="edge"><title>Node17&#45;&gt;Node19</title>
<path fill="none" stroke="midnightblue" d="M638.477,-260.831C652.359,-258.498 666.641,-255.866 680,-253 708.71,-246.841 740.387,-238.326 765.941,-231.017"/>
<polygon fill="midnightblue" stroke="midnightblue" points="637.759,-257.402 628.458,-262.476 638.893,-264.31 637.759,-257.402"/>
</g>
<!-- Node32 -->
<g id="node32" class="node"><title>Node32</title>
<g id="a_node32"><a xlink:href="../../df/dd5/classgame_player_1_1_view_controller.html#a4c1754d129a4eac955390b428eaa448a" target="_top" xlink:title="gamePlayer.ViewController.test\lPlayGame">
<polygon fill="white" stroke="black" points="1671.5,-283 1671.5,-313 1836.5,-313 1836.5,-283 1671.5,-283"/>
<text text-anchor="start" x="1679.5" y="-301" font-family="Helvetica,sans-Serif" font-size="10.00">gamePlayer.ViewController.test</text>
<text text-anchor="middle" x="1754" y="-290" font-family="Helvetica,sans-Serif" font-size="10.00">PlayGame</text>
</a>
</g>
</g>
<!-- Node17&#45;&gt;Node32 -->
<g id="edge43" class="edge"><title>Node17&#45;&gt;Node32</title>
<path fill="none" stroke="midnightblue" d="M684.798,-282.278C783.765,-289.545 925.636,-298 1050,-298 1050,-298 1050,-298 1280,-298 1417.34,-298 1577.12,-298 1671.39,-298"/>
<polygon fill="midnightblue" stroke="midnightblue" points="684.987,-278.782 674.755,-281.534 684.469,-285.763 684.987,-278.782"/>
</g>
<!-- Node34 -->
<g id="node34" class="node"><title>Node34</title>
<g id="a_node34"><a xlink:href="../../df/dd5/classgame_player_1_1_view_controller.html#a13ea7814bde61a8042c5b1a23af41416" target="_top" xlink:title="gamePlayer.ViewController.end\lAction">
<polygon fill="white" stroke="black" points="969,-79 969,-109 1133,-109 1133,-79 969,-79"/>
<text text-anchor="start" x="977" y="-97" font-family="Helvetica,sans-Serif" font-size="10.00">gamePlayer.ViewController.end</text>
<text text-anchor="middle" x="1051" y="-86" font-family="Helvetica,sans-Serif" font-size="10.00">Action</text>
</a>
</g>
</g>
<!-- Node17&#45;&gt;Node34 -->
<g id="edge40" class="edge"><title>Node17&#45;&gt;Node34</title>
<path fill="none" stroke="midnightblue" d="M674.524,-257.233C676.413,-255.912 678.241,-254.503 680,-253 719.429,-219.308 676.331,-175.409 716,-142 785.9,-83.1295 894.636,-78.1832 968.92,-83.3019"/>
<polygon fill="midnightblue" stroke="midnightblue" points="672.62,-254.294 665.883,-262.471 676.249,-260.279 672.62,-254.294"/>
</g>
<!-- Node36 -->
<g id="node36" class="node"><title>Node36</title>
<g id="a_node36"><a xlink:href="../../d0/d47/classgameengine_1_1movement_1_1_movement.html#a8ea733019f1f434af7d41aa4b91bd533" target="_top" xlink:title="gameengine.movement.Movement.do\lBehavior">
<polygon fill="white" stroke="black" points="716.5,-152 716.5,-182 917.5,-182 917.5,-152 716.5,-152"/>
<text text-anchor="start" x="724.5" y="-170" font-family="Helvetica,sans-Serif" font-size="10.00">gameengine.movement.Movement.do</text>
<text text-anchor="middle" x="817" y="-159" font-family="Helvetica,sans-Serif" font-size="10.00">Behavior</text>
</a>
</g>
</g>
<!-- Node17&#45;&gt;Node36 -->
<g id="edge39" class="edge"><title>Node17&#45;&gt;Node36</title>
<path fill="none" stroke="midnightblue" d="M671.453,-258.17C674.403,-256.597 677.26,-254.878 680,-253 706.283,-234.985 690.445,-210.032 716,-191 720.582,-187.587 725.581,-184.653 730.822,-182.13"/>
<polygon fill="midnightblue" stroke="midnightblue" points="669.906,-255.029 662.352,-262.459 672.89,-261.361 669.906,-255.029"/>
</g>
<!-- Node37 -->
<g id="node37" class="node"><title>Node37</title>
<g id="a_node37"><a xlink:href="../../d8/d4d/classgameengine_1_1player_1_1_simple_a_i_player.html#a4939c006130cc2f30060ccb3abd9d5e5" target="_top" xlink:title="gameengine.player.Simple\lAIPlayer.play">
<polygon fill="white" stroke="black" points="745,-327 745,-357 889,-357 889,-327 745,-327"/>
<text text-anchor="start" x="753" y="-345" font-family="Helvetica,sans-Serif" font-size="10.00">gameengine.player.Simple</text>
<text text-anchor="middle" x="817" y="-334" font-family="Helvetica,sans-Serif" font-size="10.00">AIPlayer.play</text>
</a>
</g>
</g>
<!-- Node17&#45;&gt;Node37 -->
<g id="edge41" class="edge"><title>Node17&#45;&gt;Node37</title>
<path fill="none" stroke="midnightblue" d="M604.524,-284.175C648.034,-296.072 714.366,-314.21 761.118,-326.993"/>
<polygon fill="midnightblue" stroke="midnightblue" points="605.361,-280.775 594.792,-281.513 603.514,-287.527 605.361,-280.775"/>
</g>
<!-- Node20 -->
<g id="node20" class="node"><title>Node20</title>
<g id="a_node20"><a xlink:href="../../df/dd5/classgame_player_1_1_view_controller.html#a95c2acd43bb39b8606c69971c1cd30f5" target="_top" xlink:title="gamePlayer.ViewController.perform\lAction">
<polygon fill="white" stroke="black" points="958.5,-128 958.5,-158 1143.5,-158 1143.5,-128 958.5,-128"/>
<text text-anchor="start" x="966.5" y="-146" font-family="Helvetica,sans-Serif" font-size="10.00">gamePlayer.ViewController.perform</text>
<text text-anchor="middle" x="1051" y="-135" font-family="Helvetica,sans-Serif" font-size="10.00">Action</text>
</a>
</g>
</g>
<!-- Node19&#45;&gt;Node20 -->
<g id="edge19" class="edge"><title>Node19&#45;&gt;Node20</title>
<path fill="none" stroke="midnightblue" d="M892.137,-198.382C900.892,-196.032 909.67,-193.548 918,-191 950.062,-181.192 985.763,-168.072 1011.94,-158.028"/>
<polygon fill="midnightblue" stroke="midnightblue" points="891.067,-195.045 882.288,-200.976 892.85,-201.814 891.067,-195.045"/>
</g>
<!-- Node19&#45;&gt;Node34 -->
<g id="edge37" class="edge"><title>Node19&#45;&gt;Node34</title>
<path fill="none" stroke="midnightblue" d="M911.512,-195.692C913.759,-194.233 915.928,-192.671 918,-191 946.156,-168.287 925.844,-140.713 954,-118 958.546,-114.333 963.578,-111.216 968.887,-108.569"/>
<polygon fill="midnightblue" stroke="midnightblue" points="909.453,-192.836 902.493,-200.824 912.915,-198.92 909.453,-192.836"/>
</g>
<!-- Node21 -->
<g id="node21" class="node"><title>Node21</title>
<g id="a_node21"><a xlink:href="../../da/d55/classgame_player_1_1_keyboard_movement.html#af45fd8d279b1ee2d6be5466d425485ab" target="_top" xlink:title="gamePlayer.KeyboardMovement.set\lMovementKeyControl">
<polygon fill="white" stroke="black" points="1184.5,-75 1184.5,-105 1373.5,-105 1373.5,-75 1184.5,-75"/>
<text text-anchor="start" x="1192.5" y="-93" font-family="Helvetica,sans-Serif" font-size="10.00">gamePlayer.KeyboardMovement.set</text>
<text text-anchor="middle" x="1279" y="-82" font-family="Helvetica,sans-Serif" font-size="10.00">MovementKeyControl</text>
</a>
</g>
</g>
<!-- Node20&#45;&gt;Node21 -->
<g id="edge20" class="edge"><title>Node20&#45;&gt;Node21</title>
<path fill="none" stroke="midnightblue" d="M1102.94,-125.307C1127.33,-118.706 1157.33,-111.372 1185.55,-105.031"/>
<polygon fill="midnightblue" stroke="midnightblue" points="1101.9,-121.961 1093.19,-127.989 1103.76,-128.71 1101.9,-121.961"/>
</g>
<!-- Node29 -->
<g id="node29" class="node"><title>Node29</title>
<g id="a_node29"><a xlink:href="../../df/dd5/classgame_player_1_1_view_controller.html#a22ee80193bbac79a935ee961a183bfcd" target="_top" xlink:title="gamePlayer.ViewController.set\lOnClick">
<polygon fill="white" stroke="black" points="1198.5,-163 1198.5,-193 1359.5,-193 1359.5,-163 1198.5,-163"/>
<text text-anchor="start" x="1206.5" y="-181" font-family="Helvetica,sans-Serif" font-size="10.00">gamePlayer.ViewController.set</text>
<text text-anchor="middle" x="1279" y="-170" font-family="Helvetica,sans-Serif" font-size="10.00">OnClick</text>
</a>
</g>
</g>
<!-- Node20&#45;&gt;Node29 -->
<g id="edge30" class="edge"><title>Node20&#45;&gt;Node29</title>
<path fill="none" stroke="midnightblue" d="M1153.85,-158.773C1168.74,-161.079 1183.89,-163.426 1198.25,-165.65"/>
<polygon fill="midnightblue" stroke="midnightblue" points="1154.01,-155.257 1143.6,-157.185 1152.94,-162.175 1154.01,-155.257"/>
</g>
<!-- Node21&#45;&gt;Node20 -->
<g id="edge28" class="edge"><title>Node21&#45;&gt;Node20</title>
<path fill="none" stroke="midnightblue" d="M1226.86,-107.75C1202.25,-114.402 1171.99,-121.794 1143.6,-128.16"/>
<polygon fill="midnightblue" stroke="midnightblue" points="1227.97,-111.074 1236.68,-105.047 1226.11,-104.324 1227.97,-111.074"/>
</g>
<!-- Node22 -->
<g id="node22" class="node"><title>Node22</title>
<g id="a_node22"><a xlink:href="../../df/dd5/classgame_player_1_1_view_controller.html#a7eb038fd9f20604ade0406f27ef76657" target="_top" xlink:title="gamePlayer.ViewController.bind\lAction">
<polygon fill="white" stroke="black" points="1428.5,-75 1428.5,-105 1595.5,-105 1595.5,-75 1428.5,-75"/>
<text text-anchor="start" x="1436.5" y="-93" font-family="Helvetica,sans-Serif" font-size="10.00">gamePlayer.ViewController.bind</text>
<text text-anchor="middle" x="1512" y="-82" font-family="Helvetica,sans-Serif" font-size="10.00">Action</text>
</a>
</g>
</g>
<!-- Node21&#45;&gt;Node22 -->
<g id="edge21" class="edge"><title>Node21&#45;&gt;Node22</title>
<path fill="none" stroke="midnightblue" d="M1383.89,-90C1398.8,-90 1413.97,-90 1428.39,-90"/>
<polygon fill="midnightblue" stroke="midnightblue" points="1383.62,-86.5001 1373.62,-90 1383.62,-93.5001 1383.62,-86.5001"/>
</g>
<!-- Node28 -->
<g id="node28" class="node"><title>Node28</title>
<g id="a_node28"><a xlink:href="../../df/dd5/classgame_player_1_1_view_controller.html#a27da17c1280cd953a14f6b76b18f9a4b" target="_top" xlink:title="gamePlayer.ViewController.toggle\lKeyboardControl">
<polygon fill="white" stroke="black" points="1424,-26 1424,-56 1600,-56 1600,-26 1424,-26"/>
<text text-anchor="start" x="1432" y="-44" font-family="Helvetica,sans-Serif" font-size="10.00">gamePlayer.ViewController.toggle</text>
<text text-anchor="middle" x="1512" y="-33" font-family="Helvetica,sans-Serif" font-size="10.00">KeyboardControl</text>
</a>
</g>
</g>
<!-- Node21&#45;&gt;Node28 -->
<g id="edge29" class="edge"><title>Node21&#45;&gt;Node28</title>
<path fill="none" stroke="midnightblue" d="M1360.67,-72.8873C1386.6,-67.3885 1415.1,-61.342 1440.26,-56.0062"/>
<polygon fill="midnightblue" stroke="midnightblue" points="1359.93,-69.4664 1350.88,-74.9654 1361.39,-76.3141 1359.93,-69.4664"/>
</g>
<!-- Node23 -->
<g id="node23" class="node"><title>Node23</title>
<g id="a_node23"><a xlink:href="../../d1/db7/classgame_player_1_1_keyboard_action.html#a08ace57322b8639020688dd9493c3e1f" target="_top" xlink:title="gamePlayer.KeyboardAction.set\lActionKeyControl">
<polygon fill="white" stroke="black" points="1670,-122 1670,-152 1838,-152 1838,-122 1670,-122"/>
<text text-anchor="start" x="1678" y="-140" font-family="Helvetica,sans-Serif" font-size="10.00">gamePlayer.KeyboardAction.set</text>
<text text-anchor="middle" x="1754" y="-129" font-family="Helvetica,sans-Serif" font-size="10.00">ActionKeyControl</text>
</a>
</g>
</g>
<!-- Node22&#45;&gt;Node23 -->
<g id="edge22" class="edge"><title>Node22&#45;&gt;Node23</title>
<path fill="none" stroke="midnightblue" d="M1599.48,-106.935C1624.59,-111.853 1651.84,-117.189 1676.31,-121.981"/>
<polygon fill="midnightblue" stroke="midnightblue" points="1600.08,-103.487 1589.6,-105 1598.74,-110.357 1600.08,-103.487"/>
</g>
<!-- Node24 -->
<g id="node24" class="node"><title>Node24</title>
<g id="a_node24"><a xlink:href="../../df/dd5/classgame_player_1_1_view_controller.html#ab8c14a8c53be9021a62d0107c2f75ef6" target="_top" xlink:title="gamePlayer.ViewController.update\lActions">
<polygon fill="white" stroke="black" points="1664,-24 1664,-54 1844,-54 1844,-24 1664,-24"/>
<text text-anchor="start" x="1672" y="-42" font-family="Helvetica,sans-Serif" font-size="10.00">gamePlayer.ViewController.update</text>
<text text-anchor="middle" x="1754" y="-31" font-family="Helvetica,sans-Serif" font-size="10.00">Actions</text>
</a>
</g>
</g>
<!-- Node22&#45;&gt;Node24 -->
<g id="edge24" class="edge"><title>Node22&#45;&gt;Node24</title>
<path fill="none" stroke="midnightblue" d="M1593.72,-72.8471C1622.45,-66.7415 1654.56,-59.9183 1682.38,-54.0065"/>
<polygon fill="midnightblue" stroke="midnightblue" points="1592.76,-69.4719 1583.71,-74.9742 1594.22,-76.3191 1592.76,-69.4719"/>
</g>
<!-- Node27 -->
<g id="node27" class="node"><title>Node27</title>
<g id="a_node27"><a xlink:href="../../df/df0/classtests_1_1_view_controller_test.html#a74e99f9c72cbdcd2d56271b2ad2df1ce" target="_top" xlink:title="tests.ViewControllerTest.bind\lActionTest">
<polygon fill="white" stroke="black" points="1677,-73 1677,-103 1831,-103 1831,-73 1677,-73"/>
<text text-anchor="start" x="1685" y="-91" font-family="Helvetica,sans-Serif" font-size="10.00">tests.ViewControllerTest.bind</text>
<text text-anchor="middle" x="1754" y="-80" font-family="Helvetica,sans-Serif" font-size="10.00">ActionTest</text>
</a>
</g>
</g>
<!-- Node22&#45;&gt;Node27 -->
<g id="edge27" class="edge"><title>Node22&#45;&gt;Node27</title>
<path fill="none" stroke="midnightblue" d="M1605.89,-89.2259C1629.32,-89.0307 1654.2,-88.8233 1676.71,-88.6358"/>
<polygon fill="midnightblue" stroke="midnightblue" points="1605.56,-85.7284 1595.59,-89.3117 1605.62,-92.7282 1605.56,-85.7284"/>
</g>
<!-- Node23&#45;&gt;Node20 -->
<g id="edge23" class="edge"><title>Node23&#45;&gt;Node20</title>
<path fill="none" stroke="midnightblue" d="M1659.5,-137.8C1524.72,-138.954 1277.38,-141.071 1143.64,-142.216"/>
<polygon fill="midnightblue" stroke="midnightblue" points="1659.83,-141.298 1669.8,-137.712 1659.77,-134.298 1659.83,-141.298"/>
</g>
<!-- Node25 -->
<g id="node25" class="node"><title>Node25</title>
<g id="a_node25"><a xlink:href="../../d6/d24/classgame_player_1_1_select_state.html#a801827392f0faeee6b96925060d77838" target="_top" xlink:title="gamePlayer.SelectState.on\lClick">
<polygon fill="white" stroke="black" points="1914.5,-0 1914.5,-30 2061.5,-30 2061.5,-0 1914.5,-0"/>
<text text-anchor="start" x="1922.5" y="-18" font-family="Helvetica,sans-Serif" font-size="10.00">gamePlayer.SelectState.on</text>
<text text-anchor="middle" x="1988" y="-7" font-family="Helvetica,sans-Serif" font-size="10.00">Click</text>
</a>
</g>
</g>
<!-- Node24&#45;&gt;Node25 -->
<g id="edge25" class="edge"><title>Node24&#45;&gt;Node25</title>
<path fill="none" stroke="midnightblue" d="M1854.2,-28.7378C1874.4,-26.6479 1895.3,-24.4862 1914.37,-22.5135"/>
<polygon fill="midnightblue" stroke="midnightblue" points="1853.62,-25.2791 1844.03,-29.7896 1854.34,-32.242 1853.62,-25.2791"/>
</g>
<!-- Node26 -->
<g id="node26" class="node"><title>Node26</title>
<g id="a_node26"><a xlink:href="../../df/df0/classtests_1_1_view_controller_test.html#a785df2c49a72c183c22163ce927f5df1" target="_top" xlink:title="tests.ViewControllerTest.update\lActionsTest">
<polygon fill="white" stroke="black" points="1904.5,-49 1904.5,-79 2071.5,-79 2071.5,-49 1904.5,-49"/>
<text text-anchor="start" x="1912.5" y="-67" font-family="Helvetica,sans-Serif" font-size="10.00">tests.ViewControllerTest.update</text>
<text text-anchor="middle" x="1988" y="-56" font-family="Helvetica,sans-Serif" font-size="10.00">ActionsTest</text>
</a>
</g>
</g>
<!-- Node24&#45;&gt;Node26 -->
<g id="edge26" class="edge"><title>Node24&#45;&gt;Node26</title>
<path fill="none" stroke="midnightblue" d="M1854.33,-49.7039C1870.99,-51.4989 1888.12,-53.3443 1904.3,-55.088"/>
<polygon fill="midnightblue" stroke="midnightblue" points="1854.35,-46.1858 1844.03,-48.5942 1853.6,-53.1455 1854.35,-46.1858"/>
</g>
<!-- Node30 -->
<g id="node30" class="node"><title>Node30</title>
<g id="a_node30"><a xlink:href="../../df/dd5/classgame_player_1_1_view_controller.html#a10a40967a873f067cf91b024ff85b38e" target="_top" xlink:title="gamePlayer.ViewController.initializeGrid">
<polygon fill="white" stroke="black" points="1410,-212.5 1410,-231.5 1614,-231.5 1614,-212.5 1410,-212.5"/>
<text text-anchor="middle" x="1512" y="-219.5" font-family="Helvetica,sans-Serif" font-size="10.00">gamePlayer.ViewController.initializeGrid</text>
</a>
</g>
</g>
<!-- Node29&#45;&gt;Node30 -->
<g id="edge31" class="edge"><title>Node29&#45;&gt;Node30</title>
<path fill="none" stroke="midnightblue" d="M1368.89,-194.931C1400.15,-200.885 1434.15,-207.362 1461.06,-212.488"/>
<polygon fill="midnightblue" stroke="midnightblue" points="1369.33,-191.452 1358.85,-193.019 1368.02,-198.329 1369.33,-191.452"/>
</g>
<!-- Node30&#45;&gt;Node18 -->
<g id="edge33" class="edge"><title>Node30&#45;&gt;Node18</title>
<path fill="none" stroke="midnightblue" d="M1594.59,-232.879C1622.8,-236.64 1654.17,-240.823 1681.5,-244.467"/>
<polygon fill="midnightblue" stroke="midnightblue" points="1594.73,-229.367 1584.36,-231.514 1593.81,-236.305 1594.73,-229.367"/>
</g>
<!-- Node30&#45;&gt;Node19 -->
<g id="edge36" class="edge"><title>Node30&#45;&gt;Node19</title>
<path fill="none" stroke="midnightblue" d="M1399.74,-221.037C1261.68,-219.841 1029.21,-217.829 904.019,-216.745"/>
<polygon fill="midnightblue" stroke="midnightblue" points="1399.9,-224.538 1409.93,-221.125 1399.96,-217.538 1399.9,-224.538"/>
</g>
<!-- Node31 -->
<g id="node31" class="node"><title>Node31</title>
<g id="a_node31"><a xlink:href="../../df/dd5/classgame_player_1_1_view_controller.html#a0d1a3d443966f151b070dc751d2faf9a" target="_top" xlink:title="gamePlayer.ViewController.restartGame">
<polygon fill="white" stroke="black" points="1650,-206.5 1650,-225.5 1858,-225.5 1858,-206.5 1650,-206.5"/>
<text text-anchor="middle" x="1754" y="-213.5" font-family="Helvetica,sans-Serif" font-size="10.00">gamePlayer.ViewController.restartGame</text>
</a>
</g>
</g>
<!-- Node30&#45;&gt;Node31 -->
<g id="edge32" class="edge"><title>Node30&#45;&gt;Node31</title>
<path fill="none" stroke="midnightblue" d="M1624.36,-219.216C1632.81,-219.005 1641.32,-218.792 1649.72,-218.582"/>
<polygon fill="midnightblue" stroke="midnightblue" points="1624,-215.724 1614.09,-219.473 1624.17,-222.722 1624,-215.724"/>
</g>
<!-- Node30&#45;&gt;Node32 -->
<g id="edge34" class="edge"><title>Node30&#45;&gt;Node32</title>
<path fill="none" stroke="midnightblue" d="M1545.5,-235.338C1573.03,-246.335 1613.69,-261.878 1650,-273 1661.52,-276.53 1673.89,-279.89 1685.92,-282.937"/>
<polygon fill="midnightblue" stroke="midnightblue" points="1546.57,-231.996 1535.98,-231.509 1543.95,-238.49 1546.57,-231.996"/>
</g>
<!-- Node33 -->
<g id="node33" class="node"><title>Node33</title>
<g id="a_node33"><a xlink:href="../../db/d40/classfxml__main_1_1_authoring_controller.html#a2ec133c8edf0a7ab1e84f2e12455233d" target="_top" xlink:title="fxml_main.AuthoringController.save\lAsGame">
<polygon fill="white" stroke="black" points="1894.5,-283 1894.5,-313 2081.5,-313 2081.5,-283 1894.5,-283"/>
<text text-anchor="start" x="1902.5" y="-301" font-family="Helvetica,sans-Serif" font-size="10.00">fxml_main.AuthoringController.save</text>
<text text-anchor="middle" x="1988" y="-290" font-family="Helvetica,sans-Serif" font-size="10.00">AsGame</text>
</a>
</g>
</g>
<!-- Node32&#45;&gt;Node33 -->
<g id="edge35" class="edge"><title>Node32&#45;&gt;Node33</title>
<path fill="none" stroke="midnightblue" d="M1846.96,-298C1862.59,-298 1878.83,-298 1894.47,-298"/>
<polygon fill="midnightblue" stroke="midnightblue" points="1846.79,-294.5 1836.79,-298 1846.79,-301.5 1846.79,-294.5"/>
</g>
<!-- Node35 -->
<g id="node35" class="node"><title>Node35</title>
<g id="a_node35"><a xlink:href="../../db/d00/classgame_player_1_1_apply_state.html#aed42c1aba25264bc6880036f693a1c9e" target="_top" xlink:title="gamePlayer.ApplyState.on\lClick">
<polygon fill="white" stroke="black" points="1207.5,-26 1207.5,-56 1350.5,-56 1350.5,-26 1207.5,-26"/>
<text text-anchor="start" x="1215.5" y="-44" font-family="Helvetica,sans-Serif" font-size="10.00">gamePlayer.ApplyState.on</text>
<text text-anchor="middle" x="1279" y="-33" font-family="Helvetica,sans-Serif" font-size="10.00">Click</text>
</a>
</g>
</g>
<!-- Node34&#45;&gt;Node35 -->
<g id="edge38" class="edge"><title>Node34&#45;&gt;Node35</title>
<path fill="none" stroke="midnightblue" d="M1126,-76.6453C1154.31,-70.0061 1186.35,-62.4938 1213.68,-56.0835"/>
<polygon fill="midnightblue" stroke="midnightblue" points="1125.09,-73.2633 1116.16,-78.9541 1126.69,-80.0784 1125.09,-73.2633"/>
</g>
<!-- Node38 -->
<g id="node38" class="node"><title>Node38</title>
<g id="a_node38"><a xlink:href="../../d8/d4d/classgameengine_1_1player_1_1_simple_a_i_player.html#a9a241075e35d6039a453f51445e9837c" target="_top" xlink:title="gameengine.player.Simple\lAIPlayer.startTurn">
<polygon fill="white" stroke="black" points="979,-327 979,-357 1123,-357 1123,-327 979,-327"/>
<text text-anchor="start" x="987" y="-345" font-family="Helvetica,sans-Serif" font-size="10.00">gameengine.player.Simple</text>
<text text-anchor="middle" x="1051" y="-334" font-family="Helvetica,sans-Serif" font-size="10.00">AIPlayer.startTurn</text>
</a>
</g>
</g>
<!-- Node37&#45;&gt;Node38 -->
<g id="edge42" class="edge"><title>Node37&#45;&gt;Node38</title>
<path fill="none" stroke="midnightblue" d="M899.367,-342C925.311,-342 953.798,-342 978.95,-342"/>
<polygon fill="midnightblue" stroke="midnightblue" points="899.184,-338.5 889.184,-342 899.184,-345.5 899.184,-338.5"/>
</g>
<!-- Node40 -->
<g id="node40" class="node"><title>Node40</title>
<g id="a_node40"><a xlink:href="../../da/d4c/classauthoring__environment_1_1_g_u_i_grid.html#a89d8eeee5ec72e145a2c60735013581e" target="_top" xlink:title="authoring_environment.GUIGrid.update">
<polygon fill="white" stroke="black" points="456.5,-224.5 456.5,-243.5 661.5,-243.5 661.5,-224.5 456.5,-224.5"/>
<text text-anchor="middle" x="559" y="-231.5" font-family="Helvetica,sans-Serif" font-size="10.00">authoring_environment.GUIGrid.update</text>
</a>
</g>
</g>
<!-- Node39&#45;&gt;Node40 -->
<g id="edge45" class="edge"><title>Node39&#45;&gt;Node40</title>
<path fill="none" stroke="midnightblue" d="M412.158,-255.481C439.971,-251.384 468.847,-247.131 493.494,-243.501"/>
<polygon fill="midnightblue" stroke="midnightblue" points="411.352,-252.062 401.968,-256.981 412.372,-258.987 411.352,-252.062"/>
</g>
</g>
</svg>
