<?xml version="1.0" encoding="UTF-8" standalone="no"?>
<!DOCTYPE svg PUBLIC "-//W3C//DTD SVG 1.1//EN"
 "http://www.w3.org/Graphics/SVG/1.1/DTD/svg11.dtd">
<!-- Generated by graphviz version 2.36.0 (20140111.2315)
 -->
<!-- Title: authoring_environment.SuperTile.deselectTile Pages: 1 -->
<svg width="2130pt" height="365pt"
 viewBox="0.00 0.00 2130.00 365.00" xmlns="http://www.w3.org/2000/svg" xmlns:xlink="http://www.w3.org/1999/xlink">
<g id="graph0" class="graph" transform="scale(1 1) rotate(0) translate(4 361)">
<title>authoring_environment.SuperTile.deselectTile</title>
<polygon fill="white" stroke="none" points="-4,4 -4,-361 2126,-361 2126,4 -4,4"/>
<!-- Node1 -->
<g id="node1" class="node"><title>Node1</title>
<polygon fill="#bfbfbf" stroke="black" points="0,-66 0,-96 160,-96 160,-66 0,-66"/>
<text text-anchor="start" x="8" y="-84" font-family="Helvetica,sans-Serif" font-size="10.00">authoring_environment.Super</text>
<text text-anchor="middle" x="80" y="-73" font-family="Helvetica,sans-Serif" font-size="10.00">Tile.deselectTile</text>
</g>
<!-- Node2 -->
<g id="node2" class="node"><title>Node2</title>
<g id="a_node2"><a xlink:href="../../d5/da8/classauthoring__environment_1_1_range_grid.html#aaf3006f53c11b50c86f2503ffd319a3c" target="_top" xlink:title="authoring_environment.Range\lGrid.processHighlight">
<polygon fill="white" stroke="black" points="210.5,-239 210.5,-269 371.5,-269 371.5,-239 210.5,-239"/>
<text text-anchor="start" x="218.5" y="-257" font-family="Helvetica,sans-Serif" font-size="10.00">authoring_environment.Range</text>
<text text-anchor="middle" x="291" y="-246" font-family="Helvetica,sans-Serif" font-size="10.00">Grid.processHighlight</text>
</a>
</g>
</g>
<!-- Node1&#45;&gt;Node2 -->
<g id="edge1" class="edge"><title>Node1&#45;&gt;Node2</title>
<path fill="none" stroke="midnightblue" d="M106.93,-102.463C149.819,-137.965 234.487,-208.049 271.711,-238.862"/>
<polygon fill="midnightblue" stroke="midnightblue" points="109.117,-99.7303 99.1818,-96.05 104.653,-105.123 109.117,-99.7303"/>
</g>
<!-- Node7 -->
<g id="node7" class="node"><title>Node7</title>
<g id="a_node7"><a xlink:href="../../da/d55/classgame_player_1_1_keyboard_movement.html#af45fd8d279b1ee2d6be5466d425485ab" target="_top" xlink:title="gamePlayer.KeyboardMovement.set\lMovementKeyControl">
<polygon fill="white" stroke="black" points="196.5,-88 196.5,-118 385.5,-118 385.5,-88 196.5,-88"/>
<text text-anchor="start" x="204.5" y="-106" font-family="Helvetica,sans-Serif" font-size="10.00">gamePlayer.KeyboardMovement.set</text>
<text text-anchor="middle" x="291" y="-95" font-family="Helvetica,sans-Serif" font-size="10.00">MovementKeyControl</text>
</a>
</g>
</g>
<!-- Node1&#45;&gt;Node7 -->
<g id="edge7" class="edge"><title>Node1&#45;&gt;Node7</title>
<path fill="none" stroke="midnightblue" d="M170.157,-90.3849C178.866,-91.3017 187.721,-92.2338 196.472,-93.155"/>
<polygon fill="midnightblue" stroke="midnightblue" points="170.325,-86.8834 160.014,-89.3173 169.593,-93.845 170.325,-86.8834"/>
</g>
<!-- Node24 -->
<g id="node24" class="node"><title>Node24</title>
<g id="a_node24"><a xlink:href="../../df/dd5/classgame_player_1_1_view_controller.html#a27da17c1280cd953a14f6b76b18f9a4b" target="_top" xlink:title="gamePlayer.ViewController.toggle\lKeyboardControl">
<polygon fill="white" stroke="black" points="422,-35 422,-65 598,-65 598,-35 422,-35"/>
<text text-anchor="start" x="430" y="-53" font-family="Helvetica,sans-Serif" font-size="10.00">gamePlayer.ViewController.toggle</text>
<text text-anchor="middle" x="510" y="-42" font-family="Helvetica,sans-Serif" font-size="10.00">KeyboardControl</text>
</a>
</g>
</g>
<!-- Node1&#45;&gt;Node24 -->
<g id="edge29" class="edge"><title>Node1&#45;&gt;Node24</title>
<path fill="none" stroke="midnightblue" d="M170.226,-74.5374C244.173,-69.1814 348.666,-61.6129 421.993,-56.3019"/>
<polygon fill="midnightblue" stroke="midnightblue" points="169.722,-71.0646 160.001,-75.278 170.227,-78.0464 169.722,-71.0646"/>
</g>
<!-- Node25 -->
<g id="node25" class="node"><title>Node25</title>
<g id="a_node25"><a xlink:href="../../d5/da8/classauthoring__environment_1_1_range_grid.html#ad6be3076da674c7d925b08f21a68b1f2" target="_top" xlink:title="authoring_environment.Range\lGrid.switchHighlight">
<polygon fill="white" stroke="black" points="210.5,-0 210.5,-30 371.5,-30 371.5,-0 210.5,-0"/>
<text text-anchor="start" x="218.5" y="-18" font-family="Helvetica,sans-Serif" font-size="10.00">authoring_environment.Range</text>
<text text-anchor="middle" x="291" y="-7" font-family="Helvetica,sans-Serif" font-size="10.00">Grid.switchHighlight</text>
</a>
</g>
</g>
<!-- Node1&#45;&gt;Node25 -->
<g id="edge28" class="edge"><title>Node1&#45;&gt;Node25</title>
<path fill="none" stroke="midnightblue" d="M138.527,-62.8337C171.089,-52.5508 211.335,-39.8415 242.157,-30.1084"/>
<polygon fill="midnightblue" stroke="midnightblue" points="137.169,-59.5921 128.687,-65.941 139.277,-66.2672 137.169,-59.5921"/>
</g>
<!-- Node3 -->
<g id="node3" class="node"><title>Node3</title>
<g id="a_node3"><a xlink:href="../../d5/da8/classauthoring__environment_1_1_range_grid.html#aa16681360246f8f0a4982b63e53d2826" target="_top" xlink:title="authoring_environment.Range\lGrid.rangeAll">
<polygon fill="white" stroke="black" points="429.5,-327 429.5,-357 590.5,-357 590.5,-327 429.5,-327"/>
<text text-anchor="start" x="437.5" y="-345" font-family="Helvetica,sans-Serif" font-size="10.00">authoring_environment.Range</text>
<text text-anchor="middle" x="510" y="-334" font-family="Helvetica,sans-Serif" font-size="10.00">Grid.rangeAll</text>
</a>
</g>
</g>
<!-- Node2&#45;&gt;Node3 -->
<g id="edge2" class="edge"><title>Node2&#45;&gt;Node3</title>
<path fill="none" stroke="midnightblue" d="M333.039,-273.418C358.43,-285.154 391.831,-300.095 422,-312 435.078,-317.161 449.445,-322.319 462.67,-326.865"/>
<polygon fill="midnightblue" stroke="midnightblue" points="334.267,-270.129 323.723,-269.09 331.318,-276.477 334.267,-270.129"/>
</g>
<!-- Node4 -->
<g id="node4" class="node"><title>Node4</title>
<g id="a_node4"><a xlink:href="../../d5/da8/classauthoring__environment_1_1_range_grid.html#a1586131f94cc78931c9eb19ce22c9bba" target="_top" xlink:title="authoring_environment.Range\lGrid.rangeRadius">
<polygon fill="white" stroke="black" points="643.5,-307 643.5,-337 804.5,-337 804.5,-307 643.5,-307"/>
<text text-anchor="start" x="651.5" y="-325" font-family="Helvetica,sans-Serif" font-size="10.00">authoring_environment.Range</text>
<text text-anchor="middle" x="724" y="-314" font-family="Helvetica,sans-Serif" font-size="10.00">Grid.rangeRadius</text>
</a>
</g>
</g>
<!-- Node2&#45;&gt;Node4 -->
<g id="edge5" class="edge"><title>Node2&#45;&gt;Node4</title>
<path fill="none" stroke="midnightblue" d="M380.632,-270.821C394.465,-273.314 408.608,-275.786 422,-278 496.901,-290.384 582.592,-302.734 643.339,-311.183"/>
<polygon fill="midnightblue" stroke="midnightblue" points="381.095,-267.348 370.631,-269.006 379.845,-274.235 381.095,-267.348"/>
</g>
<!-- Node5 -->
<g id="node5" class="node"><title>Node5</title>
<g id="a_node5"><a xlink:href="../../d5/da8/classauthoring__environment_1_1_range_grid.html#ac170da90f00d9a8703aaab1cd3657888" target="_top" xlink:title="authoring_environment.Range\lGrid.rangeColumn">
<polygon fill="white" stroke="black" points="429.5,-239 429.5,-269 590.5,-269 590.5,-239 429.5,-239"/>
<text text-anchor="start" x="437.5" y="-257" font-family="Helvetica,sans-Serif" font-size="10.00">authoring_environment.Range</text>
<text text-anchor="middle" x="510" y="-246" font-family="Helvetica,sans-Serif" font-size="10.00">Grid.rangeColumn</text>
</a>
</g>
</g>
<!-- Node2&#45;&gt;Node5 -->
<g id="edge4" class="edge"><title>Node2&#45;&gt;Node5</title>
<path fill="none" stroke="midnightblue" d="M381.85,-254C397.634,-254 413.96,-254 429.439,-254"/>
<polygon fill="midnightblue" stroke="midnightblue" points="381.571,-250.5 371.571,-254 381.571,-257.5 381.571,-250.5"/>
</g>
<!-- Node6 -->
<g id="node6" class="node"><title>Node6</title>
<g id="a_node6"><a xlink:href="../../d5/da8/classauthoring__environment_1_1_range_grid.html#a5f6bb1c5cb9fb99ca4a1c45c0e9913bd" target="_top" xlink:title="authoring_environment.Range\lGrid.rangeRow">
<polygon fill="white" stroke="black" points="429.5,-190 429.5,-220 590.5,-220 590.5,-190 429.5,-190"/>
<text text-anchor="start" x="437.5" y="-208" font-family="Helvetica,sans-Serif" font-size="10.00">authoring_environment.Range</text>
<text text-anchor="middle" x="510" y="-197" font-family="Helvetica,sans-Serif" font-size="10.00">Grid.rangeRow</text>
</a>
</g>
</g>
<!-- Node2&#45;&gt;Node6 -->
<g id="edge6" class="edge"><title>Node2&#45;&gt;Node6</title>
<path fill="none" stroke="midnightblue" d="M368.429,-236.742C392.608,-231.282 419.122,-225.295 442.544,-220.006"/>
<polygon fill="midnightblue" stroke="midnightblue" points="367.565,-233.349 358.582,-238.965 369.107,-240.177 367.565,-233.349"/>
</g>
<!-- Node3&#45;&gt;Node4 -->
<g id="edge3" class="edge"><title>Node3&#45;&gt;Node4</title>
<path fill="none" stroke="midnightblue" d="M600.764,-333.532C614.915,-332.197 629.462,-330.824 643.363,-329.513"/>
<polygon fill="midnightblue" stroke="midnightblue" points="600.171,-330.072 590.544,-334.496 600.829,-337.041 600.171,-330.072"/>
</g>
<!-- Node8 -->
<g id="node8" class="node"><title>Node8</title>
<g id="a_node8"><a xlink:href="../../df/dd5/classgame_player_1_1_view_controller.html#a7eb038fd9f20604ade0406f27ef76657" target="_top" xlink:title="gamePlayer.ViewController.bind\lAction">
<polygon fill="white" stroke="black" points="426.5,-141 426.5,-171 593.5,-171 593.5,-141 426.5,-141"/>
<text text-anchor="start" x="434.5" y="-159" font-family="Helvetica,sans-Serif" font-size="10.00">gamePlayer.ViewController.bind</text>
<text text-anchor="middle" x="510" y="-148" font-family="Helvetica,sans-Serif" font-size="10.00">Action</text>
</a>
</g>
</g>
<!-- Node7&#45;&gt;Node8 -->
<g id="edge8" class="edge"><title>Node7&#45;&gt;Node8</title>
<path fill="none" stroke="midnightblue" d="M363.412,-120.442C390.508,-127.06 421.112,-134.534 447.243,-140.916"/>
<polygon fill="midnightblue" stroke="midnightblue" points="364.148,-117.019 353.603,-118.046 362.487,-123.819 364.148,-117.019"/>
</g>
<!-- Node10 -->
<g id="node10" class="node"><title>Node10</title>
<g id="a_node10"><a xlink:href="../../df/dd5/classgame_player_1_1_view_controller.html#a95c2acd43bb39b8606c69971c1cd30f5" target="_top" xlink:title="gamePlayer.ViewController.perform\lAction">
<polygon fill="white" stroke="black" points="850.5,-88 850.5,-118 1035.5,-118 1035.5,-88 850.5,-88"/>
<text text-anchor="start" x="858.5" y="-106" font-family="Helvetica,sans-Serif" font-size="10.00">gamePlayer.ViewController.perform</text>
<text text-anchor="middle" x="943" y="-95" font-family="Helvetica,sans-Serif" font-size="10.00">Action</text>
</a>
</g>
</g>
<!-- Node7&#45;&gt;Node10 -->
<g id="edge26" class="edge"><title>Node7&#45;&gt;Node10</title>
<path fill="none" stroke="midnightblue" d="M395.829,-97.8961C521.323,-95.6265 730.523,-95.7039 850.307,-98.1283"/>
<polygon fill="midnightblue" stroke="midnightblue" points="395.753,-94.3968 385.821,-98.0856 395.886,-101.396 395.753,-94.3968"/>
</g>
<!-- Node7&#45;&gt;Node24 -->
<g id="edge27" class="edge"><title>Node7&#45;&gt;Node24</title>
<path fill="none" stroke="midnightblue" d="M363.412,-85.5583C390.508,-78.9405 421.112,-71.4658 447.243,-65.0835"/>
<polygon fill="midnightblue" stroke="midnightblue" points="362.487,-82.1813 353.603,-87.9541 364.148,-88.9814 362.487,-82.1813"/>
</g>
<!-- Node9 -->
<g id="node9" class="node"><title>Node9</title>
<g id="a_node9"><a xlink:href="../../d1/db7/classgame_player_1_1_keyboard_action.html#a08ace57322b8639020688dd9493c3e1f" target="_top" xlink:title="gamePlayer.KeyboardAction.set\lActionKeyControl">
<polygon fill="white" stroke="black" points="640,-190 640,-220 808,-220 808,-190 640,-190"/>
<text text-anchor="start" x="648" y="-208" font-family="Helvetica,sans-Serif" font-size="10.00">gamePlayer.KeyboardAction.set</text>
<text text-anchor="middle" x="724" y="-197" font-family="Helvetica,sans-Serif" font-size="10.00">ActionKeyControl</text>
</a>
</g>
</g>
<!-- Node8&#45;&gt;Node9 -->
<g id="edge9" class="edge"><title>Node8&#45;&gt;Node9</title>
<path fill="none" stroke="midnightblue" d="M585.983,-173.331C609.52,-178.771 635.295,-184.729 658.075,-189.994"/>
<polygon fill="midnightblue" stroke="midnightblue" points="586.579,-169.877 576.048,-171.035 585.003,-176.697 586.579,-169.877"/>
</g>
<!-- Node20 -->
<g id="node20" class="node"><title>Node20</title>
<g id="a_node20"><a xlink:href="../../df/dd5/classgame_player_1_1_view_controller.html#ab8c14a8c53be9021a62d0107c2f75ef6" target="_top" xlink:title="gamePlayer.ViewController.update\lActions">
<polygon fill="white" stroke="black" points="634,-239 634,-269 814,-269 814,-239 634,-239"/>
<text text-anchor="start" x="642" y="-257" font-family="Helvetica,sans-Serif" font-size="10.00">gamePlayer.ViewController.update</text>
<text text-anchor="middle" x="724" y="-246" font-family="Helvetica,sans-Serif" font-size="10.00">Actions</text>
</a>
</g>
</g>
<!-- Node8&#45;&gt;Node20 -->
<g id="edge22" class="edge"><title>Node8&#45;&gt;Node20</title>
<path fill="none" stroke="midnightblue" d="M590.884,-175.589C593.34,-176.961 595.72,-178.429 598,-180 620.255,-195.329 611.781,-213.619 634,-229 639.542,-232.837 645.662,-236.087 652.02,-238.841"/>
<polygon fill="midnightblue" stroke="midnightblue" points="592.223,-172.345 581.71,-171.027 589.106,-178.613 592.223,-172.345"/>
</g>
<!-- Node23 -->
<g id="node23" class="node"><title>Node23</title>
<g id="a_node23"><a xlink:href="../../df/df0/classtests_1_1_view_controller_test.html#a74e99f9c72cbdcd2d56271b2ad2df1ce" target="_top" xlink:title="tests.ViewControllerTest.bind\lActionTest">
<polygon fill="white" stroke="black" points="647,-141 647,-171 801,-171 801,-141 647,-141"/>
<text text-anchor="start" x="655" y="-159" font-family="Helvetica,sans-Serif" font-size="10.00">tests.ViewControllerTest.bind</text>
<text text-anchor="middle" x="724" y="-148" font-family="Helvetica,sans-Serif" font-size="10.00">ActionTest</text>
</a>
</g>
</g>
<!-- Node8&#45;&gt;Node23 -->
<g id="edge25" class="edge"><title>Node8&#45;&gt;Node23</title>
<path fill="none" stroke="midnightblue" d="M603.946,-156C618.293,-156 632.965,-156 646.887,-156"/>
<polygon fill="midnightblue" stroke="midnightblue" points="603.572,-152.5 593.572,-156 603.572,-159.5 603.572,-152.5"/>
</g>
<!-- Node9&#45;&gt;Node10 -->
<g id="edge10" class="edge"><title>Node9&#45;&gt;Node10</title>
<path fill="none" stroke="midnightblue" d="M796.917,-186.611C802.765,-184.569 808.525,-182.364 814,-180 853.759,-162.828 896.115,-135.293 920.761,-118.222"/>
<polygon fill="midnightblue" stroke="midnightblue" points="795.418,-183.421 787.029,-189.892 797.622,-190.065 795.418,-183.421"/>
</g>
<!-- Node10&#45;&gt;Node7 -->
<g id="edge11" class="edge"><title>Node10&#45;&gt;Node7</title>
<path fill="none" stroke="midnightblue" d="M840.007,-108.07C715.463,-110.361 506.533,-110.309 385.821,-107.914"/>
<polygon fill="midnightblue" stroke="midnightblue" points="840.377,-111.564 850.307,-107.872 840.242,-104.565 840.377,-111.564"/>
</g>
<!-- Node11 -->
<g id="node11" class="node"><title>Node11</title>
<g id="a_node11"><a xlink:href="../../df/dd5/classgame_player_1_1_view_controller.html#a22ee80193bbac79a935ee961a183bfcd" target="_top" xlink:title="gamePlayer.ViewController.set\lOnClick">
<polygon fill="white" stroke="black" points="1072.5,-110 1072.5,-140 1233.5,-140 1233.5,-110 1072.5,-110"/>
<text text-anchor="start" x="1080.5" y="-128" font-family="Helvetica,sans-Serif" font-size="10.00">gamePlayer.ViewController.set</text>
<text text-anchor="middle" x="1153" y="-117" font-family="Helvetica,sans-Serif" font-size="10.00">OnClick</text>
</a>
</g>
</g>
<!-- Node10&#45;&gt;Node11 -->
<g id="edge12" class="edge"><title>Node10&#45;&gt;Node11</title>
<path fill="none" stroke="midnightblue" d="M1045.68,-113.754C1054.68,-114.707 1063.71,-115.661 1072.49,-116.59"/>
<polygon fill="midnightblue" stroke="midnightblue" points="1045.85,-110.253 1035.53,-112.682 1045.11,-117.214 1045.85,-110.253"/>
</g>
<!-- Node12 -->
<g id="node12" class="node"><title>Node12</title>
<g id="a_node12"><a xlink:href="../../df/dd5/classgame_player_1_1_view_controller.html#a10a40967a873f067cf91b024ff85b38e" target="_top" xlink:title="gamePlayer.ViewController.initializeGrid">
<polygon fill="white" stroke="black" points="1270,-117.5 1270,-136.5 1474,-136.5 1474,-117.5 1270,-117.5"/>
<text text-anchor="middle" x="1372" y="-124.5" font-family="Helvetica,sans-Serif" font-size="10.00">gamePlayer.ViewController.initializeGrid</text>
</a>
</g>
</g>
<!-- Node11&#45;&gt;Node12 -->
<g id="edge13" class="edge"><title>Node11&#45;&gt;Node12</title>
<path fill="none" stroke="midnightblue" d="M1243.68,-125.827C1252.36,-125.907 1261.21,-125.988 1270,-126.069"/>
<polygon fill="midnightblue" stroke="midnightblue" points="1243.6,-122.326 1233.57,-125.733 1243.54,-129.325 1243.6,-122.326"/>
</g>
<!-- Node13 -->
<g id="node13" class="node"><title>Node13</title>
<g id="a_node13"><a xlink:href="../../df/dd5/classgame_player_1_1_view_controller.html#a0d1a3d443966f151b070dc751d2faf9a" target="_top" xlink:title="gamePlayer.ViewController.restartGame">
<polygon fill="white" stroke="black" points="1510,-199.5 1510,-218.5 1718,-218.5 1718,-199.5 1510,-199.5"/>
<text text-anchor="middle" x="1614" y="-206.5" font-family="Helvetica,sans-Serif" font-size="10.00">gamePlayer.ViewController.restartGame</text>
</a>
</g>
</g>
<!-- Node12&#45;&gt;Node13 -->
<g id="edge14" class="edge"><title>Node12&#45;&gt;Node13</title>
<path fill="none" stroke="midnightblue" d="M1398.99,-141.327C1425.98,-155.633 1469.81,-177.273 1510,-190 1521.96,-193.788 1534.96,-196.915 1547.56,-199.461"/>
<polygon fill="midnightblue" stroke="midnightblue" points="1400.64,-138.242 1390.18,-136.599 1397.33,-144.411 1400.64,-138.242"/>
</g>
<!-- Node14 -->
<g id="node14" class="node"><title>Node14</title>
<g id="a_node14"><a xlink:href="../../df/dd5/classgame_player_1_1_view_controller.html#af1870a0b6786d96d118021fc62b6475d" target="_top" xlink:title="gamePlayer.ViewController.beginGame">
<polygon fill="white" stroke="black" points="1513,-161.5 1513,-180.5 1715,-180.5 1715,-161.5 1513,-161.5"/>
<text text-anchor="middle" x="1614" y="-168.5" font-family="Helvetica,sans-Serif" font-size="10.00">gamePlayer.ViewController.beginGame</text>
</a>
</g>
</g>
<!-- Node12&#45;&gt;Node14 -->
<g id="edge15" class="edge"><title>Node12&#45;&gt;Node14</title>
<path fill="none" stroke="midnightblue" d="M1435.27,-138.417C1474.33,-145.577 1524.09,-154.701 1561.03,-161.471"/>
<polygon fill="midnightblue" stroke="midnightblue" points="1435.54,-134.908 1425.08,-136.547 1434.28,-141.793 1435.54,-134.908"/>
</g>
<!-- Node15 -->
<g id="node15" class="node"><title>Node15</title>
<g id="a_node15"><a xlink:href="../../df/dd5/classgame_player_1_1_view_controller.html#a4c1754d129a4eac955390b428eaa448a" target="_top" xlink:title="gamePlayer.ViewController.test\lPlayGame">
<polygon fill="white" stroke="black" points="1531.5,-112 1531.5,-142 1696.5,-142 1696.5,-112 1531.5,-112"/>
<text text-anchor="start" x="1539.5" y="-130" font-family="Helvetica,sans-Serif" font-size="10.00">gamePlayer.ViewController.test</text>
<text text-anchor="middle" x="1614" y="-119" font-family="Helvetica,sans-Serif" font-size="10.00">PlayGame</text>
</a>
</g>
</g>
<!-- Node12&#45;&gt;Node15 -->
<g id="edge16" class="edge"><title>Node12&#45;&gt;Node15</title>
<path fill="none" stroke="midnightblue" d="M1484.43,-127C1500.23,-127 1516.22,-127 1531.32,-127"/>
<polygon fill="midnightblue" stroke="midnightblue" points="1484.09,-123.5 1474.09,-127 1484.09,-130.5 1484.09,-123.5"/>
</g>
<!-- Node17 -->
<g id="node17" class="node"><title>Node17</title>
<g id="a_node17"><a xlink:href="../../df/dd5/classgame_player_1_1_view_controller.html#a620f8a02d3ac7677cd179fcd812aca55" target="_top" xlink:title="gamePlayer.ViewController.check\lEndActions">
<polygon fill="white" stroke="black" points="1527,-63 1527,-93 1701,-93 1701,-63 1527,-63"/>
<text text-anchor="start" x="1535" y="-81" font-family="Helvetica,sans-Serif" font-size="10.00">gamePlayer.ViewController.check</text>
<text text-anchor="middle" x="1614" y="-70" font-family="Helvetica,sans-Serif" font-size="10.00">EndActions</text>
</a>
</g>
</g>
<!-- Node12&#45;&gt;Node17 -->
<g id="edge18" class="edge"><title>Node12&#45;&gt;Node17</title>
<path fill="none" stroke="midnightblue" d="M1429.42,-115.48C1462.19,-108.791 1503.84,-100.287 1539.18,-93.0713"/>
<polygon fill="midnightblue" stroke="midnightblue" points="1428.66,-112.064 1419.56,-117.494 1430.06,-118.923 1428.66,-112.064"/>
</g>
<!-- Node16 -->
<g id="node16" class="node"><title>Node16</title>
<g id="a_node16"><a xlink:href="../../db/d40/classfxml__main_1_1_authoring_controller.html#a2ec133c8edf0a7ab1e84f2e12455233d" target="_top" xlink:title="fxml_main.AuthoringController.save\lAsGame">
<polygon fill="white" stroke="black" points="1754.5,-112 1754.5,-142 1941.5,-142 1941.5,-112 1754.5,-112"/>
<text text-anchor="start" x="1762.5" y="-130" font-family="Helvetica,sans-Serif" font-size="10.00">fxml_main.AuthoringController.save</text>
<text text-anchor="middle" x="1848" y="-119" font-family="Helvetica,sans-Serif" font-size="10.00">AsGame</text>
</a>
</g>
</g>
<!-- Node15&#45;&gt;Node16 -->
<g id="edge17" class="edge"><title>Node15&#45;&gt;Node16</title>
<path fill="none" stroke="midnightblue" d="M1706.96,-127C1722.59,-127 1738.83,-127 1754.47,-127"/>
<polygon fill="midnightblue" stroke="midnightblue" points="1706.79,-123.5 1696.79,-127 1706.79,-130.5 1706.79,-123.5"/>
</g>
<!-- Node17&#45;&gt;Node10 -->
<g id="edge19" class="edge"><title>Node17&#45;&gt;Node10</title>
<path fill="none" stroke="midnightblue" d="M1516.76,-81.5966C1388.15,-86.4026 1161.83,-94.8597 1035.62,-99.5763"/>
<polygon fill="midnightblue" stroke="midnightblue" points="1517.12,-85.0854 1526.98,-81.2143 1516.86,-78.0903 1517.12,-85.0854"/>
</g>
<!-- Node18 -->
<g id="node18" class="node"><title>Node18</title>
<g id="a_node18"><a xlink:href="../../df/dd5/classgame_player_1_1_view_controller.html#a13ea7814bde61a8042c5b1a23af41416" target="_top" xlink:title="gamePlayer.ViewController.end\lAction">
<polygon fill="white" stroke="black" points="1766,-63 1766,-93 1930,-93 1930,-63 1766,-63"/>
<text text-anchor="start" x="1774" y="-81" font-family="Helvetica,sans-Serif" font-size="10.00">gamePlayer.ViewController.end</text>
<text text-anchor="middle" x="1848" y="-70" font-family="Helvetica,sans-Serif" font-size="10.00">Action</text>
</a>
</g>
</g>
<!-- Node17&#45;&gt;Node18 -->
<g id="edge20" class="edge"><title>Node17&#45;&gt;Node18</title>
<path fill="none" stroke="midnightblue" d="M1711.06,-78C1729.22,-78 1748.05,-78 1765.7,-78"/>
<polygon fill="midnightblue" stroke="midnightblue" points="1711.06,-74.5001 1701.06,-78 1711.06,-81.5001 1711.06,-74.5001"/>
</g>
<!-- Node19 -->
<g id="node19" class="node"><title>Node19</title>
<g id="a_node19"><a xlink:href="../../db/d00/classgame_player_1_1_apply_state.html#aed42c1aba25264bc6880036f693a1c9e" target="_top" xlink:title="gamePlayer.ApplyState.on\lClick">
<polygon fill="white" stroke="black" points="1978.5,-63 1978.5,-93 2121.5,-93 2121.5,-63 1978.5,-63"/>
<text text-anchor="start" x="1986.5" y="-81" font-family="Helvetica,sans-Serif" font-size="10.00">gamePlayer.ApplyState.on</text>
<text text-anchor="middle" x="2050" y="-70" font-family="Helvetica,sans-Serif" font-size="10.00">Click</text>
</a>
</g>
</g>
<!-- Node18&#45;&gt;Node19 -->
<g id="edge21" class="edge"><title>Node18&#45;&gt;Node19</title>
<path fill="none" stroke="midnightblue" d="M1940.27,-78C1953.08,-78 1966.08,-78 1978.43,-78"/>
<polygon fill="midnightblue" stroke="midnightblue" points="1940.06,-74.5001 1930.06,-78 1940.06,-81.5001 1940.06,-74.5001"/>
</g>
<!-- Node21 -->
<g id="node21" class="node"><title>Node21</title>
<g id="a_node21"><a xlink:href="../../d6/d24/classgame_player_1_1_select_state.html#a801827392f0faeee6b96925060d77838" target="_top" xlink:title="gamePlayer.SelectState.on\lClick">
<polygon fill="white" stroke="black" points="869.5,-263 869.5,-293 1016.5,-293 1016.5,-263 869.5,-263"/>
<text text-anchor="start" x="877.5" y="-281" font-family="Helvetica,sans-Serif" font-size="10.00">gamePlayer.SelectState.on</text>
<text text-anchor="middle" x="943" y="-270" font-family="Helvetica,sans-Serif" font-size="10.00">Click</text>
</a>
</g>
</g>
<!-- Node20&#45;&gt;Node21 -->
<g id="edge23" class="edge"><title>Node20&#45;&gt;Node21</title>
<path fill="none" stroke="midnightblue" d="M824.156,-264.967C839.377,-266.65 854.846,-268.361 869.351,-269.965"/>
<polygon fill="midnightblue" stroke="midnightblue" points="824.526,-261.486 814.202,-263.866 823.756,-268.444 824.526,-261.486"/>
</g>
<!-- Node22 -->
<g id="node22" class="node"><title>Node22</title>
<g id="a_node22"><a xlink:href="../../df/df0/classtests_1_1_view_controller_test.html#a785df2c49a72c183c22163ce927f5df1" target="_top" xlink:title="tests.ViewControllerTest.update\lActionsTest">
<polygon fill="white" stroke="black" points="859.5,-214 859.5,-244 1026.5,-244 1026.5,-214 859.5,-214"/>
<text text-anchor="start" x="867.5" y="-232" font-family="Helvetica,sans-Serif" font-size="10.00">tests.ViewControllerTest.update</text>
<text text-anchor="middle" x="943" y="-221" font-family="Helvetica,sans-Serif" font-size="10.00">ActionsTest</text>
</a>
</g>
</g>
<!-- Node20&#45;&gt;Node22 -->
<g id="edge24" class="edge"><title>Node20&#45;&gt;Node22</title>
<path fill="none" stroke="midnightblue" d="M824.436,-242.544C836.139,-241.196 847.983,-239.831 859.42,-238.514"/>
<polygon fill="midnightblue" stroke="midnightblue" points="823.735,-239.102 814.202,-243.723 824.537,-246.056 823.735,-239.102"/>
</g>
</g>
</svg>
