<?xml version="1.0" encoding="UTF-8" standalone="no"?>
<!DOCTYPE svg PUBLIC "-//W3C//DTD SVG 1.1//EN"
 "http://www.w3.org/Graphics/SVG/1.1/DTD/svg11.dtd">
<!-- Generated by graphviz version 2.36.0 (20140111.2315)
 -->
<!-- Title: authoring_environment.SuperTile.calculateImageSize Pages: 1 -->
<svg width="560pt" height="38pt"
 viewBox="0.00 0.00 560.00 38.00" xmlns="http://www.w3.org/2000/svg" xmlns:xlink="http://www.w3.org/1999/xlink">
<g id="graph0" class="graph" transform="scale(1 1) rotate(0) translate(4 34)">
<title>authoring_environment.SuperTile.calculateImageSize</title>
<polygon fill="white" stroke="none" points="-4,4 -4,-34 556,-34 556,4 -4,4"/>
<!-- Node1 -->
<g id="node1" class="node"><title>Node1</title>
<polygon fill="#bfbfbf" stroke="black" points="0,-0 0,-30 160,-30 160,-0 0,-0"/>
<text text-anchor="start" x="8" y="-18" font-family="Helvetica,sans-Serif" font-size="10.00">authoring_environment.Super</text>
<text text-anchor="middle" x="80" y="-7" font-family="Helvetica,sans-Serif" font-size="10.00">Tile.calculateImageSize</text>
</g>
<!-- Node2 -->
<g id="node2" class="node"><title>Node2</title>
<g id="a_node2"><a xlink:href="../../dc/d5a/classauthoring__environment_1_1_super_tile.html#a0e8ce1f8ad882dd28c250f647da3122e" target="_top" xlink:title="authoring_environment.Super\lTile.makeShapeTile">
<polygon fill="white" stroke="black" points="196,-0 196,-30 356,-30 356,-0 196,-0"/>
<text text-anchor="start" x="204" y="-18" font-family="Helvetica,sans-Serif" font-size="10.00">authoring_environment.Super</text>
<text text-anchor="middle" x="276" y="-7" font-family="Helvetica,sans-Serif" font-size="10.00">Tile.makeShapeTile</text>
</a>
</g>
</g>
<!-- Node1&#45;&gt;Node2 -->
<g id="edge1" class="edge"><title>Node1&#45;&gt;Node2</title>
<path fill="none" stroke="midnightblue" d="M170.436,-15C178.884,-15 187.408,-15 195.752,-15"/>
<polygon fill="midnightblue" stroke="midnightblue" points="170.187,-11.5001 160.187,-15 170.187,-18.5001 170.187,-11.5001"/>
</g>
<!-- Node3 -->
<g id="node3" class="node"><title>Node3</title>
<g id="a_node3"><a xlink:href="../../dc/d5a/classauthoring__environment_1_1_super_tile.html#aff55944aac4f3a4452f1ce227910f514" target="_top" xlink:title="authoring_environment.Super\lTile.SuperTile">
<polygon fill="white" stroke="black" points="392,-0 392,-30 552,-30 552,-0 392,-0"/>
<text text-anchor="start" x="400" y="-18" font-family="Helvetica,sans-Serif" font-size="10.00">authoring_environment.Super</text>
<text text-anchor="middle" x="472" y="-7" font-family="Helvetica,sans-Serif" font-size="10.00">Tile.SuperTile</text>
</a>
</g>
</g>
<!-- Node2&#45;&gt;Node3 -->
<g id="edge2" class="edge"><title>Node2&#45;&gt;Node3</title>
<path fill="none" stroke="midnightblue" d="M366.436,-15C374.884,-15 383.408,-15 391.752,-15"/>
<polygon fill="midnightblue" stroke="midnightblue" points="366.187,-11.5001 356.187,-15 366.187,-18.5001 366.187,-11.5001"/>
</g>
</g>
</svg>
