<?xml version="1.0" encoding="UTF-8" standalone="no"?>
<!DOCTYPE svg PUBLIC "-//W3C//DTD SVG 1.1//EN"
 "http://www.w3.org/Graphics/SVG/1.1/DTD/svg11.dtd">
<!-- Generated by graphviz version 2.36.0 (20140111.2315)
 -->
<!-- Title: authoring_environment.SuperTile.SuperTile Pages: 1 -->
<!--zoomable 273 -->
<svg id="main" version="1.1" xmlns="http://www.w3.org/2000/svg" xmlns:xlink="http://www.w3.org/1999/xlink" xml:space="preserve" onload="init(evt)">
<style type="text/css"><![CDATA[
.edge:hover path { stroke: red; }
.edge:hover polygon { stroke: red; fill: red; }
]]></style>
<script type="text/javascript"><![CDATA[
var edges = document.getElementsByTagName('g');
if (edges && edges.length) {
  for (var i=0;i<edges.length;i++) {
    if (edges[i].id.substr(0,4)=='edge') {
      edges[i].setAttribute('class','edge');
    }
  }
}
]]></script>
        <defs>
                <circle id="rim" cx="0" cy="0" r="7"/>
                <circle id="rim2" cx="0" cy="0" r="3.5"/>
                <g id="zoomPlus">
                        <use xlink:href="#rim" fill="#404040">
                                <set attributeName="fill" to="#808080" begin="zoomplus.mouseover" end="zoomplus.mouseout"/>
                        </use>
                        <path d="M-4,0h8M0,-4v8" fill="none" stroke="white" stroke-width="1.5" pointer-events="none"/>
                </g>
                <g id="zoomMin">
                        <use xlink:href="#rim" fill="#404040">
                                <set attributeName="fill" to="#808080" begin="zoomminus.mouseover" end="zoomminus.mouseout"/>
                        </use>
                        <path d="M-4,0h8" fill="none" stroke="white" stroke-width="1.5" pointer-events="none"/>
                </g>
                <g id="dirArrow">
                        <path fill="none" stroke="white" stroke-width="1.5" d="M0,-3.0v7 M-2.5,-0.5L0,-3.0L2.5,-0.5"/>
                </g>
               <g id="resetDef">
                       <use xlink:href="#rim2" fill="#404040">
                               <set attributeName="fill" to="#808080" begin="reset.mouseover" end="reset.mouseout"/>
                       </use>
               </g>
        </defs>

<script type="text/javascript">
var viewWidth = 756;
var viewHeight = 273;
var sectionId = 'dynsection-2';
</script>
<script xlink:href="../../svgpan.js"/>
<svg id="graph" class="graph">
<g id="viewport">
<title>authoring_environment.SuperTile.SuperTile</title>
<polygon fill="white" stroke="none" points="-4,4 -4,-269 752,-269 752,4 -4,4"/>
<!-- Node1 -->
<g id="node1" class="node"><title>Node1</title>
<polygon fill="#bfbfbf" stroke="black" points="0,-115 0,-145 160,-145 160,-115 0,-115"/>
<text text-anchor="start" x="8" y="-133" font-family="Helvetica,sans-Serif" font-size="10.00">authoring_environment.Super</text>
<text text-anchor="middle" x="80" y="-122" font-family="Helvetica,sans-Serif" font-size="10.00">Tile.SuperTile</text>
</g>
<!-- Node2 -->
<g id="node2" class="node"><title>Node2</title>
<g id="a_node2"><a xlink:href="../../dc/d5a/classauthoring__environment_1_1_super_tile.html#a0e8ce1f8ad882dd28c250f647da3122e" target="_top" xlink:title="authoring_environment.Super\lTile.makeShapeTile">
<polygon fill="white" stroke="black" points="196,-115 196,-145 356,-145 356,-115 196,-115"/>
<text text-anchor="start" x="204" y="-133" font-family="Helvetica,sans-Serif" font-size="10.00">authoring_environment.Super</text>
<text text-anchor="middle" x="276" y="-122" font-family="Helvetica,sans-Serif" font-size="10.00">Tile.makeShapeTile</text>
</a>
</g>
</g>
<!-- Node1&#45;&gt;Node2 -->
<g id="edge1" class="edge"><title>Node1&#45;&gt;Node2</title>
<path fill="none" stroke="midnightblue" d="M160.187,-130C168.529,-130 177.054,-130 185.502,-130"/>
<polygon fill="midnightblue" stroke="midnightblue" points="185.752,-133.5 195.752,-130 185.752,-126.5 185.752,-133.5"/>
</g>
<!-- Node3 -->
<g id="node3" class="node"><title>Node3</title>
<g id="a_node3"><a xlink:href="../../dc/d5a/classauthoring__environment_1_1_super_tile.html#a8b70271c53865f3858aad94b1b5cc62b" target="_top" xlink:title="authoring_environment.Super\lTile.calculatePixelLocation">
<polygon fill="white" stroke="black" points="392,-235 392,-265 552,-265 552,-235 392,-235"/>
<text text-anchor="start" x="400" y="-253" font-family="Helvetica,sans-Serif" font-size="10.00">authoring_environment.Super</text>
<text text-anchor="middle" x="472" y="-242" font-family="Helvetica,sans-Serif" font-size="10.00">Tile.calculatePixelLocation</text>
</a>
</g>
</g>
<!-- Node2&#45;&gt;Node3 -->
<g id="edge2" class="edge"><title>Node2&#45;&gt;Node3</title>
<path fill="none" stroke="midnightblue" d="M291.594,-145.296C312.178,-166.061 351.741,-203.086 392,-225 396.018,-227.187 400.256,-229.216 404.598,-231.093"/>
<polygon fill="midnightblue" stroke="midnightblue" points="403.641,-234.48 414.225,-234.962 406.251,-227.985 403.641,-234.48"/>
</g>
<!-- Node4 -->
<g id="node4" class="node"><title>Node4</title>
<g id="a_node4"><a xlink:href="../../dc/d5a/classauthoring__environment_1_1_super_tile.html#aa7c82b59d82b5767cde8f062382047f2" target="_top" xlink:title="authoring_environment.Super\lTile.calculateImageLocation">
<polygon fill="white" stroke="black" points="392,-186 392,-216 552,-216 552,-186 392,-186"/>
<text text-anchor="start" x="400" y="-204" font-family="Helvetica,sans-Serif" font-size="10.00">authoring_environment.Super</text>
<text text-anchor="middle" x="472" y="-193" font-family="Helvetica,sans-Serif" font-size="10.00">Tile.calculateImageLocation</text>
</a>
</g>
</g>
<!-- Node2&#45;&gt;Node4 -->
<g id="edge3" class="edge"><title>Node2&#45;&gt;Node4</title>
<path fill="none" stroke="midnightblue" d="M312.738,-145.088C335.309,-154.419 365.173,-166.405 392,-176 398.371,-178.279 405.067,-180.564 411.754,-182.776"/>
<polygon fill="midnightblue" stroke="midnightblue" points="410.913,-186.183 421.506,-185.956 413.084,-179.528 410.913,-186.183"/>
</g>
<!-- Node5 -->
<g id="node5" class="node"><title>Node5</title>
<g id="a_node5"><a xlink:href="../../dc/d5a/classauthoring__environment_1_1_super_tile.html#ad8541868c0a18b3c3bb70654f1421bad" target="_top" xlink:title="authoring_environment.Super\lTile.calculateImageSize">
<polygon fill="white" stroke="black" points="392,-137 392,-167 552,-167 552,-137 392,-137"/>
<text text-anchor="start" x="400" y="-155" font-family="Helvetica,sans-Serif" font-size="10.00">authoring_environment.Super</text>
<text text-anchor="middle" x="472" y="-144" font-family="Helvetica,sans-Serif" font-size="10.00">Tile.calculateImageSize</text>
</a>
</g>
</g>
<!-- Node2&#45;&gt;Node5 -->
<g id="edge4" class="edge"><title>Node2&#45;&gt;Node5</title>
<path fill="none" stroke="midnightblue" d="M356.187,-138.98C364.621,-139.936 373.241,-140.914 381.781,-141.882"/>
<polygon fill="midnightblue" stroke="midnightblue" points="381.421,-145.364 391.752,-143.013 382.21,-138.408 381.421,-145.364"/>
</g>
<!-- Node6 -->
<g id="node6" class="node"><title>Node6</title>
<g id="a_node6"><a xlink:href="../../dc/d5a/classauthoring__environment_1_1_super_tile.html#a1095fe72bf7e64eb84d29bf4716e2fa0" target="_top" xlink:title="authoring_environment.Super\lTile.makeShape">
<polygon fill="white" stroke="black" points="588,-71 588,-101 748,-101 748,-71 588,-71"/>
<text text-anchor="start" x="596" y="-89" font-family="Helvetica,sans-Serif" font-size="10.00">authoring_environment.Super</text>
<text text-anchor="middle" x="668" y="-78" font-family="Helvetica,sans-Serif" font-size="10.00">Tile.makeShape</text>
</a>
</g>
</g>
<!-- Node2&#45;&gt;Node6 -->
<g id="edge5" class="edge"><title>Node2&#45;&gt;Node6</title>
<path fill="none" stroke="midnightblue" d="M356.392,-121.043C420.58,-113.801 510.923,-103.609 577.638,-96.0819"/>
<polygon fill="midnightblue" stroke="midnightblue" points="578.174,-99.5437 587.719,-94.9445 577.389,-92.5878 578.174,-99.5437"/>
</g>
<!-- Node7 -->
<g id="node7" class="node"><title>Node7</title>
<g id="a_node7"><a xlink:href="../../dc/d5a/classauthoring__environment_1_1_super_tile.html#abe702e0693ee67d84539609f46bc6b81" target="_top" xlink:title="authoring_environment.Super\lTile.makeHighlight">
<polygon fill="white" stroke="black" points="392,-49 392,-79 552,-79 552,-49 392,-49"/>
<text text-anchor="start" x="400" y="-67" font-family="Helvetica,sans-Serif" font-size="10.00">authoring_environment.Super</text>
<text text-anchor="middle" x="472" y="-56" font-family="Helvetica,sans-Serif" font-size="10.00">Tile.makeHighlight</text>
</a>
</g>
</g>
<!-- Node2&#45;&gt;Node7 -->
<g id="edge6" class="edge"><title>Node2&#45;&gt;Node7</title>
<path fill="none" stroke="midnightblue" d="M321.508,-114.858C349.973,-105.174 387.069,-92.5537 417.186,-82.3077"/>
<polygon fill="midnightblue" stroke="midnightblue" points="418.36,-85.6056 426.7,-79.0713 416.105,-78.9786 418.36,-85.6056"/>
</g>
<!-- Node8 -->
<g id="node8" class="node"><title>Node8</title>
<g id="a_node8"><a xlink:href="../../dc/d5a/classauthoring__environment_1_1_super_tile.html#a6d247481c142498f031223ae47c9c9ee" target="_top" xlink:title="authoring_environment.Super\lTile.setCheckeredColor">
<polygon fill="white" stroke="black" points="392,-0 392,-30 552,-30 552,-0 392,-0"/>
<text text-anchor="start" x="400" y="-18" font-family="Helvetica,sans-Serif" font-size="10.00">authoring_environment.Super</text>
<text text-anchor="middle" x="472" y="-7" font-family="Helvetica,sans-Serif" font-size="10.00">Tile.setCheckeredColor</text>
</a>
</g>
</g>
<!-- Node2&#45;&gt;Node8 -->
<g id="edge8" class="edge"><title>Node2&#45;&gt;Node8</title>
<path fill="none" stroke="midnightblue" d="M292.467,-114.887C313.426,-95.1529 352.755,-60.6947 392,-40 396.231,-37.7689 400.696,-35.6956 405.262,-33.7768"/>
<polygon fill="midnightblue" stroke="midnightblue" points="406.708,-36.9692 414.735,-30.054 404.148,-30.4542 406.708,-36.9692"/>
</g>
<!-- Node7&#45;&gt;Node6 -->
<g id="edge7" class="edge"><title>Node7&#45;&gt;Node6</title>
<path fill="none" stroke="midnightblue" d="M552.187,-72.98C560.621,-73.9364 569.241,-74.914 577.781,-75.8823"/>
<polygon fill="midnightblue" stroke="midnightblue" points="577.421,-79.3639 587.752,-77.0131 578.21,-72.4085 577.421,-79.3639"/>
</g>
</g>
</svg>
        <g id="navigator" transform="translate(0 0)" fill="#404254">
                <rect fill="#f2f5e9" fill-opacity="0.5" stroke="#606060" stroke-width=".5" x="0" y="0" width="60" height="60"/>
                <use id="zoomplus" xlink:href="#zoomPlus" x="17" y="9" onmousedown="handleZoom(evt,'in')"/>
                <use id="zoomminus" xlink:href="#zoomMin" x="42" y="9" onmousedown="handleZoom(evt,'out')"/>
                <use id="reset" xlink:href="#resetDef" x="30" y="36" onmousedown="handleReset()"/>
                <g id="arrowUp" xlink:href="#dirArrow" transform="translate(30 24)" onmousedown="handlePan(0,-1)">
                  <use xlink:href="#rim" fill="#404040">
                        <set attributeName="fill" to="#808080" begin="arrowUp.mouseover" end="arrowUp.mouseout"/>
                  </use>
                  <path fill="none" stroke="white" stroke-width="1.5" d="M0,-3.0v7 M-2.5,-0.5L0,-3.0L2.5,-0.5"/>
                </g>
                <g id="arrowRight" xlink:href="#dirArrow" transform="rotate(90) translate(36 -43)" onmousedown="handlePan(1,0)">
                  <use xlink:href="#rim" fill="#404040">
                        <set attributeName="fill" to="#808080" begin="arrowRight.mouseover" end="arrowRight.mouseout"/>
                  </use>
                  <path fill="none" stroke="white" stroke-width="1.5" d="M0,-3.0v7 M-2.5,-0.5L0,-3.0L2.5,-0.5"/>
                </g>
                <g id="arrowDown" xlink:href="#dirArrow" transform="rotate(180) translate(-30 -48)" onmousedown="handlePan(0,1)">
                  <use xlink:href="#rim" fill="#404040">
                        <set attributeName="fill" to="#808080" begin="arrowDown.mouseover" end="arrowDown.mouseout"/>
                  </use>
                  <path fill="none" stroke="white" stroke-width="1.5" d="M0,-3.0v7 M-2.5,-0.5L0,-3.0L2.5,-0.5"/>
                </g>
                <g id="arrowLeft" xlink:href="#dirArrow" transform="rotate(270) translate(-36 17)" onmousedown="handlePan(-1,0)">
                  <use xlink:href="#rim" fill="#404040">
                        <set attributeName="fill" to="#808080" begin="arrowLeft.mouseover" end="arrowLeft.mouseout"/>
                  </use>
                  <path fill="none" stroke="white" stroke-width="1.5" d="M0,-3.0v7 M-2.5,-0.5L0,-3.0L2.5,-0.5"/>
                </g>
        </g>
        <svg viewBox="0 0 15 15" width="100%" height="30px" preserveAspectRatio="xMaxYMin meet">
         <g id="arrow_out" transform="scale(0.3 0.3)">
          <a xlink:href="classauthoring__environment_1_1_super_tile_aff55944aac4f3a4452f1ce227910f514_cgraph_org.svg" target="_base">
           <rect id="button" ry="5" rx="5" y="6" x="6" height="38" width="38"
                fill="#f2f5e9" fill-opacity="0.5" stroke="#606060" stroke-width="1.0"/>
           <path id="arrow"
             d="M 11.500037,31.436501 C 11.940474,20.09759 22.043105,11.32322 32.158766,21.979434 L 37.068811,17.246167 C 37.068811,17.246167 37.088388,32 37.088388,32 L 22.160133,31.978069 C 22.160133,31.978069 26.997745,27.140456 26.997745,27.140456 C 18.528582,18.264221 13.291696,25.230495 11.500037,31.436501 z"
             style="fill:#404040;"/>
          </a>
         </g>
        </svg>
</svg>
