<?xml version="1.0" encoding="UTF-8" standalone="no"?>
<!DOCTYPE svg PUBLIC "-//W3C//DTD SVG 1.1//EN"
 "http://www.w3.org/Graphics/SVG/1.1/DTD/svg11.dtd">
<!-- Generated by graphviz version 2.36.0 (20140111.2315)
 -->
<!-- Title: authoring.createedit.ActionCreator.ActionCreator Pages: 1 -->
<svg width="908pt" height="273pt"
 viewBox="0.00 0.00 908.00 273.00" xmlns="http://www.w3.org/2000/svg" xmlns:xlink="http://www.w3.org/1999/xlink">
<g id="graph0" class="graph" transform="scale(1 1) rotate(0) translate(4 269)">
<title>authoring.createedit.ActionCreator.ActionCreator</title>
<polygon fill="white" stroke="none" points="-4,4 -4,-269 904,-269 904,4 -4,4"/>
<!-- Node1 -->
<g id="node1" class="node"><title>Node1</title>
<polygon fill="#bfbfbf" stroke="black" points="0.5,-112 0.5,-142 147.5,-142 147.5,-112 0.5,-112"/>
<text text-anchor="start" x="8.5" y="-130" font-family="Helvetica,sans-Serif" font-size="10.00">authoring.createedit.Action</text>
<text text-anchor="middle" x="74" y="-119" font-family="Helvetica,sans-Serif" font-size="10.00">Creator.ActionCreator</text>
</g>
<!-- Node2 -->
<g id="node2" class="node"><title>Node2</title>
<g id="a_node2"><a xlink:href="../../d5/d7c/classauthoring_1_1createedit_1_1_action_creator.html#ad674395590b84f53c85f078d183bc133" target="_top" xlink:title="authoring.createedit.Action\lCreator.initialize">
<polygon fill="white" stroke="black" points="184.5,-112 184.5,-142 331.5,-142 331.5,-112 184.5,-112"/>
<text text-anchor="start" x="192.5" y="-130" font-family="Helvetica,sans-Serif" font-size="10.00">authoring.createedit.Action</text>
<text text-anchor="middle" x="258" y="-119" font-family="Helvetica,sans-Serif" font-size="10.00">Creator.initialize</text>
</a>
</g>
</g>
<!-- Node1&#45;&gt;Node2 -->
<g id="edge1" class="edge"><title>Node1&#45;&gt;Node2</title>
<path fill="none" stroke="midnightblue" d="M147.716,-127C156.398,-127 165.312,-127 174.123,-127"/>
<polygon fill="midnightblue" stroke="midnightblue" points="174.4,-130.5 184.4,-127 174.4,-123.5 174.4,-130.5"/>
</g>
<!-- Node3 -->
<g id="node3" class="node"><title>Node3</title>
<g id="a_node3"><a xlink:href="../../d5/d7c/classauthoring_1_1createedit_1_1_action_creator.html#abfeb3173bab48ba052167787e04a42b2" target="_top" xlink:title="authoring.createedit.Action\lCreator.initNameField">
<polygon fill="white" stroke="black" points="376.5,-235 376.5,-265 523.5,-265 523.5,-235 376.5,-235"/>
<text text-anchor="start" x="384.5" y="-253" font-family="Helvetica,sans-Serif" font-size="10.00">authoring.createedit.Action</text>
<text text-anchor="middle" x="450" y="-242" font-family="Helvetica,sans-Serif" font-size="10.00">Creator.initNameField</text>
</a>
</g>
</g>
<!-- Node2&#45;&gt;Node3 -->
<g id="edge2" class="edge"><title>Node2&#45;&gt;Node3</title>
<path fill="none" stroke="midnightblue" d="M271.897,-142.166C290.873,-163.571 328.376,-202.531 368,-225 371.849,-227.182 375.91,-229.197 380.082,-231.053"/>
<polygon fill="midnightblue" stroke="midnightblue" points="378.771,-234.298 389.35,-234.867 381.435,-227.825 378.771,-234.298"/>
</g>
<!-- Node4 -->
<g id="node4" class="node"><title>Node4</title>
<g id="a_node4"><a xlink:href="../../d5/d7c/classauthoring_1_1createedit_1_1_action_creator.html#a2bbed36eaf05d726c514e7fbf438203c" target="_top" xlink:title="authoring.createedit.Action\lCreator.initSetRangeButton">
<polygon fill="white" stroke="black" points="376,-186 376,-216 524,-216 524,-186 376,-186"/>
<text text-anchor="start" x="384" y="-204" font-family="Helvetica,sans-Serif" font-size="10.00">authoring.createedit.Action</text>
<text text-anchor="middle" x="450" y="-193" font-family="Helvetica,sans-Serif" font-size="10.00">Creator.initSetRangeButton</text>
</a>
</g>
</g>
<!-- Node2&#45;&gt;Node4 -->
<g id="edge3" class="edge"><title>Node2&#45;&gt;Node4</title>
<path fill="none" stroke="midnightblue" d="M290.052,-142.19C311.631,-152.44 341.213,-165.889 368,-176 374.198,-178.34 380.721,-180.629 387.263,-182.814"/>
<polygon fill="midnightblue" stroke="midnightblue" points="386.233,-186.16 396.825,-185.935 388.404,-179.505 386.233,-186.16"/>
</g>
<!-- Node5 -->
<g id="node5" class="node"><title>Node5</title>
<g id="a_node5"><a xlink:href="../../d5/d7c/classauthoring_1_1createedit_1_1_action_creator.html#a2a6e47c579e20e95fb11d3a85f382f34" target="_top" xlink:title="authoring.createedit.Action\lCreator.initConclusionsBox">
<polygon fill="white" stroke="black" points="376.5,-137 376.5,-167 523.5,-167 523.5,-137 376.5,-137"/>
<text text-anchor="start" x="384.5" y="-155" font-family="Helvetica,sans-Serif" font-size="10.00">authoring.createedit.Action</text>
<text text-anchor="middle" x="450" y="-144" font-family="Helvetica,sans-Serif" font-size="10.00">Creator.initConclusionsBox</text>
</a>
</g>
</g>
<!-- Node2&#45;&gt;Node5 -->
<g id="edge4" class="edge"><title>Node2&#45;&gt;Node5</title>
<path fill="none" stroke="midnightblue" d="M331.644,-136.558C342.988,-138.051 354.782,-139.603 366.33,-141.122"/>
<polygon fill="midnightblue" stroke="midnightblue" points="366.025,-144.612 376.396,-142.447 366.938,-137.672 366.025,-144.612"/>
</g>
<!-- Node10 -->
<g id="node10" class="node"><title>Node10</title>
<g id="a_node10"><a xlink:href="../../d5/d7c/classauthoring_1_1createedit_1_1_action_creator.html#a9311910805dca9757f0a441b16606e69" target="_top" xlink:title="authoring.createedit.Action\lCreator.getStatsLogics">
<polygon fill="white" stroke="black" points="376.5,-88 376.5,-118 523.5,-118 523.5,-88 376.5,-88"/>
<text text-anchor="start" x="384.5" y="-106" font-family="Helvetica,sans-Serif" font-size="10.00">authoring.createedit.Action</text>
<text text-anchor="middle" x="450" y="-95" font-family="Helvetica,sans-Serif" font-size="10.00">Creator.getStatsLogics</text>
</a>
</g>
</g>
<!-- Node2&#45;&gt;Node10 -->
<g id="edge9" class="edge"><title>Node2&#45;&gt;Node10</title>
<path fill="none" stroke="midnightblue" d="M331.644,-117.824C342.988,-116.391 354.782,-114.901 366.33,-113.443"/>
<polygon fill="midnightblue" stroke="midnightblue" points="366.914,-116.897 376.396,-112.171 366.036,-109.952 366.914,-116.897"/>
</g>
<!-- Node12 -->
<g id="node12" class="node"><title>Node12</title>
<g id="a_node12"><a xlink:href="../../d2/da6/classauthoring_1_1data_1_1_action_data.html#ac4c4ab5711f3eeb1d62a8bb716338d4b" target="_top" xlink:title="authoring.data.ActionData.add">
<polygon fill="white" stroke="black" points="368,-49.5 368,-68.5 532,-68.5 532,-49.5 368,-49.5"/>
<text text-anchor="middle" x="450" y="-56.5" font-family="Helvetica,sans-Serif" font-size="10.00">authoring.data.ActionData.add</text>
</a>
</g>
</g>
<!-- Node2&#45;&gt;Node12 -->
<g id="edge11" class="edge"><title>Node2&#45;&gt;Node12</title>
<path fill="none" stroke="midnightblue" d="M289.444,-111.896C310.998,-101.625 340.795,-88.2711 368,-79 376.467,-76.1144 385.563,-73.4572 394.492,-71.086"/>
<polygon fill="midnightblue" stroke="midnightblue" points="395.64,-74.405 404.459,-68.5335 393.903,-67.6239 395.64,-74.405"/>
</g>
<!-- Node13 -->
<g id="node13" class="node"><title>Node13</title>
<g id="a_node13"><a xlink:href="../../d2/da6/classauthoring_1_1data_1_1_action_data.html#a24bc762fba66b9a4c37b81a0cefb288c" target="_top" xlink:title="authoring.data.ActionData.get\lActionNames">
<polygon fill="white" stroke="black" points="369,-0 369,-30 531,-30 531,-0 369,-0"/>
<text text-anchor="start" x="377" y="-18" font-family="Helvetica,sans-Serif" font-size="10.00">authoring.data.ActionData.get</text>
<text text-anchor="middle" x="450" y="-7" font-family="Helvetica,sans-Serif" font-size="10.00">ActionNames</text>
</a>
</g>
</g>
<!-- Node2&#45;&gt;Node13 -->
<g id="edge12" class="edge"><title>Node2&#45;&gt;Node13</title>
<path fill="none" stroke="midnightblue" d="M274.267,-111.67C294.212,-92.4299 330.972,-59.5836 368,-40 372.248,-37.753 376.731,-35.6725 381.319,-33.7526"/>
<polygon fill="midnightblue" stroke="midnightblue" points="382.8,-36.9317 390.843,-30.0352 380.255,-30.4108 382.8,-36.9317"/>
</g>
<!-- Node6 -->
<g id="node6" class="node"><title>Node6</title>
<g id="a_node6"><a xlink:href="../../d7/dcc/classutilities_1_1_class_grabber.html#aafd30d1c4beed85d57bce894927acb09" target="_top" xlink:title="utilities.ClassGrabber.get\lClasses">
<polygon fill="white" stroke="black" points="574,-186 574,-216 710,-216 710,-186 574,-186"/>
<text text-anchor="start" x="582" y="-204" font-family="Helvetica,sans-Serif" font-size="10.00">utilities.ClassGrabber.get</text>
<text text-anchor="middle" x="642" y="-193" font-family="Helvetica,sans-Serif" font-size="10.00">Classes</text>
</a>
</g>
</g>
<!-- Node5&#45;&gt;Node6 -->
<g id="edge5" class="edge"><title>Node5&#45;&gt;Node6</title>
<path fill="none" stroke="midnightblue" d="M509.297,-167.035C529.45,-172.232 552.206,-178.101 573.064,-183.48"/>
<polygon fill="midnightblue" stroke="midnightblue" points="572.256,-186.886 582.813,-185.994 574.004,-180.107 572.256,-186.886"/>
</g>
<!-- Node8 -->
<g id="node8" class="node"><title>Node8</title>
<g id="a_node8"><a xlink:href="../../d5/d7c/classauthoring_1_1createedit_1_1_action_creator.html#ad7bee4d8607be9a731361ef01783a75b" target="_top" xlink:title="authoring.createedit.Action\lCreator.trimClassList">
<polygon fill="white" stroke="black" points="568.5,-137 568.5,-167 715.5,-167 715.5,-137 568.5,-137"/>
<text text-anchor="start" x="576.5" y="-155" font-family="Helvetica,sans-Serif" font-size="10.00">authoring.createedit.Action</text>
<text text-anchor="middle" x="642" y="-144" font-family="Helvetica,sans-Serif" font-size="10.00">Creator.trimClassList</text>
</a>
</g>
</g>
<!-- Node5&#45;&gt;Node8 -->
<g id="edge7" class="edge"><title>Node5&#45;&gt;Node8</title>
<path fill="none" stroke="midnightblue" d="M523.644,-152C534.988,-152 546.782,-152 558.33,-152"/>
<polygon fill="midnightblue" stroke="midnightblue" points="558.396,-155.5 568.396,-152 558.396,-148.5 558.396,-155.5"/>
</g>
<!-- Node7 -->
<g id="node7" class="node"><title>Node7</title>
<g id="a_node7"><a xlink:href="../../d7/dcc/classutilities_1_1_class_grabber.html#ad4bda95822ecf4385d69f6ecec3fd545" target="_top" xlink:title="utilities.ClassGrabber.find\lClasses">
<polygon fill="white" stroke="black" points="757.5,-186 757.5,-216 894.5,-216 894.5,-186 757.5,-186"/>
<text text-anchor="start" x="765.5" y="-204" font-family="Helvetica,sans-Serif" font-size="10.00">utilities.ClassGrabber.find</text>
<text text-anchor="middle" x="826" y="-193" font-family="Helvetica,sans-Serif" font-size="10.00">Classes</text>
</a>
</g>
</g>
<!-- Node6&#45;&gt;Node7 -->
<g id="edge6" class="edge"><title>Node6&#45;&gt;Node7</title>
<path fill="none" stroke="midnightblue" d="M710.253,-201C722.278,-201 734.897,-201 747.188,-201"/>
<polygon fill="midnightblue" stroke="midnightblue" points="747.416,-204.5 757.416,-201 747.416,-197.5 747.416,-204.5"/>
</g>
<!-- Node9 -->
<g id="node9" class="node"><title>Node9</title>
<g id="a_node9"><a xlink:href="../../d5/d7c/classauthoring_1_1createedit_1_1_action_creator.html#a618166b8bbf836ba8cfb7419bbcb7de6" target="_top" xlink:title="authoring.createedit.Action\lCreator.trimClassPaths">
<polygon fill="white" stroke="black" points="752.5,-137 752.5,-167 899.5,-167 899.5,-137 752.5,-137"/>
<text text-anchor="start" x="760.5" y="-155" font-family="Helvetica,sans-Serif" font-size="10.00">authoring.createedit.Action</text>
<text text-anchor="middle" x="826" y="-144" font-family="Helvetica,sans-Serif" font-size="10.00">Creator.trimClassPaths</text>
</a>
</g>
</g>
<!-- Node8&#45;&gt;Node9 -->
<g id="edge8" class="edge"><title>Node8&#45;&gt;Node9</title>
<path fill="none" stroke="midnightblue" d="M715.716,-152C724.398,-152 733.312,-152 742.123,-152"/>
<polygon fill="midnightblue" stroke="midnightblue" points="742.4,-155.5 752.4,-152 742.4,-148.5 742.4,-155.5"/>
</g>
<!-- Node11 -->
<g id="node11" class="node"><title>Node11</title>
<g id="a_node11"><a xlink:href="../../d5/d7c/classauthoring_1_1createedit_1_1_action_creator.html#a413f8c960e9e7ac1fe1ea2950c69dc7b" target="_top" xlink:title="authoring.createedit.Action\lCreator.getSingleMultipliers">
<polygon fill="white" stroke="black" points="568,-88 568,-118 716,-118 716,-88 568,-88"/>
<text text-anchor="start" x="576" y="-106" font-family="Helvetica,sans-Serif" font-size="10.00">authoring.createedit.Action</text>
<text text-anchor="middle" x="642" y="-95" font-family="Helvetica,sans-Serif" font-size="10.00">Creator.getSingleMultipliers</text>
</a>
</g>
</g>
<!-- Node10&#45;&gt;Node11 -->
<g id="edge10" class="edge"><title>Node10&#45;&gt;Node11</title>
<path fill="none" stroke="midnightblue" d="M523.644,-103C534.713,-103 546.211,-103 557.489,-103"/>
<polygon fill="midnightblue" stroke="midnightblue" points="557.767,-106.5 567.767,-103 557.767,-99.5001 557.767,-106.5"/>
</g>
</g>
</svg>
