<?xml version="1.0" encoding="UTF-8" standalone="no"?>
<!DOCTYPE svg PUBLIC "-//W3C//DTD SVG 1.1//EN"
 "http://www.w3.org/Graphics/SVG/1.1/DTD/svg11.dtd">
<!-- Generated by graphviz version 2.36.0 (20140111.2315)
 -->
<!-- Title: authoring.createedit.EventCreator Pages: 1 -->
<svg width="292pt" height="108pt"
 viewBox="0.00 0.00 292.00 108.00" xmlns="http://www.w3.org/2000/svg" xmlns:xlink="http://www.w3.org/1999/xlink">
<g id="graph0" class="graph" transform="scale(1 1) rotate(0) translate(4 104)">
<title>authoring.createedit.EventCreator</title>
<polygon fill="white" stroke="none" points="-4,4 -4,-104 288,-104 288,4 -4,4"/>
<!-- Node1 -->
<g id="node1" class="node"><title>Node1</title>
<polygon fill="#bfbfbf" stroke="black" points="33,-1 33,-31 177,-31 177,-1 33,-1"/>
<text text-anchor="start" x="41" y="-19" font-family="Helvetica,sans-Serif" font-size="10.00">authoring.createedit.Event</text>
<text text-anchor="middle" x="105" y="-8" font-family="Helvetica,sans-Serif" font-size="10.00">Creator</text>
</g>
<!-- Node2 -->
<g id="node2" class="node"><title>Node2</title>
<polygon fill="white" stroke="#bfbfbf" points="-0.5,-80.5 -0.5,-99.5 64.5,-99.5 64.5,-80.5 -0.5,-80.5"/>
<text text-anchor="middle" x="32" y="-87.5" font-family="Helvetica,sans-Serif" font-size="10.00">TitledPane</text>
</g>
<!-- Node2&#45;&gt;Node1 -->
<g id="edge1" class="edge"><title>Node2&#45;&gt;Node1</title>
<path fill="none" stroke="midnightblue" d="M47.8387,-73.3783C60.5505,-60.8406 78.2477,-43.3858 90.5707,-31.2316"/>
<polygon fill="midnightblue" stroke="midnightblue" points="45.3227,-70.9439 40.6607,-80.4579 50.2382,-75.9276 45.3227,-70.9439"/>
</g>
<!-- Node3 -->
<g id="node3" class="node"><title>Node3</title>
<polygon fill="white" stroke="#bfbfbf" points="82.5,-80.5 82.5,-99.5 127.5,-99.5 127.5,-80.5 82.5,-80.5"/>
<text text-anchor="middle" x="105" y="-87.5" font-family="Helvetica,sans-Serif" font-size="10.00">Insets</text>
</g>
<!-- Node3&#45;&gt;Node1 -->
<g id="edge2" class="edge"><title>Node3&#45;&gt;Node1</title>
<path fill="none" stroke="#9a32cd" stroke-dasharray="5,2" d="M105,-70.0846C105,-57.9148 105,-42.3538 105,-31.2316"/>
<polygon fill="#9a32cd" stroke="#9a32cd" points="101.5,-70.4579 105,-80.4579 108.5,-70.4579 101.5,-70.4579"/>
<text text-anchor="middle" x="129.5" y="-53.5" font-family="Helvetica,sans-Serif" font-size="10.00"> MARGINS</text>
</g>
<!-- Node4 -->
<g id="node4" class="node"><title>Node4</title>
<polygon fill="white" stroke="#bfbfbf" points="146,-80.5 146,-99.5 284,-99.5 284,-80.5 146,-80.5"/>
<text text-anchor="middle" x="215" y="-87.5" font-family="Helvetica,sans-Serif" font-size="10.00">ObservableList&lt; String &gt;</text>
</g>
<!-- Node4&#45;&gt;Node1 -->
<g id="edge3" class="edge"><title>Node4&#45;&gt;Node1</title>
<path fill="none" stroke="#9a32cd" stroke-dasharray="5,2" d="M194.532,-74.681C183.74,-67.2114 170.236,-57.9899 158,-50 148.289,-43.6588 137.437,-36.8534 128.094,-31.0797"/>
<polygon fill="#9a32cd" stroke="#9a32cd" points="192.663,-77.6443 202.872,-80.4779 196.658,-71.8964 192.663,-77.6443"/>
<text text-anchor="middle" x="201.5" y="-53.5" font-family="Helvetica,sans-Serif" font-size="10.00"> myEvents</text>
</g>
</g>
</svg>
