<?xml version="1.0" encoding="UTF-8" standalone="no"?>
<!DOCTYPE svg PUBLIC "-//W3C//DTD SVG 1.1//EN"
 "http://www.w3.org/Graphics/SVG/1.1/DTD/svg11.dtd">
<!-- Generated by graphviz version 2.36.0 (20140111.2315)
 -->
<!-- Title: gamePlayer.Audio.playAudio Pages: 1 -->
<!--zoomable 508 -->
<svg id="main" version="1.1" xmlns="http://www.w3.org/2000/svg" xmlns:xlink="http://www.w3.org/1999/xlink" xml:space="preserve" onload="init(evt)">
<style type="text/css"><![CDATA[
.edge:hover path { stroke: red; }
.edge:hover polygon { stroke: red; fill: red; }
]]></style>
<script type="text/javascript"><![CDATA[
var edges = document.getElementsByTagName('g');
if (edges && edges.length) {
  for (var i=0;i<edges.length;i++) {
    if (edges[i].id.substr(0,4)=='edge') {
      edges[i].setAttribute('class','edge');
    }
  }
}
]]></script>
        <defs>
                <circle id="rim" cx="0" cy="0" r="7"/>
                <circle id="rim2" cx="0" cy="0" r="3.5"/>
                <g id="zoomPlus">
                        <use xlink:href="#rim" fill="#404040">
                                <set attributeName="fill" to="#808080" begin="zoomplus.mouseover" end="zoomplus.mouseout"/>
                        </use>
                        <path d="M-4,0h8M0,-4v8" fill="none" stroke="white" stroke-width="1.5" pointer-events="none"/>
                </g>
                <g id="zoomMin">
                        <use xlink:href="#rim" fill="#404040">
                                <set attributeName="fill" to="#808080" begin="zoomminus.mouseover" end="zoomminus.mouseout"/>
                        </use>
                        <path d="M-4,0h8" fill="none" stroke="white" stroke-width="1.5" pointer-events="none"/>
                </g>
                <g id="dirArrow">
                        <path fill="none" stroke="white" stroke-width="1.5" d="M0,-3.0v7 M-2.5,-0.5L0,-3.0L2.5,-0.5"/>
                </g>
               <g id="resetDef">
                       <use xlink:href="#rim2" fill="#404040">
                               <set attributeName="fill" to="#808080" begin="reset.mouseover" end="reset.mouseout"/>
                       </use>
               </g>
        </defs>

<script type="text/javascript">
var viewWidth = 1950;
var viewHeight = 508;
var sectionId = 'dynsection-2';
</script>
<script xlink:href="../../svgpan.js"/>
<svg id="graph" class="graph">
<g id="viewport">
<title>gamePlayer.Audio.playAudio</title>
<polygon fill="white" stroke="none" points="-4,4 -4,-504 1946,-504 1946,4 -4,4"/>
<!-- Node1 -->
<g id="node1" class="node"><title>Node1</title>
<polygon fill="#bfbfbf" stroke="black" points="0,-324.5 0,-343.5 152,-343.5 152,-324.5 0,-324.5"/>
<text text-anchor="middle" x="76" y="-331.5" font-family="Helvetica,sans-Serif" font-size="10.00">gamePlayer.Audio.playAudio</text>
</g>
<!-- Node2 -->
<g id="node2" class="node"><title>Node2</title>
<g id="a_node2"><a xlink:href="../../da/de7/classgame_player_1_1_audio.html#a7de4eaaf232a7e233eb5ee963f1c6108" target="_top" xlink:title="gamePlayer.Audio.playBackground">
<polygon fill="white" stroke="black" points="188,-401.5 188,-420.5 370,-420.5 370,-401.5 188,-401.5"/>
<text text-anchor="middle" x="279" y="-408.5" font-family="Helvetica,sans-Serif" font-size="10.00">gamePlayer.Audio.playBackground</text>
</a>
</g>
</g>
<!-- Node1&#45;&gt;Node2 -->
<g id="edge1" class="edge"><title>Node1&#45;&gt;Node2</title>
<path fill="none" stroke="midnightblue" d="M111.455,-347.199C151.69,-362.613 217.271,-387.736 252.95,-401.404"/>
<polygon fill="midnightblue" stroke="midnightblue" points="112.641,-343.905 102.05,-343.596 110.137,-350.442 112.641,-343.905"/>
</g>
<!-- Node8 -->
<g id="node8" class="node"><title>Node8</title>
<g id="a_node8"><a xlink:href="../../da/de7/classgame_player_1_1_audio.html#a6809512c55dc1876a9e590531f2057c5" target="_top" xlink:title="gamePlayer.Audio.playSelection">
<polygon fill="white" stroke="black" points="194,-182.5 194,-201.5 364,-201.5 364,-182.5 194,-182.5"/>
<text text-anchor="middle" x="279" y="-189.5" font-family="Helvetica,sans-Serif" font-size="10.00">gamePlayer.Audio.playSelection</text>
</a>
</g>
</g>
<!-- Node1&#45;&gt;Node8 -->
<g id="edge7" class="edge"><title>Node1&#45;&gt;Node8</title>
<path fill="none" stroke="midnightblue" d="M98.8475,-318.565C140.471,-289.16 230.039,-225.883 264.294,-201.683"/>
<polygon fill="midnightblue" stroke="midnightblue" points="96.6482,-315.834 90.5003,-324.462 100.687,-321.551 96.6482,-315.834"/>
</g>
<!-- Node3 -->
<g id="node3" class="node"><title>Node3</title>
<g id="a_node3"><a xlink:href="../../df/dd5/classgame_player_1_1_view_controller.html#afcc191634cdb14304828148befdcd228" target="_top" xlink:title="gamePlayer.ViewController.open\lInitialGUIMenu">
<polygon fill="white" stroke="black" points="423,-470 423,-500 593,-500 593,-470 423,-470"/>
<text text-anchor="start" x="431" y="-488" font-family="Helvetica,sans-Serif" font-size="10.00">gamePlayer.ViewController.open</text>
<text text-anchor="middle" x="508" y="-477" font-family="Helvetica,sans-Serif" font-size="10.00">InitialGUIMenu</text>
</a>
</g>
</g>
<!-- Node2&#45;&gt;Node3 -->
<g id="edge2" class="edge"><title>Node2&#45;&gt;Node3</title>
<path fill="none" stroke="midnightblue" d="M311.421,-424.516C336.671,-435.061 373.21,-449.613 406,-460 417.193,-463.546 429.214,-466.903 440.92,-469.938"/>
<polygon fill="midnightblue" stroke="midnightblue" points="312.572,-421.203 301.997,-420.548 309.855,-427.655 312.572,-421.203"/>
</g>
<!-- Node5 -->
<g id="node5" class="node"><title>Node5</title>
<g id="a_node5"><a xlink:href="../../df/dd5/classgame_player_1_1_view_controller.html#ab9fcbe9d6b0247153208179f926b8d94" target="_top" xlink:title="gamePlayer.ViewController.open\lInitialMenu">
<polygon fill="white" stroke="black" points="423,-421 423,-451 593,-451 593,-421 423,-421"/>
<text text-anchor="start" x="431" y="-439" font-family="Helvetica,sans-Serif" font-size="10.00">gamePlayer.ViewController.open</text>
<text text-anchor="middle" x="508" y="-428" font-family="Helvetica,sans-Serif" font-size="10.00">InitialMenu</text>
</a>
</g>
</g>
<!-- Node2&#45;&gt;Node5 -->
<g id="edge4" class="edge"><title>Node2&#45;&gt;Node5</title>
<path fill="none" stroke="midnightblue" d="M376.481,-421.626C391.831,-423.316 407.606,-425.054 422.649,-426.71"/>
<polygon fill="midnightblue" stroke="midnightblue" points="376.79,-418.139 366.467,-420.523 376.023,-425.097 376.79,-418.139"/>
</g>
<!-- Node7 -->
<g id="node7" class="node"><title>Node7</title>
<g id="a_node7"><a xlink:href="../../df/dd5/classgame_player_1_1_view_controller.html#a8dfc8297ce3ba7427105ba25bda56e9a" target="_top" xlink:title="gamePlayer.ViewController.toggle\lBackgroundMusic">
<polygon fill="white" stroke="black" points="420,-372 420,-402 596,-402 596,-372 420,-372"/>
<text text-anchor="start" x="428" y="-390" font-family="Helvetica,sans-Serif" font-size="10.00">gamePlayer.ViewController.toggle</text>
<text text-anchor="middle" x="508" y="-379" font-family="Helvetica,sans-Serif" font-size="10.00">BackgroundMusic</text>
</a>
</g>
</g>
<!-- Node2&#45;&gt;Node7 -->
<g id="edge6" class="edge"><title>Node2&#45;&gt;Node7</title>
<path fill="none" stroke="midnightblue" d="M380.071,-400.42C393.264,-399.025 406.702,-397.604 419.659,-396.234"/>
<polygon fill="midnightblue" stroke="midnightblue" points="379.619,-396.948 370.042,-401.48 380.355,-403.909 379.619,-396.948"/>
</g>
<!-- Node4 -->
<g id="node4" class="node"><title>Node4</title>
<g id="a_node4"><a xlink:href="../../df/dd5/classgame_player_1_1_view_controller.html#a18533d310033908b1101797368828a26" target="_top" xlink:title="gamePlayer.ViewController.\lViewController">
<polygon fill="white" stroke="black" points="677,-470 677,-500 823,-500 823,-470 677,-470"/>
<text text-anchor="start" x="685" y="-488" font-family="Helvetica,sans-Serif" font-size="10.00">gamePlayer.ViewController.</text>
<text text-anchor="middle" x="750" y="-477" font-family="Helvetica,sans-Serif" font-size="10.00">ViewController</text>
</a>
</g>
</g>
<!-- Node3&#45;&gt;Node4 -->
<g id="edge3" class="edge"><title>Node3&#45;&gt;Node4</title>
<path fill="none" stroke="midnightblue" d="M603.297,-485C627.771,-485 653.742,-485 676.874,-485"/>
<polygon fill="midnightblue" stroke="midnightblue" points="603.278,-481.5 593.278,-485 603.278,-488.5 603.278,-481.5"/>
</g>
<!-- Node6 -->
<g id="node6" class="node"><title>Node6</title>
<g id="a_node6"><a xlink:href="../../df/dd5/classgame_player_1_1_view_controller.html#a2acd822c93c35674b6978a97b4ce6e3f" target="_top" xlink:title="gamePlayer.ViewController.\lViewController">
<polygon fill="white" stroke="black" points="1142,-402 1142,-432 1288,-432 1288,-402 1142,-402"/>
<text text-anchor="start" x="1150" y="-420" font-family="Helvetica,sans-Serif" font-size="10.00">gamePlayer.ViewController.</text>
<text text-anchor="middle" x="1215" y="-409" font-family="Helvetica,sans-Serif" font-size="10.00">ViewController</text>
</a>
</g>
</g>
<!-- Node5&#45;&gt;Node6 -->
<g id="edge5" class="edge"><title>Node5&#45;&gt;Node6</title>
<path fill="none" stroke="midnightblue" d="M603.392,-433.456C746.057,-429.611 1013.54,-422.403 1141.8,-418.946"/>
<polygon fill="midnightblue" stroke="midnightblue" points="603.241,-429.959 593.339,-433.727 603.43,-436.956 603.241,-429.959"/>
</g>
<!-- Node9 -->
<g id="node9" class="node"><title>Node9</title>
<g id="a_node9"><a xlink:href="../../df/dd5/classgame_player_1_1_view_controller.html#a10a40967a873f067cf91b024ff85b38e" target="_top" xlink:title="gamePlayer.ViewController.initializeGrid">
<polygon fill="white" stroke="black" points="406,-248.5 406,-267.5 610,-267.5 610,-248.5 406,-248.5"/>
<text text-anchor="middle" x="508" y="-255.5" font-family="Helvetica,sans-Serif" font-size="10.00">gamePlayer.ViewController.initializeGrid</text>
</a>
</g>
</g>
<!-- Node8&#45;&gt;Node9 -->
<g id="edge8" class="edge"><title>Node8&#45;&gt;Node9</title>
<path fill="none" stroke="midnightblue" d="M322.842,-204.456C366.863,-217.255 434.43,-236.9 474.321,-248.499"/>
<polygon fill="midnightblue" stroke="midnightblue" points="323.587,-201.028 313.008,-201.597 321.633,-207.75 323.587,-201.028"/>
</g>
<!-- Node13 -->
<g id="node13" class="node"><title>Node13</title>
<g id="a_node13"><a xlink:href="../../df/dd5/classgame_player_1_1_view_controller.html#a95c2acd43bb39b8606c69971c1cd30f5" target="_top" xlink:title="gamePlayer.ViewController.perform\lAction">
<polygon fill="white" stroke="black" points="894.5,-133 894.5,-163 1079.5,-163 1079.5,-133 894.5,-133"/>
<text text-anchor="start" x="902.5" y="-151" font-family="Helvetica,sans-Serif" font-size="10.00">gamePlayer.ViewController.perform</text>
<text text-anchor="middle" x="987" y="-140" font-family="Helvetica,sans-Serif" font-size="10.00">Action</text>
</a>
</g>
</g>
<!-- Node8&#45;&gt;Node13 -->
<g id="edge33" class="edge"><title>Node8&#45;&gt;Node13</title>
<path fill="none" stroke="midnightblue" d="M346.524,-180.859C419.678,-169.217 540.823,-151.726 646,-145 738.256,-139.101 761.562,-143.95 854,-145 867.065,-145.148 880.856,-145.38 894.402,-145.649"/>
<polygon fill="midnightblue" stroke="midnightblue" points="345.846,-177.423 336.526,-182.462 346.954,-184.335 345.846,-177.423"/>
</g>
<!-- Node15 -->
<g id="node15" class="node"><title>Node15</title>
<g id="a_node15"><a xlink:href="../../df/dd5/classgame_player_1_1_view_controller.html#a7eb038fd9f20604ade0406f27ef76657" target="_top" xlink:title="gamePlayer.ViewController.bind\lAction">
<polygon fill="white" stroke="black" points="1350.5,-62 1350.5,-92 1517.5,-92 1517.5,-62 1350.5,-62"/>
<text text-anchor="start" x="1358.5" y="-80" font-family="Helvetica,sans-Serif" font-size="10.00">gamePlayer.ViewController.bind</text>
<text text-anchor="middle" x="1434" y="-69" font-family="Helvetica,sans-Serif" font-size="10.00">Action</text>
</a>
</g>
</g>
<!-- Node8&#45;&gt;Node15 -->
<g id="edge32" class="edge"><title>Node8&#45;&gt;Node15</title>
<path fill="none" stroke="midnightblue" d="M312.368,-178.702C387.62,-149.029 580.756,-80 749,-80 749,-80 749,-80 988,-80 1114.32,-80 1260.8,-78.7763 1350.17,-77.892"/>
<polygon fill="midnightblue" stroke="midnightblue" points="310.953,-175.498 302.958,-182.451 313.544,-182.001 310.953,-175.498"/>
</g>
<!-- Node10 -->
<g id="node10" class="node"><title>Node10</title>
<g id="a_node10"><a xlink:href="../../df/dd5/classgame_player_1_1_view_controller.html#aabf431713b65ec510f1cb2df12da4e45" target="_top" xlink:title="gamePlayer.ViewController.test\lPlayGameInTab">
<polygon fill="white" stroke="black" points="667.5,-380 667.5,-410 832.5,-410 832.5,-380 667.5,-380"/>
<text text-anchor="start" x="675.5" y="-398" font-family="Helvetica,sans-Serif" font-size="10.00">gamePlayer.ViewController.test</text>
<text text-anchor="middle" x="750" y="-387" font-family="Helvetica,sans-Serif" font-size="10.00">PlayGameInTab</text>
</a>
</g>
</g>
<!-- Node9&#45;&gt;Node10 -->
<g id="edge9" class="edge"><title>Node9&#45;&gt;Node10</title>
<path fill="none" stroke="midnightblue" d="M525.089,-275.368C549.039,-300.159 596.578,-345.408 646,-370 653.743,-373.853 662.115,-377.134 670.623,-379.923"/>
<polygon fill="midnightblue" stroke="midnightblue" points="527.327,-272.643 517.902,-267.804 522.253,-277.464 527.327,-272.643"/>
</g>
<!-- Node11 -->
<g id="node11" class="node"><title>Node11</title>
<g id="a_node11"><a xlink:href="../../df/dd5/classgame_player_1_1_view_controller.html#a0d1a3d443966f151b070dc751d2faf9a" target="_top" xlink:title="gamePlayer.ViewController.restartGame">
<polygon fill="white" stroke="black" points="646,-292.5 646,-311.5 854,-311.5 854,-292.5 646,-292.5"/>
<text text-anchor="middle" x="750" y="-299.5" font-family="Helvetica,sans-Serif" font-size="10.00">gamePlayer.ViewController.restartGame</text>
</a>
</g>
</g>
<!-- Node9&#45;&gt;Node11 -->
<g id="edge10" class="edge"><title>Node9&#45;&gt;Node11</title>
<path fill="none" stroke="midnightblue" d="M571.273,-269.417C610.329,-276.577 660.095,-285.701 697.025,-292.471"/>
<polygon fill="midnightblue" stroke="midnightblue" points="571.544,-265.908 561.076,-267.547 570.281,-272.793 571.544,-265.908"/>
</g>
<!-- Node12 -->
<g id="node12" class="node"><title>Node12</title>
<g id="a_node12"><a xlink:href="../../df/dd5/classgame_player_1_1_view_controller.html#a620f8a02d3ac7677cd179fcd812aca55" target="_top" xlink:title="gamePlayer.ViewController.check\lEndActions">
<polygon fill="white" stroke="black" points="663,-243 663,-273 837,-273 837,-243 663,-243"/>
<text text-anchor="start" x="671" y="-261" font-family="Helvetica,sans-Serif" font-size="10.00">gamePlayer.ViewController.check</text>
<text text-anchor="middle" x="750" y="-250" font-family="Helvetica,sans-Serif" font-size="10.00">EndActions</text>
</a>
</g>
</g>
<!-- Node9&#45;&gt;Node12 -->
<g id="edge11" class="edge"><title>Node9&#45;&gt;Node12</title>
<path fill="none" stroke="midnightblue" d="M620.421,-258C634.67,-258 649.082,-258 662.846,-258"/>
<polygon fill="midnightblue" stroke="midnightblue" points="620.086,-254.5 610.086,-258 620.086,-261.5 620.086,-254.5"/>
</g>
<!-- Node25 -->
<g id="node25" class="node"><title>Node25</title>
<g id="a_node25"><a xlink:href="../../df/dd5/classgame_player_1_1_view_controller.html#adc15cd81cefb88c58f9d3b7478328df8" target="_top" xlink:title="gamePlayer.ViewController.test\lPlayGUIGame">
<polygon fill="white" stroke="black" points="667.5,-155 667.5,-185 832.5,-185 832.5,-155 667.5,-155"/>
<text text-anchor="start" x="675.5" y="-173" font-family="Helvetica,sans-Serif" font-size="10.00">gamePlayer.ViewController.test</text>
<text text-anchor="middle" x="750" y="-162" font-family="Helvetica,sans-Serif" font-size="10.00">PlayGUIGame</text>
</a>
</g>
</g>
<!-- Node9&#45;&gt;Node25 -->
<g id="edge27" class="edge"><title>Node9&#45;&gt;Node25</title>
<path fill="none" stroke="midnightblue" d="M539.027,-244.086C566.519,-231.636 608.508,-213.345 646,-200 661.09,-194.629 677.666,-189.481 693.025,-185.012"/>
<polygon fill="midnightblue" stroke="midnightblue" points="537.237,-241.055 529.59,-248.388 540.141,-247.424 537.237,-241.055"/>
</g>
<!-- Node26 -->
<g id="node26" class="node"><title>Node26</title>
<g id="a_node26"><a xlink:href="../../df/dd5/classgame_player_1_1_view_controller.html#a4c1754d129a4eac955390b428eaa448a" target="_top" xlink:title="gamePlayer.ViewController.test\lPlayGame">
<polygon fill="white" stroke="black" points="667.5,-331 667.5,-361 832.5,-361 832.5,-331 667.5,-331"/>
<text text-anchor="start" x="675.5" y="-349" font-family="Helvetica,sans-Serif" font-size="10.00">gamePlayer.ViewController.test</text>
<text text-anchor="middle" x="750" y="-338" font-family="Helvetica,sans-Serif" font-size="10.00">PlayGame</text>
</a>
</g>
</g>
<!-- Node9&#45;&gt;Node26 -->
<g id="edge28" class="edge"><title>Node9&#45;&gt;Node26</title>
<path fill="none" stroke="midnightblue" d="M536.052,-272.334C563.233,-286.28 606.627,-307.313 646,-321 656.602,-324.686 668,-328.034 679.212,-330.997"/>
<polygon fill="midnightblue" stroke="midnightblue" points="537.636,-269.213 527.146,-267.72 534.416,-275.428 537.636,-269.213"/>
</g>
<!-- Node12&#45;&gt;Node13 -->
<g id="edge12" class="edge"><title>Node12&#45;&gt;Node13</title>
<path fill="none" stroke="midnightblue" d="M792.29,-238.673C838.338,-217.118 911.852,-182.708 953.829,-163.059"/>
<polygon fill="midnightblue" stroke="midnightblue" points="790.756,-235.526 783.183,-242.936 793.724,-241.866 790.756,-235.526"/>
</g>
<!-- Node23 -->
<g id="node23" class="node"><title>Node23</title>
<g id="a_node23"><a xlink:href="../../df/dd5/classgame_player_1_1_view_controller.html#a13ea7814bde61a8042c5b1a23af41416" target="_top" xlink:title="gamePlayer.ViewController.end\lAction">
<polygon fill="white" stroke="black" points="905,-245 905,-275 1069,-275 1069,-245 905,-245"/>
<text text-anchor="start" x="913" y="-263" font-family="Helvetica,sans-Serif" font-size="10.00">gamePlayer.ViewController.end</text>
<text text-anchor="middle" x="987" y="-252" font-family="Helvetica,sans-Serif" font-size="10.00">Action</text>
</a>
</g>
</g>
<!-- Node12&#45;&gt;Node23 -->
<g id="edge25" class="edge"><title>Node12&#45;&gt;Node23</title>
<path fill="none" stroke="midnightblue" d="M847.388,-258.82C866.498,-258.983 886.379,-259.152 904.918,-259.31"/>
<polygon fill="midnightblue" stroke="midnightblue" points="847.2,-255.319 837.171,-258.733 847.141,-262.318 847.2,-255.319"/>
</g>
<!-- Node14 -->
<g id="node14" class="node"><title>Node14</title>
<g id="a_node14"><a xlink:href="../../da/d55/classgame_player_1_1_keyboard_movement.html#af45fd8d279b1ee2d6be5466d425485ab" target="_top" xlink:title="gamePlayer.KeyboardMovement.set\lMovementKeyControl">
<polygon fill="white" stroke="black" points="1120.5,-111 1120.5,-141 1309.5,-141 1309.5,-111 1120.5,-111"/>
<text text-anchor="start" x="1128.5" y="-129" font-family="Helvetica,sans-Serif" font-size="10.00">gamePlayer.KeyboardMovement.set</text>
<text text-anchor="middle" x="1215" y="-118" font-family="Helvetica,sans-Serif" font-size="10.00">MovementKeyControl</text>
</a>
</g>
</g>
<!-- Node13&#45;&gt;Node14 -->
<g id="edge13" class="edge"><title>Node13&#45;&gt;Node14</title>
<path fill="none" stroke="midnightblue" d="M1084.97,-131.871C1096.71,-130.639 1108.68,-129.483 1120.36,-128.454"/>
<polygon fill="midnightblue" stroke="midnightblue" points="1084.3,-128.423 1074.73,-132.972 1085.05,-135.383 1084.3,-128.423"/>
</g>
<!-- Node22 -->
<g id="node22" class="node"><title>Node22</title>
<g id="a_node22"><a xlink:href="../../df/dd5/classgame_player_1_1_view_controller.html#a22ee80193bbac79a935ee961a183bfcd" target="_top" xlink:title="gamePlayer.ViewController.set\lOnClick">
<polygon fill="white" stroke="black" points="1134.5,-199 1134.5,-229 1295.5,-229 1295.5,-199 1134.5,-199"/>
<text text-anchor="start" x="1142.5" y="-217" font-family="Helvetica,sans-Serif" font-size="10.00">gamePlayer.ViewController.set</text>
<text text-anchor="middle" x="1215" y="-206" font-family="Helvetica,sans-Serif" font-size="10.00">OnClick</text>
</a>
</g>
</g>
<!-- Node13&#45;&gt;Node22 -->
<g id="edge23" class="edge"><title>Node13&#45;&gt;Node22</title>
<path fill="none" stroke="midnightblue" d="M1049.3,-165.901C1084.67,-176.23 1128.65,-189.075 1162.27,-198.892"/>
<polygon fill="midnightblue" stroke="midnightblue" points="1050.15,-162.503 1039.57,-163.059 1048.18,-169.222 1050.15,-162.503"/>
</g>
<!-- Node14&#45;&gt;Node13 -->
<g id="edge21" class="edge"><title>Node14&#45;&gt;Node13</title>
<path fill="none" stroke="midnightblue" d="M1117.41,-142.089C1104.87,-143.408 1092.05,-144.64 1079.6,-145.725"/>
<polygon fill="midnightblue" stroke="midnightblue" points="1117.82,-145.565 1127.39,-141.015 1117.07,-138.605 1117.82,-145.565"/>
</g>
<!-- Node14&#45;&gt;Node15 -->
<g id="edge14" class="edge"><title>Node14&#45;&gt;Node15</title>
<path fill="none" stroke="midnightblue" d="M1292.43,-108.742C1316.61,-103.282 1343.12,-97.295 1366.54,-92.0062"/>
<polygon fill="midnightblue" stroke="midnightblue" points="1291.57,-105.349 1282.58,-110.965 1293.11,-112.177 1291.57,-105.349"/>
</g>
<!-- Node21 -->
<g id="node21" class="node"><title>Node21</title>
<g id="a_node21"><a xlink:href="../../df/dd5/classgame_player_1_1_view_controller.html#a27da17c1280cd953a14f6b76b18f9a4b" target="_top" xlink:title="gamePlayer.ViewController.toggle\lKeyboardControl">
<polygon fill="white" stroke="black" points="1346,-111 1346,-141 1522,-141 1522,-111 1346,-111"/>
<text text-anchor="start" x="1354" y="-129" font-family="Helvetica,sans-Serif" font-size="10.00">gamePlayer.ViewController.toggle</text>
<text text-anchor="middle" x="1434" y="-118" font-family="Helvetica,sans-Serif" font-size="10.00">KeyboardControl</text>
</a>
</g>
</g>
<!-- Node14&#45;&gt;Node21 -->
<g id="edge22" class="edge"><title>Node14&#45;&gt;Node21</title>
<path fill="none" stroke="midnightblue" d="M1319.81,-126C1328.53,-126 1337.3,-126 1345.88,-126"/>
<polygon fill="midnightblue" stroke="midnightblue" points="1319.6,-122.5 1309.6,-126 1319.6,-129.5 1319.6,-122.5"/>
</g>
<!-- Node16 -->
<g id="node16" class="node"><title>Node16</title>
<g id="a_node16"><a xlink:href="../../d1/db7/classgame_player_1_1_keyboard_action.html#a08ace57322b8639020688dd9493c3e1f" target="_top" xlink:title="gamePlayer.KeyboardAction.set\lActionKeyControl">
<polygon fill="white" stroke="black" points="1564,-133 1564,-163 1732,-163 1732,-133 1564,-133"/>
<text text-anchor="start" x="1572" y="-151" font-family="Helvetica,sans-Serif" font-size="10.00">gamePlayer.KeyboardAction.set</text>
<text text-anchor="middle" x="1648" y="-140" font-family="Helvetica,sans-Serif" font-size="10.00">ActionKeyControl</text>
</a>
</g>
</g>
<!-- Node15&#45;&gt;Node16 -->
<g id="edge15" class="edge"><title>Node15&#45;&gt;Node16</title>
<path fill="none" stroke="midnightblue" d="M1502.15,-94.8689C1508.88,-96.8557 1515.59,-98.9164 1522,-101 1551.77,-110.679 1584.9,-123.22 1609.57,-132.913"/>
<polygon fill="midnightblue" stroke="midnightblue" points="1502.89,-91.439 1492.31,-92.0169 1500.94,-98.1623 1502.89,-91.439"/>
</g>
<!-- Node17 -->
<g id="node17" class="node"><title>Node17</title>
<g id="a_node17"><a xlink:href="../../df/dd5/classgame_player_1_1_view_controller.html#ab8c14a8c53be9021a62d0107c2f75ef6" target="_top" xlink:title="gamePlayer.ViewController.update\lActions">
<polygon fill="white" stroke="black" points="1558,-24 1558,-54 1738,-54 1738,-24 1558,-24"/>
<text text-anchor="start" x="1566" y="-42" font-family="Helvetica,sans-Serif" font-size="10.00">gamePlayer.ViewController.update</text>
<text text-anchor="middle" x="1648" y="-31" font-family="Helvetica,sans-Serif" font-size="10.00">Actions</text>
</a>
</g>
</g>
<!-- Node15&#45;&gt;Node17 -->
<g id="edge17" class="edge"><title>Node15&#45;&gt;Node17</title>
<path fill="none" stroke="midnightblue" d="M1527.5,-60.4207C1539.39,-58.2887 1551.51,-56.1154 1563.26,-54.0105"/>
<polygon fill="midnightblue" stroke="midnightblue" points="1526.8,-56.9899 1517.57,-62.1994 1528.03,-63.8801 1526.8,-56.9899"/>
</g>
<!-- Node20 -->
<g id="node20" class="node"><title>Node20</title>
<g id="a_node20"><a xlink:href="../../df/df0/classtests_1_1_view_controller_test.html#a74e99f9c72cbdcd2d56271b2ad2df1ce" target="_top" xlink:title="tests.ViewControllerTest.bind\lActionTest">
<polygon fill="white" stroke="black" points="1571,-73 1571,-103 1725,-103 1725,-73 1571,-73"/>
<text text-anchor="start" x="1579" y="-91" font-family="Helvetica,sans-Serif" font-size="10.00">tests.ViewControllerTest.bind</text>
<text text-anchor="middle" x="1648" y="-80" font-family="Helvetica,sans-Serif" font-size="10.00">ActionTest</text>
</a>
</g>
</g>
<!-- Node15&#45;&gt;Node20 -->
<g id="edge20" class="edge"><title>Node15&#45;&gt;Node20</title>
<path fill="none" stroke="midnightblue" d="M1527.95,-81.8227C1542.29,-82.5671 1556.96,-83.3283 1570.89,-84.0507"/>
<polygon fill="midnightblue" stroke="midnightblue" points="1527.74,-78.3073 1517.57,-81.2844 1527.38,-85.2979 1527.74,-78.3073"/>
</g>
<!-- Node16&#45;&gt;Node13 -->
<g id="edge16" class="edge"><title>Node16&#45;&gt;Node13</title>
<path fill="none" stroke="midnightblue" d="M1553.74,-149.656C1543.03,-149.798 1532.28,-149.918 1522,-150 1343.34,-151.429 1298.66,-151.353 1120,-150 1106.94,-149.901 1093.15,-149.747 1079.6,-149.567"/>
<polygon fill="midnightblue" stroke="midnightblue" points="1554.01,-153.153 1563.96,-149.515 1553.92,-146.153 1554.01,-153.153"/>
</g>
<!-- Node18 -->
<g id="node18" class="node"><title>Node18</title>
<g id="a_node18"><a xlink:href="../../d6/d24/classgame_player_1_1_select_state.html#a801827392f0faeee6b96925060d77838" target="_top" xlink:title="gamePlayer.SelectState.on\lClick">
<polygon fill="white" stroke="black" points="1784.5,-49 1784.5,-79 1931.5,-79 1931.5,-49 1784.5,-49"/>
<text text-anchor="start" x="1792.5" y="-67" font-family="Helvetica,sans-Serif" font-size="10.00">gamePlayer.SelectState.on</text>
<text text-anchor="middle" x="1858" y="-56" font-family="Helvetica,sans-Serif" font-size="10.00">Click</text>
</a>
</g>
</g>
<!-- Node17&#45;&gt;Node18 -->
<g id="edge18" class="edge"><title>Node17&#45;&gt;Node18</title>
<path fill="none" stroke="midnightblue" d="M1748.3,-50.9346C1760.46,-52.3962 1772.7,-53.8681 1784.37,-55.2702"/>
<polygon fill="midnightblue" stroke="midnightblue" points="1748.46,-47.4295 1738.12,-49.711 1747.63,-54.3795 1748.46,-47.4295"/>
</g>
<!-- Node19 -->
<g id="node19" class="node"><title>Node19</title>
<g id="a_node19"><a xlink:href="../../df/df0/classtests_1_1_view_controller_test.html#a785df2c49a72c183c22163ce927f5df1" target="_top" xlink:title="tests.ViewControllerTest.update\lActionsTest">
<polygon fill="white" stroke="black" points="1774.5,-0 1774.5,-30 1941.5,-30 1941.5,-0 1774.5,-0"/>
<text text-anchor="start" x="1782.5" y="-18" font-family="Helvetica,sans-Serif" font-size="10.00">tests.ViewControllerTest.update</text>
<text text-anchor="middle" x="1858" y="-7" font-family="Helvetica,sans-Serif" font-size="10.00">ActionsTest</text>
</a>
</g>
</g>
<!-- Node17&#45;&gt;Node19 -->
<g id="edge19" class="edge"><title>Node17&#45;&gt;Node19</title>
<path fill="none" stroke="midnightblue" d="M1748.31,-27.5416C1757.02,-26.5365 1765.77,-25.5264 1774.32,-24.5395"/>
<polygon fill="midnightblue" stroke="midnightblue" points="1747.65,-24.0941 1738.12,-28.7174 1748.45,-31.048 1747.65,-24.0941"/>
</g>
<!-- Node22&#45;&gt;Node9 -->
<g id="edge24" class="edge"><title>Node22&#45;&gt;Node9</title>
<path fill="none" stroke="midnightblue" d="M1123.99,-212.938C1011.75,-212.55 814.147,-214.945 646,-233 614.268,-236.407 578.836,-242.948 551.955,-248.484"/>
<polygon fill="midnightblue" stroke="midnightblue" points="1124.24,-216.439 1134.25,-212.982 1124.27,-209.439 1124.24,-216.439"/>
</g>
<!-- Node24 -->
<g id="node24" class="node"><title>Node24</title>
<g id="a_node24"><a xlink:href="../../db/d00/classgame_player_1_1_apply_state.html#aed42c1aba25264bc6880036f693a1c9e" target="_top" xlink:title="gamePlayer.ApplyState.on\lClick">
<polygon fill="white" stroke="black" points="1143.5,-248 1143.5,-278 1286.5,-278 1286.5,-248 1143.5,-248"/>
<text text-anchor="start" x="1151.5" y="-266" font-family="Helvetica,sans-Serif" font-size="10.00">gamePlayer.ApplyState.on</text>
<text text-anchor="middle" x="1215" y="-255" font-family="Helvetica,sans-Serif" font-size="10.00">Click</text>
</a>
</g>
</g>
<!-- Node23&#45;&gt;Node24 -->
<g id="edge26" class="edge"><title>Node23&#45;&gt;Node24</title>
<path fill="none" stroke="midnightblue" d="M1079.29,-261.212C1100.57,-261.494 1122.93,-261.791 1143.17,-262.06"/>
<polygon fill="midnightblue" stroke="midnightblue" points="1079.32,-257.712 1069.27,-261.079 1079.22,-264.711 1079.32,-257.712"/>
</g>
<!-- Node27 -->
<g id="node27" class="node"><title>Node27</title>
<g id="a_node27"><a xlink:href="../../db/d40/classfxml__main_1_1_authoring_controller.html#a2ec133c8edf0a7ab1e84f2e12455233d" target="_top" xlink:title="fxml_main.AuthoringController.save\lAsGame">
<polygon fill="white" stroke="black" points="893.5,-331 893.5,-361 1080.5,-361 1080.5,-331 893.5,-331"/>
<text text-anchor="start" x="901.5" y="-349" font-family="Helvetica,sans-Serif" font-size="10.00">fxml_main.AuthoringController.save</text>
<text text-anchor="middle" x="987" y="-338" font-family="Helvetica,sans-Serif" font-size="10.00">AsGame</text>
</a>
</g>
</g>
<!-- Node26&#45;&gt;Node27 -->
<g id="edge29" class="edge"><title>Node26&#45;&gt;Node27</title>
<path fill="none" stroke="midnightblue" d="M842.767,-346C859.375,-346 876.704,-346 893.338,-346"/>
<polygon fill="midnightblue" stroke="midnightblue" points="842.532,-342.5 832.532,-346 842.532,-349.5 842.532,-342.5"/>
</g>
<!-- Node28 -->
<g id="node28" class="node"><title>Node28</title>
<g id="a_node28"><a xlink:href="../../df/dd5/classgame_player_1_1_view_controller.html#a2bf1dce04187ad5eacb5359ef2b4eff8" target="_top" xlink:title="gamePlayer.ViewController.newGame">
<polygon fill="white" stroke="black" points="890,-386.5 890,-405.5 1084,-405.5 1084,-386.5 890,-386.5"/>
<text text-anchor="middle" x="987" y="-393.5" font-family="Helvetica,sans-Serif" font-size="10.00">gamePlayer.ViewController.newGame</text>
</a>
</g>
</g>
<!-- Node26&#45;&gt;Node28 -->
<g id="edge30" class="edge"><title>Node26&#45;&gt;Node28</title>
<path fill="none" stroke="midnightblue" d="M831.679,-363.166C868.288,-370.955 910.201,-379.873 941.1,-386.447"/>
<polygon fill="midnightblue" stroke="midnightblue" points="832.017,-359.659 821.508,-361.002 830.56,-366.506 832.017,-359.659"/>
</g>
<!-- Node28&#45;&gt;Node6 -->
<g id="edge31" class="edge"><title>Node28&#45;&gt;Node6</title>
<path fill="none" stroke="midnightblue" d="M1094.19,-405.868C1110.35,-407.368 1126.68,-408.887 1141.88,-410.299"/>
<polygon fill="midnightblue" stroke="midnightblue" points="1094.45,-402.377 1084.17,-404.936 1093.81,-409.347 1094.45,-402.377"/>
</g>
</g>
</svg>
        <g id="navigator" transform="translate(0 0)" fill="#404254">
                <rect fill="#f2f5e9" fill-opacity="0.5" stroke="#606060" stroke-width=".5" x="0" y="0" width="60" height="60"/>
                <use id="zoomplus" xlink:href="#zoomPlus" x="17" y="9" onmousedown="handleZoom(evt,'in')"/>
                <use id="zoomminus" xlink:href="#zoomMin" x="42" y="9" onmousedown="handleZoom(evt,'out')"/>
                <use id="reset" xlink:href="#resetDef" x="30" y="36" onmousedown="handleReset()"/>
                <g id="arrowUp" xlink:href="#dirArrow" transform="translate(30 24)" onmousedown="handlePan(0,-1)">
                  <use xlink:href="#rim" fill="#404040">
                        <set attributeName="fill" to="#808080" begin="arrowUp.mouseover" end="arrowUp.mouseout"/>
                  </use>
                  <path fill="none" stroke="white" stroke-width="1.5" d="M0,-3.0v7 M-2.5,-0.5L0,-3.0L2.5,-0.5"/>
                </g>
                <g id="arrowRight" xlink:href="#dirArrow" transform="rotate(90) translate(36 -43)" onmousedown="handlePan(1,0)">
                  <use xlink:href="#rim" fill="#404040">
                        <set attributeName="fill" to="#808080" begin="arrowRight.mouseover" end="arrowRight.mouseout"/>
                  </use>
                  <path fill="none" stroke="white" stroke-width="1.5" d="M0,-3.0v7 M-2.5,-0.5L0,-3.0L2.5,-0.5"/>
                </g>
                <g id="arrowDown" xlink:href="#dirArrow" transform="rotate(180) translate(-30 -48)" onmousedown="handlePan(0,1)">
                  <use xlink:href="#rim" fill="#404040">
                        <set attributeName="fill" to="#808080" begin="arrowDown.mouseover" end="arrowDown.mouseout"/>
                  </use>
                  <path fill="none" stroke="white" stroke-width="1.5" d="M0,-3.0v7 M-2.5,-0.5L0,-3.0L2.5,-0.5"/>
                </g>
                <g id="arrowLeft" xlink:href="#dirArrow" transform="rotate(270) translate(-36 17)" onmousedown="handlePan(-1,0)">
                  <use xlink:href="#rim" fill="#404040">
                        <set attributeName="fill" to="#808080" begin="arrowLeft.mouseover" end="arrowLeft.mouseout"/>
                  </use>
                  <path fill="none" stroke="white" stroke-width="1.5" d="M0,-3.0v7 M-2.5,-0.5L0,-3.0L2.5,-0.5"/>
                </g>
        </g>
        <svg viewBox="0 0 15 15" width="100%" height="30px" preserveAspectRatio="xMaxYMin meet">
         <g id="arrow_out" transform="scale(0.3 0.3)">
          <a xlink:href="classgame_player_1_1_audio_aa1396fe6ab1f026334433de9a24905ef_icgraph_org.svg" target="_base">
           <rect id="button" ry="5" rx="5" y="6" x="6" height="38" width="38"
                fill="#f2f5e9" fill-opacity="0.5" stroke="#606060" stroke-width="1.0"/>
           <path id="arrow"
             d="M 11.500037,31.436501 C 11.940474,20.09759 22.043105,11.32322 32.158766,21.979434 L 37.068811,17.246167 C 37.068811,17.246167 37.088388,32 37.088388,32 L 22.160133,31.978069 C 22.160133,31.978069 26.997745,27.140456 26.997745,27.140456 C 18.528582,18.264221 13.291696,25.230495 11.500037,31.436501 z"
             style="fill:#404040;"/>
          </a>
         </g>
        </svg>
</svg>
