<?xml version="1.0" encoding="UTF-8" standalone="no"?>
<!DOCTYPE svg PUBLIC "-//W3C//DTD SVG 1.1//EN"
 "http://www.w3.org/Graphics/SVG/1.1/DTD/svg11.dtd">
<!-- Generated by graphviz version 2.36.0 (20140111.2315)
 -->
<!-- Title: gamePlayer.Audio.playBackground Pages: 1 -->
<svg width="584pt" height="87pt"
 viewBox="0.00 0.00 584.00 87.00" xmlns="http://www.w3.org/2000/svg" xmlns:xlink="http://www.w3.org/1999/xlink">
<g id="graph0" class="graph" transform="scale(1 1) rotate(0) translate(4 83)">
<title>gamePlayer.Audio.playBackground</title>
<polygon fill="white" stroke="none" points="-4,4 -4,-83 580,-83 580,4 -4,4"/>
<!-- Node1 -->
<g id="node1" class="node"><title>Node1</title>
<polygon fill="#bfbfbf" stroke="black" points="0,-29.5 0,-48.5 182,-48.5 182,-29.5 0,-29.5"/>
<text text-anchor="middle" x="91" y="-36.5" font-family="Helvetica,sans-Serif" font-size="10.00">gamePlayer.Audio.playBackground</text>
</g>
<!-- Node2 -->
<g id="node2" class="node"><title>Node2</title>
<g id="a_node2"><a xlink:href="../../df/dd5/classgame_player_1_1_view_controller.html#ab9fcbe9d6b0247153208179f926b8d94" target="_top" xlink:title="gamePlayer.ViewController.open\lInitialMenu">
<polygon fill="white" stroke="black" points="221,-49 221,-79 391,-79 391,-49 221,-49"/>
<text text-anchor="start" x="229" y="-67" font-family="Helvetica,sans-Serif" font-size="10.00">gamePlayer.ViewController.open</text>
<text text-anchor="middle" x="306" y="-56" font-family="Helvetica,sans-Serif" font-size="10.00">InitialMenu</text>
</a>
</g>
</g>
<!-- Node1&#45;&gt;Node2 -->
<g id="edge1" class="edge"><title>Node1&#45;&gt;Node2</title>
<path fill="none" stroke="midnightblue" d="M183.118,-49.6946C195.663,-51.167 208.498,-52.6735 220.909,-54.1301"/>
<polygon fill="midnightblue" stroke="midnightblue" points="183.474,-46.2124 173.134,-48.5227 182.658,-53.1647 183.474,-46.2124"/>
</g>
<!-- Node4 -->
<g id="node4" class="node"><title>Node4</title>
<g id="a_node4"><a xlink:href="../../df/dd5/classgame_player_1_1_view_controller.html#a8dfc8297ce3ba7427105ba25bda56e9a" target="_top" xlink:title="gamePlayer.ViewController.toggle\lBackgroundMusic">
<polygon fill="white" stroke="black" points="218,-0 218,-30 394,-30 394,-0 218,-0"/>
<text text-anchor="start" x="226" y="-18" font-family="Helvetica,sans-Serif" font-size="10.00">gamePlayer.ViewController.toggle</text>
<text text-anchor="middle" x="306" y="-7" font-family="Helvetica,sans-Serif" font-size="10.00">BackgroundMusic</text>
</a>
</g>
</g>
<!-- Node1&#45;&gt;Node4 -->
<g id="edge3" class="edge"><title>Node1&#45;&gt;Node4</title>
<path fill="none" stroke="midnightblue" d="M186.437,-28.3592C196.877,-27.1828 207.474,-25.9888 217.819,-24.8232"/>
<polygon fill="midnightblue" stroke="midnightblue" points="186.034,-24.8823 176.489,-29.4801 186.818,-31.8383 186.034,-24.8823"/>
</g>
<!-- Node3 -->
<g id="node3" class="node"><title>Node3</title>
<g id="a_node3"><a xlink:href="../../df/dd5/classgame_player_1_1_view_controller.html#aa97229685b0156b5a6958c6b79dcdff8" target="_top" xlink:title="gamePlayer.ViewController.\lViewController">
<polygon fill="white" stroke="black" points="430,-49 430,-79 576,-79 576,-49 430,-49"/>
<text text-anchor="start" x="438" y="-67" font-family="Helvetica,sans-Serif" font-size="10.00">gamePlayer.ViewController.</text>
<text text-anchor="middle" x="503" y="-56" font-family="Helvetica,sans-Serif" font-size="10.00">ViewController</text>
</a>
</g>
</g>
<!-- Node2&#45;&gt;Node3 -->
<g id="edge2" class="edge"><title>Node2&#45;&gt;Node3</title>
<path fill="none" stroke="midnightblue" d="M401.126,-64C410.765,-64 420.448,-64 429.798,-64"/>
<polygon fill="midnightblue" stroke="midnightblue" points="401.112,-60.5001 391.112,-64 401.112,-67.5001 401.112,-60.5001"/>
</g>
</g>
</svg>
