<?xml version="1.0" encoding="UTF-8" standalone="no"?>
<!DOCTYPE svg PUBLIC "-//W3C//DTD SVG 1.1//EN"
 "http://www.w3.org/Graphics/SVG/1.1/DTD/svg11.dtd">
<!-- Generated by graphviz version 2.36.0 (20140111.2315)
 -->
<!-- Title: gamePlayer.Audio.playBackground Pages: 1 -->
<svg width="584pt" height="136pt"
 viewBox="0.00 0.00 584.00 136.00" xmlns="http://www.w3.org/2000/svg" xmlns:xlink="http://www.w3.org/1999/xlink">
<g id="graph0" class="graph" transform="scale(1 1) rotate(0) translate(4 132)">
<title>gamePlayer.Audio.playBackground</title>
<polygon fill="white" stroke="none" points="-4,4 -4,-132 580,-132 580,4 -4,4"/>
<!-- Node1 -->
<g id="node1" class="node"><title>Node1</title>
<polygon fill="#bfbfbf" stroke="black" points="0,-54.5 0,-73.5 182,-73.5 182,-54.5 0,-54.5"/>
<text text-anchor="middle" x="91" y="-61.5" font-family="Helvetica,sans-Serif" font-size="10.00">gamePlayer.Audio.playBackground</text>
</g>
<!-- Node2 -->
<g id="node2" class="node"><title>Node2</title>
<g id="a_node2"><a xlink:href="../../df/dd5/classgame_player_1_1_view_controller.html#afcc191634cdb14304828148befdcd228" target="_top" xlink:title="gamePlayer.ViewController.open\lInitialGUIMenu">
<polygon fill="white" stroke="black" points="221,-98 221,-128 391,-128 391,-98 221,-98"/>
<text text-anchor="start" x="229" y="-116" font-family="Helvetica,sans-Serif" font-size="10.00">gamePlayer.ViewController.open</text>
<text text-anchor="middle" x="306" y="-105" font-family="Helvetica,sans-Serif" font-size="10.00">InitialGUIMenu</text>
</a>
</g>
</g>
<!-- Node1&#45;&gt;Node2 -->
<g id="edge1" class="edge"><title>Node1&#45;&gt;Node2</title>
<path fill="none" stroke="midnightblue" d="M143.208,-75.7804C172.108,-82.4286 208.524,-90.806 239.486,-97.9287"/>
<polygon fill="midnightblue" stroke="midnightblue" points="143.851,-72.3369 133.321,-73.5058 142.282,-79.1587 143.851,-72.3369"/>
</g>
<!-- Node4 -->
<g id="node4" class="node"><title>Node4</title>
<g id="a_node4"><a xlink:href="../../df/dd5/classgame_player_1_1_view_controller.html#ab9fcbe9d6b0247153208179f926b8d94" target="_top" xlink:title="gamePlayer.ViewController.open\lInitialMenu">
<polygon fill="white" stroke="black" points="221,-49 221,-79 391,-79 391,-49 221,-49"/>
<text text-anchor="start" x="229" y="-67" font-family="Helvetica,sans-Serif" font-size="10.00">gamePlayer.ViewController.open</text>
<text text-anchor="middle" x="306" y="-56" font-family="Helvetica,sans-Serif" font-size="10.00">InitialMenu</text>
</a>
</g>
</g>
<!-- Node1&#45;&gt;Node4 -->
<g id="edge3" class="edge"><title>Node1&#45;&gt;Node4</title>
<path fill="none" stroke="midnightblue" d="M192.301,-64C201.811,-64 211.387,-64 220.724,-64"/>
<polygon fill="midnightblue" stroke="midnightblue" points="192.022,-60.5001 182.022,-64 192.022,-67.5001 192.022,-60.5001"/>
</g>
<!-- Node6 -->
<g id="node6" class="node"><title>Node6</title>
<g id="a_node6"><a xlink:href="../../df/dd5/classgame_player_1_1_view_controller.html#a8dfc8297ce3ba7427105ba25bda56e9a" target="_top" xlink:title="gamePlayer.ViewController.toggle\lBackgroundMusic">
<polygon fill="white" stroke="black" points="218,-0 218,-30 394,-30 394,-0 218,-0"/>
<text text-anchor="start" x="226" y="-18" font-family="Helvetica,sans-Serif" font-size="10.00">gamePlayer.ViewController.toggle</text>
<text text-anchor="middle" x="306" y="-7" font-family="Helvetica,sans-Serif" font-size="10.00">BackgroundMusic</text>
</a>
</g>
</g>
<!-- Node1&#45;&gt;Node6 -->
<g id="edge5" class="edge"><title>Node1&#45;&gt;Node6</title>
<path fill="none" stroke="midnightblue" d="M143.208,-52.2196C172.108,-45.5714 208.524,-37.194 239.486,-30.0713"/>
<polygon fill="midnightblue" stroke="midnightblue" points="142.282,-48.8413 133.321,-54.4942 143.851,-55.6631 142.282,-48.8413"/>
</g>
<!-- Node3 -->
<g id="node3" class="node"><title>Node3</title>
<g id="a_node3"><a xlink:href="../../df/dd5/classgame_player_1_1_view_controller.html#a18533d310033908b1101797368828a26" target="_top" xlink:title="gamePlayer.ViewController.\lViewController">
<polygon fill="white" stroke="black" points="430,-98 430,-128 576,-128 576,-98 430,-98"/>
<text text-anchor="start" x="438" y="-116" font-family="Helvetica,sans-Serif" font-size="10.00">gamePlayer.ViewController.</text>
<text text-anchor="middle" x="503" y="-105" font-family="Helvetica,sans-Serif" font-size="10.00">ViewController</text>
</a>
</g>
</g>
<!-- Node2&#45;&gt;Node3 -->
<g id="edge2" class="edge"><title>Node2&#45;&gt;Node3</title>
<path fill="none" stroke="midnightblue" d="M401.126,-113C410.765,-113 420.448,-113 429.798,-113"/>
<polygon fill="midnightblue" stroke="midnightblue" points="401.112,-109.5 391.112,-113 401.112,-116.5 401.112,-109.5"/>
</g>
<!-- Node5 -->
<g id="node5" class="node"><title>Node5</title>
<g id="a_node5"><a xlink:href="../../df/dd5/classgame_player_1_1_view_controller.html#a2acd822c93c35674b6978a97b4ce6e3f" target="_top" xlink:title="gamePlayer.ViewController.\lViewController">
<polygon fill="white" stroke="black" points="430,-49 430,-79 576,-79 576,-49 430,-49"/>
<text text-anchor="start" x="438" y="-67" font-family="Helvetica,sans-Serif" font-size="10.00">gamePlayer.ViewController.</text>
<text text-anchor="middle" x="503" y="-56" font-family="Helvetica,sans-Serif" font-size="10.00">ViewController</text>
</a>
</g>
</g>
<!-- Node4&#45;&gt;Node5 -->
<g id="edge4" class="edge"><title>Node4&#45;&gt;Node5</title>
<path fill="none" stroke="midnightblue" d="M401.126,-64C410.765,-64 420.448,-64 429.798,-64"/>
<polygon fill="midnightblue" stroke="midnightblue" points="401.112,-60.5001 391.112,-64 401.112,-67.5001 401.112,-60.5001"/>
</g>
</g>
</svg>
