<?xml version="1.0" encoding="UTF-8" standalone="no"?>
<!DOCTYPE svg PUBLIC "-//W3C//DTD SVG 1.1//EN"
 "http://www.w3.org/Graphics/SVG/1.1/DTD/svg11.dtd">
<!-- Generated by graphviz version 2.36.0 (20140111.2315)
 -->
<!-- Title: gamePlayer.Audio.playAudio Pages: 1 -->
<!--zoomable 437 -->
<svg id="main" version="1.1" xmlns="http://www.w3.org/2000/svg" xmlns:xlink="http://www.w3.org/1999/xlink" xml:space="preserve" onload="init(evt)">
<style type="text/css"><![CDATA[
.edge:hover path { stroke: red; }
.edge:hover polygon { stroke: red; fill: red; }
]]></style>
<script type="text/javascript"><![CDATA[
var edges = document.getElementsByTagName('g');
if (edges && edges.length) {
  for (var i=0;i<edges.length;i++) {
    if (edges[i].id.substr(0,4)=='edge') {
      edges[i].setAttribute('class','edge');
    }
  }
}
]]></script>
        <defs>
                <circle id="rim" cx="0" cy="0" r="7"/>
                <circle id="rim2" cx="0" cy="0" r="3.5"/>
                <g id="zoomPlus">
                        <use xlink:href="#rim" fill="#404040">
                                <set attributeName="fill" to="#808080" begin="zoomplus.mouseover" end="zoomplus.mouseout"/>
                        </use>
                        <path d="M-4,0h8M0,-4v8" fill="none" stroke="white" stroke-width="1.5" pointer-events="none"/>
                </g>
                <g id="zoomMin">
                        <use xlink:href="#rim" fill="#404040">
                                <set attributeName="fill" to="#808080" begin="zoomminus.mouseover" end="zoomminus.mouseout"/>
                        </use>
                        <path d="M-4,0h8" fill="none" stroke="white" stroke-width="1.5" pointer-events="none"/>
                </g>
                <g id="dirArrow">
                        <path fill="none" stroke="white" stroke-width="1.5" d="M0,-3.0v7 M-2.5,-0.5L0,-3.0L2.5,-0.5"/>
                </g>
               <g id="resetDef">
                       <use xlink:href="#rim2" fill="#404040">
                               <set attributeName="fill" to="#808080" begin="reset.mouseover" end="reset.mouseout"/>
                       </use>
               </g>
        </defs>

<script type="text/javascript">
var viewWidth = 1944;
var viewHeight = 437;
var sectionId = 'dynsection-2';
</script>
<script xlink:href="../../svgpan.js"/>
<svg id="graph" class="graph">
<g id="viewport">
<title>gamePlayer.Audio.playAudio</title>
<polygon fill="white" stroke="none" points="-4,4 -4,-433.033 1940,-433.033 1940,4 -4,4"/>
<!-- Node1 -->
<g id="node1" class="node"><title>Node1</title>
<polygon fill="#bfbfbf" stroke="black" points="0,-305.533 0,-324.533 152,-324.533 152,-305.533 0,-305.533"/>
<text text-anchor="middle" x="76" y="-312.533" font-family="Helvetica,sans-Serif" font-size="10.00">gamePlayer.Audio.playAudio</text>
</g>
<!-- Node2 -->
<g id="node2" class="node"><title>Node2</title>
<g id="a_node2"><a xlink:href="../../da/de7/classgame_player_1_1_audio.html#a7de4eaaf232a7e233eb5ee963f1c6108" target="_top" xlink:title="gamePlayer.Audio.playBackground">
<polygon fill="white" stroke="black" points="188,-355.533 188,-374.533 370,-374.533 370,-355.533 188,-355.533"/>
<text text-anchor="middle" x="279" y="-362.533" font-family="Helvetica,sans-Serif" font-size="10.00">gamePlayer.Audio.playBackground</text>
</a>
</g>
</g>
<!-- Node1&#45;&gt;Node2 -->
<g id="edge1" class="edge"><title>Node1&#45;&gt;Node2</title>
<path fill="none" stroke="midnightblue" d="M125.281,-327.043C160.294,-335.752 207.014,-347.374 239.521,-355.461"/>
<polygon fill="midnightblue" stroke="midnightblue" points="125.829,-323.573 115.28,-324.555 124.139,-330.366 125.829,-323.573"/>
</g>
<!-- Node6 -->
<g id="node6" class="node"><title>Node6</title>
<g id="a_node6"><a xlink:href="../../da/de7/classgame_player_1_1_audio.html#a6809512c55dc1876a9e590531f2057c5" target="_top" xlink:title="gamePlayer.Audio.playSelection">
<polygon fill="white" stroke="black" points="194,-205.533 194,-224.533 364,-224.533 364,-205.533 194,-205.533"/>
<text text-anchor="middle" x="279" y="-212.533" font-family="Helvetica,sans-Serif" font-size="10.00">gamePlayer.Audio.playSelection</text>
</a>
</g>
</g>
<!-- Node1&#45;&gt;Node6 -->
<g id="edge5" class="edge"><title>Node1&#45;&gt;Node6</title>
<path fill="none" stroke="midnightblue" d="M105.307,-300.949C146.834,-280.289 223.187,-242.303 258.786,-224.592"/>
<polygon fill="midnightblue" stroke="midnightblue" points="103.667,-297.856 96.2727,-305.444 106.785,-304.123 103.667,-297.856"/>
</g>
<!-- Node3 -->
<g id="node3" class="node"><title>Node3</title>
<g id="a_node3"><a xlink:href="../../df/dd5/classgame_player_1_1_view_controller.html#ab9fcbe9d6b0247153208179f926b8d94" target="_top" xlink:title="gamePlayer.ViewController.open\lInitialMenu">
<polygon fill="white" stroke="black" points="423,-350.033 423,-380.033 593,-380.033 593,-350.033 423,-350.033"/>
<text text-anchor="start" x="431" y="-368.033" font-family="Helvetica,sans-Serif" font-size="10.00">gamePlayer.ViewController.open</text>
<text text-anchor="middle" x="508" y="-357.033" font-family="Helvetica,sans-Serif" font-size="10.00">InitialMenu</text>
</a>
</g>
</g>
<!-- Node2&#45;&gt;Node3 -->
<g id="edge2" class="edge"><title>Node2&#45;&gt;Node3</title>
<path fill="none" stroke="midnightblue" d="M380.345,-365.033C394.579,-365.033 409.093,-365.033 422.974,-365.033"/>
<polygon fill="midnightblue" stroke="midnightblue" points="380.042,-361.533 370.042,-365.033 380.042,-368.533 380.042,-361.533"/>
</g>
<!-- Node5 -->
<g id="node5" class="node"><title>Node5</title>
<g id="a_node5"><a xlink:href="../../df/dd5/classgame_player_1_1_view_controller.html#a8dfc8297ce3ba7427105ba25bda56e9a" target="_top" xlink:title="gamePlayer.ViewController.toggle\lBackgroundMusic">
<polygon fill="white" stroke="black" points="420,-399.033 420,-429.033 596,-429.033 596,-399.033 420,-399.033"/>
<text text-anchor="start" x="428" y="-417.033" font-family="Helvetica,sans-Serif" font-size="10.00">gamePlayer.ViewController.toggle</text>
<text text-anchor="middle" x="508" y="-406.033" font-family="Helvetica,sans-Serif" font-size="10.00">BackgroundMusic</text>
</a>
</g>
</g>
<!-- Node2&#45;&gt;Node5 -->
<g id="edge4" class="edge"><title>Node2&#45;&gt;Node5</title>
<path fill="none" stroke="midnightblue" d="M334.171,-376.726C365.034,-383.388 404.039,-391.808 437.18,-398.961"/>
<polygon fill="midnightblue" stroke="midnightblue" points="334.55,-373.227 324.037,-374.538 333.073,-380.07 334.55,-373.227"/>
</g>
<!-- Node4 -->
<g id="node4" class="node"><title>Node4</title>
<g id="a_node4"><a xlink:href="../../df/dd5/classgame_player_1_1_view_controller.html#aa97229685b0156b5a6958c6b79dcdff8" target="_top" xlink:title="gamePlayer.ViewController.\lViewController">
<polygon fill="white" stroke="black" points="677,-350.033 677,-380.033 823,-380.033 823,-350.033 677,-350.033"/>
<text text-anchor="start" x="685" y="-368.033" font-family="Helvetica,sans-Serif" font-size="10.00">gamePlayer.ViewController.</text>
<text text-anchor="middle" x="750" y="-357.033" font-family="Helvetica,sans-Serif" font-size="10.00">ViewController</text>
</a>
</g>
</g>
<!-- Node3&#45;&gt;Node4 -->
<g id="edge3" class="edge"><title>Node3&#45;&gt;Node4</title>
<path fill="none" stroke="midnightblue" d="M603.297,-365.033C627.771,-365.033 653.742,-365.033 676.874,-365.033"/>
<polygon fill="midnightblue" stroke="midnightblue" points="603.278,-361.533 593.278,-365.033 603.278,-368.533 603.278,-361.533"/>
</g>
<!-- Node7 -->
<g id="node7" class="node"><title>Node7</title>
<g id="a_node7"><a xlink:href="../../df/dd5/classgame_player_1_1_view_controller.html#a10a40967a873f067cf91b024ff85b38e" target="_top" xlink:title="gamePlayer.ViewController.initializeGrid">
<polygon fill="white" stroke="black" points="406,-155.533 406,-174.533 610,-174.533 610,-155.533 406,-155.533"/>
<text text-anchor="middle" x="508" y="-162.533" font-family="Helvetica,sans-Serif" font-size="10.00">gamePlayer.ViewController.initializeGrid</text>
</a>
</g>
</g>
<!-- Node6&#45;&gt;Node7 -->
<g id="edge6" class="edge"><title>Node6&#45;&gt;Node7</title>
<path fill="none" stroke="midnightblue" d="M333.006,-203.357C372.707,-194.613 426.359,-182.795 463.544,-174.605"/>
<polygon fill="midnightblue" stroke="midnightblue" points="332.244,-199.941 323.231,-205.51 333.75,-206.777 332.244,-199.941"/>
</g>
<!-- Node15 -->
<g id="node15" class="node"><title>Node15</title>
<g id="a_node15"><a xlink:href="../../df/dd5/classgame_player_1_1_view_controller.html#a7eb038fd9f20604ade0406f27ef76657" target="_top" xlink:title="gamePlayer.ViewController.bind\lAction">
<polygon fill="white" stroke="black" points="1344.5,-262.033 1344.5,-292.033 1511.5,-292.033 1511.5,-262.033 1344.5,-262.033"/>
<text text-anchor="start" x="1352.5" y="-280.033" font-family="Helvetica,sans-Serif" font-size="10.00">gamePlayer.ViewController.bind</text>
<text text-anchor="middle" x="1428" y="-269.033" font-family="Helvetica,sans-Serif" font-size="10.00">Action</text>
</a>
</g>
</g>
<!-- Node6&#45;&gt;Node15 -->
<g id="edge27" class="edge"><title>Node6&#45;&gt;Node15</title>
<path fill="none" stroke="midnightblue" d="M314.068,-228.226C390.585,-256.632 582.428,-321.033 749,-321.033 749,-321.033 749,-321.033 985,-321.033 1127.06,-321.033 1163.1,-319.118 1304,-301.033 1321.7,-298.761 1340.67,-295.483 1358.3,-292.075"/>
<polygon fill="midnightblue" stroke="midnightblue" points="315.064,-224.861 304.471,-224.626 312.605,-231.415 315.064,-224.861"/>
</g>
<!-- Node22 -->
<g id="node22" class="node"><title>Node22</title>
<g id="a_node22"><a xlink:href="../../df/dd5/classgame_player_1_1_view_controller.html#a22ee80193bbac79a935ee961a183bfcd" target="_top" xlink:title="gamePlayer.ViewController.set\lOnClick">
<polygon fill="white" stroke="black" points="1128.5,-125.033 1128.5,-155.033 1289.5,-155.033 1289.5,-125.033 1128.5,-125.033"/>
<text text-anchor="start" x="1136.5" y="-143.033" font-family="Helvetica,sans-Serif" font-size="10.00">gamePlayer.ViewController.set</text>
<text text-anchor="middle" x="1209" y="-132.033" font-family="Helvetica,sans-Serif" font-size="10.00">OnClick</text>
</a>
</g>
</g>
<!-- Node6&#45;&gt;Node22 -->
<g id="edge28" class="edge"><title>Node6&#45;&gt;Node22</title>
<path fill="none" stroke="midnightblue" d="M302.027,-199.719C356.927,-162.646 505.55,-68.9232 646,-39.0326 833.794,0.933774 896.376,23.23 1078,-39.0326 1128.02,-56.1788 1173.63,-101.289 1195.09,-124.992"/>
<polygon fill="midnightblue" stroke="midnightblue" points="300.039,-196.839 293.747,-205.364 303.982,-202.623 300.039,-196.839"/>
</g>
<!-- Node8 -->
<g id="node8" class="node"><title>Node8</title>
<g id="a_node8"><a xlink:href="../../df/dd5/classgame_player_1_1_view_controller.html#a0d1a3d443966f151b070dc751d2faf9a" target="_top" xlink:title="gamePlayer.ViewController.restartGame">
<polygon fill="white" stroke="black" points="646,-136.533 646,-155.533 854,-155.533 854,-136.533 646,-136.533"/>
<text text-anchor="middle" x="750" y="-143.533" font-family="Helvetica,sans-Serif" font-size="10.00">gamePlayer.ViewController.restartGame</text>
</a>
</g>
</g>
<!-- Node7&#45;&gt;Node8 -->
<g id="edge7" class="edge"><title>Node7&#45;&gt;Node8</title>
<path fill="none" stroke="midnightblue" d="M620.079,-156.239C628.624,-155.562 637.23,-154.881 645.722,-154.209"/>
<polygon fill="midnightblue" stroke="midnightblue" points="619.779,-152.752 610.086,-157.03 620.331,-159.73 619.779,-152.752"/>
</g>
<!-- Node9 -->
<g id="node9" class="node"><title>Node9</title>
<g id="a_node9"><a xlink:href="../../df/dd5/classgame_player_1_1_view_controller.html#af1870a0b6786d96d118021fc62b6475d" target="_top" xlink:title="gamePlayer.ViewController.beginGame">
<polygon fill="white" stroke="black" points="649,-98.5326 649,-117.533 851,-117.533 851,-98.5326 649,-98.5326"/>
<text text-anchor="middle" x="750" y="-105.533" font-family="Helvetica,sans-Serif" font-size="10.00">gamePlayer.ViewController.beginGame</text>
</a>
</g>
</g>
<!-- Node7&#45;&gt;Node9 -->
<g id="edge8" class="edge"><title>Node7&#45;&gt;Node9</title>
<path fill="none" stroke="midnightblue" d="M550.256,-152.566C577.324,-144.641 613.582,-134.503 646,-127.033 660.973,-123.582 677.283,-120.34 692.417,-117.543"/>
<polygon fill="midnightblue" stroke="midnightblue" points="548.96,-149.299 540.359,-155.485 550.941,-156.013 548.96,-149.299"/>
</g>
<!-- Node10 -->
<g id="node10" class="node"><title>Node10</title>
<g id="a_node10"><a xlink:href="../../df/dd5/classgame_player_1_1_view_controller.html#a4c1754d129a4eac955390b428eaa448a" target="_top" xlink:title="gamePlayer.ViewController.test\lPlayGame">
<polygon fill="white" stroke="black" points="667.5,-49.0326 667.5,-79.0326 832.5,-79.0326 832.5,-49.0326 667.5,-49.0326"/>
<text text-anchor="start" x="675.5" y="-67.0326" font-family="Helvetica,sans-Serif" font-size="10.00">gamePlayer.ViewController.test</text>
<text text-anchor="middle" x="750" y="-56.0326" font-family="Helvetica,sans-Serif" font-size="10.00">PlayGame</text>
</a>
</g>
</g>
<!-- Node7&#45;&gt;Node10 -->
<g id="edge9" class="edge"><title>Node7&#45;&gt;Node10</title>
<path fill="none" stroke="midnightblue" d="M531.689,-149.938C558.129,-132.954 603.618,-105.583 646,-89.0326 655.599,-85.2843 665.927,-81.9795 676.206,-79.1037"/>
<polygon fill="midnightblue" stroke="midnightblue" points="529.644,-147.093 523.167,-155.478 533.459,-152.962 529.644,-147.093"/>
</g>
<!-- Node12 -->
<g id="node12" class="node"><title>Node12</title>
<g id="a_node12"><a xlink:href="../../df/dd5/classgame_player_1_1_view_controller.html#a620f8a02d3ac7677cd179fcd812aca55" target="_top" xlink:title="gamePlayer.ViewController.check\lEndActions">
<polygon fill="white" stroke="black" points="663,-213.033 663,-243.033 837,-243.033 837,-213.033 663,-213.033"/>
<text text-anchor="start" x="671" y="-231.033" font-family="Helvetica,sans-Serif" font-size="10.00">gamePlayer.ViewController.check</text>
<text text-anchor="middle" x="750" y="-220.033" font-family="Helvetica,sans-Serif" font-size="10.00">EndActions</text>
</a>
</g>
</g>
<!-- Node7&#45;&gt;Node12 -->
<g id="edge11" class="edge"><title>Node7&#45;&gt;Node12</title>
<path fill="none" stroke="midnightblue" d="M555.448,-177.225C594.321,-187.429 649.955,-202.033 691.609,-212.968"/>
<polygon fill="midnightblue" stroke="midnightblue" points="556.012,-173.755 545.451,-174.601 554.234,-180.525 556.012,-173.755"/>
</g>
<!-- Node11 -->
<g id="node11" class="node"><title>Node11</title>
<g id="a_node11"><a xlink:href="../../db/d40/classfxml__main_1_1_authoring_controller.html#a2ec133c8edf0a7ab1e84f2e12455233d" target="_top" xlink:title="fxml_main.AuthoringController.save\lAsGame">
<polygon fill="white" stroke="black" points="890.5,-49.0326 890.5,-79.0326 1077.5,-79.0326 1077.5,-49.0326 890.5,-49.0326"/>
<text text-anchor="start" x="898.5" y="-67.0326" font-family="Helvetica,sans-Serif" font-size="10.00">fxml_main.AuthoringController.save</text>
<text text-anchor="middle" x="984" y="-56.0326" font-family="Helvetica,sans-Serif" font-size="10.00">AsGame</text>
</a>
</g>
</g>
<!-- Node10&#45;&gt;Node11 -->
<g id="edge10" class="edge"><title>Node10&#45;&gt;Node11</title>
<path fill="none" stroke="midnightblue" d="M842.964,-64.0326C858.592,-64.0326 874.828,-64.0326 890.47,-64.0326"/>
<polygon fill="midnightblue" stroke="midnightblue" points="842.795,-60.5327 832.795,-64.0326 842.794,-67.5327 842.795,-60.5327"/>
</g>
<!-- Node13 -->
<g id="node13" class="node"><title>Node13</title>
<g id="a_node13"><a xlink:href="../../df/dd5/classgame_player_1_1_view_controller.html#a95c2acd43bb39b8606c69971c1cd30f5" target="_top" xlink:title="gamePlayer.ViewController.perform\lAction">
<polygon fill="white" stroke="black" points="891.5,-213.033 891.5,-243.033 1076.5,-243.033 1076.5,-213.033 891.5,-213.033"/>
<text text-anchor="start" x="899.5" y="-231.033" font-family="Helvetica,sans-Serif" font-size="10.00">gamePlayer.ViewController.perform</text>
<text text-anchor="middle" x="984" y="-220.033" font-family="Helvetica,sans-Serif" font-size="10.00">Action</text>
</a>
</g>
</g>
<!-- Node12&#45;&gt;Node13 -->
<g id="edge12" class="edge"><title>Node12&#45;&gt;Node13</title>
<path fill="none" stroke="midnightblue" d="M847.089,-228.033C861.695,-228.033 876.735,-228.033 891.246,-228.033"/>
<polygon fill="midnightblue" stroke="midnightblue" points="847.059,-224.533 837.059,-228.033 847.059,-231.533 847.059,-224.533"/>
</g>
<!-- Node23 -->
<g id="node23" class="node"><title>Node23</title>
<g id="a_node23"><a xlink:href="../../df/dd5/classgame_player_1_1_view_controller.html#a13ea7814bde61a8042c5b1a23af41416" target="_top" xlink:title="gamePlayer.ViewController.end\lAction">
<polygon fill="white" stroke="black" points="902,-262.033 902,-292.033 1066,-292.033 1066,-262.033 902,-262.033"/>
<text text-anchor="start" x="910" y="-280.033" font-family="Helvetica,sans-Serif" font-size="10.00">gamePlayer.ViewController.end</text>
<text text-anchor="middle" x="984" y="-269.033" font-family="Helvetica,sans-Serif" font-size="10.00">Action</text>
</a>
</g>
</g>
<!-- Node12&#45;&gt;Node23 -->
<g id="edge25" class="edge"><title>Node12&#45;&gt;Node23</title>
<path fill="none" stroke="midnightblue" d="M832.023,-245.145C858.058,-250.644 886.687,-256.691 911.95,-262.026"/>
<polygon fill="midnightblue" stroke="midnightblue" points="832.692,-241.709 822.184,-243.067 831.245,-248.558 832.692,-241.709"/>
</g>
<!-- Node14 -->
<g id="node14" class="node"><title>Node14</title>
<g id="a_node14"><a xlink:href="../../da/d55/classgame_player_1_1_keyboard_movement.html#af45fd8d279b1ee2d6be5466d425485ab" target="_top" xlink:title="gamePlayer.KeyboardMovement.set\lMovementKeyControl">
<polygon fill="white" stroke="black" points="1114.5,-213.033 1114.5,-243.033 1303.5,-243.033 1303.5,-213.033 1114.5,-213.033"/>
<text text-anchor="start" x="1122.5" y="-231.033" font-family="Helvetica,sans-Serif" font-size="10.00">gamePlayer.KeyboardMovement.set</text>
<text text-anchor="middle" x="1209" y="-220.033" font-family="Helvetica,sans-Serif" font-size="10.00">MovementKeyControl</text>
</a>
</g>
</g>
<!-- Node13&#45;&gt;Node14 -->
<g id="edge13" class="edge"><title>Node13&#45;&gt;Node14</title>
<path fill="none" stroke="midnightblue" d="M1086.88,-221.305C1095.97,-221.263 1105.14,-221.28 1114.16,-221.358"/>
<polygon fill="midnightblue" stroke="midnightblue" points="1086.64,-217.807 1076.67,-221.378 1086.69,-224.806 1086.64,-217.807"/>
</g>
<!-- Node13&#45;&gt;Node22 -->
<g id="edge23" class="edge"><title>Node13&#45;&gt;Node22</title>
<path fill="none" stroke="midnightblue" d="M1052.04,-209.539C1060.97,-206.176 1069.85,-202.343 1078,-198.033 1095.92,-188.555 1096.07,-179.482 1114,-170.033 1125.06,-164.203 1137.46,-159.258 1149.53,-155.168"/>
<polygon fill="midnightblue" stroke="midnightblue" points="1050.59,-206.339 1042.35,-213.004 1052.95,-212.93 1050.59,-206.339"/>
</g>
<!-- Node14&#45;&gt;Node13 -->
<g id="edge21" class="edge"><title>Node14&#45;&gt;Node13</title>
<path fill="none" stroke="midnightblue" d="M1103.93,-234.769C1094.83,-234.802 1085.66,-234.775 1076.67,-234.687"/>
<polygon fill="midnightblue" stroke="midnightblue" points="1104.18,-238.268 1114.16,-234.707 1104.14,-231.268 1104.18,-238.268"/>
</g>
<!-- Node14&#45;&gt;Node15 -->
<g id="edge14" class="edge"><title>Node14&#45;&gt;Node15</title>
<path fill="none" stroke="midnightblue" d="M1286.43,-245.291C1310.61,-250.751 1337.12,-256.738 1360.54,-262.026"/>
<polygon fill="midnightblue" stroke="midnightblue" points="1287.11,-241.856 1276.58,-243.067 1285.57,-248.684 1287.11,-241.856"/>
</g>
<!-- Node21 -->
<g id="node21" class="node"><title>Node21</title>
<g id="a_node21"><a xlink:href="../../df/dd5/classgame_player_1_1_view_controller.html#a27da17c1280cd953a14f6b76b18f9a4b" target="_top" xlink:title="gamePlayer.ViewController.toggle\lKeyboardControl">
<polygon fill="white" stroke="black" points="1340,-213.033 1340,-243.033 1516,-243.033 1516,-213.033 1340,-213.033"/>
<text text-anchor="start" x="1348" y="-231.033" font-family="Helvetica,sans-Serif" font-size="10.00">gamePlayer.ViewController.toggle</text>
<text text-anchor="middle" x="1428" y="-220.033" font-family="Helvetica,sans-Serif" font-size="10.00">KeyboardControl</text>
</a>
</g>
</g>
<!-- Node14&#45;&gt;Node21 -->
<g id="edge22" class="edge"><title>Node14&#45;&gt;Node21</title>
<path fill="none" stroke="midnightblue" d="M1313.81,-228.033C1322.53,-228.033 1331.3,-228.033 1339.88,-228.033"/>
<polygon fill="midnightblue" stroke="midnightblue" points="1313.6,-224.533 1303.6,-228.033 1313.6,-231.533 1313.6,-224.533"/>
</g>
<!-- Node16 -->
<g id="node16" class="node"><title>Node16</title>
<g id="a_node16"><a xlink:href="../../d1/db7/classgame_player_1_1_keyboard_action.html#a08ace57322b8639020688dd9493c3e1f" target="_top" xlink:title="gamePlayer.KeyboardAction.set\lActionKeyControl">
<polygon fill="white" stroke="black" points="1558,-191.033 1558,-221.033 1726,-221.033 1726,-191.033 1558,-191.033"/>
<text text-anchor="start" x="1566" y="-209.033" font-family="Helvetica,sans-Serif" font-size="10.00">gamePlayer.KeyboardAction.set</text>
<text text-anchor="middle" x="1642" y="-198.033" font-family="Helvetica,sans-Serif" font-size="10.00">ActionKeyControl</text>
</a>
</g>
</g>
<!-- Node15&#45;&gt;Node16 -->
<g id="edge15" class="edge"><title>Node15&#45;&gt;Node16</title>
<path fill="none" stroke="midnightblue" d="M1493.78,-258.982C1501.3,-256.721 1508.83,-254.377 1516,-252.033 1545.23,-242.469 1577.83,-230.426 1602.4,-221.062"/>
<polygon fill="midnightblue" stroke="midnightblue" points="1492.54,-255.7 1483.95,-261.9 1494.53,-262.411 1492.54,-255.7"/>
</g>
<!-- Node17 -->
<g id="node17" class="node"><title>Node17</title>
<g id="a_node17"><a xlink:href="../../df/dd5/classgame_player_1_1_view_controller.html#ab8c14a8c53be9021a62d0107c2f75ef6" target="_top" xlink:title="gamePlayer.ViewController.update\lActions">
<polygon fill="white" stroke="black" points="1552,-251.033 1552,-281.033 1732,-281.033 1732,-251.033 1552,-251.033"/>
<text text-anchor="start" x="1560" y="-269.033" font-family="Helvetica,sans-Serif" font-size="10.00">gamePlayer.ViewController.update</text>
<text text-anchor="middle" x="1642" y="-258.033" font-family="Helvetica,sans-Serif" font-size="10.00">Actions</text>
</a>
</g>
</g>
<!-- Node15&#45;&gt;Node17 -->
<g id="edge17" class="edge"><title>Node15&#45;&gt;Node17</title>
<path fill="none" stroke="midnightblue" d="M1521.59,-272.228C1531.69,-271.705 1541.94,-271.172 1551.99,-270.651"/>
<polygon fill="midnightblue" stroke="midnightblue" points="1521.38,-268.735 1511.57,-272.748 1521.74,-275.725 1521.38,-268.735"/>
</g>
<!-- Node20 -->
<g id="node20" class="node"><title>Node20</title>
<g id="a_node20"><a xlink:href="../../df/df0/classtests_1_1_view_controller_test.html#a74e99f9c72cbdcd2d56271b2ad2df1ce" target="_top" xlink:title="tests.ViewControllerTest.bind\lActionTest">
<polygon fill="white" stroke="black" points="1565,-300.033 1565,-330.033 1719,-330.033 1719,-300.033 1565,-300.033"/>
<text text-anchor="start" x="1573" y="-318.033" font-family="Helvetica,sans-Serif" font-size="10.00">tests.ViewControllerTest.bind</text>
<text text-anchor="middle" x="1642" y="-307.033" font-family="Helvetica,sans-Serif" font-size="10.00">ActionTest</text>
</a>
</g>
</g>
<!-- Node15&#45;&gt;Node20 -->
<g id="edge20" class="edge"><title>Node15&#45;&gt;Node20</title>
<path fill="none" stroke="midnightblue" d="M1521.53,-293.618C1536.01,-296.213 1550.83,-298.87 1564.89,-301.39"/>
<polygon fill="midnightblue" stroke="midnightblue" points="1522.03,-290.153 1511.57,-291.833 1520.8,-297.043 1522.03,-290.153"/>
</g>
<!-- Node16&#45;&gt;Node13 -->
<g id="edge16" class="edge"><title>Node16&#45;&gt;Node13</title>
<path fill="none" stroke="midnightblue" d="M1547.72,-199.814C1442.19,-194.098 1265.31,-188.506 1114,-203.033 1092.88,-205.06 1070.08,-208.914 1049.61,-212.999"/>
<polygon fill="midnightblue" stroke="midnightblue" points="1547.53,-203.308 1557.71,-200.366 1547.91,-196.319 1547.53,-203.308"/>
</g>
<!-- Node18 -->
<g id="node18" class="node"><title>Node18</title>
<g id="a_node18"><a xlink:href="../../d6/d24/classgame_player_1_1_select_state.html#a801827392f0faeee6b96925060d77838" target="_top" xlink:title="gamePlayer.SelectState.on\lClick">
<polygon fill="white" stroke="black" points="1778.5,-276.033 1778.5,-306.033 1925.5,-306.033 1925.5,-276.033 1778.5,-276.033"/>
<text text-anchor="start" x="1786.5" y="-294.033" font-family="Helvetica,sans-Serif" font-size="10.00">gamePlayer.SelectState.on</text>
<text text-anchor="middle" x="1852" y="-283.033" font-family="Helvetica,sans-Serif" font-size="10.00">Click</text>
</a>
</g>
</g>
<!-- Node17&#45;&gt;Node18 -->
<g id="edge18" class="edge"><title>Node17&#45;&gt;Node18</title>
<path fill="none" stroke="midnightblue" d="M1742.3,-277.967C1754.46,-279.429 1766.7,-280.901 1778.37,-282.303"/>
<polygon fill="midnightblue" stroke="midnightblue" points="1742.46,-274.462 1732.12,-276.744 1741.63,-281.412 1742.46,-274.462"/>
</g>
<!-- Node19 -->
<g id="node19" class="node"><title>Node19</title>
<g id="a_node19"><a xlink:href="../../df/df0/classtests_1_1_view_controller_test.html#a785df2c49a72c183c22163ce927f5df1" target="_top" xlink:title="tests.ViewControllerTest.update\lActionsTest">
<polygon fill="white" stroke="black" points="1768.5,-227.033 1768.5,-257.033 1935.5,-257.033 1935.5,-227.033 1768.5,-227.033"/>
<text text-anchor="start" x="1776.5" y="-245.033" font-family="Helvetica,sans-Serif" font-size="10.00">tests.ViewControllerTest.update</text>
<text text-anchor="middle" x="1852" y="-234.033" font-family="Helvetica,sans-Serif" font-size="10.00">ActionsTest</text>
</a>
</g>
</g>
<!-- Node17&#45;&gt;Node19 -->
<g id="edge19" class="edge"><title>Node17&#45;&gt;Node19</title>
<path fill="none" stroke="midnightblue" d="M1742.31,-254.574C1751.02,-253.569 1759.77,-252.559 1768.32,-251.572"/>
<polygon fill="midnightblue" stroke="midnightblue" points="1741.65,-251.127 1732.12,-255.75 1742.45,-258.081 1741.65,-251.127"/>
</g>
<!-- Node22&#45;&gt;Node7 -->
<g id="edge24" class="edge"><title>Node22&#45;&gt;Node7</title>
<path fill="none" stroke="midnightblue" d="M1117.98,-148.149C1046.49,-154.17 943.938,-161.861 854,-165.033 771.994,-167.925 678.954,-167.721 610.177,-166.907"/>
<polygon fill="midnightblue" stroke="midnightblue" points="1118.63,-151.607 1128.3,-147.274 1118.04,-144.632 1118.63,-151.607"/>
</g>
<!-- Node24 -->
<g id="node24" class="node"><title>Node24</title>
<g id="a_node24"><a xlink:href="../../db/d00/classgame_player_1_1_apply_state.html#aed42c1aba25264bc6880036f693a1c9e" target="_top" xlink:title="gamePlayer.ApplyState.on\lClick">
<polygon fill="white" stroke="black" points="1137.5,-262.033 1137.5,-292.033 1280.5,-292.033 1280.5,-262.033 1137.5,-262.033"/>
<text text-anchor="start" x="1145.5" y="-280.033" font-family="Helvetica,sans-Serif" font-size="10.00">gamePlayer.ApplyState.on</text>
<text text-anchor="middle" x="1209" y="-269.033" font-family="Helvetica,sans-Serif" font-size="10.00">Click</text>
</a>
</g>
</g>
<!-- Node23&#45;&gt;Node24 -->
<g id="edge26" class="edge"><title>Node23&#45;&gt;Node24</title>
<path fill="none" stroke="midnightblue" d="M1076.34,-277.033C1096.66,-277.033 1117.9,-277.033 1137.24,-277.033"/>
<polygon fill="midnightblue" stroke="midnightblue" points="1076.14,-273.533 1066.14,-277.033 1076.14,-280.533 1076.14,-273.533"/>
</g>
</g>
</svg>
        <g id="navigator" transform="translate(0 0)" fill="#404254">
                <rect fill="#f2f5e9" fill-opacity="0.5" stroke="#606060" stroke-width=".5" x="0" y="0" width="60" height="60"/>
                <use id="zoomplus" xlink:href="#zoomPlus" x="17" y="9" onmousedown="handleZoom(evt,'in')"/>
                <use id="zoomminus" xlink:href="#zoomMin" x="42" y="9" onmousedown="handleZoom(evt,'out')"/>
                <use id="reset" xlink:href="#resetDef" x="30" y="36" onmousedown="handleReset()"/>
                <g id="arrowUp" xlink:href="#dirArrow" transform="translate(30 24)" onmousedown="handlePan(0,-1)">
                  <use xlink:href="#rim" fill="#404040">
                        <set attributeName="fill" to="#808080" begin="arrowUp.mouseover" end="arrowUp.mouseout"/>
                  </use>
                  <path fill="none" stroke="white" stroke-width="1.5" d="M0,-3.0v7 M-2.5,-0.5L0,-3.0L2.5,-0.5"/>
                </g>
                <g id="arrowRight" xlink:href="#dirArrow" transform="rotate(90) translate(36 -43)" onmousedown="handlePan(1,0)">
                  <use xlink:href="#rim" fill="#404040">
                        <set attributeName="fill" to="#808080" begin="arrowRight.mouseover" end="arrowRight.mouseout"/>
                  </use>
                  <path fill="none" stroke="white" stroke-width="1.5" d="M0,-3.0v7 M-2.5,-0.5L0,-3.0L2.5,-0.5"/>
                </g>
                <g id="arrowDown" xlink:href="#dirArrow" transform="rotate(180) translate(-30 -48)" onmousedown="handlePan(0,1)">
                  <use xlink:href="#rim" fill="#404040">
                        <set attributeName="fill" to="#808080" begin="arrowDown.mouseover" end="arrowDown.mouseout"/>
                  </use>
                  <path fill="none" stroke="white" stroke-width="1.5" d="M0,-3.0v7 M-2.5,-0.5L0,-3.0L2.5,-0.5"/>
                </g>
                <g id="arrowLeft" xlink:href="#dirArrow" transform="rotate(270) translate(-36 17)" onmousedown="handlePan(-1,0)">
                  <use xlink:href="#rim" fill="#404040">
                        <set attributeName="fill" to="#808080" begin="arrowLeft.mouseover" end="arrowLeft.mouseout"/>
                  </use>
                  <path fill="none" stroke="white" stroke-width="1.5" d="M0,-3.0v7 M-2.5,-0.5L0,-3.0L2.5,-0.5"/>
                </g>
        </g>
        <svg viewBox="0 0 15 15" width="100%" height="30px" preserveAspectRatio="xMaxYMin meet">
         <g id="arrow_out" transform="scale(0.3 0.3)">
          <a xlink:href="classgame_player_1_1_audio_aa1396fe6ab1f026334433de9a24905ef_icgraph_org.svg" target="_base">
           <rect id="button" ry="5" rx="5" y="6" x="6" height="38" width="38"
                fill="#f2f5e9" fill-opacity="0.5" stroke="#606060" stroke-width="1.0"/>
           <path id="arrow"
             d="M 11.500037,31.436501 C 11.940474,20.09759 22.043105,11.32322 32.158766,21.979434 L 37.068811,17.246167 C 37.068811,17.246167 37.088388,32 37.088388,32 L 22.160133,31.978069 C 22.160133,31.978069 26.997745,27.140456 26.997745,27.140456 C 18.528582,18.264221 13.291696,25.230495 11.500037,31.436501 z"
             style="fill:#404040;"/>
          </a>
         </g>
        </svg>
</svg>
