<?xml version="1.0" encoding="UTF-8" standalone="no"?>
<!DOCTYPE svg PUBLIC "-//W3C//DTD SVG 1.1//EN"
 "http://www.w3.org/Graphics/SVG/1.1/DTD/svg11.dtd">
<!-- Generated by graphviz version 2.36.0 (20140111.2315)
 -->
<!-- Title: gamedata.gamecomponents.GridComponent Pages: 1 -->
<svg width="346pt" height="176pt"
 viewBox="0.00 0.00 346.00 176.00" xmlns="http://www.w3.org/2000/svg" xmlns:xlink="http://www.w3.org/1999/xlink">
<g id="graph0" class="graph" transform="scale(1 1) rotate(0) translate(4 172)">
<title>gamedata.gamecomponents.GridComponent</title>
<polygon fill="white" stroke="none" points="-4,4 -4,-172 342,-172 342,4 -4,4"/>
<!-- Node1 -->
<g id="node1" class="node"><title>Node1</title>
<polygon fill="#bfbfbf" stroke="black" points="89,-69 89,-99 249,-99 249,-69 89,-69"/>
<text text-anchor="start" x="97" y="-87" font-family="Helvetica,sans-Serif" font-size="10.00">gamedata.gamecomponents.</text>
<text text-anchor="middle" x="169" y="-76" font-family="Helvetica,sans-Serif" font-size="10.00">GridComponent</text>
</g>
<!-- Node3 -->
<g id="node3" class="node"><title>Node3</title>
<g id="a_node3"><a xlink:href="../../dd/dc6/classgamedata_1_1gamecomponents_1_1_patch.html" target="_top" xlink:title="gamedata.gamecomponents.\lPatch">
<polygon fill="white" stroke="black" points="0,-1 0,-31 160,-31 160,-1 0,-1"/>
<text text-anchor="start" x="8" y="-19" font-family="Helvetica,sans-Serif" font-size="10.00">gamedata.gamecomponents.</text>
<text text-anchor="middle" x="80" y="-8" font-family="Helvetica,sans-Serif" font-size="10.00">Patch</text>
</a>
</g>
</g>
<!-- Node1&#45;&gt;Node3 -->
<g id="edge2" class="edge"><title>Node1&#45;&gt;Node3</title>
<path fill="none" stroke="midnightblue" d="M141.49,-62.5994C127.697,-52.3712 111.343,-40.2428 98.9682,-31.0663"/>
<polygon fill="midnightblue" stroke="midnightblue" points="139.571,-65.5337 149.688,-68.679 143.741,-59.911 139.571,-65.5337"/>
</g>
<!-- Node4 -->
<g id="node4" class="node"><title>Node4</title>
<g id="a_node4"><a xlink:href="../../d4/d63/classgamedata_1_1gamecomponents_1_1_piece.html" target="_top" xlink:title="gamedata.gamecomponents.\lPiece">
<polygon fill="white" stroke="black" points="178,-1 178,-31 338,-31 338,-1 178,-1"/>
<text text-anchor="start" x="186" y="-19" font-family="Helvetica,sans-Serif" font-size="10.00">gamedata.gamecomponents.</text>
<text text-anchor="middle" x="258" y="-8" font-family="Helvetica,sans-Serif" font-size="10.00">Piece</text>
</a>
</g>
</g>
<!-- Node1&#45;&gt;Node4 -->
<g id="edge3" class="edge"><title>Node1&#45;&gt;Node4</title>
<path fill="none" stroke="midnightblue" d="M196.51,-62.5994C210.303,-52.3712 226.657,-40.2428 239.032,-31.0663"/>
<polygon fill="midnightblue" stroke="midnightblue" points="194.259,-59.911 188.312,-68.679 198.429,-65.5337 194.259,-59.911"/>
</g>
<!-- Node2 -->
<g id="node2" class="node"><title>Node2</title>
<g id="a_node2"><a xlink:href="../../dc/d5b/interfacegamedata_1_1gamecomponents_1_1_i_has_stats.html" target="_top" xlink:title="gamedata.gamecomponents.\lIHasStats">
<polygon fill="white" stroke="black" points="89,-137 89,-167 249,-167 249,-137 89,-137"/>
<text text-anchor="start" x="97" y="-155" font-family="Helvetica,sans-Serif" font-size="10.00">gamedata.gamecomponents.</text>
<text text-anchor="middle" x="169" y="-144" font-family="Helvetica,sans-Serif" font-size="10.00">IHasStats</text>
</a>
</g>
</g>
<!-- Node2&#45;&gt;Node1 -->
<g id="edge1" class="edge"><title>Node2&#45;&gt;Node1</title>
<path fill="none" stroke="midnightblue" d="M169,-126.532C169,-117.361 169,-107.245 169,-99.2931"/>
<polygon fill="midnightblue" stroke="midnightblue" points="165.5,-126.679 169,-136.679 172.5,-126.679 165.5,-126.679"/>
</g>
</g>
</svg>
