<?xml version="1.0" encoding="UTF-8" standalone="no"?>
<!DOCTYPE svg PUBLIC "-//W3C//DTD SVG 1.1//EN"
 "http://www.w3.org/Graphics/SVG/1.1/DTD/svg11.dtd">
<!-- Generated by graphviz version 2.36.0 (20140111.2315)
 -->
<!-- Title: authoring.concretefeatures.RangeEditor.SelectHandler.handle Pages: 1 -->
<svg width="782pt" height="87pt"
 viewBox="0.00 0.00 782.00 87.00" xmlns="http://www.w3.org/2000/svg" xmlns:xlink="http://www.w3.org/1999/xlink">
<g id="graph0" class="graph" transform="scale(1 1) rotate(0) translate(4 83)">
<title>authoring.concretefeatures.RangeEditor.SelectHandler.handle</title>
<polygon fill="white" stroke="none" points="-4,4 -4,-83 778,-83 778,4 -4,4"/>
<!-- Node1 -->
<g id="node1" class="node"><title>Node1</title>
<polygon fill="#bfbfbf" stroke="black" points="0.5,-24 0.5,-54 179.5,-54 179.5,-24 0.5,-24"/>
<text text-anchor="start" x="8.5" y="-42" font-family="Helvetica,sans-Serif" font-size="10.00">authoring.concretefeatures.</text>
<text text-anchor="middle" x="90" y="-31" font-family="Helvetica,sans-Serif" font-size="10.00">RangeEditor.SelectHandler.handle</text>
</g>
<!-- Node2 -->
<g id="node2" class="node"><title>Node2</title>
<g id="a_node2"><a xlink:href="../../d5/df6/classauthoring__environment_1_1_range_grid_view.html#abb88e480de6be8db723c9a30874e857d" target="_top" xlink:title="authoring_environment.Range\lGridView.returnSelectedList">
<polygon fill="white" stroke="black" points="216.5,-24 216.5,-54 377.5,-54 377.5,-24 216.5,-24"/>
<text text-anchor="start" x="224.5" y="-42" font-family="Helvetica,sans-Serif" font-size="10.00">authoring_environment.Range</text>
<text text-anchor="middle" x="297" y="-31" font-family="Helvetica,sans-Serif" font-size="10.00">GridView.returnSelectedList</text>
</a>
</g>
</g>
<!-- Node1&#45;&gt;Node2 -->
<g id="edge1" class="edge"><title>Node1&#45;&gt;Node2</title>
<path fill="none" stroke="midnightblue" d="M179.724,-39C188.512,-39 197.439,-39 206.238,-39"/>
<polygon fill="midnightblue" stroke="midnightblue" points="206.493,-42.5001 216.493,-39 206.493,-35.5001 206.493,-42.5001"/>
</g>
<!-- Node3 -->
<g id="node3" class="node"><title>Node3</title>
<g id="a_node3"><a xlink:href="../../d5/da8/classauthoring__environment_1_1_range_grid.html#a5d631da91234e98b2970a530dc860503" target="_top" xlink:title="authoring_environment.Range\lGrid.selectedRangeList">
<polygon fill="white" stroke="black" points="414.5,-24 414.5,-54 575.5,-54 575.5,-24 414.5,-24"/>
<text text-anchor="start" x="422.5" y="-42" font-family="Helvetica,sans-Serif" font-size="10.00">authoring_environment.Range</text>
<text text-anchor="middle" x="495" y="-31" font-family="Helvetica,sans-Serif" font-size="10.00">Grid.selectedRangeList</text>
</a>
</g>
</g>
<!-- Node2&#45;&gt;Node3 -->
<g id="edge2" class="edge"><title>Node2&#45;&gt;Node3</title>
<path fill="none" stroke="midnightblue" d="M377.721,-39C386.405,-39 395.287,-39 404.082,-39"/>
<polygon fill="midnightblue" stroke="midnightblue" points="404.35,-42.5001 414.35,-39 404.35,-35.5001 404.35,-42.5001"/>
</g>
<!-- Node4 -->
<g id="node4" class="node"><title>Node4</title>
<g id="a_node4"><a xlink:href="../../d5/da8/classauthoring__environment_1_1_range_grid.html#aee0028d314fe7e42143f91d67f9c25c1" target="_top" xlink:title="authoring_environment.Range\lGrid.findTile">
<polygon fill="white" stroke="black" points="612.5,-49 612.5,-79 773.5,-79 773.5,-49 612.5,-49"/>
<text text-anchor="start" x="620.5" y="-67" font-family="Helvetica,sans-Serif" font-size="10.00">authoring_environment.Range</text>
<text text-anchor="middle" x="693" y="-56" font-family="Helvetica,sans-Serif" font-size="10.00">Grid.findTile</text>
</a>
</g>
</g>
<!-- Node3&#45;&gt;Node4 -->
<g id="edge3" class="edge"><title>Node3&#45;&gt;Node4</title>
<path fill="none" stroke="midnightblue" d="M575.721,-49.1685C584.499,-50.2882 593.48,-51.4337 602.369,-52.5675"/>
<polygon fill="midnightblue" stroke="midnightblue" points="601.987,-56.0471 612.35,-53.8406 602.873,-49.1033 601.987,-56.0471"/>
</g>
<!-- Node5 -->
<g id="node5" class="node"><title>Node5</title>
<g id="a_node5"><a xlink:href="../../dc/d5a/classauthoring__environment_1_1_super_tile.html#afafc82a52123f943132cdfcf6d72370b" target="_top" xlink:title="authoring_environment.Super\lTile.isSelected">
<polygon fill="white" stroke="black" points="613,-0 613,-30 773,-30 773,-0 613,-0"/>
<text text-anchor="start" x="621" y="-18" font-family="Helvetica,sans-Serif" font-size="10.00">authoring_environment.Super</text>
<text text-anchor="middle" x="693" y="-7" font-family="Helvetica,sans-Serif" font-size="10.00">Tile.isSelected</text>
</a>
</g>
</g>
<!-- Node3&#45;&gt;Node5 -->
<g id="edge4" class="edge"><title>Node3&#45;&gt;Node5</title>
<path fill="none" stroke="midnightblue" d="M575.721,-29.2383C584.653,-28.1445 593.796,-27.025 602.837,-25.9179"/>
<polygon fill="midnightblue" stroke="midnightblue" points="603.485,-29.3648 612.985,-24.6753 602.634,-22.4167 603.485,-29.3648"/>
</g>
</g>
</svg>
