<?xml version="1.0" encoding="UTF-8" standalone="no"?>
<!DOCTYPE svg PUBLIC "-//W3C//DTD SVG 1.1//EN"
 "http://www.w3.org/Graphics/SVG/1.1/DTD/svg11.dtd">
<!-- Generated by graphviz version 2.36.0 (20140111.2315)
 -->
<!-- Title: authoring.concretefeatures.RangeEditor.SelectHandler.handle Pages: 1 -->
<svg width="584pt" height="38pt"
 viewBox="0.00 0.00 584.00 38.00" xmlns="http://www.w3.org/2000/svg" xmlns:xlink="http://www.w3.org/1999/xlink">
<g id="graph0" class="graph" transform="scale(1 1) rotate(0) translate(4 34)">
<title>authoring.concretefeatures.RangeEditor.SelectHandler.handle</title>
<polygon fill="white" stroke="none" points="-4,4 -4,-34 580,-34 580,4 -4,4"/>
<!-- Node1 -->
<g id="node1" class="node"><title>Node1</title>
<polygon fill="#bfbfbf" stroke="black" points="0.5,-0 0.5,-30 179.5,-30 179.5,-0 0.5,-0"/>
<text text-anchor="start" x="8.5" y="-18" font-family="Helvetica,sans-Serif" font-size="10.00">authoring.concretefeatures.</text>
<text text-anchor="middle" x="90" y="-7" font-family="Helvetica,sans-Serif" font-size="10.00">RangeEditor.SelectHandler.handle</text>
</g>
<!-- Node2 -->
<g id="node2" class="node"><title>Node2</title>
<g id="a_node2"><a xlink:href="../../d5/df6/classauthoring__environment_1_1_range_grid_view.html#abb88e480de6be8db723c9a30874e857d" target="_top" xlink:title="authoring_environment.Range\lGridView.returnSelectedList">
<polygon fill="white" stroke="black" points="216.5,-0 216.5,-30 377.5,-30 377.5,-0 216.5,-0"/>
<text text-anchor="start" x="224.5" y="-18" font-family="Helvetica,sans-Serif" font-size="10.00">authoring_environment.Range</text>
<text text-anchor="middle" x="297" y="-7" font-family="Helvetica,sans-Serif" font-size="10.00">GridView.returnSelectedList</text>
</a>
</g>
</g>
<!-- Node1&#45;&gt;Node2 -->
<g id="edge1" class="edge"><title>Node1&#45;&gt;Node2</title>
<path fill="none" stroke="midnightblue" d="M179.724,-15C188.512,-15 197.439,-15 206.238,-15"/>
<polygon fill="midnightblue" stroke="midnightblue" points="206.493,-18.5001 216.493,-15 206.493,-11.5001 206.493,-18.5001"/>
</g>
<!-- Node3 -->
<g id="node3" class="node"><title>Node3</title>
<g id="a_node3"><a xlink:href="../../d5/da8/classauthoring__environment_1_1_range_grid.html#a093e8be49fb55fa9c517c7fafe991abd" target="_top" xlink:title="authoring_environment.Range\lGrid.rangeSelectedList">
<polygon fill="white" stroke="black" points="414.5,-0 414.5,-30 575.5,-30 575.5,-0 414.5,-0"/>
<text text-anchor="start" x="422.5" y="-18" font-family="Helvetica,sans-Serif" font-size="10.00">authoring_environment.Range</text>
<text text-anchor="middle" x="495" y="-7" font-family="Helvetica,sans-Serif" font-size="10.00">Grid.rangeSelectedList</text>
</a>
</g>
</g>
<!-- Node2&#45;&gt;Node3 -->
<g id="edge2" class="edge"><title>Node2&#45;&gt;Node3</title>
<path fill="none" stroke="midnightblue" d="M377.721,-15C386.405,-15 395.287,-15 404.082,-15"/>
<polygon fill="midnightblue" stroke="midnightblue" points="404.35,-18.5001 414.35,-15 404.35,-11.5001 404.35,-18.5001"/>
</g>
</g>
</svg>
