<?xml version="1.0" encoding="UTF-8" standalone="no"?>
<!DOCTYPE svg PUBLIC "-//W3C//DTD SVG 1.1//EN"
 "http://www.w3.org/Graphics/SVG/1.1/DTD/svg11.dtd">
<!-- Generated by graphviz version 2.36.0 (20140111.2315)
 -->
<!-- Title: gameengine.player.HumanPlayer.HumanPlayer Pages: 1 -->
<svg width="416pt" height="87pt"
 viewBox="0.00 0.00 416.00 87.00" xmlns="http://www.w3.org/2000/svg" xmlns:xlink="http://www.w3.org/1999/xlink">
<g id="graph0" class="graph" transform="scale(1 1) rotate(0) translate(4 83)">
<title>gameengine.player.HumanPlayer.HumanPlayer</title>
<polygon fill="white" stroke="none" points="-4,4 -4,-83 412,-83 412,4 -4,4"/>
<!-- Node1 -->
<g id="node1" class="node"><title>Node1</title>
<polygon fill="#bfbfbf" stroke="black" points="0,-24 0,-54 178,-54 178,-24 0,-24"/>
<text text-anchor="start" x="8" y="-42" font-family="Helvetica,sans-Serif" font-size="10.00">gameengine.player.HumanPlayer.</text>
<text text-anchor="middle" x="89" y="-31" font-family="Helvetica,sans-Serif" font-size="10.00">HumanPlayer</text>
</g>
<!-- Node2 -->
<g id="node2" class="node"><title>Node2</title>
<g id="a_node2"><a xlink:href="../../d5/de0/classgameengine_1_1player_1_1_human_player.html#af4d135a1373279e5faf142e6a533e175" target="_top" xlink:title="gameengine.player.HumanPlayer.set\lActionKeyMap">
<polygon fill="white" stroke="black" points="214.5,-49 214.5,-79 407.5,-79 407.5,-49 214.5,-49"/>
<text text-anchor="start" x="222.5" y="-67" font-family="Helvetica,sans-Serif" font-size="10.00">gameengine.player.HumanPlayer.set</text>
<text text-anchor="middle" x="311" y="-56" font-family="Helvetica,sans-Serif" font-size="10.00">ActionKeyMap</text>
</a>
</g>
</g>
<!-- Node1&#45;&gt;Node2 -->
<g id="edge1" class="edge"><title>Node1&#45;&gt;Node2</title>
<path fill="none" stroke="midnightblue" d="M178.215,-49.0244C186.721,-49.991 195.408,-50.9782 204.062,-51.9616"/>
<polygon fill="midnightblue" stroke="midnightblue" points="203.861,-55.4612 214.192,-53.1128 204.651,-48.506 203.861,-55.4612"/>
</g>
<!-- Node3 -->
<g id="node3" class="node"><title>Node3</title>
<g id="a_node3"><a xlink:href="../../d5/de0/classgameengine_1_1player_1_1_human_player.html#aacdd90c21427693980140ff40624192f" target="_top" xlink:title="gameengine.player.HumanPlayer.set\lMovementKeyMap">
<polygon fill="white" stroke="black" points="214.5,-0 214.5,-30 407.5,-30 407.5,-0 214.5,-0"/>
<text text-anchor="start" x="222.5" y="-18" font-family="Helvetica,sans-Serif" font-size="10.00">gameengine.player.HumanPlayer.set</text>
<text text-anchor="middle" x="311" y="-7" font-family="Helvetica,sans-Serif" font-size="10.00">MovementKeyMap</text>
</a>
</g>
</g>
<!-- Node1&#45;&gt;Node3 -->
<g id="edge2" class="edge"><title>Node1&#45;&gt;Node3</title>
<path fill="none" stroke="midnightblue" d="M178.215,-29.3766C186.721,-28.4486 195.408,-27.5009 204.062,-26.5569"/>
<polygon fill="midnightblue" stroke="midnightblue" points="204.631,-30.0157 214.192,-25.4518 203.872,-23.057 204.631,-30.0157"/>
</g>
</g>
</svg>
