<?xml version="1.0" encoding="UTF-8" standalone="no"?>
<!DOCTYPE svg PUBLIC "-//W3C//DTD SVG 1.1//EN"
 "http://www.w3.org/Graphics/SVG/1.1/DTD/svg11.dtd">
<!-- Generated by graphviz version 2.36.0 (20140111.2315)
 -->
<!-- Title: authoring.concretefeatures.RangeEditor.selectRangeHandler.handle Pages: 1 -->
<svg width="414pt" height="87pt"
 viewBox="0.00 0.00 414.00 87.00" xmlns="http://www.w3.org/2000/svg" xmlns:xlink="http://www.w3.org/1999/xlink">
<g id="graph0" class="graph" transform="scale(1 1) rotate(0) translate(4 83)">
<title>authoring.concretefeatures.RangeEditor.selectRangeHandler.handle</title>
<polygon fill="white" stroke="none" points="-4,4 -4,-83 410,-83 410,4 -4,4"/>
<!-- Node1 -->
<g id="node1" class="node"><title>Node1</title>
<polygon fill="#bfbfbf" stroke="black" points="0.5,-24 0.5,-54 207.5,-54 207.5,-24 0.5,-24"/>
<text text-anchor="start" x="8.5" y="-42" font-family="Helvetica,sans-Serif" font-size="10.00">authoring.concretefeatures.</text>
<text text-anchor="middle" x="104" y="-31" font-family="Helvetica,sans-Serif" font-size="10.00">RangeEditor.selectRangeHandler.handle</text>
</g>
<!-- Node2 -->
<g id="node2" class="node"><title>Node2</title>
<g id="a_node2"><a xlink:href="../../d5/df6/classauthoring__environment_1_1_range_grid_view.html#a96157b4b565c185480f508e8c5d416c2" target="_top" xlink:title="authoring_environment.Range\lGridView.getGrid">
<polygon fill="white" stroke="black" points="244.5,-49 244.5,-79 405.5,-79 405.5,-49 244.5,-49"/>
<text text-anchor="start" x="252.5" y="-67" font-family="Helvetica,sans-Serif" font-size="10.00">authoring_environment.Range</text>
<text text-anchor="middle" x="325" y="-56" font-family="Helvetica,sans-Serif" font-size="10.00">GridView.getGrid</text>
</a>
</g>
</g>
<!-- Node1&#45;&gt;Node2 -->
<g id="edge1" class="edge"><title>Node1&#45;&gt;Node2</title>
<path fill="none" stroke="midnightblue" d="M207.767,-50.7314C216.633,-51.7435 225.559,-52.7624 234.309,-53.7613"/>
<polygon fill="midnightblue" stroke="midnightblue" points="234.155,-57.2664 244.488,-54.9233 234.949,-50.3116 234.155,-57.2664"/>
</g>
<!-- Node3 -->
<g id="node3" class="node"><title>Node3</title>
<g id="a_node3"><a xlink:href="../../d5/da8/classauthoring__environment_1_1_range_grid.html#a1baa09aa89fa774141b839ad06be7723" target="_top" xlink:title="authoring_environment.Range\lGrid.processChoice">
<polygon fill="white" stroke="black" points="244.5,-0 244.5,-30 405.5,-30 405.5,-0 244.5,-0"/>
<text text-anchor="start" x="252.5" y="-18" font-family="Helvetica,sans-Serif" font-size="10.00">authoring_environment.Range</text>
<text text-anchor="middle" x="325" y="-7" font-family="Helvetica,sans-Serif" font-size="10.00">Grid.processChoice</text>
</a>
</g>
</g>
<!-- Node1&#45;&gt;Node3 -->
<g id="edge2" class="edge"><title>Node1&#45;&gt;Node3</title>
<path fill="none" stroke="midnightblue" d="M207.767,-27.7379C216.633,-26.7662 225.559,-25.7881 234.309,-24.8291"/>
<polygon fill="midnightblue" stroke="midnightblue" points="234.929,-28.2823 244.488,-23.7137 234.166,-21.324 234.929,-28.2823"/>
</g>
</g>
</svg>
