<?xml version="1.0" encoding="UTF-8" standalone="no"?>
<!DOCTYPE svg PUBLIC "-//W3C//DTD SVG 1.1//EN"
 "http://www.w3.org/Graphics/SVG/1.1/DTD/svg11.dtd">
<!-- Generated by graphviz version 2.36.0 (20140111.2315)
 -->
<!-- Title: authoring.concretefeatures.RangeEditor.selectRangeHandler.handle Pages: 1 -->
<svg width="810pt" height="249pt"
 viewBox="0.00 0.00 810.00 248.67" xmlns="http://www.w3.org/2000/svg" xmlns:xlink="http://www.w3.org/1999/xlink">
<g id="graph0" class="graph" transform="scale(1 1) rotate(0) translate(4 244.67)">
<title>authoring.concretefeatures.RangeEditor.selectRangeHandler.handle</title>
<polygon fill="white" stroke="none" points="-4,4 -4,-244.67 806,-244.67 806,4 -4,4"/>
<!-- Node1 -->
<g id="node1" class="node"><title>Node1</title>
<polygon fill="#bfbfbf" stroke="black" points="0.5,-116.67 0.5,-146.67 207.5,-146.67 207.5,-116.67 0.5,-116.67"/>
<text text-anchor="start" x="8.5" y="-134.67" font-family="Helvetica,sans-Serif" font-size="10.00">authoring.concretefeatures.</text>
<text text-anchor="middle" x="104" y="-123.67" font-family="Helvetica,sans-Serif" font-size="10.00">RangeEditor.selectRangeHandler.handle</text>
</g>
<!-- Node2 -->
<g id="node2" class="node"><title>Node2</title>
<g id="a_node2"><a xlink:href="../../d5/df6/classauthoring__environment_1_1_range_grid_view.html#a96157b4b565c185480f508e8c5d416c2" target="_top" xlink:title="authoring_environment.Range\lGridView.getGrid">
<polygon fill="white" stroke="black" points="244.5,-209.67 244.5,-239.67 405.5,-239.67 405.5,-209.67 244.5,-209.67"/>
<text text-anchor="start" x="252.5" y="-227.67" font-family="Helvetica,sans-Serif" font-size="10.00">authoring_environment.Range</text>
<text text-anchor="middle" x="325" y="-216.67" font-family="Helvetica,sans-Serif" font-size="10.00">GridView.getGrid</text>
</a>
</g>
</g>
<!-- Node1&#45;&gt;Node2 -->
<g id="edge1" class="edge"><title>Node1&#45;&gt;Node2</title>
<path fill="none" stroke="midnightblue" d="M132.653,-146.754C160.306,-161.464 204.315,-183.869 244,-199.67 249.855,-202.002 256.019,-204.26 262.22,-206.403"/>
<polygon fill="midnightblue" stroke="midnightblue" points="261.361,-209.806 271.955,-209.67 263.588,-203.17 261.361,-209.806"/>
</g>
<!-- Node3 -->
<g id="node3" class="node"><title>Node3</title>
<g id="a_node3"><a xlink:href="../../d5/da8/classauthoring__environment_1_1_range_grid.html#a01e0c5aeb77c4301820a374b0770483f" target="_top" xlink:title="authoring_environment.Range\lGrid.rangeAll">
<polygon fill="white" stroke="black" points="442.5,-127.67 442.5,-157.67 603.5,-157.67 603.5,-127.67 442.5,-127.67"/>
<text text-anchor="start" x="450.5" y="-145.67" font-family="Helvetica,sans-Serif" font-size="10.00">authoring_environment.Range</text>
<text text-anchor="middle" x="523" y="-134.67" font-family="Helvetica,sans-Serif" font-size="10.00">Grid.rangeAll</text>
</a>
</g>
</g>
<!-- Node1&#45;&gt;Node3 -->
<g id="edge2" class="edge"><title>Node1&#45;&gt;Node3</title>
<path fill="none" stroke="midnightblue" d="M207.544,-134.375C276.33,-136.19 366.071,-138.557 432.07,-140.298"/>
<polygon fill="midnightblue" stroke="midnightblue" points="432.363,-143.807 442.452,-140.572 432.548,-136.809 432.363,-143.807"/>
</g>
<!-- Node7 -->
<g id="node7" class="node"><title>Node7</title>
<g id="a_node7"><a xlink:href="../../d5/da8/classauthoring__environment_1_1_range_grid.html#ac170da90f00d9a8703aaab1cd3657888" target="_top" xlink:title="authoring_environment.Range\lGrid.rangeColumn">
<polygon fill="white" stroke="black" points="442.5,-29.6703 442.5,-59.6703 603.5,-59.6703 603.5,-29.6703 442.5,-29.6703"/>
<text text-anchor="start" x="450.5" y="-47.6703" font-family="Helvetica,sans-Serif" font-size="10.00">authoring_environment.Range</text>
<text text-anchor="middle" x="523" y="-36.6703" font-family="Helvetica,sans-Serif" font-size="10.00">Grid.rangeColumn</text>
</a>
</g>
</g>
<!-- Node1&#45;&gt;Node7 -->
<g id="edge6" class="edge"><title>Node1&#45;&gt;Node7</title>
<path fill="none" stroke="midnightblue" d="M173.904,-116.652C196.254,-111.82 221.17,-106.474 244,-101.67 308.904,-88.0129 382.422,-72.957 437.548,-61.7502"/>
<polygon fill="midnightblue" stroke="midnightblue" points="438.518,-65.1247 447.62,-59.7036 437.124,-58.2649 438.518,-65.1247"/>
</g>
<!-- Node8 -->
<g id="node8" class="node"><title>Node8</title>
<g id="a_node8"><a xlink:href="../../d5/da8/classauthoring__environment_1_1_range_grid.html#a1586131f94cc78931c9eb19ce22c9bba" target="_top" xlink:title="authoring_environment.Range\lGrid.rangeRadius">
<polygon fill="white" stroke="black" points="244.5,-160.67 244.5,-190.67 405.5,-190.67 405.5,-160.67 244.5,-160.67"/>
<text text-anchor="start" x="252.5" y="-178.67" font-family="Helvetica,sans-Serif" font-size="10.00">authoring_environment.Range</text>
<text text-anchor="middle" x="325" y="-167.67" font-family="Helvetica,sans-Serif" font-size="10.00">Grid.rangeRadius</text>
</a>
</g>
</g>
<!-- Node1&#45;&gt;Node8 -->
<g id="edge10" class="edge"><title>Node1&#45;&gt;Node8</title>
<path fill="none" stroke="midnightblue" d="M179.755,-146.69C198.941,-150.544 219.715,-154.718 239.362,-158.665"/>
<polygon fill="midnightblue" stroke="midnightblue" points="238.717,-162.106 249.21,-160.644 240.096,-155.243 238.717,-162.106"/>
</g>
<!-- Node9 -->
<g id="node9" class="node"><title>Node9</title>
<g id="a_node9"><a xlink:href="../../d5/da8/classauthoring__environment_1_1_range_grid.html#a5f6bb1c5cb9fb99ca4a1c45c0e9913bd" target="_top" xlink:title="authoring_environment.Range\lGrid.rangeRow">
<polygon fill="white" stroke="black" points="442.5,-78.6703 442.5,-108.67 603.5,-108.67 603.5,-78.6703 442.5,-78.6703"/>
<text text-anchor="start" x="450.5" y="-96.6703" font-family="Helvetica,sans-Serif" font-size="10.00">authoring_environment.Range</text>
<text text-anchor="middle" x="523" y="-85.6703" font-family="Helvetica,sans-Serif" font-size="10.00">Grid.rangeRow</text>
</a>
</g>
</g>
<!-- Node1&#45;&gt;Node9 -->
<g id="edge15" class="edge"><title>Node1&#45;&gt;Node9</title>
<path fill="none" stroke="midnightblue" d="M207.544,-122.326C276.472,-116.045 366.441,-107.846 432.477,-101.828"/>
<polygon fill="midnightblue" stroke="midnightblue" points="432.811,-105.312 442.452,-100.919 432.175,-98.3413 432.811,-105.312"/>
</g>
<!-- Node4 -->
<g id="node4" class="node"><title>Node4</title>
<g id="a_node4"><a xlink:href="../../d5/da8/classauthoring__environment_1_1_range_grid.html#a9edb8e94a31dc9b65872a51e74e270ea" target="_top" xlink:title="authoring_environment.Range\lGrid.findTile">
<polygon fill="white" stroke="black" points="640.5,-29.6703 640.5,-59.6703 801.5,-59.6703 801.5,-29.6703 640.5,-29.6703"/>
<text text-anchor="start" x="648.5" y="-47.6703" font-family="Helvetica,sans-Serif" font-size="10.00">authoring_environment.Range</text>
<text text-anchor="middle" x="721" y="-36.6703" font-family="Helvetica,sans-Serif" font-size="10.00">Grid.findTile</text>
</a>
</g>
</g>
<!-- Node3&#45;&gt;Node4 -->
<g id="edge3" class="edge"><title>Node3&#45;&gt;Node4</title>
<path fill="none" stroke="midnightblue" d="M586.182,-127.653C592.479,-124.858 598.552,-121.56 604,-117.67 625.993,-101.968 617.917,-84.2465 640,-68.6703 642.125,-67.1711 644.346,-65.7642 646.637,-64.4439"/>
<polygon fill="midnightblue" stroke="midnightblue" points="648.469,-67.4386 655.779,-59.7696 645.282,-61.2061 648.469,-67.4386"/>
</g>
<!-- Node5 -->
<g id="node5" class="node"><title>Node5</title>
<g id="a_node5"><a xlink:href="../../dc/d5a/classauthoring__environment_1_1_super_tile.html#a2a827578368c687de4550af01702bced" target="_top" xlink:title="authoring_environment.Super\lTile.selectTile">
<polygon fill="white" stroke="black" points="641,-127.67 641,-157.67 801,-157.67 801,-127.67 641,-127.67"/>
<text text-anchor="start" x="649" y="-145.67" font-family="Helvetica,sans-Serif" font-size="10.00">authoring_environment.Super</text>
<text text-anchor="middle" x="721" y="-134.67" font-family="Helvetica,sans-Serif" font-size="10.00">Tile.selectTile</text>
</a>
</g>
</g>
<!-- Node3&#45;&gt;Node5 -->
<g id="edge4" class="edge"><title>Node3&#45;&gt;Node5</title>
<path fill="none" stroke="midnightblue" d="M603.721,-142.67C612.653,-142.67 621.796,-142.67 630.837,-142.67"/>
<polygon fill="midnightblue" stroke="midnightblue" points="630.985,-146.17 640.985,-142.67 630.985,-139.17 630.985,-146.17"/>
</g>
<!-- Node6 -->
<g id="node6" class="node"><title>Node6</title>
<g id="a_node6"><a xlink:href="../../dc/d5a/classauthoring__environment_1_1_super_tile.html#a2bdd34482002f8adad3de981bbb972b7" target="_top" xlink:title="authoring_environment.Super\lTile.deselectTile">
<polygon fill="white" stroke="black" points="641,-78.6703 641,-108.67 801,-108.67 801,-78.6703 641,-78.6703"/>
<text text-anchor="start" x="649" y="-96.6703" font-family="Helvetica,sans-Serif" font-size="10.00">authoring_environment.Super</text>
<text text-anchor="middle" x="721" y="-85.6703" font-family="Helvetica,sans-Serif" font-size="10.00">Tile.deselectTile</text>
</a>
</g>
</g>
<!-- Node3&#45;&gt;Node6 -->
<g id="edge5" class="edge"><title>Node3&#45;&gt;Node6</title>
<path fill="none" stroke="midnightblue" d="M584.138,-127.636C605.021,-122.415 628.615,-116.517 650.21,-111.118"/>
<polygon fill="midnightblue" stroke="midnightblue" points="651.123,-114.497 659.975,-108.676 649.425,-107.706 651.123,-114.497"/>
</g>
<!-- Node7&#45;&gt;Node4 -->
<g id="edge7" class="edge"><title>Node7&#45;&gt;Node4</title>
<path fill="none" stroke="midnightblue" d="M603.721,-44.6703C612.405,-44.6703 621.287,-44.6703 630.082,-44.6703"/>
<polygon fill="midnightblue" stroke="midnightblue" points="630.35,-48.1704 640.35,-44.6703 630.35,-41.1704 630.35,-48.1704"/>
</g>
<!-- Node7&#45;&gt;Node5 -->
<g id="edge8" class="edge"><title>Node7&#45;&gt;Node5</title>
<path fill="none" stroke="midnightblue" d="M588.221,-59.7696C593.788,-62.2988 599.142,-65.2435 604,-68.6703 626.083,-84.2465 618.007,-101.968 640,-117.67 642.724,-119.615 645.604,-121.412 648.59,-123.072"/>
<polygon fill="midnightblue" stroke="midnightblue" points="647.305,-126.342 657.818,-127.653 650.418,-120.072 647.305,-126.342"/>
</g>
<!-- Node7&#45;&gt;Node6 -->
<g id="edge9" class="edge"><title>Node7&#45;&gt;Node6</title>
<path fill="none" stroke="midnightblue" d="M584.138,-59.7049C605.021,-64.9257 628.615,-70.824 650.21,-76.2229"/>
<polygon fill="midnightblue" stroke="midnightblue" points="649.425,-79.6342 659.975,-78.6641 651.123,-72.8432 649.425,-79.6342"/>
</g>
<!-- Node8&#45;&gt;Node3 -->
<g id="edge11" class="edge"><title>Node8&#45;&gt;Node3</title>
<path fill="none" stroke="midnightblue" d="M405.721,-162.248C414.499,-160.77 423.48,-159.258 432.369,-157.761"/>
<polygon fill="midnightblue" stroke="midnightblue" points="433.07,-161.193 442.35,-156.081 431.908,-154.29 433.07,-161.193"/>
</g>
<!-- Node8&#45;&gt;Node4 -->
<g id="edge12" class="edge"><title>Node8&#45;&gt;Node4</title>
<path fill="none" stroke="midnightblue" d="M331.666,-160.647C344.997,-127.756 381.839,-49.9059 442,-19.6703 516.288,17.6651 615.872,-6.27435 673.475,-26.1249"/>
<polygon fill="midnightblue" stroke="midnightblue" points="672.443,-29.4724 683.038,-29.5163 674.783,-22.875 672.443,-29.4724"/>
</g>
<!-- Node8&#45;&gt;Node5 -->
<g id="edge13" class="edge"><title>Node8&#45;&gt;Node5</title>
<path fill="none" stroke="midnightblue" d="M380.541,-190.726C437.128,-203.995 527.833,-218.651 604,-200.67 634.623,-193.441 666.38,-176.821 688.907,-163.217"/>
<polygon fill="midnightblue" stroke="midnightblue" points="691.003,-166.036 697.665,-157.798 687.32,-160.083 691.003,-166.036"/>
</g>
<!-- Node8&#45;&gt;Node6 -->
<g id="edge14" class="edge"><title>Node8&#45;&gt;Node6</title>
<path fill="none" stroke="midnightblue" d="M404.354,-190.692C462.762,-197.879 542.689,-198.962 604,-166.67 627.91,-154.077 617.917,-133.247 640,-117.67 642.125,-116.171 644.346,-114.764 646.637,-113.444"/>
<polygon fill="midnightblue" stroke="midnightblue" points="648.469,-116.439 655.779,-108.77 645.282,-110.206 648.469,-116.439"/>
</g>
<!-- Node9&#45;&gt;Node4 -->
<g id="edge16" class="edge"><title>Node9&#45;&gt;Node4</title>
<path fill="none" stroke="midnightblue" d="M584.138,-78.6357C605.021,-73.4149 628.615,-67.5166 650.21,-62.1177"/>
<polygon fill="midnightblue" stroke="midnightblue" points="651.123,-65.4974 659.975,-59.6765 649.425,-58.7064 651.123,-65.4974"/>
</g>
<!-- Node9&#45;&gt;Node5 -->
<g id="edge17" class="edge"><title>Node9&#45;&gt;Node5</title>
<path fill="none" stroke="midnightblue" d="M584.138,-108.705C605.021,-113.926 628.615,-119.824 650.21,-125.223"/>
<polygon fill="midnightblue" stroke="midnightblue" points="649.425,-128.634 659.975,-127.664 651.123,-121.843 649.425,-128.634"/>
</g>
<!-- Node9&#45;&gt;Node6 -->
<g id="edge18" class="edge"><title>Node9&#45;&gt;Node6</title>
<path fill="none" stroke="midnightblue" d="M603.721,-93.6703C612.653,-93.6703 621.796,-93.6703 630.837,-93.6703"/>
<polygon fill="midnightblue" stroke="midnightblue" points="630.985,-97.1704 640.985,-93.6703 630.985,-90.1704 630.985,-97.1704"/>
</g>
</g>
</svg>
