<?xml version="1.0" encoding="UTF-8" standalone="no"?>
<!DOCTYPE svg PUBLIC "-//W3C//DTD SVG 1.1//EN"
 "http://www.w3.org/Graphics/SVG/1.1/DTD/svg11.dtd">
<!-- Generated by graphviz version 2.36.0 (20140111.2315)
 -->
<!-- Title: authoring_environment.WorkspaceView Pages: 1 -->
<svg width="252pt" height="108pt"
 viewBox="0.00 0.00 252.00 108.00" xmlns="http://www.w3.org/2000/svg" xmlns:xlink="http://www.w3.org/1999/xlink">
<g id="graph0" class="graph" transform="scale(1 1) rotate(0) translate(4 104)">
<title>authoring_environment.WorkspaceView</title>
<polygon fill="white" stroke="none" points="-4,4 -4,-104 248,-104 248,4 -4,4"/>
<!-- Node1 -->
<g id="node1" class="node"><title>Node1</title>
<polygon fill="#bfbfbf" stroke="black" points="0,-0.5 0,-19.5 204,-19.5 204,-0.5 0,-0.5"/>
<text text-anchor="middle" x="102" y="-7.5" font-family="Helvetica,sans-Serif" font-size="10.00">authoring_environment.WorkspaceView</text>
</g>
<!-- Node2 -->
<g id="node2" class="node"><title>Node2</title>
<polygon fill="white" stroke="#bfbfbf" points="12,-74.5 12,-93.5 68,-93.5 68,-74.5 12,-74.5"/>
<text text-anchor="middle" x="40" y="-81.5" font-family="Helvetica,sans-Serif" font-size="10.00">TabPane</text>
</g>
<!-- Node2&#45;&gt;Node1 -->
<g id="edge1" class="edge"><title>Node2&#45;&gt;Node1</title>
<path fill="none" stroke="midnightblue" d="M54.0562,-66.6767C66.6693,-52.0292 84.6843,-31.1086 94.6539,-19.531"/>
<polygon fill="midnightblue" stroke="midnightblue" points="51.2288,-64.5964 47.3557,-74.4579 56.5331,-69.164 51.2288,-64.5964"/>
</g>
<!-- Node3 -->
<g id="node3" class="node"><title>Node3</title>
<polygon fill="white" stroke="#bfbfbf" points="85.5,-69 85.5,-99 244.5,-99 244.5,-69 85.5,-69"/>
<text text-anchor="start" x="93.5" y="-87" font-family="Helvetica,sans-Serif" font-size="10.00">List&lt; authoring_environment.</text>
<text text-anchor="middle" x="165" y="-76" font-family="Helvetica,sans-Serif" font-size="10.00">SuperGrid &gt;</text>
</g>
<!-- Node3&#45;&gt;Node1 -->
<g id="edge2" class="edge"><title>Node3&#45;&gt;Node1</title>
<path fill="none" stroke="#9a32cd" stroke-dasharray="5,2" d="M145.798,-61.0551C133.64,-47.1605 118.583,-29.952 109.664,-19.7589"/>
<polygon fill="#9a32cd" stroke="#9a32cd" points="143.334,-63.5541 152.553,-68.7751 148.602,-58.9445 143.334,-63.5541"/>
<text text-anchor="middle" x="156.5" y="-41.5" font-family="Helvetica,sans-Serif" font-size="10.00"> myGrids</text>
</g>
</g>
</svg>
