<?xml version="1.0" encoding="UTF-8" standalone="no"?>
<!DOCTYPE svg PUBLIC "-//W3C//DTD SVG 1.1//EN"
 "http://www.w3.org/Graphics/SVG/1.1/DTD/svg11.dtd">
<!-- Generated by graphviz version 2.36.0 (20140111.2315)
 -->
<!-- Title: gamedata.action.Action.getAbsoluteActionRange Pages: 1 -->
<!--zoomable 315 -->
<svg id="main" version="1.1" xmlns="http://www.w3.org/2000/svg" xmlns:xlink="http://www.w3.org/1999/xlink" xml:space="preserve" onload="init(evt)">
<style type="text/css"><![CDATA[
.edge:hover path { stroke: red; }
.edge:hover polygon { stroke: red; fill: red; }
]]></style>
<script type="text/javascript"><![CDATA[
var edges = document.getElementsByTagName('g');
if (edges && edges.length) {
  for (var i=0;i<edges.length;i++) {
    if (edges[i].id.substr(0,4)=='edge') {
      edges[i].setAttribute('class','edge');
    }
  }
}
]]></script>
        <defs>
                <circle id="rim" cx="0" cy="0" r="7"/>
                <circle id="rim2" cx="0" cy="0" r="3.5"/>
                <g id="zoomPlus">
                        <use xlink:href="#rim" fill="#404040">
                                <set attributeName="fill" to="#808080" begin="zoomplus.mouseover" end="zoomplus.mouseout"/>
                        </use>
                        <path d="M-4,0h8M0,-4v8" fill="none" stroke="white" stroke-width="1.5" pointer-events="none"/>
                </g>
                <g id="zoomMin">
                        <use xlink:href="#rim" fill="#404040">
                                <set attributeName="fill" to="#808080" begin="zoomminus.mouseover" end="zoomminus.mouseout"/>
                        </use>
                        <path d="M-4,0h8" fill="none" stroke="white" stroke-width="1.5" pointer-events="none"/>
                </g>
                <g id="dirArrow">
                        <path fill="none" stroke="white" stroke-width="1.5" d="M0,-3.0v7 M-2.5,-0.5L0,-3.0L2.5,-0.5"/>
                </g>
               <g id="resetDef">
                       <use xlink:href="#rim2" fill="#404040">
                               <set attributeName="fill" to="#808080" begin="reset.mouseover" end="reset.mouseout"/>
                       </use>
               </g>
        </defs>

<script type="text/javascript">
var viewWidth = 2154;
var viewHeight = 315;
var sectionId = 'dynsection-2';
</script>
<script xlink:href="../../svgpan.js"/>
<svg id="graph" class="graph">
<g id="viewport">
<title>gamedata.action.Action.getAbsoluteActionRange</title>
<polygon fill="white" stroke="none" points="-4,4 -4,-311 2150,-311 2150,4 -4,4"/>
<!-- Node1 -->
<g id="node1" class="node"><title>Node1</title>
<polygon fill="#bfbfbf" stroke="black" points="0,-44 0,-74 150,-74 150,-44 0,-44"/>
<text text-anchor="start" x="8" y="-62" font-family="Helvetica,sans-Serif" font-size="10.00">gamedata.action.Action.get</text>
<text text-anchor="middle" x="75" y="-51" font-family="Helvetica,sans-Serif" font-size="10.00">AbsoluteActionRange</text>
</g>
<!-- Node2 -->
<g id="node2" class="node"><title>Node2</title>
<g id="a_node2"><a xlink:href="../../d5/dfb/classgame_player_1_1_game_grid_effect.html#ae71ddafff23aecd0ee6697d732e0a919" target="_top" xlink:title="gamePlayer.GameGridEffect.highlight\lActionRange">
<polygon fill="white" stroke="black" points="186.5,-113 186.5,-143 381.5,-143 381.5,-113 186.5,-113"/>
<text text-anchor="start" x="194.5" y="-131" font-family="Helvetica,sans-Serif" font-size="10.00">gamePlayer.GameGridEffect.highlight</text>
<text text-anchor="middle" x="284" y="-120" font-family="Helvetica,sans-Serif" font-size="10.00">ActionRange</text>
</a>
</g>
</g>
<!-- Node1&#45;&gt;Node2 -->
<g id="edge1" class="edge"><title>Node1&#45;&gt;Node2</title>
<path fill="none" stroke="midnightblue" d="M130.796,-77.2653C164.227,-88.409 206.44,-102.48 237.925,-112.975"/>
<polygon fill="midnightblue" stroke="midnightblue" points="131.765,-73.899 121.171,-74.0571 129.551,-80.5398 131.765,-73.899"/>
</g>
<!-- Node14 -->
<g id="node14" class="node"><title>Node14</title>
<g id="a_node14"><a xlink:href="../../db/d00/classgame_player_1_1_apply_state.html#aed42c1aba25264bc6880036f693a1c9e" target="_top" xlink:title="gamePlayer.ApplyState.on\lClick">
<polygon fill="white" stroke="black" points="2001.5,-67 2001.5,-97 2144.5,-97 2144.5,-67 2001.5,-67"/>
<text text-anchor="start" x="2009.5" y="-85" font-family="Helvetica,sans-Serif" font-size="10.00">gamePlayer.ApplyState.on</text>
<text text-anchor="middle" x="2073" y="-74" font-family="Helvetica,sans-Serif" font-size="10.00">Click</text>
</a>
</g>
</g>
<!-- Node1&#45;&gt;Node14 -->
<g id="edge26" class="edge"><title>Node1&#45;&gt;Node14</title>
<path fill="none" stroke="midnightblue" d="M160.288,-59C246.039,-59 382.77,-59 501,-59 501,-59 501,-59 1631,-59 1761.91,-59 1914.38,-69.2322 2001.41,-76.047"/>
<polygon fill="midnightblue" stroke="midnightblue" points="160.088,-55.5001 150.088,-59 160.088,-62.5001 160.088,-55.5001"/>
</g>
<!-- Node24 -->
<g id="node24" class="node"><title>Node24</title>
<g id="a_node24"><a xlink:href="../../d8/d4d/classgameengine_1_1player_1_1_simple_a_i_player.html#a4939c006130cc2f30060ccb3abd9d5e5" target="_top" xlink:title="gameengine.player.Simple\lAIPlayer.play">
<polygon fill="white" stroke="black" points="212,-0 212,-30 356,-30 356,-0 212,-0"/>
<text text-anchor="start" x="220" y="-18" font-family="Helvetica,sans-Serif" font-size="10.00">gameengine.player.Simple</text>
<text text-anchor="middle" x="284" y="-7" font-family="Helvetica,sans-Serif" font-size="10.00">AIPlayer.play</text>
</a>
</g>
</g>
<!-- Node1&#45;&gt;Node24 -->
<g id="edge27" class="edge"><title>Node1&#45;&gt;Node24</title>
<path fill="none" stroke="midnightblue" d="M156.476,-41.8941C174.894,-37.979 194.337,-33.8462 212.309,-30.0262"/>
<polygon fill="midnightblue" stroke="midnightblue" points="155.712,-38.478 146.659,-43.9808 157.168,-45.325 155.712,-38.478"/>
</g>
<!-- Node3 -->
<g id="node3" class="node"><title>Node3</title>
<g id="a_node3"><a xlink:href="../../df/dd5/classgame_player_1_1_view_controller.html#a7eb038fd9f20604ade0406f27ef76657" target="_top" xlink:title="gamePlayer.ViewController.bind\lAction">
<polygon fill="white" stroke="black" points="418.5,-137 418.5,-167 585.5,-167 585.5,-137 418.5,-137"/>
<text text-anchor="start" x="426.5" y="-155" font-family="Helvetica,sans-Serif" font-size="10.00">gamePlayer.ViewController.bind</text>
<text text-anchor="middle" x="502" y="-144" font-family="Helvetica,sans-Serif" font-size="10.00">Action</text>
</a>
</g>
</g>
<!-- Node2&#45;&gt;Node3 -->
<g id="edge2" class="edge"><title>Node2&#45;&gt;Node3</title>
<path fill="none" stroke="midnightblue" d="M391.703,-139.856C400.642,-140.849 409.593,-141.844 418.311,-142.812"/>
<polygon fill="midnightblue" stroke="midnightblue" points="391.954,-136.362 381.628,-138.736 391.18,-143.319 391.954,-136.362"/>
</g>
<!-- Node4 -->
<g id="node4" class="node"><title>Node4</title>
<g id="a_node4"><a xlink:href="../../d1/db7/classgame_player_1_1_keyboard_action.html#a08ace57322b8639020688dd9493c3e1f" target="_top" xlink:title="gamePlayer.KeyboardAction.set\lActionKeyControl">
<polygon fill="white" stroke="black" points="628,-186 628,-216 796,-216 796,-186 628,-186"/>
<text text-anchor="start" x="636" y="-204" font-family="Helvetica,sans-Serif" font-size="10.00">gamePlayer.KeyboardAction.set</text>
<text text-anchor="middle" x="712" y="-193" font-family="Helvetica,sans-Serif" font-size="10.00">ActionKeyControl</text>
</a>
</g>
</g>
<!-- Node3&#45;&gt;Node4 -->
<g id="edge3" class="edge"><title>Node3&#45;&gt;Node4</title>
<path fill="none" stroke="midnightblue" d="M576.568,-169.331C599.661,-174.771 624.95,-180.729 647.3,-185.994"/>
<polygon fill="midnightblue" stroke="midnightblue" points="577.357,-165.921 566.82,-167.035 575.751,-172.734 577.357,-165.921"/>
</g>
<!-- Node20 -->
<g id="node20" class="node"><title>Node20</title>
<g id="a_node20"><a xlink:href="../../df/dd5/classgame_player_1_1_view_controller.html#ab8c14a8c53be9021a62d0107c2f75ef6" target="_top" xlink:title="gamePlayer.ViewController.update\lActions">
<polygon fill="white" stroke="black" points="622,-137 622,-167 802,-167 802,-137 622,-137"/>
<text text-anchor="start" x="630" y="-155" font-family="Helvetica,sans-Serif" font-size="10.00">gamePlayer.ViewController.update</text>
<text text-anchor="middle" x="712" y="-144" font-family="Helvetica,sans-Serif" font-size="10.00">Actions</text>
</a>
</g>
</g>
<!-- Node3&#45;&gt;Node20 -->
<g id="edge22" class="edge"><title>Node3&#45;&gt;Node20</title>
<path fill="none" stroke="midnightblue" d="M595.633,-152C604.314,-152 613.102,-152 621.751,-152"/>
<polygon fill="midnightblue" stroke="midnightblue" points="595.506,-148.5 585.506,-152 595.506,-155.5 595.506,-148.5"/>
</g>
<!-- Node23 -->
<g id="node23" class="node"><title>Node23</title>
<g id="a_node23"><a xlink:href="../../df/df0/classtests_1_1_view_controller_test.html#a74e99f9c72cbdcd2d56271b2ad2df1ce" target="_top" xlink:title="tests.ViewControllerTest.bind\lActionTest">
<polygon fill="white" stroke="black" points="635,-88 635,-118 789,-118 789,-88 635,-88"/>
<text text-anchor="start" x="643" y="-106" font-family="Helvetica,sans-Serif" font-size="10.00">tests.ViewControllerTest.bind</text>
<text text-anchor="middle" x="712" y="-95" font-family="Helvetica,sans-Serif" font-size="10.00">ActionTest</text>
</a>
</g>
</g>
<!-- Node3&#45;&gt;Node23 -->
<g id="edge25" class="edge"><title>Node3&#45;&gt;Node23</title>
<path fill="none" stroke="midnightblue" d="M576.568,-134.669C599.661,-129.229 624.95,-123.271 647.3,-118.006"/>
<polygon fill="midnightblue" stroke="midnightblue" points="575.751,-131.266 566.82,-136.965 577.357,-138.079 575.751,-131.266"/>
</g>
<!-- Node5 -->
<g id="node5" class="node"><title>Node5</title>
<g id="a_node5"><a xlink:href="../../df/dd5/classgame_player_1_1_view_controller.html#a95c2acd43bb39b8606c69971c1cd30f5" target="_top" xlink:title="gamePlayer.ViewController.perform\lAction">
<polygon fill="white" stroke="black" points="838.5,-186 838.5,-216 1023.5,-216 1023.5,-186 838.5,-186"/>
<text text-anchor="start" x="846.5" y="-204" font-family="Helvetica,sans-Serif" font-size="10.00">gamePlayer.ViewController.perform</text>
<text text-anchor="middle" x="931" y="-193" font-family="Helvetica,sans-Serif" font-size="10.00">Action</text>
</a>
</g>
</g>
<!-- Node4&#45;&gt;Node5 -->
<g id="edge4" class="edge"><title>Node4&#45;&gt;Node5</title>
<path fill="none" stroke="midnightblue" d="M806.351,-201C816.935,-201 827.715,-201 838.277,-201"/>
<polygon fill="midnightblue" stroke="midnightblue" points="806.277,-197.5 796.277,-201 806.277,-204.5 806.277,-197.5"/>
</g>
<!-- Node6 -->
<g id="node6" class="node"><title>Node6</title>
<g id="a_node6"><a xlink:href="../../da/d55/classgame_player_1_1_keyboard_movement.html#af45fd8d279b1ee2d6be5466d425485ab" target="_top" xlink:title="gamePlayer.KeyboardMovement.set\lMovementKeyControl">
<polygon fill="white" stroke="black" points="1060.5,-228 1060.5,-258 1249.5,-258 1249.5,-228 1060.5,-228"/>
<text text-anchor="start" x="1068.5" y="-246" font-family="Helvetica,sans-Serif" font-size="10.00">gamePlayer.KeyboardMovement.set</text>
<text text-anchor="middle" x="1155" y="-235" font-family="Helvetica,sans-Serif" font-size="10.00">MovementKeyControl</text>
</a>
</g>
</g>
<!-- Node5&#45;&gt;Node6 -->
<g id="edge5" class="edge"><title>Node5&#45;&gt;Node6</title>
<path fill="none" stroke="midnightblue" d="M1033.42,-213.46C1058.25,-218.04 1083.72,-223.196 1104.81,-227.978"/>
<polygon fill="midnightblue" stroke="midnightblue" points="1034.04,-210.016 1023.58,-211.668 1032.79,-216.903 1034.04,-210.016"/>
</g>
<!-- Node8 -->
<g id="node8" class="node"><title>Node8</title>
<g id="a_node8"><a xlink:href="../../df/dd5/classgame_player_1_1_view_controller.html#a22ee80193bbac79a935ee961a183bfcd" target="_top" xlink:title="gamePlayer.ViewController.set\lOnClick">
<polygon fill="white" stroke="black" points="1074.5,-179 1074.5,-209 1235.5,-209 1235.5,-179 1074.5,-179"/>
<text text-anchor="start" x="1082.5" y="-197" font-family="Helvetica,sans-Serif" font-size="10.00">gamePlayer.ViewController.set</text>
<text text-anchor="middle" x="1155" y="-186" font-family="Helvetica,sans-Serif" font-size="10.00">OnClick</text>
</a>
</g>
</g>
<!-- Node5&#45;&gt;Node8 -->
<g id="edge9" class="edge"><title>Node5&#45;&gt;Node8</title>
<path fill="none" stroke="midnightblue" d="M1033.9,-197.787C1047.47,-197.359 1061.22,-196.926 1074.33,-196.512"/>
<polygon fill="midnightblue" stroke="midnightblue" points="1033.46,-194.299 1023.58,-198.112 1033.68,-201.295 1033.46,-194.299"/>
</g>
<!-- Node6&#45;&gt;Node3 -->
<g id="edge6" class="edge"><title>Node6&#45;&gt;Node3</title>
<path fill="none" stroke="midnightblue" d="M1050.35,-254.864C941.256,-263.838 765.752,-268.216 622,-225 582.541,-213.138 543.012,-184.838 520.907,-167.164"/>
<polygon fill="midnightblue" stroke="midnightblue" points="1050.7,-258.347 1060.37,-254.012 1050.11,-251.372 1050.7,-258.347"/>
</g>
<!-- Node6&#45;&gt;Node5 -->
<g id="edge7" class="edge"><title>Node6&#45;&gt;Node5</title>
<path fill="none" stroke="midnightblue" d="M1050.29,-230.117C1026.23,-225.65 1001.7,-220.671 981.269,-216.041"/>
<polygon fill="midnightblue" stroke="midnightblue" points="1049.74,-233.573 1060.2,-231.932 1051,-226.688 1049.74,-233.573"/>
</g>
<!-- Node7 -->
<g id="node7" class="node"><title>Node7</title>
<g id="a_node7"><a xlink:href="../../df/dd5/classgame_player_1_1_view_controller.html#a27da17c1280cd953a14f6b76b18f9a4b" target="_top" xlink:title="gamePlayer.ViewController.toggle\lKeyboardControl">
<polygon fill="white" stroke="black" points="1300,-228 1300,-258 1476,-258 1476,-228 1300,-228"/>
<text text-anchor="start" x="1308" y="-246" font-family="Helvetica,sans-Serif" font-size="10.00">gamePlayer.ViewController.toggle</text>
<text text-anchor="middle" x="1388" y="-235" font-family="Helvetica,sans-Serif" font-size="10.00">KeyboardControl</text>
</a>
</g>
</g>
<!-- Node6&#45;&gt;Node7 -->
<g id="edge8" class="edge"><title>Node6&#45;&gt;Node7</title>
<path fill="none" stroke="midnightblue" d="M1259.83,-243C1273.24,-243 1286.86,-243 1299.96,-243"/>
<polygon fill="midnightblue" stroke="midnightblue" points="1259.62,-239.5 1249.62,-243 1259.62,-246.5 1259.62,-239.5"/>
</g>
<!-- Node9 -->
<g id="node9" class="node"><title>Node9</title>
<g id="a_node9"><a xlink:href="../../df/dd5/classgame_player_1_1_view_controller.html#a10a40967a873f067cf91b024ff85b38e" target="_top" xlink:title="gamePlayer.ViewController.initializeGrid">
<polygon fill="white" stroke="black" points="1286,-184.5 1286,-203.5 1490,-203.5 1490,-184.5 1286,-184.5"/>
<text text-anchor="middle" x="1388" y="-191.5" font-family="Helvetica,sans-Serif" font-size="10.00">gamePlayer.ViewController.initializeGrid</text>
</a>
</g>
</g>
<!-- Node8&#45;&gt;Node9 -->
<g id="edge10" class="edge"><title>Node8&#45;&gt;Node9</title>
<path fill="none" stroke="midnightblue" d="M1246.18,-194C1259.23,-194 1272.74,-194 1285.99,-194"/>
<polygon fill="midnightblue" stroke="midnightblue" points="1245.82,-190.5 1235.82,-194 1245.82,-197.5 1245.82,-190.5"/>
</g>
<!-- Node10 -->
<g id="node10" class="node"><title>Node10</title>
<g id="a_node10"><a xlink:href="../../df/dd5/classgame_player_1_1_view_controller.html#aabf431713b65ec510f1cb2df12da4e45" target="_top" xlink:title="gamePlayer.ViewController.test\lPlayGameInTab">
<polygon fill="white" stroke="black" points="1547.5,-179 1547.5,-209 1712.5,-209 1712.5,-179 1547.5,-179"/>
<text text-anchor="start" x="1555.5" y="-197" font-family="Helvetica,sans-Serif" font-size="10.00">gamePlayer.ViewController.test</text>
<text text-anchor="middle" x="1630" y="-186" font-family="Helvetica,sans-Serif" font-size="10.00">PlayGameInTab</text>
</a>
</g>
</g>
<!-- Node9&#45;&gt;Node10 -->
<g id="edge11" class="edge"><title>Node9&#45;&gt;Node10</title>
<path fill="none" stroke="midnightblue" d="M1500.43,-194C1516.23,-194 1532.22,-194 1547.32,-194"/>
<polygon fill="midnightblue" stroke="midnightblue" points="1500.09,-190.5 1490.09,-194 1500.09,-197.5 1500.09,-190.5"/>
</g>
<!-- Node11 -->
<g id="node11" class="node"><title>Node11</title>
<g id="a_node11"><a xlink:href="../../df/dd5/classgame_player_1_1_view_controller.html#a0d1a3d443966f151b070dc751d2faf9a" target="_top" xlink:title="gamePlayer.ViewController.restartGame">
<polygon fill="white" stroke="black" points="1526,-140.5 1526,-159.5 1734,-159.5 1734,-140.5 1526,-140.5"/>
<text text-anchor="middle" x="1630" y="-147.5" font-family="Helvetica,sans-Serif" font-size="10.00">gamePlayer.ViewController.restartGame</text>
</a>
</g>
</g>
<!-- Node9&#45;&gt;Node11 -->
<g id="edge12" class="edge"><title>Node9&#45;&gt;Node11</title>
<path fill="none" stroke="midnightblue" d="M1451.27,-182.583C1490.33,-175.423 1540.09,-166.299 1577.03,-159.529"/>
<polygon fill="midnightblue" stroke="midnightblue" points="1450.28,-179.207 1441.08,-184.453 1451.54,-186.092 1450.28,-179.207"/>
</g>
<!-- Node12 -->
<g id="node12" class="node"><title>Node12</title>
<g id="a_node12"><a xlink:href="../../df/dd5/classgame_player_1_1_view_controller.html#a620f8a02d3ac7677cd179fcd812aca55" target="_top" xlink:title="gamePlayer.ViewController.check\lEndActions">
<polygon fill="white" stroke="black" points="1543,-91 1543,-121 1717,-121 1717,-91 1543,-91"/>
<text text-anchor="start" x="1551" y="-109" font-family="Helvetica,sans-Serif" font-size="10.00">gamePlayer.ViewController.check</text>
<text text-anchor="middle" x="1630" y="-98" font-family="Helvetica,sans-Serif" font-size="10.00">EndActions</text>
</a>
</g>
</g>
<!-- Node9&#45;&gt;Node12 -->
<g id="edge13" class="edge"><title>Node9&#45;&gt;Node12</title>
<path fill="none" stroke="midnightblue" d="M1416.05,-179.666C1443.23,-165.72 1486.63,-144.687 1526,-131 1536.6,-127.314 1548,-123.966 1559.21,-121.003"/>
<polygon fill="midnightblue" stroke="midnightblue" points="1414.42,-176.572 1407.15,-184.28 1417.64,-182.787 1414.42,-176.572"/>
</g>
<!-- Node15 -->
<g id="node15" class="node"><title>Node15</title>
<g id="a_node15"><a xlink:href="../../df/dd5/classgame_player_1_1_view_controller.html#adc15cd81cefb88c58f9d3b7478328df8" target="_top" xlink:title="gamePlayer.ViewController.test\lPlayGUIGame">
<polygon fill="white" stroke="black" points="1547.5,-277 1547.5,-307 1712.5,-307 1712.5,-277 1547.5,-277"/>
<text text-anchor="start" x="1555.5" y="-295" font-family="Helvetica,sans-Serif" font-size="10.00">gamePlayer.ViewController.test</text>
<text text-anchor="middle" x="1630" y="-284" font-family="Helvetica,sans-Serif" font-size="10.00">PlayGUIGame</text>
</a>
</g>
</g>
<!-- Node9&#45;&gt;Node15 -->
<g id="edge17" class="edge"><title>Node9&#45;&gt;Node15</title>
<path fill="none" stroke="midnightblue" d="M1467.88,-206.877C1475.69,-209.85 1483.22,-213.506 1490,-218 1512.53,-232.928 1503.51,-252.018 1526,-267 1532.59,-271.387 1539.86,-275.005 1547.42,-277.989"/>
<polygon fill="midnightblue" stroke="midnightblue" points="1468.85,-203.51 1458.26,-203.579 1466.58,-210.132 1468.85,-203.51"/>
</g>
<!-- Node16 -->
<g id="node16" class="node"><title>Node16</title>
<g id="a_node16"><a xlink:href="../../df/dd5/classgame_player_1_1_view_controller.html#a4c1754d129a4eac955390b428eaa448a" target="_top" xlink:title="gamePlayer.ViewController.test\lPlayGame">
<polygon fill="white" stroke="black" points="1547.5,-228 1547.5,-258 1712.5,-258 1712.5,-228 1547.5,-228"/>
<text text-anchor="start" x="1555.5" y="-246" font-family="Helvetica,sans-Serif" font-size="10.00">gamePlayer.ViewController.test</text>
<text text-anchor="middle" x="1630" y="-235" font-family="Helvetica,sans-Serif" font-size="10.00">PlayGame</text>
</a>
</g>
</g>
<!-- Node9&#45;&gt;Node16 -->
<g id="edge18" class="edge"><title>Node9&#45;&gt;Node16</title>
<path fill="none" stroke="midnightblue" d="M1445.42,-205.52C1478.19,-212.209 1519.84,-220.713 1555.18,-227.929"/>
<polygon fill="midnightblue" stroke="midnightblue" points="1446.06,-202.077 1435.56,-203.506 1444.66,-208.936 1446.06,-202.077"/>
</g>
<!-- Node12&#45;&gt;Node5 -->
<g id="edge14" class="edge"><title>Node12&#45;&gt;Node5</title>
<path fill="none" stroke="midnightblue" d="M1532.62,-112.691C1419,-121.496 1224.75,-139.424 1060,-169 1035.2,-173.452 1008.08,-179.986 985.212,-185.991"/>
<polygon fill="midnightblue" stroke="midnightblue" points="1532.98,-116.174 1542.69,-111.919 1532.45,-109.194 1532.98,-116.174"/>
</g>
<!-- Node13 -->
<g id="node13" class="node"><title>Node13</title>
<g id="a_node13"><a xlink:href="../../df/dd5/classgame_player_1_1_view_controller.html#a13ea7814bde61a8042c5b1a23af41416" target="_top" xlink:title="gamePlayer.ViewController.end\lAction">
<polygon fill="white" stroke="black" points="1785,-89 1785,-119 1949,-119 1949,-89 1785,-89"/>
<text text-anchor="start" x="1793" y="-107" font-family="Helvetica,sans-Serif" font-size="10.00">gamePlayer.ViewController.end</text>
<text text-anchor="middle" x="1867" y="-96" font-family="Helvetica,sans-Serif" font-size="10.00">Action</text>
</a>
</g>
</g>
<!-- Node12&#45;&gt;Node13 -->
<g id="edge15" class="edge"><title>Node12&#45;&gt;Node13</title>
<path fill="none" stroke="midnightblue" d="M1727.39,-105.18C1746.5,-105.017 1766.38,-104.848 1784.92,-104.69"/>
<polygon fill="midnightblue" stroke="midnightblue" points="1727.14,-101.682 1717.17,-105.267 1727.2,-108.681 1727.14,-101.682"/>
</g>
<!-- Node13&#45;&gt;Node14 -->
<g id="edge16" class="edge"><title>Node13&#45;&gt;Node14</title>
<path fill="none" stroke="midnightblue" d="M1959.38,-94.145C1973.44,-92.6294 1987.76,-91.0844 2001.28,-89.6269"/>
<polygon fill="midnightblue" stroke="midnightblue" points="1958.78,-90.6897 1949.21,-95.2418 1959.53,-97.6493 1958.78,-90.6897"/>
</g>
<!-- Node17 -->
<g id="node17" class="node"><title>Node17</title>
<g id="a_node17"><a xlink:href="../../db/d40/classfxml__main_1_1_authoring_controller.html#a2ec133c8edf0a7ab1e84f2e12455233d" target="_top" xlink:title="fxml_main.AuthoringController.save\lAsGame">
<polygon fill="white" stroke="black" points="1773.5,-250 1773.5,-280 1960.5,-280 1960.5,-250 1773.5,-250"/>
<text text-anchor="start" x="1781.5" y="-268" font-family="Helvetica,sans-Serif" font-size="10.00">fxml_main.AuthoringController.save</text>
<text text-anchor="middle" x="1867" y="-257" font-family="Helvetica,sans-Serif" font-size="10.00">AsGame</text>
</a>
</g>
</g>
<!-- Node16&#45;&gt;Node17 -->
<g id="edge19" class="edge"><title>Node16&#45;&gt;Node17</title>
<path fill="none" stroke="midnightblue" d="M1722.77,-251.591C1739.38,-253.146 1756.7,-254.768 1773.34,-256.325"/>
<polygon fill="midnightblue" stroke="midnightblue" points="1722.81,-248.08 1712.53,-250.633 1722.16,-255.05 1722.81,-248.08"/>
</g>
<!-- Node18 -->
<g id="node18" class="node"><title>Node18</title>
<g id="a_node18"><a xlink:href="../../df/dd5/classgame_player_1_1_view_controller.html#a2bf1dce04187ad5eacb5359ef2b4eff8" target="_top" xlink:title="gamePlayer.ViewController.newGame">
<polygon fill="white" stroke="black" points="1770,-211.5 1770,-230.5 1964,-230.5 1964,-211.5 1770,-211.5"/>
<text text-anchor="middle" x="1867" y="-218.5" font-family="Helvetica,sans-Serif" font-size="10.00">gamePlayer.ViewController.newGame</text>
</a>
</g>
</g>
<!-- Node16&#45;&gt;Node18 -->
<g id="edge20" class="edge"><title>Node16&#45;&gt;Node18</title>
<path fill="none" stroke="midnightblue" d="M1722.58,-234.427C1738.03,-232.981 1754.1,-231.476 1769.66,-230.019"/>
<polygon fill="midnightblue" stroke="midnightblue" points="1722.16,-230.95 1712.53,-235.367 1722.81,-237.92 1722.16,-230.95"/>
</g>
<!-- Node19 -->
<g id="node19" class="node"><title>Node19</title>
<g id="a_node19"><a xlink:href="../../df/dd5/classgame_player_1_1_view_controller.html#a2acd822c93c35674b6978a97b4ce6e3f" target="_top" xlink:title="gamePlayer.ViewController.\lViewController">
<polygon fill="white" stroke="black" points="2000,-206 2000,-236 2146,-236 2146,-206 2000,-206"/>
<text text-anchor="start" x="2008" y="-224" font-family="Helvetica,sans-Serif" font-size="10.00">gamePlayer.ViewController.</text>
<text text-anchor="middle" x="2073" y="-213" font-family="Helvetica,sans-Serif" font-size="10.00">ViewController</text>
</a>
</g>
</g>
<!-- Node18&#45;&gt;Node19 -->
<g id="edge21" class="edge"><title>Node18&#45;&gt;Node19</title>
<path fill="none" stroke="midnightblue" d="M1974.24,-221C1982.94,-221 1991.59,-221 1999.95,-221"/>
<polygon fill="midnightblue" stroke="midnightblue" points="1974.03,-217.5 1964.03,-221 1974.03,-224.5 1974.03,-217.5"/>
</g>
<!-- Node21 -->
<g id="node21" class="node"><title>Node21</title>
<g id="a_node21"><a xlink:href="../../d6/d24/classgame_player_1_1_select_state.html#a801827392f0faeee6b96925060d77838" target="_top" xlink:title="gamePlayer.SelectState.on\lClick">
<polygon fill="white" stroke="black" points="857.5,-137 857.5,-167 1004.5,-167 1004.5,-137 857.5,-137"/>
<text text-anchor="start" x="865.5" y="-155" font-family="Helvetica,sans-Serif" font-size="10.00">gamePlayer.SelectState.on</text>
<text text-anchor="middle" x="931" y="-144" font-family="Helvetica,sans-Serif" font-size="10.00">Click</text>
</a>
</g>
</g>
<!-- Node20&#45;&gt;Node21 -->
<g id="edge23" class="edge"><title>Node20&#45;&gt;Node21</title>
<path fill="none" stroke="midnightblue" d="M812.591,-152C827.672,-152 842.984,-152 857.351,-152"/>
<polygon fill="midnightblue" stroke="midnightblue" points="812.202,-148.5 802.202,-152 812.202,-155.5 812.202,-148.5"/>
</g>
<!-- Node22 -->
<g id="node22" class="node"><title>Node22</title>
<g id="a_node22"><a xlink:href="../../df/df0/classtests_1_1_view_controller_test.html#a785df2c49a72c183c22163ce927f5df1" target="_top" xlink:title="tests.ViewControllerTest.update\lActionsTest">
<polygon fill="white" stroke="black" points="847.5,-88 847.5,-118 1014.5,-118 1014.5,-88 847.5,-88"/>
<text text-anchor="start" x="855.5" y="-106" font-family="Helvetica,sans-Serif" font-size="10.00">tests.ViewControllerTest.update</text>
<text text-anchor="middle" x="931" y="-95" font-family="Helvetica,sans-Serif" font-size="10.00">ActionsTest</text>
</a>
</g>
</g>
<!-- Node20&#45;&gt;Node22 -->
<g id="edge24" class="edge"><title>Node20&#45;&gt;Node22</title>
<path fill="none" stroke="midnightblue" d="M789.429,-134.742C813.608,-129.282 840.122,-123.295 863.544,-118.006"/>
<polygon fill="midnightblue" stroke="midnightblue" points="788.565,-131.349 779.582,-136.965 790.107,-138.177 788.565,-131.349"/>
</g>
<!-- Node25 -->
<g id="node25" class="node"><title>Node25</title>
<g id="a_node25"><a xlink:href="../../d8/d4d/classgameengine_1_1player_1_1_simple_a_i_player.html#a9a241075e35d6039a453f51445e9837c" target="_top" xlink:title="gameengine.player.Simple\lAIPlayer.startTurn">
<polygon fill="white" stroke="black" points="430,-0 430,-30 574,-30 574,-0 430,-0"/>
<text text-anchor="start" x="438" y="-18" font-family="Helvetica,sans-Serif" font-size="10.00">gameengine.player.Simple</text>
<text text-anchor="middle" x="502" y="-7" font-family="Helvetica,sans-Serif" font-size="10.00">AIPlayer.startTurn</text>
</a>
</g>
</g>
<!-- Node24&#45;&gt;Node25 -->
<g id="edge28" class="edge"><title>Node24&#45;&gt;Node25</title>
<path fill="none" stroke="midnightblue" d="M366.183,-15C387.14,-15 409.535,-15 429.932,-15"/>
<polygon fill="midnightblue" stroke="midnightblue" points="366.026,-11.5001 356.026,-15 366.026,-18.5001 366.026,-11.5001"/>
</g>
</g>
</svg>
        <g id="navigator" transform="translate(0 0)" fill="#404254">
                <rect fill="#f2f5e9" fill-opacity="0.5" stroke="#606060" stroke-width=".5" x="0" y="0" width="60" height="60"/>
                <use id="zoomplus" xlink:href="#zoomPlus" x="17" y="9" onmousedown="handleZoom(evt,'in')"/>
                <use id="zoomminus" xlink:href="#zoomMin" x="42" y="9" onmousedown="handleZoom(evt,'out')"/>
                <use id="reset" xlink:href="#resetDef" x="30" y="36" onmousedown="handleReset()"/>
                <g id="arrowUp" xlink:href="#dirArrow" transform="translate(30 24)" onmousedown="handlePan(0,-1)">
                  <use xlink:href="#rim" fill="#404040">
                        <set attributeName="fill" to="#808080" begin="arrowUp.mouseover" end="arrowUp.mouseout"/>
                  </use>
                  <path fill="none" stroke="white" stroke-width="1.5" d="M0,-3.0v7 M-2.5,-0.5L0,-3.0L2.5,-0.5"/>
                </g>
                <g id="arrowRight" xlink:href="#dirArrow" transform="rotate(90) translate(36 -43)" onmousedown="handlePan(1,0)">
                  <use xlink:href="#rim" fill="#404040">
                        <set attributeName="fill" to="#808080" begin="arrowRight.mouseover" end="arrowRight.mouseout"/>
                  </use>
                  <path fill="none" stroke="white" stroke-width="1.5" d="M0,-3.0v7 M-2.5,-0.5L0,-3.0L2.5,-0.5"/>
                </g>
                <g id="arrowDown" xlink:href="#dirArrow" transform="rotate(180) translate(-30 -48)" onmousedown="handlePan(0,1)">
                  <use xlink:href="#rim" fill="#404040">
                        <set attributeName="fill" to="#808080" begin="arrowDown.mouseover" end="arrowDown.mouseout"/>
                  </use>
                  <path fill="none" stroke="white" stroke-width="1.5" d="M0,-3.0v7 M-2.5,-0.5L0,-3.0L2.5,-0.5"/>
                </g>
                <g id="arrowLeft" xlink:href="#dirArrow" transform="rotate(270) translate(-36 17)" onmousedown="handlePan(-1,0)">
                  <use xlink:href="#rim" fill="#404040">
                        <set attributeName="fill" to="#808080" begin="arrowLeft.mouseover" end="arrowLeft.mouseout"/>
                  </use>
                  <path fill="none" stroke="white" stroke-width="1.5" d="M0,-3.0v7 M-2.5,-0.5L0,-3.0L2.5,-0.5"/>
                </g>
        </g>
        <svg viewBox="0 0 15 15" width="100%" height="30px" preserveAspectRatio="xMaxYMin meet">
         <g id="arrow_out" transform="scale(0.3 0.3)">
          <a xlink:href="interfacegamedata_1_1action_1_1_action_adc36be3a570d0bad2636b91cee6f4065_icgraph_org.svg" target="_base">
           <rect id="button" ry="5" rx="5" y="6" x="6" height="38" width="38"
                fill="#f2f5e9" fill-opacity="0.5" stroke="#606060" stroke-width="1.0"/>
           <path id="arrow"
             d="M 11.500037,31.436501 C 11.940474,20.09759 22.043105,11.32322 32.158766,21.979434 L 37.068811,17.246167 C 37.068811,17.246167 37.088388,32 37.088388,32 L 22.160133,31.978069 C 22.160133,31.978069 26.997745,27.140456 26.997745,27.140456 C 18.528582,18.264221 13.291696,25.230495 11.500037,31.436501 z"
             style="fill:#404040;"/>
          </a>
         </g>
        </svg>
</svg>
