<?xml version="1.0" encoding="UTF-8" standalone="no"?>
<!DOCTYPE svg PUBLIC "-//W3C//DTD SVG 1.1//EN"
 "http://www.w3.org/Graphics/SVG/1.1/DTD/svg11.dtd">
<!-- Generated by graphviz version 2.36.0 (20140111.2315)
 -->
<!-- Title: authoring_environment.PlayerGrid Pages: 1 -->
<svg width="334pt" height="166pt"
 viewBox="0.00 0.00 334.00 166.00" xmlns="http://www.w3.org/2000/svg" xmlns:xlink="http://www.w3.org/1999/xlink">
<g id="graph0" class="graph" transform="scale(1 1) rotate(0) translate(4 162)">
<title>authoring_environment.PlayerGrid</title>
<polygon fill="white" stroke="none" points="-4,4 -4,-162 330,-162 330,4 -4,4"/>
<!-- Node1 -->
<g id="node1" class="node"><title>Node1</title>
<polygon fill="#bfbfbf" stroke="black" points="146,-0.5 146,-19.5 326,-19.5 326,-0.5 146,-0.5"/>
<text text-anchor="middle" x="236" y="-7.5" font-family="Helvetica,sans-Serif" font-size="10.00">authoring_environment.PlayerGrid</text>
</g>
<!-- Node2 -->
<g id="node2" class="node"><title>Node2</title>
<g id="a_node2"><a xlink:href="../../d9/df3/classauthoring__environment_1_1_super_grid.html" target="_top" xlink:title="authoring_environment.SuperGrid">
<polygon fill="white" stroke="black" points="43.5,-58.5 43.5,-77.5 222.5,-77.5 222.5,-58.5 43.5,-58.5"/>
<text text-anchor="middle" x="133" y="-65.5" font-family="Helvetica,sans-Serif" font-size="10.00">authoring_environment.SuperGrid</text>
</a>
</g>
</g>
<!-- Node2&#45;&gt;Node1 -->
<g id="edge1" class="edge"><title>Node2&#45;&gt;Node1</title>
<path fill="none" stroke="midnightblue" d="M157.532,-53.662C176.958,-43.1005 203.514,-28.6622 220.209,-19.5852"/>
<polygon fill="midnightblue" stroke="midnightblue" points="155.757,-50.6433 148.643,-58.4948 159.101,-56.7931 155.757,-50.6433"/>
</g>
<!-- Node3 -->
<g id="node3" class="node"><title>Node3</title>
<polygon fill="white" stroke="#bfbfbf" points="0,-127 0,-157 152,-157 152,-127 0,-127"/>
<text text-anchor="start" x="8" y="-145" font-family="Helvetica,sans-Serif" font-size="10.00">List&lt; List&lt; authoring</text>
<text text-anchor="middle" x="76" y="-134" font-family="Helvetica,sans-Serif" font-size="10.00">_environment.SuperTile &gt; &gt;</text>
</g>
<!-- Node3&#45;&gt;Node2 -->
<g id="edge2" class="edge"><title>Node3&#45;&gt;Node2</title>
<path fill="none" stroke="#9a32cd" stroke-dasharray="5,2" d="M93.6821,-118.665C104.627,-104.839 118.072,-87.8568 126.066,-77.7589"/>
<polygon fill="#9a32cd" stroke="#9a32cd" points="90.7243,-116.762 87.2614,-126.775 96.2126,-121.107 90.7243,-116.762"/>
<text text-anchor="middle" x="131" y="-99.5" font-family="Helvetica,sans-Serif" font-size="10.00"> myGrid</text>
</g>
<!-- Node4 -->
<g id="node4" class="node"><title>Node4</title>
<polygon fill="white" stroke="#bfbfbf" points="170,-132.5 170,-151.5 210,-151.5 210,-132.5 170,-132.5"/>
<text text-anchor="middle" x="190" y="-139.5" font-family="Helvetica,sans-Serif" font-size="10.00">Pane</text>
</g>
<!-- Node4&#45;&gt;Node2 -->
<g id="edge3" class="edge"><title>Node4&#45;&gt;Node2</title>
<path fill="none" stroke="#9a32cd" stroke-dasharray="5,2" d="M176.751,-124.264C165.173,-109.639 148.834,-89.0004 139.754,-77.531"/>
<polygon fill="#9a32cd" stroke="#9a32cd" points="174.286,-126.79 183.238,-132.458 179.775,-122.445 174.286,-126.79"/>
<text text-anchor="middle" x="185" y="-99.5" font-family="Helvetica,sans-Serif" font-size="10.00"> myPane</text>
</g>
<!-- Node5 -->
<g id="node5" class="node"><title>Node5</title>
<polygon fill="white" stroke="#bfbfbf" points="241,-58.5 241,-77.5 301,-77.5 301,-58.5 241,-58.5"/>
<text text-anchor="middle" x="271" y="-65.5" font-family="Helvetica,sans-Serif" font-size="10.00">Observer</text>
</g>
<!-- Node5&#45;&gt;Node1 -->
<g id="edge4" class="edge"><title>Node5&#45;&gt;Node1</title>
<path fill="none" stroke="midnightblue" d="M260.071,-49.514C253.826,-39.522 246.275,-27.4402 241.316,-19.5052"/>
<polygon fill="midnightblue" stroke="midnightblue" points="257.263,-51.625 265.531,-58.25 263.199,-47.915 257.263,-51.625"/>
</g>
</g>
</svg>
