<?xml version="1.0" encoding="UTF-8" standalone="no"?>
<!DOCTYPE svg PUBLIC "-//W3C//DTD SVG 1.1//EN"
 "http://www.w3.org/Graphics/SVG/1.1/DTD/svg11.dtd">
<!-- Generated by graphviz version 2.36.0 (20140111.2315)
 -->
<!-- Title: fxml_main.PieceTypeEditor.initialize Pages: 1 -->
<svg width="828pt" height="332pt"
 viewBox="0.00 0.00 828.00 332.00" xmlns="http://www.w3.org/2000/svg" xmlns:xlink="http://www.w3.org/1999/xlink">
<g id="graph0" class="graph" transform="scale(1 1) rotate(0) translate(4 328)">
<title>fxml_main.PieceTypeEditor.initialize</title>
<polygon fill="white" stroke="none" points="-4,4 -4,-328 824,-328 824,4 -4,4"/>
<!-- Node1 -->
<g id="node1" class="node"><title>Node1</title>
<polygon fill="#bfbfbf" stroke="black" points="0,-103.5 0,-122.5 184,-122.5 184,-103.5 0,-103.5"/>
<text text-anchor="middle" x="92" y="-110.5" font-family="Helvetica,sans-Serif" font-size="10.00">fxml_main.PieceTypeEditor.initialize</text>
</g>
<!-- Node2 -->
<g id="node2" class="node"><title>Node2</title>
<g id="a_node2"><a xlink:href="../../d9/d15/classfxml__main_1_1_piece_type_editor.html#a36caa4e38e75916af15c3b336543960f" target="_top" xlink:title="fxml_main.PieceTypeEditor.init\lGoBtn">
<polygon fill="white" stroke="black" points="220,-220 220,-250 380,-250 380,-220 220,-220"/>
<text text-anchor="start" x="228" y="-238" font-family="Helvetica,sans-Serif" font-size="10.00">fxml_main.PieceTypeEditor.init</text>
<text text-anchor="middle" x="300" y="-227" font-family="Helvetica,sans-Serif" font-size="10.00">GoBtn</text>
</a>
</g>
</g>
<!-- Node1&#45;&gt;Node2 -->
<g id="edge1" class="edge"><title>Node1&#45;&gt;Node2</title>
<path fill="none" stroke="midnightblue" d="M109.164,-122.573C142.529,-142.333 219.655,-188.009 264.662,-214.664"/>
<polygon fill="midnightblue" stroke="midnightblue" points="263.094,-217.803 273.482,-219.887 266.661,-211.78 263.094,-217.803"/>
</g>
<!-- Node7 -->
<g id="node7" class="node"><title>Node7</title>
<g id="a_node7"><a xlink:href="../../d9/d15/classfxml__main_1_1_piece_type_editor.html#a92b778ef0867e94f54920cc32bead3f4" target="_top" xlink:title="fxml_main.PieceTypeEditor.init\lImageLoader">
<polygon fill="white" stroke="black" points="220,-147 220,-177 380,-177 380,-147 220,-147"/>
<text text-anchor="start" x="228" y="-165" font-family="Helvetica,sans-Serif" font-size="10.00">fxml_main.PieceTypeEditor.init</text>
<text text-anchor="middle" x="300" y="-154" font-family="Helvetica,sans-Serif" font-size="10.00">ImageLoader</text>
</a>
</g>
</g>
<!-- Node1&#45;&gt;Node7 -->
<g id="edge6" class="edge"><title>Node1&#45;&gt;Node7</title>
<path fill="none" stroke="midnightblue" d="M133.208,-122.564C159.516,-128.822 194.662,-137.182 225.823,-144.594"/>
<polygon fill="midnightblue" stroke="midnightblue" points="225.245,-148.054 235.783,-146.963 226.865,-141.244 225.245,-148.054"/>
</g>
<!-- Node9 -->
<g id="node9" class="node"><title>Node9</title>
<g id="a_node9"><a xlink:href="../../d9/d15/classfxml__main_1_1_piece_type_editor.html#aa56796106446759161e9f02a946b8eff" target="_top" xlink:title="fxml_main.PieceTypeEditor.init\lModList">
<polygon fill="white" stroke="black" points="220,-98 220,-128 380,-128 380,-98 220,-98"/>
<text text-anchor="start" x="228" y="-116" font-family="Helvetica,sans-Serif" font-size="10.00">fxml_main.PieceTypeEditor.init</text>
<text text-anchor="middle" x="300" y="-105" font-family="Helvetica,sans-Serif" font-size="10.00">ModList</text>
</a>
</g>
</g>
<!-- Node1&#45;&gt;Node9 -->
<g id="edge8" class="edge"><title>Node1&#45;&gt;Node9</title>
<path fill="none" stroke="midnightblue" d="M184.254,-113C192.67,-113 201.193,-113 209.592,-113"/>
<polygon fill="midnightblue" stroke="midnightblue" points="209.761,-116.5 219.761,-113 209.761,-109.5 209.761,-116.5"/>
</g>
<!-- Node11 -->
<g id="node11" class="node"><title>Node11</title>
<g id="a_node11"><a xlink:href="../../d9/d15/classfxml__main_1_1_piece_type_editor.html#a6705bc85c0a9ca8bd4ca3e4907810c28" target="_top" xlink:title="fxml_main.PieceTypeEditor.init\lRangeEditorButton">
<polygon fill="white" stroke="black" points="220,-49 220,-79 380,-79 380,-49 220,-49"/>
<text text-anchor="start" x="228" y="-67" font-family="Helvetica,sans-Serif" font-size="10.00">fxml_main.PieceTypeEditor.init</text>
<text text-anchor="middle" x="300" y="-56" font-family="Helvetica,sans-Serif" font-size="10.00">RangeEditorButton</text>
</a>
</g>
</g>
<!-- Node1&#45;&gt;Node11 -->
<g id="edge10" class="edge"><title>Node1&#45;&gt;Node11</title>
<path fill="none" stroke="midnightblue" d="M133.208,-103.436C159.516,-97.1782 194.662,-88.8183 225.823,-81.4063"/>
<polygon fill="midnightblue" stroke="midnightblue" points="226.865,-84.7561 235.783,-79.037 225.245,-77.9461 226.865,-84.7561"/>
</g>
<!-- Node13 -->
<g id="node13" class="node"><title>Node13</title>
<g id="a_node13"><a xlink:href="../../d9/d15/classfxml__main_1_1_piece_type_editor.html#a9fab2fa4df9d195d41c56fbd9c64a3d3" target="_top" xlink:title="fxml_main.PieceTypeEditor.init\lStatButton">
<polygon fill="white" stroke="black" points="220,-0 220,-30 380,-30 380,-0 220,-0"/>
<text text-anchor="start" x="228" y="-18" font-family="Helvetica,sans-Serif" font-size="10.00">fxml_main.PieceTypeEditor.init</text>
<text text-anchor="middle" x="300" y="-7" font-family="Helvetica,sans-Serif" font-size="10.00">StatButton</text>
</a>
</g>
</g>
<!-- Node1&#45;&gt;Node13 -->
<g id="edge12" class="edge"><title>Node1&#45;&gt;Node13</title>
<path fill="none" stroke="midnightblue" d="M106.902,-103.436C129.674,-88.1136 176.727,-57.8726 220,-39 224.447,-37.0606 229.098,-35.2146 233.823,-33.4711"/>
<polygon fill="midnightblue" stroke="midnightblue" points="235.309,-36.6587 243.582,-30.0393 232.987,-30.0551 235.309,-36.6587"/>
</g>
<!-- Node3 -->
<g id="node3" class="node"><title>Node3</title>
<g id="a_node3"><a xlink:href="../../d9/d15/classfxml__main_1_1_piece_type_editor.html#aa4c7faabdffe53a947c2a64818742318" target="_top" xlink:title="fxml_main.PieceTypeEditor.add\lSelectedActions">
<polygon fill="white" stroke="black" points="437,-294 437,-324 601,-324 601,-294 437,-294"/>
<text text-anchor="start" x="445" y="-312" font-family="Helvetica,sans-Serif" font-size="10.00">fxml_main.PieceTypeEditor.add</text>
<text text-anchor="middle" x="519" y="-301" font-family="Helvetica,sans-Serif" font-size="10.00">SelectedActions</text>
</a>
</g>
</g>
<!-- Node2&#45;&gt;Node3 -->
<g id="edge2" class="edge"><title>Node2&#45;&gt;Node3</title>
<path fill="none" stroke="midnightblue" d="M332.682,-250.15C355.484,-260.643 387.175,-274.397 416,-284 423.833,-286.609 432.086,-289.078 440.365,-291.374"/>
<polygon fill="midnightblue" stroke="midnightblue" points="439.507,-294.767 450.073,-293.987 441.327,-288.008 439.507,-294.767"/>
</g>
<!-- Node5 -->
<g id="node5" class="node"><title>Node5</title>
<g id="a_node5"><a xlink:href="../../df/d26/classauthoring_1_1createedit_1_1_modules_list.html#a9aea540457ac1ee2828e0ede837952ee" target="_top" xlink:title="authoring.createedit.Modules\lList.getSelectedActions">
<polygon fill="white" stroke="black" points="440.5,-245 440.5,-275 597.5,-275 597.5,-245 440.5,-245"/>
<text text-anchor="start" x="448.5" y="-263" font-family="Helvetica,sans-Serif" font-size="10.00">authoring.createedit.Modules</text>
<text text-anchor="middle" x="519" y="-252" font-family="Helvetica,sans-Serif" font-size="10.00">List.getSelectedActions</text>
</a>
</g>
</g>
<!-- Node2&#45;&gt;Node5 -->
<g id="edge4" class="edge"><title>Node2&#45;&gt;Node5</title>
<path fill="none" stroke="midnightblue" d="M380.263,-244.132C396.506,-246.003 413.693,-247.983 430.215,-249.886"/>
<polygon fill="midnightblue" stroke="midnightblue" points="430.066,-253.392 440.401,-251.06 430.868,-246.438 430.066,-253.392"/>
</g>
<!-- Node6 -->
<g id="node6" class="node"><title>Node6</title>
<g id="a_node6"><a xlink:href="../../d0/d47/classgameengine_1_1movement_1_1_movement.html#a2dacd23337b06d447bcda1819e7296ec" target="_top" xlink:title="gameengine.movement.Movement.to\lString">
<polygon fill="white" stroke="black" points="419.5,-196 419.5,-226 618.5,-226 618.5,-196 419.5,-196"/>
<text text-anchor="start" x="427.5" y="-214" font-family="Helvetica,sans-Serif" font-size="10.00">gameengine.movement.Movement.to</text>
<text text-anchor="middle" x="519" y="-203" font-family="Helvetica,sans-Serif" font-size="10.00">String</text>
</a>
</g>
</g>
<!-- Node2&#45;&gt;Node6 -->
<g id="edge5" class="edge"><title>Node2&#45;&gt;Node6</title>
<path fill="none" stroke="midnightblue" d="M380.263,-226.234C389.698,-225.19 399.452,-224.111 409.209,-223.032"/>
<polygon fill="midnightblue" stroke="midnightblue" points="409.81,-226.487 419.365,-221.909 409.041,-219.53 409.81,-226.487"/>
</g>
<!-- Node4 -->
<g id="node4" class="node"><title>Node4</title>
<g id="a_node4"><a xlink:href="../../d2/da6/classauthoring_1_1data_1_1_action_data.html#af66a8db8f87c010a94eda1b2a734092f" target="_top" xlink:title="authoring.data.ActionData.get\lAction">
<polygon fill="white" stroke="black" points="658,-294 658,-324 820,-324 820,-294 658,-294"/>
<text text-anchor="start" x="666" y="-312" font-family="Helvetica,sans-Serif" font-size="10.00">authoring.data.ActionData.get</text>
<text text-anchor="middle" x="739" y="-301" font-family="Helvetica,sans-Serif" font-size="10.00">Action</text>
</a>
</g>
</g>
<!-- Node3&#45;&gt;Node4 -->
<g id="edge3" class="edge"><title>Node3&#45;&gt;Node4</title>
<path fill="none" stroke="midnightblue" d="M601.175,-309C616.369,-309 632.335,-309 647.782,-309"/>
<polygon fill="midnightblue" stroke="midnightblue" points="647.845,-312.5 657.845,-309 647.845,-305.5 647.845,-312.5"/>
</g>
<!-- Node8 -->
<g id="node8" class="node"><title>Node8</title>
<g id="a_node8"><a xlink:href="../../d9/d15/classfxml__main_1_1_piece_type_editor.html#a6df8ddc0ae51cdb1d6677c876d691316" target="_top" xlink:title="fxml_main.PieceTypeEditor.set\lImageView">
<polygon fill="white" stroke="black" points="438.5,-147 438.5,-177 599.5,-177 599.5,-147 438.5,-147"/>
<text text-anchor="start" x="446.5" y="-165" font-family="Helvetica,sans-Serif" font-size="10.00">fxml_main.PieceTypeEditor.set</text>
<text text-anchor="middle" x="519" y="-154" font-family="Helvetica,sans-Serif" font-size="10.00">ImageView</text>
</a>
</g>
</g>
<!-- Node7&#45;&gt;Node8 -->
<g id="edge7" class="edge"><title>Node7&#45;&gt;Node8</title>
<path fill="none" stroke="midnightblue" d="M380.263,-162C395.757,-162 412.11,-162 427.925,-162"/>
<polygon fill="midnightblue" stroke="midnightblue" points="428.225,-165.5 438.225,-162 428.225,-158.5 428.225,-165.5"/>
</g>
<!-- Node10 -->
<g id="node10" class="node"><title>Node10</title>
<g id="a_node10"><a xlink:href="../../d2/da6/classauthoring_1_1data_1_1_action_data.html#a24bc762fba66b9a4c37b81a0cefb288c" target="_top" xlink:title="authoring.data.ActionData.get\lActionNames">
<polygon fill="white" stroke="black" points="438,-98 438,-128 600,-128 600,-98 438,-98"/>
<text text-anchor="start" x="446" y="-116" font-family="Helvetica,sans-Serif" font-size="10.00">authoring.data.ActionData.get</text>
<text text-anchor="middle" x="519" y="-105" font-family="Helvetica,sans-Serif" font-size="10.00">ActionNames</text>
</a>
</g>
</g>
<!-- Node9&#45;&gt;Node10 -->
<g id="edge9" class="edge"><title>Node9&#45;&gt;Node10</title>
<path fill="none" stroke="midnightblue" d="M380.263,-113C395.657,-113 411.9,-113 427.62,-113"/>
<polygon fill="midnightblue" stroke="midnightblue" points="427.861,-116.5 437.861,-113 427.861,-109.5 427.861,-116.5"/>
</g>
<!-- Node12 -->
<g id="node12" class="node"><title>Node12</title>
<g id="a_node12"><a xlink:href="../../d0/d47/classgameengine_1_1movement_1_1_movement.html#ad86bac051f6e073b2f93579f2efa3548" target="_top" xlink:title="gameengine.movement.Movement.get\lRelativeMoves">
<polygon fill="white" stroke="black" points="416.5,-49 416.5,-79 621.5,-79 621.5,-49 416.5,-49"/>
<text text-anchor="start" x="424.5" y="-67" font-family="Helvetica,sans-Serif" font-size="10.00">gameengine.movement.Movement.get</text>
<text text-anchor="middle" x="519" y="-56" font-family="Helvetica,sans-Serif" font-size="10.00">RelativeMoves</text>
</a>
</g>
</g>
<!-- Node11&#45;&gt;Node12 -->
<g id="edge11" class="edge"><title>Node11&#45;&gt;Node12</title>
<path fill="none" stroke="midnightblue" d="M380.263,-64C388.704,-64 397.4,-64 406.125,-64"/>
<polygon fill="midnightblue" stroke="midnightblue" points="406.368,-67.5001 416.368,-64 406.368,-60.5001 406.368,-67.5001"/>
</g>
<!-- Node14 -->
<g id="node14" class="node"><title>Node14</title>
<g id="a_node14"><a xlink:href="../../d9/d15/classfxml__main_1_1_piece_type_editor.html#acbff0ae509ae31a399a9f2acc18c4424" target="_top" xlink:title="fxml_main.PieceTypeEditor.show\lStatEditorWindow">
<polygon fill="white" stroke="black" points="434,-0 434,-30 604,-30 604,-0 434,-0"/>
<text text-anchor="start" x="442" y="-18" font-family="Helvetica,sans-Serif" font-size="10.00">fxml_main.PieceTypeEditor.show</text>
<text text-anchor="middle" x="519" y="-7" font-family="Helvetica,sans-Serif" font-size="10.00">StatEditorWindow</text>
</a>
</g>
</g>
<!-- Node13&#45;&gt;Node14 -->
<g id="edge13" class="edge"><title>Node13&#45;&gt;Node14</title>
<path fill="none" stroke="midnightblue" d="M380.263,-15C394.292,-15 409.026,-15 423.427,-15"/>
<polygon fill="midnightblue" stroke="midnightblue" points="423.84,-18.5001 433.84,-15 423.84,-11.5001 423.84,-18.5001"/>
</g>
</g>
</svg>
