<?xml version="1.0" encoding="UTF-8" standalone="no"?>
<!DOCTYPE svg PUBLIC "-//W3C//DTD SVG 1.1//EN"
 "http://www.w3.org/Graphics/SVG/1.1/DTD/svg11.dtd">
<!-- Generated by graphviz version 2.36.0 (20140111.2315)
 -->
<!-- Title: fxml_main.PieceTypeEditor.initModList Pages: 1 -->
<svg width="806pt" height="38pt"
 viewBox="0.00 0.00 806.00 38.00" xmlns="http://www.w3.org/2000/svg" xmlns:xlink="http://www.w3.org/1999/xlink">
<g id="graph0" class="graph" transform="scale(1 1) rotate(0) translate(4 34)">
<title>fxml_main.PieceTypeEditor.initModList</title>
<polygon fill="white" stroke="none" points="-4,4 -4,-34 802,-34 802,4 -4,4"/>
<!-- Node1 -->
<g id="node1" class="node"><title>Node1</title>
<polygon fill="#bfbfbf" stroke="black" points="0,-0 0,-30 160,-30 160,-0 0,-0"/>
<text text-anchor="start" x="8" y="-18" font-family="Helvetica,sans-Serif" font-size="10.00">fxml_main.PieceTypeEditor.init</text>
<text text-anchor="middle" x="80" y="-7" font-family="Helvetica,sans-Serif" font-size="10.00">ModList</text>
</g>
<!-- Node2 -->
<g id="node2" class="node"><title>Node2</title>
<g id="a_node2"><a xlink:href="../../d9/d15/classfxml__main_1_1_piece_type_editor.html#a4d5ecc37717a0f7dee7d88e74792388a" target="_top" xlink:title="fxml_main.PieceTypeEditor.initialize">
<polygon fill="white" stroke="black" points="196,-5.5 196,-24.5 380,-24.5 380,-5.5 196,-5.5"/>
<text text-anchor="middle" x="288" y="-12.5" font-family="Helvetica,sans-Serif" font-size="10.00">fxml_main.PieceTypeEditor.initialize</text>
</a>
</g>
</g>
<!-- Node1&#45;&gt;Node2 -->
<g id="edge1" class="edge"><title>Node1&#45;&gt;Node2</title>
<path fill="none" stroke="midnightblue" d="M170.284,-15C178.733,-15 187.307,-15 195.774,-15"/>
<polygon fill="midnightblue" stroke="midnightblue" points="170.056,-11.5001 160.056,-15 170.056,-18.5001 170.056,-11.5001"/>
</g>
<!-- Node3 -->
<g id="node3" class="node"><title>Node3</title>
<g id="a_node3"><a xlink:href="../../d9/d15/classfxml__main_1_1_piece_type_editor.html#ab6e627c5d9474cd4c497ad70eb51a0c6" target="_top" xlink:title="fxml_main.PieceTypeEditor.constructor">
<polygon fill="white" stroke="black" points="416,-5.5 416,-24.5 616,-24.5 616,-5.5 416,-5.5"/>
<text text-anchor="middle" x="516" y="-12.5" font-family="Helvetica,sans-Serif" font-size="10.00">fxml_main.PieceTypeEditor.constructor</text>
</a>
</g>
</g>
<!-- Node2&#45;&gt;Node3 -->
<g id="edge2" class="edge"><title>Node2&#45;&gt;Node3</title>
<path fill="none" stroke="midnightblue" d="M390.539,-15C399.002,-15 407.552,-15 415.996,-15"/>
<polygon fill="midnightblue" stroke="midnightblue" points="390.271,-11.5001 380.271,-15 390.271,-18.5001 390.271,-11.5001"/>
</g>
<!-- Node4 -->
<g id="node4" class="node"><title>Node4</title>
<g id="a_node4"><a xlink:href="../../d9/d15/classfxml__main_1_1_piece_type_editor.html#aba63586973ffa81f331904a44690684c" target="_top" xlink:title="fxml_main.PieceTypeEditor.\lPieceTypeEditor">
<polygon fill="white" stroke="black" points="652,-0 652,-30 798,-30 798,-0 652,-0"/>
<text text-anchor="start" x="660" y="-18" font-family="Helvetica,sans-Serif" font-size="10.00">fxml_main.PieceTypeEditor.</text>
<text text-anchor="middle" x="725" y="-7" font-family="Helvetica,sans-Serif" font-size="10.00">PieceTypeEditor</text>
</a>
</g>
</g>
<!-- Node3&#45;&gt;Node4 -->
<g id="edge3" class="edge"><title>Node3&#45;&gt;Node4</title>
<path fill="none" stroke="midnightblue" d="M626.415,-15C635.06,-15 643.65,-15 651.942,-15"/>
<polygon fill="midnightblue" stroke="midnightblue" points="626.256,-11.5001 616.256,-15 626.256,-18.5001 626.256,-11.5001"/>
</g>
</g>
</svg>
