<?xml version="1.0" encoding="UTF-8" standalone="no"?>
<!DOCTYPE svg PUBLIC "-//W3C//DTD SVG 1.1//EN"
 "http://www.w3.org/Graphics/SVG/1.1/DTD/svg11.dtd">
<!-- Generated by graphviz version 2.36.0 (20140111.2315)
 -->
<!-- Title: fxml_main.PieceTypeEditor.PieceTypeEditor Pages: 1 -->
<!--zoomable 622 -->
<svg id="main" version="1.1" xmlns="http://www.w3.org/2000/svg" xmlns:xlink="http://www.w3.org/1999/xlink" xml:space="preserve" onload="init(evt)">
<style type="text/css"><![CDATA[
.edge:hover path { stroke: red; }
.edge:hover polygon { stroke: red; fill: red; }
]]></style>
<script type="text/javascript"><![CDATA[
var edges = document.getElementsByTagName('g');
if (edges && edges.length) {
  for (var i=0;i<edges.length;i++) {
    if (edges[i].id.substr(0,4)=='edge') {
      edges[i].setAttribute('class','edge');
    }
  }
}
]]></script>
        <defs>
                <circle id="rim" cx="0" cy="0" r="7"/>
                <circle id="rim2" cx="0" cy="0" r="3.5"/>
                <g id="zoomPlus">
                        <use xlink:href="#rim" fill="#404040">
                                <set attributeName="fill" to="#808080" begin="zoomplus.mouseover" end="zoomplus.mouseout"/>
                        </use>
                        <path d="M-4,0h8M0,-4v8" fill="none" stroke="white" stroke-width="1.5" pointer-events="none"/>
                </g>
                <g id="zoomMin">
                        <use xlink:href="#rim" fill="#404040">
                                <set attributeName="fill" to="#808080" begin="zoomminus.mouseover" end="zoomminus.mouseout"/>
                        </use>
                        <path d="M-4,0h8" fill="none" stroke="white" stroke-width="1.5" pointer-events="none"/>
                </g>
                <g id="dirArrow">
                        <path fill="none" stroke="white" stroke-width="1.5" d="M0,-3.0v7 M-2.5,-0.5L0,-3.0L2.5,-0.5"/>
                </g>
               <g id="resetDef">
                       <use xlink:href="#rim2" fill="#404040">
                               <set attributeName="fill" to="#808080" begin="reset.mouseover" end="reset.mouseout"/>
                       </use>
               </g>
        </defs>

<script type="text/javascript">
var viewWidth = 1246;
var viewHeight = 622;
var sectionId = 'dynsection-3';
</script>
<script xlink:href="../../svgpan.js"/>
<svg id="graph" class="graph">
<g id="viewport">
<title>fxml_main.PieceTypeEditor.PieceTypeEditor</title>
<polygon fill="white" stroke="none" points="-4,4 -4,-618 1242,-618 1242,4 -4,4"/>
<!-- Node1 -->
<g id="node1" class="node"><title>Node1</title>
<polygon fill="#bfbfbf" stroke="black" points="0,-246 0,-276 146,-276 146,-246 0,-246"/>
<text text-anchor="start" x="8" y="-264" font-family="Helvetica,sans-Serif" font-size="10.00">fxml_main.PieceTypeEditor.</text>
<text text-anchor="middle" x="73" y="-253" font-family="Helvetica,sans-Serif" font-size="10.00">PieceTypeEditor</text>
</g>
<!-- Node2 -->
<g id="node2" class="node"><title>Node2</title>
<g id="a_node2"><a xlink:href="../../d9/d15/classfxml__main_1_1_piece_type_editor.html#ab6e627c5d9474cd4c497ad70eb51a0c6" target="_top" xlink:title="fxml_main.PieceTypeEditor.constructor">
<polygon fill="white" stroke="black" points="182,-491.5 182,-510.5 382,-510.5 382,-491.5 182,-491.5"/>
<text text-anchor="middle" x="282" y="-498.5" font-family="Helvetica,sans-Serif" font-size="10.00">fxml_main.PieceTypeEditor.constructor</text>
</a>
</g>
</g>
<!-- Node1&#45;&gt;Node2 -->
<g id="edge1" class="edge"><title>Node1&#45;&gt;Node2</title>
<path fill="none" stroke="midnightblue" d="M76.6897,-276.183C84.6872,-316.57 112.254,-427.216 182,-481 184.864,-483.208 187.909,-485.191 191.087,-486.969"/>
<polygon fill="midnightblue" stroke="midnightblue" points="189.833,-490.251 200.358,-491.46 192.884,-483.951 189.833,-490.251"/>
</g>
<!-- Node17 -->
<g id="node17" class="node"><title>Node17</title>
<g id="a_node17"><a xlink:href="../../d9/df2/classgamedata_1_1gamecomponents_1_1_grid_component.html#abbee382ddf73ae02286b64d067b5a78f" target="_top" xlink:title="gamedata.gamecomponents.\lGridComponent.getID">
<polygon fill="white" stroke="black" points="202,-442 202,-472 362,-472 362,-442 202,-442"/>
<text text-anchor="start" x="210" y="-460" font-family="Helvetica,sans-Serif" font-size="10.00">gamedata.gamecomponents.</text>
<text text-anchor="middle" x="282" y="-449" font-family="Helvetica,sans-Serif" font-size="10.00">GridComponent.getID</text>
</a>
</g>
</g>
<!-- Node1&#45;&gt;Node17 -->
<g id="edge16" class="edge"><title>Node1&#45;&gt;Node17</title>
<path fill="none" stroke="midnightblue" d="M79.0817,-276.05C91.2098,-309.593 125.149,-390.774 182,-432 185.296,-434.39 188.798,-436.553 192.442,-438.509"/>
<polygon fill="midnightblue" stroke="midnightblue" points="191.224,-441.807 201.755,-442.961 194.242,-435.491 191.224,-441.807"/>
</g>
<!-- Node18 -->
<g id="node18" class="node"><title>Node18</title>
<g id="a_node18"><a xlink:href="../../d9/df2/classgamedata_1_1gamecomponents_1_1_grid_component.html#afb88b190b2f6bc5a77e94b0306839476" target="_top" xlink:title="gamedata.gamecomponents.\lGridComponent.getImageLocation">
<polygon fill="white" stroke="black" points="191,-393 191,-423 373,-423 373,-393 191,-393"/>
<text text-anchor="start" x="199" y="-411" font-family="Helvetica,sans-Serif" font-size="10.00">gamedata.gamecomponents.</text>
<text text-anchor="middle" x="282" y="-400" font-family="Helvetica,sans-Serif" font-size="10.00">GridComponent.getImageLocation</text>
</a>
</g>
</g>
<!-- Node1&#45;&gt;Node18 -->
<g id="edge17" class="edge"><title>Node1&#45;&gt;Node18</title>
<path fill="none" stroke="midnightblue" d="M83.1966,-276.398C99.6218,-302.515 136.573,-355.35 182,-383 185.577,-385.177 189.338,-387.166 193.217,-388.982"/>
<polygon fill="midnightblue" stroke="midnightblue" points="191.881,-392.217 202.453,-392.913 194.622,-385.776 191.881,-392.217"/>
</g>
<!-- Node19 -->
<g id="node19" class="node"><title>Node19</title>
<g id="a_node19"><a xlink:href="../../d4/d63/classgamedata_1_1gamecomponents_1_1_piece.html#a6c6a29c8f755fc181cbe1118dcf557a1" target="_top" xlink:title="gamedata.gamecomponents.\lPiece.getInventory">
<polygon fill="white" stroke="black" points="202,-344 202,-374 362,-374 362,-344 202,-344"/>
<text text-anchor="start" x="210" y="-362" font-family="Helvetica,sans-Serif" font-size="10.00">gamedata.gamecomponents.</text>
<text text-anchor="middle" x="282" y="-351" font-family="Helvetica,sans-Serif" font-size="10.00">Piece.getInventory</text>
</a>
</g>
</g>
<!-- Node1&#45;&gt;Node19 -->
<g id="edge18" class="edge"><title>Node1&#45;&gt;Node19</title>
<path fill="none" stroke="midnightblue" d="M91.9453,-276.032C112.479,-292.514 147.71,-318.651 182,-334 187.442,-336.436 193.163,-338.663 198.995,-340.695"/>
<polygon fill="midnightblue" stroke="midnightblue" points="198.294,-344.148 208.886,-343.931 200.471,-337.495 198.294,-344.148"/>
</g>
<!-- Node20 -->
<g id="node20" class="node"><title>Node20</title>
<g id="a_node20"><a xlink:href="../../d4/d63/classgamedata_1_1gamecomponents_1_1_piece.html#a8f395c7011a6c1549486c855b424b2c0" target="_top" xlink:title="gamedata.gamecomponents.\lPiece.getMovement">
<polygon fill="white" stroke="black" points="202,-295 202,-325 362,-325 362,-295 202,-295"/>
<text text-anchor="start" x="210" y="-313" font-family="Helvetica,sans-Serif" font-size="10.00">gamedata.gamecomponents.</text>
<text text-anchor="middle" x="282" y="-302" font-family="Helvetica,sans-Serif" font-size="10.00">Piece.getMovement</text>
</a>
</g>
</g>
<!-- Node1&#45;&gt;Node20 -->
<g id="edge19" class="edge"><title>Node1&#45;&gt;Node20</title>
<path fill="none" stroke="midnightblue" d="M137.514,-276.035C159.668,-281.279 184.711,-287.207 207.602,-292.626"/>
<polygon fill="midnightblue" stroke="midnightblue" points="207.069,-296.096 217.607,-294.994 208.682,-289.284 207.069,-296.096"/>
</g>
<!-- Node21 -->
<g id="node21" class="node"><title>Node21</title>
<g id="a_node21"><a xlink:href="../../d9/df2/classgamedata_1_1gamecomponents_1_1_grid_component.html#a36576ab9ef1e03a9b5855f1f05e2190f" target="_top" xlink:title="gamedata.gamecomponents.\lGridComponent.getName">
<polygon fill="white" stroke="black" points="202,-246 202,-276 362,-276 362,-246 202,-246"/>
<text text-anchor="start" x="210" y="-264" font-family="Helvetica,sans-Serif" font-size="10.00">gamedata.gamecomponents.</text>
<text text-anchor="middle" x="282" y="-253" font-family="Helvetica,sans-Serif" font-size="10.00">GridComponent.getName</text>
</a>
</g>
</g>
<!-- Node1&#45;&gt;Node21 -->
<g id="edge20" class="edge"><title>Node1&#45;&gt;Node21</title>
<path fill="none" stroke="midnightblue" d="M146.108,-261C160.708,-261 176.228,-261 191.346,-261"/>
<polygon fill="midnightblue" stroke="midnightblue" points="191.733,-264.5 201.733,-261 191.733,-257.5 191.733,-264.5"/>
</g>
<!-- Node22 -->
<g id="node22" class="node"><title>Node22</title>
<g id="a_node22"><a xlink:href="../../d4/d63/classgamedata_1_1gamecomponents_1_1_piece.html#a0f6d20ced51b9741e63b4889e221029e" target="_top" xlink:title="gamedata.gamecomponents.\lPiece.getOriginalActions">
<polygon fill="white" stroke="black" points="202,-197 202,-227 362,-227 362,-197 202,-197"/>
<text text-anchor="start" x="210" y="-215" font-family="Helvetica,sans-Serif" font-size="10.00">gamedata.gamecomponents.</text>
<text text-anchor="middle" x="282" y="-204" font-family="Helvetica,sans-Serif" font-size="10.00">Piece.getOriginalActions</text>
</a>
</g>
</g>
<!-- Node1&#45;&gt;Node22 -->
<g id="edge21" class="edge"><title>Node1&#45;&gt;Node22</title>
<path fill="none" stroke="midnightblue" d="M137.514,-245.965C159.668,-240.721 184.711,-234.793 207.602,-229.374"/>
<polygon fill="midnightblue" stroke="midnightblue" points="208.682,-232.716 217.607,-227.006 207.069,-225.904 208.682,-232.716"/>
</g>
<!-- Node23 -->
<g id="node23" class="node"><title>Node23</title>
<g id="a_node23"><a xlink:href="../../d4/d63/classgamedata_1_1gamecomponents_1_1_piece.html#a82c9af6da8810bb8fb2eaec8ee0d9c7d" target="_top" xlink:title="gamedata.gamecomponents.\lPiece.getPlayerID">
<polygon fill="white" stroke="black" points="202,-148 202,-178 362,-178 362,-148 202,-148"/>
<text text-anchor="start" x="210" y="-166" font-family="Helvetica,sans-Serif" font-size="10.00">gamedata.gamecomponents.</text>
<text text-anchor="middle" x="282" y="-155" font-family="Helvetica,sans-Serif" font-size="10.00">Piece.getPlayerID</text>
</a>
</g>
</g>
<!-- Node1&#45;&gt;Node23 -->
<g id="edge22" class="edge"><title>Node1&#45;&gt;Node23</title>
<path fill="none" stroke="midnightblue" d="M91.9453,-245.968C112.479,-229.486 147.71,-203.349 182,-188 187.442,-185.564 193.163,-183.337 198.995,-181.305"/>
<polygon fill="midnightblue" stroke="midnightblue" points="200.471,-184.505 208.886,-178.069 198.294,-177.852 200.471,-184.505"/>
</g>
<!-- Node24 -->
<g id="node24" class="node"><title>Node24</title>
<g id="a_node24"><a xlink:href="../../d4/d63/classgamedata_1_1gamecomponents_1_1_piece.html#aff9c4298f1796f022bc82ee138e925a4" target="_top" xlink:title="gamedata.gamecomponents.\lPiece.getStats">
<polygon fill="white" stroke="black" points="202,-99 202,-129 362,-129 362,-99 202,-99"/>
<text text-anchor="start" x="210" y="-117" font-family="Helvetica,sans-Serif" font-size="10.00">gamedata.gamecomponents.</text>
<text text-anchor="middle" x="282" y="-106" font-family="Helvetica,sans-Serif" font-size="10.00">Piece.getStats</text>
</a>
</g>
</g>
<!-- Node1&#45;&gt;Node24 -->
<g id="edge23" class="edge"><title>Node1&#45;&gt;Node24</title>
<path fill="none" stroke="midnightblue" d="M83.1966,-245.602C99.6218,-219.485 136.573,-166.65 182,-139 185.577,-136.823 189.338,-134.834 193.217,-133.018"/>
<polygon fill="midnightblue" stroke="midnightblue" points="194.622,-136.224 202.453,-129.087 191.881,-129.783 194.622,-136.224"/>
</g>
<!-- Node25 -->
<g id="node25" class="node"><title>Node25</title>
<g id="a_node25"><a xlink:href="../../d4/d63/classgamedata_1_1gamecomponents_1_1_piece.html#aca5b32a5854e245da146bed02be6037e" target="_top" xlink:title="gamedata.gamecomponents.\lPiece.hasInventory">
<polygon fill="white" stroke="black" points="202,-50 202,-80 362,-80 362,-50 202,-50"/>
<text text-anchor="start" x="210" y="-68" font-family="Helvetica,sans-Serif" font-size="10.00">gamedata.gamecomponents.</text>
<text text-anchor="middle" x="282" y="-57" font-family="Helvetica,sans-Serif" font-size="10.00">Piece.hasInventory</text>
</a>
</g>
</g>
<!-- Node1&#45;&gt;Node25 -->
<g id="edge24" class="edge"><title>Node1&#45;&gt;Node25</title>
<path fill="none" stroke="midnightblue" d="M79.0817,-245.95C91.2098,-212.407 125.149,-131.226 182,-90 185.296,-87.6097 188.798,-85.4471 192.442,-83.4905"/>
<polygon fill="midnightblue" stroke="midnightblue" points="194.242,-86.5092 201.755,-79.0391 191.224,-80.1934 194.242,-86.5092"/>
</g>
<!-- Node26 -->
<g id="node26" class="node"><title>Node26</title>
<g id="a_node26"><a xlink:href="../../d4/d63/classgamedata_1_1gamecomponents_1_1_piece.html#a87876ab57300b34bad5206ce5060976b" target="_top" xlink:title="gamedata.gamecomponents.\lPiece.isItem">
<polygon fill="white" stroke="black" points="202,-1 202,-31 362,-31 362,-1 202,-1"/>
<text text-anchor="start" x="210" y="-19" font-family="Helvetica,sans-Serif" font-size="10.00">gamedata.gamecomponents.</text>
<text text-anchor="middle" x="282" y="-8" font-family="Helvetica,sans-Serif" font-size="10.00">Piece.isItem</text>
</a>
</g>
</g>
<!-- Node1&#45;&gt;Node26 -->
<g id="edge25" class="edge"><title>Node1&#45;&gt;Node26</title>
<path fill="none" stroke="midnightblue" d="M76.8338,-245.999C85.1892,-206.065 113.565,-96.4429 182,-41 185.332,-38.3009 188.917,-35.8887 192.68,-33.7332"/>
<polygon fill="midnightblue" stroke="midnightblue" points="194.394,-36.7884 201.742,-29.1555 191.238,-30.5403 194.394,-36.7884"/>
</g>
<!-- Node3 -->
<g id="node3" class="node"><title>Node3</title>
<g id="a_node3"><a xlink:href="../../d9/d15/classfxml__main_1_1_piece_type_editor.html#a4d5ecc37717a0f7dee7d88e74792388a" target="_top" xlink:title="fxml_main.PieceTypeEditor.initialize">
<polygon fill="white" stroke="black" points="418,-491.5 418,-510.5 602,-510.5 602,-491.5 418,-491.5"/>
<text text-anchor="middle" x="510" y="-498.5" font-family="Helvetica,sans-Serif" font-size="10.00">fxml_main.PieceTypeEditor.initialize</text>
</a>
</g>
</g>
<!-- Node2&#45;&gt;Node3 -->
<g id="edge2" class="edge"><title>Node2&#45;&gt;Node3</title>
<path fill="none" stroke="midnightblue" d="M382.127,-501C390.559,-501 399.095,-501 407.544,-501"/>
<polygon fill="midnightblue" stroke="midnightblue" points="407.795,-504.5 417.795,-501 407.795,-497.5 407.795,-504.5"/>
</g>
<!-- Node4 -->
<g id="node4" class="node"><title>Node4</title>
<g id="a_node4"><a xlink:href="../../d9/d15/classfxml__main_1_1_piece_type_editor.html#a6705bc85c0a9ca8bd4ca3e4907810c28" target="_top" xlink:title="fxml_main.PieceTypeEditor.init\lRangeEditorButton">
<polygon fill="white" stroke="black" points="638,-584 638,-614 798,-614 798,-584 638,-584"/>
<text text-anchor="start" x="646" y="-602" font-family="Helvetica,sans-Serif" font-size="10.00">fxml_main.PieceTypeEditor.init</text>
<text text-anchor="middle" x="718" y="-591" font-family="Helvetica,sans-Serif" font-size="10.00">RangeEditorButton</text>
</a>
</g>
</g>
<!-- Node3&#45;&gt;Node4 -->
<g id="edge3" class="edge"><title>Node3&#45;&gt;Node4</title>
<path fill="none" stroke="midnightblue" d="M525.321,-510.607C548.295,-525.698 595.161,-555.172 638,-574 643.103,-576.243 648.472,-578.38 653.908,-580.391"/>
<polygon fill="midnightblue" stroke="midnightblue" points="653.129,-583.828 663.724,-583.871 655.469,-577.231 653.129,-583.828"/>
</g>
<!-- Node6 -->
<g id="node6" class="node"><title>Node6</title>
<g id="a_node6"><a xlink:href="../../d9/d15/classfxml__main_1_1_piece_type_editor.html#a9fab2fa4df9d195d41c56fbd9c64a3d3" target="_top" xlink:title="fxml_main.PieceTypeEditor.init\lStatButton">
<polygon fill="white" stroke="black" points="638,-535 638,-565 798,-565 798,-535 638,-535"/>
<text text-anchor="start" x="646" y="-553" font-family="Helvetica,sans-Serif" font-size="10.00">fxml_main.PieceTypeEditor.init</text>
<text text-anchor="middle" x="718" y="-542" font-family="Helvetica,sans-Serif" font-size="10.00">StatButton</text>
</a>
</g>
</g>
<!-- Node3&#45;&gt;Node6 -->
<g id="edge5" class="edge"><title>Node3&#45;&gt;Node6</title>
<path fill="none" stroke="midnightblue" d="M551.208,-510.564C577.516,-516.822 612.662,-525.182 643.823,-532.594"/>
<polygon fill="midnightblue" stroke="midnightblue" points="643.245,-536.054 653.783,-534.963 644.865,-529.244 643.245,-536.054"/>
</g>
<!-- Node8 -->
<g id="node8" class="node"><title>Node8</title>
<g id="a_node8"><a xlink:href="../../d9/d15/classfxml__main_1_1_piece_type_editor.html#aa56796106446759161e9f02a946b8eff" target="_top" xlink:title="fxml_main.PieceTypeEditor.init\lModList">
<polygon fill="white" stroke="black" points="638,-486 638,-516 798,-516 798,-486 638,-486"/>
<text text-anchor="start" x="646" y="-504" font-family="Helvetica,sans-Serif" font-size="10.00">fxml_main.PieceTypeEditor.init</text>
<text text-anchor="middle" x="718" y="-493" font-family="Helvetica,sans-Serif" font-size="10.00">ModList</text>
</a>
</g>
</g>
<!-- Node3&#45;&gt;Node8 -->
<g id="edge7" class="edge"><title>Node3&#45;&gt;Node8</title>
<path fill="none" stroke="midnightblue" d="M602.254,-501C610.67,-501 619.193,-501 627.592,-501"/>
<polygon fill="midnightblue" stroke="midnightblue" points="627.761,-504.5 637.761,-501 627.761,-497.5 627.761,-504.5"/>
</g>
<!-- Node10 -->
<g id="node10" class="node"><title>Node10</title>
<g id="a_node10"><a xlink:href="../../d9/d15/classfxml__main_1_1_piece_type_editor.html#a92b778ef0867e94f54920cc32bead3f4" target="_top" xlink:title="fxml_main.PieceTypeEditor.init\lImageLoader">
<polygon fill="white" stroke="black" points="638,-437 638,-467 798,-467 798,-437 638,-437"/>
<text text-anchor="start" x="646" y="-455" font-family="Helvetica,sans-Serif" font-size="10.00">fxml_main.PieceTypeEditor.init</text>
<text text-anchor="middle" x="718" y="-444" font-family="Helvetica,sans-Serif" font-size="10.00">ImageLoader</text>
</a>
</g>
</g>
<!-- Node3&#45;&gt;Node10 -->
<g id="edge9" class="edge"><title>Node3&#45;&gt;Node10</title>
<path fill="none" stroke="midnightblue" d="M551.208,-491.436C577.516,-485.178 612.662,-476.818 643.823,-469.406"/>
<polygon fill="midnightblue" stroke="midnightblue" points="644.865,-472.756 653.783,-467.037 643.245,-465.946 644.865,-472.756"/>
</g>
<!-- Node12 -->
<g id="node12" class="node"><title>Node12</title>
<g id="a_node12"><a xlink:href="../../d9/d15/classfxml__main_1_1_piece_type_editor.html#a36caa4e38e75916af15c3b336543960f" target="_top" xlink:title="fxml_main.PieceTypeEditor.init\lGoBtn">
<polygon fill="white" stroke="black" points="638,-363 638,-393 798,-393 798,-363 638,-363"/>
<text text-anchor="start" x="646" y="-381" font-family="Helvetica,sans-Serif" font-size="10.00">fxml_main.PieceTypeEditor.init</text>
<text text-anchor="middle" x="718" y="-370" font-family="Helvetica,sans-Serif" font-size="10.00">GoBtn</text>
</a>
</g>
</g>
<!-- Node3&#45;&gt;Node12 -->
<g id="edge11" class="edge"><title>Node3&#45;&gt;Node12</title>
<path fill="none" stroke="midnightblue" d="M527.164,-491.348C560.618,-471.374 638.066,-425.131 683.021,-398.289"/>
<polygon fill="midnightblue" stroke="midnightblue" points="685.032,-401.164 691.824,-393.032 681.444,-395.154 685.032,-401.164"/>
</g>
<!-- Node5 -->
<g id="node5" class="node"><title>Node5</title>
<g id="a_node5"><a xlink:href="../../d0/d47/classgameengine_1_1movement_1_1_movement.html#ad86bac051f6e073b2f93579f2efa3548" target="_top" xlink:title="gameengine.movement.Movement.get\lRelativeMoves">
<polygon fill="white" stroke="black" points="834.5,-584 834.5,-614 1039.5,-614 1039.5,-584 834.5,-584"/>
<text text-anchor="start" x="842.5" y="-602" font-family="Helvetica,sans-Serif" font-size="10.00">gameengine.movement.Movement.get</text>
<text text-anchor="middle" x="937" y="-591" font-family="Helvetica,sans-Serif" font-size="10.00">RelativeMoves</text>
</a>
</g>
</g>
<!-- Node4&#45;&gt;Node5 -->
<g id="edge4" class="edge"><title>Node4&#45;&gt;Node5</title>
<path fill="none" stroke="midnightblue" d="M798.263,-599C806.704,-599 815.4,-599 824.125,-599"/>
<polygon fill="midnightblue" stroke="midnightblue" points="824.368,-602.5 834.368,-599 824.368,-595.5 824.368,-602.5"/>
</g>
<!-- Node7 -->
<g id="node7" class="node"><title>Node7</title>
<g id="a_node7"><a xlink:href="../../d9/d15/classfxml__main_1_1_piece_type_editor.html#acbff0ae509ae31a399a9f2acc18c4424" target="_top" xlink:title="fxml_main.PieceTypeEditor.show\lStatEditorWindow">
<polygon fill="white" stroke="black" points="852,-535 852,-565 1022,-565 1022,-535 852,-535"/>
<text text-anchor="start" x="860" y="-553" font-family="Helvetica,sans-Serif" font-size="10.00">fxml_main.PieceTypeEditor.show</text>
<text text-anchor="middle" x="937" y="-542" font-family="Helvetica,sans-Serif" font-size="10.00">StatEditorWindow</text>
</a>
</g>
</g>
<!-- Node6&#45;&gt;Node7 -->
<g id="edge6" class="edge"><title>Node6&#45;&gt;Node7</title>
<path fill="none" stroke="midnightblue" d="M798.263,-550C812.292,-550 827.026,-550 841.427,-550"/>
<polygon fill="midnightblue" stroke="midnightblue" points="841.84,-553.5 851.84,-550 841.84,-546.5 841.84,-553.5"/>
</g>
<!-- Node9 -->
<g id="node9" class="node"><title>Node9</title>
<g id="a_node9"><a xlink:href="../../d2/da6/classauthoring_1_1data_1_1_action_data.html#a24bc762fba66b9a4c37b81a0cefb288c" target="_top" xlink:title="authoring.data.ActionData.get\lActionNames">
<polygon fill="white" stroke="black" points="856,-486 856,-516 1018,-516 1018,-486 856,-486"/>
<text text-anchor="start" x="864" y="-504" font-family="Helvetica,sans-Serif" font-size="10.00">authoring.data.ActionData.get</text>
<text text-anchor="middle" x="937" y="-493" font-family="Helvetica,sans-Serif" font-size="10.00">ActionNames</text>
</a>
</g>
</g>
<!-- Node8&#45;&gt;Node9 -->
<g id="edge8" class="edge"><title>Node8&#45;&gt;Node9</title>
<path fill="none" stroke="midnightblue" d="M798.263,-501C813.657,-501 829.9,-501 845.62,-501"/>
<polygon fill="midnightblue" stroke="midnightblue" points="845.861,-504.5 855.861,-501 845.861,-497.5 845.861,-504.5"/>
</g>
<!-- Node11 -->
<g id="node11" class="node"><title>Node11</title>
<g id="a_node11"><a xlink:href="../../d9/d15/classfxml__main_1_1_piece_type_editor.html#a6df8ddc0ae51cdb1d6677c876d691316" target="_top" xlink:title="fxml_main.PieceTypeEditor.set\lImageView">
<polygon fill="white" stroke="black" points="856.5,-437 856.5,-467 1017.5,-467 1017.5,-437 856.5,-437"/>
<text text-anchor="start" x="864.5" y="-455" font-family="Helvetica,sans-Serif" font-size="10.00">fxml_main.PieceTypeEditor.set</text>
<text text-anchor="middle" x="937" y="-444" font-family="Helvetica,sans-Serif" font-size="10.00">ImageView</text>
</a>
</g>
</g>
<!-- Node10&#45;&gt;Node11 -->
<g id="edge10" class="edge"><title>Node10&#45;&gt;Node11</title>
<path fill="none" stroke="midnightblue" d="M798.263,-452C813.757,-452 830.11,-452 845.925,-452"/>
<polygon fill="midnightblue" stroke="midnightblue" points="846.225,-455.5 856.225,-452 846.225,-448.5 846.225,-455.5"/>
</g>
<!-- Node13 -->
<g id="node13" class="node"><title>Node13</title>
<g id="a_node13"><a xlink:href="../../d9/d15/classfxml__main_1_1_piece_type_editor.html#aa4c7faabdffe53a947c2a64818742318" target="_top" xlink:title="fxml_main.PieceTypeEditor.add\lSelectedActions">
<polygon fill="white" stroke="black" points="855,-388 855,-418 1019,-418 1019,-388 855,-388"/>
<text text-anchor="start" x="863" y="-406" font-family="Helvetica,sans-Serif" font-size="10.00">fxml_main.PieceTypeEditor.add</text>
<text text-anchor="middle" x="937" y="-395" font-family="Helvetica,sans-Serif" font-size="10.00">SelectedActions</text>
</a>
</g>
</g>
<!-- Node12&#45;&gt;Node13 -->
<g id="edge12" class="edge"><title>Node12&#45;&gt;Node13</title>
<path fill="none" stroke="midnightblue" d="M798.263,-387.132C813.359,-388.871 829.271,-390.704 844.707,-392.482"/>
<polygon fill="midnightblue" stroke="midnightblue" points="844.433,-395.974 854.768,-393.641 845.234,-389.02 844.433,-395.974"/>
</g>
<!-- Node15 -->
<g id="node15" class="node"><title>Node15</title>
<g id="a_node15"><a xlink:href="../../df/d26/classauthoring_1_1createedit_1_1_modules_list.html#a9aea540457ac1ee2828e0ede837952ee" target="_top" xlink:title="authoring.createedit.Modules\lList.getSelectedActions">
<polygon fill="white" stroke="black" points="858.5,-339 858.5,-369 1015.5,-369 1015.5,-339 858.5,-339"/>
<text text-anchor="start" x="866.5" y="-357" font-family="Helvetica,sans-Serif" font-size="10.00">authoring.createedit.Modules</text>
<text text-anchor="middle" x="937" y="-346" font-family="Helvetica,sans-Serif" font-size="10.00">List.getSelectedActions</text>
</a>
</g>
</g>
<!-- Node12&#45;&gt;Node15 -->
<g id="edge14" class="edge"><title>Node12&#45;&gt;Node15</title>
<path fill="none" stroke="midnightblue" d="M798.263,-369.234C814.506,-367.437 831.693,-365.536 848.215,-363.709"/>
<polygon fill="midnightblue" stroke="midnightblue" points="848.847,-367.161 858.401,-362.582 848.077,-360.203 848.847,-367.161"/>
</g>
<!-- Node16 -->
<g id="node16" class="node"><title>Node16</title>
<g id="a_node16"><a xlink:href="../../d0/d47/classgameengine_1_1movement_1_1_movement.html#a2dacd23337b06d447bcda1819e7296ec" target="_top" xlink:title="gameengine.movement.Movement.to\lString">
<polygon fill="white" stroke="black" points="837.5,-290 837.5,-320 1036.5,-320 1036.5,-290 837.5,-290"/>
<text text-anchor="start" x="845.5" y="-308" font-family="Helvetica,sans-Serif" font-size="10.00">gameengine.movement.Movement.to</text>
<text text-anchor="middle" x="937" y="-297" font-family="Helvetica,sans-Serif" font-size="10.00">String</text>
</a>
</g>
</g>
<!-- Node12&#45;&gt;Node16 -->
<g id="edge15" class="edge"><title>Node12&#45;&gt;Node16</title>
<path fill="none" stroke="midnightblue" d="M751.206,-362.976C773.986,-352.743 805.435,-339.399 834,-330 841.905,-327.399 850.233,-324.931 858.582,-322.631"/>
<polygon fill="midnightblue" stroke="midnightblue" points="859.615,-325.978 868.369,-320.01 857.804,-319.216 859.615,-325.978"/>
</g>
<!-- Node14 -->
<g id="node14" class="node"><title>Node14</title>
<g id="a_node14"><a xlink:href="../../d2/da6/classauthoring_1_1data_1_1_action_data.html#af66a8db8f87c010a94eda1b2a734092f" target="_top" xlink:title="authoring.data.ActionData.get\lAction">
<polygon fill="white" stroke="black" points="1076,-388 1076,-418 1238,-418 1238,-388 1076,-388"/>
<text text-anchor="start" x="1084" y="-406" font-family="Helvetica,sans-Serif" font-size="10.00">authoring.data.ActionData.get</text>
<text text-anchor="middle" x="1157" y="-395" font-family="Helvetica,sans-Serif" font-size="10.00">Action</text>
</a>
</g>
</g>
<!-- Node13&#45;&gt;Node14 -->
<g id="edge13" class="edge"><title>Node13&#45;&gt;Node14</title>
<path fill="none" stroke="midnightblue" d="M1019.18,-403C1034.37,-403 1050.33,-403 1065.78,-403"/>
<polygon fill="midnightblue" stroke="midnightblue" points="1065.85,-406.5 1075.85,-403 1065.85,-399.5 1065.85,-406.5"/>
</g>
</g>
</svg>
        <g id="navigator" transform="translate(0 0)" fill="#404254">
                <rect fill="#f2f5e9" fill-opacity="0.5" stroke="#606060" stroke-width=".5" x="0" y="0" width="60" height="60"/>
                <use id="zoomplus" xlink:href="#zoomPlus" x="17" y="9" onmousedown="handleZoom(evt,'in')"/>
                <use id="zoomminus" xlink:href="#zoomMin" x="42" y="9" onmousedown="handleZoom(evt,'out')"/>
                <use id="reset" xlink:href="#resetDef" x="30" y="36" onmousedown="handleReset()"/>
                <g id="arrowUp" xlink:href="#dirArrow" transform="translate(30 24)" onmousedown="handlePan(0,-1)">
                  <use xlink:href="#rim" fill="#404040">
                        <set attributeName="fill" to="#808080" begin="arrowUp.mouseover" end="arrowUp.mouseout"/>
                  </use>
                  <path fill="none" stroke="white" stroke-width="1.5" d="M0,-3.0v7 M-2.5,-0.5L0,-3.0L2.5,-0.5"/>
                </g>
                <g id="arrowRight" xlink:href="#dirArrow" transform="rotate(90) translate(36 -43)" onmousedown="handlePan(1,0)">
                  <use xlink:href="#rim" fill="#404040">
                        <set attributeName="fill" to="#808080" begin="arrowRight.mouseover" end="arrowRight.mouseout"/>
                  </use>
                  <path fill="none" stroke="white" stroke-width="1.5" d="M0,-3.0v7 M-2.5,-0.5L0,-3.0L2.5,-0.5"/>
                </g>
                <g id="arrowDown" xlink:href="#dirArrow" transform="rotate(180) translate(-30 -48)" onmousedown="handlePan(0,1)">
                  <use xlink:href="#rim" fill="#404040">
                        <set attributeName="fill" to="#808080" begin="arrowDown.mouseover" end="arrowDown.mouseout"/>
                  </use>
                  <path fill="none" stroke="white" stroke-width="1.5" d="M0,-3.0v7 M-2.5,-0.5L0,-3.0L2.5,-0.5"/>
                </g>
                <g id="arrowLeft" xlink:href="#dirArrow" transform="rotate(270) translate(-36 17)" onmousedown="handlePan(-1,0)">
                  <use xlink:href="#rim" fill="#404040">
                        <set attributeName="fill" to="#808080" begin="arrowLeft.mouseover" end="arrowLeft.mouseout"/>
                  </use>
                  <path fill="none" stroke="white" stroke-width="1.5" d="M0,-3.0v7 M-2.5,-0.5L0,-3.0L2.5,-0.5"/>
                </g>
        </g>
        <svg viewBox="0 0 15 15" width="100%" height="30px" preserveAspectRatio="xMaxYMin meet">
         <g id="arrow_out" transform="scale(0.3 0.3)">
          <a xlink:href="classfxml__main_1_1_piece_type_editor_af2eefe9bd07a346d48960d99fae7511d_cgraph_org.svg" target="_base">
           <rect id="button" ry="5" rx="5" y="6" x="6" height="38" width="38"
                fill="#f2f5e9" fill-opacity="0.5" stroke="#606060" stroke-width="1.0"/>
           <path id="arrow"
             d="M 11.500037,31.436501 C 11.940474,20.09759 22.043105,11.32322 32.158766,21.979434 L 37.068811,17.246167 C 37.068811,17.246167 37.088388,32 37.088388,32 L 22.160133,31.978069 C 22.160133,31.978069 26.997745,27.140456 26.997745,27.140456 C 18.528582,18.264221 13.291696,25.230495 11.500037,31.436501 z"
             style="fill:#404040;"/>
          </a>
         </g>
        </svg>
</svg>
