<?xml version="1.0" encoding="UTF-8" standalone="no"?>
<!DOCTYPE svg PUBLIC "-//W3C//DTD SVG 1.1//EN"
 "http://www.w3.org/Graphics/SVG/1.1/DTD/svg11.dtd">
<!-- Generated by graphviz version 2.36.0 (20140111.2315)
 -->
<!-- Title: fxml_main.PieceTypeEditor.PieceTypeEditor Pages: 1 -->
<!--zoomable 332 -->
<svg id="main" version="1.1" xmlns="http://www.w3.org/2000/svg" xmlns:xlink="http://www.w3.org/1999/xlink" xml:space="preserve" onload="init(evt)">
<style type="text/css"><![CDATA[
.edge:hover path { stroke: red; }
.edge:hover polygon { stroke: red; fill: red; }
]]></style>
<script type="text/javascript"><![CDATA[
var edges = document.getElementsByTagName('g');
if (edges && edges.length) {
  for (var i=0;i<edges.length;i++) {
    if (edges[i].id.substr(0,4)=='edge') {
      edges[i].setAttribute('class','edge');
    }
  }
}
]]></script>
        <defs>
                <circle id="rim" cx="0" cy="0" r="7"/>
                <circle id="rim2" cx="0" cy="0" r="3.5"/>
                <g id="zoomPlus">
                        <use xlink:href="#rim" fill="#404040">
                                <set attributeName="fill" to="#808080" begin="zoomplus.mouseover" end="zoomplus.mouseout"/>
                        </use>
                        <path d="M-4,0h8M0,-4v8" fill="none" stroke="white" stroke-width="1.5" pointer-events="none"/>
                </g>
                <g id="zoomMin">
                        <use xlink:href="#rim" fill="#404040">
                                <set attributeName="fill" to="#808080" begin="zoomminus.mouseover" end="zoomminus.mouseout"/>
                        </use>
                        <path d="M-4,0h8" fill="none" stroke="white" stroke-width="1.5" pointer-events="none"/>
                </g>
                <g id="dirArrow">
                        <path fill="none" stroke="white" stroke-width="1.5" d="M0,-3.0v7 M-2.5,-0.5L0,-3.0L2.5,-0.5"/>
                </g>
               <g id="resetDef">
                       <use xlink:href="#rim2" fill="#404040">
                               <set attributeName="fill" to="#808080" begin="reset.mouseover" end="reset.mouseout"/>
                       </use>
               </g>
        </defs>

<script type="text/javascript">
var viewWidth = 1246;
var viewHeight = 332;
var sectionId = 'dynsection-2';
</script>
<script xlink:href="../../svgpan.js"/>
<svg id="graph" class="graph">
<g id="viewport">
<title>fxml_main.PieceTypeEditor.PieceTypeEditor</title>
<polygon fill="white" stroke="none" points="-4,4 -4,-328 1242,-328 1242,4 -4,4"/>
<!-- Node1 -->
<g id="node1" class="node"><title>Node1</title>
<polygon fill="#bfbfbf" stroke="black" points="0,-174 0,-204 146,-204 146,-174 0,-174"/>
<text text-anchor="start" x="8" y="-192" font-family="Helvetica,sans-Serif" font-size="10.00">fxml_main.PieceTypeEditor.</text>
<text text-anchor="middle" x="73" y="-181" font-family="Helvetica,sans-Serif" font-size="10.00">PieceTypeEditor</text>
</g>
<!-- Node2 -->
<g id="node2" class="node"><title>Node2</title>
<g id="a_node2"><a xlink:href="../../d9/d15/classfxml__main_1_1_piece_type_editor.html#ab6e627c5d9474cd4c497ad70eb51a0c6" target="_top" xlink:title="fxml_main.PieceTypeEditor.constructor">
<polygon fill="white" stroke="black" points="182,-201.5 182,-220.5 382,-220.5 382,-201.5 182,-201.5"/>
<text text-anchor="middle" x="282" y="-208.5" font-family="Helvetica,sans-Serif" font-size="10.00">fxml_main.PieceTypeEditor.constructor</text>
</a>
</g>
</g>
<!-- Node1&#45;&gt;Node2 -->
<g id="edge1" class="edge"><title>Node1&#45;&gt;Node2</title>
<path fill="none" stroke="midnightblue" d="M146.108,-196.664C157.502,-197.875 169.458,-199.145 181.345,-200.409"/>
<polygon fill="midnightblue" stroke="midnightblue" points="180.987,-203.89 191.301,-201.467 181.727,-196.929 180.987,-203.89"/>
</g>
<!-- Node17 -->
<g id="node17" class="node"><title>Node17</title>
<g id="a_node17"><a xlink:href="../../d5/d98/classauthoring_1_1data_1_1_piece_type_data.html#aa1d0d039a5387306af02e423d0f6e495" target="_top" xlink:title="authoring.data.PieceType\lData.getIdSet">
<polygon fill="white" stroke="black" points="213.5,-152 213.5,-182 350.5,-182 350.5,-152 213.5,-152"/>
<text text-anchor="start" x="221.5" y="-170" font-family="Helvetica,sans-Serif" font-size="10.00">authoring.data.PieceType</text>
<text text-anchor="middle" x="282" y="-159" font-family="Helvetica,sans-Serif" font-size="10.00">Data.getIdSet</text>
</a>
</g>
</g>
<!-- Node1&#45;&gt;Node17 -->
<g id="edge16" class="edge"><title>Node1&#45;&gt;Node17</title>
<path fill="none" stroke="midnightblue" d="M146.108,-181.336C164.603,-179.371 184.575,-177.248 203.338,-175.254"/>
<polygon fill="midnightblue" stroke="midnightblue" points="203.747,-178.73 213.321,-174.193 203.007,-171.77 203.747,-178.73"/>
</g>
<!-- Node3 -->
<g id="node3" class="node"><title>Node3</title>
<g id="a_node3"><a xlink:href="../../d9/d15/classfxml__main_1_1_piece_type_editor.html#a4d5ecc37717a0f7dee7d88e74792388a" target="_top" xlink:title="fxml_main.PieceTypeEditor.initialize">
<polygon fill="white" stroke="black" points="418,-201.5 418,-220.5 602,-220.5 602,-201.5 418,-201.5"/>
<text text-anchor="middle" x="510" y="-208.5" font-family="Helvetica,sans-Serif" font-size="10.00">fxml_main.PieceTypeEditor.initialize</text>
</a>
</g>
</g>
<!-- Node2&#45;&gt;Node3 -->
<g id="edge2" class="edge"><title>Node2&#45;&gt;Node3</title>
<path fill="none" stroke="midnightblue" d="M382.127,-211C390.559,-211 399.095,-211 407.544,-211"/>
<polygon fill="midnightblue" stroke="midnightblue" points="407.795,-214.5 417.795,-211 407.795,-207.5 407.795,-214.5"/>
</g>
<!-- Node4 -->
<g id="node4" class="node"><title>Node4</title>
<g id="a_node4"><a xlink:href="../../d9/d15/classfxml__main_1_1_piece_type_editor.html#a6705bc85c0a9ca8bd4ca3e4907810c28" target="_top" xlink:title="fxml_main.PieceTypeEditor.init\lRangeEditorButton">
<polygon fill="white" stroke="black" points="638,-294 638,-324 798,-324 798,-294 638,-294"/>
<text text-anchor="start" x="646" y="-312" font-family="Helvetica,sans-Serif" font-size="10.00">fxml_main.PieceTypeEditor.init</text>
<text text-anchor="middle" x="718" y="-301" font-family="Helvetica,sans-Serif" font-size="10.00">RangeEditorButton</text>
</a>
</g>
</g>
<!-- Node3&#45;&gt;Node4 -->
<g id="edge3" class="edge"><title>Node3&#45;&gt;Node4</title>
<path fill="none" stroke="midnightblue" d="M525.321,-220.607C548.295,-235.698 595.161,-265.172 638,-284 643.103,-286.243 648.472,-288.38 653.908,-290.391"/>
<polygon fill="midnightblue" stroke="midnightblue" points="653.129,-293.828 663.724,-293.871 655.469,-287.231 653.129,-293.828"/>
</g>
<!-- Node6 -->
<g id="node6" class="node"><title>Node6</title>
<g id="a_node6"><a xlink:href="../../d9/d15/classfxml__main_1_1_piece_type_editor.html#a9fab2fa4df9d195d41c56fbd9c64a3d3" target="_top" xlink:title="fxml_main.PieceTypeEditor.init\lStatButton">
<polygon fill="white" stroke="black" points="638,-245 638,-275 798,-275 798,-245 638,-245"/>
<text text-anchor="start" x="646" y="-263" font-family="Helvetica,sans-Serif" font-size="10.00">fxml_main.PieceTypeEditor.init</text>
<text text-anchor="middle" x="718" y="-252" font-family="Helvetica,sans-Serif" font-size="10.00">StatButton</text>
</a>
</g>
</g>
<!-- Node3&#45;&gt;Node6 -->
<g id="edge5" class="edge"><title>Node3&#45;&gt;Node6</title>
<path fill="none" stroke="midnightblue" d="M551.208,-220.564C577.516,-226.822 612.662,-235.182 643.823,-242.594"/>
<polygon fill="midnightblue" stroke="midnightblue" points="643.245,-246.054 653.783,-244.963 644.865,-239.244 643.245,-246.054"/>
</g>
<!-- Node8 -->
<g id="node8" class="node"><title>Node8</title>
<g id="a_node8"><a xlink:href="../../d9/d15/classfxml__main_1_1_piece_type_editor.html#aa56796106446759161e9f02a946b8eff" target="_top" xlink:title="fxml_main.PieceTypeEditor.init\lModList">
<polygon fill="white" stroke="black" points="638,-196 638,-226 798,-226 798,-196 638,-196"/>
<text text-anchor="start" x="646" y="-214" font-family="Helvetica,sans-Serif" font-size="10.00">fxml_main.PieceTypeEditor.init</text>
<text text-anchor="middle" x="718" y="-203" font-family="Helvetica,sans-Serif" font-size="10.00">ModList</text>
</a>
</g>
</g>
<!-- Node3&#45;&gt;Node8 -->
<g id="edge7" class="edge"><title>Node3&#45;&gt;Node8</title>
<path fill="none" stroke="midnightblue" d="M602.254,-211C610.67,-211 619.193,-211 627.592,-211"/>
<polygon fill="midnightblue" stroke="midnightblue" points="627.761,-214.5 637.761,-211 627.761,-207.5 627.761,-214.5"/>
</g>
<!-- Node10 -->
<g id="node10" class="node"><title>Node10</title>
<g id="a_node10"><a xlink:href="../../d9/d15/classfxml__main_1_1_piece_type_editor.html#a92b778ef0867e94f54920cc32bead3f4" target="_top" xlink:title="fxml_main.PieceTypeEditor.init\lImageLoader">
<polygon fill="white" stroke="black" points="638,-147 638,-177 798,-177 798,-147 638,-147"/>
<text text-anchor="start" x="646" y="-165" font-family="Helvetica,sans-Serif" font-size="10.00">fxml_main.PieceTypeEditor.init</text>
<text text-anchor="middle" x="718" y="-154" font-family="Helvetica,sans-Serif" font-size="10.00">ImageLoader</text>
</a>
</g>
</g>
<!-- Node3&#45;&gt;Node10 -->
<g id="edge9" class="edge"><title>Node3&#45;&gt;Node10</title>
<path fill="none" stroke="midnightblue" d="M551.208,-201.436C577.516,-195.178 612.662,-186.818 643.823,-179.406"/>
<polygon fill="midnightblue" stroke="midnightblue" points="644.865,-182.756 653.783,-177.037 643.245,-175.946 644.865,-182.756"/>
</g>
<!-- Node12 -->
<g id="node12" class="node"><title>Node12</title>
<g id="a_node12"><a xlink:href="../../d9/d15/classfxml__main_1_1_piece_type_editor.html#a36caa4e38e75916af15c3b336543960f" target="_top" xlink:title="fxml_main.PieceTypeEditor.init\lGoBtn">
<polygon fill="white" stroke="black" points="638,-73 638,-103 798,-103 798,-73 638,-73"/>
<text text-anchor="start" x="646" y="-91" font-family="Helvetica,sans-Serif" font-size="10.00">fxml_main.PieceTypeEditor.init</text>
<text text-anchor="middle" x="718" y="-80" font-family="Helvetica,sans-Serif" font-size="10.00">GoBtn</text>
</a>
</g>
</g>
<!-- Node3&#45;&gt;Node12 -->
<g id="edge11" class="edge"><title>Node3&#45;&gt;Node12</title>
<path fill="none" stroke="midnightblue" d="M527.164,-201.348C560.618,-181.374 638.066,-135.131 683.021,-108.289"/>
<polygon fill="midnightblue" stroke="midnightblue" points="685.032,-111.164 691.824,-103.032 681.444,-105.154 685.032,-111.164"/>
</g>
<!-- Node5 -->
<g id="node5" class="node"><title>Node5</title>
<g id="a_node5"><a xlink:href="../../d0/d47/classgameengine_1_1movement_1_1_movement.html#ad86bac051f6e073b2f93579f2efa3548" target="_top" xlink:title="gameengine.movement.Movement.get\lRelativeMoves">
<polygon fill="white" stroke="black" points="834.5,-294 834.5,-324 1039.5,-324 1039.5,-294 834.5,-294"/>
<text text-anchor="start" x="842.5" y="-312" font-family="Helvetica,sans-Serif" font-size="10.00">gameengine.movement.Movement.get</text>
<text text-anchor="middle" x="937" y="-301" font-family="Helvetica,sans-Serif" font-size="10.00">RelativeMoves</text>
</a>
</g>
</g>
<!-- Node4&#45;&gt;Node5 -->
<g id="edge4" class="edge"><title>Node4&#45;&gt;Node5</title>
<path fill="none" stroke="midnightblue" d="M798.263,-309C806.704,-309 815.4,-309 824.125,-309"/>
<polygon fill="midnightblue" stroke="midnightblue" points="824.368,-312.5 834.368,-309 824.368,-305.5 824.368,-312.5"/>
</g>
<!-- Node7 -->
<g id="node7" class="node"><title>Node7</title>
<g id="a_node7"><a xlink:href="../../d9/d15/classfxml__main_1_1_piece_type_editor.html#acbff0ae509ae31a399a9f2acc18c4424" target="_top" xlink:title="fxml_main.PieceTypeEditor.show\lStatEditorWindow">
<polygon fill="white" stroke="black" points="852,-245 852,-275 1022,-275 1022,-245 852,-245"/>
<text text-anchor="start" x="860" y="-263" font-family="Helvetica,sans-Serif" font-size="10.00">fxml_main.PieceTypeEditor.show</text>
<text text-anchor="middle" x="937" y="-252" font-family="Helvetica,sans-Serif" font-size="10.00">StatEditorWindow</text>
</a>
</g>
</g>
<!-- Node6&#45;&gt;Node7 -->
<g id="edge6" class="edge"><title>Node6&#45;&gt;Node7</title>
<path fill="none" stroke="midnightblue" d="M798.263,-260C812.292,-260 827.026,-260 841.427,-260"/>
<polygon fill="midnightblue" stroke="midnightblue" points="841.84,-263.5 851.84,-260 841.84,-256.5 841.84,-263.5"/>
</g>
<!-- Node9 -->
<g id="node9" class="node"><title>Node9</title>
<g id="a_node9"><a xlink:href="../../d2/da6/classauthoring_1_1data_1_1_action_data.html#a24bc762fba66b9a4c37b81a0cefb288c" target="_top" xlink:title="authoring.data.ActionData.get\lActionNames">
<polygon fill="white" stroke="black" points="856,-196 856,-226 1018,-226 1018,-196 856,-196"/>
<text text-anchor="start" x="864" y="-214" font-family="Helvetica,sans-Serif" font-size="10.00">authoring.data.ActionData.get</text>
<text text-anchor="middle" x="937" y="-203" font-family="Helvetica,sans-Serif" font-size="10.00">ActionNames</text>
</a>
</g>
</g>
<!-- Node8&#45;&gt;Node9 -->
<g id="edge8" class="edge"><title>Node8&#45;&gt;Node9</title>
<path fill="none" stroke="midnightblue" d="M798.263,-211C813.657,-211 829.9,-211 845.62,-211"/>
<polygon fill="midnightblue" stroke="midnightblue" points="845.861,-214.5 855.861,-211 845.861,-207.5 845.861,-214.5"/>
</g>
<!-- Node11 -->
<g id="node11" class="node"><title>Node11</title>
<g id="a_node11"><a xlink:href="../../d9/d15/classfxml__main_1_1_piece_type_editor.html#a6df8ddc0ae51cdb1d6677c876d691316" target="_top" xlink:title="fxml_main.PieceTypeEditor.set\lImageView">
<polygon fill="white" stroke="black" points="856.5,-147 856.5,-177 1017.5,-177 1017.5,-147 856.5,-147"/>
<text text-anchor="start" x="864.5" y="-165" font-family="Helvetica,sans-Serif" font-size="10.00">fxml_main.PieceTypeEditor.set</text>
<text text-anchor="middle" x="937" y="-154" font-family="Helvetica,sans-Serif" font-size="10.00">ImageView</text>
</a>
</g>
</g>
<!-- Node10&#45;&gt;Node11 -->
<g id="edge10" class="edge"><title>Node10&#45;&gt;Node11</title>
<path fill="none" stroke="midnightblue" d="M798.263,-162C813.757,-162 830.11,-162 845.925,-162"/>
<polygon fill="midnightblue" stroke="midnightblue" points="846.225,-165.5 856.225,-162 846.225,-158.5 846.225,-165.5"/>
</g>
<!-- Node13 -->
<g id="node13" class="node"><title>Node13</title>
<g id="a_node13"><a xlink:href="../../d9/d15/classfxml__main_1_1_piece_type_editor.html#aa4c7faabdffe53a947c2a64818742318" target="_top" xlink:title="fxml_main.PieceTypeEditor.add\lSelectedActions">
<polygon fill="white" stroke="black" points="855,-98 855,-128 1019,-128 1019,-98 855,-98"/>
<text text-anchor="start" x="863" y="-116" font-family="Helvetica,sans-Serif" font-size="10.00">fxml_main.PieceTypeEditor.add</text>
<text text-anchor="middle" x="937" y="-105" font-family="Helvetica,sans-Serif" font-size="10.00">SelectedActions</text>
</a>
</g>
</g>
<!-- Node12&#45;&gt;Node13 -->
<g id="edge12" class="edge"><title>Node12&#45;&gt;Node13</title>
<path fill="none" stroke="midnightblue" d="M798.263,-97.1317C813.359,-98.8709 829.271,-100.704 844.707,-102.482"/>
<polygon fill="midnightblue" stroke="midnightblue" points="844.433,-105.974 854.768,-103.641 845.234,-99.0199 844.433,-105.974"/>
</g>
<!-- Node15 -->
<g id="node15" class="node"><title>Node15</title>
<g id="a_node15"><a xlink:href="../../df/d26/classauthoring_1_1createedit_1_1_modules_list.html#a9aea540457ac1ee2828e0ede837952ee" target="_top" xlink:title="authoring.createedit.Modules\lList.getSelectedActions">
<polygon fill="white" stroke="black" points="858.5,-49 858.5,-79 1015.5,-79 1015.5,-49 858.5,-49"/>
<text text-anchor="start" x="866.5" y="-67" font-family="Helvetica,sans-Serif" font-size="10.00">authoring.createedit.Modules</text>
<text text-anchor="middle" x="937" y="-56" font-family="Helvetica,sans-Serif" font-size="10.00">List.getSelectedActions</text>
</a>
</g>
</g>
<!-- Node12&#45;&gt;Node15 -->
<g id="edge14" class="edge"><title>Node12&#45;&gt;Node15</title>
<path fill="none" stroke="midnightblue" d="M798.263,-79.2336C814.506,-77.4372 831.693,-75.5363 848.215,-73.709"/>
<polygon fill="midnightblue" stroke="midnightblue" points="848.847,-77.1605 858.401,-72.5823 848.077,-70.2029 848.847,-77.1605"/>
</g>
<!-- Node16 -->
<g id="node16" class="node"><title>Node16</title>
<g id="a_node16"><a xlink:href="../../d0/d47/classgameengine_1_1movement_1_1_movement.html#a2dacd23337b06d447bcda1819e7296ec" target="_top" xlink:title="gameengine.movement.Movement.to\lString">
<polygon fill="white" stroke="black" points="837.5,-0 837.5,-30 1036.5,-30 1036.5,-0 837.5,-0"/>
<text text-anchor="start" x="845.5" y="-18" font-family="Helvetica,sans-Serif" font-size="10.00">gameengine.movement.Movement.to</text>
<text text-anchor="middle" x="937" y="-7" font-family="Helvetica,sans-Serif" font-size="10.00">String</text>
</a>
</g>
</g>
<!-- Node12&#45;&gt;Node16 -->
<g id="edge15" class="edge"><title>Node12&#45;&gt;Node16</title>
<path fill="none" stroke="midnightblue" d="M750.168,-72.9931C772.991,-62.4329 804.924,-48.5368 834,-39 840.833,-36.7587 847.988,-34.6373 855.203,-32.6522"/>
<polygon fill="midnightblue" stroke="midnightblue" points="856.29,-35.985 865.053,-30.0314 854.49,-29.2203 856.29,-35.985"/>
</g>
<!-- Node14 -->
<g id="node14" class="node"><title>Node14</title>
<g id="a_node14"><a xlink:href="../../d2/da6/classauthoring_1_1data_1_1_action_data.html#af66a8db8f87c010a94eda1b2a734092f" target="_top" xlink:title="authoring.data.ActionData.get\lAction">
<polygon fill="white" stroke="black" points="1076,-98 1076,-128 1238,-128 1238,-98 1076,-98"/>
<text text-anchor="start" x="1084" y="-116" font-family="Helvetica,sans-Serif" font-size="10.00">authoring.data.ActionData.get</text>
<text text-anchor="middle" x="1157" y="-105" font-family="Helvetica,sans-Serif" font-size="10.00">Action</text>
</a>
</g>
</g>
<!-- Node13&#45;&gt;Node14 -->
<g id="edge13" class="edge"><title>Node13&#45;&gt;Node14</title>
<path fill="none" stroke="midnightblue" d="M1019.18,-113C1034.37,-113 1050.33,-113 1065.78,-113"/>
<polygon fill="midnightblue" stroke="midnightblue" points="1065.85,-116.5 1075.85,-113 1065.85,-109.5 1065.85,-116.5"/>
</g>
</g>
</svg>
        <g id="navigator" transform="translate(0 0)" fill="#404254">
                <rect fill="#f2f5e9" fill-opacity="0.5" stroke="#606060" stroke-width=".5" x="0" y="0" width="60" height="60"/>
                <use id="zoomplus" xlink:href="#zoomPlus" x="17" y="9" onmousedown="handleZoom(evt,'in')"/>
                <use id="zoomminus" xlink:href="#zoomMin" x="42" y="9" onmousedown="handleZoom(evt,'out')"/>
                <use id="reset" xlink:href="#resetDef" x="30" y="36" onmousedown="handleReset()"/>
                <g id="arrowUp" xlink:href="#dirArrow" transform="translate(30 24)" onmousedown="handlePan(0,-1)">
                  <use xlink:href="#rim" fill="#404040">
                        <set attributeName="fill" to="#808080" begin="arrowUp.mouseover" end="arrowUp.mouseout"/>
                  </use>
                  <path fill="none" stroke="white" stroke-width="1.5" d="M0,-3.0v7 M-2.5,-0.5L0,-3.0L2.5,-0.5"/>
                </g>
                <g id="arrowRight" xlink:href="#dirArrow" transform="rotate(90) translate(36 -43)" onmousedown="handlePan(1,0)">
                  <use xlink:href="#rim" fill="#404040">
                        <set attributeName="fill" to="#808080" begin="arrowRight.mouseover" end="arrowRight.mouseout"/>
                  </use>
                  <path fill="none" stroke="white" stroke-width="1.5" d="M0,-3.0v7 M-2.5,-0.5L0,-3.0L2.5,-0.5"/>
                </g>
                <g id="arrowDown" xlink:href="#dirArrow" transform="rotate(180) translate(-30 -48)" onmousedown="handlePan(0,1)">
                  <use xlink:href="#rim" fill="#404040">
                        <set attributeName="fill" to="#808080" begin="arrowDown.mouseover" end="arrowDown.mouseout"/>
                  </use>
                  <path fill="none" stroke="white" stroke-width="1.5" d="M0,-3.0v7 M-2.5,-0.5L0,-3.0L2.5,-0.5"/>
                </g>
                <g id="arrowLeft" xlink:href="#dirArrow" transform="rotate(270) translate(-36 17)" onmousedown="handlePan(-1,0)">
                  <use xlink:href="#rim" fill="#404040">
                        <set attributeName="fill" to="#808080" begin="arrowLeft.mouseover" end="arrowLeft.mouseout"/>
                  </use>
                  <path fill="none" stroke="white" stroke-width="1.5" d="M0,-3.0v7 M-2.5,-0.5L0,-3.0L2.5,-0.5"/>
                </g>
        </g>
        <svg viewBox="0 0 15 15" width="100%" height="30px" preserveAspectRatio="xMaxYMin meet">
         <g id="arrow_out" transform="scale(0.3 0.3)">
          <a xlink:href="classfxml__main_1_1_piece_type_editor_aba63586973ffa81f331904a44690684c_cgraph_org.svg" target="_base">
           <rect id="button" ry="5" rx="5" y="6" x="6" height="38" width="38"
                fill="#f2f5e9" fill-opacity="0.5" stroke="#606060" stroke-width="1.0"/>
           <path id="arrow"
             d="M 11.500037,31.436501 C 11.940474,20.09759 22.043105,11.32322 32.158766,21.979434 L 37.068811,17.246167 C 37.068811,17.246167 37.088388,32 37.088388,32 L 22.160133,31.978069 C 22.160133,31.978069 26.997745,27.140456 26.997745,27.140456 C 18.528582,18.264221 13.291696,25.230495 11.500037,31.436501 z"
             style="fill:#404040;"/>
          </a>
         </g>
        </svg>
</svg>
