<?xml version="1.0" encoding="UTF-8" standalone="no"?>
<!DOCTYPE svg PUBLIC "-//W3C//DTD SVG 1.1//EN"
 "http://www.w3.org/Graphics/SVG/1.1/DTD/svg11.dtd">
<!-- Generated by graphviz version 2.36.0 (20140111.2315)
 -->
<!-- Title: fxml_main.PieceTypeEditor.setImageView Pages: 1 -->
<svg width="1004pt" height="38pt"
 viewBox="0.00 0.00 1004.00 38.00" xmlns="http://www.w3.org/2000/svg" xmlns:xlink="http://www.w3.org/1999/xlink">
<g id="graph0" class="graph" transform="scale(1 1) rotate(0) translate(4 34)">
<title>fxml_main.PieceTypeEditor.setImageView</title>
<polygon fill="white" stroke="none" points="-4,4 -4,-34 1000,-34 1000,4 -4,4"/>
<!-- Node1 -->
<g id="node1" class="node"><title>Node1</title>
<polygon fill="#bfbfbf" stroke="black" points="0.5,-0 0.5,-30 161.5,-30 161.5,-0 0.5,-0"/>
<text text-anchor="start" x="8.5" y="-18" font-family="Helvetica,sans-Serif" font-size="10.00">fxml_main.PieceTypeEditor.set</text>
<text text-anchor="middle" x="81" y="-7" font-family="Helvetica,sans-Serif" font-size="10.00">ImageView</text>
</g>
<!-- Node2 -->
<g id="node2" class="node"><title>Node2</title>
<g id="a_node2"><a xlink:href="../../d9/d15/classfxml__main_1_1_piece_type_editor.html#a92b778ef0867e94f54920cc32bead3f4" target="_top" xlink:title="fxml_main.PieceTypeEditor.init\lImageLoader">
<polygon fill="white" stroke="black" points="198,-0 198,-30 358,-30 358,-0 198,-0"/>
<text text-anchor="start" x="206" y="-18" font-family="Helvetica,sans-Serif" font-size="10.00">fxml_main.PieceTypeEditor.init</text>
<text text-anchor="middle" x="278" y="-7" font-family="Helvetica,sans-Serif" font-size="10.00">ImageLoader</text>
</a>
</g>
</g>
<!-- Node1&#45;&gt;Node2 -->
<g id="edge1" class="edge"><title>Node1&#45;&gt;Node2</title>
<path fill="none" stroke="midnightblue" d="M171.797,-15C180.534,-15 189.355,-15 197.975,-15"/>
<polygon fill="midnightblue" stroke="midnightblue" points="171.595,-11.5001 161.595,-15 171.595,-18.5001 171.595,-11.5001"/>
</g>
<!-- Node3 -->
<g id="node3" class="node"><title>Node3</title>
<g id="a_node3"><a xlink:href="../../d9/d15/classfxml__main_1_1_piece_type_editor.html#a4d5ecc37717a0f7dee7d88e74792388a" target="_top" xlink:title="fxml_main.PieceTypeEditor.initialize">
<polygon fill="white" stroke="black" points="394,-5.5 394,-24.5 578,-24.5 578,-5.5 394,-5.5"/>
<text text-anchor="middle" x="486" y="-12.5" font-family="Helvetica,sans-Serif" font-size="10.00">fxml_main.PieceTypeEditor.initialize</text>
</a>
</g>
</g>
<!-- Node2&#45;&gt;Node3 -->
<g id="edge2" class="edge"><title>Node2&#45;&gt;Node3</title>
<path fill="none" stroke="midnightblue" d="M368.284,-15C376.733,-15 385.307,-15 393.774,-15"/>
<polygon fill="midnightblue" stroke="midnightblue" points="368.056,-11.5001 358.056,-15 368.056,-18.5001 368.056,-11.5001"/>
</g>
<!-- Node4 -->
<g id="node4" class="node"><title>Node4</title>
<g id="a_node4"><a xlink:href="../../d9/d15/classfxml__main_1_1_piece_type_editor.html#ab6e627c5d9474cd4c497ad70eb51a0c6" target="_top" xlink:title="fxml_main.PieceTypeEditor.constructor">
<polygon fill="white" stroke="black" points="614,-5.5 614,-24.5 814,-24.5 814,-5.5 614,-5.5"/>
<text text-anchor="middle" x="714" y="-12.5" font-family="Helvetica,sans-Serif" font-size="10.00">fxml_main.PieceTypeEditor.constructor</text>
</a>
</g>
</g>
<!-- Node3&#45;&gt;Node4 -->
<g id="edge3" class="edge"><title>Node3&#45;&gt;Node4</title>
<path fill="none" stroke="midnightblue" d="M588.539,-15C597.002,-15 605.552,-15 613.996,-15"/>
<polygon fill="midnightblue" stroke="midnightblue" points="588.271,-11.5001 578.271,-15 588.271,-18.5001 588.271,-11.5001"/>
</g>
<!-- Node5 -->
<g id="node5" class="node"><title>Node5</title>
<g id="a_node5"><a xlink:href="../../d9/d15/classfxml__main_1_1_piece_type_editor.html#aba63586973ffa81f331904a44690684c" target="_top" xlink:title="fxml_main.PieceTypeEditor.\lPieceTypeEditor">
<polygon fill="white" stroke="black" points="850,-0 850,-30 996,-30 996,-0 850,-0"/>
<text text-anchor="start" x="858" y="-18" font-family="Helvetica,sans-Serif" font-size="10.00">fxml_main.PieceTypeEditor.</text>
<text text-anchor="middle" x="923" y="-7" font-family="Helvetica,sans-Serif" font-size="10.00">PieceTypeEditor</text>
</a>
</g>
</g>
<!-- Node4&#45;&gt;Node5 -->
<g id="edge4" class="edge"><title>Node4&#45;&gt;Node5</title>
<path fill="none" stroke="midnightblue" d="M824.415,-15C833.06,-15 841.65,-15 849.942,-15"/>
<polygon fill="midnightblue" stroke="midnightblue" points="824.256,-11.5001 814.256,-15 824.256,-18.5001 824.256,-11.5001"/>
</g>
</g>
</svg>
