<?xml version="1.0" encoding="UTF-8" standalone="no"?>
<!DOCTYPE svg PUBLIC "-//W3C//DTD SVG 1.1//EN"
 "http://www.w3.org/Graphics/SVG/1.1/DTD/svg11.dtd">
<!-- Generated by graphviz version 2.36.0 (20140111.2315)
 -->
<!-- Title: fxml_main.PatchTypeEditor.PatchTypeEditor Pages: 1 -->
<!--zoomable 108 -->
<svg id="main" version="1.1" xmlns="http://www.w3.org/2000/svg" xmlns:xlink="http://www.w3.org/1999/xlink" xml:space="preserve" onload="init(evt)">
<style type="text/css"><![CDATA[
.edge:hover path { stroke: red; }
.edge:hover polygon { stroke: red; fill: red; }
]]></style>
<script type="text/javascript"><![CDATA[
var edges = document.getElementsByTagName('g');
if (edges && edges.length) {
  for (var i=0;i<edges.length;i++) {
    if (edges[i].id.substr(0,4)=='edge') {
      edges[i].setAttribute('class','edge');
    }
  }
}
]]></script>
        <defs>
                <circle id="rim" cx="0" cy="0" r="7"/>
                <circle id="rim2" cx="0" cy="0" r="3.5"/>
                <g id="zoomPlus">
                        <use xlink:href="#rim" fill="#404040">
                                <set attributeName="fill" to="#808080" begin="zoomplus.mouseover" end="zoomplus.mouseout"/>
                        </use>
                        <path d="M-4,0h8M0,-4v8" fill="none" stroke="white" stroke-width="1.5" pointer-events="none"/>
                </g>
                <g id="zoomMin">
                        <use xlink:href="#rim" fill="#404040">
                                <set attributeName="fill" to="#808080" begin="zoomminus.mouseover" end="zoomminus.mouseout"/>
                        </use>
                        <path d="M-4,0h8" fill="none" stroke="white" stroke-width="1.5" pointer-events="none"/>
                </g>
                <g id="dirArrow">
                        <path fill="none" stroke="white" stroke-width="1.5" d="M0,-3.0v7 M-2.5,-0.5L0,-3.0L2.5,-0.5"/>
                </g>
               <g id="resetDef">
                       <use xlink:href="#rim2" fill="#404040">
                               <set attributeName="fill" to="#808080" begin="reset.mouseover" end="reset.mouseout"/>
                       </use>
               </g>
        </defs>

<script type="text/javascript">
var viewWidth = 1010;
var viewHeight = 108;
var sectionId = 'dynsection-2';
</script>
<script xlink:href="../../svgpan.js"/>
<svg id="graph" class="graph">
<g id="viewport">
<title>fxml_main.PatchTypeEditor.PatchTypeEditor</title>
<polygon fill="white" stroke="none" points="-4,4 -4,-104 1006,-104 1006,4 -4,4"/>
<!-- Node1 -->
<g id="node1" class="node"><title>Node1</title>
<polygon fill="#bfbfbf" stroke="black" points="0,-23 0,-53 146,-53 146,-23 0,-23"/>
<text text-anchor="start" x="8" y="-41" font-family="Helvetica,sans-Serif" font-size="10.00">fxml_main.PatchTypeEditor.</text>
<text text-anchor="middle" x="73" y="-30" font-family="Helvetica,sans-Serif" font-size="10.00">PatchTypeEditor</text>
</g>
<!-- Node2 -->
<g id="node2" class="node"><title>Node2</title>
<g id="a_node2"><a xlink:href="../../da/dc9/classfxml__main_1_1_patch_type_editor.html#a5449c10f6ed1a1128947c057dfb56f19" target="_top" xlink:title="fxml_main.PatchTypeEditor.constructor">
<polygon fill="white" stroke="black" points="182.5,-50.5 182.5,-69.5 383.5,-69.5 383.5,-50.5 182.5,-50.5"/>
<text text-anchor="middle" x="283" y="-57.5" font-family="Helvetica,sans-Serif" font-size="10.00">fxml_main.PatchTypeEditor.constructor</text>
</a>
</g>
</g>
<!-- Node1&#45;&gt;Node2 -->
<g id="edge1" class="edge"><title>Node1&#45;&gt;Node2</title>
<path fill="none" stroke="midnightblue" d="M146.165,-45.6328C157.715,-46.8544 169.845,-48.1374 181.904,-49.413"/>
<polygon fill="midnightblue" stroke="midnightblue" points="181.691,-52.9099 192.004,-50.4812 182.428,-45.9487 181.691,-52.9099"/>
</g>
<!-- Node7 -->
<g id="node7" class="node"><title>Node7</title>
<g id="a_node7"><a xlink:href="../../d1/d4f/classauthoring_1_1data_1_1_patch_type_data.html#a0147aa5c3c0fb4c30bb47c98d721c4a9" target="_top" xlink:title="authoring.data.PatchType\lData.getIdSet">
<polygon fill="white" stroke="black" points="214.5,-1 214.5,-31 351.5,-31 351.5,-1 214.5,-1"/>
<text text-anchor="start" x="222.5" y="-19" font-family="Helvetica,sans-Serif" font-size="10.00">authoring.data.PatchType</text>
<text text-anchor="middle" x="283" y="-8" font-family="Helvetica,sans-Serif" font-size="10.00">Data.getIdSet</text>
</a>
</g>
</g>
<!-- Node1&#45;&gt;Node7 -->
<g id="edge6" class="edge"><title>Node1&#45;&gt;Node7</title>
<path fill="none" stroke="midnightblue" d="M146.165,-30.3672C164.863,-28.3895 185.081,-26.2511 204.061,-24.2436"/>
<polygon fill="midnightblue" stroke="midnightblue" points="204.582,-27.7081 214.158,-23.1756 203.846,-20.7469 204.582,-27.7081"/>
</g>
<!-- Node3 -->
<g id="node3" class="node"><title>Node3</title>
<g id="a_node3"><a xlink:href="../../da/dc9/classfxml__main_1_1_patch_type_editor.html#ae5ea0a569dc268bf06f28b6ace5d1fb9" target="_top" xlink:title="fxml_main.PatchTypeEditor.initialize">
<polygon fill="white" stroke="black" points="420.5,-50.5 420.5,-69.5 605.5,-69.5 605.5,-50.5 420.5,-50.5"/>
<text text-anchor="middle" x="513" y="-57.5" font-family="Helvetica,sans-Serif" font-size="10.00">fxml_main.PatchTypeEditor.initialize</text>
</a>
</g>
</g>
<!-- Node2&#45;&gt;Node3 -->
<g id="edge2" class="edge"><title>Node2&#45;&gt;Node3</title>
<path fill="none" stroke="midnightblue" d="M383.672,-60C392.457,-60 401.357,-60 410.16,-60"/>
<polygon fill="midnightblue" stroke="midnightblue" points="410.435,-63.5001 420.435,-60 410.435,-56.5001 410.435,-63.5001"/>
</g>
<!-- Node4 -->
<g id="node4" class="node"><title>Node4</title>
<g id="a_node4"><a xlink:href="../../da/dc9/classfxml__main_1_1_patch_type_editor.html#af1426fefed4c4806c780404691095763" target="_top" xlink:title="fxml_main.PatchTypeEditor.init\lImageLoader">
<polygon fill="white" stroke="black" points="642.5,-70 642.5,-100 803.5,-100 803.5,-70 642.5,-70"/>
<text text-anchor="start" x="650.5" y="-88" font-family="Helvetica,sans-Serif" font-size="10.00">fxml_main.PatchTypeEditor.init</text>
<text text-anchor="middle" x="723" y="-77" font-family="Helvetica,sans-Serif" font-size="10.00">ImageLoader</text>
</a>
</g>
</g>
<!-- Node3&#45;&gt;Node4 -->
<g id="edge3" class="edge"><title>Node3&#45;&gt;Node4</title>
<path fill="none" stroke="midnightblue" d="M593.229,-69.5227C605.912,-71.0471 619.116,-72.6341 632.027,-74.1859"/>
<polygon fill="midnightblue" stroke="midnightblue" points="631.956,-77.7025 642.302,-75.4209 632.791,-70.7525 631.956,-77.7025"/>
</g>
<!-- Node6 -->
<g id="node6" class="node"><title>Node6</title>
<g id="a_node6"><a xlink:href="../../da/dc9/classfxml__main_1_1_patch_type_editor.html#a48fbe8f6014d056439d089c960bff447" target="_top" xlink:title="fxml_main.PatchTypeEditor.init\lGoBtn">
<polygon fill="white" stroke="black" points="642.5,-21 642.5,-51 803.5,-51 803.5,-21 642.5,-21"/>
<text text-anchor="start" x="650.5" y="-39" font-family="Helvetica,sans-Serif" font-size="10.00">fxml_main.PatchTypeEditor.init</text>
<text text-anchor="middle" x="723" y="-28" font-family="Helvetica,sans-Serif" font-size="10.00">GoBtn</text>
</a>
</g>
</g>
<!-- Node3&#45;&gt;Node6 -->
<g id="edge5" class="edge"><title>Node3&#45;&gt;Node6</title>
<path fill="none" stroke="midnightblue" d="M596.506,-50.4801C608.173,-49.1338 620.218,-47.7441 632.018,-46.3826"/>
<polygon fill="midnightblue" stroke="midnightblue" points="632.776,-49.8184 642.308,-45.1952 631.973,-42.8646 632.776,-49.8184"/>
</g>
<!-- Node5 -->
<g id="node5" class="node"><title>Node5</title>
<g id="a_node5"><a xlink:href="../../da/dc9/classfxml__main_1_1_patch_type_editor.html#a1772afb4c4b8563540cb313562881d9b" target="_top" xlink:title="fxml_main.PatchTypeEditor.set\lImageView">
<polygon fill="white" stroke="black" points="840.5,-70 840.5,-100 1001.5,-100 1001.5,-70 840.5,-70"/>
<text text-anchor="start" x="848.5" y="-88" font-family="Helvetica,sans-Serif" font-size="10.00">fxml_main.PatchTypeEditor.set</text>
<text text-anchor="middle" x="921" y="-77" font-family="Helvetica,sans-Serif" font-size="10.00">ImageView</text>
</a>
</g>
</g>
<!-- Node4&#45;&gt;Node5 -->
<g id="edge4" class="edge"><title>Node4&#45;&gt;Node5</title>
<path fill="none" stroke="midnightblue" d="M803.721,-85C812.405,-85 821.287,-85 830.082,-85"/>
<polygon fill="midnightblue" stroke="midnightblue" points="830.35,-88.5001 840.35,-85 830.35,-81.5001 830.35,-88.5001"/>
</g>
</g>
</svg>
        <g id="navigator" transform="translate(0 0)" fill="#404254">
                <rect fill="#f2f5e9" fill-opacity="0.5" stroke="#606060" stroke-width=".5" x="0" y="0" width="60" height="60"/>
                <use id="zoomplus" xlink:href="#zoomPlus" x="17" y="9" onmousedown="handleZoom(evt,'in')"/>
                <use id="zoomminus" xlink:href="#zoomMin" x="42" y="9" onmousedown="handleZoom(evt,'out')"/>
                <use id="reset" xlink:href="#resetDef" x="30" y="36" onmousedown="handleReset()"/>
                <g id="arrowUp" xlink:href="#dirArrow" transform="translate(30 24)" onmousedown="handlePan(0,-1)">
                  <use xlink:href="#rim" fill="#404040">
                        <set attributeName="fill" to="#808080" begin="arrowUp.mouseover" end="arrowUp.mouseout"/>
                  </use>
                  <path fill="none" stroke="white" stroke-width="1.5" d="M0,-3.0v7 M-2.5,-0.5L0,-3.0L2.5,-0.5"/>
                </g>
                <g id="arrowRight" xlink:href="#dirArrow" transform="rotate(90) translate(36 -43)" onmousedown="handlePan(1,0)">
                  <use xlink:href="#rim" fill="#404040">
                        <set attributeName="fill" to="#808080" begin="arrowRight.mouseover" end="arrowRight.mouseout"/>
                  </use>
                  <path fill="none" stroke="white" stroke-width="1.5" d="M0,-3.0v7 M-2.5,-0.5L0,-3.0L2.5,-0.5"/>
                </g>
                <g id="arrowDown" xlink:href="#dirArrow" transform="rotate(180) translate(-30 -48)" onmousedown="handlePan(0,1)">
                  <use xlink:href="#rim" fill="#404040">
                        <set attributeName="fill" to="#808080" begin="arrowDown.mouseover" end="arrowDown.mouseout"/>
                  </use>
                  <path fill="none" stroke="white" stroke-width="1.5" d="M0,-3.0v7 M-2.5,-0.5L0,-3.0L2.5,-0.5"/>
                </g>
                <g id="arrowLeft" xlink:href="#dirArrow" transform="rotate(270) translate(-36 17)" onmousedown="handlePan(-1,0)">
                  <use xlink:href="#rim" fill="#404040">
                        <set attributeName="fill" to="#808080" begin="arrowLeft.mouseover" end="arrowLeft.mouseout"/>
                  </use>
                  <path fill="none" stroke="white" stroke-width="1.5" d="M0,-3.0v7 M-2.5,-0.5L0,-3.0L2.5,-0.5"/>
                </g>
        </g>
        <svg viewBox="0 0 15 15" width="100%" height="30px" preserveAspectRatio="xMaxYMin meet">
         <g id="arrow_out" transform="scale(0.3 0.3)">
          <a xlink:href="classfxml__main_1_1_patch_type_editor_a1fd0915cff988c48cc8adf9d707cb9db_cgraph_org.svg" target="_base">
           <rect id="button" ry="5" rx="5" y="6" x="6" height="38" width="38"
                fill="#f2f5e9" fill-opacity="0.5" stroke="#606060" stroke-width="1.0"/>
           <path id="arrow"
             d="M 11.500037,31.436501 C 11.940474,20.09759 22.043105,11.32322 32.158766,21.979434 L 37.068811,17.246167 C 37.068811,17.246167 37.088388,32 37.088388,32 L 22.160133,31.978069 C 22.160133,31.978069 26.997745,27.140456 26.997745,27.140456 C 18.528582,18.264221 13.291696,25.230495 11.500037,31.436501 z"
             style="fill:#404040;"/>
          </a>
         </g>
        </svg>
</svg>
