<?xml version="1.0" encoding="UTF-8" standalone="no"?>
<!DOCTYPE svg PUBLIC "-//W3C//DTD SVG 1.1//EN"
 "http://www.w3.org/Graphics/SVG/1.1/DTD/svg11.dtd">
<!-- Generated by graphviz version 2.36.0 (20140111.2315)
 -->
<!-- Title: fxml_main.PatchTypeEditor.initialize Pages: 1 -->
<svg width="590pt" height="87pt"
 viewBox="0.00 0.00 590.00 87.00" xmlns="http://www.w3.org/2000/svg" xmlns:xlink="http://www.w3.org/1999/xlink">
<g id="graph0" class="graph" transform="scale(1 1) rotate(0) translate(4 83)">
<title>fxml_main.PatchTypeEditor.initialize</title>
<polygon fill="white" stroke="none" points="-4,4 -4,-83 586,-83 586,4 -4,4"/>
<!-- Node1 -->
<g id="node1" class="node"><title>Node1</title>
<polygon fill="#bfbfbf" stroke="black" points="0.5,-29.5 0.5,-48.5 185.5,-48.5 185.5,-29.5 0.5,-29.5"/>
<text text-anchor="middle" x="93" y="-36.5" font-family="Helvetica,sans-Serif" font-size="10.00">fxml_main.PatchTypeEditor.initialize</text>
</g>
<!-- Node2 -->
<g id="node2" class="node"><title>Node2</title>
<g id="a_node2"><a xlink:href="../../da/dc9/classfxml__main_1_1_patch_type_editor.html#a48fbe8f6014d056439d089c960bff447" target="_top" xlink:title="fxml_main.PatchTypeEditor.init\lGoBtn">
<polygon fill="white" stroke="black" points="222.5,-49 222.5,-79 383.5,-79 383.5,-49 222.5,-49"/>
<text text-anchor="start" x="230.5" y="-67" font-family="Helvetica,sans-Serif" font-size="10.00">fxml_main.PatchTypeEditor.init</text>
<text text-anchor="middle" x="303" y="-56" font-family="Helvetica,sans-Serif" font-size="10.00">GoBtn</text>
</a>
</g>
</g>
<!-- Node1&#45;&gt;Node2 -->
<g id="edge1" class="edge"><title>Node1&#45;&gt;Node2</title>
<path fill="none" stroke="midnightblue" d="M173.229,-48.5227C185.912,-50.0471 199.116,-51.6341 212.027,-53.1859"/>
<polygon fill="midnightblue" stroke="midnightblue" points="211.956,-56.7025 222.302,-54.4209 212.791,-49.7525 211.956,-56.7025"/>
</g>
<!-- Node3 -->
<g id="node3" class="node"><title>Node3</title>
<g id="a_node3"><a xlink:href="../../da/dc9/classfxml__main_1_1_patch_type_editor.html#af1426fefed4c4806c780404691095763" target="_top" xlink:title="fxml_main.PatchTypeEditor.init\lImageLoader">
<polygon fill="white" stroke="black" points="222.5,-0 222.5,-30 383.5,-30 383.5,-0 222.5,-0"/>
<text text-anchor="start" x="230.5" y="-18" font-family="Helvetica,sans-Serif" font-size="10.00">fxml_main.PatchTypeEditor.init</text>
<text text-anchor="middle" x="303" y="-7" font-family="Helvetica,sans-Serif" font-size="10.00">ImageLoader</text>
</a>
</g>
</g>
<!-- Node1&#45;&gt;Node3 -->
<g id="edge2" class="edge"><title>Node1&#45;&gt;Node3</title>
<path fill="none" stroke="midnightblue" d="M176.506,-29.4801C188.173,-28.1338 200.218,-26.7441 212.018,-25.3826"/>
<polygon fill="midnightblue" stroke="midnightblue" points="212.776,-28.8184 222.308,-24.1952 211.973,-21.8646 212.776,-28.8184"/>
</g>
<!-- Node4 -->
<g id="node4" class="node"><title>Node4</title>
<g id="a_node4"><a xlink:href="../../da/dc9/classfxml__main_1_1_patch_type_editor.html#a1772afb4c4b8563540cb313562881d9b" target="_top" xlink:title="fxml_main.PatchTypeEditor.set\lImageView">
<polygon fill="white" stroke="black" points="420.5,-0 420.5,-30 581.5,-30 581.5,-0 420.5,-0"/>
<text text-anchor="start" x="428.5" y="-18" font-family="Helvetica,sans-Serif" font-size="10.00">fxml_main.PatchTypeEditor.set</text>
<text text-anchor="middle" x="501" y="-7" font-family="Helvetica,sans-Serif" font-size="10.00">ImageView</text>
</a>
</g>
</g>
<!-- Node3&#45;&gt;Node4 -->
<g id="edge3" class="edge"><title>Node3&#45;&gt;Node4</title>
<path fill="none" stroke="midnightblue" d="M383.721,-15C392.405,-15 401.287,-15 410.082,-15"/>
<polygon fill="midnightblue" stroke="midnightblue" points="410.35,-18.5001 420.35,-15 410.35,-11.5001 410.35,-18.5001"/>
</g>
</g>
</svg>
