<?xml version="1.0" encoding="UTF-8" standalone="no"?>
<!DOCTYPE svg PUBLIC "-//W3C//DTD SVG 1.1//EN"
 "http://www.w3.org/Graphics/SVG/1.1/DTD/svg11.dtd">
<!-- Generated by graphviz version 2.36.0 (20140111.2315)
 -->
<!-- Title: fxml_main.PatchTypeEditor.initGoBtn Pages: 1 -->
<svg width="812pt" height="38pt"
 viewBox="0.00 0.00 812.00 38.00" xmlns="http://www.w3.org/2000/svg" xmlns:xlink="http://www.w3.org/1999/xlink">
<g id="graph0" class="graph" transform="scale(1 1) rotate(0) translate(4 34)">
<title>fxml_main.PatchTypeEditor.initGoBtn</title>
<polygon fill="white" stroke="none" points="-4,4 -4,-34 808,-34 808,4 -4,4"/>
<!-- Node1 -->
<g id="node1" class="node"><title>Node1</title>
<polygon fill="#bfbfbf" stroke="black" points="0.5,-0 0.5,-30 161.5,-30 161.5,-0 0.5,-0"/>
<text text-anchor="start" x="8.5" y="-18" font-family="Helvetica,sans-Serif" font-size="10.00">fxml_main.PatchTypeEditor.init</text>
<text text-anchor="middle" x="81" y="-7" font-family="Helvetica,sans-Serif" font-size="10.00">GoBtn</text>
</g>
<!-- Node2 -->
<g id="node2" class="node"><title>Node2</title>
<g id="a_node2"><a xlink:href="../../da/dc9/classfxml__main_1_1_patch_type_editor.html#ae5ea0a569dc268bf06f28b6ace5d1fb9" target="_top" xlink:title="fxml_main.PatchTypeEditor.initialize">
<polygon fill="white" stroke="black" points="198.5,-5.5 198.5,-24.5 383.5,-24.5 383.5,-5.5 198.5,-5.5"/>
<text text-anchor="middle" x="291" y="-12.5" font-family="Helvetica,sans-Serif" font-size="10.00">fxml_main.PatchTypeEditor.initialize</text>
</a>
</g>
</g>
<!-- Node1&#45;&gt;Node2 -->
<g id="edge1" class="edge"><title>Node1&#45;&gt;Node2</title>
<path fill="none" stroke="midnightblue" d="M171.781,-15C180.585,-15 189.526,-15 198.348,-15"/>
<polygon fill="midnightblue" stroke="midnightblue" points="171.526,-11.5001 161.526,-15 171.526,-18.5001 171.526,-11.5001"/>
</g>
<!-- Node3 -->
<g id="node3" class="node"><title>Node3</title>
<g id="a_node3"><a xlink:href="../../da/dc9/classfxml__main_1_1_patch_type_editor.html#a5449c10f6ed1a1128947c057dfb56f19" target="_top" xlink:title="fxml_main.PatchTypeEditor.constructor">
<polygon fill="white" stroke="black" points="420.5,-5.5 420.5,-24.5 621.5,-24.5 621.5,-5.5 420.5,-5.5"/>
<text text-anchor="middle" x="521" y="-12.5" font-family="Helvetica,sans-Serif" font-size="10.00">fxml_main.PatchTypeEditor.constructor</text>
</a>
</g>
</g>
<!-- Node2&#45;&gt;Node3 -->
<g id="edge2" class="edge"><title>Node2&#45;&gt;Node3</title>
<path fill="none" stroke="midnightblue" d="M393.947,-15C402.681,-15 411.51,-15 420.226,-15"/>
<polygon fill="midnightblue" stroke="midnightblue" points="393.751,-11.5001 383.751,-15 393.751,-18.5001 393.751,-11.5001"/>
</g>
<!-- Node4 -->
<g id="node4" class="node"><title>Node4</title>
<g id="a_node4"><a xlink:href="../../da/dc9/classfxml__main_1_1_patch_type_editor.html#a1fd0915cff988c48cc8adf9d707cb9db" target="_top" xlink:title="fxml_main.PatchTypeEditor.\lPatchTypeEditor">
<polygon fill="white" stroke="black" points="658,-0 658,-30 804,-30 804,-0 658,-0"/>
<text text-anchor="start" x="666" y="-18" font-family="Helvetica,sans-Serif" font-size="10.00">fxml_main.PatchTypeEditor.</text>
<text text-anchor="middle" x="731" y="-7" font-family="Helvetica,sans-Serif" font-size="10.00">PatchTypeEditor</text>
</a>
</g>
</g>
<!-- Node3&#45;&gt;Node4 -->
<g id="edge3" class="edge"><title>Node3&#45;&gt;Node4</title>
<path fill="none" stroke="midnightblue" d="M631.746,-15C640.604,-15 649.405,-15 657.894,-15"/>
<polygon fill="midnightblue" stroke="midnightblue" points="631.735,-11.5001 621.735,-15 631.735,-18.5001 631.735,-11.5001"/>
</g>
</g>
</svg>
