<?xml version="1.0" encoding="UTF-8" standalone="no"?>
<!DOCTYPE svg PUBLIC "-//W3C//DTD SVG 1.1//EN"
 "http://www.w3.org/Graphics/SVG/1.1/DTD/svg11.dtd">
<!-- Generated by graphviz version 2.36.0 (20140111.2315)
 -->
<!-- Title: authoring.data.PieceTypeData.remove Pages: 1 -->
<svg width="346pt" height="87pt"
 viewBox="0.00 0.00 346.00 87.00" xmlns="http://www.w3.org/2000/svg" xmlns:xlink="http://www.w3.org/1999/xlink">
<g id="graph0" class="graph" transform="scale(1 1) rotate(0) translate(4 83)">
<title>authoring.data.PieceTypeData.remove</title>
<polygon fill="white" stroke="none" points="-4,4 -4,-83 342,-83 342,4 -4,4"/>
<!-- Node1 -->
<g id="node1" class="node"><title>Node1</title>
<polygon fill="#bfbfbf" stroke="black" points="0.5,-24 0.5,-54 137.5,-54 137.5,-24 0.5,-24"/>
<text text-anchor="start" x="8.5" y="-42" font-family="Helvetica,sans-Serif" font-size="10.00">authoring.data.PieceType</text>
<text text-anchor="middle" x="69" y="-31" font-family="Helvetica,sans-Serif" font-size="10.00">Data.remove</text>
</g>
<!-- Node2 -->
<g id="node2" class="node"><title>Node2</title>
<g id="a_node2"><a xlink:href="../../dc/d77/classfxml__main_1_1_piece_controller.html#aa6a17751c7b04e10fd6767949fcf391d" target="_top" xlink:title="fxml_main.PieceController.init\lEntryDelBtn">
<polygon fill="white" stroke="black" points="177,-49 177,-79 335,-79 335,-49 177,-49"/>
<text text-anchor="start" x="185" y="-67" font-family="Helvetica,sans-Serif" font-size="10.00">fxml_main.PieceController.init</text>
<text text-anchor="middle" x="256" y="-56" font-family="Helvetica,sans-Serif" font-size="10.00">EntryDelBtn</text>
</a>
</g>
</g>
<!-- Node1&#45;&gt;Node2 -->
<g id="edge1" class="edge"><title>Node1&#45;&gt;Node2</title>
<path fill="none" stroke="midnightblue" d="M147.592,-49.4855C157.302,-50.7975 167.236,-52.14 176.952,-53.4529"/>
<polygon fill="midnightblue" stroke="midnightblue" points="147.953,-46.0025 137.575,-48.1317 147.016,-52.9394 147.953,-46.0025"/>
</g>
<!-- Node3 -->
<g id="node3" class="node"><title>Node3</title>
<g id="a_node3"><a xlink:href="../../dc/d26/classauthoring__environment_1_1_library_view.html#acfc3c07dda6a2b1489667af2865fdb6a" target="_top" xlink:title="authoring_environment.Library\lView.removePiece">
<polygon fill="white" stroke="black" points="174,-0 174,-30 338,-30 338,-0 174,-0"/>
<text text-anchor="start" x="182" y="-18" font-family="Helvetica,sans-Serif" font-size="10.00">authoring_environment.Library</text>
<text text-anchor="middle" x="256" y="-7" font-family="Helvetica,sans-Serif" font-size="10.00">View.removePiece</text>
</a>
</g>
</g>
<!-- Node1&#45;&gt;Node3 -->
<g id="edge2" class="edge"><title>Node1&#45;&gt;Node3</title>
<path fill="none" stroke="midnightblue" d="M147.622,-28.9301C156.267,-27.8086 165.089,-26.6641 173.777,-25.537"/>
<polygon fill="midnightblue" stroke="midnightblue" points="147.041,-25.4761 137.575,-30.2336 147.942,-32.4179 147.041,-25.4761"/>
</g>
</g>
</svg>
