<?xml version="1.0" encoding="UTF-8" standalone="no"?>
<!DOCTYPE svg PUBLIC "-//W3C//DTD SVG 1.1//EN"
 "http://www.w3.org/Graphics/SVG/1.1/DTD/svg11.dtd">
<!-- Generated by graphviz version 2.36.0 (20140111.2315)
 -->
<!-- Title: authoring.eventeditor.NewConditionController Pages: 1 -->
<svg width="800pt" height="240pt"
 viewBox="0.00 0.00 800.00 240.00" xmlns="http://www.w3.org/2000/svg" xmlns:xlink="http://www.w3.org/1999/xlink">
<g id="graph0" class="graph" transform="scale(1 1) rotate(0) translate(4 236)">
<title>authoring.eventeditor.NewConditionController</title>
<polygon fill="white" stroke="none" points="-4,4 -4,-236 796,-236 796,4 -4,4"/>
<!-- Node1 -->
<g id="node1" class="node"><title>Node1</title>
<polygon fill="#bfbfbf" stroke="black" points="648.5,-112 648.5,-142 791.5,-142 791.5,-112 648.5,-112"/>
<text text-anchor="start" x="656.5" y="-130" font-family="Helvetica,sans-Serif" font-size="10.00">authoring.eventeditor.New</text>
<text text-anchor="middle" x="720" y="-119" font-family="Helvetica,sans-Serif" font-size="10.00">ConditionController</text>
</g>
<!-- Node2 -->
<g id="node2" class="node"><title>Node2</title>
<polygon fill="white" stroke="#bfbfbf" points="370.5,-212.5 370.5,-231.5 439.5,-231.5 439.5,-212.5 370.5,-212.5"/>
<text text-anchor="middle" x="405" y="-219.5" font-family="Helvetica,sans-Serif" font-size="10.00">Initializable</text>
</g>
<!-- Node2&#45;&gt;Node1 -->
<g id="edge1" class="edge"><title>Node2&#45;&gt;Node1</title>
<path fill="none" stroke="midnightblue" d="M449.79,-220.431C496.016,-217.536 570.31,-209.315 630,-186 656.938,-175.478 684.094,-155.871 701.2,-142.158"/>
<polygon fill="midnightblue" stroke="midnightblue" points="449.586,-216.937 439.802,-221.001 449.985,-223.925 449.586,-216.937"/>
</g>
<!-- Node3 -->
<g id="node3" class="node"><title>Node3</title>
<polygon fill="white" stroke="#bfbfbf" points="346,-174.5 346,-193.5 464,-193.5 464,-174.5 346,-174.5"/>
<text text-anchor="middle" x="405" y="-181.5" font-family="Helvetica,sans-Serif" font-size="10.00">ChoiceBox&lt; String &gt;</text>
</g>
<!-- Node3&#45;&gt;Node1 -->
<g id="edge2" class="edge"><title>Node3&#45;&gt;Node1</title>
<path fill="none" stroke="#9a32cd" stroke-dasharray="5,2" d="M474.605,-177.712C519.197,-172.914 578.421,-165.201 630,-154 644.674,-150.813 660.433,-146.379 674.55,-142.023"/>
<polygon fill="#9a32cd" stroke="#9a32cd" points="474.04,-174.252 464.462,-178.78 474.773,-181.213 474.04,-174.252"/>
<text text-anchor="middle" x="581" y="-174" font-family="Helvetica,sans-Serif" font-size="10.00"> conditionChoiceBox</text>
</g>
<!-- Node4 -->
<g id="node4" class="node"><title>Node4</title>
<polygon fill="white" stroke="#bfbfbf" points="364.5,-136.5 364.5,-155.5 445.5,-155.5 445.5,-136.5 364.5,-136.5"/>
<text text-anchor="middle" x="405" y="-143.5" font-family="Helvetica,sans-Serif" font-size="10.00">List&lt; Class &gt;</text>
</g>
<!-- Node4&#45;&gt;Node1 -->
<g id="edge3" class="edge"><title>Node4&#45;&gt;Node1</title>
<path fill="none" stroke="#9a32cd" stroke-dasharray="5,2" d="M455.946,-142.968C507.948,-139.811 589.839,-134.84 648.435,-131.283"/>
<polygon fill="#9a32cd" stroke="#9a32cd" points="455.411,-139.494 445.642,-143.594 455.835,-146.481 455.411,-139.494"/>
<text text-anchor="middle" x="581" y="-142" font-family="Helvetica,sans-Serif" font-size="10.00"> conditionsList</text>
</g>
<!-- Node5 -->
<g id="node5" class="node"><title>Node5</title>
<polygon fill="white" stroke="#bfbfbf" points="372,-98.5 372,-117.5 438,-117.5 438,-98.5 372,-98.5"/>
<text text-anchor="middle" x="405" y="-105.5" font-family="Helvetica,sans-Serif" font-size="10.00">ScrollPane</text>
</g>
<!-- Node5&#45;&gt;Node1 -->
<g id="edge4" class="edge"><title>Node5&#45;&gt;Node1</title>
<path fill="none" stroke="#9a32cd" stroke-dasharray="5,2" d="M448.303,-109.18C493.373,-110.604 566.786,-113.396 630,-118 635.886,-118.429 641.985,-118.928 648.105,-119.469"/>
<polygon fill="#9a32cd" stroke="#9a32cd" points="448.409,-105.682 438.306,-108.873 448.193,-112.679 448.409,-105.682"/>
<text text-anchor="middle" x="581" y="-121" font-family="Helvetica,sans-Serif" font-size="10.00"> editorScrollPane</text>
</g>
<!-- Node6 -->
<g id="node6" class="node"><title>Node6</title>
<g id="a_node6"><a xlink:href="../../d5/d55/classauthoring_1_1data_1_1_events_data_wrapper.html" target="_top" xlink:title="authoring.data.EventsData\lWrapper">
<polygon fill="white" stroke="black" points="332,-49 332,-79 478,-79 478,-49 332,-49"/>
<text text-anchor="start" x="340" y="-67" font-family="Helvetica,sans-Serif" font-size="10.00">authoring.data.EventsData</text>
<text text-anchor="middle" x="405" y="-56" font-family="Helvetica,sans-Serif" font-size="10.00">Wrapper</text>
</a>
</g>
</g>
<!-- Node6&#45;&gt;Node1 -->
<g id="edge5" class="edge"><title>Node6&#45;&gt;Node1</title>
<path fill="none" stroke="#9a32cd" stroke-dasharray="5,2" d="M488.25,-73.1937C530.873,-78.7853 583.583,-86.9939 630,-98 645.813,-101.749 662.852,-106.995 677.747,-111.995"/>
<polygon fill="#9a32cd" stroke="#9a32cd" points="488.567,-69.7057 478.202,-71.8992 487.673,-76.6483 488.567,-69.7057"/>
<text text-anchor="middle" x="581" y="-101" font-family="Helvetica,sans-Serif" font-size="10.00"> myData</text>
</g>
<!-- Node7 -->
<g id="node7" class="node"><title>Node7</title>
<polygon fill="white" stroke="#bfbfbf" points="0,-98 0,-128 188,-128 188,-98 0,-98"/>
<text text-anchor="start" x="8" y="-116" font-family="Helvetica,sans-Serif" font-size="10.00">List&lt; gamedata.gamecomponents.</text>
<text text-anchor="middle" x="94" y="-105" font-family="Helvetica,sans-Serif" font-size="10.00">Piece &gt;</text>
</g>
<!-- Node7&#45;&gt;Node6 -->
<g id="edge6" class="edge"><title>Node7&#45;&gt;Node6</title>
<path fill="none" stroke="#9a32cd" stroke-dasharray="5,2" d="M198.235,-96.6293C241.998,-89.6897 291.949,-81.7686 331.676,-75.4689"/>
<polygon fill="#9a32cd" stroke="#9a32cd" points="197.458,-93.2089 188.129,-98.2319 198.554,-100.122 197.458,-93.2089"/>
<text text-anchor="middle" x="242" y="-98" font-family="Helvetica,sans-Serif" font-size="10.00"> myPieceTypes</text>
</g>
<!-- Node8 -->
<g id="node8" class="node"><title>Node8</title>
<polygon fill="white" stroke="#bfbfbf" points="0,-49 0,-79 188,-79 188,-49 0,-49"/>
<text text-anchor="start" x="8" y="-67" font-family="Helvetica,sans-Serif" font-size="10.00">List&lt; gamedata.gamecomponents.</text>
<text text-anchor="middle" x="94" y="-56" font-family="Helvetica,sans-Serif" font-size="10.00">Patch &gt;</text>
</g>
<!-- Node8&#45;&gt;Node6 -->
<g id="edge7" class="edge"><title>Node8&#45;&gt;Node6</title>
<path fill="none" stroke="#9a32cd" stroke-dasharray="5,2" d="M198.235,-64C241.998,-64 291.949,-64 331.676,-64"/>
<polygon fill="#9a32cd" stroke="#9a32cd" points="198.129,-60.5001 188.129,-64 198.129,-67.5001 198.129,-60.5001"/>
<text text-anchor="middle" x="242" y="-67" font-family="Helvetica,sans-Serif" font-size="10.00"> myPatchTypes</text>
</g>
<!-- Node9 -->
<g id="node9" class="node"><title>Node9</title>
<polygon fill="white" stroke="#bfbfbf" points="24.5,-0 24.5,-30 163.5,-30 163.5,-0 24.5,-0"/>
<text text-anchor="start" x="32.5" y="-18" font-family="Helvetica,sans-Serif" font-size="10.00">List&lt; gameengine.player.</text>
<text text-anchor="middle" x="94" y="-7" font-family="Helvetica,sans-Serif" font-size="10.00">Player &gt;</text>
</g>
<!-- Node9&#45;&gt;Node6 -->
<g id="edge8" class="edge"><title>Node9&#45;&gt;Node6</title>
<path fill="none" stroke="#9a32cd" stroke-dasharray="5,2" d="M173.753,-27.4883C222.435,-35.2082 284.45,-45.0422 331.852,-52.559"/>
<polygon fill="#9a32cd" stroke="#9a32cd" points="174.002,-23.9842 163.577,-25.8747 172.906,-30.8978 174.002,-23.9842"/>
<text text-anchor="middle" x="242" y="-47" font-family="Helvetica,sans-Serif" font-size="10.00"> myPlayers</text>
</g>
<!-- Node10 -->
<g id="node10" class="node"><title>Node10</title>
<polygon fill="white" stroke="#bfbfbf" points="296.5,-0 296.5,-30 513.5,-30 513.5,-0 296.5,-0"/>
<text text-anchor="start" x="304.5" y="-18" font-family="Helvetica,sans-Serif" font-size="10.00">Consumer&lt; gamedata.events.conditions.</text>
<text text-anchor="middle" x="405" y="-7" font-family="Helvetica,sans-Serif" font-size="10.00">Condition &gt;</text>
</g>
<!-- Node10&#45;&gt;Node1 -->
<g id="edge9" class="edge"><title>Node10&#45;&gt;Node1</title>
<path fill="none" stroke="#9a32cd" stroke-dasharray="5,2" d="M522.586,-32.0704C558.002,-39.6066 596.412,-50.2226 630,-65 657.234,-76.9819 684.753,-97.7907 701.831,-111.967"/>
<polygon fill="#9a32cd" stroke="#9a32cd" points="523.184,-28.6201 512.683,-30.0256 521.768,-35.4755 523.184,-28.6201"/>
<text text-anchor="middle" x="581" y="-68" font-family="Helvetica,sans-Serif" font-size="10.00"> myDoneLambda</text>
</g>
</g>
</svg>
