<?xml version="1.0" encoding="UTF-8" standalone="no"?>
<!DOCTYPE svg PUBLIC "-//W3C//DTD SVG 1.1//EN"
 "http://www.w3.org/Graphics/SVG/1.1/DTD/svg11.dtd">
<!-- Generated by graphviz version 2.36.0 (20140111.2315)
 -->
<!-- Title: gamedata.events.globalaction.DeletePieceAtLocation.doBehavior Pages: 1 -->
<svg width="874pt" height="234pt"
 viewBox="0.00 0.00 874.00 234.00" xmlns="http://www.w3.org/2000/svg" xmlns:xlink="http://www.w3.org/1999/xlink">
<g id="graph0" class="graph" transform="scale(1 1) rotate(0) translate(4 230)">
<title>gamedata.events.globalaction.DeletePieceAtLocation.doBehavior</title>
<polygon fill="white" stroke="none" points="-4,4 -4,-230 870,-230 870,4 -4,4"/>
<!-- Node1 -->
<g id="node1" class="node"><title>Node1</title>
<polygon fill="#bfbfbf" stroke="black" points="0,-147 0,-177 182,-177 182,-147 0,-147"/>
<text text-anchor="start" x="8" y="-165" font-family="Helvetica,sans-Serif" font-size="10.00">gamedata.events.globalaction.</text>
<text text-anchor="middle" x="91" y="-154" font-family="Helvetica,sans-Serif" font-size="10.00">DeletePieceAtLocation.doBehavior</text>
</g>
<!-- Node2 -->
<g id="node2" class="node"><title>Node2</title>
<g id="a_node2"><a xlink:href="../../da/d4c/classauthoring__environment_1_1_g_u_i_grid.html#afe59bd9dfeddc383a541f50fda3e647a" target="_top" xlink:title="authoring_environment.GUIGrid.remove\lPieceAtCoordinate">
<polygon fill="white" stroke="black" points="218,-147 218,-177 426,-177 426,-147 218,-147"/>
<text text-anchor="start" x="226" y="-165" font-family="Helvetica,sans-Serif" font-size="10.00">authoring_environment.GUIGrid.remove</text>
<text text-anchor="middle" x="322" y="-154" font-family="Helvetica,sans-Serif" font-size="10.00">PieceAtCoordinate</text>
</a>
</g>
</g>
<!-- Node1&#45;&gt;Node2 -->
<g id="edge1" class="edge"><title>Node1&#45;&gt;Node2</title>
<path fill="none" stroke="midnightblue" d="M182.178,-162C190.544,-162 199.092,-162 207.632,-162"/>
<polygon fill="midnightblue" stroke="midnightblue" points="207.641,-165.5 217.641,-162 207.641,-158.5 207.641,-165.5"/>
</g>
<!-- Node3 -->
<g id="node3" class="node"><title>Node3</title>
<g id="a_node3"><a xlink:href="../../da/d4c/classauthoring__environment_1_1_g_u_i_grid.html#a1ac1af9ff6b3cff9aee00db73948d1c0" target="_top" xlink:title="authoring_environment.GUIGrid.get\lPiece">
<polygon fill="white" stroke="black" points="472.5,-196 472.5,-226 659.5,-226 659.5,-196 472.5,-196"/>
<text text-anchor="start" x="480.5" y="-214" font-family="Helvetica,sans-Serif" font-size="10.00">authoring_environment.GUIGrid.get</text>
<text text-anchor="middle" x="566" y="-203" font-family="Helvetica,sans-Serif" font-size="10.00">Piece</text>
</a>
</g>
</g>
<!-- Node2&#45;&gt;Node3 -->
<g id="edge2" class="edge"><title>Node2&#45;&gt;Node3</title>
<path fill="none" stroke="midnightblue" d="M397.253,-177.035C423.734,-182.396 453.744,-188.473 480.988,-193.989"/>
<polygon fill="midnightblue" stroke="midnightblue" points="480.392,-197.44 490.888,-195.994 481.781,-190.579 480.392,-197.44"/>
</g>
<!-- Node5 -->
<g id="node5" class="node"><title>Node5</title>
<g id="a_node5"><a xlink:href="../../da/d4c/classauthoring__environment_1_1_g_u_i_grid.html#a11c99629d13f4fd80d59bcd66a794695" target="_top" xlink:title="authoring_environment.GUIGrid.is\lPieceOccupied">
<polygon fill="white" stroke="black" points="476.5,-147 476.5,-177 655.5,-177 655.5,-147 476.5,-147"/>
<text text-anchor="start" x="484.5" y="-165" font-family="Helvetica,sans-Serif" font-size="10.00">authoring_environment.GUIGrid.is</text>
<text text-anchor="middle" x="566" y="-154" font-family="Helvetica,sans-Serif" font-size="10.00">PieceOccupied</text>
</a>
</g>
</g>
<!-- Node2&#45;&gt;Node5 -->
<g id="edge4" class="edge"><title>Node2&#45;&gt;Node5</title>
<path fill="none" stroke="midnightblue" d="M426.332,-162C439.408,-162 452.766,-162 465.777,-162"/>
<polygon fill="midnightblue" stroke="midnightblue" points="466.124,-165.5 476.124,-162 466.124,-158.5 466.124,-165.5"/>
</g>
<!-- Node6 -->
<g id="node6" class="node"><title>Node6</title>
<g id="a_node6"><a xlink:href="../../da/d4c/classauthoring__environment_1_1_g_u_i_grid.html#a53382a0de9f44f0642c3c9c5b009e613" target="_top" xlink:title="authoring_environment.GUIGrid.remove\lPiece">
<polygon fill="white" stroke="black" points="462,-98 462,-128 670,-128 670,-98 462,-98"/>
<text text-anchor="start" x="470" y="-116" font-family="Helvetica,sans-Serif" font-size="10.00">authoring_environment.GUIGrid.remove</text>
<text text-anchor="middle" x="566" y="-105" font-family="Helvetica,sans-Serif" font-size="10.00">Piece</text>
</a>
</g>
</g>
<!-- Node2&#45;&gt;Node6 -->
<g id="edge6" class="edge"><title>Node2&#45;&gt;Node6</title>
<path fill="none" stroke="midnightblue" d="M397.253,-146.965C423.734,-141.604 453.744,-135.527 480.988,-130.011"/>
<polygon fill="midnightblue" stroke="midnightblue" points="481.781,-133.421 490.888,-128.006 480.392,-126.56 481.781,-133.421"/>
</g>
<!-- Node4 -->
<g id="node4" class="node"><title>Node4</title>
<g id="a_node4"><a xlink:href="../../d6/dda/classauthoring_1_1data_1_1_piece_instance_data.html#afb4443eda20595533c28fe05f079fb48" target="_top" xlink:title="authoring.data.PieceInstance\lData.getData">
<polygon fill="white" stroke="black" points="708,-196 708,-226 864,-226 864,-196 708,-196"/>
<text text-anchor="start" x="716" y="-214" font-family="Helvetica,sans-Serif" font-size="10.00">authoring.data.PieceInstance</text>
<text text-anchor="middle" x="786" y="-203" font-family="Helvetica,sans-Serif" font-size="10.00">Data.getData</text>
</a>
</g>
</g>
<!-- Node3&#45;&gt;Node4 -->
<g id="edge3" class="edge"><title>Node3&#45;&gt;Node4</title>
<path fill="none" stroke="midnightblue" d="M659.768,-211C672.262,-211 685.047,-211 697.446,-211"/>
<polygon fill="midnightblue" stroke="midnightblue" points="697.757,-214.5 707.757,-211 697.757,-207.5 697.757,-214.5"/>
</g>
<!-- Node5&#45;&gt;Node4 -->
<g id="edge5" class="edge"><title>Node5&#45;&gt;Node4</title>
<path fill="none" stroke="midnightblue" d="M633.889,-177.035C657.43,-182.326 684.067,-188.313 708.349,-193.771"/>
<polygon fill="midnightblue" stroke="midnightblue" points="707.714,-197.216 718.238,-195.994 709.249,-190.386 707.714,-197.216"/>
</g>
<!-- Node7 -->
<g id="node7" class="node"><title>Node7</title>
<g id="a_node7"><a xlink:href="../../d9/df3/classauthoring__environment_1_1_super_grid.html#aa57ca0acf0ef3aab7d5d98cf9cbbd1d7" target="_top" xlink:title="authoring_environment.Super\lGrid.findTile">
<polygon fill="white" stroke="black" points="706,-147 706,-177 866,-177 866,-147 706,-147"/>
<text text-anchor="start" x="714" y="-165" font-family="Helvetica,sans-Serif" font-size="10.00">authoring_environment.Super</text>
<text text-anchor="middle" x="786" y="-154" font-family="Helvetica,sans-Serif" font-size="10.00">Grid.findTile</text>
</a>
</g>
</g>
<!-- Node6&#45;&gt;Node7 -->
<g id="edge7" class="edge"><title>Node6&#45;&gt;Node7</title>
<path fill="none" stroke="midnightblue" d="M633.889,-128.035C657.43,-133.326 684.067,-139.313 708.349,-144.771"/>
<polygon fill="midnightblue" stroke="midnightblue" points="707.714,-148.216 718.238,-146.994 709.249,-141.386 707.714,-148.216"/>
</g>
<!-- Node8 -->
<g id="node8" class="node"><title>Node8</title>
<g id="a_node8"><a xlink:href="../../d9/df2/classgamedata_1_1gamecomponents_1_1_grid_component.html#a97439a493db38860397436079b123e8c" target="_top" xlink:title="gamedata.gamecomponents.\lGridComponent.getLoc">
<polygon fill="white" stroke="black" points="706,-98 706,-128 866,-128 866,-98 706,-98"/>
<text text-anchor="start" x="714" y="-116" font-family="Helvetica,sans-Serif" font-size="10.00">gamedata.gamecomponents.</text>
<text text-anchor="middle" x="786" y="-105" font-family="Helvetica,sans-Serif" font-size="10.00">GridComponent.getLoc</text>
</a>
</g>
</g>
<!-- Node6&#45;&gt;Node8 -->
<g id="edge8" class="edge"><title>Node6&#45;&gt;Node8</title>
<path fill="none" stroke="midnightblue" d="M670.254,-113C678.782,-113 687.358,-113 695.77,-113"/>
<polygon fill="midnightblue" stroke="midnightblue" points="695.937,-116.5 705.937,-113 695.937,-109.5 695.937,-116.5"/>
</g>
<!-- Node9 -->
<g id="node9" class="node"><title>Node9</title>
<g id="a_node9"><a xlink:href="../../d6/dda/classauthoring_1_1data_1_1_piece_instance_data.html#a80a0e534e9cb103879f99230bc05efe7" target="_top" xlink:title="authoring.data.PieceInstance\lData.remove">
<polygon fill="white" stroke="black" points="708,-49 708,-79 864,-79 864,-49 708,-49"/>
<text text-anchor="start" x="716" y="-67" font-family="Helvetica,sans-Serif" font-size="10.00">authoring.data.PieceInstance</text>
<text text-anchor="middle" x="786" y="-56" font-family="Helvetica,sans-Serif" font-size="10.00">Data.remove</text>
</a>
</g>
</g>
<!-- Node6&#45;&gt;Node9 -->
<g id="edge9" class="edge"><title>Node6&#45;&gt;Node9</title>
<path fill="none" stroke="midnightblue" d="M633.889,-97.9654C657.43,-92.6741 684.067,-86.6867 708.349,-81.2288"/>
<polygon fill="midnightblue" stroke="midnightblue" points="709.249,-84.6141 718.238,-79.0062 707.714,-77.7845 709.249,-84.6141"/>
</g>
<!-- Node10 -->
<g id="node10" class="node"><title>Node10</title>
<g id="a_node10"><a xlink:href="../../dc/d5a/classauthoring__environment_1_1_super_tile.html#aab4ca6a2e399a4f20d41eb9bc038f7aa" target="_top" xlink:title="authoring_environment.Super\lTile.removePieceImage">
<polygon fill="white" stroke="black" points="706,-0 706,-30 866,-30 866,-0 706,-0"/>
<text text-anchor="start" x="714" y="-18" font-family="Helvetica,sans-Serif" font-size="10.00">authoring_environment.Super</text>
<text text-anchor="middle" x="786" y="-7" font-family="Helvetica,sans-Serif" font-size="10.00">Tile.removePieceImage</text>
</a>
</g>
</g>
<!-- Node6&#45;&gt;Node10 -->
<g id="edge10" class="edge"><title>Node6&#45;&gt;Node10</title>
<path fill="none" stroke="midnightblue" d="M592.469,-97.8672C619.853,-82.018 664.992,-57.0984 706,-40 711.444,-37.7302 717.17,-35.5461 722.949,-33.4786"/>
<polygon fill="midnightblue" stroke="midnightblue" points="724.375,-36.689 732.684,-30.1147 722.089,-30.0729 724.375,-36.689"/>
</g>
</g>
</svg>
