<?xml version="1.0" encoding="UTF-8" standalone="no"?>
<!DOCTYPE svg PUBLIC "-//W3C//DTD SVG 1.1//EN"
 "http://www.w3.org/Graphics/SVG/1.1/DTD/svg11.dtd">
<!-- Generated by graphviz version 2.36.0 (20140111.2315)
 -->
<!-- Title: authoring.data.PatchTypeData.add Pages: 1 -->
<svg width="540pt" height="136pt"
 viewBox="0.00 0.00 540.00 136.00" xmlns="http://www.w3.org/2000/svg" xmlns:xlink="http://www.w3.org/1999/xlink">
<g id="graph0" class="graph" transform="scale(1 1) rotate(0) translate(4 132)">
<title>authoring.data.PatchTypeData.add</title>
<polygon fill="white" stroke="none" points="-4,4 -4,-132 536,-132 536,4 -4,4"/>
<!-- Node1 -->
<g id="node1" class="node"><title>Node1</title>
<polygon fill="#bfbfbf" stroke="black" points="0.5,-49 0.5,-79 137.5,-79 137.5,-49 0.5,-49"/>
<text text-anchor="start" x="8.5" y="-67" font-family="Helvetica,sans-Serif" font-size="10.00">authoring.data.PatchType</text>
<text text-anchor="middle" x="69" y="-56" font-family="Helvetica,sans-Serif" font-size="10.00">Data.add</text>
</g>
<!-- Node2 -->
<g id="node2" class="node"><title>Node2</title>
<g id="a_node2"><a xlink:href="../../dc/d26/classauthoring__environment_1_1_library_view.html#aece9b0adb5b11a5ca3f87818640364b3" target="_top" xlink:title="authoring_environment.Library\lView.addPatch">
<polygon fill="white" stroke="black" points="174,-98 174,-128 338,-128 338,-98 174,-98"/>
<text text-anchor="start" x="182" y="-116" font-family="Helvetica,sans-Serif" font-size="10.00">authoring_environment.Library</text>
<text text-anchor="middle" x="256" y="-105" font-family="Helvetica,sans-Serif" font-size="10.00">View.addPatch</text>
</a>
</g>
</g>
<!-- Node1&#45;&gt;Node2 -->
<g id="edge1" class="edge"><title>Node1&#45;&gt;Node2</title>
<path fill="none" stroke="midnightblue" d="M136.535,-81.6229C156.775,-86.9837 178.82,-92.8225 198.344,-97.9938"/>
<polygon fill="midnightblue" stroke="midnightblue" points="137.326,-78.2117 126.763,-79.0346 135.534,-84.9784 137.326,-78.2117"/>
</g>
<!-- Node3 -->
<g id="node3" class="node"><title>Node3</title>
<g id="a_node3"><a xlink:href="../../d4/d3f/classfxml__main_1_1_patch_controller.html#ab1a255d83696d77db455a29da914c93e" target="_top" xlink:title="fxml_main.PatchController.init\lGlobalNewBtn">
<polygon fill="white" stroke="black" points="177,-49 177,-79 335,-79 335,-49 177,-49"/>
<text text-anchor="start" x="185" y="-67" font-family="Helvetica,sans-Serif" font-size="10.00">fxml_main.PatchController.init</text>
<text text-anchor="middle" x="256" y="-56" font-family="Helvetica,sans-Serif" font-size="10.00">GlobalNewBtn</text>
</a>
</g>
</g>
<!-- Node1&#45;&gt;Node3 -->
<g id="edge2" class="edge"><title>Node1&#45;&gt;Node3</title>
<path fill="none" stroke="midnightblue" d="M147.592,-64C157.302,-64 167.236,-64 176.952,-64"/>
<polygon fill="midnightblue" stroke="midnightblue" points="147.575,-60.5001 137.575,-64 147.575,-67.5001 147.575,-60.5001"/>
</g>
<!-- Node4 -->
<g id="node4" class="node"><title>Node4</title>
<g id="a_node4"><a xlink:href="../../d1/d4f/classauthoring_1_1data_1_1_patch_type_data.html#ac6cb7289b2cb9e32624cc1adb913a8cd" target="_top" xlink:title="authoring.data.PatchType\lData.replace">
<polygon fill="white" stroke="black" points="187.5,-0 187.5,-30 324.5,-30 324.5,-0 187.5,-0"/>
<text text-anchor="start" x="195.5" y="-18" font-family="Helvetica,sans-Serif" font-size="10.00">authoring.data.PatchType</text>
<text text-anchor="middle" x="256" y="-7" font-family="Helvetica,sans-Serif" font-size="10.00">Data.replace</text>
</a>
</g>
</g>
<!-- Node1&#45;&gt;Node4 -->
<g id="edge3" class="edge"><title>Node1&#45;&gt;Node4</title>
<path fill="none" stroke="midnightblue" d="M136.535,-46.3771C156.775,-41.0163 178.82,-35.1775 198.344,-30.0062"/>
<polygon fill="midnightblue" stroke="midnightblue" points="135.534,-43.0216 126.763,-48.9654 137.326,-49.7883 135.534,-43.0216"/>
</g>
<!-- Node5 -->
<g id="node5" class="node"><title>Node5</title>
<g id="a_node5"><a xlink:href="../../d4/d3f/classfxml__main_1_1_patch_controller.html#a7b1011d19e297584a0b38a2571bdd60f" target="_top" xlink:title="fxml_main.PatchController.init\lEntryEditBtn">
<polygon fill="white" stroke="black" points="374,-0 374,-30 532,-30 532,-0 374,-0"/>
<text text-anchor="start" x="382" y="-18" font-family="Helvetica,sans-Serif" font-size="10.00">fxml_main.PatchController.init</text>
<text text-anchor="middle" x="453" y="-7" font-family="Helvetica,sans-Serif" font-size="10.00">EntryEditBtn</text>
</a>
</g>
</g>
<!-- Node4&#45;&gt;Node5 -->
<g id="edge4" class="edge"><title>Node4&#45;&gt;Node5</title>
<path fill="none" stroke="midnightblue" d="M334.816,-15C347.635,-15 360.927,-15 373.757,-15"/>
<polygon fill="midnightblue" stroke="midnightblue" points="334.654,-11.5001 324.654,-15 334.654,-18.5001 334.654,-11.5001"/>
</g>
</g>
</svg>
