<?xml version="1.0" encoding="UTF-8" standalone="no"?>
<!DOCTYPE svg PUBLIC "-//W3C//DTD SVG 1.1//EN"
 "http://www.w3.org/Graphics/SVG/1.1/DTD/svg11.dtd">
<!-- Generated by graphviz version 2.36.0 (20140111.2315)
 -->
<!-- Title: authoring.data.PatchTypeData.getData Pages: 1 -->
<svg width="548pt" height="87pt"
 viewBox="0.00 0.00 548.00 87.00" xmlns="http://www.w3.org/2000/svg" xmlns:xlink="http://www.w3.org/1999/xlink">
<g id="graph0" class="graph" transform="scale(1 1) rotate(0) translate(4 83)">
<title>authoring.data.PatchTypeData.getData</title>
<polygon fill="white" stroke="none" points="-4,4 -4,-83 544,-83 544,4 -4,4"/>
<!-- Node1 -->
<g id="node1" class="node"><title>Node1</title>
<polygon fill="#bfbfbf" stroke="black" points="0.5,-24 0.5,-54 137.5,-54 137.5,-24 0.5,-24"/>
<text text-anchor="start" x="8.5" y="-42" font-family="Helvetica,sans-Serif" font-size="10.00">authoring.data.PatchType</text>
<text text-anchor="middle" x="69" y="-31" font-family="Helvetica,sans-Serif" font-size="10.00">Data.getData</text>
</g>
<!-- Node2 -->
<g id="node2" class="node"><title>Node2</title>
<g id="a_node2"><a xlink:href="../../da/d61/classfxml__main_1_1_level_controller.html#afc5b51dbda006fbc6e3f344c4dfadde5" target="_top" xlink:title="fxml_main.LevelController.global\lNewBtnOnClickAction">
<polygon fill="white" stroke="black" points="174.5,-49 174.5,-79 345.5,-79 345.5,-49 174.5,-49"/>
<text text-anchor="start" x="182.5" y="-67" font-family="Helvetica,sans-Serif" font-size="10.00">fxml_main.LevelController.global</text>
<text text-anchor="middle" x="260" y="-56" font-family="Helvetica,sans-Serif" font-size="10.00">NewBtnOnClickAction</text>
</a>
</g>
</g>
<!-- Node1&#45;&gt;Node2 -->
<g id="edge1" class="edge"><title>Node1&#45;&gt;Node2</title>
<path fill="none" stroke="midnightblue" d="M147.836,-49.2958C156.564,-50.4502 165.487,-51.6305 174.295,-52.7957"/>
<polygon fill="midnightblue" stroke="midnightblue" points="148.072,-45.7966 137.7,-47.955 147.154,-52.7362 148.072,-45.7966"/>
</g>
<!-- Node4 -->
<g id="node4" class="node"><title>Node4</title>
<g id="a_node4"><a xlink:href="../../da/d61/classfxml__main_1_1_level_controller.html#afccbd5a580984530e426dcc41521bf92" target="_top" xlink:title="fxml_main.LevelController.init\lEntryEditBtn">
<polygon fill="white" stroke="black" points="181.5,-0 181.5,-30 338.5,-30 338.5,-0 181.5,-0"/>
<text text-anchor="start" x="189.5" y="-18" font-family="Helvetica,sans-Serif" font-size="10.00">fxml_main.LevelController.init</text>
<text text-anchor="middle" x="260" y="-7" font-family="Helvetica,sans-Serif" font-size="10.00">EntryEditBtn</text>
</a>
</g>
</g>
<!-- Node1&#45;&gt;Node4 -->
<g id="edge3" class="edge"><title>Node1&#45;&gt;Node4</title>
<path fill="none" stroke="midnightblue" d="M147.806,-29.1199C158.928,-27.7076 170.369,-26.2548 181.485,-24.8431"/>
<polygon fill="midnightblue" stroke="midnightblue" points="147.179,-25.6713 137.7,-30.4032 148.061,-32.6155 147.179,-25.6713"/>
</g>
<!-- Node3 -->
<g id="node3" class="node"><title>Node3</title>
<g id="a_node3"><a xlink:href="../../da/d61/classfxml__main_1_1_level_controller.html#a75d5024df2cbcdabc2967c829c3e2f6d" target="_top" xlink:title="fxml_main.LevelController.init\lGlobalNewBtn">
<polygon fill="white" stroke="black" points="382.5,-49 382.5,-79 539.5,-79 539.5,-49 382.5,-49"/>
<text text-anchor="start" x="390.5" y="-67" font-family="Helvetica,sans-Serif" font-size="10.00">fxml_main.LevelController.init</text>
<text text-anchor="middle" x="461" y="-56" font-family="Helvetica,sans-Serif" font-size="10.00">GlobalNewBtn</text>
</a>
</g>
</g>
<!-- Node2&#45;&gt;Node3 -->
<g id="edge2" class="edge"><title>Node2&#45;&gt;Node3</title>
<path fill="none" stroke="midnightblue" d="M355.714,-64C364.633,-64 373.603,-64 382.336,-64"/>
<polygon fill="midnightblue" stroke="midnightblue" points="355.683,-60.5001 345.682,-64 355.682,-67.5001 355.683,-60.5001"/>
</g>
</g>
</svg>
