<?xml version="1.0" encoding="UTF-8" standalone="no"?>
<!DOCTYPE svg PUBLIC "-//W3C//DTD SVG 1.1//EN"
 "http://www.w3.org/Graphics/SVG/1.1/DTD/svg11.dtd">
<!-- Generated by graphviz version 2.36.0 (20140111.2315)
 -->
<!-- Title: fxml_main.LevelController Pages: 1 -->
<!--zoomable 371 -->
<svg id="main" version="1.1" xmlns="http://www.w3.org/2000/svg" xmlns:xlink="http://www.w3.org/1999/xlink" xml:space="preserve" onload="init(evt)">
<style type="text/css"><![CDATA[
.edge:hover path { stroke: red; }
.edge:hover polygon { stroke: red; fill: red; }
]]></style>
<script type="text/javascript"><![CDATA[
var edges = document.getElementsByTagName('g');
if (edges && edges.length) {
  for (var i=0;i<edges.length;i++) {
    if (edges[i].id.substr(0,4)=='edge') {
      edges[i].setAttribute('class','edge');
    }
  }
}
]]></script>
        <defs>
                <circle id="rim" cx="0" cy="0" r="7"/>
                <circle id="rim2" cx="0" cy="0" r="3.5"/>
                <g id="zoomPlus">
                        <use xlink:href="#rim" fill="#404040">
                                <set attributeName="fill" to="#808080" begin="zoomplus.mouseover" end="zoomplus.mouseout"/>
                        </use>
                        <path d="M-4,0h8M0,-4v8" fill="none" stroke="white" stroke-width="1.5" pointer-events="none"/>
                </g>
                <g id="zoomMin">
                        <use xlink:href="#rim" fill="#404040">
                                <set attributeName="fill" to="#808080" begin="zoomminus.mouseover" end="zoomminus.mouseout"/>
                        </use>
                        <path d="M-4,0h8" fill="none" stroke="white" stroke-width="1.5" pointer-events="none"/>
                </g>
                <g id="dirArrow">
                        <path fill="none" stroke="white" stroke-width="1.5" d="M0,-3.0v7 M-2.5,-0.5L0,-3.0L2.5,-0.5"/>
                </g>
               <g id="resetDef">
                       <use xlink:href="#rim2" fill="#404040">
                               <set attributeName="fill" to="#808080" begin="reset.mouseover" end="reset.mouseout"/>
                       </use>
               </g>
        </defs>

<script type="text/javascript">
var viewWidth = 704;
var viewHeight = 371;
var sectionId = 'dynsection-1';
</script>
<script xlink:href="../../svgpan.js"/>
<svg id="graph" class="graph">
<g id="viewport">
<title>fxml_main.LevelController</title>
<polygon fill="white" stroke="none" points="-4,4 -4,-367 700,-367 700,4 -4,4"/>
<!-- Node1 -->
<g id="node1" class="node"><title>Node1</title>
<polygon fill="#bfbfbf" stroke="black" points="556,-155.5 556,-174.5 696,-174.5 696,-155.5 556,-155.5"/>
<text text-anchor="middle" x="626" y="-162.5" font-family="Helvetica,sans-Serif" font-size="10.00">fxml_main.LevelController</text>
</g>
<!-- Node2 -->
<g id="node2" class="node"><title>Node2</title>
<g id="a_node2"><a xlink:href="../../da/d40/classfxml__main_1_1_grid_component_abst_ctrl.html" target="_top" xlink:title="fxml_main.GridComponentAbst\lCtrl\&lt; Level \&gt;">
<polygon fill="white" stroke="black" points="280.5,-293 280.5,-323 447.5,-323 447.5,-293 280.5,-293"/>
<text text-anchor="start" x="288.5" y="-311" font-family="Helvetica,sans-Serif" font-size="10.00">fxml_main.GridComponentAbst</text>
<text text-anchor="middle" x="364" y="-300" font-family="Helvetica,sans-Serif" font-size="10.00">Ctrl&lt; Level &gt;</text>
</a>
</g>
</g>
<!-- Node2&#45;&gt;Node1 -->
<g id="edge1" class="edge"><title>Node2&#45;&gt;Node1</title>
<path fill="none" stroke="midnightblue" d="M429.402,-289.733C435.734,-287.6 442.023,-285.343 448,-283 489.452,-266.748 500.751,-263.392 538,-239 568.523,-219.012 600.114,-189.528 615.469,-174.525"/>
<polygon fill="midnightblue" stroke="midnightblue" points="427.877,-286.549 419.456,-292.979 430.049,-293.204 427.877,-286.549"/>
</g>
<!-- Node3 -->
<g id="node3" class="node"><title>Node3</title>
<g id="a_node3"><a xlink:href="../../d7/d88/classauthoring_1_1data_1_1_level_data.html" target="_top" xlink:title="authoring.data.LevelData">
<polygon fill="white" stroke="black" points="295,-254.5 295,-273.5 433,-273.5 433,-254.5 295,-254.5"/>
<text text-anchor="middle" x="364" y="-261.5" font-family="Helvetica,sans-Serif" font-size="10.00">authoring.data.LevelData</text>
</a>
</g>
</g>
<!-- Node3&#45;&gt;Node1 -->
<g id="edge2" class="edge"><title>Node3&#45;&gt;Node1</title>
<path fill="none" stroke="#9a32cd" stroke-dasharray="5,2" d="M399.759,-250.765C452.924,-230.521 553.176,-192.349 599.876,-174.566"/>
<polygon fill="#9a32cd" stroke="#9a32cd" points="398.503,-247.498 390.403,-254.327 400.994,-254.04 398.503,-247.498"/>
<text text-anchor="middle" x="502" y="-227" font-family="Helvetica,sans-Serif" font-size="10.00"> myLevelData</text>
</g>
<!-- Node4 -->
<g id="node4" class="node"><title>Node4</title>
<g id="a_node4"><a xlink:href="../../d5/d29/interfaceauthoring_1_1data_1_1_authoring_data.html" target="_top" xlink:title="authoring.data.Authoring\lData\&lt; Level \&gt;">
<polygon fill="white" stroke="black" points="25.5,-284 25.5,-314 162.5,-314 162.5,-284 25.5,-284"/>
<text text-anchor="start" x="33.5" y="-302" font-family="Helvetica,sans-Serif" font-size="10.00">authoring.data.Authoring</text>
<text text-anchor="middle" x="94" y="-291" font-family="Helvetica,sans-Serif" font-size="10.00">Data&lt; Level &gt;</text>
</a>
</g>
</g>
<!-- Node4&#45;&gt;Node3 -->
<g id="edge3" class="edge"><title>Node4&#45;&gt;Node3</title>
<path fill="none" stroke="midnightblue" d="M172.794,-288.84C211.44,-283.793 257.704,-277.751 294.928,-272.89"/>
<polygon fill="midnightblue" stroke="midnightblue" points="172.09,-285.402 162.628,-290.168 172.997,-292.343 172.09,-285.402"/>
</g>
<!-- Node5 -->
<g id="node5" class="node"><title>Node5</title>
<polygon fill="white" stroke="#bfbfbf" points="0,-333 0,-363 188,-363 188,-333 0,-333"/>
<text text-anchor="start" x="8" y="-351" font-family="Helvetica,sans-Serif" font-size="10.00">List&lt; gamedata.gamecomponents.</text>
<text text-anchor="middle" x="94" y="-340" font-family="Helvetica,sans-Serif" font-size="10.00">Level &gt;</text>
</g>
<!-- Node5&#45;&gt;Node3 -->
<g id="edge4" class="edge"><title>Node5&#45;&gt;Node3</title>
<path fill="none" stroke="#9a32cd" stroke-dasharray="5,2" d="M164.505,-330.224C172.467,-327.92 180.436,-325.49 188,-323 221.553,-311.953 230.045,-309.056 262,-294 270.279,-290.099 271.474,-287.325 280,-284 290.633,-279.854 302.379,-276.393 313.606,-273.579"/>
<polygon fill="#9a32cd" stroke="#9a32cd" points="163.491,-326.873 154.826,-332.969 165.401,-333.608 163.491,-326.873"/>
<text text-anchor="middle" x="234" y="-319" font-family="Helvetica,sans-Serif" font-size="10.00"> myLevels</text>
</g>
<!-- Node6 -->
<g id="node6" class="node"><title>Node6</title>
<g id="a_node6"><a xlink:href="../../d1/d4f/classauthoring_1_1data_1_1_patch_type_data.html" target="_top" xlink:title="authoring.data.PatchTypeData">
<polygon fill="white" stroke="black" points="283.5,-133.5 283.5,-152.5 444.5,-152.5 444.5,-133.5 283.5,-133.5"/>
<text text-anchor="middle" x="364" y="-140.5" font-family="Helvetica,sans-Serif" font-size="10.00">authoring.data.PatchTypeData</text>
</a>
</g>
</g>
<!-- Node6&#45;&gt;Node1 -->
<g id="edge5" class="edge"><title>Node6&#45;&gt;Node1</title>
<path fill="none" stroke="#9a32cd" stroke-dasharray="5,2" d="M454.933,-145.223C481.709,-146.407 511.082,-148.221 538,-151 548.957,-152.131 560.632,-153.734 571.755,-155.453"/>
<polygon fill="#9a32cd" stroke="#9a32cd" points="454.946,-141.721 444.808,-144.8 454.653,-148.715 454.946,-141.721"/>
<text text-anchor="middle" x="502" y="-154" font-family="Helvetica,sans-Serif" font-size="10.00"> myPatchTypes</text>
</g>
<!-- Node7 -->
<g id="node7" class="node"><title>Node7</title>
<polygon fill="white" stroke="#bfbfbf" points="58.5,-147.5 58.5,-166.5 129.5,-166.5 129.5,-147.5 58.5,-147.5"/>
<text text-anchor="middle" x="94" y="-154.5" font-family="Helvetica,sans-Serif" font-size="10.00">Observable</text>
</g>
<!-- Node7&#45;&gt;Node6 -->
<g id="edge6" class="edge"><title>Node7&#45;&gt;Node6</title>
<path fill="none" stroke="midnightblue" d="M139.762,-154.662C178.799,-152.622 236.36,-149.616 283.255,-147.166"/>
<polygon fill="midnightblue" stroke="midnightblue" points="139.565,-151.167 129.762,-155.184 139.931,-158.158 139.565,-151.167"/>
</g>
<!-- Node11 -->
<g id="node11" class="node"><title>Node11</title>
<g id="a_node11"><a xlink:href="../../d5/d98/classauthoring_1_1data_1_1_piece_type_data.html" target="_top" xlink:title="authoring.data.PieceTypeData">
<polygon fill="white" stroke="black" points="284,-181.5 284,-200.5 444,-200.5 444,-181.5 284,-181.5"/>
<text text-anchor="middle" x="364" y="-188.5" font-family="Helvetica,sans-Serif" font-size="10.00">authoring.data.PieceTypeData</text>
</a>
</g>
</g>
<!-- Node7&#45;&gt;Node11 -->
<g id="edge11" class="edge"><title>Node7&#45;&gt;Node11</title>
<path fill="none" stroke="midnightblue" d="M139.831,-162.688C180.192,-167.808 240.314,-175.435 287.989,-181.484"/>
<polygon fill="midnightblue" stroke="midnightblue" points="140.123,-159.197 129.762,-161.41 139.242,-166.141 140.123,-159.197"/>
</g>
<!-- Node8 -->
<g id="node8" class="node"><title>Node8</title>
<g id="a_node8"><a xlink:href="../../d5/d29/interfaceauthoring_1_1data_1_1_authoring_data.html" target="_top" xlink:title="authoring.data.Authoring\lData\&lt; Patch \&gt;">
<polygon fill="white" stroke="black" points="25.5,-49 25.5,-79 162.5,-79 162.5,-49 25.5,-49"/>
<text text-anchor="start" x="33.5" y="-67" font-family="Helvetica,sans-Serif" font-size="10.00">authoring.data.Authoring</text>
<text text-anchor="middle" x="94" y="-56" font-family="Helvetica,sans-Serif" font-size="10.00">Data&lt; Patch &gt;</text>
</a>
</g>
</g>
<!-- Node8&#45;&gt;Node6 -->
<g id="edge7" class="edge"><title>Node8&#45;&gt;Node6</title>
<path fill="none" stroke="midnightblue" d="M167.851,-81.9013C174.693,-83.8525 181.497,-85.8972 188,-88 229.778,-101.51 238.04,-111.066 280,-124 291.442,-127.527 303.953,-130.724 315.711,-133.448"/>
<polygon fill="midnightblue" stroke="midnightblue" points="168.401,-78.4216 157.829,-79.1136 166.525,-85.1656 168.401,-78.4216"/>
</g>
<!-- Node9 -->
<g id="node9" class="node"><title>Node9</title>
<polygon fill="white" stroke="#bfbfbf" points="0,-98 0,-128 188,-128 188,-98 0,-98"/>
<text text-anchor="start" x="8" y="-116" font-family="Helvetica,sans-Serif" font-size="10.00">List&lt; gamedata.gamecomponents.</text>
<text text-anchor="middle" x="94" y="-105" font-family="Helvetica,sans-Serif" font-size="10.00">Patch &gt;</text>
</g>
<!-- Node9&#45;&gt;Node6 -->
<g id="edge8" class="edge"><title>Node9&#45;&gt;Node6</title>
<path fill="none" stroke="#9a32cd" stroke-dasharray="5,2" d="M198.624,-124.6C226.747,-127.748 256.756,-131.107 283.332,-134.082"/>
<polygon fill="#9a32cd" stroke="#9a32cd" points="198.684,-121.085 188.357,-123.45 197.906,-128.041 198.684,-121.085"/>
<text text-anchor="middle" x="234" y="-135" font-family="Helvetica,sans-Serif" font-size="10.00"> myPatches</text>
</g>
<!-- Node10 -->
<g id="node10" class="node"><title>Node10</title>
<polygon fill="white" stroke="#bfbfbf" points="331,-95.5 331,-114.5 397,-114.5 397,-95.5 331,-95.5"/>
<text text-anchor="middle" x="364" y="-102.5" font-family="Helvetica,sans-Serif" font-size="10.00">ScrollPane</text>
</g>
<!-- Node10&#45;&gt;Node1 -->
<g id="edge9" class="edge"><title>Node10&#45;&gt;Node1</title>
<path fill="none" stroke="#9a32cd" stroke-dasharray="5,2" d="M406.977,-108.659C442.347,-112.369 494.065,-119.272 538,-131 561.345,-137.232 586.987,-147.727 604.344,-155.412"/>
<polygon fill="#9a32cd" stroke="#9a32cd" points="407.305,-105.174 397.004,-107.652 406.601,-112.139 407.305,-105.174"/>
<text text-anchor="middle" x="502" y="-134" font-family="Helvetica,sans-Serif" font-size="10.00"> myGridSPane</text>
</g>
<!-- Node11&#45;&gt;Node1 -->
<g id="edge10" class="edge"><title>Node11&#45;&gt;Node1</title>
<path fill="none" stroke="#9a32cd" stroke-dasharray="5,2" d="M454.26,-182.074C487.546,-178.745 524.798,-175.02 555.991,-171.901"/>
<polygon fill="#9a32cd" stroke="#9a32cd" points="453.67,-178.615 444.068,-183.093 454.366,-185.581 453.67,-178.615"/>
<text text-anchor="middle" x="502" y="-184" font-family="Helvetica,sans-Serif" font-size="10.00"> myPieceTypes</text>
</g>
<!-- Node12 -->
<g id="node12" class="node"><title>Node12</title>
<g id="a_node12"><a xlink:href="../../d5/d29/interfaceauthoring_1_1data_1_1_authoring_data.html" target="_top" xlink:title="authoring.data.Authoring\lData\&lt; Piece \&gt;">
<polygon fill="white" stroke="black" points="25.5,-235 25.5,-265 162.5,-265 162.5,-235 25.5,-235"/>
<text text-anchor="start" x="33.5" y="-253" font-family="Helvetica,sans-Serif" font-size="10.00">authoring.data.Authoring</text>
<text text-anchor="middle" x="94" y="-242" font-family="Helvetica,sans-Serif" font-size="10.00">Data&lt; Piece &gt;</text>
</a>
</g>
</g>
<!-- Node12&#45;&gt;Node11 -->
<g id="edge12" class="edge"><title>Node12&#45;&gt;Node11</title>
<path fill="none" stroke="midnightblue" d="M172.652,-232.905C220.517,-222.368 280.109,-209.248 319.736,-200.524"/>
<polygon fill="midnightblue" stroke="midnightblue" points="171.641,-229.544 162.628,-235.112 173.146,-236.38 171.641,-229.544"/>
</g>
<!-- Node13 -->
<g id="node13" class="node"><title>Node13</title>
<polygon fill="white" stroke="#bfbfbf" points="0,-186 0,-216 188,-216 188,-186 0,-186"/>
<text text-anchor="start" x="8" y="-204" font-family="Helvetica,sans-Serif" font-size="10.00">List&lt; gamedata.gamecomponents.</text>
<text text-anchor="middle" x="94" y="-193" font-family="Helvetica,sans-Serif" font-size="10.00">Piece &gt;</text>
</g>
<!-- Node13&#45;&gt;Node11 -->
<g id="edge13" class="edge"><title>Node13&#45;&gt;Node11</title>
<path fill="none" stroke="#9a32cd" stroke-dasharray="5,2" d="M198.674,-197.132C226.937,-196.077 257.1,-194.951 283.768,-193.956"/>
<polygon fill="#9a32cd" stroke="#9a32cd" points="198.22,-193.646 188.357,-197.517 198.481,-200.641 198.22,-193.646"/>
<text text-anchor="middle" x="234" y="-200" font-family="Helvetica,sans-Serif" font-size="10.00"> myPieces</text>
</g>
<!-- Node14 -->
<g id="node14" class="node"><title>Node14</title>
<g id="a_node14"><a xlink:href="../../de/dd8/classauthoring_1_1data_1_1_player_data.html" target="_top" xlink:title="authoring.data.PlayerData">
<polygon fill="white" stroke="black" points="292.5,-31.5 292.5,-50.5 435.5,-50.5 435.5,-31.5 292.5,-31.5"/>
<text text-anchor="middle" x="364" y="-38.5" font-family="Helvetica,sans-Serif" font-size="10.00">authoring.data.PlayerData</text>
</a>
</g>
</g>
<!-- Node14&#45;&gt;Node1 -->
<g id="edge14" class="edge"><title>Node14&#45;&gt;Node1</title>
<path fill="none" stroke="#9a32cd" stroke-dasharray="5,2" d="M411.054,-53.2936C446.8,-63.759 497.007,-80.5088 538,-102 567.399,-117.413 597.976,-141.85 613.88,-155.311"/>
<polygon fill="#9a32cd" stroke="#9a32cd" points="411.952,-49.9103 401.374,-50.5098 410.017,-56.6376 411.952,-49.9103"/>
<text text-anchor="middle" x="502" y="-105" font-family="Helvetica,sans-Serif" font-size="10.00"> myPlayerData</text>
</g>
<!-- Node15 -->
<g id="node15" class="node"><title>Node15</title>
<polygon fill="white" stroke="#bfbfbf" points="24.5,-0 24.5,-30 163.5,-30 163.5,-0 24.5,-0"/>
<text text-anchor="start" x="32.5" y="-18" font-family="Helvetica,sans-Serif" font-size="10.00">List&lt; gameengine.player.</text>
<text text-anchor="middle" x="94" y="-7" font-family="Helvetica,sans-Serif" font-size="10.00">Player &gt;</text>
</g>
<!-- Node15&#45;&gt;Node14 -->
<g id="edge15" class="edge"><title>Node15&#45;&gt;Node14</title>
<path fill="none" stroke="#9a32cd" stroke-dasharray="5,2" d="M174.033,-22.6674C211.474,-26.2998 255.842,-30.604 292.174,-34.1288"/>
<polygon fill="#9a32cd" stroke="#9a32cd" points="173.96,-19.1439 163.669,-21.6619 173.284,-26.1112 173.96,-19.1439"/>
<text text-anchor="middle" x="234" y="-35" font-family="Helvetica,sans-Serif" font-size="10.00"> myPlayers</text>
</g>
</g>
</svg>
        <g id="navigator" transform="translate(0 0)" fill="#404254">
                <rect fill="#f2f5e9" fill-opacity="0.5" stroke="#606060" stroke-width=".5" x="0" y="0" width="60" height="60"/>
                <use id="zoomplus" xlink:href="#zoomPlus" x="17" y="9" onmousedown="handleZoom(evt,'in')"/>
                <use id="zoomminus" xlink:href="#zoomMin" x="42" y="9" onmousedown="handleZoom(evt,'out')"/>
                <use id="reset" xlink:href="#resetDef" x="30" y="36" onmousedown="handleReset()"/>
                <g id="arrowUp" xlink:href="#dirArrow" transform="translate(30 24)" onmousedown="handlePan(0,-1)">
                  <use xlink:href="#rim" fill="#404040">
                        <set attributeName="fill" to="#808080" begin="arrowUp.mouseover" end="arrowUp.mouseout"/>
                  </use>
                  <path fill="none" stroke="white" stroke-width="1.5" d="M0,-3.0v7 M-2.5,-0.5L0,-3.0L2.5,-0.5"/>
                </g>
                <g id="arrowRight" xlink:href="#dirArrow" transform="rotate(90) translate(36 -43)" onmousedown="handlePan(1,0)">
                  <use xlink:href="#rim" fill="#404040">
                        <set attributeName="fill" to="#808080" begin="arrowRight.mouseover" end="arrowRight.mouseout"/>
                  </use>
                  <path fill="none" stroke="white" stroke-width="1.5" d="M0,-3.0v7 M-2.5,-0.5L0,-3.0L2.5,-0.5"/>
                </g>
                <g id="arrowDown" xlink:href="#dirArrow" transform="rotate(180) translate(-30 -48)" onmousedown="handlePan(0,1)">
                  <use xlink:href="#rim" fill="#404040">
                        <set attributeName="fill" to="#808080" begin="arrowDown.mouseover" end="arrowDown.mouseout"/>
                  </use>
                  <path fill="none" stroke="white" stroke-width="1.5" d="M0,-3.0v7 M-2.5,-0.5L0,-3.0L2.5,-0.5"/>
                </g>
                <g id="arrowLeft" xlink:href="#dirArrow" transform="rotate(270) translate(-36 17)" onmousedown="handlePan(-1,0)">
                  <use xlink:href="#rim" fill="#404040">
                        <set attributeName="fill" to="#808080" begin="arrowLeft.mouseover" end="arrowLeft.mouseout"/>
                  </use>
                  <path fill="none" stroke="white" stroke-width="1.5" d="M0,-3.0v7 M-2.5,-0.5L0,-3.0L2.5,-0.5"/>
                </g>
        </g>
        <svg viewBox="0 0 15 15" width="100%" height="30px" preserveAspectRatio="xMaxYMin meet">
         <g id="arrow_out" transform="scale(0.3 0.3)">
          <a xlink:href="classfxml__main_1_1_level_controller__coll__graph_org.svg" target="_base">
           <rect id="button" ry="5" rx="5" y="6" x="6" height="38" width="38"
                fill="#f2f5e9" fill-opacity="0.5" stroke="#606060" stroke-width="1.0"/>
           <path id="arrow"
             d="M 11.500037,31.436501 C 11.940474,20.09759 22.043105,11.32322 32.158766,21.979434 L 37.068811,17.246167 C 37.068811,17.246167 37.088388,32 37.088388,32 L 22.160133,31.978069 C 22.160133,31.978069 26.997745,27.140456 26.997745,27.140456 C 18.528582,18.264221 13.291696,25.230495 11.500037,31.436501 z"
             style="fill:#404040;"/>
          </a>
         </g>
        </svg>
</svg>
