<?xml version="1.0" encoding="UTF-8" standalone="no"?>
<!DOCTYPE svg PUBLIC "-//W3C//DTD SVG 1.1//EN"
 "http://www.w3.org/Graphics/SVG/1.1/DTD/svg11.dtd">
<!-- Generated by graphviz version 2.36.0 (20140111.2315)
 -->
<!-- Title: authoring.data.LevelData Pages: 1 -->
<svg width="351pt" height="108pt"
 viewBox="0.00 0.00 351.00 108.00" xmlns="http://www.w3.org/2000/svg" xmlns:xlink="http://www.w3.org/1999/xlink">
<g id="graph0" class="graph" transform="scale(1 1) rotate(0) translate(4 104)">
<title>authoring.data.LevelData</title>
<polygon fill="white" stroke="none" points="-4,4 -4,-104 347,-104 347,4 -4,4"/>
<!-- Node1 -->
<g id="node1" class="node"><title>Node1</title>
<polygon fill="#bfbfbf" stroke="black" points="89,-0.5 89,-19.5 227,-19.5 227,-0.5 89,-0.5"/>
<text text-anchor="middle" x="158" y="-7.5" font-family="Helvetica,sans-Serif" font-size="10.00">authoring.data.LevelData</text>
</g>
<!-- Node2 -->
<g id="node2" class="node"><title>Node2</title>
<g id="a_node2"><a xlink:href="../../d5/d29/interfaceauthoring_1_1data_1_1_authoring_data.html" target="_top" xlink:title="authoring.data.Authoring\lData\&lt; Level \&gt;">
<polygon fill="white" stroke="black" points="-0.5,-69 -0.5,-99 136.5,-99 136.5,-69 -0.5,-69"/>
<text text-anchor="start" x="7.5" y="-87" font-family="Helvetica,sans-Serif" font-size="10.00">authoring.data.Authoring</text>
<text text-anchor="middle" x="68" y="-76" font-family="Helvetica,sans-Serif" font-size="10.00">Data&lt; Level &gt;</text>
</a>
</g>
</g>
<!-- Node2&#45;&gt;Node1 -->
<g id="edge1" class="edge"><title>Node2&#45;&gt;Node1</title>
<path fill="none" stroke="midnightblue" d="M94.0288,-62.177C111.743,-48.0059 134.257,-29.9942 147.307,-19.5543"/>
<polygon fill="midnightblue" stroke="midnightblue" points="91.4034,-59.7951 85.7811,-68.7751 95.7763,-65.2612 91.4034,-59.7951"/>
</g>
<!-- Node3 -->
<g id="node3" class="node"><title>Node3</title>
<polygon fill="white" stroke="#bfbfbf" points="155,-69 155,-99 343,-99 343,-69 155,-69"/>
<text text-anchor="start" x="163" y="-87" font-family="Helvetica,sans-Serif" font-size="10.00">List&lt; gamedata.gamecomponents.</text>
<text text-anchor="middle" x="249" y="-76" font-family="Helvetica,sans-Serif" font-size="10.00">Level &gt;</text>
</g>
<!-- Node3&#45;&gt;Node1 -->
<g id="edge2" class="edge"><title>Node3&#45;&gt;Node1</title>
<path fill="none" stroke="#9a32cd" stroke-dasharray="5,2" d="M223.169,-62.5625C205.186,-48.334 182.126,-30.0891 168.812,-19.5543"/>
<polygon fill="#9a32cd" stroke="#9a32cd" points="221.007,-65.315 231.021,-68.7751 225.351,-59.8255 221.007,-65.315"/>
<text text-anchor="middle" x="231.5" y="-41.5" font-family="Helvetica,sans-Serif" font-size="10.00"> myLevels</text>
</g>
</g>
</svg>
