<?xml version="1.0" encoding="UTF-8" standalone="no"?>
<!DOCTYPE svg PUBLIC "-//W3C//DTD SVG 1.1//EN"
 "http://www.w3.org/Graphics/SVG/1.1/DTD/svg11.dtd">
<!-- Generated by graphviz version 2.36.0 (20140111.2315)
 -->
<!-- Title: fxml_main.PatchViewer.initImageDisplay Pages: 1 -->
<svg width="548pt" height="38pt"
 viewBox="0.00 0.00 548.00 38.00" xmlns="http://www.w3.org/2000/svg" xmlns:xlink="http://www.w3.org/1999/xlink">
<g id="graph0" class="graph" transform="scale(1 1) rotate(0) translate(4 34)">
<title>fxml_main.PatchViewer.initImageDisplay</title>
<polygon fill="white" stroke="none" points="-4,4 -4,-34 544,-34 544,4 -4,4"/>
<!-- Node1 -->
<g id="node1" class="node"><title>Node1</title>
<polygon fill="#bfbfbf" stroke="black" points="0.5,-0 0.5,-30 143.5,-30 143.5,-0 0.5,-0"/>
<text text-anchor="start" x="8.5" y="-18" font-family="Helvetica,sans-Serif" font-size="10.00">fxml_main.PatchViewer.init</text>
<text text-anchor="middle" x="72" y="-7" font-family="Helvetica,sans-Serif" font-size="10.00">ImageDisplay</text>
</g>
<!-- Node2 -->
<g id="node2" class="node"><title>Node2</title>
<g id="a_node2"><a xlink:href="../../df/d59/classfxml__main_1_1_patch_viewer.html#a90737cfda08a68746b00e56099b81642" target="_top" xlink:title="fxml_main.PatchViewer.initialize">
<polygon fill="white" stroke="black" points="180.5,-5.5 180.5,-24.5 347.5,-24.5 347.5,-5.5 180.5,-5.5"/>
<text text-anchor="middle" x="264" y="-12.5" font-family="Helvetica,sans-Serif" font-size="10.00">fxml_main.PatchViewer.initialize</text>
</a>
</g>
</g>
<!-- Node1&#45;&gt;Node2 -->
<g id="edge1" class="edge"><title>Node1&#45;&gt;Node2</title>
<path fill="none" stroke="midnightblue" d="M153.92,-15C162.663,-15 171.569,-15 180.332,-15"/>
<polygon fill="midnightblue" stroke="midnightblue" points="153.749,-11.5001 143.749,-15 153.749,-18.5001 153.749,-11.5001"/>
</g>
<!-- Node3 -->
<g id="node3" class="node"><title>Node3</title>
<g id="a_node3"><a xlink:href="../../df/d59/classfxml__main_1_1_patch_viewer.html#a621ed91e1508b5f96c0b00bed71073aa" target="_top" xlink:title="fxml_main.PatchViewer.Patch\lViewer">
<polygon fill="white" stroke="black" points="384.5,-0 384.5,-30 539.5,-30 539.5,-0 384.5,-0"/>
<text text-anchor="start" x="392.5" y="-18" font-family="Helvetica,sans-Serif" font-size="10.00">fxml_main.PatchViewer.Patch</text>
<text text-anchor="middle" x="462" y="-7" font-family="Helvetica,sans-Serif" font-size="10.00">Viewer</text>
</a>
</g>
</g>
<!-- Node2&#45;&gt;Node3 -->
<g id="edge2" class="edge"><title>Node2&#45;&gt;Node3</title>
<path fill="none" stroke="midnightblue" d="M357.652,-15C366.634,-15 375.676,-15 384.475,-15"/>
<polygon fill="midnightblue" stroke="midnightblue" points="357.554,-11.5001 347.554,-15 357.554,-18.5001 357.554,-11.5001"/>
</g>
</g>
</svg>
