<?xml version="1.0" encoding="UTF-8" standalone="no"?>
<!DOCTYPE svg PUBLIC "-//W3C//DTD SVG 1.1//EN"
 "http://www.w3.org/Graphics/SVG/1.1/DTD/svg11.dtd">
<!-- Generated by graphviz version 2.36.0 (20140111.2315)
 -->
<!-- Title: fxml_main.PatchViewer.initialize Pages: 1 -->
<svg width="536pt" height="38pt"
 viewBox="0.00 0.00 536.00 38.00" xmlns="http://www.w3.org/2000/svg" xmlns:xlink="http://www.w3.org/1999/xlink">
<g id="graph0" class="graph" transform="scale(1 1) rotate(0) translate(4 34)">
<title>fxml_main.PatchViewer.initialize</title>
<polygon fill="white" stroke="none" points="-4,4 -4,-34 532,-34 532,4 -4,4"/>
<!-- Node1 -->
<g id="node1" class="node"><title>Node1</title>
<polygon fill="#bfbfbf" stroke="black" points="0.5,-5.5 0.5,-24.5 167.5,-24.5 167.5,-5.5 0.5,-5.5"/>
<text text-anchor="middle" x="84" y="-12.5" font-family="Helvetica,sans-Serif" font-size="10.00">fxml_main.PatchViewer.initialize</text>
</g>
<!-- Node2 -->
<g id="node2" class="node"><title>Node2</title>
<g id="a_node2"><a xlink:href="../../df/d59/classfxml__main_1_1_patch_viewer.html#a72daf40ca3c3f926ba205aa37e0bb178" target="_top" xlink:title="fxml_main.PatchViewer.init\lImageDisplay">
<polygon fill="white" stroke="black" points="204.5,-0 204.5,-30 347.5,-30 347.5,-0 204.5,-0"/>
<text text-anchor="start" x="212.5" y="-18" font-family="Helvetica,sans-Serif" font-size="10.00">fxml_main.PatchViewer.init</text>
<text text-anchor="middle" x="276" y="-7" font-family="Helvetica,sans-Serif" font-size="10.00">ImageDisplay</text>
</a>
</g>
</g>
<!-- Node1&#45;&gt;Node2 -->
<g id="edge1" class="edge"><title>Node1&#45;&gt;Node2</title>
<path fill="none" stroke="midnightblue" d="M167.508,-15C176.362,-15 185.363,-15 194.196,-15"/>
<polygon fill="midnightblue" stroke="midnightblue" points="194.47,-18.5001 204.47,-15 194.47,-11.5001 194.47,-18.5001"/>
</g>
<!-- Node3 -->
<g id="node3" class="node"><title>Node3</title>
<g id="a_node3"><a xlink:href="../../df/d59/classfxml__main_1_1_patch_viewer.html#a585758260141a3176b7c2222bf55b3ee" target="_top" xlink:title="fxml_main.PatchViewer.set\lImageView">
<polygon fill="white" stroke="black" points="384,-0 384,-30 528,-30 528,-0 384,-0"/>
<text text-anchor="start" x="392" y="-18" font-family="Helvetica,sans-Serif" font-size="10.00">fxml_main.PatchViewer.set</text>
<text text-anchor="middle" x="456" y="-7" font-family="Helvetica,sans-Serif" font-size="10.00">ImageView</text>
</a>
</g>
</g>
<!-- Node2&#45;&gt;Node3 -->
<g id="edge2" class="edge"><title>Node2&#45;&gt;Node3</title>
<path fill="none" stroke="midnightblue" d="M347.606,-15C356.187,-15 365.007,-15 373.726,-15"/>
<polygon fill="midnightblue" stroke="midnightblue" points="373.897,-18.5001 383.897,-15 373.897,-11.5001 373.897,-18.5001"/>
</g>
</g>
</svg>
