<?xml version="1.0" encoding="UTF-8" standalone="no"?>
<!DOCTYPE svg PUBLIC "-//W3C//DTD SVG 1.1//EN"
 "http://www.w3.org/Graphics/SVG/1.1/DTD/svg11.dtd">
<!-- Generated by graphviz version 2.36.0 (20140111.2315)
 -->
<!-- Title: gamedata.action.ActionConclusion.runConclusion Pages: 1 -->
<svg width="574pt" height="38pt"
 viewBox="0.00 0.00 574.00 38.00" xmlns="http://www.w3.org/2000/svg" xmlns:xlink="http://www.w3.org/1999/xlink">
<g id="graph0" class="graph" transform="scale(1 1) rotate(0) translate(4 34)">
<title>gamedata.action.ActionConclusion.runConclusion</title>
<polygon fill="white" stroke="none" points="-4,4 -4,-34 570,-34 570,4 -4,4"/>
<!-- Node1 -->
<g id="node1" class="node"><title>Node1</title>
<polygon fill="#bfbfbf" stroke="black" points="0,-0 0,-30 202,-30 202,-0 0,-0"/>
<text text-anchor="start" x="8" y="-18" font-family="Helvetica,sans-Serif" font-size="10.00">gamedata.action.ActionConclusion.run</text>
<text text-anchor="middle" x="101" y="-7" font-family="Helvetica,sans-Serif" font-size="10.00">Conclusion</text>
</g>
<!-- Node2 -->
<g id="node2" class="node"><title>Node2</title>
<g id="a_node2"><a xlink:href="../../d1/d6d/classgamedata_1_1action_1_1_concrete_action.html#a1d2511cc38deac91f175452f74ed0682" target="_top" xlink:title="gamedata.action.Concrete\lAction.runConclusion">
<polygon fill="white" stroke="black" points="238.5,-0 238.5,-30 383.5,-30 383.5,-0 238.5,-0"/>
<text text-anchor="start" x="246.5" y="-18" font-family="Helvetica,sans-Serif" font-size="10.00">gamedata.action.Concrete</text>
<text text-anchor="middle" x="311" y="-7" font-family="Helvetica,sans-Serif" font-size="10.00">Action.runConclusion</text>
</a>
</g>
</g>
<!-- Node1&#45;&gt;Node2 -->
<g id="edge1" class="edge"><title>Node1&#45;&gt;Node2</title>
<path fill="none" stroke="midnightblue" d="M212.116,-15C221.031,-15 229.886,-15 238.417,-15"/>
<polygon fill="midnightblue" stroke="midnightblue" points="212.04,-11.5001 202.04,-15 212.04,-18.5001 212.04,-11.5001"/>
</g>
<!-- Node3 -->
<g id="node3" class="node"><title>Node3</title>
<g id="a_node3"><a xlink:href="../../d1/d6d/classgamedata_1_1action_1_1_concrete_action.html#ad9d830d118b159992c27da362fd911b5" target="_top" xlink:title="gamedata.action.Concrete\lAction.doBehavior">
<polygon fill="white" stroke="black" points="420.5,-0 420.5,-30 565.5,-30 565.5,-0 420.5,-0"/>
<text text-anchor="start" x="428.5" y="-18" font-family="Helvetica,sans-Serif" font-size="10.00">gamedata.action.Concrete</text>
<text text-anchor="middle" x="493" y="-7" font-family="Helvetica,sans-Serif" font-size="10.00">Action.doBehavior</text>
</a>
</g>
</g>
<!-- Node2&#45;&gt;Node3 -->
<g id="edge2" class="edge"><title>Node2&#45;&gt;Node3</title>
<path fill="none" stroke="midnightblue" d="M393.921,-15C402.722,-15 411.626,-15 420.295,-15"/>
<polygon fill="midnightblue" stroke="midnightblue" points="393.658,-11.5001 383.658,-15 393.658,-18.5001 393.658,-11.5001"/>
</g>
</g>
</svg>
