<?xml version="1.0" encoding="UTF-8" standalone="no"?>
<!DOCTYPE svg PUBLIC "-//W3C//DTD SVG 1.1//EN"
 "http://www.w3.org/Graphics/SVG/1.1/DTD/svg11.dtd">
<!-- Generated by graphviz version 2.36.0 (20140111.2315)
 -->
<!-- Title: gamedata.action.ActionConclusion.toString Pages: 1 -->
<svg width="760pt" height="38pt"
 viewBox="0.00 0.00 760.00 38.00" xmlns="http://www.w3.org/2000/svg" xmlns:xlink="http://www.w3.org/1999/xlink">
<g id="graph0" class="graph" transform="scale(1 1) rotate(0) translate(4 34)">
<title>gamedata.action.ActionConclusion.toString</title>
<polygon fill="white" stroke="none" points="-4,4 -4,-34 756,-34 756,4 -4,4"/>
<!-- Node1 -->
<g id="node1" class="node"><title>Node1</title>
<polygon fill="#bfbfbf" stroke="black" points="0,-0 0,-30 196,-30 196,-0 0,-0"/>
<text text-anchor="start" x="8" y="-18" font-family="Helvetica,sans-Serif" font-size="10.00">gamedata.action.ActionConclusion.to</text>
<text text-anchor="middle" x="98" y="-7" font-family="Helvetica,sans-Serif" font-size="10.00">String</text>
</g>
<!-- Node2 -->
<g id="node2" class="node"><title>Node2</title>
<g id="a_node2"><a xlink:href="../../d1/dfc/classfxml__main_1_1_action_editor.html#adf8f00b5c1e13d8de4085c8023874e30" target="_top" xlink:title="fxml_main.ActionEditor.init\lConclusionsBox">
<polygon fill="white" stroke="black" points="232.5,-0 232.5,-30 375.5,-30 375.5,-0 232.5,-0"/>
<text text-anchor="start" x="240.5" y="-18" font-family="Helvetica,sans-Serif" font-size="10.00">fxml_main.ActionEditor.init</text>
<text text-anchor="middle" x="304" y="-7" font-family="Helvetica,sans-Serif" font-size="10.00">ConclusionsBox</text>
</a>
</g>
</g>
<!-- Node1&#45;&gt;Node2 -->
<g id="edge1" class="edge"><title>Node1&#45;&gt;Node2</title>
<path fill="none" stroke="midnightblue" d="M206.244,-15C215.115,-15 223.933,-15 232.429,-15"/>
<polygon fill="midnightblue" stroke="midnightblue" points="206.22,-11.5001 196.22,-15 206.22,-18.5001 206.22,-11.5001"/>
</g>
<!-- Node3 -->
<g id="node3" class="node"><title>Node3</title>
<g id="a_node3"><a xlink:href="../../d1/dfc/classfxml__main_1_1_action_editor.html#a3f41408f9918728d0fd74ef22c57ca07" target="_top" xlink:title="fxml_main.ActionEditor.init\lEditor">
<polygon fill="white" stroke="black" points="412.5,-0 412.5,-30 555.5,-30 555.5,-0 412.5,-0"/>
<text text-anchor="start" x="420.5" y="-18" font-family="Helvetica,sans-Serif" font-size="10.00">fxml_main.ActionEditor.init</text>
<text text-anchor="middle" x="484" y="-7" font-family="Helvetica,sans-Serif" font-size="10.00">Editor</text>
</a>
</g>
</g>
<!-- Node2&#45;&gt;Node3 -->
<g id="edge2" class="edge"><title>Node2&#45;&gt;Node3</title>
<path fill="none" stroke="midnightblue" d="M385.646,-15C394.599,-15 403.666,-15 412.479,-15"/>
<polygon fill="midnightblue" stroke="midnightblue" points="385.606,-11.5001 375.606,-15 385.606,-18.5001 385.606,-11.5001"/>
</g>
<!-- Node4 -->
<g id="node4" class="node"><title>Node4</title>
<g id="a_node4"><a xlink:href="../../d1/dfc/classfxml__main_1_1_action_editor.html#a7f9f88d727095254365be96c187826b2" target="_top" xlink:title="fxml_main.ActionEditor.Action\lEditor">
<polygon fill="white" stroke="black" points="592.5,-0 592.5,-30 751.5,-30 751.5,-0 592.5,-0"/>
<text text-anchor="start" x="600.5" y="-18" font-family="Helvetica,sans-Serif" font-size="10.00">fxml_main.ActionEditor.Action</text>
<text text-anchor="middle" x="672" y="-7" font-family="Helvetica,sans-Serif" font-size="10.00">Editor</text>
</a>
</g>
</g>
<!-- Node3&#45;&gt;Node4 -->
<g id="edge3" class="edge"><title>Node3&#45;&gt;Node4</title>
<path fill="none" stroke="midnightblue" d="M565.836,-15C574.644,-15 583.599,-15 592.38,-15"/>
<polygon fill="midnightblue" stroke="midnightblue" points="565.584,-11.5001 555.584,-15 565.584,-18.5001 565.584,-11.5001"/>
</g>
</g>
</svg>
