<?xml version="1.0" encoding="UTF-8" standalone="no"?>
<!DOCTYPE svg PUBLIC "-//W3C//DTD SVG 1.1//EN"
 "http://www.w3.org/Graphics/SVG/1.1/DTD/svg11.dtd">
<!-- Generated by graphviz version 2.36.0 (20140111.2315)
 -->
<!-- Title: gamePlayer.SplashScreen Pages: 1 -->
<svg width="253pt" height="96pt"
 viewBox="0.00 0.00 253.00 96.00" xmlns="http://www.w3.org/2000/svg" xmlns:xlink="http://www.w3.org/1999/xlink">
<g id="graph0" class="graph" transform="scale(1 1) rotate(0) translate(4 92)">
<title>gamePlayer.SplashScreen</title>
<polygon fill="white" stroke="none" points="-4,4 -4,-92 249,-92 249,4 -4,4"/>
<!-- Node1 -->
<g id="node1" class="node"><title>Node1</title>
<polygon fill="#bfbfbf" stroke="black" points="42,-0.5 42,-19.5 184,-19.5 184,-0.5 42,-0.5"/>
<text text-anchor="middle" x="113" y="-7.5" font-family="Helvetica,sans-Serif" font-size="10.00">gamePlayer.SplashScreen</text>
</g>
<!-- Node2 -->
<g id="node2" class="node"><title>Node2</title>
<polygon fill="white" stroke="#bfbfbf" points="-0.5,-68.5 -0.5,-87.5 44.5,-87.5 44.5,-68.5 -0.5,-68.5"/>
<text text-anchor="middle" x="22" y="-75.5" font-family="Helvetica,sans-Serif" font-size="10.00">Stage</text>
</g>
<!-- Node2&#45;&gt;Node1 -->
<g id="edge1" class="edge"><title>Node2&#45;&gt;Node1</title>
<path fill="none" stroke="midnightblue" d="M42.0543,-62.4551C60.133,-49.3431 86.1114,-30.5016 101.1,-19.6305"/>
<polygon fill="midnightblue" stroke="midnightblue" points="39.9368,-59.6672 33.8967,-68.3717 44.0466,-65.3338 39.9368,-59.6672"/>
</g>
<!-- Node3 -->
<g id="node3" class="node"><title>Node3</title>
<polygon fill="white" stroke="#bfbfbf" points="62.5,-68.5 62.5,-87.5 103.5,-87.5 103.5,-68.5 62.5,-68.5"/>
<text text-anchor="middle" x="83" y="-75.5" font-family="Helvetica,sans-Serif" font-size="10.00">VBox</text>
</g>
<!-- Node3&#45;&gt;Node1 -->
<g id="edge2" class="edge"><title>Node3&#45;&gt;Node1</title>
<path fill="none" stroke="#9a32cd" stroke-dasharray="5,2" d="M88.6864,-58.9218C90.9978,-52.2349 93.8644,-44.6639 97,-38 99.9694,-31.6893 103.969,-24.9393 107.227,-19.767"/>
<polygon fill="#9a32cd" stroke="#9a32cd" points="85.354,-57.8517 85.5525,-68.4447 92.0032,-60.04 85.354,-57.8517"/>
<text text-anchor="middle" x="109.5" y="-41.5" font-family="Helvetica,sans-Serif" font-size="10.00"> myV</text>
</g>
<!-- Node4 -->
<g id="node4" class="node"><title>Node4</title>
<polygon fill="white" stroke="#bfbfbf" points="121.5,-68.5 121.5,-87.5 168.5,-87.5 168.5,-68.5 121.5,-68.5"/>
<text text-anchor="middle" x="145" y="-75.5" font-family="Helvetica,sans-Serif" font-size="10.00">Scene</text>
</g>
<!-- Node4&#45;&gt;Node1 -->
<g id="edge3" class="edge"><title>Node4&#45;&gt;Node1</title>
<path fill="none" stroke="#9a32cd" stroke-dasharray="5,2" d="M136.363,-59.1859C130.189,-46.4523 122.145,-29.8607 117.287,-19.8411"/>
<polygon fill="#9a32cd" stroke="#9a32cd" points="133.304,-60.9005 140.817,-68.3717 139.603,-57.8465 133.304,-60.9005"/>
<text text-anchor="middle" x="155.5" y="-41.5" font-family="Helvetica,sans-Serif" font-size="10.00"> myScene</text>
</g>
<!-- Node5 -->
<g id="node5" class="node"><title>Node5</title>
<polygon fill="white" stroke="#bfbfbf" points="186.5,-68.5 186.5,-87.5 245.5,-87.5 245.5,-68.5 186.5,-68.5"/>
<text text-anchor="middle" x="216" y="-75.5" font-family="Helvetica,sans-Serif" font-size="10.00">GridPane</text>
</g>
<!-- Node5&#45;&gt;Node1 -->
<g id="edge4" class="edge"><title>Node5&#45;&gt;Node1</title>
<path fill="none" stroke="#9a32cd" stroke-dasharray="5,2" d="M205.22,-60.1743C199.647,-52.5607 192.279,-43.9547 184,-38 172.652,-29.8377 158.528,-23.8057 145.874,-19.5392"/>
<polygon fill="#9a32cd" stroke="#9a32cd" points="202.343,-62.1685 210.884,-68.4378 208.117,-58.2107 202.343,-62.1685"/>
<text text-anchor="middle" x="215" y="-41.5" font-family="Helvetica,sans-Serif" font-size="10.00"> myGrid</text>
</g>
</g>
</svg>
