<?xml version="1.0" encoding="UTF-8" standalone="no"?>
<!DOCTYPE svg PUBLIC "-//W3C//DTD SVG 1.1//EN"
 "http://www.w3.org/Graphics/SVG/1.1/DTD/svg11.dtd">
<!-- Generated by graphviz version 2.36.0 (20140111.2315)
 -->
<!-- Title: authoring.data.GameAuthoringData Pages: 1 -->
<svg width="1034pt" height="449pt"
 viewBox="0.00 0.00 1034.00 449.00" xmlns="http://www.w3.org/2000/svg" xmlns:xlink="http://www.w3.org/1999/xlink">
<g id="graph0" class="graph" transform="scale(1 1) rotate(0) translate(4 445)">
<title>authoring.data.GameAuthoringData</title>
<polygon fill="white" stroke="none" points="-4,4 -4,-445 1030,-445 1030,4 -4,4"/>
<!-- Node1 -->
<g id="node1" class="node"><title>Node1</title>
<polygon fill="#bfbfbf" stroke="black" points="836.5,-146.5 836.5,-165.5 1025.5,-165.5 1025.5,-146.5 836.5,-146.5"/>
<text text-anchor="middle" x="931" y="-153.5" font-family="Helvetica,sans-Serif" font-size="10.00">authoring.data.GameAuthoringData</text>
</g>
<!-- Node2 -->
<g id="node2" class="node"><title>Node2</title>
<g id="a_node2"><a xlink:href="../../d7/d88/classauthoring_1_1data_1_1_level_data.html" target="_top" xlink:title="authoring.data.LevelData">
<polygon fill="white" stroke="black" points="515,-367.5 515,-386.5 653,-386.5 653,-367.5 515,-367.5"/>
<text text-anchor="middle" x="584" y="-374.5" font-family="Helvetica,sans-Serif" font-size="10.00">authoring.data.LevelData</text>
</a>
</g>
</g>
<!-- Node2&#45;&gt;Node1 -->
<g id="edge1" class="edge"><title>Node2&#45;&gt;Node1</title>
<path fill="none" stroke="#9a32cd" stroke-dasharray="5,2" d="M617.947,-363.511C664.535,-343.712 751.403,-304.096 818,-258 860.168,-228.812 903.08,-184.908 921.136,-165.642"/>
<polygon fill="#9a32cd" stroke="#9a32cd" points="616.497,-360.324 608.639,-367.43 619.214,-366.775 616.497,-360.324"/>
<text text-anchor="middle" x="758" y="-328" font-family="Helvetica,sans-Serif" font-size="10.00"> myLevelData</text>
</g>
<!-- Node3 -->
<g id="node3" class="node"><title>Node3</title>
<g id="a_node3"><a xlink:href="../../d5/d29/interfaceauthoring_1_1data_1_1_authoring_data.html" target="_top" xlink:title="authoring.data.Authoring\lData\&lt; Level \&gt;">
<polygon fill="white" stroke="black" points="233.5,-362 233.5,-392 370.5,-392 370.5,-362 233.5,-362"/>
<text text-anchor="start" x="241.5" y="-380" font-family="Helvetica,sans-Serif" font-size="10.00">authoring.data.Authoring</text>
<text text-anchor="middle" x="302" y="-369" font-family="Helvetica,sans-Serif" font-size="10.00">Data&lt; Level &gt;</text>
</a>
</g>
</g>
<!-- Node3&#45;&gt;Node2 -->
<g id="edge2" class="edge"><title>Node3&#45;&gt;Node2</title>
<path fill="none" stroke="midnightblue" d="M380.98,-377C423.032,-377 474.44,-377 514.874,-377"/>
<polygon fill="midnightblue" stroke="midnightblue" points="380.78,-373.5 370.78,-377 380.78,-380.5 380.78,-373.5"/>
</g>
<!-- Node4 -->
<g id="node4" class="node"><title>Node4</title>
<polygon fill="white" stroke="#bfbfbf" points="208,-411 208,-441 396,-441 396,-411 208,-411"/>
<text text-anchor="start" x="216" y="-429" font-family="Helvetica,sans-Serif" font-size="10.00">List&lt; gamedata.gamecomponents.</text>
<text text-anchor="middle" x="302" y="-418" font-family="Helvetica,sans-Serif" font-size="10.00">Level &gt;</text>
</g>
<!-- Node4&#45;&gt;Node2 -->
<g id="edge3" class="edge"><title>Node4&#45;&gt;Node2</title>
<path fill="none" stroke="#9a32cd" stroke-dasharray="5,2" d="M398.907,-409.216C442.205,-401.639 491.77,-392.965 528.555,-386.528"/>
<polygon fill="#9a32cd" stroke="#9a32cd" points="398.159,-405.794 388.912,-410.965 399.366,-412.689 398.159,-405.794"/>
<text text-anchor="middle" x="442" y="-408" font-family="Helvetica,sans-Serif" font-size="10.00"> myLevels</text>
</g>
<!-- Node5 -->
<g id="node5" class="node"><title>Node5</title>
<g id="a_node5"><a xlink:href="../../d2/da6/classauthoring_1_1data_1_1_action_data.html" target="_top" xlink:title="authoring.data.ActionData">
<polygon fill="white" stroke="black" points="512.5,-279.5 512.5,-298.5 655.5,-298.5 655.5,-279.5 512.5,-279.5"/>
<text text-anchor="middle" x="584" y="-286.5" font-family="Helvetica,sans-Serif" font-size="10.00">authoring.data.ActionData</text>
</a>
</g>
</g>
<!-- Node5&#45;&gt;Node1 -->
<g id="edge4" class="edge"><title>Node5&#45;&gt;Node1</title>
<path fill="none" stroke="#9a32cd" stroke-dasharray="5,2" d="M619.408,-275.736C688.822,-248.976 844.177,-189.085 904.95,-165.657"/>
<polygon fill="#9a32cd" stroke="#9a32cd" points="617.883,-272.572 609.812,-279.435 620.401,-279.104 617.883,-272.572"/>
<text text-anchor="middle" x="758" y="-246" font-family="Helvetica,sans-Serif" font-size="10.00"> myActionData</text>
</g>
<!-- Node6 -->
<g id="node6" class="node"><title>Node6</title>
<g id="a_node6"><a xlink:href="../../d5/d29/interfaceauthoring_1_1data_1_1_authoring_data.html" target="_top" xlink:title="authoring.data.Authoring\lData\&lt; Action \&gt;">
<polygon fill="white" stroke="black" points="233.5,-274 233.5,-304 370.5,-304 370.5,-274 233.5,-274"/>
<text text-anchor="start" x="241.5" y="-292" font-family="Helvetica,sans-Serif" font-size="10.00">authoring.data.Authoring</text>
<text text-anchor="middle" x="302" y="-281" font-family="Helvetica,sans-Serif" font-size="10.00">Data&lt; Action &gt;</text>
</a>
</g>
</g>
<!-- Node6&#45;&gt;Node5 -->
<g id="edge5" class="edge"><title>Node6&#45;&gt;Node5</title>
<path fill="none" stroke="midnightblue" d="M380.787,-289C422.032,-289 472.32,-289 512.429,-289"/>
<polygon fill="midnightblue" stroke="midnightblue" points="380.78,-285.5 370.78,-289 380.78,-292.5 380.78,-285.5"/>
</g>
<!-- Node7 -->
<g id="node7" class="node"><title>Node7</title>
<polygon fill="white" stroke="#bfbfbf" points="217,-323.5 217,-342.5 387,-342.5 387,-323.5 217,-323.5"/>
<text text-anchor="middle" x="302" y="-330.5" font-family="Helvetica,sans-Serif" font-size="10.00">List&lt; gamedata.action.Action &gt;</text>
</g>
<!-- Node7&#45;&gt;Node5 -->
<g id="edge6" class="edge"><title>Node7&#45;&gt;Node5</title>
<path fill="none" stroke="#9a32cd" stroke-dasharray="5,2" d="M373.913,-321.856C419.733,-314.656 478.727,-305.386 522.363,-298.529"/>
<polygon fill="#9a32cd" stroke="#9a32cd" points="373.091,-318.443 363.756,-323.453 374.178,-325.358 373.091,-318.443"/>
<text text-anchor="middle" x="442" y="-317" font-family="Helvetica,sans-Serif" font-size="10.00"> myActions</text>
</g>
<!-- Node8 -->
<g id="node8" class="node"><title>Node8</title>
<g id="a_node8"><a xlink:href="../../d1/d4f/classauthoring_1_1data_1_1_patch_type_data.html" target="_top" xlink:title="authoring.data.PatchTypeData">
<polygon fill="white" stroke="black" points="503.5,-123.5 503.5,-142.5 664.5,-142.5 664.5,-123.5 503.5,-123.5"/>
<text text-anchor="middle" x="584" y="-130.5" font-family="Helvetica,sans-Serif" font-size="10.00">authoring.data.PatchTypeData</text>
</a>
</g>
</g>
<!-- Node8&#45;&gt;Node1 -->
<g id="edge7" class="edge"><title>Node8&#45;&gt;Node1</title>
<path fill="none" stroke="#9a32cd" stroke-dasharray="5,2" d="M674.832,-135.991C718.139,-137.752 770.808,-140.361 818,-144 827.164,-144.707 836.738,-145.558 846.263,-146.478"/>
<polygon fill="#9a32cd" stroke="#9a32cd" points="674.736,-132.484 664.605,-135.584 674.458,-139.479 674.736,-132.484"/>
<text text-anchor="middle" x="758" y="-147" font-family="Helvetica,sans-Serif" font-size="10.00"> myPatchTypeData</text>
</g>
<!-- Node9 -->
<g id="node9" class="node"><title>Node9</title>
<polygon fill="white" stroke="#bfbfbf" points="266.5,-137.5 266.5,-156.5 337.5,-156.5 337.5,-137.5 266.5,-137.5"/>
<text text-anchor="middle" x="302" y="-144.5" font-family="Helvetica,sans-Serif" font-size="10.00">Observable</text>
</g>
<!-- Node9&#45;&gt;Node8 -->
<g id="edge8" class="edge"><title>Node9&#45;&gt;Node8</title>
<path fill="none" stroke="midnightblue" d="M347.757,-144.762C389.558,-142.672 452.901,-139.505 503.33,-136.983"/>
<polygon fill="midnightblue" stroke="midnightblue" points="347.427,-141.274 337.614,-145.269 347.777,-148.265 347.427,-141.274"/>
</g>
<!-- Node16 -->
<g id="node16" class="node"><title>Node16</title>
<g id="a_node16"><a xlink:href="../../d5/d98/classauthoring_1_1data_1_1_piece_type_data.html" target="_top" xlink:title="authoring.data.PieceTypeData">
<polygon fill="white" stroke="black" points="504,-171.5 504,-190.5 664,-190.5 664,-171.5 504,-171.5"/>
<text text-anchor="middle" x="584" y="-178.5" font-family="Helvetica,sans-Serif" font-size="10.00">authoring.data.PieceTypeData</text>
</a>
</g>
</g>
<!-- Node9&#45;&gt;Node16 -->
<g id="edge16" class="edge"><title>Node9&#45;&gt;Node16</title>
<path fill="none" stroke="midnightblue" d="M347.565,-152.411C389.686,-157.526 453.804,-165.312 504.496,-171.467"/>
<polygon fill="midnightblue" stroke="midnightblue" points="347.963,-148.934 337.614,-151.203 347.119,-155.883 347.963,-148.934"/>
</g>
<!-- Node10 -->
<g id="node10" class="node"><title>Node10</title>
<g id="a_node10"><a xlink:href="../../d5/d29/interfaceauthoring_1_1data_1_1_authoring_data.html" target="_top" xlink:title="authoring.data.Authoring\lData\&lt; Patch \&gt;">
<polygon fill="white" stroke="black" points="233.5,-88 233.5,-118 370.5,-118 370.5,-88 233.5,-88"/>
<text text-anchor="start" x="241.5" y="-106" font-family="Helvetica,sans-Serif" font-size="10.00">authoring.data.Authoring</text>
<text text-anchor="middle" x="302" y="-95" font-family="Helvetica,sans-Serif" font-size="10.00">Data&lt; Patch &gt;</text>
</a>
</g>
</g>
<!-- Node10&#45;&gt;Node8 -->
<g id="edge9" class="edge"><title>Node10&#45;&gt;Node8</title>
<path fill="none" stroke="midnightblue" d="M380.826,-111.338C419.031,-115.432 464.987,-120.356 503.425,-124.474"/>
<polygon fill="midnightblue" stroke="midnightblue" points="381.096,-107.848 370.78,-110.262 380.35,-114.808 381.096,-107.848"/>
</g>
<!-- Node11 -->
<g id="node11" class="node"><title>Node11</title>
<polygon fill="white" stroke="#bfbfbf" points="208,-39 208,-69 396,-69 396,-39 208,-39"/>
<text text-anchor="start" x="216" y="-57" font-family="Helvetica,sans-Serif" font-size="10.00">List&lt; gamedata.gamecomponents.</text>
<text text-anchor="middle" x="302" y="-46" font-family="Helvetica,sans-Serif" font-size="10.00">Patch &gt;</text>
</g>
<!-- Node11&#45;&gt;Node8 -->
<g id="edge10" class="edge"><title>Node11&#45;&gt;Node8</title>
<path fill="none" stroke="#9a32cd" stroke-dasharray="5,2" d="M372.972,-71.6653C380.756,-73.7469 388.557,-75.8842 396,-78 429.128,-87.4169 439.192,-85.6047 470,-101 478.827,-105.411 478.955,-110.053 488,-114 496.941,-117.901 506.707,-121.01 516.466,-123.486"/>
<polygon fill="#9a32cd" stroke="#9a32cd" points="373.712,-68.2407 363.149,-69.0642 371.92,-75.0075 373.712,-68.2407"/>
<text text-anchor="middle" x="442" y="-104" font-family="Helvetica,sans-Serif" font-size="10.00"> myPatches</text>
</g>
<!-- Node12 -->
<g id="node12" class="node"><title>Node12</title>
<g id="a_node12"><a xlink:href="../../d2/dcf/classauthoring_1_1data_1_1_game_properties_data.html" target="_top" xlink:title="authoring.data.GamePropertiesData">
<polygon fill="white" stroke="black" points="488.5,-85.5 488.5,-104.5 679.5,-104.5 679.5,-85.5 488.5,-85.5"/>
<text text-anchor="middle" x="584" y="-92.5" font-family="Helvetica,sans-Serif" font-size="10.00">authoring.data.GamePropertiesData</text>
</a>
</g>
</g>
<!-- Node12&#45;&gt;Node1 -->
<g id="edge11" class="edge"><title>Node12&#45;&gt;Node1</title>
<path fill="none" stroke="#9a32cd" stroke-dasharray="5,2" d="M689.789,-103.832C730.11,-108.211 776.43,-114.441 818,-123 847.186,-129.01 879.783,-138.998 902.251,-146.415"/>
<polygon fill="#9a32cd" stroke="#9a32cd" points="689.988,-100.333 679.674,-102.758 689.249,-107.294 689.988,-100.333"/>
<text text-anchor="middle" x="758" y="-126" font-family="Helvetica,sans-Serif" font-size="10.00"> myGamePropertiesData</text>
</g>
<!-- Node13 -->
<g id="node13" class="node"><title>Node13</title>
<g id="a_node13"><a xlink:href="../../d6/dfb/classauthoring_1_1data_1_1_player_stat_data.html" target="_top" xlink:title="authoring.data.PlayerStatData">
<polygon fill="white" stroke="black" points="502.5,-26.5 502.5,-45.5 665.5,-45.5 665.5,-26.5 502.5,-26.5"/>
<text text-anchor="middle" x="584" y="-33.5" font-family="Helvetica,sans-Serif" font-size="10.00">authoring.data.PlayerStatData</text>
</a>
</g>
</g>
<!-- Node13&#45;&gt;Node1 -->
<g id="edge12" class="edge"><title>Node13&#45;&gt;Node1</title>
<path fill="none" stroke="#9a32cd" stroke-dasharray="5,2" d="M657.408,-47.4122C704.271,-56.1677 766.014,-70.3067 818,-91 855.807,-106.049 896.141,-132.311 916.529,-146.407"/>
<polygon fill="#9a32cd" stroke="#9a32cd" points="657.809,-43.9275 647.342,-45.5713 656.549,-50.8133 657.809,-43.9275"/>
<text text-anchor="middle" x="758" y="-94" font-family="Helvetica,sans-Serif" font-size="10.00"> myPlayerStatData</text>
</g>
<!-- Node14 -->
<g id="node14" class="node"><title>Node14</title>
<g id="a_node14"><a xlink:href="../../d6/d1d/classgamedata_1_1stats_1_1_stats.html" target="_top" xlink:title="gamedata.stats.Stats">
<polygon fill="white" stroke="black" points="241,-0.5 241,-19.5 363,-19.5 363,-0.5 241,-0.5"/>
<text text-anchor="middle" x="302" y="-7.5" font-family="Helvetica,sans-Serif" font-size="10.00">gamedata.stats.Stats</text>
</a>
</g>
</g>
<!-- Node14&#45;&gt;Node13 -->
<g id="edge13" class="edge"><title>Node14&#45;&gt;Node13</title>
<path fill="none" stroke="#9a32cd" stroke-dasharray="5,2" d="M373.671,-13.6166C403.445,-15.4095 438.445,-17.8699 470,-21 485.164,-22.5042 501.429,-24.4606 516.761,-26.461"/>
<polygon fill="#9a32cd" stroke="#9a32cd" points="373.561,-10.1041 363.372,-13.0103 373.149,-17.092 373.561,-10.1041"/>
<text text-anchor="middle" x="442" y="-24" font-family="Helvetica,sans-Serif" font-size="10.00"> myStats</text>
</g>
<!-- Node15 -->
<g id="node15" class="node"><title>Node15</title>
<polygon fill="white" stroke="#bfbfbf" points="0,-0.5 0,-19.5 128,-19.5 128,-0.5 0,-0.5"/>
<text text-anchor="middle" x="64" y="-7.5" font-family="Helvetica,sans-Serif" font-size="10.00">Map&lt; String, Double &gt;</text>
</g>
<!-- Node15&#45;&gt;Node14 -->
<g id="edge14" class="edge"><title>Node15&#45;&gt;Node14</title>
<path fill="none" stroke="#9a32cd" stroke-dasharray="5,2" d="M138.277,-10C171.218,-10 209.616,-10 240.837,-10"/>
<polygon fill="#9a32cd" stroke="#9a32cd" points="138.244,-6.5001 128.244,-10 138.244,-13.5001 138.244,-6.5001"/>
<text text-anchor="middle" x="168" y="-13" font-family="Helvetica,sans-Serif" font-size="10.00"> myStats</text>
</g>
<!-- Node16&#45;&gt;Node1 -->
<g id="edge15" class="edge"><title>Node16&#45;&gt;Node1</title>
<path fill="none" stroke="#9a32cd" stroke-dasharray="5,2" d="M674.243,-174.533C723.951,-170.931 785.793,-166.45 836.214,-162.796"/>
<polygon fill="#9a32cd" stroke="#9a32cd" points="673.871,-171.051 664.15,-175.264 674.377,-178.033 673.871,-171.051"/>
<text text-anchor="middle" x="758" y="-176" font-family="Helvetica,sans-Serif" font-size="10.00"> myPieceTypeData</text>
</g>
<!-- Node17 -->
<g id="node17" class="node"><title>Node17</title>
<g id="a_node17"><a xlink:href="../../d5/d29/interfaceauthoring_1_1data_1_1_authoring_data.html" target="_top" xlink:title="authoring.data.Authoring\lData\&lt; Piece \&gt;">
<polygon fill="white" stroke="black" points="233.5,-225 233.5,-255 370.5,-255 370.5,-225 233.5,-225"/>
<text text-anchor="start" x="241.5" y="-243" font-family="Helvetica,sans-Serif" font-size="10.00">authoring.data.Authoring</text>
<text text-anchor="middle" x="302" y="-232" font-family="Helvetica,sans-Serif" font-size="10.00">Data&lt; Piece &gt;</text>
</a>
</g>
</g>
<!-- Node17&#45;&gt;Node16 -->
<g id="edge17" class="edge"><title>Node17&#45;&gt;Node16</title>
<path fill="none" stroke="midnightblue" d="M380.693,-223.629C431.219,-212.982 495.346,-199.47 537.702,-190.545"/>
<polygon fill="midnightblue" stroke="midnightblue" points="379.844,-220.231 370.78,-225.718 381.287,-227.081 379.844,-220.231"/>
</g>
<!-- Node18 -->
<g id="node18" class="node"><title>Node18</title>
<polygon fill="white" stroke="#bfbfbf" points="208,-176 208,-206 396,-206 396,-176 208,-176"/>
<text text-anchor="start" x="216" y="-194" font-family="Helvetica,sans-Serif" font-size="10.00">List&lt; gamedata.gamecomponents.</text>
<text text-anchor="middle" x="302" y="-183" font-family="Helvetica,sans-Serif" font-size="10.00">Piece &gt;</text>
</g>
<!-- Node18&#45;&gt;Node16 -->
<g id="edge18" class="edge"><title>Node18&#45;&gt;Node16</title>
<path fill="none" stroke="#9a32cd" stroke-dasharray="5,2" d="M406.558,-187.301C438.678,-186.154 473.549,-184.909 503.743,-183.831"/>
<polygon fill="#9a32cd" stroke="#9a32cd" points="406.105,-183.815 396.236,-187.67 406.355,-190.811 406.105,-183.815"/>
<text text-anchor="middle" x="442" y="-190" font-family="Helvetica,sans-Serif" font-size="10.00"> myPieces</text>
</g>
</g>
</svg>
