<?xml version="1.0" encoding="UTF-8" standalone="no"?>
<!DOCTYPE svg PUBLIC "-//W3C//DTD SVG 1.1//EN"
 "http://www.w3.org/Graphics/SVG/1.1/DTD/svg11.dtd">
<!-- Generated by graphviz version 2.36.0 (20140111.2315)
 -->
<!-- Title: fxml_main.GridComponentAbstCtrl&lt; T &gt; Pages: 1 -->
<svg width="1306pt" height="274pt"
 viewBox="0.00 0.00 1306.00 274.00" xmlns="http://www.w3.org/2000/svg" xmlns:xlink="http://www.w3.org/1999/xlink">
<g id="graph0" class="graph" transform="scale(1 1) rotate(0) translate(4 270)">
<title>fxml_main.GridComponentAbstCtrl&lt; T &gt;</title>
<polygon fill="white" stroke="none" points="-4,4 -4,-270 1302,-270 1302,4 -4,4"/>
<!-- Node1 -->
<g id="node1" class="node"><title>Node1</title>
<polygon fill="#bfbfbf" stroke="black" points="1130.5,-150 1130.5,-180 1297.5,-180 1297.5,-150 1130.5,-150"/>
<text text-anchor="start" x="1138.5" y="-168" font-family="Helvetica,sans-Serif" font-size="10.00">fxml_main.GridComponentAbst</text>
<text text-anchor="middle" x="1214" y="-157" font-family="Helvetica,sans-Serif" font-size="10.00">Ctrl&lt; T &gt;</text>
</g>
<!-- Node2 -->
<g id="node2" class="node"><title>Node2</title>
<polygon fill="white" stroke="#bfbfbf" points="898.5,-211.5 898.5,-230.5 939.5,-230.5 939.5,-211.5 898.5,-211.5"/>
<text text-anchor="middle" x="919" y="-218.5" font-family="Helvetica,sans-Serif" font-size="10.00">VBox</text>
</g>
<!-- Node2&#45;&gt;Node1 -->
<g id="edge1" class="edge"><title>Node2&#45;&gt;Node1</title>
<path fill="none" stroke="#9a32cd" stroke-dasharray="5,2" d="M950.124,-217.794C988.106,-213.479 1055.3,-204.945 1112,-193 1128.92,-189.437 1147.18,-184.662 1163.47,-180.066"/>
<polygon fill="#9a32cd" stroke="#9a32cd" points="949.319,-214.362 939.768,-218.947 950.094,-221.318 949.319,-214.362"/>
<text text-anchor="middle" x="1063" y="-213" font-family="Helvetica,sans-Serif" font-size="10.00"> myVBox</text>
</g>
<!-- Node3 -->
<g id="node3" class="node"><title>Node3</title>
<polygon fill="white" stroke="#bfbfbf" points="886,-173.5 886,-192.5 952,-192.5 952,-173.5 886,-173.5"/>
<text text-anchor="middle" x="919" y="-180.5" font-family="Helvetica,sans-Serif" font-size="10.00">ScrollPane</text>
</g>
<!-- Node3&#45;&gt;Node1 -->
<g id="edge2" class="edge"><title>Node3&#45;&gt;Node1</title>
<path fill="none" stroke="#9a32cd" stroke-dasharray="5,2" d="M962.2,-180.408C1005.96,-177.719 1075.5,-173.447 1130.27,-170.083"/>
<polygon fill="#9a32cd" stroke="#9a32cd" points="961.961,-176.916 952.194,-181.022 962.39,-183.902 961.961,-176.916"/>
<text text-anchor="middle" x="1063" y="-181" font-family="Helvetica,sans-Serif" font-size="10.00"> myPropertiesSPane</text>
</g>
<!-- Node4 -->
<g id="node4" class="node"><title>Node4</title>
<g id="a_node4"><a xlink:href="../../d6/d05/classfxml__main_1_1_g_u_i_grid_reference.html" target="_top" xlink:title="fxml_main.GUIGridReference">
<polygon fill="white" stroke="black" points="842.5,-135.5 842.5,-154.5 995.5,-154.5 995.5,-135.5 842.5,-135.5"/>
<text text-anchor="middle" x="919" y="-142.5" font-family="Helvetica,sans-Serif" font-size="10.00">fxml_main.GUIGridReference</text>
</a>
</g>
</g>
<!-- Node4&#45;&gt;Node1 -->
<g id="edge3" class="edge"><title>Node4&#45;&gt;Node1</title>
<path fill="none" stroke="#9a32cd" stroke-dasharray="5,2" d="M1005.83,-150.059C1039.01,-152.094 1077.28,-154.54 1112,-157 1117.97,-157.423 1124.13,-157.874 1130.33,-158.339"/>
<polygon fill="#9a32cd" stroke="#9a32cd" points="1005.9,-146.557 995.708,-149.441 1005.48,-153.544 1005.9,-146.557"/>
<text text-anchor="middle" x="1063" y="-160" font-family="Helvetica,sans-Serif" font-size="10.00"> myGridReference</text>
</g>
<!-- Node5 -->
<g id="node5" class="node"><title>Node5</title>
<g id="a_node5"><a xlink:href="../../da/d4c/classauthoring__environment_1_1_g_u_i_grid.html" target="_top" xlink:title="authoring_environment.GUIGrid">
<polygon fill="white" stroke="black" points="564,-135.5 564,-154.5 732,-154.5 732,-135.5 564,-135.5"/>
<text text-anchor="middle" x="648" y="-142.5" font-family="Helvetica,sans-Serif" font-size="10.00">authoring_environment.GUIGrid</text>
</a>
</g>
</g>
<!-- Node5&#45;&gt;Node4 -->
<g id="edge4" class="edge"><title>Node5&#45;&gt;Node4</title>
<path fill="none" stroke="#9a32cd" stroke-dasharray="5,2" d="M742.301,-145C775.023,-145 811.346,-145 842.434,-145"/>
<polygon fill="#9a32cd" stroke="#9a32cd" points="742.271,-141.5 732.271,-145 742.271,-148.5 742.271,-141.5"/>
<text text-anchor="middle" x="787" y="-159" font-family="Helvetica,sans-Serif" font-size="10.00"> DEFAULT_GRID</text>
<text text-anchor="middle" x="787" y="-148" font-family="Helvetica,sans-Serif" font-size="10.00">myGrid</text>
</g>
<!-- Node6 -->
<g id="node6" class="node"><title>Node6</title>
<g id="a_node6"><a xlink:href="../../d9/df3/classauthoring__environment_1_1_super_grid.html" target="_top" xlink:title="authoring_environment.SuperGrid">
<polygon fill="white" stroke="black" points="280.5,-196.5 280.5,-215.5 459.5,-215.5 459.5,-196.5 280.5,-196.5"/>
<text text-anchor="middle" x="370" y="-203.5" font-family="Helvetica,sans-Serif" font-size="10.00">authoring_environment.SuperGrid</text>
</a>
</g>
</g>
<!-- Node6&#45;&gt;Node5 -->
<g id="edge5" class="edge"><title>Node6&#45;&gt;Node5</title>
<path fill="none" stroke="midnightblue" d="M424.205,-194.241C476.457,-182.693 555.192,-165.291 603.723,-154.565"/>
<polygon fill="midnightblue" stroke="midnightblue" points="423.134,-190.893 414.125,-196.469 424.645,-197.728 423.134,-190.893"/>
</g>
<!-- Node7 -->
<g id="node7" class="node"><title>Node7</title>
<polygon fill="white" stroke="#bfbfbf" points="18,-235 18,-265 170,-265 170,-235 18,-235"/>
<text text-anchor="start" x="26" y="-253" font-family="Helvetica,sans-Serif" font-size="10.00">List&lt; List&lt; authoring</text>
<text text-anchor="middle" x="94" y="-242" font-family="Helvetica,sans-Serif" font-size="10.00">_environment.SuperTile &gt; &gt;</text>
</g>
<!-- Node7&#45;&gt;Node6 -->
<g id="edge6" class="edge"><title>Node7&#45;&gt;Node6</title>
<path fill="none" stroke="#9a32cd" stroke-dasharray="5,2" d="M180.172,-236.323C222.144,-229.583 271.729,-221.62 309.553,-215.546"/>
<polygon fill="#9a32cd" stroke="#9a32cd" points="179.553,-232.877 170.234,-237.919 180.663,-239.789 179.553,-232.877"/>
<text text-anchor="middle" x="234" y="-235" font-family="Helvetica,sans-Serif" font-size="10.00"> myGrid</text>
</g>
<!-- Node8 -->
<g id="node8" class="node"><title>Node8</title>
<polygon fill="white" stroke="#bfbfbf" points="74,-196.5 74,-215.5 114,-215.5 114,-196.5 74,-196.5"/>
<text text-anchor="middle" x="94" y="-203.5" font-family="Helvetica,sans-Serif" font-size="10.00">Pane</text>
</g>
<!-- Node8&#45;&gt;Node6 -->
<g id="edge7" class="edge"><title>Node8&#45;&gt;Node6</title>
<path fill="none" stroke="#9a32cd" stroke-dasharray="5,2" d="M124.344,-206C161.282,-206 226.409,-206 280.184,-206"/>
<polygon fill="#9a32cd" stroke="#9a32cd" points="124.267,-202.5 114.267,-206 124.267,-209.5 124.267,-202.5"/>
<text text-anchor="middle" x="234" y="-209" font-family="Helvetica,sans-Serif" font-size="10.00"> myPane</text>
</g>
<!-- Node9 -->
<g id="node9" class="node"><title>Node9</title>
<polygon fill="white" stroke="#bfbfbf" points="340,-148.5 340,-167.5 400,-167.5 400,-148.5 340,-148.5"/>
<text text-anchor="middle" x="370" y="-155.5" font-family="Helvetica,sans-Serif" font-size="10.00">Observer</text>
</g>
<!-- Node9&#45;&gt;Node5 -->
<g id="edge8" class="edge"><title>Node9&#45;&gt;Node5</title>
<path fill="none" stroke="midnightblue" d="M410.105,-156.158C449.898,-154.284 512.806,-151.321 563.797,-148.919"/>
<polygon fill="midnightblue" stroke="midnightblue" points="409.839,-152.667 400.015,-156.633 410.169,-159.659 409.839,-152.667"/>
</g>
<!-- Node10 -->
<g id="node10" class="node"><title>Node10</title>
<g id="a_node10"><a xlink:href="../../d7/dd4/classauthoring_1_1data_1_1_patch_instance_data.html" target="_top" xlink:title="authoring.data.PatchInstanceData">
<polygon fill="white" stroke="black" points="280,-110.5 280,-129.5 460,-129.5 460,-110.5 280,-110.5"/>
<text text-anchor="middle" x="370" y="-117.5" font-family="Helvetica,sans-Serif" font-size="10.00">authoring.data.PatchInstanceData</text>
</a>
</g>
</g>
<!-- Node10&#45;&gt;Node5 -->
<g id="edge9" class="edge"><title>Node10&#45;&gt;Node5</title>
<path fill="none" stroke="#9a32cd" stroke-dasharray="5,2" d="M470.177,-128.272C494.947,-130.401 521.448,-132.732 546,-135 551.79,-135.535 557.766,-136.098 563.783,-136.673"/>
<polygon fill="#9a32cd" stroke="#9a32cd" points="470.309,-124.77 460.047,-127.404 469.712,-131.745 470.309,-124.77"/>
<text text-anchor="middle" x="512" y="-138" font-family="Helvetica,sans-Serif" font-size="10.00"> myPatchData</text>
</g>
<!-- Node11 -->
<g id="node11" class="node"><title>Node11</title>
<g id="a_node11"><a xlink:href="../../d5/d29/interfaceauthoring_1_1data_1_1_authoring_data.html" target="_top" xlink:title="authoring.data.Authoring\lData\&lt; Patch \&gt;">
<polygon fill="white" stroke="black" points="25.5,-147 25.5,-177 162.5,-177 162.5,-147 25.5,-147"/>
<text text-anchor="start" x="33.5" y="-165" font-family="Helvetica,sans-Serif" font-size="10.00">authoring.data.Authoring</text>
<text text-anchor="middle" x="94" y="-154" font-family="Helvetica,sans-Serif" font-size="10.00">Data&lt; Patch &gt;</text>
</a>
</g>
</g>
<!-- Node11&#45;&gt;Node10 -->
<g id="edge10" class="edge"><title>Node11&#45;&gt;Node10</title>
<path fill="none" stroke="midnightblue" d="M172.743,-150.083C215.173,-143.579 266.997,-135.635 306.734,-129.544"/>
<polygon fill="midnightblue" stroke="midnightblue" points="172.085,-146.643 162.73,-151.618 173.145,-153.562 172.085,-146.643"/>
</g>
<!-- Node12 -->
<g id="node12" class="node"><title>Node12</title>
<polygon fill="white" stroke="#bfbfbf" points="0,-98 0,-128 188,-128 188,-98 0,-98"/>
<text text-anchor="start" x="8" y="-116" font-family="Helvetica,sans-Serif" font-size="10.00">List&lt; gamedata.gamecomponents.</text>
<text text-anchor="middle" x="94" y="-105" font-family="Helvetica,sans-Serif" font-size="10.00">Patch &gt;</text>
</g>
<!-- Node12&#45;&gt;Node10 -->
<g id="edge11" class="edge"><title>Node12&#45;&gt;Node10</title>
<path fill="none" stroke="#9a32cd" stroke-dasharray="5,2" d="M198.325,-115.64C225.142,-116.325 253.795,-117.057 279.816,-117.722"/>
<polygon fill="#9a32cd" stroke="#9a32cd" points="198.232,-112.136 188.146,-115.38 198.054,-119.134 198.232,-112.136"/>
<text text-anchor="middle" x="234" y="-121" font-family="Helvetica,sans-Serif" font-size="10.00"> myPatches</text>
</g>
<!-- Node13 -->
<g id="node13" class="node"><title>Node13</title>
<g id="a_node13"><a xlink:href="../../d6/dda/classauthoring_1_1data_1_1_piece_instance_data.html" target="_top" xlink:title="authoring.data.PieceInstanceData">
<polygon fill="white" stroke="black" points="280.5,-54.5 280.5,-73.5 459.5,-73.5 459.5,-54.5 280.5,-54.5"/>
<text text-anchor="middle" x="370" y="-61.5" font-family="Helvetica,sans-Serif" font-size="10.00">authoring.data.PieceInstanceData</text>
</a>
</g>
</g>
<!-- Node13&#45;&gt;Node5 -->
<g id="edge12" class="edge"><title>Node13&#45;&gt;Node5</title>
<path fill="none" stroke="#9a32cd" stroke-dasharray="5,2" d="M413.914,-76.4394C449.352,-86.728 500.961,-101.748 546,-115 569.163,-121.815 595.292,-129.578 615.17,-135.5"/>
<polygon fill="#9a32cd" stroke="#9a32cd" points="414.493,-72.9631 403.914,-73.5371 412.542,-79.6857 414.493,-72.9631"/>
<text text-anchor="middle" x="512" y="-118" font-family="Helvetica,sans-Serif" font-size="10.00"> myPieceData</text>
</g>
<!-- Node14 -->
<g id="node14" class="node"><title>Node14</title>
<g id="a_node14"><a xlink:href="../../d5/d29/interfaceauthoring_1_1data_1_1_authoring_data.html" target="_top" xlink:title="authoring.data.Authoring\lData\&lt; Piece \&gt;">
<polygon fill="white" stroke="black" points="25.5,-49 25.5,-79 162.5,-79 162.5,-49 25.5,-49"/>
<text text-anchor="start" x="33.5" y="-67" font-family="Helvetica,sans-Serif" font-size="10.00">authoring.data.Authoring</text>
<text text-anchor="middle" x="94" y="-56" font-family="Helvetica,sans-Serif" font-size="10.00">Data&lt; Piece &gt;</text>
</a>
</g>
</g>
<!-- Node14&#45;&gt;Node13 -->
<g id="edge13" class="edge"><title>Node14&#45;&gt;Node13</title>
<path fill="none" stroke="midnightblue" d="M172.925,-64C206.413,-64 245.726,-64 280.324,-64"/>
<polygon fill="midnightblue" stroke="midnightblue" points="172.73,-60.5001 162.73,-64 172.73,-67.5001 172.73,-60.5001"/>
</g>
<!-- Node15 -->
<g id="node15" class="node"><title>Node15</title>
<polygon fill="white" stroke="#bfbfbf" points="0,-0 0,-30 188,-30 188,-0 0,-0"/>
<text text-anchor="start" x="8" y="-18" font-family="Helvetica,sans-Serif" font-size="10.00">List&lt; gamedata.gamecomponents.</text>
<text text-anchor="middle" x="94" y="-7" font-family="Helvetica,sans-Serif" font-size="10.00">Piece &gt;</text>
</g>
<!-- Node15&#45;&gt;Node13 -->
<g id="edge14" class="edge"><title>Node15&#45;&gt;Node13</title>
<path fill="none" stroke="#9a32cd" stroke-dasharray="5,2" d="M189.12,-31.8316C231.427,-39.3974 279.801,-48.0483 315.721,-54.472"/>
<polygon fill="#9a32cd" stroke="#9a32cd" points="189.531,-28.3497 179.071,-30.0346 188.299,-35.2404 189.531,-28.3497"/>
<text text-anchor="middle" x="234" y="-47" font-family="Helvetica,sans-Serif" font-size="10.00"> myPieces</text>
</g>
<!-- Node16 -->
<g id="node16" class="node"><title>Node16</title>
<polygon fill="white" stroke="#bfbfbf" points="871,-97.5 871,-116.5 967,-116.5 967,-97.5 871,-97.5"/>
<text text-anchor="middle" x="919" y="-104.5" font-family="Helvetica,sans-Serif" font-size="10.00">Map&lt; T, HBox &gt;</text>
</g>
<!-- Node16&#45;&gt;Node1 -->
<g id="edge15" class="edge"><title>Node16&#45;&gt;Node1</title>
<path fill="none" stroke="#9a32cd" stroke-dasharray="5,2" d="M977.215,-113.667C1015.58,-118.62 1067.1,-126.207 1112,-136 1129.65,-139.849 1148.75,-145.058 1165.54,-150"/>
<polygon fill="#9a32cd" stroke="#9a32cd" points="977.622,-110.191 967.26,-112.403 976.74,-117.135 977.622,-110.191"/>
<text text-anchor="middle" x="1063" y="-139" font-family="Helvetica,sans-Serif" font-size="10.00"> myEntryMap</text>
</g>
</g>
</svg>
