<?xml version="1.0" encoding="UTF-8" standalone="no"?>
<!DOCTYPE svg PUBLIC "-//W3C//DTD SVG 1.1//EN"
 "http://www.w3.org/Graphics/SVG/1.1/DTD/svg11.dtd">
<!-- Generated by graphviz version 2.36.0 (20140111.2315)
 -->
<!-- Title: authoring_environment.SquareTile Pages: 1 -->
<svg width="444pt" height="186pt"
 viewBox="0.00 0.00 444.00 186.00" xmlns="http://www.w3.org/2000/svg" xmlns:xlink="http://www.w3.org/1999/xlink">
<g id="graph0" class="graph" transform="scale(1 1) rotate(0) translate(4 182)">
<title>authoring_environment.SquareTile</title>
<polygon fill="white" stroke="none" points="-4,4 -4,-182 440,-182 440,4 -4,4"/>
<!-- Node1 -->
<g id="node1" class="node"><title>Node1</title>
<polygon fill="#bfbfbf" stroke="black" points="45,-0.5 45,-19.5 227,-19.5 227,-0.5 45,-0.5"/>
<text text-anchor="middle" x="136" y="-7.5" font-family="Helvetica,sans-Serif" font-size="10.00">authoring_environment.SquareTile</text>
</g>
<!-- Node2 -->
<g id="node2" class="node"><title>Node2</title>
<g id="a_node2"><a xlink:href="../../dc/d5a/classauthoring__environment_1_1_super_tile.html" target="_top" xlink:title="authoring_environment.SuperTile">
<polygon fill="white" stroke="black" points="48,-58.5 48,-77.5 224,-77.5 224,-58.5 48,-58.5"/>
<text text-anchor="middle" x="136" y="-65.5" font-family="Helvetica,sans-Serif" font-size="10.00">authoring_environment.SuperTile</text>
</a>
</g>
</g>
<!-- Node2&#45;&gt;Node1 -->
<g id="edge1" class="edge"><title>Node2&#45;&gt;Node1</title>
<path fill="none" stroke="midnightblue" d="M136,-47.953C136,-38.2875 136,-27.0312 136,-19.5052"/>
<polygon fill="midnightblue" stroke="midnightblue" points="132.5,-48.25 136,-58.25 139.5,-48.25 132.5,-48.25"/>
</g>
<!-- Node3 -->
<g id="node3" class="node"><title>Node3</title>
<polygon fill="white" stroke="#bfbfbf" points="0,-158.5 0,-177.5 46,-177.5 46,-158.5 0,-158.5"/>
<text text-anchor="middle" x="23" y="-165.5" font-family="Helvetica,sans-Serif" font-size="10.00">Group</text>
</g>
<!-- Node3&#45;&gt;Node2 -->
<g id="edge2" class="edge"><title>Node3&#45;&gt;Node2</title>
<path fill="none" stroke="midnightblue" d="M33.293,-149.312C43.1362,-133.64 59.2303,-110.984 78,-96 87.8088,-88.1697 100.259,-81.9915 111.108,-77.5324"/>
<polygon fill="midnightblue" stroke="midnightblue" points="30.1952,-147.67 28.0039,-158.036 36.1811,-151.299 30.1952,-147.67"/>
</g>
<!-- Node4 -->
<g id="node4" class="node"><title>Node4</title>
<polygon fill="white" stroke="#bfbfbf" points="64.5,-158.5 64.5,-177.5 111.5,-177.5 111.5,-158.5 64.5,-158.5"/>
<text text-anchor="middle" x="88" y="-165.5" font-family="Helvetica,sans-Serif" font-size="10.00">Shape</text>
</g>
<!-- Node4&#45;&gt;Node2 -->
<g id="edge3" class="edge"><title>Node4&#45;&gt;Node2</title>
<path fill="none" stroke="#9a32cd" stroke-dasharray="5,2" d="M83.4561,-148.216C80.864,-133.062 79.7358,-111.749 89,-96 93.8666,-87.7267 102.317,-81.7599 110.722,-77.575"/>
<polygon fill="#9a32cd" stroke="#9a32cd" points="80.1132,-149.333 85.5757,-158.411 86.9666,-147.907 80.1132,-149.333"/>
<text text-anchor="middle" x="126" y="-132" font-family="Helvetica,sans-Serif" font-size="10.00"> myPieceImage</text>
<text text-anchor="middle" x="126" y="-121" font-family="Helvetica,sans-Serif" font-size="10.00">myHighlight</text>
<text text-anchor="middle" x="126" y="-110" font-family="Helvetica,sans-Serif" font-size="10.00">myShape</text>
<text text-anchor="middle" x="126" y="-99" font-family="Helvetica,sans-Serif" font-size="10.00">myPatchImage</text>
</g>
<!-- Node5 -->
<g id="node5" class="node"><title>Node5</title>
<polygon fill="white" stroke="#bfbfbf" points="158,-158.5 158,-177.5 212,-177.5 212,-158.5 158,-158.5"/>
<text text-anchor="middle" x="185" y="-165.5" font-family="Helvetica,sans-Serif" font-size="10.00">Point2D</text>
</g>
<!-- Node5&#45;&gt;Node2 -->
<g id="edge4" class="edge"><title>Node5&#45;&gt;Node2</title>
<path fill="none" stroke="#9a32cd" stroke-dasharray="5,2" d="M181.737,-148.065C178.57,-133.134 172.776,-112.2 163,-96 158.753,-88.962 152.286,-82.4073 146.745,-77.519"/>
<polygon fill="#9a32cd" stroke="#9a32cd" points="178.348,-148.974 183.669,-158.135 185.222,-147.654 178.348,-148.974"/>
<text text-anchor="middle" x="224.5" y="-126.5" font-family="Helvetica,sans-Serif" font-size="10.00"> myImageLocation</text>
<text text-anchor="middle" x="224.5" y="-115.5" font-family="Helvetica,sans-Serif" font-size="10.00">myCoordinates</text>
<text text-anchor="middle" x="224.5" y="-104.5" font-family="Helvetica,sans-Serif" font-size="10.00">myLocation</text>
</g>
<!-- Node6 -->
<g id="node6" class="node"><title>Node6</title>
<polygon fill="white" stroke="#bfbfbf" points="276.5,-158.5 276.5,-177.5 317.5,-177.5 317.5,-158.5 276.5,-158.5"/>
<text text-anchor="middle" x="297" y="-165.5" font-family="Helvetica,sans-Serif" font-size="10.00">Color</text>
</g>
<!-- Node6&#45;&gt;Node2 -->
<g id="edge5" class="edge"><title>Node6&#45;&gt;Node2</title>
<path fill="none" stroke="#9a32cd" stroke-dasharray="5,2" d="M295.731,-148.061C293.601,-131.846 287.946,-109.101 273,-96 263.566,-87.7306 239.367,-81.7344 213.883,-77.5251"/>
<polygon fill="#9a32cd" stroke="#9a32cd" points="292.251,-148.437 296.713,-158.046 299.217,-147.751 292.251,-148.437"/>
<text text-anchor="middle" x="365.5" y="-115.5" font-family="Helvetica,sans-Serif" font-size="10.00"> DEFAULT_HIGHLIGHT_COLOR</text>
</g>
</g>
</svg>
