<?xml version="1.0" encoding="UTF-8" standalone="no"?>
<!DOCTYPE svg PUBLIC "-//W3C//DTD SVG 1.1//EN"
 "http://www.w3.org/Graphics/SVG/1.1/DTD/svg11.dtd">
<!-- Generated by graphviz version 2.36.0 (20140111.2315)
 -->
<!-- Title: fxml_main.PieceEditor.showStatEditorWindow Pages: 1 -->
<svg width="720pt" height="38pt"
 viewBox="0.00 0.00 720.00 38.00" xmlns="http://www.w3.org/2000/svg" xmlns:xlink="http://www.w3.org/1999/xlink">
<g id="graph0" class="graph" transform="scale(1 1) rotate(0) translate(4 34)">
<title>fxml_main.PieceEditor.showStatEditorWindow</title>
<polygon fill="white" stroke="none" points="-4,4 -4,-34 716,-34 716,4 -4,4"/>
<!-- Node1 -->
<g id="node1" class="node"><title>Node1</title>
<polygon fill="#bfbfbf" stroke="black" points="0.5,-0 0.5,-30 149.5,-30 149.5,-0 0.5,-0"/>
<text text-anchor="start" x="8.5" y="-18" font-family="Helvetica,sans-Serif" font-size="10.00">fxml_main.PieceEditor.show</text>
<text text-anchor="middle" x="75" y="-7" font-family="Helvetica,sans-Serif" font-size="10.00">StatEditorWindow</text>
</g>
<!-- Node2 -->
<g id="node2" class="node"><title>Node2</title>
<g id="a_node2"><a xlink:href="../../df/dbd/classfxml__main_1_1_piece_editor.html#aee0b3f7ebaa71c828bc9a339ed0a3177" target="_top" xlink:title="fxml_main.PieceEditor.init\lStatButton">
<polygon fill="white" stroke="black" points="186.5,-0 186.5,-30 325.5,-30 325.5,-0 186.5,-0"/>
<text text-anchor="start" x="194.5" y="-18" font-family="Helvetica,sans-Serif" font-size="10.00">fxml_main.PieceEditor.init</text>
<text text-anchor="middle" x="256" y="-7" font-family="Helvetica,sans-Serif" font-size="10.00">StatButton</text>
</a>
</g>
</g>
<!-- Node1&#45;&gt;Node2 -->
<g id="edge1" class="edge"><title>Node1&#45;&gt;Node2</title>
<path fill="none" stroke="midnightblue" d="M159.619,-15C168.557,-15 177.573,-15 186.309,-15"/>
<polygon fill="midnightblue" stroke="midnightblue" points="159.581,-11.5001 149.581,-15 159.581,-18.5001 159.581,-11.5001"/>
</g>
<!-- Node3 -->
<g id="node3" class="node"><title>Node3</title>
<g id="a_node3"><a xlink:href="../../df/dbd/classfxml__main_1_1_piece_editor.html#a96a7fea306b18873f061efeb55833c92" target="_top" xlink:title="fxml_main.PieceEditor.initialize">
<polygon fill="white" stroke="black" points="362.5,-5.5 362.5,-24.5 525.5,-24.5 525.5,-5.5 362.5,-5.5"/>
<text text-anchor="middle" x="444" y="-12.5" font-family="Helvetica,sans-Serif" font-size="10.00">fxml_main.PieceEditor.initialize</text>
</a>
</g>
</g>
<!-- Node2&#45;&gt;Node3 -->
<g id="edge2" class="edge"><title>Node2&#45;&gt;Node3</title>
<path fill="none" stroke="midnightblue" d="M335.889,-15C344.624,-15 353.53,-15 362.287,-15"/>
<polygon fill="midnightblue" stroke="midnightblue" points="335.731,-11.5001 325.731,-15 335.731,-18.5001 335.731,-11.5001"/>
</g>
<!-- Node4 -->
<g id="node4" class="node"><title>Node4</title>
<g id="a_node4"><a xlink:href="../../df/dbd/classfxml__main_1_1_piece_editor.html#a33603f4cca25fedefefd2108dbe75163" target="_top" xlink:title="fxml_main.PieceEditor.Piece\lEditor">
<polygon fill="white" stroke="black" points="562,-0 562,-30 712,-30 712,-0 562,-0"/>
<text text-anchor="start" x="570" y="-18" font-family="Helvetica,sans-Serif" font-size="10.00">fxml_main.PieceEditor.Piece</text>
<text text-anchor="middle" x="637" y="-7" font-family="Helvetica,sans-Serif" font-size="10.00">Editor</text>
</a>
</g>
</g>
<!-- Node3&#45;&gt;Node4 -->
<g id="edge3" class="edge"><title>Node3&#45;&gt;Node4</title>
<path fill="none" stroke="midnightblue" d="M535.92,-15C544.639,-15 553.41,-15 561.94,-15"/>
<polygon fill="midnightblue" stroke="midnightblue" points="535.724,-11.5001 525.724,-15 535.724,-18.5001 535.724,-11.5001"/>
</g>
</g>
</svg>
