<?xml version="1.0" encoding="UTF-8" standalone="no"?>
<!DOCTYPE svg PUBLIC "-//W3C//DTD SVG 1.1//EN"
 "http://www.w3.org/Graphics/SVG/1.1/DTD/svg11.dtd">
<!-- Generated by graphviz version 2.36.0 (20140111.2315)
 -->
<!-- Title: fxml_main.PieceEditor.initialize Pages: 1 -->
<svg width="544pt" height="185pt"
 viewBox="0.00 0.00 544.00 185.00" xmlns="http://www.w3.org/2000/svg" xmlns:xlink="http://www.w3.org/1999/xlink">
<g id="graph0" class="graph" transform="scale(1 1) rotate(0) translate(4 181)">
<title>fxml_main.PieceEditor.initialize</title>
<polygon fill="white" stroke="none" points="-4,4 -4,-181 540,-181 540,4 -4,4"/>
<!-- Node1 -->
<g id="node1" class="node"><title>Node1</title>
<polygon fill="#bfbfbf" stroke="black" points="0.5,-78.5 0.5,-97.5 163.5,-97.5 163.5,-78.5 0.5,-78.5"/>
<text text-anchor="middle" x="82" y="-85.5" font-family="Helvetica,sans-Serif" font-size="10.00">fxml_main.PieceEditor.initialize</text>
</g>
<!-- Node2 -->
<g id="node2" class="node"><title>Node2</title>
<g id="a_node2"><a xlink:href="../../df/dbd/classfxml__main_1_1_piece_editor.html#a3527a3687a7fa68c858581c3b45f8bb6" target="_top" xlink:title="fxml_main.PieceEditor.init\lImageDisplay">
<polygon fill="white" stroke="black" points="200.5,-147 200.5,-177 339.5,-177 339.5,-147 200.5,-147"/>
<text text-anchor="start" x="208.5" y="-165" font-family="Helvetica,sans-Serif" font-size="10.00">fxml_main.PieceEditor.init</text>
<text text-anchor="middle" x="270" y="-154" font-family="Helvetica,sans-Serif" font-size="10.00">ImageDisplay</text>
</a>
</g>
</g>
<!-- Node1&#45;&gt;Node2 -->
<g id="edge1" class="edge"><title>Node1&#45;&gt;Node2</title>
<path fill="none" stroke="midnightblue" d="M104.865,-97.5345C128.271,-107.653 166.561,-123.949 200,-137 205.475,-139.137 211.217,-141.315 216.952,-143.451"/>
<polygon fill="midnightblue" stroke="midnightblue" points="215.955,-146.813 226.548,-146.989 218.377,-140.246 215.955,-146.813"/>
</g>
<!-- Node4 -->
<g id="node4" class="node"><title>Node4</title>
<g id="a_node4"><a xlink:href="../../df/dbd/classfxml__main_1_1_piece_editor.html#a6558cbfa5dc0cc2df4a166449dc8bea1" target="_top" xlink:title="fxml_main.PieceEditor.init\lPlayerChoice">
<polygon fill="white" stroke="black" points="200.5,-98 200.5,-128 339.5,-128 339.5,-98 200.5,-98"/>
<text text-anchor="start" x="208.5" y="-116" font-family="Helvetica,sans-Serif" font-size="10.00">fxml_main.PieceEditor.init</text>
<text text-anchor="middle" x="270" y="-105" font-family="Helvetica,sans-Serif" font-size="10.00">PlayerChoice</text>
</a>
</g>
</g>
<!-- Node1&#45;&gt;Node4 -->
<g id="edge3" class="edge"><title>Node1&#45;&gt;Node4</title>
<path fill="none" stroke="midnightblue" d="M153.849,-97.5227C165.8,-99.129 178.269,-100.805 190.402,-102.436"/>
<polygon fill="midnightblue" stroke="midnightblue" points="190.12,-105.929 200.497,-103.793 191.052,-98.9916 190.12,-105.929"/>
</g>
<!-- Node7 -->
<g id="node7" class="node"><title>Node7</title>
<g id="a_node7"><a xlink:href="../../df/dbd/classfxml__main_1_1_piece_editor.html#a0d8b7a9c03b044b70ad0f4cc02507756" target="_top" xlink:title="fxml_main.PieceEditor.init\lPseudoModList">
<polygon fill="white" stroke="black" points="200.5,-49 200.5,-79 339.5,-79 339.5,-49 200.5,-49"/>
<text text-anchor="start" x="208.5" y="-67" font-family="Helvetica,sans-Serif" font-size="10.00">fxml_main.PieceEditor.init</text>
<text text-anchor="middle" x="270" y="-56" font-family="Helvetica,sans-Serif" font-size="10.00">PseudoModList</text>
</a>
</g>
</g>
<!-- Node1&#45;&gt;Node7 -->
<g id="edge6" class="edge"><title>Node1&#45;&gt;Node7</title>
<path fill="none" stroke="midnightblue" d="M156.779,-78.4801C167.806,-77.0573 179.21,-75.5858 190.334,-74.1505"/>
<polygon fill="midnightblue" stroke="midnightblue" points="190.982,-77.596 200.451,-72.845 190.086,-70.6536 190.982,-77.596"/>
</g>
<!-- Node8 -->
<g id="node8" class="node"><title>Node8</title>
<g id="a_node8"><a xlink:href="../../df/dbd/classfxml__main_1_1_piece_editor.html#aee0b3f7ebaa71c828bc9a339ed0a3177" target="_top" xlink:title="fxml_main.PieceEditor.init\lStatButton">
<polygon fill="white" stroke="black" points="200.5,-0 200.5,-30 339.5,-30 339.5,-0 200.5,-0"/>
<text text-anchor="start" x="208.5" y="-18" font-family="Helvetica,sans-Serif" font-size="10.00">fxml_main.PieceEditor.init</text>
<text text-anchor="middle" x="270" y="-7" font-family="Helvetica,sans-Serif" font-size="10.00">StatButton</text>
</a>
</g>
</g>
<!-- Node1&#45;&gt;Node8 -->
<g id="edge7" class="edge"><title>Node1&#45;&gt;Node8</title>
<path fill="none" stroke="midnightblue" d="M105.755,-78.3355C129.25,-68.4345 167.024,-52.7318 200,-40 205.482,-37.8833 211.229,-35.7177 216.967,-33.5896"/>
<polygon fill="midnightblue" stroke="midnightblue" points="218.39,-36.7957 226.567,-30.0589 215.974,-30.2259 218.39,-36.7957"/>
</g>
<!-- Node3 -->
<g id="node3" class="node"><title>Node3</title>
<g id="a_node3"><a xlink:href="../../df/dbd/classfxml__main_1_1_piece_editor.html#a360cbba2cbeb2e643faa066fcce4147f" target="_top" xlink:title="fxml_main.PieceEditor.set\lImageView">
<polygon fill="white" stroke="black" points="386,-147 386,-177 526,-177 526,-147 386,-147"/>
<text text-anchor="start" x="394" y="-165" font-family="Helvetica,sans-Serif" font-size="10.00">fxml_main.PieceEditor.set</text>
<text text-anchor="middle" x="456" y="-154" font-family="Helvetica,sans-Serif" font-size="10.00">ImageView</text>
</a>
</g>
</g>
<!-- Node2&#45;&gt;Node3 -->
<g id="edge2" class="edge"><title>Node2&#45;&gt;Node3</title>
<path fill="none" stroke="midnightblue" d="M339.515,-162C351.329,-162 363.697,-162 375.765,-162"/>
<polygon fill="midnightblue" stroke="midnightblue" points="375.814,-165.5 385.814,-162 375.814,-158.5 375.814,-165.5"/>
</g>
<!-- Node5 -->
<g id="node5" class="node"><title>Node5</title>
<g id="a_node5"><a xlink:href="../../d4/d63/classgamedata_1_1gamecomponents_1_1_piece.html#a82c9af6da8810bb8fb2eaec8ee0d9c7d" target="_top" xlink:title="gamedata.gamecomponents.\lPiece.getPlayerID">
<polygon fill="white" stroke="black" points="376,-98 376,-128 536,-128 536,-98 376,-98"/>
<text text-anchor="start" x="384" y="-116" font-family="Helvetica,sans-Serif" font-size="10.00">gamedata.gamecomponents.</text>
<text text-anchor="middle" x="456" y="-105" font-family="Helvetica,sans-Serif" font-size="10.00">Piece.getPlayerID</text>
</a>
</g>
</g>
<!-- Node4&#45;&gt;Node5 -->
<g id="edge4" class="edge"><title>Node4&#45;&gt;Node5</title>
<path fill="none" stroke="midnightblue" d="M339.515,-113C348.034,-113 356.84,-113 365.616,-113"/>
<polygon fill="midnightblue" stroke="midnightblue" points="365.883,-116.5 375.883,-113 365.883,-109.5 365.883,-116.5"/>
</g>
<!-- Node6 -->
<g id="node6" class="node"><title>Node6</title>
<g id="a_node6"><a xlink:href="../../d4/d63/classgamedata_1_1gamecomponents_1_1_piece.html#a0e99b48e900129c9f2c2c32a44c7705c" target="_top" xlink:title="gamedata.gamecomponents.\lPiece.setPlayerID">
<polygon fill="white" stroke="black" points="376,-49 376,-79 536,-79 536,-49 376,-49"/>
<text text-anchor="start" x="384" y="-67" font-family="Helvetica,sans-Serif" font-size="10.00">gamedata.gamecomponents.</text>
<text text-anchor="middle" x="456" y="-56" font-family="Helvetica,sans-Serif" font-size="10.00">Piece.setPlayerID</text>
</a>
</g>
</g>
<!-- Node4&#45;&gt;Node6 -->
<g id="edge5" class="edge"><title>Node4&#45;&gt;Node6</title>
<path fill="none" stroke="midnightblue" d="M327.457,-97.9654C346.884,-92.7917 368.811,-86.9525 388.935,-81.5934"/>
<polygon fill="midnightblue" stroke="midnightblue" points="389.888,-84.9617 398.65,-79.0062 388.086,-78.1975 389.888,-84.9617"/>
</g>
<!-- Node9 -->
<g id="node9" class="node"><title>Node9</title>
<g id="a_node9"><a xlink:href="../../df/dbd/classfxml__main_1_1_piece_editor.html#ae86251312e9174fffad591e4e1597d39" target="_top" xlink:title="fxml_main.PieceEditor.show\lStatEditorWindow">
<polygon fill="white" stroke="black" points="381.5,-0 381.5,-30 530.5,-30 530.5,-0 381.5,-0"/>
<text text-anchor="start" x="389.5" y="-18" font-family="Helvetica,sans-Serif" font-size="10.00">fxml_main.PieceEditor.show</text>
<text text-anchor="middle" x="456" y="-7" font-family="Helvetica,sans-Serif" font-size="10.00">StatEditorWindow</text>
</a>
</g>
</g>
<!-- Node8&#45;&gt;Node9 -->
<g id="edge8" class="edge"><title>Node8&#45;&gt;Node9</title>
<path fill="none" stroke="midnightblue" d="M339.515,-15C349.89,-15 360.693,-15 371.345,-15"/>
<polygon fill="midnightblue" stroke="midnightblue" points="371.493,-18.5001 381.493,-15 371.493,-11.5001 371.493,-18.5001"/>
</g>
</g>
</svg>
