<?xml version="1.0" encoding="UTF-8" standalone="no"?>
<!DOCTYPE svg PUBLIC "-//W3C//DTD SVG 1.1//EN"
 "http://www.w3.org/Graphics/SVG/1.1/DTD/svg11.dtd">
<!-- Generated by graphviz version 2.36.0 (20140111.2315)
 -->
<!-- Title: fxml_main.ActionEditor.trimClassList Pages: 1 -->
<svg width="714pt" height="38pt"
 viewBox="0.00 0.00 714.00 38.00" xmlns="http://www.w3.org/2000/svg" xmlns:xlink="http://www.w3.org/1999/xlink">
<g id="graph0" class="graph" transform="scale(1 1) rotate(0) translate(4 34)">
<title>fxml_main.ActionEditor.trimClassList</title>
<polygon fill="white" stroke="none" points="-4,4 -4,-34 710,-34 710,4 -4,4"/>
<!-- Node1 -->
<g id="node1" class="node"><title>Node1</title>
<polygon fill="#bfbfbf" stroke="black" points="0.5,-0 0.5,-30 149.5,-30 149.5,-0 0.5,-0"/>
<text text-anchor="start" x="8.5" y="-18" font-family="Helvetica,sans-Serif" font-size="10.00">fxml_main.ActionEditor.trim</text>
<text text-anchor="middle" x="75" y="-7" font-family="Helvetica,sans-Serif" font-size="10.00">ClassList</text>
</g>
<!-- Node2 -->
<g id="node2" class="node"><title>Node2</title>
<g id="a_node2"><a xlink:href="../../d1/dfc/classfxml__main_1_1_action_editor.html#adf8f00b5c1e13d8de4085c8023874e30" target="_top" xlink:title="fxml_main.ActionEditor.init\lConclusionsBox">
<polygon fill="white" stroke="black" points="186.5,-0 186.5,-30 329.5,-30 329.5,-0 186.5,-0"/>
<text text-anchor="start" x="194.5" y="-18" font-family="Helvetica,sans-Serif" font-size="10.00">fxml_main.ActionEditor.init</text>
<text text-anchor="middle" x="258" y="-7" font-family="Helvetica,sans-Serif" font-size="10.00">ConclusionsBox</text>
</a>
</g>
</g>
<!-- Node1&#45;&gt;Node2 -->
<g id="edge1" class="edge"><title>Node1&#45;&gt;Node2</title>
<path fill="none" stroke="midnightblue" d="M159.651,-15C168.585,-15 177.61,-15 186.373,-15"/>
<polygon fill="midnightblue" stroke="midnightblue" points="159.62,-11.5001 149.62,-15 159.62,-18.5001 159.62,-11.5001"/>
</g>
<!-- Node3 -->
<g id="node3" class="node"><title>Node3</title>
<g id="a_node3"><a xlink:href="../../d1/dfc/classfxml__main_1_1_action_editor.html#a3f41408f9918728d0fd74ef22c57ca07" target="_top" xlink:title="fxml_main.ActionEditor.init\lEditor">
<polygon fill="white" stroke="black" points="366.5,-0 366.5,-30 509.5,-30 509.5,-0 366.5,-0"/>
<text text-anchor="start" x="374.5" y="-18" font-family="Helvetica,sans-Serif" font-size="10.00">fxml_main.ActionEditor.init</text>
<text text-anchor="middle" x="438" y="-7" font-family="Helvetica,sans-Serif" font-size="10.00">Editor</text>
</a>
</g>
</g>
<!-- Node2&#45;&gt;Node3 -->
<g id="edge2" class="edge"><title>Node2&#45;&gt;Node3</title>
<path fill="none" stroke="midnightblue" d="M339.646,-15C348.599,-15 357.666,-15 366.479,-15"/>
<polygon fill="midnightblue" stroke="midnightblue" points="339.606,-11.5001 329.606,-15 339.606,-18.5001 339.606,-11.5001"/>
</g>
<!-- Node4 -->
<g id="node4" class="node"><title>Node4</title>
<g id="a_node4"><a xlink:href="../../d1/dfc/classfxml__main_1_1_action_editor.html#a7f9f88d727095254365be96c187826b2" target="_top" xlink:title="fxml_main.ActionEditor.Action\lEditor">
<polygon fill="white" stroke="black" points="546.5,-0 546.5,-30 705.5,-30 705.5,-0 546.5,-0"/>
<text text-anchor="start" x="554.5" y="-18" font-family="Helvetica,sans-Serif" font-size="10.00">fxml_main.ActionEditor.Action</text>
<text text-anchor="middle" x="626" y="-7" font-family="Helvetica,sans-Serif" font-size="10.00">Editor</text>
</a>
</g>
</g>
<!-- Node3&#45;&gt;Node4 -->
<g id="edge3" class="edge"><title>Node3&#45;&gt;Node4</title>
<path fill="none" stroke="midnightblue" d="M519.836,-15C528.644,-15 537.599,-15 546.38,-15"/>
<polygon fill="midnightblue" stroke="midnightblue" points="519.584,-11.5001 509.584,-15 519.584,-18.5001 519.584,-11.5001"/>
</g>
</g>
</svg>
