<?xml version="1.0" encoding="UTF-8" standalone="no"?>
<!DOCTYPE svg PUBLIC "-//W3C//DTD SVG 1.1//EN"
 "http://www.w3.org/Graphics/SVG/1.1/DTD/svg11.dtd">
<!-- Generated by graphviz version 2.36.0 (20140111.2315)
 -->
<!-- Title: fxml_main.ActionEditor.initConclusionsBox Pages: 1 -->
<svg width="730pt" height="185pt"
 viewBox="0.00 0.00 730.00 185.00" xmlns="http://www.w3.org/2000/svg" xmlns:xlink="http://www.w3.org/1999/xlink">
<g id="graph0" class="graph" transform="scale(1 1) rotate(0) translate(4 181)">
<title>fxml_main.ActionEditor.initConclusionsBox</title>
<polygon fill="white" stroke="none" points="-4,4 -4,-181 726,-181 726,4 -4,4"/>
<!-- Node1 -->
<g id="node1" class="node"><title>Node1</title>
<polygon fill="#bfbfbf" stroke="black" points="0.5,-73 0.5,-103 143.5,-103 143.5,-73 0.5,-73"/>
<text text-anchor="start" x="8.5" y="-91" font-family="Helvetica,sans-Serif" font-size="10.00">fxml_main.ActionEditor.init</text>
<text text-anchor="middle" x="72" y="-80" font-family="Helvetica,sans-Serif" font-size="10.00">ConclusionsBox</text>
</g>
<!-- Node2 -->
<g id="node2" class="node"><title>Node2</title>
<g id="a_node2"><a xlink:href="../../d1/df8/classutilities_1_1_reflection.html#afec2bff75d1b94fff36d877379f7f419" target="_top" xlink:title="utilities.Reflection.create\lInstance">
<polygon fill="white" stroke="black" points="211.5,-147 211.5,-177 344.5,-177 344.5,-147 211.5,-147"/>
<text text-anchor="start" x="219.5" y="-165" font-family="Helvetica,sans-Serif" font-size="10.00">utilities.Reflection.create</text>
<text text-anchor="middle" x="278" y="-154" font-family="Helvetica,sans-Serif" font-size="10.00">Instance</text>
</a>
</g>
</g>
<!-- Node1&#45;&gt;Node2 -->
<g id="edge1" class="edge"><title>Node1&#45;&gt;Node2</title>
<path fill="none" stroke="midnightblue" d="M102.393,-103.175C123.568,-113.68 153.041,-127.438 180,-137 187.203,-139.555 194.791,-141.969 202.42,-144.216"/>
<polygon fill="midnightblue" stroke="midnightblue" points="201.503,-147.594 212.08,-146.97 203.423,-140.862 201.503,-147.594"/>
</g>
<!-- Node3 -->
<g id="node3" class="node"><title>Node3</title>
<g id="a_node3"><a xlink:href="../../d7/dcc/classutilities_1_1_class_grabber.html#a6e528c82ad6e17a13e844e6e12c02c47" target="_top" xlink:title="utilities.ClassGrabber.get\lClassNames">
<polygon fill="white" stroke="black" points="210,-98 210,-128 346,-128 346,-98 210,-98"/>
<text text-anchor="start" x="218" y="-116" font-family="Helvetica,sans-Serif" font-size="10.00">utilities.ClassGrabber.get</text>
<text text-anchor="middle" x="278" y="-105" font-family="Helvetica,sans-Serif" font-size="10.00">ClassNames</text>
</a>
</g>
</g>
<!-- Node1&#45;&gt;Node3 -->
<g id="edge2" class="edge"><title>Node1&#45;&gt;Node3</title>
<path fill="none" stroke="midnightblue" d="M143.777,-96.6736C161.837,-98.8869 181.342,-101.277 199.71,-103.528"/>
<polygon fill="midnightblue" stroke="midnightblue" points="199.43,-107.02 209.781,-104.762 200.281,-100.072 199.43,-107.02"/>
</g>
<!-- Node6 -->
<g id="node6" class="node"><title>Node6</title>
<g id="a_node6"><a xlink:href="../../d8/d47/interfacegamedata_1_1action_1_1_action_conclusion.html#a8a86a1f2ab6c9409b90e35e4389d0a60" target="_top" xlink:title="gamedata.action.ActionConclusion.to\lString">
<polygon fill="white" stroke="black" points="180,-49 180,-79 376,-79 376,-49 180,-49"/>
<text text-anchor="start" x="188" y="-67" font-family="Helvetica,sans-Serif" font-size="10.00">gamedata.action.ActionConclusion.to</text>
<text text-anchor="middle" x="278" y="-56" font-family="Helvetica,sans-Serif" font-size="10.00">String</text>
</a>
</g>
</g>
<!-- Node1&#45;&gt;Node6 -->
<g id="edge5" class="edge"><title>Node1&#45;&gt;Node6</title>
<path fill="none" stroke="midnightblue" d="M143.777,-79.6733C152.222,-78.6798 160.982,-77.6491 169.795,-76.6123"/>
<polygon fill="midnightblue" stroke="midnightblue" points="170.23,-80.0854 179.753,-75.4408 169.412,-73.1333 170.23,-80.0854"/>
</g>
<!-- Node7 -->
<g id="node7" class="node"><title>Node7</title>
<g id="a_node7"><a xlink:href="../../d1/dfc/classfxml__main_1_1_action_editor.html#ad35c9c184da7961c964f30195bf8c36f" target="_top" xlink:title="fxml_main.ActionEditor.trim\lClassList">
<polygon fill="white" stroke="black" points="203.5,-0 203.5,-30 352.5,-30 352.5,-0 203.5,-0"/>
<text text-anchor="start" x="211.5" y="-18" font-family="Helvetica,sans-Serif" font-size="10.00">fxml_main.ActionEditor.trim</text>
<text text-anchor="middle" x="278" y="-7" font-family="Helvetica,sans-Serif" font-size="10.00">ClassList</text>
</a>
</g>
</g>
<!-- Node1&#45;&gt;Node7 -->
<g id="edge6" class="edge"><title>Node1&#45;&gt;Node7</title>
<path fill="none" stroke="midnightblue" d="M102.884,-72.9494C124.041,-62.7038 153.291,-49.3568 180,-40 187.27,-37.453 194.929,-35.039 202.624,-32.7881"/>
<polygon fill="midnightblue" stroke="midnightblue" points="203.697,-36.1217 212.363,-30.0265 201.788,-29.3872 203.697,-36.1217"/>
</g>
<!-- Node4 -->
<g id="node4" class="node"><title>Node4</title>
<g id="a_node4"><a xlink:href="../../d7/dcc/classutilities_1_1_class_grabber.html#aafd30d1c4beed85d57bce894927acb09" target="_top" xlink:title="utilities.ClassGrabber.get\lClasses">
<polygon fill="white" stroke="black" points="412,-98 412,-128 548,-128 548,-98 412,-98"/>
<text text-anchor="start" x="420" y="-116" font-family="Helvetica,sans-Serif" font-size="10.00">utilities.ClassGrabber.get</text>
<text text-anchor="middle" x="480" y="-105" font-family="Helvetica,sans-Serif" font-size="10.00">Classes</text>
</a>
</g>
</g>
<!-- Node3&#45;&gt;Node4 -->
<g id="edge3" class="edge"><title>Node3&#45;&gt;Node4</title>
<path fill="none" stroke="midnightblue" d="M346.153,-113C363.963,-113 383.336,-113 401.641,-113"/>
<polygon fill="midnightblue" stroke="midnightblue" points="401.683,-116.5 411.683,-113 401.683,-109.5 401.683,-116.5"/>
</g>
<!-- Node5 -->
<g id="node5" class="node"><title>Node5</title>
<g id="a_node5"><a xlink:href="../../d7/dcc/classutilities_1_1_class_grabber.html#ad4bda95822ecf4385d69f6ecec3fd545" target="_top" xlink:title="utilities.ClassGrabber.find\lClasses">
<polygon fill="white" stroke="black" points="584.5,-98 584.5,-128 721.5,-128 721.5,-98 584.5,-98"/>
<text text-anchor="start" x="592.5" y="-116" font-family="Helvetica,sans-Serif" font-size="10.00">utilities.ClassGrabber.find</text>
<text text-anchor="middle" x="653" y="-105" font-family="Helvetica,sans-Serif" font-size="10.00">Classes</text>
</a>
</g>
</g>
<!-- Node4&#45;&gt;Node5 -->
<g id="edge4" class="edge"><title>Node4&#45;&gt;Node5</title>
<path fill="none" stroke="midnightblue" d="M548.093,-113C556.634,-113 565.432,-113 574.124,-113"/>
<polygon fill="midnightblue" stroke="midnightblue" points="574.258,-116.5 584.258,-113 574.258,-109.5 574.258,-116.5"/>
</g>
</g>
</svg>
