<?xml version="1.0" encoding="UTF-8" standalone="no"?>
<!DOCTYPE svg PUBLIC "-//W3C//DTD SVG 1.1//EN"
 "http://www.w3.org/Graphics/SVG/1.1/DTD/svg11.dtd">
<!-- Generated by graphviz version 2.36.0 (20140111.2315)
 -->
<!-- Title: fxml_main.ActionEditor.ActionEditor Pages: 1 -->
<!--zoomable 209 -->
<svg id="main" version="1.1" xmlns="http://www.w3.org/2000/svg" xmlns:xlink="http://www.w3.org/1999/xlink" xml:space="preserve" onload="init(evt)">
<style type="text/css"><![CDATA[
.edge:hover path { stroke: red; }
.edge:hover polygon { stroke: red; fill: red; }
]]></style>
<script type="text/javascript"><![CDATA[
var edges = document.getElementsByTagName('g');
if (edges && edges.length) {
  for (var i=0;i<edges.length;i++) {
    if (edges[i].id.substr(0,4)=='edge') {
      edges[i].setAttribute('class','edge');
    }
  }
}
]]></script>
        <defs>
                <circle id="rim" cx="0" cy="0" r="7"/>
                <circle id="rim2" cx="0" cy="0" r="3.5"/>
                <g id="zoomPlus">
                        <use xlink:href="#rim" fill="#404040">
                                <set attributeName="fill" to="#808080" begin="zoomplus.mouseover" end="zoomplus.mouseout"/>
                        </use>
                        <path d="M-4,0h8M0,-4v8" fill="none" stroke="white" stroke-width="1.5" pointer-events="none"/>
                </g>
                <g id="zoomMin">
                        <use xlink:href="#rim" fill="#404040">
                                <set attributeName="fill" to="#808080" begin="zoomminus.mouseover" end="zoomminus.mouseout"/>
                        </use>
                        <path d="M-4,0h8" fill="none" stroke="white" stroke-width="1.5" pointer-events="none"/>
                </g>
                <g id="dirArrow">
                        <path fill="none" stroke="white" stroke-width="1.5" d="M0,-3.0v7 M-2.5,-0.5L0,-3.0L2.5,-0.5"/>
                </g>
               <g id="resetDef">
                       <use xlink:href="#rim2" fill="#404040">
                               <set attributeName="fill" to="#808080" begin="reset.mouseover" end="reset.mouseout"/>
                       </use>
               </g>
        </defs>

<script type="text/javascript">
var viewWidth = 1120;
var viewHeight = 209;
var sectionId = 'dynsection-2';
</script>
<script xlink:href="../../svgpan.js"/>
<svg id="graph" class="graph">
<g id="viewport">
<title>fxml_main.ActionEditor.ActionEditor</title>
<polygon fill="white" stroke="none" points="-4,4 -4,-205 1116,-205 1116,4 -4,4"/>
<!-- Node1 -->
<g id="node1" class="node"><title>Node1</title>
<polygon fill="#bfbfbf" stroke="black" points="0.5,-97 0.5,-127 159.5,-127 159.5,-97 0.5,-97"/>
<text text-anchor="start" x="8.5" y="-115" font-family="Helvetica,sans-Serif" font-size="10.00">fxml_main.ActionEditor.Action</text>
<text text-anchor="middle" x="80" y="-104" font-family="Helvetica,sans-Serif" font-size="10.00">Editor</text>
</g>
<!-- Node2 -->
<g id="node2" class="node"><title>Node2</title>
<g id="a_node2"><a xlink:href="../../d1/dfc/classfxml__main_1_1_action_editor.html#a3f41408f9918728d0fd74ef22c57ca07" target="_top" xlink:title="fxml_main.ActionEditor.init\lEditor">
<polygon fill="white" stroke="black" points="196.5,-97 196.5,-127 339.5,-127 339.5,-97 196.5,-97"/>
<text text-anchor="start" x="204.5" y="-115" font-family="Helvetica,sans-Serif" font-size="10.00">fxml_main.ActionEditor.init</text>
<text text-anchor="middle" x="268" y="-104" font-family="Helvetica,sans-Serif" font-size="10.00">Editor</text>
</a>
</g>
</g>
<!-- Node1&#45;&gt;Node2 -->
<g id="edge1" class="edge"><title>Node1&#45;&gt;Node2</title>
<path fill="none" stroke="midnightblue" d="M159.611,-112C168.376,-112 177.316,-112 186.11,-112"/>
<polygon fill="midnightblue" stroke="midnightblue" points="186.345,-115.5 196.345,-112 186.345,-108.5 186.345,-115.5"/>
</g>
<!-- Node3 -->
<g id="node3" class="node"><title>Node3</title>
<g id="a_node3"><a xlink:href="../../d1/dfc/classfxml__main_1_1_action_editor.html#af0259290d545e9861baa294789d07f6c" target="_top" xlink:title="fxml_main.ActionEditor.init\lNameField">
<polygon fill="white" stroke="black" points="383.5,-171 383.5,-201 526.5,-201 526.5,-171 383.5,-171"/>
<text text-anchor="start" x="391.5" y="-189" font-family="Helvetica,sans-Serif" font-size="10.00">fxml_main.ActionEditor.init</text>
<text text-anchor="middle" x="455" y="-178" font-family="Helvetica,sans-Serif" font-size="10.00">NameField</text>
</a>
</g>
</g>
<!-- Node2&#45;&gt;Node3 -->
<g id="edge2" class="edge"><title>Node2&#45;&gt;Node3</title>
<path fill="none" stroke="midnightblue" d="M299.487,-127.139C320.671,-137.367 349.71,-150.809 376,-161 381.83,-163.26 387.958,-165.481 394.11,-167.61"/>
<polygon fill="midnightblue" stroke="midnightblue" points="393.163,-170.984 403.758,-170.872 395.406,-164.353 393.163,-170.984"/>
</g>
<!-- Node4 -->
<g id="node4" class="node"><title>Node4</title>
<g id="a_node4"><a xlink:href="../../d1/dfc/classfxml__main_1_1_action_editor.html#a86fe35802a5dcd5d4f9de4f912fa5a71" target="_top" xlink:title="fxml_main.ActionEditor.init\lSetRangeButton">
<polygon fill="white" stroke="black" points="383.5,-122 383.5,-152 526.5,-152 526.5,-122 383.5,-122"/>
<text text-anchor="start" x="391.5" y="-140" font-family="Helvetica,sans-Serif" font-size="10.00">fxml_main.ActionEditor.init</text>
<text text-anchor="middle" x="455" y="-129" font-family="Helvetica,sans-Serif" font-size="10.00">SetRangeButton</text>
</a>
</g>
</g>
<!-- Node2&#45;&gt;Node4 -->
<g id="edge3" class="edge"><title>Node2&#45;&gt;Node4</title>
<path fill="none" stroke="midnightblue" d="M339.732,-121.558C350.666,-123.036 362.03,-124.572 373.164,-126.076"/>
<polygon fill="midnightblue" stroke="midnightblue" points="372.928,-129.576 383.307,-127.447 373.866,-122.639 372.928,-129.576"/>
</g>
<!-- Node5 -->
<g id="node5" class="node"><title>Node5</title>
<g id="a_node5"><a xlink:href="../../d1/dfc/classfxml__main_1_1_action_editor.html#adf8f00b5c1e13d8de4085c8023874e30" target="_top" xlink:title="fxml_main.ActionEditor.init\lConclusionsBox">
<polygon fill="white" stroke="black" points="383.5,-73 383.5,-103 526.5,-103 526.5,-73 383.5,-73"/>
<text text-anchor="start" x="391.5" y="-91" font-family="Helvetica,sans-Serif" font-size="10.00">fxml_main.ActionEditor.init</text>
<text text-anchor="middle" x="455" y="-80" font-family="Helvetica,sans-Serif" font-size="10.00">ConclusionsBox</text>
</a>
</g>
</g>
<!-- Node2&#45;&gt;Node5 -->
<g id="edge4" class="edge"><title>Node2&#45;&gt;Node5</title>
<path fill="none" stroke="midnightblue" d="M339.732,-102.824C350.666,-101.405 362.03,-99.9313 373.164,-98.4868"/>
<polygon fill="midnightblue" stroke="midnightblue" points="373.84,-101.929 383.307,-97.171 372.94,-94.9867 373.84,-101.929"/>
</g>
<!-- Node12 -->
<g id="node12" class="node"><title>Node12</title>
<g id="a_node12"><a xlink:href="../../d9/d59/classgamedata_1_1action_1_1_action_stats_editor.html#a8d61e4c665c2bf5470a63f9b598074ec" target="_top" xlink:title="gamedata.action.ActionStats\lEditor.getStatsTotalLogics">
<polygon fill="white" stroke="black" points="376.5,-24 376.5,-54 533.5,-54 533.5,-24 376.5,-24"/>
<text text-anchor="start" x="384.5" y="-42" font-family="Helvetica,sans-Serif" font-size="10.00">gamedata.action.ActionStats</text>
<text text-anchor="middle" x="455" y="-31" font-family="Helvetica,sans-Serif" font-size="10.00">Editor.getStatsTotalLogics</text>
</a>
</g>
</g>
<!-- Node2&#45;&gt;Node12 -->
<g id="edge11" class="edge"><title>Node2&#45;&gt;Node12</title>
<path fill="none" stroke="midnightblue" d="M299.982,-96.9969C321.141,-87.0257 349.954,-73.9806 376,-64 381.926,-61.7294 388.156,-59.4907 394.404,-57.3419"/>
<polygon fill="midnightblue" stroke="midnightblue" points="395.834,-60.5535 404.196,-54.0473 393.602,-53.919 395.834,-60.5535"/>
</g>
<!-- Node6 -->
<g id="node6" class="node"><title>Node6</title>
<g id="a_node6"><a xlink:href="../../d7/dcc/classutilities_1_1_class_grabber.html#a6e528c82ad6e17a13e844e6e12c02c47" target="_top" xlink:title="utilities.ClassGrabber.get\lClassNames">
<polygon fill="white" stroke="black" points="600,-147 600,-177 736,-177 736,-147 600,-147"/>
<text text-anchor="start" x="608" y="-165" font-family="Helvetica,sans-Serif" font-size="10.00">utilities.ClassGrabber.get</text>
<text text-anchor="middle" x="668" y="-154" font-family="Helvetica,sans-Serif" font-size="10.00">ClassNames</text>
</a>
</g>
</g>
<!-- Node5&#45;&gt;Node6 -->
<g id="edge5" class="edge"><title>Node5&#45;&gt;Node6</title>
<path fill="none" stroke="midnightblue" d="M509.638,-103.01C517.946,-105.955 526.314,-109.296 534,-113 551.323,-121.348 552.443,-129.157 570,-137 576.495,-139.902 583.391,-142.514 590.395,-144.856"/>
<polygon fill="midnightblue" stroke="midnightblue" points="589.393,-148.21 599.983,-147.883 591.501,-141.535 589.393,-148.21"/>
</g>
<!-- Node9 -->
<g id="node9" class="node"><title>Node9</title>
<g id="a_node9"><a xlink:href="../../d1/dfc/classfxml__main_1_1_action_editor.html#ad35c9c184da7961c964f30195bf8c36f" target="_top" xlink:title="fxml_main.ActionEditor.trim\lClassList">
<polygon fill="white" stroke="black" points="593.5,-98 593.5,-128 742.5,-128 742.5,-98 593.5,-98"/>
<text text-anchor="start" x="601.5" y="-116" font-family="Helvetica,sans-Serif" font-size="10.00">fxml_main.ActionEditor.trim</text>
<text text-anchor="middle" x="668" y="-105" font-family="Helvetica,sans-Serif" font-size="10.00">ClassList</text>
</a>
</g>
</g>
<!-- Node5&#45;&gt;Node9 -->
<g id="edge8" class="edge"><title>Node5&#45;&gt;Node9</title>
<path fill="none" stroke="midnightblue" d="M526.553,-96.3594C544.731,-98.5132 564.469,-100.852 583.247,-103.077"/>
<polygon fill="midnightblue" stroke="midnightblue" points="582.921,-106.562 593.263,-104.263 583.745,-99.611 582.921,-106.562"/>
</g>
<!-- Node10 -->
<g id="node10" class="node"><title>Node10</title>
<g id="a_node10"><a xlink:href="../../d1/df8/classutilities_1_1_reflection.html#afec2bff75d1b94fff36d877379f7f419" target="_top" xlink:title="utilities.Reflection.create\lInstance">
<polygon fill="white" stroke="black" points="601.5,-49 601.5,-79 734.5,-79 734.5,-49 601.5,-49"/>
<text text-anchor="start" x="609.5" y="-67" font-family="Helvetica,sans-Serif" font-size="10.00">utilities.Reflection.create</text>
<text text-anchor="middle" x="668" y="-56" font-family="Helvetica,sans-Serif" font-size="10.00">Instance</text>
</a>
</g>
</g>
<!-- Node5&#45;&gt;Node10 -->
<g id="edge9" class="edge"><title>Node5&#45;&gt;Node10</title>
<path fill="none" stroke="midnightblue" d="M526.553,-79.975C547.247,-77.6211 569.964,-75.0373 590.983,-72.6465"/>
<polygon fill="midnightblue" stroke="midnightblue" points="591.608,-76.098 601.149,-71.4902 590.817,-69.1429 591.608,-76.098"/>
</g>
<!-- Node11 -->
<g id="node11" class="node"><title>Node11</title>
<g id="a_node11"><a xlink:href="../../d8/d47/interfacegamedata_1_1action_1_1_action_conclusion.html#a8a86a1f2ab6c9409b90e35e4389d0a60" target="_top" xlink:title="gamedata.action.ActionConclusion.to\lString">
<polygon fill="white" stroke="black" points="570,-0 570,-30 766,-30 766,-0 570,-0"/>
<text text-anchor="start" x="578" y="-18" font-family="Helvetica,sans-Serif" font-size="10.00">gamedata.action.ActionConclusion.to</text>
<text text-anchor="middle" x="668" y="-7" font-family="Helvetica,sans-Serif" font-size="10.00">String</text>
</a>
</g>
</g>
<!-- Node5&#45;&gt;Node11 -->
<g id="edge10" class="edge"><title>Node5&#45;&gt;Node11</title>
<path fill="none" stroke="midnightblue" d="M509.575,-72.8581C517.891,-69.9304 526.278,-66.6291 534,-63 551.184,-54.9241 552.59,-47.5749 570,-40 575.703,-37.5185 581.706,-35.2424 587.814,-33.1628"/>
<polygon fill="midnightblue" stroke="midnightblue" points="589.023,-36.4506 597.47,-30.0552 586.879,-29.7872 589.023,-36.4506"/>
</g>
<!-- Node7 -->
<g id="node7" class="node"><title>Node7</title>
<g id="a_node7"><a xlink:href="../../d7/dcc/classutilities_1_1_class_grabber.html#aafd30d1c4beed85d57bce894927acb09" target="_top" xlink:title="utilities.ClassGrabber.get\lClasses">
<polygon fill="white" stroke="black" points="802,-147 802,-177 938,-177 938,-147 802,-147"/>
<text text-anchor="start" x="810" y="-165" font-family="Helvetica,sans-Serif" font-size="10.00">utilities.ClassGrabber.get</text>
<text text-anchor="middle" x="870" y="-154" font-family="Helvetica,sans-Serif" font-size="10.00">Classes</text>
</a>
</g>
</g>
<!-- Node6&#45;&gt;Node7 -->
<g id="edge6" class="edge"><title>Node6&#45;&gt;Node7</title>
<path fill="none" stroke="midnightblue" d="M736.153,-162C753.963,-162 773.336,-162 791.641,-162"/>
<polygon fill="midnightblue" stroke="midnightblue" points="791.683,-165.5 801.683,-162 791.683,-158.5 791.683,-165.5"/>
</g>
<!-- Node8 -->
<g id="node8" class="node"><title>Node8</title>
<g id="a_node8"><a xlink:href="../../d7/dcc/classutilities_1_1_class_grabber.html#ad4bda95822ecf4385d69f6ecec3fd545" target="_top" xlink:title="utilities.ClassGrabber.find\lClasses">
<polygon fill="white" stroke="black" points="974.5,-147 974.5,-177 1111.5,-177 1111.5,-147 974.5,-147"/>
<text text-anchor="start" x="982.5" y="-165" font-family="Helvetica,sans-Serif" font-size="10.00">utilities.ClassGrabber.find</text>
<text text-anchor="middle" x="1043" y="-154" font-family="Helvetica,sans-Serif" font-size="10.00">Classes</text>
</a>
</g>
</g>
<!-- Node7&#45;&gt;Node8 -->
<g id="edge7" class="edge"><title>Node7&#45;&gt;Node8</title>
<path fill="none" stroke="midnightblue" d="M938.093,-162C946.634,-162 955.432,-162 964.124,-162"/>
<polygon fill="midnightblue" stroke="midnightblue" points="964.258,-165.5 974.258,-162 964.258,-158.5 964.258,-165.5"/>
</g>
</g>
</svg>
        <g id="navigator" transform="translate(0 0)" fill="#404254">
                <rect fill="#f2f5e9" fill-opacity="0.5" stroke="#606060" stroke-width=".5" x="0" y="0" width="60" height="60"/>
                <use id="zoomplus" xlink:href="#zoomPlus" x="17" y="9" onmousedown="handleZoom(evt,'in')"/>
                <use id="zoomminus" xlink:href="#zoomMin" x="42" y="9" onmousedown="handleZoom(evt,'out')"/>
                <use id="reset" xlink:href="#resetDef" x="30" y="36" onmousedown="handleReset()"/>
                <g id="arrowUp" xlink:href="#dirArrow" transform="translate(30 24)" onmousedown="handlePan(0,-1)">
                  <use xlink:href="#rim" fill="#404040">
                        <set attributeName="fill" to="#808080" begin="arrowUp.mouseover" end="arrowUp.mouseout"/>
                  </use>
                  <path fill="none" stroke="white" stroke-width="1.5" d="M0,-3.0v7 M-2.5,-0.5L0,-3.0L2.5,-0.5"/>
                </g>
                <g id="arrowRight" xlink:href="#dirArrow" transform="rotate(90) translate(36 -43)" onmousedown="handlePan(1,0)">
                  <use xlink:href="#rim" fill="#404040">
                        <set attributeName="fill" to="#808080" begin="arrowRight.mouseover" end="arrowRight.mouseout"/>
                  </use>
                  <path fill="none" stroke="white" stroke-width="1.5" d="M0,-3.0v7 M-2.5,-0.5L0,-3.0L2.5,-0.5"/>
                </g>
                <g id="arrowDown" xlink:href="#dirArrow" transform="rotate(180) translate(-30 -48)" onmousedown="handlePan(0,1)">
                  <use xlink:href="#rim" fill="#404040">
                        <set attributeName="fill" to="#808080" begin="arrowDown.mouseover" end="arrowDown.mouseout"/>
                  </use>
                  <path fill="none" stroke="white" stroke-width="1.5" d="M0,-3.0v7 M-2.5,-0.5L0,-3.0L2.5,-0.5"/>
                </g>
                <g id="arrowLeft" xlink:href="#dirArrow" transform="rotate(270) translate(-36 17)" onmousedown="handlePan(-1,0)">
                  <use xlink:href="#rim" fill="#404040">
                        <set attributeName="fill" to="#808080" begin="arrowLeft.mouseover" end="arrowLeft.mouseout"/>
                  </use>
                  <path fill="none" stroke="white" stroke-width="1.5" d="M0,-3.0v7 M-2.5,-0.5L0,-3.0L2.5,-0.5"/>
                </g>
        </g>
        <svg viewBox="0 0 15 15" width="100%" height="30px" preserveAspectRatio="xMaxYMin meet">
         <g id="arrow_out" transform="scale(0.3 0.3)">
          <a xlink:href="classfxml__main_1_1_action_editor_a7f9f88d727095254365be96c187826b2_cgraph_org.svg" target="_base">
           <rect id="button" ry="5" rx="5" y="6" x="6" height="38" width="38"
                fill="#f2f5e9" fill-opacity="0.5" stroke="#606060" stroke-width="1.0"/>
           <path id="arrow"
             d="M 11.500037,31.436501 C 11.940474,20.09759 22.043105,11.32322 32.158766,21.979434 L 37.068811,17.246167 C 37.068811,17.246167 37.088388,32 37.088388,32 L 22.160133,31.978069 C 22.160133,31.978069 26.997745,27.140456 26.997745,27.140456 C 18.528582,18.264221 13.291696,25.230495 11.500037,31.436501 z"
             style="fill:#404040;"/>
          </a>
         </g>
        </svg>
</svg>
