<?xml version="1.0" encoding="UTF-8" standalone="no"?>
<!DOCTYPE svg PUBLIC "-//W3C//DTD SVG 1.1//EN"
 "http://www.w3.org/Graphics/SVG/1.1/DTD/svg11.dtd">
<!-- Generated by graphviz version 2.36.0 (20140111.2315)
 -->
<!-- Title: fxml_main.ActionEditor.initConclusionsBox Pages: 1 -->
<!--zoomable 185 -->
<svg id="main" version="1.1" xmlns="http://www.w3.org/2000/svg" xmlns:xlink="http://www.w3.org/1999/xlink" xml:space="preserve" onload="init(evt)">
<style type="text/css"><![CDATA[
.edge:hover path { stroke: red; }
.edge:hover polygon { stroke: red; fill: red; }
]]></style>
<script type="text/javascript"><![CDATA[
var edges = document.getElementsByTagName('g');
if (edges && edges.length) {
  for (var i=0;i<edges.length;i++) {
    if (edges[i].id.substr(0,4)=='edge') {
      edges[i].setAttribute('class','edge');
    }
  }
}
]]></script>
        <defs>
                <circle id="rim" cx="0" cy="0" r="7"/>
                <circle id="rim2" cx="0" cy="0" r="3.5"/>
                <g id="zoomPlus">
                        <use xlink:href="#rim" fill="#404040">
                                <set attributeName="fill" to="#808080" begin="zoomplus.mouseover" end="zoomplus.mouseout"/>
                        </use>
                        <path d="M-4,0h8M0,-4v8" fill="none" stroke="white" stroke-width="1.5" pointer-events="none"/>
                </g>
                <g id="zoomMin">
                        <use xlink:href="#rim" fill="#404040">
                                <set attributeName="fill" to="#808080" begin="zoomminus.mouseover" end="zoomminus.mouseout"/>
                        </use>
                        <path d="M-4,0h8" fill="none" stroke="white" stroke-width="1.5" pointer-events="none"/>
                </g>
                <g id="dirArrow">
                        <path fill="none" stroke="white" stroke-width="1.5" d="M0,-3.0v7 M-2.5,-0.5L0,-3.0L2.5,-0.5"/>
                </g>
               <g id="resetDef">
                       <use xlink:href="#rim2" fill="#404040">
                               <set attributeName="fill" to="#808080" begin="reset.mouseover" end="reset.mouseout"/>
                       </use>
               </g>
        </defs>

<script type="text/javascript">
var viewWidth = 730;
var viewHeight = 185;
var sectionId = 'dynsection-4';
</script>
<script xlink:href="../../svgpan.js"/>
<svg id="graph" class="graph">
<g id="viewport">
<title>fxml_main.ActionEditor.initConclusionsBox</title>
<polygon fill="white" stroke="none" points="-4,4 -4,-181 726,-181 726,4 -4,4"/>
<!-- Node1 -->
<g id="node1" class="node"><title>Node1</title>
<polygon fill="#bfbfbf" stroke="black" points="0.5,-73 0.5,-103 143.5,-103 143.5,-73 0.5,-73"/>
<text text-anchor="start" x="8.5" y="-91" font-family="Helvetica,sans-Serif" font-size="10.00">fxml_main.ActionEditor.init</text>
<text text-anchor="middle" x="72" y="-80" font-family="Helvetica,sans-Serif" font-size="10.00">ConclusionsBox</text>
</g>
<!-- Node2 -->
<g id="node2" class="node"><title>Node2</title>
<g id="a_node2"><a xlink:href="../../d1/df8/classutilities_1_1_reflection.html#afec2bff75d1b94fff36d877379f7f419" target="_top" xlink:title="utilities.Reflection.create\lInstance">
<polygon fill="white" stroke="black" points="211.5,-147 211.5,-177 344.5,-177 344.5,-147 211.5,-147"/>
<text text-anchor="start" x="219.5" y="-165" font-family="Helvetica,sans-Serif" font-size="10.00">utilities.Reflection.create</text>
<text text-anchor="middle" x="278" y="-154" font-family="Helvetica,sans-Serif" font-size="10.00">Instance</text>
</a>
</g>
</g>
<!-- Node1&#45;&gt;Node2 -->
<g id="edge1" class="edge"><title>Node1&#45;&gt;Node2</title>
<path fill="none" stroke="midnightblue" d="M102.393,-103.175C123.568,-113.68 153.041,-127.438 180,-137 187.203,-139.555 194.791,-141.969 202.42,-144.216"/>
<polygon fill="midnightblue" stroke="midnightblue" points="201.503,-147.594 212.08,-146.97 203.423,-140.862 201.503,-147.594"/>
</g>
<!-- Node3 -->
<g id="node3" class="node"><title>Node3</title>
<g id="a_node3"><a xlink:href="../../d7/dcc/classutilities_1_1_class_grabber.html#a6e528c82ad6e17a13e844e6e12c02c47" target="_top" xlink:title="utilities.ClassGrabber.get\lClassNames">
<polygon fill="white" stroke="black" points="210,-98 210,-128 346,-128 346,-98 210,-98"/>
<text text-anchor="start" x="218" y="-116" font-family="Helvetica,sans-Serif" font-size="10.00">utilities.ClassGrabber.get</text>
<text text-anchor="middle" x="278" y="-105" font-family="Helvetica,sans-Serif" font-size="10.00">ClassNames</text>
</a>
</g>
</g>
<!-- Node1&#45;&gt;Node3 -->
<g id="edge2" class="edge"><title>Node1&#45;&gt;Node3</title>
<path fill="none" stroke="midnightblue" d="M143.777,-96.6736C161.837,-98.8869 181.342,-101.277 199.71,-103.528"/>
<polygon fill="midnightblue" stroke="midnightblue" points="199.43,-107.02 209.781,-104.762 200.281,-100.072 199.43,-107.02"/>
</g>
<!-- Node6 -->
<g id="node6" class="node"><title>Node6</title>
<g id="a_node6"><a xlink:href="../../d8/d47/interfacegamedata_1_1action_1_1_action_conclusion.html#a8a86a1f2ab6c9409b90e35e4389d0a60" target="_top" xlink:title="gamedata.action.ActionConclusion.to\lString">
<polygon fill="white" stroke="black" points="180,-49 180,-79 376,-79 376,-49 180,-49"/>
<text text-anchor="start" x="188" y="-67" font-family="Helvetica,sans-Serif" font-size="10.00">gamedata.action.ActionConclusion.to</text>
<text text-anchor="middle" x="278" y="-56" font-family="Helvetica,sans-Serif" font-size="10.00">String</text>
</a>
</g>
</g>
<!-- Node1&#45;&gt;Node6 -->
<g id="edge5" class="edge"><title>Node1&#45;&gt;Node6</title>
<path fill="none" stroke="midnightblue" d="M143.777,-79.6733C152.222,-78.6798 160.982,-77.6491 169.795,-76.6123"/>
<polygon fill="midnightblue" stroke="midnightblue" points="170.23,-80.0854 179.753,-75.4408 169.412,-73.1333 170.23,-80.0854"/>
</g>
<!-- Node7 -->
<g id="node7" class="node"><title>Node7</title>
<g id="a_node7"><a xlink:href="../../d1/dfc/classfxml__main_1_1_action_editor.html#ad35c9c184da7961c964f30195bf8c36f" target="_top" xlink:title="fxml_main.ActionEditor.trim\lClassList">
<polygon fill="white" stroke="black" points="203.5,-0 203.5,-30 352.5,-30 352.5,-0 203.5,-0"/>
<text text-anchor="start" x="211.5" y="-18" font-family="Helvetica,sans-Serif" font-size="10.00">fxml_main.ActionEditor.trim</text>
<text text-anchor="middle" x="278" y="-7" font-family="Helvetica,sans-Serif" font-size="10.00">ClassList</text>
</a>
</g>
</g>
<!-- Node1&#45;&gt;Node7 -->
<g id="edge6" class="edge"><title>Node1&#45;&gt;Node7</title>
<path fill="none" stroke="midnightblue" d="M102.884,-72.9494C124.041,-62.7038 153.291,-49.3568 180,-40 187.27,-37.453 194.929,-35.039 202.624,-32.7881"/>
<polygon fill="midnightblue" stroke="midnightblue" points="203.697,-36.1217 212.363,-30.0265 201.788,-29.3872 203.697,-36.1217"/>
</g>
<!-- Node4 -->
<g id="node4" class="node"><title>Node4</title>
<g id="a_node4"><a xlink:href="../../d7/dcc/classutilities_1_1_class_grabber.html#aafd30d1c4beed85d57bce894927acb09" target="_top" xlink:title="utilities.ClassGrabber.get\lClasses">
<polygon fill="white" stroke="black" points="412,-98 412,-128 548,-128 548,-98 412,-98"/>
<text text-anchor="start" x="420" y="-116" font-family="Helvetica,sans-Serif" font-size="10.00">utilities.ClassGrabber.get</text>
<text text-anchor="middle" x="480" y="-105" font-family="Helvetica,sans-Serif" font-size="10.00">Classes</text>
</a>
</g>
</g>
<!-- Node3&#45;&gt;Node4 -->
<g id="edge3" class="edge"><title>Node3&#45;&gt;Node4</title>
<path fill="none" stroke="midnightblue" d="M346.153,-113C363.963,-113 383.336,-113 401.641,-113"/>
<polygon fill="midnightblue" stroke="midnightblue" points="401.683,-116.5 411.683,-113 401.683,-109.5 401.683,-116.5"/>
</g>
<!-- Node5 -->
<g id="node5" class="node"><title>Node5</title>
<g id="a_node5"><a xlink:href="../../d7/dcc/classutilities_1_1_class_grabber.html#ad4bda95822ecf4385d69f6ecec3fd545" target="_top" xlink:title="utilities.ClassGrabber.find\lClasses">
<polygon fill="white" stroke="black" points="584.5,-98 584.5,-128 721.5,-128 721.5,-98 584.5,-98"/>
<text text-anchor="start" x="592.5" y="-116" font-family="Helvetica,sans-Serif" font-size="10.00">utilities.ClassGrabber.find</text>
<text text-anchor="middle" x="653" y="-105" font-family="Helvetica,sans-Serif" font-size="10.00">Classes</text>
</a>
</g>
</g>
<!-- Node4&#45;&gt;Node5 -->
<g id="edge4" class="edge"><title>Node4&#45;&gt;Node5</title>
<path fill="none" stroke="midnightblue" d="M548.093,-113C556.634,-113 565.432,-113 574.124,-113"/>
<polygon fill="midnightblue" stroke="midnightblue" points="574.258,-116.5 584.258,-113 574.258,-109.5 574.258,-116.5"/>
</g>
</g>
</svg>
        <g id="navigator" transform="translate(0 0)" fill="#404254">
                <rect fill="#f2f5e9" fill-opacity="0.5" stroke="#606060" stroke-width=".5" x="0" y="0" width="60" height="60"/>
                <use id="zoomplus" xlink:href="#zoomPlus" x="17" y="9" onmousedown="handleZoom(evt,'in')"/>
                <use id="zoomminus" xlink:href="#zoomMin" x="42" y="9" onmousedown="handleZoom(evt,'out')"/>
                <use id="reset" xlink:href="#resetDef" x="30" y="36" onmousedown="handleReset()"/>
                <g id="arrowUp" xlink:href="#dirArrow" transform="translate(30 24)" onmousedown="handlePan(0,-1)">
                  <use xlink:href="#rim" fill="#404040">
                        <set attributeName="fill" to="#808080" begin="arrowUp.mouseover" end="arrowUp.mouseout"/>
                  </use>
                  <path fill="none" stroke="white" stroke-width="1.5" d="M0,-3.0v7 M-2.5,-0.5L0,-3.0L2.5,-0.5"/>
                </g>
                <g id="arrowRight" xlink:href="#dirArrow" transform="rotate(90) translate(36 -43)" onmousedown="handlePan(1,0)">
                  <use xlink:href="#rim" fill="#404040">
                        <set attributeName="fill" to="#808080" begin="arrowRight.mouseover" end="arrowRight.mouseout"/>
                  </use>
                  <path fill="none" stroke="white" stroke-width="1.5" d="M0,-3.0v7 M-2.5,-0.5L0,-3.0L2.5,-0.5"/>
                </g>
                <g id="arrowDown" xlink:href="#dirArrow" transform="rotate(180) translate(-30 -48)" onmousedown="handlePan(0,1)">
                  <use xlink:href="#rim" fill="#404040">
                        <set attributeName="fill" to="#808080" begin="arrowDown.mouseover" end="arrowDown.mouseout"/>
                  </use>
                  <path fill="none" stroke="white" stroke-width="1.5" d="M0,-3.0v7 M-2.5,-0.5L0,-3.0L2.5,-0.5"/>
                </g>
                <g id="arrowLeft" xlink:href="#dirArrow" transform="rotate(270) translate(-36 17)" onmousedown="handlePan(-1,0)">
                  <use xlink:href="#rim" fill="#404040">
                        <set attributeName="fill" to="#808080" begin="arrowLeft.mouseover" end="arrowLeft.mouseout"/>
                  </use>
                  <path fill="none" stroke="white" stroke-width="1.5" d="M0,-3.0v7 M-2.5,-0.5L0,-3.0L2.5,-0.5"/>
                </g>
        </g>
        <svg viewBox="0 0 15 15" width="100%" height="30px" preserveAspectRatio="xMaxYMin meet">
         <g id="arrow_out" transform="scale(0.3 0.3)">
          <a xlink:href="classfxml__main_1_1_action_editor_adf8f00b5c1e13d8de4085c8023874e30_cgraph_org.svg" target="_base">
           <rect id="button" ry="5" rx="5" y="6" x="6" height="38" width="38"
                fill="#f2f5e9" fill-opacity="0.5" stroke="#606060" stroke-width="1.0"/>
           <path id="arrow"
             d="M 11.500037,31.436501 C 11.940474,20.09759 22.043105,11.32322 32.158766,21.979434 L 37.068811,17.246167 C 37.068811,17.246167 37.088388,32 37.088388,32 L 22.160133,31.978069 C 22.160133,31.978069 26.997745,27.140456 26.997745,27.140456 C 18.528582,18.264221 13.291696,25.230495 11.500037,31.436501 z"
             style="fill:#404040;"/>
          </a>
         </g>
        </svg>
</svg>
