<?xml version="1.0" encoding="UTF-8" standalone="no"?>
<!DOCTYPE svg PUBLIC "-//W3C//DTD SVG 1.1//EN"
 "http://www.w3.org/Graphics/SVG/1.1/DTD/svg11.dtd">
<!-- Generated by graphviz version 2.36.0 (20140111.2315)
 -->
<!-- Title: gamedata.gamecomponents.Piece.addToInventory Pages: 1 -->
<svg width="386pt" height="48pt"
 viewBox="0.00 0.00 386.00 48.00" xmlns="http://www.w3.org/2000/svg" xmlns:xlink="http://www.w3.org/1999/xlink">
<g id="graph0" class="graph" transform="scale(1 1) rotate(0) translate(4 44)">
<title>gamedata.gamecomponents.Piece.addToInventory</title>
<polygon fill="white" stroke="none" points="-4,4 -4,-44 382,-44 382,4 -4,4"/>
<!-- Node1 -->
<g id="node1" class="node"><title>Node1</title>
<polygon fill="#bfbfbf" stroke="black" points="0,-5 0,-35 160,-35 160,-5 0,-5"/>
<text text-anchor="start" x="8" y="-23" font-family="Helvetica,sans-Serif" font-size="10.00">gamedata.gamecomponents.</text>
<text text-anchor="middle" x="80" y="-12" font-family="Helvetica,sans-Serif" font-size="10.00">Piece.addToInventory</text>
</g>
<!-- Node2 -->
<g id="node2" class="node"><title>Node2</title>
<g id="a_node2"><a xlink:href="../../dd/da2/classgamedata_1_1action_1_1conclusions_1_1_receiver_to_inventory_conclusion.html#a9ddd913dbc35dad7d16ecc273e598a45" target="_top" xlink:title="gamedata.action.conclusions.\lReceiverToInventoryConclusion.run\lConclusion">
<polygon fill="white" stroke="black" points="196.5,0.5 196.5,-40.5 377.5,-40.5 377.5,0.5 196.5,0.5"/>
<text text-anchor="start" x="204.5" y="-28.5" font-family="Helvetica,sans-Serif" font-size="10.00">gamedata.action.conclusions.</text>
<text text-anchor="start" x="204.5" y="-17.5" font-family="Helvetica,sans-Serif" font-size="10.00">ReceiverToInventoryConclusion.run</text>
<text text-anchor="middle" x="287" y="-6.5" font-family="Helvetica,sans-Serif" font-size="10.00">Conclusion</text>
</a>
</g>
</g>
<!-- Node1&#45;&gt;Node2 -->
<g id="edge1" class="edge"><title>Node1&#45;&gt;Node2</title>
<path fill="none" stroke="midnightblue" d="M170.329,-20C178.97,-20 187.737,-20 196.381,-20"/>
<polygon fill="midnightblue" stroke="midnightblue" points="170.258,-16.5001 160.258,-20 170.258,-23.5001 170.258,-16.5001"/>
</g>
</g>
</svg>
