<?xml version="1.0" encoding="UTF-8" standalone="no"?>
<!DOCTYPE svg PUBLIC "-//W3C//DTD SVG 1.1//EN"
 "http://www.w3.org/Graphics/SVG/1.1/DTD/svg11.dtd">
<!-- Generated by graphviz version 2.36.0 (20140111.2315)
 -->
<!-- Title: gamedata.gamecomponents.Piece.getStats Pages: 1 -->
<!--zoomable 335 -->
<svg id="main" version="1.1" xmlns="http://www.w3.org/2000/svg" xmlns:xlink="http://www.w3.org/1999/xlink" xml:space="preserve" onload="init(evt)">
<style type="text/css"><![CDATA[
.edge:hover path { stroke: red; }
.edge:hover polygon { stroke: red; fill: red; }
]]></style>
<script type="text/javascript"><![CDATA[
var edges = document.getElementsByTagName('g');
if (edges && edges.length) {
  for (var i=0;i<edges.length;i++) {
    if (edges[i].id.substr(0,4)=='edge') {
      edges[i].setAttribute('class','edge');
    }
  }
}
]]></script>
        <defs>
                <circle id="rim" cx="0" cy="0" r="7"/>
                <circle id="rim2" cx="0" cy="0" r="3.5"/>
                <g id="zoomPlus">
                        <use xlink:href="#rim" fill="#404040">
                                <set attributeName="fill" to="#808080" begin="zoomplus.mouseover" end="zoomplus.mouseout"/>
                        </use>
                        <path d="M-4,0h8M0,-4v8" fill="none" stroke="white" stroke-width="1.5" pointer-events="none"/>
                </g>
                <g id="zoomMin">
                        <use xlink:href="#rim" fill="#404040">
                                <set attributeName="fill" to="#808080" begin="zoomminus.mouseover" end="zoomminus.mouseout"/>
                        </use>
                        <path d="M-4,0h8" fill="none" stroke="white" stroke-width="1.5" pointer-events="none"/>
                </g>
                <g id="dirArrow">
                        <path fill="none" stroke="white" stroke-width="1.5" d="M0,-3.0v7 M-2.5,-0.5L0,-3.0L2.5,-0.5"/>
                </g>
               <g id="resetDef">
                       <use xlink:href="#rim2" fill="#404040">
                               <set attributeName="fill" to="#808080" begin="reset.mouseover" end="reset.mouseout"/>
                       </use>
               </g>
        </defs>

<script type="text/javascript">
var viewWidth = 588;
var viewHeight = 335;
var sectionId = 'dynsection-12';
</script>
<script xlink:href="../../svgpan.js"/>
<svg id="graph" class="graph">
<g id="viewport">
<title>gamedata.gamecomponents.Piece.getStats</title>
<polygon fill="white" stroke="none" points="-4,4 -4,-331 584,-331 584,4 -4,4"/>
<!-- Node1 -->
<g id="node1" class="node"><title>Node1</title>
<polygon fill="#bfbfbf" stroke="black" points="0,-168 0,-198 160,-198 160,-168 0,-168"/>
<text text-anchor="start" x="8" y="-186" font-family="Helvetica,sans-Serif" font-size="10.00">gamedata.gamecomponents.</text>
<text text-anchor="middle" x="80" y="-175" font-family="Helvetica,sans-Serif" font-size="10.00">Piece.getStats</text>
</g>
<!-- Node2 -->
<g id="node2" class="node"><title>Node2</title>
<g id="a_node2"><a xlink:href="../../dc/dc0/classauthoring_1_1concretefeatures_1_1_individual_unit_editor.html#adacfe00b8401b01ebefda14536286480" target="_top" xlink:title="authoring.concretefeatures.\lIndividualUnitEditor.initialize">
<polygon fill="white" stroke="black" points="211,-291 211,-321 361,-321 361,-291 211,-291"/>
<text text-anchor="start" x="219" y="-309" font-family="Helvetica,sans-Serif" font-size="10.00">authoring.concretefeatures.</text>
<text text-anchor="middle" x="286" y="-298" font-family="Helvetica,sans-Serif" font-size="10.00">IndividualUnitEditor.initialize</text>
</a>
</g>
</g>
<!-- Node1&#45;&gt;Node2 -->
<g id="edge1" class="edge"><title>Node1&#45;&gt;Node2</title>
<path fill="none" stroke="midnightblue" d="M101.713,-205.628C123.247,-227.86 158.936,-261.24 196,-281 203.223,-284.851 211.1,-288.159 219.084,-290.989"/>
<polygon fill="midnightblue" stroke="midnightblue" points="104.138,-203.098 94.7079,-198.269 99.0684,-207.925 104.138,-203.098"/>
</g>
<!-- Node4 -->
<g id="node4" class="node"><title>Node4</title>
<g id="a_node4"><a xlink:href="../../d8/d6c/classauthoring_1_1concretefeatures_1_1_library_unit_editor.html#adeb9a177c6883b70b936575c82f2642b" target="_top" xlink:title="authoring.concretefeatures.\lLibraryUnitEditor.LibraryUnitEditor">
<polygon fill="white" stroke="black" points="197,-242 197,-272 375,-272 375,-242 197,-242"/>
<text text-anchor="start" x="205" y="-260" font-family="Helvetica,sans-Serif" font-size="10.00">authoring.concretefeatures.</text>
<text text-anchor="middle" x="286" y="-249" font-family="Helvetica,sans-Serif" font-size="10.00">LibraryUnitEditor.LibraryUnitEditor</text>
</a>
</g>
</g>
<!-- Node1&#45;&gt;Node4 -->
<g id="edge3" class="edge"><title>Node1&#45;&gt;Node4</title>
<path fill="none" stroke="midnightblue" d="M122.502,-202.217C144.146,-211.846 171.212,-223.279 196,-232 205.992,-235.516 216.748,-238.88 227.209,-241.938"/>
<polygon fill="midnightblue" stroke="midnightblue" points="123.831,-198.977 113.275,-198.076 120.965,-205.363 123.831,-198.977"/>
</g>
<!-- Node5 -->
<g id="node5" class="node"><title>Node5</title>
<g id="a_node5"><a xlink:href="../../df/dbd/classfxml__main_1_1_piece_editor.html#a33603f4cca25fedefefd2108dbe75163" target="_top" xlink:title="fxml_main.PieceEditor.Piece\lEditor">
<polygon fill="white" stroke="black" points="211,-193 211,-223 361,-223 361,-193 211,-193"/>
<text text-anchor="start" x="219" y="-211" font-family="Helvetica,sans-Serif" font-size="10.00">fxml_main.PieceEditor.Piece</text>
<text text-anchor="middle" x="286" y="-200" font-family="Helvetica,sans-Serif" font-size="10.00">Editor</text>
</a>
</g>
</g>
<!-- Node1&#45;&gt;Node5 -->
<g id="edge4" class="edge"><title>Node1&#45;&gt;Node5</title>
<path fill="none" stroke="midnightblue" d="M170.423,-193.959C183.937,-195.615 197.749,-197.307 210.892,-198.918"/>
<polygon fill="midnightblue" stroke="midnightblue" points="170.515,-190.444 160.164,-192.701 169.664,-197.392 170.515,-190.444"/>
</g>
<!-- Node6 -->
<g id="node6" class="node"><title>Node6</title>
<g id="a_node6"><a xlink:href="../../d9/d15/classfxml__main_1_1_piece_type_editor.html#af2eefe9bd07a346d48960d99fae7511d" target="_top" xlink:title="fxml_main.PieceTypeEditor.\lPieceTypeEditor">
<polygon fill="white" stroke="black" points="213,-144 213,-174 359,-174 359,-144 213,-144"/>
<text text-anchor="start" x="221" y="-162" font-family="Helvetica,sans-Serif" font-size="10.00">fxml_main.PieceTypeEditor.</text>
<text text-anchor="middle" x="286" y="-151" font-family="Helvetica,sans-Serif" font-size="10.00">PieceTypeEditor</text>
</a>
</g>
</g>
<!-- Node1&#45;&gt;Node6 -->
<g id="edge5" class="edge"><title>Node1&#45;&gt;Node6</title>
<path fill="none" stroke="midnightblue" d="M170.426,-172.479C184.621,-170.809 199.147,-169.1 212.879,-167.485"/>
<polygon fill="midnightblue" stroke="midnightblue" points="169.686,-169.042 160.164,-173.687 170.504,-175.994 169.686,-169.042"/>
</g>
<!-- Node7 -->
<g id="node7" class="node"><title>Node7</title>
<g id="a_node7"><a xlink:href="../../d7/df4/classtests_1_1_j_s_o_n_tester_main.html#a5f1fa68f3fcb37a473271cdbfeaaa92e" target="_top" xlink:title="tests.JSONTesterMain.test\lJSONwrite">
<polygon fill="white" stroke="black" points="216,-95 216,-125 356,-125 356,-95 216,-95"/>
<text text-anchor="start" x="224" y="-113" font-family="Helvetica,sans-Serif" font-size="10.00">tests.JSONTesterMain.test</text>
<text text-anchor="middle" x="286" y="-102" font-family="Helvetica,sans-Serif" font-size="10.00">JSONwrite</text>
</a>
</g>
</g>
<!-- Node1&#45;&gt;Node7 -->
<g id="edge6" class="edge"><title>Node1&#45;&gt;Node7</title>
<path fill="none" stroke="midnightblue" d="M122.465,-163.675C144.099,-154.018 171.167,-142.592 196,-134 205.225,-130.808 215.108,-127.775 224.81,-125.005"/>
<polygon fill="midnightblue" stroke="midnightblue" points="120.921,-160.531 113.242,-167.831 123.797,-166.913 120.921,-160.531"/>
</g>
<!-- Node9 -->
<g id="node9" class="node"><title>Node9</title>
<g id="a_node9"><a xlink:href="../../df/dd5/classgame_player_1_1_view_controller.html#a0c29875ecb4818334f53b1cdefa6e305" target="_top" xlink:title="gamePlayer.ViewController.update\lStats">
<polygon fill="white" stroke="black" points="196,-46 196,-76 376,-76 376,-46 196,-46"/>
<text text-anchor="start" x="204" y="-64" font-family="Helvetica,sans-Serif" font-size="10.00">gamePlayer.ViewController.update</text>
<text text-anchor="middle" x="286" y="-53" font-family="Helvetica,sans-Serif" font-size="10.00">Stats</text>
</a>
</g>
</g>
<!-- Node1&#45;&gt;Node9 -->
<g id="edge8" class="edge"><title>Node1&#45;&gt;Node9</title>
<path fill="none" stroke="midnightblue" d="M101.67,-160.291C123.17,-137.995 158.834,-104.566 196,-85 202.514,-81.5708 209.561,-78.599 216.738,-76.031"/>
<polygon fill="midnightblue" stroke="midnightblue" points="99.014,-158.006 94.6767,-167.672 104.095,-162.82 99.014,-158.006"/>
</g>
<!-- Node3 -->
<g id="node3" class="node"><title>Node3</title>
<g id="a_node3"><a xlink:href="../../dc/dc0/classauthoring_1_1concretefeatures_1_1_individual_unit_editor.html#a8c024ae13e1fdef1fe2517c5469b66f0" target="_top" xlink:title="authoring.concretefeatures.\lIndividualUnitEditor.Individual\lUnitEditor">
<polygon fill="white" stroke="black" points="418.5,-285.5 418.5,-326.5 573.5,-326.5 573.5,-285.5 418.5,-285.5"/>
<text text-anchor="start" x="426.5" y="-314.5" font-family="Helvetica,sans-Serif" font-size="10.00">authoring.concretefeatures.</text>
<text text-anchor="start" x="426.5" y="-303.5" font-family="Helvetica,sans-Serif" font-size="10.00">IndividualUnitEditor.Individual</text>
<text text-anchor="middle" x="496" y="-292.5" font-family="Helvetica,sans-Serif" font-size="10.00">UnitEditor</text>
</a>
</g>
</g>
<!-- Node2&#45;&gt;Node3 -->
<g id="edge2" class="edge"><title>Node2&#45;&gt;Node3</title>
<path fill="none" stroke="midnightblue" d="M371.33,-306C386.884,-306 403.048,-306 418.359,-306"/>
<polygon fill="midnightblue" stroke="midnightblue" points="371.212,-302.5 361.212,-306 371.212,-309.5 371.212,-302.5"/>
</g>
<!-- Node8 -->
<g id="node8" class="node"><title>Node8</title>
<g id="a_node8"><a xlink:href="../../d7/df4/classtests_1_1_j_s_o_n_tester_main.html#a931215da47157cbc5157c6a9df31ccd4" target="_top" xlink:title="tests.JSONTesterMain.main">
<polygon fill="white" stroke="black" points="423,-100.5 423,-119.5 569,-119.5 569,-100.5 423,-100.5"/>
<text text-anchor="middle" x="496" y="-107.5" font-family="Helvetica,sans-Serif" font-size="10.00">tests.JSONTesterMain.main</text>
</a>
</g>
</g>
<!-- Node7&#45;&gt;Node8 -->
<g id="edge7" class="edge"><title>Node7&#45;&gt;Node8</title>
<path fill="none" stroke="midnightblue" d="M366.434,-110C384.979,-110 404.629,-110 422.838,-110"/>
<polygon fill="midnightblue" stroke="midnightblue" points="366.261,-106.5 356.261,-110 366.261,-113.5 366.261,-106.5"/>
</g>
<!-- Node10 -->
<g id="node10" class="node"><title>Node10</title>
<g id="a_node10"><a xlink:href="../../d6/d24/classgame_player_1_1_select_state.html#a801827392f0faeee6b96925060d77838" target="_top" xlink:title="gamePlayer.SelectState.on\lClick">
<polygon fill="white" stroke="black" points="422.5,-49 422.5,-79 569.5,-79 569.5,-49 422.5,-49"/>
<text text-anchor="start" x="430.5" y="-67" font-family="Helvetica,sans-Serif" font-size="10.00">gamePlayer.SelectState.on</text>
<text text-anchor="middle" x="496" y="-56" font-family="Helvetica,sans-Serif" font-size="10.00">Click</text>
</a>
</g>
</g>
<!-- Node9&#45;&gt;Node10 -->
<g id="edge9" class="edge"><title>Node9&#45;&gt;Node10</title>
<path fill="none" stroke="midnightblue" d="M386.296,-62.4322C398.456,-62.6075 410.703,-62.7842 422.368,-62.9524"/>
<polygon fill="midnightblue" stroke="midnightblue" points="386.165,-58.93 376.116,-62.2853 386.064,-65.9293 386.165,-58.93"/>
</g>
<!-- Node11 -->
<g id="node11" class="node"><title>Node11</title>
<g id="a_node11"><a xlink:href="../../df/df0/classtests_1_1_view_controller_test.html#a9696e815d2ffde2ce4b4317175423ef4" target="_top" xlink:title="tests.ViewControllerTest.update\lStatsTest">
<polygon fill="white" stroke="black" points="412.5,-0 412.5,-30 579.5,-30 579.5,-0 412.5,-0"/>
<text text-anchor="start" x="420.5" y="-18" font-family="Helvetica,sans-Serif" font-size="10.00">tests.ViewControllerTest.update</text>
<text text-anchor="middle" x="496" y="-7" font-family="Helvetica,sans-Serif" font-size="10.00">StatsTest</text>
</a>
</g>
</g>
<!-- Node9&#45;&gt;Node11 -->
<g id="edge10" class="edge"><title>Node9&#45;&gt;Node11</title>
<path fill="none" stroke="midnightblue" d="M364.999,-43.7503C385.412,-39.2357 407.254,-34.4053 427.095,-30.0174"/>
<polygon fill="midnightblue" stroke="midnightblue" points="364.115,-40.361 355.107,-45.9379 365.627,-47.1959 364.115,-40.361"/>
</g>
</g>
</svg>
        <g id="navigator" transform="translate(0 0)" fill="#404254">
                <rect fill="#f2f5e9" fill-opacity="0.5" stroke="#606060" stroke-width=".5" x="0" y="0" width="60" height="60"/>
                <use id="zoomplus" xlink:href="#zoomPlus" x="17" y="9" onmousedown="handleZoom(evt,'in')"/>
                <use id="zoomminus" xlink:href="#zoomMin" x="42" y="9" onmousedown="handleZoom(evt,'out')"/>
                <use id="reset" xlink:href="#resetDef" x="30" y="36" onmousedown="handleReset()"/>
                <g id="arrowUp" xlink:href="#dirArrow" transform="translate(30 24)" onmousedown="handlePan(0,-1)">
                  <use xlink:href="#rim" fill="#404040">
                        <set attributeName="fill" to="#808080" begin="arrowUp.mouseover" end="arrowUp.mouseout"/>
                  </use>
                  <path fill="none" stroke="white" stroke-width="1.5" d="M0,-3.0v7 M-2.5,-0.5L0,-3.0L2.5,-0.5"/>
                </g>
                <g id="arrowRight" xlink:href="#dirArrow" transform="rotate(90) translate(36 -43)" onmousedown="handlePan(1,0)">
                  <use xlink:href="#rim" fill="#404040">
                        <set attributeName="fill" to="#808080" begin="arrowRight.mouseover" end="arrowRight.mouseout"/>
                  </use>
                  <path fill="none" stroke="white" stroke-width="1.5" d="M0,-3.0v7 M-2.5,-0.5L0,-3.0L2.5,-0.5"/>
                </g>
                <g id="arrowDown" xlink:href="#dirArrow" transform="rotate(180) translate(-30 -48)" onmousedown="handlePan(0,1)">
                  <use xlink:href="#rim" fill="#404040">
                        <set attributeName="fill" to="#808080" begin="arrowDown.mouseover" end="arrowDown.mouseout"/>
                  </use>
                  <path fill="none" stroke="white" stroke-width="1.5" d="M0,-3.0v7 M-2.5,-0.5L0,-3.0L2.5,-0.5"/>
                </g>
                <g id="arrowLeft" xlink:href="#dirArrow" transform="rotate(270) translate(-36 17)" onmousedown="handlePan(-1,0)">
                  <use xlink:href="#rim" fill="#404040">
                        <set attributeName="fill" to="#808080" begin="arrowLeft.mouseover" end="arrowLeft.mouseout"/>
                  </use>
                  <path fill="none" stroke="white" stroke-width="1.5" d="M0,-3.0v7 M-2.5,-0.5L0,-3.0L2.5,-0.5"/>
                </g>
        </g>
        <svg viewBox="0 0 15 15" width="100%" height="30px" preserveAspectRatio="xMaxYMin meet">
         <g id="arrow_out" transform="scale(0.3 0.3)">
          <a xlink:href="classgamedata_1_1gamecomponents_1_1_piece_aff9c4298f1796f022bc82ee138e925a4_icgraph_org.svg" target="_base">
           <rect id="button" ry="5" rx="5" y="6" x="6" height="38" width="38"
                fill="#f2f5e9" fill-opacity="0.5" stroke="#606060" stroke-width="1.0"/>
           <path id="arrow"
             d="M 11.500037,31.436501 C 11.940474,20.09759 22.043105,11.32322 32.158766,21.979434 L 37.068811,17.246167 C 37.068811,17.246167 37.088388,32 37.088388,32 L 22.160133,31.978069 C 22.160133,31.978069 26.997745,27.140456 26.997745,27.140456 C 18.528582,18.264221 13.291696,25.230495 11.500037,31.436501 z"
             style="fill:#404040;"/>
          </a>
         </g>
        </svg>
</svg>
