<?xml version="1.0" encoding="UTF-8" standalone="no"?>
<!DOCTYPE svg PUBLIC "-//W3C//DTD SVG 1.1//EN"
 "http://www.w3.org/Graphics/SVG/1.1/DTD/svg11.dtd">
<!-- Generated by graphviz version 2.36.0 (20140111.2315)
 -->
<!-- Title: gamedata.gamecomponents.Piece.addToInventory Pages: 1 -->
<svg width="560pt" height="87pt"
 viewBox="0.00 0.00 560.00 87.00" xmlns="http://www.w3.org/2000/svg" xmlns:xlink="http://www.w3.org/1999/xlink">
<g id="graph0" class="graph" transform="scale(1 1) rotate(0) translate(4 83)">
<title>gamedata.gamecomponents.Piece.addToInventory</title>
<polygon fill="white" stroke="none" points="-4,4 -4,-83 556,-83 556,4 -4,4"/>
<!-- Node1 -->
<g id="node1" class="node"><title>Node1</title>
<polygon fill="#bfbfbf" stroke="black" points="0,-24 0,-54 160,-54 160,-24 0,-24"/>
<text text-anchor="start" x="8" y="-42" font-family="Helvetica,sans-Serif" font-size="10.00">gamedata.gamecomponents.</text>
<text text-anchor="middle" x="80" y="-31" font-family="Helvetica,sans-Serif" font-size="10.00">Piece.addToInventory</text>
</g>
<!-- Node2 -->
<g id="node2" class="node"><title>Node2</title>
<g id="a_node2"><a xlink:href="../../d3/d8e/classgamedata_1_1gamecomponents_1_1_inventory.html#ada5c79ec79aad62035989018ddae5727" target="_top" xlink:title="gamedata.gamecomponents.\lInventory.addItem">
<polygon fill="white" stroke="black" points="196,-49 196,-79 356,-79 356,-49 196,-49"/>
<text text-anchor="start" x="204" y="-67" font-family="Helvetica,sans-Serif" font-size="10.00">gamedata.gamecomponents.</text>
<text text-anchor="middle" x="276" y="-56" font-family="Helvetica,sans-Serif" font-size="10.00">Inventory.addItem</text>
</a>
</g>
</g>
<!-- Node1&#45;&gt;Node2 -->
<g id="edge1" class="edge"><title>Node1&#45;&gt;Node2</title>
<path fill="none" stroke="midnightblue" d="M160.187,-49.2045C168.621,-50.2914 177.241,-51.4022 185.781,-52.5027"/>
<polygon fill="midnightblue" stroke="midnightblue" points="185.386,-55.9807 195.752,-53.7876 186.281,-49.0381 185.386,-55.9807"/>
</g>
<!-- Node3 -->
<g id="node3" class="node"><title>Node3</title>
<g id="a_node3"><a xlink:href="../../d4/d63/classgamedata_1_1gamecomponents_1_1_piece.html#a37d31e6b2958791c3073e23816f3d0b6" target="_top" xlink:title="gamedata.gamecomponents.\lPiece.inventoryValid">
<polygon fill="white" stroke="black" points="196,-0 196,-30 356,-30 356,-0 196,-0"/>
<text text-anchor="start" x="204" y="-18" font-family="Helvetica,sans-Serif" font-size="10.00">gamedata.gamecomponents.</text>
<text text-anchor="middle" x="276" y="-7" font-family="Helvetica,sans-Serif" font-size="10.00">Piece.inventoryValid</text>
</a>
</g>
</g>
<!-- Node1&#45;&gt;Node3 -->
<g id="edge2" class="edge"><title>Node1&#45;&gt;Node3</title>
<path fill="none" stroke="midnightblue" d="M160.187,-29.2037C168.621,-28.1603 177.241,-27.0939 185.781,-26.0375"/>
<polygon fill="midnightblue" stroke="midnightblue" points="186.257,-29.5053 195.752,-24.8039 185.398,-22.5582 186.257,-29.5053"/>
</g>
<!-- Node4 -->
<g id="node4" class="node"><title>Node4</title>
<g id="a_node4"><a xlink:href="../../d4/d63/classgamedata_1_1gamecomponents_1_1_piece.html#a87876ab57300b34bad5206ce5060976b" target="_top" xlink:title="gamedata.gamecomponents.\lPiece.isItem">
<polygon fill="white" stroke="black" points="392,-0 392,-30 552,-30 552,-0 392,-0"/>
<text text-anchor="start" x="400" y="-18" font-family="Helvetica,sans-Serif" font-size="10.00">gamedata.gamecomponents.</text>
<text text-anchor="middle" x="472" y="-7" font-family="Helvetica,sans-Serif" font-size="10.00">Piece.isItem</text>
</a>
</g>
</g>
<!-- Node3&#45;&gt;Node4 -->
<g id="edge3" class="edge"><title>Node3&#45;&gt;Node4</title>
<path fill="none" stroke="midnightblue" d="M356.187,-15C364.529,-15 373.054,-15 381.502,-15"/>
<polygon fill="midnightblue" stroke="midnightblue" points="381.752,-18.5001 391.752,-15 381.752,-11.5001 381.752,-18.5001"/>
</g>
</g>
</svg>
