<?xml version="1.0" encoding="UTF-8" standalone="no"?>
<!DOCTYPE svg PUBLIC "-//W3C//DTD SVG 1.1//EN"
 "http://www.w3.org/Graphics/SVG/1.1/DTD/svg11.dtd">
<!-- Generated by graphviz version 2.36.0 (20140111.2315)
 -->
<!-- Title: gamedata.gamecomponents.Piece.inventoryValid Pages: 1 -->
<svg width="582pt" height="93pt"
 viewBox="0.00 0.00 582.00 93.00" xmlns="http://www.w3.org/2000/svg" xmlns:xlink="http://www.w3.org/1999/xlink">
<g id="graph0" class="graph" transform="scale(1 1) rotate(0) translate(4 89)">
<title>gamedata.gamecomponents.Piece.inventoryValid</title>
<polygon fill="white" stroke="none" points="-4,4 -4,-89 578,-89 578,4 -4,4"/>
<!-- Node1 -->
<g id="node1" class="node"><title>Node1</title>
<polygon fill="#bfbfbf" stroke="black" points="0,-24 0,-54 160,-54 160,-24 0,-24"/>
<text text-anchor="start" x="8" y="-42" font-family="Helvetica,sans-Serif" font-size="10.00">gamedata.gamecomponents.</text>
<text text-anchor="middle" x="80" y="-31" font-family="Helvetica,sans-Serif" font-size="10.00">Piece.inventoryValid</text>
</g>
<!-- Node2 -->
<g id="node2" class="node"><title>Node2</title>
<g id="a_node2"><a xlink:href="../../d4/d63/classgamedata_1_1gamecomponents_1_1_piece.html#ac2dfe291ea3bde03d94129001b569953" target="_top" xlink:title="gamedata.gamecomponents.\lPiece.addToInventory">
<polygon fill="white" stroke="black" points="196,-49 196,-79 356,-79 356,-49 196,-49"/>
<text text-anchor="start" x="204" y="-67" font-family="Helvetica,sans-Serif" font-size="10.00">gamedata.gamecomponents.</text>
<text text-anchor="middle" x="276" y="-56" font-family="Helvetica,sans-Serif" font-size="10.00">Piece.addToInventory</text>
</a>
</g>
</g>
<!-- Node1&#45;&gt;Node2 -->
<g id="edge1" class="edge"><title>Node1&#45;&gt;Node2</title>
<path fill="none" stroke="midnightblue" d="M170.157,-50.4894C178.696,-51.5897 187.317,-52.7006 195.752,-53.7876"/>
<polygon fill="midnightblue" stroke="midnightblue" points="170.552,-47.0114 160.187,-49.2045 169.658,-53.954 170.552,-47.0114"/>
</g>
<!-- Node4 -->
<g id="node4" class="node"><title>Node4</title>
<g id="a_node4"><a xlink:href="../../d4/d63/classgamedata_1_1gamecomponents_1_1_piece.html#ad42a4c49e7f61b447abee44a71682d55" target="_top" xlink:title="gamedata.gamecomponents.\lPiece.removeFromInventory">
<polygon fill="white" stroke="black" points="196,-0 196,-30 356,-30 356,-0 196,-0"/>
<text text-anchor="start" x="204" y="-18" font-family="Helvetica,sans-Serif" font-size="10.00">gamedata.gamecomponents.</text>
<text text-anchor="middle" x="276" y="-7" font-family="Helvetica,sans-Serif" font-size="10.00">Piece.removeFromInventory</text>
</a>
</g>
</g>
<!-- Node1&#45;&gt;Node4 -->
<g id="edge3" class="edge"><title>Node1&#45;&gt;Node4</title>
<path fill="none" stroke="midnightblue" d="M170.157,-27.9702C178.696,-26.9139 187.317,-25.8474 195.752,-24.8039"/>
<polygon fill="midnightblue" stroke="midnightblue" points="169.682,-24.5023 160.187,-29.2037 170.541,-31.4493 169.682,-24.5023"/>
</g>
<!-- Node3 -->
<g id="node3" class="node"><title>Node3</title>
<g id="a_node3"><a xlink:href="../../dd/da2/classgamedata_1_1action_1_1conclusions_1_1_receiver_to_inventory_conclusion.html#a9ddd913dbc35dad7d16ecc273e598a45" target="_top" xlink:title="gamedata.action.conclusions.\lReceiverToInventoryConclusion.run\lConclusion">
<polygon fill="white" stroke="black" points="392.5,-43.5 392.5,-84.5 573.5,-84.5 573.5,-43.5 392.5,-43.5"/>
<text text-anchor="start" x="400.5" y="-72.5" font-family="Helvetica,sans-Serif" font-size="10.00">gamedata.action.conclusions.</text>
<text text-anchor="start" x="400.5" y="-61.5" font-family="Helvetica,sans-Serif" font-size="10.00">ReceiverToInventoryConclusion.run</text>
<text text-anchor="middle" x="483" y="-50.5" font-family="Helvetica,sans-Serif" font-size="10.00">Conclusion</text>
</a>
</g>
</g>
<!-- Node2&#45;&gt;Node3 -->
<g id="edge2" class="edge"><title>Node2&#45;&gt;Node3</title>
<path fill="none" stroke="midnightblue" d="M366.329,-64C374.97,-64 383.737,-64 392.381,-64"/>
<polygon fill="midnightblue" stroke="midnightblue" points="366.258,-60.5001 356.258,-64 366.258,-67.5001 366.258,-60.5001"/>
</g>
</g>
</svg>
