<?xml version="1.0" encoding="UTF-8" standalone="no"?>
<!DOCTYPE svg PUBLIC "-//W3C//DTD SVG 1.1//EN"
 "http://www.w3.org/Graphics/SVG/1.1/DTD/svg11.dtd">
<!-- Generated by graphviz version 2.36.0 (20140111.2315)
 -->
<!-- Title: fxml_main.PatchController Pages: 1 -->
<svg width="706pt" height="131pt"
 viewBox="0.00 0.00 706.00 131.00" xmlns="http://www.w3.org/2000/svg" xmlns:xlink="http://www.w3.org/1999/xlink">
<g id="graph0" class="graph" transform="scale(1 1) rotate(0) translate(4 127)">
<title>fxml_main.PatchController</title>
<polygon fill="white" stroke="none" points="-4,4 -4,-127 702,-127 702,4 -4,4"/>
<!-- Node1 -->
<g id="node1" class="node"><title>Node1</title>
<polygon fill="#bfbfbf" stroke="black" points="556,-80.5 556,-99.5 698,-99.5 698,-80.5 556,-80.5"/>
<text text-anchor="middle" x="627" y="-87.5" font-family="Helvetica,sans-Serif" font-size="10.00">fxml_main.PatchController</text>
</g>
<!-- Node2 -->
<g id="node2" class="node"><title>Node2</title>
<g id="a_node2"><a xlink:href="../../da/d40/classfxml__main_1_1_grid_component_abst_ctrl.html" target="_top" xlink:title="fxml_main.GridComponentAbst\lCtrl\&lt; Patch \&gt;">
<polygon fill="white" stroke="black" points="280.5,-93 280.5,-123 447.5,-123 447.5,-93 280.5,-93"/>
<text text-anchor="start" x="288.5" y="-111" font-family="Helvetica,sans-Serif" font-size="10.00">fxml_main.GridComponentAbst</text>
<text text-anchor="middle" x="364" y="-100" font-family="Helvetica,sans-Serif" font-size="10.00">Ctrl&lt; Patch &gt;</text>
</a>
</g>
</g>
<!-- Node2&#45;&gt;Node1 -->
<g id="edge1" class="edge"><title>Node2&#45;&gt;Node1</title>
<path fill="none" stroke="midnightblue" d="M457.916,-101.592C490.143,-99.3695 525.712,-96.9164 555.799,-94.8414"/>
<polygon fill="midnightblue" stroke="midnightblue" points="457.317,-98.1249 447.582,-102.305 457.799,-105.108 457.317,-98.1249"/>
</g>
<!-- Node3 -->
<g id="node3" class="node"><title>Node3</title>
<g id="a_node3"><a xlink:href="../../d1/d4f/classauthoring_1_1data_1_1_patch_type_data.html" target="_top" xlink:title="authoring.data.PatchTypeData">
<polygon fill="white" stroke="black" points="283.5,-54.5 283.5,-73.5 444.5,-73.5 444.5,-54.5 283.5,-54.5"/>
<text text-anchor="middle" x="364" y="-61.5" font-family="Helvetica,sans-Serif" font-size="10.00">authoring.data.PatchTypeData</text>
</a>
</g>
</g>
<!-- Node3&#45;&gt;Node1 -->
<g id="edge2" class="edge"><title>Node3&#45;&gt;Node1</title>
<path fill="none" stroke="#9a32cd" stroke-dasharray="5,2" d="M454.795,-72.7555C481.567,-75.3844 510.973,-78.2901 538,-81 543.807,-81.5822 549.829,-82.1899 555.874,-82.8027"/>
<polygon fill="#9a32cd" stroke="#9a32cd" points="454.968,-69.2558 444.674,-71.7625 454.284,-76.2223 454.968,-69.2558"/>
<text text-anchor="middle" x="502" y="-84" font-family="Helvetica,sans-Serif" font-size="10.00"> myPatchTypes</text>
</g>
<!-- Node4 -->
<g id="node4" class="node"><title>Node4</title>
<polygon fill="white" stroke="#bfbfbf" points="58.5,-98.5 58.5,-117.5 129.5,-117.5 129.5,-98.5 58.5,-98.5"/>
<text text-anchor="middle" x="94" y="-105.5" font-family="Helvetica,sans-Serif" font-size="10.00">Observable</text>
</g>
<!-- Node4&#45;&gt;Node3 -->
<g id="edge3" class="edge"><title>Node4&#45;&gt;Node3</title>
<path fill="none" stroke="midnightblue" d="M139.884,-100.631C185.234,-93.1855 255.493,-81.6503 305.032,-73.5171"/>
<polygon fill="midnightblue" stroke="midnightblue" points="139.062,-97.2189 129.762,-102.293 140.197,-104.126 139.062,-97.2189"/>
</g>
<!-- Node5 -->
<g id="node5" class="node"><title>Node5</title>
<g id="a_node5"><a xlink:href="../../d5/d29/interfaceauthoring_1_1data_1_1_authoring_data.html" target="_top" xlink:title="authoring.data.Authoring\lData\&lt; Patch \&gt;">
<polygon fill="white" stroke="black" points="25.5,-49 25.5,-79 162.5,-79 162.5,-49 25.5,-49"/>
<text text-anchor="start" x="33.5" y="-67" font-family="Helvetica,sans-Serif" font-size="10.00">authoring.data.Authoring</text>
<text text-anchor="middle" x="94" y="-56" font-family="Helvetica,sans-Serif" font-size="10.00">Data&lt; Patch &gt;</text>
</a>
</g>
</g>
<!-- Node5&#45;&gt;Node3 -->
<g id="edge4" class="edge"><title>Node5&#45;&gt;Node3</title>
<path fill="none" stroke="midnightblue" d="M172.737,-64C207.524,-64 248.493,-64 283.487,-64"/>
<polygon fill="midnightblue" stroke="midnightblue" points="172.628,-60.5001 162.628,-64 172.628,-67.5001 172.628,-60.5001"/>
</g>
<!-- Node6 -->
<g id="node6" class="node"><title>Node6</title>
<polygon fill="white" stroke="#bfbfbf" points="0,-0 0,-30 188,-30 188,-0 0,-0"/>
<text text-anchor="start" x="8" y="-18" font-family="Helvetica,sans-Serif" font-size="10.00">List&lt; gamedata.gamecomponents.</text>
<text text-anchor="middle" x="94" y="-7" font-family="Helvetica,sans-Serif" font-size="10.00">Patch &gt;</text>
</g>
<!-- Node6&#45;&gt;Node3 -->
<g id="edge5" class="edge"><title>Node6&#45;&gt;Node3</title>
<path fill="none" stroke="#9a32cd" stroke-dasharray="5,2" d="M187.321,-31.8795C228.639,-39.4339 275.828,-48.0619 310.888,-54.472"/>
<polygon fill="#9a32cd" stroke="#9a32cd" points="187.697,-28.3903 177.23,-30.0346 186.438,-35.2762 187.697,-28.3903"/>
<text text-anchor="middle" x="234" y="-49" font-family="Helvetica,sans-Serif" font-size="10.00"> myPatches</text>
</g>
</g>
</svg>
