<?xml version="1.0" encoding="UTF-8" standalone="no"?>
<!DOCTYPE svg PUBLIC "-//W3C//DTD SVG 1.1//EN"
 "http://www.w3.org/Graphics/SVG/1.1/DTD/svg11.dtd">
<!-- Generated by graphviz version 2.36.0 (20140111.2315)
 -->
<!-- Title: authoring.concretefeatures.UnitEntry.getUnit Pages: 1 -->
<svg width="358pt" height="87pt"
 viewBox="0.00 0.00 358.00 87.00" xmlns="http://www.w3.org/2000/svg" xmlns:xlink="http://www.w3.org/1999/xlink">
<g id="graph0" class="graph" transform="scale(1 1) rotate(0) translate(4 83)">
<title>authoring.concretefeatures.UnitEntry.getUnit</title>
<polygon fill="white" stroke="none" points="-4,4 -4,-83 354,-83 354,4 -4,4"/>
<!-- Node1 -->
<g id="node1" class="node"><title>Node1</title>
<polygon fill="#bfbfbf" stroke="black" points="0,-24 0,-54 150,-54 150,-24 0,-24"/>
<text text-anchor="start" x="8" y="-42" font-family="Helvetica,sans-Serif" font-size="10.00">authoring.concretefeatures.</text>
<text text-anchor="middle" x="75" y="-31" font-family="Helvetica,sans-Serif" font-size="10.00">UnitEntry.getUnit</text>
</g>
<!-- Node2 -->
<g id="node2" class="node"><title>Node2</title>
<g id="a_node2"><a xlink:href="../../dc/d26/classauthoring__environment_1_1_library_view.html#a19ad3ec15a5d33ae8bba42df76d8d3a2" target="_top" xlink:title="authoring_environment.Library\lView.addPiece">
<polygon fill="white" stroke="black" points="186,-49 186,-79 350,-79 350,-49 186,-49"/>
<text text-anchor="start" x="194" y="-67" font-family="Helvetica,sans-Serif" font-size="10.00">authoring_environment.Library</text>
<text text-anchor="middle" x="268" y="-56" font-family="Helvetica,sans-Serif" font-size="10.00">View.addPiece</text>
</a>
</g>
</g>
<!-- Node1&#45;&gt;Node2 -->
<g id="edge1" class="edge"><title>Node1&#45;&gt;Node2</title>
<path fill="none" stroke="midnightblue" d="M160.119,-50.0104C168.701,-51.1337 177.407,-52.2732 185.956,-53.3921"/>
<polygon fill="midnightblue" stroke="midnightblue" points="160.489,-46.529 150.119,-48.7014 159.58,-53.4698 160.489,-46.529"/>
</g>
<!-- Node3 -->
<g id="node3" class="node"><title>Node3</title>
<g id="a_node3"><a xlink:href="../../dc/d26/classauthoring__environment_1_1_library_view.html#acfc3c07dda6a2b1489667af2865fdb6a" target="_top" xlink:title="authoring_environment.Library\lView.removePiece">
<polygon fill="white" stroke="black" points="186,-0 186,-30 350,-30 350,-0 186,-0"/>
<text text-anchor="start" x="194" y="-18" font-family="Helvetica,sans-Serif" font-size="10.00">authoring_environment.Library</text>
<text text-anchor="middle" x="268" y="-7" font-family="Helvetica,sans-Serif" font-size="10.00">View.removePiece</text>
</a>
</g>
</g>
<!-- Node1&#45;&gt;Node3 -->
<g id="edge2" class="edge"><title>Node1&#45;&gt;Node3</title>
<path fill="none" stroke="midnightblue" d="M160.119,-28.43C168.701,-27.3517 177.407,-26.2577 185.956,-25.1836"/>
<polygon fill="midnightblue" stroke="midnightblue" points="159.605,-24.9671 150.119,-29.6866 160.477,-31.9125 159.605,-24.9671"/>
</g>
</g>
</svg>
