<?xml version="1.0" encoding="UTF-8" standalone="no"?>
<!DOCTYPE svg PUBLIC "-//W3C//DTD SVG 1.1//EN"
 "http://www.w3.org/Graphics/SVG/1.1/DTD/svg11.dtd">
<!-- Generated by graphviz version 2.36.0 (20140111.2315)
 -->
<!-- Title: gamedata.events.globalaction.DeletePieceAtLocation Pages: 1 -->
<svg width="172pt" height="108pt"
 viewBox="0.00 0.00 172.00 108.00" xmlns="http://www.w3.org/2000/svg" xmlns:xlink="http://www.w3.org/1999/xlink">
<g id="graph0" class="graph" transform="scale(1 1) rotate(0) translate(4 104)">
<title>gamedata.events.globalaction.DeletePieceAtLocation</title>
<polygon fill="white" stroke="none" points="-4,4 -4,-104 168,-104 168,4 -4,4"/>
<!-- Node1 -->
<g id="node1" class="node"><title>Node1</title>
<polygon fill="#bfbfbf" stroke="black" points="-0.5,-1 -0.5,-31 164.5,-31 164.5,-1 -0.5,-1"/>
<text text-anchor="start" x="7.5" y="-19" font-family="Helvetica,sans-Serif" font-size="10.00">gamedata.events.globalaction.</text>
<text text-anchor="middle" x="82" y="-8" font-family="Helvetica,sans-Serif" font-size="10.00">DeletePieceAtLocation</text>
</g>
<!-- Node2 -->
<g id="node2" class="node"><title>Node2</title>
<g id="a_node2"><a xlink:href="../../d3/d55/classgamedata_1_1events_1_1globalaction_1_1_global_action.html" target="_top" xlink:title="gamedata.events.globalaction.\lGlobalAction">
<polygon fill="white" stroke="black" points="-0.5,-69 -0.5,-99 164.5,-99 164.5,-69 -0.5,-69"/>
<text text-anchor="start" x="7.5" y="-87" font-family="Helvetica,sans-Serif" font-size="10.00">gamedata.events.globalaction.</text>
<text text-anchor="middle" x="82" y="-76" font-family="Helvetica,sans-Serif" font-size="10.00">GlobalAction</text>
</a>
</g>
</g>
<!-- Node2&#45;&gt;Node1 -->
<g id="edge1" class="edge"><title>Node2&#45;&gt;Node1</title>
<path fill="none" stroke="midnightblue" d="M82,-58.5322C82,-49.3606 82,-39.2449 82,-31.2931"/>
<polygon fill="midnightblue" stroke="midnightblue" points="78.5001,-58.6789 82,-68.679 85.5001,-58.679 78.5001,-58.6789"/>
</g>
</g>
</svg>
