<?xml version="1.0" encoding="UTF-8" standalone="no"?>
<!DOCTYPE svg PUBLIC "-//W3C//DTD SVG 1.1//EN"
 "http://www.w3.org/Graphics/SVG/1.1/DTD/svg11.dtd">
<!-- Generated by graphviz version 2.36.0 (20140111.2315)
 -->
<!-- Title: authoring.concretefeatures.LibraryUnitEditor.LibraryUnitEditor Pages: 1 -->
<!--zoomable 283 -->
<svg id="main" version="1.1" xmlns="http://www.w3.org/2000/svg" xmlns:xlink="http://www.w3.org/1999/xlink" xml:space="preserve" onload="init(evt)">
<style type="text/css"><![CDATA[
.edge:hover path { stroke: red; }
.edge:hover polygon { stroke: red; fill: red; }
]]></style>
<script type="text/javascript"><![CDATA[
var edges = document.getElementsByTagName('g');
if (edges && edges.length) {
  for (var i=0;i<edges.length;i++) {
    if (edges[i].id.substr(0,4)=='edge') {
      edges[i].setAttribute('class','edge');
    }
  }
}
]]></script>
        <defs>
                <circle id="rim" cx="0" cy="0" r="7"/>
                <circle id="rim2" cx="0" cy="0" r="3.5"/>
                <g id="zoomPlus">
                        <use xlink:href="#rim" fill="#404040">
                                <set attributeName="fill" to="#808080" begin="zoomplus.mouseover" end="zoomplus.mouseout"/>
                        </use>
                        <path d="M-4,0h8M0,-4v8" fill="none" stroke="white" stroke-width="1.5" pointer-events="none"/>
                </g>
                <g id="zoomMin">
                        <use xlink:href="#rim" fill="#404040">
                                <set attributeName="fill" to="#808080" begin="zoomminus.mouseover" end="zoomminus.mouseout"/>
                        </use>
                        <path d="M-4,0h8" fill="none" stroke="white" stroke-width="1.5" pointer-events="none"/>
                </g>
                <g id="dirArrow">
                        <path fill="none" stroke="white" stroke-width="1.5" d="M0,-3.0v7 M-2.5,-0.5L0,-3.0L2.5,-0.5"/>
                </g>
               <g id="resetDef">
                       <use xlink:href="#rim2" fill="#404040">
                               <set attributeName="fill" to="#808080" begin="reset.mouseover" end="reset.mouseout"/>
                       </use>
               </g>
        </defs>

<script type="text/javascript">
var viewWidth = 614;
var viewHeight = 283;
var sectionId = 'dynsection-2';
</script>
<script xlink:href="../../svgpan.js"/>
<svg id="graph" class="graph">
<g id="viewport">
<title>authoring.concretefeatures.LibraryUnitEditor.LibraryUnitEditor</title>
<polygon fill="white" stroke="none" points="-4,4 -4,-279 610,-279 610,4 -4,4"/>
<!-- Node1 -->
<g id="node1" class="node"><title>Node1</title>
<polygon fill="#bfbfbf" stroke="black" points="0,-122 0,-152 178,-152 178,-122 0,-122"/>
<text text-anchor="start" x="8" y="-140" font-family="Helvetica,sans-Serif" font-size="10.00">authoring.concretefeatures.</text>
<text text-anchor="middle" x="89" y="-129" font-family="Helvetica,sans-Serif" font-size="10.00">LibraryUnitEditor.LibraryUnitEditor</text>
</g>
<!-- Node2 -->
<g id="node2" class="node"><title>Node2</title>
<g id="a_node2"><a xlink:href="../../d4/d63/classgamedata_1_1gamecomponents_1_1_piece.html#a5267ddb6515b05710a819e22b7e96073" target="_top" xlink:title="gamedata.gamecomponents.\lPiece.addAction">
<polygon fill="white" stroke="black" points="231,-245 231,-275 391,-275 391,-245 231,-245"/>
<text text-anchor="start" x="239" y="-263" font-family="Helvetica,sans-Serif" font-size="10.00">gamedata.gamecomponents.</text>
<text text-anchor="middle" x="311" y="-252" font-family="Helvetica,sans-Serif" font-size="10.00">Piece.addAction</text>
</a>
</g>
</g>
<!-- Node1&#45;&gt;Node2 -->
<g id="edge1" class="edge"><title>Node1&#45;&gt;Node2</title>
<path fill="none" stroke="midnightblue" d="M104.972,-152.325C126.924,-173.923 170.028,-213.116 214,-235 218.818,-237.398 223.891,-239.583 229.084,-241.571"/>
<polygon fill="midnightblue" stroke="midnightblue" points="227.937,-244.878 238.532,-244.942 230.289,-238.285 227.937,-244.878"/>
</g>
<!-- Node3 -->
<g id="node3" class="node"><title>Node3</title>
<g id="a_node3"><a xlink:href="../../d8/d6c/classauthoring_1_1concretefeatures_1_1_library_unit_editor.html#ad0195b287c254bea0d50a41df74fd1c2" target="_top" xlink:title="authoring.concretefeatures.\lLibraryUnitEditor.addSelectedActions">
<polygon fill="white" stroke="black" points="214,-196 214,-226 408,-226 408,-196 214,-196"/>
<text text-anchor="start" x="222" y="-214" font-family="Helvetica,sans-Serif" font-size="10.00">authoring.concretefeatures.</text>
<text text-anchor="middle" x="311" y="-203" font-family="Helvetica,sans-Serif" font-size="10.00">LibraryUnitEditor.addSelectedActions</text>
</a>
</g>
</g>
<!-- Node1&#45;&gt;Node3 -->
<g id="edge2" class="edge"><title>Node1&#45;&gt;Node3</title>
<path fill="none" stroke="midnightblue" d="M124.861,-152.093C149.485,-162.427 183.413,-176.015 214,-186 221.682,-188.508 229.773,-190.936 237.865,-193.23"/>
<polygon fill="midnightblue" stroke="midnightblue" points="237.138,-196.66 247.709,-195.958 239.007,-189.914 237.138,-196.66"/>
</g>
<!-- Node5 -->
<g id="node5" class="node"><title>Node5</title>
<g id="a_node5"><a xlink:href="../../d2/da6/classauthoring_1_1data_1_1_action_data.html#a24bc762fba66b9a4c37b81a0cefb288c" target="_top" xlink:title="authoring.data.ActionData.get\lActionNames">
<polygon fill="white" stroke="black" points="230,-147 230,-177 392,-177 392,-147 230,-147"/>
<text text-anchor="start" x="238" y="-165" font-family="Helvetica,sans-Serif" font-size="10.00">authoring.data.ActionData.get</text>
<text text-anchor="middle" x="311" y="-154" font-family="Helvetica,sans-Serif" font-size="10.00">ActionNames</text>
</a>
</g>
</g>
<!-- Node1&#45;&gt;Node5 -->
<g id="edge4" class="edge"><title>Node1&#45;&gt;Node5</title>
<path fill="none" stroke="midnightblue" d="M178.215,-147.024C191.971,-148.588 206.2,-150.205 219.995,-151.772"/>
<polygon fill="midnightblue" stroke="midnightblue" points="219.619,-155.252 229.95,-152.903 220.409,-148.297 219.619,-155.252"/>
</g>
<!-- Node6 -->
<g id="node6" class="node"><title>Node6</title>
<g id="a_node6"><a xlink:href="../../d4/d63/classgamedata_1_1gamecomponents_1_1_piece.html#a2d4c2a1ab97291dfe693a28f7a9e7915" target="_top" xlink:title="gamedata.gamecomponents.\lPiece.getActions">
<polygon fill="white" stroke="black" points="231,-98 231,-128 391,-128 391,-98 231,-98"/>
<text text-anchor="start" x="239" y="-116" font-family="Helvetica,sans-Serif" font-size="10.00">gamedata.gamecomponents.</text>
<text text-anchor="middle" x="311" y="-105" font-family="Helvetica,sans-Serif" font-size="10.00">Piece.getActions</text>
</a>
</g>
</g>
<!-- Node1&#45;&gt;Node6 -->
<g id="edge5" class="edge"><title>Node1&#45;&gt;Node6</title>
<path fill="none" stroke="midnightblue" d="M178.215,-127.377C192.163,-125.855 206.598,-124.28 220.573,-122.756"/>
<polygon fill="midnightblue" stroke="midnightblue" points="221.094,-126.22 230.655,-121.656 220.334,-119.261 221.094,-126.22"/>
</g>
<!-- Node8 -->
<g id="node8" class="node"><title>Node8</title>
<g id="a_node8"><a xlink:href="../../df/d26/classauthoring_1_1createedit_1_1_modules_list.html#a9aea540457ac1ee2828e0ede837952ee" target="_top" xlink:title="authoring.createedit.Modules\lList.getSelectedActions">
<polygon fill="white" stroke="black" points="232.5,-49 232.5,-79 389.5,-79 389.5,-49 232.5,-49"/>
<text text-anchor="start" x="240.5" y="-67" font-family="Helvetica,sans-Serif" font-size="10.00">authoring.createedit.Modules</text>
<text text-anchor="middle" x="311" y="-56" font-family="Helvetica,sans-Serif" font-size="10.00">List.getSelectedActions</text>
</a>
</g>
</g>
<!-- Node1&#45;&gt;Node8 -->
<g id="edge7" class="edge"><title>Node1&#45;&gt;Node8</title>
<path fill="none" stroke="midnightblue" d="M125.692,-121.931C150.261,-111.869 183.792,-98.7447 214,-89 221.834,-86.4728 230.09,-84.0178 238.336,-81.6961"/>
<polygon fill="midnightblue" stroke="midnightblue" points="239.276,-85.0676 247.986,-79.0356 237.415,-78.3193 239.276,-85.0676"/>
</g>
<!-- Node9 -->
<g id="node9" class="node"><title>Node9</title>
<g id="a_node9"><a xlink:href="../../d4/d63/classgamedata_1_1gamecomponents_1_1_piece.html#aff9c4298f1796f022bc82ee138e925a4" target="_top" xlink:title="gamedata.gamecomponents.\lPiece.getStats">
<polygon fill="white" stroke="black" points="231,-0 231,-30 391,-30 391,-0 231,-0"/>
<text text-anchor="start" x="239" y="-18" font-family="Helvetica,sans-Serif" font-size="10.00">gamedata.gamecomponents.</text>
<text text-anchor="middle" x="311" y="-7" font-family="Helvetica,sans-Serif" font-size="10.00">Piece.getStats</text>
</a>
</g>
</g>
<!-- Node1&#45;&gt;Node9 -->
<g id="edge8" class="edge"><title>Node1&#45;&gt;Node9</title>
<path fill="none" stroke="midnightblue" d="M105.004,-121.839C126.995,-100.471 170.146,-61.6889 214,-40 218.873,-37.5902 224.003,-35.3946 229.253,-33.397"/>
<polygon fill="midnightblue" stroke="midnightblue" points="230.548,-36.6515 238.804,-30.0117 228.209,-30.0537 230.548,-36.6515"/>
</g>
<!-- Node4 -->
<g id="node4" class="node"><title>Node4</title>
<g id="a_node4"><a xlink:href="../../d2/da6/classauthoring_1_1data_1_1_action_data.html#af66a8db8f87c010a94eda1b2a734092f" target="_top" xlink:title="authoring.data.ActionData.get\lAction">
<polygon fill="white" stroke="black" points="444,-196 444,-226 606,-226 606,-196 444,-196"/>
<text text-anchor="start" x="452" y="-214" font-family="Helvetica,sans-Serif" font-size="10.00">authoring.data.ActionData.get</text>
<text text-anchor="middle" x="525" y="-203" font-family="Helvetica,sans-Serif" font-size="10.00">Action</text>
</a>
</g>
</g>
<!-- Node3&#45;&gt;Node4 -->
<g id="edge3" class="edge"><title>Node3&#45;&gt;Node4</title>
<path fill="none" stroke="midnightblue" d="M408.075,-211C416.565,-211 425.141,-211 433.581,-211"/>
<polygon fill="midnightblue" stroke="midnightblue" points="433.795,-214.5 443.795,-211 433.795,-207.5 433.795,-214.5"/>
</g>
<!-- Node7 -->
<g id="node7" class="node"><title>Node7</title>
<g id="a_node7"><a xlink:href="../../d3/d8e/classgamedata_1_1gamecomponents_1_1_inventory.html#a0666419e3962ab4fc6d2b58293323e7e" target="_top" xlink:title="gamedata.gamecomponents.\lInventory.getItemActions">
<polygon fill="white" stroke="black" points="445,-98 445,-128 605,-128 605,-98 445,-98"/>
<text text-anchor="start" x="453" y="-116" font-family="Helvetica,sans-Serif" font-size="10.00">gamedata.gamecomponents.</text>
<text text-anchor="middle" x="525" y="-105" font-family="Helvetica,sans-Serif" font-size="10.00">Inventory.getItemActions</text>
</a>
</g>
</g>
<!-- Node6&#45;&gt;Node7 -->
<g id="edge6" class="edge"><title>Node6&#45;&gt;Node7</title>
<path fill="none" stroke="midnightblue" d="M391.242,-113C405.344,-113 420.121,-113 434.484,-113"/>
<polygon fill="midnightblue" stroke="midnightblue" points="434.854,-116.5 444.854,-113 434.854,-109.5 434.854,-116.5"/>
</g>
</g>
</svg>
        <g id="navigator" transform="translate(0 0)" fill="#404254">
                <rect fill="#f2f5e9" fill-opacity="0.5" stroke="#606060" stroke-width=".5" x="0" y="0" width="60" height="60"/>
                <use id="zoomplus" xlink:href="#zoomPlus" x="17" y="9" onmousedown="handleZoom(evt,'in')"/>
                <use id="zoomminus" xlink:href="#zoomMin" x="42" y="9" onmousedown="handleZoom(evt,'out')"/>
                <use id="reset" xlink:href="#resetDef" x="30" y="36" onmousedown="handleReset()"/>
                <g id="arrowUp" xlink:href="#dirArrow" transform="translate(30 24)" onmousedown="handlePan(0,-1)">
                  <use xlink:href="#rim" fill="#404040">
                        <set attributeName="fill" to="#808080" begin="arrowUp.mouseover" end="arrowUp.mouseout"/>
                  </use>
                  <path fill="none" stroke="white" stroke-width="1.5" d="M0,-3.0v7 M-2.5,-0.5L0,-3.0L2.5,-0.5"/>
                </g>
                <g id="arrowRight" xlink:href="#dirArrow" transform="rotate(90) translate(36 -43)" onmousedown="handlePan(1,0)">
                  <use xlink:href="#rim" fill="#404040">
                        <set attributeName="fill" to="#808080" begin="arrowRight.mouseover" end="arrowRight.mouseout"/>
                  </use>
                  <path fill="none" stroke="white" stroke-width="1.5" d="M0,-3.0v7 M-2.5,-0.5L0,-3.0L2.5,-0.5"/>
                </g>
                <g id="arrowDown" xlink:href="#dirArrow" transform="rotate(180) translate(-30 -48)" onmousedown="handlePan(0,1)">
                  <use xlink:href="#rim" fill="#404040">
                        <set attributeName="fill" to="#808080" begin="arrowDown.mouseover" end="arrowDown.mouseout"/>
                  </use>
                  <path fill="none" stroke="white" stroke-width="1.5" d="M0,-3.0v7 M-2.5,-0.5L0,-3.0L2.5,-0.5"/>
                </g>
                <g id="arrowLeft" xlink:href="#dirArrow" transform="rotate(270) translate(-36 17)" onmousedown="handlePan(-1,0)">
                  <use xlink:href="#rim" fill="#404040">
                        <set attributeName="fill" to="#808080" begin="arrowLeft.mouseover" end="arrowLeft.mouseout"/>
                  </use>
                  <path fill="none" stroke="white" stroke-width="1.5" d="M0,-3.0v7 M-2.5,-0.5L0,-3.0L2.5,-0.5"/>
                </g>
        </g>
        <svg viewBox="0 0 15 15" width="100%" height="30px" preserveAspectRatio="xMaxYMin meet">
         <g id="arrow_out" transform="scale(0.3 0.3)">
          <a xlink:href="classauthoring_1_1concretefeatures_1_1_library_unit_editor_adeb9a177c6883b70b936575c82f2642b_cgraph_org.svg" target="_base">
           <rect id="button" ry="5" rx="5" y="6" x="6" height="38" width="38"
                fill="#f2f5e9" fill-opacity="0.5" stroke="#606060" stroke-width="1.0"/>
           <path id="arrow"
             d="M 11.500037,31.436501 C 11.940474,20.09759 22.043105,11.32322 32.158766,21.979434 L 37.068811,17.246167 C 37.068811,17.246167 37.088388,32 37.088388,32 L 22.160133,31.978069 C 22.160133,31.978069 26.997745,27.140456 26.997745,27.140456 C 18.528582,18.264221 13.291696,25.230495 11.500037,31.436501 z"
             style="fill:#404040;"/>
          </a>
         </g>
        </svg>
</svg>
