<?xml version="1.0" encoding="UTF-8" standalone="no"?>
<!DOCTYPE svg PUBLIC "-//W3C//DTD SVG 1.1//EN"
 "http://www.w3.org/Graphics/SVG/1.1/DTD/svg11.dtd">
<!-- Generated by graphviz version 2.36.0 (20140111.2315)
 -->
<!-- Title: authoring.data.PatchInstanceData.remove Pages: 1 -->
<svg width="1738pt" height="176pt"
 viewBox="0.00 0.00 1738.00 176.00" xmlns="http://www.w3.org/2000/svg" xmlns:xlink="http://www.w3.org/1999/xlink">
<g id="graph0" class="graph" transform="scale(1 1) rotate(0) translate(4 172)">
<title>authoring.data.PatchInstanceData.remove</title>
<polygon fill="white" stroke="none" points="-4,4 -4,-172 1734,-172 1734,4 -4,4"/>
<!-- Node1 -->
<g id="node1" class="node"><title>Node1</title>
<polygon fill="#bfbfbf" stroke="black" points="0.5,-47 0.5,-77 157.5,-77 157.5,-47 0.5,-47"/>
<text text-anchor="start" x="8.5" y="-65" font-family="Helvetica,sans-Serif" font-size="10.00">authoring.data.PatchInstance</text>
<text text-anchor="middle" x="79" y="-54" font-family="Helvetica,sans-Serif" font-size="10.00">Data.remove</text>
</g>
<!-- Node2 -->
<g id="node2" class="node"><title>Node2</title>
<g id="a_node2"><a xlink:href="../../da/d4c/classauthoring__environment_1_1_g_u_i_grid.html#a2413204cbed4e6aae67dbb5ab1c55505" target="_top" xlink:title="authoring_environment.GUIGrid.remove\lPatch">
<polygon fill="white" stroke="black" points="194,-72 194,-102 402,-102 402,-72 194,-72"/>
<text text-anchor="start" x="202" y="-90" font-family="Helvetica,sans-Serif" font-size="10.00">authoring_environment.GUIGrid.remove</text>
<text text-anchor="middle" x="298" y="-79" font-family="Helvetica,sans-Serif" font-size="10.00">Patch</text>
</a>
</g>
</g>
<!-- Node1&#45;&gt;Node2 -->
<g id="edge1" class="edge"><title>Node1&#45;&gt;Node2</title>
<path fill="none" stroke="midnightblue" d="M167.689,-72.1024C176.256,-73.0894 185.002,-74.097 193.703,-75.0995"/>
<polygon fill="midnightblue" stroke="midnightblue" points="168.064,-68.6226 157.729,-70.955 167.263,-75.5766 168.064,-68.6226"/>
</g>
<!-- Node15 -->
<g id="node15" class="node"><title>Node15</title>
<g id="a_node15"><a xlink:href="../../d1/d4e/classauthoring__environment_1_1_shape_grid.html#a346b413d14259b0ba016b9140984b06f" target="_top" xlink:title="authoring_environment.Shape\lGrid.removeTerrain">
<polygon fill="white" stroke="black" points="217,-23 217,-53 379,-53 379,-23 217,-23"/>
<text text-anchor="start" x="225" y="-41" font-family="Helvetica,sans-Serif" font-size="10.00">authoring_environment.Shape</text>
<text text-anchor="middle" x="298" y="-30" font-family="Helvetica,sans-Serif" font-size="10.00">Grid.removeTerrain</text>
</a>
</g>
</g>
<!-- Node1&#45;&gt;Node15 -->
<g id="edge14" class="edge"><title>Node1&#45;&gt;Node15</title>
<path fill="none" stroke="midnightblue" d="M167.747,-52.2952C183.993,-50.4984 200.884,-48.6303 216.888,-46.8603"/>
<polygon fill="midnightblue" stroke="midnightblue" points="167.284,-48.8251 157.729,-53.4032 168.053,-55.7827 167.284,-48.8251"/>
</g>
<!-- Node3 -->
<g id="node3" class="node"><title>Node3</title>
<g id="a_node3"><a xlink:href="../../da/d4c/classauthoring__environment_1_1_g_u_i_grid.html#a7eab390461914d473383c90e9fb6e3b9" target="_top" xlink:title="authoring_environment.GUIGrid.remove\lPatchAtCoordinate">
<polygon fill="white" stroke="black" points="438,-72 438,-102 646,-102 646,-72 438,-72"/>
<text text-anchor="start" x="446" y="-90" font-family="Helvetica,sans-Serif" font-size="10.00">authoring_environment.GUIGrid.remove</text>
<text text-anchor="middle" x="542" y="-79" font-family="Helvetica,sans-Serif" font-size="10.00">PatchAtCoordinate</text>
</a>
</g>
</g>
<!-- Node2&#45;&gt;Node3 -->
<g id="edge2" class="edge"><title>Node2&#45;&gt;Node3</title>
<path fill="none" stroke="midnightblue" d="M412.515,-87C420.892,-87 429.317,-87 437.628,-87"/>
<polygon fill="midnightblue" stroke="midnightblue" points="412.332,-83.5001 402.332,-87 412.332,-90.5001 412.332,-83.5001"/>
</g>
<!-- Node4 -->
<g id="node4" class="node"><title>Node4</title>
<g id="a_node4"><a xlink:href="../../da/d4c/classauthoring__environment_1_1_g_u_i_grid.html#a964e976497a8a32ae8db18c037b8fac1" target="_top" xlink:title="authoring_environment.GUIGrid.add\lPatchAtLoc">
<polygon fill="white" stroke="black" points="682.5,-97 682.5,-127 871.5,-127 871.5,-97 682.5,-97"/>
<text text-anchor="start" x="690.5" y="-115" font-family="Helvetica,sans-Serif" font-size="10.00">authoring_environment.GUIGrid.add</text>
<text text-anchor="middle" x="777" y="-104" font-family="Helvetica,sans-Serif" font-size="10.00">PatchAtLoc</text>
</a>
</g>
</g>
<!-- Node3&#45;&gt;Node4 -->
<g id="edge3" class="edge"><title>Node3&#45;&gt;Node4</title>
<path fill="none" stroke="midnightblue" d="M656.416,-99.1692C665.126,-100.104 673.858,-101.041 682.419,-101.959"/>
<polygon fill="midnightblue" stroke="midnightblue" points="656.531,-95.6614 646.215,-98.0745 655.784,-102.621 656.531,-95.6614"/>
</g>
<!-- Node14 -->
<g id="node14" class="node"><title>Node14</title>
<g id="a_node14"><a xlink:href="../../d4/d3f/classfxml__main_1_1_patch_controller.html#a0a171a684c98c85bae1083e59444eac6" target="_top" xlink:title="fxml_main.PatchController.init\lGlobalDelBtn">
<polygon fill="white" stroke="black" points="698,-48 698,-78 856,-78 856,-48 698,-48"/>
<text text-anchor="start" x="706" y="-66" font-family="Helvetica,sans-Serif" font-size="10.00">fxml_main.PatchController.init</text>
<text text-anchor="middle" x="777" y="-55" font-family="Helvetica,sans-Serif" font-size="10.00">GlobalDelBtn</text>
</a>
</g>
</g>
<!-- Node3&#45;&gt;Node14 -->
<g id="edge13" class="edge"><title>Node3&#45;&gt;Node14</title>
<path fill="none" stroke="midnightblue" d="M656.376,-75.3218C670.362,-73.8812 684.408,-72.4344 697.707,-71.0646"/>
<polygon fill="midnightblue" stroke="midnightblue" points="655.803,-71.8622 646.215,-76.3684 656.521,-78.8253 655.803,-71.8622"/>
</g>
<!-- Node5 -->
<g id="node5" class="node"><title>Node5</title>
<g id="a_node5"><a xlink:href="../../d4/d3f/classfxml__main_1_1_patch_controller.html#a806919701c76bb361bf89e0815a76a96" target="_top" xlink:title="fxml_main.PatchController.make\lEntryBox">
<polygon fill="white" stroke="black" points="908.5,-121 908.5,-151 1079.5,-151 1079.5,-121 908.5,-121"/>
<text text-anchor="start" x="916.5" y="-139" font-family="Helvetica,sans-Serif" font-size="10.00">fxml_main.PatchController.make</text>
<text text-anchor="middle" x="994" y="-128" font-family="Helvetica,sans-Serif" font-size="10.00">EntryBox</text>
</a>
</g>
</g>
<!-- Node4&#45;&gt;Node5 -->
<g id="edge4" class="edge"><title>Node4&#45;&gt;Node5</title>
<path fill="none" stroke="midnightblue" d="M881.743,-123.581C890.684,-124.579 899.659,-125.581 908.422,-126.559"/>
<polygon fill="midnightblue" stroke="midnightblue" points="882.003,-120.088 871.677,-122.457 881.227,-127.045 882.003,-120.088"/>
</g>
<!-- Node6 -->
<g id="node6" class="node"><title>Node6</title>
<g id="a_node6"><a xlink:href="../../d3/d12/classtests_1_1_test_game_creator.html#a4c85cf768c7e38e9b2f6db858e8764ec" target="_top" xlink:title="tests.TestGameCreator.create\lNewGrid">
<polygon fill="white" stroke="black" points="913.5,-72 913.5,-102 1074.5,-102 1074.5,-72 913.5,-72"/>
<text text-anchor="start" x="921.5" y="-90" font-family="Helvetica,sans-Serif" font-size="10.00">tests.TestGameCreator.create</text>
<text text-anchor="middle" x="994" y="-79" font-family="Helvetica,sans-Serif" font-size="10.00">NewGrid</text>
</a>
</g>
</g>
<!-- Node4&#45;&gt;Node6 -->
<g id="edge5" class="edge"><title>Node4&#45;&gt;Node6</title>
<path fill="none" stroke="midnightblue" d="M881.831,-99.9266C892.452,-98.6916 903.121,-97.4511 913.422,-96.2533"/>
<polygon fill="midnightblue" stroke="midnightblue" points="881.205,-96.4757 871.677,-101.107 882.014,-103.429 881.205,-96.4757"/>
</g>
<!-- Node7 -->
<g id="node7" class="node"><title>Node7</title>
<g id="a_node7"><a xlink:href="../../d3/d12/classtests_1_1_test_game_creator.html#a6088501ec4cce8d90d4561b695065a0d" target="_top" xlink:title="tests.TestGameCreator.create\lNewGame">
<polygon fill="white" stroke="black" points="1116.5,-72 1116.5,-102 1277.5,-102 1277.5,-72 1116.5,-72"/>
<text text-anchor="start" x="1124.5" y="-90" font-family="Helvetica,sans-Serif" font-size="10.00">tests.TestGameCreator.create</text>
<text text-anchor="middle" x="1197" y="-79" font-family="Helvetica,sans-Serif" font-size="10.00">NewGame</text>
</a>
</g>
</g>
<!-- Node6&#45;&gt;Node7 -->
<g id="edge6" class="edge"><title>Node6&#45;&gt;Node7</title>
<path fill="none" stroke="midnightblue" d="M1084.76,-87C1095.3,-87 1105.99,-87 1116.37,-87"/>
<polygon fill="midnightblue" stroke="midnightblue" points="1084.73,-83.5001 1074.73,-87 1084.73,-90.5001 1084.73,-83.5001"/>
</g>
<!-- Node8 -->
<g id="node8" class="node"><title>Node8</title>
<g id="a_node8"><a xlink:href="../../d8/d93/classauthoring_1_1concretefeatures_1_1menus_1_1_file_x.html#a06eadcf7852f723bc5a70d08a1bc5f3f" target="_top" xlink:title="authoring.concretefeatures.menus.\lFileX.handleSave">
<polygon fill="white" stroke="black" points="1318,-138 1318,-168 1504,-168 1504,-138 1318,-138"/>
<text text-anchor="start" x="1326" y="-156" font-family="Helvetica,sans-Serif" font-size="10.00">authoring.concretefeatures.menus.</text>
<text text-anchor="middle" x="1411" y="-145" font-family="Helvetica,sans-Serif" font-size="10.00">FileX.handleSave</text>
</a>
</g>
</g>
<!-- Node7&#45;&gt;Node8 -->
<g id="edge7" class="edge"><title>Node7&#45;&gt;Node8</title>
<path fill="none" stroke="midnightblue" d="M1247.42,-105.509C1267.89,-112.904 1291.96,-121.249 1314,-128 1325.28,-131.455 1337.4,-134.852 1349.1,-137.973"/>
<polygon fill="midnightblue" stroke="midnightblue" points="1248.58,-102.207 1237.98,-102.077 1246.18,-108.785 1248.58,-102.207"/>
</g>
<!-- Node10 -->
<g id="node10" class="node"><title>Node10</title>
<g id="a_node10"><a xlink:href="../../df/dd5/classgame_player_1_1_view_controller.html#ac0350fa190876455755b7fb25f567af1" target="_top" xlink:title="gamePlayer.ViewController.testGame">
<polygon fill="white" stroke="black" points="1314,-99.5 1314,-118.5 1508,-118.5 1508,-99.5 1314,-99.5"/>
<text text-anchor="middle" x="1411" y="-106.5" font-family="Helvetica,sans-Serif" font-size="10.00">gamePlayer.ViewController.testGame</text>
</a>
</g>
</g>
<!-- Node7&#45;&gt;Node10 -->
<g id="edge9" class="edge"><title>Node7&#45;&gt;Node10</title>
<path fill="none" stroke="midnightblue" d="M1287.6,-96.2979C1297.74,-97.3499 1308.08,-98.4231 1318.24,-99.4778"/>
<polygon fill="midnightblue" stroke="midnightblue" points="1287.85,-92.8056 1277.54,-95.2546 1287.13,-99.7682 1287.85,-92.8056"/>
</g>
<!-- Node11 -->
<g id="node11" class="node"><title>Node11</title>
<g id="a_node11"><a xlink:href="../../d9/d51/classtests_1_1_global_action_tester.html#acc8e81a79086b93c043129dba02b3854" target="_top" xlink:title="tests.GlobalActionTester.\lGlobalActionTester">
<polygon fill="white" stroke="black" points="1344,-50 1344,-80 1478,-80 1478,-50 1344,-50"/>
<text text-anchor="start" x="1352" y="-68" font-family="Helvetica,sans-Serif" font-size="10.00">tests.GlobalActionTester.</text>
<text text-anchor="middle" x="1411" y="-57" font-family="Helvetica,sans-Serif" font-size="10.00">GlobalActionTester</text>
</a>
</g>
</g>
<!-- Node7&#45;&gt;Node11 -->
<g id="edge10" class="edge"><title>Node7&#45;&gt;Node11</title>
<path fill="none" stroke="midnightblue" d="M1287.63,-77.6989C1306.49,-75.7418 1326.05,-73.7113 1343.86,-71.8632"/>
<polygon fill="midnightblue" stroke="midnightblue" points="1287.13,-74.2318 1277.54,-78.7454 1287.85,-81.1944 1287.13,-74.2318"/>
</g>
<!-- Node12 -->
<g id="node12" class="node"><title>Node12</title>
<g id="a_node12"><a xlink:href="../../d7/df4/classtests_1_1_j_s_o_n_tester_main.html#a5f1fa68f3fcb37a473271cdbfeaaa92e" target="_top" xlink:title="tests.JSONTesterMain.test\lJSONwrite">
<polygon fill="white" stroke="black" points="1341,-1 1341,-31 1481,-31 1481,-1 1341,-1"/>
<text text-anchor="start" x="1349" y="-19" font-family="Helvetica,sans-Serif" font-size="10.00">tests.JSONTesterMain.test</text>
<text text-anchor="middle" x="1411" y="-8" font-family="Helvetica,sans-Serif" font-size="10.00">JSONwrite</text>
</a>
</g>
</g>
<!-- Node7&#45;&gt;Node12 -->
<g id="edge11" class="edge"><title>Node7&#45;&gt;Node12</title>
<path fill="none" stroke="midnightblue" d="M1242.11,-68.0284C1263.58,-59.1786 1289.89,-48.8854 1314,-41 1324.8,-37.466 1336.42,-34.0925 1347.71,-31.0317"/>
<polygon fill="midnightblue" stroke="midnightblue" points="1240.5,-64.9062 1232.62,-71.9791 1243.19,-71.3691 1240.5,-64.9062"/>
</g>
<!-- Node9 -->
<g id="node9" class="node"><title>Node9</title>
<g id="a_node9"><a xlink:href="../../d8/d93/classauthoring_1_1concretefeatures_1_1menus_1_1_file_x.html#a4b99e0877ab0c9e769217c815f3b99a1" target="_top" xlink:title="authoring.concretefeatures.menus.\lFileX.FileX">
<polygon fill="white" stroke="black" points="1544,-138 1544,-168 1730,-168 1730,-138 1544,-138"/>
<text text-anchor="start" x="1552" y="-156" font-family="Helvetica,sans-Serif" font-size="10.00">authoring.concretefeatures.menus.</text>
<text text-anchor="middle" x="1637" y="-145" font-family="Helvetica,sans-Serif" font-size="10.00">FileX.FileX</text>
</a>
</g>
</g>
<!-- Node8&#45;&gt;Node9 -->
<g id="edge8" class="edge"><title>Node8&#45;&gt;Node9</title>
<path fill="none" stroke="midnightblue" d="M1514.31,-153C1524.18,-153 1534.15,-153 1543.92,-153"/>
<polygon fill="midnightblue" stroke="midnightblue" points="1514.08,-149.5 1504.08,-153 1514.08,-156.5 1514.08,-149.5"/>
</g>
<!-- Node13 -->
<g id="node13" class="node"><title>Node13</title>
<g id="a_node13"><a xlink:href="../../d7/df4/classtests_1_1_j_s_o_n_tester_main.html#a931215da47157cbc5157c6a9df31ccd4" target="_top" xlink:title="tests.JSONTesterMain.main">
<polygon fill="white" stroke="black" points="1564,-6.5 1564,-25.5 1710,-25.5 1710,-6.5 1564,-6.5"/>
<text text-anchor="middle" x="1637" y="-13.5" font-family="Helvetica,sans-Serif" font-size="10.00">tests.JSONTesterMain.main</text>
</a>
</g>
</g>
<!-- Node12&#45;&gt;Node13 -->
<g id="edge12" class="edge"><title>Node12&#45;&gt;Node13</title>
<path fill="none" stroke="midnightblue" d="M1491.35,-16C1514.92,-16 1540.6,-16 1563.7,-16"/>
<polygon fill="midnightblue" stroke="midnightblue" points="1491.04,-12.5001 1481.04,-16 1491.04,-19.5001 1491.04,-12.5001"/>
</g>
</g>
</svg>
