<?xml version="1.0" encoding="UTF-8" standalone="no"?>
<!DOCTYPE svg PUBLIC "-//W3C//DTD SVG 1.1//EN"
 "http://www.w3.org/Graphics/SVG/1.1/DTD/svg11.dtd">
<!-- Generated by graphviz version 2.36.0 (20140111.2315)
 -->
<!-- Title: authoring.data.PatchInstanceData.replace Pages: 1 -->
<svg width="582pt" height="185pt"
 viewBox="0.00 0.00 582.00 185.00" xmlns="http://www.w3.org/2000/svg" xmlns:xlink="http://www.w3.org/1999/xlink">
<g id="graph0" class="graph" transform="scale(1 1) rotate(0) translate(4 181)">
<title>authoring.data.PatchInstanceData.replace</title>
<polygon fill="white" stroke="none" points="-4,4 -4,-181 578,-181 578,4 -4,4"/>
<!-- Node1 -->
<g id="node1" class="node"><title>Node1</title>
<polygon fill="#bfbfbf" stroke="black" points="0.5,-73 0.5,-103 157.5,-103 157.5,-73 0.5,-73"/>
<text text-anchor="start" x="8.5" y="-91" font-family="Helvetica,sans-Serif" font-size="10.00">authoring.data.PatchInstance</text>
<text text-anchor="middle" x="79" y="-80" font-family="Helvetica,sans-Serif" font-size="10.00">Data.replace</text>
</g>
<!-- Node2 -->
<g id="node2" class="node"><title>Node2</title>
<g id="a_node2"><a xlink:href="../../d9/df2/classgamedata_1_1gamecomponents_1_1_grid_component.html#afb88b190b2f6bc5a77e94b0306839476" target="_top" xlink:title="gamedata.gamecomponents.\lGridComponent.getImageLocation">
<polygon fill="white" stroke="black" points="194,-147 194,-177 376,-177 376,-147 194,-147"/>
<text text-anchor="start" x="202" y="-165" font-family="Helvetica,sans-Serif" font-size="10.00">gamedata.gamecomponents.</text>
<text text-anchor="middle" x="285" y="-154" font-family="Helvetica,sans-Serif" font-size="10.00">GridComponent.getImageLocation</text>
</a>
</g>
</g>
<!-- Node1&#45;&gt;Node2 -->
<g id="edge1" class="edge"><title>Node1&#45;&gt;Node2</title>
<path fill="none" stroke="midnightblue" d="M111.971,-103.12C134.573,-113.466 165.755,-127.058 194,-137 200.836,-139.406 208.027,-141.734 215.242,-143.938"/>
<polygon fill="midnightblue" stroke="midnightblue" points="214.481,-147.363 225.064,-146.861 216.478,-140.654 214.481,-147.363"/>
</g>
<!-- Node3 -->
<g id="node3" class="node"><title>Node3</title>
<g id="a_node3"><a xlink:href="../../d9/df2/classgamedata_1_1gamecomponents_1_1_grid_component.html#a919551a7769d8357902ae93decaf2ad1" target="_top" xlink:title="gamedata.gamecomponents.\lGridComponent.setImageLocation">
<polygon fill="white" stroke="black" points="194.5,-98 194.5,-128 375.5,-128 375.5,-98 194.5,-98"/>
<text text-anchor="start" x="202.5" y="-116" font-family="Helvetica,sans-Serif" font-size="10.00">gamedata.gamecomponents.</text>
<text text-anchor="middle" x="285" y="-105" font-family="Helvetica,sans-Serif" font-size="10.00">GridComponent.setImageLocation</text>
</a>
</g>
</g>
<!-- Node1&#45;&gt;Node3 -->
<g id="edge2" class="edge"><title>Node1&#45;&gt;Node3</title>
<path fill="none" stroke="midnightblue" d="M157.706,-97.5227C166.377,-98.5855 175.298,-99.6787 184.196,-100.769"/>
<polygon fill="midnightblue" stroke="midnightblue" points="183.867,-104.255 194.219,-101.997 184.719,-97.3069 183.867,-104.255"/>
</g>
<!-- Node5 -->
<g id="node5" class="node"><title>Node5</title>
<g id="a_node5"><a xlink:href="../../d9/df2/classgamedata_1_1gamecomponents_1_1_grid_component.html#acd1ac5f1fe1d366ecd6e09b572eaa4fc" target="_top" xlink:title="gamedata.gamecomponents.\lGridComponent.setName">
<polygon fill="white" stroke="black" points="205,-49 205,-79 365,-79 365,-49 205,-49"/>
<text text-anchor="start" x="213" y="-67" font-family="Helvetica,sans-Serif" font-size="10.00">gamedata.gamecomponents.</text>
<text text-anchor="middle" x="285" y="-56" font-family="Helvetica,sans-Serif" font-size="10.00">GridComponent.setName</text>
</a>
</g>
</g>
<!-- Node1&#45;&gt;Node5 -->
<g id="edge4" class="edge"><title>Node1&#45;&gt;Node5</title>
<path fill="none" stroke="midnightblue" d="M157.706,-78.8582C169.757,-77.4403 182.289,-75.966 194.574,-74.5207"/>
<polygon fill="midnightblue" stroke="midnightblue" points="195.297,-77.9599 204.819,-73.3154 194.479,-71.0079 195.297,-77.9599"/>
</g>
<!-- Node6 -->
<g id="node6" class="node"><title>Node6</title>
<g id="a_node6"><a xlink:href="../../dd/dc6/classgamedata_1_1gamecomponents_1_1_patch.html#afe2960a2f8ab420ef2f42baf360d9a96" target="_top" xlink:title="gamedata.gamecomponents.\lPatch.toString">
<polygon fill="white" stroke="black" points="205,-0 205,-30 365,-30 365,-0 205,-0"/>
<text text-anchor="start" x="213" y="-18" font-family="Helvetica,sans-Serif" font-size="10.00">gamedata.gamecomponents.</text>
<text text-anchor="middle" x="285" y="-7" font-family="Helvetica,sans-Serif" font-size="10.00">Patch.toString</text>
</a>
</g>
</g>
<!-- Node1&#45;&gt;Node6 -->
<g id="edge5" class="edge"><title>Node1&#45;&gt;Node6</title>
<path fill="none" stroke="midnightblue" d="M112.985,-72.7923C135.518,-62.7323 166.213,-49.665 194,-40 200.95,-37.5827 208.264,-35.2369 215.594,-33.0132"/>
<polygon fill="midnightblue" stroke="midnightblue" points="216.971,-36.2555 225.567,-30.0613 214.985,-29.5433 216.971,-36.2555"/>
</g>
<!-- Node4 -->
<g id="node4" class="node"><title>Node4</title>
<g id="a_node4"><a xlink:href="../../d9/df2/classgamedata_1_1gamecomponents_1_1_grid_component.html#a224e5aae28655f7e26ff73cbde7b0d99" target="_top" xlink:title="gamedata.gamecomponents.\lGridComponent.setImageView">
<polygon fill="white" stroke="black" points="412,-98 412,-128 574,-128 574,-98 412,-98"/>
<text text-anchor="start" x="420" y="-116" font-family="Helvetica,sans-Serif" font-size="10.00">gamedata.gamecomponents.</text>
<text text-anchor="middle" x="493" y="-105" font-family="Helvetica,sans-Serif" font-size="10.00">GridComponent.setImageView</text>
</a>
</g>
</g>
<!-- Node3&#45;&gt;Node4 -->
<g id="edge3" class="edge"><title>Node3&#45;&gt;Node4</title>
<path fill="none" stroke="midnightblue" d="M375.755,-113C384.405,-113 393.182,-113 401.836,-113"/>
<polygon fill="midnightblue" stroke="midnightblue" points="401.924,-116.5 411.924,-113 401.924,-109.5 401.924,-116.5"/>
</g>
</g>
</svg>
