<?xml version="1.0" encoding="UTF-8" standalone="no"?>
<!DOCTYPE svg PUBLIC "-//W3C//DTD SVG 1.1//EN"
 "http://www.w3.org/Graphics/SVG/1.1/DTD/svg11.dtd">
<!-- Generated by graphviz version 2.36.0 (20140111.2315)
 -->
<!-- Title: authoring.data.PieceInstanceData.replace Pages: 1 -->
<svg width="648pt" height="87pt"
 viewBox="0.00 0.00 648.00 87.00" xmlns="http://www.w3.org/2000/svg" xmlns:xlink="http://www.w3.org/1999/xlink">
<g id="graph0" class="graph" transform="scale(1 1) rotate(0) translate(4 83)">
<title>authoring.data.PieceInstanceData.replace</title>
<polygon fill="white" stroke="none" points="-4,4 -4,-83 644,-83 644,4 -4,4"/>
<!-- Node1 -->
<g id="node1" class="node"><title>Node1</title>
<polygon fill="#bfbfbf" stroke="black" points="0,-24 0,-54 156,-54 156,-24 0,-24"/>
<text text-anchor="start" x="8" y="-42" font-family="Helvetica,sans-Serif" font-size="10.00">authoring.data.PieceInstance</text>
<text text-anchor="middle" x="78" y="-31" font-family="Helvetica,sans-Serif" font-size="10.00">Data.replace</text>
</g>
<!-- Node2 -->
<g id="node2" class="node"><title>Node2</title>
<g id="a_node2"><a xlink:href="../../d6/dda/classauthoring_1_1data_1_1_piece_instance_data.html#a9d452975eccff8ca43eace79417818e5" target="_top" xlink:title="authoring.data.PieceInstance\lData.replace">
<polygon fill="white" stroke="black" points="217,-49 217,-79 373,-79 373,-49 217,-49"/>
<text text-anchor="start" x="225" y="-67" font-family="Helvetica,sans-Serif" font-size="10.00">authoring.data.PieceInstance</text>
<text text-anchor="middle" x="295" y="-56" font-family="Helvetica,sans-Serif" font-size="10.00">Data.replace</text>
</a>
</g>
</g>
<!-- Node1&#45;&gt;Node2 -->
<g id="edge1" class="edge"><title>Node1&#45;&gt;Node2</title>
<path fill="none" stroke="midnightblue" d="M166.319,-49.1534C183.037,-51.0973 200.43,-53.1198 216.802,-55.0235"/>
<polygon fill="midnightblue" stroke="midnightblue" points="166.35,-45.6335 156.013,-47.955 165.541,-52.5866 166.35,-45.6335"/>
</g>
<!-- Node3 -->
<g id="node3" class="node"><title>Node3</title>
<g id="a_node3"><a xlink:href="../../da/d4c/classauthoring__environment_1_1_g_u_i_grid.html#a7625da148c7c1d44969b0572071a1240" target="_top" xlink:title="authoring_environment.GUIGrid.replace\lPieceType">
<polygon fill="white" stroke="black" points="192,-0 192,-30 398,-30 398,-0 192,-0"/>
<text text-anchor="start" x="200" y="-18" font-family="Helvetica,sans-Serif" font-size="10.00">authoring_environment.GUIGrid.replace</text>
<text text-anchor="middle" x="295" y="-7" font-family="Helvetica,sans-Serif" font-size="10.00">PieceType</text>
</a>
</g>
</g>
<!-- Node1&#45;&gt;Node3 -->
<g id="edge2" class="edge"><title>Node1&#45;&gt;Node3</title>
<path fill="none" stroke="midnightblue" d="M166.158,-29.2708C174.557,-28.3332 183.128,-27.3764 191.655,-26.4245"/>
<polygon fill="midnightblue" stroke="midnightblue" points="165.563,-25.8154 156.013,-30.4032 166.339,-32.7722 165.563,-25.8154"/>
</g>
<!-- Node4 -->
<g id="node4" class="node"><title>Node4</title>
<g id="a_node4"><a xlink:href="../../da/d4c/classauthoring__environment_1_1_g_u_i_grid.html#a89d8eeee5ec72e145a2c60735013581e" target="_top" xlink:title="authoring_environment.GUIGrid.update">
<polygon fill="white" stroke="black" points="434.5,-5.5 434.5,-24.5 639.5,-24.5 639.5,-5.5 434.5,-5.5"/>
<text text-anchor="middle" x="537" y="-12.5" font-family="Helvetica,sans-Serif" font-size="10.00">authoring_environment.GUIGrid.update</text>
</a>
</g>
</g>
<!-- Node3&#45;&gt;Node4 -->
<g id="edge3" class="edge"><title>Node3&#45;&gt;Node4</title>
<path fill="none" stroke="midnightblue" d="M408.295,-15C416.985,-15 425.73,-15 434.345,-15"/>
<polygon fill="midnightblue" stroke="midnightblue" points="408.13,-11.5001 398.13,-15 408.13,-18.5001 408.13,-11.5001"/>
</g>
</g>
</svg>
