<?xml version="1.0" encoding="UTF-8" standalone="no"?>
<!DOCTYPE svg PUBLIC "-//W3C//DTD SVG 1.1//EN"
 "http://www.w3.org/Graphics/SVG/1.1/DTD/svg11.dtd">
<!-- Generated by graphviz version 2.36.0 (20140111.2315)
 -->
<!-- Title: authoring.data.PieceInstanceData.add Pages: 1 -->
<svg width="1326pt" height="300pt"
 viewBox="0.00 0.00 1326.00 300.00" xmlns="http://www.w3.org/2000/svg" xmlns:xlink="http://www.w3.org/1999/xlink">
<g id="graph0" class="graph" transform="scale(1 1) rotate(0) translate(4 296)">
<title>authoring.data.PieceInstanceData.add</title>
<polygon fill="white" stroke="none" points="-4,4 -4,-296 1322,-296 1322,4 -4,4"/>
<!-- Node1 -->
<g id="node1" class="node"><title>Node1</title>
<polygon fill="#bfbfbf" stroke="black" points="0,-95 0,-125 156,-125 156,-95 0,-95"/>
<text text-anchor="start" x="8" y="-113" font-family="Helvetica,sans-Serif" font-size="10.00">authoring.data.PieceInstance</text>
<text text-anchor="middle" x="78" y="-102" font-family="Helvetica,sans-Serif" font-size="10.00">Data.add</text>
</g>
<!-- Node2 -->
<g id="node2" class="node"><title>Node2</title>
<g id="a_node2"><a xlink:href="../../da/d4c/classauthoring__environment_1_1_g_u_i_grid.html#a064e421c8d8d0268bb7d1db7e66590b5" target="_top" xlink:title="authoring_environment.GUIGrid.add\lPieceAtLoc">
<polygon fill="white" stroke="black" points="192.5,-188 192.5,-218 381.5,-218 381.5,-188 192.5,-188"/>
<text text-anchor="start" x="200.5" y="-206" font-family="Helvetica,sans-Serif" font-size="10.00">authoring_environment.GUIGrid.add</text>
<text text-anchor="middle" x="287" y="-195" font-family="Helvetica,sans-Serif" font-size="10.00">PieceAtLoc</text>
</a>
</g>
</g>
<!-- Node1&#45;&gt;Node2 -->
<g id="edge1" class="edge"><title>Node1&#45;&gt;Node2</title>
<path fill="none" stroke="midnightblue" d="M122.159,-129.39C160.845,-146.771 216.815,-171.917 252.296,-187.857"/>
<polygon fill="midnightblue" stroke="midnightblue" points="123.275,-126.055 112.719,-125.149 120.406,-132.44 123.275,-126.055"/>
</g>
<!-- Node12 -->
<g id="node12" class="node"><title>Node12</title>
<g id="a_node12"><a xlink:href="../../d7/df4/classtests_1_1_j_s_o_n_tester_main.html#a5f1fa68f3fcb37a473271cdbfeaaa92e" target="_top" xlink:title="tests.JSONTesterMain.test\lJSONwrite">
<polygon fill="white" stroke="black" points="929,-115 929,-145 1069,-145 1069,-115 929,-115"/>
<text text-anchor="start" x="937" y="-133" font-family="Helvetica,sans-Serif" font-size="10.00">tests.JSONTesterMain.test</text>
<text text-anchor="middle" x="999" y="-122" font-family="Helvetica,sans-Serif" font-size="10.00">JSONwrite</text>
</a>
</g>
</g>
<!-- Node1&#45;&gt;Node12 -->
<g id="edge18" class="edge"><title>Node1&#45;&gt;Node12</title>
<path fill="none" stroke="midnightblue" d="M166.219,-111.898C347.941,-115.853 763.892,-124.905 928.803,-128.494"/>
<polygon fill="midnightblue" stroke="midnightblue" points="166.24,-108.398 156.167,-111.679 166.088,-115.396 166.24,-108.398"/>
</g>
<!-- Node14 -->
<g id="node14" class="node"><title>Node14</title>
<g id="a_node14"><a xlink:href="../../d1/d4e/classauthoring__environment_1_1_shape_grid.html#aace6e6745e4866e0f7956f0cfe25ca3d" target="_top" xlink:title="authoring_environment.Shape\lGrid.addUnit">
<polygon fill="white" stroke="black" points="206,-73 206,-103 368,-103 368,-73 206,-73"/>
<text text-anchor="start" x="214" y="-91" font-family="Helvetica,sans-Serif" font-size="10.00">authoring_environment.Shape</text>
<text text-anchor="middle" x="287" y="-80" font-family="Helvetica,sans-Serif" font-size="10.00">Grid.addUnit</text>
</a>
</g>
</g>
<!-- Node1&#45;&gt;Node14 -->
<g id="edge13" class="edge"><title>Node1&#45;&gt;Node14</title>
<path fill="none" stroke="midnightblue" d="M166.056,-100.748C179.214,-99.3493 192.736,-97.9121 205.742,-96.5299"/>
<polygon fill="midnightblue" stroke="midnightblue" points="165.653,-97.2707 156.079,-101.808 166.393,-104.231 165.653,-97.2707"/>
</g>
<!-- Node15 -->
<g id="node15" class="node"><title>Node15</title>
<g id="a_node15"><a xlink:href="../../d6/dda/classauthoring_1_1data_1_1_piece_instance_data.html#a7cbf87663bb41bf86f47f48b3af5450b" target="_top" xlink:title="authoring.data.PieceInstance\lData.replace">
<polygon fill="white" stroke="black" points="209,-24 209,-54 365,-54 365,-24 209,-24"/>
<text text-anchor="start" x="217" y="-42" font-family="Helvetica,sans-Serif" font-size="10.00">authoring.data.PieceInstance</text>
<text text-anchor="middle" x="287" y="-31" font-family="Helvetica,sans-Serif" font-size="10.00">Data.replace</text>
</a>
</g>
</g>
<!-- Node1&#45;&gt;Node15 -->
<g id="edge14" class="edge"><title>Node1&#45;&gt;Node15</title>
<path fill="none" stroke="midnightblue" d="M120.946,-90.8566C141.998,-81.6866 168.055,-70.9901 192,-63 201.586,-59.8012 211.842,-56.7835 221.928,-54.0377"/>
<polygon fill="midnightblue" stroke="midnightblue" points="119.394,-87.7155 111.652,-94.9472 122.214,-94.1224 119.394,-87.7155"/>
</g>
<!-- Node3 -->
<g id="node3" class="node"><title>Node3</title>
<g id="a_node3"><a xlink:href="../../dc/d77/classfxml__main_1_1_piece_controller.html#a57d25cb33125e10494c536f9fbce1434" target="_top" xlink:title="fxml_main.PieceController.make\lEntryBox">
<polygon fill="white" stroke="black" points="436,-262 436,-292 606,-292 606,-262 436,-262"/>
<text text-anchor="start" x="444" y="-280" font-family="Helvetica,sans-Serif" font-size="10.00">fxml_main.PieceController.make</text>
<text text-anchor="middle" x="521" y="-269" font-family="Helvetica,sans-Serif" font-size="10.00">EntryBox</text>
</a>
</g>
</g>
<!-- Node2&#45;&gt;Node3 -->
<g id="edge2" class="edge"><title>Node2&#45;&gt;Node3</title>
<path fill="none" stroke="midnightblue" d="M333.768,-221.79C358.467,-231.538 389.627,-243.21 418,-252 429.407,-255.534 441.655,-258.896 453.566,-261.943"/>
<polygon fill="midnightblue" stroke="midnightblue" points="334.881,-218.466 324.296,-218.021 332.293,-224.97 334.881,-218.466"/>
</g>
<!-- Node4 -->
<g id="node4" class="node"><title>Node4</title>
<g id="a_node4"><a xlink:href="../../d1/d90/classgamedata_1_1events_1_1globalaction_1_1_make_piece_at_location.html#a2e5e6942db2fced94205f89f25aa859a" target="_top" xlink:title="gamedata.events.globalaction.\lMakePieceAtLocation.doBehavior">
<polygon fill="white" stroke="black" points="433,-213 433,-243 609,-243 609,-213 433,-213"/>
<text text-anchor="start" x="441" y="-231" font-family="Helvetica,sans-Serif" font-size="10.00">gamedata.events.globalaction.</text>
<text text-anchor="middle" x="521" y="-220" font-family="Helvetica,sans-Serif" font-size="10.00">MakePieceAtLocation.doBehavior</text>
</a>
</g>
</g>
<!-- Node2&#45;&gt;Node4 -->
<g id="edge3" class="edge"><title>Node2&#45;&gt;Node4</title>
<path fill="none" stroke="midnightblue" d="M392.032,-214.21C405.623,-215.675 419.435,-217.163 432.712,-218.594"/>
<polygon fill="midnightblue" stroke="midnightblue" points="392.012,-210.688 381.695,-213.096 391.262,-217.648 392.012,-210.688"/>
</g>
<!-- Node6 -->
<g id="node6" class="node"><title>Node6</title>
<g id="a_node6"><a xlink:href="../../d3/d12/classtests_1_1_test_game_creator.html#a4c85cf768c7e38e9b2f6db858e8764ec" target="_top" xlink:title="tests.TestGameCreator.create\lNewGrid">
<polygon fill="white" stroke="black" points="440.5,-164 440.5,-194 601.5,-194 601.5,-164 440.5,-164"/>
<text text-anchor="start" x="448.5" y="-182" font-family="Helvetica,sans-Serif" font-size="10.00">tests.TestGameCreator.create</text>
<text text-anchor="middle" x="521" y="-171" font-family="Helvetica,sans-Serif" font-size="10.00">NewGrid</text>
</a>
</g>
</g>
<!-- Node2&#45;&gt;Node6 -->
<g id="edge5" class="edge"><title>Node2&#45;&gt;Node6</title>
<path fill="none" stroke="midnightblue" d="M391.811,-192.261C408.145,-190.571 424.806,-188.848 440.477,-187.227"/>
<polygon fill="midnightblue" stroke="midnightblue" points="391.281,-188.797 381.695,-193.307 392.002,-195.76 391.281,-188.797"/>
</g>
<!-- Node5 -->
<g id="node5" class="node"><title>Node5</title>
<g id="a_node5"><a xlink:href="../../d9/d51/classtests_1_1_global_action_tester.html#a26ff5051aca4e703848f88b149cfef39" target="_top" xlink:title="tests.GlobalActionTester.\lTestCreatePiece">
<polygon fill="white" stroke="black" points="696,-213 696,-243 830,-243 830,-213 696,-213"/>
<text text-anchor="start" x="704" y="-231" font-family="Helvetica,sans-Serif" font-size="10.00">tests.GlobalActionTester.</text>
<text text-anchor="middle" x="763" y="-220" font-family="Helvetica,sans-Serif" font-size="10.00">TestCreatePiece</text>
</a>
</g>
</g>
<!-- Node4&#45;&gt;Node5 -->
<g id="edge4" class="edge"><title>Node4&#45;&gt;Node5</title>
<path fill="none" stroke="midnightblue" d="M619.459,-228C645.127,-228 672.223,-228 695.817,-228"/>
<polygon fill="midnightblue" stroke="midnightblue" points="619.324,-224.5 609.324,-228 619.324,-231.5 619.324,-224.5"/>
</g>
<!-- Node7 -->
<g id="node7" class="node"><title>Node7</title>
<g id="a_node7"><a xlink:href="../../d3/d12/classtests_1_1_test_game_creator.html#a6088501ec4cce8d90d4561b695065a0d" target="_top" xlink:title="tests.TestGameCreator.create\lNewGame">
<polygon fill="white" stroke="black" points="682.5,-164 682.5,-194 843.5,-194 843.5,-164 682.5,-164"/>
<text text-anchor="start" x="690.5" y="-182" font-family="Helvetica,sans-Serif" font-size="10.00">tests.TestGameCreator.create</text>
<text text-anchor="middle" x="763" y="-171" font-family="Helvetica,sans-Serif" font-size="10.00">NewGame</text>
</a>
</g>
</g>
<!-- Node6&#45;&gt;Node7 -->
<g id="edge6" class="edge"><title>Node6&#45;&gt;Node7</title>
<path fill="none" stroke="midnightblue" d="M611.739,-179C634.88,-179 659.627,-179 682.223,-179"/>
<polygon fill="midnightblue" stroke="midnightblue" points="611.583,-175.5 601.583,-179 611.583,-182.5 611.583,-175.5"/>
</g>
<!-- Node8 -->
<g id="node8" class="node"><title>Node8</title>
<g id="a_node8"><a xlink:href="../../d8/d93/classauthoring_1_1concretefeatures_1_1menus_1_1_file_x.html#a06eadcf7852f723bc5a70d08a1bc5f3f" target="_top" xlink:title="authoring.concretefeatures.menus.\lFileX.handleSave">
<polygon fill="white" stroke="black" points="906,-252 906,-282 1092,-282 1092,-252 906,-252"/>
<text text-anchor="start" x="914" y="-270" font-family="Helvetica,sans-Serif" font-size="10.00">authoring.concretefeatures.menus.</text>
<text text-anchor="middle" x="999" y="-259" font-family="Helvetica,sans-Serif" font-size="10.00">FileX.handleSave</text>
</a>
</g>
</g>
<!-- Node7&#45;&gt;Node8 -->
<g id="edge7" class="edge"><title>Node7&#45;&gt;Node8</title>
<path fill="none" stroke="midnightblue" d="M853.068,-197.483C857.541,-199.442 861.882,-201.607 866,-204 886.115,-215.688 881.97,-230.167 902,-242 908.524,-245.854 915.642,-249.122 922.956,-251.891"/>
<polygon fill="midnightblue" stroke="midnightblue" points="854.31,-194.211 843.726,-193.746 851.71,-200.71 854.31,-194.211"/>
</g>
<!-- Node10 -->
<g id="node10" class="node"><title>Node10</title>
<g id="a_node10"><a xlink:href="../../df/dd5/classgame_player_1_1_view_controller.html#ac0350fa190876455755b7fb25f567af1" target="_top" xlink:title="gamePlayer.ViewController.testGame">
<polygon fill="white" stroke="black" points="902,-213.5 902,-232.5 1096,-232.5 1096,-213.5 902,-213.5"/>
<text text-anchor="middle" x="999" y="-220.5" font-family="Helvetica,sans-Serif" font-size="10.00">gamePlayer.ViewController.testGame</text>
</a>
</g>
</g>
<!-- Node7&#45;&gt;Node10 -->
<g id="edge9" class="edge"><title>Node7&#45;&gt;Node10</title>
<path fill="none" stroke="midnightblue" d="M853.727,-195.872C885.421,-201.831 919.943,-208.323 947.269,-213.461"/>
<polygon fill="midnightblue" stroke="midnightblue" points="854.023,-192.366 843.548,-193.958 852.729,-199.246 854.023,-192.366"/>
</g>
<!-- Node11 -->
<g id="node11" class="node"><title>Node11</title>
<g id="a_node11"><a xlink:href="../../d9/d51/classtests_1_1_global_action_tester.html#acc8e81a79086b93c043129dba02b3854" target="_top" xlink:title="tests.GlobalActionTester.\lGlobalActionTester">
<polygon fill="white" stroke="black" points="932,-164 932,-194 1066,-194 1066,-164 932,-164"/>
<text text-anchor="start" x="940" y="-182" font-family="Helvetica,sans-Serif" font-size="10.00">tests.GlobalActionTester.</text>
<text text-anchor="middle" x="999" y="-171" font-family="Helvetica,sans-Serif" font-size="10.00">GlobalActionTester</text>
</a>
</g>
</g>
<!-- Node7&#45;&gt;Node11 -->
<g id="edge10" class="edge"><title>Node7&#45;&gt;Node11</title>
<path fill="none" stroke="midnightblue" d="M853.782,-179C879.765,-179 907.643,-179 931.897,-179"/>
<polygon fill="midnightblue" stroke="midnightblue" points="853.548,-175.5 843.548,-179 853.548,-182.5 853.548,-175.5"/>
</g>
<!-- Node7&#45;&gt;Node12 -->
<g id="edge11" class="edge"><title>Node7&#45;&gt;Node12</title>
<path fill="none" stroke="midnightblue" d="M845.647,-161.903C872.757,-156.226 902.661,-149.964 928.745,-144.502"/>
<polygon fill="midnightblue" stroke="midnightblue" points="844.868,-158.49 835.798,-163.965 846.303,-165.341 844.868,-158.49"/>
</g>
<!-- Node9 -->
<g id="node9" class="node"><title>Node9</title>
<g id="a_node9"><a xlink:href="../../d8/d93/classauthoring_1_1concretefeatures_1_1menus_1_1_file_x.html#a4b99e0877ab0c9e769217c815f3b99a1" target="_top" xlink:title="authoring.concretefeatures.menus.\lFileX.FileX">
<polygon fill="white" stroke="black" points="1132,-252 1132,-282 1318,-282 1318,-252 1132,-252"/>
<text text-anchor="start" x="1140" y="-270" font-family="Helvetica,sans-Serif" font-size="10.00">authoring.concretefeatures.menus.</text>
<text text-anchor="middle" x="1225" y="-259" font-family="Helvetica,sans-Serif" font-size="10.00">FileX.FileX</text>
</a>
</g>
</g>
<!-- Node8&#45;&gt;Node9 -->
<g id="edge8" class="edge"><title>Node8&#45;&gt;Node9</title>
<path fill="none" stroke="midnightblue" d="M1102.31,-267C1112.18,-267 1122.15,-267 1131.92,-267"/>
<polygon fill="midnightblue" stroke="midnightblue" points="1102.08,-263.5 1092.08,-267 1102.08,-270.5 1102.08,-263.5"/>
</g>
<!-- Node13 -->
<g id="node13" class="node"><title>Node13</title>
<g id="a_node13"><a xlink:href="../../d7/df4/classtests_1_1_j_s_o_n_tester_main.html#a931215da47157cbc5157c6a9df31ccd4" target="_top" xlink:title="tests.JSONTesterMain.main">
<polygon fill="white" stroke="black" points="1152,-120.5 1152,-139.5 1298,-139.5 1298,-120.5 1152,-120.5"/>
<text text-anchor="middle" x="1225" y="-127.5" font-family="Helvetica,sans-Serif" font-size="10.00">tests.JSONTesterMain.main</text>
</a>
</g>
</g>
<!-- Node12&#45;&gt;Node13 -->
<g id="edge12" class="edge"><title>Node12&#45;&gt;Node13</title>
<path fill="none" stroke="midnightblue" d="M1079.35,-130C1102.92,-130 1128.6,-130 1151.7,-130"/>
<polygon fill="midnightblue" stroke="midnightblue" points="1079.04,-126.5 1069.04,-130 1079.04,-133.5 1079.04,-126.5"/>
</g>
<!-- Node16 -->
<g id="node16" class="node"><title>Node16</title>
<g id="a_node16"><a xlink:href="../../d6/dda/classauthoring_1_1data_1_1_piece_instance_data.html#a9d452975eccff8ca43eace79417818e5" target="_top" xlink:title="authoring.data.PieceInstance\lData.replace">
<polygon fill="white" stroke="black" points="443,-49 443,-79 599,-79 599,-49 443,-49"/>
<text text-anchor="start" x="451" y="-67" font-family="Helvetica,sans-Serif" font-size="10.00">authoring.data.PieceInstance</text>
<text text-anchor="middle" x="521" y="-56" font-family="Helvetica,sans-Serif" font-size="10.00">Data.replace</text>
</a>
</g>
</g>
<!-- Node15&#45;&gt;Node16 -->
<g id="edge15" class="edge"><title>Node15&#45;&gt;Node16</title>
<path fill="none" stroke="midnightblue" d="M375.309,-48.4083C397.451,-50.7943 421.082,-53.3407 442.689,-55.6691"/>
<polygon fill="midnightblue" stroke="midnightblue" points="375.57,-44.9163 365.253,-47.3246 374.82,-51.876 375.57,-44.9163"/>
</g>
<!-- Node17 -->
<g id="node17" class="node"><title>Node17</title>
<g id="a_node17"><a xlink:href="../../da/d4c/classauthoring__environment_1_1_g_u_i_grid.html#a7625da148c7c1d44969b0572071a1240" target="_top" xlink:title="authoring_environment.GUIGrid.replace\lPieceType">
<polygon fill="white" stroke="black" points="418,-0 418,-30 624,-30 624,-0 418,-0"/>
<text text-anchor="start" x="426" y="-18" font-family="Helvetica,sans-Serif" font-size="10.00">authoring_environment.GUIGrid.replace</text>
<text text-anchor="middle" x="521" y="-7" font-family="Helvetica,sans-Serif" font-size="10.00">PieceType</text>
</a>
</g>
</g>
<!-- Node15&#45;&gt;Node17 -->
<g id="edge16" class="edge"><title>Node15&#45;&gt;Node17</title>
<path fill="none" stroke="midnightblue" d="M375.268,-29.9723C389.182,-28.5329 403.684,-27.0327 417.904,-25.5617"/>
<polygon fill="midnightblue" stroke="midnightblue" points="374.839,-26.4978 365.253,-31.0083 375.56,-33.4607 374.839,-26.4978"/>
</g>
<!-- Node18 -->
<g id="node18" class="node"><title>Node18</title>
<g id="a_node18"><a xlink:href="../../da/d4c/classauthoring__environment_1_1_g_u_i_grid.html#a89d8eeee5ec72e145a2c60735013581e" target="_top" xlink:title="authoring_environment.GUIGrid.update">
<polygon fill="white" stroke="black" points="660.5,-5.5 660.5,-24.5 865.5,-24.5 865.5,-5.5 660.5,-5.5"/>
<text text-anchor="middle" x="763" y="-12.5" font-family="Helvetica,sans-Serif" font-size="10.00">authoring_environment.GUIGrid.update</text>
</a>
</g>
</g>
<!-- Node17&#45;&gt;Node18 -->
<g id="edge17" class="edge"><title>Node17&#45;&gt;Node18</title>
<path fill="none" stroke="midnightblue" d="M634.295,-15C642.985,-15 651.73,-15 660.345,-15"/>
<polygon fill="midnightblue" stroke="midnightblue" points="634.13,-11.5001 624.13,-15 634.13,-18.5001 634.13,-11.5001"/>
</g>
</g>
</svg>
