<?xml version="1.0" encoding="UTF-8" standalone="no"?>
<!DOCTYPE svg PUBLIC "-//W3C//DTD SVG 1.1//EN"
 "http://www.w3.org/Graphics/SVG/1.1/DTD/svg11.dtd">
<!-- Generated by graphviz version 2.36.0 (20140111.2315)
 -->
<!-- Title: authoring.data.PieceInstanceData.remove Pages: 1 -->
<!--zoomable 519 -->
<svg id="main" version="1.1" xmlns="http://www.w3.org/2000/svg" xmlns:xlink="http://www.w3.org/1999/xlink" xml:space="preserve" onload="init(evt)">
<style type="text/css"><![CDATA[
.edge:hover path { stroke: red; }
.edge:hover polygon { stroke: red; fill: red; }
]]></style>
<script type="text/javascript"><![CDATA[
var edges = document.getElementsByTagName('g');
if (edges && edges.length) {
  for (var i=0;i<edges.length;i++) {
    if (edges[i].id.substr(0,4)=='edge') {
      edges[i].setAttribute('class','edge');
    }
  }
}
]]></script>
        <defs>
                <circle id="rim" cx="0" cy="0" r="7"/>
                <circle id="rim2" cx="0" cy="0" r="3.5"/>
                <g id="zoomPlus">
                        <use xlink:href="#rim" fill="#404040">
                                <set attributeName="fill" to="#808080" begin="zoomplus.mouseover" end="zoomplus.mouseout"/>
                        </use>
                        <path d="M-4,0h8M0,-4v8" fill="none" stroke="white" stroke-width="1.5" pointer-events="none"/>
                </g>
                <g id="zoomMin">
                        <use xlink:href="#rim" fill="#404040">
                                <set attributeName="fill" to="#808080" begin="zoomminus.mouseover" end="zoomminus.mouseout"/>
                        </use>
                        <path d="M-4,0h8" fill="none" stroke="white" stroke-width="1.5" pointer-events="none"/>
                </g>
                <g id="dirArrow">
                        <path fill="none" stroke="white" stroke-width="1.5" d="M0,-3.0v7 M-2.5,-0.5L0,-3.0L2.5,-0.5"/>
                </g>
               <g id="resetDef">
                       <use xlink:href="#rim2" fill="#404040">
                               <set attributeName="fill" to="#808080" begin="reset.mouseover" end="reset.mouseout"/>
                       </use>
               </g>
        </defs>

<script type="text/javascript">
var viewWidth = 2438;
var viewHeight = 519;
var sectionId = 'dynsection-5';
</script>
<script xlink:href="../../svgpan.js"/>
<svg id="graph" class="graph">
<g id="viewport">
<title>authoring.data.PieceInstanceData.remove</title>
<polygon fill="white" stroke="none" points="-4,4 -4,-515 2434,-515 2434,4 -4,4"/>
<!-- Node1 -->
<g id="node1" class="node"><title>Node1</title>
<polygon fill="#bfbfbf" stroke="black" points="0,-215 0,-245 156,-245 156,-215 0,-215"/>
<text text-anchor="start" x="8" y="-233" font-family="Helvetica,sans-Serif" font-size="10.00">authoring.data.PieceInstance</text>
<text text-anchor="middle" x="78" y="-222" font-family="Helvetica,sans-Serif" font-size="10.00">Data.remove</text>
</g>
<!-- Node2 -->
<g id="node2" class="node"><title>Node2</title>
<g id="a_node2"><a xlink:href="../../da/d4c/classauthoring__environment_1_1_g_u_i_grid.html#a53382a0de9f44f0642c3c9c5b009e613" target="_top" xlink:title="authoring_environment.GUIGrid.remove\lPiece">
<polygon fill="white" stroke="black" points="192,-240 192,-270 400,-270 400,-240 192,-240"/>
<text text-anchor="start" x="200" y="-258" font-family="Helvetica,sans-Serif" font-size="10.00">authoring_environment.GUIGrid.remove</text>
<text text-anchor="middle" x="296" y="-247" font-family="Helvetica,sans-Serif" font-size="10.00">Piece</text>
</a>
</g>
</g>
<!-- Node1&#45;&gt;Node2 -->
<g id="edge1" class="edge"><title>Node1&#45;&gt;Node2</title>
<path fill="none" stroke="midnightblue" d="M166.269,-240.101C174.717,-241.078 183.34,-242.076 191.923,-243.07"/>
<polygon fill="midnightblue" stroke="midnightblue" points="166.402,-236.593 156.066,-238.92 165.597,-243.546 166.402,-236.593"/>
</g>
<!-- Node42 -->
<g id="node42" class="node"><title>Node42</title>
<g id="a_node42"><a xlink:href="../../d1/d4e/classauthoring__environment_1_1_shape_grid.html#a7e3a1516b6458894a70e54a5ff4ccfd0" target="_top" xlink:title="authoring_environment.Shape\lGrid.removeUnit">
<polygon fill="white" stroke="black" points="215,-191 215,-221 377,-221 377,-191 215,-191"/>
<text text-anchor="start" x="223" y="-209" font-family="Helvetica,sans-Serif" font-size="10.00">authoring_environment.Shape</text>
<text text-anchor="middle" x="296" y="-198" font-family="Helvetica,sans-Serif" font-size="10.00">Grid.removeUnit</text>
</a>
</g>
</g>
<!-- Node1&#45;&gt;Node42 -->
<g id="edge44" class="edge"><title>Node1&#45;&gt;Node42</title>
<path fill="none" stroke="midnightblue" d="M166.44,-220.284C182.386,-218.513 198.952,-216.672 214.679,-214.925"/>
<polygon fill="midnightblue" stroke="midnightblue" points="165.618,-216.854 156.066,-221.437 166.392,-223.811 165.618,-216.854"/>
</g>
<!-- Node3 -->
<g id="node3" class="node"><title>Node3</title>
<g id="a_node3"><a xlink:href="../../da/d4c/classauthoring__environment_1_1_g_u_i_grid.html#afe59bd9dfeddc383a541f50fda3e647a" target="_top" xlink:title="authoring_environment.GUIGrid.remove\lPieceAtCoordinate">
<polygon fill="white" stroke="black" points="436,-278 436,-308 644,-308 644,-278 436,-278"/>
<text text-anchor="start" x="444" y="-296" font-family="Helvetica,sans-Serif" font-size="10.00">authoring_environment.GUIGrid.remove</text>
<text text-anchor="middle" x="540" y="-285" font-family="Helvetica,sans-Serif" font-size="10.00">PieceAtCoordinate</text>
</a>
</g>
</g>
<!-- Node2&#45;&gt;Node3 -->
<g id="edge2" class="edge"><title>Node2&#45;&gt;Node3</title>
<path fill="none" stroke="midnightblue" d="M402.861,-271.623C416.299,-273.733 429.99,-275.883 443.257,-277.966"/>
<polygon fill="midnightblue" stroke="midnightblue" points="403.067,-268.112 392.645,-270.019 401.981,-275.028 403.067,-268.112"/>
</g>
<!-- Node19 -->
<g id="node19" class="node"><title>Node19</title>
<g id="a_node19"><a xlink:href="../../d8/d01/classgamedata_1_1gamecomponents_1_1_level.html#a5a04f9565ce8ed0bb887cb4a69548e9f" target="_top" xlink:title="gamedata.gamecomponents.\lLevel.garbageCollectPieces">
<polygon fill="white" stroke="black" points="460,-201 460,-231 620,-231 620,-201 460,-201"/>
<text text-anchor="start" x="468" y="-219" font-family="Helvetica,sans-Serif" font-size="10.00">gamedata.gamecomponents.</text>
<text text-anchor="middle" x="540" y="-208" font-family="Helvetica,sans-Serif" font-size="10.00">Level.garbageCollectPieces</text>
</a>
</g>
</g>
<!-- Node2&#45;&gt;Node19 -->
<g id="edge18" class="edge"><title>Node2&#45;&gt;Node19</title>
<path fill="none" stroke="midnightblue" d="M400.283,-238.355C420.276,-235.133 440.928,-231.805 459.992,-228.733"/>
<polygon fill="midnightblue" stroke="midnightblue" points="399.533,-234.931 390.217,-239.977 400.647,-241.842 399.533,-234.931"/>
</g>
<!-- Node4 -->
<g id="node4" class="node"><title>Node4</title>
<g id="a_node4"><a xlink:href="../../da/d4c/classauthoring__environment_1_1_g_u_i_grid.html#a064e421c8d8d0268bb7d1db7e66590b5" target="_top" xlink:title="authoring_environment.GUIGrid.add\lPieceAtLoc">
<polygon fill="white" stroke="black" points="680.5,-408 680.5,-438 869.5,-438 869.5,-408 680.5,-408"/>
<text text-anchor="start" x="688.5" y="-426" font-family="Helvetica,sans-Serif" font-size="10.00">authoring_environment.GUIGrid.add</text>
<text text-anchor="middle" x="775" y="-415" font-family="Helvetica,sans-Serif" font-size="10.00">PieceAtLoc</text>
</a>
</g>
</g>
<!-- Node3&#45;&gt;Node4 -->
<g id="edge3" class="edge"><title>Node3&#45;&gt;Node4</title>
<path fill="none" stroke="midnightblue" d="M577.099,-313.141C624.048,-339.336 705.005,-384.505 746.989,-407.93"/>
<polygon fill="midnightblue" stroke="midnightblue" points="578.622,-309.983 568.184,-308.167 575.211,-316.096 578.622,-309.983"/>
</g>
<!-- Node16 -->
<g id="node16" class="node"><title>Node16</title>
<g id="a_node16"><a xlink:href="../../dc/d77/classfxml__main_1_1_piece_controller.html#a7190534f96aae2433b925ff2ba45ee20" target="_top" xlink:title="fxml_main.PieceController.init\lGlobalDelBtn">
<polygon fill="white" stroke="black" points="696,-303 696,-333 854,-333 854,-303 696,-303"/>
<text text-anchor="start" x="704" y="-321" font-family="Helvetica,sans-Serif" font-size="10.00">fxml_main.PieceController.init</text>
<text text-anchor="middle" x="775" y="-310" font-family="Helvetica,sans-Serif" font-size="10.00">GlobalDelBtn</text>
</a>
</g>
</g>
<!-- Node3&#45;&gt;Node16 -->
<g id="edge15" class="edge"><title>Node3&#45;&gt;Node16</title>
<path fill="none" stroke="midnightblue" d="M654.376,-305.165C668.362,-306.665 682.408,-308.173 695.707,-309.599"/>
<polygon fill="midnightblue" stroke="midnightblue" points="654.531,-301.661 644.215,-304.075 653.784,-308.621 654.531,-301.661"/>
</g>
<!-- Node17 -->
<g id="node17" class="node"><title>Node17</title>
<g id="a_node17"><a xlink:href="../../dd/dfa/classgamedata_1_1events_1_1globalaction_1_1_delete_piece_at_location.html#ab1fe115131d732f046e4775b1aa33b54" target="_top" xlink:title="gamedata.events.globalaction.\lDeletePieceAtLocation.doBehavior">
<polygon fill="white" stroke="black" points="684,-254 684,-284 866,-284 866,-254 684,-254"/>
<text text-anchor="start" x="692" y="-272" font-family="Helvetica,sans-Serif" font-size="10.00">gamedata.events.globalaction.</text>
<text text-anchor="middle" x="775" y="-261" font-family="Helvetica,sans-Serif" font-size="10.00">DeletePieceAtLocation.doBehavior</text>
</a>
</g>
</g>
<!-- Node3&#45;&gt;Node17 -->
<g id="edge16" class="edge"><title>Node3&#45;&gt;Node17</title>
<path fill="none" stroke="midnightblue" d="M654.416,-281.318C664.227,-280.307 674.067,-279.293 683.658,-278.306"/>
<polygon fill="midnightblue" stroke="midnightblue" points="653.803,-277.862 644.215,-282.368 654.521,-284.825 653.803,-277.862"/>
</g>
<!-- Node5 -->
<g id="node5" class="node"><title>Node5</title>
<g id="a_node5"><a xlink:href="../../dc/d77/classfxml__main_1_1_piece_controller.html#a57d25cb33125e10494c536f9fbce1434" target="_top" xlink:title="fxml_main.PieceController.make\lEntryBox">
<polygon fill="white" stroke="black" points="909,-481 909,-511 1079,-511 1079,-481 909,-481"/>
<text text-anchor="start" x="917" y="-499" font-family="Helvetica,sans-Serif" font-size="10.00">fxml_main.PieceController.make</text>
<text text-anchor="middle" x="994" y="-488" font-family="Helvetica,sans-Serif" font-size="10.00">EntryBox</text>
</a>
</g>
</g>
<!-- Node4&#45;&gt;Node5 -->
<g id="edge4" class="edge"><title>Node4&#45;&gt;Node5</title>
<path fill="none" stroke="midnightblue" d="M823.82,-441.619C848.255,-450.887 878.552,-462.002 906,-471 916.304,-474.378 927.374,-477.751 938.048,-480.876"/>
<polygon fill="midnightblue" stroke="midnightblue" points="825.01,-438.327 814.419,-438.035 822.516,-444.867 825.01,-438.327"/>
</g>
<!-- Node6 -->
<g id="node6" class="node"><title>Node6</title>
<g id="a_node6"><a xlink:href="../../d1/d90/classgamedata_1_1events_1_1globalaction_1_1_make_piece_at_location.html#a2e5e6942db2fced94205f89f25aa859a" target="_top" xlink:title="gamedata.events.globalaction.\lMakePieceAtLocation.doBehavior">
<polygon fill="white" stroke="black" points="906,-432 906,-462 1082,-462 1082,-432 906,-432"/>
<text text-anchor="start" x="914" y="-450" font-family="Helvetica,sans-Serif" font-size="10.00">gamedata.events.globalaction.</text>
<text text-anchor="middle" x="994" y="-439" font-family="Helvetica,sans-Serif" font-size="10.00">MakePieceAtLocation.doBehavior</text>
</a>
</g>
</g>
<!-- Node4&#45;&gt;Node6 -->
<g id="edge5" class="edge"><title>Node4&#45;&gt;Node6</title>
<path fill="none" stroke="midnightblue" d="M879.81,-434.481C888.533,-435.446 897.297,-436.415 905.875,-437.364"/>
<polygon fill="midnightblue" stroke="midnightblue" points="879.926,-430.973 869.602,-433.352 879.157,-437.93 879.926,-430.973"/>
</g>
<!-- Node8 -->
<g id="node8" class="node"><title>Node8</title>
<g id="a_node8"><a xlink:href="../../d3/d12/classtests_1_1_test_game_creator.html#a4c85cf768c7e38e9b2f6db858e8764ec" target="_top" xlink:title="tests.TestGameCreator.create\lNewGrid">
<polygon fill="white" stroke="black" points="913.5,-383 913.5,-413 1074.5,-413 1074.5,-383 913.5,-383"/>
<text text-anchor="start" x="921.5" y="-401" font-family="Helvetica,sans-Serif" font-size="10.00">tests.TestGameCreator.create</text>
<text text-anchor="middle" x="994" y="-390" font-family="Helvetica,sans-Serif" font-size="10.00">NewGrid</text>
</a>
</g>
</g>
<!-- Node4&#45;&gt;Node8 -->
<g id="edge7" class="edge"><title>Node4&#45;&gt;Node8</title>
<path fill="none" stroke="midnightblue" d="M879.547,-411.071C890.9,-409.763 902.325,-408.446 913.324,-407.179"/>
<polygon fill="midnightblue" stroke="midnightblue" points="879.136,-407.595 869.602,-412.216 879.937,-414.549 879.136,-407.595"/>
</g>
<!-- Node7 -->
<g id="node7" class="node"><title>Node7</title>
<g id="a_node7"><a xlink:href="../../d9/d51/classtests_1_1_global_action_tester.html#a26ff5051aca4e703848f88b149cfef39" target="_top" xlink:title="tests.GlobalActionTester.\lTestCreatePiece">
<polygon fill="white" stroke="black" points="1144,-432 1144,-462 1278,-462 1278,-432 1144,-432"/>
<text text-anchor="start" x="1152" y="-450" font-family="Helvetica,sans-Serif" font-size="10.00">tests.GlobalActionTester.</text>
<text text-anchor="middle" x="1211" y="-439" font-family="Helvetica,sans-Serif" font-size="10.00">TestCreatePiece</text>
</a>
</g>
</g>
<!-- Node6&#45;&gt;Node7 -->
<g id="edge6" class="edge"><title>Node6&#45;&gt;Node7</title>
<path fill="none" stroke="midnightblue" d="M1092.35,-447C1109.78,-447 1127.58,-447 1143.88,-447"/>
<polygon fill="midnightblue" stroke="midnightblue" points="1092.14,-443.5 1082.14,-447 1092.14,-450.5 1092.14,-443.5"/>
</g>
<!-- Node9 -->
<g id="node9" class="node"><title>Node9</title>
<g id="a_node9"><a xlink:href="../../d3/d12/classtests_1_1_test_game_creator.html#a6088501ec4cce8d90d4561b695065a0d" target="_top" xlink:title="tests.TestGameCreator.create\lNewGame">
<polygon fill="white" stroke="black" points="1130.5,-383 1130.5,-413 1291.5,-413 1291.5,-383 1130.5,-383"/>
<text text-anchor="start" x="1138.5" y="-401" font-family="Helvetica,sans-Serif" font-size="10.00">tests.TestGameCreator.create</text>
<text text-anchor="middle" x="1211" y="-390" font-family="Helvetica,sans-Serif" font-size="10.00">NewGame</text>
</a>
</g>
</g>
<!-- Node8&#45;&gt;Node9 -->
<g id="edge8" class="edge"><title>Node8&#45;&gt;Node9</title>
<path fill="none" stroke="midnightblue" d="M1085.07,-398C1100.11,-398 1115.62,-398 1130.38,-398"/>
<polygon fill="midnightblue" stroke="midnightblue" points="1084.75,-394.5 1074.75,-398 1084.75,-401.5 1084.75,-394.5"/>
</g>
<!-- Node10 -->
<g id="node10" class="node"><title>Node10</title>
<g id="a_node10"><a xlink:href="../../d8/d93/classauthoring_1_1concretefeatures_1_1menus_1_1_file_x.html#a06eadcf7852f723bc5a70d08a1bc5f3f" target="_top" xlink:title="authoring.concretefeatures.menus.\lFileX.handleSave">
<polygon fill="white" stroke="black" points="1344,-471 1344,-501 1530,-501 1530,-471 1344,-471"/>
<text text-anchor="start" x="1352" y="-489" font-family="Helvetica,sans-Serif" font-size="10.00">authoring.concretefeatures.menus.</text>
<text text-anchor="middle" x="1437" y="-478" font-family="Helvetica,sans-Serif" font-size="10.00">FileX.handleSave</text>
</a>
</g>
</g>
<!-- Node9&#45;&gt;Node10 -->
<g id="edge9" class="edge"><title>Node9&#45;&gt;Node10</title>
<path fill="none" stroke="midnightblue" d="M1292.72,-417.078C1296.62,-418.881 1300.4,-420.85 1304,-423 1323.97,-434.939 1319.97,-449.167 1340,-461 1346.52,-464.854 1353.64,-468.122 1360.96,-470.891"/>
<polygon fill="midnightblue" stroke="midnightblue" points="1294.02,-413.826 1283.44,-413.165 1291.3,-420.276 1294.02,-413.826"/>
</g>
<!-- Node12 -->
<g id="node12" class="node"><title>Node12</title>
<g id="a_node12"><a xlink:href="../../df/dd5/classgame_player_1_1_view_controller.html#ac0350fa190876455755b7fb25f567af1" target="_top" xlink:title="gamePlayer.ViewController.testGame">
<polygon fill="white" stroke="black" points="1340,-432.5 1340,-451.5 1534,-451.5 1534,-432.5 1340,-432.5"/>
<text text-anchor="middle" x="1437" y="-439.5" font-family="Helvetica,sans-Serif" font-size="10.00">gamePlayer.ViewController.testGame</text>
</a>
</g>
</g>
<!-- Node9&#45;&gt;Node12 -->
<g id="edge11" class="edge"><title>Node9&#45;&gt;Node12</title>
<path fill="none" stroke="midnightblue" d="M1298.59,-415.009C1328.79,-420.941 1361.59,-427.384 1387.57,-432.488"/>
<polygon fill="midnightblue" stroke="midnightblue" points="1298.95,-411.512 1288.46,-413.019 1297.6,-418.381 1298.95,-411.512"/>
</g>
<!-- Node13 -->
<g id="node13" class="node"><title>Node13</title>
<g id="a_node13"><a xlink:href="../../d9/d51/classtests_1_1_global_action_tester.html#acc8e81a79086b93c043129dba02b3854" target="_top" xlink:title="tests.GlobalActionTester.\lGlobalActionTester">
<polygon fill="white" stroke="black" points="1370,-383 1370,-413 1504,-413 1504,-383 1370,-383"/>
<text text-anchor="start" x="1378" y="-401" font-family="Helvetica,sans-Serif" font-size="10.00">tests.GlobalActionTester.</text>
<text text-anchor="middle" x="1437" y="-390" font-family="Helvetica,sans-Serif" font-size="10.00">GlobalActionTester</text>
</a>
</g>
</g>
<!-- Node9&#45;&gt;Node13 -->
<g id="edge12" class="edge"><title>Node9&#45;&gt;Node13</title>
<path fill="none" stroke="midnightblue" d="M1301.64,-398C1324.45,-398 1348.56,-398 1369.96,-398"/>
<polygon fill="midnightblue" stroke="midnightblue" points="1301.6,-394.5 1291.6,-398 1301.6,-401.5 1301.6,-394.5"/>
</g>
<!-- Node14 -->
<g id="node14" class="node"><title>Node14</title>
<g id="a_node14"><a xlink:href="../../d7/df4/classtests_1_1_j_s_o_n_tester_main.html#a5f1fa68f3fcb37a473271cdbfeaaa92e" target="_top" xlink:title="tests.JSONTesterMain.test\lJSONwrite">
<polygon fill="white" stroke="black" points="1367,-334 1367,-364 1507,-364 1507,-334 1367,-334"/>
<text text-anchor="start" x="1375" y="-352" font-family="Helvetica,sans-Serif" font-size="10.00">tests.JSONTesterMain.test</text>
<text text-anchor="middle" x="1437" y="-341" font-family="Helvetica,sans-Serif" font-size="10.00">JSONwrite</text>
</a>
</g>
</g>
<!-- Node9&#45;&gt;Node14 -->
<g id="edge13" class="edge"><title>Node9&#45;&gt;Node14</title>
<path fill="none" stroke="midnightblue" d="M1290.56,-380.815C1315.61,-375.335 1343.12,-369.318 1367.4,-364.006"/>
<polygon fill="midnightblue" stroke="midnightblue" points="1289.75,-377.409 1280.73,-382.965 1291.25,-384.247 1289.75,-377.409"/>
</g>
<!-- Node11 -->
<g id="node11" class="node"><title>Node11</title>
<g id="a_node11"><a xlink:href="../../d8/d93/classauthoring_1_1concretefeatures_1_1menus_1_1_file_x.html#a4b99e0877ab0c9e769217c815f3b99a1" target="_top" xlink:title="authoring.concretefeatures.menus.\lFileX.FileX">
<polygon fill="white" stroke="black" points="1579,-471 1579,-501 1765,-501 1765,-471 1579,-471"/>
<text text-anchor="start" x="1587" y="-489" font-family="Helvetica,sans-Serif" font-size="10.00">authoring.concretefeatures.menus.</text>
<text text-anchor="middle" x="1672" y="-478" font-family="Helvetica,sans-Serif" font-size="10.00">FileX.FileX</text>
</a>
</g>
</g>
<!-- Node10&#45;&gt;Node11 -->
<g id="edge10" class="edge"><title>Node10&#45;&gt;Node11</title>
<path fill="none" stroke="midnightblue" d="M1540.3,-486C1553.12,-486 1566.17,-486 1578.82,-486"/>
<polygon fill="midnightblue" stroke="midnightblue" points="1540.09,-482.5 1530.09,-486 1540.09,-489.5 1540.09,-482.5"/>
</g>
<!-- Node15 -->
<g id="node15" class="node"><title>Node15</title>
<g id="a_node15"><a xlink:href="../../d7/df4/classtests_1_1_j_s_o_n_tester_main.html#a931215da47157cbc5157c6a9df31ccd4" target="_top" xlink:title="tests.JSONTesterMain.main">
<polygon fill="white" stroke="black" points="1599,-361.5 1599,-380.5 1745,-380.5 1745,-361.5 1599,-361.5"/>
<text text-anchor="middle" x="1672" y="-368.5" font-family="Helvetica,sans-Serif" font-size="10.00">tests.JSONTesterMain.main</text>
</a>
</g>
</g>
<!-- Node14&#45;&gt;Node15 -->
<g id="edge14" class="edge"><title>Node14&#45;&gt;Node15</title>
<path fill="none" stroke="midnightblue" d="M1517.24,-356.482C1543.65,-358.975 1572.91,-361.738 1598.75,-364.179"/>
<polygon fill="midnightblue" stroke="midnightblue" points="1517.56,-352.997 1507.28,-355.541 1516.9,-359.966 1517.56,-352.997"/>
</g>
<!-- Node18 -->
<g id="node18" class="node"><title>Node18</title>
<g id="a_node18"><a xlink:href="../../d9/d51/classtests_1_1_global_action_tester.html#ab0f7fb48a001634ae4131d8e7a64352e" target="_top" xlink:title="tests.GlobalActionTester.\lTestDeletePiece">
<polygon fill="white" stroke="black" points="927,-254 927,-284 1061,-284 1061,-254 927,-254"/>
<text text-anchor="start" x="935" y="-272" font-family="Helvetica,sans-Serif" font-size="10.00">tests.GlobalActionTester.</text>
<text text-anchor="middle" x="994" y="-261" font-family="Helvetica,sans-Serif" font-size="10.00">TestDeletePiece</text>
</a>
</g>
</g>
<!-- Node17&#45;&gt;Node18 -->
<g id="edge17" class="edge"><title>Node17&#45;&gt;Node18</title>
<path fill="none" stroke="midnightblue" d="M876.231,-269C893.442,-269 910.933,-269 926.957,-269"/>
<polygon fill="midnightblue" stroke="midnightblue" points="876.142,-265.5 866.142,-269 876.142,-272.5 876.142,-265.5"/>
</g>
<!-- Node20 -->
<g id="node20" class="node"><title>Node20</title>
<g id="a_node20"><a xlink:href="../../d8/d01/classgamedata_1_1gamecomponents_1_1_level.html#a369f5f4a962d2ae8be063f5b2a01e0ff" target="_top" xlink:title="gamedata.gamecomponents.\lLevel.runGameEvents">
<polygon fill="white" stroke="black" points="695,-187 695,-217 855,-217 855,-187 695,-187"/>
<text text-anchor="start" x="703" y="-205" font-family="Helvetica,sans-Serif" font-size="10.00">gamedata.gamecomponents.</text>
<text text-anchor="middle" x="775" y="-194" font-family="Helvetica,sans-Serif" font-size="10.00">Level.runGameEvents</text>
</a>
</g>
</g>
<!-- Node19&#45;&gt;Node20 -->
<g id="edge19" class="edge"><title>Node19&#45;&gt;Node20</title>
<path fill="none" stroke="midnightblue" d="M630.465,-210.624C651.59,-209.355 673.971,-208.01 694.615,-206.77"/>
<polygon fill="midnightblue" stroke="midnightblue" points="629.98,-207.147 620.208,-211.241 630.4,-214.135 629.98,-207.147"/>
</g>
<!-- Node21 -->
<g id="node21" class="node"><title>Node21</title>
<g id="a_node21"><a xlink:href="../../df/dd5/classgame_player_1_1_view_controller.html#a620f8a02d3ac7677cd179fcd812aca55" target="_top" xlink:title="gamePlayer.ViewController.check\lEndActions">
<polygon fill="white" stroke="black" points="907,-161 907,-191 1081,-191 1081,-161 907,-161"/>
<text text-anchor="start" x="915" y="-179" font-family="Helvetica,sans-Serif" font-size="10.00">gamePlayer.ViewController.check</text>
<text text-anchor="middle" x="994" y="-168" font-family="Helvetica,sans-Serif" font-size="10.00">EndActions</text>
</a>
</g>
</g>
<!-- Node20&#45;&gt;Node21 -->
<g id="edge20" class="edge"><title>Node20&#45;&gt;Node21</title>
<path fill="none" stroke="midnightblue" d="M865.554,-191.27C879.134,-189.643 893.122,-187.967 906.633,-186.348"/>
<polygon fill="midnightblue" stroke="midnightblue" points="864.776,-187.838 855.263,-192.503 865.608,-194.788 864.776,-187.838"/>
</g>
<!-- Node22 -->
<g id="node22" class="node"><title>Node22</title>
<g id="a_node22"><a xlink:href="../../df/dd5/classgame_player_1_1_view_controller.html#a95c2acd43bb39b8606c69971c1cd30f5" target="_top" xlink:title="gamePlayer.ViewController.perform\lAction">
<polygon fill="white" stroke="black" points="1118.5,-219 1118.5,-249 1303.5,-249 1303.5,-219 1118.5,-219"/>
<text text-anchor="start" x="1126.5" y="-237" font-family="Helvetica,sans-Serif" font-size="10.00">gamePlayer.ViewController.perform</text>
<text text-anchor="middle" x="1211" y="-226" font-family="Helvetica,sans-Serif" font-size="10.00">Action</text>
</a>
</g>
</g>
<!-- Node21&#45;&gt;Node22 -->
<g id="edge21" class="edge"><title>Node21&#45;&gt;Node22</title>
<path fill="none" stroke="midnightblue" d="M1060.58,-193.692C1090.51,-201.765 1125.57,-211.225 1154.21,-218.95"/>
<polygon fill="midnightblue" stroke="midnightblue" points="1061.21,-190.237 1050.65,-191.012 1059.39,-196.996 1061.21,-190.237"/>
</g>
<!-- Node40 -->
<g id="node40" class="node"><title>Node40</title>
<g id="a_node40"><a xlink:href="../../df/dd5/classgame_player_1_1_view_controller.html#a13ea7814bde61a8042c5b1a23af41416" target="_top" xlink:title="gamePlayer.ViewController.end\lAction">
<polygon fill="white" stroke="black" points="1129,-148 1129,-178 1293,-178 1293,-148 1129,-148"/>
<text text-anchor="start" x="1137" y="-166" font-family="Helvetica,sans-Serif" font-size="10.00">gamePlayer.ViewController.end</text>
<text text-anchor="middle" x="1211" y="-155" font-family="Helvetica,sans-Serif" font-size="10.00">Action</text>
</a>
</g>
</g>
<!-- Node21&#45;&gt;Node40 -->
<g id="edge42" class="edge"><title>Node21&#45;&gt;Node40</title>
<path fill="none" stroke="midnightblue" d="M1091.56,-170.162C1103.95,-169.412 1116.54,-168.651 1128.66,-167.919"/>
<polygon fill="midnightblue" stroke="midnightblue" points="1090.98,-166.69 1081.21,-170.787 1091.4,-173.677 1090.98,-166.69"/>
</g>
<!-- Node23 -->
<g id="node23" class="node"><title>Node23</title>
<g id="a_node23"><a xlink:href="../../da/d55/classgame_player_1_1_keyboard_movement.html#af45fd8d279b1ee2d6be5466d425485ab" target="_top" xlink:title="gamePlayer.KeyboardMovement.set\lMovementKeyControl">
<polygon fill="white" stroke="black" points="1342.5,-263 1342.5,-293 1531.5,-293 1531.5,-263 1342.5,-263"/>
<text text-anchor="start" x="1350.5" y="-281" font-family="Helvetica,sans-Serif" font-size="10.00">gamePlayer.KeyboardMovement.set</text>
<text text-anchor="middle" x="1437" y="-270" font-family="Helvetica,sans-Serif" font-size="10.00">MovementKeyControl</text>
</a>
</g>
</g>
<!-- Node22&#45;&gt;Node23 -->
<g id="edge22" class="edge"><title>Node22&#45;&gt;Node23</title>
<path fill="none" stroke="midnightblue" d="M1313.67,-247.247C1339.67,-252.224 1366.41,-257.837 1388.24,-262.972"/>
<polygon fill="midnightblue" stroke="midnightblue" points="1314.23,-243.791 1303.76,-245.372 1312.93,-250.669 1314.23,-243.791"/>
</g>
<!-- Node31 -->
<g id="node31" class="node"><title>Node31</title>
<g id="a_node31"><a xlink:href="../../df/dd5/classgame_player_1_1_view_controller.html#a22ee80193bbac79a935ee961a183bfcd" target="_top" xlink:title="gamePlayer.ViewController.set\lOnClick">
<polygon fill="white" stroke="black" points="1356.5,-175 1356.5,-205 1517.5,-205 1517.5,-175 1356.5,-175"/>
<text text-anchor="start" x="1364.5" y="-193" font-family="Helvetica,sans-Serif" font-size="10.00">gamePlayer.ViewController.set</text>
<text text-anchor="middle" x="1437" y="-182" font-family="Helvetica,sans-Serif" font-size="10.00">OnClick</text>
</a>
</g>
</g>
<!-- Node22&#45;&gt;Node31 -->
<g id="edge32" class="edge"><title>Node22&#45;&gt;Node31</title>
<path fill="none" stroke="midnightblue" d="M1298.53,-217.002C1318.63,-213.055 1339.88,-208.881 1359.5,-205.026"/>
<polygon fill="midnightblue" stroke="midnightblue" points="1297.6,-213.619 1288.46,-218.981 1298.95,-220.488 1297.6,-213.619"/>
</g>
<!-- Node23&#45;&gt;Node22 -->
<g id="edge30" class="edge"><title>Node23&#45;&gt;Node22</title>
<path fill="none" stroke="midnightblue" d="M1332.14,-264.333C1306.84,-259.463 1280.99,-254.022 1259.78,-249.032"/>
<polygon fill="midnightblue" stroke="midnightblue" points="1331.7,-267.811 1342.17,-266.24 1333,-260.934 1331.7,-267.811"/>
</g>
<!-- Node24 -->
<g id="node24" class="node"><title>Node24</title>
<g id="a_node24"><a xlink:href="../../df/dd5/classgame_player_1_1_view_controller.html#a7eb038fd9f20604ade0406f27ef76657" target="_top" xlink:title="gamePlayer.ViewController.bind\lAction">
<polygon fill="white" stroke="black" points="1588.5,-312 1588.5,-342 1755.5,-342 1755.5,-312 1588.5,-312"/>
<text text-anchor="start" x="1596.5" y="-330" font-family="Helvetica,sans-Serif" font-size="10.00">gamePlayer.ViewController.bind</text>
<text text-anchor="middle" x="1672" y="-319" font-family="Helvetica,sans-Serif" font-size="10.00">Action</text>
</a>
</g>
</g>
<!-- Node23&#45;&gt;Node24 -->
<g id="edge23" class="edge"><title>Node23&#45;&gt;Node24</title>
<path fill="none" stroke="midnightblue" d="M1519.37,-295.113C1545.52,-300.611 1574.27,-306.658 1599.64,-311.994"/>
<polygon fill="midnightblue" stroke="midnightblue" points="1520,-291.668 1509.49,-293.035 1518.56,-298.518 1520,-291.668"/>
</g>
<!-- Node30 -->
<g id="node30" class="node"><title>Node30</title>
<g id="a_node30"><a xlink:href="../../df/dd5/classgame_player_1_1_view_controller.html#a27da17c1280cd953a14f6b76b18f9a4b" target="_top" xlink:title="gamePlayer.ViewController.toggle\lKeyboardControl">
<polygon fill="white" stroke="black" points="1584,-263 1584,-293 1760,-293 1760,-263 1584,-263"/>
<text text-anchor="start" x="1592" y="-281" font-family="Helvetica,sans-Serif" font-size="10.00">gamePlayer.ViewController.toggle</text>
<text text-anchor="middle" x="1672" y="-270" font-family="Helvetica,sans-Serif" font-size="10.00">KeyboardControl</text>
</a>
</g>
</g>
<!-- Node23&#45;&gt;Node30 -->
<g id="edge31" class="edge"><title>Node23&#45;&gt;Node30</title>
<path fill="none" stroke="midnightblue" d="M1541.91,-278C1555.91,-278 1570.17,-278 1583.84,-278"/>
<polygon fill="midnightblue" stroke="midnightblue" points="1541.76,-274.5 1531.76,-278 1541.76,-281.5 1541.76,-274.5"/>
</g>
<!-- Node25 -->
<g id="node25" class="node"><title>Node25</title>
<g id="a_node25"><a xlink:href="../../d1/db7/classgame_player_1_1_keyboard_action.html#a08ace57322b8639020688dd9493c3e1f" target="_top" xlink:title="gamePlayer.KeyboardAction.set\lActionKeyControl">
<polygon fill="white" stroke="black" points="1830,-230 1830,-260 1998,-260 1998,-230 1830,-230"/>
<text text-anchor="start" x="1838" y="-248" font-family="Helvetica,sans-Serif" font-size="10.00">gamePlayer.KeyboardAction.set</text>
<text text-anchor="middle" x="1914" y="-237" font-family="Helvetica,sans-Serif" font-size="10.00">ActionKeyControl</text>
</a>
</g>
</g>
<!-- Node24&#45;&gt;Node25 -->
<g id="edge24" class="edge"><title>Node24&#45;&gt;Node25</title>
<path fill="none" stroke="midnightblue" d="M1754.53,-308.981C1761.19,-306.857 1767.76,-304.532 1774,-302 1791.16,-295.037 1793.18,-288.758 1810,-281 1827.12,-273.106 1846.49,-265.91 1863.77,-260.062"/>
<polygon fill="midnightblue" stroke="midnightblue" points="1753.28,-305.703 1744.72,-311.95 1755.31,-312.402 1753.28,-305.703"/>
</g>
<!-- Node26 -->
<g id="node26" class="node"><title>Node26</title>
<g id="a_node26"><a xlink:href="../../df/dd5/classgame_player_1_1_view_controller.html#ab8c14a8c53be9021a62d0107c2f75ef6" target="_top" xlink:title="gamePlayer.ViewController.update\lActions">
<polygon fill="white" stroke="black" points="1824,-339 1824,-369 2004,-369 2004,-339 1824,-339"/>
<text text-anchor="start" x="1832" y="-357" font-family="Helvetica,sans-Serif" font-size="10.00">gamePlayer.ViewController.update</text>
<text text-anchor="middle" x="1914" y="-346" font-family="Helvetica,sans-Serif" font-size="10.00">Actions</text>
</a>
</g>
</g>
<!-- Node24&#45;&gt;Node26 -->
<g id="edge26" class="edge"><title>Node24&#45;&gt;Node26</title>
<path fill="none" stroke="midnightblue" d="M1765.75,-337.434C1784.78,-339.576 1804.78,-341.826 1823.69,-343.953"/>
<polygon fill="midnightblue" stroke="midnightblue" points="1765.92,-333.932 1755.59,-336.292 1765.14,-340.888 1765.92,-333.932"/>
</g>
<!-- Node29 -->
<g id="node29" class="node"><title>Node29</title>
<g id="a_node29"><a xlink:href="../../df/df0/classtests_1_1_view_controller_test.html#a74e99f9c72cbdcd2d56271b2ad2df1ce" target="_top" xlink:title="tests.ViewControllerTest.bind\lActionTest">
<polygon fill="white" stroke="black" points="1837,-290 1837,-320 1991,-320 1991,-290 1837,-290"/>
<text text-anchor="start" x="1845" y="-308" font-family="Helvetica,sans-Serif" font-size="10.00">tests.ViewControllerTest.bind</text>
<text text-anchor="middle" x="1914" y="-297" font-family="Helvetica,sans-Serif" font-size="10.00">ActionTest</text>
</a>
</g>
</g>
<!-- Node24&#45;&gt;Node29 -->
<g id="edge29" class="edge"><title>Node24&#45;&gt;Node29</title>
<path fill="none" stroke="midnightblue" d="M1765.57,-318.514C1789.09,-316.358 1814.1,-314.066 1836.71,-311.994"/>
<polygon fill="midnightblue" stroke="midnightblue" points="1765.23,-315.031 1755.59,-319.429 1765.87,-322.001 1765.23,-315.031"/>
</g>
<!-- Node25&#45;&gt;Node22 -->
<g id="edge25" class="edge"><title>Node25&#45;&gt;Node22</title>
<path fill="none" stroke="midnightblue" d="M1819.5,-243.533C1684.72,-241.418 1437.38,-237.537 1303.64,-235.438"/>
<polygon fill="midnightblue" stroke="midnightblue" points="1819.75,-247.037 1829.8,-243.694 1819.86,-240.038 1819.75,-247.037"/>
</g>
<!-- Node27 -->
<g id="node27" class="node"><title>Node27</title>
<g id="a_node27"><a xlink:href="../../d6/d24/classgame_player_1_1_select_state.html#a801827392f0faeee6b96925060d77838" target="_top" xlink:title="gamePlayer.SelectState.on\lClick">
<polygon fill="white" stroke="black" points="2077.5,-363 2077.5,-393 2224.5,-393 2224.5,-363 2077.5,-363"/>
<text text-anchor="start" x="2085.5" y="-381" font-family="Helvetica,sans-Serif" font-size="10.00">gamePlayer.SelectState.on</text>
<text text-anchor="middle" x="2151" y="-370" font-family="Helvetica,sans-Serif" font-size="10.00">Click</text>
</a>
</g>
</g>
<!-- Node26&#45;&gt;Node27 -->
<g id="edge27" class="edge"><title>Node26&#45;&gt;Node27</title>
<path fill="none" stroke="midnightblue" d="M2014.17,-364.128C2035.35,-366.291 2057.34,-368.537 2077.3,-370.576"/>
<polygon fill="midnightblue" stroke="midnightblue" points="2014.48,-360.642 2004.18,-363.108 2013.77,-367.606 2014.48,-360.642"/>
</g>
<!-- Node28 -->
<g id="node28" class="node"><title>Node28</title>
<g id="a_node28"><a xlink:href="../../df/df0/classtests_1_1_view_controller_test.html#a785df2c49a72c183c22163ce927f5df1" target="_top" xlink:title="tests.ViewControllerTest.update\lActionsTest">
<polygon fill="white" stroke="black" points="2067.5,-314 2067.5,-344 2234.5,-344 2234.5,-314 2067.5,-314"/>
<text text-anchor="start" x="2075.5" y="-332" font-family="Helvetica,sans-Serif" font-size="10.00">tests.ViewControllerTest.update</text>
<text text-anchor="middle" x="2151" y="-321" font-family="Helvetica,sans-Serif" font-size="10.00">ActionsTest</text>
</a>
</g>
</g>
<!-- Node26&#45;&gt;Node28 -->
<g id="edge28" class="edge"><title>Node26&#45;&gt;Node28</title>
<path fill="none" stroke="midnightblue" d="M2014.49,-343.416C2032.14,-341.538 2050.34,-339.602 2067.46,-337.781"/>
<polygon fill="midnightblue" stroke="midnightblue" points="2013.75,-339.975 2004.18,-344.513 2014.49,-346.935 2013.75,-339.975"/>
</g>
<!-- Node32 -->
<g id="node32" class="node"><title>Node32</title>
<g id="a_node32"><a xlink:href="../../df/dd5/classgame_player_1_1_view_controller.html#a10a40967a873f067cf91b024ff85b38e" target="_top" xlink:title="gamePlayer.ViewController.initializeGrid">
<polygon fill="white" stroke="black" points="1570,-98.5 1570,-117.5 1774,-117.5 1774,-98.5 1570,-98.5"/>
<text text-anchor="middle" x="1672" y="-105.5" font-family="Helvetica,sans-Serif" font-size="10.00">gamePlayer.ViewController.initializeGrid</text>
</a>
</g>
</g>
<!-- Node31&#45;&gt;Node32 -->
<g id="edge33" class="edge"><title>Node31&#45;&gt;Node32</title>
<path fill="none" stroke="midnightblue" d="M1510.55,-172.262C1518.51,-169.974 1526.46,-167.538 1534,-165 1576.24,-150.79 1623.96,-129.755 1650.46,-117.609"/>
<polygon fill="midnightblue" stroke="midnightblue" points="1509.54,-168.909 1500.86,-174.977 1511.43,-175.65 1509.54,-168.909"/>
</g>
<!-- Node32&#45;&gt;Node21 -->
<g id="edge36" class="edge"><title>Node32&#45;&gt;Node21</title>
<path fill="none" stroke="midnightblue" d="M1559.79,-105.201C1447.31,-104.474 1268.96,-109.106 1118,-139 1090.88,-144.371 1061.17,-153.22 1037.75,-160.917"/>
<polygon fill="midnightblue" stroke="midnightblue" points="1559.77,-108.701 1569.79,-105.281 1559.82,-101.701 1559.77,-108.701"/>
</g>
<!-- Node33 -->
<g id="node33" class="node"><title>Node33</title>
<g id="a_node33"><a xlink:href="../../df/dd5/classgame_player_1_1_view_controller.html#aabf431713b65ec510f1cb2df12da4e45" target="_top" xlink:title="gamePlayer.ViewController.test\lPlayGameInTab">
<polygon fill="white" stroke="black" points="1831.5,-159 1831.5,-189 1996.5,-189 1996.5,-159 1831.5,-159"/>
<text text-anchor="start" x="1839.5" y="-177" font-family="Helvetica,sans-Serif" font-size="10.00">gamePlayer.ViewController.test</text>
<text text-anchor="middle" x="1914" y="-166" font-family="Helvetica,sans-Serif" font-size="10.00">PlayGameInTab</text>
</a>
</g>
</g>
<!-- Node32&#45;&gt;Node33 -->
<g id="edge34" class="edge"><title>Node32&#45;&gt;Node33</title>
<path fill="none" stroke="midnightblue" d="M1712.91,-120.55C1740.16,-128.967 1777.13,-140.1 1810,-149 1822.52,-152.391 1835.96,-155.81 1848.86,-158.985"/>
<polygon fill="midnightblue" stroke="midnightblue" points="1713.93,-117.2 1703.34,-117.58 1711.85,-123.886 1713.93,-117.2"/>
</g>
<!-- Node34 -->
<g id="node34" class="node"><title>Node34</title>
<g id="a_node34"><a xlink:href="../../df/dd5/classgame_player_1_1_view_controller.html#a0d1a3d443966f151b070dc751d2faf9a" target="_top" xlink:title="gamePlayer.ViewController.restartGame">
<polygon fill="white" stroke="black" points="1810,-120.5 1810,-139.5 2018,-139.5 2018,-120.5 1810,-120.5"/>
<text text-anchor="middle" x="1914" y="-127.5" font-family="Helvetica,sans-Serif" font-size="10.00">gamePlayer.ViewController.restartGame</text>
</a>
</g>
</g>
<!-- Node32&#45;&gt;Node34 -->
<g id="edge35" class="edge"><title>Node32&#45;&gt;Node34</title>
<path fill="none" stroke="midnightblue" d="M1784.08,-118.182C1792.62,-118.966 1801.23,-119.754 1809.72,-120.533"/>
<polygon fill="midnightblue" stroke="midnightblue" points="1784.36,-114.694 1774.09,-117.266 1783.72,-121.665 1784.36,-114.694"/>
</g>
<!-- Node35 -->
<g id="node35" class="node"><title>Node35</title>
<g id="a_node35"><a xlink:href="../../df/dd5/classgame_player_1_1_view_controller.html#adc15cd81cefb88c58f9d3b7478328df8" target="_top" xlink:title="gamePlayer.ViewController.test\lPlayGUIGame">
<polygon fill="white" stroke="black" points="1831.5,-71 1831.5,-101 1996.5,-101 1996.5,-71 1831.5,-71"/>
<text text-anchor="start" x="1839.5" y="-89" font-family="Helvetica,sans-Serif" font-size="10.00">gamePlayer.ViewController.test</text>
<text text-anchor="middle" x="1914" y="-78" font-family="Helvetica,sans-Serif" font-size="10.00">PlayGUIGame</text>
</a>
</g>
</g>
<!-- Node32&#45;&gt;Node35 -->
<g id="edge37" class="edge"><title>Node32&#45;&gt;Node35</title>
<path fill="none" stroke="midnightblue" d="M1784.43,-97.7858C1800.23,-96.3377 1816.22,-94.8712 1831.32,-93.4877"/>
<polygon fill="midnightblue" stroke="midnightblue" points="1783.72,-94.3355 1774.09,-98.7338 1784.36,-101.306 1783.72,-94.3355"/>
</g>
<!-- Node36 -->
<g id="node36" class="node"><title>Node36</title>
<g id="a_node36"><a xlink:href="../../df/dd5/classgame_player_1_1_view_controller.html#a4c1754d129a4eac955390b428eaa448a" target="_top" xlink:title="gamePlayer.ViewController.test\lPlayGame">
<polygon fill="white" stroke="black" points="1831.5,-22 1831.5,-52 1996.5,-52 1996.5,-22 1831.5,-22"/>
<text text-anchor="start" x="1839.5" y="-40" font-family="Helvetica,sans-Serif" font-size="10.00">gamePlayer.ViewController.test</text>
<text text-anchor="middle" x="1914" y="-29" font-family="Helvetica,sans-Serif" font-size="10.00">PlayGame</text>
</a>
</g>
</g>
<!-- Node32&#45;&gt;Node36 -->
<g id="edge38" class="edge"><title>Node32&#45;&gt;Node36</title>
<path fill="none" stroke="midnightblue" d="M1707.82,-94.9591C1735.32,-84.9244 1774.81,-71.1087 1810,-61 1820.94,-57.8573 1832.62,-54.8291 1844.05,-52.0443"/>
<polygon fill="midnightblue" stroke="midnightblue" points="1706.44,-91.7379 1698.26,-98.4712 1708.85,-98.3087 1706.44,-91.7379"/>
</g>
<!-- Node37 -->
<g id="node37" class="node"><title>Node37</title>
<g id="a_node37"><a xlink:href="../../db/d40/classfxml__main_1_1_authoring_controller.html#a2ec133c8edf0a7ab1e84f2e12455233d" target="_top" xlink:title="fxml_main.AuthoringController.save\lAsGame">
<polygon fill="white" stroke="black" points="2057.5,-44 2057.5,-74 2244.5,-74 2244.5,-44 2057.5,-44"/>
<text text-anchor="start" x="2065.5" y="-62" font-family="Helvetica,sans-Serif" font-size="10.00">fxml_main.AuthoringController.save</text>
<text text-anchor="middle" x="2151" y="-51" font-family="Helvetica,sans-Serif" font-size="10.00">AsGame</text>
</a>
</g>
</g>
<!-- Node36&#45;&gt;Node37 -->
<g id="edge39" class="edge"><title>Node36&#45;&gt;Node37</title>
<path fill="none" stroke="midnightblue" d="M2006.77,-45.591C2023.38,-47.1458 2040.7,-48.7681 2057.34,-50.3253"/>
<polygon fill="midnightblue" stroke="midnightblue" points="2006.81,-42.0802 1996.53,-44.6328 2006.16,-49.0497 2006.81,-42.0802"/>
</g>
<!-- Node38 -->
<g id="node38" class="node"><title>Node38</title>
<g id="a_node38"><a xlink:href="../../df/dd5/classgame_player_1_1_view_controller.html#a2bf1dce04187ad5eacb5359ef2b4eff8" target="_top" xlink:title="gamePlayer.ViewController.newGame">
<polygon fill="white" stroke="black" points="2054,-5.5 2054,-24.5 2248,-24.5 2248,-5.5 2054,-5.5"/>
<text text-anchor="middle" x="2151" y="-12.5" font-family="Helvetica,sans-Serif" font-size="10.00">gamePlayer.ViewController.newGame</text>
</a>
</g>
</g>
<!-- Node36&#45;&gt;Node38 -->
<g id="edge40" class="edge"><title>Node36&#45;&gt;Node38</title>
<path fill="none" stroke="midnightblue" d="M2006.58,-28.4266C2022.03,-26.9806 2038.1,-25.4757 2053.66,-24.0188"/>
<polygon fill="midnightblue" stroke="midnightblue" points="2006.16,-24.9503 1996.53,-29.3672 2006.81,-31.9198 2006.16,-24.9503"/>
</g>
<!-- Node39 -->
<g id="node39" class="node"><title>Node39</title>
<g id="a_node39"><a xlink:href="../../df/dd5/classgame_player_1_1_view_controller.html#a2acd822c93c35674b6978a97b4ce6e3f" target="_top" xlink:title="gamePlayer.ViewController.\lViewController">
<polygon fill="white" stroke="black" points="2284,-0 2284,-30 2430,-30 2430,-0 2284,-0"/>
<text text-anchor="start" x="2292" y="-18" font-family="Helvetica,sans-Serif" font-size="10.00">gamePlayer.ViewController.</text>
<text text-anchor="middle" x="2357" y="-7" font-family="Helvetica,sans-Serif" font-size="10.00">ViewController</text>
</a>
</g>
</g>
<!-- Node38&#45;&gt;Node39 -->
<g id="edge41" class="edge"><title>Node38&#45;&gt;Node39</title>
<path fill="none" stroke="midnightblue" d="M2258.24,-15C2266.94,-15 2275.59,-15 2283.95,-15"/>
<polygon fill="midnightblue" stroke="midnightblue" points="2258.03,-11.5001 2248.03,-15 2258.03,-18.5001 2258.03,-11.5001"/>
</g>
<!-- Node41 -->
<g id="node41" class="node"><title>Node41</title>
<g id="a_node41"><a xlink:href="../../db/d00/classgame_player_1_1_apply_state.html#aed42c1aba25264bc6880036f693a1c9e" target="_top" xlink:title="gamePlayer.ApplyState.on\lClick">
<polygon fill="white" stroke="black" points="1365.5,-126 1365.5,-156 1508.5,-156 1508.5,-126 1365.5,-126"/>
<text text-anchor="start" x="1373.5" y="-144" font-family="Helvetica,sans-Serif" font-size="10.00">gamePlayer.ApplyState.on</text>
<text text-anchor="middle" x="1437" y="-133" font-family="Helvetica,sans-Serif" font-size="10.00">Click</text>
</a>
</g>
</g>
<!-- Node40&#45;&gt;Node41 -->
<g id="edge43" class="edge"><title>Node40&#45;&gt;Node41</title>
<path fill="none" stroke="midnightblue" d="M1303.27,-154.036C1324.01,-151.999 1345.73,-149.866 1365.45,-147.929"/>
<polygon fill="midnightblue" stroke="midnightblue" points="1302.8,-150.566 1293.19,-155.026 1303.48,-157.532 1302.8,-150.566"/>
</g>
</g>
</svg>
        <g id="navigator" transform="translate(0 0)" fill="#404254">
                <rect fill="#f2f5e9" fill-opacity="0.5" stroke="#606060" stroke-width=".5" x="0" y="0" width="60" height="60"/>
                <use id="zoomplus" xlink:href="#zoomPlus" x="17" y="9" onmousedown="handleZoom(evt,'in')"/>
                <use id="zoomminus" xlink:href="#zoomMin" x="42" y="9" onmousedown="handleZoom(evt,'out')"/>
                <use id="reset" xlink:href="#resetDef" x="30" y="36" onmousedown="handleReset()"/>
                <g id="arrowUp" xlink:href="#dirArrow" transform="translate(30 24)" onmousedown="handlePan(0,-1)">
                  <use xlink:href="#rim" fill="#404040">
                        <set attributeName="fill" to="#808080" begin="arrowUp.mouseover" end="arrowUp.mouseout"/>
                  </use>
                  <path fill="none" stroke="white" stroke-width="1.5" d="M0,-3.0v7 M-2.5,-0.5L0,-3.0L2.5,-0.5"/>
                </g>
                <g id="arrowRight" xlink:href="#dirArrow" transform="rotate(90) translate(36 -43)" onmousedown="handlePan(1,0)">
                  <use xlink:href="#rim" fill="#404040">
                        <set attributeName="fill" to="#808080" begin="arrowRight.mouseover" end="arrowRight.mouseout"/>
                  </use>
                  <path fill="none" stroke="white" stroke-width="1.5" d="M0,-3.0v7 M-2.5,-0.5L0,-3.0L2.5,-0.5"/>
                </g>
                <g id="arrowDown" xlink:href="#dirArrow" transform="rotate(180) translate(-30 -48)" onmousedown="handlePan(0,1)">
                  <use xlink:href="#rim" fill="#404040">
                        <set attributeName="fill" to="#808080" begin="arrowDown.mouseover" end="arrowDown.mouseout"/>
                  </use>
                  <path fill="none" stroke="white" stroke-width="1.5" d="M0,-3.0v7 M-2.5,-0.5L0,-3.0L2.5,-0.5"/>
                </g>
                <g id="arrowLeft" xlink:href="#dirArrow" transform="rotate(270) translate(-36 17)" onmousedown="handlePan(-1,0)">
                  <use xlink:href="#rim" fill="#404040">
                        <set attributeName="fill" to="#808080" begin="arrowLeft.mouseover" end="arrowLeft.mouseout"/>
                  </use>
                  <path fill="none" stroke="white" stroke-width="1.5" d="M0,-3.0v7 M-2.5,-0.5L0,-3.0L2.5,-0.5"/>
                </g>
        </g>
        <svg viewBox="0 0 15 15" width="100%" height="30px" preserveAspectRatio="xMaxYMin meet">
         <g id="arrow_out" transform="scale(0.3 0.3)">
          <a xlink:href="classauthoring_1_1data_1_1_piece_instance_data_a80a0e534e9cb103879f99230bc05efe7_icgraph_org.svg" target="_base">
           <rect id="button" ry="5" rx="5" y="6" x="6" height="38" width="38"
                fill="#f2f5e9" fill-opacity="0.5" stroke="#606060" stroke-width="1.0"/>
           <path id="arrow"
             d="M 11.500037,31.436501 C 11.940474,20.09759 22.043105,11.32322 32.158766,21.979434 L 37.068811,17.246167 C 37.068811,17.246167 37.088388,32 37.088388,32 L 22.160133,31.978069 C 22.160133,31.978069 26.997745,27.140456 26.997745,27.140456 C 18.528582,18.264221 13.291696,25.230495 11.500037,31.436501 z"
             style="fill:#404040;"/>
          </a>
         </g>
        </svg>
</svg>
