<?xml version="1.0" encoding="UTF-8" standalone="no"?>
<!DOCTYPE svg PUBLIC "-//W3C//DTD SVG 1.1//EN"
 "http://www.w3.org/Graphics/SVG/1.1/DTD/svg11.dtd">
<!-- Generated by graphviz version 2.36.0 (20140111.2315)
 -->
<!-- Title: authoring.data.PieceInstanceData.canAdd Pages: 1 -->
<svg width="360pt" height="87pt"
 viewBox="0.00 0.00 360.00 87.00" xmlns="http://www.w3.org/2000/svg" xmlns:xlink="http://www.w3.org/1999/xlink">
<g id="graph0" class="graph" transform="scale(1 1) rotate(0) translate(4 83)">
<title>authoring.data.PieceInstanceData.canAdd</title>
<polygon fill="white" stroke="none" points="-4,4 -4,-83 356,-83 356,4 -4,4"/>
<!-- Node1 -->
<g id="node1" class="node"><title>Node1</title>
<polygon fill="#bfbfbf" stroke="black" points="0,-24 0,-54 156,-54 156,-24 0,-24"/>
<text text-anchor="start" x="8" y="-42" font-family="Helvetica,sans-Serif" font-size="10.00">authoring.data.PieceInstance</text>
<text text-anchor="middle" x="78" y="-31" font-family="Helvetica,sans-Serif" font-size="10.00">Data.canAdd</text>
</g>
<!-- Node2 -->
<g id="node2" class="node"><title>Node2</title>
<g id="a_node2"><a xlink:href="../../d9/df2/classgamedata_1_1gamecomponents_1_1_grid_component.html#abbee382ddf73ae02286b64d067b5a78f" target="_top" xlink:title="gamedata.gamecomponents.\lGridComponent.getID">
<polygon fill="white" stroke="black" points="192,-49 192,-79 352,-79 352,-49 192,-49"/>
<text text-anchor="start" x="200" y="-67" font-family="Helvetica,sans-Serif" font-size="10.00">gamedata.gamecomponents.</text>
<text text-anchor="middle" x="272" y="-56" font-family="Helvetica,sans-Serif" font-size="10.00">GridComponent.getID</text>
</a>
</g>
</g>
<!-- Node1&#45;&gt;Node2 -->
<g id="edge1" class="edge"><title>Node1&#45;&gt;Node2</title>
<path fill="none" stroke="midnightblue" d="M156.264,-49.0604C164.652,-50.1526 173.239,-51.2707 181.755,-52.3795"/>
<polygon fill="midnightblue" stroke="midnightblue" points="181.334,-55.8542 191.702,-53.6748 182.238,-48.9128 181.334,-55.8542"/>
</g>
<!-- Node3 -->
<g id="node3" class="node"><title>Node3</title>
<g id="a_node3"><a xlink:href="../../d9/df2/classgamedata_1_1gamecomponents_1_1_grid_component.html#a97439a493db38860397436079b123e8c" target="_top" xlink:title="gamedata.gamecomponents.\lGridComponent.getLoc">
<polygon fill="white" stroke="black" points="192,-0 192,-30 352,-30 352,-0 192,-0"/>
<text text-anchor="start" x="200" y="-18" font-family="Helvetica,sans-Serif" font-size="10.00">gamedata.gamecomponents.</text>
<text text-anchor="middle" x="272" y="-7" font-family="Helvetica,sans-Serif" font-size="10.00">GridComponent.getLoc</text>
</a>
</g>
</g>
<!-- Node1&#45;&gt;Node3 -->
<g id="edge2" class="edge"><title>Node1&#45;&gt;Node3</title>
<path fill="none" stroke="midnightblue" d="M156.264,-29.342C164.652,-28.2935 173.239,-27.2201 181.755,-26.1557"/>
<polygon fill="midnightblue" stroke="midnightblue" points="182.214,-29.6256 191.702,-24.9122 181.345,-22.6797 182.214,-29.6256"/>
</g>
</g>
</svg>
