<?xml version="1.0" encoding="UTF-8" standalone="no"?>
<!DOCTYPE svg PUBLIC "-//W3C//DTD SVG 1.1//EN"
 "http://www.w3.org/Graphics/SVG/1.1/DTD/svg11.dtd">
<!-- Generated by graphviz version 2.36.0 (20140111.2315)
 -->
<!-- Title: gamedata.wrappers.LocationEqualsConditionData Pages: 1 -->
<svg width="240pt" height="120pt"
 viewBox="0.00 0.00 240.00 120.00" xmlns="http://www.w3.org/2000/svg" xmlns:xlink="http://www.w3.org/1999/xlink">
<g id="graph0" class="graph" transform="scale(1 1) rotate(0) translate(4 116)">
<title>gamedata.wrappers.LocationEqualsConditionData</title>
<polygon fill="white" stroke="none" points="-4,4 -4,-116 236,-116 236,4 -4,4"/>
<!-- Node1 -->
<g id="node1" class="node"><title>Node1</title>
<polygon fill="#bfbfbf" stroke="black" points="11,-1 11,-31 167,-31 167,-1 11,-1"/>
<text text-anchor="start" x="19" y="-19" font-family="Helvetica,sans-Serif" font-size="10.00">gamedata.wrappers.Location</text>
<text text-anchor="middle" x="89" y="-8" font-family="Helvetica,sans-Serif" font-size="10.00">EqualsConditionData</text>
</g>
<!-- Node2 -->
<g id="node2" class="node"><title>Node2</title>
<polygon fill="white" stroke="#bfbfbf" points="0,-86.5 0,-105.5 54,-105.5 54,-86.5 0,-86.5"/>
<text text-anchor="middle" x="27" y="-93.5" font-family="Helvetica,sans-Serif" font-size="10.00">Point2D</text>
</g>
<!-- Node2&#45;&gt;Node1 -->
<g id="edge1" class="edge"><title>Node2&#45;&gt;Node1</title>
<path fill="none" stroke="#9a32cd" stroke-dasharray="5,2" d="M40.1174,-78.4975C51.2631,-64.4755 67.0957,-44.557 77.6913,-31.227"/>
<polygon fill="#9a32cd" stroke="#9a32cd" points="37.3546,-76.3485 33.872,-86.3546 42.8343,-80.7042 37.3546,-76.3485"/>
<text text-anchor="middle" x="93" y="-53.5" font-family="Helvetica,sans-Serif" font-size="10.00"> myConstant</text>
</g>
<!-- Node3 -->
<g id="node3" class="node"><title>Node3</title>
<g id="a_node3"><a xlink:href="../../dc/d5b/interfacegamedata_1_1gamecomponents_1_1_i_has_stats.html" target="_top" xlink:title="gamedata.gamecomponents.\lIHasStats">
<polygon fill="white" stroke="black" points="72,-81 72,-111 232,-111 232,-81 72,-81"/>
<text text-anchor="start" x="80" y="-99" font-family="Helvetica,sans-Serif" font-size="10.00">gamedata.gamecomponents.</text>
<text text-anchor="middle" x="152" y="-88" font-family="Helvetica,sans-Serif" font-size="10.00">IHasStats</text>
</a>
</g>
</g>
<!-- Node3&#45;&gt;Node1 -->
<g id="edge2" class="edge"><title>Node3&#45;&gt;Node1</title>
<path fill="none" stroke="#9a32cd" stroke-dasharray="5,2" d="M141.552,-71.4096C137.804,-64.1801 133.201,-56.4412 128,-50 122.428,-43.0992 115.258,-36.5542 108.589,-31.1401"/>
<polygon fill="#9a32cd" stroke="#9a32cd" points="138.589,-73.3198 146.11,-80.7825 144.885,-70.2587 138.589,-73.3198"/>
<text text-anchor="middle" x="168" y="-53.5" font-family="Helvetica,sans-Serif" font-size="10.00"> myReference</text>
</g>
</g>
</svg>
