<?xml version="1.0" encoding="UTF-8" standalone="no"?>
<!DOCTYPE svg PUBLIC "-//W3C//DTD SVG 1.1//EN"
 "http://www.w3.org/Graphics/SVG/1.1/DTD/svg11.dtd">
<!-- Generated by graphviz version 2.36.0 (20140111.2315)
 -->
<!-- Title: authoring.createedit.GamePropertiesEditor.GamePropertiesEditor Pages: 1 -->
<svg width="386pt" height="136pt"
 viewBox="0.00 0.00 386.00 136.00" xmlns="http://www.w3.org/2000/svg" xmlns:xlink="http://www.w3.org/1999/xlink">
<g id="graph0" class="graph" transform="scale(1 1) rotate(0) translate(4 132)">
<title>authoring.createedit.GamePropertiesEditor.GamePropertiesEditor</title>
<polygon fill="white" stroke="none" points="-4,4 -4,-132 382,-132 382,4 -4,4"/>
<!-- Node1 -->
<g id="node1" class="node"><title>Node1</title>
<polygon fill="#bfbfbf" stroke="black" points="0.5,-43.5 0.5,-84.5 173.5,-84.5 173.5,-43.5 0.5,-43.5"/>
<text text-anchor="start" x="8.5" y="-72.5" font-family="Helvetica,sans-Serif" font-size="10.00">authoring.createedit.Game</text>
<text text-anchor="start" x="8.5" y="-61.5" font-family="Helvetica,sans-Serif" font-size="10.00">PropertiesEditor.GameProperties</text>
<text text-anchor="middle" x="87" y="-50.5" font-family="Helvetica,sans-Serif" font-size="10.00">Editor</text>
</g>
<!-- Node2 -->
<g id="node2" class="node"><title>Node2</title>
<g id="a_node2"><a xlink:href="../../d2/dcf/classauthoring_1_1data_1_1_game_properties_data.html#a292b0150f2f9a23830df35381e2b7277" target="_top" xlink:title="authoring.data.GameProperties\lData.getGridShape">
<polygon fill="white" stroke="black" points="210,-98 210,-128 378,-128 378,-98 210,-98"/>
<text text-anchor="start" x="218" y="-116" font-family="Helvetica,sans-Serif" font-size="10.00">authoring.data.GameProperties</text>
<text text-anchor="middle" x="294" y="-105" font-family="Helvetica,sans-Serif" font-size="10.00">Data.getGridShape</text>
</a>
</g>
</g>
<!-- Node1&#45;&gt;Node2 -->
<g id="edge1" class="edge"><title>Node1&#45;&gt;Node2</title>
<path fill="none" stroke="midnightblue" d="M173.751,-84.4965C189.231,-88.1967 205.235,-92.0221 220.299,-95.6228"/>
<polygon fill="midnightblue" stroke="midnightblue" points="219.508,-99.0321 230.048,-97.9529 221.135,-92.2239 219.508,-99.0321"/>
</g>
<!-- Node3 -->
<g id="node3" class="node"><title>Node3</title>
<g id="a_node3"><a xlink:href="../../d2/dcf/classauthoring_1_1data_1_1_game_properties_data.html#a7777e71c08ad7a58acccc884a00a95f5" target="_top" xlink:title="authoring.data.GameProperties\lData.getNumPlayers">
<polygon fill="white" stroke="black" points="210,-49 210,-79 378,-79 378,-49 210,-49"/>
<text text-anchor="start" x="218" y="-67" font-family="Helvetica,sans-Serif" font-size="10.00">authoring.data.GameProperties</text>
<text text-anchor="middle" x="294" y="-56" font-family="Helvetica,sans-Serif" font-size="10.00">Data.getNumPlayers</text>
</a>
</g>
</g>
<!-- Node1&#45;&gt;Node3 -->
<g id="edge2" class="edge"><title>Node1&#45;&gt;Node3</title>
<path fill="none" stroke="midnightblue" d="M173.751,-64C182.346,-64 191.104,-64 199.772,-64"/>
<polygon fill="midnightblue" stroke="midnightblue" points="199.891,-67.5001 209.891,-64 199.891,-60.5001 199.891,-67.5001"/>
</g>
<!-- Node4 -->
<g id="node4" class="node"><title>Node4</title>
<g id="a_node4"><a xlink:href="../../dc/dae/classauthoring_1_1createedit_1_1_game_properties_editor.html#ac414e036e2a5b5c8eae37aa3ccc99e74" target="_top" xlink:title="authoring.createedit.Game\lPropertiesEditor.initialize">
<polygon fill="white" stroke="black" points="221,-0 221,-30 367,-30 367,-0 221,-0"/>
<text text-anchor="start" x="229" y="-18" font-family="Helvetica,sans-Serif" font-size="10.00">authoring.createedit.Game</text>
<text text-anchor="middle" x="294" y="-7" font-family="Helvetica,sans-Serif" font-size="10.00">PropertiesEditor.initialize</text>
</a>
</g>
</g>
<!-- Node1&#45;&gt;Node4 -->
<g id="edge3" class="edge"><title>Node1&#45;&gt;Node4</title>
<path fill="none" stroke="midnightblue" d="M173.751,-43.5035C189.231,-39.8033 205.235,-35.9779 220.299,-32.3772"/>
<polygon fill="midnightblue" stroke="midnightblue" points="221.135,-35.7761 230.048,-30.0471 219.508,-28.9679 221.135,-35.7761"/>
</g>
</g>
</svg>
