<?xml version="1.0" encoding="UTF-8" standalone="no"?>
<!DOCTYPE svg PUBLIC "-//W3C//DTD SVG 1.1//EN"
 "http://www.w3.org/Graphics/SVG/1.1/DTD/svg11.dtd">
<!-- Generated by graphviz version 2.36.0 (20140111.2315)
 -->
<!-- Title: authoring.concretefeatures.UnitEntry Pages: 1 -->
<svg width="156pt" height="164pt"
 viewBox="0.00 0.00 156.00 164.00" xmlns="http://www.w3.org/2000/svg" xmlns:xlink="http://www.w3.org/1999/xlink">
<g id="graph0" class="graph" transform="scale(1 1) rotate(0) translate(4 160)">
<title>authoring.concretefeatures.UnitEntry</title>
<polygon fill="white" stroke="none" points="-4,4 -4,-160 152,-160 152,4 -4,4"/>
<!-- Node1 -->
<g id="node1" class="node"><title>Node1</title>
<polygon fill="#bfbfbf" stroke="black" points="-1,-1 -1,-31 149,-31 149,-1 -1,-1"/>
<text text-anchor="start" x="7" y="-19" font-family="Helvetica,sans-Serif" font-size="10.00">authoring.concretefeatures.</text>
<text text-anchor="middle" x="74" y="-8" font-family="Helvetica,sans-Serif" font-size="10.00">UnitEntry</text>
</g>
<!-- Node2 -->
<g id="node2" class="node"><title>Node2</title>
<g id="a_node2"><a xlink:href="../../d9/d45/classauthoring_1_1abstractfeatures_1_1_library_entry.html" target="_top" xlink:title="authoring.abstractfeatures.\lLibraryEntry">
<polygon fill="white" stroke="black" points="0,-69 0,-99 148,-99 148,-69 0,-69"/>
<text text-anchor="start" x="8" y="-87" font-family="Helvetica,sans-Serif" font-size="10.00">authoring.abstractfeatures.</text>
<text text-anchor="middle" x="74" y="-76" font-family="Helvetica,sans-Serif" font-size="10.00">LibraryEntry</text>
</a>
</g>
</g>
<!-- Node2&#45;&gt;Node1 -->
<g id="edge1" class="edge"><title>Node2&#45;&gt;Node1</title>
<path fill="none" stroke="midnightblue" d="M74,-58.5322C74,-49.3606 74,-39.2449 74,-31.2931"/>
<polygon fill="midnightblue" stroke="midnightblue" points="70.5001,-58.6789 74,-68.679 77.5001,-58.679 70.5001,-58.6789"/>
</g>
<!-- Node3 -->
<g id="node3" class="node"><title>Node3</title>
<polygon fill="white" stroke="#bfbfbf" points="53,-136.5 53,-155.5 95,-155.5 95,-136.5 53,-136.5"/>
<text text-anchor="middle" x="74" y="-143.5" font-family="Helvetica,sans-Serif" font-size="10.00">HBox</text>
</g>
<!-- Node3&#45;&gt;Node2 -->
<g id="edge2" class="edge"><title>Node3&#45;&gt;Node2</title>
<path fill="none" stroke="midnightblue" d="M74,-126.371C74,-117.585 74,-107.272 74,-99.1408"/>
<polygon fill="midnightblue" stroke="midnightblue" points="70.5001,-126.403 74,-136.403 77.5001,-126.403 70.5001,-126.403"/>
</g>
</g>
</svg>
