<?xml version="1.0" encoding="UTF-8" standalone="no"?>
<!DOCTYPE svg PUBLIC "-//W3C//DTD SVG 1.1//EN"
 "http://www.w3.org/Graphics/SVG/1.1/DTD/svg11.dtd">
<!-- Generated by graphviz version 2.36.0 (20140111.2315)
 -->
<!-- Title: gamedata.stats.Stats.setValue Pages: 1 -->
<svg width="746pt" height="77pt"
 viewBox="0.00 0.00 746.00 77.00" xmlns="http://www.w3.org/2000/svg" xmlns:xlink="http://www.w3.org/1999/xlink">
<g id="graph0" class="graph" transform="scale(1 1) rotate(0) translate(4 73)">
<title>gamedata.stats.Stats.setValue</title>
<polygon fill="white" stroke="none" points="-4,4 -4,-73 742,-73 742,4 -4,4"/>
<!-- Node1 -->
<g id="node1" class="node"><title>Node1</title>
<polygon fill="#bfbfbf" stroke="black" points="0,-22 0,-52 140,-52 140,-22 0,-22"/>
<text text-anchor="start" x="8" y="-40" font-family="Helvetica,sans-Serif" font-size="10.00">gamedata.stats.Stats.set</text>
<text text-anchor="middle" x="70" y="-29" font-family="Helvetica,sans-Serif" font-size="10.00">Value</text>
</g>
<!-- Node2 -->
<g id="node2" class="node"><title>Node2</title>
<g id="a_node2"><a xlink:href="../../d0/dfd/classgameengine_1_1player_1_1_player.html#abc0c3d9e330e069cc24d34e1bbc85390" target="_top" xlink:title="gameengine.player.Player.changeStat">
<polygon fill="white" stroke="black" points="176,-49.5 176,-68.5 374,-68.5 374,-49.5 176,-49.5"/>
<text text-anchor="middle" x="275" y="-56.5" font-family="Helvetica,sans-Serif" font-size="10.00">gameengine.player.Player.changeStat</text>
</a>
</g>
</g>
<!-- Node1&#45;&gt;Node2 -->
<g id="edge1" class="edge"><title>Node1&#45;&gt;Node2</title>
<path fill="none" stroke="midnightblue" d="M150.23,-45.5865C162.003,-46.8623 174.195,-48.1837 186.132,-49.4774"/>
<polygon fill="midnightblue" stroke="midnightblue" points="150.329,-42.0768 140.01,-44.4789 149.574,-49.036 150.329,-42.0768"/>
</g>
<!-- Node3 -->
<g id="node3" class="node"><title>Node3</title>
<g id="a_node3"><a xlink:href="../../d6/dcc/classgamedata_1_1action_1_1_stats_data_modifier.html#a5ebf6f78cddbc8300bf2c0ac096e1246" target="_top" xlink:title="gamedata.action.StatsData\lModifier.modifyStats">
<polygon fill="white" stroke="black" points="200,-0 200,-30 350,-30 350,-0 200,-0"/>
<text text-anchor="start" x="208" y="-18" font-family="Helvetica,sans-Serif" font-size="10.00">gamedata.action.StatsData</text>
<text text-anchor="middle" x="275" y="-7" font-family="Helvetica,sans-Serif" font-size="10.00">Modifier.modifyStats</text>
</a>
</g>
</g>
<!-- Node1&#45;&gt;Node3 -->
<g id="edge2" class="edge"><title>Node1&#45;&gt;Node3</title>
<path fill="none" stroke="midnightblue" d="M150.106,-28.427C166.517,-26.6484 183.751,-24.7807 199.972,-23.0227"/>
<polygon fill="midnightblue" stroke="midnightblue" points="149.574,-24.964 140.01,-29.5211 150.329,-31.9232 149.574,-24.964"/>
</g>
<!-- Node4 -->
<g id="node4" class="node"><title>Node4</title>
<g id="a_node4"><a xlink:href="../../d1/d6d/classgamedata_1_1action_1_1_concrete_action.html#abc19207421045aa3b6adc01b29231f25" target="_top" xlink:title="gamedata.action.Concrete\lAction.modifyStats">
<polygon fill="white" stroke="black" points="410.5,-0 410.5,-30 555.5,-30 555.5,-0 410.5,-0"/>
<text text-anchor="start" x="418.5" y="-18" font-family="Helvetica,sans-Serif" font-size="10.00">gamedata.action.Concrete</text>
<text text-anchor="middle" x="483" y="-7" font-family="Helvetica,sans-Serif" font-size="10.00">Action.modifyStats</text>
</a>
</g>
</g>
<!-- Node3&#45;&gt;Node4 -->
<g id="edge3" class="edge"><title>Node3&#45;&gt;Node4</title>
<path fill="none" stroke="midnightblue" d="M360.309,-15C376.904,-15 394.168,-15 410.3,-15"/>
<polygon fill="midnightblue" stroke="midnightblue" points="360.08,-11.5001 350.08,-15 360.08,-18.5001 360.08,-11.5001"/>
</g>
<!-- Node5 -->
<g id="node5" class="node"><title>Node5</title>
<g id="a_node5"><a xlink:href="../../d1/d6d/classgamedata_1_1action_1_1_concrete_action.html#ad9d830d118b159992c27da362fd911b5" target="_top" xlink:title="gamedata.action.Concrete\lAction.doBehavior">
<polygon fill="white" stroke="black" points="592.5,-0 592.5,-30 737.5,-30 737.5,-0 592.5,-0"/>
<text text-anchor="start" x="600.5" y="-18" font-family="Helvetica,sans-Serif" font-size="10.00">gamedata.action.Concrete</text>
<text text-anchor="middle" x="665" y="-7" font-family="Helvetica,sans-Serif" font-size="10.00">Action.doBehavior</text>
</a>
</g>
</g>
<!-- Node4&#45;&gt;Node5 -->
<g id="edge4" class="edge"><title>Node4&#45;&gt;Node5</title>
<path fill="none" stroke="midnightblue" d="M565.921,-15C574.722,-15 583.626,-15 592.295,-15"/>
<polygon fill="midnightblue" stroke="midnightblue" points="565.658,-11.5001 555.658,-15 565.658,-18.5001 565.658,-11.5001"/>
</g>
</g>
</svg>
