<?xml version="1.0" encoding="UTF-8" standalone="no"?>
<!DOCTYPE svg PUBLIC "-//W3C//DTD SVG 1.1//EN"
 "http://www.w3.org/Graphics/SVG/1.1/DTD/svg11.dtd">
<!-- Generated by graphviz version 2.36.0 (20140111.2315)
 -->
<!-- Title: gamedata.stats.Stats.getStatNames Pages: 1 -->
<svg width="1016pt" height="245pt"
 viewBox="0.00 0.00 1016.00 245.00" xmlns="http://www.w3.org/2000/svg" xmlns:xlink="http://www.w3.org/1999/xlink">
<g id="graph0" class="graph" transform="scale(1 1) rotate(0) translate(4 241)">
<title>gamedata.stats.Stats.getStatNames</title>
<polygon fill="white" stroke="none" points="-4,4 -4,-241 1012,-241 1012,4 -4,4"/>
<!-- Node1 -->
<g id="node1" class="node"><title>Node1</title>
<polygon fill="#bfbfbf" stroke="black" points="0,-122 0,-152 140,-152 140,-122 0,-122"/>
<text text-anchor="start" x="8" y="-140" font-family="Helvetica,sans-Serif" font-size="10.00">gamedata.stats.Stats.get</text>
<text text-anchor="middle" x="70" y="-129" font-family="Helvetica,sans-Serif" font-size="10.00">StatNames</text>
</g>
<!-- Node2 -->
<g id="node2" class="node"><title>Node2</title>
<g id="a_node2"><a xlink:href="../../d3/d7c/classauthoring_1_1concretefeatures_1_1_stats_individual_editor.html#a764ff9599a5931fe06a974fe48dfac86" target="_top" xlink:title="authoring.concretefeatures.\lStatsIndividualEditor.initialize">
<polygon fill="white" stroke="black" points="198.5,-198 198.5,-228 353.5,-228 353.5,-198 198.5,-198"/>
<text text-anchor="start" x="206.5" y="-216" font-family="Helvetica,sans-Serif" font-size="10.00">authoring.concretefeatures.</text>
<text text-anchor="middle" x="276" y="-205" font-family="Helvetica,sans-Serif" font-size="10.00">StatsIndividualEditor.initialize</text>
</a>
</g>
</g>
<!-- Node1&#45;&gt;Node2 -->
<g id="edge1" class="edge"><title>Node1&#45;&gt;Node2</title>
<path fill="none" stroke="midnightblue" d="M108.805,-156.551C128.497,-166.242 153.173,-177.63 176,-186 187.959,-190.385 200.961,-194.427 213.49,-197.975"/>
<polygon fill="midnightblue" stroke="midnightblue" points="110.363,-153.417 99.8517,-152.093 107.243,-159.683 110.363,-153.417"/>
</g>
<!-- Node4 -->
<g id="node4" class="node"><title>Node4</title>
<g id="a_node4"><a xlink:href="../../de/d18/classauthoring_1_1concretefeatures_1_1_stats_total_editor.html#a79362418822e7a3667b65bb1c150219e" target="_top" xlink:title="authoring.concretefeatures.\lStatsTotalEditor.initStatsCreatorBoxes">
<polygon fill="white" stroke="black" points="176.5,-147 176.5,-177 375.5,-177 375.5,-147 176.5,-147"/>
<text text-anchor="start" x="184.5" y="-165" font-family="Helvetica,sans-Serif" font-size="10.00">authoring.concretefeatures.</text>
<text text-anchor="middle" x="276" y="-154" font-family="Helvetica,sans-Serif" font-size="10.00">StatsTotalEditor.initStatsCreatorBoxes</text>
</a>
</g>
</g>
<!-- Node1&#45;&gt;Node4 -->
<g id="edge3" class="edge"><title>Node1&#45;&gt;Node4</title>
<path fill="none" stroke="midnightblue" d="M150.053,-146.688C158.664,-147.743 167.506,-148.827 176.315,-149.906"/>
<polygon fill="midnightblue" stroke="midnightblue" points="150.417,-143.206 140.065,-145.464 149.565,-150.154 150.417,-143.206"/>
</g>
<!-- Node8 -->
<g id="node8" class="node"><title>Node8</title>
<g id="a_node8"><a xlink:href="../../d8/d5f/classauthoring_1_1eventeditor_1_1_condition_editor_pane.html#a958135e32cc01512c109f4c48a031ee0" target="_top" xlink:title="authoring.eventeditor.Condition\lEditorPane.setupStatsBox">
<polygon fill="white" stroke="black" points="192.5,-98 192.5,-128 359.5,-128 359.5,-98 192.5,-98"/>
<text text-anchor="start" x="200.5" y="-116" font-family="Helvetica,sans-Serif" font-size="10.00">authoring.eventeditor.Condition</text>
<text text-anchor="middle" x="276" y="-105" font-family="Helvetica,sans-Serif" font-size="10.00">EditorPane.setupStatsBox</text>
</a>
</g>
</g>
<!-- Node1&#45;&gt;Node8 -->
<g id="edge7" class="edge"><title>Node1&#45;&gt;Node8</title>
<path fill="none" stroke="midnightblue" d="M150.022,-127.703C163.863,-126.075 178.298,-124.377 192.237,-122.737"/>
<polygon fill="midnightblue" stroke="midnightblue" points="149.588,-124.23 140.065,-128.875 150.406,-131.182 149.588,-124.23"/>
</g>
<!-- Node12 -->
<g id="node12" class="node"><title>Node12</title>
<g id="a_node12"><a xlink:href="../../df/dd5/classgame_player_1_1_view_controller.html#a0c29875ecb4818334f53b1cdefa6e305" target="_top" xlink:title="gamePlayer.ViewController.update\lStats">
<polygon fill="white" stroke="black" points="186,-49 186,-79 366,-79 366,-49 186,-49"/>
<text text-anchor="start" x="194" y="-67" font-family="Helvetica,sans-Serif" font-size="10.00">gamePlayer.ViewController.update</text>
<text text-anchor="middle" x="276" y="-56" font-family="Helvetica,sans-Serif" font-size="10.00">Stats</text>
</a>
</g>
</g>
<!-- Node1&#45;&gt;Node12 -->
<g id="edge11" class="edge"><title>Node1&#45;&gt;Node12</title>
<path fill="none" stroke="midnightblue" d="M108.287,-117.386C128.021,-107.577 152.893,-96.1019 176,-88 185.346,-84.7231 195.34,-81.7314 205.252,-79.0569"/>
<polygon fill="midnightblue" stroke="midnightblue" points="106.681,-114.276 99.3252,-121.901 109.831,-120.528 106.681,-114.276"/>
</g>
<!-- Node3 -->
<g id="node3" class="node"><title>Node3</title>
<g id="a_node3"><a xlink:href="../../d3/d7c/classauthoring_1_1concretefeatures_1_1_stats_individual_editor.html#a25a8b4ab6003b44c59da6321f574536e" target="_top" xlink:title="authoring.concretefeatures.\lStatsIndividualEditor.StatsIndividual\lEditor">
<polygon fill="white" stroke="black" points="412,-195.5 412,-236.5 598,-236.5 598,-195.5 412,-195.5"/>
<text text-anchor="start" x="420" y="-224.5" font-family="Helvetica,sans-Serif" font-size="10.00">authoring.concretefeatures.</text>
<text text-anchor="start" x="420" y="-213.5" font-family="Helvetica,sans-Serif" font-size="10.00">StatsIndividualEditor.StatsIndividual</text>
<text text-anchor="middle" x="505" y="-202.5" font-family="Helvetica,sans-Serif" font-size="10.00">Editor</text>
</a>
</g>
</g>
<!-- Node2&#45;&gt;Node3 -->
<g id="edge2" class="edge"><title>Node2&#45;&gt;Node3</title>
<path fill="none" stroke="midnightblue" d="M363.727,-214.146C379.416,-214.354 395.829,-214.57 411.671,-214.78"/>
<polygon fill="midnightblue" stroke="midnightblue" points="363.581,-210.644 353.535,-214.011 363.488,-217.643 363.581,-210.644"/>
</g>
<!-- Node5 -->
<g id="node5" class="node"><title>Node5</title>
<g id="a_node5"><a xlink:href="../../de/d18/classauthoring_1_1concretefeatures_1_1_stats_total_editor.html#a28790263c93a014c304f1a7b6698f808" target="_top" xlink:title="authoring.concretefeatures.\lStatsTotalEditor.initStatsEditorBox">
<polygon fill="white" stroke="black" points="415.5,-147 415.5,-177 594.5,-177 594.5,-147 415.5,-147"/>
<text text-anchor="start" x="423.5" y="-165" font-family="Helvetica,sans-Serif" font-size="10.00">authoring.concretefeatures.</text>
<text text-anchor="middle" x="505" y="-154" font-family="Helvetica,sans-Serif" font-size="10.00">StatsTotalEditor.initStatsEditorBox</text>
</a>
</g>
</g>
<!-- Node4&#45;&gt;Node5 -->
<g id="edge4" class="edge"><title>Node4&#45;&gt;Node5</title>
<path fill="none" stroke="midnightblue" d="M385.797,-162C395.634,-162 405.518,-162 415.153,-162"/>
<polygon fill="midnightblue" stroke="midnightblue" points="385.575,-158.5 375.575,-162 385.575,-165.5 385.575,-158.5"/>
</g>
<!-- Node6 -->
<g id="node6" class="node"><title>Node6</title>
<g id="a_node6"><a xlink:href="../../de/d18/classauthoring_1_1concretefeatures_1_1_stats_total_editor.html#ae8d331fc6214ee5c0e723f00994e406d" target="_top" xlink:title="authoring.concretefeatures.\lStatsTotalEditor.initialize">
<polygon fill="white" stroke="black" points="643,-147 643,-177 793,-177 793,-147 643,-147"/>
<text text-anchor="start" x="651" y="-165" font-family="Helvetica,sans-Serif" font-size="10.00">authoring.concretefeatures.</text>
<text text-anchor="middle" x="718" y="-154" font-family="Helvetica,sans-Serif" font-size="10.00">StatsTotalEditor.initialize</text>
</a>
</g>
</g>
<!-- Node5&#45;&gt;Node6 -->
<g id="edge5" class="edge"><title>Node5&#45;&gt;Node6</title>
<path fill="none" stroke="midnightblue" d="M604.757,-162C617.518,-162 630.411,-162 642.685,-162"/>
<polygon fill="midnightblue" stroke="midnightblue" points="604.566,-158.5 594.566,-162 604.566,-165.5 604.566,-158.5"/>
</g>
<!-- Node7 -->
<g id="node7" class="node"><title>Node7</title>
<g id="a_node7"><a xlink:href="../../de/d18/classauthoring_1_1concretefeatures_1_1_stats_total_editor.html#a59acc1bc3e0468ee318581ae239cb204" target="_top" xlink:title="authoring.concretefeatures.\lStatsTotalEditor.StatsTotalEditor">
<polygon fill="white" stroke="black" points="838.5,-147 838.5,-177 1007.5,-177 1007.5,-147 838.5,-147"/>
<text text-anchor="start" x="846.5" y="-165" font-family="Helvetica,sans-Serif" font-size="10.00">authoring.concretefeatures.</text>
<text text-anchor="middle" x="923" y="-154" font-family="Helvetica,sans-Serif" font-size="10.00">StatsTotalEditor.StatsTotalEditor</text>
</a>
</g>
</g>
<!-- Node6&#45;&gt;Node7 -->
<g id="edge6" class="edge"><title>Node6&#45;&gt;Node7</title>
<path fill="none" stroke="midnightblue" d="M803.269,-162C814.893,-162 826.828,-162 838.44,-162"/>
<polygon fill="midnightblue" stroke="midnightblue" points="803.149,-158.5 793.149,-162 803.149,-165.5 803.149,-158.5"/>
</g>
<!-- Node9 -->
<g id="node9" class="node"><title>Node9</title>
<g id="a_node9"><a xlink:href="../../d8/d5f/classauthoring_1_1eventeditor_1_1_condition_editor_pane.html#a421ca65a21e0a47b69c3d253020d5d8e" target="_top" xlink:title="authoring.eventeditor.Condition\lEditorPane.setUpComponents">
<polygon fill="white" stroke="black" points="421.5,-98 421.5,-128 588.5,-128 588.5,-98 421.5,-98"/>
<text text-anchor="start" x="429.5" y="-116" font-family="Helvetica,sans-Serif" font-size="10.00">authoring.eventeditor.Condition</text>
<text text-anchor="middle" x="505" y="-105" font-family="Helvetica,sans-Serif" font-size="10.00">EditorPane.setUpComponents</text>
</a>
</g>
</g>
<!-- Node8&#45;&gt;Node9 -->
<g id="edge8" class="edge"><title>Node8&#45;&gt;Node9</title>
<path fill="none" stroke="midnightblue" d="M369.616,-113C386.788,-113 404.62,-113 421.467,-113"/>
<polygon fill="midnightblue" stroke="midnightblue" points="369.594,-109.5 359.594,-113 369.594,-116.5 369.594,-109.5"/>
</g>
<!-- Node10 -->
<g id="node10" class="node"><title>Node10</title>
<g id="a_node10"><a xlink:href="../../d8/d5f/classauthoring_1_1eventeditor_1_1_condition_editor_pane.html#a194c440cd15f0b71cae8f07dd45377e0" target="_top" xlink:title="authoring.eventeditor.Condition\lEditorPane.initialize">
<polygon fill="white" stroke="black" points="634.5,-98 634.5,-128 801.5,-128 801.5,-98 634.5,-98"/>
<text text-anchor="start" x="642.5" y="-116" font-family="Helvetica,sans-Serif" font-size="10.00">authoring.eventeditor.Condition</text>
<text text-anchor="middle" x="718" y="-105" font-family="Helvetica,sans-Serif" font-size="10.00">EditorPane.initialize</text>
</a>
</g>
</g>
<!-- Node9&#45;&gt;Node10 -->
<g id="edge9" class="edge"><title>Node9&#45;&gt;Node10</title>
<path fill="none" stroke="midnightblue" d="M599.073,-113C610.856,-113 622.848,-113 634.452,-113"/>
<polygon fill="midnightblue" stroke="midnightblue" points="598.787,-109.5 588.787,-113 598.787,-116.5 598.787,-109.5"/>
</g>
<!-- Node11 -->
<g id="node11" class="node"><title>Node11</title>
<g id="a_node11"><a xlink:href="../../d8/d5f/classauthoring_1_1eventeditor_1_1_condition_editor_pane.html#a1ce5d677410533b45754ccaf6464e573" target="_top" xlink:title="authoring.eventeditor.Condition\lEditorPane.ConditionEditorPane">
<polygon fill="white" stroke="black" points="839.5,-98 839.5,-128 1006.5,-128 1006.5,-98 839.5,-98"/>
<text text-anchor="start" x="847.5" y="-116" font-family="Helvetica,sans-Serif" font-size="10.00">authoring.eventeditor.Condition</text>
<text text-anchor="middle" x="923" y="-105" font-family="Helvetica,sans-Serif" font-size="10.00">EditorPane.ConditionEditorPane</text>
</a>
</g>
</g>
<!-- Node10&#45;&gt;Node11 -->
<g id="edge10" class="edge"><title>Node10&#45;&gt;Node11</title>
<path fill="none" stroke="midnightblue" d="M811.815,-113C820.94,-113 830.16,-113 839.176,-113"/>
<polygon fill="midnightblue" stroke="midnightblue" points="811.568,-109.5 801.568,-113 811.568,-116.5 811.568,-109.5"/>
</g>
<!-- Node13 -->
<g id="node13" class="node"><title>Node13</title>
<g id="a_node13"><a xlink:href="../../d6/d24/classgame_player_1_1_select_state.html#a801827392f0faeee6b96925060d77838" target="_top" xlink:title="gamePlayer.SelectState.on\lClick">
<polygon fill="white" stroke="black" points="431.5,-49 431.5,-79 578.5,-79 578.5,-49 431.5,-49"/>
<text text-anchor="start" x="439.5" y="-67" font-family="Helvetica,sans-Serif" font-size="10.00">gamePlayer.SelectState.on</text>
<text text-anchor="middle" x="505" y="-56" font-family="Helvetica,sans-Serif" font-size="10.00">Click</text>
</a>
</g>
</g>
<!-- Node12&#45;&gt;Node13 -->
<g id="edge12" class="edge"><title>Node12&#45;&gt;Node13</title>
<path fill="none" stroke="midnightblue" d="M376.274,-64C394.768,-64 413.774,-64 431.286,-64"/>
<polygon fill="midnightblue" stroke="midnightblue" points="376.065,-60.5001 366.065,-64 376.065,-67.5001 376.065,-60.5001"/>
</g>
<!-- Node14 -->
<g id="node14" class="node"><title>Node14</title>
<g id="a_node14"><a xlink:href="../../df/df0/classtests_1_1_view_controller_test.html#a9696e815d2ffde2ce4b4317175423ef4" target="_top" xlink:title="tests.ViewControllerTest.update\lStatsTest">
<polygon fill="white" stroke="black" points="421.5,-0 421.5,-30 588.5,-30 588.5,-0 421.5,-0"/>
<text text-anchor="start" x="429.5" y="-18" font-family="Helvetica,sans-Serif" font-size="10.00">tests.ViewControllerTest.update</text>
<text text-anchor="middle" x="505" y="-7" font-family="Helvetica,sans-Serif" font-size="10.00">StatsTest</text>
</a>
</g>
</g>
<!-- Node12&#45;&gt;Node14 -->
<g id="edge13" class="edge"><title>Node12&#45;&gt;Node14</title>
<path fill="none" stroke="midnightblue" d="M356.614,-46.8146C381.998,-41.3353 409.871,-35.3185 434.482,-30.0062"/>
<polygon fill="midnightblue" stroke="midnightblue" points="355.687,-43.4341 346.65,-48.9654 357.164,-50.2765 355.687,-43.4341"/>
</g>
</g>
</svg>
