<?xml version="1.0" encoding="UTF-8" standalone="no"?>
<!DOCTYPE svg PUBLIC "-//W3C//DTD SVG 1.1//EN"
 "http://www.w3.org/Graphics/SVG/1.1/DTD/svg11.dtd">
<!-- Generated by graphviz version 2.36.0 (20140111.2315)
 -->
<!-- Title: gamedata.gamecomponents.Game.addPlayers Pages: 1 -->
<!--zoomable 263 -->
<svg id="main" version="1.1" xmlns="http://www.w3.org/2000/svg" xmlns:xlink="http://www.w3.org/1999/xlink" xml:space="preserve" onload="init(evt)">
<style type="text/css"><![CDATA[
.edge:hover path { stroke: red; }
.edge:hover polygon { stroke: red; fill: red; }
]]></style>
<script type="text/javascript"><![CDATA[
var edges = document.getElementsByTagName('g');
if (edges && edges.length) {
  for (var i=0;i<edges.length;i++) {
    if (edges[i].id.substr(0,4)=='edge') {
      edges[i].setAttribute('class','edge');
    }
  }
}
]]></script>
        <defs>
                <circle id="rim" cx="0" cy="0" r="7"/>
                <circle id="rim2" cx="0" cy="0" r="3.5"/>
                <g id="zoomPlus">
                        <use xlink:href="#rim" fill="#404040">
                                <set attributeName="fill" to="#808080" begin="zoomplus.mouseover" end="zoomplus.mouseout"/>
                        </use>
                        <path d="M-4,0h8M0,-4v8" fill="none" stroke="white" stroke-width="1.5" pointer-events="none"/>
                </g>
                <g id="zoomMin">
                        <use xlink:href="#rim" fill="#404040">
                                <set attributeName="fill" to="#808080" begin="zoomminus.mouseover" end="zoomminus.mouseout"/>
                        </use>
                        <path d="M-4,0h8" fill="none" stroke="white" stroke-width="1.5" pointer-events="none"/>
                </g>
                <g id="dirArrow">
                        <path fill="none" stroke="white" stroke-width="1.5" d="M0,-3.0v7 M-2.5,-0.5L0,-3.0L2.5,-0.5"/>
                </g>
               <g id="resetDef">
                       <use xlink:href="#rim2" fill="#404040">
                               <set attributeName="fill" to="#808080" begin="reset.mouseover" end="reset.mouseout"/>
                       </use>
               </g>
        </defs>

<script type="text/javascript">
var viewWidth = 866;
var viewHeight = 263;
var sectionId = 'dynsection-1';
</script>
<script xlink:href="../../svgpan.js"/>
<svg id="graph" class="graph">
<g id="viewport">
<title>gamedata.gamecomponents.Game.addPlayers</title>
<polygon fill="white" stroke="none" points="-4,4 -4,-259 862,-259 862,4 -4,4"/>
<!-- Node1 -->
<g id="node1" class="node"><title>Node1</title>
<polygon fill="#bfbfbf" stroke="black" points="0,-147 0,-177 160,-177 160,-147 0,-147"/>
<text text-anchor="start" x="8" y="-165" font-family="Helvetica,sans-Serif" font-size="10.00">gamedata.gamecomponents.</text>
<text text-anchor="middle" x="80" y="-154" font-family="Helvetica,sans-Serif" font-size="10.00">Game.addPlayers</text>
</g>
<!-- Node2 -->
<g id="node2" class="node"><title>Node2</title>
<g id="a_node2"><a xlink:href="../../d5/d1d/classauthoring_1_1data_1_1_game_authoring_data.html#a21045a0883cd8dbd1fb0b4328ba73cad" target="_top" xlink:title="authoring.data.GameAuthoring\lData.createGame">
<polygon fill="white" stroke="black" points="207,-181 207,-211 373,-211 373,-181 207,-181"/>
<text text-anchor="start" x="215" y="-199" font-family="Helvetica,sans-Serif" font-size="10.00">authoring.data.GameAuthoring</text>
<text text-anchor="middle" x="290" y="-188" font-family="Helvetica,sans-Serif" font-size="10.00">Data.createGame</text>
</a>
</g>
</g>
<!-- Node1&#45;&gt;Node2 -->
<g id="edge1" class="edge"><title>Node1&#45;&gt;Node2</title>
<path fill="none" stroke="midnightblue" d="M170.343,-176.604C182.478,-178.588 194.884,-180.616 206.883,-182.577"/>
<polygon fill="midnightblue" stroke="midnightblue" points="170.663,-173.11 160.229,-174.951 169.534,-180.018 170.663,-173.11"/>
</g>
<!-- Node3 -->
<g id="node3" class="node"><title>Node3</title>
<g id="a_node3"><a xlink:href="../../db/d40/classfxml__main_1_1_authoring_controller.html#a2ec133c8edf0a7ab1e84f2e12455233d" target="_top" xlink:title="fxml_main.AuthoringController.save\lAsGame">
<polygon fill="white" stroke="black" points="434.5,-225 434.5,-255 621.5,-255 621.5,-225 434.5,-225"/>
<text text-anchor="start" x="442.5" y="-243" font-family="Helvetica,sans-Serif" font-size="10.00">fxml_main.AuthoringController.save</text>
<text text-anchor="middle" x="528" y="-232" font-family="Helvetica,sans-Serif" font-size="10.00">AsGame</text>
</a>
</g>
</g>
<!-- Node1&#45;&gt;Node3 -->
<g id="edge12" class="edge"><title>Node1&#45;&gt;Node3</title>
<path fill="none" stroke="midnightblue" d="M112.793,-182.485C135.124,-195.733 166.212,-211.956 196,-220 274.506,-241.199 367.148,-245.093 434.427,-244.325"/>
<polygon fill="midnightblue" stroke="midnightblue" points="114.453,-179.398 104.087,-177.207 110.824,-185.384 114.453,-179.398"/>
</g>
<!-- Node5 -->
<g id="node5" class="node"><title>Node5</title>
<g id="a_node5"><a xlink:href="../../d3/d12/classtests_1_1_test_game_creator.html#a6088501ec4cce8d90d4561b695065a0d" target="_top" xlink:title="tests.TestGameCreator.create\lNewGame">
<polygon fill="white" stroke="black" points="209.5,-113 209.5,-143 370.5,-143 370.5,-113 209.5,-113"/>
<text text-anchor="start" x="217.5" y="-131" font-family="Helvetica,sans-Serif" font-size="10.00">tests.TestGameCreator.create</text>
<text text-anchor="middle" x="290" y="-120" font-family="Helvetica,sans-Serif" font-size="10.00">NewGame</text>
</a>
</g>
</g>
<!-- Node1&#45;&gt;Node5 -->
<g id="edge4" class="edge"><title>Node1&#45;&gt;Node5</title>
<path fill="none" stroke="midnightblue" d="M170.113,-147.433C183.138,-145.304 196.481,-143.123 209.302,-141.028"/>
<polygon fill="midnightblue" stroke="midnightblue" points="169.534,-143.982 160.229,-149.049 170.663,-150.89 169.534,-143.982"/>
</g>
<!-- Node12 -->
<g id="node12" class="node"><title>Node12</title>
<g id="a_node12"><a xlink:href="../../d9/d10/classgamedata_1_1wrappers_1_1_game_data.html#ab7fc650834149e8edee90a0f3373fb0c" target="_top" xlink:title="gamedata.wrappers.GameData.get\lGameFromData">
<polygon fill="white" stroke="black" points="196.5,-64 196.5,-94 383.5,-94 383.5,-64 196.5,-64"/>
<text text-anchor="start" x="204.5" y="-82" font-family="Helvetica,sans-Serif" font-size="10.00">gamedata.wrappers.GameData.get</text>
<text text-anchor="middle" x="290" y="-71" font-family="Helvetica,sans-Serif" font-size="10.00">GameFromData</text>
</a>
</g>
</g>
<!-- Node1&#45;&gt;Node12 -->
<g id="edge11" class="edge"><title>Node1&#45;&gt;Node12</title>
<path fill="none" stroke="midnightblue" d="M115.073,-141.985C137.49,-129.46 167.794,-113.723 196,-103 204.573,-99.741 213.754,-96.7746 222.888,-94.1254"/>
<polygon fill="midnightblue" stroke="midnightblue" points="113.264,-138.987 106.283,-146.958 116.711,-145.08 113.264,-138.987"/>
</g>
<!-- Node2&#45;&gt;Node3 -->
<g id="edge2" class="edge"><title>Node2&#45;&gt;Node3</title>
<path fill="none" stroke="midnightblue" d="M381.59,-212.89C402.931,-216.868 425.538,-221.083 446.405,-224.974"/>
<polygon fill="midnightblue" stroke="midnightblue" points="382.03,-209.411 371.558,-211.019 380.747,-216.293 382.03,-209.411"/>
</g>
<!-- Node4 -->
<g id="node4" class="node"><title>Node4</title>
<g id="a_node4"><a xlink:href="../../db/d40/classfxml__main_1_1_authoring_controller.html#a0a9b65fb87ba111e2185014364016f95" target="_top" xlink:title="fxml_main.AuthoringController.saveGame">
<polygon fill="white" stroke="black" points="420,-186.5 420,-205.5 636,-205.5 636,-186.5 420,-186.5"/>
<text text-anchor="middle" x="528" y="-193.5" font-family="Helvetica,sans-Serif" font-size="10.00">fxml_main.AuthoringController.saveGame</text>
</a>
</g>
</g>
<!-- Node2&#45;&gt;Node4 -->
<g id="edge3" class="edge"><title>Node2&#45;&gt;Node4</title>
<path fill="none" stroke="midnightblue" d="M383.546,-196C395.428,-196 407.672,-196 419.764,-196"/>
<polygon fill="midnightblue" stroke="midnightblue" points="383.21,-192.5 373.21,-196 383.21,-199.5 383.21,-192.5"/>
</g>
<!-- Node6 -->
<g id="node6" class="node"><title>Node6</title>
<g id="a_node6"><a xlink:href="../../d8/d93/classauthoring_1_1concretefeatures_1_1menus_1_1_file_x.html#a06eadcf7852f723bc5a70d08a1bc5f3f" target="_top" xlink:title="authoring.concretefeatures.menus.\lFileX.handleSave">
<polygon fill="white" stroke="black" points="435,-137 435,-167 621,-167 621,-137 435,-137"/>
<text text-anchor="start" x="443" y="-155" font-family="Helvetica,sans-Serif" font-size="10.00">authoring.concretefeatures.menus.</text>
<text text-anchor="middle" x="528" y="-144" font-family="Helvetica,sans-Serif" font-size="10.00">FileX.handleSave</text>
</a>
</g>
</g>
<!-- Node5&#45;&gt;Node6 -->
<g id="edge5" class="edge"><title>Node5&#45;&gt;Node6</title>
<path fill="none" stroke="midnightblue" d="M380.841,-137.136C398.484,-138.931 417.018,-140.815 434.738,-142.617"/>
<polygon fill="midnightblue" stroke="midnightblue" points="380.873,-133.622 370.57,-136.092 380.164,-140.586 380.873,-133.622"/>
</g>
<!-- Node8 -->
<g id="node8" class="node"><title>Node8</title>
<g id="a_node8"><a xlink:href="../../df/dd5/classgame_player_1_1_view_controller.html#ac0350fa190876455755b7fb25f567af1" target="_top" xlink:title="gamePlayer.ViewController.testGame">
<polygon fill="white" stroke="black" points="431,-98.5 431,-117.5 625,-117.5 625,-98.5 431,-98.5"/>
<text text-anchor="middle" x="528" y="-105.5" font-family="Helvetica,sans-Serif" font-size="10.00">gamePlayer.ViewController.testGame</text>
</a>
</g>
</g>
<!-- Node5&#45;&gt;Node8 -->
<g id="edge7" class="edge"><title>Node5&#45;&gt;Node8</title>
<path fill="none" stroke="midnightblue" d="M380.629,-120.404C396.965,-119.02 414.073,-117.57 430.595,-116.17"/>
<polygon fill="midnightblue" stroke="midnightblue" points="380.239,-116.925 370.57,-121.257 380.83,-123.9 380.239,-116.925"/>
</g>
<!-- Node9 -->
<g id="node9" class="node"><title>Node9</title>
<g id="a_node9"><a xlink:href="../../d9/d51/classtests_1_1_global_action_tester.html#acc8e81a79086b93c043129dba02b3854" target="_top" xlink:title="tests.GlobalActionTester.\lGlobalActionTester">
<polygon fill="white" stroke="black" points="461,-49 461,-79 595,-79 595,-49 461,-49"/>
<text text-anchor="start" x="469" y="-67" font-family="Helvetica,sans-Serif" font-size="10.00">tests.GlobalActionTester.</text>
<text text-anchor="middle" x="528" y="-56" font-family="Helvetica,sans-Serif" font-size="10.00">GlobalActionTester</text>
</a>
</g>
</g>
<!-- Node5&#45;&gt;Node9 -->
<g id="edge8" class="edge"><title>Node5&#45;&gt;Node9</title>
<path fill="none" stroke="midnightblue" d="M360.499,-110.204C368.461,-107.904 376.432,-105.481 384,-103 400.313,-97.6527 403.601,-94.0767 420,-89 433.121,-84.9382 447.325,-81.1837 460.966,-77.8848"/>
<polygon fill="midnightblue" stroke="midnightblue" points="359.486,-106.854 350.818,-112.946 361.394,-113.589 359.486,-106.854"/>
</g>
<!-- Node10 -->
<g id="node10" class="node"><title>Node10</title>
<g id="a_node10"><a xlink:href="../../d7/df4/classtests_1_1_j_s_o_n_tester_main.html#a5f1fa68f3fcb37a473271cdbfeaaa92e" target="_top" xlink:title="tests.JSONTesterMain.test\lJSONwrite">
<polygon fill="white" stroke="black" points="458,-0 458,-30 598,-30 598,-0 458,-0"/>
<text text-anchor="start" x="466" y="-18" font-family="Helvetica,sans-Serif" font-size="10.00">tests.JSONTesterMain.test</text>
<text text-anchor="middle" x="528" y="-7" font-family="Helvetica,sans-Serif" font-size="10.00">JSONwrite</text>
</a>
</g>
</g>
<!-- Node5&#45;&gt;Node10 -->
<g id="edge9" class="edge"><title>Node5&#45;&gt;Node10</title>
<path fill="none" stroke="midnightblue" d="M376.604,-108.091C379.174,-106.521 381.648,-104.827 384,-103 409.772,-82.9774 393.814,-58.4775 420,-39 431.075,-30.7624 444.459,-25.2658 457.955,-21.6183"/>
<polygon fill="midnightblue" stroke="midnightblue" points="374.692,-105.146 367.547,-112.969 378.011,-111.309 374.692,-105.146"/>
</g>
<!-- Node7 -->
<g id="node7" class="node"><title>Node7</title>
<g id="a_node7"><a xlink:href="../../d8/d93/classauthoring_1_1concretefeatures_1_1menus_1_1_file_x.html#a4b99e0877ab0c9e769217c815f3b99a1" target="_top" xlink:title="authoring.concretefeatures.menus.\lFileX.FileX">
<polygon fill="white" stroke="black" points="672,-137 672,-167 858,-167 858,-137 672,-137"/>
<text text-anchor="start" x="680" y="-155" font-family="Helvetica,sans-Serif" font-size="10.00">authoring.concretefeatures.menus.</text>
<text text-anchor="middle" x="765" y="-144" font-family="Helvetica,sans-Serif" font-size="10.00">FileX.FileX</text>
</a>
</g>
</g>
<!-- Node6&#45;&gt;Node7 -->
<g id="edge6" class="edge"><title>Node6&#45;&gt;Node7</title>
<path fill="none" stroke="midnightblue" d="M631.387,-152C644.788,-152 658.455,-152 671.676,-152"/>
<polygon fill="midnightblue" stroke="midnightblue" points="631.204,-148.5 621.204,-152 631.204,-155.5 631.204,-148.5"/>
</g>
<!-- Node11 -->
<g id="node11" class="node"><title>Node11</title>
<g id="a_node11"><a xlink:href="../../d7/df4/classtests_1_1_j_s_o_n_tester_main.html#a931215da47157cbc5157c6a9df31ccd4" target="_top" xlink:title="tests.JSONTesterMain.main">
<polygon fill="white" stroke="black" points="692,-5.5 692,-24.5 838,-24.5 838,-5.5 692,-5.5"/>
<text text-anchor="middle" x="765" y="-12.5" font-family="Helvetica,sans-Serif" font-size="10.00">tests.JSONTesterMain.main</text>
</a>
</g>
</g>
<!-- Node10&#45;&gt;Node11 -->
<g id="edge10" class="edge"><title>Node10&#45;&gt;Node11</title>
<path fill="none" stroke="midnightblue" d="M608.443,-15C635.493,-15 665.561,-15 691.995,-15"/>
<polygon fill="midnightblue" stroke="midnightblue" points="608.237,-11.5001 598.237,-15 608.237,-18.5001 608.237,-11.5001"/>
</g>
</g>
</svg>
        <g id="navigator" transform="translate(0 0)" fill="#404254">
                <rect fill="#f2f5e9" fill-opacity="0.5" stroke="#606060" stroke-width=".5" x="0" y="0" width="60" height="60"/>
                <use id="zoomplus" xlink:href="#zoomPlus" x="17" y="9" onmousedown="handleZoom(evt,'in')"/>
                <use id="zoomminus" xlink:href="#zoomMin" x="42" y="9" onmousedown="handleZoom(evt,'out')"/>
                <use id="reset" xlink:href="#resetDef" x="30" y="36" onmousedown="handleReset()"/>
                <g id="arrowUp" xlink:href="#dirArrow" transform="translate(30 24)" onmousedown="handlePan(0,-1)">
                  <use xlink:href="#rim" fill="#404040">
                        <set attributeName="fill" to="#808080" begin="arrowUp.mouseover" end="arrowUp.mouseout"/>
                  </use>
                  <path fill="none" stroke="white" stroke-width="1.5" d="M0,-3.0v7 M-2.5,-0.5L0,-3.0L2.5,-0.5"/>
                </g>
                <g id="arrowRight" xlink:href="#dirArrow" transform="rotate(90) translate(36 -43)" onmousedown="handlePan(1,0)">
                  <use xlink:href="#rim" fill="#404040">
                        <set attributeName="fill" to="#808080" begin="arrowRight.mouseover" end="arrowRight.mouseout"/>
                  </use>
                  <path fill="none" stroke="white" stroke-width="1.5" d="M0,-3.0v7 M-2.5,-0.5L0,-3.0L2.5,-0.5"/>
                </g>
                <g id="arrowDown" xlink:href="#dirArrow" transform="rotate(180) translate(-30 -48)" onmousedown="handlePan(0,1)">
                  <use xlink:href="#rim" fill="#404040">
                        <set attributeName="fill" to="#808080" begin="arrowDown.mouseover" end="arrowDown.mouseout"/>
                  </use>
                  <path fill="none" stroke="white" stroke-width="1.5" d="M0,-3.0v7 M-2.5,-0.5L0,-3.0L2.5,-0.5"/>
                </g>
                <g id="arrowLeft" xlink:href="#dirArrow" transform="rotate(270) translate(-36 17)" onmousedown="handlePan(-1,0)">
                  <use xlink:href="#rim" fill="#404040">
                        <set attributeName="fill" to="#808080" begin="arrowLeft.mouseover" end="arrowLeft.mouseout"/>
                  </use>
                  <path fill="none" stroke="white" stroke-width="1.5" d="M0,-3.0v7 M-2.5,-0.5L0,-3.0L2.5,-0.5"/>
                </g>
        </g>
        <svg viewBox="0 0 15 15" width="100%" height="30px" preserveAspectRatio="xMaxYMin meet">
         <g id="arrow_out" transform="scale(0.3 0.3)">
          <a xlink:href="classgamedata_1_1gamecomponents_1_1_game_ab77c298a59d70f94282359bb53e8bc29_icgraph_org.svg" target="_base">
           <rect id="button" ry="5" rx="5" y="6" x="6" height="38" width="38"
                fill="#f2f5e9" fill-opacity="0.5" stroke="#606060" stroke-width="1.0"/>
           <path id="arrow"
             d="M 11.500037,31.436501 C 11.940474,20.09759 22.043105,11.32322 32.158766,21.979434 L 37.068811,17.246167 C 37.068811,17.246167 37.088388,32 37.088388,32 L 22.160133,31.978069 C 22.160133,31.978069 26.997745,27.140456 26.997745,27.140456 C 18.528582,18.264221 13.291696,25.230495 11.500037,31.436501 z"
             style="fill:#404040;"/>
          </a>
         </g>
        </svg>
</svg>
