<?xml version="1.0" encoding="UTF-8" standalone="no"?>
<!DOCTYPE svg PUBLIC "-//W3C//DTD SVG 1.1//EN"
 "http://www.w3.org/Graphics/SVG/1.1/DTD/svg11.dtd">
<!-- Generated by graphviz version 2.36.0 (20140111.2315)
 -->
<!-- Title: gamedata.gamecomponents.Game.setCurrentPlayer Pages: 1 -->
<svg width="402pt" height="126pt"
 viewBox="0.00 0.00 402.00 126.00" xmlns="http://www.w3.org/2000/svg" xmlns:xlink="http://www.w3.org/1999/xlink">
<g id="graph0" class="graph" transform="scale(1 1) rotate(0) translate(4 122)">
<title>gamedata.gamecomponents.Game.setCurrentPlayer</title>
<polygon fill="white" stroke="none" points="-4,4 -4,-122 398,-122 398,4 -4,4"/>
<!-- Node1 -->
<g id="node1" class="node"><title>Node1</title>
<polygon fill="#bfbfbf" stroke="black" points="0,-39 0,-69 160,-69 160,-39 0,-39"/>
<text text-anchor="start" x="8" y="-57" font-family="Helvetica,sans-Serif" font-size="10.00">gamedata.gamecomponents.</text>
<text text-anchor="middle" x="80" y="-46" font-family="Helvetica,sans-Serif" font-size="10.00">Game.setCurrentPlayer</text>
</g>
<!-- Node2 -->
<g id="node2" class="node"><title>Node2</title>
<g id="a_node2"><a xlink:href="../../d2/d99/classgamedata_1_1gamecomponents_1_1_game.html#a90eec8ba0c1d410466f991d4b5421e7d" target="_top" xlink:title="gamedata.gamecomponents.\lGame.changeTurn">
<polygon fill="white" stroke="black" points="215,-88 215,-118 375,-118 375,-88 215,-88"/>
<text text-anchor="start" x="223" y="-106" font-family="Helvetica,sans-Serif" font-size="10.00">gamedata.gamecomponents.</text>
<text text-anchor="middle" x="295" y="-95" font-family="Helvetica,sans-Serif" font-size="10.00">Game.changeTurn</text>
</a>
</g>
</g>
<!-- Node1&#45;&gt;Node2 -->
<g id="edge1" class="edge"><title>Node1&#45;&gt;Node2</title>
<path fill="none" stroke="midnightblue" d="M156.337,-71.3309C179.985,-76.7712 205.881,-82.7285 228.769,-87.9938"/>
<polygon fill="midnightblue" stroke="midnightblue" points="156.885,-67.8657 146.355,-69.0346 155.315,-74.6875 156.885,-67.8657"/>
</g>
<!-- Node3 -->
<g id="node3" class="node"><title>Node3</title>
<g id="a_node3"><a xlink:href="../../d9/d10/classgamedata_1_1wrappers_1_1_game_data.html#ab7fc650834149e8edee90a0f3373fb0c" target="_top" xlink:title="gamedata.wrappers.GameData.get\lGameFromData">
<polygon fill="white" stroke="black" points="201.5,-39 201.5,-69 388.5,-69 388.5,-39 201.5,-39"/>
<text text-anchor="start" x="209.5" y="-57" font-family="Helvetica,sans-Serif" font-size="10.00">gamedata.wrappers.GameData.get</text>
<text text-anchor="middle" x="295" y="-46" font-family="Helvetica,sans-Serif" font-size="10.00">GameFromData</text>
</a>
</g>
</g>
<!-- Node1&#45;&gt;Node3 -->
<g id="edge2" class="edge"><title>Node1&#45;&gt;Node3</title>
<path fill="none" stroke="midnightblue" d="M170.237,-54C180.552,-54 191.089,-54 201.448,-54"/>
<polygon fill="midnightblue" stroke="midnightblue" points="170.011,-50.5001 160.011,-54 170.011,-57.5001 170.011,-50.5001"/>
</g>
<!-- Node4 -->
<g id="node4" class="node"><title>Node4</title>
<g id="a_node4"><a xlink:href="../../df/dd5/classgame_player_1_1_view_controller.html#a373a9d79a047ab463f62ed817ad382fd" target="_top" xlink:title="gamePlayer.ViewController.saveGame">
<polygon fill="white" stroke="black" points="196,-0.5 196,-19.5 394,-19.5 394,-0.5 196,-0.5"/>
<text text-anchor="middle" x="295" y="-7.5" font-family="Helvetica,sans-Serif" font-size="10.00">gamePlayer.ViewController.saveGame</text>
</a>
</g>
</g>
<!-- Node1&#45;&gt;Node4 -->
<g id="edge3" class="edge"><title>Node1&#45;&gt;Node4</title>
<path fill="none" stroke="midnightblue" d="M162.573,-36.9294C173.802,-34.5933 185.186,-32.2319 196,-30 212.666,-26.5603 230.934,-22.8233 247.134,-19.5205"/>
<polygon fill="midnightblue" stroke="midnightblue" points="161.841,-33.5069 152.764,-38.972 163.268,-40.3599 161.841,-33.5069"/>
</g>
</g>
</svg>
