<?xml version="1.0" encoding="UTF-8" standalone="no"?>
<!DOCTYPE svg PUBLIC "-//W3C//DTD SVG 1.1//EN"
 "http://www.w3.org/Graphics/SVG/1.1/DTD/svg11.dtd">
<!-- Generated by graphviz version 2.36.0 (20140111.2315)
 -->
<!-- Title: gamedata.gamecomponents.Game.nextPlayer Pages: 1 -->
<svg width="586pt" height="61pt"
 viewBox="0.00 0.00 586.00 61.00" xmlns="http://www.w3.org/2000/svg" xmlns:xlink="http://www.w3.org/1999/xlink">
<g id="graph0" class="graph" transform="scale(1 1) rotate(0) translate(4 57)">
<title>gamedata.gamecomponents.Game.nextPlayer</title>
<polygon fill="white" stroke="none" points="-4,4 -4,-57 582,-57 582,4 -4,4"/>
<!-- Node1 -->
<g id="node1" class="node"><title>Node1</title>
<polygon fill="#bfbfbf" stroke="black" points="0,-1 0,-31 160,-31 160,-1 0,-1"/>
<text text-anchor="start" x="8" y="-19" font-family="Helvetica,sans-Serif" font-size="10.00">gamedata.gamecomponents.</text>
<text text-anchor="middle" x="80" y="-8" font-family="Helvetica,sans-Serif" font-size="10.00">Game.nextPlayer</text>
</g>
<!-- Node2 -->
<g id="node2" class="node"><title>Node2</title>
<g id="a_node2"><a xlink:href="../../d2/d99/classgamedata_1_1gamecomponents_1_1_game.html#ae5fe51cc99763d308a23912e884ffec7" target="_top" xlink:title="gamedata.gamecomponents.\lGame.resetPlayer">
<polygon fill="white" stroke="black" points="196,-23 196,-53 356,-53 356,-23 196,-23"/>
<text text-anchor="start" x="204" y="-41" font-family="Helvetica,sans-Serif" font-size="10.00">gamedata.gamecomponents.</text>
<text text-anchor="middle" x="276" y="-30" font-family="Helvetica,sans-Serif" font-size="10.00">Game.resetPlayer</text>
</a>
</g>
</g>
<!-- Node1&#45;&gt;Node2 -->
<g id="edge1" class="edge"><title>Node1&#45;&gt;Node2</title>
<path fill="none" stroke="midnightblue" d="M160.187,-24.98C168.621,-25.9364 177.241,-26.914 185.781,-27.8823"/>
<polygon fill="midnightblue" stroke="midnightblue" points="185.421,-31.3639 195.752,-29.0131 186.21,-24.4085 185.421,-31.3639"/>
</g>
<!-- Node3 -->
<g id="node3" class="node"><title>Node3</title>
<g id="a_node3"><a xlink:href="../../d0/dfd/classgameengine_1_1player_1_1_player.html#ad132fea87861614c8adba7ed35ec7497" target="_top" xlink:title="gameengine.player.Player.startTurn">
<polygon fill="white" stroke="black" points="392.5,-6.5 392.5,-25.5 577.5,-25.5 577.5,-6.5 392.5,-6.5"/>
<text text-anchor="middle" x="485" y="-13.5" font-family="Helvetica,sans-Serif" font-size="10.00">gameengine.player.Player.startTurn</text>
</a>
</g>
</g>
<!-- Node1&#45;&gt;Node3 -->
<g id="edge3" class="edge"><title>Node1&#45;&gt;Node3</title>
<path fill="none" stroke="midnightblue" d="M160.182,-14.4422C172.182,-14.2584 184.419,-14.1007 196,-14 267.108,-13.3817 284.891,-13.4445 356,-14 364.558,-14.0669 373.438,-14.1589 382.349,-14.2669"/>
<polygon fill="midnightblue" stroke="midnightblue" points="382.363,-17.7673 392.407,-14.3953 382.452,-10.7679 382.363,-17.7673"/>
</g>
<!-- Node2&#45;&gt;Node3 -->
<g id="edge2" class="edge"><title>Node2&#45;&gt;Node3</title>
<path fill="none" stroke="midnightblue" d="M356.144,-29.5886C365.364,-28.6087 374.857,-27.5997 384.308,-26.5953"/>
<polygon fill="midnightblue" stroke="midnightblue" points="384.958,-30.046 394.532,-25.5087 384.218,-23.0852 384.958,-30.046"/>
</g>
</g>
</svg>
