<?xml version="1.0" encoding="UTF-8" standalone="no"?>
<!DOCTYPE svg PUBLIC "-//W3C//DTD SVG 1.1//EN"
 "http://www.w3.org/Graphics/SVG/1.1/DTD/svg11.dtd">
<!-- Generated by graphviz version 2.36.0 (20140111.2315)
 -->
<!-- Title: gamedata.gamecomponents.Game.endTurn Pages: 1 -->
<svg width="586pt" height="38pt"
 viewBox="0.00 0.00 586.00 38.00" xmlns="http://www.w3.org/2000/svg" xmlns:xlink="http://www.w3.org/1999/xlink">
<g id="graph0" class="graph" transform="scale(1 1) rotate(0) translate(4 34)">
<title>gamedata.gamecomponents.Game.endTurn</title>
<polygon fill="white" stroke="none" points="-4,4 -4,-34 582,-34 582,4 -4,4"/>
<!-- Node1 -->
<g id="node1" class="node"><title>Node1</title>
<polygon fill="#bfbfbf" stroke="black" points="0,-0 0,-30 160,-30 160,-0 0,-0"/>
<text text-anchor="start" x="8" y="-18" font-family="Helvetica,sans-Serif" font-size="10.00">gamedata.gamecomponents.</text>
<text text-anchor="middle" x="80" y="-7" font-family="Helvetica,sans-Serif" font-size="10.00">Game.endTurn</text>
</g>
<!-- Node2 -->
<g id="node2" class="node"><title>Node2</title>
<g id="a_node2"><a xlink:href="../../d2/d99/classgamedata_1_1gamecomponents_1_1_game.html#ae5fe51cc99763d308a23912e884ffec7" target="_top" xlink:title="gamedata.gamecomponents.\lGame.resetPlayer">
<polygon fill="white" stroke="black" points="196,-0 196,-30 356,-30 356,-0 196,-0"/>
<text text-anchor="start" x="204" y="-18" font-family="Helvetica,sans-Serif" font-size="10.00">gamedata.gamecomponents.</text>
<text text-anchor="middle" x="276" y="-7" font-family="Helvetica,sans-Serif" font-size="10.00">Game.resetPlayer</text>
</a>
</g>
</g>
<!-- Node1&#45;&gt;Node2 -->
<g id="edge1" class="edge"><title>Node1&#45;&gt;Node2</title>
<path fill="none" stroke="midnightblue" d="M160.187,-15C168.529,-15 177.054,-15 185.502,-15"/>
<polygon fill="midnightblue" stroke="midnightblue" points="185.752,-18.5001 195.752,-15 185.752,-11.5001 185.752,-18.5001"/>
</g>
<!-- Node3 -->
<g id="node3" class="node"><title>Node3</title>
<g id="a_node3"><a xlink:href="../../d0/dfd/classgameengine_1_1player_1_1_player.html#ad132fea87861614c8adba7ed35ec7497" target="_top" xlink:title="gameengine.player.Player.startTurn">
<polygon fill="white" stroke="black" points="392.5,-5.5 392.5,-24.5 577.5,-24.5 577.5,-5.5 392.5,-5.5"/>
<text text-anchor="middle" x="485" y="-12.5" font-family="Helvetica,sans-Serif" font-size="10.00">gameengine.player.Player.startTurn</text>
</a>
</g>
</g>
<!-- Node2&#45;&gt;Node3 -->
<g id="edge2" class="edge"><title>Node2&#45;&gt;Node3</title>
<path fill="none" stroke="midnightblue" d="M356.144,-15C364.675,-15 373.441,-15 382.191,-15"/>
<polygon fill="midnightblue" stroke="midnightblue" points="382.439,-18.5001 392.439,-15 382.439,-11.5001 382.439,-18.5001"/>
</g>
</g>
</svg>
