<?xml version="1.0" encoding="UTF-8" standalone="no"?>
<!DOCTYPE svg PUBLIC "-//W3C//DTD SVG 1.1//EN"
 "http://www.w3.org/Graphics/SVG/1.1/DTD/svg11.dtd">
<!-- Generated by graphviz version 2.36.0 (20140111.2315)
 -->
<!-- Title: gamedata.gamecomponents.Game.getPlayers Pages: 1 -->
<!--zoomable 508 -->
<svg id="main" version="1.1" xmlns="http://www.w3.org/2000/svg" xmlns:xlink="http://www.w3.org/1999/xlink" xml:space="preserve" onload="init(evt)">
<style type="text/css"><![CDATA[
.edge:hover path { stroke: red; }
.edge:hover polygon { stroke: red; fill: red; }
]]></style>
<script type="text/javascript"><![CDATA[
var edges = document.getElementsByTagName('g');
if (edges && edges.length) {
  for (var i=0;i<edges.length;i++) {
    if (edges[i].id.substr(0,4)=='edge') {
      edges[i].setAttribute('class','edge');
    }
  }
}
]]></script>
        <defs>
                <circle id="rim" cx="0" cy="0" r="7"/>
                <circle id="rim2" cx="0" cy="0" r="3.5"/>
                <g id="zoomPlus">
                        <use xlink:href="#rim" fill="#404040">
                                <set attributeName="fill" to="#808080" begin="zoomplus.mouseover" end="zoomplus.mouseout"/>
                        </use>
                        <path d="M-4,0h8M0,-4v8" fill="none" stroke="white" stroke-width="1.5" pointer-events="none"/>
                </g>
                <g id="zoomMin">
                        <use xlink:href="#rim" fill="#404040">
                                <set attributeName="fill" to="#808080" begin="zoomminus.mouseover" end="zoomminus.mouseout"/>
                        </use>
                        <path d="M-4,0h8" fill="none" stroke="white" stroke-width="1.5" pointer-events="none"/>
                </g>
                <g id="dirArrow">
                        <path fill="none" stroke="white" stroke-width="1.5" d="M0,-3.0v7 M-2.5,-0.5L0,-3.0L2.5,-0.5"/>
                </g>
               <g id="resetDef">
                       <use xlink:href="#rim2" fill="#404040">
                               <set attributeName="fill" to="#808080" begin="reset.mouseover" end="reset.mouseout"/>
                       </use>
               </g>
        </defs>

<script type="text/javascript">
var viewWidth = 1746;
var viewHeight = 508;
var sectionId = 'dynsection-8';
</script>
<script xlink:href="../../svgpan.js"/>
<svg id="graph" class="graph">
<g id="viewport">
<title>gamedata.gamecomponents.Game.getPlayers</title>
<polygon fill="white" stroke="none" points="-4,4 -4,-504 1742,-504 1742,4 -4,4"/>
<!-- Node1 -->
<g id="node1" class="node"><title>Node1</title>
<polygon fill="#bfbfbf" stroke="black" points="0,-98 0,-128 160,-128 160,-98 0,-98"/>
<text text-anchor="start" x="8" y="-116" font-family="Helvetica,sans-Serif" font-size="10.00">gamedata.gamecomponents.</text>
<text text-anchor="middle" x="80" y="-105" font-family="Helvetica,sans-Serif" font-size="10.00">Game.getPlayers</text>
</g>
<!-- Node2 -->
<g id="node2" class="node"><title>Node2</title>
<g id="a_node2"><a xlink:href="../../df/dd5/classgame_player_1_1_view_controller.html#a620f8a02d3ac7677cd179fcd812aca55" target="_top" xlink:title="gamePlayer.ViewController.check\lEndActions">
<polygon fill="white" stroke="black" points="203,-213 203,-243 377,-243 377,-213 203,-213"/>
<text text-anchor="start" x="211" y="-231" font-family="Helvetica,sans-Serif" font-size="10.00">gamePlayer.ViewController.check</text>
<text text-anchor="middle" x="290" y="-220" font-family="Helvetica,sans-Serif" font-size="10.00">EndActions</text>
</a>
</g>
</g>
<!-- Node1&#45;&gt;Node2 -->
<g id="edge1" class="edge"><title>Node1&#45;&gt;Node2</title>
<path fill="none" stroke="midnightblue" d="M111.46,-134.005C134.238,-149.296 166.421,-170.036 196,-186 214.085,-195.76 234.875,-205.299 252.206,-212.813"/>
<polygon fill="midnightblue" stroke="midnightblue" points="113.159,-130.929 102.914,-128.227 109.238,-136.728 113.159,-130.929"/>
</g>
<!-- Node23 -->
<g id="node23" class="node"><title>Node23</title>
<g id="a_node23"><a xlink:href="../../df/dd5/classgame_player_1_1_view_controller.html#aa88b91b279269bee059216dccb13c583" target="_top" xlink:title="gamePlayer.ViewController.edit\lGUIPlayers">
<polygon fill="white" stroke="black" points="208,-147 208,-177 372,-177 372,-147 208,-147"/>
<text text-anchor="start" x="216" y="-165" font-family="Helvetica,sans-Serif" font-size="10.00">gamePlayer.ViewController.edit</text>
<text text-anchor="middle" x="290" y="-154" font-family="Helvetica,sans-Serif" font-size="10.00">GUIPlayers</text>
</a>
</g>
</g>
<!-- Node1&#45;&gt;Node23 -->
<g id="edge25" class="edge"><title>Node1&#45;&gt;Node23</title>
<path fill="none" stroke="midnightblue" d="M154.568,-130.331C177.661,-135.771 202.95,-141.729 225.3,-146.994"/>
<polygon fill="midnightblue" stroke="midnightblue" points="155.357,-126.921 144.82,-128.035 153.751,-133.734 155.357,-126.921"/>
</g>
<!-- Node26 -->
<g id="node26" class="node"><title>Node26</title>
<g id="a_node26"><a xlink:href="../../df/dd5/classgame_player_1_1_view_controller.html#abd4293bc816fc044d7d4e57fe94e4029" target="_top" xlink:title="gamePlayer.ViewController.edit\lPlayers">
<polygon fill="white" stroke="black" points="208,-98 208,-128 372,-128 372,-98 208,-98"/>
<text text-anchor="start" x="216" y="-116" font-family="Helvetica,sans-Serif" font-size="10.00">gamePlayer.ViewController.edit</text>
<text text-anchor="middle" x="290" y="-105" font-family="Helvetica,sans-Serif" font-size="10.00">Players</text>
</a>
</g>
</g>
<!-- Node1&#45;&gt;Node26 -->
<g id="edge28" class="edge"><title>Node1&#45;&gt;Node26</title>
<path fill="none" stroke="midnightblue" d="M170.573,-113C182.985,-113 195.676,-113 207.921,-113"/>
<polygon fill="midnightblue" stroke="midnightblue" points="170.229,-109.5 160.229,-113 170.229,-116.5 170.229,-109.5"/>
</g>
<!-- Node29 -->
<g id="node29" class="node"><title>Node29</title>
<g id="a_node29"><a xlink:href="../../d9/d10/classgamedata_1_1wrappers_1_1_game_data.html#ab7fc650834149e8edee90a0f3373fb0c" target="_top" xlink:title="gamedata.wrappers.GameData.get\lGameFromData">
<polygon fill="white" stroke="black" points="196.5,-49 196.5,-79 383.5,-79 383.5,-49 196.5,-49"/>
<text text-anchor="start" x="204.5" y="-67" font-family="Helvetica,sans-Serif" font-size="10.00">gamedata.wrappers.GameData.get</text>
<text text-anchor="middle" x="290" y="-56" font-family="Helvetica,sans-Serif" font-size="10.00">GameFromData</text>
</a>
</g>
</g>
<!-- Node1&#45;&gt;Node29 -->
<g id="edge31" class="edge"><title>Node1&#45;&gt;Node29</title>
<path fill="none" stroke="midnightblue" d="M154.568,-95.6691C177.661,-90.2288 202.95,-84.2715 225.3,-79.0062"/>
<polygon fill="midnightblue" stroke="midnightblue" points="153.751,-92.2656 144.82,-97.9654 155.357,-99.0791 153.751,-92.2656"/>
</g>
<!-- Node30 -->
<g id="node30" class="node"><title>Node30</title>
<g id="a_node30"><a xlink:href="../../df/dd5/classgame_player_1_1_view_controller.html#a84c11f760ef8b8e4504ea9574680d9b3" target="_top" xlink:title="gamePlayer.ViewController.load\lScores">
<polygon fill="white" stroke="black" points="206.5,-0 206.5,-30 373.5,-30 373.5,-0 206.5,-0"/>
<text text-anchor="start" x="214.5" y="-18" font-family="Helvetica,sans-Serif" font-size="10.00">gamePlayer.ViewController.load</text>
<text text-anchor="middle" x="290" y="-7" font-family="Helvetica,sans-Serif" font-size="10.00">Scores</text>
</a>
</g>
</g>
<!-- Node1&#45;&gt;Node30 -->
<g id="edge32" class="edge"><title>Node1&#45;&gt;Node30</title>
<path fill="none" stroke="midnightblue" d="M108.31,-91.8471C130.762,-75.3647 163.98,-52.9994 196,-39 203.639,-35.6601 211.842,-32.7093 220.097,-30.123"/>
<polygon fill="midnightblue" stroke="midnightblue" points="106.186,-89.0654 100.257,-97.8465 110.368,-94.6789 106.186,-89.0654"/>
</g>
<!-- Node3 -->
<g id="node3" class="node"><title>Node3</title>
<g id="a_node3"><a xlink:href="../../df/dd5/classgame_player_1_1_view_controller.html#a95c2acd43bb39b8606c69971c1cd30f5" target="_top" xlink:title="gamePlayer.ViewController.perform\lAction">
<polygon fill="white" stroke="black" points="425.5,-326 425.5,-356 610.5,-356 610.5,-326 425.5,-326"/>
<text text-anchor="start" x="433.5" y="-344" font-family="Helvetica,sans-Serif" font-size="10.00">gamePlayer.ViewController.perform</text>
<text text-anchor="middle" x="518" y="-333" font-family="Helvetica,sans-Serif" font-size="10.00">Action</text>
</a>
</g>
</g>
<!-- Node2&#45;&gt;Node3 -->
<g id="edge2" class="edge"><title>Node2&#45;&gt;Node3</title>
<path fill="none" stroke="midnightblue" d="M330.079,-247.539C374.614,-269.807 446.445,-305.723 486.865,-325.932"/>
<polygon fill="midnightblue" stroke="midnightblue" points="331.521,-244.347 321.011,-243.006 328.39,-250.608 331.521,-244.347"/>
</g>
<!-- Node21 -->
<g id="node21" class="node"><title>Node21</title>
<g id="a_node21"><a xlink:href="../../df/dd5/classgame_player_1_1_view_controller.html#a13ea7814bde61a8042c5b1a23af41416" target="_top" xlink:title="gamePlayer.ViewController.end\lAction">
<polygon fill="white" stroke="black" points="436,-233 436,-263 600,-263 600,-233 436,-233"/>
<text text-anchor="start" x="444" y="-251" font-family="Helvetica,sans-Serif" font-size="10.00">gamePlayer.ViewController.end</text>
<text text-anchor="middle" x="518" y="-240" font-family="Helvetica,sans-Serif" font-size="10.00">Action</text>
</a>
</g>
</g>
<!-- Node2&#45;&gt;Node21 -->
<g id="edge23" class="edge"><title>Node2&#45;&gt;Node21</title>
<path fill="none" stroke="midnightblue" d="M387.142,-236.508C403.411,-237.948 420.158,-239.43 435.991,-240.831"/>
<polygon fill="midnightblue" stroke="midnightblue" points="387.355,-233.013 377.086,-235.618 386.738,-239.986 387.355,-233.013"/>
</g>
<!-- Node4 -->
<g id="node4" class="node"><title>Node4</title>
<g id="a_node4"><a xlink:href="../../da/d55/classgame_player_1_1_keyboard_movement.html#af45fd8d279b1ee2d6be5466d425485ab" target="_top" xlink:title="gamePlayer.KeyboardMovement.set\lMovementKeyControl">
<polygon fill="white" stroke="black" points="652.5,-370 652.5,-400 841.5,-400 841.5,-370 652.5,-370"/>
<text text-anchor="start" x="660.5" y="-388" font-family="Helvetica,sans-Serif" font-size="10.00">gamePlayer.KeyboardMovement.set</text>
<text text-anchor="middle" x="747" y="-377" font-family="Helvetica,sans-Serif" font-size="10.00">MovementKeyControl</text>
</a>
</g>
</g>
<!-- Node3&#45;&gt;Node4 -->
<g id="edge3" class="edge"><title>Node3&#45;&gt;Node4</title>
<path fill="none" stroke="midnightblue" d="M620.51,-353.959C647.344,-359.01 675.083,-364.744 697.636,-369.981"/>
<polygon fill="midnightblue" stroke="midnightblue" points="621.146,-350.518 610.675,-352.132 619.867,-357.4 621.146,-350.518"/>
</g>
<!-- Node12 -->
<g id="node12" class="node"><title>Node12</title>
<g id="a_node12"><a xlink:href="../../df/dd5/classgame_player_1_1_view_controller.html#a22ee80193bbac79a935ee961a183bfcd" target="_top" xlink:title="gamePlayer.ViewController.set\lOnClick">
<polygon fill="white" stroke="black" points="666.5,-282 666.5,-312 827.5,-312 827.5,-282 666.5,-282"/>
<text text-anchor="start" x="674.5" y="-300" font-family="Helvetica,sans-Serif" font-size="10.00">gamePlayer.ViewController.set</text>
<text text-anchor="middle" x="747" y="-289" font-family="Helvetica,sans-Serif" font-size="10.00">OnClick</text>
</a>
</g>
</g>
<!-- Node3&#45;&gt;Node12 -->
<g id="edge13" class="edge"><title>Node3&#45;&gt;Node12</title>
<path fill="none" stroke="midnightblue" d="M606.414,-324.056C626.859,-320.093 648.498,-315.899 668.478,-312.026"/>
<polygon fill="midnightblue" stroke="midnightblue" points="605.637,-320.642 596.486,-325.981 606.969,-327.514 605.637,-320.642"/>
</g>
<!-- Node4&#45;&gt;Node3 -->
<g id="edge11" class="edge"><title>Node4&#45;&gt;Node3</title>
<path fill="none" stroke="midnightblue" d="M642.329,-371.633C616.193,-366.687 589.356,-361.125 567.419,-356.032"/>
<polygon fill="midnightblue" stroke="midnightblue" points="641.827,-375.099 652.3,-373.496 643.113,-368.218 641.827,-375.099"/>
</g>
<!-- Node5 -->
<g id="node5" class="node"><title>Node5</title>
<g id="a_node5"><a xlink:href="../../df/dd5/classgame_player_1_1_view_controller.html#a7eb038fd9f20604ade0406f27ef76657" target="_top" xlink:title="gamePlayer.ViewController.bind\lAction">
<polygon fill="white" stroke="black" points="896.5,-419 896.5,-449 1063.5,-449 1063.5,-419 896.5,-419"/>
<text text-anchor="start" x="904.5" y="-437" font-family="Helvetica,sans-Serif" font-size="10.00">gamePlayer.ViewController.bind</text>
<text text-anchor="middle" x="980" y="-426" font-family="Helvetica,sans-Serif" font-size="10.00">Action</text>
</a>
</g>
</g>
<!-- Node4&#45;&gt;Node5 -->
<g id="edge4" class="edge"><title>Node4&#45;&gt;Node5</title>
<path fill="none" stroke="midnightblue" d="M828.674,-402.113C854.597,-407.611 883.102,-413.658 908.257,-418.994"/>
<polygon fill="midnightblue" stroke="midnightblue" points="829.386,-398.686 818.877,-400.035 827.934,-405.534 829.386,-398.686"/>
</g>
<!-- Node11 -->
<g id="node11" class="node"><title>Node11</title>
<g id="a_node11"><a xlink:href="../../df/dd5/classgame_player_1_1_view_controller.html#a27da17c1280cd953a14f6b76b18f9a4b" target="_top" xlink:title="gamePlayer.ViewController.toggle\lKeyboardControl">
<polygon fill="white" stroke="black" points="892,-370 892,-400 1068,-400 1068,-370 892,-370"/>
<text text-anchor="start" x="900" y="-388" font-family="Helvetica,sans-Serif" font-size="10.00">gamePlayer.ViewController.toggle</text>
<text text-anchor="middle" x="980" y="-377" font-family="Helvetica,sans-Serif" font-size="10.00">KeyboardControl</text>
</a>
</g>
</g>
<!-- Node4&#45;&gt;Node11 -->
<g id="edge12" class="edge"><title>Node4&#45;&gt;Node11</title>
<path fill="none" stroke="midnightblue" d="M851.825,-385C865.236,-385 878.858,-385 891.96,-385"/>
<polygon fill="midnightblue" stroke="midnightblue" points="851.624,-381.5 841.624,-385 851.623,-388.5 851.624,-381.5"/>
</g>
<!-- Node6 -->
<g id="node6" class="node"><title>Node6</title>
<g id="a_node6"><a xlink:href="../../d1/db7/classgame_player_1_1_keyboard_action.html#a08ace57322b8639020688dd9493c3e1f" target="_top" xlink:title="gamePlayer.KeyboardAction.set\lActionKeyControl">
<polygon fill="white" stroke="black" points="1138,-337 1138,-367 1306,-367 1306,-337 1138,-337"/>
<text text-anchor="start" x="1146" y="-355" font-family="Helvetica,sans-Serif" font-size="10.00">gamePlayer.KeyboardAction.set</text>
<text text-anchor="middle" x="1222" y="-344" font-family="Helvetica,sans-Serif" font-size="10.00">ActionKeyControl</text>
</a>
</g>
</g>
<!-- Node5&#45;&gt;Node6 -->
<g id="edge5" class="edge"><title>Node5&#45;&gt;Node6</title>
<path fill="none" stroke="midnightblue" d="M1062.53,-415.981C1069.19,-413.857 1075.76,-411.532 1082,-409 1099.16,-402.037 1101.18,-395.758 1118,-388 1135.12,-380.106 1154.49,-372.91 1171.77,-367.062"/>
<polygon fill="midnightblue" stroke="midnightblue" points="1061.28,-412.703 1052.72,-418.95 1063.31,-419.402 1061.28,-412.703"/>
</g>
<!-- Node7 -->
<g id="node7" class="node"><title>Node7</title>
<g id="a_node7"><a xlink:href="../../df/dd5/classgame_player_1_1_view_controller.html#ab8c14a8c53be9021a62d0107c2f75ef6" target="_top" xlink:title="gamePlayer.ViewController.update\lActions">
<polygon fill="white" stroke="black" points="1132,-446 1132,-476 1312,-476 1312,-446 1132,-446"/>
<text text-anchor="start" x="1140" y="-464" font-family="Helvetica,sans-Serif" font-size="10.00">gamePlayer.ViewController.update</text>
<text text-anchor="middle" x="1222" y="-453" font-family="Helvetica,sans-Serif" font-size="10.00">Actions</text>
</a>
</g>
</g>
<!-- Node5&#45;&gt;Node7 -->
<g id="edge7" class="edge"><title>Node5&#45;&gt;Node7</title>
<path fill="none" stroke="midnightblue" d="M1073.75,-444.434C1092.78,-446.576 1112.78,-448.826 1131.69,-450.953"/>
<polygon fill="midnightblue" stroke="midnightblue" points="1073.92,-440.932 1063.59,-443.292 1073.14,-447.888 1073.92,-440.932"/>
</g>
<!-- Node10 -->
<g id="node10" class="node"><title>Node10</title>
<g id="a_node10"><a xlink:href="../../df/df0/classtests_1_1_view_controller_test.html#a74e99f9c72cbdcd2d56271b2ad2df1ce" target="_top" xlink:title="tests.ViewControllerTest.bind\lActionTest">
<polygon fill="white" stroke="black" points="1145,-397 1145,-427 1299,-427 1299,-397 1145,-397"/>
<text text-anchor="start" x="1153" y="-415" font-family="Helvetica,sans-Serif" font-size="10.00">tests.ViewControllerTest.bind</text>
<text text-anchor="middle" x="1222" y="-404" font-family="Helvetica,sans-Serif" font-size="10.00">ActionTest</text>
</a>
</g>
</g>
<!-- Node5&#45;&gt;Node10 -->
<g id="edge10" class="edge"><title>Node5&#45;&gt;Node10</title>
<path fill="none" stroke="midnightblue" d="M1073.57,-425.514C1097.09,-423.358 1122.1,-421.066 1144.71,-418.994"/>
<polygon fill="midnightblue" stroke="midnightblue" points="1073.23,-422.031 1063.59,-426.429 1073.87,-429.001 1073.23,-422.031"/>
</g>
<!-- Node6&#45;&gt;Node3 -->
<g id="edge6" class="edge"><title>Node6&#45;&gt;Node3</title>
<path fill="none" stroke="midnightblue" d="M1127.64,-350.537C992.733,-348.423 744.794,-344.538 610.774,-342.438"/>
<polygon fill="midnightblue" stroke="midnightblue" points="1127.9,-354.041 1137.95,-350.699 1128.01,-347.042 1127.9,-354.041"/>
</g>
<!-- Node8 -->
<g id="node8" class="node"><title>Node8</title>
<g id="a_node8"><a xlink:href="../../d6/d24/classgame_player_1_1_select_state.html#a801827392f0faeee6b96925060d77838" target="_top" xlink:title="gamePlayer.SelectState.on\lClick">
<polygon fill="white" stroke="black" points="1385.5,-470 1385.5,-500 1532.5,-500 1532.5,-470 1385.5,-470"/>
<text text-anchor="start" x="1393.5" y="-488" font-family="Helvetica,sans-Serif" font-size="10.00">gamePlayer.SelectState.on</text>
<text text-anchor="middle" x="1459" y="-477" font-family="Helvetica,sans-Serif" font-size="10.00">Click</text>
</a>
</g>
</g>
<!-- Node7&#45;&gt;Node8 -->
<g id="edge8" class="edge"><title>Node7&#45;&gt;Node8</title>
<path fill="none" stroke="midnightblue" d="M1322.17,-471.128C1343.35,-473.291 1365.34,-475.537 1385.3,-477.576"/>
<polygon fill="midnightblue" stroke="midnightblue" points="1322.48,-467.642 1312.18,-470.108 1321.77,-474.606 1322.48,-467.642"/>
</g>
<!-- Node9 -->
<g id="node9" class="node"><title>Node9</title>
<g id="a_node9"><a xlink:href="../../df/df0/classtests_1_1_view_controller_test.html#a785df2c49a72c183c22163ce927f5df1" target="_top" xlink:title="tests.ViewControllerTest.update\lActionsTest">
<polygon fill="white" stroke="black" points="1375.5,-421 1375.5,-451 1542.5,-451 1542.5,-421 1375.5,-421"/>
<text text-anchor="start" x="1383.5" y="-439" font-family="Helvetica,sans-Serif" font-size="10.00">tests.ViewControllerTest.update</text>
<text text-anchor="middle" x="1459" y="-428" font-family="Helvetica,sans-Serif" font-size="10.00">ActionsTest</text>
</a>
</g>
</g>
<!-- Node7&#45;&gt;Node9 -->
<g id="edge9" class="edge"><title>Node7&#45;&gt;Node9</title>
<path fill="none" stroke="midnightblue" d="M1322.49,-450.416C1340.14,-448.538 1358.34,-446.602 1375.46,-444.781"/>
<polygon fill="midnightblue" stroke="midnightblue" points="1321.75,-446.975 1312.18,-451.513 1322.49,-453.935 1321.75,-446.975"/>
</g>
<!-- Node13 -->
<g id="node13" class="node"><title>Node13</title>
<g id="a_node13"><a xlink:href="../../df/dd5/classgame_player_1_1_view_controller.html#a10a40967a873f067cf91b024ff85b38e" target="_top" xlink:title="gamePlayer.ViewController.initializeGrid">
<polygon fill="white" stroke="black" points="878,-205.5 878,-224.5 1082,-224.5 1082,-205.5 878,-205.5"/>
<text text-anchor="middle" x="980" y="-212.5" font-family="Helvetica,sans-Serif" font-size="10.00">gamePlayer.ViewController.initializeGrid</text>
</a>
</g>
</g>
<!-- Node12&#45;&gt;Node13 -->
<g id="edge14" class="edge"><title>Node12&#45;&gt;Node13</title>
<path fill="none" stroke="midnightblue" d="M819.108,-279.178C826.878,-276.908 834.635,-274.499 842,-272 884.204,-257.68 931.932,-236.684 958.444,-224.574"/>
<polygon fill="midnightblue" stroke="midnightblue" points="817.946,-275.87 809.288,-281.976 819.864,-282.602 817.946,-275.87"/>
</g>
<!-- Node13&#45;&gt;Node2 -->
<g id="edge17" class="edge"><title>Node13&#45;&gt;Node2</title>
<path fill="none" stroke="midnightblue" d="M867.715,-215.793C754.889,-216.785 575.282,-218.88 420,-223 406.109,-223.369 391.38,-223.852 377.034,-224.373"/>
<polygon fill="midnightblue" stroke="midnightblue" points="867.776,-219.293 877.746,-215.706 867.716,-212.293 867.776,-219.293"/>
</g>
<!-- Node14 -->
<g id="node14" class="node"><title>Node14</title>
<g id="a_node14"><a xlink:href="../../df/dd5/classgame_player_1_1_view_controller.html#aabf431713b65ec510f1cb2df12da4e45" target="_top" xlink:title="gamePlayer.ViewController.test\lPlayGameInTab">
<polygon fill="white" stroke="black" points="1139.5,-266 1139.5,-296 1304.5,-296 1304.5,-266 1139.5,-266"/>
<text text-anchor="start" x="1147.5" y="-284" font-family="Helvetica,sans-Serif" font-size="10.00">gamePlayer.ViewController.test</text>
<text text-anchor="middle" x="1222" y="-273" font-family="Helvetica,sans-Serif" font-size="10.00">PlayGameInTab</text>
</a>
</g>
</g>
<!-- Node13&#45;&gt;Node14 -->
<g id="edge15" class="edge"><title>Node13&#45;&gt;Node14</title>
<path fill="none" stroke="midnightblue" d="M1020.91,-227.55C1048.16,-235.967 1085.13,-247.1 1118,-256 1130.52,-259.391 1143.96,-262.81 1156.86,-265.985"/>
<polygon fill="midnightblue" stroke="midnightblue" points="1021.93,-224.2 1011.34,-224.58 1019.85,-230.886 1021.93,-224.2"/>
</g>
<!-- Node15 -->
<g id="node15" class="node"><title>Node15</title>
<g id="a_node15"><a xlink:href="../../df/dd5/classgame_player_1_1_view_controller.html#a0d1a3d443966f151b070dc751d2faf9a" target="_top" xlink:title="gamePlayer.ViewController.restartGame">
<polygon fill="white" stroke="black" points="1118,-227.5 1118,-246.5 1326,-246.5 1326,-227.5 1118,-227.5"/>
<text text-anchor="middle" x="1222" y="-234.5" font-family="Helvetica,sans-Serif" font-size="10.00">gamePlayer.ViewController.restartGame</text>
</a>
</g>
</g>
<!-- Node13&#45;&gt;Node15 -->
<g id="edge16" class="edge"><title>Node13&#45;&gt;Node15</title>
<path fill="none" stroke="midnightblue" d="M1092.08,-225.182C1100.62,-225.966 1109.23,-226.754 1117.72,-227.533"/>
<polygon fill="midnightblue" stroke="midnightblue" points="1092.36,-221.694 1082.09,-224.266 1091.72,-228.665 1092.36,-221.694"/>
</g>
<!-- Node16 -->
<g id="node16" class="node"><title>Node16</title>
<g id="a_node16"><a xlink:href="../../df/dd5/classgame_player_1_1_view_controller.html#adc15cd81cefb88c58f9d3b7478328df8" target="_top" xlink:title="gamePlayer.ViewController.test\lPlayGUIGame">
<polygon fill="white" stroke="black" points="1139.5,-178 1139.5,-208 1304.5,-208 1304.5,-178 1139.5,-178"/>
<text text-anchor="start" x="1147.5" y="-196" font-family="Helvetica,sans-Serif" font-size="10.00">gamePlayer.ViewController.test</text>
<text text-anchor="middle" x="1222" y="-185" font-family="Helvetica,sans-Serif" font-size="10.00">PlayGUIGame</text>
</a>
</g>
</g>
<!-- Node13&#45;&gt;Node16 -->
<g id="edge18" class="edge"><title>Node13&#45;&gt;Node16</title>
<path fill="none" stroke="midnightblue" d="M1092.43,-204.786C1108.23,-203.338 1124.22,-201.871 1139.32,-200.488"/>
<polygon fill="midnightblue" stroke="midnightblue" points="1091.72,-201.335 1082.09,-205.734 1092.36,-208.306 1091.72,-201.335"/>
</g>
<!-- Node17 -->
<g id="node17" class="node"><title>Node17</title>
<g id="a_node17"><a xlink:href="../../df/dd5/classgame_player_1_1_view_controller.html#a4c1754d129a4eac955390b428eaa448a" target="_top" xlink:title="gamePlayer.ViewController.test\lPlayGame">
<polygon fill="white" stroke="black" points="1139.5,-129 1139.5,-159 1304.5,-159 1304.5,-129 1139.5,-129"/>
<text text-anchor="start" x="1147.5" y="-147" font-family="Helvetica,sans-Serif" font-size="10.00">gamePlayer.ViewController.test</text>
<text text-anchor="middle" x="1222" y="-136" font-family="Helvetica,sans-Serif" font-size="10.00">PlayGame</text>
</a>
</g>
</g>
<!-- Node13&#45;&gt;Node17 -->
<g id="edge19" class="edge"><title>Node13&#45;&gt;Node17</title>
<path fill="none" stroke="midnightblue" d="M1015.82,-201.959C1043.32,-191.924 1082.81,-178.109 1118,-168 1128.94,-164.857 1140.62,-161.829 1152.05,-159.044"/>
<polygon fill="midnightblue" stroke="midnightblue" points="1014.44,-198.738 1006.26,-205.471 1016.85,-205.309 1014.44,-198.738"/>
</g>
<!-- Node18 -->
<g id="node18" class="node"><title>Node18</title>
<g id="a_node18"><a xlink:href="../../db/d40/classfxml__main_1_1_authoring_controller.html#a2ec133c8edf0a7ab1e84f2e12455233d" target="_top" xlink:title="fxml_main.AuthoringController.save\lAsGame">
<polygon fill="white" stroke="black" points="1365.5,-151 1365.5,-181 1552.5,-181 1552.5,-151 1365.5,-151"/>
<text text-anchor="start" x="1373.5" y="-169" font-family="Helvetica,sans-Serif" font-size="10.00">fxml_main.AuthoringController.save</text>
<text text-anchor="middle" x="1459" y="-158" font-family="Helvetica,sans-Serif" font-size="10.00">AsGame</text>
</a>
</g>
</g>
<!-- Node17&#45;&gt;Node18 -->
<g id="edge20" class="edge"><title>Node17&#45;&gt;Node18</title>
<path fill="none" stroke="midnightblue" d="M1314.77,-152.591C1331.38,-154.146 1348.7,-155.768 1365.34,-157.325"/>
<polygon fill="midnightblue" stroke="midnightblue" points="1314.81,-149.08 1304.53,-151.633 1314.16,-156.05 1314.81,-149.08"/>
</g>
<!-- Node19 -->
<g id="node19" class="node"><title>Node19</title>
<g id="a_node19"><a xlink:href="../../df/dd5/classgame_player_1_1_view_controller.html#a2bf1dce04187ad5eacb5359ef2b4eff8" target="_top" xlink:title="gamePlayer.ViewController.newGame">
<polygon fill="white" stroke="black" points="1362,-112.5 1362,-131.5 1556,-131.5 1556,-112.5 1362,-112.5"/>
<text text-anchor="middle" x="1459" y="-119.5" font-family="Helvetica,sans-Serif" font-size="10.00">gamePlayer.ViewController.newGame</text>
</a>
</g>
</g>
<!-- Node17&#45;&gt;Node19 -->
<g id="edge21" class="edge"><title>Node17&#45;&gt;Node19</title>
<path fill="none" stroke="midnightblue" d="M1314.58,-135.427C1330.03,-133.981 1346.1,-132.476 1361.66,-131.019"/>
<polygon fill="midnightblue" stroke="midnightblue" points="1314.16,-131.95 1304.53,-136.367 1314.81,-138.92 1314.16,-131.95"/>
</g>
<!-- Node20 -->
<g id="node20" class="node"><title>Node20</title>
<g id="a_node20"><a xlink:href="../../df/dd5/classgame_player_1_1_view_controller.html#a2acd822c93c35674b6978a97b4ce6e3f" target="_top" xlink:title="gamePlayer.ViewController.\lViewController">
<polygon fill="white" stroke="black" points="1592,-107 1592,-137 1738,-137 1738,-107 1592,-107"/>
<text text-anchor="start" x="1600" y="-125" font-family="Helvetica,sans-Serif" font-size="10.00">gamePlayer.ViewController.</text>
<text text-anchor="middle" x="1665" y="-114" font-family="Helvetica,sans-Serif" font-size="10.00">ViewController</text>
</a>
</g>
</g>
<!-- Node19&#45;&gt;Node20 -->
<g id="edge22" class="edge"><title>Node19&#45;&gt;Node20</title>
<path fill="none" stroke="midnightblue" d="M1566.24,-122C1574.94,-122 1583.59,-122 1591.95,-122"/>
<polygon fill="midnightblue" stroke="midnightblue" points="1566.03,-118.5 1556.03,-122 1566.03,-125.5 1566.03,-118.5"/>
</g>
<!-- Node22 -->
<g id="node22" class="node"><title>Node22</title>
<g id="a_node22"><a xlink:href="../../db/d00/classgame_player_1_1_apply_state.html#aed42c1aba25264bc6880036f693a1c9e" target="_top" xlink:title="gamePlayer.ApplyState.on\lClick">
<polygon fill="white" stroke="black" points="675.5,-233 675.5,-263 818.5,-263 818.5,-233 675.5,-233"/>
<text text-anchor="start" x="683.5" y="-251" font-family="Helvetica,sans-Serif" font-size="10.00">gamePlayer.ApplyState.on</text>
<text text-anchor="middle" x="747" y="-240" font-family="Helvetica,sans-Serif" font-size="10.00">Click</text>
</a>
</g>
</g>
<!-- Node21&#45;&gt;Node22 -->
<g id="edge24" class="edge"><title>Node21&#45;&gt;Node22</title>
<path fill="none" stroke="midnightblue" d="M610.491,-248C632.122,-248 654.861,-248 675.402,-248"/>
<polygon fill="midnightblue" stroke="midnightblue" points="610.311,-244.5 600.311,-248 610.311,-251.5 610.311,-244.5"/>
</g>
<!-- Node24 -->
<g id="node24" class="node"><title>Node24</title>
<g id="a_node24"><a xlink:href="../../df/dd5/classgame_player_1_1_view_controller.html#a19c7b5437fe31089198b6aae9c98a382" target="_top" xlink:title="gamePlayer.ViewController.load\lGameInTab">
<polygon fill="white" stroke="black" points="434.5,-145 434.5,-175 601.5,-175 601.5,-145 434.5,-145"/>
<text text-anchor="start" x="442.5" y="-163" font-family="Helvetica,sans-Serif" font-size="10.00">gamePlayer.ViewController.load</text>
<text text-anchor="middle" x="518" y="-152" font-family="Helvetica,sans-Serif" font-size="10.00">GameInTab</text>
</a>
</g>
</g>
<!-- Node23&#45;&gt;Node24 -->
<g id="edge26" class="edge"><title>Node23&#45;&gt;Node24</title>
<path fill="none" stroke="midnightblue" d="M382.281,-161.192C399.437,-161.04 417.287,-160.882 434.169,-160.733"/>
<polygon fill="midnightblue" stroke="midnightblue" points="382.24,-157.692 372.272,-161.281 382.303,-164.692 382.24,-157.692"/>
</g>
<!-- Node25 -->
<g id="node25" class="node"><title>Node25</title>
<g id="a_node25"><a xlink:href="../../df/dd5/classgame_player_1_1_view_controller.html#a18533d310033908b1101797368828a26" target="_top" xlink:title="gamePlayer.ViewController.\lViewController">
<polygon fill="white" stroke="black" points="674,-145 674,-175 820,-175 820,-145 674,-145"/>
<text text-anchor="start" x="682" y="-163" font-family="Helvetica,sans-Serif" font-size="10.00">gamePlayer.ViewController.</text>
<text text-anchor="middle" x="747" y="-152" font-family="Helvetica,sans-Serif" font-size="10.00">ViewController</text>
</a>
</g>
</g>
<!-- Node24&#45;&gt;Node25 -->
<g id="edge27" class="edge"><title>Node24&#45;&gt;Node25</title>
<path fill="none" stroke="midnightblue" d="M611.698,-160C632.462,-160 654.189,-160 673.967,-160"/>
<polygon fill="midnightblue" stroke="midnightblue" points="611.594,-156.5 601.594,-160 611.594,-163.5 611.594,-156.5"/>
</g>
<!-- Node27 -->
<g id="node27" class="node"><title>Node27</title>
<g id="a_node27"><a xlink:href="../../df/dd5/classgame_player_1_1_view_controller.html#a87ee83b9dc170a094457a10bfdff7c20" target="_top" xlink:title="gamePlayer.ViewController.loadGame">
<polygon fill="white" stroke="black" points="420,-104.5 420,-123.5 616,-123.5 616,-104.5 420,-104.5"/>
<text text-anchor="middle" x="518" y="-111.5" font-family="Helvetica,sans-Serif" font-size="10.00">gamePlayer.ViewController.loadGame</text>
</a>
</g>
</g>
<!-- Node26&#45;&gt;Node27 -->
<g id="edge29" class="edge"><title>Node26&#45;&gt;Node27</title>
<path fill="none" stroke="midnightblue" d="M382.514,-113.405C394.821,-113.459 407.481,-113.515 419.881,-113.57"/>
<polygon fill="midnightblue" stroke="midnightblue" points="382.287,-109.904 372.272,-113.36 382.256,-116.904 382.287,-109.904"/>
</g>
<!-- Node28 -->
<g id="node28" class="node"><title>Node28</title>
<g id="a_node28"><a xlink:href="../../df/dd5/classgame_player_1_1_view_controller.html#ac0350fa190876455755b7fb25f567af1" target="_top" xlink:title="gamePlayer.ViewController.testGame">
<polygon fill="white" stroke="black" points="421,-66.5 421,-85.5 615,-85.5 615,-66.5 421,-66.5"/>
<text text-anchor="middle" x="518" y="-73.5" font-family="Helvetica,sans-Serif" font-size="10.00">gamePlayer.ViewController.testGame</text>
</a>
</g>
</g>
<!-- Node26&#45;&gt;Node28 -->
<g id="edge30" class="edge"><title>Node26&#45;&gt;Node28</title>
<path fill="none" stroke="midnightblue" d="M382.435,-98.0306C408.194,-93.8133 435.507,-89.3418 458.745,-85.5372"/>
<polygon fill="midnightblue" stroke="midnightblue" points="381.575,-94.6247 372.272,-99.6944 382.706,-101.533 381.575,-94.6247"/>
</g>
<!-- Node31 -->
<g id="node31" class="node"><title>Node31</title>
<g id="a_node31"><a xlink:href="../../df/dd5/classgame_player_1_1_view_controller.html#a26ec840557872a9223fc24c0421644b9" target="_top" xlink:title="gamePlayer.ViewController.show\lScore">
<polygon fill="white" stroke="black" points="433,-0 433,-30 603,-30 603,-0 433,-0"/>
<text text-anchor="start" x="441" y="-18" font-family="Helvetica,sans-Serif" font-size="10.00">gamePlayer.ViewController.show</text>
<text text-anchor="middle" x="518" y="-7" font-family="Helvetica,sans-Serif" font-size="10.00">Score</text>
</a>
</g>
</g>
<!-- Node30&#45;&gt;Node31 -->
<g id="edge33" class="edge"><title>Node30&#45;&gt;Node31</title>
<path fill="none" stroke="midnightblue" d="M383.599,-15C399.879,-15 416.743,-15 432.779,-15"/>
<polygon fill="midnightblue" stroke="midnightblue" points="383.551,-11.5001 373.551,-15 383.55,-18.5001 383.551,-11.5001"/>
</g>
</g>
</svg>
        <g id="navigator" transform="translate(0 0)" fill="#404254">
                <rect fill="#f2f5e9" fill-opacity="0.5" stroke="#606060" stroke-width=".5" x="0" y="0" width="60" height="60"/>
                <use id="zoomplus" xlink:href="#zoomPlus" x="17" y="9" onmousedown="handleZoom(evt,'in')"/>
                <use id="zoomminus" xlink:href="#zoomMin" x="42" y="9" onmousedown="handleZoom(evt,'out')"/>
                <use id="reset" xlink:href="#resetDef" x="30" y="36" onmousedown="handleReset()"/>
                <g id="arrowUp" xlink:href="#dirArrow" transform="translate(30 24)" onmousedown="handlePan(0,-1)">
                  <use xlink:href="#rim" fill="#404040">
                        <set attributeName="fill" to="#808080" begin="arrowUp.mouseover" end="arrowUp.mouseout"/>
                  </use>
                  <path fill="none" stroke="white" stroke-width="1.5" d="M0,-3.0v7 M-2.5,-0.5L0,-3.0L2.5,-0.5"/>
                </g>
                <g id="arrowRight" xlink:href="#dirArrow" transform="rotate(90) translate(36 -43)" onmousedown="handlePan(1,0)">
                  <use xlink:href="#rim" fill="#404040">
                        <set attributeName="fill" to="#808080" begin="arrowRight.mouseover" end="arrowRight.mouseout"/>
                  </use>
                  <path fill="none" stroke="white" stroke-width="1.5" d="M0,-3.0v7 M-2.5,-0.5L0,-3.0L2.5,-0.5"/>
                </g>
                <g id="arrowDown" xlink:href="#dirArrow" transform="rotate(180) translate(-30 -48)" onmousedown="handlePan(0,1)">
                  <use xlink:href="#rim" fill="#404040">
                        <set attributeName="fill" to="#808080" begin="arrowDown.mouseover" end="arrowDown.mouseout"/>
                  </use>
                  <path fill="none" stroke="white" stroke-width="1.5" d="M0,-3.0v7 M-2.5,-0.5L0,-3.0L2.5,-0.5"/>
                </g>
                <g id="arrowLeft" xlink:href="#dirArrow" transform="rotate(270) translate(-36 17)" onmousedown="handlePan(-1,0)">
                  <use xlink:href="#rim" fill="#404040">
                        <set attributeName="fill" to="#808080" begin="arrowLeft.mouseover" end="arrowLeft.mouseout"/>
                  </use>
                  <path fill="none" stroke="white" stroke-width="1.5" d="M0,-3.0v7 M-2.5,-0.5L0,-3.0L2.5,-0.5"/>
                </g>
        </g>
        <svg viewBox="0 0 15 15" width="100%" height="30px" preserveAspectRatio="xMaxYMin meet">
         <g id="arrow_out" transform="scale(0.3 0.3)">
          <a xlink:href="classgamedata_1_1gamecomponents_1_1_game_a538b22872996297aad3b918c4f567a9f_icgraph_org.svg" target="_base">
           <rect id="button" ry="5" rx="5" y="6" x="6" height="38" width="38"
                fill="#f2f5e9" fill-opacity="0.5" stroke="#606060" stroke-width="1.0"/>
           <path id="arrow"
             d="M 11.500037,31.436501 C 11.940474,20.09759 22.043105,11.32322 32.158766,21.979434 L 37.068811,17.246167 C 37.068811,17.246167 37.088388,32 37.088388,32 L 22.160133,31.978069 C 22.160133,31.978069 26.997745,27.140456 26.997745,27.140456 C 18.528582,18.264221 13.291696,25.230495 11.500037,31.436501 z"
             style="fill:#404040;"/>
          </a>
         </g>
        </svg>
</svg>
