<?xml version="1.0" encoding="UTF-8" standalone="no"?>
<!DOCTYPE svg PUBLIC "-//W3C//DTD SVG 1.1//EN"
 "http://www.w3.org/Graphics/SVG/1.1/DTD/svg11.dtd">
<!-- Generated by graphviz version 2.36.0 (20140111.2315)
 -->
<!-- Title: gamePlayer.PlayerTypeSetter.editSpecificPlayer Pages: 1 -->
<svg width="634pt" height="115pt"
 viewBox="0.00 0.00 634.00 115.00" xmlns="http://www.w3.org/2000/svg" xmlns:xlink="http://www.w3.org/1999/xlink">
<g id="graph0" class="graph" transform="scale(1 1) rotate(0) translate(4 111)">
<title>gamePlayer.PlayerTypeSetter.editSpecificPlayer</title>
<polygon fill="white" stroke="none" points="-4,4 -4,-111 630,-111 630,4 -4,4"/>
<!-- Node1 -->
<g id="node1" class="node"><title>Node1</title>
<polygon fill="#bfbfbf" stroke="black" points="0,-33 0,-63 176,-63 176,-33 0,-33"/>
<text text-anchor="start" x="8" y="-51" font-family="Helvetica,sans-Serif" font-size="10.00">gamePlayer.PlayerTypeSetter.edit</text>
<text text-anchor="middle" x="88" y="-40" font-family="Helvetica,sans-Serif" font-size="10.00">SpecificPlayer</text>
</g>
<!-- Node2 -->
<g id="node2" class="node"><title>Node2</title>
<g id="a_node2"><a xlink:href="../../d7/d84/classgame_player_1_1_player_type_setter.html#a782ba79987e63fb4c9c47c48284c0212" target="_top" xlink:title="gamePlayer.PlayerTypeSetter.start\lLoadPlayers">
<polygon fill="white" stroke="black" points="212.5,-33 212.5,-63 393.5,-63 393.5,-33 212.5,-33"/>
<text text-anchor="start" x="220.5" y="-51" font-family="Helvetica,sans-Serif" font-size="10.00">gamePlayer.PlayerTypeSetter.start</text>
<text text-anchor="middle" x="303" y="-40" font-family="Helvetica,sans-Serif" font-size="10.00">LoadPlayers</text>
</a>
</g>
</g>
<!-- Node1&#45;&gt;Node2 -->
<g id="edge1" class="edge"><title>Node1&#45;&gt;Node2</title>
<path fill="none" stroke="midnightblue" d="M186.397,-48C195.084,-48 203.853,-48 212.469,-48"/>
<polygon fill="midnightblue" stroke="midnightblue" points="186.25,-44.5001 176.25,-48 186.25,-51.5001 186.25,-44.5001"/>
</g>
<!-- Node3 -->
<g id="node3" class="node"><title>Node3</title>
<g id="a_node3"><a xlink:href="../../d7/d84/classgame_player_1_1_player_type_setter.html#a1eb0c9152edf12b5ea5eac8212d10b66" target="_top" xlink:title="gamePlayer.PlayerTypeSetter.\lPlayerTypeSetter">
<polygon fill="white" stroke="black" points="449,-77 449,-107 607,-107 607,-77 449,-77"/>
<text text-anchor="start" x="457" y="-95" font-family="Helvetica,sans-Serif" font-size="10.00">gamePlayer.PlayerTypeSetter.</text>
<text text-anchor="middle" x="528" y="-84" font-family="Helvetica,sans-Serif" font-size="10.00">PlayerTypeSetter</text>
</a>
</g>
</g>
<!-- Node2&#45;&gt;Node3 -->
<g id="edge2" class="edge"><title>Node2&#45;&gt;Node3</title>
<path fill="none" stroke="midnightblue" d="M390.148,-64.9977C410.152,-68.9448 431.306,-73.1186 450.844,-76.9738"/>
<polygon fill="midnightblue" stroke="midnightblue" points="390.609,-61.5213 380.12,-63.0192 389.254,-68.3889 390.609,-61.5213"/>
</g>
<!-- Node4 -->
<g id="node4" class="node"><title>Node4</title>
<g id="a_node4"><a xlink:href="../../df/dd5/classgame_player_1_1_view_controller.html#a87ee83b9dc170a094457a10bfdff7c20" target="_top" xlink:title="gamePlayer.ViewController.loadGame">
<polygon fill="white" stroke="black" points="430,-38.5 430,-57.5 626,-57.5 626,-38.5 430,-38.5"/>
<text text-anchor="middle" x="528" y="-45.5" font-family="Helvetica,sans-Serif" font-size="10.00">gamePlayer.ViewController.loadGame</text>
</a>
</g>
</g>
<!-- Node2&#45;&gt;Node4 -->
<g id="edge3" class="edge"><title>Node2&#45;&gt;Node4</title>
<path fill="none" stroke="midnightblue" d="M403.815,-48C412.446,-48 421.171,-48 429.781,-48"/>
<polygon fill="midnightblue" stroke="midnightblue" points="403.739,-44.5001 393.739,-48 403.739,-51.5001 403.739,-44.5001"/>
</g>
<!-- Node5 -->
<g id="node5" class="node"><title>Node5</title>
<g id="a_node5"><a xlink:href="../../df/dd5/classgame_player_1_1_view_controller.html#ac0350fa190876455755b7fb25f567af1" target="_top" xlink:title="gamePlayer.ViewController.testGame">
<polygon fill="white" stroke="black" points="431,-0.5 431,-19.5 625,-19.5 625,-0.5 431,-0.5"/>
<text text-anchor="middle" x="528" y="-7.5" font-family="Helvetica,sans-Serif" font-size="10.00">gamePlayer.ViewController.testGame</text>
</a>
</g>
</g>
<!-- Node2&#45;&gt;Node5 -->
<g id="edge4" class="edge"><title>Node2&#45;&gt;Node5</title>
<path fill="none" stroke="midnightblue" d="M402.208,-31.2649C425.857,-27.2351 450.315,-23.0674 471.245,-19.5009"/>
<polygon fill="midnightblue" stroke="midnightblue" points="401.405,-27.8512 392.136,-32.9814 402.581,-34.7518 401.405,-27.8512"/>
</g>
</g>
</svg>
