<?xml version="1.0" encoding="UTF-8" standalone="no"?>
<!DOCTYPE svg PUBLIC "-//W3C//DTD SVG 1.1//EN"
 "http://www.w3.org/Graphics/SVG/1.1/DTD/svg11.dtd">
<!-- Generated by graphviz version 2.36.0 (20140111.2315)
 -->
<!-- Title: gamePlayer.PlayerTypeSetter.PlayerTypeSetter Pages: 1 -->
<svg width="814pt" height="101pt"
 viewBox="0.00 0.00 814.00 101.00" xmlns="http://www.w3.org/2000/svg" xmlns:xlink="http://www.w3.org/1999/xlink">
<g id="graph0" class="graph" transform="scale(1 1) rotate(0) translate(4 97)">
<title>gamePlayer.PlayerTypeSetter.PlayerTypeSetter</title>
<polygon fill="white" stroke="none" points="-4,4 -4,-97 810,-97 810,4 -4,4"/>
<!-- Node1 -->
<g id="node1" class="node"><title>Node1</title>
<polygon fill="#bfbfbf" stroke="black" points="0,-46 0,-76 158,-76 158,-46 0,-46"/>
<text text-anchor="start" x="8" y="-64" font-family="Helvetica,sans-Serif" font-size="10.00">gamePlayer.PlayerTypeSetter.</text>
<text text-anchor="middle" x="79" y="-53" font-family="Helvetica,sans-Serif" font-size="10.00">PlayerTypeSetter</text>
</g>
<!-- Node2 -->
<g id="node2" class="node"><title>Node2</title>
<g id="a_node2"><a xlink:href="../../d7/d84/classgame_player_1_1_player_type_setter.html#a02600a3fceec808b4bb81f361115b07e" target="_top" xlink:title="gamePlayer.PlayerTypeSetter.loadFXML">
<polygon fill="white" stroke="black" points="194.5,-73.5 194.5,-92.5 397.5,-92.5 397.5,-73.5 194.5,-73.5"/>
<text text-anchor="middle" x="296" y="-80.5" font-family="Helvetica,sans-Serif" font-size="10.00">gamePlayer.PlayerTypeSetter.loadFXML</text>
</a>
</g>
</g>
<!-- Node1&#45;&gt;Node2 -->
<g id="edge1" class="edge"><title>Node1&#45;&gt;Node2</title>
<path fill="none" stroke="midnightblue" d="M158.228,-69.0047C169.075,-70.1147 180.353,-71.2687 191.571,-72.4166"/>
<polygon fill="midnightblue" stroke="midnightblue" points="191.539,-75.9315 201.843,-73.4677 192.252,-68.9678 191.539,-75.9315"/>
</g>
<!-- Node3 -->
<g id="node3" class="node"><title>Node3</title>
<g id="a_node3"><a xlink:href="../../d7/d84/classgame_player_1_1_player_type_setter.html#a782ba79987e63fb4c9c47c48284c0212" target="_top" xlink:title="gamePlayer.PlayerTypeSetter.start\lLoadPlayers">
<polygon fill="white" stroke="black" points="205.5,-24 205.5,-54 386.5,-54 386.5,-24 205.5,-24"/>
<text text-anchor="start" x="213.5" y="-42" font-family="Helvetica,sans-Serif" font-size="10.00">gamePlayer.PlayerTypeSetter.start</text>
<text text-anchor="middle" x="296" y="-31" font-family="Helvetica,sans-Serif" font-size="10.00">LoadPlayers</text>
</a>
</g>
</g>
<!-- Node1&#45;&gt;Node3 -->
<g id="edge2" class="edge"><title>Node1&#45;&gt;Node3</title>
<path fill="none" stroke="midnightblue" d="M158.228,-52.9953C170.141,-51.7763 182.573,-50.5042 194.875,-49.2453"/>
<polygon fill="midnightblue" stroke="midnightblue" points="195.573,-52.6923 205.165,-48.1924 194.86,-45.7286 195.573,-52.6923"/>
</g>
<!-- Node4 -->
<g id="node4" class="node"><title>Node4</title>
<g id="a_node4"><a xlink:href="../../d2/d99/classgamedata_1_1gamecomponents_1_1_game.html#a538b22872996297aad3b918c4f567a9f" target="_top" xlink:title="gamedata.gamecomponents.\lGame.getPlayers">
<polygon fill="white" stroke="black" points="442,-49 442,-79 602,-79 602,-49 442,-49"/>
<text text-anchor="start" x="450" y="-67" font-family="Helvetica,sans-Serif" font-size="10.00">gamedata.gamecomponents.</text>
<text text-anchor="middle" x="522" y="-56" font-family="Helvetica,sans-Serif" font-size="10.00">Game.getPlayers</text>
</a>
</g>
</g>
<!-- Node3&#45;&gt;Node4 -->
<g id="edge3" class="edge"><title>Node3&#45;&gt;Node4</title>
<path fill="none" stroke="midnightblue" d="M386.819,-49.0244C401.554,-50.669 416.823,-52.3731 431.549,-54.0166"/>
<polygon fill="midnightblue" stroke="midnightblue" points="431.318,-57.5125 441.644,-55.1433 432.094,-50.5557 431.318,-57.5125"/>
</g>
<!-- Node5 -->
<g id="node5" class="node"><title>Node5</title>
<g id="a_node5"><a xlink:href="../../d7/d84/classgame_player_1_1_player_type_setter.html#a3507144e578e2d14c1f92fe81ae14435" target="_top" xlink:title="gamePlayer.PlayerTypeSetter.edit\lSpecificPlayer">
<polygon fill="white" stroke="black" points="434,-0 434,-30 610,-30 610,-0 434,-0"/>
<text text-anchor="start" x="442" y="-18" font-family="Helvetica,sans-Serif" font-size="10.00">gamePlayer.PlayerTypeSetter.edit</text>
<text text-anchor="middle" x="522" y="-7" font-family="Helvetica,sans-Serif" font-size="10.00">SpecificPlayer</text>
</a>
</g>
</g>
<!-- Node3&#45;&gt;Node5 -->
<g id="edge4" class="edge"><title>Node3&#45;&gt;Node5</title>
<path fill="none" stroke="midnightblue" d="M386.819,-29.3766C398.895,-28.0827 411.33,-26.7503 423.531,-25.4431"/>
<polygon fill="midnightblue" stroke="midnightblue" points="424.142,-28.8978 433.712,-24.3523 423.396,-21.9377 424.142,-28.8978"/>
</g>
<!-- Node6 -->
<g id="node6" class="node"><title>Node6</title>
<g id="a_node6"><a xlink:href="../../d2/d99/classgamedata_1_1gamecomponents_1_1_game.html#ad0b2eb24eabcffe2596837c5c6c1ac2c" target="_top" xlink:title="gamedata.gamecomponents.\lGame.replacePlayer">
<polygon fill="white" stroke="black" points="646,-0 646,-30 806,-30 806,-0 646,-0"/>
<text text-anchor="start" x="654" y="-18" font-family="Helvetica,sans-Serif" font-size="10.00">gamedata.gamecomponents.</text>
<text text-anchor="middle" x="726" y="-7" font-family="Helvetica,sans-Serif" font-size="10.00">Game.replacePlayer</text>
</a>
</g>
</g>
<!-- Node5&#45;&gt;Node6 -->
<g id="edge5" class="edge"><title>Node5&#45;&gt;Node6</title>
<path fill="none" stroke="midnightblue" d="M610.132,-15C618.558,-15 627.116,-15 635.564,-15"/>
<polygon fill="midnightblue" stroke="midnightblue" points="635.799,-18.5001 645.799,-15 635.799,-11.5001 635.799,-18.5001"/>
</g>
</g>
</svg>
