<?xml version="1.0" encoding="UTF-8" standalone="no"?>
<!DOCTYPE svg PUBLIC "-//W3C//DTD SVG 1.1//EN"
 "http://www.w3.org/Graphics/SVG/1.1/DTD/svg11.dtd">
<!-- Generated by graphviz version 2.36.0 (20140111.2315)
 -->
<!-- Title: gamePlayer.PlayerTypeSetter.startLoadPlayers Pages: 1 -->
<svg width="422pt" height="116pt"
 viewBox="0.00 0.00 422.00 116.00" xmlns="http://www.w3.org/2000/svg" xmlns:xlink="http://www.w3.org/1999/xlink">
<g id="graph0" class="graph" transform="scale(1 1) rotate(0) translate(4 112)">
<title>gamePlayer.PlayerTypeSetter.startLoadPlayers</title>
<polygon fill="white" stroke="none" points="-4,4 -4,-112 418,-112 418,4 -4,4"/>
<!-- Node1 -->
<g id="node1" class="node"><title>Node1</title>
<polygon fill="#bfbfbf" stroke="black" points="0.5,-39 0.5,-69 181.5,-69 181.5,-39 0.5,-39"/>
<text text-anchor="start" x="8.5" y="-57" font-family="Helvetica,sans-Serif" font-size="10.00">gamePlayer.PlayerTypeSetter.start</text>
<text text-anchor="middle" x="91" y="-46" font-family="Helvetica,sans-Serif" font-size="10.00">LoadPlayers</text>
</g>
<!-- Node2 -->
<g id="node2" class="node"><title>Node2</title>
<g id="a_node2"><a xlink:href="../../df/dd5/classgame_player_1_1_view_controller.html#a87ee83b9dc170a094457a10bfdff7c20" target="_top" xlink:title="gamePlayer.ViewController.loadGame">
<polygon fill="white" stroke="black" points="218,-88.5 218,-107.5 414,-107.5 414,-88.5 218,-88.5"/>
<text text-anchor="middle" x="316" y="-95.5" font-family="Helvetica,sans-Serif" font-size="10.00">gamePlayer.ViewController.loadGame</text>
</a>
</g>
</g>
<!-- Node1&#45;&gt;Node2 -->
<g id="edge1" class="edge"><title>Node1&#45;&gt;Node2</title>
<path fill="none" stroke="midnightblue" d="M178.204,-71.0088C208.269,-76.9411 240.926,-83.3845 266.789,-88.4876"/>
<polygon fill="midnightblue" stroke="midnightblue" points="178.609,-67.5213 168.12,-69.0192 177.254,-74.3889 178.609,-67.5213"/>
</g>
<!-- Node3 -->
<g id="node3" class="node"><title>Node3</title>
<g id="a_node3"><a xlink:href="../../d7/d84/classgame_player_1_1_player_type_setter.html#a1eb0c9152edf12b5ea5eac8212d10b66" target="_top" xlink:title="gamePlayer.PlayerTypeSetter.\lPlayerTypeSetter">
<polygon fill="white" stroke="black" points="237,-39 237,-69 395,-69 395,-39 237,-39"/>
<text text-anchor="start" x="245" y="-57" font-family="Helvetica,sans-Serif" font-size="10.00">gamePlayer.PlayerTypeSetter.</text>
<text text-anchor="middle" x="316" y="-46" font-family="Helvetica,sans-Serif" font-size="10.00">PlayerTypeSetter</text>
</a>
</g>
</g>
<!-- Node1&#45;&gt;Node3 -->
<g id="edge2" class="edge"><title>Node1&#45;&gt;Node3</title>
<path fill="none" stroke="midnightblue" d="M192.09,-54C207.127,-54 222.443,-54 236.93,-54"/>
<polygon fill="midnightblue" stroke="midnightblue" points="191.739,-50.5001 181.739,-54 191.739,-57.5001 191.739,-50.5001"/>
</g>
<!-- Node4 -->
<g id="node4" class="node"><title>Node4</title>
<g id="a_node4"><a xlink:href="../../df/dd5/classgame_player_1_1_view_controller.html#ac0350fa190876455755b7fb25f567af1" target="_top" xlink:title="gamePlayer.ViewController.testGame">
<polygon fill="white" stroke="black" points="219,-0.5 219,-19.5 413,-19.5 413,-0.5 219,-0.5"/>
<text text-anchor="middle" x="316" y="-7.5" font-family="Helvetica,sans-Serif" font-size="10.00">gamePlayer.ViewController.testGame</text>
</a>
</g>
</g>
<!-- Node1&#45;&gt;Node4 -->
<g id="edge3" class="edge"><title>Node1&#45;&gt;Node4</title>
<path fill="none" stroke="midnightblue" d="M178.204,-36.9912C208.269,-31.0589 240.926,-24.6155 266.789,-19.5124"/>
<polygon fill="midnightblue" stroke="midnightblue" points="177.254,-33.6111 168.12,-38.9808 178.609,-40.4787 177.254,-33.6111"/>
</g>
</g>
</svg>
