<?xml version="1.0" encoding="UTF-8" standalone="no"?>
<!DOCTYPE svg PUBLIC "-//W3C//DTD SVG 1.1//EN"
 "http://www.w3.org/Graphics/SVG/1.1/DTD/svg11.dtd">
<!-- Generated by graphviz version 2.36.0 (20140111.2315)
 -->
<!-- Title: fxml_main.GUIGridReference.resetGrid Pages: 1 -->
<svg width="402pt" height="87pt"
 viewBox="0.00 0.00 402.00 87.00" xmlns="http://www.w3.org/2000/svg" xmlns:xlink="http://www.w3.org/1999/xlink">
<g id="graph0" class="graph" transform="scale(1 1) rotate(0) translate(4 83)">
<title>fxml_main.GUIGridReference.resetGrid</title>
<polygon fill="white" stroke="none" points="-4,4 -4,-83 398,-83 398,4 -4,4"/>
<!-- Node1 -->
<g id="node1" class="node"><title>Node1</title>
<polygon fill="#bfbfbf" stroke="black" points="0,-29.5 0,-48.5 200,-48.5 200,-29.5 0,-29.5"/>
<text text-anchor="middle" x="100" y="-36.5" font-family="Helvetica,sans-Serif" font-size="10.00">fxml_main.GUIGridReference.resetGrid</text>
</g>
<!-- Node2 -->
<g id="node2" class="node"><title>Node2</title>
<g id="a_node2"><a xlink:href="../../d6/d05/classfxml__main_1_1_g_u_i_grid_reference.html#a2ec74cca0a39d3e316572fee1b7c699f" target="_top" xlink:title="fxml_main.GUIGridReference.\lGUIGridReference">
<polygon fill="white" stroke="black" points="237,-49 237,-79 393,-79 393,-49 237,-49"/>
<text text-anchor="start" x="245" y="-67" font-family="Helvetica,sans-Serif" font-size="10.00">fxml_main.GUIGridReference.</text>
<text text-anchor="middle" x="315" y="-56" font-family="Helvetica,sans-Serif" font-size="10.00">GUIGridReference</text>
</a>
</g>
</g>
<!-- Node1&#45;&gt;Node2 -->
<g id="edge1" class="edge"><title>Node1&#45;&gt;Node2</title>
<path fill="none" stroke="midnightblue" d="M192.345,-49.7213C207.209,-51.4659 222.475,-53.2576 236.953,-54.9569"/>
<polygon fill="midnightblue" stroke="midnightblue" points="192.474,-46.2124 182.134,-48.5227 191.658,-53.1647 192.474,-46.2124"/>
</g>
<!-- Node3 -->
<g id="node3" class="node"><title>Node3</title>
<g id="a_node3"><a xlink:href="../../da/d61/classfxml__main_1_1_level_controller.html#a0e096977db46ecaa5447882576821eb4" target="_top" xlink:title="fxml_main.LevelController.init\lEntryDelBtn">
<polygon fill="white" stroke="black" points="236.5,-0 236.5,-30 393.5,-30 393.5,-0 236.5,-0"/>
<text text-anchor="start" x="244.5" y="-18" font-family="Helvetica,sans-Serif" font-size="10.00">fxml_main.LevelController.init</text>
<text text-anchor="middle" x="315" y="-7" font-family="Helvetica,sans-Serif" font-size="10.00">EntryDelBtn</text>
</a>
</g>
</g>
<!-- Node1&#45;&gt;Node3 -->
<g id="edge2" class="edge"><title>Node1&#45;&gt;Node3</title>
<path fill="none" stroke="midnightblue" d="M195.76,-28.3228C209.276,-26.7999 223.047,-25.2482 236.189,-23.7675"/>
<polygon fill="midnightblue" stroke="midnightblue" points="195.034,-24.8823 185.489,-29.4801 195.818,-31.8383 195.034,-24.8823"/>
</g>
</g>
</svg>
