<?xml version="1.0" encoding="UTF-8" standalone="no"?>
<!DOCTYPE svg PUBLIC "-//W3C//DTD SVG 1.1//EN"
 "http://www.w3.org/Graphics/SVG/1.1/DTD/svg11.dtd">
<!-- Generated by graphviz version 2.36.0 (20140111.2315)
 -->
<!-- Title: fxml_main.GUIGridReference.setGrid Pages: 1 -->
<!--zoomable 136 -->
<svg id="main" version="1.1" xmlns="http://www.w3.org/2000/svg" xmlns:xlink="http://www.w3.org/1999/xlink" xml:space="preserve" onload="init(evt)">
<style type="text/css"><![CDATA[
.edge:hover path { stroke: red; }
.edge:hover polygon { stroke: red; fill: red; }
]]></style>
<script type="text/javascript"><![CDATA[
var edges = document.getElementsByTagName('g');
if (edges && edges.length) {
  for (var i=0;i<edges.length;i++) {
    if (edges[i].id.substr(0,4)=='edge') {
      edges[i].setAttribute('class','edge');
    }
  }
}
]]></script>
        <defs>
                <circle id="rim" cx="0" cy="0" r="7"/>
                <circle id="rim2" cx="0" cy="0" r="3.5"/>
                <g id="zoomPlus">
                        <use xlink:href="#rim" fill="#404040">
                                <set attributeName="fill" to="#808080" begin="zoomplus.mouseover" end="zoomplus.mouseout"/>
                        </use>
                        <path d="M-4,0h8M0,-4v8" fill="none" stroke="white" stroke-width="1.5" pointer-events="none"/>
                </g>
                <g id="zoomMin">
                        <use xlink:href="#rim" fill="#404040">
                                <set attributeName="fill" to="#808080" begin="zoomminus.mouseover" end="zoomminus.mouseout"/>
                        </use>
                        <path d="M-4,0h8" fill="none" stroke="white" stroke-width="1.5" pointer-events="none"/>
                </g>
                <g id="dirArrow">
                        <path fill="none" stroke="white" stroke-width="1.5" d="M0,-3.0v7 M-2.5,-0.5L0,-3.0L2.5,-0.5"/>
                </g>
               <g id="resetDef">
                       <use xlink:href="#rim2" fill="#404040">
                               <set attributeName="fill" to="#808080" begin="reset.mouseover" end="reset.mouseout"/>
                       </use>
               </g>
        </defs>

<script type="text/javascript">
var viewWidth = 796;
var viewHeight = 136;
var sectionId = 'dynsection-4';
</script>
<script xlink:href="../../svgpan.js"/>
<svg id="graph" class="graph">
<g id="viewport">
<title>fxml_main.GUIGridReference.setGrid</title>
<polygon fill="white" stroke="none" points="-4,4 -4,-132 792,-132 792,4 -4,4"/>
<!-- Node1 -->
<g id="node1" class="node"><title>Node1</title>
<polygon fill="#bfbfbf" stroke="black" points="0.5,-54.5 0.5,-73.5 191.5,-73.5 191.5,-54.5 0.5,-54.5"/>
<text text-anchor="middle" x="96" y="-61.5" font-family="Helvetica,sans-Serif" font-size="10.00">fxml_main.GUIGridReference.setGrid</text>
</g>
<!-- Node2 -->
<g id="node2" class="node"><title>Node2</title>
<g id="a_node2"><a xlink:href="../../da/d61/classfxml__main_1_1_level_controller.html#a2e3171d5138673f8798df865cd7474d6" target="_top" xlink:title="fxml_main.LevelController.set\lAndDisplayGrid">
<polygon fill="white" stroke="black" points="228,-49 228,-79 386,-79 386,-49 228,-49"/>
<text text-anchor="start" x="236" y="-67" font-family="Helvetica,sans-Serif" font-size="10.00">fxml_main.LevelController.set</text>
<text text-anchor="middle" x="307" y="-56" font-family="Helvetica,sans-Serif" font-size="10.00">AndDisplayGrid</text>
</a>
</g>
</g>
<!-- Node1&#45;&gt;Node2 -->
<g id="edge1" class="edge"><title>Node1&#45;&gt;Node2</title>
<path fill="none" stroke="midnightblue" d="M201.95,-64C210.678,-64 219.402,-64 227.879,-64"/>
<polygon fill="midnightblue" stroke="midnightblue" points="201.716,-60.5001 191.716,-64 201.716,-67.5001 201.716,-60.5001"/>
</g>
<!-- Node3 -->
<g id="node3" class="node"><title>Node3</title>
<g id="a_node3"><a xlink:href="../../da/d61/classfxml__main_1_1_level_controller.html#afc5b51dbda006fbc6e3f344c4dfadde5" target="_top" xlink:title="fxml_main.LevelController.global\lNewBtnOnClickAction">
<polygon fill="white" stroke="black" points="422.5,-98 422.5,-128 593.5,-128 593.5,-98 422.5,-98"/>
<text text-anchor="start" x="430.5" y="-116" font-family="Helvetica,sans-Serif" font-size="10.00">fxml_main.LevelController.global</text>
<text text-anchor="middle" x="508" y="-105" font-family="Helvetica,sans-Serif" font-size="10.00">NewBtnOnClickAction</text>
</a>
</g>
</g>
<!-- Node2&#45;&gt;Node3 -->
<g id="edge2" class="edge"><title>Node2&#45;&gt;Node3</title>
<path fill="none" stroke="midnightblue" d="M378.977,-81.4768C400.911,-86.8775 424.864,-92.7755 446.057,-97.9938"/>
<polygon fill="midnightblue" stroke="midnightblue" points="379.606,-78.0271 369.059,-79.0346 377.932,-84.8241 379.606,-78.0271"/>
</g>
<!-- Node5 -->
<g id="node5" class="node"><title>Node5</title>
<g id="a_node5"><a xlink:href="../../da/d61/classfxml__main_1_1_level_controller.html#a2b46111b25876d30c6d6a2e6a40aba63" target="_top" xlink:title="fxml_main.LevelController.make\lEntryBox">
<polygon fill="white" stroke="black" points="423,-49 423,-79 593,-79 593,-49 423,-49"/>
<text text-anchor="start" x="431" y="-67" font-family="Helvetica,sans-Serif" font-size="10.00">fxml_main.LevelController.make</text>
<text text-anchor="middle" x="508" y="-56" font-family="Helvetica,sans-Serif" font-size="10.00">EntryBox</text>
</a>
</g>
</g>
<!-- Node2&#45;&gt;Node5 -->
<g id="edge4" class="edge"><title>Node2&#45;&gt;Node5</title>
<path fill="none" stroke="midnightblue" d="M396.365,-64C405.188,-64 414.13,-64 422.907,-64"/>
<polygon fill="midnightblue" stroke="midnightblue" points="396.079,-60.5001 386.079,-64 396.079,-67.5001 396.079,-60.5001"/>
</g>
<!-- Node6 -->
<g id="node6" class="node"><title>Node6</title>
<g id="a_node6"><a xlink:href="../../da/d61/classfxml__main_1_1_level_controller.html#afccbd5a580984530e426dcc41521bf92" target="_top" xlink:title="fxml_main.LevelController.init\lEntryEditBtn">
<polygon fill="white" stroke="black" points="429.5,-0 429.5,-30 586.5,-30 586.5,-0 429.5,-0"/>
<text text-anchor="start" x="437.5" y="-18" font-family="Helvetica,sans-Serif" font-size="10.00">fxml_main.LevelController.init</text>
<text text-anchor="middle" x="508" y="-7" font-family="Helvetica,sans-Serif" font-size="10.00">EntryEditBtn</text>
</a>
</g>
</g>
<!-- Node2&#45;&gt;Node6 -->
<g id="edge5" class="edge"><title>Node2&#45;&gt;Node6</title>
<path fill="none" stroke="midnightblue" d="M378.977,-46.5232C400.911,-41.1225 424.864,-35.2245 446.057,-30.0062"/>
<polygon fill="midnightblue" stroke="midnightblue" points="377.932,-43.1759 369.059,-48.9654 379.606,-49.9729 377.932,-43.1759"/>
</g>
<!-- Node4 -->
<g id="node4" class="node"><title>Node4</title>
<g id="a_node4"><a xlink:href="../../da/d61/classfxml__main_1_1_level_controller.html#a75d5024df2cbcdabc2967c829c3e2f6d" target="_top" xlink:title="fxml_main.LevelController.init\lGlobalNewBtn">
<polygon fill="white" stroke="black" points="630.5,-98 630.5,-128 787.5,-128 787.5,-98 630.5,-98"/>
<text text-anchor="start" x="638.5" y="-116" font-family="Helvetica,sans-Serif" font-size="10.00">fxml_main.LevelController.init</text>
<text text-anchor="middle" x="709" y="-105" font-family="Helvetica,sans-Serif" font-size="10.00">GlobalNewBtn</text>
</a>
</g>
</g>
<!-- Node3&#45;&gt;Node4 -->
<g id="edge3" class="edge"><title>Node3&#45;&gt;Node4</title>
<path fill="none" stroke="midnightblue" d="M603.714,-113C612.633,-113 621.603,-113 630.336,-113"/>
<polygon fill="midnightblue" stroke="midnightblue" points="603.683,-109.5 593.682,-113 603.682,-116.5 603.683,-109.5"/>
</g>
</g>
</svg>
        <g id="navigator" transform="translate(0 0)" fill="#404254">
                <rect fill="#f2f5e9" fill-opacity="0.5" stroke="#606060" stroke-width=".5" x="0" y="0" width="60" height="60"/>
                <use id="zoomplus" xlink:href="#zoomPlus" x="17" y="9" onmousedown="handleZoom(evt,'in')"/>
                <use id="zoomminus" xlink:href="#zoomMin" x="42" y="9" onmousedown="handleZoom(evt,'out')"/>
                <use id="reset" xlink:href="#resetDef" x="30" y="36" onmousedown="handleReset()"/>
                <g id="arrowUp" xlink:href="#dirArrow" transform="translate(30 24)" onmousedown="handlePan(0,-1)">
                  <use xlink:href="#rim" fill="#404040">
                        <set attributeName="fill" to="#808080" begin="arrowUp.mouseover" end="arrowUp.mouseout"/>
                  </use>
                  <path fill="none" stroke="white" stroke-width="1.5" d="M0,-3.0v7 M-2.5,-0.5L0,-3.0L2.5,-0.5"/>
                </g>
                <g id="arrowRight" xlink:href="#dirArrow" transform="rotate(90) translate(36 -43)" onmousedown="handlePan(1,0)">
                  <use xlink:href="#rim" fill="#404040">
                        <set attributeName="fill" to="#808080" begin="arrowRight.mouseover" end="arrowRight.mouseout"/>
                  </use>
                  <path fill="none" stroke="white" stroke-width="1.5" d="M0,-3.0v7 M-2.5,-0.5L0,-3.0L2.5,-0.5"/>
                </g>
                <g id="arrowDown" xlink:href="#dirArrow" transform="rotate(180) translate(-30 -48)" onmousedown="handlePan(0,1)">
                  <use xlink:href="#rim" fill="#404040">
                        <set attributeName="fill" to="#808080" begin="arrowDown.mouseover" end="arrowDown.mouseout"/>
                  </use>
                  <path fill="none" stroke="white" stroke-width="1.5" d="M0,-3.0v7 M-2.5,-0.5L0,-3.0L2.5,-0.5"/>
                </g>
                <g id="arrowLeft" xlink:href="#dirArrow" transform="rotate(270) translate(-36 17)" onmousedown="handlePan(-1,0)">
                  <use xlink:href="#rim" fill="#404040">
                        <set attributeName="fill" to="#808080" begin="arrowLeft.mouseover" end="arrowLeft.mouseout"/>
                  </use>
                  <path fill="none" stroke="white" stroke-width="1.5" d="M0,-3.0v7 M-2.5,-0.5L0,-3.0L2.5,-0.5"/>
                </g>
        </g>
        <svg viewBox="0 0 15 15" width="100%" height="30px" preserveAspectRatio="xMaxYMin meet">
         <g id="arrow_out" transform="scale(0.3 0.3)">
          <a xlink:href="classfxml__main_1_1_g_u_i_grid_reference_a6a50d6c8429ddb56128b31faed01dd21_icgraph_org.svg" target="_base">
           <rect id="button" ry="5" rx="5" y="6" x="6" height="38" width="38"
                fill="#f2f5e9" fill-opacity="0.5" stroke="#606060" stroke-width="1.0"/>
           <path id="arrow"
             d="M 11.500037,31.436501 C 11.940474,20.09759 22.043105,11.32322 32.158766,21.979434 L 37.068811,17.246167 C 37.068811,17.246167 37.088388,32 37.088388,32 L 22.160133,31.978069 C 22.160133,31.978069 26.997745,27.140456 26.997745,27.140456 C 18.528582,18.264221 13.291696,25.230495 11.500037,31.436501 z"
             style="fill:#404040;"/>
          </a>
         </g>
        </svg>
</svg>
