<?xml version="1.0" encoding="UTF-8" standalone="no"?>
<!DOCTYPE svg PUBLIC "-//W3C//DTD SVG 1.1//EN"
 "http://www.w3.org/Graphics/SVG/1.1/DTD/svg11.dtd">
<!-- Generated by graphviz version 2.36.0 (20140111.2315)
 -->
<!-- Title: gameengine.player.SimpleAIPlayer Pages: 1 -->
<svg width="1250pt" height="312pt"
 viewBox="0.00 0.00 1250.00 312.00" xmlns="http://www.w3.org/2000/svg" xmlns:xlink="http://www.w3.org/1999/xlink">
<g id="graph0" class="graph" transform="scale(1 1) rotate(0) translate(4 308)">
<title>gameengine.player.SimpleAIPlayer</title>
<polygon fill="white" stroke="none" points="-4,4 -4,-308 1246,-308 1246,4 -4,4"/>
<!-- Node1 -->
<g id="node1" class="node"><title>Node1</title>
<polygon fill="#bfbfbf" stroke="black" points="1098,-204 1098,-234 1242,-234 1242,-204 1098,-204"/>
<text text-anchor="start" x="1106" y="-222" font-family="Helvetica,sans-Serif" font-size="10.00">gameengine.player.Simple</text>
<text text-anchor="middle" x="1170" y="-211" font-family="Helvetica,sans-Serif" font-size="10.00">AIPlayer</text>
</g>
<!-- Node2 -->
<g id="node2" class="node"><title>Node2</title>
<g id="a_node2"><a xlink:href="../../d0/dfd/classgameengine_1_1player_1_1_player.html" target="_top" xlink:title="gameengine.player.Player">
<polygon fill="white" stroke="black" points="832,-234.5 832,-253.5 972,-253.5 972,-234.5 832,-234.5"/>
<text text-anchor="middle" x="902" y="-241.5" font-family="Helvetica,sans-Serif" font-size="10.00">gameengine.player.Player</text>
</a>
</g>
</g>
<!-- Node2&#45;&gt;Node1 -->
<g id="edge1" class="edge"><title>Node2&#45;&gt;Node1</title>
<path fill="none" stroke="midnightblue" d="M982.352,-236.542C1019.02,-233.096 1062.23,-229.035 1097.84,-225.688"/>
<polygon fill="midnightblue" stroke="midnightblue" points="981.823,-233.076 972.194,-237.497 982.478,-240.046 981.823,-233.076"/>
</g>
<!-- Node3 -->
<g id="node3" class="node"><title>Node3</title>
<g id="a_node3"><a xlink:href="../../dc/d5b/interfacegamedata_1_1gamecomponents_1_1_i_has_stats.html" target="_top" xlink:title="gamedata.gamecomponents.\lIHasStats">
<polygon fill="white" stroke="black" points="569,-273 569,-303 729,-303 729,-273 569,-273"/>
<text text-anchor="start" x="577" y="-291" font-family="Helvetica,sans-Serif" font-size="10.00">gamedata.gamecomponents.</text>
<text text-anchor="middle" x="649" y="-280" font-family="Helvetica,sans-Serif" font-size="10.00">IHasStats</text>
</a>
</g>
</g>
<!-- Node3&#45;&gt;Node2 -->
<g id="edge2" class="edge"><title>Node3&#45;&gt;Node2</title>
<path fill="none" stroke="midnightblue" d="M739.065,-272.387C774.938,-266.099 815.16,-259.048 846.543,-253.546"/>
<polygon fill="midnightblue" stroke="midnightblue" points="738.319,-268.964 729.073,-274.139 739.528,-275.859 738.319,-268.964"/>
</g>
<!-- Node4 -->
<g id="node4" class="node"><title>Node4</title>
<g id="a_node4"><a xlink:href="../../d6/d1d/classgamedata_1_1stats_1_1_stats.html" target="_top" xlink:title="gamedata.stats.Stats">
<polygon fill="white" stroke="black" points="588,-234.5 588,-253.5 710,-253.5 710,-234.5 588,-234.5"/>
<text text-anchor="middle" x="649" y="-241.5" font-family="Helvetica,sans-Serif" font-size="10.00">gamedata.stats.Stats</text>
</a>
</g>
</g>
<!-- Node4&#45;&gt;Node2 -->
<g id="edge3" class="edge"><title>Node4&#45;&gt;Node2</title>
<path fill="none" stroke="#9a32cd" stroke-dasharray="5,2" d="M720.206,-244C755.01,-244 796.905,-244 831.598,-244"/>
<polygon fill="#9a32cd" stroke="#9a32cd" points="720.121,-240.5 710.121,-244 720.121,-247.5 720.121,-240.5"/>
<text text-anchor="middle" x="778" y="-247" font-family="Helvetica,sans-Serif" font-size="10.00"> myStats</text>
</g>
<!-- Node5 -->
<g id="node5" class="node"><title>Node5</title>
<polygon fill="white" stroke="#bfbfbf" points="306,-234.5 306,-253.5 434,-253.5 434,-234.5 306,-234.5"/>
<text text-anchor="middle" x="370" y="-241.5" font-family="Helvetica,sans-Serif" font-size="10.00">Map&lt; String, Double &gt;</text>
</g>
<!-- Node5&#45;&gt;Node4 -->
<g id="edge4" class="edge"><title>Node5&#45;&gt;Node4</title>
<path fill="none" stroke="#9a32cd" stroke-dasharray="5,2" d="M444.445,-244C489.246,-244 545.798,-244 587.918,-244"/>
<polygon fill="#9a32cd" stroke="#9a32cd" points="444.202,-240.5 434.202,-244 444.202,-247.5 444.202,-240.5"/>
<text text-anchor="middle" x="512" y="-247" font-family="Helvetica,sans-Serif" font-size="10.00"> myStats</text>
</g>
<!-- Node6 -->
<g id="node6" class="node"><title>Node6</title>
<g id="a_node6"><a xlink:href="../../d8/d01/classgamedata_1_1gamecomponents_1_1_level.html" target="_top" xlink:title="gamedata.gamecomponents.\lLevel">
<polygon fill="white" stroke="black" points="822,-164 822,-194 982,-194 982,-164 822,-164"/>
<text text-anchor="start" x="830" y="-182" font-family="Helvetica,sans-Serif" font-size="10.00">gamedata.gamecomponents.</text>
<text text-anchor="middle" x="902" y="-171" font-family="Helvetica,sans-Serif" font-size="10.00">Level</text>
</a>
</g>
</g>
<!-- Node6&#45;&gt;Node1 -->
<g id="edge5" class="edge"><title>Node6&#45;&gt;Node1</title>
<path fill="none" stroke="#9a32cd" stroke-dasharray="5,2" d="M992.145,-192.405C1026.57,-197.583 1065.42,-203.424 1097.91,-208.31"/>
<polygon fill="#9a32cd" stroke="#9a32cd" points="992.498,-188.919 982.089,-190.893 991.457,-195.841 992.498,-188.919"/>
<text text-anchor="middle" x="1040" y="-208" font-family="Helvetica,sans-Serif" font-size="10.00"> myCurrentLevel</text>
</g>
<!-- Node7 -->
<g id="node7" class="node"><title>Node7</title>
<polygon fill="white" stroke="#bfbfbf" points="613.5,-196.5 613.5,-215.5 684.5,-215.5 684.5,-196.5 613.5,-196.5"/>
<text text-anchor="middle" x="649" y="-203.5" font-family="Helvetica,sans-Serif" font-size="10.00">Observable</text>
</g>
<!-- Node7&#45;&gt;Node6 -->
<g id="edge6" class="edge"><title>Node7&#45;&gt;Node6</title>
<path fill="none" stroke="midnightblue" d="M694.55,-201.483C725.308,-198.337 767.147,-194.004 804,-190 809.813,-189.368 815.821,-188.707 821.865,-188.036"/>
<polygon fill="midnightblue" stroke="midnightblue" points="694.16,-198.005 684.567,-202.502 694.871,-204.969 694.16,-198.005"/>
</g>
<!-- Node8 -->
<g id="node8" class="node"><title>Node8</title>
<g id="a_node8"><a xlink:href="../../da/d4c/classauthoring__environment_1_1_g_u_i_grid.html" target="_top" xlink:title="authoring_environment.GUIGrid">
<polygon fill="white" stroke="black" points="565,-158.5 565,-177.5 733,-177.5 733,-158.5 565,-158.5"/>
<text text-anchor="middle" x="649" y="-165.5" font-family="Helvetica,sans-Serif" font-size="10.00">authoring_environment.GUIGrid</text>
</a>
</g>
</g>
<!-- Node8&#45;&gt;Node6 -->
<g id="edge7" class="edge"><title>Node8&#45;&gt;Node6</title>
<path fill="none" stroke="#9a32cd" stroke-dasharray="5,2" d="M743.389,-172.093C769.185,-173.223 796.92,-174.439 821.824,-175.53"/>
<polygon fill="#9a32cd" stroke="#9a32cd" points="743.374,-168.589 733.231,-171.648 743.068,-175.582 743.374,-168.589"/>
<text text-anchor="middle" x="778" y="-178" font-family="Helvetica,sans-Serif" font-size="10.00"> myGrid</text>
</g>
<!-- Node9 -->
<g id="node9" class="node"><title>Node9</title>
<g id="a_node9"><a xlink:href="../../d9/df3/classauthoring__environment_1_1_super_grid.html" target="_top" xlink:title="authoring_environment.SuperGrid">
<polygon fill="white" stroke="black" points="280.5,-196.5 280.5,-215.5 459.5,-215.5 459.5,-196.5 280.5,-196.5"/>
<text text-anchor="middle" x="370" y="-203.5" font-family="Helvetica,sans-Serif" font-size="10.00">authoring_environment.SuperGrid</text>
</a>
</g>
</g>
<!-- Node9&#45;&gt;Node8 -->
<g id="edge8" class="edge"><title>Node9&#45;&gt;Node8</title>
<path fill="none" stroke="midnightblue" d="M450.388,-195.114C480.352,-191.005 514.746,-186.288 546,-182 556.537,-180.554 567.685,-179.024 578.592,-177.528"/>
<polygon fill="midnightblue" stroke="midnightblue" points="449.839,-191.657 440.408,-196.483 450.79,-198.592 449.839,-191.657"/>
</g>
<!-- Node10 -->
<g id="node10" class="node"><title>Node10</title>
<polygon fill="white" stroke="#bfbfbf" points="18,-235 18,-265 170,-265 170,-235 18,-235"/>
<text text-anchor="start" x="26" y="-253" font-family="Helvetica,sans-Serif" font-size="10.00">List&lt; List&lt; authoring</text>
<text text-anchor="middle" x="94" y="-242" font-family="Helvetica,sans-Serif" font-size="10.00">_environment.SuperTile &gt; &gt;</text>
</g>
<!-- Node10&#45;&gt;Node9 -->
<g id="edge9" class="edge"><title>Node10&#45;&gt;Node9</title>
<path fill="none" stroke="#9a32cd" stroke-dasharray="5,2" d="M180.172,-236.323C222.144,-229.583 271.729,-221.62 309.553,-215.546"/>
<polygon fill="#9a32cd" stroke="#9a32cd" points="179.553,-232.877 170.234,-237.919 180.663,-239.789 179.553,-232.877"/>
<text text-anchor="middle" x="234" y="-235" font-family="Helvetica,sans-Serif" font-size="10.00"> myGrid</text>
</g>
<!-- Node11 -->
<g id="node11" class="node"><title>Node11</title>
<polygon fill="white" stroke="#bfbfbf" points="74,-196.5 74,-215.5 114,-215.5 114,-196.5 74,-196.5"/>
<text text-anchor="middle" x="94" y="-203.5" font-family="Helvetica,sans-Serif" font-size="10.00">Pane</text>
</g>
<!-- Node11&#45;&gt;Node9 -->
<g id="edge10" class="edge"><title>Node11&#45;&gt;Node9</title>
<path fill="none" stroke="#9a32cd" stroke-dasharray="5,2" d="M124.344,-206C161.282,-206 226.409,-206 280.184,-206"/>
<polygon fill="#9a32cd" stroke="#9a32cd" points="124.267,-202.5 114.267,-206 124.267,-209.5 124.267,-202.5"/>
<text text-anchor="middle" x="234" y="-209" font-family="Helvetica,sans-Serif" font-size="10.00"> myPane</text>
</g>
<!-- Node12 -->
<g id="node12" class="node"><title>Node12</title>
<polygon fill="white" stroke="#bfbfbf" points="340,-158.5 340,-177.5 400,-177.5 400,-158.5 340,-158.5"/>
<text text-anchor="middle" x="370" y="-165.5" font-family="Helvetica,sans-Serif" font-size="10.00">Observer</text>
</g>
<!-- Node12&#45;&gt;Node8 -->
<g id="edge11" class="edge"><title>Node12&#45;&gt;Node8</title>
<path fill="none" stroke="midnightblue" d="M410.265,-168C450.283,-168 513.575,-168 564.796,-168"/>
<polygon fill="midnightblue" stroke="midnightblue" points="410.12,-164.5 400.12,-168 410.12,-171.5 410.12,-164.5"/>
</g>
<!-- Node13 -->
<g id="node13" class="node"><title>Node13</title>
<g id="a_node13"><a xlink:href="../../d7/dd4/classauthoring_1_1data_1_1_patch_instance_data.html" target="_top" xlink:title="authoring.data.PatchInstanceData">
<polygon fill="white" stroke="black" points="280,-120.5 280,-139.5 460,-139.5 460,-120.5 280,-120.5"/>
<text text-anchor="middle" x="370" y="-127.5" font-family="Helvetica,sans-Serif" font-size="10.00">authoring.data.PatchInstanceData</text>
</a>
</g>
</g>
<!-- Node13&#45;&gt;Node8 -->
<g id="edge12" class="edge"><title>Node13&#45;&gt;Node8</title>
<path fill="none" stroke="#9a32cd" stroke-dasharray="5,2" d="M455.545,-140.846C484.268,-144.601 516.543,-148.899 546,-153 558.409,-154.728 571.659,-156.632 584.361,-158.488"/>
<polygon fill="#9a32cd" stroke="#9a32cd" points="455.913,-137.364 445.544,-139.541 455.008,-144.305 455.913,-137.364"/>
<text text-anchor="middle" x="512" y="-156" font-family="Helvetica,sans-Serif" font-size="10.00"> myPatchData</text>
</g>
<!-- Node14 -->
<g id="node14" class="node"><title>Node14</title>
<g id="a_node14"><a xlink:href="../../d5/d29/interfaceauthoring_1_1data_1_1_authoring_data.html" target="_top" xlink:title="authoring.data.Authoring\lData\&lt; Patch \&gt;">
<polygon fill="white" stroke="black" points="25.5,-147 25.5,-177 162.5,-177 162.5,-147 25.5,-147"/>
<text text-anchor="start" x="33.5" y="-165" font-family="Helvetica,sans-Serif" font-size="10.00">authoring.data.Authoring</text>
<text text-anchor="middle" x="94" y="-154" font-family="Helvetica,sans-Serif" font-size="10.00">Data&lt; Patch &gt;</text>
</a>
</g>
</g>
<!-- Node14&#45;&gt;Node13 -->
<g id="edge13" class="edge"><title>Node14&#45;&gt;Node13</title>
<path fill="none" stroke="midnightblue" d="M173.114,-152.877C208.872,-148.701 251.241,-143.753 287.411,-139.529"/>
<polygon fill="midnightblue" stroke="midnightblue" points="172.257,-149.453 162.73,-154.09 173.069,-156.406 172.257,-149.453"/>
</g>
<!-- Node15 -->
<g id="node15" class="node"><title>Node15</title>
<polygon fill="white" stroke="#bfbfbf" points="0,-98 0,-128 188,-128 188,-98 0,-98"/>
<text text-anchor="start" x="8" y="-116" font-family="Helvetica,sans-Serif" font-size="10.00">List&lt; gamedata.gamecomponents.</text>
<text text-anchor="middle" x="94" y="-105" font-family="Helvetica,sans-Serif" font-size="10.00">Patch &gt;</text>
</g>
<!-- Node15&#45;&gt;Node13 -->
<g id="edge14" class="edge"><title>Node15&#45;&gt;Node13</title>
<path fill="none" stroke="#9a32cd" stroke-dasharray="5,2" d="M198.325,-119.411C225.142,-121.075 253.795,-122.852 279.816,-124.467"/>
<polygon fill="#9a32cd" stroke="#9a32cd" points="198.344,-115.905 188.146,-118.779 197.91,-122.892 198.344,-115.905"/>
<text text-anchor="middle" x="234" y="-127" font-family="Helvetica,sans-Serif" font-size="10.00"> myPatches</text>
</g>
<!-- Node16 -->
<g id="node16" class="node"><title>Node16</title>
<g id="a_node16"><a xlink:href="../../d6/dda/classauthoring_1_1data_1_1_piece_instance_data.html" target="_top" xlink:title="authoring.data.PieceInstanceData">
<polygon fill="white" stroke="black" points="280.5,-54.5 280.5,-73.5 459.5,-73.5 459.5,-54.5 280.5,-54.5"/>
<text text-anchor="middle" x="370" y="-61.5" font-family="Helvetica,sans-Serif" font-size="10.00">authoring.data.PieceInstanceData</text>
</a>
</g>
</g>
<!-- Node16&#45;&gt;Node8 -->
<g id="edge15" class="edge"><title>Node16&#45;&gt;Node8</title>
<path fill="none" stroke="#9a32cd" stroke-dasharray="5,2" d="M423.23,-76.2682C459.754,-86.4867 508.509,-103.527 546,-129 555.892,-135.721 553.683,-142.952 564,-149 570.578,-152.856 577.87,-155.93 585.328,-158.38"/>
<polygon fill="#9a32cd" stroke="#9a32cd" points="423.84,-72.8072 413.272,-73.5656 422.007,-79.5628 423.84,-72.8072"/>
<text text-anchor="middle" x="512" y="-132" font-family="Helvetica,sans-Serif" font-size="10.00"> myPieceData</text>
</g>
<!-- Node17 -->
<g id="node17" class="node"><title>Node17</title>
<g id="a_node17"><a xlink:href="../../d5/d29/interfaceauthoring_1_1data_1_1_authoring_data.html" target="_top" xlink:title="authoring.data.Authoring\lData\&lt; Piece \&gt;">
<polygon fill="white" stroke="black" points="25.5,-49 25.5,-79 162.5,-79 162.5,-49 25.5,-49"/>
<text text-anchor="start" x="33.5" y="-67" font-family="Helvetica,sans-Serif" font-size="10.00">authoring.data.Authoring</text>
<text text-anchor="middle" x="94" y="-56" font-family="Helvetica,sans-Serif" font-size="10.00">Data&lt; Piece &gt;</text>
</a>
</g>
</g>
<!-- Node17&#45;&gt;Node16 -->
<g id="edge16" class="edge"><title>Node17&#45;&gt;Node16</title>
<path fill="none" stroke="midnightblue" d="M172.925,-64C206.413,-64 245.726,-64 280.324,-64"/>
<polygon fill="midnightblue" stroke="midnightblue" points="172.73,-60.5001 162.73,-64 172.73,-67.5001 172.73,-60.5001"/>
</g>
<!-- Node18 -->
<g id="node18" class="node"><title>Node18</title>
<polygon fill="white" stroke="#bfbfbf" points="0,-0 0,-30 188,-30 188,-0 0,-0"/>
<text text-anchor="start" x="8" y="-18" font-family="Helvetica,sans-Serif" font-size="10.00">List&lt; gamedata.gamecomponents.</text>
<text text-anchor="middle" x="94" y="-7" font-family="Helvetica,sans-Serif" font-size="10.00">Piece &gt;</text>
</g>
<!-- Node18&#45;&gt;Node16 -->
<g id="edge17" class="edge"><title>Node18&#45;&gt;Node16</title>
<path fill="none" stroke="#9a32cd" stroke-dasharray="5,2" d="M189.12,-31.8316C231.427,-39.3974 279.801,-48.0483 315.721,-54.472"/>
<polygon fill="#9a32cd" stroke="#9a32cd" points="189.531,-28.3497 179.071,-30.0346 188.299,-35.2404 189.531,-28.3497"/>
<text text-anchor="middle" x="234" y="-47" font-family="Helvetica,sans-Serif" font-size="10.00"> myPieces</text>
</g>
<!-- Node19 -->
<g id="node19" class="node"><title>Node19</title>
<polygon fill="white" stroke="#bfbfbf" points="564,-120.5 564,-139.5 734,-139.5 734,-120.5 564,-120.5"/>
<text text-anchor="middle" x="649" y="-127.5" font-family="Helvetica,sans-Serif" font-size="10.00">List&lt; gamedata.events.Event &gt;</text>
</g>
<!-- Node19&#45;&gt;Node6 -->
<g id="edge18" class="edge"><title>Node19&#45;&gt;Node6</title>
<path fill="none" stroke="#9a32cd" stroke-dasharray="5,2" d="M714.87,-141.299C742.396,-146.222 774.804,-152.187 804,-158 813.379,-159.867 823.25,-161.912 832.96,-163.969"/>
<polygon fill="#9a32cd" stroke="#9a32cd" points="715.424,-137.843 704.965,-139.535 714.197,-144.734 715.424,-137.843"/>
<text text-anchor="middle" x="778" y="-161" font-family="Helvetica,sans-Serif" font-size="10.00"> myEvents</text>
</g>
</g>
</svg>
