<?xml version="1.0" encoding="UTF-8" standalone="no"?>
<!DOCTYPE svg PUBLIC "-//W3C//DTD SVG 1.1//EN"
 "http://www.w3.org/Graphics/SVG/1.1/DTD/svg11.dtd">
<!-- Generated by graphviz version 2.36.0 (20140111.2315)
 -->
<!-- Title: authoring_environment.RangeGrid.processHighlight Pages: 1 -->
<svg width="566pt" height="175pt"
 viewBox="0.00 0.00 566.00 175.00" xmlns="http://www.w3.org/2000/svg" xmlns:xlink="http://www.w3.org/1999/xlink">
<g id="graph0" class="graph" transform="scale(1 1) rotate(0) translate(4 171)">
<title>authoring_environment.RangeGrid.processHighlight</title>
<polygon fill="white" stroke="none" points="-4,4 -4,-171 562,-171 562,4 -4,4"/>
<!-- Node1 -->
<g id="node1" class="node"><title>Node1</title>
<polygon fill="#bfbfbf" stroke="black" points="0.5,-71 0.5,-101 161.5,-101 161.5,-71 0.5,-71"/>
<text text-anchor="start" x="8.5" y="-89" font-family="Helvetica,sans-Serif" font-size="10.00">authoring_environment.Range</text>
<text text-anchor="middle" x="81" y="-78" font-family="Helvetica,sans-Serif" font-size="10.00">Grid.processHighlight</text>
</g>
<!-- Node2 -->
<g id="node2" class="node"><title>Node2</title>
<g id="a_node2"><a xlink:href="../../d5/da8/classauthoring__environment_1_1_range_grid.html#aa16681360246f8f0a4982b63e53d2826" target="_top" xlink:title="authoring_environment.Range\lGrid.rangeAll">
<polygon fill="white" stroke="black" points="198.5,-137 198.5,-167 359.5,-167 359.5,-137 198.5,-137"/>
<text text-anchor="start" x="206.5" y="-155" font-family="Helvetica,sans-Serif" font-size="10.00">authoring_environment.Range</text>
<text text-anchor="middle" x="279" y="-144" font-family="Helvetica,sans-Serif" font-size="10.00">Grid.rangeAll</text>
</a>
</g>
</g>
<!-- Node1&#45;&gt;Node2 -->
<g id="edge1" class="edge"><title>Node1&#45;&gt;Node2</title>
<path fill="none" stroke="midnightblue" d="M136.59,-104.382C167.052,-114.64 204.526,-127.259 233.243,-136.929"/>
<polygon fill="midnightblue" stroke="midnightblue" points="137.56,-101.016 126.966,-101.142 135.327,-107.65 137.56,-101.016"/>
</g>
<!-- Node3 -->
<g id="node3" class="node"><title>Node3</title>
<g id="a_node3"><a xlink:href="../../d5/da8/classauthoring__environment_1_1_range_grid.html#a1586131f94cc78931c9eb19ce22c9bba" target="_top" xlink:title="authoring_environment.Range\lGrid.rangeRadius">
<polygon fill="white" stroke="black" points="396.5,-115 396.5,-145 557.5,-145 557.5,-115 396.5,-115"/>
<text text-anchor="start" x="404.5" y="-133" font-family="Helvetica,sans-Serif" font-size="10.00">authoring_environment.Range</text>
<text text-anchor="middle" x="477" y="-122" font-family="Helvetica,sans-Serif" font-size="10.00">Grid.rangeRadius</text>
</a>
</g>
</g>
<!-- Node1&#45;&gt;Node3 -->
<g id="edge4" class="edge"><title>Node1&#45;&gt;Node3</title>
<path fill="none" stroke="midnightblue" d="M171.95,-96.0452C239.586,-103.598 331.4,-113.852 396.387,-121.109"/>
<polygon fill="midnightblue" stroke="midnightblue" points="172.058,-92.5356 161.732,-94.9041 171.282,-99.4924 172.058,-92.5356"/>
</g>
<!-- Node4 -->
<g id="node4" class="node"><title>Node4</title>
<g id="a_node4"><a xlink:href="../../d5/da8/classauthoring__environment_1_1_range_grid.html#ac170da90f00d9a8703aaab1cd3657888" target="_top" xlink:title="authoring_environment.Range\lGrid.rangeColumn">
<polygon fill="white" stroke="black" points="198.5,-49 198.5,-79 359.5,-79 359.5,-49 198.5,-49"/>
<text text-anchor="start" x="206.5" y="-67" font-family="Helvetica,sans-Serif" font-size="10.00">authoring_environment.Range</text>
<text text-anchor="middle" x="279" y="-56" font-family="Helvetica,sans-Serif" font-size="10.00">Grid.rangeColumn</text>
</a>
</g>
</g>
<!-- Node1&#45;&gt;Node4 -->
<g id="edge3" class="edge"><title>Node1&#45;&gt;Node4</title>
<path fill="none" stroke="midnightblue" d="M171.702,-75.9314C180.592,-74.9336 189.573,-73.9255 198.35,-72.9403"/>
<polygon fill="midnightblue" stroke="midnightblue" points="171.268,-72.4581 161.721,-77.0518 172.049,-79.4144 171.268,-72.4581"/>
</g>
<!-- Node5 -->
<g id="node5" class="node"><title>Node5</title>
<g id="a_node5"><a xlink:href="../../d5/da8/classauthoring__environment_1_1_range_grid.html#a5f6bb1c5cb9fb99ca4a1c45c0e9913bd" target="_top" xlink:title="authoring_environment.Range\lGrid.rangeRow">
<polygon fill="white" stroke="black" points="198.5,-0 198.5,-30 359.5,-30 359.5,-0 198.5,-0"/>
<text text-anchor="start" x="206.5" y="-18" font-family="Helvetica,sans-Serif" font-size="10.00">authoring_environment.Range</text>
<text text-anchor="middle" x="279" y="-7" font-family="Helvetica,sans-Serif" font-size="10.00">Grid.rangeRow</text>
</a>
</g>
</g>
<!-- Node1&#45;&gt;Node5 -->
<g id="edge5" class="edge"><title>Node1&#45;&gt;Node5</title>
<path fill="none" stroke="midnightblue" d="M127.485,-67.052C148.764,-58.4233 174.534,-48.3064 198,-40 207.602,-36.6011 217.934,-33.1918 227.88,-30.0319"/>
<polygon fill="midnightblue" stroke="midnightblue" points="125.987,-63.883 118.049,-70.9001 128.631,-70.3648 125.987,-63.883"/>
</g>
<!-- Node2&#45;&gt;Node3 -->
<g id="edge2" class="edge"><title>Node2&#45;&gt;Node3</title>
<path fill="none" stroke="midnightblue" d="M369.702,-141.931C378.592,-140.934 387.573,-139.926 396.35,-138.94"/>
<polygon fill="midnightblue" stroke="midnightblue" points="369.268,-138.458 359.721,-143.052 370.049,-145.414 369.268,-138.458"/>
</g>
</g>
</svg>
