<?xml version="1.0" encoding="UTF-8" standalone="no"?>
<!DOCTYPE svg PUBLIC "-//W3C//DTD SVG 1.1//EN"
 "http://www.w3.org/Graphics/SVG/1.1/DTD/svg11.dtd">
<!-- Generated by graphviz version 2.36.0 (20140111.2315)
 -->
<!-- Title: authoring_environment.RangeGrid.rangeSelectedList Pages: 1 -->
<svg width="770pt" height="87pt"
 viewBox="0.00 0.00 770.00 87.00" xmlns="http://www.w3.org/2000/svg" xmlns:xlink="http://www.w3.org/1999/xlink">
<g id="graph0" class="graph" transform="scale(1 1) rotate(0) translate(4 83)">
<title>authoring_environment.RangeGrid.rangeSelectedList</title>
<polygon fill="white" stroke="none" points="-4,4 -4,-83 766,-83 766,4 -4,4"/>
<!-- Node1 -->
<g id="node1" class="node"><title>Node1</title>
<polygon fill="#bfbfbf" stroke="black" points="0.5,-24 0.5,-54 161.5,-54 161.5,-24 0.5,-24"/>
<text text-anchor="start" x="8.5" y="-42" font-family="Helvetica,sans-Serif" font-size="10.00">authoring_environment.Range</text>
<text text-anchor="middle" x="81" y="-31" font-family="Helvetica,sans-Serif" font-size="10.00">Grid.rangeSelectedList</text>
</g>
<!-- Node2 -->
<g id="node2" class="node"><title>Node2</title>
<g id="a_node2"><a xlink:href="../../d5/df6/classauthoring__environment_1_1_range_grid_view.html#abb88e480de6be8db723c9a30874e857d" target="_top" xlink:title="authoring_environment.Range\lGridView.returnSelectedList">
<polygon fill="white" stroke="black" points="198.5,-24 198.5,-54 359.5,-54 359.5,-24 198.5,-24"/>
<text text-anchor="start" x="206.5" y="-42" font-family="Helvetica,sans-Serif" font-size="10.00">authoring_environment.Range</text>
<text text-anchor="middle" x="279" y="-31" font-family="Helvetica,sans-Serif" font-size="10.00">GridView.returnSelectedList</text>
</a>
</g>
</g>
<!-- Node1&#45;&gt;Node2 -->
<g id="edge1" class="edge"><title>Node1&#45;&gt;Node2</title>
<path fill="none" stroke="midnightblue" d="M171.989,-39C180.785,-39 189.667,-39 198.35,-39"/>
<polygon fill="midnightblue" stroke="midnightblue" points="171.721,-35.5001 161.721,-39 171.721,-42.5001 171.721,-35.5001"/>
</g>
<!-- Node3 -->
<g id="node3" class="node"><title>Node3</title>
<g id="a_node3"><a xlink:href="../../d6/d17/classauthoring_1_1concretefeatures_1_1_range_editor.html#a8fce9ab5a871769da6f36c3df0b8991b" target="_top" xlink:title="authoring.concretefeatures.\lRangeEditor.initialize">
<polygon fill="white" stroke="black" points="411,-49 411,-79 561,-79 561,-49 411,-49"/>
<text text-anchor="start" x="419" y="-67" font-family="Helvetica,sans-Serif" font-size="10.00">authoring.concretefeatures.</text>
<text text-anchor="middle" x="486" y="-56" font-family="Helvetica,sans-Serif" font-size="10.00">RangeEditor.initialize</text>
</a>
</g>
</g>
<!-- Node2&#45;&gt;Node3 -->
<g id="edge2" class="edge"><title>Node2&#45;&gt;Node3</title>
<path fill="none" stroke="midnightblue" d="M369.529,-49.9182C383.329,-51.6011 397.447,-53.3229 410.862,-54.9588"/>
<polygon fill="midnightblue" stroke="midnightblue" points="369.902,-46.4378 359.552,-48.7014 369.055,-53.3863 369.902,-46.4378"/>
</g>
<!-- Node5 -->
<g id="node5" class="node"><title>Node5</title>
<g id="a_node5"><a xlink:href="../../dd/de3/classauthoring_1_1concretefeatures_1_1_range_editor_1_1_select_handler.html#acf2dc5425ba80cff4d5c5b35d1d22ae9" target="_top" xlink:title="authoring.concretefeatures.\lRangeEditor.SelectHandler.handle">
<polygon fill="white" stroke="black" points="396.5,-0 396.5,-30 575.5,-30 575.5,-0 396.5,-0"/>
<text text-anchor="start" x="404.5" y="-18" font-family="Helvetica,sans-Serif" font-size="10.00">authoring.concretefeatures.</text>
<text text-anchor="middle" x="486" y="-7" font-family="Helvetica,sans-Serif" font-size="10.00">RangeEditor.SelectHandler.handle</text>
</a>
</g>
</g>
<!-- Node2&#45;&gt;Node5 -->
<g id="edge4" class="edge"><title>Node2&#45;&gt;Node5</title>
<path fill="none" stroke="midnightblue" d="M369.516,-28.5201C378.404,-27.4796 387.424,-26.4235 396.304,-25.384"/>
<polygon fill="midnightblue" stroke="midnightblue" points="369.077,-25.0475 359.552,-29.6866 369.891,-32 369.077,-25.0475"/>
</g>
<!-- Node4 -->
<g id="node4" class="node"><title>Node4</title>
<g id="a_node4"><a xlink:href="../../d6/d17/classauthoring_1_1concretefeatures_1_1_range_editor.html#a7190503f2f2f1733838c08a04a4663a9" target="_top" xlink:title="authoring.concretefeatures.\lRangeEditor.RangeEditor">
<polygon fill="white" stroke="black" points="612,-49 612,-79 762,-79 762,-49 612,-49"/>
<text text-anchor="start" x="620" y="-67" font-family="Helvetica,sans-Serif" font-size="10.00">authoring.concretefeatures.</text>
<text text-anchor="middle" x="687" y="-56" font-family="Helvetica,sans-Serif" font-size="10.00">RangeEditor.RangeEditor</text>
</a>
</g>
</g>
<!-- Node3&#45;&gt;Node4 -->
<g id="edge3" class="edge"><title>Node3&#45;&gt;Node4</title>
<path fill="none" stroke="midnightblue" d="M571.309,-64C584.778,-64 598.627,-64 611.838,-64"/>
<polygon fill="midnightblue" stroke="midnightblue" points="571.1,-60.5001 561.1,-64 571.1,-67.5001 571.1,-60.5001"/>
</g>
</g>
</svg>
