<?xml version="1.0" encoding="UTF-8" standalone="no"?>
<!DOCTYPE svg PUBLIC "-//W3C//DTD SVG 1.1//EN"
 "http://www.w3.org/Graphics/SVG/1.1/DTD/svg11.dtd">
<!-- Generated by graphviz version 2.36.0 (20140111.2315)
 -->
<!-- Title: authoring_environment.RangeGrid.swtichHighlight Pages: 1 -->
<svg width="366pt" height="136pt"
 viewBox="0.00 0.00 366.00 136.00" xmlns="http://www.w3.org/2000/svg" xmlns:xlink="http://www.w3.org/1999/xlink">
<g id="graph0" class="graph" transform="scale(1 1) rotate(0) translate(4 132)">
<title>authoring_environment.RangeGrid.swtichHighlight</title>
<polygon fill="white" stroke="none" points="-4,4 -4,-132 362,-132 362,4 -4,4"/>
<!-- Node1 -->
<g id="node1" class="node"><title>Node1</title>
<polygon fill="#bfbfbf" stroke="black" points="0.5,-49 0.5,-79 161.5,-79 161.5,-49 0.5,-49"/>
<text text-anchor="start" x="8.5" y="-67" font-family="Helvetica,sans-Serif" font-size="10.00">authoring_environment.Range</text>
<text text-anchor="middle" x="81" y="-56" font-family="Helvetica,sans-Serif" font-size="10.00">Grid.swtichHighlight</text>
</g>
<!-- Node2 -->
<g id="node2" class="node"><title>Node2</title>
<g id="a_node2"><a xlink:href="../../dc/d5a/classauthoring__environment_1_1_super_tile.html#a2bdd34482002f8adad3de981bbb972b7" target="_top" xlink:title="authoring_environment.Super\lTile.deselectTile">
<polygon fill="white" stroke="black" points="198,-98 198,-128 358,-128 358,-98 198,-98"/>
<text text-anchor="start" x="206" y="-116" font-family="Helvetica,sans-Serif" font-size="10.00">authoring_environment.Super</text>
<text text-anchor="middle" x="278" y="-105" font-family="Helvetica,sans-Serif" font-size="10.00">Tile.deselectTile</text>
</a>
</g>
</g>
<!-- Node1&#45;&gt;Node2 -->
<g id="edge1" class="edge"><title>Node1&#45;&gt;Node2</title>
<path fill="none" stroke="midnightblue" d="M141.832,-79.0346C162.608,-84.2554 186.081,-90.1537 207.567,-95.5526"/>
<polygon fill="midnightblue" stroke="midnightblue" points="206.73,-98.9512 217.282,-97.9938 208.436,-92.1622 206.73,-98.9512"/>
</g>
<!-- Node3 -->
<g id="node3" class="node"><title>Node3</title>
<g id="a_node3"><a xlink:href="../../dc/d5a/classauthoring__environment_1_1_super_tile.html#a10aec0aa5a4569449ea350e2d8168b55" target="_top" xlink:title="authoring_environment.Super\lTile.ifSelected">
<polygon fill="white" stroke="black" points="198,-49 198,-79 358,-79 358,-49 198,-49"/>
<text text-anchor="start" x="206" y="-67" font-family="Helvetica,sans-Serif" font-size="10.00">authoring_environment.Super</text>
<text text-anchor="middle" x="278" y="-56" font-family="Helvetica,sans-Serif" font-size="10.00">Tile.ifSelected</text>
</a>
</g>
</g>
<!-- Node1&#45;&gt;Node3 -->
<g id="edge2" class="edge"><title>Node1&#45;&gt;Node3</title>
<path fill="none" stroke="midnightblue" d="M161.595,-64C170.224,-64 179.047,-64 187.78,-64"/>
<polygon fill="midnightblue" stroke="midnightblue" points="187.975,-67.5001 197.975,-64 187.975,-60.5001 187.975,-67.5001"/>
</g>
<!-- Node4 -->
<g id="node4" class="node"><title>Node4</title>
<g id="a_node4"><a xlink:href="../../dc/d5a/classauthoring__environment_1_1_super_tile.html#a2a827578368c687de4550af01702bced" target="_top" xlink:title="authoring_environment.Super\lTile.selectTile">
<polygon fill="white" stroke="black" points="198,-0 198,-30 358,-30 358,-0 198,-0"/>
<text text-anchor="start" x="206" y="-18" font-family="Helvetica,sans-Serif" font-size="10.00">authoring_environment.Super</text>
<text text-anchor="middle" x="278" y="-7" font-family="Helvetica,sans-Serif" font-size="10.00">Tile.selectTile</text>
</a>
</g>
</g>
<!-- Node1&#45;&gt;Node4 -->
<g id="edge3" class="edge"><title>Node1&#45;&gt;Node4</title>
<path fill="none" stroke="midnightblue" d="M141.832,-48.9654C162.608,-43.7446 186.081,-37.8463 207.567,-32.4474"/>
<polygon fill="midnightblue" stroke="midnightblue" points="208.436,-35.8378 217.282,-30.0062 206.73,-29.0488 208.436,-35.8378"/>
</g>
</g>
</svg>
