<?xml version="1.0" encoding="UTF-8" standalone="no"?>
<!DOCTYPE svg PUBLIC "-//W3C//DTD SVG 1.1//EN"
 "http://www.w3.org/Graphics/SVG/1.1/DTD/svg11.dtd">
<!-- Generated by graphviz version 2.36.0 (20140111.2315)
 -->
<!-- Title: fxml_main.AuthoringController.saveGame Pages: 1 -->
<svg width="686pt" height="175pt"
 viewBox="0.00 0.00 686.00 175.00" xmlns="http://www.w3.org/2000/svg" xmlns:xlink="http://www.w3.org/1999/xlink">
<g id="graph0" class="graph" transform="scale(1 1) rotate(0) translate(4 171)">
<title>fxml_main.AuthoringController.saveGame</title>
<polygon fill="white" stroke="none" points="-4,4 -4,-171 682,-171 682,4 -4,4"/>
<!-- Node1 -->
<g id="node1" class="node"><title>Node1</title>
<polygon fill="#bfbfbf" stroke="black" points="0,-51.5 0,-70.5 216,-70.5 216,-51.5 0,-51.5"/>
<text text-anchor="middle" x="108" y="-58.5" font-family="Helvetica,sans-Serif" font-size="10.00">fxml_main.AuthoringController.saveGame</text>
</g>
<!-- Node2 -->
<g id="node2" class="node"><title>Node2</title>
<g id="a_node2"><a xlink:href="../../d5/d1d/classauthoring_1_1data_1_1_game_authoring_data.html#a21045a0883cd8dbd1fb0b4328ba73cad" target="_top" xlink:title="authoring.data.GameAuthoring\lData.createGame">
<polygon fill="white" stroke="black" points="263,-71 263,-101 429,-101 429,-71 263,-71"/>
<text text-anchor="start" x="271" y="-89" font-family="Helvetica,sans-Serif" font-size="10.00">authoring.data.GameAuthoring</text>
<text text-anchor="middle" x="346" y="-78" font-family="Helvetica,sans-Serif" font-size="10.00">Data.createGame</text>
</a>
</g>
</g>
<!-- Node1&#45;&gt;Node2 -->
<g id="edge1" class="edge"><title>Node1&#45;&gt;Node2</title>
<path fill="none" stroke="midnightblue" d="M198.895,-70.5227C216.426,-72.3799 234.836,-74.3301 252.452,-76.1961"/>
<polygon fill="midnightblue" stroke="midnightblue" points="252.406,-79.7108 262.719,-77.2838 253.143,-72.7497 252.406,-79.7108"/>
</g>
<!-- Node7 -->
<g id="node7" class="node"><title>Node7</title>
<g id="a_node7"><a xlink:href="../../d0/dbd/classgamedata_1_1_j_s_o_n_1_1_j_s_o_n_manager.html#af9ee30f2c59580f457cb066bf835d481" target="_top" xlink:title="gamedata.JSON.JSONManager.write\lToJSON">
<polygon fill="white" stroke="black" points="252.5,-22 252.5,-52 439.5,-52 439.5,-22 252.5,-22"/>
<text text-anchor="start" x="260.5" y="-40" font-family="Helvetica,sans-Serif" font-size="10.00">gamedata.JSON.JSONManager.write</text>
<text text-anchor="middle" x="346" y="-29" font-family="Helvetica,sans-Serif" font-size="10.00">ToJSON</text>
</a>
</g>
</g>
<!-- Node1&#45;&gt;Node7 -->
<g id="edge6" class="edge"><title>Node1&#45;&gt;Node7</title>
<path fill="none" stroke="midnightblue" d="M202.612,-51.4801C215.636,-50.1556 229.075,-48.789 242.255,-47.4487"/>
<polygon fill="midnightblue" stroke="midnightblue" points="242.678,-50.9238 252.272,-46.4299 241.97,-43.9597 242.678,-50.9238"/>
</g>
<!-- Node3 -->
<g id="node3" class="node"><title>Node3</title>
<g id="a_node3"><a xlink:href="../../d2/d99/classgamedata_1_1gamecomponents_1_1_game.html#ab77c298a59d70f94282359bb53e8bc29" target="_top" xlink:title="gamedata.gamecomponents.\lGame.addPlayers">
<polygon fill="white" stroke="black" points="497,-137 497,-167 657,-167 657,-137 497,-137"/>
<text text-anchor="start" x="505" y="-155" font-family="Helvetica,sans-Serif" font-size="10.00">gamedata.gamecomponents.</text>
<text text-anchor="middle" x="577" y="-144" font-family="Helvetica,sans-Serif" font-size="10.00">Game.addPlayers</text>
</a>
</g>
</g>
<!-- Node2&#45;&gt;Node3 -->
<g id="edge2" class="edge"><title>Node2&#45;&gt;Node3</title>
<path fill="none" stroke="midnightblue" d="M391.864,-101.022C416.573,-109.102 447.853,-119.017 476,-127 484.944,-129.537 494.377,-132.074 503.731,-134.506"/>
<polygon fill="midnightblue" stroke="midnightblue" points="502.871,-137.898 513.427,-136.998 504.614,-131.119 502.871,-137.898"/>
</g>
<!-- Node4 -->
<g id="node4" class="node"><title>Node4</title>
<g id="a_node4"><a xlink:href="../../d7/d88/classauthoring_1_1data_1_1_level_data.html#ac3a2c600f5a4bc914b1f11abff1593a0" target="_top" xlink:title="authoring.data.LevelData.createGame">
<polygon fill="white" stroke="black" points="476.5,-98.5 476.5,-117.5 677.5,-117.5 677.5,-98.5 476.5,-98.5"/>
<text text-anchor="middle" x="577" y="-105.5" font-family="Helvetica,sans-Serif" font-size="10.00">authoring.data.LevelData.createGame</text>
</a>
</g>
</g>
<!-- Node2&#45;&gt;Node4 -->
<g id="edge3" class="edge"><title>Node2&#45;&gt;Node4</title>
<path fill="none" stroke="midnightblue" d="M429.027,-93.8804C441.281,-95.0575 454.075,-96.2867 466.782,-97.5075"/>
<polygon fill="midnightblue" stroke="midnightblue" points="466.654,-101.011 476.942,-98.4836 467.323,-94.0432 466.654,-101.011"/>
</g>
<!-- Node5 -->
<g id="node5" class="node"><title>Node5</title>
<g id="a_node5"><a xlink:href="../../d2/dcf/classauthoring_1_1data_1_1_game_properties_data.html#a7777e71c08ad7a58acccc884a00a95f5" target="_top" xlink:title="authoring.data.GameProperties\lData.getNumPlayers">
<polygon fill="white" stroke="black" points="493,-49 493,-79 661,-79 661,-49 493,-49"/>
<text text-anchor="start" x="501" y="-67" font-family="Helvetica,sans-Serif" font-size="10.00">authoring.data.GameProperties</text>
<text text-anchor="middle" x="577" y="-56" font-family="Helvetica,sans-Serif" font-size="10.00">Data.getNumPlayers</text>
</a>
</g>
</g>
<!-- Node2&#45;&gt;Node5 -->
<g id="edge4" class="edge"><title>Node2&#45;&gt;Node5</title>
<path fill="none" stroke="midnightblue" d="M429.027,-78.1196C446.3,-76.4603 464.647,-74.6976 482.311,-73.0007"/>
<polygon fill="midnightblue" stroke="midnightblue" points="482.999,-76.4508 492.618,-72.0105 482.33,-69.4829 482.999,-76.4508"/>
</g>
<!-- Node6 -->
<g id="node6" class="node"><title>Node6</title>
<g id="a_node6"><a xlink:href="../../d6/dfb/classauthoring_1_1data_1_1_player_stat_data.html#ae131cfcfa946370bc1c32b6ed17c725f" target="_top" xlink:title="authoring.data.PlayerStat\lData.makePlayers">
<polygon fill="white" stroke="black" points="507,-0 507,-30 647,-30 647,-0 507,-0"/>
<text text-anchor="start" x="515" y="-18" font-family="Helvetica,sans-Serif" font-size="10.00">authoring.data.PlayerStat</text>
<text text-anchor="middle" x="577" y="-7" font-family="Helvetica,sans-Serif" font-size="10.00">Data.makePlayers</text>
</a>
</g>
</g>
<!-- Node2&#45;&gt;Node6 -->
<g id="edge5" class="edge"><title>Node2&#45;&gt;Node6</title>
<path fill="none" stroke="midnightblue" d="M411.782,-70.9704C421.383,-68.0602 431.051,-64.7346 440,-61 457.094,-53.8663 458.843,-46.9828 476,-40 482.723,-37.2636 489.827,-34.7667 497.021,-32.5022"/>
<polygon fill="midnightblue" stroke="midnightblue" points="498.283,-35.7778 506.86,-29.5574 496.276,-29.0717 498.283,-35.7778"/>
</g>
</g>
</svg>
