<?xml version="1.0" encoding="UTF-8" standalone="no"?>
<!DOCTYPE svg PUBLIC "-//W3C//DTD SVG 1.1//EN"
 "http://www.w3.org/Graphics/SVG/1.1/DTD/svg11.dtd">
<!-- Generated by graphviz version 2.36.0 (20140111.2315)
 -->
<!-- Title: authoring.createedit.ActionCreator Pages: 1 -->
<!--zoomable 328 -->
<svg id="main" version="1.1" xmlns="http://www.w3.org/2000/svg" xmlns:xlink="http://www.w3.org/1999/xlink" xml:space="preserve" onload="init(evt)">
<style type="text/css"><![CDATA[
.edge:hover path { stroke: red; }
.edge:hover polygon { stroke: red; fill: red; }
]]></style>
<script type="text/javascript"><![CDATA[
var edges = document.getElementsByTagName('g');
if (edges && edges.length) {
  for (var i=0;i<edges.length;i++) {
    if (edges[i].id.substr(0,4)=='edge') {
      edges[i].setAttribute('class','edge');
    }
  }
}
]]></script>
        <defs>
                <circle id="rim" cx="0" cy="0" r="7"/>
                <circle id="rim2" cx="0" cy="0" r="3.5"/>
                <g id="zoomPlus">
                        <use xlink:href="#rim" fill="#404040">
                                <set attributeName="fill" to="#808080" begin="zoomplus.mouseover" end="zoomplus.mouseout"/>
                        </use>
                        <path d="M-4,0h8M0,-4v8" fill="none" stroke="white" stroke-width="1.5" pointer-events="none"/>
                </g>
                <g id="zoomMin">
                        <use xlink:href="#rim" fill="#404040">
                                <set attributeName="fill" to="#808080" begin="zoomminus.mouseover" end="zoomminus.mouseout"/>
                        </use>
                        <path d="M-4,0h8" fill="none" stroke="white" stroke-width="1.5" pointer-events="none"/>
                </g>
                <g id="dirArrow">
                        <path fill="none" stroke="white" stroke-width="1.5" d="M0,-3.0v7 M-2.5,-0.5L0,-3.0L2.5,-0.5"/>
                </g>
               <g id="resetDef">
                       <use xlink:href="#rim2" fill="#404040">
                               <set attributeName="fill" to="#808080" begin="reset.mouseover" end="reset.mouseout"/>
                       </use>
               </g>
        </defs>

<script type="text/javascript">
var viewWidth = 716;
var viewHeight = 328;
var sectionId = 'dynsection-1';
</script>
<script xlink:href="../../svgpan.js"/>
<svg id="graph" class="graph">
<g id="viewport">
<title>authoring.createedit.ActionCreator</title>
<polygon fill="white" stroke="none" points="-4,4 -4,-324 712,-324 712,4 -4,4"/>
<!-- Node1 -->
<g id="node1" class="node"><title>Node1</title>
<polygon fill="#bfbfbf" stroke="black" points="560.5,-139 560.5,-169 707.5,-169 707.5,-139 560.5,-139"/>
<text text-anchor="start" x="568.5" y="-157" font-family="Helvetica,sans-Serif" font-size="10.00">authoring.createedit.Action</text>
<text text-anchor="middle" x="634" y="-146" font-family="Helvetica,sans-Serif" font-size="10.00">Creator</text>
</g>
<!-- Node2 -->
<g id="node2" class="node"><title>Node2</title>
<g id="a_node2"><a xlink:href="../../d4/d2e/classauthoring_1_1abstractfeatures_1_1_popup_window.html" target="_top" xlink:title="authoring.abstractfeatures.\lPopupWindow">
<polygon fill="white" stroke="black" points="278,-290 278,-320 426,-320 426,-290 278,-290"/>
<text text-anchor="start" x="286" y="-308" font-family="Helvetica,sans-Serif" font-size="10.00">authoring.abstractfeatures.</text>
<text text-anchor="middle" x="352" y="-297" font-family="Helvetica,sans-Serif" font-size="10.00">PopupWindow</text>
</a>
</g>
</g>
<!-- Node2&#45;&gt;Node1 -->
<g id="edge1" class="edge"><title>Node2&#45;&gt;Node1</title>
<path fill="none" stroke="midnightblue" d="M436.433,-292.006C470.894,-284.073 510.144,-271.547 542,-252 577.621,-230.143 608.139,-190.573 623.12,-169.004"/>
<polygon fill="midnightblue" stroke="midnightblue" points="435.391,-288.652 426.379,-294.224 436.899,-295.488 435.391,-288.652"/>
</g>
<!-- Node3 -->
<g id="node3" class="node"><title>Node3</title>
<polygon fill="white" stroke="#bfbfbf" points="62.5,-295.5 62.5,-314.5 107.5,-314.5 107.5,-295.5 62.5,-295.5"/>
<text text-anchor="middle" x="85" y="-302.5" font-family="Helvetica,sans-Serif" font-size="10.00">Stage</text>
</g>
<!-- Node3&#45;&gt;Node2 -->
<g id="edge2" class="edge"><title>Node3&#45;&gt;Node2</title>
<path fill="none" stroke="midnightblue" d="M117.733,-305C157.032,-305 225.208,-305 277.741,-305"/>
<polygon fill="midnightblue" stroke="midnightblue" points="117.686,-301.5 107.686,-305 117.686,-308.5 117.686,-301.5"/>
</g>
<!-- Node4 -->
<g id="node4" class="node"><title>Node4</title>
<polygon fill="white" stroke="#bfbfbf" points="273,-241 273,-271 431,-271 431,-241 273,-241"/>
<text text-anchor="start" x="281" y="-259" font-family="Helvetica,sans-Serif" font-size="10.00">List&lt; gamedata.action.Single</text>
<text text-anchor="middle" x="352" y="-248" font-family="Helvetica,sans-Serif" font-size="10.00">MultiplierBox &gt;</text>
</g>
<!-- Node4&#45;&gt;Node1 -->
<g id="edge3" class="edge"><title>Node4&#45;&gt;Node1</title>
<path fill="none" stroke="#9a32cd" stroke-dasharray="5,2" d="M441.121,-241.933C473.594,-235.089 510.197,-225.374 542,-212 568.423,-200.888 595.767,-182.341 613.493,-169.216"/>
<polygon fill="#9a32cd" stroke="#9a32cd" points="440.281,-238.532 431.186,-243.965 441.684,-245.39 440.281,-238.532"/>
<text text-anchor="middle" x="502" y="-240" font-family="Helvetica,sans-Serif" font-size="10.00"> operationsList</text>
</g>
<!-- Node5 -->
<g id="node5" class="node"><title>Node5</title>
<g id="a_node5"><a xlink:href="../../d8/d47/interfacegamedata_1_1action_1_1_action_conclusion.html" target="_top" xlink:title="gamedata.action.ActionConclusion">
<polygon fill="white" stroke="black" points="260.5,-202.5 260.5,-221.5 443.5,-221.5 443.5,-202.5 260.5,-202.5"/>
<text text-anchor="middle" x="352" y="-209.5" font-family="Helvetica,sans-Serif" font-size="10.00">gamedata.action.ActionConclusion</text>
</a>
</g>
</g>
<!-- Node5&#45;&gt;Node1 -->
<g id="edge4" class="edge"><title>Node5&#45;&gt;Node1</title>
<path fill="none" stroke="#9a32cd" stroke-dasharray="5,2" d="M434.518,-200.926C468.004,-195.782 507.049,-189.018 542,-181 556.617,-177.647 572.34,-173.266 586.537,-169.012"/>
<polygon fill="#9a32cd" stroke="#9a32cd" points="433.678,-197.513 424.315,-202.469 434.726,-204.434 433.678,-197.513"/>
<text text-anchor="middle" x="502" y="-200" font-family="Helvetica,sans-Serif" font-size="10.00"> myConclusion</text>
</g>
<!-- Node6 -->
<g id="node6" class="node"><title>Node6</title>
<g id="a_node6"><a xlink:href="../../d2/da6/classauthoring_1_1data_1_1_action_data.html" target="_top" xlink:title="authoring.data.ActionData">
<polygon fill="white" stroke="black" points="280.5,-164.5 280.5,-183.5 423.5,-183.5 423.5,-164.5 280.5,-164.5"/>
<text text-anchor="middle" x="352" y="-171.5" font-family="Helvetica,sans-Serif" font-size="10.00">authoring.data.ActionData</text>
</a>
</g>
</g>
<!-- Node6&#45;&gt;Node1 -->
<g id="edge5" class="edge"><title>Node6&#45;&gt;Node1</title>
<path fill="none" stroke="#9a32cd" stroke-dasharray="5,2" d="M433.644,-168.24C473.643,-165.383 521.576,-161.959 560.415,-159.185"/>
<polygon fill="#9a32cd" stroke="#9a32cd" points="433.381,-164.749 423.656,-168.953 433.88,-171.732 433.381,-164.749"/>
<text text-anchor="middle" x="502" y="-169" font-family="Helvetica,sans-Serif" font-size="10.00"> myActionData</text>
</g>
<!-- Node7 -->
<g id="node7" class="node"><title>Node7</title>
<g id="a_node7"><a xlink:href="../../d5/d29/interfaceauthoring_1_1data_1_1_authoring_data.html" target="_top" xlink:title="authoring.data.Authoring\lData\&lt; Action \&gt;">
<polygon fill="white" stroke="black" points="16.5,-181 16.5,-211 153.5,-211 153.5,-181 16.5,-181"/>
<text text-anchor="start" x="24.5" y="-199" font-family="Helvetica,sans-Serif" font-size="10.00">authoring.data.Authoring</text>
<text text-anchor="middle" x="85" y="-188" font-family="Helvetica,sans-Serif" font-size="10.00">Data&lt; Action &gt;</text>
</a>
</g>
</g>
<!-- Node7&#45;&gt;Node6 -->
<g id="edge6" class="edge"><title>Node7&#45;&gt;Node6</title>
<path fill="none" stroke="midnightblue" d="M163.765,-189.544C200.648,-186.482 244.396,-182.85 280.326,-179.867"/>
<polygon fill="midnightblue" stroke="midnightblue" points="163.232,-186.076 153.556,-190.392 163.812,-193.052 163.232,-186.076"/>
</g>
<!-- Node8 -->
<g id="node8" class="node"><title>Node8</title>
<polygon fill="white" stroke="#bfbfbf" points="0,-142.5 0,-161.5 170,-161.5 170,-142.5 0,-142.5"/>
<text text-anchor="middle" x="85" y="-149.5" font-family="Helvetica,sans-Serif" font-size="10.00">List&lt; gamedata.action.Action &gt;</text>
</g>
<!-- Node8&#45;&gt;Node6 -->
<g id="edge7" class="edge"><title>Node8&#45;&gt;Node6</title>
<path fill="none" stroke="#9a32cd" stroke-dasharray="5,2" d="M180.317,-159.83C213.266,-162.566 249.66,-165.587 280.348,-168.135"/>
<polygon fill="#9a32cd" stroke="#9a32cd" points="180.467,-156.331 170.212,-158.991 179.888,-163.307 180.467,-156.331"/>
<text text-anchor="middle" x="215" y="-168" font-family="Helvetica,sans-Serif" font-size="10.00"> myActions</text>
</g>
<!-- Node9 -->
<g id="node9" class="node"><title>Node9</title>
<polygon fill="white" stroke="#bfbfbf" points="311.5,-126.5 311.5,-145.5 392.5,-145.5 392.5,-126.5 311.5,-126.5"/>
<text text-anchor="middle" x="352" y="-133.5" font-family="Helvetica,sans-Serif" font-size="10.00">List&lt; Class &gt;</text>
</g>
<!-- Node9&#45;&gt;Node1 -->
<g id="edge8" class="edge"><title>Node9&#45;&gt;Node1</title>
<path fill="none" stroke="#9a32cd" stroke-dasharray="5,2" d="M402.875,-134.791C441.043,-134.35 494.945,-134.772 542,-139 547.901,-139.53 553.996,-140.221 560.108,-141.014"/>
<polygon fill="#9a32cd" stroke="#9a32cd" points="402.496,-131.296 392.546,-134.936 402.594,-138.296 402.496,-131.296"/>
<text text-anchor="middle" x="502" y="-142" font-family="Helvetica,sans-Serif" font-size="10.00"> conclusionsList</text>
</g>
<!-- Node10 -->
<g id="node10" class="node"><title>Node10</title>
<polygon fill="white" stroke="#bfbfbf" points="329.5,-88.5 329.5,-107.5 374.5,-107.5 374.5,-88.5 329.5,-88.5"/>
<text text-anchor="middle" x="352" y="-95.5" font-family="Helvetica,sans-Serif" font-size="10.00">Insets</text>
</g>
<!-- Node10&#45;&gt;Node1 -->
<g id="edge9" class="edge"><title>Node10&#45;&gt;Node1</title>
<path fill="none" stroke="#9a32cd" stroke-dasharray="5,2" d="M384.935,-99.6737C422.831,-102.166 487.72,-108.033 542,-121 560.634,-125.451 580.717,-132.482 597.265,-138.913"/>
<polygon fill="#9a32cd" stroke="#9a32cd" points="384.735,-96.1548 374.538,-99.0308 384.303,-103.141 384.735,-96.1548"/>
<text text-anchor="middle" x="502" y="-124" font-family="Helvetica,sans-Serif" font-size="10.00"> MARGINS</text>
</g>
<!-- Node11 -->
<g id="node11" class="node"><title>Node11</title>
<polygon fill="white" stroke="#bfbfbf" points="274.5,-39 274.5,-69 429.5,-69 429.5,-39 274.5,-39"/>
<text text-anchor="start" x="282.5" y="-57" font-family="Helvetica,sans-Serif" font-size="10.00">List&lt; gamedata.action.Stats</text>
<text text-anchor="middle" x="352" y="-46" font-family="Helvetica,sans-Serif" font-size="10.00">TotalLogic &gt;</text>
</g>
<!-- Node11&#45;&gt;Node1 -->
<g id="edge10" class="edge"><title>Node11&#45;&gt;Node1</title>
<path fill="none" stroke="#9a32cd" stroke-dasharray="5,2" d="M439.574,-64.6337C472.492,-70.5266 509.799,-79.4987 542,-93 569.538,-104.546 597.526,-124.873 615.054,-138.868"/>
<polygon fill="#9a32cd" stroke="#9a32cd" points="439.958,-61.1485 429.51,-62.9021 438.771,-68.0471 439.958,-61.1485"/>
<text text-anchor="middle" x="502" y="-96" font-family="Helvetica,sans-Serif" font-size="10.00"> myStatsLogics</text>
</g>
<!-- Node12 -->
<g id="node12" class="node"><title>Node12</title>
<polygon fill="white" stroke="#bfbfbf" points="305.5,-0.5 305.5,-19.5 398.5,-19.5 398.5,-0.5 305.5,-0.5"/>
<text text-anchor="middle" x="352" y="-7.5" font-family="Helvetica,sans-Serif" font-size="10.00">List&lt; Point2D &gt;</text>
</g>
<!-- Node12&#45;&gt;Node1 -->
<g id="edge11" class="edge"><title>Node12&#45;&gt;Node1</title>
<path fill="none" stroke="#9a32cd" stroke-dasharray="5,2" d="M408.794,-10.0739C448.39,-12.4065 501.485,-20.3261 542,-44 581.589,-67.1331 611.483,-114.277 625.019,-138.648"/>
<polygon fill="#9a32cd" stroke="#9a32cd" points="408.937,-6.57675 398.778,-9.58502 408.596,-13.5684 408.937,-6.57675"/>
<text text-anchor="middle" x="502" y="-58" font-family="Helvetica,sans-Serif" font-size="10.00"> myAttackRange</text>
<text text-anchor="middle" x="502" y="-47" font-family="Helvetica,sans-Serif" font-size="10.00">myEffectRange</text>
</g>
</g>
</svg>
        <g id="navigator" transform="translate(0 0)" fill="#404254">
                <rect fill="#f2f5e9" fill-opacity="0.5" stroke="#606060" stroke-width=".5" x="0" y="0" width="60" height="60"/>
                <use id="zoomplus" xlink:href="#zoomPlus" x="17" y="9" onmousedown="handleZoom(evt,'in')"/>
                <use id="zoomminus" xlink:href="#zoomMin" x="42" y="9" onmousedown="handleZoom(evt,'out')"/>
                <use id="reset" xlink:href="#resetDef" x="30" y="36" onmousedown="handleReset()"/>
                <g id="arrowUp" xlink:href="#dirArrow" transform="translate(30 24)" onmousedown="handlePan(0,-1)">
                  <use xlink:href="#rim" fill="#404040">
                        <set attributeName="fill" to="#808080" begin="arrowUp.mouseover" end="arrowUp.mouseout"/>
                  </use>
                  <path fill="none" stroke="white" stroke-width="1.5" d="M0,-3.0v7 M-2.5,-0.5L0,-3.0L2.5,-0.5"/>
                </g>
                <g id="arrowRight" xlink:href="#dirArrow" transform="rotate(90) translate(36 -43)" onmousedown="handlePan(1,0)">
                  <use xlink:href="#rim" fill="#404040">
                        <set attributeName="fill" to="#808080" begin="arrowRight.mouseover" end="arrowRight.mouseout"/>
                  </use>
                  <path fill="none" stroke="white" stroke-width="1.5" d="M0,-3.0v7 M-2.5,-0.5L0,-3.0L2.5,-0.5"/>
                </g>
                <g id="arrowDown" xlink:href="#dirArrow" transform="rotate(180) translate(-30 -48)" onmousedown="handlePan(0,1)">
                  <use xlink:href="#rim" fill="#404040">
                        <set attributeName="fill" to="#808080" begin="arrowDown.mouseover" end="arrowDown.mouseout"/>
                  </use>
                  <path fill="none" stroke="white" stroke-width="1.5" d="M0,-3.0v7 M-2.5,-0.5L0,-3.0L2.5,-0.5"/>
                </g>
                <g id="arrowLeft" xlink:href="#dirArrow" transform="rotate(270) translate(-36 17)" onmousedown="handlePan(-1,0)">
                  <use xlink:href="#rim" fill="#404040">
                        <set attributeName="fill" to="#808080" begin="arrowLeft.mouseover" end="arrowLeft.mouseout"/>
                  </use>
                  <path fill="none" stroke="white" stroke-width="1.5" d="M0,-3.0v7 M-2.5,-0.5L0,-3.0L2.5,-0.5"/>
                </g>
        </g>
        <svg viewBox="0 0 15 15" width="100%" height="30px" preserveAspectRatio="xMaxYMin meet">
         <g id="arrow_out" transform="scale(0.3 0.3)">
          <a xlink:href="classauthoring_1_1createedit_1_1_action_creator__coll__graph_org.svg" target="_base">
           <rect id="button" ry="5" rx="5" y="6" x="6" height="38" width="38"
                fill="#f2f5e9" fill-opacity="0.5" stroke="#606060" stroke-width="1.0"/>
           <path id="arrow"
             d="M 11.500037,31.436501 C 11.940474,20.09759 22.043105,11.32322 32.158766,21.979434 L 37.068811,17.246167 C 37.068811,17.246167 37.088388,32 37.088388,32 L 22.160133,31.978069 C 22.160133,31.978069 26.997745,27.140456 26.997745,27.140456 C 18.528582,18.264221 13.291696,25.230495 11.500037,31.436501 z"
             style="fill:#404040;"/>
          </a>
         </g>
        </svg>
</svg>
