<?xml version="1.0" encoding="UTF-8" standalone="no"?>
<!DOCTYPE svg PUBLIC "-//W3C//DTD SVG 1.1//EN"
 "http://www.w3.org/Graphics/SVG/1.1/DTD/svg11.dtd">
<!-- Generated by graphviz version 2.36.0 (20140111.2315)
 -->
<!-- Title: authoring.concretefeatures.StatsCreatorBox.getStatName Pages: 1 -->
<!--zoomable 87 -->
<svg id="main" version="1.1" xmlns="http://www.w3.org/2000/svg" xmlns:xlink="http://www.w3.org/1999/xlink" xml:space="preserve" onload="init(evt)">
<style type="text/css"><![CDATA[
.edge:hover path { stroke: red; }
.edge:hover polygon { stroke: red; fill: red; }
]]></style>
<script type="text/javascript"><![CDATA[
var edges = document.getElementsByTagName('g');
if (edges && edges.length) {
  for (var i=0;i<edges.length;i++) {
    if (edges[i].id.substr(0,4)=='edge') {
      edges[i].setAttribute('class','edge');
    }
  }
}
]]></script>
        <defs>
                <circle id="rim" cx="0" cy="0" r="7"/>
                <circle id="rim2" cx="0" cy="0" r="3.5"/>
                <g id="zoomPlus">
                        <use xlink:href="#rim" fill="#404040">
                                <set attributeName="fill" to="#808080" begin="zoomplus.mouseover" end="zoomplus.mouseout"/>
                        </use>
                        <path d="M-4,0h8M0,-4v8" fill="none" stroke="white" stroke-width="1.5" pointer-events="none"/>
                </g>
                <g id="zoomMin">
                        <use xlink:href="#rim" fill="#404040">
                                <set attributeName="fill" to="#808080" begin="zoomminus.mouseover" end="zoomminus.mouseout"/>
                        </use>
                        <path d="M-4,0h8" fill="none" stroke="white" stroke-width="1.5" pointer-events="none"/>
                </g>
                <g id="dirArrow">
                        <path fill="none" stroke="white" stroke-width="1.5" d="M0,-3.0v7 M-2.5,-0.5L0,-3.0L2.5,-0.5"/>
                </g>
               <g id="resetDef">
                       <use xlink:href="#rim2" fill="#404040">
                               <set attributeName="fill" to="#808080" begin="reset.mouseover" end="reset.mouseout"/>
                       </use>
               </g>
        </defs>

<script type="text/javascript">
var viewWidth = 1432;
var viewHeight = 87;
var sectionId = 'dynsection-4';
</script>
<script xlink:href="../../svgpan.js"/>
<svg id="graph" class="graph">
<g id="viewport">
<title>authoring.concretefeatures.StatsCreatorBox.getStatName</title>
<polygon fill="white" stroke="none" points="-4,4 -4,-83 1428,-83 1428,4 -4,4"/>
<!-- Node1 -->
<g id="node1" class="node"><title>Node1</title>
<polygon fill="#bfbfbf" stroke="black" points="0,-24 0,-54 164,-54 164,-24 0,-24"/>
<text text-anchor="start" x="8" y="-42" font-family="Helvetica,sans-Serif" font-size="10.00">authoring.concretefeatures.</text>
<text text-anchor="middle" x="82" y="-31" font-family="Helvetica,sans-Serif" font-size="10.00">StatsCreatorBox.getStatName</text>
</g>
<!-- Node2 -->
<g id="node2" class="node"><title>Node2</title>
<g id="a_node2"><a xlink:href="../../de/d18/classauthoring_1_1concretefeatures_1_1_stats_total_editor.html#a62b32dc4fbbb29f9c96c441a808d2da9" target="_top" xlink:title="authoring.concretefeatures.\lStatsTotalEditor.makeDeleteButton">
<polygon fill="white" stroke="black" points="200.5,-24 200.5,-54 385.5,-54 385.5,-24 200.5,-24"/>
<text text-anchor="start" x="208.5" y="-42" font-family="Helvetica,sans-Serif" font-size="10.00">authoring.concretefeatures.</text>
<text text-anchor="middle" x="293" y="-31" font-family="Helvetica,sans-Serif" font-size="10.00">StatsTotalEditor.makeDeleteButton</text>
</a>
</g>
</g>
<!-- Node1&#45;&gt;Node2 -->
<g id="edge1" class="edge"><title>Node1&#45;&gt;Node2</title>
<path fill="none" stroke="midnightblue" d="M174.161,-39C182.789,-39 191.54,-39 200.175,-39"/>
<polygon fill="midnightblue" stroke="midnightblue" points="174.104,-35.5001 164.104,-39 174.104,-42.5001 174.104,-35.5001"/>
</g>
<!-- Node3 -->
<g id="node3" class="node"><title>Node3</title>
<g id="a_node3"><a xlink:href="../../de/d18/classauthoring_1_1concretefeatures_1_1_stats_total_editor.html#ab40fcac1825b2f518cedb59c4401f307" target="_top" xlink:title="authoring.concretefeatures.\lStatsTotalEditor.addStatHBox">
<polygon fill="white" stroke="black" points="422,-24 422,-54 580,-54 580,-24 422,-24"/>
<text text-anchor="start" x="430" y="-42" font-family="Helvetica,sans-Serif" font-size="10.00">authoring.concretefeatures.</text>
<text text-anchor="middle" x="501" y="-31" font-family="Helvetica,sans-Serif" font-size="10.00">StatsTotalEditor.addStatHBox</text>
</a>
</g>
</g>
<!-- Node2&#45;&gt;Node3 -->
<g id="edge2" class="edge"><title>Node2&#45;&gt;Node3</title>
<path fill="none" stroke="midnightblue" d="M395.835,-39C404.611,-39 413.397,-39 421.94,-39"/>
<polygon fill="midnightblue" stroke="midnightblue" points="395.554,-35.5001 385.554,-39 395.554,-42.5001 395.554,-35.5001"/>
</g>
<!-- Node4 -->
<g id="node4" class="node"><title>Node4</title>
<g id="a_node4"><a xlink:href="../../de/d18/classauthoring_1_1concretefeatures_1_1_stats_total_editor.html#a79362418822e7a3667b65bb1c150219e" target="_top" xlink:title="authoring.concretefeatures.\lStatsTotalEditor.initStatsCreatorBoxes">
<polygon fill="white" stroke="black" points="616.5,-47 616.5,-77 815.5,-77 815.5,-47 616.5,-47"/>
<text text-anchor="start" x="624.5" y="-65" font-family="Helvetica,sans-Serif" font-size="10.00">authoring.concretefeatures.</text>
<text text-anchor="middle" x="716" y="-54" font-family="Helvetica,sans-Serif" font-size="10.00">StatsTotalEditor.initStatsCreatorBoxes</text>
</a>
</g>
</g>
<!-- Node3&#45;&gt;Node4 -->
<g id="edge3" class="edge"><title>Node3&#45;&gt;Node4</title>
<path fill="none" stroke="midnightblue" d="M590.126,-48.5159C598.739,-49.446 607.519,-50.394 616.228,-51.3345"/>
<polygon fill="midnightblue" stroke="midnightblue" points="590.422,-45.0276 580.104,-47.4338 589.67,-51.9872 590.422,-45.0276"/>
</g>
<!-- Node8 -->
<g id="node8" class="node"><title>Node8</title>
<g id="a_node8"><a xlink:href="../../de/d18/classauthoring_1_1concretefeatures_1_1_stats_total_editor.html#a94c690279b7cabaff06a5facb90ca858" target="_top" xlink:title="authoring.concretefeatures.\lStatsTotalEditor.makeAddButton">
<polygon fill="white" stroke="black" points="856,-0 856,-30 1028,-30 1028,-0 856,-0"/>
<text text-anchor="start" x="864" y="-18" font-family="Helvetica,sans-Serif" font-size="10.00">authoring.concretefeatures.</text>
<text text-anchor="middle" x="942" y="-7" font-family="Helvetica,sans-Serif" font-size="10.00">StatsTotalEditor.makeAddButton</text>
</a>
</g>
</g>
<!-- Node3&#45;&gt;Node8 -->
<g id="edge7" class="edge"><title>Node3&#45;&gt;Node8</title>
<path fill="none" stroke="midnightblue" d="M590.445,-34.1647C667.862,-29.9324 779.594,-23.824 855.978,-19.6482"/>
<polygon fill="midnightblue" stroke="midnightblue" points="590.025,-30.6824 580.231,-34.7231 590.408,-37.6719 590.025,-30.6824"/>
</g>
<!-- Node5 -->
<g id="node5" class="node"><title>Node5</title>
<g id="a_node5"><a xlink:href="../../de/d18/classauthoring_1_1concretefeatures_1_1_stats_total_editor.html#a28790263c93a014c304f1a7b6698f808" target="_top" xlink:title="authoring.concretefeatures.\lStatsTotalEditor.initStatsEditorBox">
<polygon fill="white" stroke="black" points="852.5,-49 852.5,-79 1031.5,-79 1031.5,-49 852.5,-49"/>
<text text-anchor="start" x="860.5" y="-67" font-family="Helvetica,sans-Serif" font-size="10.00">authoring.concretefeatures.</text>
<text text-anchor="middle" x="942" y="-56" font-family="Helvetica,sans-Serif" font-size="10.00">StatsTotalEditor.initStatsEditorBox</text>
</a>
</g>
</g>
<!-- Node4&#45;&gt;Node5 -->
<g id="edge4" class="edge"><title>Node4&#45;&gt;Node5</title>
<path fill="none" stroke="midnightblue" d="M825.626,-62.9699C834.548,-63.0495 843.5,-63.1295 852.253,-63.2076"/>
<polygon fill="midnightblue" stroke="midnightblue" points="825.607,-59.4697 815.576,-62.8801 825.544,-66.4694 825.607,-59.4697"/>
</g>
<!-- Node6 -->
<g id="node6" class="node"><title>Node6</title>
<g id="a_node6"><a xlink:href="../../de/d18/classauthoring_1_1concretefeatures_1_1_stats_total_editor.html#ae8d331fc6214ee5c0e723f00994e406d" target="_top" xlink:title="authoring.concretefeatures.\lStatsTotalEditor.initialize">
<polygon fill="white" stroke="black" points="1068,-24 1068,-54 1218,-54 1218,-24 1068,-24"/>
<text text-anchor="start" x="1076" y="-42" font-family="Helvetica,sans-Serif" font-size="10.00">authoring.concretefeatures.</text>
<text text-anchor="middle" x="1143" y="-31" font-family="Helvetica,sans-Serif" font-size="10.00">StatsTotalEditor.initialize</text>
</a>
</g>
</g>
<!-- Node5&#45;&gt;Node6 -->
<g id="edge5" class="edge"><title>Node5&#45;&gt;Node6</title>
<path fill="none" stroke="midnightblue" d="M1041.91,-51.5739C1050.6,-50.4826 1059.29,-49.3905 1067.73,-48.331"/>
<polygon fill="midnightblue" stroke="midnightblue" points="1041.22,-48.1333 1031.73,-52.8526 1042.09,-55.0788 1041.22,-48.1333"/>
</g>
<!-- Node7 -->
<g id="node7" class="node"><title>Node7</title>
<g id="a_node7"><a xlink:href="../../de/d18/classauthoring_1_1concretefeatures_1_1_stats_total_editor.html#a59acc1bc3e0468ee318581ae239cb204" target="_top" xlink:title="authoring.concretefeatures.\lStatsTotalEditor.StatsTotalEditor">
<polygon fill="white" stroke="black" points="1254.5,-24 1254.5,-54 1423.5,-54 1423.5,-24 1254.5,-24"/>
<text text-anchor="start" x="1262.5" y="-42" font-family="Helvetica,sans-Serif" font-size="10.00">authoring.concretefeatures.</text>
<text text-anchor="middle" x="1339" y="-31" font-family="Helvetica,sans-Serif" font-size="10.00">StatsTotalEditor.StatsTotalEditor</text>
</a>
</g>
</g>
<!-- Node6&#45;&gt;Node7 -->
<g id="edge6" class="edge"><title>Node6&#45;&gt;Node7</title>
<path fill="none" stroke="midnightblue" d="M1228.29,-39C1236.98,-39 1245.8,-39 1254.48,-39"/>
<polygon fill="midnightblue" stroke="midnightblue" points="1228.17,-35.5001 1218.17,-39 1228.17,-42.5001 1228.17,-35.5001"/>
</g>
<!-- Node8&#45;&gt;Node6 -->
<g id="edge8" class="edge"><title>Node8&#45;&gt;Node6</title>
<path fill="none" stroke="midnightblue" d="M1038.2,-26.4813C1048.17,-27.684 1058.2,-28.8938 1067.89,-30.062"/>
<polygon fill="midnightblue" stroke="midnightblue" points="1038.61,-23.0052 1028.26,-25.2826 1037.77,-29.9549 1038.61,-23.0052"/>
</g>
</g>
</svg>
        <g id="navigator" transform="translate(0 0)" fill="#404254">
                <rect fill="#f2f5e9" fill-opacity="0.5" stroke="#606060" stroke-width=".5" x="0" y="0" width="60" height="60"/>
                <use id="zoomplus" xlink:href="#zoomPlus" x="17" y="9" onmousedown="handleZoom(evt,'in')"/>
                <use id="zoomminus" xlink:href="#zoomMin" x="42" y="9" onmousedown="handleZoom(evt,'out')"/>
                <use id="reset" xlink:href="#resetDef" x="30" y="36" onmousedown="handleReset()"/>
                <g id="arrowUp" xlink:href="#dirArrow" transform="translate(30 24)" onmousedown="handlePan(0,-1)">
                  <use xlink:href="#rim" fill="#404040">
                        <set attributeName="fill" to="#808080" begin="arrowUp.mouseover" end="arrowUp.mouseout"/>
                  </use>
                  <path fill="none" stroke="white" stroke-width="1.5" d="M0,-3.0v7 M-2.5,-0.5L0,-3.0L2.5,-0.5"/>
                </g>
                <g id="arrowRight" xlink:href="#dirArrow" transform="rotate(90) translate(36 -43)" onmousedown="handlePan(1,0)">
                  <use xlink:href="#rim" fill="#404040">
                        <set attributeName="fill" to="#808080" begin="arrowRight.mouseover" end="arrowRight.mouseout"/>
                  </use>
                  <path fill="none" stroke="white" stroke-width="1.5" d="M0,-3.0v7 M-2.5,-0.5L0,-3.0L2.5,-0.5"/>
                </g>
                <g id="arrowDown" xlink:href="#dirArrow" transform="rotate(180) translate(-30 -48)" onmousedown="handlePan(0,1)">
                  <use xlink:href="#rim" fill="#404040">
                        <set attributeName="fill" to="#808080" begin="arrowDown.mouseover" end="arrowDown.mouseout"/>
                  </use>
                  <path fill="none" stroke="white" stroke-width="1.5" d="M0,-3.0v7 M-2.5,-0.5L0,-3.0L2.5,-0.5"/>
                </g>
                <g id="arrowLeft" xlink:href="#dirArrow" transform="rotate(270) translate(-36 17)" onmousedown="handlePan(-1,0)">
                  <use xlink:href="#rim" fill="#404040">
                        <set attributeName="fill" to="#808080" begin="arrowLeft.mouseover" end="arrowLeft.mouseout"/>
                  </use>
                  <path fill="none" stroke="white" stroke-width="1.5" d="M0,-3.0v7 M-2.5,-0.5L0,-3.0L2.5,-0.5"/>
                </g>
        </g>
        <svg viewBox="0 0 15 15" width="100%" height="30px" preserveAspectRatio="xMaxYMin meet">
         <g id="arrow_out" transform="scale(0.3 0.3)">
          <a xlink:href="classauthoring_1_1concretefeatures_1_1_stats_creator_box_aab35bf4ad64655cc0ef72ad6334e5086_icgraph_org.svg" target="_base">
           <rect id="button" ry="5" rx="5" y="6" x="6" height="38" width="38"
                fill="#f2f5e9" fill-opacity="0.5" stroke="#606060" stroke-width="1.0"/>
           <path id="arrow"
             d="M 11.500037,31.436501 C 11.940474,20.09759 22.043105,11.32322 32.158766,21.979434 L 37.068811,17.246167 C 37.068811,17.246167 37.088388,32 37.088388,32 L 22.160133,31.978069 C 22.160133,31.978069 26.997745,27.140456 26.997745,27.140456 C 18.528582,18.264221 13.291696,25.230495 11.500037,31.436501 z"
             style="fill:#404040;"/>
          </a>
         </g>
        </svg>
</svg>
