<?xml version="1.0" encoding="UTF-8" standalone="no"?>
<!DOCTYPE svg PUBLIC "-//W3C//DTD SVG 1.1//EN"
 "http://www.w3.org/Graphics/SVG/1.1/DTD/svg11.dtd">
<!-- Generated by graphviz version 2.36.0 (20140111.2315)
 -->
<!-- Title: authoring.data.AuthoringLevel.getId Pages: 1 -->
<svg width="518pt" height="38pt"
 viewBox="0.00 0.00 518.00 38.00" xmlns="http://www.w3.org/2000/svg" xmlns:xlink="http://www.w3.org/1999/xlink">
<g id="graph0" class="graph" transform="scale(1 1) rotate(0) translate(4 34)">
<title>authoring.data.AuthoringLevel.getId</title>
<polygon fill="white" stroke="none" points="-4,4 -4,-34 514,-34 514,4 -4,4"/>
<!-- Node1 -->
<g id="node1" class="node"><title>Node1</title>
<polygon fill="#bfbfbf" stroke="black" points="0.5,-0 0.5,-30 137.5,-30 137.5,-0 0.5,-0"/>
<text text-anchor="start" x="8.5" y="-18" font-family="Helvetica,sans-Serif" font-size="10.00">authoring.data.Authoring</text>
<text text-anchor="middle" x="69" y="-7" font-family="Helvetica,sans-Serif" font-size="10.00">Level.getId</text>
</g>
<!-- Node2 -->
<g id="node2" class="node"><title>Node2</title>
<g id="a_node2"><a xlink:href="../../d6/d9d/classauthoring_1_1concretefeatures_1_1_level_creator.html#aca7f9c7e48481e37ede28392697371d4" target="_top" xlink:title="authoring.concretefeatures.\lLevelCreator.initialize">
<polygon fill="white" stroke="black" points="174,-0 174,-30 324,-30 324,-0 174,-0"/>
<text text-anchor="start" x="182" y="-18" font-family="Helvetica,sans-Serif" font-size="10.00">authoring.concretefeatures.</text>
<text text-anchor="middle" x="249" y="-7" font-family="Helvetica,sans-Serif" font-size="10.00">LevelCreator.initialize</text>
</a>
</g>
</g>
<!-- Node1&#45;&gt;Node2 -->
<g id="edge1" class="edge"><title>Node1&#45;&gt;Node2</title>
<path fill="none" stroke="midnightblue" d="M147.697,-15C156.418,-15 165.286,-15 173.959,-15"/>
<polygon fill="midnightblue" stroke="midnightblue" points="147.548,-11.5001 137.548,-15 147.548,-18.5001 147.548,-11.5001"/>
</g>
<!-- Node3 -->
<g id="node3" class="node"><title>Node3</title>
<g id="a_node3"><a xlink:href="../../d6/d9d/classauthoring_1_1concretefeatures_1_1_level_creator.html#a4a9c78472255186aac0b7c6d5e9a8344" target="_top" xlink:title="authoring.concretefeatures.\lLevelCreator.LevelCreator">
<polygon fill="white" stroke="black" points="360,-0 360,-30 510,-30 510,-0 360,-0"/>
<text text-anchor="start" x="368" y="-18" font-family="Helvetica,sans-Serif" font-size="10.00">authoring.concretefeatures.</text>
<text text-anchor="middle" x="435" y="-7" font-family="Helvetica,sans-Serif" font-size="10.00">LevelCreator.LevelCreator</text>
</a>
</g>
</g>
<!-- Node2&#45;&gt;Node3 -->
<g id="edge2" class="edge"><title>Node2&#45;&gt;Node3</title>
<path fill="none" stroke="midnightblue" d="M334.066,-15C342.654,-15 351.336,-15 359.808,-15"/>
<polygon fill="midnightblue" stroke="midnightblue" points="334.045,-11.5001 324.044,-15 334.044,-18.5001 334.045,-11.5001"/>
</g>
</g>
</svg>
