<?xml version="1.0" encoding="UTF-8" standalone="no"?>
<!DOCTYPE svg PUBLIC "-//W3C//DTD SVG 1.1//EN"
 "http://www.w3.org/Graphics/SVG/1.1/DTD/svg11.dtd">
<!-- Generated by graphviz version 2.36.0 (20140111.2315)
 -->
<!-- Title: authoring_environment.LibraryView Pages: 1 -->
<svg width="1730pt" height="658pt"
 viewBox="0.00 0.00 1730.00 657.66" xmlns="http://www.w3.org/2000/svg" xmlns:xlink="http://www.w3.org/1999/xlink">
<g id="graph0" class="graph" transform="scale(1 1) rotate(0) translate(4 653.655)">
<title>authoring_environment.LibraryView</title>
<polygon fill="white" stroke="none" points="-4,4 -4,-653.655 1726,-653.655 1726,4 -4,4"/>
<!-- Node1 -->
<g id="node1" class="node"><title>Node1</title>
<polygon fill="#bfbfbf" stroke="black" points="1536.5,-462.155 1536.5,-481.155 1721.5,-481.155 1721.5,-462.155 1536.5,-462.155"/>
<text text-anchor="middle" x="1629" y="-469.155" font-family="Helvetica,sans-Serif" font-size="10.00">authoring_environment.LibraryView</text>
</g>
<!-- Node2 -->
<g id="node2" class="node"><title>Node2</title>
<polygon fill="white" stroke="#bfbfbf" points="1320,-630.155 1320,-649.155 1376,-649.155 1376,-630.155 1320,-630.155"/>
<text text-anchor="middle" x="1348" y="-637.155" font-family="Helvetica,sans-Serif" font-size="10.00">TabPane</text>
</g>
<!-- Node2&#45;&gt;Node1 -->
<g id="edge1" class="edge"><title>Node2&#45;&gt;Node1</title>
<path fill="none" stroke="midnightblue" d="M1386.16,-636.339C1422.16,-631.726 1477.14,-620.869 1518,-595.655 1567.72,-564.977 1607.75,-504.981 1622.2,-481.454"/>
<polygon fill="midnightblue" stroke="midnightblue" points="1385.61,-632.88 1376.09,-637.531 1386.43,-639.832 1385.61,-632.88"/>
</g>
<!-- Node3 -->
<g id="node3" class="node"><title>Node3</title>
<polygon fill="white" stroke="#bfbfbf" points="1288.5,-580.655 1288.5,-610.655 1407.5,-610.655 1407.5,-580.655 1288.5,-580.655"/>
<text text-anchor="start" x="1296.5" y="-598.655" font-family="Helvetica,sans-Serif" font-size="10.00">SingleSelectionModel</text>
<text text-anchor="middle" x="1348" y="-587.655" font-family="Helvetica,sans-Serif" font-size="10.00">&lt; Tab &gt;</text>
</g>
<!-- Node3&#45;&gt;Node1 -->
<g id="edge2" class="edge"><title>Node3&#45;&gt;Node1</title>
<path fill="none" stroke="#9a32cd" stroke-dasharray="5,2" d="M1417.84,-587.251C1449.44,-581.639 1486.73,-572.466 1518,-557.655 1560.06,-537.731 1600.91,-499.318 1618.7,-481.357"/>
<polygon fill="#9a32cd" stroke="#9a32cd" points="1417.08,-583.831 1407.8,-588.95 1418.25,-590.733 1417.08,-583.831"/>
<text text-anchor="middle" x="1482" y="-583.655" font-family="Helvetica,sans-Serif" font-size="10.00"> mySelection</text>
</g>
<!-- Node4 -->
<g id="node4" class="node"><title>Node4</title>
<polygon fill="white" stroke="#bfbfbf" points="1293,-542.155 1293,-561.155 1403,-561.155 1403,-542.155 1293,-542.155"/>
<text text-anchor="middle" x="1348" y="-549.155" font-family="Helvetica,sans-Serif" font-size="10.00">Map&lt; String, Tab &gt;</text>
</g>
<!-- Node4&#45;&gt;Node1 -->
<g id="edge3" class="edge"><title>Node4&#45;&gt;Node1</title>
<path fill="none" stroke="#9a32cd" stroke-dasharray="5,2" d="M1413.42,-547.528C1445.42,-544.222 1484.34,-538.288 1518,-527.655 1553.96,-516.294 1592.47,-494.086 1613.02,-481.315"/>
<polygon fill="#9a32cd" stroke="#9a32cd" points="1412.9,-544.061 1403.29,-548.511 1413.58,-551.028 1412.9,-544.061"/>
<text text-anchor="middle" x="1482" y="-545.655" font-family="Helvetica,sans-Serif" font-size="10.00"> myTabMap</text>
</g>
<!-- Node5 -->
<g id="node5" class="node"><title>Node5</title>
<g id="a_node5"><a xlink:href="../../d1/d4f/classauthoring_1_1data_1_1_patch_type_data.html" target="_top" xlink:title="authoring.data.PatchTypeData">
<polygon fill="white" stroke="black" points="297.5,-354.155 297.5,-373.155 458.5,-373.155 458.5,-354.155 297.5,-354.155"/>
<text text-anchor="middle" x="378" y="-361.155" font-family="Helvetica,sans-Serif" font-size="10.00">authoring.data.PatchTypeData</text>
</a>
</g>
</g>
<!-- Node5&#45;&gt;Node1 -->
<g id="edge4" class="edge"><title>Node5&#45;&gt;Node1</title>
<path fill="none" stroke="#9a32cd" stroke-dasharray="5,2" d="M417.374,-376.508C433.078,-381.789 451.421,-387.985 468,-393.655 555.244,-423.493 573.158,-445.86 664,-461.655 829.617,-490.453 1328.86,-480.214 1536.19,-474.47"/>
<polygon fill="#9a32cd" stroke="#9a32cd" points="418.074,-373.051 407.48,-373.184 415.845,-379.686 418.074,-373.051"/>
<text text-anchor="middle" x="1069" y="-483.655" font-family="Helvetica,sans-Serif" font-size="10.00"> myPatches</text>
</g>
<!-- Node6 -->
<g id="node6" class="node"><title>Node6</title>
<polygon fill="white" stroke="#bfbfbf" points="58.5,-208.155 58.5,-227.155 129.5,-227.155 129.5,-208.155 58.5,-208.155"/>
<text text-anchor="middle" x="94" y="-215.155" font-family="Helvetica,sans-Serif" font-size="10.00">Observable</text>
</g>
<!-- Node6&#45;&gt;Node5 -->
<g id="edge5" class="edge"><title>Node6&#45;&gt;Node5</title>
<path fill="none" stroke="midnightblue" d="M127.216,-231.22C145.232,-238.965 168.016,-249.024 188,-258.655 253.937,-290.433 329.084,-334.722 361.152,-354.024"/>
<polygon fill="midnightblue" stroke="midnightblue" points="128.317,-227.885 117.747,-227.173 125.567,-234.321 128.317,-227.885"/>
</g>
<!-- Node17 -->
<g id="node17" class="node"><title>Node17</title>
<g id="a_node17"><a xlink:href="../../d5/d98/classauthoring_1_1data_1_1_piece_type_data.html" target="_top" xlink:title="authoring.data.PieceTypeData">
<polygon fill="white" stroke="black" points="298,-44.1551 298,-63.1551 458,-63.1551 458,-44.1551 298,-44.1551"/>
<text text-anchor="middle" x="378" y="-51.1551" font-family="Helvetica,sans-Serif" font-size="10.00">authoring.data.PieceTypeData</text>
</a>
</g>
</g>
<!-- Node6&#45;&gt;Node17 -->
<g id="edge17" class="edge"><title>Node6&#45;&gt;Node17</title>
<path fill="none" stroke="midnightblue" d="M136.64,-205.12C180.805,-191.436 247.277,-169.617 270,-155.655 313.077,-129.186 353.219,-83.0524 369.434,-63.1935"/>
<polygon fill="midnightblue" stroke="midnightblue" points="135.559,-201.791 127.031,-208.078 137.618,-208.481 135.559,-201.791"/>
</g>
<!-- Node7 -->
<g id="node7" class="node"><title>Node7</title>
<g id="a_node7"><a xlink:href="../../d5/d29/interfaceauthoring_1_1data_1_1_authoring_data.html" target="_top" xlink:title="authoring.data.Authoring\lData\&lt; Patch \&gt;">
<polygon fill="white" stroke="black" points="25.5,-268.655 25.5,-298.655 162.5,-298.655 162.5,-268.655 25.5,-268.655"/>
<text text-anchor="start" x="33.5" y="-286.655" font-family="Helvetica,sans-Serif" font-size="10.00">authoring.data.Authoring</text>
<text text-anchor="middle" x="94" y="-275.655" font-family="Helvetica,sans-Serif" font-size="10.00">Data&lt; Patch &gt;</text>
</a>
</g>
</g>
<!-- Node7&#45;&gt;Node5 -->
<g id="edge6" class="edge"><title>Node7&#45;&gt;Node5</title>
<path fill="none" stroke="midnightblue" d="M147.396,-302.022C165.827,-308.243 186.744,-315.033 206,-320.655 249.784,-333.438 300.528,-345.907 335.299,-354.098"/>
<polygon fill="midnightblue" stroke="midnightblue" points="148.317,-298.639 137.723,-298.734 146.064,-305.266 148.317,-298.639"/>
</g>
<!-- Node28 -->
<g id="node28" class="node"><title>Node28</title>
<g id="a_node28"><a xlink:href="../../d7/dd4/classauthoring_1_1data_1_1_patch_instance_data.html" target="_top" xlink:title="authoring.data.PatchInstanceData">
<polygon fill="white" stroke="black" points="288,-274.155 288,-293.155 468,-293.155 468,-274.155 288,-274.155"/>
<text text-anchor="middle" x="378" y="-281.155" font-family="Helvetica,sans-Serif" font-size="10.00">authoring.data.PatchInstanceData</text>
</a>
</g>
</g>
<!-- Node7&#45;&gt;Node28 -->
<g id="edge31" class="edge"><title>Node7&#45;&gt;Node28</title>
<path fill="none" stroke="midnightblue" d="M172.891,-283.655C208.533,-283.655 250.954,-283.655 287.865,-283.655"/>
<polygon fill="midnightblue" stroke="midnightblue" points="172.546,-280.155 162.546,-283.655 172.546,-287.155 172.546,-280.155"/>
</g>
<!-- Node8 -->
<g id="node8" class="node"><title>Node8</title>
<polygon fill="white" stroke="#bfbfbf" points="0,-325.655 0,-355.655 188,-355.655 188,-325.655 0,-325.655"/>
<text text-anchor="start" x="8" y="-343.655" font-family="Helvetica,sans-Serif" font-size="10.00">List&lt; gamedata.gamecomponents.</text>
<text text-anchor="middle" x="94" y="-332.655" font-family="Helvetica,sans-Serif" font-size="10.00">Patch &gt;</text>
</g>
<!-- Node8&#45;&gt;Node5 -->
<g id="edge7" class="edge"><title>Node8&#45;&gt;Node5</title>
<path fill="none" stroke="#9a32cd" stroke-dasharray="5,2" d="M198.157,-349.069C230.831,-351.734 266.434,-354.637 297.209,-357.147"/>
<polygon fill="#9a32cd" stroke="#9a32cd" points="198.37,-345.574 188.119,-348.25 197.801,-352.551 198.37,-345.574"/>
<text text-anchor="middle" x="238" y="-358.655" font-family="Helvetica,sans-Serif" font-size="10.00"> myPatches</text>
</g>
<!-- Node8&#45;&gt;Node28 -->
<g id="edge32" class="edge"><title>Node8&#45;&gt;Node28</title>
<path fill="none" stroke="#9a32cd" stroke-dasharray="5,2" d="M179.45,-323.585C228.584,-313.654 288.7,-301.503 329.621,-293.232"/>
<polygon fill="#9a32cd" stroke="#9a32cd" points="178.569,-320.193 169.461,-325.604 179.956,-327.054 178.569,-320.193"/>
<text text-anchor="middle" x="238" y="-320.655" font-family="Helvetica,sans-Serif" font-size="10.00"> myPatches</text>
</g>
<!-- Node9 -->
<g id="node9" class="node"><title>Node9</title>
<g id="a_node9"><a xlink:href="../../dd/dc6/classgamedata_1_1gamecomponents_1_1_patch.html" target="_top" xlink:title="gamedata.gamecomponents.\lPatch">
<polygon fill="white" stroke="black" points="1268,-401.655 1268,-431.655 1428,-431.655 1428,-401.655 1268,-401.655"/>
<text text-anchor="start" x="1276" y="-419.655" font-family="Helvetica,sans-Serif" font-size="10.00">gamedata.gamecomponents.</text>
<text text-anchor="middle" x="1348" y="-408.655" font-family="Helvetica,sans-Serif" font-size="10.00">Patch</text>
</a>
</g>
</g>
<!-- Node9&#45;&gt;Node1 -->
<g id="edge8" class="edge"><title>Node9&#45;&gt;Node1</title>
<path fill="none" stroke="#9a32cd" stroke-dasharray="5,2" d="M1438.37,-431.697C1464.12,-436.254 1492.22,-441.44 1518,-446.655 1541.32,-451.373 1567.28,-457.244 1588.13,-462.11"/>
<polygon fill="#9a32cd" stroke="#9a32cd" points="1438.7,-428.202 1428.25,-429.917 1437.49,-435.096 1438.7,-428.202"/>
<text text-anchor="middle" x="1482" y="-449.655" font-family="Helvetica,sans-Serif" font-size="10.00"> currentTerrain</text>
</g>
<!-- Node10 -->
<g id="node10" class="node"><title>Node10</title>
<g id="a_node10"><a xlink:href="../../d9/df2/classgamedata_1_1gamecomponents_1_1_grid_component.html" target="_top" xlink:title="gamedata.gamecomponents.\lGridComponent">
<polygon fill="white" stroke="black" points="989,-389.655 989,-419.655 1149,-419.655 1149,-389.655 989,-389.655"/>
<text text-anchor="start" x="997" y="-407.655" font-family="Helvetica,sans-Serif" font-size="10.00">gamedata.gamecomponents.</text>
<text text-anchor="middle" x="1069" y="-396.655" font-family="Helvetica,sans-Serif" font-size="10.00">GridComponent</text>
</a>
</g>
</g>
<!-- Node10&#45;&gt;Node9 -->
<g id="edge9" class="edge"><title>Node10&#45;&gt;Node9</title>
<path fill="none" stroke="midnightblue" d="M1159.21,-408.52C1194.18,-410.035 1233.97,-411.758 1267.89,-413.228"/>
<polygon fill="midnightblue" stroke="midnightblue" points="1159.15,-405.014 1149.01,-408.078 1158.85,-412.007 1159.15,-405.014"/>
</g>
<!-- Node20 -->
<g id="node20" class="node"><title>Node20</title>
<g id="a_node20"><a xlink:href="../../d4/d63/classgamedata_1_1gamecomponents_1_1_piece.html" target="_top" xlink:title="gamedata.gamecomponents.\lPiece">
<polygon fill="white" stroke="black" points="1268,-250.655 1268,-280.655 1428,-280.655 1428,-250.655 1268,-250.655"/>
<text text-anchor="start" x="1276" y="-268.655" font-family="Helvetica,sans-Serif" font-size="10.00">gamedata.gamecomponents.</text>
<text text-anchor="middle" x="1348" y="-257.655" font-family="Helvetica,sans-Serif" font-size="10.00">Piece</text>
</a>
</g>
</g>
<!-- Node10&#45;&gt;Node20 -->
<g id="edge21" class="edge"><title>Node10&#45;&gt;Node20</title>
<path fill="none" stroke="midnightblue" d="M1109.12,-385.023C1164.97,-357 1266.35,-306.128 1316.8,-280.811"/>
<polygon fill="midnightblue" stroke="midnightblue" points="1107.28,-382.034 1099.91,-389.648 1110.41,-388.291 1107.28,-382.034"/>
</g>
<!-- Node11 -->
<g id="node11" class="node"><title>Node11</title>
<g id="a_node11"><a xlink:href="../../dc/d5b/interfacegamedata_1_1gamecomponents_1_1_i_has_stats.html" target="_top" xlink:title="gamedata.gamecomponents.\lIHasStats">
<polygon fill="white" stroke="black" points="676,-345.655 676,-375.655 836,-375.655 836,-345.655 676,-345.655"/>
<text text-anchor="start" x="684" y="-363.655" font-family="Helvetica,sans-Serif" font-size="10.00">gamedata.gamecomponents.</text>
<text text-anchor="middle" x="756" y="-352.655" font-family="Helvetica,sans-Serif" font-size="10.00">IHasStats</text>
</a>
</g>
</g>
<!-- Node11&#45;&gt;Node10 -->
<g id="edge10" class="edge"><title>Node11&#45;&gt;Node10</title>
<path fill="none" stroke="midnightblue" d="M846.326,-373.293C891.313,-379.658 945.384,-387.308 988.862,-393.459"/>
<polygon fill="midnightblue" stroke="midnightblue" points="846.675,-369.807 836.283,-371.872 845.694,-376.738 846.675,-369.807"/>
</g>
<!-- Node12 -->
<g id="node12" class="node"><title>Node12</title>
<polygon fill="white" stroke="#bfbfbf" points="722,-433.155 722,-452.155 790,-452.155 790,-433.155 722,-433.155"/>
<text text-anchor="middle" x="756" y="-440.155" font-family="Helvetica,sans-Serif" font-size="10.00">ImageView</text>
</g>
<!-- Node12&#45;&gt;Node10 -->
<g id="edge11" class="edge"><title>Node12&#45;&gt;Node10</title>
<path fill="none" stroke="#9a32cd" stroke-dasharray="5,2" d="M800.22,-437.982C840.946,-433.515 903.658,-426.469 958,-419.655 967.945,-418.408 978.388,-417.049 988.717,-415.675"/>
<polygon fill="#9a32cd" stroke="#9a32cd" points="799.664,-434.522 790.104,-439.089 800.425,-441.481 799.664,-434.522"/>
<text text-anchor="middle" x="912" y="-433.655" font-family="Helvetica,sans-Serif" font-size="10.00"> myImageView</text>
</g>
<!-- Node13 -->
<g id="node13" class="node"><title>Node13</title>
<polygon fill="white" stroke="#bfbfbf" points="729,-395.155 729,-414.155 783,-414.155 783,-395.155 729,-395.155"/>
<text text-anchor="middle" x="756" y="-402.155" font-family="Helvetica,sans-Serif" font-size="10.00">Point2D</text>
</g>
<!-- Node13&#45;&gt;Node10 -->
<g id="edge12" class="edge"><title>Node13&#45;&gt;Node10</title>
<path fill="none" stroke="#9a32cd" stroke-dasharray="5,2" d="M793.406,-404.655C841.11,-404.655 926.073,-404.655 988.898,-404.655"/>
<polygon fill="#9a32cd" stroke="#9a32cd" points="793.248,-401.155 783.248,-404.655 793.248,-408.155 793.248,-401.155"/>
<text text-anchor="middle" x="912" y="-407.655" font-family="Helvetica,sans-Serif" font-size="10.00"> myLoc</text>
</g>
<!-- Node14 -->
<g id="node14" class="node"><title>Node14</title>
<g id="a_node14"><a xlink:href="../../d9/df3/classauthoring__environment_1_1_super_grid.html" target="_top" xlink:title="authoring_environment.SuperGrid">
<polygon fill="white" stroke="black" points="288.5,-403.155 288.5,-422.155 467.5,-422.155 467.5,-403.155 288.5,-403.155"/>
<text text-anchor="middle" x="378" y="-410.155" font-family="Helvetica,sans-Serif" font-size="10.00">authoring_environment.SuperGrid</text>
</a>
</g>
</g>
<!-- Node14&#45;&gt;Node1 -->
<g id="edge13" class="edge"><title>Node14&#45;&gt;Node1</title>
<path fill="none" stroke="#9a32cd" stroke-dasharray="5,2" d="M394.185,-429.694C413.291,-449.719 448.208,-481.839 486,-494.655 540.84,-513.252 1229.07,-505.917 1518,-485.655 1532.6,-484.632 1548.22,-482.982 1562.97,-481.168"/>
<polygon fill="#9a32cd" stroke="#9a32cd" points="396.589,-427.139 387.222,-422.189 391.457,-431.9 396.589,-427.139"/>
<text text-anchor="middle" x="1069" y="-506.655" font-family="Helvetica,sans-Serif" font-size="10.00"> myGrid</text>
</g>
<!-- Node26 -->
<g id="node26" class="node"><title>Node26</title>
<g id="a_node26"><a xlink:href="../../da/d4c/classauthoring__environment_1_1_g_u_i_grid.html" target="_top" xlink:title="authoring_environment.GUIGrid">
<polygon fill="white" stroke="black" points="672,-269.155 672,-288.155 840,-288.155 840,-269.155 672,-269.155"/>
<text text-anchor="middle" x="756" y="-276.155" font-family="Helvetica,sans-Serif" font-size="10.00">authoring_environment.GUIGrid</text>
</a>
</g>
</g>
<!-- Node14&#45;&gt;Node26 -->
<g id="edge28" class="edge"><title>Node14&#45;&gt;Node26</title>
<path fill="none" stroke="midnightblue" d="M419.05,-399.95C434.455,-394.856 452.145,-388.753 468,-382.655 556.622,-348.572 573.504,-326.396 664,-297.655 675.537,-293.991 688.124,-290.843 700.157,-288.224"/>
<polygon fill="midnightblue" stroke="midnightblue" points="417.713,-396.705 409.298,-403.142 419.891,-403.357 417.713,-396.705"/>
</g>
<!-- Node15 -->
<g id="node15" class="node"><title>Node15</title>
<polygon fill="white" stroke="#bfbfbf" points="18,-390.655 18,-420.655 170,-420.655 170,-390.655 18,-390.655"/>
<text text-anchor="start" x="26" y="-408.655" font-family="Helvetica,sans-Serif" font-size="10.00">List&lt; List&lt; authoring</text>
<text text-anchor="middle" x="94" y="-397.655" font-family="Helvetica,sans-Serif" font-size="10.00">_environment.SuperTile &gt; &gt;</text>
</g>
<!-- Node15&#45;&gt;Node14 -->
<g id="edge14" class="edge"><title>Node15&#45;&gt;Node14</title>
<path fill="none" stroke="#9a32cd" stroke-dasharray="5,2" d="M180.621,-407.78C214.768,-408.628 254.067,-409.604 288.495,-410.458"/>
<polygon fill="#9a32cd" stroke="#9a32cd" points="180.284,-404.271 170.2,-407.522 180.11,-411.269 180.284,-404.271"/>
<text text-anchor="middle" x="238" y="-413.655" font-family="Helvetica,sans-Serif" font-size="10.00"> myGrid</text>
</g>
<!-- Node16 -->
<g id="node16" class="node"><title>Node16</title>
<polygon fill="white" stroke="#bfbfbf" points="74,-440.155 74,-459.155 114,-459.155 114,-440.155 74,-440.155"/>
<text text-anchor="middle" x="94" y="-447.155" font-family="Helvetica,sans-Serif" font-size="10.00">Pane</text>
</g>
<!-- Node16&#45;&gt;Node14 -->
<g id="edge15" class="edge"><title>Node16&#45;&gt;Node14</title>
<path fill="none" stroke="#9a32cd" stroke-dasharray="5,2" d="M124.548,-445.778C166.82,-440.232 245.897,-429.857 304.328,-422.19"/>
<polygon fill="#9a32cd" stroke="#9a32cd" points="123.843,-442.341 114.383,-447.112 124.753,-449.281 123.843,-442.341"/>
<text text-anchor="middle" x="238" y="-436.655" font-family="Helvetica,sans-Serif" font-size="10.00"> myPane</text>
</g>
<!-- Node17&#45;&gt;Node1 -->
<g id="edge16" class="edge"><title>Node17&#45;&gt;Node1</title>
<path fill="none" stroke="#9a32cd" stroke-dasharray="5,2" d="M468.258,-52.5424C544.441,-51.6886 656.914,-50.6551 755,-50.6551 755,-50.6551 755,-50.6551 1349,-50.6551 1553.3,-50.6551 1616.83,-399.405 1626.6,-462.071"/>
<polygon fill="#9a32cd" stroke="#9a32cd" points="468.18,-49.0429 458.22,-52.6562 468.259,-56.0425 468.18,-49.0429"/>
<text text-anchor="middle" x="1069" y="-53.6551" font-family="Helvetica,sans-Serif" font-size="10.00"> myPieces</text>
</g>
<!-- Node18 -->
<g id="node18" class="node"><title>Node18</title>
<g id="a_node18"><a xlink:href="../../d5/d29/interfaceauthoring_1_1data_1_1_authoring_data.html" target="_top" xlink:title="authoring.data.Authoring\lData\&lt; Piece \&gt;">
<polygon fill="white" stroke="black" points="25.5,-58.6551 25.5,-88.6551 162.5,-88.6551 162.5,-58.6551 25.5,-58.6551"/>
<text text-anchor="start" x="33.5" y="-76.6551" font-family="Helvetica,sans-Serif" font-size="10.00">authoring.data.Authoring</text>
<text text-anchor="middle" x="94" y="-65.6551" font-family="Helvetica,sans-Serif" font-size="10.00">Data&lt; Piece &gt;</text>
</a>
</g>
</g>
<!-- Node18&#45;&gt;Node17 -->
<g id="edge18" class="edge"><title>Node18&#45;&gt;Node17</title>
<path fill="none" stroke="midnightblue" d="M172.693,-68.0369C183.87,-67.2341 195.229,-66.4212 206,-65.6551 235.982,-63.5227 268.924,-61.205 297.822,-59.1802"/>
<polygon fill="midnightblue" stroke="midnightblue" points="172.226,-64.5614 162.503,-68.7696 172.728,-71.5433 172.226,-64.5614"/>
</g>
<!-- Node29 -->
<g id="node29" class="node"><title>Node29</title>
<g id="a_node29"><a xlink:href="../../d6/dda/classauthoring_1_1data_1_1_piece_instance_data.html" target="_top" xlink:title="authoring.data.PieceInstanceData">
<polygon fill="white" stroke="black" points="288.5,-193.155 288.5,-212.155 467.5,-212.155 467.5,-193.155 288.5,-193.155"/>
<text text-anchor="middle" x="378" y="-200.155" font-family="Helvetica,sans-Serif" font-size="10.00">authoring.data.PieceInstanceData</text>
</a>
</g>
</g>
<!-- Node18&#45;&gt;Node29 -->
<g id="edge34" class="edge"><title>Node18&#45;&gt;Node29</title>
<path fill="none" stroke="midnightblue" d="M172.625,-90.1109C203.8,-98.2815 239.502,-109.669 270,-124.655 308.788,-143.715 348.312,-176.847 366.572,-193.103"/>
<polygon fill="midnightblue" stroke="midnightblue" points="173.23,-86.653 162.675,-87.5706 171.498,-93.4355 173.23,-86.653"/>
</g>
<!-- Node19 -->
<g id="node19" class="node"><title>Node19</title>
<polygon fill="white" stroke="#bfbfbf" points="0,-128.655 0,-158.655 188,-158.655 188,-128.655 0,-128.655"/>
<text text-anchor="start" x="8" y="-146.655" font-family="Helvetica,sans-Serif" font-size="10.00">List&lt; gamedata.gamecomponents.</text>
<text text-anchor="middle" x="94" y="-135.655" font-family="Helvetica,sans-Serif" font-size="10.00">Piece &gt;</text>
</g>
<!-- Node19&#45;&gt;Node17 -->
<g id="edge19" class="edge"><title>Node19&#45;&gt;Node17</title>
<path fill="none" stroke="#9a32cd" stroke-dasharray="5,2" d="M151.742,-125.546C210.678,-106.737 300.63,-78.0286 347.017,-63.2241"/>
<polygon fill="#9a32cd" stroke="#9a32cd" points="150.663,-122.216 142.2,-128.591 152.791,-128.885 150.663,-122.216"/>
<text text-anchor="middle" x="238" y="-110.655" font-family="Helvetica,sans-Serif" font-size="10.00"> myPieces</text>
</g>
<!-- Node19&#45;&gt;Node29 -->
<g id="edge35" class="edge"><title>Node19&#45;&gt;Node29</title>
<path fill="none" stroke="#9a32cd" stroke-dasharray="5,2" d="M176.773,-160.764C227.053,-171.283 289.614,-184.372 331.294,-193.092"/>
<polygon fill="#9a32cd" stroke="#9a32cd" points="177.395,-157.318 166.89,-158.696 175.961,-164.17 177.395,-157.318"/>
<text text-anchor="middle" x="238" y="-183.655" font-family="Helvetica,sans-Serif" font-size="10.00"> myPieces</text>
</g>
<!-- Node32 -->
<g id="node32" class="node"><title>Node32</title>
<g id="a_node32"><a xlink:href="../../d3/d8e/classgamedata_1_1gamecomponents_1_1_inventory.html" target="_top" xlink:title="gamedata.gamecomponents.\lInventory">
<polygon fill="white" stroke="black" points="486,-100.655 486,-130.655 646,-130.655 646,-100.655 486,-100.655"/>
<text text-anchor="start" x="494" y="-118.655" font-family="Helvetica,sans-Serif" font-size="10.00">gamedata.gamecomponents.</text>
<text text-anchor="middle" x="566" y="-107.655" font-family="Helvetica,sans-Serif" font-size="10.00">Inventory</text>
</a>
</g>
</g>
<!-- Node19&#45;&gt;Node32 -->
<g id="edge39" class="edge"><title>Node19&#45;&gt;Node32</title>
<path fill="none" stroke="#9a32cd" stroke-dasharray="5,2" d="M198.251,-137.504C284.827,-132.346 406.649,-125.089 485.713,-120.379"/>
<polygon fill="#9a32cd" stroke="#9a32cd" points="197.912,-134.018 188.138,-138.106 198.328,-141.006 197.912,-134.018"/>
<text text-anchor="middle" x="238" y="-139.655" font-family="Helvetica,sans-Serif" font-size="10.00"> myInventory</text>
</g>
<!-- Node20&#45;&gt;Node1 -->
<g id="edge20" class="edge"><title>Node20&#45;&gt;Node1</title>
<path fill="none" stroke="#9a32cd" stroke-dasharray="5,2" d="M1377.75,-286.882C1437.4,-330.928 1572.61,-430.757 1615.02,-462.073"/>
<polygon fill="#9a32cd" stroke="#9a32cd" points="1379.64,-283.927 1369.52,-280.803 1375.48,-289.558 1379.64,-283.927"/>
<text text-anchor="middle" x="1482" y="-390.655" font-family="Helvetica,sans-Serif" font-size="10.00"> currentUnit</text>
</g>
<!-- Node21 -->
<g id="node21" class="node"><title>Node21</title>
<g id="a_node21"><a xlink:href="../../d6/d1d/classgamedata_1_1stats_1_1_stats.html" target="_top" xlink:title="gamedata.stats.Stats">
<polygon fill="white" stroke="black" points="1008,-297.155 1008,-316.155 1130,-316.155 1130,-297.155 1008,-297.155"/>
<text text-anchor="middle" x="1069" y="-304.155" font-family="Helvetica,sans-Serif" font-size="10.00">gamedata.stats.Stats</text>
</a>
</g>
</g>
<!-- Node21&#45;&gt;Node20 -->
<g id="edge22" class="edge"><title>Node21&#45;&gt;Node20</title>
<path fill="none" stroke="#9a32cd" stroke-dasharray="5,2" d="M1140.29,-296.252C1179.16,-290.497 1227.6,-283.328 1267.81,-277.376"/>
<polygon fill="#9a32cd" stroke="#9a32cd" points="1139.48,-292.832 1130.1,-297.759 1140.51,-299.757 1139.48,-292.832"/>
<text text-anchor="middle" x="1215" y="-293.655" font-family="Helvetica,sans-Serif" font-size="10.00"> myStats</text>
</g>
<!-- Node22 -->
<g id="node22" class="node"><title>Node22</title>
<polygon fill="white" stroke="#bfbfbf" points="692,-307.155 692,-326.155 820,-326.155 820,-307.155 692,-307.155"/>
<text text-anchor="middle" x="756" y="-314.155" font-family="Helvetica,sans-Serif" font-size="10.00">Map&lt; String, Double &gt;</text>
</g>
<!-- Node22&#45;&gt;Node21 -->
<g id="edge23" class="edge"><title>Node22&#45;&gt;Node21</title>
<path fill="none" stroke="#9a32cd" stroke-dasharray="5,2" d="M830.531,-314.291C884.646,-312.551 957.307,-310.214 1007.95,-308.586"/>
<polygon fill="#9a32cd" stroke="#9a32cd" points="830.193,-310.8 820.31,-314.619 830.418,-317.796 830.193,-310.8"/>
<text text-anchor="middle" x="912" y="-316.655" font-family="Helvetica,sans-Serif" font-size="10.00"> myStats</text>
</g>
<!-- Node23 -->
<g id="node23" class="node"><title>Node23</title>
<g id="a_node23"><a xlink:href="../../d0/d47/classgameengine_1_1movement_1_1_movement.html" target="_top" xlink:title="gameengine.movement.Movement">
<polygon fill="white" stroke="black" points="976,-214.155 976,-233.155 1162,-233.155 1162,-214.155 976,-214.155"/>
<text text-anchor="middle" x="1069" y="-221.155" font-family="Helvetica,sans-Serif" font-size="10.00">gameengine.movement.Movement</text>
</a>
</g>
</g>
<!-- Node23&#45;&gt;Node20 -->
<g id="edge24" class="edge"><title>Node23&#45;&gt;Node20</title>
<path fill="none" stroke="#9a32cd" stroke-dasharray="5,2" d="M1142.93,-234.713C1181.33,-240.535 1228.47,-247.683 1267.77,-253.642"/>
<polygon fill="#9a32cd" stroke="#9a32cd" points="1143.27,-231.224 1132.86,-233.186 1142.22,-238.145 1143.27,-231.224"/>
<text text-anchor="middle" x="1215" y="-254.655" font-family="Helvetica,sans-Serif" font-size="10.00"> myMovement</text>
</g>
<!-- Node24 -->
<g id="node24" class="node"><title>Node24</title>
<g id="a_node24"><a xlink:href="../../d8/d85/interfacegamedata_1_1action_1_1_action.html" target="_top" xlink:title="gamedata.action.Action">
<polygon fill="white" stroke="black" points="690.5,-117.155 690.5,-136.155 821.5,-136.155 821.5,-117.155 690.5,-117.155"/>
<text text-anchor="middle" x="756" y="-124.155" font-family="Helvetica,sans-Serif" font-size="10.00">gamedata.action.Action</text>
</a>
</g>
</g>
<!-- Node24&#45;&gt;Node23 -->
<g id="edge25" class="edge"><title>Node24&#45;&gt;Node23</title>
<path fill="none" stroke="midnightblue" d="M831.632,-136.952C870.054,-143.479 917.259,-153.424 958,-167.655 993.404,-180.022 1031.81,-201.65 1052.56,-214.098"/>
<polygon fill="midnightblue" stroke="midnightblue" points="831.99,-133.463 821.552,-135.283 830.846,-140.369 831.99,-133.463"/>
</g>
<!-- Node25 -->
<g id="node25" class="node"><title>Node25</title>
<polygon fill="white" stroke="#bfbfbf" points="671.5,-231.155 671.5,-250.155 840.5,-250.155 840.5,-231.155 671.5,-231.155"/>
<text text-anchor="middle" x="756" y="-238.155" font-family="Helvetica,sans-Serif" font-size="10.00">List&lt; List&lt; Point2D.Double &gt; &gt;</text>
</g>
<!-- Node25&#45;&gt;Node23 -->
<g id="edge26" class="edge"><title>Node25&#45;&gt;Node23</title>
<path fill="none" stroke="#9a32cd" stroke-dasharray="5,2" d="M850.94,-235.52C890.54,-233.355 936.492,-230.844 975.893,-228.69"/>
<polygon fill="#9a32cd" stroke="#9a32cd" points="850.545,-232.036 840.751,-236.077 850.928,-239.026 850.545,-232.036"/>
<text text-anchor="middle" x="912" y="-238.655" font-family="Helvetica,sans-Serif" font-size="10.00"> myPaths</text>
</g>
<!-- Node26&#45;&gt;Node23 -->
<g id="edge27" class="edge"><title>Node26&#45;&gt;Node23</title>
<path fill="none" stroke="#9a32cd" stroke-dasharray="5,2" d="M849.447,-267.791C883.676,-263.24 922.728,-257.422 958,-250.655 983.299,-245.801 1011.51,-238.845 1033.03,-233.209"/>
<polygon fill="#9a32cd" stroke="#9a32cd" points="848.919,-264.33 839.46,-269.101 849.83,-271.271 848.919,-264.33"/>
<text text-anchor="middle" x="912" y="-268.655" font-family="Helvetica,sans-Serif" font-size="10.00"> myGrid</text>
</g>
<!-- Node27 -->
<g id="node27" class="node"><title>Node27</title>
<polygon fill="white" stroke="#bfbfbf" points="348,-236.155 348,-255.155 408,-255.155 408,-236.155 348,-236.155"/>
<text text-anchor="middle" x="378" y="-243.155" font-family="Helvetica,sans-Serif" font-size="10.00">Observer</text>
</g>
<!-- Node27&#45;&gt;Node26 -->
<g id="edge29" class="edge"><title>Node27&#45;&gt;Node26</title>
<path fill="none" stroke="midnightblue" d="M418.327,-249.107C478.016,-254.345 592.858,-264.425 671.674,-271.342"/>
<polygon fill="midnightblue" stroke="midnightblue" points="418.459,-245.605 408.191,-248.217 417.847,-252.578 418.459,-245.605"/>
</g>
<!-- Node28&#45;&gt;Node26 -->
<g id="edge30" class="edge"><title>Node28&#45;&gt;Node26</title>
<path fill="none" stroke="#9a32cd" stroke-dasharray="5,2" d="M478.397,-282.333C538.635,-281.532 614.609,-280.522 671.685,-279.763"/>
<polygon fill="#9a32cd" stroke="#9a32cd" points="478.059,-278.837 468.107,-282.47 478.152,-285.837 478.059,-278.837"/>
<text text-anchor="middle" x="566" y="-285.655" font-family="Helvetica,sans-Serif" font-size="10.00"> myPatchData</text>
</g>
<!-- Node29&#45;&gt;Node26 -->
<g id="edge33" class="edge"><title>Node29&#45;&gt;Node26</title>
<path fill="none" stroke="#9a32cd" stroke-dasharray="5,2" d="M477.605,-201.289C530.156,-204.255 594.416,-214.003 646,-240.655 656.334,-245.995 653.843,-253.985 664,-259.655 670.905,-263.51 678.501,-266.585 686.27,-269.038"/>
<polygon fill="#9a32cd" stroke="#9a32cd" points="477.756,-197.792 467.597,-200.797 477.413,-204.783 477.756,-197.792"/>
<text text-anchor="middle" x="566" y="-243.655" font-family="Helvetica,sans-Serif" font-size="10.00"> myPieceData</text>
</g>
<!-- Node30 -->
<g id="node30" class="node"><title>Node30</title>
<g id="a_node30"><a xlink:href="../../d1/dac/classgameengine_1_1movement_1_1_orientator.html" target="_top" xlink:title="gameengine.movement.Orientator">
<polygon fill="white" stroke="black" points="664,-193.155 664,-212.155 848,-212.155 848,-193.155 664,-193.155"/>
<text text-anchor="middle" x="756" y="-200.155" font-family="Helvetica,sans-Serif" font-size="10.00">gameengine.movement.Orientator</text>
</a>
</g>
</g>
<!-- Node30&#45;&gt;Node23 -->
<g id="edge36" class="edge"><title>Node30&#45;&gt;Node23</title>
<path fill="none" stroke="#9a32cd" stroke-dasharray="5,2" d="M858.294,-209.048C890.202,-211.104 925.576,-213.428 958,-215.655 963.826,-216.055 969.826,-216.474 975.874,-216.9"/>
<polygon fill="#9a32cd" stroke="#9a32cd" points="858.268,-205.539 848.064,-208.39 857.819,-212.524 858.268,-205.539"/>
<text text-anchor="middle" x="912" y="-218.655" font-family="Helvetica,sans-Serif" font-size="10.00"> myOrientator</text>
</g>
<!-- Node31 -->
<g id="node31" class="node"><title>Node31</title>
<polygon fill="white" stroke="#bfbfbf" points="691,-155.155 691,-174.155 821,-174.155 821,-155.155 691,-155.155"/>
<text text-anchor="middle" x="756" y="-162.155" font-family="Helvetica,sans-Serif" font-size="10.00">List&lt; Point2D.Double &gt;</text>
</g>
<!-- Node31&#45;&gt;Node23 -->
<g id="edge37" class="edge"><title>Node31&#45;&gt;Node23</title>
<path fill="none" stroke="#9a32cd" stroke-dasharray="5,2" d="M831.461,-167.77C869.645,-170.447 916.688,-175.419 958,-184.655 989.44,-191.684 1024.26,-205.026 1046.13,-214.128"/>
<polygon fill="#9a32cd" stroke="#9a32cd" points="831.656,-164.275 821.447,-167.106 831.193,-171.26 831.656,-164.275"/>
<text text-anchor="middle" x="912" y="-198.655" font-family="Helvetica,sans-Serif" font-size="10.00"> myAbsoluteMoves</text>
<text text-anchor="middle" x="912" y="-187.655" font-family="Helvetica,sans-Serif" font-size="10.00">myMoves</text>
</g>
<!-- Node32&#45;&gt;Node20 -->
<g id="edge38" class="edge"><title>Node32&#45;&gt;Node20</title>
<path fill="none" stroke="#9a32cd" stroke-dasharray="5,2" d="M656.346,-107.337C711.669,-103.617 784.105,-101.328 848,-107.655 1031.8,-125.855 1238.29,-214.75 1315.58,-250.613"/>
<polygon fill="#9a32cd" stroke="#9a32cd" points="655.951,-103.856 646.221,-108.047 656.441,-110.839 655.951,-103.856"/>
<text text-anchor="middle" x="912" y="-128.655" font-family="Helvetica,sans-Serif" font-size="10.00"> myInventory</text>
</g>
<!-- Node33 -->
<g id="node33" class="node"><title>Node33</title>
<polygon fill="white" stroke="#bfbfbf" points="984,-80.1551 984,-99.1551 1154,-99.1551 1154,-80.1551 984,-80.1551"/>
<text text-anchor="middle" x="1069" y="-87.1551" font-family="Helvetica,sans-Serif" font-size="10.00">List&lt; gamedata.action.Action &gt;</text>
</g>
<!-- Node33&#45;&gt;Node20 -->
<g id="edge40" class="edge"><title>Node33&#45;&gt;Node20</title>
<path fill="none" stroke="#9a32cd" stroke-dasharray="5,2" d="M1148.92,-79.8649C1182.32,-79.4758 1220.28,-84.3098 1250,-102.655 1306.04,-137.25 1333.72,-217.278 1343.15,-250.634"/>
<polygon fill="#9a32cd" stroke="#9a32cd" points="1148.62,-76.3718 1138.72,-80.1442 1148.81,-83.3692 1148.62,-76.3718"/>
<text text-anchor="middle" x="1215" y="-105.655" font-family="Helvetica,sans-Serif" font-size="10.00"> myActions</text>
</g>
<!-- Node34 -->
<g id="node34" class="node"><title>Node34</title>
<polygon fill="white" stroke="#bfbfbf" points="1288.5,-3.15511 1288.5,-22.1551 1407.5,-22.1551 1407.5,-3.15511 1288.5,-3.15511"/>
<text text-anchor="middle" x="1348" y="-10.1551" font-family="Helvetica,sans-Serif" font-size="10.00">Map&lt; String, VBox &gt;</text>
</g>
<!-- Node34&#45;&gt;Node1 -->
<g id="edge41" class="edge"><title>Node34&#45;&gt;Node1</title>
<path fill="none" stroke="#9a32cd" stroke-dasharray="5,2" d="M1402.41,-1.82661C1439.07,2.36411 1486.6,0.947561 1518,-25.6551 1588.43,-85.3269 1621.43,-401.794 1627.11,-461.822"/>
<polygon fill="#9a32cd" stroke="#9a32cd" points="1401.84,1.62868 1392.38,-3.14103 1402.75,-5.31199 1401.84,1.62868"/>
<text text-anchor="middle" x="1482" y="-28.6551" font-family="Helvetica,sans-Serif" font-size="10.00"> myLibraryMap</text>
</g>
</g>
</svg>
