<?xml version="1.0" encoding="UTF-8" standalone="no"?>
<!DOCTYPE svg PUBLIC "-//W3C//DTD SVG 1.1//EN"
 "http://www.w3.org/Graphics/SVG/1.1/DTD/svg11.dtd">
<!-- Generated by graphviz version 2.36.0 (20140111.2315)
 -->
<!-- Title: gameengine.movement.Movement.toString Pages: 1 -->
<svg width="1042pt" height="87pt"
 viewBox="0.00 0.00 1042.00 87.00" xmlns="http://www.w3.org/2000/svg" xmlns:xlink="http://www.w3.org/1999/xlink">
<g id="graph0" class="graph" transform="scale(1 1) rotate(0) translate(4 83)">
<title>gameengine.movement.Movement.toString</title>
<polygon fill="white" stroke="none" points="-4,4 -4,-83 1038,-83 1038,4 -4,4"/>
<!-- Node1 -->
<g id="node1" class="node"><title>Node1</title>
<polygon fill="#bfbfbf" stroke="black" points="0.5,-24 0.5,-54 199.5,-54 199.5,-24 0.5,-24"/>
<text text-anchor="start" x="8.5" y="-42" font-family="Helvetica,sans-Serif" font-size="10.00">gameengine.movement.Movement.to</text>
<text text-anchor="middle" x="100" y="-31" font-family="Helvetica,sans-Serif" font-size="10.00">String</text>
</g>
<!-- Node2 -->
<g id="node2" class="node"><title>Node2</title>
<g id="a_node2"><a xlink:href="../../d9/d15/classfxml__main_1_1_piece_type_editor.html#a36caa4e38e75916af15c3b336543960f" target="_top" xlink:title="fxml_main.PieceTypeEditor.init\lGoBtn">
<polygon fill="white" stroke="black" points="236,-49 236,-79 396,-79 396,-49 236,-49"/>
<text text-anchor="start" x="244" y="-67" font-family="Helvetica,sans-Serif" font-size="10.00">fxml_main.PieceTypeEditor.init</text>
<text text-anchor="middle" x="316" y="-56" font-family="Helvetica,sans-Serif" font-size="10.00">GoBtn</text>
</a>
</g>
</g>
<!-- Node1&#45;&gt;Node2 -->
<g id="edge1" class="edge"><title>Node1&#45;&gt;Node2</title>
<path fill="none" stroke="midnightblue" d="M209.552,-51.6813C218.423,-52.7176 227.28,-53.7523 235.878,-54.7568"/>
<polygon fill="midnightblue" stroke="midnightblue" points="209.883,-48.1962 199.544,-50.5121 209.07,-55.1489 209.883,-48.1962"/>
</g>
<!-- Node6 -->
<g id="node6" class="node"><title>Node6</title>
<g id="a_node6"><a xlink:href="../../d4/d63/classgamedata_1_1gamecomponents_1_1_piece.html#a8de75c69a5b6509c8b4a7160ec599997" target="_top" xlink:title="gamedata.gamecomponents.\lPiece.printString">
<polygon fill="white" stroke="black" points="236,-0 236,-30 396,-30 396,-0 236,-0"/>
<text text-anchor="start" x="244" y="-18" font-family="Helvetica,sans-Serif" font-size="10.00">gamedata.gamecomponents.</text>
<text text-anchor="middle" x="316" y="-7" font-family="Helvetica,sans-Serif" font-size="10.00">Piece.printString</text>
</a>
</g>
</g>
<!-- Node1&#45;&gt;Node6 -->
<g id="edge5" class="edge"><title>Node1&#45;&gt;Node6</title>
<path fill="none" stroke="midnightblue" d="M209.552,-26.8259C218.423,-25.8311 227.28,-24.8378 235.878,-23.8735"/>
<polygon fill="midnightblue" stroke="midnightblue" points="209.092,-23.3555 199.544,-27.9483 209.872,-30.3119 209.092,-23.3555"/>
</g>
<!-- Node3 -->
<g id="node3" class="node"><title>Node3</title>
<g id="a_node3"><a xlink:href="../../d9/d15/classfxml__main_1_1_piece_type_editor.html#a4d5ecc37717a0f7dee7d88e74792388a" target="_top" xlink:title="fxml_main.PieceTypeEditor.initialize">
<polygon fill="white" stroke="black" points="432,-54.5 432,-73.5 616,-73.5 616,-54.5 432,-54.5"/>
<text text-anchor="middle" x="524" y="-61.5" font-family="Helvetica,sans-Serif" font-size="10.00">fxml_main.PieceTypeEditor.initialize</text>
</a>
</g>
</g>
<!-- Node2&#45;&gt;Node3 -->
<g id="edge2" class="edge"><title>Node2&#45;&gt;Node3</title>
<path fill="none" stroke="midnightblue" d="M406.284,-64C414.733,-64 423.307,-64 431.774,-64"/>
<polygon fill="midnightblue" stroke="midnightblue" points="406.056,-60.5001 396.056,-64 406.056,-67.5001 406.056,-60.5001"/>
</g>
<!-- Node4 -->
<g id="node4" class="node"><title>Node4</title>
<g id="a_node4"><a xlink:href="../../d9/d15/classfxml__main_1_1_piece_type_editor.html#ab6e627c5d9474cd4c497ad70eb51a0c6" target="_top" xlink:title="fxml_main.PieceTypeEditor.constructor">
<polygon fill="white" stroke="black" points="652,-54.5 652,-73.5 852,-73.5 852,-54.5 652,-54.5"/>
<text text-anchor="middle" x="752" y="-61.5" font-family="Helvetica,sans-Serif" font-size="10.00">fxml_main.PieceTypeEditor.constructor</text>
</a>
</g>
</g>
<!-- Node3&#45;&gt;Node4 -->
<g id="edge3" class="edge"><title>Node3&#45;&gt;Node4</title>
<path fill="none" stroke="midnightblue" d="M626.539,-64C635.002,-64 643.552,-64 651.996,-64"/>
<polygon fill="midnightblue" stroke="midnightblue" points="626.271,-60.5001 616.271,-64 626.271,-67.5001 626.271,-60.5001"/>
</g>
<!-- Node5 -->
<g id="node5" class="node"><title>Node5</title>
<g id="a_node5"><a xlink:href="../../d9/d15/classfxml__main_1_1_piece_type_editor.html#aba63586973ffa81f331904a44690684c" target="_top" xlink:title="fxml_main.PieceTypeEditor.\lPieceTypeEditor">
<polygon fill="white" stroke="black" points="888,-49 888,-79 1034,-79 1034,-49 888,-49"/>
<text text-anchor="start" x="896" y="-67" font-family="Helvetica,sans-Serif" font-size="10.00">fxml_main.PieceTypeEditor.</text>
<text text-anchor="middle" x="961" y="-56" font-family="Helvetica,sans-Serif" font-size="10.00">PieceTypeEditor</text>
</a>
</g>
</g>
<!-- Node4&#45;&gt;Node5 -->
<g id="edge4" class="edge"><title>Node4&#45;&gt;Node5</title>
<path fill="none" stroke="midnightblue" d="M862.415,-64C871.06,-64 879.65,-64 887.942,-64"/>
<polygon fill="midnightblue" stroke="midnightblue" points="862.256,-60.5001 852.256,-64 862.256,-67.5001 862.256,-60.5001"/>
</g>
</g>
</svg>
