<?xml version="1.0" encoding="UTF-8" standalone="no"?>
<!DOCTYPE svg PUBLIC "-//W3C//DTD SVG 1.1//EN"
 "http://www.w3.org/Graphics/SVG/1.1/DTD/svg11.dtd">
<!-- Generated by graphviz version 2.36.0 (20140111.2315)
 -->
<!-- Title: gameengine.movement.Movement.doBehavior Pages: 1 -->
<svg width="1112pt" height="273pt"
 viewBox="0.00 0.00 1112.00 273.00" xmlns="http://www.w3.org/2000/svg" xmlns:xlink="http://www.w3.org/1999/xlink">
<g id="graph0" class="graph" transform="scale(1 1) rotate(0) translate(4 269)">
<title>gameengine.movement.Movement.doBehavior</title>
<polygon fill="white" stroke="none" points="-4,4 -4,-269 1108,-269 1108,4 -4,4"/>
<!-- Node1 -->
<g id="node1" class="node"><title>Node1</title>
<polygon fill="#bfbfbf" stroke="black" points="0.5,-144 0.5,-174 201.5,-174 201.5,-144 0.5,-144"/>
<text text-anchor="start" x="8.5" y="-162" font-family="Helvetica,sans-Serif" font-size="10.00">gameengine.movement.Movement.do</text>
<text text-anchor="middle" x="101" y="-151" font-family="Helvetica,sans-Serif" font-size="10.00">Behavior</text>
</g>
<!-- Node2 -->
<g id="node2" class="node"><title>Node2</title>
<g id="a_node2"><a xlink:href="../../d9/df2/classgamedata_1_1gamecomponents_1_1_grid_component.html#a97439a493db38860397436079b123e8c" target="_top" xlink:title="gamedata.gamecomponents.\lGridComponent.getLoc">
<polygon fill="white" stroke="black" points="279,-215 279,-245 439,-245 439,-215 279,-215"/>
<text text-anchor="start" x="287" y="-233" font-family="Helvetica,sans-Serif" font-size="10.00">gamedata.gamecomponents.</text>
<text text-anchor="middle" x="359" y="-222" font-family="Helvetica,sans-Serif" font-size="10.00">GridComponent.getLoc</text>
</a>
</g>
</g>
<!-- Node1&#45;&gt;Node2 -->
<g id="edge1" class="edge"><title>Node1&#45;&gt;Node2</title>
<path fill="none" stroke="midnightblue" d="M142.37,-174.084C169.221,-183.762 205.412,-196.129 238,-205 247.959,-207.711 258.451,-210.292 268.918,-212.695"/>
<polygon fill="midnightblue" stroke="midnightblue" points="268.402,-216.166 278.926,-214.943 269.936,-209.337 268.402,-216.166"/>
</g>
<!-- Node3 -->
<g id="node3" class="node"><title>Node3</title>
<g id="a_node3"><a xlink:href="../../d0/d47/classgameengine_1_1movement_1_1_movement.html#a8811af7cd48cc4e3f8e9543c9bfd466a" target="_top" xlink:title="gameengine.movement.Movement.is\lValidLocation">
<polygon fill="white" stroke="black" points="260.5,-166 260.5,-196 457.5,-196 457.5,-166 260.5,-166"/>
<text text-anchor="start" x="268.5" y="-184" font-family="Helvetica,sans-Serif" font-size="10.00">gameengine.movement.Movement.is</text>
<text text-anchor="middle" x="359" y="-173" font-family="Helvetica,sans-Serif" font-size="10.00">ValidLocation</text>
</a>
</g>
</g>
<!-- Node1&#45;&gt;Node3 -->
<g id="edge2" class="edge"><title>Node1&#45;&gt;Node3</title>
<path fill="none" stroke="midnightblue" d="M201.709,-167.569C217.487,-168.925 233.868,-170.332 249.828,-171.704"/>
<polygon fill="midnightblue" stroke="midnightblue" points="249.981,-175.23 260.244,-172.599 250.581,-168.256 249.981,-175.23"/>
</g>
<!-- Node6 -->
<g id="node6" class="node"><title>Node6</title>
<g id="a_node6"><a xlink:href="../../da/d4c/classauthoring__environment_1_1_g_u_i_grid.html#a0dd951cc5155fadf7b6d1f01ba887540" target="_top" xlink:title="authoring_environment.GUIGrid.repopulateGrid">
<polygon fill="white" stroke="black" points="238,-127.5 238,-146.5 480,-146.5 480,-127.5 238,-127.5"/>
<text text-anchor="middle" x="359" y="-134.5" font-family="Helvetica,sans-Serif" font-size="10.00">authoring_environment.GUIGrid.repopulateGrid</text>
</a>
</g>
</g>
<!-- Node1&#45;&gt;Node6 -->
<g id="edge5" class="edge"><title>Node1&#45;&gt;Node6</title>
<path fill="none" stroke="midnightblue" d="M201.709,-150.431C213.219,-149.442 225.05,-148.425 236.805,-147.415"/>
<polygon fill="midnightblue" stroke="midnightblue" points="237.441,-150.874 247.105,-146.53 236.842,-143.899 237.441,-150.874"/>
</g>
<!-- Node16 -->
<g id="node16" class="node"><title>Node16</title>
<g id="a_node16"><a xlink:href="../../d9/df2/classgamedata_1_1gamecomponents_1_1_grid_component.html#a64ad68920a85cfa677b6325fda0191b0" target="_top" xlink:title="gamedata.gamecomponents.\lGridComponent.setLoc">
<polygon fill="white" stroke="black" points="279,-78 279,-108 439,-108 439,-78 279,-78"/>
<text text-anchor="start" x="287" y="-96" font-family="Helvetica,sans-Serif" font-size="10.00">gamedata.gamecomponents.</text>
<text text-anchor="middle" x="359" y="-85" font-family="Helvetica,sans-Serif" font-size="10.00">GridComponent.setLoc</text>
</a>
</g>
</g>
<!-- Node1&#45;&gt;Node16 -->
<g id="edge17" class="edge"><title>Node1&#45;&gt;Node16</title>
<path fill="none" stroke="midnightblue" d="M148.297,-143.946C174.47,-135.712 207.887,-125.66 238,-118 248.687,-115.281 259.965,-112.639 271.156,-110.153"/>
<polygon fill="midnightblue" stroke="midnightblue" points="271.93,-113.567 280.951,-108.011 270.434,-106.728 271.93,-113.567"/>
</g>
<!-- Node4 -->
<g id="node4" class="node"><title>Node4</title>
<g id="a_node4"><a xlink:href="../../da/d4c/classauthoring__environment_1_1_g_u_i_grid.html#a1ac1af9ff6b3cff9aee00db73948d1c0" target="_top" xlink:title="authoring_environment.GUIGrid.get\lPiece">
<polygon fill="white" stroke="black" points="517.5,-235 517.5,-265 704.5,-265 704.5,-235 517.5,-235"/>
<text text-anchor="start" x="525.5" y="-253" font-family="Helvetica,sans-Serif" font-size="10.00">authoring_environment.GUIGrid.get</text>
<text text-anchor="middle" x="611" y="-242" font-family="Helvetica,sans-Serif" font-size="10.00">Piece</text>
</a>
</g>
</g>
<!-- Node3&#45;&gt;Node4 -->
<g id="edge3" class="edge"><title>Node3&#45;&gt;Node4</title>
<path fill="none" stroke="midnightblue" d="M441.465,-196.07C454.444,-199.016 467.656,-202.341 480,-206 496.46,-210.878 499.815,-214.276 516,-220 527.229,-223.971 539.293,-227.998 550.91,-231.758"/>
<polygon fill="midnightblue" stroke="midnightblue" points="549.943,-235.123 560.535,-234.846 552.082,-228.458 549.943,-235.123"/>
</g>
<!-- Node5 -->
<g id="node5" class="node"><title>Node5</title>
<g id="a_node5"><a xlink:href="../../d6/dda/classauthoring_1_1data_1_1_piece_instance_data.html#afb4443eda20595533c28fe05f079fb48" target="_top" xlink:title="authoring.data.PieceInstance\lData.getData">
<polygon fill="white" stroke="black" points="746,-225 746,-255 902,-255 902,-225 746,-225"/>
<text text-anchor="start" x="754" y="-243" font-family="Helvetica,sans-Serif" font-size="10.00">authoring.data.PieceInstance</text>
<text text-anchor="middle" x="824" y="-232" font-family="Helvetica,sans-Serif" font-size="10.00">Data.getData</text>
</a>
</g>
</g>
<!-- Node4&#45;&gt;Node5 -->
<g id="edge4" class="edge"><title>Node4&#45;&gt;Node5</title>
<path fill="none" stroke="midnightblue" d="M704.548,-245.614C714.845,-245.126 725.31,-244.63 735.542,-244.145"/>
<polygon fill="midnightblue" stroke="midnightblue" points="735.858,-247.634 745.681,-243.664 735.526,-240.642 735.858,-247.634"/>
</g>
<!-- Node6&#45;&gt;Node5 -->
<g id="edge13" class="edge"><title>Node6&#45;&gt;Node5</title>
<path fill="none" stroke="midnightblue" d="M452.879,-146.537C462.25,-149.019 471.452,-152.122 480,-156 498.967,-164.604 497.107,-177.234 516,-186 554.113,-203.684 658.939,-219.783 735.526,-229.713"/>
<polygon fill="midnightblue" stroke="midnightblue" points="735.298,-233.212 745.662,-231.013 736.188,-226.269 735.298,-233.212"/>
</g>
<!-- Node7 -->
<g id="node7" class="node"><title>Node7</title>
<g id="a_node7"><a xlink:href="../../da/d4c/classauthoring__environment_1_1_g_u_i_grid.html#a12341db20ff77949c83ff8e9db4f2e10" target="_top" xlink:title="authoring_environment.GUIGrid.add\lPatchToTile">
<polygon fill="white" stroke="black" points="516.5,-147 516.5,-177 705.5,-177 705.5,-147 516.5,-147"/>
<text text-anchor="start" x="524.5" y="-165" font-family="Helvetica,sans-Serif" font-size="10.00">authoring_environment.GUIGrid.add</text>
<text text-anchor="middle" x="611" y="-154" font-family="Helvetica,sans-Serif" font-size="10.00">PatchToTile</text>
</a>
</g>
</g>
<!-- Node6&#45;&gt;Node7 -->
<g id="edge6" class="edge"><title>Node6&#45;&gt;Node7</title>
<path fill="none" stroke="midnightblue" d="M455.227,-146.523C471.797,-148.18 489.107,-149.911 505.9,-151.59"/>
<polygon fill="midnightblue" stroke="midnightblue" points="505.979,-155.115 516.277,-152.628 506.675,-148.15 505.979,-155.115"/>
</g>
<!-- Node11 -->
<g id="node11" class="node"><title>Node11</title>
<g id="a_node11"><a xlink:href="../../da/d4c/classauthoring__environment_1_1_g_u_i_grid.html#ad9520ccdfc36fd1e2b2cbb9ee68c22f1" target="_top" xlink:title="authoring_environment.GUIGrid.add\lPieceToTile">
<polygon fill="white" stroke="black" points="516.5,-98 516.5,-128 705.5,-128 705.5,-98 516.5,-98"/>
<text text-anchor="start" x="524.5" y="-116" font-family="Helvetica,sans-Serif" font-size="10.00">authoring_environment.GUIGrid.add</text>
<text text-anchor="middle" x="611" y="-105" font-family="Helvetica,sans-Serif" font-size="10.00">PieceToTile</text>
</a>
</g>
</g>
<!-- Node6&#45;&gt;Node11 -->
<g id="edge10" class="edge"><title>Node6&#45;&gt;Node11</title>
<path fill="none" stroke="midnightblue" d="M459.166,-127.48C474.598,-125.999 490.58,-124.464 506.114,-122.973"/>
<polygon fill="midnightblue" stroke="midnightblue" points="506.627,-126.44 516.247,-122 505.958,-119.472 506.627,-126.44"/>
</g>
<!-- Node13 -->
<g id="node13" class="node"><title>Node13</title>
<g id="a_node13"><a xlink:href="../../d7/dd4/classauthoring_1_1data_1_1_patch_instance_data.html#a60ac72e96e7e0da6f3beb20122a8c041" target="_top" xlink:title="authoring.data.PatchInstance\lData.getData">
<polygon fill="white" stroke="black" points="532.5,-49 532.5,-79 689.5,-79 689.5,-49 532.5,-49"/>
<text text-anchor="start" x="540.5" y="-67" font-family="Helvetica,sans-Serif" font-size="10.00">authoring.data.PatchInstance</text>
<text text-anchor="middle" x="611" y="-56" font-family="Helvetica,sans-Serif" font-size="10.00">Data.getData</text>
</a>
</g>
</g>
<!-- Node6&#45;&gt;Node13 -->
<g id="edge14" class="edge"><title>Node6&#45;&gt;Node13</title>
<path fill="none" stroke="midnightblue" d="M449.02,-127.466C459.706,-124.786 470.268,-121.365 480,-117 498.746,-108.592 497.627,-97.1957 516,-88 519.813,-86.0918 523.79,-84.3264 527.863,-82.6941"/>
<polygon fill="midnightblue" stroke="midnightblue" points="529.344,-85.8779 537.506,-79.1224 526.913,-79.3137 529.344,-85.8779"/>
</g>
<!-- Node14 -->
<g id="node14" class="node"><title>Node14</title>
<g id="a_node14"><a xlink:href="../../d9/df3/classauthoring__environment_1_1_super_grid.html#a05c3a225e4a4cab14f9cce4921eaef82" target="_top" xlink:title="authoring_environment.Super\lGrid.initGridTiles">
<polygon fill="white" stroke="black" points="531,-0 531,-30 691,-30 691,-0 531,-0"/>
<text text-anchor="start" x="539" y="-18" font-family="Helvetica,sans-Serif" font-size="10.00">authoring_environment.Super</text>
<text text-anchor="middle" x="611" y="-7" font-family="Helvetica,sans-Serif" font-size="10.00">Grid.initGridTiles</text>
</a>
</g>
</g>
<!-- Node6&#45;&gt;Node14 -->
<g id="edge15" class="edge"><title>Node6&#45;&gt;Node14</title>
<path fill="none" stroke="midnightblue" d="M462.21,-127.406C468.537,-124.593 474.543,-121.164 480,-117 510.354,-93.8397 486.655,-63.4265 516,-39 517.982,-37.35 520.064,-35.8115 522.225,-34.3772"/>
<polygon fill="midnightblue" stroke="midnightblue" points="524.019,-37.3832 530.92,-29.3449 520.512,-31.3247 524.019,-37.3832"/>
</g>
<!-- Node8 -->
<g id="node8" class="node"><title>Node8</title>
<g id="a_node8"><a xlink:href="../../d9/df2/classgamedata_1_1gamecomponents_1_1_grid_component.html#a9a5b2359d22e7d79d5065826a0dc8211" target="_top" xlink:title="gamedata.gamecomponents.\lGridComponent.getImageView">
<polygon fill="white" stroke="black" points="742.5,-108 742.5,-138 905.5,-138 905.5,-108 742.5,-108"/>
<text text-anchor="start" x="750.5" y="-126" font-family="Helvetica,sans-Serif" font-size="10.00">gamedata.gamecomponents.</text>
<text text-anchor="middle" x="824" y="-115" font-family="Helvetica,sans-Serif" font-size="10.00">GridComponent.getImageView</text>
</a>
</g>
</g>
<!-- Node7&#45;&gt;Node8 -->
<g id="edge7" class="edge"><title>Node7&#45;&gt;Node8</title>
<path fill="none" stroke="midnightblue" d="M693.276,-146.977C706.135,-144.601 719.502,-142.13 732.555,-139.717"/>
<polygon fill="midnightblue" stroke="midnightblue" points="733.264,-143.146 742.462,-137.886 731.992,-136.262 733.264,-143.146"/>
</g>
<!-- Node10 -->
<g id="node10" class="node"><title>Node10</title>
<g id="a_node10"><a xlink:href="../../dc/d5a/classauthoring__environment_1_1_super_tile.html#a7e65040df400ad3d7a62145816f0cca4" target="_top" xlink:title="authoring_environment.Super\lTile.setPatchImage">
<polygon fill="white" stroke="black" points="744,-157 744,-187 904,-187 904,-157 744,-157"/>
<text text-anchor="start" x="752" y="-175" font-family="Helvetica,sans-Serif" font-size="10.00">authoring_environment.Super</text>
<text text-anchor="middle" x="824" y="-164" font-family="Helvetica,sans-Serif" font-size="10.00">Tile.setPatchImage</text>
</a>
</g>
</g>
<!-- Node7&#45;&gt;Node10 -->
<g id="edge9" class="edge"><title>Node7&#45;&gt;Node10</title>
<path fill="none" stroke="midnightblue" d="M705.776,-166.444C714.973,-166.88 724.29,-167.322 733.442,-167.756"/>
<polygon fill="midnightblue" stroke="midnightblue" points="733.537,-171.264 743.691,-168.241 733.868,-164.272 733.537,-171.264"/>
</g>
<!-- Node9 -->
<g id="node9" class="node"><title>Node9</title>
<g id="a_node9"><a xlink:href="../../d9/df2/classgamedata_1_1gamecomponents_1_1_grid_component.html#a224e5aae28655f7e26ff73cbde7b0d99" target="_top" xlink:title="gamedata.gamecomponents.\lGridComponent.setImageView">
<polygon fill="white" stroke="black" points="942,-108 942,-138 1104,-138 1104,-108 942,-108"/>
<text text-anchor="start" x="950" y="-126" font-family="Helvetica,sans-Serif" font-size="10.00">gamedata.gamecomponents.</text>
<text text-anchor="middle" x="1023" y="-115" font-family="Helvetica,sans-Serif" font-size="10.00">GridComponent.setImageView</text>
</a>
</g>
</g>
<!-- Node8&#45;&gt;Node9 -->
<g id="edge8" class="edge"><title>Node8&#45;&gt;Node9</title>
<path fill="none" stroke="midnightblue" d="M905.696,-123C914.25,-123 922.989,-123 931.643,-123"/>
<polygon fill="midnightblue" stroke="midnightblue" points="931.748,-126.5 941.748,-123 931.748,-119.5 931.748,-126.5"/>
</g>
<!-- Node11&#45;&gt;Node8 -->
<g id="edge11" class="edge"><title>Node11&#45;&gt;Node8</title>
<path fill="none" stroke="midnightblue" d="M705.776,-117.444C714.558,-117.861 723.448,-118.282 732.201,-118.697"/>
<polygon fill="midnightblue" stroke="midnightblue" points="732.244,-122.203 742.399,-119.18 732.576,-115.21 732.244,-122.203"/>
</g>
<!-- Node12 -->
<g id="node12" class="node"><title>Node12</title>
<g id="a_node12"><a xlink:href="../../dc/d5a/classauthoring__environment_1_1_super_tile.html#af7f7917a6fb88cc3145cd6f981a80f79" target="_top" xlink:title="authoring_environment.Super\lTile.setPieceImage">
<polygon fill="white" stroke="black" points="744,-59 744,-89 904,-89 904,-59 744,-59"/>
<text text-anchor="start" x="752" y="-77" font-family="Helvetica,sans-Serif" font-size="10.00">authoring_environment.Super</text>
<text text-anchor="middle" x="824" y="-66" font-family="Helvetica,sans-Serif" font-size="10.00">Tile.setPieceImage</text>
</a>
</g>
</g>
<!-- Node11&#45;&gt;Node12 -->
<g id="edge12" class="edge"><title>Node11&#45;&gt;Node12</title>
<path fill="none" stroke="midnightblue" d="M693.276,-97.9774C706.505,-95.5322 720.272,-92.9877 733.681,-90.5092"/>
<polygon fill="midnightblue" stroke="midnightblue" points="734.653,-93.8889 743.85,-88.6295 733.381,-87.0055 734.653,-93.8889"/>
</g>
<!-- Node15 -->
<g id="node15" class="node"><title>Node15</title>
<g id="a_node15"><a xlink:href="../../d9/df3/classauthoring__environment_1_1_super_grid.html#a94d725216cfe4f629eafae0d5b526f9d" target="_top" xlink:title="authoring_environment.Super\lGrid.makeShapeTile">
<polygon fill="white" stroke="black" points="744,-0 744,-30 904,-30 904,-0 744,-0"/>
<text text-anchor="start" x="752" y="-18" font-family="Helvetica,sans-Serif" font-size="10.00">authoring_environment.Super</text>
<text text-anchor="middle" x="824" y="-7" font-family="Helvetica,sans-Serif" font-size="10.00">Grid.makeShapeTile</text>
</a>
</g>
</g>
<!-- Node14&#45;&gt;Node15 -->
<g id="edge16" class="edge"><title>Node14&#45;&gt;Node15</title>
<path fill="none" stroke="midnightblue" d="M691.169,-15C705.001,-15 719.479,-15 733.565,-15"/>
<polygon fill="midnightblue" stroke="midnightblue" points="733.738,-18.5001 743.738,-15 733.738,-11.5001 733.738,-18.5001"/>
</g>
</g>
</svg>
