<?xml version="1.0" encoding="UTF-8" standalone="no"?>
<!DOCTYPE svg PUBLIC "-//W3C//DTD SVG 1.1//EN"
 "http://www.w3.org/Graphics/SVG/1.1/DTD/svg11.dtd">
<!-- Generated by graphviz version 2.36.0 (20140111.2315)
 -->
<!-- Title: fxml_main.PieceController.initGlobalEditBtn Pages: 1 -->
<svg width="594pt" height="253pt"
 viewBox="0.00 0.00 594.00 253.00" xmlns="http://www.w3.org/2000/svg" xmlns:xlink="http://www.w3.org/1999/xlink">
<g id="graph0" class="graph" transform="scale(1 1) rotate(0) translate(4 249)">
<title>fxml_main.PieceController.initGlobalEditBtn</title>
<polygon fill="white" stroke="none" points="-4,4 -4,-249 590,-249 590,4 -4,4"/>
<!-- Node1 -->
<g id="node1" class="node"><title>Node1</title>
<polygon fill="#bfbfbf" stroke="black" points="0,-98 0,-128 158,-128 158,-98 0,-98"/>
<text text-anchor="start" x="8" y="-116" font-family="Helvetica,sans-Serif" font-size="10.00">fxml_main.PieceController.init</text>
<text text-anchor="middle" x="79" y="-105" font-family="Helvetica,sans-Serif" font-size="10.00">GlobalEditBtn</text>
</g>
<!-- Node2 -->
<g id="node2" class="node"><title>Node2</title>
<g id="a_node2"><a xlink:href="../../d9/df3/classauthoring__environment_1_1_super_grid.html#a0f8021e23df3eb8657622455e0a2c70e" target="_top" xlink:title="authoring_environment.Super\lGrid.findClickedCoordinate">
<polygon fill="white" stroke="black" points="212,-186 212,-216 372,-216 372,-186 212,-186"/>
<text text-anchor="start" x="220" y="-204" font-family="Helvetica,sans-Serif" font-size="10.00">authoring_environment.Super</text>
<text text-anchor="middle" x="292" y="-193" font-family="Helvetica,sans-Serif" font-size="10.00">Grid.findClickedCoordinate</text>
</a>
</g>
</g>
<!-- Node1&#45;&gt;Node2 -->
<g id="edge1" class="edge"><title>Node1&#45;&gt;Node2</title>
<path fill="none" stroke="midnightblue" d="M103.16,-128.091C125.608,-142.157 161.011,-162.879 194,-176 200.297,-178.505 206.925,-180.826 213.636,-182.962"/>
<polygon fill="midnightblue" stroke="midnightblue" points="212.915,-186.401 223.501,-185.958 214.95,-179.703 212.915,-186.401"/>
</g>
<!-- Node5 -->
<g id="node5" class="node"><title>Node5</title>
<g id="a_node5"><a xlink:href="../../d6/d05/classfxml__main_1_1_g_u_i_grid_reference.html#ab47bae2ec738eb18d99809ec9443a2ae" target="_top" xlink:title="fxml_main.GUIGridReference.getGrid">
<polygon fill="white" stroke="black" points="196.5,-147.5 196.5,-166.5 387.5,-166.5 387.5,-147.5 196.5,-147.5"/>
<text text-anchor="middle" x="292" y="-154.5" font-family="Helvetica,sans-Serif" font-size="10.00">fxml_main.GUIGridReference.getGrid</text>
</a>
</g>
</g>
<!-- Node1&#45;&gt;Node5 -->
<g id="edge4" class="edge"><title>Node1&#45;&gt;Node5</title>
<path fill="none" stroke="midnightblue" d="M151.141,-128.025C165.336,-131.009 180.14,-134.112 194,-137 207.146,-139.739 221.297,-142.668 234.619,-145.416"/>
<polygon fill="midnightblue" stroke="midnightblue" points="234.112,-148.885 244.613,-147.477 235.525,-142.03 234.112,-148.885"/>
</g>
<!-- Node6 -->
<g id="node6" class="node"><title>Node6</title>
<g id="a_node6"><a xlink:href="../../da/d4c/classauthoring__environment_1_1_g_u_i_grid.html#a1ac1af9ff6b3cff9aee00db73948d1c0" target="_top" xlink:title="authoring_environment.GUIGrid.get\lPiece">
<polygon fill="white" stroke="black" points="198.5,-98 198.5,-128 385.5,-128 385.5,-98 198.5,-98"/>
<text text-anchor="start" x="206.5" y="-116" font-family="Helvetica,sans-Serif" font-size="10.00">authoring_environment.GUIGrid.get</text>
<text text-anchor="middle" x="292" y="-105" font-family="Helvetica,sans-Serif" font-size="10.00">Piece</text>
</a>
</g>
</g>
<!-- Node1&#45;&gt;Node6 -->
<g id="edge5" class="edge"><title>Node1&#45;&gt;Node6</title>
<path fill="none" stroke="midnightblue" d="M158.269,-113C168.033,-113 178.13,-113 188.195,-113"/>
<polygon fill="midnightblue" stroke="midnightblue" points="188.236,-116.5 198.236,-113 188.236,-109.5 188.236,-116.5"/>
</g>
<!-- Node8 -->
<g id="node8" class="node"><title>Node8</title>
<g id="a_node8"><a xlink:href="../../da/d4c/classauthoring__environment_1_1_g_u_i_grid.html#aae8bc45627f30916cd4acc2c7af270e6" target="_top" xlink:title="authoring_environment.GUIGrid.pane\lSetOnMouseDragged">
<polygon fill="white" stroke="black" points="194.5,-49 194.5,-79 389.5,-79 389.5,-49 194.5,-49"/>
<text text-anchor="start" x="202.5" y="-67" font-family="Helvetica,sans-Serif" font-size="10.00">authoring_environment.GUIGrid.pane</text>
<text text-anchor="middle" x="292" y="-56" font-family="Helvetica,sans-Serif" font-size="10.00">SetOnMouseDragged</text>
</a>
</g>
</g>
<!-- Node1&#45;&gt;Node8 -->
<g id="edge7" class="edge"><title>Node1&#45;&gt;Node8</title>
<path fill="none" stroke="midnightblue" d="M144.741,-97.9654C167.425,-92.6976 193.079,-86.7399 216.497,-81.3016"/>
<polygon fill="midnightblue" stroke="midnightblue" points="217.432,-84.6776 226.382,-79.0062 215.849,-77.8591 217.432,-84.6776"/>
</g>
<!-- Node9 -->
<g id="node9" class="node"><title>Node9</title>
<g id="a_node9"><a xlink:href="../../da/d4c/classauthoring__environment_1_1_g_u_i_grid.html#a6c232df2ba3770a08f2551069fdf8a85" target="_top" xlink:title="authoring_environment.GUIGrid.pane\lSetOnMousePressed">
<polygon fill="white" stroke="black" points="194.5,-0 194.5,-30 389.5,-30 389.5,-0 194.5,-0"/>
<text text-anchor="start" x="202.5" y="-18" font-family="Helvetica,sans-Serif" font-size="10.00">authoring_environment.GUIGrid.pane</text>
<text text-anchor="middle" x="292" y="-7" font-family="Helvetica,sans-Serif" font-size="10.00">SetOnMousePressed</text>
</a>
</g>
</g>
<!-- Node1&#45;&gt;Node9 -->
<g id="edge8" class="edge"><title>Node1&#45;&gt;Node9</title>
<path fill="none" stroke="midnightblue" d="M99.4974,-97.757C121.368,-81.3376 158.45,-55.4893 194,-40 199.702,-37.5156 205.704,-35.2374 211.811,-33.1562"/>
<polygon fill="midnightblue" stroke="midnightblue" points="213.021,-36.4438 221.466,-30.0469 210.875,-29.7808 213.021,-36.4438"/>
</g>
<!-- Node3 -->
<g id="node3" class="node"><title>Node3</title>
<g id="a_node3"><a xlink:href="../../d9/df3/classauthoring__environment_1_1_super_grid.html#a1fb6edb8c7c3cffe52aa25606fe261df" target="_top" xlink:title="authoring_environment.Super\lGrid.findClickedTile">
<polygon fill="white" stroke="black" points="426,-215 426,-245 586,-245 586,-215 426,-215"/>
<text text-anchor="start" x="434" y="-233" font-family="Helvetica,sans-Serif" font-size="10.00">authoring_environment.Super</text>
<text text-anchor="middle" x="506" y="-222" font-family="Helvetica,sans-Serif" font-size="10.00">Grid.findClickedTile</text>
</a>
</g>
</g>
<!-- Node2&#45;&gt;Node3 -->
<g id="edge2" class="edge"><title>Node2&#45;&gt;Node3</title>
<path fill="none" stroke="midnightblue" d="M372.242,-211.84C386.48,-213.787 401.408,-215.829 415.902,-217.812"/>
<polygon fill="midnightblue" stroke="midnightblue" points="415.471,-221.286 425.854,-219.173 416.42,-214.35 415.471,-221.286"/>
</g>
<!-- Node4 -->
<g id="node4" class="node"><title>Node4</title>
<g id="a_node4"><a xlink:href="../../dc/d5a/classauthoring__environment_1_1_super_tile.html#af9a11e74113f35feeb5142a4927cebbb" target="_top" xlink:title="authoring_environment.Super\lTile.getCoordinates">
<polygon fill="white" stroke="black" points="426,-166 426,-196 586,-196 586,-166 426,-166"/>
<text text-anchor="start" x="434" y="-184" font-family="Helvetica,sans-Serif" font-size="10.00">authoring_environment.Super</text>
<text text-anchor="middle" x="506" y="-173" font-family="Helvetica,sans-Serif" font-size="10.00">Tile.getCoordinates</text>
</a>
</g>
</g>
<!-- Node2&#45;&gt;Node4 -->
<g id="edge3" class="edge"><title>Node2&#45;&gt;Node4</title>
<path fill="none" stroke="midnightblue" d="M372.242,-193.524C386.344,-192.194 401.121,-190.8 415.484,-189.445"/>
<polygon fill="midnightblue" stroke="midnightblue" points="416.227,-192.89 425.854,-188.467 415.569,-185.921 416.227,-192.89"/>
</g>
<!-- Node7 -->
<g id="node7" class="node"><title>Node7</title>
<g id="a_node7"><a xlink:href="../../d6/dda/classauthoring_1_1data_1_1_piece_instance_data.html#afb4443eda20595533c28fe05f079fb48" target="_top" xlink:title="authoring.data.PieceInstance\lData.getData">
<polygon fill="white" stroke="black" points="428,-98 428,-128 584,-128 584,-98 428,-98"/>
<text text-anchor="start" x="436" y="-116" font-family="Helvetica,sans-Serif" font-size="10.00">authoring.data.PieceInstance</text>
<text text-anchor="middle" x="506" y="-105" font-family="Helvetica,sans-Serif" font-size="10.00">Data.getData</text>
</a>
</g>
</g>
<!-- Node6&#45;&gt;Node7 -->
<g id="edge6" class="edge"><title>Node6&#45;&gt;Node7</title>
<path fill="none" stroke="midnightblue" d="M385.678,-113C396.317,-113 407.137,-113 417.702,-113"/>
<polygon fill="midnightblue" stroke="midnightblue" points="417.738,-116.5 427.738,-113 417.738,-109.5 417.738,-116.5"/>
</g>
</g>
</svg>
