<?xml version="1.0" encoding="UTF-8" standalone="no"?>
<!DOCTYPE svg PUBLIC "-//W3C//DTD SVG 1.1//EN"
 "http://www.w3.org/Graphics/SVG/1.1/DTD/svg11.dtd">
<!-- Generated by graphviz version 2.36.0 (20140111.2315)
 -->
<!-- Title: fxml_main.PieceController.makeEntryBox Pages: 1 -->
<!--zoomable 434 -->
<svg id="main" version="1.1" xmlns="http://www.w3.org/2000/svg" xmlns:xlink="http://www.w3.org/1999/xlink" xml:space="preserve" onload="init(evt)">
<style type="text/css"><![CDATA[
.edge:hover path { stroke: red; }
.edge:hover polygon { stroke: red; fill: red; }
]]></style>
<script type="text/javascript"><![CDATA[
var edges = document.getElementsByTagName('g');
if (edges && edges.length) {
  for (var i=0;i<edges.length;i++) {
    if (edges[i].id.substr(0,4)=='edge') {
      edges[i].setAttribute('class','edge');
    }
  }
}
]]></script>
        <defs>
                <circle id="rim" cx="0" cy="0" r="7"/>
                <circle id="rim2" cx="0" cy="0" r="3.5"/>
                <g id="zoomPlus">
                        <use xlink:href="#rim" fill="#404040">
                                <set attributeName="fill" to="#808080" begin="zoomplus.mouseover" end="zoomplus.mouseout"/>
                        </use>
                        <path d="M-4,0h8M0,-4v8" fill="none" stroke="white" stroke-width="1.5" pointer-events="none"/>
                </g>
                <g id="zoomMin">
                        <use xlink:href="#rim" fill="#404040">
                                <set attributeName="fill" to="#808080" begin="zoomminus.mouseover" end="zoomminus.mouseout"/>
                        </use>
                        <path d="M-4,0h8" fill="none" stroke="white" stroke-width="1.5" pointer-events="none"/>
                </g>
                <g id="dirArrow">
                        <path fill="none" stroke="white" stroke-width="1.5" d="M0,-3.0v7 M-2.5,-0.5L0,-3.0L2.5,-0.5"/>
                </g>
               <g id="resetDef">
                       <use xlink:href="#rim2" fill="#404040">
                               <set attributeName="fill" to="#808080" begin="reset.mouseover" end="reset.mouseout"/>
                       </use>
               </g>
        </defs>

<script type="text/javascript">
var viewWidth = 1094;
var viewHeight = 434;
var sectionId = 'dynsection-7';
</script>
<script xlink:href="../../svgpan.js"/>
<svg id="graph" class="graph">
<g id="viewport">
<title>fxml_main.PieceController.makeEntryBox</title>
<polygon fill="white" stroke="none" points="-4,4 -4,-430 1090,-430 1090,4 -4,4"/>
<!-- Node1 -->
<g id="node1" class="node"><title>Node1</title>
<polygon fill="#bfbfbf" stroke="black" points="0,-142 0,-172 170,-172 170,-142 0,-142"/>
<text text-anchor="start" x="8" y="-160" font-family="Helvetica,sans-Serif" font-size="10.00">fxml_main.PieceController.make</text>
<text text-anchor="middle" x="85" y="-149" font-family="Helvetica,sans-Serif" font-size="10.00">EntryBox</text>
</g>
<!-- Node2 -->
<g id="node2" class="node"><title>Node2</title>
<g id="a_node2"><a xlink:href="../../da/d4c/classauthoring__environment_1_1_g_u_i_grid.html#a064e421c8d8d0268bb7d1db7e66590b5" target="_top" xlink:title="authoring_environment.GUIGrid.add\lPieceAtLoc">
<polygon fill="white" stroke="black" points="209.5,-281 209.5,-311 398.5,-311 398.5,-281 209.5,-281"/>
<text text-anchor="start" x="217.5" y="-299" font-family="Helvetica,sans-Serif" font-size="10.00">authoring_environment.GUIGrid.add</text>
<text text-anchor="middle" x="304" y="-288" font-family="Helvetica,sans-Serif" font-size="10.00">PieceAtLoc</text>
</a>
</g>
</g>
<!-- Node1&#45;&gt;Node2 -->
<g id="edge1" class="edge"><title>Node1&#45;&gt;Node2</title>
<path fill="none" stroke="midnightblue" d="M109.636,-172.14C148.687,-197.155 226.733,-247.147 270.794,-275.371"/>
<polygon fill="midnightblue" stroke="midnightblue" points="269.085,-278.432 279.393,-280.879 272.86,-272.538 269.085,-278.432"/>
</g>
<!-- Node4 -->
<g id="node4" class="node"><title>Node4</title>
<g id="a_node4"><a xlink:href="../../d9/df2/classgamedata_1_1gamecomponents_1_1_grid_component.html#a9a5b2359d22e7d79d5065826a0dc8211" target="_top" xlink:title="gamedata.gamecomponents.\lGridComponent.getImageView">
<polygon fill="white" stroke="black" points="460.5,-396 460.5,-426 623.5,-426 623.5,-396 460.5,-396"/>
<text text-anchor="start" x="468.5" y="-414" font-family="Helvetica,sans-Serif" font-size="10.00">gamedata.gamecomponents.</text>
<text text-anchor="middle" x="542" y="-403" font-family="Helvetica,sans-Serif" font-size="10.00">GridComponent.getImageView</text>
</a>
</g>
</g>
<!-- Node1&#45;&gt;Node4 -->
<g id="edge21" class="edge"><title>Node1&#45;&gt;Node4</title>
<path fill="none" stroke="midnightblue" d="M92.8855,-172.201C108.314,-204.517 148.838,-280.331 206,-320 278.942,-370.62 378.873,-393.116 450.574,-403.093"/>
<polygon fill="midnightblue" stroke="midnightblue" points="450.123,-406.563 460.499,-404.419 451.05,-399.625 450.123,-406.563"/>
</g>
<!-- Node16 -->
<g id="node16" class="node"><title>Node16</title>
<g id="a_node16"><a xlink:href="../../d9/df3/classauthoring__environment_1_1_super_grid.html#a0f8021e23df3eb8657622455e0a2c70e" target="_top" xlink:title="authoring_environment.Super\lGrid.findClickedCoordinate">
<polygon fill="white" stroke="black" points="224,-186 224,-216 384,-216 384,-186 224,-186"/>
<text text-anchor="start" x="232" y="-204" font-family="Helvetica,sans-Serif" font-size="10.00">authoring_environment.Super</text>
<text text-anchor="middle" x="304" y="-193" font-family="Helvetica,sans-Serif" font-size="10.00">Grid.findClickedCoordinate</text>
</a>
</g>
</g>
<!-- Node1&#45;&gt;Node16 -->
<g id="edge17" class="edge"><title>Node1&#45;&gt;Node16</title>
<path fill="none" stroke="midnightblue" d="M160.072,-172.019C178.997,-175.856 199.48,-180.01 218.868,-183.941"/>
<polygon fill="midnightblue" stroke="midnightblue" points="218.397,-187.417 228.893,-185.974 219.788,-180.556 218.397,-187.417"/>
</g>
<!-- Node19 -->
<g id="node19" class="node"><title>Node19</title>
<g id="a_node19"><a xlink:href="../../d6/d05/classfxml__main_1_1_g_u_i_grid_reference.html#ab47bae2ec738eb18d99809ec9443a2ae" target="_top" xlink:title="fxml_main.GUIGridReference.getGrid">
<polygon fill="white" stroke="black" points="208.5,-147.5 208.5,-166.5 399.5,-166.5 399.5,-147.5 208.5,-147.5"/>
<text text-anchor="middle" x="304" y="-154.5" font-family="Helvetica,sans-Serif" font-size="10.00">fxml_main.GUIGridReference.getGrid</text>
</a>
</g>
</g>
<!-- Node1&#45;&gt;Node19 -->
<g id="edge20" class="edge"><title>Node1&#45;&gt;Node19</title>
<path fill="none" stroke="midnightblue" d="M170.208,-157C179.395,-157 188.826,-157 198.22,-157"/>
<polygon fill="midnightblue" stroke="midnightblue" points="198.386,-160.5 208.386,-157 198.386,-153.5 198.386,-160.5"/>
</g>
<!-- Node20 -->
<g id="node20" class="node"><title>Node20</title>
<g id="a_node20"><a xlink:href="../../d9/df2/classgamedata_1_1gamecomponents_1_1_grid_component.html#a36576ab9ef1e03a9b5855f1f05e2190f" target="_top" xlink:title="gamedata.gamecomponents.\lGridComponent.getName">
<polygon fill="white" stroke="black" points="224,-98 224,-128 384,-128 384,-98 224,-98"/>
<text text-anchor="start" x="232" y="-116" font-family="Helvetica,sans-Serif" font-size="10.00">gamedata.gamecomponents.</text>
<text text-anchor="middle" x="304" y="-105" font-family="Helvetica,sans-Serif" font-size="10.00">GridComponent.getName</text>
</a>
</g>
</g>
<!-- Node1&#45;&gt;Node20 -->
<g id="edge22" class="edge"><title>Node1&#45;&gt;Node20</title>
<path fill="none" stroke="midnightblue" d="M160.072,-141.981C178.997,-138.144 199.48,-133.99 218.868,-130.059"/>
<polygon fill="midnightblue" stroke="midnightblue" points="219.788,-133.444 228.893,-128.026 218.397,-126.583 219.788,-133.444"/>
</g>
<!-- Node21 -->
<g id="node21" class="node"><title>Node21</title>
<g id="a_node21"><a xlink:href="../../da/d4c/classauthoring__environment_1_1_g_u_i_grid.html#aae8bc45627f30916cd4acc2c7af270e6" target="_top" xlink:title="authoring_environment.GUIGrid.pane\lSetOnMouseDragged">
<polygon fill="white" stroke="black" points="206.5,-49 206.5,-79 401.5,-79 401.5,-49 206.5,-49"/>
<text text-anchor="start" x="214.5" y="-67" font-family="Helvetica,sans-Serif" font-size="10.00">authoring_environment.GUIGrid.pane</text>
<text text-anchor="middle" x="304" y="-56" font-family="Helvetica,sans-Serif" font-size="10.00">SetOnMouseDragged</text>
</a>
</g>
</g>
<!-- Node1&#45;&gt;Node21 -->
<g id="edge23" class="edge"><title>Node1&#45;&gt;Node21</title>
<path fill="none" stroke="midnightblue" d="M108.045,-141.796C131.418,-126.294 169.877,-102.52 206,-88 211.362,-85.8447 216.971,-83.8439 222.672,-81.9939"/>
<polygon fill="midnightblue" stroke="midnightblue" points="223.798,-85.3094 232.326,-79.0222 221.739,-78.6192 223.798,-85.3094"/>
</g>
<!-- Node22 -->
<g id="node22" class="node"><title>Node22</title>
<g id="a_node22"><a xlink:href="../../da/d4c/classauthoring__environment_1_1_g_u_i_grid.html#a6c232df2ba3770a08f2551069fdf8a85" target="_top" xlink:title="authoring_environment.GUIGrid.pane\lSetOnMousePressed">
<polygon fill="white" stroke="black" points="206.5,-0 206.5,-30 401.5,-30 401.5,-0 206.5,-0"/>
<text text-anchor="start" x="214.5" y="-18" font-family="Helvetica,sans-Serif" font-size="10.00">authoring_environment.GUIGrid.pane</text>
<text text-anchor="middle" x="304" y="-7" font-family="Helvetica,sans-Serif" font-size="10.00">SetOnMousePressed</text>
</a>
</g>
</g>
<!-- Node1&#45;&gt;Node22 -->
<g id="edge24" class="edge"><title>Node1&#45;&gt;Node22</title>
<path fill="none" stroke="midnightblue" d="M97.0597,-141.715C116.261,-116.336 158.309,-65.6623 206,-39 209.298,-37.1561 212.737,-35.4522 216.27,-33.8779"/>
<polygon fill="midnightblue" stroke="midnightblue" points="217.856,-37.0114 225.804,-30.006 215.222,-30.5258 217.856,-37.0114"/>
</g>
<!-- Node3 -->
<g id="node3" class="node"><title>Node3</title>
<g id="a_node3"><a xlink:href="../../d6/dda/classauthoring_1_1data_1_1_piece_instance_data.html#a2517f3bd508a388343c4e5343d6391e8" target="_top" xlink:title="authoring.data.PieceInstance\lData.add">
<polygon fill="white" stroke="black" points="464,-347 464,-377 620,-377 620,-347 464,-347"/>
<text text-anchor="start" x="472" y="-365" font-family="Helvetica,sans-Serif" font-size="10.00">authoring.data.PieceInstance</text>
<text text-anchor="middle" x="542" y="-354" font-family="Helvetica,sans-Serif" font-size="10.00">Data.add</text>
</a>
</g>
</g>
<!-- Node2&#45;&gt;Node3 -->
<g id="edge2" class="edge"><title>Node2&#45;&gt;Node3</title>
<path fill="none" stroke="midnightblue" d="M358.847,-311.059C394.064,-320.908 440.233,-333.82 477.278,-344.179"/>
<polygon fill="midnightblue" stroke="midnightblue" points="476.403,-347.569 486.976,-346.892 478.288,-340.828 476.403,-347.569"/>
</g>
<!-- Node2&#45;&gt;Node4 -->
<g id="edge3" class="edge"><title>Node2&#45;&gt;Node4</title>
<path fill="none" stroke="midnightblue" d="M322.701,-311.058C347.091,-331.053 393.126,-366.148 438,-386 443.687,-388.516 449.668,-390.803 455.766,-392.879"/>
<polygon fill="midnightblue" stroke="midnightblue" points="454.828,-396.253 465.419,-395.968 456.961,-389.586 454.828,-396.253"/>
</g>
<!-- Node6 -->
<g id="node6" class="node"><title>Node6</title>
<g id="a_node6"><a xlink:href="../../da/d4c/classauthoring__environment_1_1_g_u_i_grid.html#a11c99629d13f4fd80d59bcd66a794695" target="_top" xlink:title="authoring_environment.GUIGrid.is\lPieceOccupied">
<polygon fill="white" stroke="black" points="696.5,-306 696.5,-336 875.5,-336 875.5,-306 696.5,-306"/>
<text text-anchor="start" x="704.5" y="-324" font-family="Helvetica,sans-Serif" font-size="10.00">authoring_environment.GUIGrid.is</text>
<text text-anchor="middle" x="786" y="-313" font-family="Helvetica,sans-Serif" font-size="10.00">PieceOccupied</text>
</a>
</g>
</g>
<!-- Node2&#45;&gt;Node6 -->
<g id="edge5" class="edge"><title>Node2&#45;&gt;Node6</title>
<path fill="none" stroke="midnightblue" d="M398.688,-300.88C481.535,-305.195 601.994,-311.468 686.312,-315.86"/>
<polygon fill="midnightblue" stroke="midnightblue" points="686.241,-319.361 696.41,-316.386 686.606,-312.37 686.241,-319.361"/>
</g>
<!-- Node8 -->
<g id="node8" class="node"><title>Node8</title>
<g id="a_node8"><a xlink:href="../../da/d4c/classauthoring__environment_1_1_g_u_i_grid.html#afe59bd9dfeddc383a541f50fda3e647a" target="_top" xlink:title="authoring_environment.GUIGrid.remove\lPieceAtCoordinate">
<polygon fill="white" stroke="black" points="438,-259 438,-289 646,-289 646,-259 438,-259"/>
<text text-anchor="start" x="446" y="-277" font-family="Helvetica,sans-Serif" font-size="10.00">authoring_environment.GUIGrid.remove</text>
<text text-anchor="middle" x="542" y="-266" font-family="Helvetica,sans-Serif" font-size="10.00">PieceAtCoordinate</text>
</a>
</g>
</g>
<!-- Node2&#45;&gt;Node8 -->
<g id="edge7" class="edge"><title>Node2&#45;&gt;Node8</title>
<path fill="none" stroke="midnightblue" d="M398.612,-287.273C408.164,-286.383 417.938,-285.472 427.67,-284.565"/>
<polygon fill="midnightblue" stroke="midnightblue" points="428.153,-288.035 437.785,-283.622 427.503,-281.065 428.153,-288.035"/>
</g>
<!-- Node15 -->
<g id="node15" class="node"><title>Node15</title>
<g id="a_node15"><a xlink:href="../../dc/d5a/classauthoring__environment_1_1_super_tile.html#af7f7917a6fb88cc3145cd6f981a80f79" target="_top" xlink:title="authoring_environment.Super\lTile.setPieceImage">
<polygon fill="white" stroke="black" points="462,-210 462,-240 622,-240 622,-210 462,-210"/>
<text text-anchor="start" x="470" y="-228" font-family="Helvetica,sans-Serif" font-size="10.00">authoring_environment.Super</text>
<text text-anchor="middle" x="542" y="-217" font-family="Helvetica,sans-Serif" font-size="10.00">Tile.setPieceImage</text>
</a>
</g>
</g>
<!-- Node2&#45;&gt;Node15 -->
<g id="edge16" class="edge"><title>Node2&#45;&gt;Node15</title>
<path fill="none" stroke="midnightblue" d="M345.424,-280.899C371.619,-271.393 406.586,-259.222 438,-250 446.752,-247.431 455.977,-244.919 465.163,-242.539"/>
<polygon fill="midnightblue" stroke="midnightblue" points="466.264,-245.87 475.091,-240.012 464.537,-239.087 466.264,-245.87"/>
</g>
<!-- Node5 -->
<g id="node5" class="node"><title>Node5</title>
<g id="a_node5"><a xlink:href="../../d9/df2/classgamedata_1_1gamecomponents_1_1_grid_component.html#a224e5aae28655f7e26ff73cbde7b0d99" target="_top" xlink:title="gamedata.gamecomponents.\lGridComponent.setImageView">
<polygon fill="white" stroke="black" points="705,-396 705,-426 867,-426 867,-396 705,-396"/>
<text text-anchor="start" x="713" y="-414" font-family="Helvetica,sans-Serif" font-size="10.00">gamedata.gamecomponents.</text>
<text text-anchor="middle" x="786" y="-403" font-family="Helvetica,sans-Serif" font-size="10.00">GridComponent.setImageView</text>
</a>
</g>
</g>
<!-- Node4&#45;&gt;Node5 -->
<g id="edge4" class="edge"><title>Node4&#45;&gt;Node5</title>
<path fill="none" stroke="midnightblue" d="M623.582,-411C646.339,-411 671.251,-411 694.546,-411"/>
<polygon fill="midnightblue" stroke="midnightblue" points="694.769,-414.5 704.769,-411 694.769,-407.5 694.769,-414.5"/>
</g>
<!-- Node7 -->
<g id="node7" class="node"><title>Node7</title>
<g id="a_node7"><a xlink:href="../../d6/dda/classauthoring_1_1data_1_1_piece_instance_data.html#afb4443eda20595533c28fe05f079fb48" target="_top" xlink:title="authoring.data.PieceInstance\lData.getData">
<polygon fill="white" stroke="black" points="928,-306 928,-336 1084,-336 1084,-306 928,-306"/>
<text text-anchor="start" x="936" y="-324" font-family="Helvetica,sans-Serif" font-size="10.00">authoring.data.PieceInstance</text>
<text text-anchor="middle" x="1006" y="-313" font-family="Helvetica,sans-Serif" font-size="10.00">Data.getData</text>
</a>
</g>
</g>
<!-- Node6&#45;&gt;Node7 -->
<g id="edge6" class="edge"><title>Node6&#45;&gt;Node7</title>
<path fill="none" stroke="midnightblue" d="M875.669,-321C889.613,-321 904.017,-321 917.924,-321"/>
<polygon fill="midnightblue" stroke="midnightblue" points="917.95,-324.5 927.95,-321 917.95,-317.5 917.95,-324.5"/>
</g>
<!-- Node8&#45;&gt;Node6 -->
<g id="edge10" class="edge"><title>Node8&#45;&gt;Node6</title>
<path fill="none" stroke="midnightblue" d="M620.236,-289C644.903,-293.791 672.375,-299.127 697.705,-304.046"/>
<polygon fill="midnightblue" stroke="midnightblue" points="697.184,-307.51 707.668,-305.981 698.519,-300.639 697.184,-307.51"/>
</g>
<!-- Node9 -->
<g id="node9" class="node"><title>Node9</title>
<g id="a_node9"><a xlink:href="../../da/d4c/classauthoring__environment_1_1_g_u_i_grid.html#a1ac1af9ff6b3cff9aee00db73948d1c0" target="_top" xlink:title="authoring_environment.GUIGrid.get\lPiece">
<polygon fill="white" stroke="black" points="692.5,-257 692.5,-287 879.5,-287 879.5,-257 692.5,-257"/>
<text text-anchor="start" x="700.5" y="-275" font-family="Helvetica,sans-Serif" font-size="10.00">authoring_environment.GUIGrid.get</text>
<text text-anchor="middle" x="786" y="-264" font-family="Helvetica,sans-Serif" font-size="10.00">Piece</text>
</a>
</g>
</g>
<!-- Node8&#45;&gt;Node9 -->
<g id="edge8" class="edge"><title>Node8&#45;&gt;Node9</title>
<path fill="none" stroke="midnightblue" d="M646.332,-273.146C658.156,-273.048 670.21,-272.949 682.029,-272.851"/>
<polygon fill="midnightblue" stroke="midnightblue" points="682.373,-276.348 692.343,-272.766 682.315,-269.349 682.373,-276.348"/>
</g>
<!-- Node10 -->
<g id="node10" class="node"><title>Node10</title>
<g id="a_node10"><a xlink:href="../../da/d4c/classauthoring__environment_1_1_g_u_i_grid.html#a53382a0de9f44f0642c3c9c5b009e613" target="_top" xlink:title="authoring_environment.GUIGrid.remove\lPiece">
<polygon fill="white" stroke="black" points="682,-208 682,-238 890,-238 890,-208 682,-208"/>
<text text-anchor="start" x="690" y="-226" font-family="Helvetica,sans-Serif" font-size="10.00">authoring_environment.GUIGrid.remove</text>
<text text-anchor="middle" x="786" y="-215" font-family="Helvetica,sans-Serif" font-size="10.00">Piece</text>
</a>
</g>
</g>
<!-- Node8&#45;&gt;Node10 -->
<g id="edge11" class="edge"><title>Node8&#45;&gt;Node10</title>
<path fill="none" stroke="midnightblue" d="M614.299,-258.974C642.36,-253.06 674.738,-246.237 703.703,-240.133"/>
<polygon fill="midnightblue" stroke="midnightblue" points="704.729,-243.493 713.793,-238.006 703.286,-236.644 704.729,-243.493"/>
</g>
<!-- Node9&#45;&gt;Node7 -->
<g id="edge9" class="edge"><title>Node9&#45;&gt;Node7</title>
<path fill="none" stroke="midnightblue" d="M853.889,-287.035C877.43,-292.326 904.067,-298.313 928.349,-303.771"/>
<polygon fill="midnightblue" stroke="midnightblue" points="927.714,-307.216 938.238,-305.994 929.249,-300.386 927.714,-307.216"/>
</g>
<!-- Node11 -->
<g id="node11" class="node"><title>Node11</title>
<g id="a_node11"><a xlink:href="../../d9/df3/classauthoring__environment_1_1_super_grid.html#aa57ca0acf0ef3aab7d5d98cf9cbbd1d7" target="_top" xlink:title="authoring_environment.Super\lGrid.findTile">
<polygon fill="white" stroke="black" points="926,-257 926,-287 1086,-287 1086,-257 926,-257"/>
<text text-anchor="start" x="934" y="-275" font-family="Helvetica,sans-Serif" font-size="10.00">authoring_environment.Super</text>
<text text-anchor="middle" x="1006" y="-264" font-family="Helvetica,sans-Serif" font-size="10.00">Grid.findTile</text>
</a>
</g>
</g>
<!-- Node10&#45;&gt;Node11 -->
<g id="edge12" class="edge"><title>Node10&#45;&gt;Node11</title>
<path fill="none" stroke="midnightblue" d="M853.889,-238.035C877.43,-243.326 904.067,-249.313 928.349,-254.771"/>
<polygon fill="midnightblue" stroke="midnightblue" points="927.714,-258.216 938.238,-256.994 929.249,-251.386 927.714,-258.216"/>
</g>
<!-- Node12 -->
<g id="node12" class="node"><title>Node12</title>
<g id="a_node12"><a xlink:href="../../d9/df2/classgamedata_1_1gamecomponents_1_1_grid_component.html#a97439a493db38860397436079b123e8c" target="_top" xlink:title="gamedata.gamecomponents.\lGridComponent.getLoc">
<polygon fill="white" stroke="black" points="926,-208 926,-238 1086,-238 1086,-208 926,-208"/>
<text text-anchor="start" x="934" y="-226" font-family="Helvetica,sans-Serif" font-size="10.00">gamedata.gamecomponents.</text>
<text text-anchor="middle" x="1006" y="-215" font-family="Helvetica,sans-Serif" font-size="10.00">GridComponent.getLoc</text>
</a>
</g>
</g>
<!-- Node10&#45;&gt;Node12 -->
<g id="edge13" class="edge"><title>Node10&#45;&gt;Node12</title>
<path fill="none" stroke="midnightblue" d="M890.254,-223C898.782,-223 907.358,-223 915.77,-223"/>
<polygon fill="midnightblue" stroke="midnightblue" points="915.937,-226.5 925.937,-223 915.937,-219.5 915.937,-226.5"/>
</g>
<!-- Node13 -->
<g id="node13" class="node"><title>Node13</title>
<g id="a_node13"><a xlink:href="../../d6/dda/classauthoring_1_1data_1_1_piece_instance_data.html#a80a0e534e9cb103879f99230bc05efe7" target="_top" xlink:title="authoring.data.PieceInstance\lData.remove">
<polygon fill="white" stroke="black" points="928,-159 928,-189 1084,-189 1084,-159 928,-159"/>
<text text-anchor="start" x="936" y="-177" font-family="Helvetica,sans-Serif" font-size="10.00">authoring.data.PieceInstance</text>
<text text-anchor="middle" x="1006" y="-166" font-family="Helvetica,sans-Serif" font-size="10.00">Data.remove</text>
</a>
</g>
</g>
<!-- Node10&#45;&gt;Node13 -->
<g id="edge14" class="edge"><title>Node10&#45;&gt;Node13</title>
<path fill="none" stroke="midnightblue" d="M853.889,-207.965C877.43,-202.674 904.067,-196.687 928.349,-191.229"/>
<polygon fill="midnightblue" stroke="midnightblue" points="929.249,-194.614 938.238,-189.006 927.714,-187.784 929.249,-194.614"/>
</g>
<!-- Node14 -->
<g id="node14" class="node"><title>Node14</title>
<g id="a_node14"><a xlink:href="../../dc/d5a/classauthoring__environment_1_1_super_tile.html#aab4ca6a2e399a4f20d41eb9bc038f7aa" target="_top" xlink:title="authoring_environment.Super\lTile.removePieceImage">
<polygon fill="white" stroke="black" points="926,-110 926,-140 1086,-140 1086,-110 926,-110"/>
<text text-anchor="start" x="934" y="-128" font-family="Helvetica,sans-Serif" font-size="10.00">authoring_environment.Super</text>
<text text-anchor="middle" x="1006" y="-117" font-family="Helvetica,sans-Serif" font-size="10.00">Tile.removePieceImage</text>
</a>
</g>
</g>
<!-- Node10&#45;&gt;Node14 -->
<g id="edge15" class="edge"><title>Node10&#45;&gt;Node14</title>
<path fill="none" stroke="midnightblue" d="M811.899,-207.836C839.174,-191.683 884.567,-166.132 926,-149 930.763,-147.031 935.746,-145.141 940.793,-143.348"/>
<polygon fill="midnightblue" stroke="midnightblue" points="942.205,-146.564 950.539,-140.022 939.944,-139.94 942.205,-146.564"/>
</g>
<!-- Node17 -->
<g id="node17" class="node"><title>Node17</title>
<g id="a_node17"><a xlink:href="../../d9/df3/classauthoring__environment_1_1_super_grid.html#a1fb6edb8c7c3cffe52aa25606fe261df" target="_top" xlink:title="authoring_environment.Super\lGrid.findClickedTile">
<polygon fill="white" stroke="black" points="462,-161 462,-191 622,-191 622,-161 462,-161"/>
<text text-anchor="start" x="470" y="-179" font-family="Helvetica,sans-Serif" font-size="10.00">authoring_environment.Super</text>
<text text-anchor="middle" x="542" y="-168" font-family="Helvetica,sans-Serif" font-size="10.00">Grid.findClickedTile</text>
</a>
</g>
</g>
<!-- Node16&#45;&gt;Node17 -->
<g id="edge18" class="edge"><title>Node16&#45;&gt;Node17</title>
<path fill="none" stroke="midnightblue" d="M384.241,-192.606C405.956,-190.306 429.641,-187.797 451.87,-185.442"/>
<polygon fill="midnightblue" stroke="midnightblue" points="452.392,-188.906 461.968,-184.372 451.655,-181.945 452.392,-188.906"/>
</g>
<!-- Node18 -->
<g id="node18" class="node"><title>Node18</title>
<g id="a_node18"><a xlink:href="../../dc/d5a/classauthoring__environment_1_1_super_tile.html#af9a11e74113f35feeb5142a4927cebbb" target="_top" xlink:title="authoring_environment.Super\lTile.getCoordinates">
<polygon fill="white" stroke="black" points="462,-112 462,-142 622,-142 622,-112 462,-112"/>
<text text-anchor="start" x="470" y="-130" font-family="Helvetica,sans-Serif" font-size="10.00">authoring_environment.Super</text>
<text text-anchor="middle" x="542" y="-119" font-family="Helvetica,sans-Serif" font-size="10.00">Tile.getCoordinates</text>
</a>
</g>
</g>
<!-- Node16&#45;&gt;Node18 -->
<g id="edge19" class="edge"><title>Node16&#45;&gt;Node18</title>
<path fill="none" stroke="midnightblue" d="M375.7,-185.932C384.724,-183.097 393.7,-179.803 402,-176 419.709,-167.886 420.197,-158.907 438,-151 442.704,-148.911 447.612,-146.992 452.625,-145.23"/>
<polygon fill="midnightblue" stroke="midnightblue" points="453.955,-148.477 462.364,-142.033 451.772,-141.826 453.955,-148.477"/>
</g>
</g>
</svg>
        <g id="navigator" transform="translate(0 0)" fill="#404254">
                <rect fill="#f2f5e9" fill-opacity="0.5" stroke="#606060" stroke-width=".5" x="0" y="0" width="60" height="60"/>
                <use id="zoomplus" xlink:href="#zoomPlus" x="17" y="9" onmousedown="handleZoom(evt,'in')"/>
                <use id="zoomminus" xlink:href="#zoomMin" x="42" y="9" onmousedown="handleZoom(evt,'out')"/>
                <use id="reset" xlink:href="#resetDef" x="30" y="36" onmousedown="handleReset()"/>
                <g id="arrowUp" xlink:href="#dirArrow" transform="translate(30 24)" onmousedown="handlePan(0,-1)">
                  <use xlink:href="#rim" fill="#404040">
                        <set attributeName="fill" to="#808080" begin="arrowUp.mouseover" end="arrowUp.mouseout"/>
                  </use>
                  <path fill="none" stroke="white" stroke-width="1.5" d="M0,-3.0v7 M-2.5,-0.5L0,-3.0L2.5,-0.5"/>
                </g>
                <g id="arrowRight" xlink:href="#dirArrow" transform="rotate(90) translate(36 -43)" onmousedown="handlePan(1,0)">
                  <use xlink:href="#rim" fill="#404040">
                        <set attributeName="fill" to="#808080" begin="arrowRight.mouseover" end="arrowRight.mouseout"/>
                  </use>
                  <path fill="none" stroke="white" stroke-width="1.5" d="M0,-3.0v7 M-2.5,-0.5L0,-3.0L2.5,-0.5"/>
                </g>
                <g id="arrowDown" xlink:href="#dirArrow" transform="rotate(180) translate(-30 -48)" onmousedown="handlePan(0,1)">
                  <use xlink:href="#rim" fill="#404040">
                        <set attributeName="fill" to="#808080" begin="arrowDown.mouseover" end="arrowDown.mouseout"/>
                  </use>
                  <path fill="none" stroke="white" stroke-width="1.5" d="M0,-3.0v7 M-2.5,-0.5L0,-3.0L2.5,-0.5"/>
                </g>
                <g id="arrowLeft" xlink:href="#dirArrow" transform="rotate(270) translate(-36 17)" onmousedown="handlePan(-1,0)">
                  <use xlink:href="#rim" fill="#404040">
                        <set attributeName="fill" to="#808080" begin="arrowLeft.mouseover" end="arrowLeft.mouseout"/>
                  </use>
                  <path fill="none" stroke="white" stroke-width="1.5" d="M0,-3.0v7 M-2.5,-0.5L0,-3.0L2.5,-0.5"/>
                </g>
        </g>
        <svg viewBox="0 0 15 15" width="100%" height="30px" preserveAspectRatio="xMaxYMin meet">
         <g id="arrow_out" transform="scale(0.3 0.3)">
          <a xlink:href="classfxml__main_1_1_piece_controller_a57d25cb33125e10494c536f9fbce1434_cgraph_org.svg" target="_base">
           <rect id="button" ry="5" rx="5" y="6" x="6" height="38" width="38"
                fill="#f2f5e9" fill-opacity="0.5" stroke="#606060" stroke-width="1.0"/>
           <path id="arrow"
             d="M 11.500037,31.436501 C 11.940474,20.09759 22.043105,11.32322 32.158766,21.979434 L 37.068811,17.246167 C 37.068811,17.246167 37.088388,32 37.088388,32 L 22.160133,31.978069 C 22.160133,31.978069 26.997745,27.140456 26.997745,27.140456 C 18.528582,18.264221 13.291696,25.230495 11.500037,31.436501 z"
             style="fill:#404040;"/>
          </a>
         </g>
        </svg>
</svg>
