<?xml version="1.0" encoding="UTF-8" standalone="no"?>
<!DOCTYPE svg PUBLIC "-//W3C//DTD SVG 1.1//EN"
 "http://www.w3.org/Graphics/SVG/1.1/DTD/svg11.dtd">
<!-- Generated by graphviz version 2.36.0 (20140111.2315)
 -->
<!-- Title: authoring.concretefeatures.ActionCheck.initialize Pages: 1 -->
<svg width="368pt" height="136pt"
 viewBox="0.00 0.00 368.00 136.00" xmlns="http://www.w3.org/2000/svg" xmlns:xlink="http://www.w3.org/1999/xlink">
<g id="graph0" class="graph" transform="scale(1 1) rotate(0) translate(4 132)">
<title>authoring.concretefeatures.ActionCheck.initialize</title>
<polygon fill="white" stroke="none" points="-4,4 -4,-132 364,-132 364,4 -4,4"/>
<!-- Node1 -->
<g id="node1" class="node"><title>Node1</title>
<polygon fill="#bfbfbf" stroke="black" points="0,-49 0,-79 150,-79 150,-49 0,-49"/>
<text text-anchor="start" x="8" y="-67" font-family="Helvetica,sans-Serif" font-size="10.00">authoring.concretefeatures.</text>
<text text-anchor="middle" x="75" y="-56" font-family="Helvetica,sans-Serif" font-size="10.00">ActionCheck.initialize</text>
</g>
<!-- Node2 -->
<g id="node2" class="node"><title>Node2</title>
<g id="a_node2"><a xlink:href="../../de/d84/classauthoring_1_1concretefeatures_1_1_action_check.html#a39f7658b18f361c7501f719b2cbfdc19" target="_top" xlink:title="authoring.concretefeatures.\lActionCheck.initActionChooser">
<polygon fill="white" stroke="black" points="191.5,-98 191.5,-128 354.5,-128 354.5,-98 191.5,-98"/>
<text text-anchor="start" x="199.5" y="-116" font-family="Helvetica,sans-Serif" font-size="10.00">authoring.concretefeatures.</text>
<text text-anchor="middle" x="273" y="-105" font-family="Helvetica,sans-Serif" font-size="10.00">ActionCheck.initActionChooser</text>
</a>
</g>
</g>
<!-- Node1&#45;&gt;Node2 -->
<g id="edge1" class="edge"><title>Node1&#45;&gt;Node2</title>
<path fill="none" stroke="midnightblue" d="M136.138,-79.0346C157.021,-84.2554 180.615,-90.1537 202.21,-95.5526"/>
<polygon fill="midnightblue" stroke="midnightblue" points="201.425,-98.9639 211.975,-97.9938 203.123,-92.1729 201.425,-98.9639"/>
</g>
<!-- Node3 -->
<g id="node3" class="node"><title>Node3</title>
<g id="a_node3"><a xlink:href="../../de/d84/classauthoring_1_1concretefeatures_1_1_action_check.html#acb5dda14bfbb4f416fc125032e409556" target="_top" xlink:title="authoring.concretefeatures.\lActionCheck.initActorChooser">
<polygon fill="white" stroke="black" points="194,-49 194,-79 352,-79 352,-49 194,-49"/>
<text text-anchor="start" x="202" y="-67" font-family="Helvetica,sans-Serif" font-size="10.00">authoring.concretefeatures.</text>
<text text-anchor="middle" x="273" y="-56" font-family="Helvetica,sans-Serif" font-size="10.00">ActionCheck.initActorChooser</text>
</a>
</g>
</g>
<!-- Node1&#45;&gt;Node3 -->
<g id="edge2" class="edge"><title>Node1&#45;&gt;Node3</title>
<path fill="none" stroke="midnightblue" d="M150.099,-64C161.055,-64 172.435,-64 183.645,-64"/>
<polygon fill="midnightblue" stroke="midnightblue" points="183.876,-67.5001 193.876,-64 183.876,-60.5001 183.876,-67.5001"/>
</g>
<!-- Node4 -->
<g id="node4" class="node"><title>Node4</title>
<g id="a_node4"><a xlink:href="../../de/d84/classauthoring_1_1concretefeatures_1_1_action_check.html#a3deff0f945039ab6684c67dd191d0386" target="_top" xlink:title="authoring.concretefeatures.\lActionCheck.initReceiverChooser">
<polygon fill="white" stroke="black" points="186.5,-0 186.5,-30 359.5,-30 359.5,-0 186.5,-0"/>
<text text-anchor="start" x="194.5" y="-18" font-family="Helvetica,sans-Serif" font-size="10.00">authoring.concretefeatures.</text>
<text text-anchor="middle" x="273" y="-7" font-family="Helvetica,sans-Serif" font-size="10.00">ActionCheck.initReceiverChooser</text>
</a>
</g>
</g>
<!-- Node1&#45;&gt;Node4 -->
<g id="edge3" class="edge"><title>Node1&#45;&gt;Node4</title>
<path fill="none" stroke="midnightblue" d="M136.138,-48.9654C157.021,-43.7446 180.615,-37.8463 202.21,-32.4474"/>
<polygon fill="midnightblue" stroke="midnightblue" points="203.123,-35.8271 211.975,-30.0062 201.425,-29.0361 203.123,-35.8271"/>
</g>
</g>
</svg>
