<?xml version="1.0" encoding="UTF-8" standalone="no"?>
<!DOCTYPE svg PUBLIC "-//W3C//DTD SVG 1.1//EN"
 "http://www.w3.org/Graphics/SVG/1.1/DTD/svg11.dtd">
<!-- Generated by graphviz version 2.36.0 (20140111.2315)
 -->
<!-- Title: authoring.concretefeatures.ActionCheck.initActorChooser Pages: 1 -->
<svg width="538pt" height="38pt"
 viewBox="0.00 0.00 538.00 38.00" xmlns="http://www.w3.org/2000/svg" xmlns:xlink="http://www.w3.org/1999/xlink">
<g id="graph0" class="graph" transform="scale(1 1) rotate(0) translate(4 34)">
<title>authoring.concretefeatures.ActionCheck.initActorChooser</title>
<polygon fill="white" stroke="none" points="-4,4 -4,-34 534,-34 534,4 -4,4"/>
<!-- Node1 -->
<g id="node1" class="node"><title>Node1</title>
<polygon fill="#bfbfbf" stroke="black" points="0,-0 0,-30 158,-30 158,-0 0,-0"/>
<text text-anchor="start" x="8" y="-18" font-family="Helvetica,sans-Serif" font-size="10.00">authoring.concretefeatures.</text>
<text text-anchor="middle" x="79" y="-7" font-family="Helvetica,sans-Serif" font-size="10.00">ActionCheck.initActorChooser</text>
</g>
<!-- Node2 -->
<g id="node2" class="node"><title>Node2</title>
<g id="a_node2"><a xlink:href="../../de/d84/classauthoring_1_1concretefeatures_1_1_action_check.html#ac778c67eac03e92c3922595d0b32db90" target="_top" xlink:title="authoring.concretefeatures.\lActionCheck.initialize">
<polygon fill="white" stroke="black" points="194,-0 194,-30 344,-30 344,-0 194,-0"/>
<text text-anchor="start" x="202" y="-18" font-family="Helvetica,sans-Serif" font-size="10.00">authoring.concretefeatures.</text>
<text text-anchor="middle" x="269" y="-7" font-family="Helvetica,sans-Serif" font-size="10.00">ActionCheck.initialize</text>
</a>
</g>
</g>
<!-- Node1&#45;&gt;Node2 -->
<g id="edge1" class="edge"><title>Node1&#45;&gt;Node2</title>
<path fill="none" stroke="midnightblue" d="M168.119,-15C176.698,-15 185.343,-15 193.766,-15"/>
<polygon fill="midnightblue" stroke="midnightblue" points="168.096,-11.5001 158.096,-15 168.096,-18.5001 168.096,-11.5001"/>
</g>
<!-- Node3 -->
<g id="node3" class="node"><title>Node3</title>
<g id="a_node3"><a xlink:href="../../de/d84/classauthoring_1_1concretefeatures_1_1_action_check.html#a93c6ef632760ab1f55a99f7e26685cf2" target="_top" xlink:title="authoring.concretefeatures.\lActionCheck.ActionCheck">
<polygon fill="white" stroke="black" points="380,-0 380,-30 530,-30 530,-0 380,-0"/>
<text text-anchor="start" x="388" y="-18" font-family="Helvetica,sans-Serif" font-size="10.00">authoring.concretefeatures.</text>
<text text-anchor="middle" x="455" y="-7" font-family="Helvetica,sans-Serif" font-size="10.00">ActionCheck.ActionCheck</text>
</a>
</g>
</g>
<!-- Node2&#45;&gt;Node3 -->
<g id="edge2" class="edge"><title>Node2&#45;&gt;Node3</title>
<path fill="none" stroke="midnightblue" d="M354.066,-15C362.654,-15 371.336,-15 379.808,-15"/>
<polygon fill="midnightblue" stroke="midnightblue" points="354.045,-11.5001 344.044,-15 354.044,-18.5001 354.045,-11.5001"/>
</g>
</g>
</svg>
