<?xml version="1.0" encoding="UTF-8" standalone="no"?>
<!DOCTYPE svg PUBLIC "-//W3C//DTD SVG 1.1//EN"
 "http://www.w3.org/Graphics/SVG/1.1/DTD/svg11.dtd">
<!-- Generated by graphviz version 2.36.0 (20140111.2315)
 -->
<!-- Title: utilities.leapMotion.PropertyStorage.save Pages: 1 -->
<svg width="326pt" height="38pt"
 viewBox="0.00 0.00 326.00 38.00" xmlns="http://www.w3.org/2000/svg" xmlns:xlink="http://www.w3.org/1999/xlink">
<g id="graph0" class="graph" transform="scale(1 1) rotate(0) translate(4 34)">
<title>utilities.leapMotion.PropertyStorage.save</title>
<polygon fill="white" stroke="none" points="-4,4 -4,-34 322,-34 322,4 -4,4"/>
<!-- Node1 -->
<g id="node1" class="node"><title>Node1</title>
<polygon fill="#bfbfbf" stroke="black" points="0.5,-0 0.5,-30 149.5,-30 149.5,-0 0.5,-0"/>
<text text-anchor="start" x="8.5" y="-18" font-family="Helvetica,sans-Serif" font-size="10.00">utilities.leapMotion.Property</text>
<text text-anchor="middle" x="75" y="-7" font-family="Helvetica,sans-Serif" font-size="10.00">Storage.save</text>
</g>
<!-- Node2 -->
<g id="node2" class="node"><title>Node2</title>
<g id="a_node2"><a xlink:href="../../dc/d64/classutilities_1_1leap_motion_1_1_leap_u_i_controller.html#a6d2ce3447200b120998d5778c9106fb8" target="_top" xlink:title="utilities.leapMotion.Leap\lUIController.okayAction">
<polygon fill="white" stroke="black" points="186,-0 186,-30 318,-30 318,-0 186,-0"/>
<text text-anchor="start" x="194" y="-18" font-family="Helvetica,sans-Serif" font-size="10.00">utilities.leapMotion.Leap</text>
<text text-anchor="middle" x="252" y="-7" font-family="Helvetica,sans-Serif" font-size="10.00">UIController.okayAction</text>
</a>
</g>
</g>
<!-- Node1&#45;&gt;Node2 -->
<g id="edge1" class="edge"><title>Node1&#45;&gt;Node2</title>
<path fill="none" stroke="midnightblue" d="M159.94,-15C168.692,-15 177.491,-15 185.987,-15"/>
<polygon fill="midnightblue" stroke="midnightblue" points="159.709,-11.5001 149.709,-15 159.709,-18.5001 159.709,-11.5001"/>
</g>
</g>
</svg>
