<?xml version="1.0" encoding="UTF-8" standalone="no"?>
<!DOCTYPE svg PUBLIC "-//W3C//DTD SVG 1.1//EN"
 "http://www.w3.org/Graphics/SVG/1.1/DTD/svg11.dtd">
<!-- Generated by graphviz version 2.36.0 (20140111.2315)
 -->
<!-- Title: gamedata.rules.Rule Pages: 1 -->
<svg width="330pt" height="153pt"
 viewBox="0.00 0.00 330.00 153.00" xmlns="http://www.w3.org/2000/svg" xmlns:xlink="http://www.w3.org/1999/xlink">
<g id="graph0" class="graph" transform="scale(1 1) rotate(0) translate(4 149)">
<title>gamedata.rules.Rule</title>
<polygon fill="white" stroke="none" points="-4,4 -4,-149 326,-149 326,4 -4,4"/>
<!-- Node1 -->
<g id="node1" class="node"><title>Node1</title>
<polygon fill="#bfbfbf" stroke="black" points="0.5,-57.5 0.5,-76.5 115.5,-76.5 115.5,-57.5 0.5,-57.5"/>
<text text-anchor="middle" x="58" y="-64.5" font-family="Helvetica,sans-Serif" font-size="10.00">gamedata.rules.Rule</text>
</g>
<!-- Node2 -->
<g id="node2" class="node"><title>Node2</title>
<g id="a_node2"><a xlink:href="../../d2/d81/classgamedata_1_1rules_1_1_available_moves_rule.html" target="_top" xlink:title="gamedata.rules.Available\lMovesRule">
<polygon fill="white" stroke="black" points="168.5,-115 168.5,-145 305.5,-145 305.5,-115 168.5,-115"/>
<text text-anchor="start" x="176.5" y="-133" font-family="Helvetica,sans-Serif" font-size="10.00">gamedata.rules.Available</text>
<text text-anchor="middle" x="237" y="-122" font-family="Helvetica,sans-Serif" font-size="10.00">MovesRule</text>
</a>
</g>
</g>
<!-- Node1&#45;&gt;Node2 -->
<g id="edge1" class="edge"><title>Node1&#45;&gt;Node2</title>
<path fill="none" stroke="midnightblue" d="M89.9573,-80.545C107.908,-88.1727 131.04,-97.619 152,-105 161.759,-108.437 172.26,-111.811 182.421,-114.915"/>
<polygon fill="midnightblue" stroke="midnightblue" points="91.1347,-77.2417 80.5645,-76.5191 88.377,-83.6756 91.1347,-77.2417"/>
</g>
<!-- Node3 -->
<g id="node3" class="node"><title>Node3</title>
<g id="a_node3"><a xlink:href="../../d5/df0/classgamedata_1_1rules_1_1_can_attack_rule.html" target="_top" xlink:title="gamedata.rules.CanAttackRule">
<polygon fill="white" stroke="black" points="155,-76.5 155,-95.5 319,-95.5 319,-76.5 155,-76.5"/>
<text text-anchor="middle" x="237" y="-83.5" font-family="Helvetica,sans-Serif" font-size="10.00">gamedata.rules.CanAttackRule</text>
</a>
</g>
</g>
<!-- Node1&#45;&gt;Node3 -->
<g id="edge2" class="edge"><title>Node1&#45;&gt;Node3</title>
<path fill="none" stroke="midnightblue" d="M126.064,-74.1989C135.504,-75.2122 145.29,-76.2627 154.956,-77.3004"/>
<polygon fill="midnightblue" stroke="midnightblue" points="126.295,-70.7037 115.978,-73.1163 125.547,-77.6637 126.295,-70.7037"/>
</g>
<!-- Node4 -->
<g id="node4" class="node"><title>Node4</title>
<g id="a_node4"><a xlink:href="../../df/d16/classgamedata_1_1rules_1_1_movable_rule.html" target="_top" xlink:title="gamedata.rules.MovableRule">
<polygon fill="white" stroke="black" points="159.5,-38.5 159.5,-57.5 314.5,-57.5 314.5,-38.5 159.5,-38.5"/>
<text text-anchor="middle" x="237" y="-45.5" font-family="Helvetica,sans-Serif" font-size="10.00">gamedata.rules.MovableRule</text>
</a>
</g>
</g>
<!-- Node1&#45;&gt;Node4 -->
<g id="edge3" class="edge"><title>Node1&#45;&gt;Node4</title>
<path fill="none" stroke="midnightblue" d="M126.223,-59.784C137.077,-58.6188 148.386,-57.4049 159.441,-56.2182"/>
<polygon fill="midnightblue" stroke="midnightblue" points="125.547,-56.3363 115.978,-60.8837 126.295,-63.2963 125.547,-56.3363"/>
</g>
<!-- Node5 -->
<g id="node5" class="node"><title>Node5</title>
<g id="a_node5"><a xlink:href="../../df/db5/classgamedata_1_1rules_1_1_move_count_rule.html" target="_top" xlink:title="gamedata.rules.MoveCountRule">
<polygon fill="white" stroke="black" points="152.5,-0.5 152.5,-19.5 321.5,-19.5 321.5,-0.5 152.5,-0.5"/>
<text text-anchor="middle" x="237" y="-7.5" font-family="Helvetica,sans-Serif" font-size="10.00">gamedata.rules.MoveCountRule</text>
</a>
</g>
</g>
<!-- Node1&#45;&gt;Node5 -->
<g id="edge4" class="edge"><title>Node1&#45;&gt;Node5</title>
<path fill="none" stroke="midnightblue" d="M89.0713,-53.231C107.059,-45.3704 130.524,-35.7652 152,-29 163.266,-25.451 175.578,-22.2831 187.218,-19.5989"/>
<polygon fill="midnightblue" stroke="midnightblue" points="87.4132,-50.1375 79.6893,-57.3895 90.2498,-56.5371 87.4132,-50.1375"/>
</g>
</g>
</svg>
