<?xml version="1.0" encoding="UTF-8" standalone="no"?>
<!DOCTYPE svg PUBLIC "-//W3C//DTD SVG 1.1//EN"
 "http://www.w3.org/Graphics/SVG/1.1/DTD/svg11.dtd">
<!-- Generated by graphviz version 2.36.0 (20140111.2315)
 -->
<!-- Title: gamedata.events.globalaction.DeletePieceAtLocation Pages: 1 -->
<svg width="245pt" height="120pt"
 viewBox="0.00 0.00 245.00 120.00" xmlns="http://www.w3.org/2000/svg" xmlns:xlink="http://www.w3.org/1999/xlink">
<g id="graph0" class="graph" transform="scale(1 1) rotate(0) translate(4 116)">
<title>gamedata.events.globalaction.DeletePieceAtLocation</title>
<polygon fill="white" stroke="none" points="-4,4 -4,-116 241,-116 241,4 -4,4"/>
<!-- Node1 -->
<g id="node1" class="node"><title>Node1</title>
<polygon fill="#bfbfbf" stroke="black" points="63.5,-1 63.5,-31 228.5,-31 228.5,-1 63.5,-1"/>
<text text-anchor="start" x="71.5" y="-19" font-family="Helvetica,sans-Serif" font-size="10.00">gamedata.events.globalaction.</text>
<text text-anchor="middle" x="146" y="-8" font-family="Helvetica,sans-Serif" font-size="10.00">DeletePieceAtLocation</text>
</g>
<!-- Node2 -->
<g id="node2" class="node"><title>Node2</title>
<g id="a_node2"><a xlink:href="../../d3/d55/classgamedata_1_1events_1_1globalaction_1_1_global_action.html" target="_top" xlink:title="gamedata.events.globalaction.\lGlobalAction">
<polygon fill="white" stroke="black" points="-0.5,-81 -0.5,-111 164.5,-111 164.5,-81 -0.5,-81"/>
<text text-anchor="start" x="7.5" y="-99" font-family="Helvetica,sans-Serif" font-size="10.00">gamedata.events.globalaction.</text>
<text text-anchor="middle" x="82" y="-88" font-family="Helvetica,sans-Serif" font-size="10.00">GlobalAction</text>
</a>
</g>
</g>
<!-- Node2&#45;&gt;Node1 -->
<g id="edge1" class="edge"><title>Node2&#45;&gt;Node1</title>
<path fill="none" stroke="midnightblue" d="M100.162,-72.8651C111.134,-59.493 124.794,-42.8445 134.336,-31.2157"/>
<polygon fill="midnightblue" stroke="midnightblue" points="97.376,-70.7427 93.7386,-80.6936 102.788,-75.183 97.376,-70.7427"/>
</g>
<!-- Node3 -->
<g id="node3" class="node"><title>Node3</title>
<polygon fill="white" stroke="#bfbfbf" points="183,-86.5 183,-105.5 237,-105.5 237,-86.5 183,-86.5"/>
<text text-anchor="middle" x="210" y="-93.5" font-family="Helvetica,sans-Serif" font-size="10.00">Point2D</text>
</g>
<!-- Node3&#45;&gt;Node1 -->
<g id="edge2" class="edge"><title>Node3&#45;&gt;Node1</title>
<path fill="none" stroke="#9a32cd" stroke-dasharray="5,2" d="M196.459,-78.4975C184.954,-64.4755 168.611,-44.557 157.673,-31.227"/>
<polygon fill="#9a32cd" stroke="#9a32cd" points="193.857,-80.844 202.906,-86.3546 199.269,-76.4037 193.857,-80.844"/>
<text text-anchor="middle" x="199.5" y="-53.5" font-family="Helvetica,sans-Serif" font-size="10.00"> myLoc</text>
</g>
</g>
</svg>
