<?xml version="1.0" encoding="UTF-8" standalone="no"?>
<!DOCTYPE svg PUBLIC "-//W3C//DTD SVG 1.1//EN"
 "http://www.w3.org/Graphics/SVG/1.1/DTD/svg11.dtd">
<!-- Generated by graphviz version 2.36.0 (20140111.2315)
 -->
<!-- Title: gamedata.events.Event Pages: 1 -->
<svg width="454pt" height="87pt"
 viewBox="0.00 0.00 454.00 87.00" xmlns="http://www.w3.org/2000/svg" xmlns:xlink="http://www.w3.org/1999/xlink">
<g id="graph0" class="graph" transform="scale(1 1) rotate(0) translate(4 83)">
<title>gamedata.events.Event</title>
<polygon fill="white" stroke="none" points="-4,4 -4,-83 450,-83 450,4 -4,4"/>
<!-- Node1 -->
<g id="node1" class="node"><title>Node1</title>
<polygon fill="#bfbfbf" stroke="black" points="314.5,-29.5 314.5,-48.5 445.5,-48.5 445.5,-29.5 314.5,-29.5"/>
<text text-anchor="middle" x="380" y="-36.5" font-family="Helvetica,sans-Serif" font-size="10.00">gamedata.events.Event</text>
</g>
<!-- Node2 -->
<g id="node2" class="node"><title>Node2</title>
<polygon fill="white" stroke="#bfbfbf" points="5,-49 5,-79 189,-79 189,-49 5,-49"/>
<text text-anchor="start" x="13" y="-67" font-family="Helvetica,sans-Serif" font-size="10.00">List&lt; gamedata.events.conditions.</text>
<text text-anchor="middle" x="97" y="-56" font-family="Helvetica,sans-Serif" font-size="10.00">Condition &gt;</text>
</g>
<!-- Node2&#45;&gt;Node1 -->
<g id="edge1" class="edge"><title>Node2&#45;&gt;Node1</title>
<path fill="none" stroke="#9a32cd" stroke-dasharray="5,2" d="M199.409,-54.9779C237.778,-51.5642 280.374,-47.7746 314.449,-44.743"/>
<polygon fill="#9a32cd" stroke="#9a32cd" points="198.883,-51.5107 189.233,-55.8832 199.503,-58.4832 198.883,-51.5107"/>
<text text-anchor="middle" x="254" y="-56" font-family="Helvetica,sans-Serif" font-size="10.00"> myConditions</text>
</g>
<!-- Node3 -->
<g id="node3" class="node"><title>Node3</title>
<polygon fill="white" stroke="#bfbfbf" points="0.5,-0 0.5,-30 193.5,-30 193.5,-0 0.5,-0"/>
<text text-anchor="start" x="8.5" y="-18" font-family="Helvetica,sans-Serif" font-size="10.00">List&lt; gamedata.events.globalaction.</text>
<text text-anchor="middle" x="97" y="-7" font-family="Helvetica,sans-Serif" font-size="10.00">GlobalAction &gt;</text>
</g>
<!-- Node3&#45;&gt;Node1 -->
<g id="edge2" class="edge"><title>Node3&#45;&gt;Node1</title>
<path fill="none" stroke="#9a32cd" stroke-dasharray="5,2" d="M203.713,-23.2383C233.562,-25.6471 266.062,-28.3478 296,-31 301.912,-31.5238 308.06,-32.085 314.215,-32.6582"/>
<polygon fill="#9a32cd" stroke="#9a32cd" points="203.948,-19.746 193.699,-22.4331 203.386,-26.7235 203.948,-19.746"/>
<text text-anchor="middle" x="254" y="-34" font-family="Helvetica,sans-Serif" font-size="10.00"> myGlobalActions</text>
</g>
</g>
</svg>
