<?xml version="1.0" encoding="UTF-8" standalone="no"?>
<!DOCTYPE svg PUBLIC "-//W3C//DTD SVG 1.1//EN"
 "http://www.w3.org/Graphics/SVG/1.1/DTD/svg11.dtd">
<!-- Generated by graphviz version 2.36.0 (20140111.2315)
 -->
<!-- Title: gamedata.action.conclusions.ReceiverToInventoryConclusion.runConclusion Pages: 1 -->
<svg width="778pt" height="87pt"
 viewBox="0.00 0.00 778.00 87.00" xmlns="http://www.w3.org/2000/svg" xmlns:xlink="http://www.w3.org/1999/xlink">
<g id="graph0" class="graph" transform="scale(1 1) rotate(0) translate(4 83)">
<title>gamedata.action.conclusions.ReceiverToInventoryConclusion.runConclusion</title>
<polygon fill="white" stroke="none" points="-4,4 -4,-83 774,-83 774,4 -4,4"/>
<!-- Node1 -->
<g id="node1" class="node"><title>Node1</title>
<polygon fill="#bfbfbf" stroke="black" points="0.5,-18.5 0.5,-59.5 181.5,-59.5 181.5,-18.5 0.5,-18.5"/>
<text text-anchor="start" x="8.5" y="-47.5" font-family="Helvetica,sans-Serif" font-size="10.00">gamedata.action.conclusions.</text>
<text text-anchor="start" x="8.5" y="-36.5" font-family="Helvetica,sans-Serif" font-size="10.00">ReceiverToInventoryConclusion.run</text>
<text text-anchor="middle" x="91" y="-25.5" font-family="Helvetica,sans-Serif" font-size="10.00">Conclusion</text>
</g>
<!-- Node2 -->
<g id="node2" class="node"><title>Node2</title>
<g id="a_node2"><a xlink:href="../../d4/d63/classgamedata_1_1gamecomponents_1_1_piece.html#ac2dfe291ea3bde03d94129001b569953" target="_top" xlink:title="gamedata.gamecomponents.\lPiece.addToInventory">
<polygon fill="white" stroke="black" points="218,-24 218,-54 378,-54 378,-24 218,-24"/>
<text text-anchor="start" x="226" y="-42" font-family="Helvetica,sans-Serif" font-size="10.00">gamedata.gamecomponents.</text>
<text text-anchor="middle" x="298" y="-31" font-family="Helvetica,sans-Serif" font-size="10.00">Piece.addToInventory</text>
</a>
</g>
</g>
<!-- Node1&#45;&gt;Node2 -->
<g id="edge1" class="edge"><title>Node1&#45;&gt;Node2</title>
<path fill="none" stroke="midnightblue" d="M181.618,-39C190.291,-39 199.089,-39 207.758,-39"/>
<polygon fill="midnightblue" stroke="midnightblue" points="207.861,-42.5001 217.861,-39 207.861,-35.5001 207.861,-42.5001"/>
</g>
<!-- Node3 -->
<g id="node3" class="node"><title>Node3</title>
<g id="a_node3"><a xlink:href="../../d4/d63/classgamedata_1_1gamecomponents_1_1_piece.html#a37d31e6b2958791c3073e23816f3d0b6" target="_top" xlink:title="gamedata.gamecomponents.\lPiece.inventoryValid">
<polygon fill="white" stroke="black" points="414,-49 414,-79 574,-79 574,-49 414,-49"/>
<text text-anchor="start" x="422" y="-67" font-family="Helvetica,sans-Serif" font-size="10.00">gamedata.gamecomponents.</text>
<text text-anchor="middle" x="494" y="-56" font-family="Helvetica,sans-Serif" font-size="10.00">Piece.inventoryValid</text>
</a>
</g>
</g>
<!-- Node2&#45;&gt;Node3 -->
<g id="edge2" class="edge"><title>Node2&#45;&gt;Node3</title>
<path fill="none" stroke="midnightblue" d="M378.187,-49.2045C386.621,-50.2914 395.241,-51.4022 403.781,-52.5027"/>
<polygon fill="midnightblue" stroke="midnightblue" points="403.386,-55.9807 413.752,-53.7876 404.281,-49.0381 403.386,-55.9807"/>
</g>
<!-- Node5 -->
<g id="node5" class="node"><title>Node5</title>
<g id="a_node5"><a xlink:href="../../d3/d8e/classgamedata_1_1gamecomponents_1_1_inventory.html#ada5c79ec79aad62035989018ddae5727" target="_top" xlink:title="gamedata.gamecomponents.\lInventory.addItem">
<polygon fill="white" stroke="black" points="414,-0 414,-30 574,-30 574,-0 414,-0"/>
<text text-anchor="start" x="422" y="-18" font-family="Helvetica,sans-Serif" font-size="10.00">gamedata.gamecomponents.</text>
<text text-anchor="middle" x="494" y="-7" font-family="Helvetica,sans-Serif" font-size="10.00">Inventory.addItem</text>
</a>
</g>
</g>
<!-- Node2&#45;&gt;Node5 -->
<g id="edge4" class="edge"><title>Node2&#45;&gt;Node5</title>
<path fill="none" stroke="midnightblue" d="M378.187,-29.2037C386.621,-28.1603 395.241,-27.0939 403.781,-26.0375"/>
<polygon fill="midnightblue" stroke="midnightblue" points="404.257,-29.5053 413.752,-24.8039 403.398,-22.5582 404.257,-29.5053"/>
</g>
<!-- Node4 -->
<g id="node4" class="node"><title>Node4</title>
<g id="a_node4"><a xlink:href="../../d4/d63/classgamedata_1_1gamecomponents_1_1_piece.html#a87876ab57300b34bad5206ce5060976b" target="_top" xlink:title="gamedata.gamecomponents.\lPiece.isItem">
<polygon fill="white" stroke="black" points="610,-49 610,-79 770,-79 770,-49 610,-49"/>
<text text-anchor="start" x="618" y="-67" font-family="Helvetica,sans-Serif" font-size="10.00">gamedata.gamecomponents.</text>
<text text-anchor="middle" x="690" y="-56" font-family="Helvetica,sans-Serif" font-size="10.00">Piece.isItem</text>
</a>
</g>
</g>
<!-- Node3&#45;&gt;Node4 -->
<g id="edge3" class="edge"><title>Node3&#45;&gt;Node4</title>
<path fill="none" stroke="midnightblue" d="M574.187,-64C582.529,-64 591.054,-64 599.502,-64"/>
<polygon fill="midnightblue" stroke="midnightblue" points="599.752,-67.5001 609.752,-64 599.752,-60.5001 599.752,-67.5001"/>
</g>
</g>
</svg>
