<?xml version="1.0" encoding="UTF-8" standalone="no"?>
<!DOCTYPE svg PUBLIC "-//W3C//DTD SVG 1.1//EN"
 "http://www.w3.org/Graphics/SVG/1.1/DTD/svg11.dtd">
<!-- Generated by graphviz version 2.36.0 (20140111.2315)
 -->
<!-- Title: gamePlayer.LeapExample Pages: 1 -->
<!--zoomable 164 -->
<svg id="main" version="1.1" xmlns="http://www.w3.org/2000/svg" xmlns:xlink="http://www.w3.org/1999/xlink" xml:space="preserve" onload="init(evt)">
<style type="text/css"><![CDATA[
.edge:hover path { stroke: red; }
.edge:hover polygon { stroke: red; fill: red; }
]]></style>
<script type="text/javascript"><![CDATA[
var edges = document.getElementsByTagName('g');
if (edges && edges.length) {
  for (var i=0;i<edges.length;i++) {
    if (edges[i].id.substr(0,4)=='edge') {
      edges[i].setAttribute('class','edge');
    }
  }
}
]]></script>
        <defs>
                <circle id="rim" cx="0" cy="0" r="7"/>
                <circle id="rim2" cx="0" cy="0" r="3.5"/>
                <g id="zoomPlus">
                        <use xlink:href="#rim" fill="#404040">
                                <set attributeName="fill" to="#808080" begin="zoomplus.mouseover" end="zoomplus.mouseout"/>
                        </use>
                        <path d="M-4,0h8M0,-4v8" fill="none" stroke="white" stroke-width="1.5" pointer-events="none"/>
                </g>
                <g id="zoomMin">
                        <use xlink:href="#rim" fill="#404040">
                                <set attributeName="fill" to="#808080" begin="zoomminus.mouseover" end="zoomminus.mouseout"/>
                        </use>
                        <path d="M-4,0h8" fill="none" stroke="white" stroke-width="1.5" pointer-events="none"/>
                </g>
                <g id="dirArrow">
                        <path fill="none" stroke="white" stroke-width="1.5" d="M0,-3.0v7 M-2.5,-0.5L0,-3.0L2.5,-0.5"/>
                </g>
               <g id="resetDef">
                       <use xlink:href="#rim2" fill="#404040">
                               <set attributeName="fill" to="#808080" begin="reset.mouseover" end="reset.mouseout"/>
                       </use>
               </g>
        </defs>

<script type="text/javascript">
var viewWidth = 563;
var viewHeight = 164;
var sectionId = 'dynsection-1';
</script>
<script xlink:href="../../svgpan.js"/>
<svg id="graph" class="graph">
<g id="viewport">
<title>gamePlayer.LeapExample</title>
<polygon fill="white" stroke="none" points="-4,4 -4,-160 559,-160 559,4 -4,4"/>
<!-- Node1 -->
<g id="node1" class="node"><title>Node1</title>
<polygon fill="#bfbfbf" stroke="black" points="168,-0.5 168,-19.5 308,-19.5 308,-0.5 168,-0.5"/>
<text text-anchor="middle" x="238" y="-7.5" font-family="Helvetica,sans-Serif" font-size="10.00">gamePlayer.LeapExample</text>
</g>
<!-- Node2 -->
<g id="node2" class="node"><title>Node2</title>
<polygon fill="white" stroke="#bfbfbf" points="-0.5,-68.5 -0.5,-87.5 68.5,-87.5 68.5,-68.5 -0.5,-68.5"/>
<text text-anchor="middle" x="34" y="-75.5" font-family="Helvetica,sans-Serif" font-size="10.00">Application</text>
</g>
<!-- Node2&#45;&gt;Node1 -->
<g id="edge1" class="edge"><title>Node2&#45;&gt;Node1</title>
<path fill="none" stroke="midnightblue" d="M65.1162,-64.7707C86.1137,-56.7118 114.534,-46.1769 140,-38 161.172,-31.2019 185.243,-24.555 204.23,-19.5572"/>
<polygon fill="midnightblue" stroke="midnightblue" points="63.8059,-61.5248 55.7397,-68.3941 66.3291,-68.0542 63.8059,-61.5248"/>
</g>
<!-- Node3 -->
<g id="node3" class="node"><title>Node3</title>
<polygon fill="white" stroke="#bfbfbf" points="87,-68.5 87,-87.5 131,-87.5 131,-68.5 87,-68.5"/>
<text text-anchor="middle" x="109" y="-75.5" font-family="Helvetica,sans-Serif" font-size="10.00">Robot</text>
</g>
<!-- Node3&#45;&gt;Node1 -->
<g id="edge2" class="edge"><title>Node3&#45;&gt;Node1</title>
<path fill="none" stroke="#9a32cd" stroke-dasharray="5,2" d="M126.821,-61.8348C136.713,-53.9601 149.512,-44.6268 162,-38 176.348,-30.3863 193.297,-24.1288 207.545,-19.5617"/>
<polygon fill="#9a32cd" stroke="#9a32cd" points="124.477,-59.2308 118.958,-68.2748 128.912,-64.6463 124.477,-59.2308"/>
<text text-anchor="middle" x="176.5" y="-41.5" font-family="Helvetica,sans-Serif" font-size="10.00"> robot</text>
</g>
<!-- Node4 -->
<g id="node4" class="node"><title>Node4</title>
<polygon fill="white" stroke="#bfbfbf" points="149.5,-68.5 149.5,-87.5 212.5,-87.5 212.5,-68.5 149.5,-68.5"/>
<text text-anchor="middle" x="181" y="-75.5" font-family="Helvetica,sans-Serif" font-size="10.00">Controller</text>
</g>
<!-- Node4&#45;&gt;Node1 -->
<g id="edge3" class="edge"><title>Node4&#45;&gt;Node1</title>
<path fill="none" stroke="#9a32cd" stroke-dasharray="5,2" d="M189.236,-58.969C192.893,-52.0094 197.598,-44.2386 203,-38 209.129,-30.9221 217.365,-24.4583 224.308,-19.6308"/>
<polygon fill="#9a32cd" stroke="#9a32cd" points="185.916,-57.7909 184.669,-68.3121 192.205,-60.8652 185.916,-57.7909"/>
<text text-anchor="middle" x="238" y="-41.5" font-family="Helvetica,sans-Serif" font-size="10.00"> leapController</text>
</g>
<!-- Node5 -->
<g id="node5" class="node"><title>Node5</title>
<g id="a_node5"><a xlink:href="../../de/d15/classgame_player_1_1_simple_leap_listener.html" target="_top" xlink:title="gamePlayer.SimpleLeapListener">
<polygon fill="white" stroke="black" points="231,-68.5 231,-87.5 401,-87.5 401,-68.5 231,-68.5"/>
<text text-anchor="middle" x="316" y="-75.5" font-family="Helvetica,sans-Serif" font-size="10.00">gamePlayer.SimpleLeapListener</text>
</a>
</g>
</g>
<!-- Node5&#45;&gt;Node1 -->
<g id="edge4" class="edge"><title>Node5&#45;&gt;Node1</title>
<path fill="none" stroke="#9a32cd" stroke-dasharray="5,2" d="M299.485,-61.4569C291.598,-54.1816 281.948,-45.4893 273,-38 265.349,-31.5968 256.443,-24.7343 249.53,-19.5301"/>
<polygon fill="#9a32cd" stroke="#9a32cd" points="297.257,-64.1647 306.961,-68.4156 302.026,-59.0406 297.257,-64.1647"/>
<text text-anchor="middle" x="306.5" y="-41.5" font-family="Helvetica,sans-Serif" font-size="10.00"> listener</text>
</g>
<!-- Node6 -->
<g id="node6" class="node"><title>Node6</title>
<polygon fill="white" stroke="#bfbfbf" points="228.5,-136.5 228.5,-155.5 283.5,-155.5 283.5,-136.5 228.5,-136.5"/>
<text text-anchor="middle" x="256" y="-143.5" font-family="Helvetica,sans-Serif" font-size="10.00">Listener</text>
</g>
<!-- Node6&#45;&gt;Node5 -->
<g id="edge5" class="edge"><title>Node6&#45;&gt;Node5</title>
<path fill="none" stroke="midnightblue" d="M270.836,-128.68C282.567,-115.777 298.493,-98.2575 307.963,-87.8411"/>
<polygon fill="midnightblue" stroke="midnightblue" points="267.981,-126.618 263.844,-136.372 273.161,-131.327 267.981,-126.618"/>
</g>
<!-- Node7 -->
<g id="node7" class="node"><title>Node7</title>
<polygon fill="white" stroke="#bfbfbf" points="302,-136.5 302,-155.5 450,-155.5 450,-136.5 302,-136.5"/>
<text text-anchor="middle" x="376" y="-143.5" font-family="Helvetica,sans-Serif" font-size="10.00">ObjectProperty&lt; Point2D &gt;</text>
</g>
<!-- Node7&#45;&gt;Node5 -->
<g id="edge6" class="edge"><title>Node7&#45;&gt;Node5</title>
<path fill="none" stroke="#9a32cd" stroke-dasharray="5,2" d="M361.164,-128.68C349.433,-115.777 333.507,-98.2575 324.037,-87.8411"/>
<polygon fill="#9a32cd" stroke="#9a32cd" points="358.839,-131.327 368.156,-136.372 364.019,-126.618 358.839,-131.327"/>
<text text-anchor="middle" x="366" y="-109.5" font-family="Helvetica,sans-Serif" font-size="10.00"> point</text>
</g>
<!-- Node8 -->
<g id="node8" class="node"><title>Node8</title>
<polygon fill="white" stroke="#bfbfbf" points="419,-68.5 419,-87.5 493,-87.5 493,-68.5 419,-68.5"/>
<text text-anchor="middle" x="456" y="-75.5" font-family="Helvetica,sans-Serif" font-size="10.00">AnchorPane</text>
</g>
<!-- Node8&#45;&gt;Node1 -->
<g id="edge7" class="edge"><title>Node8&#45;&gt;Node1</title>
<path fill="none" stroke="#9a32cd" stroke-dasharray="5,2" d="M418.68,-65.291C393.628,-57.4697 359.867,-47.0045 330,-38 309.122,-31.7057 285.521,-24.7831 267.45,-19.5234"/>
<polygon fill="#9a32cd" stroke="#9a32cd" points="417.918,-68.7196 428.507,-68.3625 420.006,-62.0384 417.918,-68.7196"/>
<text text-anchor="middle" x="380.5" y="-41.5" font-family="Helvetica,sans-Serif" font-size="10.00"> root</text>
</g>
<!-- Node9 -->
<g id="node9" class="node"><title>Node9</title>
<polygon fill="white" stroke="#bfbfbf" points="511.5,-68.5 511.5,-87.5 554.5,-87.5 554.5,-68.5 511.5,-68.5"/>
<text text-anchor="middle" x="533" y="-75.5" font-family="Helvetica,sans-Serif" font-size="10.00">Circle</text>
</g>
<!-- Node9&#45;&gt;Node1 -->
<g id="edge8" class="edge"><title>Node9&#45;&gt;Node1</title>
<path fill="none" stroke="#9a32cd" stroke-dasharray="5,2" d="M501.561,-67.8601C453.446,-53.7986 440.863,-48.1514 396,-38 363.43,-30.6301 326.677,-24.2369 296.82,-19.524"/>
<polygon fill="#9a32cd" stroke="#9a32cd" points="500.746,-71.2678 511.325,-70.6871 502.693,-64.5439 500.746,-71.2678"/>
<text text-anchor="middle" x="457" y="-41.5" font-family="Helvetica,sans-Serif" font-size="10.00"> circle</text>
</g>
</g>
</svg>
        <g id="navigator" transform="translate(0 0)" fill="#404254">
                <rect fill="#f2f5e9" fill-opacity="0.5" stroke="#606060" stroke-width=".5" x="0" y="0" width="60" height="60"/>
                <use id="zoomplus" xlink:href="#zoomPlus" x="17" y="9" onmousedown="handleZoom(evt,'in')"/>
                <use id="zoomminus" xlink:href="#zoomMin" x="42" y="9" onmousedown="handleZoom(evt,'out')"/>
                <use id="reset" xlink:href="#resetDef" x="30" y="36" onmousedown="handleReset()"/>
                <g id="arrowUp" xlink:href="#dirArrow" transform="translate(30 24)" onmousedown="handlePan(0,-1)">
                  <use xlink:href="#rim" fill="#404040">
                        <set attributeName="fill" to="#808080" begin="arrowUp.mouseover" end="arrowUp.mouseout"/>
                  </use>
                  <path fill="none" stroke="white" stroke-width="1.5" d="M0,-3.0v7 M-2.5,-0.5L0,-3.0L2.5,-0.5"/>
                </g>
                <g id="arrowRight" xlink:href="#dirArrow" transform="rotate(90) translate(36 -43)" onmousedown="handlePan(1,0)">
                  <use xlink:href="#rim" fill="#404040">
                        <set attributeName="fill" to="#808080" begin="arrowRight.mouseover" end="arrowRight.mouseout"/>
                  </use>
                  <path fill="none" stroke="white" stroke-width="1.5" d="M0,-3.0v7 M-2.5,-0.5L0,-3.0L2.5,-0.5"/>
                </g>
                <g id="arrowDown" xlink:href="#dirArrow" transform="rotate(180) translate(-30 -48)" onmousedown="handlePan(0,1)">
                  <use xlink:href="#rim" fill="#404040">
                        <set attributeName="fill" to="#808080" begin="arrowDown.mouseover" end="arrowDown.mouseout"/>
                  </use>
                  <path fill="none" stroke="white" stroke-width="1.5" d="M0,-3.0v7 M-2.5,-0.5L0,-3.0L2.5,-0.5"/>
                </g>
                <g id="arrowLeft" xlink:href="#dirArrow" transform="rotate(270) translate(-36 17)" onmousedown="handlePan(-1,0)">
                  <use xlink:href="#rim" fill="#404040">
                        <set attributeName="fill" to="#808080" begin="arrowLeft.mouseover" end="arrowLeft.mouseout"/>
                  </use>
                  <path fill="none" stroke="white" stroke-width="1.5" d="M0,-3.0v7 M-2.5,-0.5L0,-3.0L2.5,-0.5"/>
                </g>
        </g>
        <svg viewBox="0 0 15 15" width="100%" height="30px" preserveAspectRatio="xMaxYMin meet">
         <g id="arrow_out" transform="scale(0.3 0.3)">
          <a xlink:href="classgame_player_1_1_leap_example__coll__graph_org.svg" target="_base">
           <rect id="button" ry="5" rx="5" y="6" x="6" height="38" width="38"
                fill="#f2f5e9" fill-opacity="0.5" stroke="#606060" stroke-width="1.0"/>
           <path id="arrow"
             d="M 11.500037,31.436501 C 11.940474,20.09759 22.043105,11.32322 32.158766,21.979434 L 37.068811,17.246167 C 37.068811,17.246167 37.088388,32 37.088388,32 L 22.160133,31.978069 C 22.160133,31.978069 26.997745,27.140456 26.997745,27.140456 C 18.528582,18.264221 13.291696,25.230495 11.500037,31.436501 z"
             style="fill:#404040;"/>
          </a>
         </g>
        </svg>
</svg>
