<?xml version="1.0" encoding="UTF-8" standalone="no"?>
<!DOCTYPE svg PUBLIC "-//W3C//DTD SVG 1.1//EN"
 "http://www.w3.org/Graphics/SVG/1.1/DTD/svg11.dtd">
<!-- Generated by graphviz version 2.36.0 (20140111.2315)
 -->
<!-- Title: authoring.concretefeatures.LevelCreator Pages: 1 -->
<!--zoomable 499 -->
<svg id="main" version="1.1" xmlns="http://www.w3.org/2000/svg" xmlns:xlink="http://www.w3.org/1999/xlink" xml:space="preserve" onload="init(evt)">
<style type="text/css"><![CDATA[
.edge:hover path { stroke: red; }
.edge:hover polygon { stroke: red; fill: red; }
]]></style>
<script type="text/javascript"><![CDATA[
var edges = document.getElementsByTagName('g');
if (edges && edges.length) {
  for (var i=0;i<edges.length;i++) {
    if (edges[i].id.substr(0,4)=='edge') {
      edges[i].setAttribute('class','edge');
    }
  }
}
]]></script>
        <defs>
                <circle id="rim" cx="0" cy="0" r="7"/>
                <circle id="rim2" cx="0" cy="0" r="3.5"/>
                <g id="zoomPlus">
                        <use xlink:href="#rim" fill="#404040">
                                <set attributeName="fill" to="#808080" begin="zoomplus.mouseover" end="zoomplus.mouseout"/>
                        </use>
                        <path d="M-4,0h8M0,-4v8" fill="none" stroke="white" stroke-width="1.5" pointer-events="none"/>
                </g>
                <g id="zoomMin">
                        <use xlink:href="#rim" fill="#404040">
                                <set attributeName="fill" to="#808080" begin="zoomminus.mouseover" end="zoomminus.mouseout"/>
                        </use>
                        <path d="M-4,0h8" fill="none" stroke="white" stroke-width="1.5" pointer-events="none"/>
                </g>
                <g id="dirArrow">
                        <path fill="none" stroke="white" stroke-width="1.5" d="M0,-3.0v7 M-2.5,-0.5L0,-3.0L2.5,-0.5"/>
                </g>
               <g id="resetDef">
                       <use xlink:href="#rim2" fill="#404040">
                               <set attributeName="fill" to="#808080" begin="reset.mouseover" end="reset.mouseout"/>
                       </use>
               </g>
        </defs>

<script type="text/javascript">
var viewWidth = 1202;
var viewHeight = 499;
var sectionId = 'dynsection-1';
</script>
<script xlink:href="../../svgpan.js"/>
<svg id="graph" class="graph">
<g id="viewport">
<title>authoring.concretefeatures.LevelCreator</title>
<polygon fill="white" stroke="none" points="-4,4 -4,-495 1198,-495 1198,4 -4,4"/>
<!-- Node1 -->
<g id="node1" class="node"><title>Node1</title>
<polygon fill="#bfbfbf" stroke="black" points="1044,-238 1044,-268 1194,-268 1194,-238 1044,-238"/>
<text text-anchor="start" x="1052" y="-256" font-family="Helvetica,sans-Serif" font-size="10.00">authoring.concretefeatures.</text>
<text text-anchor="middle" x="1119" y="-245" font-family="Helvetica,sans-Serif" font-size="10.00">LevelCreator</text>
</g>
<!-- Node2 -->
<g id="node2" class="node"><title>Node2</title>
<polygon fill="white" stroke="#bfbfbf" points="874.5,-287.5 874.5,-306.5 915.5,-306.5 915.5,-287.5 874.5,-287.5"/>
<text text-anchor="middle" x="895" y="-294.5" font-family="Helvetica,sans-Serif" font-size="10.00">VBox</text>
</g>
<!-- Node2&#45;&gt;Node1 -->
<g id="edge1" class="edge"><title>Node2&#45;&gt;Node1</title>
<path fill="none" stroke="midnightblue" d="M925.554,-291.142C955.617,-285.184 1003.41,-275.712 1043.84,-267.699"/>
<polygon fill="midnightblue" stroke="midnightblue" points="924.83,-287.718 915.701,-293.095 926.191,-294.584 924.83,-287.718"/>
</g>
<!-- Node3 -->
<g id="node3" class="node"><title>Node3</title>
<g id="a_node3"><a xlink:href="../../da/dd4/classauthoring_1_1data_1_1_authoring_level.html" target="_top" xlink:title="authoring.data.Authoring\lLevel">
<polygon fill="white" stroke="black" points="826.5,-238 826.5,-268 963.5,-268 963.5,-238 826.5,-238"/>
<text text-anchor="start" x="834.5" y="-256" font-family="Helvetica,sans-Serif" font-size="10.00">authoring.data.Authoring</text>
<text text-anchor="middle" x="895" y="-245" font-family="Helvetica,sans-Serif" font-size="10.00">Level</text>
</a>
</g>
</g>
<!-- Node3&#45;&gt;Node1 -->
<g id="edge2" class="edge"><title>Node3&#45;&gt;Node1</title>
<path fill="none" stroke="#9a32cd" stroke-dasharray="5,2" d="M973.801,-253C996.544,-253 1021.33,-253 1043.85,-253"/>
<polygon fill="#9a32cd" stroke="#9a32cd" points="973.512,-249.5 963.512,-253 973.511,-256.5 973.512,-249.5"/>
<text text-anchor="middle" x="1004" y="-256" font-family="Helvetica,sans-Serif" font-size="10.00"> myLevel</text>
</g>
<!-- Node4 -->
<g id="node4" class="node"><title>Node4</title>
<g id="a_node4"><a xlink:href="../../da/d4c/classauthoring__environment_1_1_g_u_i_grid.html" target="_top" xlink:title="authoring_environment.GUIGrid">
<polygon fill="white" stroke="black" points="569,-362.5 569,-381.5 737,-381.5 737,-362.5 569,-362.5"/>
<text text-anchor="middle" x="653" y="-369.5" font-family="Helvetica,sans-Serif" font-size="10.00">authoring_environment.GUIGrid</text>
</a>
</g>
</g>
<!-- Node4&#45;&gt;Node3 -->
<g id="edge3" class="edge"><title>Node4&#45;&gt;Node3</title>
<path fill="none" stroke="#9a32cd" stroke-dasharray="5,2" d="M678.617,-357.034C711.484,-337.407 771.854,-302.586 826,-278 833.673,-274.516 841.988,-271.143 850.083,-268.062"/>
<polygon fill="#9a32cd" stroke="#9a32cd" points="676.491,-354.228 669.72,-362.377 680.095,-360.229 676.491,-354.228"/>
<text text-anchor="middle" x="782" y="-315" font-family="Helvetica,sans-Serif" font-size="10.00"> myGrid</text>
</g>
<!-- Node5 -->
<g id="node5" class="node"><title>Node5</title>
<g id="a_node5"><a xlink:href="../../d9/df3/classauthoring__environment_1_1_super_grid.html" target="_top" xlink:title="authoring_environment.SuperGrid">
<polygon fill="white" stroke="black" points="280.5,-410.5 280.5,-429.5 459.5,-429.5 459.5,-410.5 280.5,-410.5"/>
<text text-anchor="middle" x="370" y="-417.5" font-family="Helvetica,sans-Serif" font-size="10.00">authoring_environment.SuperGrid</text>
</a>
</g>
</g>
<!-- Node5&#45;&gt;Node4 -->
<g id="edge4" class="edge"><title>Node5&#45;&gt;Node4</title>
<path fill="none" stroke="midnightblue" d="M436.92,-408.74C485.343,-400.468 550.409,-389.354 596.253,-381.523"/>
<polygon fill="midnightblue" stroke="midnightblue" points="436.12,-405.325 426.853,-410.459 437.299,-412.226 436.12,-405.325"/>
</g>
<!-- Node6 -->
<g id="node6" class="node"><title>Node6</title>
<polygon fill="white" stroke="#bfbfbf" points="18,-460 18,-490 170,-490 170,-460 18,-460"/>
<text text-anchor="start" x="26" y="-478" font-family="Helvetica,sans-Serif" font-size="10.00">List&lt; List&lt; authoring</text>
<text text-anchor="middle" x="94" y="-467" font-family="Helvetica,sans-Serif" font-size="10.00">_environment.SuperTile &gt; &gt;</text>
</g>
<!-- Node6&#45;&gt;Node5 -->
<g id="edge5" class="edge"><title>Node6&#45;&gt;Node5</title>
<path fill="none" stroke="#9a32cd" stroke-dasharray="5,2" d="M180.175,-458.3C206.424,-453.118 235.412,-447.36 262,-442 281.985,-437.971 304.054,-433.446 322.932,-429.553"/>
<polygon fill="#9a32cd" stroke="#9a32cd" points="179.393,-454.887 170.259,-460.256 180.748,-461.755 179.393,-454.887"/>
<text text-anchor="middle" x="234" y="-457" font-family="Helvetica,sans-Serif" font-size="10.00"> myGrid</text>
</g>
<!-- Node7 -->
<g id="node7" class="node"><title>Node7</title>
<polygon fill="white" stroke="#bfbfbf" points="74,-421.5 74,-440.5 114,-440.5 114,-421.5 74,-421.5"/>
<text text-anchor="middle" x="94" y="-428.5" font-family="Helvetica,sans-Serif" font-size="10.00">Pane</text>
</g>
<!-- Node7&#45;&gt;Node5 -->
<g id="edge6" class="edge"><title>Node7&#45;&gt;Node5</title>
<path fill="none" stroke="#9a32cd" stroke-dasharray="5,2" d="M124.344,-429.822C161.282,-428.339 226.409,-425.724 280.184,-423.566"/>
<polygon fill="#9a32cd" stroke="#9a32cd" points="124.119,-426.328 114.267,-430.227 124.4,-433.322 124.119,-426.328"/>
<text text-anchor="middle" x="234" y="-430" font-family="Helvetica,sans-Serif" font-size="10.00"> myPane</text>
</g>
<!-- Node8 -->
<g id="node8" class="node"><title>Node8</title>
<polygon fill="white" stroke="#bfbfbf" points="340,-448.5 340,-467.5 400,-467.5 400,-448.5 340,-448.5"/>
<text text-anchor="middle" x="370" y="-455.5" font-family="Helvetica,sans-Serif" font-size="10.00">Observer</text>
</g>
<!-- Node8&#45;&gt;Node4 -->
<g id="edge7" class="edge"><title>Node8&#45;&gt;Node4</title>
<path fill="none" stroke="midnightblue" d="M409.912,-450.584C425.562,-447.371 443.722,-443.348 460,-439 521.907,-422.464 592.542,-395.697 628.411,-381.519"/>
<polygon fill="midnightblue" stroke="midnightblue" points="409.147,-447.168 400.036,-452.575 410.53,-454.03 409.147,-447.168"/>
</g>
<!-- Node9 -->
<g id="node9" class="node"><title>Node9</title>
<g id="a_node9"><a xlink:href="../../d7/dd4/classauthoring_1_1data_1_1_patch_instance_data.html" target="_top" xlink:title="authoring.data.PatchInstanceData">
<polygon fill="white" stroke="black" points="280,-362.5 280,-381.5 460,-381.5 460,-362.5 280,-362.5"/>
<text text-anchor="middle" x="370" y="-369.5" font-family="Helvetica,sans-Serif" font-size="10.00">authoring.data.PatchInstanceData</text>
</a>
</g>
</g>
<!-- Node9&#45;&gt;Node4 -->
<g id="edge8" class="edge"><title>Node9&#45;&gt;Node4</title>
<path fill="none" stroke="#9a32cd" stroke-dasharray="5,2" d="M470.595,-372C502.68,-372 537.883,-372 568.671,-372"/>
<polygon fill="#9a32cd" stroke="#9a32cd" points="470.296,-368.5 460.296,-372 470.296,-375.5 470.296,-368.5"/>
<text text-anchor="middle" x="514" y="-375" font-family="Helvetica,sans-Serif" font-size="10.00"> myPatchData</text>
</g>
<!-- Node10 -->
<g id="node10" class="node"><title>Node10</title>
<g id="a_node10"><a xlink:href="../../d5/d29/interfaceauthoring_1_1data_1_1_authoring_data.html" target="_top" xlink:title="authoring.data.Authoring\lData\&lt; Patch \&gt;">
<polygon fill="white" stroke="black" points="25.5,-370 25.5,-400 162.5,-400 162.5,-370 25.5,-370"/>
<text text-anchor="start" x="33.5" y="-388" font-family="Helvetica,sans-Serif" font-size="10.00">authoring.data.Authoring</text>
<text text-anchor="middle" x="94" y="-377" font-family="Helvetica,sans-Serif" font-size="10.00">Data&lt; Patch &gt;</text>
</a>
</g>
</g>
<!-- Node10&#45;&gt;Node9 -->
<g id="edge9" class="edge"><title>Node10&#45;&gt;Node9</title>
<path fill="none" stroke="midnightblue" d="M173.054,-386.238C201.119,-386.232 233,-385.708 262,-384 272.077,-383.406 282.663,-382.529 293.096,-381.515"/>
<polygon fill="midnightblue" stroke="midnightblue" points="172.906,-382.738 162.899,-386.218 172.892,-389.738 172.906,-382.738"/>
</g>
<!-- Node21 -->
<g id="node21" class="node"><title>Node21</title>
<g id="a_node21"><a xlink:href="../../d1/d4f/classauthoring_1_1data_1_1_patch_type_data.html" target="_top" xlink:title="authoring.data.PatchTypeData">
<polygon fill="white" stroke="black" points="289.5,-303.5 289.5,-322.5 450.5,-322.5 450.5,-303.5 289.5,-303.5"/>
<text text-anchor="middle" x="370" y="-310.5" font-family="Helvetica,sans-Serif" font-size="10.00">authoring.data.PatchTypeData</text>
</a>
</g>
</g>
<!-- Node10&#45;&gt;Node21 -->
<g id="edge22" class="edge"><title>Node10&#45;&gt;Node21</title>
<path fill="none" stroke="midnightblue" d="M173.135,-376.972C201.464,-372.983 233.496,-367.204 262,-359 278.905,-354.134 322.261,-334.632 348.302,-322.638"/>
<polygon fill="midnightblue" stroke="midnightblue" points="172.317,-373.551 162.878,-378.363 173.258,-380.488 172.317,-373.551"/>
</g>
<!-- Node11 -->
<g id="node11" class="node"><title>Node11</title>
<polygon fill="white" stroke="#bfbfbf" points="0,-317 0,-347 188,-347 188,-317 0,-317"/>
<text text-anchor="start" x="8" y="-335" font-family="Helvetica,sans-Serif" font-size="10.00">List&lt; gamedata.gamecomponents.</text>
<text text-anchor="middle" x="94" y="-324" font-family="Helvetica,sans-Serif" font-size="10.00">Patch &gt;</text>
</g>
<!-- Node11&#45;&gt;Node9 -->
<g id="edge10" class="edge"><title>Node11&#45;&gt;Node9</title>
<path fill="none" stroke="#9a32cd" stroke-dasharray="5,2" d="M198.049,-347.044C233.492,-352.218 272.171,-357.864 303.758,-362.476"/>
<polygon fill="#9a32cd" stroke="#9a32cd" points="198.547,-343.579 188.146,-345.598 197.536,-350.506 198.547,-343.579"/>
<text text-anchor="middle" x="234" y="-359" font-family="Helvetica,sans-Serif" font-size="10.00"> myPatches</text>
</g>
<!-- Node11&#45;&gt;Node21 -->
<g id="edge23" class="edge"><title>Node11&#45;&gt;Node21</title>
<path fill="none" stroke="#9a32cd" stroke-dasharray="5,2" d="M189.269,-315.692C194.919,-315.032 200.528,-314.458 206,-314 233.073,-311.736 262.763,-311.029 289.3,-311.03"/>
<polygon fill="#9a32cd" stroke="#9a32cd" points="188.563,-312.253 179.074,-316.965 189.431,-319.199 188.563,-312.253"/>
<text text-anchor="middle" x="234" y="-317" font-family="Helvetica,sans-Serif" font-size="10.00"> myPatches</text>
</g>
<!-- Node12 -->
<g id="node12" class="node"><title>Node12</title>
<g id="a_node12"><a xlink:href="../../d6/dda/classauthoring_1_1data_1_1_piece_instance_data.html" target="_top" xlink:title="authoring.data.PieceInstanceData">
<polygon fill="white" stroke="black" points="280.5,-265.5 280.5,-284.5 459.5,-284.5 459.5,-265.5 280.5,-265.5"/>
<text text-anchor="middle" x="370" y="-272.5" font-family="Helvetica,sans-Serif" font-size="10.00">authoring.data.PieceInstanceData</text>
</a>
</g>
</g>
<!-- Node12&#45;&gt;Node4 -->
<g id="edge11" class="edge"><title>Node12&#45;&gt;Node4</title>
<path fill="none" stroke="#9a32cd" stroke-dasharray="5,2" d="M449.405,-264.977C481.608,-263.825 518.623,-266.438 550,-279 593.827,-296.546 630.604,-342.16 645.228,-362.254"/>
<polygon fill="#9a32cd" stroke="#9a32cd" points="448.95,-261.495 439.132,-265.475 449.289,-268.486 448.95,-261.495"/>
<text text-anchor="middle" x="514" y="-282" font-family="Helvetica,sans-Serif" font-size="10.00"> myPieceData</text>
</g>
<!-- Node13 -->
<g id="node13" class="node"><title>Node13</title>
<g id="a_node13"><a xlink:href="../../d5/d29/interfaceauthoring_1_1data_1_1_authoring_data.html" target="_top" xlink:title="authoring.data.Authoring\lData\&lt; Piece \&gt;">
<polygon fill="white" stroke="black" points="25.5,-258 25.5,-288 162.5,-288 162.5,-258 25.5,-258"/>
<text text-anchor="start" x="33.5" y="-276" font-family="Helvetica,sans-Serif" font-size="10.00">authoring.data.Authoring</text>
<text text-anchor="middle" x="94" y="-265" font-family="Helvetica,sans-Serif" font-size="10.00">Data&lt; Piece &gt;</text>
</a>
</g>
</g>
<!-- Node13&#45;&gt;Node12 -->
<g id="edge12" class="edge"><title>Node13&#45;&gt;Node12</title>
<path fill="none" stroke="midnightblue" d="M172.925,-273.569C206.413,-273.813 245.726,-274.1 280.324,-274.353"/>
<polygon fill="midnightblue" stroke="midnightblue" points="172.756,-270.068 162.73,-273.494 172.705,-277.067 172.756,-270.068"/>
</g>
<!-- Node24 -->
<g id="node24" class="node"><title>Node24</title>
<g id="a_node24"><a xlink:href="../../d5/d98/classauthoring_1_1data_1_1_piece_type_data.html" target="_top" xlink:title="authoring.data.PieceTypeData">
<polygon fill="white" stroke="black" points="290,-187.5 290,-206.5 450,-206.5 450,-187.5 290,-187.5"/>
<text text-anchor="middle" x="370" y="-194.5" font-family="Helvetica,sans-Serif" font-size="10.00">authoring.data.PieceTypeData</text>
</a>
</g>
</g>
<!-- Node13&#45;&gt;Node24 -->
<g id="edge27" class="edge"><title>Node13&#45;&gt;Node24</title>
<path fill="none" stroke="midnightblue" d="M172.659,-261.46C201.07,-256.367 233.277,-249.563 262,-241 293.183,-231.704 327.748,-216.553 348.928,-206.68"/>
<polygon fill="midnightblue" stroke="midnightblue" points="172.027,-258.018 162.781,-263.191 173.235,-264.913 172.027,-258.018"/>
</g>
<!-- Node14 -->
<g id="node14" class="node"><title>Node14</title>
<polygon fill="white" stroke="#bfbfbf" points="0,-202 0,-232 188,-232 188,-202 0,-202"/>
<text text-anchor="start" x="8" y="-220" font-family="Helvetica,sans-Serif" font-size="10.00">List&lt; gamedata.gamecomponents.</text>
<text text-anchor="middle" x="94" y="-209" font-family="Helvetica,sans-Serif" font-size="10.00">Piece &gt;</text>
</g>
<!-- Node14&#45;&gt;Node12 -->
<g id="edge13" class="edge"><title>Node14&#45;&gt;Node12</title>
<path fill="none" stroke="#9a32cd" stroke-dasharray="5,2" d="M175.726,-234.088C224.007,-244.308 283.574,-256.917 323.715,-265.414"/>
<polygon fill="#9a32cd" stroke="#9a32cd" points="176.426,-230.659 165.918,-232.012 174.977,-237.507 176.426,-230.659"/>
<text text-anchor="middle" x="234" y="-255" font-family="Helvetica,sans-Serif" font-size="10.00"> myPieces</text>
</g>
<!-- Node14&#45;&gt;Node24 -->
<g id="edge28" class="edge"><title>Node14&#45;&gt;Node24</title>
<path fill="none" stroke="#9a32cd" stroke-dasharray="5,2" d="M173.354,-200.291C184.274,-198.515 195.385,-196.995 206,-196 233.189,-193.451 263.042,-192.965 289.686,-193.35"/>
<polygon fill="#9a32cd" stroke="#9a32cd" points="172.671,-196.857 163.401,-201.987 173.847,-203.757 172.671,-196.857"/>
<text text-anchor="middle" x="234" y="-199" font-family="Helvetica,sans-Serif" font-size="10.00"> myPieces</text>
</g>
<!-- Node15 -->
<g id="node15" class="node"><title>Node15</title>
<polygon fill="white" stroke="#bfbfbf" points="568,-243.5 568,-262.5 738,-262.5 738,-243.5 568,-243.5"/>
<text text-anchor="middle" x="653" y="-250.5" font-family="Helvetica,sans-Serif" font-size="10.00">List&lt; gamedata.events.Event &gt;</text>
</g>
<!-- Node15&#45;&gt;Node3 -->
<g id="edge14" class="edge"><title>Node15&#45;&gt;Node3</title>
<path fill="none" stroke="#9a32cd" stroke-dasharray="5,2" d="M748.504,-253C774.434,-253 802.03,-253 826.14,-253"/>
<polygon fill="#9a32cd" stroke="#9a32cd" points="748.278,-249.5 738.278,-253 748.278,-256.5 748.278,-249.5"/>
<text text-anchor="middle" x="782" y="-256" font-family="Helvetica,sans-Serif" font-size="10.00"> myEvents</text>
</g>
<!-- Node16 -->
<g id="node16" class="node"><title>Node16</title>
<g id="a_node16"><a xlink:href="../../da/d61/classfxml__main_1_1_level_controller.html" target="_top" xlink:title="fxml_main.LevelController">
<polygon fill="white" stroke="black" points="583,-143.5 583,-162.5 723,-162.5 723,-143.5 583,-143.5"/>
<text text-anchor="middle" x="653" y="-150.5" font-family="Helvetica,sans-Serif" font-size="10.00">fxml_main.LevelController</text>
</a>
</g>
</g>
<!-- Node16&#45;&gt;Node1 -->
<g id="edge15" class="edge"><title>Node16&#45;&gt;Node1</title>
<path fill="none" stroke="#9a32cd" stroke-dasharray="5,2" d="M712.183,-164.542C774.553,-177.024 876.428,-197.728 964,-217 994.033,-223.609 1027.26,-231.326 1055.15,-237.916"/>
<polygon fill="#9a32cd" stroke="#9a32cd" points="712.635,-161.063 702.143,-162.535 711.263,-167.927 712.635,-161.063"/>
<text text-anchor="middle" x="895" y="-220" font-family="Helvetica,sans-Serif" font-size="10.00"> myLevelController</text>
</g>
<!-- Node17 -->
<g id="node17" class="node"><title>Node17</title>
<g id="a_node17"><a xlink:href="../../da/d40/classfxml__main_1_1_grid_component_abst_ctrl.html" target="_top" xlink:title="fxml_main.GridComponentAbst\lCtrl\&lt; Level \&gt;">
<polygon fill="white" stroke="black" points="286.5,-138 286.5,-168 453.5,-168 453.5,-138 286.5,-138"/>
<text text-anchor="start" x="294.5" y="-156" font-family="Helvetica,sans-Serif" font-size="10.00">fxml_main.GridComponentAbst</text>
<text text-anchor="middle" x="370" y="-145" font-family="Helvetica,sans-Serif" font-size="10.00">Ctrl&lt; Level &gt;</text>
</a>
</g>
</g>
<!-- Node17&#45;&gt;Node16 -->
<g id="edge16" class="edge"><title>Node17&#45;&gt;Node16</title>
<path fill="none" stroke="midnightblue" d="M464.019,-153C502.7,-153 546.823,-153 582.596,-153"/>
<polygon fill="midnightblue" stroke="midnightblue" points="463.789,-149.5 453.789,-153 463.789,-156.5 463.789,-149.5"/>
</g>
<!-- Node18 -->
<g id="node18" class="node"><title>Node18</title>
<g id="a_node18"><a xlink:href="../../d7/d88/classauthoring_1_1data_1_1_level_data.html" target="_top" xlink:title="authoring.data.LevelData">
<polygon fill="white" stroke="black" points="301,-99.5 301,-118.5 439,-118.5 439,-99.5 301,-99.5"/>
<text text-anchor="middle" x="370" y="-106.5" font-family="Helvetica,sans-Serif" font-size="10.00">authoring.data.LevelData</text>
</a>
</g>
</g>
<!-- Node18&#45;&gt;Node16 -->
<g id="edge17" class="edge"><title>Node18&#45;&gt;Node16</title>
<path fill="none" stroke="#9a32cd" stroke-dasharray="5,2" d="M441.877,-120.098C487.901,-127.305 547.263,-136.6 591.146,-143.471"/>
<polygon fill="#9a32cd" stroke="#9a32cd" points="442.394,-116.637 431.973,-118.547 441.311,-123.552 442.394,-116.637"/>
<text text-anchor="middle" x="514" y="-140" font-family="Helvetica,sans-Serif" font-size="10.00"> myLevelData</text>
</g>
<!-- Node19 -->
<g id="node19" class="node"><title>Node19</title>
<g id="a_node19"><a xlink:href="../../d5/d29/interfaceauthoring_1_1data_1_1_authoring_data.html" target="_top" xlink:title="authoring.data.Authoring\lData\&lt; Level \&gt;">
<polygon fill="white" stroke="black" points="25.5,-49 25.5,-79 162.5,-79 162.5,-49 25.5,-49"/>
<text text-anchor="start" x="33.5" y="-67" font-family="Helvetica,sans-Serif" font-size="10.00">authoring.data.Authoring</text>
<text text-anchor="middle" x="94" y="-56" font-family="Helvetica,sans-Serif" font-size="10.00">Data&lt; Level &gt;</text>
</a>
</g>
</g>
<!-- Node19&#45;&gt;Node18 -->
<g id="edge18" class="edge"><title>Node19&#45;&gt;Node18</title>
<path fill="none" stroke="midnightblue" d="M172.796,-76.7767C216.701,-83.9873 270.65,-92.8476 310.858,-99.4511"/>
<polygon fill="midnightblue" stroke="midnightblue" points="173.165,-73.2906 162.73,-75.1236 172.031,-80.198 173.165,-73.2906"/>
</g>
<!-- Node20 -->
<g id="node20" class="node"><title>Node20</title>
<polygon fill="white" stroke="#bfbfbf" points="0,-98 0,-128 188,-128 188,-98 0,-98"/>
<text text-anchor="start" x="8" y="-116" font-family="Helvetica,sans-Serif" font-size="10.00">List&lt; gamedata.gamecomponents.</text>
<text text-anchor="middle" x="94" y="-105" font-family="Helvetica,sans-Serif" font-size="10.00">Level &gt;</text>
</g>
<!-- Node20&#45;&gt;Node18 -->
<g id="edge19" class="edge"><title>Node20&#45;&gt;Node18</title>
<path fill="none" stroke="#9a32cd" stroke-dasharray="5,2" d="M198.204,-111.493C232.497,-110.993 269.803,-110.448 300.776,-109.996"/>
<polygon fill="#9a32cd" stroke="#9a32cd" points="198.094,-107.995 188.146,-111.64 198.196,-114.994 198.094,-107.995"/>
<text text-anchor="middle" x="234" y="-115" font-family="Helvetica,sans-Serif" font-size="10.00"> myLevels</text>
</g>
<!-- Node21&#45;&gt;Node16 -->
<g id="edge20" class="edge"><title>Node21&#45;&gt;Node16</title>
<path fill="none" stroke="#9a32cd" stroke-dasharray="5,2" d="M460.752,-320.228C492.045,-318.233 525.438,-310.429 550,-290 570.099,-273.283 554.173,-256.187 568,-234 586.965,-203.567 619.861,-176.496 638.357,-162.686"/>
<polygon fill="#9a32cd" stroke="#9a32cd" points="460.513,-316.736 450.68,-320.681 460.827,-323.728 460.513,-316.736"/>
<text text-anchor="middle" x="514" y="-322" font-family="Helvetica,sans-Serif" font-size="10.00"> myPatchTypes</text>
</g>
<!-- Node22 -->
<g id="node22" class="node"><title>Node22</title>
<polygon fill="white" stroke="#bfbfbf" points="58.5,-150.5 58.5,-169.5 129.5,-169.5 129.5,-150.5 58.5,-150.5"/>
<text text-anchor="middle" x="94" y="-157.5" font-family="Helvetica,sans-Serif" font-size="10.00">Observable</text>
</g>
<!-- Node22&#45;&gt;Node21 -->
<g id="edge21" class="edge"><title>Node22&#45;&gt;Node21</title>
<path fill="none" stroke="midnightblue" d="M139.863,-155.097C177.669,-153.634 230.495,-158.294 262,-190 295.064,-223.275 247.482,-260.19 280,-294 283.614,-297.758 287.776,-300.863 292.283,-303.42"/>
<polygon fill="midnightblue" stroke="midnightblue" points="139.424,-151.616 129.629,-155.655 139.805,-158.606 139.424,-151.616"/>
</g>
<!-- Node22&#45;&gt;Node24 -->
<g id="edge26" class="edge"><title>Node22&#45;&gt;Node24</title>
<path fill="none" stroke="midnightblue" d="M132.183,-147.594C167.646,-138.07 221.504,-129.782 262,-151 274.449,-157.523 268.346,-169.144 280,-177 286.434,-181.338 293.666,-184.748 301.155,-187.426"/>
<polygon fill="midnightblue" stroke="midnightblue" points="130.908,-144.318 122.25,-150.424 132.826,-151.05 130.908,-144.318"/>
</g>
<!-- Node23 -->
<g id="node23" class="node"><title>Node23</title>
<polygon fill="white" stroke="#bfbfbf" points="337,-23.5 337,-42.5 403,-42.5 403,-23.5 337,-23.5"/>
<text text-anchor="middle" x="370" y="-30.5" font-family="Helvetica,sans-Serif" font-size="10.00">ScrollPane</text>
</g>
<!-- Node23&#45;&gt;Node16 -->
<g id="edge24" class="edge"><title>Node23&#45;&gt;Node16</title>
<path fill="none" stroke="#9a32cd" stroke-dasharray="5,2" d="M413.234,-41.1931C428.087,-44.2916 444.849,-48.0348 460,-52 500.526,-62.6063 512.489,-61.3501 550,-80 586.073,-97.9354 623.277,-128.071 641.139,-143.408"/>
<polygon fill="#9a32cd" stroke="#9a32cd" points="413.798,-37.736 403.299,-39.1561 412.392,-44.5934 413.798,-37.736"/>
<text text-anchor="middle" x="514" y="-83" font-family="Helvetica,sans-Serif" font-size="10.00"> myGridSPane</text>
</g>
<!-- Node24&#45;&gt;Node16 -->
<g id="edge25" class="edge"><title>Node24&#45;&gt;Node16</title>
<path fill="none" stroke="#9a32cd" stroke-dasharray="5,2" d="M441.877,-185.902C487.901,-178.695 547.263,-169.4 591.146,-162.529"/>
<polygon fill="#9a32cd" stroke="#9a32cd" points="441.311,-182.448 431.973,-187.453 442.394,-189.363 441.311,-182.448"/>
<text text-anchor="middle" x="514" y="-184" font-family="Helvetica,sans-Serif" font-size="10.00"> myPieceTypes</text>
</g>
<!-- Node25 -->
<g id="node25" class="node"><title>Node25</title>
<g id="a_node25"><a xlink:href="../../de/dd8/classauthoring_1_1data_1_1_player_data.html" target="_top" xlink:title="authoring.data.PlayerData">
<polygon fill="white" stroke="black" points="298.5,-61.5 298.5,-80.5 441.5,-80.5 441.5,-61.5 298.5,-61.5"/>
<text text-anchor="middle" x="370" y="-68.5" font-family="Helvetica,sans-Serif" font-size="10.00">authoring.data.PlayerData</text>
</a>
</g>
</g>
<!-- Node25&#45;&gt;Node16 -->
<g id="edge29" class="edge"><title>Node25&#45;&gt;Node16</title>
<path fill="none" stroke="#9a32cd" stroke-dasharray="5,2" d="M426.375,-82.652C437.517,-85.0443 449.139,-87.5738 460,-90 500.086,-98.9548 510.882,-98.473 550,-111 578.999,-120.287 611.323,-134.239 631.655,-143.48"/>
<polygon fill="#9a32cd" stroke="#9a32cd" points="426.823,-79.1689 416.313,-80.5005 425.36,-86.0142 426.823,-79.1689"/>
<text text-anchor="middle" x="514" y="-114" font-family="Helvetica,sans-Serif" font-size="10.00"> myPlayerData</text>
</g>
<!-- Node26 -->
<g id="node26" class="node"><title>Node26</title>
<polygon fill="white" stroke="#bfbfbf" points="24.5,-0 24.5,-30 163.5,-30 163.5,-0 24.5,-0"/>
<text text-anchor="start" x="32.5" y="-18" font-family="Helvetica,sans-Serif" font-size="10.00">List&lt; gameengine.player.</text>
<text text-anchor="middle" x="94" y="-7" font-family="Helvetica,sans-Serif" font-size="10.00">Player &gt;</text>
</g>
<!-- Node26&#45;&gt;Node25 -->
<g id="edge30" class="edge"><title>Node26&#45;&gt;Node25</title>
<path fill="none" stroke="#9a32cd" stroke-dasharray="5,2" d="M173.841,-31.1135C221.835,-40.9225 281.522,-53.1213 322.165,-61.4279"/>
<polygon fill="#9a32cd" stroke="#9a32cd" points="174.286,-27.6322 163.788,-29.0589 172.885,-34.4905 174.286,-27.6322"/>
<text text-anchor="middle" x="234" y="-52" font-family="Helvetica,sans-Serif" font-size="10.00"> myPlayers</text>
</g>
</g>
</svg>
        <g id="navigator" transform="translate(0 0)" fill="#404254">
                <rect fill="#f2f5e9" fill-opacity="0.5" stroke="#606060" stroke-width=".5" x="0" y="0" width="60" height="60"/>
                <use id="zoomplus" xlink:href="#zoomPlus" x="17" y="9" onmousedown="handleZoom(evt,'in')"/>
                <use id="zoomminus" xlink:href="#zoomMin" x="42" y="9" onmousedown="handleZoom(evt,'out')"/>
                <use id="reset" xlink:href="#resetDef" x="30" y="36" onmousedown="handleReset()"/>
                <g id="arrowUp" xlink:href="#dirArrow" transform="translate(30 24)" onmousedown="handlePan(0,-1)">
                  <use xlink:href="#rim" fill="#404040">
                        <set attributeName="fill" to="#808080" begin="arrowUp.mouseover" end="arrowUp.mouseout"/>
                  </use>
                  <path fill="none" stroke="white" stroke-width="1.5" d="M0,-3.0v7 M-2.5,-0.5L0,-3.0L2.5,-0.5"/>
                </g>
                <g id="arrowRight" xlink:href="#dirArrow" transform="rotate(90) translate(36 -43)" onmousedown="handlePan(1,0)">
                  <use xlink:href="#rim" fill="#404040">
                        <set attributeName="fill" to="#808080" begin="arrowRight.mouseover" end="arrowRight.mouseout"/>
                  </use>
                  <path fill="none" stroke="white" stroke-width="1.5" d="M0,-3.0v7 M-2.5,-0.5L0,-3.0L2.5,-0.5"/>
                </g>
                <g id="arrowDown" xlink:href="#dirArrow" transform="rotate(180) translate(-30 -48)" onmousedown="handlePan(0,1)">
                  <use xlink:href="#rim" fill="#404040">
                        <set attributeName="fill" to="#808080" begin="arrowDown.mouseover" end="arrowDown.mouseout"/>
                  </use>
                  <path fill="none" stroke="white" stroke-width="1.5" d="M0,-3.0v7 M-2.5,-0.5L0,-3.0L2.5,-0.5"/>
                </g>
                <g id="arrowLeft" xlink:href="#dirArrow" transform="rotate(270) translate(-36 17)" onmousedown="handlePan(-1,0)">
                  <use xlink:href="#rim" fill="#404040">
                        <set attributeName="fill" to="#808080" begin="arrowLeft.mouseover" end="arrowLeft.mouseout"/>
                  </use>
                  <path fill="none" stroke="white" stroke-width="1.5" d="M0,-3.0v7 M-2.5,-0.5L0,-3.0L2.5,-0.5"/>
                </g>
        </g>
        <svg viewBox="0 0 15 15" width="100%" height="30px" preserveAspectRatio="xMaxYMin meet">
         <g id="arrow_out" transform="scale(0.3 0.3)">
          <a xlink:href="classauthoring_1_1concretefeatures_1_1_level_creator__coll__graph_org.svg" target="_base">
           <rect id="button" ry="5" rx="5" y="6" x="6" height="38" width="38"
                fill="#f2f5e9" fill-opacity="0.5" stroke="#606060" stroke-width="1.0"/>
           <path id="arrow"
             d="M 11.500037,31.436501 C 11.940474,20.09759 22.043105,11.32322 32.158766,21.979434 L 37.068811,17.246167 C 37.068811,17.246167 37.088388,32 37.088388,32 L 22.160133,31.978069 C 22.160133,31.978069 26.997745,27.140456 26.997745,27.140456 C 18.528582,18.264221 13.291696,25.230495 11.500037,31.436501 z"
             style="fill:#404040;"/>
          </a>
         </g>
        </svg>
</svg>
