<?xml version="1.0" encoding="UTF-8" standalone="no"?>
<!DOCTYPE svg PUBLIC "-//W3C//DTD SVG 1.1//EN"
 "http://www.w3.org/Graphics/SVG/1.1/DTD/svg11.dtd">
<!-- Generated by graphviz version 2.36.0 (20140111.2315)
 -->
<!-- Title: gamePlayer.LeapController.leapListener Pages: 1 -->
<svg width="229pt" height="108pt"
 viewBox="0.00 0.00 229.00 108.00" xmlns="http://www.w3.org/2000/svg" xmlns:xlink="http://www.w3.org/1999/xlink">
<g id="graph0" class="graph" transform="scale(1 1) rotate(0) translate(4 104)">
<title>gamePlayer.LeapController.leapListener</title>
<polygon fill="white" stroke="none" points="-4,4 -4,-104 225,-104 225,4 -4,4"/>
<!-- Node1 -->
<g id="node1" class="node"><title>Node1</title>
<polygon fill="#bfbfbf" stroke="black" points="3,-1 3,-31 171,-31 171,-1 3,-1"/>
<text text-anchor="start" x="11" y="-19" font-family="Helvetica,sans-Serif" font-size="10.00">gamePlayer.LeapController.leap</text>
<text text-anchor="middle" x="87" y="-8" font-family="Helvetica,sans-Serif" font-size="10.00">Listener</text>
</g>
<!-- Node2 -->
<g id="node2" class="node"><title>Node2</title>
<polygon fill="white" stroke="#bfbfbf" points="-0.5,-80.5 -0.5,-99.5 54.5,-99.5 54.5,-80.5 -0.5,-80.5"/>
<text text-anchor="middle" x="27" y="-87.5" font-family="Helvetica,sans-Serif" font-size="10.00">Listener</text>
</g>
<!-- Node2&#45;&gt;Node1 -->
<g id="edge1" class="edge"><title>Node2&#45;&gt;Node1</title>
<path fill="none" stroke="midnightblue" d="M40.6138,-72.6634C51.0135,-60.1839 65.2029,-43.1565 75.1403,-31.2316"/>
<polygon fill="midnightblue" stroke="midnightblue" points="37.8315,-70.535 34.1184,-80.4579 43.2091,-75.0163 37.8315,-70.535"/>
</g>
<!-- Node3 -->
<g id="node3" class="node"><title>Node3</title>
<polygon fill="white" stroke="#bfbfbf" points="73,-80.5 73,-99.5 221,-99.5 221,-80.5 73,-80.5"/>
<text text-anchor="middle" x="147" y="-87.5" font-family="Helvetica,sans-Serif" font-size="10.00">ObjectProperty&lt; Point2D &gt;</text>
</g>
<!-- Node3&#45;&gt;Node1 -->
<g id="edge2" class="edge"><title>Node3&#45;&gt;Node1</title>
<path fill="none" stroke="#9a32cd" stroke-dasharray="5,2" d="M133.386,-72.6634C122.987,-60.1839 108.797,-43.1565 98.8597,-31.2316"/>
<polygon fill="#9a32cd" stroke="#9a32cd" points="130.791,-75.0163 139.882,-80.4579 136.168,-70.535 130.791,-75.0163"/>
<text text-anchor="middle" x="139" y="-53.5" font-family="Helvetica,sans-Serif" font-size="10.00"> point</text>
</g>
</g>
</svg>
