<?xml version="1.0" encoding="UTF-8" standalone="no"?>
<!DOCTYPE svg PUBLIC "-//W3C//DTD SVG 1.1//EN"
 "http://www.w3.org/Graphics/SVG/1.1/DTD/svg11.dtd">
<!-- Generated by graphviz version 2.36.0 (20140111.2315)
 -->
<!-- Title: gamePlayer.ViewController.getGame Pages: 1 -->
<svg width="2170pt" height="270pt"
 viewBox="0.00 0.00 2170.00 270.00" xmlns="http://www.w3.org/2000/svg" xmlns:xlink="http://www.w3.org/1999/xlink">
<g id="graph0" class="graph" transform="scale(1 1) rotate(0) translate(4 266)">
<title>gamePlayer.ViewController.getGame</title>
<polygon fill="white" stroke="none" points="-4,4 -4,-266 2166,-266 2166,4 -4,4"/>
<!-- Node1 -->
<g id="node1" class="node"><title>Node1</title>
<polygon fill="#bfbfbf" stroke="black" points="0.5,-189.5 0.5,-208.5 191.5,-208.5 191.5,-189.5 0.5,-189.5"/>
<text text-anchor="middle" x="96" y="-196.5" font-family="Helvetica,sans-Serif" font-size="10.00">gamePlayer.ViewController.getGame</text>
</g>
<!-- Node2 -->
<g id="node2" class="node"><title>Node2</title>
<g id="a_node2"><a xlink:href="../../d6/d24/classgame_player_1_1_select_state.html#a801827392f0faeee6b96925060d77838" target="_top" xlink:title="gamePlayer.SelectState.on\lClick">
<polygon fill="white" stroke="black" points="901.5,-231 901.5,-261 1048.5,-261 1048.5,-231 901.5,-231"/>
<text text-anchor="start" x="909.5" y="-249" font-family="Helvetica,sans-Serif" font-size="10.00">gamePlayer.SelectState.on</text>
<text text-anchor="middle" x="975" y="-238" font-family="Helvetica,sans-Serif" font-size="10.00">Click</text>
</a>
</g>
</g>
<!-- Node1&#45;&gt;Node2 -->
<g id="edge1" class="edge"><title>Node1&#45;&gt;Node2</title>
<path fill="none" stroke="midnightblue" d="M201.709,-204.612C381.931,-214.27 746.314,-233.798 901.435,-242.111"/>
<polygon fill="midnightblue" stroke="midnightblue" points="201.861,-201.115 191.688,-204.074 201.486,-208.105 201.861,-201.115"/>
</g>
<!-- Node3 -->
<g id="node3" class="node"><title>Node3</title>
<g id="a_node3"><a xlink:href="../../da/d55/classgame_player_1_1_keyboard_movement.html#af45fd8d279b1ee2d6be5466d425485ab" target="_top" xlink:title="gamePlayer.KeyboardMovement.set\lMovementKeyControl">
<polygon fill="white" stroke="black" points="228.5,-113 228.5,-143 417.5,-143 417.5,-113 228.5,-113"/>
<text text-anchor="start" x="236.5" y="-131" font-family="Helvetica,sans-Serif" font-size="10.00">gamePlayer.KeyboardMovement.set</text>
<text text-anchor="middle" x="323" y="-120" font-family="Helvetica,sans-Serif" font-size="10.00">MovementKeyControl</text>
</a>
</g>
</g>
<!-- Node1&#45;&gt;Node3 -->
<g id="edge2" class="edge"><title>Node1&#45;&gt;Node3</title>
<path fill="none" stroke="midnightblue" d="M137.133,-186.336C175.484,-174.234 233.33,-155.98 274.081,-143.121"/>
<polygon fill="midnightblue" stroke="midnightblue" points="135.828,-183.078 127.345,-189.425 137.934,-189.753 135.828,-183.078"/>
</g>
<!-- Node4 -->
<g id="node4" class="node"><title>Node4</title>
<g id="a_node4"><a xlink:href="../../df/dd5/classgame_player_1_1_view_controller.html#a7eb038fd9f20604ade0406f27ef76657" target="_top" xlink:title="gamePlayer.ViewController.bind\lAction">
<polygon fill="white" stroke="black" points="458.5,-113 458.5,-143 625.5,-143 625.5,-113 458.5,-113"/>
<text text-anchor="start" x="466.5" y="-131" font-family="Helvetica,sans-Serif" font-size="10.00">gamePlayer.ViewController.bind</text>
<text text-anchor="middle" x="542" y="-120" font-family="Helvetica,sans-Serif" font-size="10.00">Action</text>
</a>
</g>
</g>
<!-- Node3&#45;&gt;Node4 -->
<g id="edge3" class="edge"><title>Node3&#45;&gt;Node4</title>
<path fill="none" stroke="midnightblue" d="M427.799,-128C438.029,-128 448.314,-128 458.291,-128"/>
<polygon fill="midnightblue" stroke="midnightblue" points="427.602,-124.5 417.602,-128 427.602,-131.5 427.602,-124.5"/>
</g>
<!-- Node7 -->
<g id="node7" class="node"><title>Node7</title>
<g id="a_node7"><a xlink:href="../../df/dd5/classgame_player_1_1_view_controller.html#a95c2acd43bb39b8606c69971c1cd30f5" target="_top" xlink:title="gamePlayer.ViewController.perform\lAction">
<polygon fill="white" stroke="black" points="882.5,-36 882.5,-66 1067.5,-66 1067.5,-36 882.5,-36"/>
<text text-anchor="start" x="890.5" y="-54" font-family="Helvetica,sans-Serif" font-size="10.00">gamePlayer.ViewController.perform</text>
<text text-anchor="middle" x="975" y="-43" font-family="Helvetica,sans-Serif" font-size="10.00">Action</text>
</a>
</g>
</g>
<!-- Node3&#45;&gt;Node7 -->
<g id="edge24" class="edge"><title>Node3&#45;&gt;Node7</title>
<path fill="none" stroke="midnightblue" d="M369.355,-110.418C394.261,-104.332 425.744,-98.3097 454,-94 603.111,-71.2569 777.856,-56.1228 882.056,-50.7715"/>
<polygon fill="midnightblue" stroke="midnightblue" points="368.291,-107.077 359.461,-112.933 370.015,-113.862 368.291,-107.077"/>
</g>
<!-- Node22 -->
<g id="node22" class="node"><title>Node22</title>
<g id="a_node22"><a xlink:href="../../df/dd5/classgame_player_1_1_view_controller.html#a27da17c1280cd953a14f6b76b18f9a4b" target="_top" xlink:title="gamePlayer.ViewController.toggle\lKeyboardControl">
<polygon fill="white" stroke="black" points="454,-162 454,-192 630,-192 630,-162 454,-162"/>
<text text-anchor="start" x="462" y="-180" font-family="Helvetica,sans-Serif" font-size="10.00">gamePlayer.ViewController.toggle</text>
<text text-anchor="middle" x="542" y="-169" font-family="Helvetica,sans-Serif" font-size="10.00">KeyboardControl</text>
</a>
</g>
</g>
<!-- Node3&#45;&gt;Node22 -->
<g id="edge25" class="edge"><title>Node3&#45;&gt;Node22</title>
<path fill="none" stroke="midnightblue" d="M400.429,-145.258C424.608,-150.718 451.122,-156.705 474.544,-161.994"/>
<polygon fill="midnightblue" stroke="midnightblue" points="401.107,-141.823 390.582,-143.035 399.565,-148.651 401.107,-141.823"/>
</g>
<!-- Node5 -->
<g id="node5" class="node"><title>Node5</title>
<g id="a_node5"><a xlink:href="../../df/df0/classtests_1_1_view_controller_test.html#a74e99f9c72cbdcd2d56271b2ad2df1ce" target="_top" xlink:title="tests.ViewControllerTest.bind\lActionTest">
<polygon fill="white" stroke="black" points="679,-89 679,-119 833,-119 833,-89 679,-89"/>
<text text-anchor="start" x="687" y="-107" font-family="Helvetica,sans-Serif" font-size="10.00">tests.ViewControllerTest.bind</text>
<text text-anchor="middle" x="756" y="-96" font-family="Helvetica,sans-Serif" font-size="10.00">ActionTest</text>
</a>
</g>
</g>
<!-- Node4&#45;&gt;Node5 -->
<g id="edge4" class="edge"><title>Node4&#45;&gt;Node5</title>
<path fill="none" stroke="midnightblue" d="M635.528,-117.525C650.008,-115.886 664.829,-114.208 678.887,-112.617"/>
<polygon fill="midnightblue" stroke="midnightblue" points="635.115,-114.049 625.572,-118.652 635.902,-121.005 635.115,-114.049"/>
</g>
<!-- Node6 -->
<g id="node6" class="node"><title>Node6</title>
<g id="a_node6"><a xlink:href="../../d1/db7/classgame_player_1_1_keyboard_action.html#a08ace57322b8639020688dd9493c3e1f" target="_top" xlink:title="gamePlayer.KeyboardAction.set\lActionKeyControl">
<polygon fill="white" stroke="black" points="672,-138 672,-168 840,-168 840,-138 672,-138"/>
<text text-anchor="start" x="680" y="-156" font-family="Helvetica,sans-Serif" font-size="10.00">gamePlayer.KeyboardAction.set</text>
<text text-anchor="middle" x="756" y="-145" font-family="Helvetica,sans-Serif" font-size="10.00">ActionKeyControl</text>
</a>
</g>
</g>
<!-- Node4&#45;&gt;Node6 -->
<g id="edge5" class="edge"><title>Node4&#45;&gt;Node6</title>
<path fill="none" stroke="midnightblue" d="M635.65,-138.926C647.731,-140.35 660.046,-141.803 671.956,-143.207"/>
<polygon fill="midnightblue" stroke="midnightblue" points="635.913,-135.433 625.572,-137.737 635.093,-142.384 635.913,-135.433"/>
</g>
<!-- Node20 -->
<g id="node20" class="node"><title>Node20</title>
<g id="a_node20"><a xlink:href="../../df/dd5/classgame_player_1_1_view_controller.html#ab8c14a8c53be9021a62d0107c2f75ef6" target="_top" xlink:title="gamePlayer.ViewController.update\lActions">
<polygon fill="white" stroke="black" points="666,-187 666,-217 846,-217 846,-187 666,-187"/>
<text text-anchor="start" x="674" y="-205" font-family="Helvetica,sans-Serif" font-size="10.00">gamePlayer.ViewController.update</text>
<text text-anchor="middle" x="756" y="-194" font-family="Helvetica,sans-Serif" font-size="10.00">Actions</text>
</a>
</g>
</g>
<!-- Node4&#45;&gt;Node20 -->
<g id="edge21" class="edge"><title>Node4&#45;&gt;Node20</title>
<path fill="none" stroke="midnightblue" d="M616.616,-146.378C621.206,-148.115 625.703,-149.987 630,-152 647.64,-160.263 648.379,-168.696 666,-177 673.985,-180.763 682.647,-184.063 691.326,-186.926"/>
<polygon fill="midnightblue" stroke="midnightblue" points="617.691,-143.046 607.096,-143.001 615.351,-149.643 617.691,-143.046"/>
</g>
<!-- Node6&#45;&gt;Node7 -->
<g id="edge6" class="edge"><title>Node6&#45;&gt;Node7</title>
<path fill="none" stroke="midnightblue" d="M828.917,-134.611C834.765,-132.569 840.525,-130.364 846,-128 885.759,-110.828 928.115,-83.2926 952.761,-66.2223"/>
<polygon fill="midnightblue" stroke="midnightblue" points="827.418,-131.421 819.029,-137.892 829.622,-138.065 827.418,-131.421"/>
</g>
<!-- Node7&#45;&gt;Node3 -->
<g id="edge7" class="edge"><title>Node7&#45;&gt;Node3</title>
<path fill="none" stroke="midnightblue" d="M872.083,-64.8197C766.96,-75.0761 598.451,-89.9677 454,-112 442.185,-113.802 429.807,-115.903 417.581,-118.033"/>
<polygon fill="midnightblue" stroke="midnightblue" points="872.445,-68.3011 882.056,-63.8416 871.762,-61.3346 872.445,-68.3011"/>
</g>
<!-- Node8 -->
<g id="node8" class="node"><title>Node8</title>
<g id="a_node8"><a xlink:href="../../df/dd5/classgame_player_1_1_view_controller.html#a22ee80193bbac79a935ee961a183bfcd" target="_top" xlink:title="gamePlayer.ViewController.set\lOnClick">
<polygon fill="white" stroke="black" points="1104.5,-69 1104.5,-99 1265.5,-99 1265.5,-69 1104.5,-69"/>
<text text-anchor="start" x="1112.5" y="-87" font-family="Helvetica,sans-Serif" font-size="10.00">gamePlayer.ViewController.set</text>
<text text-anchor="middle" x="1185" y="-76" font-family="Helvetica,sans-Serif" font-size="10.00">OnClick</text>
</a>
</g>
</g>
<!-- Node7&#45;&gt;Node8 -->
<g id="edge8" class="edge"><title>Node7&#45;&gt;Node8</title>
<path fill="none" stroke="midnightblue" d="M1077.68,-67.1313C1086.68,-68.5599 1095.71,-69.9921 1104.49,-71.3852"/>
<polygon fill="midnightblue" stroke="midnightblue" points="1077.96,-63.6326 1067.53,-65.5223 1076.86,-70.5461 1077.96,-63.6326"/>
</g>
<!-- Node9 -->
<g id="node9" class="node"><title>Node9</title>
<g id="a_node9"><a xlink:href="../../df/dd5/classgame_player_1_1_view_controller.html#a10a40967a873f067cf91b024ff85b38e" target="_top" xlink:title="gamePlayer.ViewController.initializeGrid">
<polygon fill="white" stroke="black" points="1302,-76.5 1302,-95.5 1506,-95.5 1506,-76.5 1302,-76.5"/>
<text text-anchor="middle" x="1404" y="-83.5" font-family="Helvetica,sans-Serif" font-size="10.00">gamePlayer.ViewController.initializeGrid</text>
</a>
</g>
</g>
<!-- Node8&#45;&gt;Node9 -->
<g id="edge9" class="edge"><title>Node8&#45;&gt;Node9</title>
<path fill="none" stroke="midnightblue" d="M1275.68,-84.8265C1284.36,-84.9066 1293.21,-84.9881 1302,-85.0691"/>
<polygon fill="midnightblue" stroke="midnightblue" points="1275.6,-81.3258 1265.57,-84.7334 1275.54,-88.3255 1275.6,-81.3258"/>
</g>
<!-- Node10 -->
<g id="node10" class="node"><title>Node10</title>
<g id="a_node10"><a xlink:href="../../df/dd5/classgame_player_1_1_view_controller.html#aabf431713b65ec510f1cb2df12da4e45" target="_top" xlink:title="gamePlayer.ViewController.test\lPlayGameInTab">
<polygon fill="white" stroke="black" points="1563.5,-137 1563.5,-167 1728.5,-167 1728.5,-137 1563.5,-137"/>
<text text-anchor="start" x="1571.5" y="-155" font-family="Helvetica,sans-Serif" font-size="10.00">gamePlayer.ViewController.test</text>
<text text-anchor="middle" x="1646" y="-144" font-family="Helvetica,sans-Serif" font-size="10.00">PlayGameInTab</text>
</a>
</g>
</g>
<!-- Node9&#45;&gt;Node10 -->
<g id="edge10" class="edge"><title>Node9&#45;&gt;Node10</title>
<path fill="none" stroke="midnightblue" d="M1444.91,-98.5497C1472.16,-106.967 1509.13,-118.1 1542,-127 1554.52,-130.391 1567.96,-133.81 1580.86,-136.985"/>
<polygon fill="midnightblue" stroke="midnightblue" points="1445.93,-95.2003 1435.34,-95.5804 1443.85,-101.886 1445.93,-95.2003"/>
</g>
<!-- Node11 -->
<g id="node11" class="node"><title>Node11</title>
<g id="a_node11"><a xlink:href="../../df/dd5/classgame_player_1_1_view_controller.html#a0d1a3d443966f151b070dc751d2faf9a" target="_top" xlink:title="gamePlayer.ViewController.restartGame">
<polygon fill="white" stroke="black" points="1542,-98.5 1542,-117.5 1750,-117.5 1750,-98.5 1542,-98.5"/>
<text text-anchor="middle" x="1646" y="-105.5" font-family="Helvetica,sans-Serif" font-size="10.00">gamePlayer.ViewController.restartGame</text>
</a>
</g>
</g>
<!-- Node9&#45;&gt;Node11 -->
<g id="edge11" class="edge"><title>Node9&#45;&gt;Node11</title>
<path fill="none" stroke="midnightblue" d="M1516.08,-96.1822C1524.62,-96.9656 1533.23,-97.7544 1541.72,-98.5329"/>
<polygon fill="midnightblue" stroke="midnightblue" points="1516.36,-92.6938 1506.09,-95.2662 1515.72,-99.6645 1516.36,-92.6938"/>
</g>
<!-- Node12 -->
<g id="node12" class="node"><title>Node12</title>
<g id="a_node12"><a xlink:href="../../df/dd5/classgame_player_1_1_view_controller.html#a620f8a02d3ac7677cd179fcd812aca55" target="_top" xlink:title="gamePlayer.ViewController.check\lEndActions">
<polygon fill="white" stroke="black" points="1559,-0 1559,-30 1733,-30 1733,-0 1559,-0"/>
<text text-anchor="start" x="1567" y="-18" font-family="Helvetica,sans-Serif" font-size="10.00">gamePlayer.ViewController.check</text>
<text text-anchor="middle" x="1646" y="-7" font-family="Helvetica,sans-Serif" font-size="10.00">EndActions</text>
</a>
</g>
</g>
<!-- Node9&#45;&gt;Node12 -->
<g id="edge12" class="edge"><title>Node9&#45;&gt;Node12</title>
<path fill="none" stroke="midnightblue" d="M1439.82,-72.9591C1467.32,-62.9244 1506.81,-49.1087 1542,-39 1552.94,-35.8573 1564.62,-32.8291 1576.05,-30.0443"/>
<polygon fill="midnightblue" stroke="midnightblue" points="1438.44,-69.7379 1430.26,-76.4712 1440.85,-76.3087 1438.44,-69.7379"/>
</g>
<!-- Node15 -->
<g id="node15" class="node"><title>Node15</title>
<g id="a_node15"><a xlink:href="../../df/dd5/classgame_player_1_1_view_controller.html#adc15cd81cefb88c58f9d3b7478328df8" target="_top" xlink:title="gamePlayer.ViewController.test\lPlayGUIGame">
<polygon fill="white" stroke="black" points="1563.5,-49 1563.5,-79 1728.5,-79 1728.5,-49 1563.5,-49"/>
<text text-anchor="start" x="1571.5" y="-67" font-family="Helvetica,sans-Serif" font-size="10.00">gamePlayer.ViewController.test</text>
<text text-anchor="middle" x="1646" y="-56" font-family="Helvetica,sans-Serif" font-size="10.00">PlayGUIGame</text>
</a>
</g>
</g>
<!-- Node9&#45;&gt;Node15 -->
<g id="edge16" class="edge"><title>Node9&#45;&gt;Node15</title>
<path fill="none" stroke="midnightblue" d="M1516.43,-75.7858C1532.23,-74.3377 1548.22,-72.8712 1563.32,-71.4877"/>
<polygon fill="midnightblue" stroke="midnightblue" points="1515.72,-72.3355 1506.09,-76.7338 1516.36,-79.3062 1515.72,-72.3355"/>
</g>
<!-- Node16 -->
<g id="node16" class="node"><title>Node16</title>
<g id="a_node16"><a xlink:href="../../df/dd5/classgame_player_1_1_view_controller.html#a4c1754d129a4eac955390b428eaa448a" target="_top" xlink:title="gamePlayer.ViewController.test\lPlayGame">
<polygon fill="white" stroke="black" points="1563.5,-186 1563.5,-216 1728.5,-216 1728.5,-186 1563.5,-186"/>
<text text-anchor="start" x="1571.5" y="-204" font-family="Helvetica,sans-Serif" font-size="10.00">gamePlayer.ViewController.test</text>
<text text-anchor="middle" x="1646" y="-193" font-family="Helvetica,sans-Serif" font-size="10.00">PlayGame</text>
</a>
</g>
</g>
<!-- Node9&#45;&gt;Node16 -->
<g id="edge17" class="edge"><title>Node9&#45;&gt;Node16</title>
<path fill="none" stroke="midnightblue" d="M1424.78,-102.187C1450.34,-122.324 1496.93,-156.431 1542,-176 1550.78,-179.811 1560.24,-183.106 1569.74,-185.936"/>
<polygon fill="midnightblue" stroke="midnightblue" points="1426.65,-99.2014 1416.65,-95.6944 1422.28,-104.671 1426.65,-99.2014"/>
</g>
<!-- Node12&#45;&gt;Node7 -->
<g id="edge15" class="edge"><title>Node12&#45;&gt;Node7</title>
<path fill="none" stroke="midnightblue" d="M1548.76,-20.1791C1420.15,-27.0998 1193.83,-39.278 1067.62,-46.0698"/>
<polygon fill="midnightblue" stroke="midnightblue" points="1549.19,-23.661 1558.98,-19.6286 1548.81,-16.6711 1549.19,-23.661"/>
</g>
<!-- Node13 -->
<g id="node13" class="node"><title>Node13</title>
<g id="a_node13"><a xlink:href="../../df/dd5/classgame_player_1_1_view_controller.html#a13ea7814bde61a8042c5b1a23af41416" target="_top" xlink:title="gamePlayer.ViewController.end\lAction">
<polygon fill="white" stroke="black" points="1801,-0 1801,-30 1965,-30 1965,-0 1801,-0"/>
<text text-anchor="start" x="1809" y="-18" font-family="Helvetica,sans-Serif" font-size="10.00">gamePlayer.ViewController.end</text>
<text text-anchor="middle" x="1883" y="-7" font-family="Helvetica,sans-Serif" font-size="10.00">Action</text>
</a>
</g>
</g>
<!-- Node12&#45;&gt;Node13 -->
<g id="edge13" class="edge"><title>Node12&#45;&gt;Node13</title>
<path fill="none" stroke="midnightblue" d="M1743.39,-15C1762.5,-15 1782.38,-15 1800.92,-15"/>
<polygon fill="midnightblue" stroke="midnightblue" points="1743.17,-11.5001 1733.17,-15 1743.17,-18.5001 1743.17,-11.5001"/>
</g>
<!-- Node14 -->
<g id="node14" class="node"><title>Node14</title>
<g id="a_node14"><a xlink:href="../../db/d00/classgame_player_1_1_apply_state.html#aed42c1aba25264bc6880036f693a1c9e" target="_top" xlink:title="gamePlayer.ApplyState.on\lClick">
<polygon fill="white" stroke="black" points="2017.5,-0 2017.5,-30 2160.5,-30 2160.5,-0 2017.5,-0"/>
<text text-anchor="start" x="2025.5" y="-18" font-family="Helvetica,sans-Serif" font-size="10.00">gamePlayer.ApplyState.on</text>
<text text-anchor="middle" x="2089" y="-7" font-family="Helvetica,sans-Serif" font-size="10.00">Click</text>
</a>
</g>
</g>
<!-- Node13&#45;&gt;Node14 -->
<g id="edge14" class="edge"><title>Node13&#45;&gt;Node14</title>
<path fill="none" stroke="midnightblue" d="M1975.38,-15C1989.44,-15 2003.76,-15 2017.28,-15"/>
<polygon fill="midnightblue" stroke="midnightblue" points="1975.21,-11.5001 1965.21,-15 1975.21,-18.5001 1975.21,-11.5001"/>
</g>
<!-- Node17 -->
<g id="node17" class="node"><title>Node17</title>
<g id="a_node17"><a xlink:href="../../db/d40/classfxml__main_1_1_authoring_controller.html#a2ec133c8edf0a7ab1e84f2e12455233d" target="_top" xlink:title="fxml_main.AuthoringController.save\lAsGame">
<polygon fill="white" stroke="black" points="1789.5,-164 1789.5,-194 1976.5,-194 1976.5,-164 1789.5,-164"/>
<text text-anchor="start" x="1797.5" y="-182" font-family="Helvetica,sans-Serif" font-size="10.00">fxml_main.AuthoringController.save</text>
<text text-anchor="middle" x="1883" y="-171" font-family="Helvetica,sans-Serif" font-size="10.00">AsGame</text>
</a>
</g>
</g>
<!-- Node16&#45;&gt;Node17 -->
<g id="edge18" class="edge"><title>Node16&#45;&gt;Node17</title>
<path fill="none" stroke="midnightblue" d="M1738.77,-192.409C1755.38,-190.854 1772.7,-189.232 1789.34,-187.675"/>
<polygon fill="midnightblue" stroke="midnightblue" points="1738.16,-188.95 1728.53,-193.367 1738.81,-195.92 1738.16,-188.95"/>
</g>
<!-- Node18 -->
<g id="node18" class="node"><title>Node18</title>
<g id="a_node18"><a xlink:href="../../df/dd5/classgame_player_1_1_view_controller.html#a2bf1dce04187ad5eacb5359ef2b4eff8" target="_top" xlink:title="gamePlayer.ViewController.newGame">
<polygon fill="white" stroke="black" points="1786,-213.5 1786,-232.5 1980,-232.5 1980,-213.5 1786,-213.5"/>
<text text-anchor="middle" x="1883" y="-220.5" font-family="Helvetica,sans-Serif" font-size="10.00">gamePlayer.ViewController.newGame</text>
</a>
</g>
</g>
<!-- Node16&#45;&gt;Node18 -->
<g id="edge19" class="edge"><title>Node16&#45;&gt;Node18</title>
<path fill="none" stroke="midnightblue" d="M1738.58,-209.573C1754.03,-211.019 1770.1,-212.524 1785.66,-213.981"/>
<polygon fill="midnightblue" stroke="midnightblue" points="1738.81,-206.08 1728.53,-208.633 1738.16,-213.05 1738.81,-206.08"/>
</g>
<!-- Node19 -->
<g id="node19" class="node"><title>Node19</title>
<g id="a_node19"><a xlink:href="../../df/dd5/classgame_player_1_1_view_controller.html#a2acd822c93c35674b6978a97b4ce6e3f" target="_top" xlink:title="gamePlayer.ViewController.\lViewController">
<polygon fill="white" stroke="black" points="2016,-208 2016,-238 2162,-238 2162,-208 2016,-208"/>
<text text-anchor="start" x="2024" y="-226" font-family="Helvetica,sans-Serif" font-size="10.00">gamePlayer.ViewController.</text>
<text text-anchor="middle" x="2089" y="-215" font-family="Helvetica,sans-Serif" font-size="10.00">ViewController</text>
</a>
</g>
</g>
<!-- Node18&#45;&gt;Node19 -->
<g id="edge20" class="edge"><title>Node18&#45;&gt;Node19</title>
<path fill="none" stroke="midnightblue" d="M1990.24,-223C1998.94,-223 2007.59,-223 2015.95,-223"/>
<polygon fill="midnightblue" stroke="midnightblue" points="1990.03,-219.5 1980.03,-223 1990.03,-226.5 1990.03,-219.5"/>
</g>
<!-- Node20&#45;&gt;Node2 -->
<g id="edge22" class="edge"><title>Node20&#45;&gt;Node2</title>
<path fill="none" stroke="midnightblue" d="M841.048,-219.042C860.952,-223.078 882.015,-227.349 901.364,-231.272"/>
<polygon fill="midnightblue" stroke="midnightblue" points="841.568,-215.576 831.072,-217.019 840.177,-222.437 841.568,-215.576"/>
</g>
<!-- Node21 -->
<g id="node21" class="node"><title>Node21</title>
<g id="a_node21"><a xlink:href="../../df/df0/classtests_1_1_view_controller_test.html#a785df2c49a72c183c22163ce927f5df1" target="_top" xlink:title="tests.ViewControllerTest.update\lActionsTest">
<polygon fill="white" stroke="black" points="891.5,-182 891.5,-212 1058.5,-212 1058.5,-182 891.5,-182"/>
<text text-anchor="start" x="899.5" y="-200" font-family="Helvetica,sans-Serif" font-size="10.00">tests.ViewControllerTest.update</text>
<text text-anchor="middle" x="975" y="-189" font-family="Helvetica,sans-Serif" font-size="10.00">ActionsTest</text>
</a>
</g>
</g>
<!-- Node20&#45;&gt;Node21 -->
<g id="edge23" class="edge"><title>Node20&#45;&gt;Node21</title>
<path fill="none" stroke="midnightblue" d="M856.436,-199.709C868.139,-199.439 879.983,-199.166 891.42,-198.903"/>
<polygon fill="midnightblue" stroke="midnightblue" points="856.118,-196.215 846.202,-199.945 856.28,-203.213 856.118,-196.215"/>
</g>
</g>
</svg>
