<?xml version="1.0" encoding="UTF-8" standalone="no"?>
<!DOCTYPE svg PUBLIC "-//W3C//DTD SVG 1.1//EN"
 "http://www.w3.org/Graphics/SVG/1.1/DTD/svg11.dtd">
<!-- Generated by graphviz version 2.36.0 (20140111.2315)
 -->
<!-- Title: gamePlayer.ViewController.updateStats Pages: 1 -->
<svg width="384pt" height="136pt"
 viewBox="0.00 0.00 384.00 136.00" xmlns="http://www.w3.org/2000/svg" xmlns:xlink="http://www.w3.org/1999/xlink">
<g id="graph0" class="graph" transform="scale(1 1) rotate(0) translate(4 132)">
<title>gamePlayer.ViewController.updateStats</title>
<polygon fill="white" stroke="none" points="-4,4 -4,-132 380,-132 380,4 -4,4"/>
<!-- Node1 -->
<g id="node1" class="node"><title>Node1</title>
<polygon fill="#bfbfbf" stroke="black" points="0,-49 0,-79 180,-79 180,-49 0,-49"/>
<text text-anchor="start" x="8" y="-67" font-family="Helvetica,sans-Serif" font-size="10.00">gamePlayer.ViewController.update</text>
<text text-anchor="middle" x="90" y="-56" font-family="Helvetica,sans-Serif" font-size="10.00">Stats</text>
</g>
<!-- Node2 -->
<g id="node2" class="node"><title>Node2</title>
<g id="a_node2"><a xlink:href="../../d6/d1d/classgamedata_1_1stats_1_1_stats.html#a697416262aa5871d7b38fdcc0b92c586" target="_top" xlink:title="gamedata.stats.Stats.get\lStatNames">
<polygon fill="white" stroke="black" points="226,-98 226,-128 366,-128 366,-98 226,-98"/>
<text text-anchor="start" x="234" y="-116" font-family="Helvetica,sans-Serif" font-size="10.00">gamedata.stats.Stats.get</text>
<text text-anchor="middle" x="296" y="-105" font-family="Helvetica,sans-Serif" font-size="10.00">StatNames</text>
</a>
</g>
</g>
<!-- Node1&#45;&gt;Node2 -->
<g id="edge1" class="edge"><title>Node1&#45;&gt;Node2</title>
<path fill="none" stroke="midnightblue" d="M153.593,-79.0346C175.426,-84.2789 200.106,-90.2069 222.666,-95.6255"/>
<polygon fill="midnightblue" stroke="midnightblue" points="221.984,-99.0614 232.525,-97.9938 223.619,-92.255 221.984,-99.0614"/>
</g>
<!-- Node3 -->
<g id="node3" class="node"><title>Node3</title>
<g id="a_node3"><a xlink:href="../../d4/d63/classgamedata_1_1gamecomponents_1_1_piece.html#aff9c4298f1796f022bc82ee138e925a4" target="_top" xlink:title="gamedata.gamecomponents.\lPiece.getStats">
<polygon fill="white" stroke="black" points="216,-49 216,-79 376,-79 376,-49 216,-49"/>
<text text-anchor="start" x="224" y="-67" font-family="Helvetica,sans-Serif" font-size="10.00">gamedata.gamecomponents.</text>
<text text-anchor="middle" x="296" y="-56" font-family="Helvetica,sans-Serif" font-size="10.00">Piece.getStats</text>
</a>
</g>
</g>
<!-- Node1&#45;&gt;Node3 -->
<g id="edge2" class="edge"><title>Node1&#45;&gt;Node3</title>
<path fill="none" stroke="midnightblue" d="M180.181,-64C188.641,-64 197.221,-64 205.683,-64"/>
<polygon fill="midnightblue" stroke="midnightblue" points="205.93,-67.5001 215.93,-64 205.93,-60.5001 205.93,-67.5001"/>
</g>
<!-- Node4 -->
<g id="node4" class="node"><title>Node4</title>
<g id="a_node4"><a xlink:href="../../d6/d1d/classgamedata_1_1stats_1_1_stats.html#af856afc55d980f35020bbeaefeb1777d" target="_top" xlink:title="gamedata.stats.Stats.get\lValue">
<polygon fill="white" stroke="black" points="226,-0 226,-30 366,-30 366,-0 226,-0"/>
<text text-anchor="start" x="234" y="-18" font-family="Helvetica,sans-Serif" font-size="10.00">gamedata.stats.Stats.get</text>
<text text-anchor="middle" x="296" y="-7" font-family="Helvetica,sans-Serif" font-size="10.00">Value</text>
</a>
</g>
</g>
<!-- Node1&#45;&gt;Node4 -->
<g id="edge3" class="edge"><title>Node1&#45;&gt;Node4</title>
<path fill="none" stroke="midnightblue" d="M153.593,-48.9654C175.426,-43.7211 200.106,-37.7931 222.666,-32.3745"/>
<polygon fill="midnightblue" stroke="midnightblue" points="223.619,-35.745 232.525,-30.0062 221.984,-28.9386 223.619,-35.745"/>
</g>
</g>
</svg>
