<?xml version="1.0" encoding="UTF-8" standalone="no"?>
<!DOCTYPE svg PUBLIC "-//W3C//DTD SVG 1.1//EN"
 "http://www.w3.org/Graphics/SVG/1.1/DTD/svg11.dtd">
<!-- Generated by graphviz version 2.36.0 (20140111.2315)
 -->
<!-- Title: gamePlayer.ViewController.getActiveAction Pages: 1 -->
<!--zoomable 287 -->
<svg id="main" version="1.1" xmlns="http://www.w3.org/2000/svg" xmlns:xlink="http://www.w3.org/1999/xlink" xml:space="preserve" onload="init(evt)">
<style type="text/css"><![CDATA[
.edge:hover path { stroke: red; }
.edge:hover polygon { stroke: red; fill: red; }
]]></style>
<script type="text/javascript"><![CDATA[
var edges = document.getElementsByTagName('g');
if (edges && edges.length) {
  for (var i=0;i<edges.length;i++) {
    if (edges[i].id.substr(0,4)=='edge') {
      edges[i].setAttribute('class','edge');
    }
  }
}
]]></script>
        <defs>
                <circle id="rim" cx="0" cy="0" r="7"/>
                <circle id="rim2" cx="0" cy="0" r="3.5"/>
                <g id="zoomPlus">
                        <use xlink:href="#rim" fill="#404040">
                                <set attributeName="fill" to="#808080" begin="zoomplus.mouseover" end="zoomplus.mouseout"/>
                        </use>
                        <path d="M-4,0h8M0,-4v8" fill="none" stroke="white" stroke-width="1.5" pointer-events="none"/>
                </g>
                <g id="zoomMin">
                        <use xlink:href="#rim" fill="#404040">
                                <set attributeName="fill" to="#808080" begin="zoomminus.mouseover" end="zoomminus.mouseout"/>
                        </use>
                        <path d="M-4,0h8" fill="none" stroke="white" stroke-width="1.5" pointer-events="none"/>
                </g>
                <g id="dirArrow">
                        <path fill="none" stroke="white" stroke-width="1.5" d="M0,-3.0v7 M-2.5,-0.5L0,-3.0L2.5,-0.5"/>
                </g>
               <g id="resetDef">
                       <use xlink:href="#rim2" fill="#404040">
                               <set attributeName="fill" to="#808080" begin="reset.mouseover" end="reset.mouseout"/>
                       </use>
               </g>
        </defs>

<script type="text/javascript">
var viewWidth = 2418;
var viewHeight = 287;
var sectionId = 'dynsection-21';
</script>
<script xlink:href="../../svgpan.js"/>
<svg id="graph" class="graph">
<g id="viewport">
<title>gamePlayer.ViewController.getActiveAction</title>
<polygon fill="white" stroke="none" points="-4,4 -4,-283 2414,-283 2414,4 -4,4"/>
<!-- Node1 -->
<g id="node1" class="node"><title>Node1</title>
<polygon fill="#bfbfbf" stroke="black" points="0,-176 0,-206 162,-206 162,-176 0,-176"/>
<text text-anchor="start" x="8" y="-194" font-family="Helvetica,sans-Serif" font-size="10.00">gamePlayer.ViewController.get</text>
<text text-anchor="middle" x="81" y="-183" font-family="Helvetica,sans-Serif" font-size="10.00">ActiveAction</text>
</g>
<!-- Node2 -->
<g id="node2" class="node"><title>Node2</title>
<g id="a_node2"><a xlink:href="../../df/df0/classtests_1_1_view_controller_test.html#a74e99f9c72cbdcd2d56271b2ad2df1ce" target="_top" xlink:title="tests.ViewControllerTest.bind\lActionTest">
<polygon fill="white" stroke="black" points="899,-220 899,-250 1053,-250 1053,-220 899,-220"/>
<text text-anchor="start" x="907" y="-238" font-family="Helvetica,sans-Serif" font-size="10.00">tests.ViewControllerTest.bind</text>
<text text-anchor="middle" x="976" y="-227" font-family="Helvetica,sans-Serif" font-size="10.00">ActionTest</text>
</a>
</g>
</g>
<!-- Node1&#45;&gt;Node2 -->
<g id="edge1" class="edge"><title>Node1&#45;&gt;Node2</title>
<path fill="none" stroke="midnightblue" d="M154.153,-208C168.6,-210.817 183.725,-213.353 198,-215 453.535,-244.485 759.337,-241.149 898.859,-237.522"/>
<polygon fill="midnightblue" stroke="midnightblue" points="154.773,-204.555 144.279,-206.012 153.391,-211.417 154.773,-204.555"/>
</g>
<!-- Node3 -->
<g id="node3" class="node"><title>Node3</title>
<g id="a_node3"><a xlink:href="../../d5/dfb/classgame_player_1_1_game_grid_effect.html#a06a39915dc8d5d6b82fdca29ca2733df" target="_top" xlink:title="gamePlayer.GameGridEffect.\lGameGridEffect">
<polygon fill="white" stroke="black" points="218.5,-127 218.5,-157 373.5,-157 373.5,-127 218.5,-127"/>
<text text-anchor="start" x="226.5" y="-145" font-family="Helvetica,sans-Serif" font-size="10.00">gamePlayer.GameGridEffect.</text>
<text text-anchor="middle" x="296" y="-134" font-family="Helvetica,sans-Serif" font-size="10.00">GameGridEffect</text>
</a>
</g>
</g>
<!-- Node1&#45;&gt;Node3 -->
<g id="edge2" class="edge"><title>Node1&#45;&gt;Node3</title>
<path fill="none" stroke="midnightblue" d="M157.337,-173.669C180.985,-168.229 206.881,-162.271 229.769,-157.006"/>
<polygon fill="midnightblue" stroke="midnightblue" points="156.315,-170.312 147.355,-175.965 157.885,-177.134 156.315,-170.312"/>
</g>
<!-- Node4 -->
<g id="node4" class="node"><title>Node4</title>
<g id="a_node4"><a xlink:href="../../d5/dfb/classgame_player_1_1_game_grid_effect.html#aa66b66982b57927422cd924196ffbed3" target="_top" xlink:title="gamePlayer.GameGridEffect.highlight\lEffectRange">
<polygon fill="white" stroke="black" points="198.5,-78 198.5,-108 393.5,-108 393.5,-78 198.5,-78"/>
<text text-anchor="start" x="206.5" y="-96" font-family="Helvetica,sans-Serif" font-size="10.00">gamePlayer.GameGridEffect.highlight</text>
<text text-anchor="middle" x="296" y="-85" font-family="Helvetica,sans-Serif" font-size="10.00">EffectRange</text>
</a>
</g>
</g>
<!-- Node1&#45;&gt;Node4 -->
<g id="edge3" class="edge"><title>Node1&#45;&gt;Node4</title>
<path fill="none" stroke="midnightblue" d="M109.539,-169.772C132.181,-153.247 165.686,-130.861 198,-117 205.892,-113.615 214.359,-110.642 222.883,-108.047"/>
<polygon fill="midnightblue" stroke="midnightblue" points="107.37,-167.023 101.418,-175.788 111.537,-172.648 107.37,-167.023"/>
</g>
<!-- Node5 -->
<g id="node5" class="node"><title>Node5</title>
<g id="a_node5"><a xlink:href="../../db/d00/classgame_player_1_1_apply_state.html#aed42c1aba25264bc6880036f693a1c9e" target="_top" xlink:title="gamePlayer.ApplyState.on\lClick">
<polygon fill="white" stroke="black" points="2265.5,-233 2265.5,-263 2408.5,-263 2408.5,-233 2265.5,-233"/>
<text text-anchor="start" x="2273.5" y="-251" font-family="Helvetica,sans-Serif" font-size="10.00">gamePlayer.ApplyState.on</text>
<text text-anchor="middle" x="2337" y="-240" font-family="Helvetica,sans-Serif" font-size="10.00">Click</text>
</a>
</g>
</g>
<!-- Node1&#45;&gt;Node5 -->
<g id="edge4" class="edge"><title>Node1&#45;&gt;Node5</title>
<path fill="none" stroke="midnightblue" d="M124.051,-210.129C145.731,-219.262 172.84,-229.575 198,-236 340.881,-272.485 379.534,-279 527,-279 527,-279 527,-279 1895,-279 2026.05,-279 2178.47,-265.209 2265.46,-256.024"/>
<polygon fill="midnightblue" stroke="midnightblue" points="125.378,-206.889 114.807,-206.168 122.621,-213.323 125.378,-206.889"/>
</g>
<!-- Node6 -->
<g id="node6" class="node"><title>Node6</title>
<g id="a_node6"><a xlink:href="../../d5/dfb/classgame_player_1_1_game_grid_effect.html#a5e34f8b7cca52de2db06626494e76457" target="_top" xlink:title="gamePlayer.GameGridEffect.update\lActives">
<polygon fill="white" stroke="black" points="202,-176 202,-206 390,-206 390,-176 202,-176"/>
<text text-anchor="start" x="210" y="-194" font-family="Helvetica,sans-Serif" font-size="10.00">gamePlayer.GameGridEffect.update</text>
<text text-anchor="middle" x="296" y="-183" font-family="Helvetica,sans-Serif" font-size="10.00">Actives</text>
</a>
</g>
</g>
<!-- Node1&#45;&gt;Node6 -->
<g id="edge5" class="edge"><title>Node1&#45;&gt;Node6</title>
<path fill="none" stroke="midnightblue" d="M172.352,-191C182.151,-191 192.136,-191 201.966,-191"/>
<polygon fill="midnightblue" stroke="midnightblue" points="172.223,-187.5 162.223,-191 172.223,-194.5 172.223,-187.5"/>
</g>
<!-- Node7 -->
<g id="node7" class="node"><title>Node7</title>
<g id="a_node7"><a xlink:href="../../d5/dfb/classgame_player_1_1_game_grid_effect.html#a2d475fdcd2837d14f9883d0cbf7a3c74" target="_top" xlink:title="gamePlayer.GameGridEffect.grey\lOutPiece">
<polygon fill="white" stroke="black" points="440,-127 440,-157 616,-157 616,-127 440,-127"/>
<text text-anchor="start" x="448" y="-145" font-family="Helvetica,sans-Serif" font-size="10.00">gamePlayer.GameGridEffect.grey</text>
<text text-anchor="middle" x="528" y="-134" font-family="Helvetica,sans-Serif" font-size="10.00">OutPiece</text>
</a>
</g>
</g>
<!-- Node6&#45;&gt;Node7 -->
<g id="edge6" class="edge"><title>Node6&#45;&gt;Node7</title>
<path fill="none" stroke="midnightblue" d="M377.666,-173.815C403.385,-168.335 431.627,-162.318 456.563,-157.006"/>
<polygon fill="midnightblue" stroke="midnightblue" points="376.622,-170.458 367.571,-175.965 378.08,-177.305 376.622,-170.458"/>
</g>
<!-- Node8 -->
<g id="node8" class="node"><title>Node8</title>
<g id="a_node8"><a xlink:href="../../d5/dfb/classgame_player_1_1_game_grid_effect.html#ae71ddafff23aecd0ee6697d732e0a919" target="_top" xlink:title="gamePlayer.GameGridEffect.highlight\lActionRange">
<polygon fill="white" stroke="black" points="430.5,-176 430.5,-206 625.5,-206 625.5,-176 430.5,-176"/>
<text text-anchor="start" x="438.5" y="-194" font-family="Helvetica,sans-Serif" font-size="10.00">gamePlayer.GameGridEffect.highlight</text>
<text text-anchor="middle" x="528" y="-183" font-family="Helvetica,sans-Serif" font-size="10.00">ActionRange</text>
</a>
</g>
</g>
<!-- Node6&#45;&gt;Node8 -->
<g id="edge7" class="edge"><title>Node6&#45;&gt;Node8</title>
<path fill="none" stroke="midnightblue" d="M400.494,-191C410.406,-191 420.434,-191 430.278,-191"/>
<polygon fill="midnightblue" stroke="midnightblue" points="400.218,-187.5 390.218,-191 400.218,-194.5 400.218,-187.5"/>
</g>
<!-- Node28 -->
<g id="node28" class="node"><title>Node28</title>
<g id="a_node28"><a xlink:href="../../d5/dfb/classgame_player_1_1_game_grid_effect.html#a1c6be8631bc6b597b5ed7dc9cd7e62fe" target="_top" xlink:title="gamePlayer.GameGridEffect.highlight\lCurrent">
<polygon fill="white" stroke="black" points="430.5,-68 430.5,-98 625.5,-98 625.5,-68 430.5,-68"/>
<text text-anchor="start" x="438.5" y="-86" font-family="Helvetica,sans-Serif" font-size="10.00">gamePlayer.GameGridEffect.highlight</text>
<text text-anchor="middle" x="528" y="-75" font-family="Helvetica,sans-Serif" font-size="10.00">Current</text>
</a>
</g>
</g>
<!-- Node6&#45;&gt;Node28 -->
<g id="edge32" class="edge"><title>Node6&#45;&gt;Node28</title>
<path fill="none" stroke="midnightblue" d="M384.384,-171.711C387.718,-169.969 390.939,-168.07 394,-166 416.384,-150.86 408.279,-133.076 430,-117 440.758,-109.038 453.538,-102.823 466.232,-98.0147"/>
<polygon fill="midnightblue" stroke="midnightblue" points="382.893,-168.545 375.33,-175.964 385.869,-174.881 382.893,-168.545"/>
</g>
<!-- Node9 -->
<g id="node9" class="node"><title>Node9</title>
<g id="a_node9"><a xlink:href="../../df/dd5/classgame_player_1_1_view_controller.html#a7eb038fd9f20604ade0406f27ef76657" target="_top" xlink:title="gamePlayer.ViewController.bind\lAction">
<polygon fill="white" stroke="black" points="672.5,-176 672.5,-206 839.5,-206 839.5,-176 672.5,-176"/>
<text text-anchor="start" x="680.5" y="-194" font-family="Helvetica,sans-Serif" font-size="10.00">gamePlayer.ViewController.bind</text>
<text text-anchor="middle" x="756" y="-183" font-family="Helvetica,sans-Serif" font-size="10.00">Action</text>
</a>
</g>
</g>
<!-- Node8&#45;&gt;Node9 -->
<g id="edge8" class="edge"><title>Node8&#45;&gt;Node9</title>
<path fill="none" stroke="midnightblue" d="M636.017,-191C648.187,-191 660.451,-191 672.24,-191"/>
<polygon fill="midnightblue" stroke="midnightblue" points="635.828,-187.5 625.828,-191 635.828,-194.5 635.828,-187.5"/>
</g>
<!-- Node9&#45;&gt;Node2 -->
<g id="edge9" class="edge"><title>Node9&#45;&gt;Node2</title>
<path fill="none" stroke="midnightblue" d="M841.216,-207.998C860.772,-211.945 881.451,-216.119 900.552,-219.974"/>
<polygon fill="midnightblue" stroke="midnightblue" points="841.908,-204.567 831.414,-206.019 840.523,-211.429 841.908,-204.567"/>
</g>
<!-- Node10 -->
<g id="node10" class="node"><title>Node10</title>
<g id="a_node10"><a xlink:href="../../d1/db7/classgame_player_1_1_keyboard_action.html#a08ace57322b8639020688dd9493c3e1f" target="_top" xlink:title="gamePlayer.KeyboardAction.set\lActionKeyControl">
<polygon fill="white" stroke="black" points="892,-132 892,-162 1060,-162 1060,-132 892,-132"/>
<text text-anchor="start" x="900" y="-150" font-family="Helvetica,sans-Serif" font-size="10.00">gamePlayer.KeyboardAction.set</text>
<text text-anchor="middle" x="976" y="-139" font-family="Helvetica,sans-Serif" font-size="10.00">ActionKeyControl</text>
</a>
</g>
</g>
<!-- Node9&#45;&gt;Node10 -->
<g id="edge10" class="edge"><title>Node9&#45;&gt;Node10</title>
<path fill="none" stroke="midnightblue" d="M841.216,-174.002C860.772,-170.055 881.451,-165.881 900.552,-162.026"/>
<polygon fill="midnightblue" stroke="midnightblue" points="840.523,-170.571 831.414,-175.981 841.908,-177.433 840.523,-170.571"/>
</g>
<!-- Node25 -->
<g id="node25" class="node"><title>Node25</title>
<g id="a_node25"><a xlink:href="../../df/dd5/classgame_player_1_1_view_controller.html#ab8c14a8c53be9021a62d0107c2f75ef6" target="_top" xlink:title="gamePlayer.ViewController.update\lActions">
<polygon fill="white" stroke="black" points="886,-83 886,-113 1066,-113 1066,-83 886,-83"/>
<text text-anchor="start" x="894" y="-101" font-family="Helvetica,sans-Serif" font-size="10.00">gamePlayer.ViewController.update</text>
<text text-anchor="middle" x="976" y="-90" font-family="Helvetica,sans-Serif" font-size="10.00">Actions</text>
</a>
</g>
</g>
<!-- Node9&#45;&gt;Node25 -->
<g id="edge29" class="edge"><title>Node9&#45;&gt;Node25</title>
<path fill="none" stroke="midnightblue" d="M790.269,-170.48C815.742,-155.451 852.143,-135.416 886,-122 894.332,-118.699 903.277,-115.693 912.169,-113.012"/>
<polygon fill="midnightblue" stroke="midnightblue" points="788.198,-167.64 781.404,-175.77 791.785,-173.652 788.198,-167.64"/>
</g>
<!-- Node11 -->
<g id="node11" class="node"><title>Node11</title>
<g id="a_node11"><a xlink:href="../../df/dd5/classgame_player_1_1_view_controller.html#a95c2acd43bb39b8606c69971c1cd30f5" target="_top" xlink:title="gamePlayer.ViewController.perform\lAction">
<polygon fill="white" stroke="black" points="1102.5,-132 1102.5,-162 1287.5,-162 1287.5,-132 1102.5,-132"/>
<text text-anchor="start" x="1110.5" y="-150" font-family="Helvetica,sans-Serif" font-size="10.00">gamePlayer.ViewController.perform</text>
<text text-anchor="middle" x="1195" y="-139" font-family="Helvetica,sans-Serif" font-size="10.00">Action</text>
</a>
</g>
</g>
<!-- Node10&#45;&gt;Node11 -->
<g id="edge11" class="edge"><title>Node10&#45;&gt;Node11</title>
<path fill="none" stroke="midnightblue" d="M1070.35,-147C1080.93,-147 1091.71,-147 1102.28,-147"/>
<polygon fill="midnightblue" stroke="midnightblue" points="1070.28,-143.5 1060.28,-147 1070.28,-150.5 1070.28,-143.5"/>
</g>
<!-- Node12 -->
<g id="node12" class="node"><title>Node12</title>
<g id="a_node12"><a xlink:href="../../da/d55/classgame_player_1_1_keyboard_movement.html#af45fd8d279b1ee2d6be5466d425485ab" target="_top" xlink:title="gamePlayer.KeyboardMovement.set\lMovementKeyControl">
<polygon fill="white" stroke="black" points="1324.5,-176 1324.5,-206 1513.5,-206 1513.5,-176 1324.5,-176"/>
<text text-anchor="start" x="1332.5" y="-194" font-family="Helvetica,sans-Serif" font-size="10.00">gamePlayer.KeyboardMovement.set</text>
<text text-anchor="middle" x="1419" y="-183" font-family="Helvetica,sans-Serif" font-size="10.00">MovementKeyControl</text>
</a>
</g>
</g>
<!-- Node11&#45;&gt;Node12 -->
<g id="edge12" class="edge"><title>Node11&#45;&gt;Node12</title>
<path fill="none" stroke="midnightblue" d="M1297.67,-160.423C1323.14,-165.355 1349.28,-170.895 1370.65,-175.969"/>
<polygon fill="midnightblue" stroke="midnightblue" points="1298.06,-156.933 1287.58,-158.493 1296.74,-163.808 1298.06,-156.933"/>
</g>
<!-- Node14 -->
<g id="node14" class="node"><title>Node14</title>
<g id="a_node14"><a xlink:href="../../df/dd5/classgame_player_1_1_view_controller.html#a22ee80193bbac79a935ee961a183bfcd" target="_top" xlink:title="gamePlayer.ViewController.set\lOnClick">
<polygon fill="white" stroke="black" points="1338.5,-88 1338.5,-118 1499.5,-118 1499.5,-88 1338.5,-88"/>
<text text-anchor="start" x="1346.5" y="-106" font-family="Helvetica,sans-Serif" font-size="10.00">gamePlayer.ViewController.set</text>
<text text-anchor="middle" x="1419" y="-95" font-family="Helvetica,sans-Serif" font-size="10.00">OnClick</text>
</a>
</g>
</g>
<!-- Node11&#45;&gt;Node14 -->
<g id="edge16" class="edge"><title>Node11&#45;&gt;Node14</title>
<path fill="none" stroke="midnightblue" d="M1281.76,-130.002C1301.68,-126.055 1322.73,-121.881 1342.19,-118.026"/>
<polygon fill="midnightblue" stroke="midnightblue" points="1280.91,-126.603 1271.78,-131.981 1282.27,-133.47 1280.91,-126.603"/>
</g>
<!-- Node12&#45;&gt;Node9 -->
<g id="edge13" class="edge"><title>Node12&#45;&gt;Node9</title>
<path fill="none" stroke="midnightblue" d="M1314.22,-191C1183.07,-191 959.988,-191 839.713,-191"/>
<polygon fill="midnightblue" stroke="midnightblue" points="1314.28,-194.5 1324.28,-191 1314.28,-187.5 1314.28,-194.5"/>
</g>
<!-- Node12&#45;&gt;Node11 -->
<g id="edge14" class="edge"><title>Node12&#45;&gt;Node11</title>
<path fill="none" stroke="midnightblue" d="M1314.26,-177.177C1289.45,-172.347 1264.15,-166.969 1243.35,-162.032"/>
<polygon fill="midnightblue" stroke="midnightblue" points="1313.63,-180.618 1324.11,-179.069 1314.95,-173.744 1313.63,-180.618"/>
</g>
<!-- Node13 -->
<g id="node13" class="node"><title>Node13</title>
<g id="a_node13"><a xlink:href="../../df/dd5/classgame_player_1_1_view_controller.html#a27da17c1280cd953a14f6b76b18f9a4b" target="_top" xlink:title="gamePlayer.ViewController.toggle\lKeyboardControl">
<polygon fill="white" stroke="black" points="1564,-176 1564,-206 1740,-206 1740,-176 1564,-176"/>
<text text-anchor="start" x="1572" y="-194" font-family="Helvetica,sans-Serif" font-size="10.00">gamePlayer.ViewController.toggle</text>
<text text-anchor="middle" x="1652" y="-183" font-family="Helvetica,sans-Serif" font-size="10.00">KeyboardControl</text>
</a>
</g>
</g>
<!-- Node12&#45;&gt;Node13 -->
<g id="edge15" class="edge"><title>Node12&#45;&gt;Node13</title>
<path fill="none" stroke="midnightblue" d="M1523.83,-191C1537.24,-191 1550.86,-191 1563.96,-191"/>
<polygon fill="midnightblue" stroke="midnightblue" points="1523.62,-187.5 1513.62,-191 1523.62,-194.5 1523.62,-187.5"/>
</g>
<!-- Node15 -->
<g id="node15" class="node"><title>Node15</title>
<g id="a_node15"><a xlink:href="../../df/dd5/classgame_player_1_1_view_controller.html#a10a40967a873f067cf91b024ff85b38e" target="_top" xlink:title="gamePlayer.ViewController.initializeGrid">
<polygon fill="white" stroke="black" points="1550,-93.5 1550,-112.5 1754,-112.5 1754,-93.5 1550,-93.5"/>
<text text-anchor="middle" x="1652" y="-100.5" font-family="Helvetica,sans-Serif" font-size="10.00">gamePlayer.ViewController.initializeGrid</text>
</a>
</g>
</g>
<!-- Node14&#45;&gt;Node15 -->
<g id="edge17" class="edge"><title>Node14&#45;&gt;Node15</title>
<path fill="none" stroke="midnightblue" d="M1510.18,-103C1523.23,-103 1536.74,-103 1549.99,-103"/>
<polygon fill="midnightblue" stroke="midnightblue" points="1509.82,-99.5001 1499.82,-103 1509.82,-106.5 1509.82,-99.5001"/>
</g>
<!-- Node16 -->
<g id="node16" class="node"><title>Node16</title>
<g id="a_node16"><a xlink:href="../../df/dd5/classgame_player_1_1_view_controller.html#aabf431713b65ec510f1cb2df12da4e45" target="_top" xlink:title="gamePlayer.ViewController.test\lPlayGameInTab">
<polygon fill="white" stroke="black" points="1811.5,-39 1811.5,-69 1976.5,-69 1976.5,-39 1811.5,-39"/>
<text text-anchor="start" x="1819.5" y="-57" font-family="Helvetica,sans-Serif" font-size="10.00">gamePlayer.ViewController.test</text>
<text text-anchor="middle" x="1894" y="-46" font-family="Helvetica,sans-Serif" font-size="10.00">PlayGameInTab</text>
</a>
</g>
</g>
<!-- Node15&#45;&gt;Node16 -->
<g id="edge18" class="edge"><title>Node15&#45;&gt;Node16</title>
<path fill="none" stroke="midnightblue" d="M1709.42,-91.48C1742.19,-84.7911 1783.84,-76.2873 1819.18,-69.0713"/>
<polygon fill="midnightblue" stroke="midnightblue" points="1708.66,-88.0645 1699.56,-93.4942 1710.06,-94.923 1708.66,-88.0645"/>
</g>
<!-- Node17 -->
<g id="node17" class="node"><title>Node17</title>
<g id="a_node17"><a xlink:href="../../df/dd5/classgame_player_1_1_view_controller.html#a0d1a3d443966f151b070dc751d2faf9a" target="_top" xlink:title="gamePlayer.ViewController.restartGame">
<polygon fill="white" stroke="black" points="1790,-0.5 1790,-19.5 1998,-19.5 1998,-0.5 1790,-0.5"/>
<text text-anchor="middle" x="1894" y="-7.5" font-family="Helvetica,sans-Serif" font-size="10.00">gamePlayer.ViewController.restartGame</text>
</a>
</g>
</g>
<!-- Node15&#45;&gt;Node17 -->
<g id="edge19" class="edge"><title>Node15&#45;&gt;Node17</title>
<path fill="none" stroke="midnightblue" d="M1675.59,-87.9119C1701.94,-71.0137 1747.35,-44.0303 1790,-29 1800.98,-25.1319 1812.9,-22.0103 1824.62,-19.5038"/>
<polygon fill="midnightblue" stroke="midnightblue" points="1673.58,-85.0469 1667.1,-93.4322 1677.39,-90.9155 1673.58,-85.0469"/>
</g>
<!-- Node18 -->
<g id="node18" class="node"><title>Node18</title>
<g id="a_node18"><a xlink:href="../../df/dd5/classgame_player_1_1_view_controller.html#a620f8a02d3ac7677cd179fcd812aca55" target="_top" xlink:title="gamePlayer.ViewController.check\lEndActions">
<polygon fill="white" stroke="black" points="1807,-186 1807,-216 1981,-216 1981,-186 1807,-186"/>
<text text-anchor="start" x="1815" y="-204" font-family="Helvetica,sans-Serif" font-size="10.00">gamePlayer.ViewController.check</text>
<text text-anchor="middle" x="1894" y="-193" font-family="Helvetica,sans-Serif" font-size="10.00">EndActions</text>
</a>
</g>
</g>
<!-- Node15&#45;&gt;Node18 -->
<g id="edge20" class="edge"><title>Node15&#45;&gt;Node18</title>
<path fill="none" stroke="midnightblue" d="M1715.75,-115.447C1729.03,-119.737 1742.5,-125.443 1754,-133 1774.83,-146.685 1768.83,-162.846 1790,-176 1796.25,-179.884 1803.06,-183.165 1810.11,-185.937"/>
<polygon fill="midnightblue" stroke="midnightblue" points="1716.73,-112.086 1706.14,-112.566 1714.72,-118.791 1716.73,-112.086"/>
</g>
<!-- Node20 -->
<g id="node20" class="node"><title>Node20</title>
<g id="a_node20"><a xlink:href="../../df/dd5/classgame_player_1_1_view_controller.html#adc15cd81cefb88c58f9d3b7478328df8" target="_top" xlink:title="gamePlayer.ViewController.test\lPlayGUIGame">
<polygon fill="white" stroke="black" points="1811.5,-137 1811.5,-167 1976.5,-167 1976.5,-137 1811.5,-137"/>
<text text-anchor="start" x="1819.5" y="-155" font-family="Helvetica,sans-Serif" font-size="10.00">gamePlayer.ViewController.test</text>
<text text-anchor="middle" x="1894" y="-144" font-family="Helvetica,sans-Serif" font-size="10.00">PlayGUIGame</text>
</a>
</g>
</g>
<!-- Node15&#45;&gt;Node20 -->
<g id="edge24" class="edge"><title>Node15&#45;&gt;Node20</title>
<path fill="none" stroke="midnightblue" d="M1709.42,-114.52C1742.19,-121.209 1783.84,-129.713 1819.18,-136.929"/>
<polygon fill="midnightblue" stroke="midnightblue" points="1710.06,-111.077 1699.56,-112.506 1708.66,-117.936 1710.06,-111.077"/>
</g>
<!-- Node21 -->
<g id="node21" class="node"><title>Node21</title>
<g id="a_node21"><a xlink:href="../../df/dd5/classgame_player_1_1_view_controller.html#a4c1754d129a4eac955390b428eaa448a" target="_top" xlink:title="gamePlayer.ViewController.test\lPlayGame">
<polygon fill="white" stroke="black" points="1811.5,-88 1811.5,-118 1976.5,-118 1976.5,-88 1811.5,-88"/>
<text text-anchor="start" x="1819.5" y="-106" font-family="Helvetica,sans-Serif" font-size="10.00">gamePlayer.ViewController.test</text>
<text text-anchor="middle" x="1894" y="-95" font-family="Helvetica,sans-Serif" font-size="10.00">PlayGame</text>
</a>
</g>
</g>
<!-- Node15&#45;&gt;Node21 -->
<g id="edge25" class="edge"><title>Node15&#45;&gt;Node21</title>
<path fill="none" stroke="midnightblue" d="M1764.43,-103C1780.23,-103 1796.22,-103 1811.32,-103"/>
<polygon fill="midnightblue" stroke="midnightblue" points="1764.09,-99.5001 1754.09,-103 1764.09,-106.5 1764.09,-99.5001"/>
</g>
<!-- Node18&#45;&gt;Node11 -->
<g id="edge23" class="edge"><title>Node18&#45;&gt;Node11</title>
<path fill="none" stroke="midnightblue" d="M1820.99,-183.589C1810.59,-181.055 1800.02,-178.468 1790,-176 1773.99,-172.055 1770.33,-169.308 1754,-167 1591.07,-143.972 1398.87,-142.69 1287.85,-144.439"/>
<polygon fill="midnightblue" stroke="midnightblue" points="1820.35,-187.034 1830.89,-185.998 1822,-180.233 1820.35,-187.034"/>
</g>
<!-- Node19 -->
<g id="node19" class="node"><title>Node19</title>
<g id="a_node19"><a xlink:href="../../df/dd5/classgame_player_1_1_view_controller.html#a13ea7814bde61a8042c5b1a23af41416" target="_top" xlink:title="gamePlayer.ViewController.end\lAction">
<polygon fill="white" stroke="black" points="2049,-203 2049,-233 2213,-233 2213,-203 2049,-203"/>
<text text-anchor="start" x="2057" y="-221" font-family="Helvetica,sans-Serif" font-size="10.00">gamePlayer.ViewController.end</text>
<text text-anchor="middle" x="2131" y="-210" font-family="Helvetica,sans-Serif" font-size="10.00">Action</text>
</a>
</g>
</g>
<!-- Node18&#45;&gt;Node19 -->
<g id="edge21" class="edge"><title>Node18&#45;&gt;Node19</title>
<path fill="none" stroke="midnightblue" d="M1991.39,-207.973C2010.5,-209.355 2030.38,-210.793 2048.92,-212.135"/>
<polygon fill="midnightblue" stroke="midnightblue" points="1991.4,-204.464 1981.17,-207.234 1990.89,-211.446 1991.4,-204.464"/>
</g>
<!-- Node19&#45;&gt;Node5 -->
<g id="edge22" class="edge"><title>Node19&#45;&gt;Node5</title>
<path fill="none" stroke="midnightblue" d="M2223.38,-231.439C2237.44,-233.505 2251.76,-235.612 2265.28,-237.6"/>
<polygon fill="midnightblue" stroke="midnightblue" points="2223.62,-227.935 2213.21,-229.943 2222.6,-234.861 2223.62,-227.935"/>
</g>
<!-- Node22 -->
<g id="node22" class="node"><title>Node22</title>
<g id="a_node22"><a xlink:href="../../db/d40/classfxml__main_1_1_authoring_controller.html#a2ec133c8edf0a7ab1e84f2e12455233d" target="_top" xlink:title="fxml_main.AuthoringController.save\lAsGame">
<polygon fill="white" stroke="black" points="2037.5,-110 2037.5,-140 2224.5,-140 2224.5,-110 2037.5,-110"/>
<text text-anchor="start" x="2045.5" y="-128" font-family="Helvetica,sans-Serif" font-size="10.00">fxml_main.AuthoringController.save</text>
<text text-anchor="middle" x="2131" y="-117" font-family="Helvetica,sans-Serif" font-size="10.00">AsGame</text>
</a>
</g>
</g>
<!-- Node21&#45;&gt;Node22 -->
<g id="edge26" class="edge"><title>Node21&#45;&gt;Node22</title>
<path fill="none" stroke="midnightblue" d="M1986.77,-111.591C2003.38,-113.146 2020.7,-114.768 2037.34,-116.325"/>
<polygon fill="midnightblue" stroke="midnightblue" points="1986.81,-108.08 1976.53,-110.633 1986.16,-115.05 1986.81,-108.08"/>
</g>
<!-- Node23 -->
<g id="node23" class="node"><title>Node23</title>
<g id="a_node23"><a xlink:href="../../df/dd5/classgame_player_1_1_view_controller.html#a2bf1dce04187ad5eacb5359ef2b4eff8" target="_top" xlink:title="gamePlayer.ViewController.newGame">
<polygon fill="white" stroke="black" points="2034,-71.5 2034,-90.5 2228,-90.5 2228,-71.5 2034,-71.5"/>
<text text-anchor="middle" x="2131" y="-78.5" font-family="Helvetica,sans-Serif" font-size="10.00">gamePlayer.ViewController.newGame</text>
</a>
</g>
</g>
<!-- Node21&#45;&gt;Node23 -->
<g id="edge27" class="edge"><title>Node21&#45;&gt;Node23</title>
<path fill="none" stroke="midnightblue" d="M1986.58,-94.4266C2002.03,-92.9806 2018.1,-91.4757 2033.66,-90.0188"/>
<polygon fill="midnightblue" stroke="midnightblue" points="1986.16,-90.9503 1976.53,-95.3672 1986.81,-97.9198 1986.16,-90.9503"/>
</g>
<!-- Node24 -->
<g id="node24" class="node"><title>Node24</title>
<g id="a_node24"><a xlink:href="../../df/dd5/classgame_player_1_1_view_controller.html#a2acd822c93c35674b6978a97b4ce6e3f" target="_top" xlink:title="gamePlayer.ViewController.\lViewController">
<polygon fill="white" stroke="black" points="2264,-66 2264,-96 2410,-96 2410,-66 2264,-66"/>
<text text-anchor="start" x="2272" y="-84" font-family="Helvetica,sans-Serif" font-size="10.00">gamePlayer.ViewController.</text>
<text text-anchor="middle" x="2337" y="-73" font-family="Helvetica,sans-Serif" font-size="10.00">ViewController</text>
</a>
</g>
</g>
<!-- Node23&#45;&gt;Node24 -->
<g id="edge28" class="edge"><title>Node23&#45;&gt;Node24</title>
<path fill="none" stroke="midnightblue" d="M2238.24,-81C2246.94,-81 2255.59,-81 2263.95,-81"/>
<polygon fill="midnightblue" stroke="midnightblue" points="2238.03,-77.5001 2228.03,-81 2238.03,-84.5001 2238.03,-77.5001"/>
</g>
<!-- Node26 -->
<g id="node26" class="node"><title>Node26</title>
<g id="a_node26"><a xlink:href="../../d6/d24/classgame_player_1_1_select_state.html#a801827392f0faeee6b96925060d77838" target="_top" xlink:title="gamePlayer.SelectState.on\lClick">
<polygon fill="white" stroke="black" points="1121.5,-34 1121.5,-64 1268.5,-64 1268.5,-34 1121.5,-34"/>
<text text-anchor="start" x="1129.5" y="-52" font-family="Helvetica,sans-Serif" font-size="10.00">gamePlayer.SelectState.on</text>
<text text-anchor="middle" x="1195" y="-41" font-family="Helvetica,sans-Serif" font-size="10.00">Click</text>
</a>
</g>
</g>
<!-- Node25&#45;&gt;Node26 -->
<g id="edge30" class="edge"><title>Node25&#45;&gt;Node26</title>
<path fill="none" stroke="midnightblue" d="M1053.43,-80.7419C1077.61,-75.282 1104.12,-69.295 1127.54,-64.0062"/>
<polygon fill="midnightblue" stroke="midnightblue" points="1052.57,-77.3487 1043.58,-82.9654 1054.11,-84.1767 1052.57,-77.3487"/>
</g>
<!-- Node27 -->
<g id="node27" class="node"><title>Node27</title>
<g id="a_node27"><a xlink:href="../../df/df0/classtests_1_1_view_controller_test.html#a785df2c49a72c183c22163ce927f5df1" target="_top" xlink:title="tests.ViewControllerTest.update\lActionsTest">
<polygon fill="white" stroke="black" points="1111.5,-83 1111.5,-113 1278.5,-113 1278.5,-83 1111.5,-83"/>
<text text-anchor="start" x="1119.5" y="-101" font-family="Helvetica,sans-Serif" font-size="10.00">tests.ViewControllerTest.update</text>
<text text-anchor="middle" x="1195" y="-90" font-family="Helvetica,sans-Serif" font-size="10.00">ActionsTest</text>
</a>
</g>
</g>
<!-- Node25&#45;&gt;Node27 -->
<g id="edge31" class="edge"><title>Node25&#45;&gt;Node27</title>
<path fill="none" stroke="midnightblue" d="M1076.44,-98C1088.14,-98 1099.98,-98 1111.42,-98"/>
<polygon fill="midnightblue" stroke="midnightblue" points="1076.2,-94.5001 1066.2,-98 1076.2,-101.5 1076.2,-94.5001"/>
</g>
<!-- Node29 -->
<g id="node29" class="node"><title>Node29</title>
<g id="a_node29"><a xlink:href="../../df/dd5/classgame_player_1_1_view_controller.html#ac39aa40a815b8d3d277aecffe6d63426" target="_top" xlink:title="gamePlayer.ViewController.highlight\lSelected">
<polygon fill="white" stroke="black" points="662.5,-48 662.5,-78 849.5,-78 849.5,-48 662.5,-48"/>
<text text-anchor="start" x="670.5" y="-66" font-family="Helvetica,sans-Serif" font-size="10.00">gamePlayer.ViewController.highlight</text>
<text text-anchor="middle" x="756" y="-55" font-family="Helvetica,sans-Serif" font-size="10.00">Selected</text>
</a>
</g>
</g>
<!-- Node28&#45;&gt;Node29 -->
<g id="edge33" class="edge"><title>Node28&#45;&gt;Node29</title>
<path fill="none" stroke="midnightblue" d="M635.799,-73.5488C644.66,-72.7646 653.572,-71.9759 662.316,-71.2021"/>
<polygon fill="midnightblue" stroke="midnightblue" points="635.48,-70.0632 625.828,-74.4312 636.097,-77.0359 635.48,-70.0632"/>
</g>
<!-- Node29&#45;&gt;Node26 -->
<g id="edge34" class="edge"><title>Node29&#45;&gt;Node26</title>
<path fill="none" stroke="midnightblue" d="M859.821,-59.706C940.18,-57.1315 1049.87,-53.6174 1121.31,-51.3288"/>
<polygon fill="midnightblue" stroke="midnightblue" points="859.559,-56.2125 849.676,-60.031 859.783,-63.2089 859.559,-56.2125"/>
</g>
</g>
</svg>
        <g id="navigator" transform="translate(0 0)" fill="#404254">
                <rect fill="#f2f5e9" fill-opacity="0.5" stroke="#606060" stroke-width=".5" x="0" y="0" width="60" height="60"/>
                <use id="zoomplus" xlink:href="#zoomPlus" x="17" y="9" onmousedown="handleZoom(evt,'in')"/>
                <use id="zoomminus" xlink:href="#zoomMin" x="42" y="9" onmousedown="handleZoom(evt,'out')"/>
                <use id="reset" xlink:href="#resetDef" x="30" y="36" onmousedown="handleReset()"/>
                <g id="arrowUp" xlink:href="#dirArrow" transform="translate(30 24)" onmousedown="handlePan(0,-1)">
                  <use xlink:href="#rim" fill="#404040">
                        <set attributeName="fill" to="#808080" begin="arrowUp.mouseover" end="arrowUp.mouseout"/>
                  </use>
                  <path fill="none" stroke="white" stroke-width="1.5" d="M0,-3.0v7 M-2.5,-0.5L0,-3.0L2.5,-0.5"/>
                </g>
                <g id="arrowRight" xlink:href="#dirArrow" transform="rotate(90) translate(36 -43)" onmousedown="handlePan(1,0)">
                  <use xlink:href="#rim" fill="#404040">
                        <set attributeName="fill" to="#808080" begin="arrowRight.mouseover" end="arrowRight.mouseout"/>
                  </use>
                  <path fill="none" stroke="white" stroke-width="1.5" d="M0,-3.0v7 M-2.5,-0.5L0,-3.0L2.5,-0.5"/>
                </g>
                <g id="arrowDown" xlink:href="#dirArrow" transform="rotate(180) translate(-30 -48)" onmousedown="handlePan(0,1)">
                  <use xlink:href="#rim" fill="#404040">
                        <set attributeName="fill" to="#808080" begin="arrowDown.mouseover" end="arrowDown.mouseout"/>
                  </use>
                  <path fill="none" stroke="white" stroke-width="1.5" d="M0,-3.0v7 M-2.5,-0.5L0,-3.0L2.5,-0.5"/>
                </g>
                <g id="arrowLeft" xlink:href="#dirArrow" transform="rotate(270) translate(-36 17)" onmousedown="handlePan(-1,0)">
                  <use xlink:href="#rim" fill="#404040">
                        <set attributeName="fill" to="#808080" begin="arrowLeft.mouseover" end="arrowLeft.mouseout"/>
                  </use>
                  <path fill="none" stroke="white" stroke-width="1.5" d="M0,-3.0v7 M-2.5,-0.5L0,-3.0L2.5,-0.5"/>
                </g>
        </g>
        <svg viewBox="0 0 15 15" width="100%" height="30px" preserveAspectRatio="xMaxYMin meet">
         <g id="arrow_out" transform="scale(0.3 0.3)">
          <a xlink:href="classgame_player_1_1_view_controller_a7c056f49d735d05a774efccf94893e0e_icgraph_org.svg" target="_base">
           <rect id="button" ry="5" rx="5" y="6" x="6" height="38" width="38"
                fill="#f2f5e9" fill-opacity="0.5" stroke="#606060" stroke-width="1.0"/>
           <path id="arrow"
             d="M 11.500037,31.436501 C 11.940474,20.09759 22.043105,11.32322 32.158766,21.979434 L 37.068811,17.246167 C 37.068811,17.246167 37.088388,32 37.088388,32 L 22.160133,31.978069 C 22.160133,31.978069 26.997745,27.140456 26.997745,27.140456 C 18.528582,18.264221 13.291696,25.230495 11.500037,31.436501 z"
             style="fill:#404040;"/>
          </a>
         </g>
        </svg>
</svg>
