<?xml version="1.0" encoding="UTF-8" standalone="no"?>
<!DOCTYPE svg PUBLIC "-//W3C//DTD SVG 1.1//EN"
 "http://www.w3.org/Graphics/SVG/1.1/DTD/svg11.dtd">
<!-- Generated by graphviz version 2.36.0 (20140111.2315)
 -->
<!-- Title: gamePlayer.ViewController.getResourceGames Pages: 1 -->
<svg width="582pt" height="38pt"
 viewBox="0.00 0.00 582.00 38.00" xmlns="http://www.w3.org/2000/svg" xmlns:xlink="http://www.w3.org/1999/xlink">
<g id="graph0" class="graph" transform="scale(1 1) rotate(0) translate(4 34)">
<title>gamePlayer.ViewController.getResourceGames</title>
<polygon fill="white" stroke="none" points="-4,4 -4,-34 578,-34 578,4 -4,4"/>
<!-- Node1 -->
<g id="node1" class="node"><title>Node1</title>
<polygon fill="#bfbfbf" stroke="black" points="0,-0 0,-30 162,-30 162,-0 0,-0"/>
<text text-anchor="start" x="8" y="-18" font-family="Helvetica,sans-Serif" font-size="10.00">gamePlayer.ViewController.get</text>
<text text-anchor="middle" x="81" y="-7" font-family="Helvetica,sans-Serif" font-size="10.00">ResourceGames</text>
</g>
<!-- Node2 -->
<g id="node2" class="node"><title>Node2</title>
<g id="a_node2"><a xlink:href="../../df/dd5/classgame_player_1_1_view_controller.html#a2bf1dce04187ad5eacb5359ef2b4eff8" target="_top" xlink:title="gamePlayer.ViewController.newGame">
<polygon fill="white" stroke="black" points="198,-5.5 198,-24.5 392,-24.5 392,-5.5 198,-5.5"/>
<text text-anchor="middle" x="295" y="-12.5" font-family="Helvetica,sans-Serif" font-size="10.00">gamePlayer.ViewController.newGame</text>
</a>
</g>
</g>
<!-- Node1&#45;&gt;Node2 -->
<g id="edge1" class="edge"><title>Node1&#45;&gt;Node2</title>
<path fill="none" stroke="midnightblue" d="M172.31,-15C180.708,-15 189.241,-15 197.69,-15"/>
<polygon fill="midnightblue" stroke="midnightblue" points="172.148,-11.5001 162.148,-15 172.148,-18.5001 172.148,-11.5001"/>
</g>
<!-- Node3 -->
<g id="node3" class="node"><title>Node3</title>
<g id="a_node3"><a xlink:href="../../df/dd5/classgame_player_1_1_view_controller.html#a2acd822c93c35674b6978a97b4ce6e3f" target="_top" xlink:title="gamePlayer.ViewController.\lViewController">
<polygon fill="white" stroke="black" points="428,-0 428,-30 574,-30 574,-0 428,-0"/>
<text text-anchor="start" x="436" y="-18" font-family="Helvetica,sans-Serif" font-size="10.00">gamePlayer.ViewController.</text>
<text text-anchor="middle" x="501" y="-7" font-family="Helvetica,sans-Serif" font-size="10.00">ViewController</text>
</a>
</g>
</g>
<!-- Node2&#45;&gt;Node3 -->
<g id="edge2" class="edge"><title>Node2&#45;&gt;Node3</title>
<path fill="none" stroke="midnightblue" d="M402.24,-15C410.937,-15 419.593,-15 427.954,-15"/>
<polygon fill="midnightblue" stroke="midnightblue" points="402.027,-11.5001 392.026,-15 402.026,-18.5001 402.027,-11.5001"/>
</g>
</g>
</svg>
