<?xml version="1.0" encoding="UTF-8" standalone="no"?>
<!DOCTYPE svg PUBLIC "-//W3C//DTD SVG 1.1//EN"
 "http://www.w3.org/Graphics/SVG/1.1/DTD/svg11.dtd">
<!-- Generated by graphviz version 2.36.0 (20140111.2315)
 -->
<!-- Title: gamePlayer.ViewController.getcontrolPane Pages: 1 -->
<svg width="1988pt" height="346pt"
 viewBox="0.00 0.00 1988.00 346.00" xmlns="http://www.w3.org/2000/svg" xmlns:xlink="http://www.w3.org/1999/xlink">
<g id="graph0" class="graph" transform="scale(1 1) rotate(0) translate(4 342)">
<title>gamePlayer.ViewController.getcontrolPane</title>
<polygon fill="white" stroke="none" points="-4,4 -4,-342 1984,-342 1984,4 -4,4"/>
<!-- Node1 -->
<g id="node1" class="node"><title>Node1</title>
<polygon fill="#bfbfbf" stroke="black" points="0,-128.5 0,-147.5 218,-147.5 218,-128.5 0,-128.5"/>
<text text-anchor="middle" x="109" y="-135.5" font-family="Helvetica,sans-Serif" font-size="10.00">gamePlayer.ViewController.getcontrolPane</text>
</g>
<!-- Node2 -->
<g id="node2" class="node"><title>Node2</title>
<g id="a_node2"><a xlink:href="../../d1/db7/classgame_player_1_1_keyboard_action.html#a19c1c5d5ac57c24378c84aac1a58c76d" target="_top" xlink:title="gamePlayer.KeyboardAction.mark\lAction">
<polygon fill="white" stroke="black" points="254,-123 254,-153 432,-153 432,-123 254,-123"/>
<text text-anchor="start" x="262" y="-141" font-family="Helvetica,sans-Serif" font-size="10.00">gamePlayer.KeyboardAction.mark</text>
<text text-anchor="middle" x="343" y="-130" font-family="Helvetica,sans-Serif" font-size="10.00">Action</text>
</a>
</g>
</g>
<!-- Node1&#45;&gt;Node2 -->
<g id="edge1" class="edge"><title>Node1&#45;&gt;Node2</title>
<path fill="none" stroke="midnightblue" d="M228.271,-138C236.862,-138 245.437,-138 253.807,-138"/>
<polygon fill="midnightblue" stroke="midnightblue" points="228.189,-134.5 218.189,-138 228.189,-141.5 228.189,-134.5"/>
</g>
<!-- Node3 -->
<g id="node3" class="node"><title>Node3</title>
<g id="a_node3"><a xlink:href="../../d1/db7/classgame_player_1_1_keyboard_action.html#a08ace57322b8639020688dd9493c3e1f" target="_top" xlink:title="gamePlayer.KeyboardAction.set\lActionKeyControl">
<polygon fill="white" stroke="black" points="468,-123 468,-153 636,-153 636,-123 468,-123"/>
<text text-anchor="start" x="476" y="-141" font-family="Helvetica,sans-Serif" font-size="10.00">gamePlayer.KeyboardAction.set</text>
<text text-anchor="middle" x="552" y="-130" font-family="Helvetica,sans-Serif" font-size="10.00">ActionKeyControl</text>
</a>
</g>
</g>
<!-- Node2&#45;&gt;Node3 -->
<g id="edge2" class="edge"><title>Node2&#45;&gt;Node3</title>
<path fill="none" stroke="midnightblue" d="M442.166,-138C450.783,-138 459.449,-138 467.926,-138"/>
<polygon fill="midnightblue" stroke="midnightblue" points="442.087,-134.5 432.087,-138 442.087,-141.5 442.087,-134.5"/>
</g>
<!-- Node4 -->
<g id="node4" class="node"><title>Node4</title>
<g id="a_node4"><a xlink:href="../../df/dd5/classgame_player_1_1_view_controller.html#a95c2acd43bb39b8606c69971c1cd30f5" target="_top" xlink:title="gamePlayer.ViewController.perform\lAction">
<polygon fill="white" stroke="black" points="672.5,-151 672.5,-181 857.5,-181 857.5,-151 672.5,-151"/>
<text text-anchor="start" x="680.5" y="-169" font-family="Helvetica,sans-Serif" font-size="10.00">gamePlayer.ViewController.perform</text>
<text text-anchor="middle" x="765" y="-158" font-family="Helvetica,sans-Serif" font-size="10.00">Action</text>
</a>
</g>
</g>
<!-- Node3&#45;&gt;Node4 -->
<g id="edge3" class="edge"><title>Node3&#45;&gt;Node4</title>
<path fill="none" stroke="midnightblue" d="M646.192,-150.367C654.854,-151.516 663.628,-152.681 672.276,-153.828"/>
<polygon fill="midnightblue" stroke="midnightblue" points="646.463,-146.872 636.09,-149.026 645.543,-153.811 646.463,-146.872"/>
</g>
<!-- Node5 -->
<g id="node5" class="node"><title>Node5</title>
<g id="a_node5"><a xlink:href="../../da/d55/classgame_player_1_1_keyboard_movement.html#af45fd8d279b1ee2d6be5466d425485ab" target="_top" xlink:title="gamePlayer.KeyboardMovement.set\lMovementKeyControl">
<polygon fill="white" stroke="black" points="894.5,-151 894.5,-181 1083.5,-181 1083.5,-151 894.5,-151"/>
<text text-anchor="start" x="902.5" y="-169" font-family="Helvetica,sans-Serif" font-size="10.00">gamePlayer.KeyboardMovement.set</text>
<text text-anchor="middle" x="989" y="-158" font-family="Helvetica,sans-Serif" font-size="10.00">MovementKeyControl</text>
</a>
</g>
</g>
<!-- Node4&#45;&gt;Node5 -->
<g id="edge4" class="edge"><title>Node4&#45;&gt;Node5</title>
<path fill="none" stroke="midnightblue" d="M867.631,-159.271C876.577,-159.23 885.605,-159.248 894.48,-159.325"/>
<polygon fill="midnightblue" stroke="midnightblue" points="867.552,-155.772 857.578,-159.343 867.602,-162.772 867.552,-155.772"/>
</g>
<!-- Node12 -->
<g id="node12" class="node"><title>Node12</title>
<g id="a_node12"><a xlink:href="../../df/dd5/classgame_player_1_1_view_controller.html#a22ee80193bbac79a935ee961a183bfcd" target="_top" xlink:title="gamePlayer.ViewController.set\lOnClick">
<polygon fill="white" stroke="black" points="908.5,-203 908.5,-233 1069.5,-233 1069.5,-203 908.5,-203"/>
<text text-anchor="start" x="916.5" y="-221" font-family="Helvetica,sans-Serif" font-size="10.00">gamePlayer.ViewController.set</text>
<text text-anchor="middle" x="989" y="-210" font-family="Helvetica,sans-Serif" font-size="10.00">OnClick</text>
</a>
</g>
</g>
<!-- Node4&#45;&gt;Node12 -->
<g id="edge13" class="edge"><title>Node4&#45;&gt;Node12</title>
<path fill="none" stroke="midnightblue" d="M840.055,-183.346C867.22,-189.709 897.717,-196.853 923.933,-202.993"/>
<polygon fill="midnightblue" stroke="midnightblue" points="840.746,-179.913 830.212,-181.041 839.15,-186.729 840.746,-179.913"/>
</g>
<!-- Node5&#45;&gt;Node4 -->
<g id="edge11" class="edge"><title>Node5&#45;&gt;Node4</title>
<path fill="none" stroke="midnightblue" d="M884.408,-172.737C875.451,-172.769 866.429,-172.743 857.578,-172.657"/>
<polygon fill="midnightblue" stroke="midnightblue" points="884.502,-176.236 894.48,-172.675 884.459,-169.236 884.502,-176.236"/>
</g>
<!-- Node6 -->
<g id="node6" class="node"><title>Node6</title>
<g id="a_node6"><a xlink:href="../../df/dd5/classgame_player_1_1_view_controller.html#a7eb038fd9f20604ade0406f27ef76657" target="_top" xlink:title="gamePlayer.ViewController.bind\lAction">
<polygon fill="white" stroke="black" points="1138.5,-83 1138.5,-113 1305.5,-113 1305.5,-83 1138.5,-83"/>
<text text-anchor="start" x="1146.5" y="-101" font-family="Helvetica,sans-Serif" font-size="10.00">gamePlayer.ViewController.bind</text>
<text text-anchor="middle" x="1222" y="-90" font-family="Helvetica,sans-Serif" font-size="10.00">Action</text>
</a>
</g>
</g>
<!-- Node5&#45;&gt;Node6 -->
<g id="edge5" class="edge"><title>Node5&#45;&gt;Node6</title>
<path fill="none" stroke="midnightblue" d="M1050.66,-148.143C1087.71,-137.236 1134.57,-123.444 1169.75,-113.086"/>
<polygon fill="midnightblue" stroke="midnightblue" points="1049.58,-144.811 1040.98,-150.993 1051.56,-151.526 1049.58,-144.811"/>
</g>
<!-- Node11 -->
<g id="node11" class="node"><title>Node11</title>
<g id="a_node11"><a xlink:href="../../df/dd5/classgame_player_1_1_view_controller.html#a27da17c1280cd953a14f6b76b18f9a4b" target="_top" xlink:title="gamePlayer.ViewController.toggle\lKeyboardControl">
<polygon fill="white" stroke="black" points="1134,-151 1134,-181 1310,-181 1310,-151 1134,-151"/>
<text text-anchor="start" x="1142" y="-169" font-family="Helvetica,sans-Serif" font-size="10.00">gamePlayer.ViewController.toggle</text>
<text text-anchor="middle" x="1222" y="-158" font-family="Helvetica,sans-Serif" font-size="10.00">KeyboardControl</text>
</a>
</g>
</g>
<!-- Node5&#45;&gt;Node11 -->
<g id="edge12" class="edge"><title>Node5&#45;&gt;Node11</title>
<path fill="none" stroke="midnightblue" d="M1093.83,-166C1107.24,-166 1120.86,-166 1133.96,-166"/>
<polygon fill="midnightblue" stroke="midnightblue" points="1093.62,-162.5 1083.62,-166 1093.62,-169.5 1093.62,-162.5"/>
</g>
<!-- Node6&#45;&gt;Node3 -->
<g id="edge7" class="edge"><title>Node6&#45;&gt;Node3</title>
<path fill="none" stroke="midnightblue" d="M1128.29,-103.552C997.683,-111.372 761.52,-125.514 636.252,-133.015"/>
<polygon fill="midnightblue" stroke="midnightblue" points="1128.5,-107.045 1138.27,-102.954 1128.08,-100.058 1128.5,-107.045"/>
</g>
<!-- Node7 -->
<g id="node7" class="node"><title>Node7</title>
<g id="a_node7"><a xlink:href="../../df/df0/classtests_1_1_view_controller_test.html#a74e99f9c72cbdcd2d56271b2ad2df1ce" target="_top" xlink:title="tests.ViewControllerTest.bind\lActionTest">
<polygon fill="white" stroke="black" points="1387,-73 1387,-103 1541,-103 1541,-73 1387,-73"/>
<text text-anchor="start" x="1395" y="-91" font-family="Helvetica,sans-Serif" font-size="10.00">tests.ViewControllerTest.bind</text>
<text text-anchor="middle" x="1464" y="-80" font-family="Helvetica,sans-Serif" font-size="10.00">ActionTest</text>
</a>
</g>
</g>
<!-- Node6&#45;&gt;Node7 -->
<g id="edge6" class="edge"><title>Node6&#45;&gt;Node7</title>
<path fill="none" stroke="midnightblue" d="M1315.89,-94.1297C1339.32,-93.1535 1364.2,-92.1167 1386.71,-91.1789"/>
<polygon fill="midnightblue" stroke="midnightblue" points="1315.44,-90.6452 1305.59,-94.5586 1315.73,-97.6391 1315.44,-90.6452"/>
</g>
<!-- Node8 -->
<g id="node8" class="node"><title>Node8</title>
<g id="a_node8"><a xlink:href="../../df/dd5/classgame_player_1_1_view_controller.html#ab8c14a8c53be9021a62d0107c2f75ef6" target="_top" xlink:title="gamePlayer.ViewController.update\lActions">
<polygon fill="white" stroke="black" points="1374,-24 1374,-54 1554,-54 1554,-24 1374,-24"/>
<text text-anchor="start" x="1382" y="-42" font-family="Helvetica,sans-Serif" font-size="10.00">gamePlayer.ViewController.update</text>
<text text-anchor="middle" x="1464" y="-31" font-family="Helvetica,sans-Serif" font-size="10.00">Actions</text>
</a>
</g>
</g>
<!-- Node6&#45;&gt;Node8 -->
<g id="edge8" class="edge"><title>Node6&#45;&gt;Node8</title>
<path fill="none" stroke="midnightblue" d="M1290.55,-80.4397C1312.66,-74.7734 1337.35,-68.5302 1360,-63 1372.13,-60.0379 1385.08,-56.9561 1397.56,-54.0271"/>
<polygon fill="midnightblue" stroke="midnightblue" points="1289.41,-77.12 1280.59,-82.9979 1291.15,-83.8999 1289.41,-77.12"/>
</g>
<!-- Node9 -->
<g id="node9" class="node"><title>Node9</title>
<g id="a_node9"><a xlink:href="../../d6/d24/classgame_player_1_1_select_state.html#a801827392f0faeee6b96925060d77838" target="_top" xlink:title="gamePlayer.SelectState.on\lClick">
<polygon fill="white" stroke="black" points="1627.5,-49 1627.5,-79 1774.5,-79 1774.5,-49 1627.5,-49"/>
<text text-anchor="start" x="1635.5" y="-67" font-family="Helvetica,sans-Serif" font-size="10.00">gamePlayer.SelectState.on</text>
<text text-anchor="middle" x="1701" y="-56" font-family="Helvetica,sans-Serif" font-size="10.00">Click</text>
</a>
</g>
</g>
<!-- Node8&#45;&gt;Node9 -->
<g id="edge9" class="edge"><title>Node8&#45;&gt;Node9</title>
<path fill="none" stroke="midnightblue" d="M1564.17,-49.5498C1585.35,-51.8028 1607.34,-54.1425 1627.3,-56.2663"/>
<polygon fill="midnightblue" stroke="midnightblue" points="1564.49,-46.0647 1554.18,-48.4871 1563.75,-53.0254 1564.49,-46.0647"/>
</g>
<!-- Node10 -->
<g id="node10" class="node"><title>Node10</title>
<g id="a_node10"><a xlink:href="../../df/df0/classtests_1_1_view_controller_test.html#a785df2c49a72c183c22163ce927f5df1" target="_top" xlink:title="tests.ViewControllerTest.update\lActionsTest">
<polygon fill="white" stroke="black" points="1617.5,-0 1617.5,-30 1784.5,-30 1784.5,-0 1617.5,-0"/>
<text text-anchor="start" x="1625.5" y="-18" font-family="Helvetica,sans-Serif" font-size="10.00">tests.ViewControllerTest.update</text>
<text text-anchor="middle" x="1701" y="-7" font-family="Helvetica,sans-Serif" font-size="10.00">ActionsTest</text>
</a>
</g>
</g>
<!-- Node8&#45;&gt;Node10 -->
<g id="edge10" class="edge"><title>Node8&#45;&gt;Node10</title>
<path fill="none" stroke="midnightblue" d="M1564.49,-28.839C1582.14,-27.0367 1600.34,-25.1777 1617.46,-23.4299"/>
<polygon fill="midnightblue" stroke="midnightblue" points="1563.77,-25.3944 1554.18,-29.8924 1564.48,-32.3582 1563.77,-25.3944"/>
</g>
<!-- Node13 -->
<g id="node13" class="node"><title>Node13</title>
<g id="a_node13"><a xlink:href="../../df/dd5/classgame_player_1_1_view_controller.html#a10a40967a873f067cf91b024ff85b38e" target="_top" xlink:title="gamePlayer.ViewController.initializeGrid">
<polygon fill="white" stroke="black" points="1120,-211.5 1120,-230.5 1324,-230.5 1324,-211.5 1120,-211.5"/>
<text text-anchor="middle" x="1222" y="-218.5" font-family="Helvetica,sans-Serif" font-size="10.00">gamePlayer.ViewController.initializeGrid</text>
</a>
</g>
</g>
<!-- Node12&#45;&gt;Node13 -->
<g id="edge14" class="edge"><title>Node12&#45;&gt;Node13</title>
<path fill="none" stroke="midnightblue" d="M1080.18,-219.171C1093.23,-219.341 1106.74,-219.516 1119.99,-219.688"/>
<polygon fill="midnightblue" stroke="midnightblue" points="1079.87,-215.667 1069.82,-219.037 1079.77,-222.666 1079.87,-215.667"/>
</g>
<!-- Node14 -->
<g id="node14" class="node"><title>Node14</title>
<g id="a_node14"><a xlink:href="../../df/dd5/classgame_player_1_1_view_controller.html#aabf431713b65ec510f1cb2df12da4e45" target="_top" xlink:title="gamePlayer.ViewController.test\lPlayGameInTab">
<polygon fill="white" stroke="black" points="1381.5,-161 1381.5,-191 1546.5,-191 1546.5,-161 1381.5,-161"/>
<text text-anchor="start" x="1389.5" y="-179" font-family="Helvetica,sans-Serif" font-size="10.00">gamePlayer.ViewController.test</text>
<text text-anchor="middle" x="1464" y="-168" font-family="Helvetica,sans-Serif" font-size="10.00">PlayGameInTab</text>
</a>
</g>
</g>
<!-- Node13&#45;&gt;Node14 -->
<g id="edge15" class="edge"><title>Node13&#45;&gt;Node14</title>
<path fill="none" stroke="midnightblue" d="M1283.83,-209.595C1313.89,-203.957 1350.57,-197.08 1382.9,-191.02"/>
<polygon fill="midnightblue" stroke="midnightblue" points="1283.08,-206.174 1273.9,-211.457 1284.37,-213.054 1283.08,-206.174"/>
</g>
<!-- Node15 -->
<g id="node15" class="node"><title>Node15</title>
<g id="a_node15"><a xlink:href="../../df/dd5/classgame_player_1_1_view_controller.html#a0d1a3d443966f151b070dc751d2faf9a" target="_top" xlink:title="gamePlayer.ViewController.restartGame">
<polygon fill="white" stroke="black" points="1360,-122.5 1360,-141.5 1568,-141.5 1568,-122.5 1360,-122.5"/>
<text text-anchor="middle" x="1464" y="-129.5" font-family="Helvetica,sans-Serif" font-size="10.00">gamePlayer.ViewController.restartGame</text>
</a>
</g>
</g>
<!-- Node13&#45;&gt;Node15 -->
<g id="edge16" class="edge"><title>Node13&#45;&gt;Node15</title>
<path fill="none" stroke="midnightblue" d="M1282.09,-208.548C1296.46,-204.018 1311.32,-197.976 1324,-190 1343.97,-177.438 1339.34,-162.39 1360,-151 1367.01,-147.137 1374.65,-144.04 1382.5,-141.561"/>
<polygon fill="midnightblue" stroke="midnightblue" points="1280.86,-205.262 1272.25,-211.448 1282.84,-211.976 1280.86,-205.262"/>
</g>
<!-- Node16 -->
<g id="node16" class="node"><title>Node16</title>
<g id="a_node16"><a xlink:href="../../df/dd5/classgame_player_1_1_view_controller.html#a620f8a02d3ac7677cd179fcd812aca55" target="_top" xlink:title="gamePlayer.ViewController.check\lEndActions">
<polygon fill="white" stroke="black" points="1377,-308 1377,-338 1551,-338 1551,-308 1377,-308"/>
<text text-anchor="start" x="1385" y="-326" font-family="Helvetica,sans-Serif" font-size="10.00">gamePlayer.ViewController.check</text>
<text text-anchor="middle" x="1464" y="-315" font-family="Helvetica,sans-Serif" font-size="10.00">EndActions</text>
</a>
</g>
</g>
<!-- Node13&#45;&gt;Node16 -->
<g id="edge17" class="edge"><title>Node13&#45;&gt;Node16</title>
<path fill="none" stroke="midnightblue" d="M1248.63,-235.46C1287.87,-257.6 1358.53,-297.423 1360,-298 1369.59,-301.775 1379.91,-305.095 1390.19,-307.978"/>
<polygon fill="midnightblue" stroke="midnightblue" points="1250.27,-232.371 1239.84,-230.505 1246.83,-238.467 1250.27,-232.371"/>
</g>
<!-- Node19 -->
<g id="node19" class="node"><title>Node19</title>
<g id="a_node19"><a xlink:href="../../df/dd5/classgame_player_1_1_view_controller.html#adc15cd81cefb88c58f9d3b7478328df8" target="_top" xlink:title="gamePlayer.ViewController.test\lPlayGUIGame">
<polygon fill="white" stroke="black" points="1381.5,-259 1381.5,-289 1546.5,-289 1546.5,-259 1381.5,-259"/>
<text text-anchor="start" x="1389.5" y="-277" font-family="Helvetica,sans-Serif" font-size="10.00">gamePlayer.ViewController.test</text>
<text text-anchor="middle" x="1464" y="-266" font-family="Helvetica,sans-Serif" font-size="10.00">PlayGUIGame</text>
</a>
</g>
</g>
<!-- Node13&#45;&gt;Node19 -->
<g id="edge21" class="edge"><title>Node13&#45;&gt;Node19</title>
<path fill="none" stroke="midnightblue" d="M1276.19,-232.745C1311.11,-240.458 1357.13,-250.62 1394.75,-258.928"/>
<polygon fill="midnightblue" stroke="midnightblue" points="1276.7,-229.275 1266.18,-230.537 1275.19,-236.111 1276.7,-229.275"/>
</g>
<!-- Node20 -->
<g id="node20" class="node"><title>Node20</title>
<g id="a_node20"><a xlink:href="../../df/dd5/classgame_player_1_1_view_controller.html#a4c1754d129a4eac955390b428eaa448a" target="_top" xlink:title="gamePlayer.ViewController.test\lPlayGame">
<polygon fill="white" stroke="black" points="1381.5,-210 1381.5,-240 1546.5,-240 1546.5,-210 1381.5,-210"/>
<text text-anchor="start" x="1389.5" y="-228" font-family="Helvetica,sans-Serif" font-size="10.00">gamePlayer.ViewController.test</text>
<text text-anchor="middle" x="1464" y="-217" font-family="Helvetica,sans-Serif" font-size="10.00">PlayGame</text>
</a>
</g>
</g>
<!-- Node13&#45;&gt;Node20 -->
<g id="edge22" class="edge"><title>Node13&#45;&gt;Node20</title>
<path fill="none" stroke="midnightblue" d="M1334.43,-222.857C1350.23,-223.12 1366.22,-223.387 1381.32,-223.639"/>
<polygon fill="midnightblue" stroke="midnightblue" points="1334.14,-219.352 1324.09,-222.685 1334.03,-226.351 1334.14,-219.352"/>
</g>
<!-- Node16&#45;&gt;Node4 -->
<g id="edge20" class="edge"><title>Node16&#45;&gt;Node4</title>
<path fill="none" stroke="midnightblue" d="M1366.42,-320.738C1250.99,-315.452 1053.42,-298.143 894,-242 852.56,-227.406 809.712,-198.68 785.6,-181.027"/>
<polygon fill="midnightblue" stroke="midnightblue" points="1366.5,-324.245 1376.65,-321.184 1366.81,-317.251 1366.5,-324.245"/>
</g>
<!-- Node17 -->
<g id="node17" class="node"><title>Node17</title>
<g id="a_node17"><a xlink:href="../../df/dd5/classgame_player_1_1_view_controller.html#a13ea7814bde61a8042c5b1a23af41416" target="_top" xlink:title="gamePlayer.ViewController.end\lAction">
<polygon fill="white" stroke="black" points="1619,-308 1619,-338 1783,-338 1783,-308 1619,-308"/>
<text text-anchor="start" x="1627" y="-326" font-family="Helvetica,sans-Serif" font-size="10.00">gamePlayer.ViewController.end</text>
<text text-anchor="middle" x="1701" y="-315" font-family="Helvetica,sans-Serif" font-size="10.00">Action</text>
</a>
</g>
</g>
<!-- Node16&#45;&gt;Node17 -->
<g id="edge18" class="edge"><title>Node16&#45;&gt;Node17</title>
<path fill="none" stroke="midnightblue" d="M1561.39,-323C1580.5,-323 1600.38,-323 1618.92,-323"/>
<polygon fill="midnightblue" stroke="midnightblue" points="1561.17,-319.5 1551.17,-323 1561.17,-326.5 1561.17,-319.5"/>
</g>
<!-- Node18 -->
<g id="node18" class="node"><title>Node18</title>
<g id="a_node18"><a xlink:href="../../db/d00/classgame_player_1_1_apply_state.html#aed42c1aba25264bc6880036f693a1c9e" target="_top" xlink:title="gamePlayer.ApplyState.on\lClick">
<polygon fill="white" stroke="black" points="1835.5,-308 1835.5,-338 1978.5,-338 1978.5,-308 1835.5,-308"/>
<text text-anchor="start" x="1843.5" y="-326" font-family="Helvetica,sans-Serif" font-size="10.00">gamePlayer.ApplyState.on</text>
<text text-anchor="middle" x="1907" y="-315" font-family="Helvetica,sans-Serif" font-size="10.00">Click</text>
</a>
</g>
</g>
<!-- Node17&#45;&gt;Node18 -->
<g id="edge19" class="edge"><title>Node17&#45;&gt;Node18</title>
<path fill="none" stroke="midnightblue" d="M1793.38,-323C1807.44,-323 1821.76,-323 1835.28,-323"/>
<polygon fill="midnightblue" stroke="midnightblue" points="1793.21,-319.5 1783.21,-323 1793.21,-326.5 1793.21,-319.5"/>
</g>
<!-- Node21 -->
<g id="node21" class="node"><title>Node21</title>
<g id="a_node21"><a xlink:href="../../db/d40/classfxml__main_1_1_authoring_controller.html#a2ec133c8edf0a7ab1e84f2e12455233d" target="_top" xlink:title="fxml_main.AuthoringController.save\lAsGame">
<polygon fill="white" stroke="black" points="1607.5,-188 1607.5,-218 1794.5,-218 1794.5,-188 1607.5,-188"/>
<text text-anchor="start" x="1615.5" y="-206" font-family="Helvetica,sans-Serif" font-size="10.00">fxml_main.AuthoringController.save</text>
<text text-anchor="middle" x="1701" y="-195" font-family="Helvetica,sans-Serif" font-size="10.00">AsGame</text>
</a>
</g>
</g>
<!-- Node20&#45;&gt;Node21 -->
<g id="edge23" class="edge"><title>Node20&#45;&gt;Node21</title>
<path fill="none" stroke="midnightblue" d="M1556.77,-216.409C1573.38,-214.854 1590.7,-213.232 1607.34,-211.675"/>
<polygon fill="midnightblue" stroke="midnightblue" points="1556.16,-212.95 1546.53,-217.367 1556.81,-219.92 1556.16,-212.95"/>
</g>
<!-- Node22 -->
<g id="node22" class="node"><title>Node22</title>
<g id="a_node22"><a xlink:href="../../df/dd5/classgame_player_1_1_view_controller.html#a2bf1dce04187ad5eacb5359ef2b4eff8" target="_top" xlink:title="gamePlayer.ViewController.newGame">
<polygon fill="white" stroke="black" points="1604,-237.5 1604,-256.5 1798,-256.5 1798,-237.5 1604,-237.5"/>
<text text-anchor="middle" x="1701" y="-244.5" font-family="Helvetica,sans-Serif" font-size="10.00">gamePlayer.ViewController.newGame</text>
</a>
</g>
</g>
<!-- Node20&#45;&gt;Node22 -->
<g id="edge24" class="edge"><title>Node20&#45;&gt;Node22</title>
<path fill="none" stroke="midnightblue" d="M1556.58,-233.573C1572.03,-235.019 1588.1,-236.524 1603.66,-237.981"/>
<polygon fill="midnightblue" stroke="midnightblue" points="1556.81,-230.08 1546.53,-232.633 1556.16,-237.05 1556.81,-230.08"/>
</g>
<!-- Node23 -->
<g id="node23" class="node"><title>Node23</title>
<g id="a_node23"><a xlink:href="../../df/dd5/classgame_player_1_1_view_controller.html#a2acd822c93c35674b6978a97b4ce6e3f" target="_top" xlink:title="gamePlayer.ViewController.\lViewController">
<polygon fill="white" stroke="black" points="1834,-232 1834,-262 1980,-262 1980,-232 1834,-232"/>
<text text-anchor="start" x="1842" y="-250" font-family="Helvetica,sans-Serif" font-size="10.00">gamePlayer.ViewController.</text>
<text text-anchor="middle" x="1907" y="-239" font-family="Helvetica,sans-Serif" font-size="10.00">ViewController</text>
</a>
</g>
</g>
<!-- Node22&#45;&gt;Node23 -->
<g id="edge25" class="edge"><title>Node22&#45;&gt;Node23</title>
<path fill="none" stroke="midnightblue" d="M1808.24,-247C1816.94,-247 1825.59,-247 1833.95,-247"/>
<polygon fill="midnightblue" stroke="midnightblue" points="1808.03,-243.5 1798.03,-247 1808.03,-250.5 1808.03,-243.5"/>
</g>
</g>
</svg>
