<?xml version="1.0" encoding="UTF-8" standalone="no"?>
<!DOCTYPE svg PUBLIC "-//W3C//DTD SVG 1.1//EN"
 "http://www.w3.org/Graphics/SVG/1.1/DTD/svg11.dtd">
<!-- Generated by graphviz version 2.36.0 (20140111.2315)
 -->
<!-- Title: gamePlayer.ViewController.addEntryToHallOfFame Pages: 1 -->
<svg width="1746pt" height="321pt"
 viewBox="0.00 0.00 1746.00 320.56" xmlns="http://www.w3.org/2000/svg" xmlns:xlink="http://www.w3.org/1999/xlink">
<g id="graph0" class="graph" transform="scale(1 1) rotate(0) translate(4 316.556)">
<title>gamePlayer.ViewController.addEntryToHallOfFame</title>
<polygon fill="white" stroke="none" points="-4,4 -4,-316.556 1742,-316.556 1742,4 -4,4"/>
<!-- Node1 -->
<g id="node1" class="node"><title>Node1</title>
<polygon fill="#bfbfbf" stroke="black" points="0,-30.5564 0,-60.5564 164,-60.5564 164,-30.5564 0,-30.5564"/>
<text text-anchor="start" x="8" y="-48.5564" font-family="Helvetica,sans-Serif" font-size="10.00">gamePlayer.ViewController.add</text>
<text text-anchor="middle" x="82" y="-37.5564" font-family="Helvetica,sans-Serif" font-size="10.00">EntryToHallOfFame</text>
</g>
<!-- Node2 -->
<g id="node2" class="node"><title>Node2</title>
<g id="a_node2"><a xlink:href="../../df/dd5/classgame_player_1_1_view_controller.html#aab4534e793b4713acf71dffef304a484" target="_top" xlink:title="gamePlayer.ViewController.enter\lHighScoreInfo">
<polygon fill="white" stroke="black" points="200,-30.5564 200,-60.5564 372,-60.5564 372,-30.5564 200,-30.5564"/>
<text text-anchor="start" x="208" y="-48.5564" font-family="Helvetica,sans-Serif" font-size="10.00">gamePlayer.ViewController.enter</text>
<text text-anchor="middle" x="286" y="-37.5564" font-family="Helvetica,sans-Serif" font-size="10.00">HighScoreInfo</text>
</a>
</g>
</g>
<!-- Node1&#45;&gt;Node2 -->
<g id="edge1" class="edge"><title>Node1&#45;&gt;Node2</title>
<path fill="none" stroke="midnightblue" d="M174.537,-45.5564C182.989,-45.5564 191.529,-45.5564 199.92,-45.5564"/>
<polygon fill="midnightblue" stroke="midnightblue" points="174.288,-42.0565 164.288,-45.5564 174.288,-49.0565 174.288,-42.0565"/>
</g>
<!-- Node3 -->
<g id="node3" class="node"><title>Node3</title>
<g id="a_node3"><a xlink:href="../../df/dd5/classgame_player_1_1_view_controller.html#a620f8a02d3ac7677cd179fcd812aca55" target="_top" xlink:title="gamePlayer.ViewController.check\lEndActions">
<polygon fill="white" stroke="black" points="408,-30.5564 408,-60.5564 582,-60.5564 582,-30.5564 408,-30.5564"/>
<text text-anchor="start" x="416" y="-48.5564" font-family="Helvetica,sans-Serif" font-size="10.00">gamePlayer.ViewController.check</text>
<text text-anchor="middle" x="495" y="-37.5564" font-family="Helvetica,sans-Serif" font-size="10.00">EndActions</text>
</a>
</g>
</g>
<!-- Node2&#45;&gt;Node3 -->
<g id="edge2" class="edge"><title>Node2&#45;&gt;Node3</title>
<path fill="none" stroke="midnightblue" d="M382.128,-45.5564C390.721,-45.5564 399.392,-45.5564 407.901,-45.5564"/>
<polygon fill="midnightblue" stroke="midnightblue" points="382.091,-42.0565 372.091,-45.5564 382.091,-49.0565 382.091,-42.0565"/>
</g>
<!-- Node4 -->
<g id="node4" class="node"><title>Node4</title>
<g id="a_node4"><a xlink:href="../../df/dd5/classgame_player_1_1_view_controller.html#a95c2acd43bb39b8606c69971c1cd30f5" target="_top" xlink:title="gamePlayer.ViewController.perform\lAction">
<polygon fill="white" stroke="black" points="618.5,-123.556 618.5,-153.556 803.5,-153.556 803.5,-123.556 618.5,-123.556"/>
<text text-anchor="start" x="626.5" y="-141.556" font-family="Helvetica,sans-Serif" font-size="10.00">gamePlayer.ViewController.perform</text>
<text text-anchor="middle" x="711" y="-130.556" font-family="Helvetica,sans-Serif" font-size="10.00">Action</text>
</a>
</g>
</g>
<!-- Node3&#45;&gt;Node4 -->
<g id="edge3" class="edge"><title>Node3&#45;&gt;Node4</title>
<path fill="none" stroke="midnightblue" d="M540.111,-64.7261C580.122,-82.1142 638.32,-107.406 675.156,-123.414"/>
<polygon fill="midnightblue" stroke="midnightblue" points="541.425,-61.4812 530.859,-60.7054 538.635,-67.9012 541.425,-61.4812"/>
</g>
<!-- Node19 -->
<g id="node19" class="node"><title>Node19</title>
<g id="a_node19"><a xlink:href="../../df/dd5/classgame_player_1_1_view_controller.html#a13ea7814bde61a8042c5b1a23af41416" target="_top" xlink:title="gamePlayer.ViewController.end\lAction">
<polygon fill="white" stroke="black" points="629,-30.5564 629,-60.5564 793,-60.5564 793,-30.5564 629,-30.5564"/>
<text text-anchor="start" x="637" y="-48.5564" font-family="Helvetica,sans-Serif" font-size="10.00">gamePlayer.ViewController.end</text>
<text text-anchor="middle" x="711" y="-37.5564" font-family="Helvetica,sans-Serif" font-size="10.00">Action</text>
</a>
</g>
</g>
<!-- Node3&#45;&gt;Node19 -->
<g id="edge21" class="edge"><title>Node3&#45;&gt;Node19</title>
<path fill="none" stroke="midnightblue" d="M592.327,-45.5564C604.55,-45.5564 616.962,-45.5564 628.914,-45.5564"/>
<polygon fill="midnightblue" stroke="midnightblue" points="592.117,-42.0565 582.117,-45.5564 592.117,-49.0565 592.117,-42.0565"/>
</g>
<!-- Node5 -->
<g id="node5" class="node"><title>Node5</title>
<g id="a_node5"><a xlink:href="../../da/d55/classgame_player_1_1_keyboard_movement.html#af45fd8d279b1ee2d6be5466d425485ab" target="_top" xlink:title="gamePlayer.KeyboardMovement.set\lMovementKeyControl">
<polygon fill="white" stroke="black" points="840.5,-167.556 840.5,-197.556 1029.5,-197.556 1029.5,-167.556 840.5,-167.556"/>
<text text-anchor="start" x="848.5" y="-185.556" font-family="Helvetica,sans-Serif" font-size="10.00">gamePlayer.KeyboardMovement.set</text>
<text text-anchor="middle" x="935" y="-174.556" font-family="Helvetica,sans-Serif" font-size="10.00">MovementKeyControl</text>
</a>
</g>
</g>
<!-- Node4&#45;&gt;Node5 -->
<g id="edge4" class="edge"><title>Node4&#45;&gt;Node5</title>
<path fill="none" stroke="midnightblue" d="M813.673,-151.979C839.145,-156.911 865.275,-162.451 886.65,-167.525"/>
<polygon fill="midnightblue" stroke="midnightblue" points="814.057,-148.489 803.578,-150.05 812.743,-155.365 814.057,-148.489"/>
</g>
<!-- Node13 -->
<g id="node13" class="node"><title>Node13</title>
<g id="a_node13"><a xlink:href="../../df/dd5/classgame_player_1_1_view_controller.html#a22ee80193bbac79a935ee961a183bfcd" target="_top" xlink:title="gamePlayer.ViewController.set\lOnClick">
<polygon fill="white" stroke="black" points="854.5,-79.5564 854.5,-109.556 1015.5,-109.556 1015.5,-79.5564 854.5,-79.5564"/>
<text text-anchor="start" x="862.5" y="-97.5564" font-family="Helvetica,sans-Serif" font-size="10.00">gamePlayer.ViewController.set</text>
<text text-anchor="middle" x="935" y="-86.5564" font-family="Helvetica,sans-Serif" font-size="10.00">OnClick</text>
</a>
</g>
</g>
<!-- Node4&#45;&gt;Node13 -->
<g id="edge14" class="edge"><title>Node4&#45;&gt;Node13</title>
<path fill="none" stroke="midnightblue" d="M797.761,-121.559C817.676,-117.612 838.735,-113.438 858.186,-109.583"/>
<polygon fill="midnightblue" stroke="midnightblue" points="796.908,-118.16 787.779,-123.537 798.269,-125.026 796.908,-118.16"/>
</g>
<!-- Node5&#45;&gt;Node4 -->
<g id="edge12" class="edge"><title>Node5&#45;&gt;Node4</title>
<path fill="none" stroke="midnightblue" d="M830.264,-168.733C805.45,-163.903 780.15,-158.525 759.352,-153.588"/>
<polygon fill="midnightblue" stroke="midnightblue" points="829.627,-172.175 840.108,-170.625 830.948,-165.301 829.627,-172.175"/>
</g>
<!-- Node6 -->
<g id="node6" class="node"><title>Node6</title>
<g id="a_node6"><a xlink:href="../../df/dd5/classgame_player_1_1_view_controller.html#a7eb038fd9f20604ade0406f27ef76657" target="_top" xlink:title="gamePlayer.ViewController.bind\lAction">
<polygon fill="white" stroke="black" points="1084.5,-216.556 1084.5,-246.556 1251.5,-246.556 1251.5,-216.556 1084.5,-216.556"/>
<text text-anchor="start" x="1092.5" y="-234.556" font-family="Helvetica,sans-Serif" font-size="10.00">gamePlayer.ViewController.bind</text>
<text text-anchor="middle" x="1168" y="-223.556" font-family="Helvetica,sans-Serif" font-size="10.00">Action</text>
</a>
</g>
</g>
<!-- Node5&#45;&gt;Node6 -->
<g id="edge5" class="edge"><title>Node5&#45;&gt;Node6</title>
<path fill="none" stroke="midnightblue" d="M1016.67,-199.669C1042.6,-205.168 1071.1,-211.214 1096.26,-216.55"/>
<polygon fill="midnightblue" stroke="midnightblue" points="1017.39,-196.242 1006.88,-197.591 1015.93,-203.09 1017.39,-196.242"/>
</g>
<!-- Node12 -->
<g id="node12" class="node"><title>Node12</title>
<g id="a_node12"><a xlink:href="../../df/dd5/classgame_player_1_1_view_controller.html#a27da17c1280cd953a14f6b76b18f9a4b" target="_top" xlink:title="gamePlayer.ViewController.toggle\lKeyboardControl">
<polygon fill="white" stroke="black" points="1080,-167.556 1080,-197.556 1256,-197.556 1256,-167.556 1080,-167.556"/>
<text text-anchor="start" x="1088" y="-185.556" font-family="Helvetica,sans-Serif" font-size="10.00">gamePlayer.ViewController.toggle</text>
<text text-anchor="middle" x="1168" y="-174.556" font-family="Helvetica,sans-Serif" font-size="10.00">KeyboardControl</text>
</a>
</g>
</g>
<!-- Node5&#45;&gt;Node12 -->
<g id="edge13" class="edge"><title>Node5&#45;&gt;Node12</title>
<path fill="none" stroke="midnightblue" d="M1039.83,-182.556C1053.24,-182.556 1066.86,-182.556 1079.96,-182.556"/>
<polygon fill="midnightblue" stroke="midnightblue" points="1039.62,-179.056 1029.62,-182.556 1039.62,-186.056 1039.62,-179.056"/>
</g>
<!-- Node7 -->
<g id="node7" class="node"><title>Node7</title>
<g id="a_node7"><a xlink:href="../../d1/db7/classgame_player_1_1_keyboard_action.html#a08ace57322b8639020688dd9493c3e1f" target="_top" xlink:title="gamePlayer.KeyboardAction.set\lActionKeyControl">
<polygon fill="white" stroke="black" points="1326,-154.556 1326,-184.556 1494,-184.556 1494,-154.556 1326,-154.556"/>
<text text-anchor="start" x="1334" y="-172.556" font-family="Helvetica,sans-Serif" font-size="10.00">gamePlayer.KeyboardAction.set</text>
<text text-anchor="middle" x="1410" y="-161.556" font-family="Helvetica,sans-Serif" font-size="10.00">ActionKeyControl</text>
</a>
</g>
</g>
<!-- Node6&#45;&gt;Node7 -->
<g id="edge6" class="edge"><title>Node6&#45;&gt;Node7</title>
<path fill="none" stroke="midnightblue" d="M1240.36,-214.059C1250.32,-211.568 1260.42,-209.017 1270,-206.556 1297.45,-199.506 1327.89,-191.434 1353.26,-184.632"/>
<polygon fill="midnightblue" stroke="midnightblue" points="1239.32,-210.71 1230.47,-216.524 1241.02,-217.502 1239.32,-210.71"/>
</g>
<!-- Node8 -->
<g id="node8" class="node"><title>Node8</title>
<g id="a_node8"><a xlink:href="../../df/dd5/classgame_player_1_1_view_controller.html#ab8c14a8c53be9021a62d0107c2f75ef6" target="_top" xlink:title="gamePlayer.ViewController.update\lActions">
<polygon fill="white" stroke="black" points="1320,-258.556 1320,-288.556 1500,-288.556 1500,-258.556 1320,-258.556"/>
<text text-anchor="start" x="1328" y="-276.556" font-family="Helvetica,sans-Serif" font-size="10.00">gamePlayer.ViewController.update</text>
<text text-anchor="middle" x="1410" y="-265.556" font-family="Helvetica,sans-Serif" font-size="10.00">Actions</text>
</a>
</g>
</g>
<!-- Node6&#45;&gt;Node8 -->
<g id="edge8" class="edge"><title>Node6&#45;&gt;Node8</title>
<path fill="none" stroke="midnightblue" d="M1261.71,-247.78C1281.86,-251.307 1303.1,-255.024 1322.98,-258.504"/>
<polygon fill="midnightblue" stroke="midnightblue" points="1262.05,-244.287 1251.59,-246.01 1260.84,-251.182 1262.05,-244.287"/>
</g>
<!-- Node11 -->
<g id="node11" class="node"><title>Node11</title>
<g id="a_node11"><a xlink:href="../../df/df0/classtests_1_1_view_controller_test.html#a74e99f9c72cbdcd2d56271b2ad2df1ce" target="_top" xlink:title="tests.ViewControllerTest.bind\lActionTest">
<polygon fill="white" stroke="black" points="1333,-209.556 1333,-239.556 1487,-239.556 1487,-209.556 1333,-209.556"/>
<text text-anchor="start" x="1341" y="-227.556" font-family="Helvetica,sans-Serif" font-size="10.00">tests.ViewControllerTest.bind</text>
<text text-anchor="middle" x="1410" y="-216.556" font-family="Helvetica,sans-Serif" font-size="10.00">ActionTest</text>
</a>
</g>
</g>
<!-- Node6&#45;&gt;Node11 -->
<g id="edge11" class="edge"><title>Node6&#45;&gt;Node11</title>
<path fill="none" stroke="midnightblue" d="M1261.89,-228.847C1285.32,-228.164 1310.2,-227.438 1332.71,-226.782"/>
<polygon fill="midnightblue" stroke="midnightblue" points="1261.49,-225.357 1251.59,-229.147 1261.69,-232.354 1261.49,-225.357"/>
</g>
<!-- Node7&#45;&gt;Node4 -->
<g id="edge7" class="edge"><title>Node7&#45;&gt;Node4</title>
<path fill="none" stroke="midnightblue" d="M1315.97,-161.636C1300.62,-160.49 1284.87,-159.411 1270,-158.556 1105.96,-149.13 914.525,-143.419 803.884,-140.635"/>
<polygon fill="midnightblue" stroke="midnightblue" points="1315.75,-165.129 1325.98,-162.398 1316.28,-158.15 1315.75,-165.129"/>
</g>
<!-- Node9 -->
<g id="node9" class="node"><title>Node9</title>
<g id="a_node9"><a xlink:href="../../d6/d24/classgame_player_1_1_select_state.html#a801827392f0faeee6b96925060d77838" target="_top" xlink:title="gamePlayer.SelectState.on\lClick">
<polygon fill="white" stroke="black" points="1570.5,-282.556 1570.5,-312.556 1717.5,-312.556 1717.5,-282.556 1570.5,-282.556"/>
<text text-anchor="start" x="1578.5" y="-300.556" font-family="Helvetica,sans-Serif" font-size="10.00">gamePlayer.SelectState.on</text>
<text text-anchor="middle" x="1644" y="-289.556" font-family="Helvetica,sans-Serif" font-size="10.00">Click</text>
</a>
</g>
</g>
<!-- Node8&#45;&gt;Node9 -->
<g id="edge9" class="edge"><title>Node8&#45;&gt;Node9</title>
<path fill="none" stroke="midnightblue" d="M1510.2,-283.819C1530.4,-285.908 1551.3,-288.07 1570.37,-290.043"/>
<polygon fill="midnightblue" stroke="midnightblue" points="1510.34,-280.314 1500.03,-282.767 1509.62,-287.277 1510.34,-280.314"/>
</g>
<!-- Node10 -->
<g id="node10" class="node"><title>Node10</title>
<g id="a_node10"><a xlink:href="../../df/df0/classtests_1_1_view_controller_test.html#a785df2c49a72c183c22163ce927f5df1" target="_top" xlink:title="tests.ViewControllerTest.update\lActionsTest">
<polygon fill="white" stroke="black" points="1560.5,-233.556 1560.5,-263.556 1727.5,-263.556 1727.5,-233.556 1560.5,-233.556"/>
<text text-anchor="start" x="1568.5" y="-251.556" font-family="Helvetica,sans-Serif" font-size="10.00">tests.ViewControllerTest.update</text>
<text text-anchor="middle" x="1644" y="-240.556" font-family="Helvetica,sans-Serif" font-size="10.00">ActionsTest</text>
</a>
</g>
</g>
<!-- Node8&#45;&gt;Node10 -->
<g id="edge10" class="edge"><title>Node8&#45;&gt;Node10</title>
<path fill="none" stroke="midnightblue" d="M1510.33,-262.852C1526.99,-261.057 1544.12,-259.212 1560.3,-257.468"/>
<polygon fill="midnightblue" stroke="midnightblue" points="1509.6,-259.411 1500.03,-263.962 1510.35,-266.371 1509.6,-259.411"/>
</g>
<!-- Node14 -->
<g id="node14" class="node"><title>Node14</title>
<g id="a_node14"><a xlink:href="../../df/dd5/classgame_player_1_1_view_controller.html#a10a40967a873f067cf91b024ff85b38e" target="_top" xlink:title="gamePlayer.ViewController.initializeGrid">
<polygon fill="white" stroke="black" points="1066,-66.0564 1066,-85.0564 1270,-85.0564 1270,-66.0564 1066,-66.0564"/>
<text text-anchor="middle" x="1168" y="-73.0564" font-family="Helvetica,sans-Serif" font-size="10.00">gamePlayer.ViewController.initializeGrid</text>
</a>
</g>
</g>
<!-- Node13&#45;&gt;Node14 -->
<g id="edge15" class="edge"><title>Node13&#45;&gt;Node14</title>
<path fill="none" stroke="midnightblue" d="M1025.79,-87.171C1038.96,-86.0875 1052.61,-84.9653 1065.99,-83.8648"/>
<polygon fill="midnightblue" stroke="midnightblue" points="1025.5,-83.683 1015.82,-87.9911 1026.07,-90.6594 1025.5,-83.683"/>
</g>
<!-- Node14&#45;&gt;Node3 -->
<g id="edge20" class="edge"><title>Node14&#45;&gt;Node3</title>
<path fill="none" stroke="midnightblue" d="M1140.35,-61.2891C1113.4,-47.7349 1070.12,-28.3085 1030,-20.5564 850.215,14.1844 800.177,-2.08267 618,-20.5564 597.995,-22.585 576.425,-26.439 557.066,-30.5244"/>
<polygon fill="midnightblue" stroke="midnightblue" points="1139,-64.5341 1149.5,-65.9846 1142.2,-58.3058 1139,-64.5341"/>
</g>
<!-- Node15 -->
<g id="node15" class="node"><title>Node15</title>
<g id="a_node15"><a xlink:href="../../df/dd5/classgame_player_1_1_view_controller.html#a0d1a3d443966f151b070dc751d2faf9a" target="_top" xlink:title="gamePlayer.ViewController.restartGame">
<polygon fill="white" stroke="black" points="1306,-104.056 1306,-123.056 1514,-123.056 1514,-104.056 1306,-104.056"/>
<text text-anchor="middle" x="1410" y="-111.056" font-family="Helvetica,sans-Serif" font-size="10.00">gamePlayer.ViewController.restartGame</text>
</a>
</g>
</g>
<!-- Node14&#45;&gt;Node15 -->
<g id="edge16" class="edge"><title>Node14&#45;&gt;Node15</title>
<path fill="none" stroke="midnightblue" d="M1239.32,-86.6905C1274.03,-92.1867 1315.48,-98.7493 1348.72,-104.013"/>
<polygon fill="midnightblue" stroke="midnightblue" points="1239.68,-83.2033 1229.25,-85.0963 1238.58,-90.1172 1239.68,-83.2033"/>
</g>
<!-- Node16 -->
<g id="node16" class="node"><title>Node16</title>
<g id="a_node16"><a xlink:href="../../df/dd5/classgame_player_1_1_view_controller.html#af1870a0b6786d96d118021fc62b6475d" target="_top" xlink:title="gamePlayer.ViewController.beginGame">
<polygon fill="white" stroke="black" points="1309,-66.0564 1309,-85.0564 1511,-85.0564 1511,-66.0564 1309,-66.0564"/>
<text text-anchor="middle" x="1410" y="-73.0564" font-family="Helvetica,sans-Serif" font-size="10.00">gamePlayer.ViewController.beginGame</text>
</a>
</g>
</g>
<!-- Node14&#45;&gt;Node16 -->
<g id="edge17" class="edge"><title>Node14&#45;&gt;Node16</title>
<path fill="none" stroke="midnightblue" d="M1280.35,-75.5564C1289.84,-75.5564 1299.4,-75.5564 1308.8,-75.5564"/>
<polygon fill="midnightblue" stroke="midnightblue" points="1280.09,-72.0565 1270.09,-75.5564 1280.09,-79.0565 1280.09,-72.0565"/>
</g>
<!-- Node17 -->
<g id="node17" class="node"><title>Node17</title>
<g id="a_node17"><a xlink:href="../../df/dd5/classgame_player_1_1_view_controller.html#a4c1754d129a4eac955390b428eaa448a" target="_top" xlink:title="gamePlayer.ViewController.test\lPlayGame">
<polygon fill="white" stroke="black" points="1327.5,-16.5564 1327.5,-46.5564 1492.5,-46.5564 1492.5,-16.5564 1327.5,-16.5564"/>
<text text-anchor="start" x="1335.5" y="-34.5564" font-family="Helvetica,sans-Serif" font-size="10.00">gamePlayer.ViewController.test</text>
<text text-anchor="middle" x="1410" y="-23.5564" font-family="Helvetica,sans-Serif" font-size="10.00">PlayGame</text>
</a>
</g>
</g>
<!-- Node14&#45;&gt;Node17 -->
<g id="edge18" class="edge"><title>Node14&#45;&gt;Node17</title>
<path fill="none" stroke="midnightblue" d="M1231.18,-64.1574C1260.49,-58.7834 1295.85,-52.3004 1327.29,-46.5358"/>
<polygon fill="midnightblue" stroke="midnightblue" points="1230.28,-60.7631 1221.08,-66.009 1231.54,-67.6483 1230.28,-60.7631"/>
</g>
<!-- Node18 -->
<g id="node18" class="node"><title>Node18</title>
<g id="a_node18"><a xlink:href="../../db/d40/classfxml__main_1_1_authoring_controller.html#a2ec133c8edf0a7ab1e84f2e12455233d" target="_top" xlink:title="fxml_main.AuthoringController.save\lAsGame">
<polygon fill="white" stroke="black" points="1550.5,-16.5564 1550.5,-46.5564 1737.5,-46.5564 1737.5,-16.5564 1550.5,-16.5564"/>
<text text-anchor="start" x="1558.5" y="-34.5564" font-family="Helvetica,sans-Serif" font-size="10.00">fxml_main.AuthoringController.save</text>
<text text-anchor="middle" x="1644" y="-23.5564" font-family="Helvetica,sans-Serif" font-size="10.00">AsGame</text>
</a>
</g>
</g>
<!-- Node17&#45;&gt;Node18 -->
<g id="edge19" class="edge"><title>Node17&#45;&gt;Node18</title>
<path fill="none" stroke="midnightblue" d="M1502.96,-31.5564C1518.59,-31.5564 1534.83,-31.5564 1550.47,-31.5564"/>
<polygon fill="midnightblue" stroke="midnightblue" points="1502.79,-28.0565 1492.79,-31.5564 1502.79,-35.0565 1502.79,-28.0565"/>
</g>
<!-- Node20 -->
<g id="node20" class="node"><title>Node20</title>
<g id="a_node20"><a xlink:href="../../db/d00/classgame_player_1_1_apply_state.html#aed42c1aba25264bc6880036f693a1c9e" target="_top" xlink:title="gamePlayer.ApplyState.on\lClick">
<polygon fill="white" stroke="black" points="863.5,-30.5564 863.5,-60.5564 1006.5,-60.5564 1006.5,-30.5564 863.5,-30.5564"/>
<text text-anchor="start" x="871.5" y="-48.5564" font-family="Helvetica,sans-Serif" font-size="10.00">gamePlayer.ApplyState.on</text>
<text text-anchor="middle" x="935" y="-37.5564" font-family="Helvetica,sans-Serif" font-size="10.00">Click</text>
</a>
</g>
</g>
<!-- Node19&#45;&gt;Node20 -->
<g id="edge22" class="edge"><title>Node19&#45;&gt;Node20</title>
<path fill="none" stroke="midnightblue" d="M803.182,-45.5564C823.271,-45.5564 844.256,-45.5564 863.387,-45.5564"/>
<polygon fill="midnightblue" stroke="midnightblue" points="803.089,-42.0565 793.089,-45.5564 803.089,-49.0565 803.089,-42.0565"/>
</g>
</g>
</svg>
