<?xml version="1.0" encoding="UTF-8" standalone="no"?>
<!DOCTYPE svg PUBLIC "-//W3C//DTD SVG 1.1//EN"
 "http://www.w3.org/Graphics/SVG/1.1/DTD/svg11.dtd">
<!-- Generated by graphviz version 2.36.0 (20140111.2315)
 -->
<!-- Title: gamePlayer.ViewController.performAction Pages: 1 -->
<svg width="1308pt" height="335pt"
 viewBox="0.00 0.00 1308.00 335.00" xmlns="http://www.w3.org/2000/svg" xmlns:xlink="http://www.w3.org/1999/xlink">
<g id="graph0" class="graph" transform="scale(1 1) rotate(0) translate(4 331)">
<title>gamePlayer.ViewController.performAction</title>
<polygon fill="white" stroke="none" points="-4,4 -4,-331 1304,-331 1304,4 -4,4"/>
<!-- Node1 -->
<g id="node1" class="node"><title>Node1</title>
<polygon fill="#bfbfbf" stroke="black" points="0.5,-131 0.5,-161 185.5,-161 185.5,-131 0.5,-131"/>
<text text-anchor="start" x="8.5" y="-149" font-family="Helvetica,sans-Serif" font-size="10.00">gamePlayer.ViewController.perform</text>
<text text-anchor="middle" x="93" y="-138" font-family="Helvetica,sans-Serif" font-size="10.00">Action</text>
</g>
<!-- Node2 -->
<g id="node2" class="node"><title>Node2</title>
<g id="a_node2"><a xlink:href="../../da/d55/classgame_player_1_1_keyboard_movement.html#af45fd8d279b1ee2d6be5466d425485ab" target="_top" xlink:title="gamePlayer.KeyboardMovement.set\lMovementKeyControl">
<polygon fill="white" stroke="black" points="222.5,-175 222.5,-205 411.5,-205 411.5,-175 222.5,-175"/>
<text text-anchor="start" x="230.5" y="-193" font-family="Helvetica,sans-Serif" font-size="10.00">gamePlayer.KeyboardMovement.set</text>
<text text-anchor="middle" x="317" y="-182" font-family="Helvetica,sans-Serif" font-size="10.00">MovementKeyControl</text>
</a>
</g>
</g>
<!-- Node1&#45;&gt;Node2 -->
<g id="edge1" class="edge"><title>Node1&#45;&gt;Node2</title>
<path fill="none" stroke="midnightblue" d="M195.673,-159.423C221.145,-164.355 247.275,-169.895 268.65,-174.969"/>
<polygon fill="midnightblue" stroke="midnightblue" points="196.057,-155.933 185.578,-157.493 194.743,-162.808 196.057,-155.933"/>
</g>
<!-- Node10 -->
<g id="node10" class="node"><title>Node10</title>
<g id="a_node10"><a xlink:href="../../df/dd5/classgame_player_1_1_view_controller.html#a22ee80193bbac79a935ee961a183bfcd" target="_top" xlink:title="gamePlayer.ViewController.set\lOnClick">
<polygon fill="white" stroke="black" points="236.5,-85 236.5,-115 397.5,-115 397.5,-85 236.5,-85"/>
<text text-anchor="start" x="244.5" y="-103" font-family="Helvetica,sans-Serif" font-size="10.00">gamePlayer.ViewController.set</text>
<text text-anchor="middle" x="317" y="-92" font-family="Helvetica,sans-Serif" font-size="10.00">OnClick</text>
</a>
</g>
</g>
<!-- Node1&#45;&gt;Node10 -->
<g id="edge11" class="edge"><title>Node1&#45;&gt;Node10</title>
<path fill="none" stroke="midnightblue" d="M176.655,-128.873C198.612,-124.324 222.156,-119.445 243.525,-115.017"/>
<polygon fill="midnightblue" stroke="midnightblue" points="175.773,-125.482 166.691,-130.938 177.193,-132.336 175.773,-125.482"/>
</g>
<!-- Node2&#45;&gt;Node1 -->
<g id="edge9" class="edge"><title>Node2&#45;&gt;Node1</title>
<path fill="none" stroke="midnightblue" d="M212.264,-176.177C187.45,-171.347 162.15,-165.969 141.352,-161.032"/>
<polygon fill="midnightblue" stroke="midnightblue" points="211.627,-179.618 222.108,-178.069 212.948,-172.744 211.627,-179.618"/>
</g>
<!-- Node3 -->
<g id="node3" class="node"><title>Node3</title>
<g id="a_node3"><a xlink:href="../../df/dd5/classgame_player_1_1_view_controller.html#a7eb038fd9f20604ade0406f27ef76657" target="_top" xlink:title="gamePlayer.ViewController.bind\lAction">
<polygon fill="white" stroke="black" points="466.5,-175 466.5,-205 633.5,-205 633.5,-175 466.5,-175"/>
<text text-anchor="start" x="474.5" y="-193" font-family="Helvetica,sans-Serif" font-size="10.00">gamePlayer.ViewController.bind</text>
<text text-anchor="middle" x="550" y="-182" font-family="Helvetica,sans-Serif" font-size="10.00">Action</text>
</a>
</g>
</g>
<!-- Node2&#45;&gt;Node3 -->
<g id="edge2" class="edge"><title>Node2&#45;&gt;Node3</title>
<path fill="none" stroke="midnightblue" d="M421.89,-190C436.798,-190 451.967,-190 466.389,-190"/>
<polygon fill="midnightblue" stroke="midnightblue" points="421.624,-186.5 411.624,-190 421.624,-193.5 421.624,-186.5"/>
</g>
<!-- Node9 -->
<g id="node9" class="node"><title>Node9</title>
<g id="a_node9"><a xlink:href="../../df/dd5/classgame_player_1_1_view_controller.html#a27da17c1280cd953a14f6b76b18f9a4b" target="_top" xlink:title="gamePlayer.ViewController.toggle\lKeyboardControl">
<polygon fill="white" stroke="black" points="462,-224 462,-254 638,-254 638,-224 462,-224"/>
<text text-anchor="start" x="470" y="-242" font-family="Helvetica,sans-Serif" font-size="10.00">gamePlayer.ViewController.toggle</text>
<text text-anchor="middle" x="550" y="-231" font-family="Helvetica,sans-Serif" font-size="10.00">KeyboardControl</text>
</a>
</g>
</g>
<!-- Node2&#45;&gt;Node9 -->
<g id="edge10" class="edge"><title>Node2&#45;&gt;Node9</title>
<path fill="none" stroke="midnightblue" d="M398.674,-207.113C424.597,-212.611 453.102,-218.658 478.257,-223.994"/>
<polygon fill="midnightblue" stroke="midnightblue" points="399.386,-203.686 388.877,-205.035 397.934,-210.534 399.386,-203.686"/>
</g>
<!-- Node4 -->
<g id="node4" class="node"><title>Node4</title>
<g id="a_node4"><a xlink:href="../../df/df0/classtests_1_1_view_controller_test.html#a74e99f9c72cbdcd2d56271b2ad2df1ce" target="_top" xlink:title="tests.ViewControllerTest.bind\lActionTest">
<polygon fill="white" stroke="black" points="715,-224 715,-254 869,-254 869,-224 715,-224"/>
<text text-anchor="start" x="723" y="-242" font-family="Helvetica,sans-Serif" font-size="10.00">tests.ViewControllerTest.bind</text>
<text text-anchor="middle" x="792" y="-231" font-family="Helvetica,sans-Serif" font-size="10.00">ActionTest</text>
</a>
</g>
</g>
<!-- Node3&#45;&gt;Node4 -->
<g id="edge3" class="edge"><title>Node3&#45;&gt;Node4</title>
<path fill="none" stroke="midnightblue" d="M634.461,-207.04C661.489,-212.558 691.251,-218.634 717.5,-223.994"/>
<polygon fill="midnightblue" stroke="midnightblue" points="635.137,-203.606 624.639,-205.035 633.737,-210.464 635.137,-203.606"/>
</g>
<!-- Node5 -->
<g id="node5" class="node"><title>Node5</title>
<g id="a_node5"><a xlink:href="../../d1/db7/classgame_player_1_1_keyboard_action.html#a08ace57322b8639020688dd9493c3e1f" target="_top" xlink:title="gamePlayer.KeyboardAction.set\lActionKeyControl">
<polygon fill="white" stroke="black" points="708,-175 708,-205 876,-205 876,-175 708,-175"/>
<text text-anchor="start" x="716" y="-193" font-family="Helvetica,sans-Serif" font-size="10.00">gamePlayer.KeyboardAction.set</text>
<text text-anchor="middle" x="792" y="-182" font-family="Helvetica,sans-Serif" font-size="10.00">ActionKeyControl</text>
</a>
</g>
</g>
<!-- Node3&#45;&gt;Node5 -->
<g id="edge4" class="edge"><title>Node3&#45;&gt;Node5</title>
<path fill="none" stroke="midnightblue" d="M643.839,-190C664.925,-190 687.192,-190 707.846,-190"/>
<polygon fill="midnightblue" stroke="midnightblue" points="643.594,-186.5 633.594,-190 643.594,-193.5 643.594,-186.5"/>
</g>
<!-- Node6 -->
<g id="node6" class="node"><title>Node6</title>
<g id="a_node6"><a xlink:href="../../df/dd5/classgame_player_1_1_view_controller.html#ab8c14a8c53be9021a62d0107c2f75ef6" target="_top" xlink:title="gamePlayer.ViewController.update\lActions">
<polygon fill="white" stroke="black" points="702,-273 702,-303 882,-303 882,-273 702,-273"/>
<text text-anchor="start" x="710" y="-291" font-family="Helvetica,sans-Serif" font-size="10.00">gamePlayer.ViewController.update</text>
<text text-anchor="middle" x="792" y="-280" font-family="Helvetica,sans-Serif" font-size="10.00">Actions</text>
</a>
</g>
</g>
<!-- Node3&#45;&gt;Node6 -->
<g id="edge6" class="edge"><title>Node3&#45;&gt;Node6</title>
<path fill="none" stroke="midnightblue" d="M642.785,-208.609C645.972,-210.257 649.056,-212.049 652,-214 674.526,-228.928 665.51,-248.018 688,-263 693.819,-266.877 700.181,-270.153 706.795,-272.922"/>
<polygon fill="midnightblue" stroke="midnightblue" points="644.11,-205.366 633.565,-204.34 641.169,-211.718 644.11,-205.366"/>
</g>
<!-- Node5&#45;&gt;Node1 -->
<g id="edge5" class="edge"><title>Node5&#45;&gt;Node1</title>
<path fill="none" stroke="midnightblue" d="M708.862,-173.209C690.238,-169.965 670.497,-166.968 652,-165 488.383,-147.592 296.407,-144.916 185.621,-145.089"/>
<polygon fill="midnightblue" stroke="midnightblue" points="708.322,-176.667 718.781,-174.977 709.551,-169.776 708.322,-176.667"/>
</g>
<!-- Node7 -->
<g id="node7" class="node"><title>Node7</title>
<g id="a_node7"><a xlink:href="../../d6/d24/classgame_player_1_1_select_state.html#a801827392f0faeee6b96925060d77838" target="_top" xlink:title="gamePlayer.SelectState.on\lClick">
<polygon fill="white" stroke="black" points="952.5,-297 952.5,-327 1099.5,-327 1099.5,-297 952.5,-297"/>
<text text-anchor="start" x="960.5" y="-315" font-family="Helvetica,sans-Serif" font-size="10.00">gamePlayer.SelectState.on</text>
<text text-anchor="middle" x="1026" y="-304" font-family="Helvetica,sans-Serif" font-size="10.00">Click</text>
</a>
</g>
</g>
<!-- Node6&#45;&gt;Node7 -->
<g id="edge7" class="edge"><title>Node6&#45;&gt;Node7</title>
<path fill="none" stroke="midnightblue" d="M892.201,-298.262C912.403,-300.352 933.3,-302.514 952.369,-304.486"/>
<polygon fill="midnightblue" stroke="midnightblue" points="892.341,-294.758 882.034,-297.21 891.62,-301.721 892.341,-294.758"/>
</g>
<!-- Node8 -->
<g id="node8" class="node"><title>Node8</title>
<g id="a_node8"><a xlink:href="../../df/df0/classtests_1_1_view_controller_test.html#a785df2c49a72c183c22163ce927f5df1" target="_top" xlink:title="tests.ViewControllerTest.update\lActionsTest">
<polygon fill="white" stroke="black" points="942.5,-248 942.5,-278 1109.5,-278 1109.5,-248 942.5,-248"/>
<text text-anchor="start" x="950.5" y="-266" font-family="Helvetica,sans-Serif" font-size="10.00">tests.ViewControllerTest.update</text>
<text text-anchor="middle" x="1026" y="-255" font-family="Helvetica,sans-Serif" font-size="10.00">ActionsTest</text>
</a>
</g>
</g>
<!-- Node6&#45;&gt;Node8 -->
<g id="edge8" class="edge"><title>Node6&#45;&gt;Node8</title>
<path fill="none" stroke="midnightblue" d="M892.332,-277.296C908.99,-275.501 926.115,-273.656 942.297,-271.912"/>
<polygon fill="midnightblue" stroke="midnightblue" points="891.601,-273.855 882.034,-278.406 892.351,-280.814 891.601,-273.855"/>
</g>
<!-- Node11 -->
<g id="node11" class="node"><title>Node11</title>
<g id="a_node11"><a xlink:href="../../df/dd5/classgame_player_1_1_view_controller.html#a10a40967a873f067cf91b024ff85b38e" target="_top" xlink:title="gamePlayer.ViewController.initializeGrid">
<polygon fill="white" stroke="black" points="448,-87.5 448,-106.5 652,-106.5 652,-87.5 448,-87.5"/>
<text text-anchor="middle" x="550" y="-94.5" font-family="Helvetica,sans-Serif" font-size="10.00">gamePlayer.ViewController.initializeGrid</text>
</a>
</g>
</g>
<!-- Node10&#45;&gt;Node11 -->
<g id="edge12" class="edge"><title>Node10&#45;&gt;Node11</title>
<path fill="none" stroke="midnightblue" d="M408.178,-98.8289C421.231,-98.6593 434.738,-98.4839 447.987,-98.3119"/>
<polygon fill="midnightblue" stroke="midnightblue" points="407.774,-95.3337 397.821,-98.9634 407.865,-102.333 407.774,-95.3337"/>
</g>
<!-- Node12 -->
<g id="node12" class="node"><title>Node12</title>
<g id="a_node12"><a xlink:href="../../df/dd5/classgame_player_1_1_view_controller.html#af1870a0b6786d96d118021fc62b6475d" target="_top" xlink:title="gamePlayer.ViewController.beginGame">
<polygon fill="white" stroke="black" points="691,-87.5 691,-106.5 893,-106.5 893,-87.5 691,-87.5"/>
<text text-anchor="middle" x="792" y="-94.5" font-family="Helvetica,sans-Serif" font-size="10.00">gamePlayer.ViewController.beginGame</text>
</a>
</g>
</g>
<!-- Node11&#45;&gt;Node12 -->
<g id="edge13" class="edge"><title>Node11&#45;&gt;Node12</title>
<path fill="none" stroke="midnightblue" d="M662.346,-97C671.837,-97 681.401,-97 690.799,-97"/>
<polygon fill="midnightblue" stroke="midnightblue" points="662.086,-93.5001 652.086,-97 662.086,-100.5 662.086,-93.5001"/>
</g>
<!-- Node13 -->
<g id="node13" class="node"><title>Node13</title>
<g id="a_node13"><a xlink:href="../../df/dd5/classgame_player_1_1_view_controller.html#a620f8a02d3ac7677cd179fcd812aca55" target="_top" xlink:title="gamePlayer.ViewController.check\lEndActions">
<polygon fill="white" stroke="black" points="705,-0 705,-30 879,-30 879,-0 705,-0"/>
<text text-anchor="start" x="713" y="-18" font-family="Helvetica,sans-Serif" font-size="10.00">gamePlayer.ViewController.check</text>
<text text-anchor="middle" x="792" y="-7" font-family="Helvetica,sans-Serif" font-size="10.00">EndActions</text>
</a>
</g>
</g>
<!-- Node11&#45;&gt;Node13 -->
<g id="edge14" class="edge"><title>Node11&#45;&gt;Node13</title>
<path fill="none" stroke="midnightblue" d="M580.443,-83.1742C607.849,-70.6856 650.057,-52.4137 688,-40 699.018,-36.3952 710.851,-33.0506 722.431,-30.0565"/>
<polygon fill="midnightblue" stroke="midnightblue" points="578.675,-80.1349 571.051,-87.4921 581.599,-86.4949 578.675,-80.1349"/>
</g>
<!-- Node16 -->
<g id="node16" class="node"><title>Node16</title>
<g id="a_node16"><a xlink:href="../../df/dd5/classgame_player_1_1_view_controller.html#a0d1a3d443966f151b070dc751d2faf9a" target="_top" xlink:title="gamePlayer.ViewController.restartGame">
<polygon fill="white" stroke="black" points="688,-49.5 688,-68.5 896,-68.5 896,-49.5 688,-49.5"/>
<text text-anchor="middle" x="792" y="-56.5" font-family="Helvetica,sans-Serif" font-size="10.00">gamePlayer.ViewController.restartGame</text>
</a>
</g>
</g>
<!-- Node11&#45;&gt;Node16 -->
<g id="edge18" class="edge"><title>Node11&#45;&gt;Node16</title>
<path fill="none" stroke="midnightblue" d="M621.321,-85.8659C656.033,-80.3697 697.481,-73.8071 730.723,-68.5439"/>
<polygon fill="midnightblue" stroke="midnightblue" points="620.582,-82.4392 611.252,-87.46 621.677,-89.353 620.582,-82.4392"/>
</g>
<!-- Node17 -->
<g id="node17" class="node"><title>Node17</title>
<g id="a_node17"><a xlink:href="../../df/dd5/classgame_player_1_1_view_controller.html#a4c1754d129a4eac955390b428eaa448a" target="_top" xlink:title="gamePlayer.ViewController.test\lPlayGame">
<polygon fill="white" stroke="black" points="709.5,-126 709.5,-156 874.5,-156 874.5,-126 709.5,-126"/>
<text text-anchor="start" x="717.5" y="-144" font-family="Helvetica,sans-Serif" font-size="10.00">gamePlayer.ViewController.test</text>
<text text-anchor="middle" x="792" y="-133" font-family="Helvetica,sans-Serif" font-size="10.00">PlayGame</text>
</a>
</g>
</g>
<!-- Node11&#45;&gt;Node17 -->
<g id="edge19" class="edge"><title>Node11&#45;&gt;Node17</title>
<path fill="none" stroke="midnightblue" d="M613.176,-108.399C642.489,-113.773 677.851,-120.256 709.294,-126.021"/>
<polygon fill="midnightblue" stroke="midnightblue" points="613.544,-104.908 603.076,-106.547 612.281,-111.793 613.544,-104.908"/>
</g>
<!-- Node13&#45;&gt;Node1 -->
<g id="edge17" class="edge"><title>Node13&#45;&gt;Node1</title>
<path fill="none" stroke="midnightblue" d="M694.777,-13.5648C579.685,-14.4612 382.454,-24.3537 222,-75 181.53,-87.7741 139.39,-114.096 114.981,-130.854"/>
<polygon fill="midnightblue" stroke="midnightblue" points="694.99,-17.0637 704.97,-13.5073 694.95,-10.0638 694.99,-17.0637"/>
</g>
<!-- Node14 -->
<g id="node14" class="node"><title>Node14</title>
<g id="a_node14"><a xlink:href="../../df/dd5/classgame_player_1_1_view_controller.html#a13ea7814bde61a8042c5b1a23af41416" target="_top" xlink:title="gamePlayer.ViewController.end\lAction">
<polygon fill="white" stroke="black" points="944,-0 944,-30 1108,-30 1108,-0 944,-0"/>
<text text-anchor="start" x="952" y="-18" font-family="Helvetica,sans-Serif" font-size="10.00">gamePlayer.ViewController.end</text>
<text text-anchor="middle" x="1026" y="-7" font-family="Helvetica,sans-Serif" font-size="10.00">Action</text>
</a>
</g>
</g>
<!-- Node13&#45;&gt;Node14 -->
<g id="edge15" class="edge"><title>Node13&#45;&gt;Node14</title>
<path fill="none" stroke="midnightblue" d="M889.065,-15C907.221,-15 926.049,-15 943.697,-15"/>
<polygon fill="midnightblue" stroke="midnightblue" points="889.059,-11.5001 879.059,-15 889.059,-18.5001 889.059,-11.5001"/>
</g>
<!-- Node15 -->
<g id="node15" class="node"><title>Node15</title>
<g id="a_node15"><a xlink:href="../../db/d00/classgame_player_1_1_apply_state.html#aed42c1aba25264bc6880036f693a1c9e" target="_top" xlink:title="gamePlayer.ApplyState.on\lClick">
<polygon fill="white" stroke="black" points="1156.5,-0 1156.5,-30 1299.5,-30 1299.5,-0 1156.5,-0"/>
<text text-anchor="start" x="1164.5" y="-18" font-family="Helvetica,sans-Serif" font-size="10.00">gamePlayer.ApplyState.on</text>
<text text-anchor="middle" x="1228" y="-7" font-family="Helvetica,sans-Serif" font-size="10.00">Click</text>
</a>
</g>
</g>
<!-- Node14&#45;&gt;Node15 -->
<g id="edge16" class="edge"><title>Node14&#45;&gt;Node15</title>
<path fill="none" stroke="midnightblue" d="M1118.27,-15C1131.08,-15 1144.08,-15 1156.43,-15"/>
<polygon fill="midnightblue" stroke="midnightblue" points="1118.06,-11.5001 1108.06,-15 1118.06,-18.5001 1118.06,-11.5001"/>
</g>
<!-- Node18 -->
<g id="node18" class="node"><title>Node18</title>
<g id="a_node18"><a xlink:href="../../db/d40/classfxml__main_1_1_authoring_controller.html#a2ec133c8edf0a7ab1e84f2e12455233d" target="_top" xlink:title="fxml_main.AuthoringController.save\lAsGame">
<polygon fill="white" stroke="black" points="932.5,-126 932.5,-156 1119.5,-156 1119.5,-126 932.5,-126"/>
<text text-anchor="start" x="940.5" y="-144" font-family="Helvetica,sans-Serif" font-size="10.00">fxml_main.AuthoringController.save</text>
<text text-anchor="middle" x="1026" y="-133" font-family="Helvetica,sans-Serif" font-size="10.00">AsGame</text>
</a>
</g>
</g>
<!-- Node17&#45;&gt;Node18 -->
<g id="edge20" class="edge"><title>Node17&#45;&gt;Node18</title>
<path fill="none" stroke="midnightblue" d="M884.964,-141C900.592,-141 916.828,-141 932.47,-141"/>
<polygon fill="midnightblue" stroke="midnightblue" points="884.795,-137.5 874.795,-141 884.794,-144.5 884.795,-137.5"/>
</g>
</g>
</svg>
