<?xml version="1.0" encoding="UTF-8" standalone="no"?>
<!DOCTYPE svg PUBLIC "-//W3C//DTD SVG 1.1//EN"
 "http://www.w3.org/Graphics/SVG/1.1/DTD/svg11.dtd">
<!-- Generated by graphviz version 2.36.0 (20140111.2315)
 -->
<!-- Title: gamePlayer.ViewController.enterHighScoreInfo Pages: 1 -->
<svg width="1734pt" height="351pt"
 viewBox="0.00 0.00 1734.00 351.00" xmlns="http://www.w3.org/2000/svg" xmlns:xlink="http://www.w3.org/1999/xlink">
<g id="graph0" class="graph" transform="scale(1 1) rotate(0) translate(4 347)">
<title>gamePlayer.ViewController.enterHighScoreInfo</title>
<polygon fill="white" stroke="none" points="-4,4 -4,-347 1730,-347 1730,4 -4,4"/>
<!-- Node1 -->
<g id="node1" class="node"><title>Node1</title>
<polygon fill="#bfbfbf" stroke="black" points="0,-192 0,-222 172,-222 172,-192 0,-192"/>
<text text-anchor="start" x="8" y="-210" font-family="Helvetica,sans-Serif" font-size="10.00">gamePlayer.ViewController.enter</text>
<text text-anchor="middle" x="86" y="-199" font-family="Helvetica,sans-Serif" font-size="10.00">HighScoreInfo</text>
</g>
<!-- Node2 -->
<g id="node2" class="node"><title>Node2</title>
<g id="a_node2"><a xlink:href="../../df/dd5/classgame_player_1_1_view_controller.html#a620f8a02d3ac7677cd179fcd812aca55" target="_top" xlink:title="gamePlayer.ViewController.check\lEndActions">
<polygon fill="white" stroke="black" points="208,-192 208,-222 382,-222 382,-192 208,-192"/>
<text text-anchor="start" x="216" y="-210" font-family="Helvetica,sans-Serif" font-size="10.00">gamePlayer.ViewController.check</text>
<text text-anchor="middle" x="295" y="-199" font-family="Helvetica,sans-Serif" font-size="10.00">EndActions</text>
</a>
</g>
</g>
<!-- Node1&#45;&gt;Node2 -->
<g id="edge1" class="edge"><title>Node1&#45;&gt;Node2</title>
<path fill="none" stroke="midnightblue" d="M182.128,-207C190.721,-207 199.392,-207 207.901,-207"/>
<polygon fill="midnightblue" stroke="midnightblue" points="182.091,-203.5 172.091,-207 182.091,-210.5 182.091,-203.5"/>
</g>
<!-- Node3 -->
<g id="node3" class="node"><title>Node3</title>
<g id="a_node3"><a xlink:href="../../df/dd5/classgame_player_1_1_view_controller.html#a13ea7814bde61a8042c5b1a23af41416" target="_top" xlink:title="gamePlayer.ViewController.end\lAction">
<polygon fill="white" stroke="black" points="429,-263 429,-293 593,-293 593,-263 429,-263"/>
<text text-anchor="start" x="437" y="-281" font-family="Helvetica,sans-Serif" font-size="10.00">gamePlayer.ViewController.end</text>
<text text-anchor="middle" x="511" y="-270" font-family="Helvetica,sans-Serif" font-size="10.00">Action</text>
</a>
</g>
</g>
<!-- Node2&#45;&gt;Node3 -->
<g id="edge2" class="edge"><title>Node2&#45;&gt;Node3</title>
<path fill="none" stroke="midnightblue" d="M351.047,-225.263C386.305,-236.961 431.502,-251.956 464.682,-262.964"/>
<polygon fill="midnightblue" stroke="midnightblue" points="351.977,-221.884 341.384,-222.057 349.773,-228.528 351.977,-221.884"/>
</g>
<!-- Node5 -->
<g id="node5" class="node"><title>Node5</title>
<g id="a_node5"><a xlink:href="../../df/dd5/classgame_player_1_1_view_controller.html#a95c2acd43bb39b8606c69971c1cd30f5" target="_top" xlink:title="gamePlayer.ViewController.perform\lAction">
<polygon fill="white" stroke="black" points="418.5,-192 418.5,-222 603.5,-222 603.5,-192 418.5,-192"/>
<text text-anchor="start" x="426.5" y="-210" font-family="Helvetica,sans-Serif" font-size="10.00">gamePlayer.ViewController.perform</text>
<text text-anchor="middle" x="511" y="-199" font-family="Helvetica,sans-Serif" font-size="10.00">Action</text>
</a>
</g>
</g>
<!-- Node2&#45;&gt;Node5 -->
<g id="edge4" class="edge"><title>Node2&#45;&gt;Node5</title>
<path fill="none" stroke="midnightblue" d="M392.282,-207C400.991,-207 409.796,-207 418.462,-207"/>
<polygon fill="midnightblue" stroke="midnightblue" points="392.117,-203.5 382.117,-207 392.117,-210.5 392.117,-203.5"/>
</g>
<!-- Node4 -->
<g id="node4" class="node"><title>Node4</title>
<g id="a_node4"><a xlink:href="../../db/d00/classgame_player_1_1_apply_state.html#aed42c1aba25264bc6880036f693a1c9e" target="_top" xlink:title="gamePlayer.ApplyState.on\lClick">
<polygon fill="white" stroke="black" points="663.5,-274 663.5,-304 806.5,-304 806.5,-274 663.5,-274"/>
<text text-anchor="start" x="671.5" y="-292" font-family="Helvetica,sans-Serif" font-size="10.00">gamePlayer.ApplyState.on</text>
<text text-anchor="middle" x="735" y="-281" font-family="Helvetica,sans-Serif" font-size="10.00">Click</text>
</a>
</g>
</g>
<!-- Node3&#45;&gt;Node4 -->
<g id="edge3" class="edge"><title>Node3&#45;&gt;Node4</title>
<path fill="none" stroke="midnightblue" d="M603.182,-282.518C623.271,-283.513 644.256,-284.553 663.387,-285.501"/>
<polygon fill="midnightblue" stroke="midnightblue" points="603.25,-279.017 593.089,-282.018 602.904,-286.009 603.25,-279.017"/>
</g>
<!-- Node6 -->
<g id="node6" class="node"><title>Node6</title>
<g id="a_node6"><a xlink:href="../../da/d55/classgame_player_1_1_keyboard_movement.html#af45fd8d279b1ee2d6be5466d425485ab" target="_top" xlink:title="gamePlayer.KeyboardMovement.set\lMovementKeyControl">
<polygon fill="white" stroke="black" points="640.5,-225 640.5,-255 829.5,-255 829.5,-225 640.5,-225"/>
<text text-anchor="start" x="648.5" y="-243" font-family="Helvetica,sans-Serif" font-size="10.00">gamePlayer.KeyboardMovement.set</text>
<text text-anchor="middle" x="735" y="-232" font-family="Helvetica,sans-Serif" font-size="10.00">MovementKeyControl</text>
</a>
</g>
</g>
<!-- Node5&#45;&gt;Node6 -->
<g id="edge5" class="edge"><title>Node5&#45;&gt;Node6</title>
<path fill="none" stroke="midnightblue" d="M613.614,-215.376C634.155,-218.335 655.127,-221.669 673.69,-224.954"/>
<polygon fill="midnightblue" stroke="midnightblue" points="613.969,-211.892 603.578,-213.956 612.988,-218.823 613.969,-211.892"/>
</g>
<!-- Node14 -->
<g id="node14" class="node"><title>Node14</title>
<g id="a_node14"><a xlink:href="../../df/dd5/classgame_player_1_1_view_controller.html#a22ee80193bbac79a935ee961a183bfcd" target="_top" xlink:title="gamePlayer.ViewController.set\lOnClick">
<polygon fill="white" stroke="black" points="654.5,-137 654.5,-167 815.5,-167 815.5,-137 654.5,-137"/>
<text text-anchor="start" x="662.5" y="-155" font-family="Helvetica,sans-Serif" font-size="10.00">gamePlayer.ViewController.set</text>
<text text-anchor="middle" x="735" y="-144" font-family="Helvetica,sans-Serif" font-size="10.00">OnClick</text>
</a>
</g>
</g>
<!-- Node5&#45;&gt;Node14 -->
<g id="edge15" class="edge"><title>Node5&#45;&gt;Node14</title>
<path fill="none" stroke="midnightblue" d="M582.402,-189.558C611.658,-182.31 645.277,-173.981 673.411,-167.011"/>
<polygon fill="midnightblue" stroke="midnightblue" points="581.527,-186.169 572.662,-191.971 583.211,-192.963 581.527,-186.169"/>
</g>
<!-- Node6&#45;&gt;Node5 -->
<g id="edge13" class="edge"><title>Node6&#45;&gt;Node5</title>
<path fill="none" stroke="midnightblue" d="M630.373,-231.333C610.393,-228.435 590.092,-225.196 572.076,-222.005"/>
<polygon fill="midnightblue" stroke="midnightblue" points="630.066,-234.824 640.46,-232.771 631.054,-227.894 630.066,-234.824"/>
</g>
<!-- Node7 -->
<g id="node7" class="node"><title>Node7</title>
<g id="a_node7"><a xlink:href="../../df/dd5/classgame_player_1_1_view_controller.html#a7eb038fd9f20604ade0406f27ef76657" target="_top" xlink:title="gamePlayer.ViewController.bind\lAction">
<polygon fill="white" stroke="black" points="884.5,-274 884.5,-304 1051.5,-304 1051.5,-274 884.5,-274"/>
<text text-anchor="start" x="892.5" y="-292" font-family="Helvetica,sans-Serif" font-size="10.00">gamePlayer.ViewController.bind</text>
<text text-anchor="middle" x="968" y="-281" font-family="Helvetica,sans-Serif" font-size="10.00">Action</text>
</a>
</g>
</g>
<!-- Node6&#45;&gt;Node7 -->
<g id="edge6" class="edge"><title>Node6&#45;&gt;Node7</title>
<path fill="none" stroke="midnightblue" d="M816.674,-257.113C842.597,-262.611 871.102,-268.658 896.257,-273.994"/>
<polygon fill="midnightblue" stroke="midnightblue" points="817.386,-253.686 806.877,-255.035 815.934,-260.534 817.386,-253.686"/>
</g>
<!-- Node13 -->
<g id="node13" class="node"><title>Node13</title>
<g id="a_node13"><a xlink:href="../../df/dd5/classgame_player_1_1_view_controller.html#a27da17c1280cd953a14f6b76b18f9a4b" target="_top" xlink:title="gamePlayer.ViewController.toggle\lKeyboardControl">
<polygon fill="white" stroke="black" points="880,-225 880,-255 1056,-255 1056,-225 880,-225"/>
<text text-anchor="start" x="888" y="-243" font-family="Helvetica,sans-Serif" font-size="10.00">gamePlayer.ViewController.toggle</text>
<text text-anchor="middle" x="968" y="-232" font-family="Helvetica,sans-Serif" font-size="10.00">KeyboardControl</text>
</a>
</g>
</g>
<!-- Node6&#45;&gt;Node13 -->
<g id="edge14" class="edge"><title>Node6&#45;&gt;Node13</title>
<path fill="none" stroke="midnightblue" d="M839.825,-240C853.236,-240 866.858,-240 879.96,-240"/>
<polygon fill="midnightblue" stroke="midnightblue" points="839.624,-236.5 829.624,-240 839.623,-243.5 839.624,-236.5"/>
</g>
<!-- Node8 -->
<g id="node8" class="node"><title>Node8</title>
<g id="a_node8"><a xlink:href="../../df/df0/classtests_1_1_view_controller_test.html#a74e99f9c72cbdcd2d56271b2ad2df1ce" target="_top" xlink:title="tests.ViewControllerTest.bind\lActionTest">
<polygon fill="white" stroke="black" points="1133,-313 1133,-343 1287,-343 1287,-313 1133,-313"/>
<text text-anchor="start" x="1141" y="-331" font-family="Helvetica,sans-Serif" font-size="10.00">tests.ViewControllerTest.bind</text>
<text text-anchor="middle" x="1210" y="-320" font-family="Helvetica,sans-Serif" font-size="10.00">ActionTest</text>
</a>
</g>
</g>
<!-- Node7&#45;&gt;Node8 -->
<g id="edge7" class="edge"><title>Node7&#45;&gt;Node8</title>
<path fill="none" stroke="midnightblue" d="M1061.57,-304.043C1085.09,-307.865 1110.1,-311.929 1132.71,-315.602"/>
<polygon fill="midnightblue" stroke="midnightblue" points="1062.03,-300.571 1051.59,-302.422 1060.9,-307.48 1062.03,-300.571"/>
</g>
<!-- Node9 -->
<g id="node9" class="node"><title>Node9</title>
<g id="a_node9"><a xlink:href="../../d1/db7/classgame_player_1_1_keyboard_action.html#a08ace57322b8639020688dd9493c3e1f" target="_top" xlink:title="gamePlayer.KeyboardAction.set\lActionKeyControl">
<polygon fill="white" stroke="black" points="1126,-213 1126,-243 1294,-243 1294,-213 1126,-213"/>
<text text-anchor="start" x="1134" y="-231" font-family="Helvetica,sans-Serif" font-size="10.00">gamePlayer.KeyboardAction.set</text>
<text text-anchor="middle" x="1210" y="-220" font-family="Helvetica,sans-Serif" font-size="10.00">ActionKeyControl</text>
</a>
</g>
</g>
<!-- Node7&#45;&gt;Node9 -->
<g id="edge8" class="edge"><title>Node7&#45;&gt;Node9</title>
<path fill="none" stroke="midnightblue" d="M1040.14,-271.494C1050.17,-268.996 1060.35,-266.445 1070,-264 1096.82,-257.207 1126.52,-249.537 1151.55,-243.027"/>
<polygon fill="midnightblue" stroke="midnightblue" points="1039.04,-268.16 1030.18,-273.969 1040.73,-274.953 1039.04,-268.16"/>
</g>
<!-- Node10 -->
<g id="node10" class="node"><title>Node10</title>
<g id="a_node10"><a xlink:href="../../df/dd5/classgame_player_1_1_view_controller.html#ab8c14a8c53be9021a62d0107c2f75ef6" target="_top" xlink:title="gamePlayer.ViewController.update\lActions">
<polygon fill="white" stroke="black" points="1120,-264 1120,-294 1300,-294 1300,-264 1120,-264"/>
<text text-anchor="start" x="1128" y="-282" font-family="Helvetica,sans-Serif" font-size="10.00">gamePlayer.ViewController.update</text>
<text text-anchor="middle" x="1210" y="-271" font-family="Helvetica,sans-Serif" font-size="10.00">Actions</text>
</a>
</g>
</g>
<!-- Node7&#45;&gt;Node10 -->
<g id="edge10" class="edge"><title>Node7&#45;&gt;Node10</title>
<path fill="none" stroke="midnightblue" d="M1061.75,-285.135C1080.78,-284.342 1100.78,-283.509 1119.69,-282.721"/>
<polygon fill="midnightblue" stroke="midnightblue" points="1061.44,-281.645 1051.59,-285.559 1061.73,-288.639 1061.44,-281.645"/>
</g>
<!-- Node9&#45;&gt;Node5 -->
<g id="edge9" class="edge"><title>Node9&#45;&gt;Node5</title>
<path fill="none" stroke="midnightblue" d="M1115.26,-218.216C1100.14,-216.931 1084.65,-215.789 1070,-215 906.018,-206.17 714.563,-205.526 603.903,-206.099"/>
<polygon fill="midnightblue" stroke="midnightblue" points="1115.39,-221.741 1125.65,-219.126 1116,-214.767 1115.39,-221.741"/>
</g>
<!-- Node11 -->
<g id="node11" class="node"><title>Node11</title>
<g id="a_node11"><a xlink:href="../../d6/d24/classgame_player_1_1_select_state.html#a801827392f0faeee6b96925060d77838" target="_top" xlink:title="gamePlayer.SelectState.on\lClick">
<polygon fill="white" stroke="black" points="1373.5,-288 1373.5,-318 1520.5,-318 1520.5,-288 1373.5,-288"/>
<text text-anchor="start" x="1381.5" y="-306" font-family="Helvetica,sans-Serif" font-size="10.00">gamePlayer.SelectState.on</text>
<text text-anchor="middle" x="1447" y="-295" font-family="Helvetica,sans-Serif" font-size="10.00">Click</text>
</a>
</g>
</g>
<!-- Node10&#45;&gt;Node11 -->
<g id="edge11" class="edge"><title>Node10&#45;&gt;Node11</title>
<path fill="none" stroke="midnightblue" d="M1310.17,-289.128C1331.35,-291.291 1353.34,-293.537 1373.3,-295.576"/>
<polygon fill="midnightblue" stroke="midnightblue" points="1310.48,-285.642 1300.18,-288.108 1309.77,-292.606 1310.48,-285.642"/>
</g>
<!-- Node12 -->
<g id="node12" class="node"><title>Node12</title>
<g id="a_node12"><a xlink:href="../../df/df0/classtests_1_1_view_controller_test.html#a785df2c49a72c183c22163ce927f5df1" target="_top" xlink:title="tests.ViewControllerTest.update\lActionsTest">
<polygon fill="white" stroke="black" points="1363.5,-239 1363.5,-269 1530.5,-269 1530.5,-239 1363.5,-239"/>
<text text-anchor="start" x="1371.5" y="-257" font-family="Helvetica,sans-Serif" font-size="10.00">tests.ViewControllerTest.update</text>
<text text-anchor="middle" x="1447" y="-246" font-family="Helvetica,sans-Serif" font-size="10.00">ActionsTest</text>
</a>
</g>
</g>
<!-- Node10&#45;&gt;Node12 -->
<g id="edge12" class="edge"><title>Node10&#45;&gt;Node12</title>
<path fill="none" stroke="midnightblue" d="M1310.49,-268.416C1328.14,-266.538 1346.34,-264.602 1363.46,-262.781"/>
<polygon fill="midnightblue" stroke="midnightblue" points="1309.75,-264.975 1300.18,-269.513 1310.49,-271.935 1309.75,-264.975"/>
</g>
<!-- Node15 -->
<g id="node15" class="node"><title>Node15</title>
<g id="a_node15"><a xlink:href="../../df/dd5/classgame_player_1_1_view_controller.html#a10a40967a873f067cf91b024ff85b38e" target="_top" xlink:title="gamePlayer.ViewController.initializeGrid">
<polygon fill="white" stroke="black" points="866,-117.5 866,-136.5 1070,-136.5 1070,-117.5 866,-117.5"/>
<text text-anchor="middle" x="968" y="-124.5" font-family="Helvetica,sans-Serif" font-size="10.00">gamePlayer.ViewController.initializeGrid</text>
</a>
</g>
</g>
<!-- Node14&#45;&gt;Node15 -->
<g id="edge16" class="edge"><title>Node14&#45;&gt;Node15</title>
<path fill="none" stroke="midnightblue" d="M825.953,-142.265C843.343,-140.383 861.547,-138.413 878.878,-136.537"/>
<polygon fill="midnightblue" stroke="midnightblue" points="825.386,-138.806 815.821,-143.361 826.139,-145.765 825.386,-138.806"/>
</g>
<!-- Node15&#45;&gt;Node2 -->
<g id="edge19" class="edge"><title>Node15&#45;&gt;Node2</title>
<path fill="none" stroke="midnightblue" d="M855.729,-120.726C792.31,-118.717 711.471,-118.799 640,-127 532.94,-139.285 410.746,-172.407 344.657,-191.966"/>
<polygon fill="midnightblue" stroke="midnightblue" points="855.641,-124.224 865.754,-121.065 855.878,-117.228 855.641,-124.224"/>
</g>
<!-- Node16 -->
<g id="node16" class="node"><title>Node16</title>
<g id="a_node16"><a xlink:href="../../df/dd5/classgame_player_1_1_view_controller.html#aabf431713b65ec510f1cb2df12da4e45" target="_top" xlink:title="gamePlayer.ViewController.test\lPlayGameInTab">
<polygon fill="white" stroke="black" points="1127.5,-159 1127.5,-189 1292.5,-189 1292.5,-159 1127.5,-159"/>
<text text-anchor="start" x="1135.5" y="-177" font-family="Helvetica,sans-Serif" font-size="10.00">gamePlayer.ViewController.test</text>
<text text-anchor="middle" x="1210" y="-166" font-family="Helvetica,sans-Serif" font-size="10.00">PlayGameInTab</text>
</a>
</g>
</g>
<!-- Node15&#45;&gt;Node16 -->
<g id="edge17" class="edge"><title>Node15&#45;&gt;Node16</title>
<path fill="none" stroke="midnightblue" d="M1027.5,-138.457C1058.99,-144.624 1098.23,-152.307 1132.15,-158.951"/>
<polygon fill="midnightblue" stroke="midnightblue" points="1028.05,-134.998 1017.57,-136.511 1026.71,-141.868 1028.05,-134.998"/>
</g>
<!-- Node17 -->
<g id="node17" class="node"><title>Node17</title>
<g id="a_node17"><a xlink:href="../../df/dd5/classgame_player_1_1_view_controller.html#a0d1a3d443966f151b070dc751d2faf9a" target="_top" xlink:title="gamePlayer.ViewController.restartGame">
<polygon fill="white" stroke="black" points="1106,-120.5 1106,-139.5 1314,-139.5 1314,-120.5 1106,-120.5"/>
<text text-anchor="middle" x="1210" y="-127.5" font-family="Helvetica,sans-Serif" font-size="10.00">gamePlayer.ViewController.restartGame</text>
</a>
</g>
</g>
<!-- Node15&#45;&gt;Node17 -->
<g id="edge18" class="edge"><title>Node15&#45;&gt;Node17</title>
<path fill="none" stroke="midnightblue" d="M1080.36,-128.392C1088.81,-128.498 1097.32,-128.604 1105.72,-128.709"/>
<polygon fill="midnightblue" stroke="midnightblue" points="1080.13,-124.889 1070.09,-128.264 1080.04,-131.888 1080.13,-124.889"/>
</g>
<!-- Node18 -->
<g id="node18" class="node"><title>Node18</title>
<g id="a_node18"><a xlink:href="../../df/dd5/classgame_player_1_1_view_controller.html#adc15cd81cefb88c58f9d3b7478328df8" target="_top" xlink:title="gamePlayer.ViewController.test\lPlayGUIGame">
<polygon fill="white" stroke="black" points="1127.5,-71 1127.5,-101 1292.5,-101 1292.5,-71 1127.5,-71"/>
<text text-anchor="start" x="1135.5" y="-89" font-family="Helvetica,sans-Serif" font-size="10.00">gamePlayer.ViewController.test</text>
<text text-anchor="middle" x="1210" y="-78" font-family="Helvetica,sans-Serif" font-size="10.00">PlayGUIGame</text>
</a>
</g>
</g>
<!-- Node15&#45;&gt;Node18 -->
<g id="edge20" class="edge"><title>Node15&#45;&gt;Node18</title>
<path fill="none" stroke="midnightblue" d="M1034.55,-115.802C1063.16,-110.914 1097.01,-105.131 1127.24,-99.9666"/>
<polygon fill="midnightblue" stroke="midnightblue" points="1033.93,-112.357 1024.66,-117.491 1035.11,-119.257 1033.93,-112.357"/>
</g>
<!-- Node19 -->
<g id="node19" class="node"><title>Node19</title>
<g id="a_node19"><a xlink:href="../../df/dd5/classgame_player_1_1_view_controller.html#a4c1754d129a4eac955390b428eaa448a" target="_top" xlink:title="gamePlayer.ViewController.test\lPlayGame">
<polygon fill="white" stroke="black" points="1127.5,-22 1127.5,-52 1292.5,-52 1292.5,-22 1127.5,-22"/>
<text text-anchor="start" x="1135.5" y="-40" font-family="Helvetica,sans-Serif" font-size="10.00">gamePlayer.ViewController.test</text>
<text text-anchor="middle" x="1210" y="-29" font-family="Helvetica,sans-Serif" font-size="10.00">PlayGame</text>
</a>
</g>
</g>
<!-- Node15&#45;&gt;Node19 -->
<g id="edge21" class="edge"><title>Node15&#45;&gt;Node19</title>
<path fill="none" stroke="midnightblue" d="M994.579,-112.566C1021.57,-97.8475 1065.69,-75.2122 1106,-61 1115.44,-57.6729 1125.52,-54.6748 1135.56,-52.0162"/>
<polygon fill="midnightblue" stroke="midnightblue" points="992.85,-109.523 985.782,-117.416 996.229,-115.653 992.85,-109.523"/>
</g>
<!-- Node20 -->
<g id="node20" class="node"><title>Node20</title>
<g id="a_node20"><a xlink:href="../../db/d40/classfxml__main_1_1_authoring_controller.html#a2ec133c8edf0a7ab1e84f2e12455233d" target="_top" xlink:title="fxml_main.AuthoringController.save\lAsGame">
<polygon fill="white" stroke="black" points="1353.5,-44 1353.5,-74 1540.5,-74 1540.5,-44 1353.5,-44"/>
<text text-anchor="start" x="1361.5" y="-62" font-family="Helvetica,sans-Serif" font-size="10.00">fxml_main.AuthoringController.save</text>
<text text-anchor="middle" x="1447" y="-51" font-family="Helvetica,sans-Serif" font-size="10.00">AsGame</text>
</a>
</g>
</g>
<!-- Node19&#45;&gt;Node20 -->
<g id="edge22" class="edge"><title>Node19&#45;&gt;Node20</title>
<path fill="none" stroke="midnightblue" d="M1302.77,-45.591C1319.38,-47.1458 1336.7,-48.7681 1353.34,-50.3253"/>
<polygon fill="midnightblue" stroke="midnightblue" points="1302.81,-42.0802 1292.53,-44.6328 1302.16,-49.0497 1302.81,-42.0802"/>
</g>
<!-- Node21 -->
<g id="node21" class="node"><title>Node21</title>
<g id="a_node21"><a xlink:href="../../df/dd5/classgame_player_1_1_view_controller.html#a2bf1dce04187ad5eacb5359ef2b4eff8" target="_top" xlink:title="gamePlayer.ViewController.newGame">
<polygon fill="white" stroke="black" points="1350,-5.5 1350,-24.5 1544,-24.5 1544,-5.5 1350,-5.5"/>
<text text-anchor="middle" x="1447" y="-12.5" font-family="Helvetica,sans-Serif" font-size="10.00">gamePlayer.ViewController.newGame</text>
</a>
</g>
</g>
<!-- Node19&#45;&gt;Node21 -->
<g id="edge23" class="edge"><title>Node19&#45;&gt;Node21</title>
<path fill="none" stroke="midnightblue" d="M1302.58,-28.4266C1318.03,-26.9806 1334.1,-25.4757 1349.66,-24.0188"/>
<polygon fill="midnightblue" stroke="midnightblue" points="1302.16,-24.9503 1292.53,-29.3672 1302.81,-31.9198 1302.16,-24.9503"/>
</g>
<!-- Node22 -->
<g id="node22" class="node"><title>Node22</title>
<g id="a_node22"><a xlink:href="../../df/dd5/classgame_player_1_1_view_controller.html#a2acd822c93c35674b6978a97b4ce6e3f" target="_top" xlink:title="gamePlayer.ViewController.\lViewController">
<polygon fill="white" stroke="black" points="1580,-0 1580,-30 1726,-30 1726,-0 1580,-0"/>
<text text-anchor="start" x="1588" y="-18" font-family="Helvetica,sans-Serif" font-size="10.00">gamePlayer.ViewController.</text>
<text text-anchor="middle" x="1653" y="-7" font-family="Helvetica,sans-Serif" font-size="10.00">ViewController</text>
</a>
</g>
</g>
<!-- Node21&#45;&gt;Node22 -->
<g id="edge24" class="edge"><title>Node21&#45;&gt;Node22</title>
<path fill="none" stroke="midnightblue" d="M1554.24,-15C1562.94,-15 1571.59,-15 1579.95,-15"/>
<polygon fill="midnightblue" stroke="midnightblue" points="1554.03,-11.5001 1544.03,-15 1554.03,-18.5001 1554.03,-11.5001"/>
</g>
</g>
</svg>
