<?xml version="1.0" encoding="UTF-8" standalone="no"?>
<!DOCTYPE svg PUBLIC "-//W3C//DTD SVG 1.1//EN"
 "http://www.w3.org/Graphics/SVG/1.1/DTD/svg11.dtd">
<!-- Generated by graphviz version 2.36.0 (20140111.2315)
 -->
<!-- Title: gamePlayer.ViewController.loadFXML Pages: 1 -->
<svg width="588pt" height="87pt"
 viewBox="0.00 0.00 588.00 87.00" xmlns="http://www.w3.org/2000/svg" xmlns:xlink="http://www.w3.org/1999/xlink">
<g id="graph0" class="graph" transform="scale(1 1) rotate(0) translate(4 83)">
<title>gamePlayer.ViewController.loadFXML</title>
<polygon fill="white" stroke="none" points="-4,4 -4,-83 584,-83 584,4 -4,4"/>
<!-- Node1 -->
<g id="node1" class="node"><title>Node1</title>
<polygon fill="#bfbfbf" stroke="black" points="0.5,-29.5 0.5,-48.5 191.5,-48.5 191.5,-29.5 0.5,-29.5"/>
<text text-anchor="middle" x="96" y="-36.5" font-family="Helvetica,sans-Serif" font-size="10.00">gamePlayer.ViewController.loadFXML</text>
</g>
<!-- Node2 -->
<g id="node2" class="node"><title>Node2</title>
<g id="a_node2"><a xlink:href="../../df/dd5/classgame_player_1_1_view_controller.html#afcc191634cdb14304828148befdcd228" target="_top" xlink:title="gamePlayer.ViewController.open\lInitialGUIMenu">
<polygon fill="white" stroke="black" points="228,-49 228,-79 398,-79 398,-49 228,-49"/>
<text text-anchor="start" x="236" y="-67" font-family="Helvetica,sans-Serif" font-size="10.00">gamePlayer.ViewController.open</text>
<text text-anchor="middle" x="313" y="-56" font-family="Helvetica,sans-Serif" font-size="10.00">InitialGUIMenu</text>
</a>
</g>
</g>
<!-- Node1&#45;&gt;Node2 -->
<g id="edge1" class="edge"><title>Node1&#45;&gt;Node2</title>
<path fill="none" stroke="midnightblue" d="M189.127,-49.7124C201.982,-51.2072 215.137,-52.7368 227.835,-54.2134"/>
<polygon fill="midnightblue" stroke="midnightblue" points="189.233,-46.2013 178.896,-48.5227 188.424,-53.1544 189.233,-46.2013"/>
</g>
<!-- Node4 -->
<g id="node4" class="node"><title>Node4</title>
<g id="a_node4"><a xlink:href="../../df/dd5/classgame_player_1_1_view_controller.html#ab9fcbe9d6b0247153208179f926b8d94" target="_top" xlink:title="gamePlayer.ViewController.open\lInitialMenu">
<polygon fill="white" stroke="black" points="228,-0 228,-30 398,-30 398,-0 228,-0"/>
<text text-anchor="start" x="236" y="-18" font-family="Helvetica,sans-Serif" font-size="10.00">gamePlayer.ViewController.open</text>
<text text-anchor="middle" x="313" y="-7" font-family="Helvetica,sans-Serif" font-size="10.00">InitialMenu</text>
</a>
</g>
</g>
<!-- Node1&#45;&gt;Node4 -->
<g id="edge3" class="edge"><title>Node1&#45;&gt;Node4</title>
<path fill="none" stroke="midnightblue" d="M192.561,-28.3327C204.33,-27.019 216.293,-25.6836 227.875,-24.3907"/>
<polygon fill="midnightblue" stroke="midnightblue" points="191.832,-24.8922 182.282,-29.4801 192.609,-31.849 191.832,-24.8922"/>
</g>
<!-- Node3 -->
<g id="node3" class="node"><title>Node3</title>
<g id="a_node3"><a xlink:href="../../df/dd5/classgame_player_1_1_view_controller.html#a18533d310033908b1101797368828a26" target="_top" xlink:title="gamePlayer.ViewController.\lViewController">
<polygon fill="white" stroke="black" points="434,-49 434,-79 580,-79 580,-49 434,-49"/>
<text text-anchor="start" x="442" y="-67" font-family="Helvetica,sans-Serif" font-size="10.00">gamePlayer.ViewController.</text>
<text text-anchor="middle" x="507" y="-56" font-family="Helvetica,sans-Serif" font-size="10.00">ViewController</text>
</a>
</g>
</g>
<!-- Node2&#45;&gt;Node3 -->
<g id="edge2" class="edge"><title>Node2&#45;&gt;Node3</title>
<path fill="none" stroke="midnightblue" d="M408.287,-64C416.889,-64 425.51,-64 433.872,-64"/>
<polygon fill="midnightblue" stroke="midnightblue" points="408.214,-60.5001 398.214,-64 408.214,-67.5001 408.214,-60.5001"/>
</g>
<!-- Node5 -->
<g id="node5" class="node"><title>Node5</title>
<g id="a_node5"><a xlink:href="../../df/dd5/classgame_player_1_1_view_controller.html#a2acd822c93c35674b6978a97b4ce6e3f" target="_top" xlink:title="gamePlayer.ViewController.\lViewController">
<polygon fill="white" stroke="black" points="434,-0 434,-30 580,-30 580,-0 434,-0"/>
<text text-anchor="start" x="442" y="-18" font-family="Helvetica,sans-Serif" font-size="10.00">gamePlayer.ViewController.</text>
<text text-anchor="middle" x="507" y="-7" font-family="Helvetica,sans-Serif" font-size="10.00">ViewController</text>
</a>
</g>
</g>
<!-- Node4&#45;&gt;Node5 -->
<g id="edge4" class="edge"><title>Node4&#45;&gt;Node5</title>
<path fill="none" stroke="midnightblue" d="M408.287,-15C416.889,-15 425.51,-15 433.872,-15"/>
<polygon fill="midnightblue" stroke="midnightblue" points="408.214,-11.5001 398.214,-15 408.214,-18.5001 408.214,-11.5001"/>
</g>
</g>
</svg>
