<?xml version="1.0" encoding="UTF-8" standalone="no"?>
<!DOCTYPE svg PUBLIC "-//W3C//DTD SVG 1.1//EN"
 "http://www.w3.org/Graphics/SVG/1.1/DTD/svg11.dtd">
<!-- Generated by graphviz version 2.36.0 (20140111.2315)
 -->
<!-- Title: gamePlayer.ViewController.getGame Pages: 1 -->
<svg width="2162pt" height="264pt"
 viewBox="0.00 0.00 2162.00 264.00" xmlns="http://www.w3.org/2000/svg" xmlns:xlink="http://www.w3.org/1999/xlink">
<g id="graph0" class="graph" transform="scale(1 1) rotate(0) translate(4 260)">
<title>gamePlayer.ViewController.getGame</title>
<polygon fill="white" stroke="none" points="-4,4 -4,-260 2158,-260 2158,4 -4,4"/>
<!-- Node1 -->
<g id="node1" class="node"><title>Node1</title>
<polygon fill="#bfbfbf" stroke="black" points="0.5,-155.5 0.5,-174.5 191.5,-174.5 191.5,-155.5 0.5,-155.5"/>
<text text-anchor="middle" x="96" y="-162.5" font-family="Helvetica,sans-Serif" font-size="10.00">gamePlayer.ViewController.getGame</text>
</g>
<!-- Node2 -->
<g id="node2" class="node"><title>Node2</title>
<g id="a_node2"><a xlink:href="../../d6/d24/classgame_player_1_1_select_state.html#a801827392f0faeee6b96925060d77838" target="_top" xlink:title="gamePlayer.SelectState.on\lClick">
<polygon fill="white" stroke="black" points="901.5,-226 901.5,-256 1048.5,-256 1048.5,-226 901.5,-226"/>
<text text-anchor="start" x="909.5" y="-244" font-family="Helvetica,sans-Serif" font-size="10.00">gamePlayer.SelectState.on</text>
<text text-anchor="middle" x="975" y="-233" font-family="Helvetica,sans-Serif" font-size="10.00">Click</text>
</a>
</g>
</g>
<!-- Node1&#45;&gt;Node2 -->
<g id="edge1" class="edge"><title>Node1&#45;&gt;Node2</title>
<path fill="none" stroke="midnightblue" d="M158.956,-176.315C263.188,-194.716 480.437,-230.34 666,-243 745.814,-248.445 766.002,-243.625 846,-243 863.891,-242.86 883.186,-242.611 901.235,-242.334"/>
<polygon fill="midnightblue" stroke="midnightblue" points="159.382,-172.836 148.924,-174.536 158.159,-179.729 159.382,-172.836"/>
</g>
<!-- Node3 -->
<g id="node3" class="node"><title>Node3</title>
<g id="a_node3"><a xlink:href="../../da/d55/classgame_player_1_1_keyboard_movement.html#af45fd8d279b1ee2d6be5466d425485ab" target="_top" xlink:title="gamePlayer.KeyboardMovement.set\lMovementKeyControl">
<polygon fill="white" stroke="black" points="228.5,-53 228.5,-83 417.5,-83 417.5,-53 228.5,-53"/>
<text text-anchor="start" x="236.5" y="-71" font-family="Helvetica,sans-Serif" font-size="10.00">gamePlayer.KeyboardMovement.set</text>
<text text-anchor="middle" x="323" y="-60" font-family="Helvetica,sans-Serif" font-size="10.00">MovementKeyControl</text>
</a>
</g>
</g>
<!-- Node1&#45;&gt;Node3 -->
<g id="edge2" class="edge"><title>Node1&#45;&gt;Node3</title>
<path fill="none" stroke="midnightblue" d="M128.799,-151.291C170.532,-133.3 243.547,-101.822 286.871,-83.1446"/>
<polygon fill="midnightblue" stroke="midnightblue" points="127.194,-148.172 119.396,-155.345 129.965,-154.6 127.194,-148.172"/>
</g>
<!-- Node4 -->
<g id="node4" class="node"><title>Node4</title>
<g id="a_node4"><a xlink:href="../../df/dd5/classgame_player_1_1_view_controller.html#a7eb038fd9f20604ade0406f27ef76657" target="_top" xlink:title="gamePlayer.ViewController.bind\lAction">
<polygon fill="white" stroke="black" points="458.5,-130 458.5,-160 625.5,-160 625.5,-130 458.5,-130"/>
<text text-anchor="start" x="466.5" y="-148" font-family="Helvetica,sans-Serif" font-size="10.00">gamePlayer.ViewController.bind</text>
<text text-anchor="middle" x="542" y="-137" font-family="Helvetica,sans-Serif" font-size="10.00">Action</text>
</a>
</g>
</g>
<!-- Node3&#45;&gt;Node4 -->
<g id="edge3" class="edge"><title>Node3&#45;&gt;Node4</title>
<path fill="none" stroke="midnightblue" d="M376.07,-86.4765C413.491,-99.755 463.321,-117.437 498.382,-129.877"/>
<polygon fill="midnightblue" stroke="midnightblue" points="376.95,-83.0748 366.355,-83.0292 374.609,-89.6718 376.95,-83.0748"/>
</g>
<!-- Node7 -->
<g id="node7" class="node"><title>Node7</title>
<g id="a_node7"><a xlink:href="../../df/dd5/classgame_player_1_1_view_controller.html#a95c2acd43bb39b8606c69971c1cd30f5" target="_top" xlink:title="gamePlayer.ViewController.perform\lAction">
<polygon fill="white" stroke="black" points="882.5,-53 882.5,-83 1067.5,-83 1067.5,-53 882.5,-53"/>
<text text-anchor="start" x="890.5" y="-71" font-family="Helvetica,sans-Serif" font-size="10.00">gamePlayer.ViewController.perform</text>
<text text-anchor="middle" x="975" y="-60" font-family="Helvetica,sans-Serif" font-size="10.00">Action</text>
</a>
</g>
</g>
<!-- Node3&#45;&gt;Node7 -->
<g id="edge21" class="edge"><title>Node3&#45;&gt;Node7</title>
<path fill="none" stroke="midnightblue" d="M427.829,-62.8961C553.323,-60.6265 762.523,-60.7039 882.307,-63.1283"/>
<polygon fill="midnightblue" stroke="midnightblue" points="427.753,-59.3968 417.821,-63.0856 427.886,-66.3955 427.753,-59.3968"/>
</g>
<!-- Node19 -->
<g id="node19" class="node"><title>Node19</title>
<g id="a_node19"><a xlink:href="../../df/dd5/classgame_player_1_1_view_controller.html#a27da17c1280cd953a14f6b76b18f9a4b" target="_top" xlink:title="gamePlayer.ViewController.toggle\lKeyboardControl">
<polygon fill="white" stroke="black" points="454,-0 454,-30 630,-30 630,-0 454,-0"/>
<text text-anchor="start" x="462" y="-18" font-family="Helvetica,sans-Serif" font-size="10.00">gamePlayer.ViewController.toggle</text>
<text text-anchor="middle" x="542" y="-7" font-family="Helvetica,sans-Serif" font-size="10.00">KeyboardControl</text>
</a>
</g>
</g>
<!-- Node3&#45;&gt;Node19 -->
<g id="edge22" class="edge"><title>Node3&#45;&gt;Node19</title>
<path fill="none" stroke="midnightblue" d="M395.412,-50.5583C422.508,-43.9405 453.112,-36.4658 479.243,-30.0835"/>
<polygon fill="midnightblue" stroke="midnightblue" points="394.487,-47.1813 385.603,-52.9541 396.148,-53.9814 394.487,-47.1813"/>
</g>
<!-- Node5 -->
<g id="node5" class="node"><title>Node5</title>
<g id="a_node5"><a xlink:href="../../df/df0/classtests_1_1_view_controller_test.html#a74e99f9c72cbdcd2d56271b2ad2df1ce" target="_top" xlink:title="tests.ViewControllerTest.bind\lActionTest">
<polygon fill="white" stroke="black" points="679,-204 679,-234 833,-234 833,-204 679,-204"/>
<text text-anchor="start" x="687" y="-222" font-family="Helvetica,sans-Serif" font-size="10.00">tests.ViewControllerTest.bind</text>
<text text-anchor="middle" x="756" y="-211" font-family="Helvetica,sans-Serif" font-size="10.00">ActionTest</text>
</a>
</g>
</g>
<!-- Node4&#45;&gt;Node5 -->
<g id="edge4" class="edge"><title>Node4&#45;&gt;Node5</title>
<path fill="none" stroke="midnightblue" d="M587.144,-163.893C610.388,-173.508 639.497,-185.026 666,-194 676.185,-197.449 687.135,-200.804 697.752,-203.88"/>
<polygon fill="midnightblue" stroke="midnightblue" points="588.469,-160.654 577.892,-160.039 585.777,-167.116 588.469,-160.654"/>
</g>
<!-- Node6 -->
<g id="node6" class="node"><title>Node6</title>
<g id="a_node6"><a xlink:href="../../d1/db7/classgame_player_1_1_keyboard_action.html#a08ace57322b8639020688dd9493c3e1f" target="_top" xlink:title="gamePlayer.KeyboardAction.set\lActionKeyControl">
<polygon fill="white" stroke="black" points="672,-106 672,-136 840,-136 840,-106 672,-106"/>
<text text-anchor="start" x="680" y="-124" font-family="Helvetica,sans-Serif" font-size="10.00">gamePlayer.KeyboardAction.set</text>
<text text-anchor="middle" x="756" y="-113" font-family="Helvetica,sans-Serif" font-size="10.00">ActionKeyControl</text>
</a>
</g>
</g>
<!-- Node4&#45;&gt;Node6 -->
<g id="edge5" class="edge"><title>Node4&#45;&gt;Node6</title>
<path fill="none" stroke="midnightblue" d="M635.65,-134.511C647.731,-133.144 660.046,-131.749 671.956,-130.401"/>
<polygon fill="midnightblue" stroke="midnightblue" points="635.115,-131.049 625.572,-135.652 635.902,-138.005 635.115,-131.049"/>
</g>
<!-- Node17 -->
<g id="node17" class="node"><title>Node17</title>
<g id="a_node17"><a xlink:href="../../df/dd5/classgame_player_1_1_view_controller.html#ab8c14a8c53be9021a62d0107c2f75ef6" target="_top" xlink:title="gamePlayer.ViewController.update\lActions">
<polygon fill="white" stroke="black" points="666,-155 666,-185 846,-185 846,-155 666,-155"/>
<text text-anchor="start" x="674" y="-173" font-family="Helvetica,sans-Serif" font-size="10.00">gamePlayer.ViewController.update</text>
<text text-anchor="middle" x="756" y="-162" font-family="Helvetica,sans-Serif" font-size="10.00">Actions</text>
</a>
</g>
</g>
<!-- Node4&#45;&gt;Node17 -->
<g id="edge18" class="edge"><title>Node4&#45;&gt;Node17</title>
<path fill="none" stroke="midnightblue" d="M635.595,-155.919C645.687,-157.109 655.943,-158.319 665.99,-159.504"/>
<polygon fill="midnightblue" stroke="midnightblue" points="635.913,-152.433 625.572,-154.737 635.093,-159.384 635.913,-152.433"/>
</g>
<!-- Node6&#45;&gt;Node7 -->
<g id="edge6" class="edge"><title>Node6&#45;&gt;Node7</title>
<path fill="none" stroke="midnightblue" d="M828.412,-103.558C855.508,-96.9405 886.112,-89.4658 912.243,-83.0835"/>
<polygon fill="midnightblue" stroke="midnightblue" points="827.487,-100.181 818.603,-105.954 829.148,-106.981 827.487,-100.181"/>
</g>
<!-- Node7&#45;&gt;Node3 -->
<g id="edge7" class="edge"><title>Node7&#45;&gt;Node3</title>
<path fill="none" stroke="midnightblue" d="M872.007,-73.0704C747.463,-75.3607 538.533,-75.3087 417.821,-72.9144"/>
<polygon fill="midnightblue" stroke="midnightblue" points="872.377,-76.564 882.307,-72.8717 872.242,-69.5654 872.377,-76.564"/>
</g>
<!-- Node8 -->
<g id="node8" class="node"><title>Node8</title>
<g id="a_node8"><a xlink:href="../../df/dd5/classgame_player_1_1_view_controller.html#a22ee80193bbac79a935ee961a183bfcd" target="_top" xlink:title="gamePlayer.ViewController.set\lOnClick">
<polygon fill="white" stroke="black" points="1104.5,-75 1104.5,-105 1265.5,-105 1265.5,-75 1104.5,-75"/>
<text text-anchor="start" x="1112.5" y="-93" font-family="Helvetica,sans-Serif" font-size="10.00">gamePlayer.ViewController.set</text>
<text text-anchor="middle" x="1185" y="-82" font-family="Helvetica,sans-Serif" font-size="10.00">OnClick</text>
</a>
</g>
</g>
<!-- Node7&#45;&gt;Node8 -->
<g id="edge8" class="edge"><title>Node7&#45;&gt;Node8</title>
<path fill="none" stroke="midnightblue" d="M1077.68,-78.7542C1086.68,-79.7066 1095.71,-80.6614 1104.49,-81.5901"/>
<polygon fill="midnightblue" stroke="midnightblue" points="1077.85,-75.2529 1067.53,-77.6815 1077.11,-82.214 1077.85,-75.2529"/>
</g>
<!-- Node9 -->
<g id="node9" class="node"><title>Node9</title>
<g id="a_node9"><a xlink:href="../../df/dd5/classgame_player_1_1_view_controller.html#a10a40967a873f067cf91b024ff85b38e" target="_top" xlink:title="gamePlayer.ViewController.initializeGrid">
<polygon fill="white" stroke="black" points="1302,-82.5 1302,-101.5 1506,-101.5 1506,-82.5 1302,-82.5"/>
<text text-anchor="middle" x="1404" y="-89.5" font-family="Helvetica,sans-Serif" font-size="10.00">gamePlayer.ViewController.initializeGrid</text>
</a>
</g>
</g>
<!-- Node8&#45;&gt;Node9 -->
<g id="edge9" class="edge"><title>Node8&#45;&gt;Node9</title>
<path fill="none" stroke="midnightblue" d="M1275.68,-90.8265C1284.36,-90.9066 1293.21,-90.9881 1302,-91.0691"/>
<polygon fill="midnightblue" stroke="midnightblue" points="1275.6,-87.3258 1265.57,-90.7334 1275.54,-94.3255 1275.6,-87.3258"/>
</g>
<!-- Node10 -->
<g id="node10" class="node"><title>Node10</title>
<g id="a_node10"><a xlink:href="../../df/dd5/classgame_player_1_1_view_controller.html#a0d1a3d443966f151b070dc751d2faf9a" target="_top" xlink:title="gamePlayer.ViewController.restartGame">
<polygon fill="white" stroke="black" points="1542,-164.5 1542,-183.5 1750,-183.5 1750,-164.5 1542,-164.5"/>
<text text-anchor="middle" x="1646" y="-171.5" font-family="Helvetica,sans-Serif" font-size="10.00">gamePlayer.ViewController.restartGame</text>
</a>
</g>
</g>
<!-- Node9&#45;&gt;Node10 -->
<g id="edge10" class="edge"><title>Node9&#45;&gt;Node10</title>
<path fill="none" stroke="midnightblue" d="M1430.99,-106.327C1457.98,-120.633 1501.81,-142.273 1542,-155 1553.96,-158.788 1566.96,-161.915 1579.56,-164.461"/>
<polygon fill="midnightblue" stroke="midnightblue" points="1432.64,-103.242 1422.18,-101.599 1429.33,-109.411 1432.64,-103.242"/>
</g>
<!-- Node11 -->
<g id="node11" class="node"><title>Node11</title>
<g id="a_node11"><a xlink:href="../../df/dd5/classgame_player_1_1_view_controller.html#af1870a0b6786d96d118021fc62b6475d" target="_top" xlink:title="gamePlayer.ViewController.beginGame">
<polygon fill="white" stroke="black" points="1545,-126.5 1545,-145.5 1747,-145.5 1747,-126.5 1545,-126.5"/>
<text text-anchor="middle" x="1646" y="-133.5" font-family="Helvetica,sans-Serif" font-size="10.00">gamePlayer.ViewController.beginGame</text>
</a>
</g>
</g>
<!-- Node9&#45;&gt;Node11 -->
<g id="edge11" class="edge"><title>Node9&#45;&gt;Node11</title>
<path fill="none" stroke="midnightblue" d="M1467.27,-103.417C1506.33,-110.577 1556.09,-119.701 1593.03,-126.471"/>
<polygon fill="midnightblue" stroke="midnightblue" points="1467.54,-99.9081 1457.08,-101.547 1466.28,-106.793 1467.54,-99.9081"/>
</g>
<!-- Node12 -->
<g id="node12" class="node"><title>Node12</title>
<g id="a_node12"><a xlink:href="../../df/dd5/classgame_player_1_1_view_controller.html#a4c1754d129a4eac955390b428eaa448a" target="_top" xlink:title="gamePlayer.ViewController.test\lPlayGame">
<polygon fill="white" stroke="black" points="1563.5,-77 1563.5,-107 1728.5,-107 1728.5,-77 1563.5,-77"/>
<text text-anchor="start" x="1571.5" y="-95" font-family="Helvetica,sans-Serif" font-size="10.00">gamePlayer.ViewController.test</text>
<text text-anchor="middle" x="1646" y="-84" font-family="Helvetica,sans-Serif" font-size="10.00">PlayGame</text>
</a>
</g>
</g>
<!-- Node9&#45;&gt;Node12 -->
<g id="edge12" class="edge"><title>Node9&#45;&gt;Node12</title>
<path fill="none" stroke="midnightblue" d="M1516.43,-92C1532.23,-92 1548.22,-92 1563.32,-92"/>
<polygon fill="midnightblue" stroke="midnightblue" points="1516.09,-88.5001 1506.09,-92 1516.09,-95.5001 1516.09,-88.5001"/>
</g>
<!-- Node14 -->
<g id="node14" class="node"><title>Node14</title>
<g id="a_node14"><a xlink:href="../../df/dd5/classgame_player_1_1_view_controller.html#a620f8a02d3ac7677cd179fcd812aca55" target="_top" xlink:title="gamePlayer.ViewController.check\lEndActions">
<polygon fill="white" stroke="black" points="1559,-28 1559,-58 1733,-58 1733,-28 1559,-28"/>
<text text-anchor="start" x="1567" y="-46" font-family="Helvetica,sans-Serif" font-size="10.00">gamePlayer.ViewController.check</text>
<text text-anchor="middle" x="1646" y="-35" font-family="Helvetica,sans-Serif" font-size="10.00">EndActions</text>
</a>
</g>
</g>
<!-- Node9&#45;&gt;Node14 -->
<g id="edge14" class="edge"><title>Node9&#45;&gt;Node14</title>
<path fill="none" stroke="midnightblue" d="M1461.42,-80.48C1494.19,-73.7911 1535.84,-65.2873 1571.18,-58.0713"/>
<polygon fill="midnightblue" stroke="midnightblue" points="1460.66,-77.0645 1451.56,-82.4942 1462.06,-83.923 1460.66,-77.0645"/>
</g>
<!-- Node13 -->
<g id="node13" class="node"><title>Node13</title>
<g id="a_node13"><a xlink:href="../../db/d40/classfxml__main_1_1_authoring_controller.html#a2ec133c8edf0a7ab1e84f2e12455233d" target="_top" xlink:title="fxml_main.AuthoringController.save\lAsGame">
<polygon fill="white" stroke="black" points="1786.5,-77 1786.5,-107 1973.5,-107 1973.5,-77 1786.5,-77"/>
<text text-anchor="start" x="1794.5" y="-95" font-family="Helvetica,sans-Serif" font-size="10.00">fxml_main.AuthoringController.save</text>
<text text-anchor="middle" x="1880" y="-84" font-family="Helvetica,sans-Serif" font-size="10.00">AsGame</text>
</a>
</g>
</g>
<!-- Node12&#45;&gt;Node13 -->
<g id="edge13" class="edge"><title>Node12&#45;&gt;Node13</title>
<path fill="none" stroke="midnightblue" d="M1738.96,-92C1754.59,-92 1770.83,-92 1786.47,-92"/>
<polygon fill="midnightblue" stroke="midnightblue" points="1738.79,-88.5001 1728.79,-92 1738.79,-95.5001 1738.79,-88.5001"/>
</g>
<!-- Node14&#45;&gt;Node7 -->
<g id="edge17" class="edge"><title>Node14&#45;&gt;Node7</title>
<path fill="none" stroke="midnightblue" d="M1548.76,-46.5966C1420.15,-51.4026 1193.83,-59.8597 1067.62,-64.5763"/>
<polygon fill="midnightblue" stroke="midnightblue" points="1549.12,-50.0854 1558.98,-46.2143 1548.86,-43.0903 1549.12,-50.0854"/>
</g>
<!-- Node15 -->
<g id="node15" class="node"><title>Node15</title>
<g id="a_node15"><a xlink:href="../../df/dd5/classgame_player_1_1_view_controller.html#a13ea7814bde61a8042c5b1a23af41416" target="_top" xlink:title="gamePlayer.ViewController.end\lAction">
<polygon fill="white" stroke="black" points="1798,-28 1798,-58 1962,-58 1962,-28 1798,-28"/>
<text text-anchor="start" x="1806" y="-46" font-family="Helvetica,sans-Serif" font-size="10.00">gamePlayer.ViewController.end</text>
<text text-anchor="middle" x="1880" y="-35" font-family="Helvetica,sans-Serif" font-size="10.00">Action</text>
</a>
</g>
</g>
<!-- Node14&#45;&gt;Node15 -->
<g id="edge15" class="edge"><title>Node14&#45;&gt;Node15</title>
<path fill="none" stroke="midnightblue" d="M1743.06,-43C1761.22,-43 1780.05,-43 1797.7,-43"/>
<polygon fill="midnightblue" stroke="midnightblue" points="1743.06,-39.5001 1733.06,-43 1743.06,-46.5001 1743.06,-39.5001"/>
</g>
<!-- Node16 -->
<g id="node16" class="node"><title>Node16</title>
<g id="a_node16"><a xlink:href="../../db/d00/classgame_player_1_1_apply_state.html#aed42c1aba25264bc6880036f693a1c9e" target="_top" xlink:title="gamePlayer.ApplyState.on\lClick">
<polygon fill="white" stroke="black" points="2010.5,-28 2010.5,-58 2153.5,-58 2153.5,-28 2010.5,-28"/>
<text text-anchor="start" x="2018.5" y="-46" font-family="Helvetica,sans-Serif" font-size="10.00">gamePlayer.ApplyState.on</text>
<text text-anchor="middle" x="2082" y="-35" font-family="Helvetica,sans-Serif" font-size="10.00">Click</text>
</a>
</g>
</g>
<!-- Node15&#45;&gt;Node16 -->
<g id="edge16" class="edge"><title>Node15&#45;&gt;Node16</title>
<path fill="none" stroke="midnightblue" d="M1972.27,-43C1985.08,-43 1998.08,-43 2010.43,-43"/>
<polygon fill="midnightblue" stroke="midnightblue" points="1972.06,-39.5001 1962.06,-43 1972.06,-46.5001 1972.06,-39.5001"/>
</g>
<!-- Node17&#45;&gt;Node2 -->
<g id="edge19" class="edge"><title>Node17&#45;&gt;Node2</title>
<path fill="none" stroke="midnightblue" d="M823.006,-187.974C830.781,-190.259 838.583,-192.629 846,-195 875.915,-204.563 909.295,-216.606 934.466,-225.97"/>
<polygon fill="midnightblue" stroke="midnightblue" points="823.783,-184.555 813.204,-185.133 821.834,-191.278 823.783,-184.555"/>
</g>
<!-- Node18 -->
<g id="node18" class="node"><title>Node18</title>
<g id="a_node18"><a xlink:href="../../df/df0/classtests_1_1_view_controller_test.html#a785df2c49a72c183c22163ce927f5df1" target="_top" xlink:title="tests.ViewControllerTest.update\lActionsTest">
<polygon fill="white" stroke="black" points="891.5,-155 891.5,-185 1058.5,-185 1058.5,-155 891.5,-155"/>
<text text-anchor="start" x="899.5" y="-173" font-family="Helvetica,sans-Serif" font-size="10.00">tests.ViewControllerTest.update</text>
<text text-anchor="middle" x="975" y="-162" font-family="Helvetica,sans-Serif" font-size="10.00">ActionsTest</text>
</a>
</g>
</g>
<!-- Node17&#45;&gt;Node18 -->
<g id="edge20" class="edge"><title>Node17&#45;&gt;Node18</title>
<path fill="none" stroke="midnightblue" d="M856.436,-170C868.139,-170 879.983,-170 891.42,-170"/>
<polygon fill="midnightblue" stroke="midnightblue" points="856.202,-166.5 846.202,-170 856.202,-173.5 856.202,-166.5"/>
</g>
</g>
</svg>
