<?xml version="1.0" encoding="UTF-8" standalone="no"?>
<!DOCTYPE svg PUBLIC "-//W3C//DTD SVG 1.1//EN"
 "http://www.w3.org/Graphics/SVG/1.1/DTD/svg11.dtd">
<!-- Generated by graphviz version 2.36.0 (20140111.2315)
 -->
<!-- Title: gamePlayer.ViewController.editSpecificPlayer Pages: 1 -->
<svg width="786pt" height="117pt"
 viewBox="0.00 0.00 786.00 117.00" xmlns="http://www.w3.org/2000/svg" xmlns:xlink="http://www.w3.org/1999/xlink">
<g id="graph0" class="graph" transform="scale(1 1) rotate(0) translate(4 113)">
<title>gamePlayer.ViewController.editSpecificPlayer</title>
<polygon fill="white" stroke="none" points="-4,4 -4,-113 782,-113 782,4 -4,4"/>
<!-- Node1 -->
<g id="node1" class="node"><title>Node1</title>
<polygon fill="#bfbfbf" stroke="black" points="0,-54 0,-84 164,-84 164,-54 0,-54"/>
<text text-anchor="start" x="8" y="-72" font-family="Helvetica,sans-Serif" font-size="10.00">gamePlayer.ViewController.edit</text>
<text text-anchor="middle" x="82" y="-61" font-family="Helvetica,sans-Serif" font-size="10.00">SpecificPlayer</text>
</g>
<!-- Node2 -->
<g id="node2" class="node"><title>Node2</title>
<g id="a_node2"><a xlink:href="../../df/dd5/classgame_player_1_1_view_controller.html#aa88b91b279269bee059216dccb13c583" target="_top" xlink:title="gamePlayer.ViewController.edit\lGUIPlayers">
<polygon fill="white" stroke="black" points="200,-79 200,-109 364,-109 364,-79 200,-79"/>
<text text-anchor="start" x="208" y="-97" font-family="Helvetica,sans-Serif" font-size="10.00">gamePlayer.ViewController.edit</text>
<text text-anchor="middle" x="282" y="-86" font-family="Helvetica,sans-Serif" font-size="10.00">GUIPlayers</text>
</a>
</g>
</g>
<!-- Node1&#45;&gt;Node2 -->
<g id="edge1" class="edge"><title>Node1&#45;&gt;Node2</title>
<path fill="none" stroke="midnightblue" d="M174.085,-80.5006C182.63,-81.5795 191.254,-82.6684 199.7,-83.7349"/>
<polygon fill="midnightblue" stroke="midnightblue" points="174.465,-77.0209 164.105,-79.2406 173.588,-83.9658 174.465,-77.0209"/>
</g>
<!-- Node5 -->
<g id="node5" class="node"><title>Node5</title>
<g id="a_node5"><a xlink:href="../../df/dd5/classgame_player_1_1_view_controller.html#abd4293bc816fc044d7d4e57fe94e4029" target="_top" xlink:title="gamePlayer.ViewController.edit\lPlayers">
<polygon fill="white" stroke="black" points="200,-30 200,-60 364,-60 364,-30 200,-30"/>
<text text-anchor="start" x="208" y="-48" font-family="Helvetica,sans-Serif" font-size="10.00">gamePlayer.ViewController.edit</text>
<text text-anchor="middle" x="282" y="-37" font-family="Helvetica,sans-Serif" font-size="10.00">Players</text>
</a>
</g>
</g>
<!-- Node1&#45;&gt;Node5 -->
<g id="edge4" class="edge"><title>Node1&#45;&gt;Node5</title>
<path fill="none" stroke="midnightblue" d="M174.085,-57.9594C182.63,-56.9237 191.254,-55.8783 199.7,-54.8545"/>
<polygon fill="midnightblue" stroke="midnightblue" points="173.612,-54.4911 164.105,-59.169 174.454,-61.4402 173.612,-54.4911"/>
</g>
<!-- Node3 -->
<g id="node3" class="node"><title>Node3</title>
<g id="a_node3"><a xlink:href="../../df/dd5/classgame_player_1_1_view_controller.html#a19c7b5437fe31089198b6aae9c98a382" target="_top" xlink:title="gamePlayer.ViewController.load\lGameInTab">
<polygon fill="white" stroke="black" points="414.5,-79 414.5,-109 581.5,-109 581.5,-79 414.5,-79"/>
<text text-anchor="start" x="422.5" y="-97" font-family="Helvetica,sans-Serif" font-size="10.00">gamePlayer.ViewController.load</text>
<text text-anchor="middle" x="498" y="-86" font-family="Helvetica,sans-Serif" font-size="10.00">GameInTab</text>
</a>
</g>
</g>
<!-- Node2&#45;&gt;Node3 -->
<g id="edge2" class="edge"><title>Node2&#45;&gt;Node3</title>
<path fill="none" stroke="midnightblue" d="M374.317,-94C387.639,-94 401.291,-94 414.425,-94"/>
<polygon fill="midnightblue" stroke="midnightblue" points="374.209,-90.5001 364.209,-94 374.209,-97.5001 374.209,-90.5001"/>
</g>
<!-- Node4 -->
<g id="node4" class="node"><title>Node4</title>
<g id="a_node4"><a xlink:href="../../df/dd5/classgame_player_1_1_view_controller.html#a18533d310033908b1101797368828a26" target="_top" xlink:title="gamePlayer.ViewController.\lViewController">
<polygon fill="white" stroke="black" points="632,-79 632,-109 778,-109 778,-79 632,-79"/>
<text text-anchor="start" x="640" y="-97" font-family="Helvetica,sans-Serif" font-size="10.00">gamePlayer.ViewController.</text>
<text text-anchor="middle" x="705" y="-86" font-family="Helvetica,sans-Serif" font-size="10.00">ViewController</text>
</a>
</g>
</g>
<!-- Node3&#45;&gt;Node4 -->
<g id="edge3" class="edge"><title>Node3&#45;&gt;Node4</title>
<path fill="none" stroke="midnightblue" d="M591.953,-94C605.318,-94 618.902,-94 631.784,-94"/>
<polygon fill="midnightblue" stroke="midnightblue" points="591.79,-90.5001 581.79,-94 591.79,-97.5001 591.79,-90.5001"/>
</g>
<!-- Node6 -->
<g id="node6" class="node"><title>Node6</title>
<g id="a_node6"><a xlink:href="../../df/dd5/classgame_player_1_1_view_controller.html#a87ee83b9dc170a094457a10bfdff7c20" target="_top" xlink:title="gamePlayer.ViewController.loadGame">
<polygon fill="white" stroke="black" points="400,-38.5 400,-57.5 596,-57.5 596,-38.5 400,-38.5"/>
<text text-anchor="middle" x="498" y="-45.5" font-family="Helvetica,sans-Serif" font-size="10.00">gamePlayer.ViewController.loadGame</text>
</a>
</g>
</g>
<!-- Node5&#45;&gt;Node6 -->
<g id="edge5" class="edge"><title>Node5&#45;&gt;Node6</title>
<path fill="none" stroke="midnightblue" d="M374.351,-46.2806C382.731,-46.3981 391.241,-46.5174 399.671,-46.6356"/>
<polygon fill="midnightblue" stroke="midnightblue" points="374.257,-42.7791 364.209,-46.1384 374.159,-49.7784 374.257,-42.7791"/>
</g>
<!-- Node7 -->
<g id="node7" class="node"><title>Node7</title>
<g id="a_node7"><a xlink:href="../../df/dd5/classgame_player_1_1_view_controller.html#ac0350fa190876455755b7fb25f567af1" target="_top" xlink:title="gamePlayer.ViewController.testGame">
<polygon fill="white" stroke="black" points="401,-0.5 401,-19.5 595,-19.5 595,-0.5 401,-0.5"/>
<text text-anchor="middle" x="498" y="-7.5" font-family="Helvetica,sans-Serif" font-size="10.00">gamePlayer.ViewController.testGame</text>
</a>
</g>
</g>
<!-- Node5&#45;&gt;Node7 -->
<g id="edge6" class="edge"><title>Node5&#45;&gt;Node7</title>
<path fill="none" stroke="midnightblue" d="M374.193,-30.0852C396.091,-26.5038 418.892,-22.7746 438.818,-19.5157"/>
<polygon fill="midnightblue" stroke="midnightblue" points="373.513,-26.6498 364.209,-31.7181 374.643,-33.5581 373.513,-26.6498"/>
</g>
</g>
</svg>
