<?xml version="1.0" encoding="UTF-8" standalone="no"?>
<!DOCTYPE svg PUBLIC "-//W3C//DTD SVG 1.1//EN"
 "http://www.w3.org/Graphics/SVG/1.1/DTD/svg11.dtd">
<!-- Generated by graphviz version 2.36.0 (20140111.2315)
 -->
<!-- Title: gamePlayer.ViewController.ViewController Pages: 1 -->
<!--zoomable 190 -->
<svg id="main" version="1.1" xmlns="http://www.w3.org/2000/svg" xmlns:xlink="http://www.w3.org/1999/xlink" xml:space="preserve" onload="init(evt)">
<style type="text/css"><![CDATA[
.edge:hover path { stroke: red; }
.edge:hover polygon { stroke: red; fill: red; }
]]></style>
<script type="text/javascript"><![CDATA[
var edges = document.getElementsByTagName('g');
if (edges && edges.length) {
  for (var i=0;i<edges.length;i++) {
    if (edges[i].id.substr(0,4)=='edge') {
      edges[i].setAttribute('class','edge');
    }
  }
}
]]></script>
        <defs>
                <circle id="rim" cx="0" cy="0" r="7"/>
                <circle id="rim2" cx="0" cy="0" r="3.5"/>
                <g id="zoomPlus">
                        <use xlink:href="#rim" fill="#404040">
                                <set attributeName="fill" to="#808080" begin="zoomplus.mouseover" end="zoomplus.mouseout"/>
                        </use>
                        <path d="M-4,0h8M0,-4v8" fill="none" stroke="white" stroke-width="1.5" pointer-events="none"/>
                </g>
                <g id="zoomMin">
                        <use xlink:href="#rim" fill="#404040">
                                <set attributeName="fill" to="#808080" begin="zoomminus.mouseover" end="zoomminus.mouseout"/>
                        </use>
                        <path d="M-4,0h8" fill="none" stroke="white" stroke-width="1.5" pointer-events="none"/>
                </g>
                <g id="dirArrow">
                        <path fill="none" stroke="white" stroke-width="1.5" d="M0,-3.0v7 M-2.5,-0.5L0,-3.0L2.5,-0.5"/>
                </g>
               <g id="resetDef">
                       <use xlink:href="#rim2" fill="#404040">
                               <set attributeName="fill" to="#808080" begin="reset.mouseover" end="reset.mouseout"/>
                       </use>
               </g>
        </defs>

<script type="text/javascript">
var viewWidth = 984;
var viewHeight = 190;
var sectionId = 'dynsection-2';
</script>
<script xlink:href="../../svgpan.js"/>
<svg id="graph" class="graph">
<g id="viewport">
<title>gamePlayer.ViewController.ViewController</title>
<polygon fill="white" stroke="none" points="-4,4 -4,-186 980,-186 980,4 -4,4"/>
<!-- Node1 -->
<g id="node1" class="node"><title>Node1</title>
<polygon fill="#bfbfbf" stroke="black" points="0,-55 0,-85 146,-85 146,-55 0,-55"/>
<text text-anchor="start" x="8" y="-73" font-family="Helvetica,sans-Serif" font-size="10.00">gamePlayer.ViewController.</text>
<text text-anchor="middle" x="73" y="-62" font-family="Helvetica,sans-Serif" font-size="10.00">ViewController</text>
</g>
<!-- Node2 -->
<g id="node2" class="node"><title>Node2</title>
<g id="a_node2"><a xlink:href="../../df/dd5/classgame_player_1_1_view_controller.html#a19c7b5437fe31089198b6aae9c98a382" target="_top" xlink:title="gamePlayer.ViewController.load\lGameInTab">
<polygon fill="white" stroke="black" points="183.5,-80 183.5,-110 350.5,-110 350.5,-80 183.5,-80"/>
<text text-anchor="start" x="191.5" y="-98" font-family="Helvetica,sans-Serif" font-size="10.00">gamePlayer.ViewController.load</text>
<text text-anchor="middle" x="267" y="-87" font-family="Helvetica,sans-Serif" font-size="10.00">GameInTab</text>
</a>
</g>
</g>
<!-- Node1&#45;&gt;Node2 -->
<g id="edge1" class="edge"><title>Node1&#45;&gt;Node2</title>
<path fill="none" stroke="midnightblue" d="M146.04,-79.3802C154.854,-80.5278 163.955,-81.7129 173.02,-82.8933"/>
<polygon fill="midnightblue" stroke="midnightblue" points="172.855,-86.4012 183.223,-84.2217 173.759,-79.4598 172.855,-86.4012"/>
</g>
<!-- Node8 -->
<g id="node8" class="node"><title>Node8</title>
<g id="a_node8"><a xlink:href="../../df/dd5/classgame_player_1_1_view_controller.html#afcc191634cdb14304828148befdcd228" target="_top" xlink:title="gamePlayer.ViewController.open\lInitialGUIMenu">
<polygon fill="white" stroke="black" points="182,-31 182,-61 352,-61 352,-31 182,-31"/>
<text text-anchor="start" x="190" y="-49" font-family="Helvetica,sans-Serif" font-size="10.00">gamePlayer.ViewController.open</text>
<text text-anchor="middle" x="267" y="-38" font-family="Helvetica,sans-Serif" font-size="10.00">InitialGUIMenu</text>
</a>
</g>
</g>
<!-- Node1&#45;&gt;Node8 -->
<g id="edge7" class="edge"><title>Node1&#45;&gt;Node8</title>
<path fill="none" stroke="midnightblue" d="M146.04,-60.995C154.453,-59.9434 163.128,-58.859 171.784,-57.777"/>
<polygon fill="midnightblue" stroke="midnightblue" points="172.43,-61.2235 181.919,-56.5101 171.562,-54.2776 172.43,-61.2235"/>
</g>
<!-- Node3 -->
<g id="node3" class="node"><title>Node3</title>
<g id="a_node3"><a xlink:href="../../df/dd5/classgame_player_1_1_view_controller.html#aa88b91b279269bee059216dccb13c583" target="_top" xlink:title="gamePlayer.ViewController.edit\lGUIPlayers">
<polygon fill="white" stroke="black" points="402,-128 402,-158 566,-158 566,-128 402,-128"/>
<text text-anchor="start" x="410" y="-146" font-family="Helvetica,sans-Serif" font-size="10.00">gamePlayer.ViewController.edit</text>
<text text-anchor="middle" x="484" y="-135" font-family="Helvetica,sans-Serif" font-size="10.00">GUIPlayers</text>
</a>
</g>
</g>
<!-- Node2&#45;&gt;Node3 -->
<g id="edge2" class="edge"><title>Node2&#45;&gt;Node3</title>
<path fill="none" stroke="midnightblue" d="M335.437,-110.056C357.751,-115.037 382.751,-120.619 405.742,-125.752"/>
<polygon fill="midnightblue" stroke="midnightblue" points="405.279,-129.235 415.802,-127.998 406.805,-122.403 405.279,-129.235"/>
</g>
<!-- Node7 -->
<g id="node7" class="node"><title>Node7</title>
<g id="a_node7"><a xlink:href="../../d0/dbd/classgamedata_1_1_j_s_o_n_1_1_j_s_o_n_manager.html#a5690469e5cd34911a87e3f4c78e500a3" target="_top" xlink:title="gamedata.JSON.JSONManager.read\lFromJSONFile">
<polygon fill="white" stroke="black" points="391,-79 391,-109 577,-109 577,-79 391,-79"/>
<text text-anchor="start" x="399" y="-97" font-family="Helvetica,sans-Serif" font-size="10.00">gamedata.JSON.JSONManager.read</text>
<text text-anchor="middle" x="484" y="-86" font-family="Helvetica,sans-Serif" font-size="10.00">FromJSONFile</text>
</a>
</g>
</g>
<!-- Node2&#45;&gt;Node7 -->
<g id="edge6" class="edge"><title>Node2&#45;&gt;Node7</title>
<path fill="none" stroke="midnightblue" d="M350.51,-94.6162C360.368,-94.5704 370.524,-94.5231 380.619,-94.4762"/>
<polygon fill="midnightblue" stroke="midnightblue" points="380.697,-97.976 390.68,-94.4294 380.664,-90.976 380.697,-97.976"/>
</g>
<!-- Node4 -->
<g id="node4" class="node"><title>Node4</title>
<g id="a_node4"><a xlink:href="../../d2/d99/classgamedata_1_1gamecomponents_1_1_game.html#a538b22872996297aad3b918c4f567a9f" target="_top" xlink:title="gamedata.gamecomponents.\lGame.getPlayers">
<polygon fill="white" stroke="black" points="618,-152 618,-182 778,-182 778,-152 618,-152"/>
<text text-anchor="start" x="626" y="-170" font-family="Helvetica,sans-Serif" font-size="10.00">gamedata.gamecomponents.</text>
<text text-anchor="middle" x="698" y="-159" font-family="Helvetica,sans-Serif" font-size="10.00">Game.getPlayers</text>
</a>
</g>
</g>
<!-- Node3&#45;&gt;Node4 -->
<g id="edge3" class="edge"><title>Node3&#45;&gt;Node4</title>
<path fill="none" stroke="midnightblue" d="M566.056,-152.176C579.694,-153.72 593.917,-155.33 607.75,-156.896"/>
<polygon fill="midnightblue" stroke="midnightblue" points="607.409,-160.38 617.739,-158.027 608.196,-153.424 607.409,-160.38"/>
</g>
<!-- Node5 -->
<g id="node5" class="node"><title>Node5</title>
<g id="a_node5"><a xlink:href="../../df/dd5/classgame_player_1_1_view_controller.html#a27bd012e4b5306525d19c6dd9f3b6ac0" target="_top" xlink:title="gamePlayer.ViewController.edit\lSpecificPlayer">
<polygon fill="white" stroke="black" points="616,-103 616,-133 780,-133 780,-103 616,-103"/>
<text text-anchor="start" x="624" y="-121" font-family="Helvetica,sans-Serif" font-size="10.00">gamePlayer.ViewController.edit</text>
<text text-anchor="middle" x="698" y="-110" font-family="Helvetica,sans-Serif" font-size="10.00">SpecificPlayer</text>
</a>
</g>
</g>
<!-- Node3&#45;&gt;Node5 -->
<g id="edge4" class="edge"><title>Node3&#45;&gt;Node5</title>
<path fill="none" stroke="midnightblue" d="M566.056,-133.442C579.096,-131.904 592.671,-130.303 605.928,-128.74"/>
<polygon fill="midnightblue" stroke="midnightblue" points="606.468,-132.2 615.989,-127.553 605.648,-125.248 606.468,-132.2"/>
</g>
<!-- Node6 -->
<g id="node6" class="node"><title>Node6</title>
<g id="a_node6"><a xlink:href="../../d2/d99/classgamedata_1_1gamecomponents_1_1_game.html#ad0b2eb24eabcffe2596837c5c6c1ac2c" target="_top" xlink:title="gamedata.gamecomponents.\lGame.replacePlayer">
<polygon fill="white" stroke="black" points="816,-103 816,-133 976,-133 976,-103 816,-103"/>
<text text-anchor="start" x="824" y="-121" font-family="Helvetica,sans-Serif" font-size="10.00">gamedata.gamecomponents.</text>
<text text-anchor="middle" x="896" y="-110" font-family="Helvetica,sans-Serif" font-size="10.00">Game.replacePlayer</text>
</a>
</g>
</g>
<!-- Node5&#45;&gt;Node6 -->
<g id="edge5" class="edge"><title>Node5&#45;&gt;Node6</title>
<path fill="none" stroke="midnightblue" d="M780.136,-118C788.521,-118 797.077,-118 805.546,-118"/>
<polygon fill="midnightblue" stroke="midnightblue" points="805.818,-121.5 815.818,-118 805.818,-114.5 805.818,-121.5"/>
</g>
<!-- Node9 -->
<g id="node9" class="node"><title>Node9</title>
<g id="a_node9"><a xlink:href="../../df/dd5/classgame_player_1_1_view_controller.html#ae2e95acc4bf016abb98130f92f26778e" target="_top" xlink:title="gamePlayer.ViewController.loadFXML">
<polygon fill="white" stroke="black" points="388.5,-38.5 388.5,-57.5 579.5,-57.5 579.5,-38.5 388.5,-38.5"/>
<text text-anchor="middle" x="484" y="-45.5" font-family="Helvetica,sans-Serif" font-size="10.00">gamePlayer.ViewController.loadFXML</text>
</a>
</g>
</g>
<!-- Node8&#45;&gt;Node9 -->
<g id="edge8" class="edge"><title>Node8&#45;&gt;Node9</title>
<path fill="none" stroke="midnightblue" d="M352.048,-46.7818C360.598,-46.8614 369.356,-46.9428 378.091,-47.0241"/>
<polygon fill="midnightblue" stroke="midnightblue" points="378.289,-50.526 388.321,-47.1193 378.354,-43.5263 378.289,-50.526"/>
</g>
<!-- Node10 -->
<g id="node10" class="node"><title>Node10</title>
<g id="a_node10"><a xlink:href="../../da/de7/classgame_player_1_1_audio.html#a7de4eaaf232a7e233eb5ee963f1c6108" target="_top" xlink:title="gamePlayer.Audio.playBackground">
<polygon fill="white" stroke="black" points="393,-0.5 393,-19.5 575,-19.5 575,-0.5 393,-0.5"/>
<text text-anchor="middle" x="484" y="-7.5" font-family="Helvetica,sans-Serif" font-size="10.00">gamePlayer.Audio.playBackground</text>
</a>
</g>
</g>
<!-- Node8&#45;&gt;Node10 -->
<g id="edge9" class="edge"><title>Node8&#45;&gt;Node10</title>
<path fill="none" stroke="midnightblue" d="M352.048,-31.9268C373.307,-28.3671 395.853,-24.5921 416.135,-21.196"/>
<polygon fill="midnightblue" stroke="midnightblue" points="416.92,-24.6134 426.204,-19.51 415.763,-17.7096 416.92,-24.6134"/>
</g>
<!-- Node11 -->
<g id="node11" class="node"><title>Node11</title>
<g id="a_node11"><a xlink:href="../../da/de7/classgame_player_1_1_audio.html#aa1396fe6ab1f026334433de9a24905ef" target="_top" xlink:title="gamePlayer.Audio.playAudio">
<polygon fill="white" stroke="black" points="622,-0.5 622,-19.5 774,-19.5 774,-0.5 622,-0.5"/>
<text text-anchor="middle" x="698" y="-7.5" font-family="Helvetica,sans-Serif" font-size="10.00">gamePlayer.Audio.playAudio</text>
</a>
</g>
</g>
<!-- Node10&#45;&gt;Node11 -->
<g id="edge10" class="edge"><title>Node10&#45;&gt;Node11</title>
<path fill="none" stroke="midnightblue" d="M575.214,-10C587.365,-10 599.798,-10 611.856,-10"/>
<polygon fill="midnightblue" stroke="midnightblue" points="611.883,-13.5001 621.883,-10 611.883,-6.5001 611.883,-13.5001"/>
</g>
</g>
</svg>
        <g id="navigator" transform="translate(0 0)" fill="#404254">
                <rect fill="#f2f5e9" fill-opacity="0.5" stroke="#606060" stroke-width=".5" x="0" y="0" width="60" height="60"/>
                <use id="zoomplus" xlink:href="#zoomPlus" x="17" y="9" onmousedown="handleZoom(evt,'in')"/>
                <use id="zoomminus" xlink:href="#zoomMin" x="42" y="9" onmousedown="handleZoom(evt,'out')"/>
                <use id="reset" xlink:href="#resetDef" x="30" y="36" onmousedown="handleReset()"/>
                <g id="arrowUp" xlink:href="#dirArrow" transform="translate(30 24)" onmousedown="handlePan(0,-1)">
                  <use xlink:href="#rim" fill="#404040">
                        <set attributeName="fill" to="#808080" begin="arrowUp.mouseover" end="arrowUp.mouseout"/>
                  </use>
                  <path fill="none" stroke="white" stroke-width="1.5" d="M0,-3.0v7 M-2.5,-0.5L0,-3.0L2.5,-0.5"/>
                </g>
                <g id="arrowRight" xlink:href="#dirArrow" transform="rotate(90) translate(36 -43)" onmousedown="handlePan(1,0)">
                  <use xlink:href="#rim" fill="#404040">
                        <set attributeName="fill" to="#808080" begin="arrowRight.mouseover" end="arrowRight.mouseout"/>
                  </use>
                  <path fill="none" stroke="white" stroke-width="1.5" d="M0,-3.0v7 M-2.5,-0.5L0,-3.0L2.5,-0.5"/>
                </g>
                <g id="arrowDown" xlink:href="#dirArrow" transform="rotate(180) translate(-30 -48)" onmousedown="handlePan(0,1)">
                  <use xlink:href="#rim" fill="#404040">
                        <set attributeName="fill" to="#808080" begin="arrowDown.mouseover" end="arrowDown.mouseout"/>
                  </use>
                  <path fill="none" stroke="white" stroke-width="1.5" d="M0,-3.0v7 M-2.5,-0.5L0,-3.0L2.5,-0.5"/>
                </g>
                <g id="arrowLeft" xlink:href="#dirArrow" transform="rotate(270) translate(-36 17)" onmousedown="handlePan(-1,0)">
                  <use xlink:href="#rim" fill="#404040">
                        <set attributeName="fill" to="#808080" begin="arrowLeft.mouseover" end="arrowLeft.mouseout"/>
                  </use>
                  <path fill="none" stroke="white" stroke-width="1.5" d="M0,-3.0v7 M-2.5,-0.5L0,-3.0L2.5,-0.5"/>
                </g>
        </g>
        <svg viewBox="0 0 15 15" width="100%" height="30px" preserveAspectRatio="xMaxYMin meet">
         <g id="arrow_out" transform="scale(0.3 0.3)">
          <a xlink:href="classgame_player_1_1_view_controller_a18533d310033908b1101797368828a26_cgraph_org.svg" target="_base">
           <rect id="button" ry="5" rx="5" y="6" x="6" height="38" width="38"
                fill="#f2f5e9" fill-opacity="0.5" stroke="#606060" stroke-width="1.0"/>
           <path id="arrow"
             d="M 11.500037,31.436501 C 11.940474,20.09759 22.043105,11.32322 32.158766,21.979434 L 37.068811,17.246167 C 37.068811,17.246167 37.088388,32 37.088388,32 L 22.160133,31.978069 C 22.160133,31.978069 26.997745,27.140456 26.997745,27.140456 C 18.528582,18.264221 13.291696,25.230495 11.500037,31.436501 z"
             style="fill:#404040;"/>
          </a>
         </g>
        </svg>
</svg>
