<?xml version="1.0" encoding="UTF-8" standalone="no"?>
<!DOCTYPE svg PUBLIC "-//W3C//DTD SVG 1.1//EN"
 "http://www.w3.org/Graphics/SVG/1.1/DTD/svg11.dtd">
<!-- Generated by graphviz version 2.36.0 (20140111.2315)
 -->
<!-- Title: gamePlayer.ViewController.getActivePiece Pages: 1 -->
<svg width="1726pt" height="458pt"
 viewBox="0.00 0.00 1726.00 458.00" xmlns="http://www.w3.org/2000/svg" xmlns:xlink="http://www.w3.org/1999/xlink">
<g id="graph0" class="graph" transform="scale(1 1) rotate(0) translate(4 454)">
<title>gamePlayer.ViewController.getActivePiece</title>
<polygon fill="white" stroke="none" points="-4,4 -4,-454 1722,-454 1722,4 -4,4"/>
<!-- Node1 -->
<g id="node1" class="node"><title>Node1</title>
<polygon fill="#bfbfbf" stroke="black" points="0,-295 0,-325 162,-325 162,-295 0,-295"/>
<text text-anchor="start" x="8" y="-313" font-family="Helvetica,sans-Serif" font-size="10.00">gamePlayer.ViewController.get</text>
<text text-anchor="middle" x="81" y="-302" font-family="Helvetica,sans-Serif" font-size="10.00">ActivePiece</text>
</g>
<!-- Node2 -->
<g id="node2" class="node"><title>Node2</title>
<g id="a_node2"><a xlink:href="../../d5/dfb/classgame_player_1_1_game_grid_effect.html#a06a39915dc8d5d6b82fdca29ca2733df" target="_top" xlink:title="gamePlayer.GameGridEffect.\lGameGridEffect">
<polygon fill="white" stroke="black" points="204.5,-420 204.5,-450 359.5,-450 359.5,-420 204.5,-420"/>
<text text-anchor="start" x="212.5" y="-438" font-family="Helvetica,sans-Serif" font-size="10.00">gamePlayer.GameGridEffect.</text>
<text text-anchor="middle" x="282" y="-427" font-family="Helvetica,sans-Serif" font-size="10.00">GameGridEffect</text>
</a>
</g>
</g>
<!-- Node1&#45;&gt;Node2 -->
<g id="edge1" class="edge"><title>Node1&#45;&gt;Node2</title>
<path fill="none" stroke="midnightblue" d="M104.12,-332.044C126.282,-353.129 162.162,-384.646 198,-405 208.126,-410.751 219.554,-415.731 230.62,-419.892"/>
<polygon fill="midnightblue" stroke="midnightblue" points="106.504,-329.48 96.8764,-325.056 101.644,-334.518 106.504,-329.48"/>
</g>
<!-- Node3 -->
<g id="node3" class="node"><title>Node3</title>
<g id="a_node3"><a xlink:href="../../db/d00/classgame_player_1_1_apply_state.html#aed42c1aba25264bc6880036f693a1c9e" target="_top" xlink:title="gamePlayer.ApplyState.on\lClick">
<polygon fill="white" stroke="black" points="1573.5,-354 1573.5,-384 1716.5,-384 1716.5,-354 1573.5,-354"/>
<text text-anchor="start" x="1581.5" y="-372" font-family="Helvetica,sans-Serif" font-size="10.00">gamePlayer.ApplyState.on</text>
<text text-anchor="middle" x="1645" y="-361" font-family="Helvetica,sans-Serif" font-size="10.00">Click</text>
</a>
</g>
</g>
<!-- Node1&#45;&gt;Node3 -->
<g id="edge2" class="edge"><title>Node1&#45;&gt;Node3</title>
<path fill="none" stroke="midnightblue" d="M137.58,-328.02C216.257,-351.887 365.019,-391 495,-391 495,-391 495,-391 1203,-391 1333.89,-391 1486.37,-381.213 1573.4,-374.694"/>
<polygon fill="midnightblue" stroke="midnightblue" points="138.463,-324.63 127.876,-325.046 136.411,-331.323 138.463,-324.63"/>
</g>
<!-- Node4 -->
<g id="node4" class="node"><title>Node4</title>
<g id="a_node4"><a xlink:href="../../d1/db7/classgame_player_1_1_keyboard_action.html#a08ace57322b8639020688dd9493c3e1f" target="_top" xlink:title="gamePlayer.KeyboardAction.set\lActionKeyControl">
<polygon fill="white" stroke="black" points="198,-215 198,-245 366,-245 366,-215 198,-215"/>
<text text-anchor="start" x="206" y="-233" font-family="Helvetica,sans-Serif" font-size="10.00">gamePlayer.KeyboardAction.set</text>
<text text-anchor="middle" x="282" y="-222" font-family="Helvetica,sans-Serif" font-size="10.00">ActionKeyControl</text>
</a>
</g>
</g>
<!-- Node1&#45;&gt;Node4 -->
<g id="edge3" class="edge"><title>Node1&#45;&gt;Node4</title>
<path fill="none" stroke="midnightblue" d="M128.94,-291.13C163.873,-277.086 210.931,-258.168 243.4,-245.116"/>
<polygon fill="midnightblue" stroke="midnightblue" points="127.403,-287.975 119.43,-294.953 130.014,-294.47 127.403,-287.975"/>
</g>
<!-- Node24 -->
<g id="node24" class="node"><title>Node24</title>
<g id="a_node24"><a xlink:href="../../d5/dfb/classgame_player_1_1_game_grid_effect.html#a5e34f8b7cca52de2db06626494e76457" target="_top" xlink:title="gamePlayer.GameGridEffect.update\lActives">
<polygon fill="white" stroke="black" points="402,-73 402,-103 590,-103 590,-73 402,-73"/>
<text text-anchor="start" x="410" y="-91" font-family="Helvetica,sans-Serif" font-size="10.00">gamePlayer.GameGridEffect.update</text>
<text text-anchor="middle" x="496" y="-80" font-family="Helvetica,sans-Serif" font-size="10.00">Actives</text>
</a>
</g>
</g>
<!-- Node1&#45;&gt;Node24 -->
<g id="edge27" class="edge"><title>Node1&#45;&gt;Node24</title>
<path fill="none" stroke="midnightblue" d="M102.347,-287.274C124.13,-264.049 160.631,-228.193 198,-205 276.4,-156.341 378.452,-121.485 440.226,-103.06"/>
<polygon fill="midnightblue" stroke="midnightblue" points="99.4967,-285.201 95.2786,-294.92 104.637,-289.953 99.4967,-285.201"/>
</g>
<!-- Node5 -->
<g id="node5" class="node"><title>Node5</title>
<g id="a_node5"><a xlink:href="../../df/dd5/classgame_player_1_1_view_controller.html#a95c2acd43bb39b8606c69971c1cd30f5" target="_top" xlink:title="gamePlayer.ViewController.perform\lAction">
<polygon fill="white" stroke="black" points="403.5,-215 403.5,-245 588.5,-245 588.5,-215 403.5,-215"/>
<text text-anchor="start" x="411.5" y="-233" font-family="Helvetica,sans-Serif" font-size="10.00">gamePlayer.ViewController.perform</text>
<text text-anchor="middle" x="496" y="-222" font-family="Helvetica,sans-Serif" font-size="10.00">Action</text>
</a>
</g>
</g>
<!-- Node4&#45;&gt;Node5 -->
<g id="edge4" class="edge"><title>Node4&#45;&gt;Node5</title>
<path fill="none" stroke="midnightblue" d="M376.252,-230C385.232,-230 394.336,-230 403.301,-230"/>
<polygon fill="midnightblue" stroke="midnightblue" points="376.18,-226.5 366.18,-230 376.18,-233.5 376.18,-226.5"/>
</g>
<!-- Node6 -->
<g id="node6" class="node"><title>Node6</title>
<g id="a_node6"><a xlink:href="../../da/d55/classgame_player_1_1_keyboard_movement.html#af45fd8d279b1ee2d6be5466d425485ab" target="_top" xlink:title="gamePlayer.KeyboardMovement.set\lMovementKeyControl">
<polygon fill="white" stroke="black" points="629.5,-190 629.5,-220 818.5,-220 818.5,-190 629.5,-190"/>
<text text-anchor="start" x="637.5" y="-208" font-family="Helvetica,sans-Serif" font-size="10.00">gamePlayer.KeyboardMovement.set</text>
<text text-anchor="middle" x="724" y="-197" font-family="Helvetica,sans-Serif" font-size="10.00">MovementKeyControl</text>
</a>
</g>
</g>
<!-- Node5&#45;&gt;Node6 -->
<g id="edge5" class="edge"><title>Node5&#45;&gt;Node6</title>
<path fill="none" stroke="midnightblue" d="M584.502,-213.726C599.164,-211.923 614.431,-210.211 629.243,-208.709"/>
<polygon fill="midnightblue" stroke="midnightblue" points="583.946,-210.268 574.46,-214.987 584.819,-217.213 583.946,-210.268"/>
</g>
<!-- Node13 -->
<g id="node13" class="node"><title>Node13</title>
<g id="a_node13"><a xlink:href="../../df/dd5/classgame_player_1_1_view_controller.html#a22ee80193bbac79a935ee961a183bfcd" target="_top" xlink:title="gamePlayer.ViewController.set\lOnClick">
<polygon fill="white" stroke="black" points="643.5,-239 643.5,-269 804.5,-269 804.5,-239 643.5,-239"/>
<text text-anchor="start" x="651.5" y="-257" font-family="Helvetica,sans-Serif" font-size="10.00">gamePlayer.ViewController.set</text>
<text text-anchor="middle" x="724" y="-246" font-family="Helvetica,sans-Serif" font-size="10.00">OnClick</text>
</a>
</g>
</g>
<!-- Node5&#45;&gt;Node13 -->
<g id="edge14" class="edge"><title>Node5&#45;&gt;Node13</title>
<path fill="none" stroke="midnightblue" d="M598.851,-240.816C613.74,-242.397 628.89,-244.006 643.254,-245.531"/>
<polygon fill="midnightblue" stroke="midnightblue" points="598.911,-237.303 588.597,-239.727 598.172,-244.264 598.911,-237.303"/>
</g>
<!-- Node6&#45;&gt;Node5 -->
<g id="edge12" class="edge"><title>Node6&#45;&gt;Node5</title>
<path fill="none" stroke="midnightblue" d="M635.417,-221.284C620.066,-223.171 604.054,-224.958 588.597,-226.509"/>
<polygon fill="midnightblue" stroke="midnightblue" points="635.912,-224.75 645.398,-220.031 635.04,-217.804 635.912,-224.75"/>
</g>
<!-- Node7 -->
<g id="node7" class="node"><title>Node7</title>
<g id="a_node7"><a xlink:href="../../df/dd5/classgame_player_1_1_view_controller.html#a7eb038fd9f20604ade0406f27ef76657" target="_top" xlink:title="gamePlayer.ViewController.bind\lAction">
<polygon fill="white" stroke="black" points="876.5,-98 876.5,-128 1043.5,-128 1043.5,-98 876.5,-98"/>
<text text-anchor="start" x="884.5" y="-116" font-family="Helvetica,sans-Serif" font-size="10.00">gamePlayer.ViewController.bind</text>
<text text-anchor="middle" x="960" y="-105" font-family="Helvetica,sans-Serif" font-size="10.00">Action</text>
</a>
</g>
</g>
<!-- Node6&#45;&gt;Node7 -->
<g id="edge6" class="edge"><title>Node6&#45;&gt;Node7</title>
<path fill="none" stroke="midnightblue" d="M783.323,-186.747C796.145,-182.461 809.595,-177.75 822,-173 858.494,-159.025 899.428,-140.744 926.969,-128.051"/>
<polygon fill="midnightblue" stroke="midnightblue" points="782.066,-183.476 773.669,-189.937 784.262,-190.123 782.066,-183.476"/>
</g>
<!-- Node12 -->
<g id="node12" class="node"><title>Node12</title>
<g id="a_node12"><a xlink:href="../../df/dd5/classgame_player_1_1_view_controller.html#a27da17c1280cd953a14f6b76b18f9a4b" target="_top" xlink:title="gamePlayer.ViewController.toggle\lKeyboardControl">
<polygon fill="white" stroke="black" points="872,-190 872,-220 1048,-220 1048,-190 872,-190"/>
<text text-anchor="start" x="880" y="-208" font-family="Helvetica,sans-Serif" font-size="10.00">gamePlayer.ViewController.toggle</text>
<text text-anchor="middle" x="960" y="-197" font-family="Helvetica,sans-Serif" font-size="10.00">KeyboardControl</text>
</a>
</g>
</g>
<!-- Node6&#45;&gt;Node12 -->
<g id="edge13" class="edge"><title>Node6&#45;&gt;Node12</title>
<path fill="none" stroke="midnightblue" d="M829.18,-205C843.476,-205 858.031,-205 871.976,-205"/>
<polygon fill="midnightblue" stroke="midnightblue" points="828.828,-201.5 818.828,-205 828.828,-208.5 828.828,-201.5"/>
</g>
<!-- Node7&#45;&gt;Node4 -->
<g id="edge8" class="edge"><title>Node7&#45;&gt;Node4</title>
<path fill="none" stroke="midnightblue" d="M866.265,-129.413C851.465,-131.984 836.316,-134.587 822,-137 635.532,-168.427 587.913,-170.441 402,-205 385.707,-208.029 368.217,-211.551 351.796,-214.979"/>
<polygon fill="midnightblue" stroke="midnightblue" points="867.19,-132.804 876.441,-127.64 865.989,-125.908 867.19,-132.804"/>
</g>
<!-- Node8 -->
<g id="node8" class="node"><title>Node8</title>
<g id="a_node8"><a xlink:href="../../df/df0/classtests_1_1_view_controller_test.html#a74e99f9c72cbdcd2d56271b2ad2df1ce" target="_top" xlink:title="tests.ViewControllerTest.bind\lActionTest">
<polygon fill="white" stroke="black" points="1125,-97 1125,-127 1279,-127 1279,-97 1125,-97"/>
<text text-anchor="start" x="1133" y="-115" font-family="Helvetica,sans-Serif" font-size="10.00">tests.ViewControllerTest.bind</text>
<text text-anchor="middle" x="1202" y="-104" font-family="Helvetica,sans-Serif" font-size="10.00">ActionTest</text>
</a>
</g>
</g>
<!-- Node7&#45;&gt;Node8 -->
<g id="edge7" class="edge"><title>Node7&#45;&gt;Node8</title>
<path fill="none" stroke="midnightblue" d="M1053.89,-112.613C1077.32,-112.515 1102.2,-112.412 1124.71,-112.318"/>
<polygon fill="midnightblue" stroke="midnightblue" points="1053.58,-109.114 1043.59,-112.656 1053.61,-116.114 1053.58,-109.114"/>
</g>
<!-- Node9 -->
<g id="node9" class="node"><title>Node9</title>
<g id="a_node9"><a xlink:href="../../df/dd5/classgame_player_1_1_view_controller.html#ab8c14a8c53be9021a62d0107c2f75ef6" target="_top" xlink:title="gamePlayer.ViewController.update\lActions">
<polygon fill="white" stroke="black" points="1112,-48 1112,-78 1292,-78 1292,-48 1112,-48"/>
<text text-anchor="start" x="1120" y="-66" font-family="Helvetica,sans-Serif" font-size="10.00">gamePlayer.ViewController.update</text>
<text text-anchor="middle" x="1202" y="-55" font-family="Helvetica,sans-Serif" font-size="10.00">Actions</text>
</a>
</g>
</g>
<!-- Node7&#45;&gt;Node9 -->
<g id="edge9" class="edge"><title>Node7&#45;&gt;Node9</title>
<path fill="none" stroke="midnightblue" d="M1043.09,-95.8975C1070.87,-90.1109 1101.66,-83.6952 1128.63,-78.0774"/>
<polygon fill="midnightblue" stroke="midnightblue" points="1042.08,-92.5323 1033.01,-97.9984 1043.51,-99.3852 1042.08,-92.5323"/>
</g>
<!-- Node10 -->
<g id="node10" class="node"><title>Node10</title>
<g id="a_node10"><a xlink:href="../../d6/d24/classgame_player_1_1_select_state.html#a801827392f0faeee6b96925060d77838" target="_top" xlink:title="gamePlayer.SelectState.on\lClick">
<polygon fill="white" stroke="black" points="1365.5,-4 1365.5,-34 1512.5,-34 1512.5,-4 1365.5,-4"/>
<text text-anchor="start" x="1373.5" y="-22" font-family="Helvetica,sans-Serif" font-size="10.00">gamePlayer.SelectState.on</text>
<text text-anchor="middle" x="1439" y="-11" font-family="Helvetica,sans-Serif" font-size="10.00">Click</text>
</a>
</g>
</g>
<!-- Node9&#45;&gt;Node10 -->
<g id="edge10" class="edge"><title>Node9&#45;&gt;Node10</title>
<path fill="none" stroke="midnightblue" d="M1293.31,-46.091C1317.11,-41.6339 1342.49,-36.8819 1365.24,-32.6224"/>
<polygon fill="midnightblue" stroke="midnightblue" points="1292.4,-42.7001 1283.22,-47.9808 1293.69,-49.5805 1292.4,-42.7001"/>
</g>
<!-- Node11 -->
<g id="node11" class="node"><title>Node11</title>
<g id="a_node11"><a xlink:href="../../df/df0/classtests_1_1_view_controller_test.html#a785df2c49a72c183c22163ce927f5df1" target="_top" xlink:title="tests.ViewControllerTest.update\lActionsTest">
<polygon fill="white" stroke="black" points="1355.5,-53 1355.5,-83 1522.5,-83 1522.5,-53 1355.5,-53"/>
<text text-anchor="start" x="1363.5" y="-71" font-family="Helvetica,sans-Serif" font-size="10.00">tests.ViewControllerTest.update</text>
<text text-anchor="middle" x="1439" y="-60" font-family="Helvetica,sans-Serif" font-size="10.00">ActionsTest</text>
</a>
</g>
</g>
<!-- Node9&#45;&gt;Node11 -->
<g id="edge11" class="edge"><title>Node9&#45;&gt;Node11</title>
<path fill="none" stroke="midnightblue" d="M1302.49,-65.1169C1320.14,-65.4923 1338.34,-65.8796 1355.46,-66.2438"/>
<polygon fill="midnightblue" stroke="midnightblue" points="1302.25,-61.611 1292.18,-64.8974 1302.1,-68.6094 1302.25,-61.611"/>
</g>
<!-- Node14 -->
<g id="node14" class="node"><title>Node14</title>
<g id="a_node14"><a xlink:href="../../df/dd5/classgame_player_1_1_view_controller.html#a10a40967a873f067cf91b024ff85b38e" target="_top" xlink:title="gamePlayer.ViewController.initializeGrid">
<polygon fill="white" stroke="black" points="858,-244.5 858,-263.5 1062,-263.5 1062,-244.5 858,-244.5"/>
<text text-anchor="middle" x="960" y="-251.5" font-family="Helvetica,sans-Serif" font-size="10.00">gamePlayer.ViewController.initializeGrid</text>
</a>
</g>
</g>
<!-- Node13&#45;&gt;Node14 -->
<g id="edge15" class="edge"><title>Node13&#45;&gt;Node14</title>
<path fill="none" stroke="midnightblue" d="M814.687,-254C828.763,-254 843.398,-254 857.714,-254"/>
<polygon fill="midnightblue" stroke="midnightblue" points="814.548,-250.5 804.548,-254 814.548,-257.5 814.548,-250.5"/>
</g>
<!-- Node15 -->
<g id="node15" class="node"><title>Node15</title>
<g id="a_node15"><a xlink:href="../../df/dd5/classgame_player_1_1_view_controller.html#aabf431713b65ec510f1cb2df12da4e45" target="_top" xlink:title="gamePlayer.ViewController.test\lPlayGameInTab">
<polygon fill="white" stroke="black" points="1119.5,-283 1119.5,-313 1284.5,-313 1284.5,-283 1119.5,-283"/>
<text text-anchor="start" x="1127.5" y="-301" font-family="Helvetica,sans-Serif" font-size="10.00">gamePlayer.ViewController.test</text>
<text text-anchor="middle" x="1202" y="-290" font-family="Helvetica,sans-Serif" font-size="10.00">PlayGameInTab</text>
</a>
</g>
</g>
<!-- Node14&#45;&gt;Node15 -->
<g id="edge16" class="edge"><title>Node14&#45;&gt;Node15</title>
<path fill="none" stroke="midnightblue" d="M1023.18,-265.399C1052.49,-270.773 1087.85,-277.256 1119.29,-283.021"/>
<polygon fill="midnightblue" stroke="midnightblue" points="1023.54,-261.908 1013.08,-263.547 1022.28,-268.793 1023.54,-261.908"/>
</g>
<!-- Node16 -->
<g id="node16" class="node"><title>Node16</title>
<g id="a_node16"><a xlink:href="../../df/dd5/classgame_player_1_1_view_controller.html#a0d1a3d443966f151b070dc751d2faf9a" target="_top" xlink:title="gamePlayer.ViewController.restartGame">
<polygon fill="white" stroke="black" points="1098,-244.5 1098,-263.5 1306,-263.5 1306,-244.5 1098,-244.5"/>
<text text-anchor="middle" x="1202" y="-251.5" font-family="Helvetica,sans-Serif" font-size="10.00">gamePlayer.ViewController.restartGame</text>
</a>
</g>
</g>
<!-- Node14&#45;&gt;Node16 -->
<g id="edge17" class="edge"><title>Node14&#45;&gt;Node16</title>
<path fill="none" stroke="midnightblue" d="M1072.36,-254C1080.81,-254 1089.32,-254 1097.72,-254"/>
<polygon fill="midnightblue" stroke="midnightblue" points="1072.09,-250.5 1062.09,-254 1072.09,-257.5 1072.09,-250.5"/>
</g>
<!-- Node17 -->
<g id="node17" class="node"><title>Node17</title>
<g id="a_node17"><a xlink:href="../../df/dd5/classgame_player_1_1_view_controller.html#a620f8a02d3ac7677cd179fcd812aca55" target="_top" xlink:title="gamePlayer.ViewController.check\lEndActions">
<polygon fill="white" stroke="black" points="1115,-332 1115,-362 1289,-362 1289,-332 1115,-332"/>
<text text-anchor="start" x="1123" y="-350" font-family="Helvetica,sans-Serif" font-size="10.00">gamePlayer.ViewController.check</text>
<text text-anchor="middle" x="1202" y="-339" font-family="Helvetica,sans-Serif" font-size="10.00">EndActions</text>
</a>
</g>
</g>
<!-- Node14&#45;&gt;Node17 -->
<g id="edge18" class="edge"><title>Node14&#45;&gt;Node17</title>
<path fill="none" stroke="midnightblue" d="M986.101,-268.59C1013.02,-283.722 1057.38,-307.2 1098,-322 1108.2,-325.717 1119.17,-329.048 1130.01,-331.975"/>
<polygon fill="midnightblue" stroke="midnightblue" points="987.765,-265.51 977.342,-263.613 984.307,-271.597 987.765,-265.51"/>
</g>
<!-- Node19 -->
<g id="node19" class="node"><title>Node19</title>
<g id="a_node19"><a xlink:href="../../df/dd5/classgame_player_1_1_view_controller.html#adc15cd81cefb88c58f9d3b7478328df8" target="_top" xlink:title="gamePlayer.ViewController.test\lPlayGUIGame">
<polygon fill="white" stroke="black" points="1119.5,-195 1119.5,-225 1284.5,-225 1284.5,-195 1119.5,-195"/>
<text text-anchor="start" x="1127.5" y="-213" font-family="Helvetica,sans-Serif" font-size="10.00">gamePlayer.ViewController.test</text>
<text text-anchor="middle" x="1202" y="-202" font-family="Helvetica,sans-Serif" font-size="10.00">PlayGUIGame</text>
</a>
</g>
</g>
<!-- Node14&#45;&gt;Node19 -->
<g id="edge22" class="edge"><title>Node14&#45;&gt;Node19</title>
<path fill="none" stroke="midnightblue" d="M1023.18,-242.601C1052.49,-237.227 1087.85,-230.744 1119.29,-224.979"/>
<polygon fill="midnightblue" stroke="midnightblue" points="1022.28,-239.207 1013.08,-244.453 1023.54,-246.092 1022.28,-239.207"/>
</g>
<!-- Node20 -->
<g id="node20" class="node"><title>Node20</title>
<g id="a_node20"><a xlink:href="../../df/dd5/classgame_player_1_1_view_controller.html#a4c1754d129a4eac955390b428eaa448a" target="_top" xlink:title="gamePlayer.ViewController.test\lPlayGame">
<polygon fill="white" stroke="black" points="1119.5,-146 1119.5,-176 1284.5,-176 1284.5,-146 1119.5,-146"/>
<text text-anchor="start" x="1127.5" y="-164" font-family="Helvetica,sans-Serif" font-size="10.00">gamePlayer.ViewController.test</text>
<text text-anchor="middle" x="1202" y="-153" font-family="Helvetica,sans-Serif" font-size="10.00">PlayGame</text>
</a>
</g>
</g>
<!-- Node14&#45;&gt;Node20 -->
<g id="edge23" class="edge"><title>Node14&#45;&gt;Node20</title>
<path fill="none" stroke="midnightblue" d="M1035.7,-241.367C1044.94,-238.14 1053.95,-234.087 1062,-229 1083.36,-215.496 1076.55,-198.357 1098,-185 1104.62,-180.875 1111.89,-177.458 1119.4,-174.628"/>
<polygon fill="midnightblue" stroke="midnightblue" points="1034.49,-238.079 1026.02,-244.441 1036.61,-244.751 1034.49,-238.079"/>
</g>
<!-- Node17&#45;&gt;Node5 -->
<g id="edge21" class="edge"><title>Node17&#45;&gt;Node5</title>
<path fill="none" stroke="midnightblue" d="M1104.42,-342.397C989.168,-335.308 791.276,-318.065 626,-278 592.791,-269.95 556.431,-255.916 530.802,-245.095"/>
<polygon fill="midnightblue" stroke="midnightblue" points="1104.44,-345.904 1114.63,-343.012 1104.86,-338.917 1104.44,-345.904"/>
</g>
<!-- Node18 -->
<g id="node18" class="node"><title>Node18</title>
<g id="a_node18"><a xlink:href="../../df/dd5/classgame_player_1_1_view_controller.html#a13ea7814bde61a8042c5b1a23af41416" target="_top" xlink:title="gamePlayer.ViewController.end\lAction">
<polygon fill="white" stroke="black" points="1357,-332 1357,-362 1521,-362 1521,-332 1357,-332"/>
<text text-anchor="start" x="1365" y="-350" font-family="Helvetica,sans-Serif" font-size="10.00">gamePlayer.ViewController.end</text>
<text text-anchor="middle" x="1439" y="-339" font-family="Helvetica,sans-Serif" font-size="10.00">Action</text>
</a>
</g>
</g>
<!-- Node17&#45;&gt;Node18 -->
<g id="edge19" class="edge"><title>Node17&#45;&gt;Node18</title>
<path fill="none" stroke="midnightblue" d="M1299.39,-347C1318.5,-347 1338.38,-347 1356.92,-347"/>
<polygon fill="midnightblue" stroke="midnightblue" points="1299.17,-343.5 1289.17,-347 1299.17,-350.5 1299.17,-343.5"/>
</g>
<!-- Node18&#45;&gt;Node3 -->
<g id="edge20" class="edge"><title>Node18&#45;&gt;Node3</title>
<path fill="none" stroke="midnightblue" d="M1531.38,-356.855C1545.44,-358.371 1559.76,-359.916 1573.28,-361.373"/>
<polygon fill="midnightblue" stroke="midnightblue" points="1531.53,-353.351 1521.21,-355.758 1530.78,-360.31 1531.53,-353.351"/>
</g>
<!-- Node21 -->
<g id="node21" class="node"><title>Node21</title>
<g id="a_node21"><a xlink:href="../../db/d40/classfxml__main_1_1_authoring_controller.html#a2ec133c8edf0a7ab1e84f2e12455233d" target="_top" xlink:title="fxml_main.AuthoringController.save\lAsGame">
<polygon fill="white" stroke="black" points="1345.5,-168 1345.5,-198 1532.5,-198 1532.5,-168 1345.5,-168"/>
<text text-anchor="start" x="1353.5" y="-186" font-family="Helvetica,sans-Serif" font-size="10.00">fxml_main.AuthoringController.save</text>
<text text-anchor="middle" x="1439" y="-175" font-family="Helvetica,sans-Serif" font-size="10.00">AsGame</text>
</a>
</g>
</g>
<!-- Node20&#45;&gt;Node21 -->
<g id="edge24" class="edge"><title>Node20&#45;&gt;Node21</title>
<path fill="none" stroke="midnightblue" d="M1294.77,-169.591C1311.38,-171.146 1328.7,-172.768 1345.34,-174.325"/>
<polygon fill="midnightblue" stroke="midnightblue" points="1294.81,-166.08 1284.53,-168.633 1294.16,-173.05 1294.81,-166.08"/>
</g>
<!-- Node22 -->
<g id="node22" class="node"><title>Node22</title>
<g id="a_node22"><a xlink:href="../../df/dd5/classgame_player_1_1_view_controller.html#a2bf1dce04187ad5eacb5359ef2b4eff8" target="_top" xlink:title="gamePlayer.ViewController.newGame">
<polygon fill="white" stroke="black" points="1342,-129.5 1342,-148.5 1536,-148.5 1536,-129.5 1342,-129.5"/>
<text text-anchor="middle" x="1439" y="-136.5" font-family="Helvetica,sans-Serif" font-size="10.00">gamePlayer.ViewController.newGame</text>
</a>
</g>
</g>
<!-- Node20&#45;&gt;Node22 -->
<g id="edge25" class="edge"><title>Node20&#45;&gt;Node22</title>
<path fill="none" stroke="midnightblue" d="M1294.58,-152.427C1310.03,-150.981 1326.1,-149.476 1341.66,-148.019"/>
<polygon fill="midnightblue" stroke="midnightblue" points="1294.16,-148.95 1284.53,-153.367 1294.81,-155.92 1294.16,-148.95"/>
</g>
<!-- Node23 -->
<g id="node23" class="node"><title>Node23</title>
<g id="a_node23"><a xlink:href="../../df/dd5/classgame_player_1_1_view_controller.html#a2acd822c93c35674b6978a97b4ce6e3f" target="_top" xlink:title="gamePlayer.ViewController.\lViewController">
<polygon fill="white" stroke="black" points="1572,-124 1572,-154 1718,-154 1718,-124 1572,-124"/>
<text text-anchor="start" x="1580" y="-142" font-family="Helvetica,sans-Serif" font-size="10.00">gamePlayer.ViewController.</text>
<text text-anchor="middle" x="1645" y="-131" font-family="Helvetica,sans-Serif" font-size="10.00">ViewController</text>
</a>
</g>
</g>
<!-- Node22&#45;&gt;Node23 -->
<g id="edge26" class="edge"><title>Node22&#45;&gt;Node23</title>
<path fill="none" stroke="midnightblue" d="M1546.24,-139C1554.94,-139 1563.59,-139 1571.95,-139"/>
<polygon fill="midnightblue" stroke="midnightblue" points="1546.03,-135.5 1536.03,-139 1546.03,-142.5 1546.03,-135.5"/>
</g>
<!-- Node25 -->
<g id="node25" class="node"><title>Node25</title>
<g id="a_node25"><a xlink:href="../../d5/dfb/classgame_player_1_1_game_grid_effect.html#a2d475fdcd2837d14f9883d0cbf7a3c74" target="_top" xlink:title="gamePlayer.GameGridEffect.grey\lOutPiece">
<polygon fill="white" stroke="black" points="636,-0 636,-30 812,-30 812,-0 636,-0"/>
<text text-anchor="start" x="644" y="-18" font-family="Helvetica,sans-Serif" font-size="10.00">gamePlayer.GameGridEffect.grey</text>
<text text-anchor="middle" x="724" y="-7" font-family="Helvetica,sans-Serif" font-size="10.00">OutPiece</text>
</a>
</g>
</g>
<!-- Node24&#45;&gt;Node25 -->
<g id="edge28" class="edge"><title>Node24&#45;&gt;Node25</title>
<path fill="none" stroke="midnightblue" d="M542.411,-69.2161C566.918,-59.4702 597.838,-47.7973 626,-39 636.184,-35.8187 647.073,-32.7809 657.74,-30.0011"/>
<polygon fill="midnightblue" stroke="midnightblue" points="540.992,-66.0143 533.012,-72.9841 543.596,-72.5116 540.992,-66.0143"/>
</g>
<!-- Node26 -->
<g id="node26" class="node"><title>Node26</title>
<g id="a_node26"><a xlink:href="../../d5/dfb/classgame_player_1_1_game_grid_effect.html#ae71ddafff23aecd0ee6697d732e0a919" target="_top" xlink:title="gamePlayer.GameGridEffect.highlight\lActionRange">
<polygon fill="white" stroke="black" points="626.5,-98 626.5,-128 821.5,-128 821.5,-98 626.5,-98"/>
<text text-anchor="start" x="634.5" y="-116" font-family="Helvetica,sans-Serif" font-size="10.00">gamePlayer.GameGridEffect.highlight</text>
<text text-anchor="middle" x="724" y="-105" font-family="Helvetica,sans-Serif" font-size="10.00">ActionRange</text>
</a>
</g>
</g>
<!-- Node24&#45;&gt;Node26 -->
<g id="edge29" class="edge"><title>Node24&#45;&gt;Node26</title>
<path fill="none" stroke="midnightblue" d="M600.341,-99.4315C608.997,-100.389 617.728,-101.355 626.331,-102.307"/>
<polygon fill="midnightblue" stroke="midnightblue" points="600.552,-95.9336 590.228,-98.3128 599.782,-102.891 600.552,-95.9336"/>
</g>
<!-- Node27 -->
<g id="node27" class="node"><title>Node27</title>
<g id="a_node27"><a xlink:href="../../d5/dfb/classgame_player_1_1_game_grid_effect.html#a1c6be8631bc6b597b5ed7dc9cd7e62fe" target="_top" xlink:title="gamePlayer.GameGridEffect.highlight\lCurrent">
<polygon fill="white" stroke="black" points="626.5,-49 626.5,-79 821.5,-79 821.5,-49 626.5,-49"/>
<text text-anchor="start" x="634.5" y="-67" font-family="Helvetica,sans-Serif" font-size="10.00">gamePlayer.GameGridEffect.highlight</text>
<text text-anchor="middle" x="724" y="-56" font-family="Helvetica,sans-Serif" font-size="10.00">Current</text>
</a>
</g>
</g>
<!-- Node24&#45;&gt;Node27 -->
<g id="edge31" class="edge"><title>Node24&#45;&gt;Node27</title>
<path fill="none" stroke="midnightblue" d="M600.341,-77.0257C608.997,-76.1065 617.728,-75.1793 626.331,-74.2657"/>
<polygon fill="midnightblue" stroke="midnightblue" points="599.802,-73.5632 590.228,-78.0997 600.541,-80.5241 599.802,-73.5632"/>
</g>
<!-- Node26&#45;&gt;Node7 -->
<g id="edge30" class="edge"><title>Node26&#45;&gt;Node7</title>
<path fill="none" stroke="midnightblue" d="M831.856,-113C846.844,-113 862.056,-113 876.498,-113"/>
<polygon fill="midnightblue" stroke="midnightblue" points="831.528,-109.5 821.528,-113 831.528,-116.5 831.528,-109.5"/>
</g>
<!-- Node28 -->
<g id="node28" class="node"><title>Node28</title>
<g id="a_node28"><a xlink:href="../../df/dd5/classgame_player_1_1_view_controller.html#ac39aa40a815b8d3d277aecffe6d63426" target="_top" xlink:title="gamePlayer.ViewController.highlight\lSelected">
<polygon fill="white" stroke="black" points="866.5,-27 866.5,-57 1053.5,-57 1053.5,-27 866.5,-27"/>
<text text-anchor="start" x="874.5" y="-45" font-family="Helvetica,sans-Serif" font-size="10.00">gamePlayer.ViewController.highlight</text>
<text text-anchor="middle" x="960" y="-34" font-family="Helvetica,sans-Serif" font-size="10.00">Selected</text>
</a>
</g>
</g>
<!-- Node27&#45;&gt;Node28 -->
<g id="edge32" class="edge"><title>Node27&#45;&gt;Node28</title>
<path fill="none" stroke="midnightblue" d="M831.683,-53.97C843.293,-52.8785 855.039,-51.7741 866.459,-50.7004"/>
<polygon fill="midnightblue" stroke="midnightblue" points="831.156,-50.504 821.528,-54.9247 831.811,-57.4732 831.156,-50.504"/>
</g>
<!-- Node28&#45;&gt;Node10 -->
<g id="edge33" class="edge"><title>Node28&#45;&gt;Node10</title>
<path fill="none" stroke="midnightblue" d="M1063.58,-37.0538C1154.41,-32.6743 1284.71,-26.3912 1365.21,-22.5096"/>
<polygon fill="midnightblue" stroke="midnightblue" points="1063.36,-33.5604 1053.54,-37.5381 1063.69,-40.5523 1063.36,-33.5604"/>
</g>
</g>
</svg>
