<?xml version="1.0" encoding="UTF-8" standalone="no"?>
<!DOCTYPE svg PUBLIC "-//W3C//DTD SVG 1.1//EN"
 "http://www.w3.org/Graphics/SVG/1.1/DTD/svg11.dtd">
<!-- Generated by graphviz version 2.36.0 (20140111.2315)
 -->
<!-- Title: gamePlayer.ViewController.getGridPane Pages: 1 -->
<!--zoomable 346 -->
<svg id="main" version="1.1" xmlns="http://www.w3.org/2000/svg" xmlns:xlink="http://www.w3.org/1999/xlink" xml:space="preserve" onload="init(evt)">
<style type="text/css"><![CDATA[
.edge:hover path { stroke: red; }
.edge:hover polygon { stroke: red; fill: red; }
]]></style>
<script type="text/javascript"><![CDATA[
var edges = document.getElementsByTagName('g');
if (edges && edges.length) {
  for (var i=0;i<edges.length;i++) {
    if (edges[i].id.substr(0,4)=='edge') {
      edges[i].setAttribute('class','edge');
    }
  }
}
]]></script>
        <defs>
                <circle id="rim" cx="0" cy="0" r="7"/>
                <circle id="rim2" cx="0" cy="0" r="3.5"/>
                <g id="zoomPlus">
                        <use xlink:href="#rim" fill="#404040">
                                <set attributeName="fill" to="#808080" begin="zoomplus.mouseover" end="zoomplus.mouseout"/>
                        </use>
                        <path d="M-4,0h8M0,-4v8" fill="none" stroke="white" stroke-width="1.5" pointer-events="none"/>
                </g>
                <g id="zoomMin">
                        <use xlink:href="#rim" fill="#404040">
                                <set attributeName="fill" to="#808080" begin="zoomminus.mouseover" end="zoomminus.mouseout"/>
                        </use>
                        <path d="M-4,0h8" fill="none" stroke="white" stroke-width="1.5" pointer-events="none"/>
                </g>
                <g id="dirArrow">
                        <path fill="none" stroke="white" stroke-width="1.5" d="M0,-3.0v7 M-2.5,-0.5L0,-3.0L2.5,-0.5"/>
                </g>
               <g id="resetDef">
                       <use xlink:href="#rim2" fill="#404040">
                               <set attributeName="fill" to="#808080" begin="reset.mouseover" end="reset.mouseout"/>
                       </use>
               </g>
        </defs>

<script type="text/javascript">
var viewWidth = 1718;
var viewHeight = 346;
var sectionId = 'dynsection-28';
</script>
<script xlink:href="../../svgpan.js"/>
<svg id="graph" class="graph">
<g id="viewport">
<title>gamePlayer.ViewController.getGridPane</title>
<polygon fill="white" stroke="none" points="-4,4 -4,-342 1714,-342 1714,4 -4,4"/>
<!-- Node1 -->
<g id="node1" class="node"><title>Node1</title>
<polygon fill="#bfbfbf" stroke="black" points="0,-193 0,-223 162,-223 162,-193 0,-193"/>
<text text-anchor="start" x="8" y="-211" font-family="Helvetica,sans-Serif" font-size="10.00">gamePlayer.ViewController.get</text>
<text text-anchor="middle" x="81" y="-200" font-family="Helvetica,sans-Serif" font-size="10.00">GridPane</text>
</g>
<!-- Node2 -->
<g id="node2" class="node"><title>Node2</title>
<g id="a_node2"><a xlink:href="../../db/d00/classgame_player_1_1_apply_state.html#ac9cc1c36c4c541a7a34361733704936c" target="_top" xlink:title="gamePlayer.ApplyState.Apply\lState">
<polygon fill="white" stroke="black" points="203,-237 203,-267 361,-267 361,-237 203,-237"/>
<text text-anchor="start" x="211" y="-255" font-family="Helvetica,sans-Serif" font-size="10.00">gamePlayer.ApplyState.Apply</text>
<text text-anchor="middle" x="282" y="-244" font-family="Helvetica,sans-Serif" font-size="10.00">State</text>
</a>
</g>
</g>
<!-- Node1&#45;&gt;Node2 -->
<g id="edge1" class="edge"><title>Node1&#45;&gt;Node2</title>
<path fill="none" stroke="midnightblue" d="M160.1,-225.268C177.589,-229.135 196.003,-233.207 213.041,-236.974"/>
<polygon fill="midnightblue" stroke="midnightblue" points="160.448,-221.761 149.928,-223.019 158.936,-228.596 160.448,-221.761"/>
</g>
<!-- Node3 -->
<g id="node3" class="node"><title>Node3</title>
<g id="a_node3"><a xlink:href="../../d1/db7/classgame_player_1_1_keyboard_action.html#a08ace57322b8639020688dd9493c3e1f" target="_top" xlink:title="gamePlayer.KeyboardAction.set\lActionKeyControl">
<polygon fill="white" stroke="black" points="198,-148 198,-178 366,-178 366,-148 198,-148"/>
<text text-anchor="start" x="206" y="-166" font-family="Helvetica,sans-Serif" font-size="10.00">gamePlayer.KeyboardAction.set</text>
<text text-anchor="middle" x="282" y="-155" font-family="Helvetica,sans-Serif" font-size="10.00">ActionKeyControl</text>
</a>
</g>
</g>
<!-- Node1&#45;&gt;Node3 -->
<g id="edge2" class="edge"><title>Node1&#45;&gt;Node3</title>
<path fill="none" stroke="midnightblue" d="M158.39,-190.726C176.891,-186.542 196.52,-182.104 214.522,-178.033"/>
<polygon fill="midnightblue" stroke="midnightblue" points="157.523,-187.334 148.541,-192.953 159.067,-194.161 157.523,-187.334"/>
</g>
<!-- Node5 -->
<g id="node5" class="node"><title>Node5</title>
<g id="a_node5"><a xlink:href="../../da/d55/classgame_player_1_1_keyboard_movement.html#af45fd8d279b1ee2d6be5466d425485ab" target="_top" xlink:title="gamePlayer.KeyboardMovement.set\lMovementKeyControl">
<polygon fill="white" stroke="black" points="624.5,-195 624.5,-225 813.5,-225 813.5,-195 624.5,-195"/>
<text text-anchor="start" x="632.5" y="-213" font-family="Helvetica,sans-Serif" font-size="10.00">gamePlayer.KeyboardMovement.set</text>
<text text-anchor="middle" x="719" y="-202" font-family="Helvetica,sans-Serif" font-size="10.00">MovementKeyControl</text>
</a>
</g>
</g>
<!-- Node1&#45;&gt;Node5 -->
<g id="edge26" class="edge"><title>Node1&#45;&gt;Node5</title>
<path fill="none" stroke="midnightblue" d="M172.476,-208.285C292.371,-208.662 502.857,-209.323 624.334,-209.705"/>
<polygon fill="midnightblue" stroke="midnightblue" points="172.239,-204.784 162.228,-208.252 172.217,-211.784 172.239,-204.784"/>
</g>
<!-- Node4 -->
<g id="node4" class="node"><title>Node4</title>
<g id="a_node4"><a xlink:href="../../df/dd5/classgame_player_1_1_view_controller.html#a95c2acd43bb39b8606c69971c1cd30f5" target="_top" xlink:title="gamePlayer.ViewController.perform\lAction">
<polygon fill="white" stroke="black" points="402.5,-148 402.5,-178 587.5,-178 587.5,-148 402.5,-148"/>
<text text-anchor="start" x="410.5" y="-166" font-family="Helvetica,sans-Serif" font-size="10.00">gamePlayer.ViewController.perform</text>
<text text-anchor="middle" x="495" y="-155" font-family="Helvetica,sans-Serif" font-size="10.00">Action</text>
</a>
</g>
</g>
<!-- Node3&#45;&gt;Node4 -->
<g id="edge3" class="edge"><title>Node3&#45;&gt;Node4</title>
<path fill="none" stroke="midnightblue" d="M376.192,-163C384.854,-163 393.628,-163 402.276,-163"/>
<polygon fill="midnightblue" stroke="midnightblue" points="376.09,-159.5 366.09,-163 376.09,-166.5 376.09,-159.5"/>
</g>
<!-- Node4&#45;&gt;Node5 -->
<g id="edge4" class="edge"><title>Node4&#45;&gt;Node5</title>
<path fill="none" stroke="midnightblue" d="M597.664,-177.795C624.104,-183.272 651.255,-189.413 673.06,-194.937"/>
<polygon fill="midnightblue" stroke="midnightblue" points="598.076,-174.307 587.578,-175.731 596.673,-181.165 598.076,-174.307"/>
</g>
<!-- Node12 -->
<g id="node12" class="node"><title>Node12</title>
<g id="a_node12"><a xlink:href="../../df/dd5/classgame_player_1_1_view_controller.html#a22ee80193bbac79a935ee961a183bfcd" target="_top" xlink:title="gamePlayer.ViewController.set\lOnClick">
<polygon fill="white" stroke="black" points="638.5,-146 638.5,-176 799.5,-176 799.5,-146 638.5,-146"/>
<text text-anchor="start" x="646.5" y="-164" font-family="Helvetica,sans-Serif" font-size="10.00">gamePlayer.ViewController.set</text>
<text text-anchor="middle" x="719" y="-153" font-family="Helvetica,sans-Serif" font-size="10.00">OnClick</text>
</a>
</g>
</g>
<!-- Node4&#45;&gt;Node12 -->
<g id="edge13" class="edge"><title>Node4&#45;&gt;Node12</title>
<path fill="none" stroke="midnightblue" d="M597.903,-162.082C611.469,-161.96 625.217,-161.836 638.331,-161.718"/>
<polygon fill="midnightblue" stroke="midnightblue" points="597.546,-158.585 587.578,-162.175 597.609,-165.585 597.546,-158.585"/>
</g>
<!-- Node5&#45;&gt;Node4 -->
<g id="edge11" class="edge"><title>Node5&#45;&gt;Node4</title>
<path fill="none" stroke="midnightblue" d="M614.245,-194.771C588.463,-189.404 562.158,-183.439 540.925,-178.06"/>
<polygon fill="midnightblue" stroke="midnightblue" points="613.588,-198.209 624.088,-196.796 614.999,-191.353 613.588,-198.209"/>
</g>
<!-- Node6 -->
<g id="node6" class="node"><title>Node6</title>
<g id="a_node6"><a xlink:href="../../df/dd5/classgame_player_1_1_view_controller.html#a7eb038fd9f20604ade0406f27ef76657" target="_top" xlink:title="gamePlayer.ViewController.bind\lAction">
<polygon fill="white" stroke="black" points="868.5,-195 868.5,-225 1035.5,-225 1035.5,-195 868.5,-195"/>
<text text-anchor="start" x="876.5" y="-213" font-family="Helvetica,sans-Serif" font-size="10.00">gamePlayer.ViewController.bind</text>
<text text-anchor="middle" x="952" y="-202" font-family="Helvetica,sans-Serif" font-size="10.00">Action</text>
</a>
</g>
</g>
<!-- Node5&#45;&gt;Node6 -->
<g id="edge5" class="edge"><title>Node5&#45;&gt;Node6</title>
<path fill="none" stroke="midnightblue" d="M823.89,-210C838.798,-210 853.967,-210 868.389,-210"/>
<polygon fill="midnightblue" stroke="midnightblue" points="823.624,-206.5 813.624,-210 823.624,-213.5 823.624,-206.5"/>
</g>
<!-- Node11 -->
<g id="node11" class="node"><title>Node11</title>
<g id="a_node11"><a xlink:href="../../df/dd5/classgame_player_1_1_view_controller.html#a27da17c1280cd953a14f6b76b18f9a4b" target="_top" xlink:title="gamePlayer.ViewController.toggle\lKeyboardControl">
<polygon fill="white" stroke="black" points="864,-244 864,-274 1040,-274 1040,-244 864,-244"/>
<text text-anchor="start" x="872" y="-262" font-family="Helvetica,sans-Serif" font-size="10.00">gamePlayer.ViewController.toggle</text>
<text text-anchor="middle" x="952" y="-251" font-family="Helvetica,sans-Serif" font-size="10.00">KeyboardControl</text>
</a>
</g>
</g>
<!-- Node5&#45;&gt;Node11 -->
<g id="edge12" class="edge"><title>Node5&#45;&gt;Node11</title>
<path fill="none" stroke="midnightblue" d="M800.674,-227.113C826.597,-232.611 855.102,-238.658 880.257,-243.994"/>
<polygon fill="midnightblue" stroke="midnightblue" points="801.386,-223.686 790.877,-225.035 799.934,-230.534 801.386,-223.686"/>
</g>
<!-- Node6&#45;&gt;Node3 -->
<g id="edge7" class="edge"><title>Node6&#45;&gt;Node3</title>
<path fill="none" stroke="midnightblue" d="M914.894,-189.928C876.175,-168.491 819.474,-137.384 814,-136 649.336,-94.3712 447.061,-126.532 346.307,-147.915"/>
<polygon fill="midnightblue" stroke="midnightblue" points="913.38,-193.091 923.823,-194.877 916.773,-186.968 913.38,-193.091"/>
</g>
<!-- Node7 -->
<g id="node7" class="node"><title>Node7</title>
<g id="a_node7"><a xlink:href="../../df/df0/classtests_1_1_view_controller_test.html#a74e99f9c72cbdcd2d56271b2ad2df1ce" target="_top" xlink:title="tests.ViewControllerTest.bind\lActionTest">
<polygon fill="white" stroke="black" points="1117,-235 1117,-265 1271,-265 1271,-235 1117,-235"/>
<text text-anchor="start" x="1125" y="-253" font-family="Helvetica,sans-Serif" font-size="10.00">tests.ViewControllerTest.bind</text>
<text text-anchor="middle" x="1194" y="-242" font-family="Helvetica,sans-Serif" font-size="10.00">ActionTest</text>
</a>
</g>
</g>
<!-- Node6&#45;&gt;Node7 -->
<g id="edge6" class="edge"><title>Node6&#45;&gt;Node7</title>
<path fill="none" stroke="midnightblue" d="M1045.57,-225.429C1069.09,-229.349 1094.1,-233.516 1116.71,-237.284"/>
<polygon fill="midnightblue" stroke="midnightblue" points="1046.03,-221.957 1035.59,-223.766 1044.88,-228.862 1046.03,-221.957"/>
</g>
<!-- Node8 -->
<g id="node8" class="node"><title>Node8</title>
<g id="a_node8"><a xlink:href="../../df/dd5/classgame_player_1_1_view_controller.html#ab8c14a8c53be9021a62d0107c2f75ef6" target="_top" xlink:title="gamePlayer.ViewController.update\lActions">
<polygon fill="white" stroke="black" points="1104,-284 1104,-314 1284,-314 1284,-284 1104,-284"/>
<text text-anchor="start" x="1112" y="-302" font-family="Helvetica,sans-Serif" font-size="10.00">gamePlayer.ViewController.update</text>
<text text-anchor="middle" x="1194" y="-291" font-family="Helvetica,sans-Serif" font-size="10.00">Actions</text>
</a>
</g>
</g>
<!-- Node6&#45;&gt;Node8 -->
<g id="edge8" class="edge"><title>Node6&#45;&gt;Node8</title>
<path fill="none" stroke="midnightblue" d="M1042.36,-228.967C1046.38,-230.796 1050.28,-232.802 1054,-235 1074.3,-247.007 1069.67,-262.039 1090,-274 1096.58,-277.872 1103.74,-281.146 1111.11,-283.913"/>
<polygon fill="midnightblue" stroke="midnightblue" points="1043.36,-225.596 1032.78,-225.008 1040.69,-232.064 1043.36,-225.596"/>
</g>
<!-- Node9 -->
<g id="node9" class="node"><title>Node9</title>
<g id="a_node9"><a xlink:href="../../d6/d24/classgame_player_1_1_select_state.html#a801827392f0faeee6b96925060d77838" target="_top" xlink:title="gamePlayer.SelectState.on\lClick">
<polygon fill="white" stroke="black" points="1357.5,-259 1357.5,-289 1504.5,-289 1504.5,-259 1357.5,-259"/>
<text text-anchor="start" x="1365.5" y="-277" font-family="Helvetica,sans-Serif" font-size="10.00">gamePlayer.SelectState.on</text>
<text text-anchor="middle" x="1431" y="-266" font-family="Helvetica,sans-Serif" font-size="10.00">Click</text>
</a>
</g>
</g>
<!-- Node8&#45;&gt;Node9 -->
<g id="edge9" class="edge"><title>Node8&#45;&gt;Node9</title>
<path fill="none" stroke="midnightblue" d="M1294.17,-288.45C1315.35,-286.197 1337.34,-283.858 1357.3,-281.734"/>
<polygon fill="midnightblue" stroke="midnightblue" points="1293.75,-284.975 1284.18,-289.513 1294.49,-291.935 1293.75,-284.975"/>
</g>
<!-- Node10 -->
<g id="node10" class="node"><title>Node10</title>
<g id="a_node10"><a xlink:href="../../df/df0/classtests_1_1_view_controller_test.html#a785df2c49a72c183c22163ce927f5df1" target="_top" xlink:title="tests.ViewControllerTest.update\lActionsTest">
<polygon fill="white" stroke="black" points="1347.5,-308 1347.5,-338 1514.5,-338 1514.5,-308 1347.5,-308"/>
<text text-anchor="start" x="1355.5" y="-326" font-family="Helvetica,sans-Serif" font-size="10.00">tests.ViewControllerTest.update</text>
<text text-anchor="middle" x="1431" y="-315" font-family="Helvetica,sans-Serif" font-size="10.00">ActionsTest</text>
</a>
</g>
</g>
<!-- Node8&#45;&gt;Node10 -->
<g id="edge10" class="edge"><title>Node8&#45;&gt;Node10</title>
<path fill="none" stroke="midnightblue" d="M1294.49,-309.161C1312.14,-310.963 1330.34,-312.822 1347.46,-314.57"/>
<polygon fill="midnightblue" stroke="midnightblue" points="1294.48,-305.642 1284.18,-308.108 1293.77,-312.606 1294.48,-305.642"/>
</g>
<!-- Node13 -->
<g id="node13" class="node"><title>Node13</title>
<g id="a_node13"><a xlink:href="../../df/dd5/classgame_player_1_1_view_controller.html#a10a40967a873f067cf91b024ff85b38e" target="_top" xlink:title="gamePlayer.ViewController.initializeGrid">
<polygon fill="white" stroke="black" points="850,-125.5 850,-144.5 1054,-144.5 1054,-125.5 850,-125.5"/>
<text text-anchor="middle" x="952" y="-132.5" font-family="Helvetica,sans-Serif" font-size="10.00">gamePlayer.ViewController.initializeGrid</text>
</a>
</g>
</g>
<!-- Node12&#45;&gt;Node13 -->
<g id="edge14" class="edge"><title>Node12&#45;&gt;Node13</title>
<path fill="none" stroke="midnightblue" d="M809.77,-150.896C828.416,-148.797 848.004,-146.593 866.454,-144.516"/>
<polygon fill="midnightblue" stroke="midnightblue" points="809.366,-147.419 799.821,-152.016 810.149,-154.375 809.366,-147.419"/>
</g>
<!-- Node14 -->
<g id="node14" class="node"><title>Node14</title>
<g id="a_node14"><a xlink:href="../../df/dd5/classgame_player_1_1_view_controller.html#aabf431713b65ec510f1cb2df12da4e45" target="_top" xlink:title="gamePlayer.ViewController.test\lPlayGameInTab">
<polygon fill="white" stroke="black" points="1111.5,-186 1111.5,-216 1276.5,-216 1276.5,-186 1111.5,-186"/>
<text text-anchor="start" x="1119.5" y="-204" font-family="Helvetica,sans-Serif" font-size="10.00">gamePlayer.ViewController.test</text>
<text text-anchor="middle" x="1194" y="-193" font-family="Helvetica,sans-Serif" font-size="10.00">PlayGameInTab</text>
</a>
</g>
</g>
<!-- Node13&#45;&gt;Node14 -->
<g id="edge15" class="edge"><title>Node13&#45;&gt;Node14</title>
<path fill="none" stroke="midnightblue" d="M992.912,-147.55C1020.16,-155.967 1057.13,-167.1 1090,-176 1102.52,-179.391 1115.96,-182.81 1128.86,-185.985"/>
<polygon fill="midnightblue" stroke="midnightblue" points="993.928,-144.2 983.34,-144.58 991.854,-150.886 993.928,-144.2"/>
</g>
<!-- Node15 -->
<g id="node15" class="node"><title>Node15</title>
<g id="a_node15"><a xlink:href="../../df/dd5/classgame_player_1_1_view_controller.html#a0d1a3d443966f151b070dc751d2faf9a" target="_top" xlink:title="gamePlayer.ViewController.restartGame">
<polygon fill="white" stroke="black" points="1090,-147.5 1090,-166.5 1298,-166.5 1298,-147.5 1090,-147.5"/>
<text text-anchor="middle" x="1194" y="-154.5" font-family="Helvetica,sans-Serif" font-size="10.00">gamePlayer.ViewController.restartGame</text>
</a>
</g>
</g>
<!-- Node13&#45;&gt;Node15 -->
<g id="edge16" class="edge"><title>Node13&#45;&gt;Node15</title>
<path fill="none" stroke="midnightblue" d="M1064.08,-145.182C1072.62,-145.966 1081.23,-146.754 1089.72,-147.533"/>
<polygon fill="midnightblue" stroke="midnightblue" points="1064.36,-141.694 1054.09,-144.266 1063.72,-148.665 1064.36,-141.694"/>
</g>
<!-- Node16 -->
<g id="node16" class="node"><title>Node16</title>
<g id="a_node16"><a xlink:href="../../df/dd5/classgame_player_1_1_view_controller.html#a620f8a02d3ac7677cd179fcd812aca55" target="_top" xlink:title="gamePlayer.ViewController.check\lEndActions">
<polygon fill="white" stroke="black" points="1107,-0 1107,-30 1281,-30 1281,-0 1107,-0"/>
<text text-anchor="start" x="1115" y="-18" font-family="Helvetica,sans-Serif" font-size="10.00">gamePlayer.ViewController.check</text>
<text text-anchor="middle" x="1194" y="-7" font-family="Helvetica,sans-Serif" font-size="10.00">EndActions</text>
</a>
</g>
</g>
<!-- Node13&#45;&gt;Node16 -->
<g id="edge17" class="edge"><title>Node13&#45;&gt;Node16</title>
<path fill="none" stroke="midnightblue" d="M989.734,-121.521C1009.99,-112.983 1034.83,-100.604 1054,-85 1074.13,-68.6111 1068.11,-52.9621 1090,-39 1095.42,-35.5438 1101.28,-32.5841 1107.36,-30.0497"/>
<polygon fill="midnightblue" stroke="midnightblue" points="988.148,-118.387 980.207,-125.401 990.788,-124.87 988.148,-118.387"/>
</g>
<!-- Node19 -->
<g id="node19" class="node"><title>Node19</title>
<g id="a_node19"><a xlink:href="../../df/dd5/classgame_player_1_1_view_controller.html#adc15cd81cefb88c58f9d3b7478328df8" target="_top" xlink:title="gamePlayer.ViewController.test\lPlayGUIGame">
<polygon fill="white" stroke="black" points="1111.5,-98 1111.5,-128 1276.5,-128 1276.5,-98 1111.5,-98"/>
<text text-anchor="start" x="1119.5" y="-116" font-family="Helvetica,sans-Serif" font-size="10.00">gamePlayer.ViewController.test</text>
<text text-anchor="middle" x="1194" y="-105" font-family="Helvetica,sans-Serif" font-size="10.00">PlayGUIGame</text>
</a>
</g>
</g>
<!-- Node13&#45;&gt;Node19 -->
<g id="edge21" class="edge"><title>Node13&#45;&gt;Node19</title>
<path fill="none" stroke="midnightblue" d="M1064.43,-124.786C1080.23,-123.338 1096.22,-121.871 1111.32,-120.488"/>
<polygon fill="midnightblue" stroke="midnightblue" points="1063.72,-121.335 1054.09,-125.734 1064.36,-128.306 1063.72,-121.335"/>
</g>
<!-- Node20 -->
<g id="node20" class="node"><title>Node20</title>
<g id="a_node20"><a xlink:href="../../df/dd5/classgame_player_1_1_view_controller.html#a4c1754d129a4eac955390b428eaa448a" target="_top" xlink:title="gamePlayer.ViewController.test\lPlayGame">
<polygon fill="white" stroke="black" points="1111.5,-49 1111.5,-79 1276.5,-79 1276.5,-49 1111.5,-49"/>
<text text-anchor="start" x="1119.5" y="-67" font-family="Helvetica,sans-Serif" font-size="10.00">gamePlayer.ViewController.test</text>
<text text-anchor="middle" x="1194" y="-56" font-family="Helvetica,sans-Serif" font-size="10.00">PlayGame</text>
</a>
</g>
</g>
<!-- Node13&#45;&gt;Node20 -->
<g id="edge22" class="edge"><title>Node13&#45;&gt;Node20</title>
<path fill="none" stroke="midnightblue" d="M987.818,-121.959C1015.32,-111.924 1054.81,-98.1087 1090,-88 1100.94,-84.8573 1112.62,-81.8291 1124.05,-79.0443"/>
<polygon fill="midnightblue" stroke="midnightblue" points="986.437,-118.738 978.257,-125.471 988.85,-125.309 986.437,-118.738"/>
</g>
<!-- Node16&#45;&gt;Node4 -->
<g id="edge20" class="edge"><title>Node16&#45;&gt;Node4</title>
<path fill="none" stroke="midnightblue" d="M1112.08,-32.1827C974.433,-61.4102 696.997,-120.321 566.668,-147.995"/>
<polygon fill="midnightblue" stroke="midnightblue" points="1113.09,-35.546 1122.15,-30.0452 1111.64,-28.6987 1113.09,-35.546"/>
</g>
<!-- Node17 -->
<g id="node17" class="node"><title>Node17</title>
<g id="a_node17"><a xlink:href="../../df/dd5/classgame_player_1_1_view_controller.html#a13ea7814bde61a8042c5b1a23af41416" target="_top" xlink:title="gamePlayer.ViewController.end\lAction">
<polygon fill="white" stroke="black" points="1349,-0 1349,-30 1513,-30 1513,-0 1349,-0"/>
<text text-anchor="start" x="1357" y="-18" font-family="Helvetica,sans-Serif" font-size="10.00">gamePlayer.ViewController.end</text>
<text text-anchor="middle" x="1431" y="-7" font-family="Helvetica,sans-Serif" font-size="10.00">Action</text>
</a>
</g>
</g>
<!-- Node16&#45;&gt;Node17 -->
<g id="edge18" class="edge"><title>Node16&#45;&gt;Node17</title>
<path fill="none" stroke="midnightblue" d="M1291.39,-15C1310.5,-15 1330.38,-15 1348.92,-15"/>
<polygon fill="midnightblue" stroke="midnightblue" points="1291.17,-11.5001 1281.17,-15 1291.17,-18.5001 1291.17,-11.5001"/>
</g>
<!-- Node18 -->
<g id="node18" class="node"><title>Node18</title>
<g id="a_node18"><a xlink:href="../../db/d00/classgame_player_1_1_apply_state.html#aed42c1aba25264bc6880036f693a1c9e" target="_top" xlink:title="gamePlayer.ApplyState.on\lClick">
<polygon fill="white" stroke="black" points="1565.5,-0 1565.5,-30 1708.5,-30 1708.5,-0 1565.5,-0"/>
<text text-anchor="start" x="1573.5" y="-18" font-family="Helvetica,sans-Serif" font-size="10.00">gamePlayer.ApplyState.on</text>
<text text-anchor="middle" x="1637" y="-7" font-family="Helvetica,sans-Serif" font-size="10.00">Click</text>
</a>
</g>
</g>
<!-- Node17&#45;&gt;Node18 -->
<g id="edge19" class="edge"><title>Node17&#45;&gt;Node18</title>
<path fill="none" stroke="midnightblue" d="M1523.38,-15C1537.44,-15 1551.76,-15 1565.28,-15"/>
<polygon fill="midnightblue" stroke="midnightblue" points="1523.21,-11.5001 1513.21,-15 1523.21,-18.5001 1523.21,-11.5001"/>
</g>
<!-- Node21 -->
<g id="node21" class="node"><title>Node21</title>
<g id="a_node21"><a xlink:href="../../db/d40/classfxml__main_1_1_authoring_controller.html#a2ec133c8edf0a7ab1e84f2e12455233d" target="_top" xlink:title="fxml_main.AuthoringController.save\lAsGame">
<polygon fill="white" stroke="black" points="1337.5,-93 1337.5,-123 1524.5,-123 1524.5,-93 1337.5,-93"/>
<text text-anchor="start" x="1345.5" y="-111" font-family="Helvetica,sans-Serif" font-size="10.00">fxml_main.AuthoringController.save</text>
<text text-anchor="middle" x="1431" y="-100" font-family="Helvetica,sans-Serif" font-size="10.00">AsGame</text>
</a>
</g>
</g>
<!-- Node20&#45;&gt;Node21 -->
<g id="edge23" class="edge"><title>Node20&#45;&gt;Node21</title>
<path fill="none" stroke="midnightblue" d="M1285.21,-80.8897C1306.46,-84.8685 1328.97,-89.0834 1349.75,-92.9738"/>
<polygon fill="midnightblue" stroke="midnightblue" points="1285.69,-77.4195 1275.22,-79.0192 1284.4,-84.2999 1285.69,-77.4195"/>
</g>
<!-- Node22 -->
<g id="node22" class="node"><title>Node22</title>
<g id="a_node22"><a xlink:href="../../df/dd5/classgame_player_1_1_view_controller.html#a2bf1dce04187ad5eacb5359ef2b4eff8" target="_top" xlink:title="gamePlayer.ViewController.newGame">
<polygon fill="white" stroke="black" points="1334,-54.5 1334,-73.5 1528,-73.5 1528,-54.5 1334,-54.5"/>
<text text-anchor="middle" x="1431" y="-61.5" font-family="Helvetica,sans-Serif" font-size="10.00">gamePlayer.ViewController.newGame</text>
</a>
</g>
</g>
<!-- Node20&#45;&gt;Node22 -->
<g id="edge24" class="edge"><title>Node20&#45;&gt;Node22</title>
<path fill="none" stroke="midnightblue" d="M1286.58,-64C1302.03,-64 1318.1,-64 1333.66,-64"/>
<polygon fill="midnightblue" stroke="midnightblue" points="1286.53,-60.5001 1276.53,-64 1286.53,-67.5001 1286.53,-60.5001"/>
</g>
<!-- Node23 -->
<g id="node23" class="node"><title>Node23</title>
<g id="a_node23"><a xlink:href="../../df/dd5/classgame_player_1_1_view_controller.html#a2acd822c93c35674b6978a97b4ce6e3f" target="_top" xlink:title="gamePlayer.ViewController.\lViewController">
<polygon fill="white" stroke="black" points="1564,-49 1564,-79 1710,-79 1710,-49 1564,-49"/>
<text text-anchor="start" x="1572" y="-67" font-family="Helvetica,sans-Serif" font-size="10.00">gamePlayer.ViewController.</text>
<text text-anchor="middle" x="1637" y="-56" font-family="Helvetica,sans-Serif" font-size="10.00">ViewController</text>
</a>
</g>
</g>
<!-- Node22&#45;&gt;Node23 -->
<g id="edge25" class="edge"><title>Node22&#45;&gt;Node23</title>
<path fill="none" stroke="midnightblue" d="M1538.24,-64C1546.94,-64 1555.59,-64 1563.95,-64"/>
<polygon fill="midnightblue" stroke="midnightblue" points="1538.03,-60.5001 1528.03,-64 1538.03,-67.5001 1538.03,-60.5001"/>
</g>
</g>
</svg>
        <g id="navigator" transform="translate(0 0)" fill="#404254">
                <rect fill="#f2f5e9" fill-opacity="0.5" stroke="#606060" stroke-width=".5" x="0" y="0" width="60" height="60"/>
                <use id="zoomplus" xlink:href="#zoomPlus" x="17" y="9" onmousedown="handleZoom(evt,'in')"/>
                <use id="zoomminus" xlink:href="#zoomMin" x="42" y="9" onmousedown="handleZoom(evt,'out')"/>
                <use id="reset" xlink:href="#resetDef" x="30" y="36" onmousedown="handleReset()"/>
                <g id="arrowUp" xlink:href="#dirArrow" transform="translate(30 24)" onmousedown="handlePan(0,-1)">
                  <use xlink:href="#rim" fill="#404040">
                        <set attributeName="fill" to="#808080" begin="arrowUp.mouseover" end="arrowUp.mouseout"/>
                  </use>
                  <path fill="none" stroke="white" stroke-width="1.5" d="M0,-3.0v7 M-2.5,-0.5L0,-3.0L2.5,-0.5"/>
                </g>
                <g id="arrowRight" xlink:href="#dirArrow" transform="rotate(90) translate(36 -43)" onmousedown="handlePan(1,0)">
                  <use xlink:href="#rim" fill="#404040">
                        <set attributeName="fill" to="#808080" begin="arrowRight.mouseover" end="arrowRight.mouseout"/>
                  </use>
                  <path fill="none" stroke="white" stroke-width="1.5" d="M0,-3.0v7 M-2.5,-0.5L0,-3.0L2.5,-0.5"/>
                </g>
                <g id="arrowDown" xlink:href="#dirArrow" transform="rotate(180) translate(-30 -48)" onmousedown="handlePan(0,1)">
                  <use xlink:href="#rim" fill="#404040">
                        <set attributeName="fill" to="#808080" begin="arrowDown.mouseover" end="arrowDown.mouseout"/>
                  </use>
                  <path fill="none" stroke="white" stroke-width="1.5" d="M0,-3.0v7 M-2.5,-0.5L0,-3.0L2.5,-0.5"/>
                </g>
                <g id="arrowLeft" xlink:href="#dirArrow" transform="rotate(270) translate(-36 17)" onmousedown="handlePan(-1,0)">
                  <use xlink:href="#rim" fill="#404040">
                        <set attributeName="fill" to="#808080" begin="arrowLeft.mouseover" end="arrowLeft.mouseout"/>
                  </use>
                  <path fill="none" stroke="white" stroke-width="1.5" d="M0,-3.0v7 M-2.5,-0.5L0,-3.0L2.5,-0.5"/>
                </g>
        </g>
        <svg viewBox="0 0 15 15" width="100%" height="30px" preserveAspectRatio="xMaxYMin meet">
         <g id="arrow_out" transform="scale(0.3 0.3)">
          <a xlink:href="classgame_player_1_1_view_controller_af38e87743eb81e64e79ff0a7b3477c27_icgraph_org.svg" target="_base">
           <rect id="button" ry="5" rx="5" y="6" x="6" height="38" width="38"
                fill="#f2f5e9" fill-opacity="0.5" stroke="#606060" stroke-width="1.0"/>
           <path id="arrow"
             d="M 11.500037,31.436501 C 11.940474,20.09759 22.043105,11.32322 32.158766,21.979434 L 37.068811,17.246167 C 37.068811,17.246167 37.088388,32 37.088388,32 L 22.160133,31.978069 C 22.160133,31.978069 26.997745,27.140456 26.997745,27.140456 C 18.528582,18.264221 13.291696,25.230495 11.500037,31.436501 z"
             style="fill:#404040;"/>
          </a>
         </g>
        </svg>
</svg>
