<?xml version="1.0" encoding="UTF-8" standalone="no"?>
<!DOCTYPE svg PUBLIC "-//W3C//DTD SVG 1.1//EN"
 "http://www.w3.org/Graphics/SVG/1.1/DTD/svg11.dtd">
<!-- Generated by graphviz version 2.36.0 (20140111.2315)
 -->
<!-- Title: gamePlayer.ViewController.getActivePiece Pages: 1 -->
<svg width="1718pt" height="440pt"
 viewBox="0.00 0.00 1718.00 440.00" xmlns="http://www.w3.org/2000/svg" xmlns:xlink="http://www.w3.org/1999/xlink">
<g id="graph0" class="graph" transform="scale(1 1) rotate(0) translate(4 436)">
<title>gamePlayer.ViewController.getActivePiece</title>
<polygon fill="white" stroke="none" points="-4,4 -4,-436 1714,-436 1714,4 -4,4"/>
<!-- Node1 -->
<g id="node1" class="node"><title>Node1</title>
<polygon fill="#bfbfbf" stroke="black" points="0,-283 0,-313 162,-313 162,-283 0,-283"/>
<text text-anchor="start" x="8" y="-301" font-family="Helvetica,sans-Serif" font-size="10.00">gamePlayer.ViewController.get</text>
<text text-anchor="middle" x="81" y="-290" font-family="Helvetica,sans-Serif" font-size="10.00">ActivePiece</text>
</g>
<!-- Node2 -->
<g id="node2" class="node"><title>Node2</title>
<g id="a_node2"><a xlink:href="../../d5/dfb/classgame_player_1_1_game_grid_effect.html#a06a39915dc8d5d6b82fdca29ca2733df" target="_top" xlink:title="gamePlayer.GameGridEffect.\lGameGridEffect">
<polygon fill="white" stroke="black" points="204.5,-402 204.5,-432 359.5,-432 359.5,-402 204.5,-402"/>
<text text-anchor="start" x="212.5" y="-420" font-family="Helvetica,sans-Serif" font-size="10.00">gamePlayer.GameGridEffect.</text>
<text text-anchor="middle" x="282" y="-409" font-family="Helvetica,sans-Serif" font-size="10.00">GameGridEffect</text>
</a>
</g>
</g>
<!-- Node1&#45;&gt;Node2 -->
<g id="edge1" class="edge"><title>Node1&#45;&gt;Node2</title>
<path fill="none" stroke="midnightblue" d="M105.817,-319.822C128.254,-339.484 163.491,-368.119 198,-387 208.485,-392.736 220.285,-397.762 231.627,-401.978"/>
<polygon fill="midnightblue" stroke="midnightblue" points="107.956,-317.041 98.1541,-313.019 103.308,-322.276 107.956,-317.041"/>
</g>
<!-- Node3 -->
<g id="node3" class="node"><title>Node3</title>
<g id="a_node3"><a xlink:href="../../db/d00/classgame_player_1_1_apply_state.html#aed42c1aba25264bc6880036f693a1c9e" target="_top" xlink:title="gamePlayer.ApplyState.on\lClick">
<polygon fill="white" stroke="black" points="1566.5,-292 1566.5,-322 1709.5,-322 1709.5,-292 1566.5,-292"/>
<text text-anchor="start" x="1574.5" y="-310" font-family="Helvetica,sans-Serif" font-size="10.00">gamePlayer.ApplyState.on</text>
<text text-anchor="middle" x="1638" y="-299" font-family="Helvetica,sans-Serif" font-size="10.00">Click</text>
</a>
</g>
</g>
<!-- Node1&#45;&gt;Node3 -->
<g id="edge2" class="edge"><title>Node1&#45;&gt;Node3</title>
<path fill="none" stroke="midnightblue" d="M141.881,-315.86C221.679,-338.043 367.634,-373 495,-373 495,-373 495,-373 1203,-373 1337.71,-373 1493.29,-341.538 1576.7,-322.059"/>
<polygon fill="midnightblue" stroke="midnightblue" points="142.586,-312.422 132.012,-313.087 140.693,-319.161 142.586,-312.422"/>
</g>
<!-- Node4 -->
<g id="node4" class="node"><title>Node4</title>
<g id="a_node4"><a xlink:href="../../d1/db7/classgame_player_1_1_keyboard_action.html#a08ace57322b8639020688dd9493c3e1f" target="_top" xlink:title="gamePlayer.KeyboardAction.set\lActionKeyControl">
<polygon fill="white" stroke="black" points="198,-208 198,-238 366,-238 366,-208 198,-208"/>
<text text-anchor="start" x="206" y="-226" font-family="Helvetica,sans-Serif" font-size="10.00">gamePlayer.KeyboardAction.set</text>
<text text-anchor="middle" x="282" y="-215" font-family="Helvetica,sans-Serif" font-size="10.00">ActionKeyControl</text>
</a>
</g>
</g>
<!-- Node1&#45;&gt;Node4 -->
<g id="edge3" class="edge"><title>Node1&#45;&gt;Node4</title>
<path fill="none" stroke="midnightblue" d="M131.95,-279.175C165.717,-266.448 209.708,-249.869 241.129,-238.027"/>
<polygon fill="midnightblue" stroke="midnightblue" points="130.394,-276.021 122.271,-282.823 132.862,-282.571 130.394,-276.021"/>
</g>
<!-- Node21 -->
<g id="node21" class="node"><title>Node21</title>
<g id="a_node21"><a xlink:href="../../d5/dfb/classgame_player_1_1_game_grid_effect.html#a5e34f8b7cca52de2db06626494e76457" target="_top" xlink:title="gamePlayer.GameGridEffect.update\lActives">
<polygon fill="white" stroke="black" points="402,-73 402,-103 590,-103 590,-73 402,-73"/>
<text text-anchor="start" x="410" y="-91" font-family="Helvetica,sans-Serif" font-size="10.00">gamePlayer.GameGridEffect.update</text>
<text text-anchor="middle" x="496" y="-80" font-family="Helvetica,sans-Serif" font-size="10.00">Actives</text>
</a>
</g>
</g>
<!-- Node1&#45;&gt;Node21 -->
<g id="edge24" class="edge"><title>Node1&#45;&gt;Node21</title>
<path fill="none" stroke="midnightblue" d="M103.196,-275.531C125.153,-253.328 161.333,-219.636 198,-198 275.072,-152.523 374.186,-120.411 436.166,-103.05"/>
<polygon fill="midnightblue" stroke="midnightblue" points="100.519,-273.262 96.0451,-282.866 105.532,-278.149 100.519,-273.262"/>
</g>
<!-- Node5 -->
<g id="node5" class="node"><title>Node5</title>
<g id="a_node5"><a xlink:href="../../df/dd5/classgame_player_1_1_view_controller.html#a95c2acd43bb39b8606c69971c1cd30f5" target="_top" xlink:title="gamePlayer.ViewController.perform\lAction">
<polygon fill="white" stroke="black" points="403.5,-208 403.5,-238 588.5,-238 588.5,-208 403.5,-208"/>
<text text-anchor="start" x="411.5" y="-226" font-family="Helvetica,sans-Serif" font-size="10.00">gamePlayer.ViewController.perform</text>
<text text-anchor="middle" x="496" y="-215" font-family="Helvetica,sans-Serif" font-size="10.00">Action</text>
</a>
</g>
</g>
<!-- Node4&#45;&gt;Node5 -->
<g id="edge4" class="edge"><title>Node4&#45;&gt;Node5</title>
<path fill="none" stroke="midnightblue" d="M376.252,-223C385.232,-223 394.336,-223 403.301,-223"/>
<polygon fill="midnightblue" stroke="midnightblue" points="376.18,-219.5 366.18,-223 376.18,-226.5 376.18,-219.5"/>
</g>
<!-- Node6 -->
<g id="node6" class="node"><title>Node6</title>
<g id="a_node6"><a xlink:href="../../da/d55/classgame_player_1_1_keyboard_movement.html#af45fd8d279b1ee2d6be5466d425485ab" target="_top" xlink:title="gamePlayer.KeyboardMovement.set\lMovementKeyControl">
<polygon fill="white" stroke="black" points="629.5,-186 629.5,-216 818.5,-216 818.5,-186 629.5,-186"/>
<text text-anchor="start" x="637.5" y="-204" font-family="Helvetica,sans-Serif" font-size="10.00">gamePlayer.KeyboardMovement.set</text>
<text text-anchor="middle" x="724" y="-193" font-family="Helvetica,sans-Serif" font-size="10.00">MovementKeyControl</text>
</a>
</g>
</g>
<!-- Node5&#45;&gt;Node6 -->
<g id="edge5" class="edge"><title>Node5&#45;&gt;Node6</title>
<path fill="none" stroke="midnightblue" d="M593.971,-206.871C605.706,-205.639 617.678,-204.483 629.364,-203.454"/>
<polygon fill="midnightblue" stroke="midnightblue" points="593.3,-203.423 583.731,-207.972 594.048,-210.383 593.3,-203.423"/>
</g>
<!-- Node13 -->
<g id="node13" class="node"><title>Node13</title>
<g id="a_node13"><a xlink:href="../../df/dd5/classgame_player_1_1_view_controller.html#a22ee80193bbac79a935ee961a183bfcd" target="_top" xlink:title="gamePlayer.ViewController.set\lOnClick">
<polygon fill="white" stroke="black" points="643.5,-274 643.5,-304 804.5,-304 804.5,-274 643.5,-274"/>
<text text-anchor="start" x="651.5" y="-292" font-family="Helvetica,sans-Serif" font-size="10.00">gamePlayer.ViewController.set</text>
<text text-anchor="middle" x="724" y="-281" font-family="Helvetica,sans-Serif" font-size="10.00">OnClick</text>
</a>
</g>
</g>
<!-- Node5&#45;&gt;Node13 -->
<g id="edge14" class="edge"><title>Node5&#45;&gt;Node13</title>
<path fill="none" stroke="midnightblue" d="M558.297,-240.901C593.666,-251.23 637.649,-264.075 671.265,-273.892"/>
<polygon fill="midnightblue" stroke="midnightblue" points="559.146,-237.503 548.566,-238.059 557.184,-244.222 559.146,-237.503"/>
</g>
<!-- Node6&#45;&gt;Node5 -->
<g id="edge12" class="edge"><title>Node6&#45;&gt;Node5</title>
<path fill="none" stroke="midnightblue" d="M626.406,-217.089C613.866,-218.408 601.052,-219.64 588.597,-220.725"/>
<polygon fill="midnightblue" stroke="midnightblue" points="626.823,-220.565 636.391,-216.015 626.073,-213.605 626.823,-220.565"/>
</g>
<!-- Node7 -->
<g id="node7" class="node"><title>Node7</title>
<g id="a_node7"><a xlink:href="../../df/dd5/classgame_player_1_1_view_controller.html#a7eb038fd9f20604ade0406f27ef76657" target="_top" xlink:title="gamePlayer.ViewController.bind\lAction">
<polygon fill="white" stroke="black" points="876.5,-137 876.5,-167 1043.5,-167 1043.5,-137 876.5,-137"/>
<text text-anchor="start" x="884.5" y="-155" font-family="Helvetica,sans-Serif" font-size="10.00">gamePlayer.ViewController.bind</text>
<text text-anchor="middle" x="960" y="-144" font-family="Helvetica,sans-Serif" font-size="10.00">Action</text>
</a>
</g>
</g>
<!-- Node6&#45;&gt;Node7 -->
<g id="edge6" class="edge"><title>Node6&#45;&gt;Node7</title>
<path fill="none" stroke="midnightblue" d="M806.722,-183.887C832.981,-178.389 861.857,-172.342 887.338,-167.006"/>
<polygon fill="midnightblue" stroke="midnightblue" points="805.868,-180.49 796.798,-185.965 807.303,-187.341 805.868,-180.49"/>
</g>
<!-- Node12 -->
<g id="node12" class="node"><title>Node12</title>
<g id="a_node12"><a xlink:href="../../df/dd5/classgame_player_1_1_view_controller.html#a27da17c1280cd953a14f6b76b18f9a4b" target="_top" xlink:title="gamePlayer.ViewController.toggle\lKeyboardControl">
<polygon fill="white" stroke="black" points="872,-186 872,-216 1048,-216 1048,-186 872,-186"/>
<text text-anchor="start" x="880" y="-204" font-family="Helvetica,sans-Serif" font-size="10.00">gamePlayer.ViewController.toggle</text>
<text text-anchor="middle" x="960" y="-193" font-family="Helvetica,sans-Serif" font-size="10.00">KeyboardControl</text>
</a>
</g>
</g>
<!-- Node6&#45;&gt;Node12 -->
<g id="edge13" class="edge"><title>Node6&#45;&gt;Node12</title>
<path fill="none" stroke="midnightblue" d="M829.18,-201C843.476,-201 858.031,-201 871.976,-201"/>
<polygon fill="midnightblue" stroke="midnightblue" points="828.828,-197.5 818.828,-201 828.828,-204.5 828.828,-197.5"/>
</g>
<!-- Node7&#45;&gt;Node4 -->
<g id="edge8" class="edge"><title>Node7&#45;&gt;Node4</title>
<path fill="none" stroke="midnightblue" d="M866.319,-155.676C755.398,-160.992 564.287,-173.06 402,-198 384.473,-200.694 365.636,-204.311 348.235,-207.956"/>
<polygon fill="midnightblue" stroke="midnightblue" points="866.646,-159.165 876.47,-155.198 866.316,-152.173 866.646,-159.165"/>
</g>
<!-- Node8 -->
<g id="node8" class="node"><title>Node8</title>
<g id="a_node8"><a xlink:href="../../df/df0/classtests_1_1_view_controller_test.html#a74e99f9c72cbdcd2d56271b2ad2df1ce" target="_top" xlink:title="tests.ViewControllerTest.bind\lActionTest">
<polygon fill="white" stroke="black" points="1125,-139 1125,-169 1279,-169 1279,-139 1125,-139"/>
<text text-anchor="start" x="1133" y="-157" font-family="Helvetica,sans-Serif" font-size="10.00">tests.ViewControllerTest.bind</text>
<text text-anchor="middle" x="1202" y="-146" font-family="Helvetica,sans-Serif" font-size="10.00">ActionTest</text>
</a>
</g>
</g>
<!-- Node7&#45;&gt;Node8 -->
<g id="edge7" class="edge"><title>Node7&#45;&gt;Node8</title>
<path fill="none" stroke="midnightblue" d="M1053.89,-152.774C1077.32,-152.969 1102.2,-153.177 1124.71,-153.364"/>
<polygon fill="midnightblue" stroke="midnightblue" points="1053.62,-149.272 1043.59,-152.688 1053.56,-156.272 1053.62,-149.272"/>
</g>
<!-- Node9 -->
<g id="node9" class="node"><title>Node9</title>
<g id="a_node9"><a xlink:href="../../df/dd5/classgame_player_1_1_view_controller.html#ab8c14a8c53be9021a62d0107c2f75ef6" target="_top" xlink:title="gamePlayer.ViewController.update\lActions">
<polygon fill="white" stroke="black" points="1112,-90 1112,-120 1292,-120 1292,-90 1112,-90"/>
<text text-anchor="start" x="1120" y="-108" font-family="Helvetica,sans-Serif" font-size="10.00">gamePlayer.ViewController.update</text>
<text text-anchor="middle" x="1202" y="-97" font-family="Helvetica,sans-Serif" font-size="10.00">Actions</text>
</a>
</g>
</g>
<!-- Node7&#45;&gt;Node9 -->
<g id="edge9" class="edge"><title>Node7&#45;&gt;Node9</title>
<path fill="none" stroke="midnightblue" d="M1047.48,-135.065C1072.59,-130.147 1099.84,-124.811 1124.31,-120.019"/>
<polygon fill="midnightblue" stroke="midnightblue" points="1046.74,-131.643 1037.6,-137 1048.08,-138.513 1046.74,-131.643"/>
</g>
<!-- Node10 -->
<g id="node10" class="node"><title>Node10</title>
<g id="a_node10"><a xlink:href="../../d6/d24/classgame_player_1_1_select_state.html#a801827392f0faeee6b96925060d77838" target="_top" xlink:title="gamePlayer.SelectState.on\lClick">
<polygon fill="white" stroke="black" points="1362.5,-46 1362.5,-76 1509.5,-76 1509.5,-46 1362.5,-46"/>
<text text-anchor="start" x="1370.5" y="-64" font-family="Helvetica,sans-Serif" font-size="10.00">gamePlayer.SelectState.on</text>
<text text-anchor="middle" x="1436" y="-53" font-family="Helvetica,sans-Serif" font-size="10.00">Click</text>
</a>
</g>
</g>
<!-- Node9&#45;&gt;Node10 -->
<g id="edge10" class="edge"><title>Node9&#45;&gt;Node10</title>
<path fill="none" stroke="midnightblue" d="M1292.06,-88.1101C1315.32,-83.6984 1340.11,-78.9966 1362.4,-74.7687"/>
<polygon fill="midnightblue" stroke="midnightblue" points="1291.37,-84.6786 1282.19,-89.9808 1292.67,-91.556 1291.37,-84.6786"/>
</g>
<!-- Node11 -->
<g id="node11" class="node"><title>Node11</title>
<g id="a_node11"><a xlink:href="../../df/df0/classtests_1_1_view_controller_test.html#a785df2c49a72c183c22163ce927f5df1" target="_top" xlink:title="tests.ViewControllerTest.update\lActionsTest">
<polygon fill="white" stroke="black" points="1352.5,-95 1352.5,-125 1519.5,-125 1519.5,-95 1352.5,-95"/>
<text text-anchor="start" x="1360.5" y="-113" font-family="Helvetica,sans-Serif" font-size="10.00">tests.ViewControllerTest.update</text>
<text text-anchor="middle" x="1436" y="-102" font-family="Helvetica,sans-Serif" font-size="10.00">ActionsTest</text>
</a>
</g>
</g>
<!-- Node9&#45;&gt;Node11 -->
<g id="edge11" class="edge"><title>Node9&#45;&gt;Node11</title>
<path fill="none" stroke="midnightblue" d="M1302.33,-107.141C1318.99,-107.5 1336.12,-107.869 1352.3,-108.218"/>
<polygon fill="midnightblue" stroke="midnightblue" points="1302.11,-103.635 1292.03,-106.919 1301.96,-110.634 1302.11,-103.635"/>
</g>
<!-- Node14 -->
<g id="node14" class="node"><title>Node14</title>
<g id="a_node14"><a xlink:href="../../df/dd5/classgame_player_1_1_view_controller.html#a10a40967a873f067cf91b024ff85b38e" target="_top" xlink:title="gamePlayer.ViewController.initializeGrid">
<polygon fill="white" stroke="black" points="858,-279.5 858,-298.5 1062,-298.5 1062,-279.5 858,-279.5"/>
<text text-anchor="middle" x="960" y="-286.5" font-family="Helvetica,sans-Serif" font-size="10.00">gamePlayer.ViewController.initializeGrid</text>
</a>
</g>
</g>
<!-- Node13&#45;&gt;Node14 -->
<g id="edge15" class="edge"><title>Node13&#45;&gt;Node14</title>
<path fill="none" stroke="midnightblue" d="M814.687,-289C828.763,-289 843.398,-289 857.714,-289"/>
<polygon fill="midnightblue" stroke="midnightblue" points="814.548,-285.5 804.548,-289 814.548,-292.5 814.548,-285.5"/>
</g>
<!-- Node15 -->
<g id="node15" class="node"><title>Node15</title>
<g id="a_node15"><a xlink:href="../../df/dd5/classgame_player_1_1_view_controller.html#a0d1a3d443966f151b070dc751d2faf9a" target="_top" xlink:title="gamePlayer.ViewController.restartGame">
<polygon fill="white" stroke="black" points="1098,-237.5 1098,-256.5 1306,-256.5 1306,-237.5 1098,-237.5"/>
<text text-anchor="middle" x="1202" y="-244.5" font-family="Helvetica,sans-Serif" font-size="10.00">gamePlayer.ViewController.restartGame</text>
</a>
</g>
</g>
<!-- Node14&#45;&gt;Node15 -->
<g id="edge16" class="edge"><title>Node14&#45;&gt;Node15</title>
<path fill="none" stroke="midnightblue" d="M1025.35,-277.739C1063.13,-271.127 1110.37,-262.86 1146.34,-256.565"/>
<polygon fill="midnightblue" stroke="midnightblue" points="1024.71,-274.298 1015.46,-279.47 1025.91,-281.193 1024.71,-274.298"/>
</g>
<!-- Node16 -->
<g id="node16" class="node"><title>Node16</title>
<g id="a_node16"><a xlink:href="../../df/dd5/classgame_player_1_1_view_controller.html#af1870a0b6786d96d118021fc62b6475d" target="_top" xlink:title="gamePlayer.ViewController.beginGame">
<polygon fill="white" stroke="black" points="1101,-325.5 1101,-344.5 1303,-344.5 1303,-325.5 1101,-325.5"/>
<text text-anchor="middle" x="1202" y="-332.5" font-family="Helvetica,sans-Serif" font-size="10.00">gamePlayer.ViewController.beginGame</text>
</a>
</g>
</g>
<!-- Node14&#45;&gt;Node16 -->
<g id="edge17" class="edge"><title>Node14&#45;&gt;Node16</title>
<path fill="none" stroke="midnightblue" d="M1020.68,-300.438C1060.91,-308.15 1113.38,-318.206 1151.34,-325.481"/>
<polygon fill="midnightblue" stroke="midnightblue" points="1021.21,-296.976 1010.73,-298.531 1019.89,-303.851 1021.21,-296.976"/>
</g>
<!-- Node17 -->
<g id="node17" class="node"><title>Node17</title>
<g id="a_node17"><a xlink:href="../../df/dd5/classgame_player_1_1_view_controller.html#a4c1754d129a4eac955390b428eaa448a" target="_top" xlink:title="gamePlayer.ViewController.test\lPlayGame">
<polygon fill="white" stroke="black" points="1119.5,-276 1119.5,-306 1284.5,-306 1284.5,-276 1119.5,-276"/>
<text text-anchor="start" x="1127.5" y="-294" font-family="Helvetica,sans-Serif" font-size="10.00">gamePlayer.ViewController.test</text>
<text text-anchor="middle" x="1202" y="-283" font-family="Helvetica,sans-Serif" font-size="10.00">PlayGame</text>
</a>
</g>
</g>
<!-- Node14&#45;&gt;Node17 -->
<g id="edge18" class="edge"><title>Node14&#45;&gt;Node17</title>
<path fill="none" stroke="midnightblue" d="M1072.43,-289.929C1088.23,-290.06 1104.22,-290.194 1119.32,-290.319"/>
<polygon fill="midnightblue" stroke="midnightblue" points="1072.11,-286.426 1062.09,-289.842 1072.06,-293.426 1072.11,-286.426"/>
</g>
<!-- Node19 -->
<g id="node19" class="node"><title>Node19</title>
<g id="a_node19"><a xlink:href="../../df/dd5/classgame_player_1_1_view_controller.html#a620f8a02d3ac7677cd179fcd812aca55" target="_top" xlink:title="gamePlayer.ViewController.check\lEndActions">
<polygon fill="white" stroke="black" points="1115,-188 1115,-218 1289,-218 1289,-188 1115,-188"/>
<text text-anchor="start" x="1123" y="-206" font-family="Helvetica,sans-Serif" font-size="10.00">gamePlayer.ViewController.check</text>
<text text-anchor="middle" x="1202" y="-195" font-family="Helvetica,sans-Serif" font-size="10.00">EndActions</text>
</a>
</g>
</g>
<!-- Node14&#45;&gt;Node19 -->
<g id="edge20" class="edge"><title>Node14&#45;&gt;Node19</title>
<path fill="none" stroke="midnightblue" d="M1017.56,-276.749C1032.52,-272.305 1048.3,-266.479 1062,-259 1080.53,-248.88 1079.22,-237.647 1098,-228 1105.53,-224.133 1113.68,-220.848 1121.98,-218.061"/>
<polygon fill="midnightblue" stroke="midnightblue" points="1016.56,-273.395 1007.88,-279.473 1018.45,-280.134 1016.56,-273.395"/>
</g>
<!-- Node18 -->
<g id="node18" class="node"><title>Node18</title>
<g id="a_node18"><a xlink:href="../../db/d40/classfxml__main_1_1_authoring_controller.html#a2ec133c8edf0a7ab1e84f2e12455233d" target="_top" xlink:title="fxml_main.AuthoringController.save\lAsGame">
<polygon fill="white" stroke="black" points="1342.5,-276 1342.5,-306 1529.5,-306 1529.5,-276 1342.5,-276"/>
<text text-anchor="start" x="1350.5" y="-294" font-family="Helvetica,sans-Serif" font-size="10.00">fxml_main.AuthoringController.save</text>
<text text-anchor="middle" x="1436" y="-283" font-family="Helvetica,sans-Serif" font-size="10.00">AsGame</text>
</a>
</g>
</g>
<!-- Node17&#45;&gt;Node18 -->
<g id="edge19" class="edge"><title>Node17&#45;&gt;Node18</title>
<path fill="none" stroke="midnightblue" d="M1294.96,-291C1310.59,-291 1326.83,-291 1342.47,-291"/>
<polygon fill="midnightblue" stroke="midnightblue" points="1294.79,-287.5 1284.79,-291 1294.79,-294.5 1294.79,-287.5"/>
</g>
<!-- Node19&#45;&gt;Node5 -->
<g id="edge23" class="edge"><title>Node19&#45;&gt;Node5</title>
<path fill="none" stroke="midnightblue" d="M1109.71,-219.539C1093.85,-221.812 1077.48,-223.782 1062,-225 895.514,-238.094 700.581,-232.887 588.671,-227.93"/>
<polygon fill="midnightblue" stroke="midnightblue" points="1110.66,-222.936 1120.04,-218.007 1109.63,-216.012 1110.66,-222.936"/>
</g>
<!-- Node20 -->
<g id="node20" class="node"><title>Node20</title>
<g id="a_node20"><a xlink:href="../../df/dd5/classgame_player_1_1_view_controller.html#a13ea7814bde61a8042c5b1a23af41416" target="_top" xlink:title="gamePlayer.ViewController.end\lAction">
<polygon fill="white" stroke="black" points="1354,-207 1354,-237 1518,-237 1518,-207 1354,-207"/>
<text text-anchor="start" x="1362" y="-225" font-family="Helvetica,sans-Serif" font-size="10.00">gamePlayer.ViewController.end</text>
<text text-anchor="middle" x="1436" y="-214" font-family="Helvetica,sans-Serif" font-size="10.00">Action</text>
</a>
</g>
</g>
<!-- Node19&#45;&gt;Node20 -->
<g id="edge21" class="edge"><title>Node19&#45;&gt;Node20</title>
<path fill="none" stroke="midnightblue" d="M1299.06,-210.867C1317.22,-212.354 1336.05,-213.896 1353.7,-215.342"/>
<polygon fill="midnightblue" stroke="midnightblue" points="1299.31,-207.376 1289.06,-210.048 1298.74,-214.353 1299.31,-207.376"/>
</g>
<!-- Node20&#45;&gt;Node3 -->
<g id="edge22" class="edge"><title>Node20&#45;&gt;Node3</title>
<path fill="none" stroke="midnightblue" d="M1481.62,-240.963C1517.73,-256.312 1567.92,-277.643 1601.38,-291.863"/>
<polygon fill="midnightblue" stroke="midnightblue" points="1482.87,-237.691 1472.3,-237.001 1480.13,-244.133 1482.87,-237.691"/>
</g>
<!-- Node22 -->
<g id="node22" class="node"><title>Node22</title>
<g id="a_node22"><a xlink:href="../../d5/dfb/classgame_player_1_1_game_grid_effect.html#a2d475fdcd2837d14f9883d0cbf7a3c74" target="_top" xlink:title="gamePlayer.GameGridEffect.grey\lOutPiece">
<polygon fill="white" stroke="black" points="636,-0 636,-30 812,-30 812,-0 636,-0"/>
<text text-anchor="start" x="644" y="-18" font-family="Helvetica,sans-Serif" font-size="10.00">gamePlayer.GameGridEffect.grey</text>
<text text-anchor="middle" x="724" y="-7" font-family="Helvetica,sans-Serif" font-size="10.00">OutPiece</text>
</a>
</g>
</g>
<!-- Node21&#45;&gt;Node22 -->
<g id="edge25" class="edge"><title>Node21&#45;&gt;Node22</title>
<path fill="none" stroke="midnightblue" d="M542.411,-69.2161C566.918,-59.4702 597.838,-47.7973 626,-39 636.184,-35.8187 647.073,-32.7809 657.74,-30.0011"/>
<polygon fill="midnightblue" stroke="midnightblue" points="540.992,-66.0143 533.012,-72.9841 543.596,-72.5116 540.992,-66.0143"/>
</g>
<!-- Node23 -->
<g id="node23" class="node"><title>Node23</title>
<g id="a_node23"><a xlink:href="../../d5/dfb/classgame_player_1_1_game_grid_effect.html#ae71ddafff23aecd0ee6697d732e0a919" target="_top" xlink:title="gamePlayer.GameGridEffect.highlight\lActionRange">
<polygon fill="white" stroke="black" points="626.5,-98 626.5,-128 821.5,-128 821.5,-98 626.5,-98"/>
<text text-anchor="start" x="634.5" y="-116" font-family="Helvetica,sans-Serif" font-size="10.00">gamePlayer.GameGridEffect.highlight</text>
<text text-anchor="middle" x="724" y="-105" font-family="Helvetica,sans-Serif" font-size="10.00">ActionRange</text>
</a>
</g>
</g>
<!-- Node21&#45;&gt;Node23 -->
<g id="edge26" class="edge"><title>Node21&#45;&gt;Node23</title>
<path fill="none" stroke="midnightblue" d="M600.341,-99.4315C608.997,-100.389 617.728,-101.355 626.331,-102.307"/>
<polygon fill="midnightblue" stroke="midnightblue" points="600.552,-95.9336 590.228,-98.3128 599.782,-102.891 600.552,-95.9336"/>
</g>
<!-- Node24 -->
<g id="node24" class="node"><title>Node24</title>
<g id="a_node24"><a xlink:href="../../d5/dfb/classgame_player_1_1_game_grid_effect.html#a1c6be8631bc6b597b5ed7dc9cd7e62fe" target="_top" xlink:title="gamePlayer.GameGridEffect.highlight\lCurrent">
<polygon fill="white" stroke="black" points="626.5,-49 626.5,-79 821.5,-79 821.5,-49 626.5,-49"/>
<text text-anchor="start" x="634.5" y="-67" font-family="Helvetica,sans-Serif" font-size="10.00">gamePlayer.GameGridEffect.highlight</text>
<text text-anchor="middle" x="724" y="-56" font-family="Helvetica,sans-Serif" font-size="10.00">Current</text>
</a>
</g>
</g>
<!-- Node21&#45;&gt;Node24 -->
<g id="edge28" class="edge"><title>Node21&#45;&gt;Node24</title>
<path fill="none" stroke="midnightblue" d="M600.341,-77.0257C608.997,-76.1065 617.728,-75.1793 626.331,-74.2657"/>
<polygon fill="midnightblue" stroke="midnightblue" points="599.802,-73.5632 590.228,-78.0997 600.541,-80.5241 599.802,-73.5632"/>
</g>
<!-- Node23&#45;&gt;Node7 -->
<g id="edge27" class="edge"><title>Node23&#45;&gt;Node7</title>
<path fill="none" stroke="midnightblue" d="M825.1,-129.683C842.139,-132.523 859.665,-135.444 876.194,-138.199"/>
<polygon fill="midnightblue" stroke="midnightblue" points="825.575,-126.214 815.136,-128.023 824.424,-133.119 825.575,-126.214"/>
</g>
<!-- Node25 -->
<g id="node25" class="node"><title>Node25</title>
<g id="a_node25"><a xlink:href="../../df/dd5/classgame_player_1_1_view_controller.html#ac39aa40a815b8d3d277aecffe6d63426" target="_top" xlink:title="gamePlayer.ViewController.highlight\lSelected">
<polygon fill="white" stroke="black" points="866.5,-48 866.5,-78 1053.5,-78 1053.5,-48 866.5,-48"/>
<text text-anchor="start" x="874.5" y="-66" font-family="Helvetica,sans-Serif" font-size="10.00">gamePlayer.ViewController.highlight</text>
<text text-anchor="middle" x="960" y="-55" font-family="Helvetica,sans-Serif" font-size="10.00">Selected</text>
</a>
</g>
</g>
<!-- Node24&#45;&gt;Node25 -->
<g id="edge29" class="edge"><title>Node24&#45;&gt;Node25</title>
<path fill="none" stroke="midnightblue" d="M831.683,-63.5441C843.293,-63.4945 855.039,-63.4443 866.459,-63.3955"/>
<polygon fill="midnightblue" stroke="midnightblue" points="831.513,-60.0447 821.528,-63.5875 831.543,-67.0446 831.513,-60.0447"/>
</g>
<!-- Node25&#45;&gt;Node10 -->
<g id="edge30" class="edge"><title>Node25&#45;&gt;Node10</title>
<path fill="none" stroke="midnightblue" d="M1063.76,-62.5664C1153.91,-62.186 1282.71,-61.6426 1362.48,-61.306"/>
<polygon fill="midnightblue" stroke="midnightblue" points="1063.5,-59.0674 1053.52,-62.6096 1063.53,-66.0673 1063.5,-59.0674"/>
</g>
</g>
</svg>
