<?xml version="1.0" encoding="UTF-8" standalone="no"?>
<!DOCTYPE svg PUBLIC "-//W3C//DTD SVG 1.1//EN"
 "http://www.w3.org/Graphics/SVG/1.1/DTD/svg11.dtd">
<!-- Generated by graphviz version 2.36.0 (20140111.2315)
 -->
<!-- Title: gamePlayer.ViewController.findPosition Pages: 1 -->
<svg width="564pt" height="87pt"
 viewBox="0.00 0.00 564.00 87.00" xmlns="http://www.w3.org/2000/svg" xmlns:xlink="http://www.w3.org/1999/xlink">
<g id="graph0" class="graph" transform="scale(1 1) rotate(0) translate(4 83)">
<title>gamePlayer.ViewController.findPosition</title>
<polygon fill="white" stroke="none" points="-4,4 -4,-83 560,-83 560,4 -4,4"/>
<!-- Node1 -->
<g id="node1" class="node"><title>Node1</title>
<polygon fill="#bfbfbf" stroke="black" points="0,-24 0,-54 164,-54 164,-24 0,-24"/>
<text text-anchor="start" x="8" y="-42" font-family="Helvetica,sans-Serif" font-size="10.00">gamePlayer.ViewController.find</text>
<text text-anchor="middle" x="82" y="-31" font-family="Helvetica,sans-Serif" font-size="10.00">Position</text>
</g>
<!-- Node2 -->
<g id="node2" class="node"><title>Node2</title>
<g id="a_node2"><a xlink:href="../../d9/df3/classauthoring__environment_1_1_super_grid.html#a0f8021e23df3eb8657622455e0a2c70e" target="_top" xlink:title="authoring_environment.Super\lGrid.findClickedCoordinate">
<polygon fill="white" stroke="black" points="200,-24 200,-54 360,-54 360,-24 200,-24"/>
<text text-anchor="start" x="208" y="-42" font-family="Helvetica,sans-Serif" font-size="10.00">authoring_environment.Super</text>
<text text-anchor="middle" x="280" y="-31" font-family="Helvetica,sans-Serif" font-size="10.00">Grid.findClickedCoordinate</text>
</a>
</g>
</g>
<!-- Node1&#45;&gt;Node2 -->
<g id="edge1" class="edge"><title>Node1&#45;&gt;Node2</title>
<path fill="none" stroke="midnightblue" d="M164.136,-39C172.521,-39 181.077,-39 189.546,-39"/>
<polygon fill="midnightblue" stroke="midnightblue" points="189.818,-42.5001 199.818,-39 189.818,-35.5001 189.818,-42.5001"/>
</g>
<!-- Node3 -->
<g id="node3" class="node"><title>Node3</title>
<g id="a_node3"><a xlink:href="../../d9/df3/classauthoring__environment_1_1_super_grid.html#a1fb6edb8c7c3cffe52aa25606fe261df" target="_top" xlink:title="authoring_environment.Super\lGrid.findClickedTile">
<polygon fill="white" stroke="black" points="396,-49 396,-79 556,-79 556,-49 396,-49"/>
<text text-anchor="start" x="404" y="-67" font-family="Helvetica,sans-Serif" font-size="10.00">authoring_environment.Super</text>
<text text-anchor="middle" x="476" y="-56" font-family="Helvetica,sans-Serif" font-size="10.00">Grid.findClickedTile</text>
</a>
</g>
</g>
<!-- Node2&#45;&gt;Node3 -->
<g id="edge2" class="edge"><title>Node2&#45;&gt;Node3</title>
<path fill="none" stroke="midnightblue" d="M360.187,-49.2045C368.621,-50.2914 377.241,-51.4022 385.781,-52.5027"/>
<polygon fill="midnightblue" stroke="midnightblue" points="385.386,-55.9807 395.752,-53.7876 386.281,-49.0381 385.386,-55.9807"/>
</g>
<!-- Node4 -->
<g id="node4" class="node"><title>Node4</title>
<g id="a_node4"><a xlink:href="../../dc/d5a/classauthoring__environment_1_1_super_tile.html#af9a11e74113f35feeb5142a4927cebbb" target="_top" xlink:title="authoring_environment.Super\lTile.getCoordinates">
<polygon fill="white" stroke="black" points="396,-0 396,-30 556,-30 556,-0 396,-0"/>
<text text-anchor="start" x="404" y="-18" font-family="Helvetica,sans-Serif" font-size="10.00">authoring_environment.Super</text>
<text text-anchor="middle" x="476" y="-7" font-family="Helvetica,sans-Serif" font-size="10.00">Tile.getCoordinates</text>
</a>
</g>
</g>
<!-- Node2&#45;&gt;Node4 -->
<g id="edge3" class="edge"><title>Node2&#45;&gt;Node4</title>
<path fill="none" stroke="midnightblue" d="M360.187,-29.2037C368.621,-28.1603 377.241,-27.0939 385.781,-26.0375"/>
<polygon fill="midnightblue" stroke="midnightblue" points="386.257,-29.5053 395.752,-24.8039 385.398,-22.5582 386.257,-29.5053"/>
</g>
</g>
</svg>
