<?xml version="1.0" encoding="UTF-8" standalone="no"?>
<!DOCTYPE svg PUBLIC "-//W3C//DTD SVG 1.1//EN"
 "http://www.w3.org/Graphics/SVG/1.1/DTD/svg11.dtd">
<!-- Generated by graphviz version 2.36.0 (20140111.2315)
 -->
<!-- Title: gamePlayer.ViewController.enterHighScoreInfo Pages: 1 -->
<svg width="1546pt" height="280pt"
 viewBox="0.00 0.00 1546.00 280.00" xmlns="http://www.w3.org/2000/svg" xmlns:xlink="http://www.w3.org/1999/xlink">
<g id="graph0" class="graph" transform="scale(1 1) rotate(0) translate(4 276)">
<title>gamePlayer.ViewController.enterHighScoreInfo</title>
<polygon fill="white" stroke="none" points="-4,4 -4,-276 1542,-276 1542,4 -4,4"/>
<!-- Node1 -->
<g id="node1" class="node"><title>Node1</title>
<polygon fill="#bfbfbf" stroke="black" points="0,-118 0,-148 172,-148 172,-118 0,-118"/>
<text text-anchor="start" x="8" y="-136" font-family="Helvetica,sans-Serif" font-size="10.00">gamePlayer.ViewController.enter</text>
<text text-anchor="middle" x="86" y="-125" font-family="Helvetica,sans-Serif" font-size="10.00">HighScoreInfo</text>
</g>
<!-- Node2 -->
<g id="node2" class="node"><title>Node2</title>
<g id="a_node2"><a xlink:href="../../df/dd5/classgame_player_1_1_view_controller.html#a620f8a02d3ac7677cd179fcd812aca55" target="_top" xlink:title="gamePlayer.ViewController.check\lEndActions">
<polygon fill="white" stroke="black" points="208,-118 208,-148 382,-148 382,-118 208,-118"/>
<text text-anchor="start" x="216" y="-136" font-family="Helvetica,sans-Serif" font-size="10.00">gamePlayer.ViewController.check</text>
<text text-anchor="middle" x="295" y="-125" font-family="Helvetica,sans-Serif" font-size="10.00">EndActions</text>
</a>
</g>
</g>
<!-- Node1&#45;&gt;Node2 -->
<g id="edge1" class="edge"><title>Node1&#45;&gt;Node2</title>
<path fill="none" stroke="midnightblue" d="M182.128,-133C190.721,-133 199.392,-133 207.901,-133"/>
<polygon fill="midnightblue" stroke="midnightblue" points="182.091,-129.5 172.091,-133 182.091,-136.5 182.091,-129.5"/>
</g>
<!-- Node3 -->
<g id="node3" class="node"><title>Node3</title>
<g id="a_node3"><a xlink:href="../../df/dd5/classgame_player_1_1_view_controller.html#a13ea7814bde61a8042c5b1a23af41416" target="_top" xlink:title="gamePlayer.ViewController.end\lAction">
<polygon fill="white" stroke="black" points="429,-189 429,-219 593,-219 593,-189 429,-189"/>
<text text-anchor="start" x="437" y="-207" font-family="Helvetica,sans-Serif" font-size="10.00">gamePlayer.ViewController.end</text>
<text text-anchor="middle" x="511" y="-196" font-family="Helvetica,sans-Serif" font-size="10.00">Action</text>
</a>
</g>
</g>
<!-- Node2&#45;&gt;Node3 -->
<g id="edge2" class="edge"><title>Node2&#45;&gt;Node3</title>
<path fill="none" stroke="midnightblue" d="M351.047,-151.263C386.305,-162.961 431.502,-177.956 464.682,-188.964"/>
<polygon fill="midnightblue" stroke="midnightblue" points="351.977,-147.884 341.384,-148.057 349.773,-154.528 351.977,-147.884"/>
</g>
<!-- Node5 -->
<g id="node5" class="node"><title>Node5</title>
<g id="a_node5"><a xlink:href="../../df/dd5/classgame_player_1_1_view_controller.html#a95c2acd43bb39b8606c69971c1cd30f5" target="_top" xlink:title="gamePlayer.ViewController.perform\lAction">
<polygon fill="white" stroke="black" points="418.5,-118 418.5,-148 603.5,-148 603.5,-118 418.5,-118"/>
<text text-anchor="start" x="426.5" y="-136" font-family="Helvetica,sans-Serif" font-size="10.00">gamePlayer.ViewController.perform</text>
<text text-anchor="middle" x="511" y="-125" font-family="Helvetica,sans-Serif" font-size="10.00">Action</text>
</a>
</g>
</g>
<!-- Node2&#45;&gt;Node5 -->
<g id="edge4" class="edge"><title>Node2&#45;&gt;Node5</title>
<path fill="none" stroke="midnightblue" d="M392.282,-133C400.991,-133 409.796,-133 418.462,-133"/>
<polygon fill="midnightblue" stroke="midnightblue" points="392.117,-129.5 382.117,-133 392.117,-136.5 392.117,-129.5"/>
</g>
<!-- Node4 -->
<g id="node4" class="node"><title>Node4</title>
<g id="a_node4"><a xlink:href="../../db/d00/classgame_player_1_1_apply_state.html#aed42c1aba25264bc6880036f693a1c9e" target="_top" xlink:title="gamePlayer.ApplyState.on\lClick">
<polygon fill="white" stroke="black" points="663.5,-200 663.5,-230 806.5,-230 806.5,-200 663.5,-200"/>
<text text-anchor="start" x="671.5" y="-218" font-family="Helvetica,sans-Serif" font-size="10.00">gamePlayer.ApplyState.on</text>
<text text-anchor="middle" x="735" y="-207" font-family="Helvetica,sans-Serif" font-size="10.00">Click</text>
</a>
</g>
</g>
<!-- Node3&#45;&gt;Node4 -->
<g id="edge3" class="edge"><title>Node3&#45;&gt;Node4</title>
<path fill="none" stroke="midnightblue" d="M603.182,-208.518C623.271,-209.513 644.256,-210.553 663.387,-211.501"/>
<polygon fill="midnightblue" stroke="midnightblue" points="603.25,-205.017 593.089,-208.018 602.904,-212.009 603.25,-205.017"/>
</g>
<!-- Node6 -->
<g id="node6" class="node"><title>Node6</title>
<g id="a_node6"><a xlink:href="../../da/d55/classgame_player_1_1_keyboard_movement.html#af45fd8d279b1ee2d6be5466d425485ab" target="_top" xlink:title="gamePlayer.KeyboardMovement.set\lMovementKeyControl">
<polygon fill="white" stroke="black" points="640.5,-151 640.5,-181 829.5,-181 829.5,-151 640.5,-151"/>
<text text-anchor="start" x="648.5" y="-169" font-family="Helvetica,sans-Serif" font-size="10.00">gamePlayer.KeyboardMovement.set</text>
<text text-anchor="middle" x="735" y="-158" font-family="Helvetica,sans-Serif" font-size="10.00">MovementKeyControl</text>
</a>
</g>
</g>
<!-- Node5&#45;&gt;Node6 -->
<g id="edge5" class="edge"><title>Node5&#45;&gt;Node6</title>
<path fill="none" stroke="midnightblue" d="M613.614,-141.376C634.155,-144.335 655.127,-147.669 673.69,-150.954"/>
<polygon fill="midnightblue" stroke="midnightblue" points="613.969,-137.892 603.578,-139.956 612.988,-144.823 613.969,-137.892"/>
</g>
<!-- Node14 -->
<g id="node14" class="node"><title>Node14</title>
<g id="a_node14"><a xlink:href="../../df/dd5/classgame_player_1_1_view_controller.html#a22ee80193bbac79a935ee961a183bfcd" target="_top" xlink:title="gamePlayer.ViewController.set\lOnClick">
<polygon fill="white" stroke="black" points="654.5,-63 654.5,-93 815.5,-93 815.5,-63 654.5,-63"/>
<text text-anchor="start" x="662.5" y="-81" font-family="Helvetica,sans-Serif" font-size="10.00">gamePlayer.ViewController.set</text>
<text text-anchor="middle" x="735" y="-70" font-family="Helvetica,sans-Serif" font-size="10.00">OnClick</text>
</a>
</g>
</g>
<!-- Node5&#45;&gt;Node14 -->
<g id="edge15" class="edge"><title>Node5&#45;&gt;Node14</title>
<path fill="none" stroke="midnightblue" d="M582.402,-115.558C611.658,-108.31 645.277,-99.9809 673.411,-93.0108"/>
<polygon fill="midnightblue" stroke="midnightblue" points="581.527,-112.169 572.662,-117.971 583.211,-118.963 581.527,-112.169"/>
</g>
<!-- Node6&#45;&gt;Node5 -->
<g id="edge13" class="edge"><title>Node6&#45;&gt;Node5</title>
<path fill="none" stroke="midnightblue" d="M630.373,-157.333C610.393,-154.435 590.092,-151.196 572.076,-148.005"/>
<polygon fill="midnightblue" stroke="midnightblue" points="630.066,-160.824 640.46,-158.771 631.054,-153.894 630.066,-160.824"/>
</g>
<!-- Node7 -->
<g id="node7" class="node"><title>Node7</title>
<g id="a_node7"><a xlink:href="../../df/dd5/classgame_player_1_1_view_controller.html#a7eb038fd9f20604ade0406f27ef76657" target="_top" xlink:title="gamePlayer.ViewController.bind\lAction">
<polygon fill="white" stroke="black" points="884.5,-200 884.5,-230 1051.5,-230 1051.5,-200 884.5,-200"/>
<text text-anchor="start" x="892.5" y="-218" font-family="Helvetica,sans-Serif" font-size="10.00">gamePlayer.ViewController.bind</text>
<text text-anchor="middle" x="968" y="-207" font-family="Helvetica,sans-Serif" font-size="10.00">Action</text>
</a>
</g>
</g>
<!-- Node6&#45;&gt;Node7 -->
<g id="edge6" class="edge"><title>Node6&#45;&gt;Node7</title>
<path fill="none" stroke="midnightblue" d="M816.674,-183.113C842.597,-188.611 871.102,-194.658 896.257,-199.994"/>
<polygon fill="midnightblue" stroke="midnightblue" points="817.386,-179.686 806.877,-181.035 815.934,-186.534 817.386,-179.686"/>
</g>
<!-- Node13 -->
<g id="node13" class="node"><title>Node13</title>
<g id="a_node13"><a xlink:href="../../df/dd5/classgame_player_1_1_view_controller.html#a27da17c1280cd953a14f6b76b18f9a4b" target="_top" xlink:title="gamePlayer.ViewController.toggle\lKeyboardControl">
<polygon fill="white" stroke="black" points="880,-151 880,-181 1056,-181 1056,-151 880,-151"/>
<text text-anchor="start" x="888" y="-169" font-family="Helvetica,sans-Serif" font-size="10.00">gamePlayer.ViewController.toggle</text>
<text text-anchor="middle" x="968" y="-158" font-family="Helvetica,sans-Serif" font-size="10.00">KeyboardControl</text>
</a>
</g>
</g>
<!-- Node6&#45;&gt;Node13 -->
<g id="edge14" class="edge"><title>Node6&#45;&gt;Node13</title>
<path fill="none" stroke="midnightblue" d="M839.825,-166C853.236,-166 866.858,-166 879.96,-166"/>
<polygon fill="midnightblue" stroke="midnightblue" points="839.624,-162.5 829.624,-166 839.623,-169.5 839.624,-162.5"/>
</g>
<!-- Node8 -->
<g id="node8" class="node"><title>Node8</title>
<g id="a_node8"><a xlink:href="../../df/df0/classtests_1_1_view_controller_test.html#a74e99f9c72cbdcd2d56271b2ad2df1ce" target="_top" xlink:title="tests.ViewControllerTest.bind\lActionTest">
<polygon fill="white" stroke="black" points="1133,-242 1133,-272 1287,-272 1287,-242 1133,-242"/>
<text text-anchor="start" x="1141" y="-260" font-family="Helvetica,sans-Serif" font-size="10.00">tests.ViewControllerTest.bind</text>
<text text-anchor="middle" x="1210" y="-249" font-family="Helvetica,sans-Serif" font-size="10.00">ActionTest</text>
</a>
</g>
</g>
<!-- Node7&#45;&gt;Node8 -->
<g id="edge7" class="edge"><title>Node7&#45;&gt;Node8</title>
<path fill="none" stroke="midnightblue" d="M1061.57,-231.2C1085.09,-235.316 1110.1,-239.692 1132.71,-243.649"/>
<polygon fill="midnightblue" stroke="midnightblue" points="1062.05,-227.73 1051.59,-229.454 1060.84,-234.626 1062.05,-227.73"/>
</g>
<!-- Node9 -->
<g id="node9" class="node"><title>Node9</title>
<g id="a_node9"><a xlink:href="../../d1/db7/classgame_player_1_1_keyboard_action.html#a08ace57322b8639020688dd9493c3e1f" target="_top" xlink:title="gamePlayer.KeyboardAction.set\lActionKeyControl">
<polygon fill="white" stroke="black" points="1126,-138 1126,-168 1294,-168 1294,-138 1126,-138"/>
<text text-anchor="start" x="1134" y="-156" font-family="Helvetica,sans-Serif" font-size="10.00">gamePlayer.KeyboardAction.set</text>
<text text-anchor="middle" x="1210" y="-145" font-family="Helvetica,sans-Serif" font-size="10.00">ActionKeyControl</text>
</a>
</g>
</g>
<!-- Node7&#45;&gt;Node9 -->
<g id="edge8" class="edge"><title>Node7&#45;&gt;Node9</title>
<path fill="none" stroke="midnightblue" d="M1040.36,-197.503C1050.32,-195.012 1060.42,-192.46 1070,-190 1097.45,-182.949 1127.89,-174.878 1153.26,-168.076"/>
<polygon fill="midnightblue" stroke="midnightblue" points="1039.32,-194.153 1030.47,-199.968 1041.02,-200.946 1039.32,-194.153"/>
</g>
<!-- Node10 -->
<g id="node10" class="node"><title>Node10</title>
<g id="a_node10"><a xlink:href="../../df/dd5/classgame_player_1_1_view_controller.html#ab8c14a8c53be9021a62d0107c2f75ef6" target="_top" xlink:title="gamePlayer.ViewController.update\lActions">
<polygon fill="white" stroke="black" points="1120,-193 1120,-223 1300,-223 1300,-193 1120,-193"/>
<text text-anchor="start" x="1128" y="-211" font-family="Helvetica,sans-Serif" font-size="10.00">gamePlayer.ViewController.update</text>
<text text-anchor="middle" x="1210" y="-200" font-family="Helvetica,sans-Serif" font-size="10.00">Actions</text>
</a>
</g>
</g>
<!-- Node7&#45;&gt;Node10 -->
<g id="edge10" class="edge"><title>Node7&#45;&gt;Node10</title>
<path fill="none" stroke="midnightblue" d="M1061.75,-212.295C1080.78,-211.74 1100.78,-211.156 1119.69,-210.605"/>
<polygon fill="midnightblue" stroke="midnightblue" points="1061.49,-208.801 1051.59,-212.591 1061.69,-215.798 1061.49,-208.801"/>
</g>
<!-- Node9&#45;&gt;Node5 -->
<g id="edge9" class="edge"><title>Node9&#45;&gt;Node5</title>
<path fill="none" stroke="midnightblue" d="M1115.25,-143.983C1100.13,-142.795 1084.64,-141.736 1070,-141 905.987,-132.755 714.542,-131.921 603.893,-132.299"/>
<polygon fill="midnightblue" stroke="midnightblue" points="1115.39,-147.506 1125.64,-144.824 1115.96,-140.528 1115.39,-147.506"/>
</g>
<!-- Node11 -->
<g id="node11" class="node"><title>Node11</title>
<g id="a_node11"><a xlink:href="../../d6/d24/classgame_player_1_1_select_state.html#a801827392f0faeee6b96925060d77838" target="_top" xlink:title="gamePlayer.SelectState.on\lClick">
<polygon fill="white" stroke="black" points="1370.5,-217 1370.5,-247 1517.5,-247 1517.5,-217 1370.5,-217"/>
<text text-anchor="start" x="1378.5" y="-235" font-family="Helvetica,sans-Serif" font-size="10.00">gamePlayer.SelectState.on</text>
<text text-anchor="middle" x="1444" y="-224" font-family="Helvetica,sans-Serif" font-size="10.00">Click</text>
</a>
</g>
</g>
<!-- Node10&#45;&gt;Node11 -->
<g id="edge11" class="edge"><title>Node10&#45;&gt;Node11</title>
<path fill="none" stroke="midnightblue" d="M1310.2,-218.262C1330.4,-220.352 1351.3,-222.514 1370.37,-224.486"/>
<polygon fill="midnightblue" stroke="midnightblue" points="1310.34,-214.758 1300.03,-217.21 1309.62,-221.721 1310.34,-214.758"/>
</g>
<!-- Node12 -->
<g id="node12" class="node"><title>Node12</title>
<g id="a_node12"><a xlink:href="../../df/df0/classtests_1_1_view_controller_test.html#a785df2c49a72c183c22163ce927f5df1" target="_top" xlink:title="tests.ViewControllerTest.update\lActionsTest">
<polygon fill="white" stroke="black" points="1360.5,-168 1360.5,-198 1527.5,-198 1527.5,-168 1360.5,-168"/>
<text text-anchor="start" x="1368.5" y="-186" font-family="Helvetica,sans-Serif" font-size="10.00">tests.ViewControllerTest.update</text>
<text text-anchor="middle" x="1444" y="-175" font-family="Helvetica,sans-Serif" font-size="10.00">ActionsTest</text>
</a>
</g>
</g>
<!-- Node10&#45;&gt;Node12 -->
<g id="edge12" class="edge"><title>Node10&#45;&gt;Node12</title>
<path fill="none" stroke="midnightblue" d="M1310.33,-197.296C1326.99,-195.501 1344.12,-193.656 1360.3,-191.912"/>
<polygon fill="midnightblue" stroke="midnightblue" points="1309.6,-193.855 1300.03,-198.406 1310.35,-200.814 1309.6,-193.855"/>
</g>
<!-- Node15 -->
<g id="node15" class="node"><title>Node15</title>
<g id="a_node15"><a xlink:href="../../df/dd5/classgame_player_1_1_view_controller.html#a10a40967a873f067cf91b024ff85b38e" target="_top" xlink:title="gamePlayer.ViewController.initializeGrid">
<polygon fill="white" stroke="black" points="866,-49.5 866,-68.5 1070,-68.5 1070,-49.5 866,-49.5"/>
<text text-anchor="middle" x="968" y="-56.5" font-family="Helvetica,sans-Serif" font-size="10.00">gamePlayer.ViewController.initializeGrid</text>
</a>
</g>
</g>
<!-- Node14&#45;&gt;Node15 -->
<g id="edge16" class="edge"><title>Node14&#45;&gt;Node15</title>
<path fill="none" stroke="midnightblue" d="M825.791,-70.6146C838.964,-69.5311 852.607,-68.4089 865.987,-67.3084"/>
<polygon fill="midnightblue" stroke="midnightblue" points="825.5,-67.1266 815.821,-71.4347 826.074,-74.1031 825.5,-67.1266"/>
</g>
<!-- Node15&#45;&gt;Node2 -->
<g id="edge21" class="edge"><title>Node15&#45;&gt;Node2</title>
<path fill="none" stroke="midnightblue" d="M855.503,-53.71C846.875,-53.425 838.297,-53.1816 830,-53 745.576,-51.1522 723.894,-43.3733 640,-53 532.94,-65.2849 410.746,-98.4072 344.657,-117.966"/>
<polygon fill="midnightblue" stroke="midnightblue" points="855.526,-57.2128 865.641,-54.0625 855.769,-50.217 855.526,-57.2128"/>
</g>
<!-- Node16 -->
<g id="node16" class="node"><title>Node16</title>
<g id="a_node16"><a xlink:href="../../df/dd5/classgame_player_1_1_view_controller.html#a0d1a3d443966f151b070dc751d2faf9a" target="_top" xlink:title="gamePlayer.ViewController.restartGame">
<polygon fill="white" stroke="black" points="1106,-87.5 1106,-106.5 1314,-106.5 1314,-87.5 1106,-87.5"/>
<text text-anchor="middle" x="1210" y="-94.5" font-family="Helvetica,sans-Serif" font-size="10.00">gamePlayer.ViewController.restartGame</text>
</a>
</g>
</g>
<!-- Node15&#45;&gt;Node16 -->
<g id="edge17" class="edge"><title>Node15&#45;&gt;Node16</title>
<path fill="none" stroke="midnightblue" d="M1039.32,-70.1341C1074.03,-75.6303 1115.48,-82.1929 1148.72,-87.4561"/>
<polygon fill="midnightblue" stroke="midnightblue" points="1039.68,-66.647 1029.25,-68.54 1038.58,-73.5608 1039.68,-66.647"/>
</g>
<!-- Node17 -->
<g id="node17" class="node"><title>Node17</title>
<g id="a_node17"><a xlink:href="../../df/dd5/classgame_player_1_1_view_controller.html#af1870a0b6786d96d118021fc62b6475d" target="_top" xlink:title="gamePlayer.ViewController.beginGame">
<polygon fill="white" stroke="black" points="1109,-49.5 1109,-68.5 1311,-68.5 1311,-49.5 1109,-49.5"/>
<text text-anchor="middle" x="1210" y="-56.5" font-family="Helvetica,sans-Serif" font-size="10.00">gamePlayer.ViewController.beginGame</text>
</a>
</g>
</g>
<!-- Node15&#45;&gt;Node17 -->
<g id="edge18" class="edge"><title>Node15&#45;&gt;Node17</title>
<path fill="none" stroke="midnightblue" d="M1080.35,-59C1089.84,-59 1099.4,-59 1108.8,-59"/>
<polygon fill="midnightblue" stroke="midnightblue" points="1080.09,-55.5001 1070.09,-59 1080.09,-62.5001 1080.09,-55.5001"/>
</g>
<!-- Node18 -->
<g id="node18" class="node"><title>Node18</title>
<g id="a_node18"><a xlink:href="../../df/dd5/classgame_player_1_1_view_controller.html#a4c1754d129a4eac955390b428eaa448a" target="_top" xlink:title="gamePlayer.ViewController.test\lPlayGame">
<polygon fill="white" stroke="black" points="1127.5,-0 1127.5,-30 1292.5,-30 1292.5,-0 1127.5,-0"/>
<text text-anchor="start" x="1135.5" y="-18" font-family="Helvetica,sans-Serif" font-size="10.00">gamePlayer.ViewController.test</text>
<text text-anchor="middle" x="1210" y="-7" font-family="Helvetica,sans-Serif" font-size="10.00">PlayGame</text>
</a>
</g>
</g>
<!-- Node15&#45;&gt;Node18 -->
<g id="edge19" class="edge"><title>Node15&#45;&gt;Node18</title>
<path fill="none" stroke="midnightblue" d="M1031.18,-47.6011C1060.49,-42.2271 1095.85,-35.744 1127.29,-29.9794"/>
<polygon fill="midnightblue" stroke="midnightblue" points="1030.28,-44.2067 1021.08,-49.4527 1031.54,-51.0919 1030.28,-44.2067"/>
</g>
<!-- Node19 -->
<g id="node19" class="node"><title>Node19</title>
<g id="a_node19"><a xlink:href="../../db/d40/classfxml__main_1_1_authoring_controller.html#a2ec133c8edf0a7ab1e84f2e12455233d" target="_top" xlink:title="fxml_main.AuthoringController.save\lAsGame">
<polygon fill="white" stroke="black" points="1350.5,-0 1350.5,-30 1537.5,-30 1537.5,-0 1350.5,-0"/>
<text text-anchor="start" x="1358.5" y="-18" font-family="Helvetica,sans-Serif" font-size="10.00">fxml_main.AuthoringController.save</text>
<text text-anchor="middle" x="1444" y="-7" font-family="Helvetica,sans-Serif" font-size="10.00">AsGame</text>
</a>
</g>
</g>
<!-- Node18&#45;&gt;Node19 -->
<g id="edge20" class="edge"><title>Node18&#45;&gt;Node19</title>
<path fill="none" stroke="midnightblue" d="M1302.96,-15C1318.59,-15 1334.83,-15 1350.47,-15"/>
<polygon fill="midnightblue" stroke="midnightblue" points="1302.79,-11.5001 1292.79,-15 1302.79,-18.5001 1302.79,-11.5001"/>
</g>
</g>
</svg>
