<?xml version="1.0" encoding="UTF-8" standalone="no"?>
<!DOCTYPE svg PUBLIC "-//W3C//DTD SVG 1.1//EN"
 "http://www.w3.org/Graphics/SVG/1.1/DTD/svg11.dtd">
<!-- Generated by graphviz version 2.36.0 (20140111.2315)
 -->
<!-- Title: gamePlayer.ViewController.setPlayerTurnDisplay Pages: 1 -->
<svg width="1724pt" height="322pt"
 viewBox="0.00 0.00 1724.00 322.00" xmlns="http://www.w3.org/2000/svg" xmlns:xlink="http://www.w3.org/1999/xlink">
<g id="graph0" class="graph" transform="scale(1 1) rotate(0) translate(4 318)">
<title>gamePlayer.ViewController.setPlayerTurnDisplay</title>
<polygon fill="white" stroke="none" points="-4,4 -4,-318 1720,-318 1720,4 -4,4"/>
<!-- Node1 -->
<g id="node1" class="node"><title>Node1</title>
<polygon fill="#bfbfbf" stroke="black" points="0.5,-102 0.5,-132 161.5,-132 161.5,-102 0.5,-102"/>
<text text-anchor="start" x="8.5" y="-120" font-family="Helvetica,sans-Serif" font-size="10.00">gamePlayer.ViewController.set</text>
<text text-anchor="middle" x="81" y="-109" font-family="Helvetica,sans-Serif" font-size="10.00">PlayerTurnDisplay</text>
</g>
<!-- Node2 -->
<g id="node2" class="node"><title>Node2</title>
<g id="a_node2"><a xlink:href="../../df/dd5/classgame_player_1_1_view_controller.html#a620f8a02d3ac7677cd179fcd812aca55" target="_top" xlink:title="gamePlayer.ViewController.check\lEndActions">
<polygon fill="white" stroke="black" points="198,-125 198,-155 372,-155 372,-125 198,-125"/>
<text text-anchor="start" x="206" y="-143" font-family="Helvetica,sans-Serif" font-size="10.00">gamePlayer.ViewController.check</text>
<text text-anchor="middle" x="285" y="-132" font-family="Helvetica,sans-Serif" font-size="10.00">EndActions</text>
</a>
</g>
</g>
<!-- Node1&#45;&gt;Node2 -->
<g id="edge1" class="edge"><title>Node1&#45;&gt;Node2</title>
<path fill="none" stroke="midnightblue" d="M171.69,-127.212C180.389,-128.203 189.201,-129.206 197.865,-130.193"/>
<polygon fill="midnightblue" stroke="midnightblue" points="171.878,-123.711 161.546,-126.057 171.086,-130.666 171.878,-123.711"/>
</g>
<!-- Node23 -->
<g id="node23" class="node"><title>Node23</title>
<g id="a_node23"><a xlink:href="../../df/dd5/classgame_player_1_1_view_controller.html#ab7475f8c5e52b985dd769ce178274d35" target="_top" xlink:title="gamePlayer.ViewController.set\lGridState">
<polygon fill="white" stroke="black" points="420.5,-54 420.5,-84 581.5,-84 581.5,-54 420.5,-54"/>
<text text-anchor="start" x="428.5" y="-72" font-family="Helvetica,sans-Serif" font-size="10.00">gamePlayer.ViewController.set</text>
<text text-anchor="middle" x="501" y="-61" font-family="Helvetica,sans-Serif" font-size="10.00">GridState</text>
</a>
</g>
</g>
<!-- Node1&#45;&gt;Node23 -->
<g id="edge25" class="edge"><title>Node1&#45;&gt;Node23</title>
<path fill="none" stroke="midnightblue" d="M171.825,-106.685C245.694,-98.2027 349.393,-86.2946 420.335,-78.1482"/>
<polygon fill="midnightblue" stroke="midnightblue" points="171.142,-103.241 161.606,-107.859 171.941,-110.195 171.142,-103.241"/>
</g>
<!-- Node3 -->
<g id="node3" class="node"><title>Node3</title>
<g id="a_node3"><a xlink:href="../../df/dd5/classgame_player_1_1_view_controller.html#a13ea7814bde61a8042c5b1a23af41416" target="_top" xlink:title="gamePlayer.ViewController.end\lAction">
<polygon fill="white" stroke="black" points="419,-103 419,-133 583,-133 583,-103 419,-103"/>
<text text-anchor="start" x="427" y="-121" font-family="Helvetica,sans-Serif" font-size="10.00">gamePlayer.ViewController.end</text>
<text text-anchor="middle" x="501" y="-110" font-family="Helvetica,sans-Serif" font-size="10.00">Action</text>
</a>
</g>
</g>
<!-- Node2&#45;&gt;Node3 -->
<g id="edge2" class="edge"><title>Node2&#45;&gt;Node3</title>
<path fill="none" stroke="midnightblue" d="M382.327,-130.097C394.55,-128.841 406.962,-127.565 418.914,-126.336"/>
<polygon fill="midnightblue" stroke="midnightblue" points="381.707,-126.642 372.117,-131.147 382.422,-133.606 381.707,-126.642"/>
</g>
<!-- Node5 -->
<g id="node5" class="node"><title>Node5</title>
<g id="a_node5"><a xlink:href="../../df/dd5/classgame_player_1_1_view_controller.html#a95c2acd43bb39b8606c69971c1cd30f5" target="_top" xlink:title="gamePlayer.ViewController.perform\lAction">
<polygon fill="white" stroke="black" points="408.5,-240 408.5,-270 593.5,-270 593.5,-240 408.5,-240"/>
<text text-anchor="start" x="416.5" y="-258" font-family="Helvetica,sans-Serif" font-size="10.00">gamePlayer.ViewController.perform</text>
<text text-anchor="middle" x="501" y="-247" font-family="Helvetica,sans-Serif" font-size="10.00">Action</text>
</a>
</g>
</g>
<!-- Node2&#45;&gt;Node5 -->
<g id="edge4" class="edge"><title>Node2&#45;&gt;Node5</title>
<path fill="none" stroke="midnightblue" d="M322.856,-159.806C365.218,-182.57 433.803,-219.427 472.016,-239.962"/>
<polygon fill="midnightblue" stroke="midnightblue" points="324.442,-156.685 313.977,-155.034 321.129,-162.851 324.442,-156.685"/>
</g>
<!-- Node4 -->
<g id="node4" class="node"><title>Node4</title>
<g id="a_node4"><a xlink:href="../../db/d00/classgame_player_1_1_apply_state.html#aed42c1aba25264bc6880036f693a1c9e" target="_top" xlink:title="gamePlayer.ApplyState.on\lClick">
<polygon fill="white" stroke="black" points="653.5,-103 653.5,-133 796.5,-133 796.5,-103 653.5,-103"/>
<text text-anchor="start" x="661.5" y="-121" font-family="Helvetica,sans-Serif" font-size="10.00">gamePlayer.ApplyState.on</text>
<text text-anchor="middle" x="725" y="-110" font-family="Helvetica,sans-Serif" font-size="10.00">Click</text>
</a>
</g>
</g>
<!-- Node3&#45;&gt;Node4 -->
<g id="edge3" class="edge"><title>Node3&#45;&gt;Node4</title>
<path fill="none" stroke="midnightblue" d="M593.182,-118C613.271,-118 634.256,-118 653.387,-118"/>
<polygon fill="midnightblue" stroke="midnightblue" points="593.089,-114.5 583.089,-118 593.089,-121.5 593.089,-114.5"/>
</g>
<!-- Node6 -->
<g id="node6" class="node"><title>Node6</title>
<g id="a_node6"><a xlink:href="../../da/d55/classgame_player_1_1_keyboard_movement.html#af45fd8d279b1ee2d6be5466d425485ab" target="_top" xlink:title="gamePlayer.KeyboardMovement.set\lMovementKeyControl">
<polygon fill="white" stroke="black" points="630.5,-240 630.5,-270 819.5,-270 819.5,-240 630.5,-240"/>
<text text-anchor="start" x="638.5" y="-258" font-family="Helvetica,sans-Serif" font-size="10.00">gamePlayer.KeyboardMovement.set</text>
<text text-anchor="middle" x="725" y="-247" font-family="Helvetica,sans-Serif" font-size="10.00">MovementKeyControl</text>
</a>
</g>
</g>
<!-- Node5&#45;&gt;Node6 -->
<g id="edge5" class="edge"><title>Node5&#45;&gt;Node6</title>
<path fill="none" stroke="midnightblue" d="M603.631,-248.271C612.577,-248.23 621.605,-248.248 630.48,-248.325"/>
<polygon fill="midnightblue" stroke="midnightblue" points="603.552,-244.772 593.578,-248.343 603.602,-251.772 603.552,-244.772"/>
</g>
<!-- Node14 -->
<g id="node14" class="node"><title>Node14</title>
<g id="a_node14"><a xlink:href="../../df/dd5/classgame_player_1_1_view_controller.html#a22ee80193bbac79a935ee961a183bfcd" target="_top" xlink:title="gamePlayer.ViewController.set\lOnClick">
<polygon fill="white" stroke="black" points="644.5,-191 644.5,-221 805.5,-221 805.5,-191 644.5,-191"/>
<text text-anchor="start" x="652.5" y="-209" font-family="Helvetica,sans-Serif" font-size="10.00">gamePlayer.ViewController.set</text>
<text text-anchor="middle" x="725" y="-198" font-family="Helvetica,sans-Serif" font-size="10.00">OnClick</text>
</a>
</g>
</g>
<!-- Node5&#45;&gt;Node14 -->
<g id="edge15" class="edge"><title>Node5&#45;&gt;Node14</title>
<path fill="none" stroke="midnightblue" d="M580.19,-237.742C604.926,-232.282 632.051,-226.295 656.013,-221.006"/>
<polygon fill="midnightblue" stroke="midnightblue" points="579.127,-234.392 570.116,-239.965 580.635,-241.228 579.127,-234.392"/>
</g>
<!-- Node6&#45;&gt;Node5 -->
<g id="edge13" class="edge"><title>Node6&#45;&gt;Node5</title>
<path fill="none" stroke="midnightblue" d="M620.408,-261.737C611.451,-261.769 602.429,-261.743 593.578,-261.657"/>
<polygon fill="midnightblue" stroke="midnightblue" points="620.502,-265.236 630.48,-261.675 620.459,-258.236 620.502,-265.236"/>
</g>
<!-- Node7 -->
<g id="node7" class="node"><title>Node7</title>
<g id="a_node7"><a xlink:href="../../df/dd5/classgame_player_1_1_view_controller.html#a7eb038fd9f20604ade0406f27ef76657" target="_top" xlink:title="gamePlayer.ViewController.bind\lAction">
<polygon fill="white" stroke="black" points="874.5,-191 874.5,-221 1041.5,-221 1041.5,-191 874.5,-191"/>
<text text-anchor="start" x="882.5" y="-209" font-family="Helvetica,sans-Serif" font-size="10.00">gamePlayer.ViewController.bind</text>
<text text-anchor="middle" x="958" y="-198" font-family="Helvetica,sans-Serif" font-size="10.00">Action</text>
</a>
</g>
</g>
<!-- Node6&#45;&gt;Node7 -->
<g id="edge6" class="edge"><title>Node6&#45;&gt;Node7</title>
<path fill="none" stroke="midnightblue" d="M806.674,-237.887C832.597,-232.389 861.102,-226.342 886.257,-221.006"/>
<polygon fill="midnightblue" stroke="midnightblue" points="805.934,-234.466 796.877,-239.965 807.386,-241.314 805.934,-234.466"/>
</g>
<!-- Node13 -->
<g id="node13" class="node"><title>Node13</title>
<g id="a_node13"><a xlink:href="../../df/dd5/classgame_player_1_1_view_controller.html#a27da17c1280cd953a14f6b76b18f9a4b" target="_top" xlink:title="gamePlayer.ViewController.toggle\lKeyboardControl">
<polygon fill="white" stroke="black" points="870,-240 870,-270 1046,-270 1046,-240 870,-240"/>
<text text-anchor="start" x="878" y="-258" font-family="Helvetica,sans-Serif" font-size="10.00">gamePlayer.ViewController.toggle</text>
<text text-anchor="middle" x="958" y="-247" font-family="Helvetica,sans-Serif" font-size="10.00">KeyboardControl</text>
</a>
</g>
</g>
<!-- Node6&#45;&gt;Node13 -->
<g id="edge14" class="edge"><title>Node6&#45;&gt;Node13</title>
<path fill="none" stroke="midnightblue" d="M829.825,-255C843.236,-255 856.858,-255 869.96,-255"/>
<polygon fill="midnightblue" stroke="midnightblue" points="829.624,-251.5 819.624,-255 829.623,-258.5 829.624,-251.5"/>
</g>
<!-- Node8 -->
<g id="node8" class="node"><title>Node8</title>
<g id="a_node8"><a xlink:href="../../df/df0/classtests_1_1_view_controller_test.html#a74e99f9c72cbdcd2d56271b2ad2df1ce" target="_top" xlink:title="tests.ViewControllerTest.bind\lActionTest">
<polygon fill="white" stroke="black" points="1123,-235 1123,-265 1277,-265 1277,-235 1123,-235"/>
<text text-anchor="start" x="1131" y="-253" font-family="Helvetica,sans-Serif" font-size="10.00">tests.ViewControllerTest.bind</text>
<text text-anchor="middle" x="1200" y="-242" font-family="Helvetica,sans-Serif" font-size="10.00">ActionTest</text>
</a>
</g>
</g>
<!-- Node7&#45;&gt;Node8 -->
<g id="edge7" class="edge"><title>Node7&#45;&gt;Node8</title>
<path fill="none" stroke="midnightblue" d="M1050.97,-222.861C1074.66,-227.205 1099.9,-231.831 1122.7,-236.011"/>
<polygon fill="midnightblue" stroke="midnightblue" points="1051.39,-219.38 1040.92,-221.019 1050.13,-226.265 1051.39,-219.38"/>
</g>
<!-- Node9 -->
<g id="node9" class="node"><title>Node9</title>
<g id="a_node9"><a xlink:href="../../d1/db7/classgame_player_1_1_keyboard_action.html#a08ace57322b8639020688dd9493c3e1f" target="_top" xlink:title="gamePlayer.KeyboardAction.set\lActionKeyControl">
<polygon fill="white" stroke="black" points="1116,-284 1116,-314 1284,-314 1284,-284 1116,-284"/>
<text text-anchor="start" x="1124" y="-302" font-family="Helvetica,sans-Serif" font-size="10.00">gamePlayer.KeyboardAction.set</text>
<text text-anchor="middle" x="1200" y="-291" font-family="Helvetica,sans-Serif" font-size="10.00">ActionKeyControl</text>
</a>
</g>
</g>
<!-- Node7&#45;&gt;Node9 -->
<g id="edge8" class="edge"><title>Node7&#45;&gt;Node9</title>
<path fill="none" stroke="midnightblue" d="M1050.78,-224.87C1053.96,-226.445 1057.05,-228.151 1060,-230 1081.42,-243.404 1074.61,-260.545 1096,-274 1102.15,-277.871 1108.86,-281.142 1115.8,-283.907"/>
<polygon fill="midnightblue" stroke="midnightblue" points="1052.17,-221.656 1041.61,-220.77 1049.31,-228.046 1052.17,-221.656"/>
</g>
<!-- Node10 -->
<g id="node10" class="node"><title>Node10</title>
<g id="a_node10"><a xlink:href="../../df/dd5/classgame_player_1_1_view_controller.html#ab8c14a8c53be9021a62d0107c2f75ef6" target="_top" xlink:title="gamePlayer.ViewController.update\lActions">
<polygon fill="white" stroke="black" points="1110,-186 1110,-216 1290,-216 1290,-186 1110,-186"/>
<text text-anchor="start" x="1118" y="-204" font-family="Helvetica,sans-Serif" font-size="10.00">gamePlayer.ViewController.update</text>
<text text-anchor="middle" x="1200" y="-193" font-family="Helvetica,sans-Serif" font-size="10.00">Actions</text>
</a>
</g>
</g>
<!-- Node7&#45;&gt;Node10 -->
<g id="edge10" class="edge"><title>Node7&#45;&gt;Node10</title>
<path fill="none" stroke="midnightblue" d="M1051.75,-204.068C1070.78,-203.671 1090.78,-203.255 1109.69,-202.861"/>
<polygon fill="midnightblue" stroke="midnightblue" points="1051.52,-200.572 1041.59,-204.279 1051.67,-207.57 1051.52,-200.572"/>
</g>
<!-- Node9&#45;&gt;Node5 -->
<g id="edge9" class="edge"><title>Node9&#45;&gt;Node5</title>
<path fill="none" stroke="midnightblue" d="M1105.45,-300.006C992.445,-300.231 796.725,-297.455 630,-279 611.011,-276.898 590.612,-273.569 571.802,-270.052"/>
<polygon fill="midnightblue" stroke="midnightblue" points="1105.8,-303.505 1115.79,-299.976 1105.78,-296.505 1105.8,-303.505"/>
</g>
<!-- Node11 -->
<g id="node11" class="node"><title>Node11</title>
<g id="a_node11"><a xlink:href="../../d6/d24/classgame_player_1_1_select_state.html#a801827392f0faeee6b96925060d77838" target="_top" xlink:title="gamePlayer.SelectState.on\lClick">
<polygon fill="white" stroke="black" points="1363.5,-216 1363.5,-246 1510.5,-246 1510.5,-216 1363.5,-216"/>
<text text-anchor="start" x="1371.5" y="-234" font-family="Helvetica,sans-Serif" font-size="10.00">gamePlayer.SelectState.on</text>
<text text-anchor="middle" x="1437" y="-223" font-family="Helvetica,sans-Serif" font-size="10.00">Click</text>
</a>
</g>
</g>
<!-- Node10&#45;&gt;Node11 -->
<g id="edge11" class="edge"><title>Node10&#45;&gt;Node11</title>
<path fill="none" stroke="midnightblue" d="M1300.17,-213.66C1321.35,-216.363 1343.34,-219.171 1363.3,-221.72"/>
<polygon fill="midnightblue" stroke="midnightblue" points="1300.54,-210.179 1290.18,-212.384 1299.65,-217.123 1300.54,-210.179"/>
</g>
<!-- Node12 -->
<g id="node12" class="node"><title>Node12</title>
<g id="a_node12"><a xlink:href="../../df/df0/classtests_1_1_view_controller_test.html#a785df2c49a72c183c22163ce927f5df1" target="_top" xlink:title="tests.ViewControllerTest.update\lActionsTest">
<polygon fill="white" stroke="black" points="1353.5,-167 1353.5,-197 1520.5,-197 1520.5,-167 1353.5,-167"/>
<text text-anchor="start" x="1361.5" y="-185" font-family="Helvetica,sans-Serif" font-size="10.00">tests.ViewControllerTest.update</text>
<text text-anchor="middle" x="1437" y="-174" font-family="Helvetica,sans-Serif" font-size="10.00">ActionsTest</text>
</a>
</g>
</g>
<!-- Node10&#45;&gt;Node12 -->
<g id="edge12" class="edge"><title>Node10&#45;&gt;Node12</title>
<path fill="none" stroke="midnightblue" d="M1300.49,-192.956C1318.14,-191.529 1336.34,-190.057 1353.46,-188.674"/>
<polygon fill="midnightblue" stroke="midnightblue" points="1299.86,-189.495 1290.18,-193.79 1300.43,-196.472 1299.86,-189.495"/>
</g>
<!-- Node15 -->
<g id="node15" class="node"><title>Node15</title>
<g id="a_node15"><a xlink:href="../../df/dd5/classgame_player_1_1_view_controller.html#a10a40967a873f067cf91b024ff85b38e" target="_top" xlink:title="gamePlayer.ViewController.initializeGrid">
<polygon fill="white" stroke="black" points="856,-103.5 856,-122.5 1060,-122.5 1060,-103.5 856,-103.5"/>
<text text-anchor="middle" x="958" y="-110.5" font-family="Helvetica,sans-Serif" font-size="10.00">gamePlayer.ViewController.initializeGrid</text>
</a>
</g>
</g>
<!-- Node14&#45;&gt;Node15 -->
<g id="edge16" class="edge"><title>Node14&#45;&gt;Node15</title>
<path fill="none" stroke="midnightblue" d="M786.8,-187.795C797.928,-184.125 809.377,-180.12 820,-176 863.202,-159.245 912.155,-135.542 938.255,-122.509"/>
<polygon fill="midnightblue" stroke="midnightblue" points="785.565,-184.516 777.132,-190.929 787.724,-191.175 785.565,-184.516"/>
</g>
<!-- Node15&#45;&gt;Node2 -->
<g id="edge17" class="edge"><title>Node15&#45;&gt;Node2</title>
<path fill="none" stroke="midnightblue" d="M912.069,-124.984C885.507,-131.445 851.089,-138.746 820,-142 662.79,-158.457 478.119,-152.105 372.3,-146.027"/>
<polygon fill="midnightblue" stroke="midnightblue" points="912.978,-128.364 921.841,-122.558 911.292,-121.57 912.978,-128.364"/>
</g>
<!-- Node16 -->
<g id="node16" class="node"><title>Node16</title>
<g id="a_node16"><a xlink:href="../../df/dd5/classgame_player_1_1_view_controller.html#a0d1a3d443966f151b070dc751d2faf9a" target="_top" xlink:title="gamePlayer.ViewController.restartGame">
<polygon fill="white" stroke="black" points="1096,-147.5 1096,-166.5 1304,-166.5 1304,-147.5 1096,-147.5"/>
<text text-anchor="middle" x="1200" y="-154.5" font-family="Helvetica,sans-Serif" font-size="10.00">gamePlayer.ViewController.restartGame</text>
</a>
</g>
</g>
<!-- Node15&#45;&gt;Node16 -->
<g id="edge18" class="edge"><title>Node15&#45;&gt;Node16</title>
<path fill="none" stroke="midnightblue" d="M1021.27,-124.417C1060.33,-131.577 1110.09,-140.701 1147.03,-147.471"/>
<polygon fill="midnightblue" stroke="midnightblue" points="1021.54,-120.908 1011.08,-122.547 1020.28,-127.793 1021.54,-120.908"/>
</g>
<!-- Node17 -->
<g id="node17" class="node"><title>Node17</title>
<g id="a_node17"><a xlink:href="../../df/dd5/classgame_player_1_1_view_controller.html#a4c1754d129a4eac955390b428eaa448a" target="_top" xlink:title="gamePlayer.ViewController.test\lPlayGame">
<polygon fill="white" stroke="black" points="1117.5,-98 1117.5,-128 1282.5,-128 1282.5,-98 1117.5,-98"/>
<text text-anchor="start" x="1125.5" y="-116" font-family="Helvetica,sans-Serif" font-size="10.00">gamePlayer.ViewController.test</text>
<text text-anchor="middle" x="1200" y="-105" font-family="Helvetica,sans-Serif" font-size="10.00">PlayGame</text>
</a>
</g>
</g>
<!-- Node15&#45;&gt;Node17 -->
<g id="edge19" class="edge"><title>Node15&#45;&gt;Node17</title>
<path fill="none" stroke="midnightblue" d="M1070.43,-113C1086.23,-113 1102.22,-113 1117.32,-113"/>
<polygon fill="midnightblue" stroke="midnightblue" points="1070.09,-109.5 1060.09,-113 1070.09,-116.5 1070.09,-109.5"/>
</g>
<!-- Node21 -->
<g id="node21" class="node"><title>Node21</title>
<g id="a_node21"><a xlink:href="../../df/dd5/classgame_player_1_1_view_controller.html#aabf431713b65ec510f1cb2df12da4e45" target="_top" xlink:title="gamePlayer.ViewController.test\lPlayGameInTab">
<polygon fill="white" stroke="black" points="1117.5,-49 1117.5,-79 1282.5,-79 1282.5,-49 1117.5,-49"/>
<text text-anchor="start" x="1125.5" y="-67" font-family="Helvetica,sans-Serif" font-size="10.00">gamePlayer.ViewController.test</text>
<text text-anchor="middle" x="1200" y="-56" font-family="Helvetica,sans-Serif" font-size="10.00">PlayGameInTab</text>
</a>
</g>
</g>
<!-- Node15&#45;&gt;Node21 -->
<g id="edge23" class="edge"><title>Node15&#45;&gt;Node21</title>
<path fill="none" stroke="midnightblue" d="M1015.42,-101.48C1048.19,-94.7911 1089.84,-86.2873 1125.18,-79.0713"/>
<polygon fill="midnightblue" stroke="midnightblue" points="1014.66,-98.0645 1005.56,-103.494 1016.06,-104.923 1014.66,-98.0645"/>
</g>
<!-- Node22 -->
<g id="node22" class="node"><title>Node22</title>
<g id="a_node22"><a xlink:href="../../df/dd5/classgame_player_1_1_view_controller.html#adc15cd81cefb88c58f9d3b7478328df8" target="_top" xlink:title="gamePlayer.ViewController.test\lPlayGUIGame">
<polygon fill="white" stroke="black" points="1117.5,-0 1117.5,-30 1282.5,-30 1282.5,-0 1117.5,-0"/>
<text text-anchor="start" x="1125.5" y="-18" font-family="Helvetica,sans-Serif" font-size="10.00">gamePlayer.ViewController.test</text>
<text text-anchor="middle" x="1200" y="-7" font-family="Helvetica,sans-Serif" font-size="10.00">PlayGUIGame</text>
</a>
</g>
</g>
<!-- Node15&#45;&gt;Node22 -->
<g id="edge24" class="edge"><title>Node15&#45;&gt;Node22</title>
<path fill="none" stroke="midnightblue" d="M982.149,-98.0011C1008.68,-81.4132 1053.94,-54.9322 1096,-39 1104.84,-35.6505 1114.3,-32.6773 1123.76,-30.0647"/>
<polygon fill="midnightblue" stroke="midnightblue" points="980.16,-95.1176 973.581,-103.422 983.903,-101.033 980.16,-95.1176"/>
</g>
<!-- Node18 -->
<g id="node18" class="node"><title>Node18</title>
<g id="a_node18"><a xlink:href="../../db/d40/classfxml__main_1_1_authoring_controller.html#a2ec133c8edf0a7ab1e84f2e12455233d" target="_top" xlink:title="fxml_main.AuthoringController.save\lAsGame">
<polygon fill="white" stroke="black" points="1343.5,-108 1343.5,-138 1530.5,-138 1530.5,-108 1343.5,-108"/>
<text text-anchor="start" x="1351.5" y="-126" font-family="Helvetica,sans-Serif" font-size="10.00">fxml_main.AuthoringController.save</text>
<text text-anchor="middle" x="1437" y="-115" font-family="Helvetica,sans-Serif" font-size="10.00">AsGame</text>
</a>
</g>
</g>
<!-- Node17&#45;&gt;Node18 -->
<g id="edge20" class="edge"><title>Node17&#45;&gt;Node18</title>
<path fill="none" stroke="midnightblue" d="M1292.77,-116.905C1309.38,-117.612 1326.7,-118.349 1343.34,-119.057"/>
<polygon fill="midnightblue" stroke="midnightblue" points="1292.67,-113.398 1282.53,-116.469 1292.37,-120.392 1292.67,-113.398"/>
</g>
<!-- Node19 -->
<g id="node19" class="node"><title>Node19</title>
<g id="a_node19"><a xlink:href="../../df/dd5/classgame_player_1_1_view_controller.html#a2bf1dce04187ad5eacb5359ef2b4eff8" target="_top" xlink:title="gamePlayer.ViewController.newGame">
<polygon fill="white" stroke="black" points="1340,-69.5 1340,-88.5 1534,-88.5 1534,-69.5 1340,-69.5"/>
<text text-anchor="middle" x="1437" y="-76.5" font-family="Helvetica,sans-Serif" font-size="10.00">gamePlayer.ViewController.newGame</text>
</a>
</g>
</g>
<!-- Node17&#45;&gt;Node19 -->
<g id="edge21" class="edge"><title>Node17&#45;&gt;Node19</title>
<path fill="none" stroke="midnightblue" d="M1292.72,-99.7304C1318.55,-95.9923 1346.14,-92.001 1370.14,-88.5288"/>
<polygon fill="midnightblue" stroke="midnightblue" points="1291.93,-96.308 1282.53,-101.204 1292.93,-103.236 1291.93,-96.308"/>
</g>
<!-- Node20 -->
<g id="node20" class="node"><title>Node20</title>
<g id="a_node20"><a xlink:href="../../df/dd5/classgame_player_1_1_view_controller.html#a2acd822c93c35674b6978a97b4ce6e3f" target="_top" xlink:title="gamePlayer.ViewController.\lViewController">
<polygon fill="white" stroke="black" points="1570,-64 1570,-94 1716,-94 1716,-64 1570,-64"/>
<text text-anchor="start" x="1578" y="-82" font-family="Helvetica,sans-Serif" font-size="10.00">gamePlayer.ViewController.</text>
<text text-anchor="middle" x="1643" y="-71" font-family="Helvetica,sans-Serif" font-size="10.00">ViewController</text>
</a>
</g>
</g>
<!-- Node19&#45;&gt;Node20 -->
<g id="edge22" class="edge"><title>Node19&#45;&gt;Node20</title>
<path fill="none" stroke="midnightblue" d="M1544.24,-79C1552.94,-79 1561.59,-79 1569.95,-79"/>
<polygon fill="midnightblue" stroke="midnightblue" points="1544.03,-75.5001 1534.03,-79 1544.03,-82.5001 1544.03,-75.5001"/>
</g>
<!-- Node23&#45;&gt;Node4 -->
<g id="edge28" class="edge"><title>Node23&#45;&gt;Node4</title>
<path fill="none" stroke="midnightblue" d="M580.19,-86.2581C604.926,-91.718 632.051,-97.705 656.013,-102.994"/>
<polygon fill="midnightblue" stroke="midnightblue" points="580.635,-82.7723 570.116,-84.0346 579.127,-89.6078 580.635,-82.7723"/>
</g>
<!-- Node23&#45;&gt;Node7 -->
<g id="edge26" class="edge"><title>Node23&#45;&gt;Node7</title>
<path fill="none" stroke="midnightblue" d="M591.748,-68.5191C671.435,-69.3976 781.102,-74.1933 820,-93 841.237,-103.268 838.404,-116.289 856,-132 880.971,-154.295 912.448,-176.545 933.568,-190.737"/>
<polygon fill="midnightblue" stroke="midnightblue" points="591.728,-65.0189 581.696,-68.4271 591.664,-72.0186 591.728,-65.0189"/>
</g>
<!-- Node23&#45;&gt;Node15 -->
<g id="edge27" class="edge"><title>Node23&#45;&gt;Node15</title>
<path fill="none" stroke="midnightblue" d="M591.873,-56.3917C655.999,-49.8324 743.985,-45.8089 820,-60 864.373,-68.2839 912.878,-90.449 938.589,-103.34"/>
<polygon fill="midnightblue" stroke="midnightblue" points="591.366,-52.9258 581.792,-57.4638 592.106,-59.8866 591.366,-52.9258"/>
</g>
</g>
</svg>
