<?xml version="1.0" encoding="UTF-8" standalone="no"?>
<!DOCTYPE svg PUBLIC "-//W3C//DTD SVG 1.1//EN"
 "http://www.w3.org/Graphics/SVG/1.1/DTD/svg11.dtd">
<!-- Generated by graphviz version 2.36.0 (20140111.2315)
 -->
<!-- Title: gamePlayer.ViewController.loadGameInTab Pages: 1 -->
<svg width="794pt" height="111pt"
 viewBox="0.00 0.00 794.00 111.00" xmlns="http://www.w3.org/2000/svg" xmlns:xlink="http://www.w3.org/1999/xlink">
<g id="graph0" class="graph" transform="scale(1 1) rotate(0) translate(4 107)">
<title>gamePlayer.ViewController.loadGameInTab</title>
<polygon fill="white" stroke="none" points="-4,4 -4,-107 790,-107 790,4 -4,4"/>
<!-- Node1 -->
<g id="node1" class="node"><title>Node1</title>
<polygon fill="#bfbfbf" stroke="black" points="0.5,-24 0.5,-54 167.5,-54 167.5,-24 0.5,-24"/>
<text text-anchor="start" x="8.5" y="-42" font-family="Helvetica,sans-Serif" font-size="10.00">gamePlayer.ViewController.load</text>
<text text-anchor="middle" x="84" y="-31" font-family="Helvetica,sans-Serif" font-size="10.00">GameInTab</text>
</g>
<!-- Node2 -->
<g id="node2" class="node"><title>Node2</title>
<g id="a_node2"><a xlink:href="../../df/dd5/classgame_player_1_1_view_controller.html#aa88b91b279269bee059216dccb13c583" target="_top" xlink:title="gamePlayer.ViewController.edit\lGUIPlayers">
<polygon fill="white" stroke="black" points="215,-49 215,-79 379,-79 379,-49 215,-49"/>
<text text-anchor="start" x="223" y="-67" font-family="Helvetica,sans-Serif" font-size="10.00">gamePlayer.ViewController.edit</text>
<text text-anchor="middle" x="297" y="-56" font-family="Helvetica,sans-Serif" font-size="10.00">GUIPlayers</text>
</a>
</g>
</g>
<!-- Node1&#45;&gt;Node2 -->
<g id="edge1" class="edge"><title>Node1&#45;&gt;Node2</title>
<path fill="none" stroke="midnightblue" d="M167.787,-48.8089C179.874,-50.241 192.378,-51.7225 204.624,-53.1734"/>
<polygon fill="midnightblue" stroke="midnightblue" points="204.492,-56.6822 214.834,-54.3832 205.316,-49.7309 204.492,-56.6822"/>
</g>
<!-- Node6 -->
<g id="node6" class="node"><title>Node6</title>
<g id="a_node6"><a xlink:href="../../d0/dbd/classgamedata_1_1_j_s_o_n_1_1_j_s_o_n_manager.html#a5690469e5cd34911a87e3f4c78e500a3" target="_top" xlink:title="gamedata.JSON.JSONManager.read\lFromJSONFile">
<polygon fill="white" stroke="black" points="204,-0 204,-30 390,-30 390,-0 204,-0"/>
<text text-anchor="start" x="212" y="-18" font-family="Helvetica,sans-Serif" font-size="10.00">gamedata.JSON.JSONManager.read</text>
<text text-anchor="middle" x="297" y="-7" font-family="Helvetica,sans-Serif" font-size="10.00">FromJSONFile</text>
</a>
</g>
</g>
<!-- Node1&#45;&gt;Node6 -->
<g id="edge5" class="edge"><title>Node1&#45;&gt;Node6</title>
<path fill="none" stroke="midnightblue" d="M167.787,-29.5834C176.251,-28.6207 184.921,-27.6346 193.562,-26.6517"/>
<polygon fill="midnightblue" stroke="midnightblue" points="194.14,-30.1087 203.68,-25.5008 193.349,-23.1535 194.14,-30.1087"/>
</g>
<!-- Node3 -->
<g id="node3" class="node"><title>Node3</title>
<g id="a_node3"><a xlink:href="../../df/dd5/classgame_player_1_1_view_controller.html#a27bd012e4b5306525d19c6dd9f3b6ac0" target="_top" xlink:title="gamePlayer.ViewController.edit\lSpecificPlayer">
<polygon fill="white" stroke="black" points="426,-73 426,-103 590,-103 590,-73 426,-73"/>
<text text-anchor="start" x="434" y="-91" font-family="Helvetica,sans-Serif" font-size="10.00">gamePlayer.ViewController.edit</text>
<text text-anchor="middle" x="508" y="-80" font-family="Helvetica,sans-Serif" font-size="10.00">SpecificPlayer</text>
</a>
</g>
</g>
<!-- Node2&#45;&gt;Node3 -->
<g id="edge2" class="edge"><title>Node2&#45;&gt;Node3</title>
<path fill="none" stroke="midnightblue" d="M379.104,-73.3134C391.116,-74.6928 403.563,-76.1221 415.765,-77.5232"/>
<polygon fill="midnightblue" stroke="midnightblue" points="415.608,-81.0281 425.942,-78.6919 416.406,-74.0738 415.608,-81.0281"/>
</g>
<!-- Node5 -->
<g id="node5" class="node"><title>Node5</title>
<g id="a_node5"><a xlink:href="../../d2/d99/classgamedata_1_1gamecomponents_1_1_game.html#a538b22872996297aad3b918c4f567a9f" target="_top" xlink:title="gamedata.gamecomponents.\lGame.getPlayers">
<polygon fill="white" stroke="black" points="428,-24 428,-54 588,-54 588,-24 428,-24"/>
<text text-anchor="start" x="436" y="-42" font-family="Helvetica,sans-Serif" font-size="10.00">gamedata.gamecomponents.</text>
<text text-anchor="middle" x="508" y="-31" font-family="Helvetica,sans-Serif" font-size="10.00">Game.getPlayers</text>
</a>
</g>
</g>
<!-- Node2&#45;&gt;Node5 -->
<g id="edge4" class="edge"><title>Node2&#45;&gt;Node5</title>
<path fill="none" stroke="midnightblue" d="M379.104,-54.2986C391.689,-52.7932 404.751,-51.2307 417.509,-49.7047"/>
<polygon fill="midnightblue" stroke="midnightblue" points="418.146,-53.1535 427.66,-48.4905 417.315,-46.2031 418.146,-53.1535"/>
</g>
<!-- Node4 -->
<g id="node4" class="node"><title>Node4</title>
<g id="a_node4"><a xlink:href="../../d2/d99/classgamedata_1_1gamecomponents_1_1_game.html#ad0b2eb24eabcffe2596837c5c6c1ac2c" target="_top" xlink:title="gamedata.gamecomponents.\lGame.replacePlayer">
<polygon fill="white" stroke="black" points="626,-73 626,-103 786,-103 786,-73 626,-73"/>
<text text-anchor="start" x="634" y="-91" font-family="Helvetica,sans-Serif" font-size="10.00">gamedata.gamecomponents.</text>
<text text-anchor="middle" x="706" y="-80" font-family="Helvetica,sans-Serif" font-size="10.00">Game.replacePlayer</text>
</a>
</g>
</g>
<!-- Node3&#45;&gt;Node4 -->
<g id="edge3" class="edge"><title>Node3&#45;&gt;Node4</title>
<path fill="none" stroke="midnightblue" d="M590.136,-88C598.521,-88 607.077,-88 615.546,-88"/>
<polygon fill="midnightblue" stroke="midnightblue" points="615.818,-91.5001 625.818,-88 615.818,-84.5001 615.818,-91.5001"/>
</g>
</g>
</svg>
