<?xml version="1.0" encoding="UTF-8" standalone="no"?>
<!DOCTYPE svg PUBLIC "-//W3C//DTD SVG 1.1//EN"
 "http://www.w3.org/Graphics/SVG/1.1/DTD/svg11.dtd">
<!-- Generated by graphviz version 2.36.0 (20140111.2315)
 -->
<!-- Title: gamePlayer.ViewController.setGridState Pages: 1 -->
<svg width="1926pt" height="291pt"
 viewBox="0.00 0.00 1926.00 291.00" xmlns="http://www.w3.org/2000/svg" xmlns:xlink="http://www.w3.org/1999/xlink">
<g id="graph0" class="graph" transform="scale(1 1) rotate(0) translate(4 287)">
<title>gamePlayer.ViewController.setGridState</title>
<polygon fill="white" stroke="none" points="-4,4 -4,-287 1922,-287 1922,4 -4,4"/>
<!-- Node1 -->
<g id="node1" class="node"><title>Node1</title>
<polygon fill="#bfbfbf" stroke="black" points="0.5,-23 0.5,-53 161.5,-53 161.5,-23 0.5,-23"/>
<text text-anchor="start" x="8.5" y="-41" font-family="Helvetica,sans-Serif" font-size="10.00">gamePlayer.ViewController.set</text>
<text text-anchor="middle" x="81" y="-30" font-family="Helvetica,sans-Serif" font-size="10.00">GridState</text>
</g>
<!-- Node2 -->
<g id="node2" class="node"><title>Node2</title>
<g id="a_node2"><a xlink:href="../../df/dd5/classgame_player_1_1_view_controller.html#a7eb038fd9f20604ade0406f27ef76657" target="_top" xlink:title="gamePlayer.ViewController.bind\lAction">
<polygon fill="white" stroke="black" points="198.5,-116 198.5,-146 365.5,-146 365.5,-116 198.5,-116"/>
<text text-anchor="start" x="206.5" y="-134" font-family="Helvetica,sans-Serif" font-size="10.00">gamePlayer.ViewController.bind</text>
<text text-anchor="middle" x="282" y="-123" font-family="Helvetica,sans-Serif" font-size="10.00">Action</text>
</a>
</g>
</g>
<!-- Node1&#45;&gt;Node2 -->
<g id="edge1" class="edge"><title>Node1&#45;&gt;Node2</title>
<path fill="none" stroke="midnightblue" d="M123.491,-57.3903C160.682,-74.7711 214.489,-99.9171 248.598,-115.857"/>
<polygon fill="midnightblue" stroke="midnightblue" points="124.957,-54.2121 114.416,-53.149 121.993,-60.5538 124.957,-54.2121"/>
</g>
<!-- Node9 -->
<g id="node9" class="node"><title>Node9</title>
<g id="a_node9"><a xlink:href="../../df/dd5/classgame_player_1_1_view_controller.html#a10a40967a873f067cf91b024ff85b38e" target="_top" xlink:title="gamePlayer.ViewController.initializeGrid">
<polygon fill="white" stroke="black" points="1066,-73.5 1066,-92.5 1270,-92.5 1270,-73.5 1066,-73.5"/>
<text text-anchor="middle" x="1168" y="-80.5" font-family="Helvetica,sans-Serif" font-size="10.00">gamePlayer.ViewController.initializeGrid</text>
</a>
</g>
</g>
<!-- Node1&#45;&gt;Node9 -->
<g id="edge22" class="edge"><title>Node1&#45;&gt;Node9</title>
<path fill="none" stroke="midnightblue" d="M171.691,-38C254.556,-38 381.086,-38 491,-38 491,-38 491,-38 712,-38 853.641,-38 889.372,-42.0885 1030,-59 1060.09,-62.6182 1093.6,-68.4568 1119.95,-73.4692"/>
<polygon fill="midnightblue" stroke="midnightblue" points="171.555,-34.5001 161.555,-38 171.555,-41.5001 171.555,-34.5001"/>
</g>
<!-- Node13 -->
<g id="node13" class="node"><title>Node13</title>
<g id="a_node13"><a xlink:href="../../db/d00/classgame_player_1_1_apply_state.html#aed42c1aba25264bc6880036f693a1c9e" target="_top" xlink:title="gamePlayer.ApplyState.on\lClick">
<polygon fill="white" stroke="black" points="1774.5,-60 1774.5,-90 1917.5,-90 1917.5,-60 1774.5,-60"/>
<text text-anchor="start" x="1782.5" y="-78" font-family="Helvetica,sans-Serif" font-size="10.00">gamePlayer.ApplyState.on</text>
<text text-anchor="middle" x="1846" y="-67" font-family="Helvetica,sans-Serif" font-size="10.00">Click</text>
</a>
</g>
</g>
<!-- Node1&#45;&gt;Node13 -->
<g id="edge23" class="edge"><title>Node1&#45;&gt;Node13</title>
<path fill="none" stroke="midnightblue" d="M171.854,-24.8275C254.574,-13.8504 380.783,-0 491,-0 491,-0 491,-0 1411,-0 1550.36,-0 1711.25,-38.0116 1792.39,-59.9129"/>
<polygon fill="midnightblue" stroke="midnightblue" points="171.181,-21.3864 161.735,-26.1849 172.112,-28.3243 171.181,-21.3864"/>
</g>
<!-- Node3 -->
<g id="node3" class="node"><title>Node3</title>
<g id="a_node3"><a xlink:href="../../df/df0/classtests_1_1_view_controller_test.html#a74e99f9c72cbdcd2d56271b2ad2df1ce" target="_top" xlink:title="tests.ViewControllerTest.bind\lActionTest">
<polygon fill="white" stroke="black" points="415,-116 415,-146 569,-146 569,-116 415,-116"/>
<text text-anchor="start" x="423" y="-134" font-family="Helvetica,sans-Serif" font-size="10.00">tests.ViewControllerTest.bind</text>
<text text-anchor="middle" x="492" y="-123" font-family="Helvetica,sans-Serif" font-size="10.00">ActionTest</text>
</a>
</g>
</g>
<!-- Node2&#45;&gt;Node3 -->
<g id="edge2" class="edge"><title>Node2&#45;&gt;Node3</title>
<path fill="none" stroke="midnightblue" d="M375.851,-131C388.834,-131 402.05,-131 414.679,-131"/>
<polygon fill="midnightblue" stroke="midnightblue" points="375.506,-127.5 365.506,-131 375.506,-134.5 375.506,-127.5"/>
</g>
<!-- Node4 -->
<g id="node4" class="node"><title>Node4</title>
<g id="a_node4"><a xlink:href="../../d1/db7/classgame_player_1_1_keyboard_action.html#a08ace57322b8639020688dd9493c3e1f" target="_top" xlink:title="gamePlayer.KeyboardAction.set\lActionKeyControl">
<polygon fill="white" stroke="black" points="408,-67 408,-97 576,-97 576,-67 408,-67"/>
<text text-anchor="start" x="416" y="-85" font-family="Helvetica,sans-Serif" font-size="10.00">gamePlayer.KeyboardAction.set</text>
<text text-anchor="middle" x="492" y="-74" font-family="Helvetica,sans-Serif" font-size="10.00">ActionKeyControl</text>
</a>
</g>
</g>
<!-- Node2&#45;&gt;Node4 -->
<g id="edge3" class="edge"><title>Node2&#45;&gt;Node4</title>
<path fill="none" stroke="midnightblue" d="M356.568,-113.669C379.661,-108.229 404.95,-102.271 427.3,-97.0062"/>
<polygon fill="midnightblue" stroke="midnightblue" points="355.751,-110.266 346.82,-115.965 357.357,-117.079 355.751,-110.266"/>
</g>
<!-- Node17 -->
<g id="node17" class="node"><title>Node17</title>
<g id="a_node17"><a xlink:href="../../df/dd5/classgame_player_1_1_view_controller.html#ab8c14a8c53be9021a62d0107c2f75ef6" target="_top" xlink:title="gamePlayer.ViewController.update\lActions">
<polygon fill="white" stroke="black" points="402,-204 402,-234 582,-234 582,-204 402,-204"/>
<text text-anchor="start" x="410" y="-222" font-family="Helvetica,sans-Serif" font-size="10.00">gamePlayer.ViewController.update</text>
<text text-anchor="middle" x="492" y="-211" font-family="Helvetica,sans-Serif" font-size="10.00">Actions</text>
</a>
</g>
</g>
<!-- Node2&#45;&gt;Node17 -->
<g id="edge19" class="edge"><title>Node2&#45;&gt;Node17</title>
<path fill="none" stroke="midnightblue" d="M320.508,-150.819C343.657,-162.662 374.154,-177.576 402,-189 414.973,-194.322 429.274,-199.454 442.547,-203.923"/>
<polygon fill="midnightblue" stroke="midnightblue" points="321.877,-147.587 311.384,-146.115 318.669,-153.808 321.877,-147.587"/>
</g>
<!-- Node5 -->
<g id="node5" class="node"><title>Node5</title>
<g id="a_node5"><a xlink:href="../../df/dd5/classgame_player_1_1_view_controller.html#a95c2acd43bb39b8606c69971c1cd30f5" target="_top" xlink:title="gamePlayer.ViewController.perform\lAction">
<polygon fill="white" stroke="black" points="618.5,-115 618.5,-145 803.5,-145 803.5,-115 618.5,-115"/>
<text text-anchor="start" x="626.5" y="-133" font-family="Helvetica,sans-Serif" font-size="10.00">gamePlayer.ViewController.perform</text>
<text text-anchor="middle" x="711" y="-122" font-family="Helvetica,sans-Serif" font-size="10.00">Action</text>
</a>
</g>
</g>
<!-- Node4&#45;&gt;Node5 -->
<g id="edge4" class="edge"><title>Node4&#45;&gt;Node5</title>
<path fill="none" stroke="midnightblue" d="M570.913,-99.2343C594.219,-104.389 619.575,-109.998 642.177,-114.998"/>
<polygon fill="midnightblue" stroke="midnightblue" points="571.585,-95.7983 561.065,-97.0558 570.073,-102.633 571.585,-95.7983"/>
</g>
<!-- Node6 -->
<g id="node6" class="node"><title>Node6</title>
<g id="a_node6"><a xlink:href="../../da/d55/classgame_player_1_1_keyboard_movement.html#af45fd8d279b1ee2d6be5466d425485ab" target="_top" xlink:title="gamePlayer.KeyboardMovement.set\lMovementKeyControl">
<polygon fill="white" stroke="black" points="840.5,-159 840.5,-189 1029.5,-189 1029.5,-159 840.5,-159"/>
<text text-anchor="start" x="848.5" y="-177" font-family="Helvetica,sans-Serif" font-size="10.00">gamePlayer.KeyboardMovement.set</text>
<text text-anchor="middle" x="935" y="-166" font-family="Helvetica,sans-Serif" font-size="10.00">MovementKeyControl</text>
</a>
</g>
</g>
<!-- Node5&#45;&gt;Node6 -->
<g id="edge5" class="edge"><title>Node5&#45;&gt;Node6</title>
<path fill="none" stroke="midnightblue" d="M813.673,-143.423C839.145,-148.355 865.275,-153.895 886.65,-158.969"/>
<polygon fill="midnightblue" stroke="midnightblue" points="814.057,-139.933 803.578,-141.493 812.743,-146.808 814.057,-139.933"/>
</g>
<!-- Node8 -->
<g id="node8" class="node"><title>Node8</title>
<g id="a_node8"><a xlink:href="../../df/dd5/classgame_player_1_1_view_controller.html#a22ee80193bbac79a935ee961a183bfcd" target="_top" xlink:title="gamePlayer.ViewController.set\lOnClick">
<polygon fill="white" stroke="black" points="854.5,-69 854.5,-99 1015.5,-99 1015.5,-69 854.5,-69"/>
<text text-anchor="start" x="862.5" y="-87" font-family="Helvetica,sans-Serif" font-size="10.00">gamePlayer.ViewController.set</text>
<text text-anchor="middle" x="935" y="-76" font-family="Helvetica,sans-Serif" font-size="10.00">OnClick</text>
</a>
</g>
</g>
<!-- Node5&#45;&gt;Node8 -->
<g id="edge9" class="edge"><title>Node5&#45;&gt;Node8</title>
<path fill="none" stroke="midnightblue" d="M794.655,-112.873C816.612,-108.324 840.156,-103.445 861.525,-99.0174"/>
<polygon fill="midnightblue" stroke="midnightblue" points="793.773,-109.482 784.691,-114.938 795.193,-116.336 793.773,-109.482"/>
</g>
<!-- Node6&#45;&gt;Node2 -->
<g id="edge6" class="edge"><title>Node6&#45;&gt;Node2</title>
<path fill="none" stroke="midnightblue" d="M830.232,-175.289C722.729,-175.456 550.045,-172.454 402,-155 384.209,-152.902 365.113,-149.552 347.54,-146.012"/>
<polygon fill="midnightblue" stroke="midnightblue" points="830.438,-178.789 840.429,-175.263 830.42,-171.789 830.438,-178.789"/>
</g>
<!-- Node6&#45;&gt;Node5 -->
<g id="edge7" class="edge"><title>Node6&#45;&gt;Node5</title>
<path fill="none" stroke="midnightblue" d="M830.264,-160.177C805.45,-155.347 780.15,-149.969 759.352,-145.032"/>
<polygon fill="midnightblue" stroke="midnightblue" points="829.627,-163.618 840.108,-162.069 830.948,-156.744 829.627,-163.618"/>
</g>
<!-- Node7 -->
<g id="node7" class="node"><title>Node7</title>
<g id="a_node7"><a xlink:href="../../df/dd5/classgame_player_1_1_view_controller.html#a27da17c1280cd953a14f6b76b18f9a4b" target="_top" xlink:title="gamePlayer.ViewController.toggle\lKeyboardControl">
<polygon fill="white" stroke="black" points="1080,-159 1080,-189 1256,-189 1256,-159 1080,-159"/>
<text text-anchor="start" x="1088" y="-177" font-family="Helvetica,sans-Serif" font-size="10.00">gamePlayer.ViewController.toggle</text>
<text text-anchor="middle" x="1168" y="-166" font-family="Helvetica,sans-Serif" font-size="10.00">KeyboardControl</text>
</a>
</g>
</g>
<!-- Node6&#45;&gt;Node7 -->
<g id="edge8" class="edge"><title>Node6&#45;&gt;Node7</title>
<path fill="none" stroke="midnightblue" d="M1039.83,-174C1053.24,-174 1066.86,-174 1079.96,-174"/>
<polygon fill="midnightblue" stroke="midnightblue" points="1039.62,-170.5 1029.62,-174 1039.62,-177.5 1039.62,-170.5"/>
</g>
<!-- Node8&#45;&gt;Node9 -->
<g id="edge10" class="edge"><title>Node8&#45;&gt;Node9</title>
<path fill="none" stroke="midnightblue" d="M1026.18,-83.6096C1039.23,-83.5531 1052.74,-83.4946 1065.99,-83.4373"/>
<polygon fill="midnightblue" stroke="midnightblue" points="1025.81,-80.1111 1015.82,-83.6545 1025.84,-87.111 1025.81,-80.1111"/>
</g>
<!-- Node10 -->
<g id="node10" class="node"><title>Node10</title>
<g id="a_node10"><a xlink:href="../../df/dd5/classgame_player_1_1_view_controller.html#af1870a0b6786d96d118021fc62b6475d" target="_top" xlink:title="gamePlayer.ViewController.beginGame">
<polygon fill="white" stroke="black" points="1309,-28.5 1309,-47.5 1511,-47.5 1511,-28.5 1309,-28.5"/>
<text text-anchor="middle" x="1410" y="-35.5" font-family="Helvetica,sans-Serif" font-size="10.00">gamePlayer.ViewController.beginGame</text>
</a>
</g>
</g>
<!-- Node9&#45;&gt;Node10 -->
<g id="edge11" class="edge"><title>Node9&#45;&gt;Node10</title>
<path fill="none" stroke="midnightblue" d="M1228.79,-71.5831C1252.79,-67.0199 1280.7,-61.7339 1306,-57 1322.62,-53.8896 1340.76,-50.5316 1357.12,-47.5164"/>
<polygon fill="midnightblue" stroke="midnightblue" points="1227.94,-68.1829 1218.77,-73.4908 1229.25,-75.0594 1227.94,-68.1829"/>
</g>
<!-- Node11 -->
<g id="node11" class="node"><title>Node11</title>
<g id="a_node11"><a xlink:href="../../df/dd5/classgame_player_1_1_view_controller.html#a620f8a02d3ac7677cd179fcd812aca55" target="_top" xlink:title="gamePlayer.ViewController.check\lEndActions">
<polygon fill="white" stroke="black" points="1323,-155 1323,-185 1497,-185 1497,-155 1323,-155"/>
<text text-anchor="start" x="1331" y="-173" font-family="Helvetica,sans-Serif" font-size="10.00">gamePlayer.ViewController.check</text>
<text text-anchor="middle" x="1410" y="-162" font-family="Helvetica,sans-Serif" font-size="10.00">EndActions</text>
</a>
</g>
</g>
<!-- Node9&#45;&gt;Node11 -->
<g id="edge12" class="edge"><title>Node9&#45;&gt;Node11</title>
<path fill="none" stroke="midnightblue" d="M1218.87,-95.3764C1235.66,-100.553 1254.14,-107.398 1270,-116 1288.06,-125.795 1287.57,-135.913 1306,-145 1313.84,-148.866 1322.32,-152.157 1330.92,-154.955"/>
<polygon fill="midnightblue" stroke="midnightblue" points="1219.8,-92.0006 1209.21,-92.521 1217.81,-98.7132 1219.8,-92.0006"/>
</g>
<!-- Node14 -->
<g id="node14" class="node"><title>Node14</title>
<g id="a_node14"><a xlink:href="../../df/dd5/classgame_player_1_1_view_controller.html#a0d1a3d443966f151b070dc751d2faf9a" target="_top" xlink:title="gamePlayer.ViewController.restartGame">
<polygon fill="white" stroke="black" points="1306,-116.5 1306,-135.5 1514,-135.5 1514,-116.5 1306,-116.5"/>
<text text-anchor="middle" x="1410" y="-123.5" font-family="Helvetica,sans-Serif" font-size="10.00">gamePlayer.ViewController.restartGame</text>
</a>
</g>
</g>
<!-- Node9&#45;&gt;Node14 -->
<g id="edge16" class="edge"><title>Node9&#45;&gt;Node14</title>
<path fill="none" stroke="midnightblue" d="M1232.33,-94.3457C1270.82,-101.242 1319.41,-109.948 1355.89,-116.484"/>
<polygon fill="midnightblue" stroke="midnightblue" points="1232.72,-90.8616 1222.26,-92.5431 1231.49,-97.7519 1232.72,-90.8616"/>
</g>
<!-- Node15 -->
<g id="node15" class="node"><title>Node15</title>
<g id="a_node15"><a xlink:href="../../df/dd5/classgame_player_1_1_view_controller.html#a4c1754d129a4eac955390b428eaa448a" target="_top" xlink:title="gamePlayer.ViewController.test\lPlayGame">
<polygon fill="white" stroke="black" points="1327.5,-67 1327.5,-97 1492.5,-97 1492.5,-67 1327.5,-67"/>
<text text-anchor="start" x="1335.5" y="-85" font-family="Helvetica,sans-Serif" font-size="10.00">gamePlayer.ViewController.test</text>
<text text-anchor="middle" x="1410" y="-74" font-family="Helvetica,sans-Serif" font-size="10.00">PlayGame</text>
</a>
</g>
</g>
<!-- Node9&#45;&gt;Node15 -->
<g id="edge17" class="edge"><title>Node9&#45;&gt;Node15</title>
<path fill="none" stroke="midnightblue" d="M1280.43,-82.5357C1296.23,-82.4699 1312.22,-82.4032 1327.32,-82.3403"/>
<polygon fill="midnightblue" stroke="midnightblue" points="1280.07,-79.0371 1270.09,-82.5788 1280.1,-86.037 1280.07,-79.0371"/>
</g>
<!-- Node11&#45;&gt;Node5 -->
<g id="edge15" class="edge"><title>Node11&#45;&gt;Node5</title>
<path fill="none" stroke="midnightblue" d="M1312.51,-153.949C1298.29,-152.011 1283.79,-150.272 1270,-149 1106.16,-133.885 914.254,-130.461 803.543,-129.87"/>
<polygon fill="midnightblue" stroke="midnightblue" points="1312.42,-157.469 1322.81,-155.39 1313.39,-150.537 1312.42,-157.469"/>
</g>
<!-- Node12 -->
<g id="node12" class="node"><title>Node12</title>
<g id="a_node12"><a xlink:href="../../df/dd5/classgame_player_1_1_view_controller.html#a13ea7814bde61a8042c5b1a23af41416" target="_top" xlink:title="gamePlayer.ViewController.end\lAction">
<polygon fill="white" stroke="black" points="1562,-135 1562,-165 1726,-165 1726,-135 1562,-135"/>
<text text-anchor="start" x="1570" y="-153" font-family="Helvetica,sans-Serif" font-size="10.00">gamePlayer.ViewController.end</text>
<text text-anchor="middle" x="1644" y="-142" font-family="Helvetica,sans-Serif" font-size="10.00">Action</text>
</a>
</g>
</g>
<!-- Node11&#45;&gt;Node12 -->
<g id="edge13" class="edge"><title>Node11&#45;&gt;Node12</title>
<path fill="none" stroke="midnightblue" d="M1507.06,-161.719C1525.22,-160.153 1544.05,-158.53 1561.7,-157.009"/>
<polygon fill="midnightblue" stroke="midnightblue" points="1506.72,-158.235 1497.06,-162.581 1507.32,-165.209 1506.72,-158.235"/>
</g>
<!-- Node12&#45;&gt;Node13 -->
<g id="edge14" class="edge"><title>Node12&#45;&gt;Node13</title>
<path fill="none" stroke="midnightblue" d="M1695.2,-131.175C1729.14,-118.448 1773.35,-101.869 1804.93,-90.0266"/>
<polygon fill="midnightblue" stroke="midnightblue" points="1693.61,-128.034 1685.47,-134.823 1696.07,-134.588 1693.61,-128.034"/>
</g>
<!-- Node16 -->
<g id="node16" class="node"><title>Node16</title>
<g id="a_node16"><a xlink:href="../../db/d40/classfxml__main_1_1_authoring_controller.html#a2ec133c8edf0a7ab1e84f2e12455233d" target="_top" xlink:title="fxml_main.AuthoringController.save\lAsGame">
<polygon fill="white" stroke="black" points="1550.5,-67 1550.5,-97 1737.5,-97 1737.5,-67 1550.5,-67"/>
<text text-anchor="start" x="1558.5" y="-85" font-family="Helvetica,sans-Serif" font-size="10.00">fxml_main.AuthoringController.save</text>
<text text-anchor="middle" x="1644" y="-74" font-family="Helvetica,sans-Serif" font-size="10.00">AsGame</text>
</a>
</g>
</g>
<!-- Node15&#45;&gt;Node16 -->
<g id="edge18" class="edge"><title>Node15&#45;&gt;Node16</title>
<path fill="none" stroke="midnightblue" d="M1502.96,-82C1518.59,-82 1534.83,-82 1550.47,-82"/>
<polygon fill="midnightblue" stroke="midnightblue" points="1502.79,-78.5001 1492.79,-82 1502.79,-85.5001 1502.79,-78.5001"/>
</g>
<!-- Node18 -->
<g id="node18" class="node"><title>Node18</title>
<g id="a_node18"><a xlink:href="../../d6/d24/classgame_player_1_1_select_state.html#a801827392f0faeee6b96925060d77838" target="_top" xlink:title="gamePlayer.SelectState.on\lClick">
<polygon fill="white" stroke="black" points="637.5,-253 637.5,-283 784.5,-283 784.5,-253 637.5,-253"/>
<text text-anchor="start" x="645.5" y="-271" font-family="Helvetica,sans-Serif" font-size="10.00">gamePlayer.SelectState.on</text>
<text text-anchor="middle" x="711" y="-260" font-family="Helvetica,sans-Serif" font-size="10.00">Click</text>
</a>
</g>
</g>
<!-- Node17&#45;&gt;Node18 -->
<g id="edge20" class="edge"><title>Node17&#45;&gt;Node18</title>
<path fill="none" stroke="midnightblue" d="M569.429,-236.258C593.608,-241.718 620.122,-247.705 643.544,-252.994"/>
<polygon fill="midnightblue" stroke="midnightblue" points="570.107,-232.823 559.582,-234.035 568.565,-239.651 570.107,-232.823"/>
</g>
<!-- Node19 -->
<g id="node19" class="node"><title>Node19</title>
<g id="a_node19"><a xlink:href="../../df/df0/classtests_1_1_view_controller_test.html#a785df2c49a72c183c22163ce927f5df1" target="_top" xlink:title="tests.ViewControllerTest.update\lActionsTest">
<polygon fill="white" stroke="black" points="627.5,-204 627.5,-234 794.5,-234 794.5,-204 627.5,-204"/>
<text text-anchor="start" x="635.5" y="-222" font-family="Helvetica,sans-Serif" font-size="10.00">tests.ViewControllerTest.update</text>
<text text-anchor="middle" x="711" y="-211" font-family="Helvetica,sans-Serif" font-size="10.00">ActionsTest</text>
</a>
</g>
</g>
<!-- Node17&#45;&gt;Node19 -->
<g id="edge21" class="edge"><title>Node17&#45;&gt;Node19</title>
<path fill="none" stroke="midnightblue" d="M592.436,-219C604.139,-219 615.983,-219 627.42,-219"/>
<polygon fill="midnightblue" stroke="midnightblue" points="592.202,-215.5 582.202,-219 592.202,-222.5 592.202,-215.5"/>
</g>
</g>
</svg>
