<?xml version="1.0" encoding="UTF-8" standalone="no"?>
<!DOCTYPE svg PUBLIC "-//W3C//DTD SVG 1.1//EN"
 "http://www.w3.org/Graphics/SVG/1.1/DTD/svg11.dtd">
<!-- Generated by graphviz version 2.36.0 (20140111.2315)
 -->
<!-- Title: gamePlayer.ViewController.handleClearHighScores Pages: 1 -->
<svg width="1754pt" height="248pt"
 viewBox="0.00 0.00 1754.00 248.00" xmlns="http://www.w3.org/2000/svg" xmlns:xlink="http://www.w3.org/1999/xlink">
<g id="graph0" class="graph" transform="scale(1 1) rotate(0) translate(4 244)">
<title>gamePlayer.ViewController.handleClearHighScores</title>
<polygon fill="white" stroke="none" points="-4,4 -4,-244 1750,-244 1750,4 -4,4"/>
<!-- Node1 -->
<g id="node1" class="node"><title>Node1</title>
<polygon fill="#bfbfbf" stroke="black" points="0.5,-133 0.5,-163 179.5,-163 179.5,-133 0.5,-133"/>
<text text-anchor="start" x="8.5" y="-151" font-family="Helvetica,sans-Serif" font-size="10.00">gamePlayer.ViewController.handle</text>
<text text-anchor="middle" x="90" y="-140" font-family="Helvetica,sans-Serif" font-size="10.00">ClearHighScores</text>
</g>
<!-- Node2 -->
<g id="node2" class="node"><title>Node2</title>
<g id="a_node2"><a xlink:href="../../df/dd5/classgame_player_1_1_view_controller.html#a10a40967a873f067cf91b024ff85b38e" target="_top" xlink:title="gamePlayer.ViewController.initializeGrid">
<polygon fill="white" stroke="black" points="216,-138.5 216,-157.5 420,-157.5 420,-138.5 216,-138.5"/>
<text text-anchor="middle" x="318" y="-145.5" font-family="Helvetica,sans-Serif" font-size="10.00">gamePlayer.ViewController.initializeGrid</text>
</a>
</g>
</g>
<!-- Node1&#45;&gt;Node2 -->
<g id="edge1" class="edge"><title>Node1&#45;&gt;Node2</title>
<path fill="none" stroke="midnightblue" d="M189.766,-148C198.419,-148 207.185,-148 215.857,-148"/>
<polygon fill="midnightblue" stroke="midnightblue" points="189.673,-144.5 179.673,-148 189.673,-151.5 189.673,-144.5"/>
</g>
<!-- Node3 -->
<g id="node3" class="node"><title>Node3</title>
<g id="a_node3"><a xlink:href="../../df/dd5/classgame_player_1_1_view_controller.html#a0d1a3d443966f151b070dc751d2faf9a" target="_top" xlink:title="gamePlayer.ViewController.restartGame">
<polygon fill="white" stroke="black" points="456,-220.5 456,-239.5 664,-239.5 664,-220.5 456,-220.5"/>
<text text-anchor="middle" x="560" y="-227.5" font-family="Helvetica,sans-Serif" font-size="10.00">gamePlayer.ViewController.restartGame</text>
</a>
</g>
</g>
<!-- Node2&#45;&gt;Node3 -->
<g id="edge2" class="edge"><title>Node2&#45;&gt;Node3</title>
<path fill="none" stroke="midnightblue" d="M344.989,-162.327C371.983,-176.633 415.815,-198.273 456,-211 467.961,-214.788 480.957,-217.915 493.561,-220.461"/>
<polygon fill="midnightblue" stroke="midnightblue" points="346.643,-159.242 336.176,-157.599 343.334,-165.411 346.643,-159.242"/>
</g>
<!-- Node4 -->
<g id="node4" class="node"><title>Node4</title>
<g id="a_node4"><a xlink:href="../../df/dd5/classgame_player_1_1_view_controller.html#af1870a0b6786d96d118021fc62b6475d" target="_top" xlink:title="gamePlayer.ViewController.beginGame">
<polygon fill="white" stroke="black" points="459,-182.5 459,-201.5 661,-201.5 661,-182.5 459,-182.5"/>
<text text-anchor="middle" x="560" y="-189.5" font-family="Helvetica,sans-Serif" font-size="10.00">gamePlayer.ViewController.beginGame</text>
</a>
</g>
</g>
<!-- Node2&#45;&gt;Node4 -->
<g id="edge3" class="edge"><title>Node2&#45;&gt;Node4</title>
<path fill="none" stroke="midnightblue" d="M381.273,-159.417C420.329,-166.577 470.095,-175.701 507.025,-182.471"/>
<polygon fill="midnightblue" stroke="midnightblue" points="381.544,-155.908 371.076,-157.547 380.281,-162.793 381.544,-155.908"/>
</g>
<!-- Node5 -->
<g id="node5" class="node"><title>Node5</title>
<g id="a_node5"><a xlink:href="../../df/dd5/classgame_player_1_1_view_controller.html#a4c1754d129a4eac955390b428eaa448a" target="_top" xlink:title="gamePlayer.ViewController.test\lPlayGame">
<polygon fill="white" stroke="black" points="477.5,-133 477.5,-163 642.5,-163 642.5,-133 477.5,-133"/>
<text text-anchor="start" x="485.5" y="-151" font-family="Helvetica,sans-Serif" font-size="10.00">gamePlayer.ViewController.test</text>
<text text-anchor="middle" x="560" y="-140" font-family="Helvetica,sans-Serif" font-size="10.00">PlayGame</text>
</a>
</g>
</g>
<!-- Node2&#45;&gt;Node5 -->
<g id="edge4" class="edge"><title>Node2&#45;&gt;Node5</title>
<path fill="none" stroke="midnightblue" d="M430.427,-148C446.226,-148 462.223,-148 477.317,-148"/>
<polygon fill="midnightblue" stroke="midnightblue" points="430.086,-144.5 420.086,-148 430.086,-151.5 430.086,-144.5"/>
</g>
<!-- Node7 -->
<g id="node7" class="node"><title>Node7</title>
<g id="a_node7"><a xlink:href="../../df/dd5/classgame_player_1_1_view_controller.html#a620f8a02d3ac7677cd179fcd812aca55" target="_top" xlink:title="gamePlayer.ViewController.check\lEndActions">
<polygon fill="white" stroke="black" points="473,-84 473,-114 647,-114 647,-84 473,-84"/>
<text text-anchor="start" x="481" y="-102" font-family="Helvetica,sans-Serif" font-size="10.00">gamePlayer.ViewController.check</text>
<text text-anchor="middle" x="560" y="-91" font-family="Helvetica,sans-Serif" font-size="10.00">EndActions</text>
</a>
</g>
</g>
<!-- Node2&#45;&gt;Node7 -->
<g id="edge6" class="edge"><title>Node2&#45;&gt;Node7</title>
<path fill="none" stroke="midnightblue" d="M375.424,-136.48C408.186,-129.791 449.838,-121.287 485.181,-114.071"/>
<polygon fill="midnightblue" stroke="midnightblue" points="374.657,-133.064 365.559,-138.494 376.057,-139.923 374.657,-133.064"/>
</g>
<!-- Node6 -->
<g id="node6" class="node"><title>Node6</title>
<g id="a_node6"><a xlink:href="../../db/d40/classfxml__main_1_1_authoring_controller.html#a2ec133c8edf0a7ab1e84f2e12455233d" target="_top" xlink:title="fxml_main.AuthoringController.save\lAsGame">
<polygon fill="white" stroke="black" points="700.5,-170 700.5,-200 887.5,-200 887.5,-170 700.5,-170"/>
<text text-anchor="start" x="708.5" y="-188" font-family="Helvetica,sans-Serif" font-size="10.00">fxml_main.AuthoringController.save</text>
<text text-anchor="middle" x="794" y="-177" font-family="Helvetica,sans-Serif" font-size="10.00">AsGame</text>
</a>
</g>
</g>
<!-- Node5&#45;&gt;Node6 -->
<g id="edge5" class="edge"><title>Node5&#45;&gt;Node6</title>
<path fill="none" stroke="midnightblue" d="M652.964,-162.667C668.592,-165.159 684.828,-167.748 700.47,-170.243"/>
<polygon fill="midnightblue" stroke="midnightblue" points="653.221,-159.164 642.795,-161.045 652.118,-166.076 653.221,-159.164"/>
</g>
<!-- Node8 -->
<g id="node8" class="node"><title>Node8</title>
<g id="a_node8"><a xlink:href="../../df/dd5/classgame_player_1_1_view_controller.html#a13ea7814bde61a8042c5b1a23af41416" target="_top" xlink:title="gamePlayer.ViewController.end\lAction">
<polygon fill="white" stroke="black" points="712,-121 712,-151 876,-151 876,-121 712,-121"/>
<text text-anchor="start" x="720" y="-139" font-family="Helvetica,sans-Serif" font-size="10.00">gamePlayer.ViewController.end</text>
<text text-anchor="middle" x="794" y="-128" font-family="Helvetica,sans-Serif" font-size="10.00">Action</text>
</a>
</g>
</g>
<!-- Node7&#45;&gt;Node8 -->
<g id="edge7" class="edge"><title>Node7&#45;&gt;Node8</title>
<path fill="none" stroke="midnightblue" d="M657.065,-114.321C675.221,-117.216 694.049,-120.219 711.697,-123.034"/>
<polygon fill="midnightblue" stroke="midnightblue" points="657.485,-110.844 647.059,-112.725 656.382,-117.756 657.485,-110.844"/>
</g>
<!-- Node10 -->
<g id="node10" class="node"><title>Node10</title>
<g id="a_node10"><a xlink:href="../../df/dd5/classgame_player_1_1_view_controller.html#a95c2acd43bb39b8606c69971c1cd30f5" target="_top" xlink:title="gamePlayer.ViewController.perform\lAction">
<polygon fill="white" stroke="black" points="701.5,-72 701.5,-102 886.5,-102 886.5,-72 701.5,-72"/>
<text text-anchor="start" x="709.5" y="-90" font-family="Helvetica,sans-Serif" font-size="10.00">gamePlayer.ViewController.perform</text>
<text text-anchor="middle" x="794" y="-79" font-family="Helvetica,sans-Serif" font-size="10.00">Action</text>
</a>
</g>
</g>
<!-- Node7&#45;&gt;Node10 -->
<g id="edge9" class="edge"><title>Node7&#45;&gt;Node10</title>
<path fill="none" stroke="midnightblue" d="M657.089,-94.0299C671.695,-93.2744 686.735,-92.4964 701.246,-91.7459"/>
<polygon fill="midnightblue" stroke="midnightblue" points="656.864,-90.5367 647.059,-94.5487 657.226,-97.5274 656.864,-90.5367"/>
</g>
<!-- Node9 -->
<g id="node9" class="node"><title>Node9</title>
<g id="a_node9"><a xlink:href="../../db/d00/classgame_player_1_1_apply_state.html#aed42c1aba25264bc6880036f693a1c9e" target="_top" xlink:title="gamePlayer.ApplyState.on\lClick">
<polygon fill="white" stroke="black" points="947.5,-137 947.5,-167 1090.5,-167 1090.5,-137 947.5,-137"/>
<text text-anchor="start" x="955.5" y="-155" font-family="Helvetica,sans-Serif" font-size="10.00">gamePlayer.ApplyState.on</text>
<text text-anchor="middle" x="1019" y="-144" font-family="Helvetica,sans-Serif" font-size="10.00">Click</text>
</a>
</g>
</g>
<!-- Node8&#45;&gt;Node9 -->
<g id="edge8" class="edge"><title>Node8&#45;&gt;Node9</title>
<path fill="none" stroke="midnightblue" d="M886.343,-142.554C906.657,-144.011 927.895,-145.535 947.237,-146.923"/>
<polygon fill="midnightblue" stroke="midnightblue" points="886.364,-139.046 876.139,-141.822 885.863,-146.028 886.364,-139.046"/>
</g>
<!-- Node11 -->
<g id="node11" class="node"><title>Node11</title>
<g id="a_node11"><a xlink:href="../../da/d55/classgame_player_1_1_keyboard_movement.html#af45fd8d279b1ee2d6be5466d425485ab" target="_top" xlink:title="gamePlayer.KeyboardMovement.set\lMovementKeyControl">
<polygon fill="white" stroke="black" points="924.5,-88 924.5,-118 1113.5,-118 1113.5,-88 924.5,-88"/>
<text text-anchor="start" x="932.5" y="-106" font-family="Helvetica,sans-Serif" font-size="10.00">gamePlayer.KeyboardMovement.set</text>
<text text-anchor="middle" x="1019" y="-95" font-family="Helvetica,sans-Serif" font-size="10.00">MovementKeyControl</text>
</a>
</g>
</g>
<!-- Node10&#45;&gt;Node11 -->
<g id="edge10" class="edge"><title>Node10&#45;&gt;Node11</title>
<path fill="none" stroke="midnightblue" d="M896.881,-87.5822C905.97,-88.192 915.145,-88.8681 924.162,-89.5931"/>
<polygon fill="midnightblue" stroke="midnightblue" points="896.873,-84.0745 886.668,-86.9229 896.422,-91.06 896.873,-84.0745"/>
</g>
<!-- Node19 -->
<g id="node19" class="node"><title>Node19</title>
<g id="a_node19"><a xlink:href="../../df/dd5/classgame_player_1_1_view_controller.html#a22ee80193bbac79a935ee961a183bfcd" target="_top" xlink:title="gamePlayer.ViewController.set\lOnClick">
<polygon fill="white" stroke="black" points="938.5,-0 938.5,-30 1099.5,-30 1099.5,-0 938.5,-0"/>
<text text-anchor="start" x="946.5" y="-18" font-family="Helvetica,sans-Serif" font-size="10.00">gamePlayer.ViewController.set</text>
<text text-anchor="middle" x="1019" y="-7" font-family="Helvetica,sans-Serif" font-size="10.00">OnClick</text>
</a>
</g>
</g>
<!-- Node10&#45;&gt;Node19 -->
<g id="edge20" class="edge"><title>Node10&#45;&gt;Node19</title>
<path fill="none" stroke="midnightblue" d="M850.762,-68.7665C873.471,-61.3614 899.981,-52.7427 924,-45 939.163,-40.1121 955.715,-34.8163 970.645,-30.0541"/>
<polygon fill="midnightblue" stroke="midnightblue" points="849.372,-65.5384 840.951,-71.9675 851.543,-72.1932 849.372,-65.5384"/>
</g>
<!-- Node11&#45;&gt;Node10 -->
<g id="edge18" class="edge"><title>Node11&#45;&gt;Node10</title>
<path fill="none" stroke="midnightblue" d="M913.927,-102.27C904.826,-101.649 895.658,-100.964 886.668,-100.231"/>
<polygon fill="midnightblue" stroke="midnightblue" points="913.954,-105.779 924.162,-102.941 914.413,-98.7938 913.954,-105.779"/>
</g>
<!-- Node12 -->
<g id="node12" class="node"><title>Node12</title>
<g id="a_node12"><a xlink:href="../../df/dd5/classgame_player_1_1_view_controller.html#a7eb038fd9f20604ade0406f27ef76657" target="_top" xlink:title="gamePlayer.ViewController.bind\lAction">
<polygon fill="white" stroke="black" points="1154.5,-137 1154.5,-167 1321.5,-167 1321.5,-137 1154.5,-137"/>
<text text-anchor="start" x="1162.5" y="-155" font-family="Helvetica,sans-Serif" font-size="10.00">gamePlayer.ViewController.bind</text>
<text text-anchor="middle" x="1238" y="-144" font-family="Helvetica,sans-Serif" font-size="10.00">Action</text>
</a>
</g>
</g>
<!-- Node11&#45;&gt;Node12 -->
<g id="edge11" class="edge"><title>Node11&#45;&gt;Node12</title>
<path fill="none" stroke="midnightblue" d="M1096.43,-120.258C1120.61,-125.718 1147.12,-131.705 1170.54,-136.994"/>
<polygon fill="midnightblue" stroke="midnightblue" points="1097.11,-116.823 1086.58,-118.035 1095.57,-123.651 1097.11,-116.823"/>
</g>
<!-- Node18 -->
<g id="node18" class="node"><title>Node18</title>
<g id="a_node18"><a xlink:href="../../df/dd5/classgame_player_1_1_view_controller.html#a27da17c1280cd953a14f6b76b18f9a4b" target="_top" xlink:title="gamePlayer.ViewController.toggle\lKeyboardControl">
<polygon fill="white" stroke="black" points="1150,-88 1150,-118 1326,-118 1326,-88 1150,-88"/>
<text text-anchor="start" x="1158" y="-106" font-family="Helvetica,sans-Serif" font-size="10.00">gamePlayer.ViewController.toggle</text>
<text text-anchor="middle" x="1238" y="-95" font-family="Helvetica,sans-Serif" font-size="10.00">KeyboardControl</text>
</a>
</g>
</g>
<!-- Node11&#45;&gt;Node18 -->
<g id="edge19" class="edge"><title>Node11&#45;&gt;Node18</title>
<path fill="none" stroke="midnightblue" d="M1123.81,-103C1132.53,-103 1141.3,-103 1149.88,-103"/>
<polygon fill="midnightblue" stroke="midnightblue" points="1123.6,-99.5001 1113.6,-103 1123.6,-106.5 1123.6,-99.5001"/>
</g>
<!-- Node13 -->
<g id="node13" class="node"><title>Node13</title>
<g id="a_node13"><a xlink:href="../../df/df0/classtests_1_1_view_controller_test.html#a74e99f9c72cbdcd2d56271b2ad2df1ce" target="_top" xlink:title="tests.ViewControllerTest.bind\lActionTest">
<polygon fill="white" stroke="black" points="1375,-175 1375,-205 1529,-205 1529,-175 1375,-175"/>
<text text-anchor="start" x="1383" y="-193" font-family="Helvetica,sans-Serif" font-size="10.00">tests.ViewControllerTest.bind</text>
<text text-anchor="middle" x="1452" y="-182" font-family="Helvetica,sans-Serif" font-size="10.00">ActionTest</text>
</a>
</g>
</g>
<!-- Node12&#45;&gt;Node13 -->
<g id="edge12" class="edge"><title>Node12&#45;&gt;Node13</title>
<path fill="none" stroke="midnightblue" d="M1331.53,-168.585C1346.01,-171.181 1360.83,-173.837 1374.89,-176.357"/>
<polygon fill="midnightblue" stroke="midnightblue" points="1332.03,-165.12 1321.57,-166.801 1330.8,-172.01 1332.03,-165.12"/>
</g>
<!-- Node14 -->
<g id="node14" class="node"><title>Node14</title>
<g id="a_node14"><a xlink:href="../../d1/db7/classgame_player_1_1_keyboard_action.html#a08ace57322b8639020688dd9493c3e1f" target="_top" xlink:title="gamePlayer.KeyboardAction.set\lActionKeyControl">
<polygon fill="white" stroke="black" points="1368,-66 1368,-96 1536,-96 1536,-66 1368,-66"/>
<text text-anchor="start" x="1376" y="-84" font-family="Helvetica,sans-Serif" font-size="10.00">gamePlayer.KeyboardAction.set</text>
<text text-anchor="middle" x="1452" y="-73" font-family="Helvetica,sans-Serif" font-size="10.00">ActionKeyControl</text>
</a>
</g>
</g>
<!-- Node12&#45;&gt;Node14 -->
<g id="edge13" class="edge"><title>Node12&#45;&gt;Node14</title>
<path fill="none" stroke="midnightblue" d="M1303.78,-133.95C1311.3,-131.689 1318.83,-129.345 1326,-127 1355.23,-117.436 1387.83,-105.394 1412.4,-96.0294"/>
<polygon fill="midnightblue" stroke="midnightblue" points="1302.54,-130.668 1293.95,-136.867 1304.53,-137.378 1302.54,-130.668"/>
</g>
<!-- Node15 -->
<g id="node15" class="node"><title>Node15</title>
<g id="a_node15"><a xlink:href="../../df/dd5/classgame_player_1_1_view_controller.html#ab8c14a8c53be9021a62d0107c2f75ef6" target="_top" xlink:title="gamePlayer.ViewController.update\lActions">
<polygon fill="white" stroke="black" points="1362,-126 1362,-156 1542,-156 1542,-126 1362,-126"/>
<text text-anchor="start" x="1370" y="-144" font-family="Helvetica,sans-Serif" font-size="10.00">gamePlayer.ViewController.update</text>
<text text-anchor="middle" x="1452" y="-133" font-family="Helvetica,sans-Serif" font-size="10.00">Actions</text>
</a>
</g>
</g>
<!-- Node12&#45;&gt;Node15 -->
<g id="edge15" class="edge"><title>Node12&#45;&gt;Node15</title>
<path fill="none" stroke="midnightblue" d="M1331.59,-147.196C1341.69,-146.672 1351.94,-146.14 1361.99,-145.618"/>
<polygon fill="midnightblue" stroke="midnightblue" points="1331.38,-143.702 1321.57,-147.716 1331.74,-150.693 1331.38,-143.702"/>
</g>
<!-- Node14&#45;&gt;Node10 -->
<g id="edge14" class="edge"><title>Node14&#45;&gt;Node10</title>
<path fill="none" stroke="midnightblue" d="M1357.62,-78.1861C1252.26,-75.542 1075.76,-72.7123 924,-78 911.884,-78.4221 899.14,-79.0666 886.571,-79.8209"/>
<polygon fill="midnightblue" stroke="midnightblue" points="1357.82,-81.6923 1367.91,-78.4494 1358,-74.6946 1357.82,-81.6923"/>
</g>
<!-- Node16 -->
<g id="node16" class="node"><title>Node16</title>
<g id="a_node16"><a xlink:href="../../d6/d24/classgame_player_1_1_select_state.html#a801827392f0faeee6b96925060d77838" target="_top" xlink:title="gamePlayer.SelectState.on\lClick">
<polygon fill="white" stroke="black" points="1588.5,-151 1588.5,-181 1735.5,-181 1735.5,-151 1588.5,-151"/>
<text text-anchor="start" x="1596.5" y="-169" font-family="Helvetica,sans-Serif" font-size="10.00">gamePlayer.SelectState.on</text>
<text text-anchor="middle" x="1662" y="-158" font-family="Helvetica,sans-Serif" font-size="10.00">Click</text>
</a>
</g>
</g>
<!-- Node15&#45;&gt;Node16 -->
<g id="edge16" class="edge"><title>Node15&#45;&gt;Node16</title>
<path fill="none" stroke="midnightblue" d="M1552.3,-152.935C1564.46,-154.396 1576.7,-155.868 1588.37,-157.27"/>
<polygon fill="midnightblue" stroke="midnightblue" points="1552.46,-149.429 1542.12,-151.711 1551.63,-156.379 1552.46,-149.429"/>
</g>
<!-- Node17 -->
<g id="node17" class="node"><title>Node17</title>
<g id="a_node17"><a xlink:href="../../df/df0/classtests_1_1_view_controller_test.html#a785df2c49a72c183c22163ce927f5df1" target="_top" xlink:title="tests.ViewControllerTest.update\lActionsTest">
<polygon fill="white" stroke="black" points="1578.5,-102 1578.5,-132 1745.5,-132 1745.5,-102 1578.5,-102"/>
<text text-anchor="start" x="1586.5" y="-120" font-family="Helvetica,sans-Serif" font-size="10.00">tests.ViewControllerTest.update</text>
<text text-anchor="middle" x="1662" y="-109" font-family="Helvetica,sans-Serif" font-size="10.00">ActionsTest</text>
</a>
</g>
</g>
<!-- Node15&#45;&gt;Node17 -->
<g id="edge17" class="edge"><title>Node15&#45;&gt;Node17</title>
<path fill="none" stroke="midnightblue" d="M1552.31,-129.542C1561.02,-128.537 1569.77,-127.526 1578.32,-126.54"/>
<polygon fill="midnightblue" stroke="midnightblue" points="1551.65,-126.094 1542.12,-130.717 1552.45,-133.048 1551.65,-126.094"/>
</g>
<!-- Node19&#45;&gt;Node2 -->
<g id="edge21" class="edge"><title>Node19&#45;&gt;Node2</title>
<path fill="none" stroke="midnightblue" d="M928.026,-13.7872C815.222,-14.6625 617.1,-24.1795 456,-74 407.447,-89.015 356.321,-121.885 332.586,-138.288"/>
<polygon fill="midnightblue" stroke="midnightblue" points="928.357,-17.2855 938.337,-13.7295 928.318,-10.2856 928.357,-17.2855"/>
</g>
</g>
</svg>
