<?xml version="1.0" encoding="UTF-8" standalone="no"?>
<!DOCTYPE svg PUBLIC "-//W3C//DTD SVG 1.1//EN"
 "http://www.w3.org/Graphics/SVG/1.1/DTD/svg11.dtd">
<!-- Generated by graphviz version 2.36.0 (20140111.2315)
 -->
<!-- Title: gamePlayer.ViewController.loadScores Pages: 1 -->
<svg width="382pt" height="38pt"
 viewBox="0.00 0.00 382.00 38.00" xmlns="http://www.w3.org/2000/svg" xmlns:xlink="http://www.w3.org/1999/xlink">
<g id="graph0" class="graph" transform="scale(1 1) rotate(0) translate(4 34)">
<title>gamePlayer.ViewController.loadScores</title>
<polygon fill="white" stroke="none" points="-4,4 -4,-34 378,-34 378,4 -4,4"/>
<!-- Node1 -->
<g id="node1" class="node"><title>Node1</title>
<polygon fill="#bfbfbf" stroke="black" points="0.5,-0 0.5,-30 167.5,-30 167.5,-0 0.5,-0"/>
<text text-anchor="start" x="8.5" y="-18" font-family="Helvetica,sans-Serif" font-size="10.00">gamePlayer.ViewController.load</text>
<text text-anchor="middle" x="84" y="-7" font-family="Helvetica,sans-Serif" font-size="10.00">Scores</text>
</g>
<!-- Node2 -->
<g id="node2" class="node"><title>Node2</title>
<g id="a_node2"><a xlink:href="../../df/dd5/classgame_player_1_1_view_controller.html#a26ec840557872a9223fc24c0421644b9" target="_top" xlink:title="gamePlayer.ViewController.show\lScore">
<polygon fill="white" stroke="black" points="204,-0 204,-30 374,-30 374,-0 204,-0"/>
<text text-anchor="start" x="212" y="-18" font-family="Helvetica,sans-Serif" font-size="10.00">gamePlayer.ViewController.show</text>
<text text-anchor="middle" x="289" y="-7" font-family="Helvetica,sans-Serif" font-size="10.00">Score</text>
</a>
</g>
</g>
<!-- Node1&#45;&gt;Node2 -->
<g id="edge1" class="edge"><title>Node1&#45;&gt;Node2</title>
<path fill="none" stroke="midnightblue" d="M177.734,-15C186.441,-15 195.235,-15 203.857,-15"/>
<polygon fill="midnightblue" stroke="midnightblue" points="177.568,-11.5001 167.568,-15 177.568,-18.5001 177.568,-11.5001"/>
</g>
</g>
</svg>
