<?xml version="1.0" encoding="UTF-8" standalone="no"?>
<!DOCTYPE svg PUBLIC "-//W3C//DTD SVG 1.1//EN"
 "http://www.w3.org/Graphics/SVG/1.1/DTD/svg11.dtd">
<!-- Generated by graphviz version 2.36.0 (20140111.2315)
 -->
<!-- Title: gamePlayer.ViewController.updateLanguage Pages: 1 -->
<svg width="576pt" height="38pt"
 viewBox="0.00 0.00 576.00 38.00" xmlns="http://www.w3.org/2000/svg" xmlns:xlink="http://www.w3.org/1999/xlink">
<g id="graph0" class="graph" transform="scale(1 1) rotate(0) translate(4 34)">
<title>gamePlayer.ViewController.updateLanguage</title>
<polygon fill="white" stroke="none" points="-4,4 -4,-34 572,-34 572,4 -4,4"/>
<!-- Node1 -->
<g id="node1" class="node"><title>Node1</title>
<polygon fill="#bfbfbf" stroke="black" points="0,-0 0,-30 180,-30 180,-0 0,-0"/>
<text text-anchor="start" x="8" y="-18" font-family="Helvetica,sans-Serif" font-size="10.00">gamePlayer.ViewController.update</text>
<text text-anchor="middle" x="90" y="-7" font-family="Helvetica,sans-Serif" font-size="10.00">Language</text>
</g>
<!-- Node2 -->
<g id="node2" class="node"><title>Node2</title>
<g id="a_node2"><a xlink:href="../../df/d76/classgame_player_1_1_languages.html#a9197316bc1f1fdaa666071a9f7406b6e" target="_top" xlink:title="gamePlayer.Languages.find\lCurrentLanguage">
<polygon fill="white" stroke="black" points="216.5,-0 216.5,-30 365.5,-30 365.5,-0 216.5,-0"/>
<text text-anchor="start" x="224.5" y="-18" font-family="Helvetica,sans-Serif" font-size="10.00">gamePlayer.Languages.find</text>
<text text-anchor="middle" x="291" y="-7" font-family="Helvetica,sans-Serif" font-size="10.00">CurrentLanguage</text>
</a>
</g>
</g>
<!-- Node1&#45;&gt;Node2 -->
<g id="edge1" class="edge"><title>Node1&#45;&gt;Node2</title>
<path fill="none" stroke="midnightblue" d="M180.023,-15C188.726,-15 197.536,-15 206.185,-15"/>
<polygon fill="midnightblue" stroke="midnightblue" points="206.247,-18.5001 216.247,-15 206.247,-11.5001 206.247,-18.5001"/>
</g>
<!-- Node3 -->
<g id="node3" class="node"><title>Node3</title>
<g id="a_node3"><a xlink:href="../../df/d76/classgame_player_1_1_languages.html#a5a3155a35e84c3347e8867662f60d9b5" target="_top" xlink:title="gamePlayer.Languages.update\lLabels">
<polygon fill="white" stroke="black" points="402.5,-0 402.5,-30 567.5,-30 567.5,-0 402.5,-0"/>
<text text-anchor="start" x="410.5" y="-18" font-family="Helvetica,sans-Serif" font-size="10.00">gamePlayer.Languages.update</text>
<text text-anchor="middle" x="485" y="-7" font-family="Helvetica,sans-Serif" font-size="10.00">Labels</text>
</a>
</g>
</g>
<!-- Node2&#45;&gt;Node3 -->
<g id="edge2" class="edge"><title>Node2&#45;&gt;Node3</title>
<path fill="none" stroke="midnightblue" d="M365.683,-15C374.366,-15 383.306,-15 392.198,-15"/>
<polygon fill="midnightblue" stroke="midnightblue" points="392.201,-18.5001 402.201,-15 392.201,-11.5001 392.201,-18.5001"/>
</g>
</g>
</svg>
