<?xml version="1.0" encoding="UTF-8" standalone="no"?>
<!DOCTYPE svg PUBLIC "-//W3C//DTD SVG 1.1//EN"
 "http://www.w3.org/Graphics/SVG/1.1/DTD/svg11.dtd">
<!-- Generated by graphviz version 2.36.0 (20140111.2315)
 -->
<!-- Title: gamePlayer.ViewController.checkEndActions Pages: 1 -->
<svg width="1526pt" height="351pt"
 viewBox="0.00 0.00 1526.00 351.00" xmlns="http://www.w3.org/2000/svg" xmlns:xlink="http://www.w3.org/1999/xlink">
<g id="graph0" class="graph" transform="scale(1 1) rotate(0) translate(4 347)">
<title>gamePlayer.ViewController.checkEndActions</title>
<polygon fill="white" stroke="none" points="-4,4 -4,-347 1522,-347 1522,4 -4,4"/>
<!-- Node1 -->
<g id="node1" class="node"><title>Node1</title>
<polygon fill="#bfbfbf" stroke="black" points="0,-192 0,-222 174,-222 174,-192 0,-192"/>
<text text-anchor="start" x="8" y="-210" font-family="Helvetica,sans-Serif" font-size="10.00">gamePlayer.ViewController.check</text>
<text text-anchor="middle" x="87" y="-199" font-family="Helvetica,sans-Serif" font-size="10.00">EndActions</text>
</g>
<!-- Node2 -->
<g id="node2" class="node"><title>Node2</title>
<g id="a_node2"><a xlink:href="../../df/dd5/classgame_player_1_1_view_controller.html#a13ea7814bde61a8042c5b1a23af41416" target="_top" xlink:title="gamePlayer.ViewController.end\lAction">
<polygon fill="white" stroke="black" points="221,-263 221,-293 385,-293 385,-263 221,-263"/>
<text text-anchor="start" x="229" y="-281" font-family="Helvetica,sans-Serif" font-size="10.00">gamePlayer.ViewController.end</text>
<text text-anchor="middle" x="303" y="-270" font-family="Helvetica,sans-Serif" font-size="10.00">Action</text>
</a>
</g>
</g>
<!-- Node1&#45;&gt;Node2 -->
<g id="edge1" class="edge"><title>Node1&#45;&gt;Node2</title>
<path fill="none" stroke="midnightblue" d="M143.047,-225.263C178.305,-236.961 223.502,-251.956 256.682,-262.964"/>
<polygon fill="midnightblue" stroke="midnightblue" points="143.977,-221.884 133.384,-222.057 141.773,-228.528 143.977,-221.884"/>
</g>
<!-- Node4 -->
<g id="node4" class="node"><title>Node4</title>
<g id="a_node4"><a xlink:href="../../df/dd5/classgame_player_1_1_view_controller.html#a95c2acd43bb39b8606c69971c1cd30f5" target="_top" xlink:title="gamePlayer.ViewController.perform\lAction">
<polygon fill="white" stroke="black" points="210.5,-192 210.5,-222 395.5,-222 395.5,-192 210.5,-192"/>
<text text-anchor="start" x="218.5" y="-210" font-family="Helvetica,sans-Serif" font-size="10.00">gamePlayer.ViewController.perform</text>
<text text-anchor="middle" x="303" y="-199" font-family="Helvetica,sans-Serif" font-size="10.00">Action</text>
</a>
</g>
</g>
<!-- Node1&#45;&gt;Node4 -->
<g id="edge3" class="edge"><title>Node1&#45;&gt;Node4</title>
<path fill="none" stroke="midnightblue" d="M184.282,-207C192.991,-207 201.796,-207 210.462,-207"/>
<polygon fill="midnightblue" stroke="midnightblue" points="184.117,-203.5 174.117,-207 184.117,-210.5 184.117,-203.5"/>
</g>
<!-- Node3 -->
<g id="node3" class="node"><title>Node3</title>
<g id="a_node3"><a xlink:href="../../db/d00/classgame_player_1_1_apply_state.html#aed42c1aba25264bc6880036f693a1c9e" target="_top" xlink:title="gamePlayer.ApplyState.on\lClick">
<polygon fill="white" stroke="black" points="455.5,-274 455.5,-304 598.5,-304 598.5,-274 455.5,-274"/>
<text text-anchor="start" x="463.5" y="-292" font-family="Helvetica,sans-Serif" font-size="10.00">gamePlayer.ApplyState.on</text>
<text text-anchor="middle" x="527" y="-281" font-family="Helvetica,sans-Serif" font-size="10.00">Click</text>
</a>
</g>
</g>
<!-- Node2&#45;&gt;Node3 -->
<g id="edge2" class="edge"><title>Node2&#45;&gt;Node3</title>
<path fill="none" stroke="midnightblue" d="M395.182,-282.518C415.271,-283.513 436.256,-284.553 455.387,-285.501"/>
<polygon fill="midnightblue" stroke="midnightblue" points="395.25,-279.017 385.089,-282.018 394.904,-286.009 395.25,-279.017"/>
</g>
<!-- Node5 -->
<g id="node5" class="node"><title>Node5</title>
<g id="a_node5"><a xlink:href="../../da/d55/classgame_player_1_1_keyboard_movement.html#af45fd8d279b1ee2d6be5466d425485ab" target="_top" xlink:title="gamePlayer.KeyboardMovement.set\lMovementKeyControl">
<polygon fill="white" stroke="black" points="432.5,-225 432.5,-255 621.5,-255 621.5,-225 432.5,-225"/>
<text text-anchor="start" x="440.5" y="-243" font-family="Helvetica,sans-Serif" font-size="10.00">gamePlayer.KeyboardMovement.set</text>
<text text-anchor="middle" x="527" y="-232" font-family="Helvetica,sans-Serif" font-size="10.00">MovementKeyControl</text>
</a>
</g>
</g>
<!-- Node4&#45;&gt;Node5 -->
<g id="edge4" class="edge"><title>Node4&#45;&gt;Node5</title>
<path fill="none" stroke="midnightblue" d="M405.614,-215.376C426.155,-218.335 447.127,-221.669 465.69,-224.954"/>
<polygon fill="midnightblue" stroke="midnightblue" points="405.969,-211.892 395.578,-213.956 404.988,-218.823 405.969,-211.892"/>
</g>
<!-- Node13 -->
<g id="node13" class="node"><title>Node13</title>
<g id="a_node13"><a xlink:href="../../df/dd5/classgame_player_1_1_view_controller.html#a22ee80193bbac79a935ee961a183bfcd" target="_top" xlink:title="gamePlayer.ViewController.set\lOnClick">
<polygon fill="white" stroke="black" points="446.5,-137 446.5,-167 607.5,-167 607.5,-137 446.5,-137"/>
<text text-anchor="start" x="454.5" y="-155" font-family="Helvetica,sans-Serif" font-size="10.00">gamePlayer.ViewController.set</text>
<text text-anchor="middle" x="527" y="-144" font-family="Helvetica,sans-Serif" font-size="10.00">OnClick</text>
</a>
</g>
</g>
<!-- Node4&#45;&gt;Node13 -->
<g id="edge14" class="edge"><title>Node4&#45;&gt;Node13</title>
<path fill="none" stroke="midnightblue" d="M374.402,-189.558C403.658,-182.31 437.277,-173.981 465.411,-167.011"/>
<polygon fill="midnightblue" stroke="midnightblue" points="373.527,-186.169 364.662,-191.971 375.211,-192.963 373.527,-186.169"/>
</g>
<!-- Node5&#45;&gt;Node4 -->
<g id="edge12" class="edge"><title>Node5&#45;&gt;Node4</title>
<path fill="none" stroke="midnightblue" d="M422.373,-231.333C402.393,-228.435 382.092,-225.196 364.076,-222.005"/>
<polygon fill="midnightblue" stroke="midnightblue" points="422.066,-234.824 432.46,-232.771 423.054,-227.894 422.066,-234.824"/>
</g>
<!-- Node6 -->
<g id="node6" class="node"><title>Node6</title>
<g id="a_node6"><a xlink:href="../../df/dd5/classgame_player_1_1_view_controller.html#a7eb038fd9f20604ade0406f27ef76657" target="_top" xlink:title="gamePlayer.ViewController.bind\lAction">
<polygon fill="white" stroke="black" points="676.5,-274 676.5,-304 843.5,-304 843.5,-274 676.5,-274"/>
<text text-anchor="start" x="684.5" y="-292" font-family="Helvetica,sans-Serif" font-size="10.00">gamePlayer.ViewController.bind</text>
<text text-anchor="middle" x="760" y="-281" font-family="Helvetica,sans-Serif" font-size="10.00">Action</text>
</a>
</g>
</g>
<!-- Node5&#45;&gt;Node6 -->
<g id="edge5" class="edge"><title>Node5&#45;&gt;Node6</title>
<path fill="none" stroke="midnightblue" d="M608.674,-257.113C634.597,-262.611 663.102,-268.658 688.257,-273.994"/>
<polygon fill="midnightblue" stroke="midnightblue" points="609.386,-253.686 598.877,-255.035 607.934,-260.534 609.386,-253.686"/>
</g>
<!-- Node12 -->
<g id="node12" class="node"><title>Node12</title>
<g id="a_node12"><a xlink:href="../../df/dd5/classgame_player_1_1_view_controller.html#a27da17c1280cd953a14f6b76b18f9a4b" target="_top" xlink:title="gamePlayer.ViewController.toggle\lKeyboardControl">
<polygon fill="white" stroke="black" points="672,-225 672,-255 848,-255 848,-225 672,-225"/>
<text text-anchor="start" x="680" y="-243" font-family="Helvetica,sans-Serif" font-size="10.00">gamePlayer.ViewController.toggle</text>
<text text-anchor="middle" x="760" y="-232" font-family="Helvetica,sans-Serif" font-size="10.00">KeyboardControl</text>
</a>
</g>
</g>
<!-- Node5&#45;&gt;Node12 -->
<g id="edge13" class="edge"><title>Node5&#45;&gt;Node12</title>
<path fill="none" stroke="midnightblue" d="M631.825,-240C645.236,-240 658.858,-240 671.96,-240"/>
<polygon fill="midnightblue" stroke="midnightblue" points="631.624,-236.5 621.624,-240 631.623,-243.5 631.624,-236.5"/>
</g>
<!-- Node7 -->
<g id="node7" class="node"><title>Node7</title>
<g id="a_node7"><a xlink:href="../../df/df0/classtests_1_1_view_controller_test.html#a74e99f9c72cbdcd2d56271b2ad2df1ce" target="_top" xlink:title="tests.ViewControllerTest.bind\lActionTest">
<polygon fill="white" stroke="black" points="925,-313 925,-343 1079,-343 1079,-313 925,-313"/>
<text text-anchor="start" x="933" y="-331" font-family="Helvetica,sans-Serif" font-size="10.00">tests.ViewControllerTest.bind</text>
<text text-anchor="middle" x="1002" y="-320" font-family="Helvetica,sans-Serif" font-size="10.00">ActionTest</text>
</a>
</g>
</g>
<!-- Node6&#45;&gt;Node7 -->
<g id="edge6" class="edge"><title>Node6&#45;&gt;Node7</title>
<path fill="none" stroke="midnightblue" d="M853.572,-304.043C877.093,-307.865 902.099,-311.929 924.707,-315.602"/>
<polygon fill="midnightblue" stroke="midnightblue" points="854.026,-300.571 843.594,-302.422 852.903,-307.48 854.026,-300.571"/>
</g>
<!-- Node8 -->
<g id="node8" class="node"><title>Node8</title>
<g id="a_node8"><a xlink:href="../../d1/db7/classgame_player_1_1_keyboard_action.html#a08ace57322b8639020688dd9493c3e1f" target="_top" xlink:title="gamePlayer.KeyboardAction.set\lActionKeyControl">
<polygon fill="white" stroke="black" points="918,-213 918,-243 1086,-243 1086,-213 918,-213"/>
<text text-anchor="start" x="926" y="-231" font-family="Helvetica,sans-Serif" font-size="10.00">gamePlayer.KeyboardAction.set</text>
<text text-anchor="middle" x="1002" y="-220" font-family="Helvetica,sans-Serif" font-size="10.00">ActionKeyControl</text>
</a>
</g>
</g>
<!-- Node6&#45;&gt;Node8 -->
<g id="edge7" class="edge"><title>Node6&#45;&gt;Node8</title>
<path fill="none" stroke="midnightblue" d="M832.137,-271.494C842.168,-268.996 852.347,-266.445 862,-264 888.823,-257.207 918.518,-249.537 943.552,-243.027"/>
<polygon fill="midnightblue" stroke="midnightblue" points="831.041,-268.16 822.181,-273.969 832.73,-274.953 831.041,-268.16"/>
</g>
<!-- Node9 -->
<g id="node9" class="node"><title>Node9</title>
<g id="a_node9"><a xlink:href="../../df/dd5/classgame_player_1_1_view_controller.html#ab8c14a8c53be9021a62d0107c2f75ef6" target="_top" xlink:title="gamePlayer.ViewController.update\lActions">
<polygon fill="white" stroke="black" points="912,-264 912,-294 1092,-294 1092,-264 912,-264"/>
<text text-anchor="start" x="920" y="-282" font-family="Helvetica,sans-Serif" font-size="10.00">gamePlayer.ViewController.update</text>
<text text-anchor="middle" x="1002" y="-271" font-family="Helvetica,sans-Serif" font-size="10.00">Actions</text>
</a>
</g>
</g>
<!-- Node6&#45;&gt;Node9 -->
<g id="edge9" class="edge"><title>Node6&#45;&gt;Node9</title>
<path fill="none" stroke="midnightblue" d="M853.751,-285.135C872.784,-284.342 892.783,-283.509 911.691,-282.721"/>
<polygon fill="midnightblue" stroke="midnightblue" points="853.44,-281.645 843.594,-285.559 853.731,-288.639 853.44,-281.645"/>
</g>
<!-- Node8&#45;&gt;Node4 -->
<g id="edge8" class="edge"><title>Node8&#45;&gt;Node4</title>
<path fill="none" stroke="midnightblue" d="M907.262,-218.216C892.143,-216.931 876.65,-215.789 862,-215 698.018,-206.17 506.563,-205.526 395.903,-206.099"/>
<polygon fill="midnightblue" stroke="midnightblue" points="907.387,-221.741 917.654,-219.126 907.997,-214.767 907.387,-221.741"/>
</g>
<!-- Node10 -->
<g id="node10" class="node"><title>Node10</title>
<g id="a_node10"><a xlink:href="../../d6/d24/classgame_player_1_1_select_state.html#a801827392f0faeee6b96925060d77838" target="_top" xlink:title="gamePlayer.SelectState.on\lClick">
<polygon fill="white" stroke="black" points="1165.5,-288 1165.5,-318 1312.5,-318 1312.5,-288 1165.5,-288"/>
<text text-anchor="start" x="1173.5" y="-306" font-family="Helvetica,sans-Serif" font-size="10.00">gamePlayer.SelectState.on</text>
<text text-anchor="middle" x="1239" y="-295" font-family="Helvetica,sans-Serif" font-size="10.00">Click</text>
</a>
</g>
</g>
<!-- Node9&#45;&gt;Node10 -->
<g id="edge10" class="edge"><title>Node9&#45;&gt;Node10</title>
<path fill="none" stroke="midnightblue" d="M1102.17,-289.128C1123.35,-291.291 1145.34,-293.537 1165.3,-295.576"/>
<polygon fill="midnightblue" stroke="midnightblue" points="1102.48,-285.642 1092.18,-288.108 1101.77,-292.606 1102.48,-285.642"/>
</g>
<!-- Node11 -->
<g id="node11" class="node"><title>Node11</title>
<g id="a_node11"><a xlink:href="../../df/df0/classtests_1_1_view_controller_test.html#a785df2c49a72c183c22163ce927f5df1" target="_top" xlink:title="tests.ViewControllerTest.update\lActionsTest">
<polygon fill="white" stroke="black" points="1155.5,-239 1155.5,-269 1322.5,-269 1322.5,-239 1155.5,-239"/>
<text text-anchor="start" x="1163.5" y="-257" font-family="Helvetica,sans-Serif" font-size="10.00">tests.ViewControllerTest.update</text>
<text text-anchor="middle" x="1239" y="-246" font-family="Helvetica,sans-Serif" font-size="10.00">ActionsTest</text>
</a>
</g>
</g>
<!-- Node9&#45;&gt;Node11 -->
<g id="edge11" class="edge"><title>Node9&#45;&gt;Node11</title>
<path fill="none" stroke="midnightblue" d="M1102.49,-268.416C1120.14,-266.538 1138.34,-264.602 1155.46,-262.781"/>
<polygon fill="midnightblue" stroke="midnightblue" points="1101.75,-264.975 1092.18,-269.513 1102.49,-271.935 1101.75,-264.975"/>
</g>
<!-- Node14 -->
<g id="node14" class="node"><title>Node14</title>
<g id="a_node14"><a xlink:href="../../df/dd5/classgame_player_1_1_view_controller.html#a10a40967a873f067cf91b024ff85b38e" target="_top" xlink:title="gamePlayer.ViewController.initializeGrid">
<polygon fill="white" stroke="black" points="658,-117.5 658,-136.5 862,-136.5 862,-117.5 658,-117.5"/>
<text text-anchor="middle" x="760" y="-124.5" font-family="Helvetica,sans-Serif" font-size="10.00">gamePlayer.ViewController.initializeGrid</text>
</a>
</g>
</g>
<!-- Node13&#45;&gt;Node14 -->
<g id="edge15" class="edge"><title>Node13&#45;&gt;Node14</title>
<path fill="none" stroke="midnightblue" d="M617.953,-142.265C635.343,-140.383 653.547,-138.413 670.878,-136.537"/>
<polygon fill="midnightblue" stroke="midnightblue" points="617.386,-138.806 607.821,-143.361 618.139,-145.765 617.386,-138.806"/>
</g>
<!-- Node14&#45;&gt;Node1 -->
<g id="edge18" class="edge"><title>Node14&#45;&gt;Node1</title>
<path fill="none" stroke="midnightblue" d="M647.729,-120.726C584.31,-118.717 503.471,-118.799 432,-127 324.94,-139.285 202.746,-172.407 136.657,-191.966"/>
<polygon fill="midnightblue" stroke="midnightblue" points="647.641,-124.224 657.754,-121.065 647.878,-117.228 647.641,-124.224"/>
</g>
<!-- Node15 -->
<g id="node15" class="node"><title>Node15</title>
<g id="a_node15"><a xlink:href="../../df/dd5/classgame_player_1_1_view_controller.html#aabf431713b65ec510f1cb2df12da4e45" target="_top" xlink:title="gamePlayer.ViewController.test\lPlayGameInTab">
<polygon fill="white" stroke="black" points="919.5,-159 919.5,-189 1084.5,-189 1084.5,-159 919.5,-159"/>
<text text-anchor="start" x="927.5" y="-177" font-family="Helvetica,sans-Serif" font-size="10.00">gamePlayer.ViewController.test</text>
<text text-anchor="middle" x="1002" y="-166" font-family="Helvetica,sans-Serif" font-size="10.00">PlayGameInTab</text>
</a>
</g>
</g>
<!-- Node14&#45;&gt;Node15 -->
<g id="edge16" class="edge"><title>Node14&#45;&gt;Node15</title>
<path fill="none" stroke="midnightblue" d="M819.503,-138.457C850.995,-144.624 890.229,-152.307 924.155,-158.951"/>
<polygon fill="midnightblue" stroke="midnightblue" points="820.054,-134.998 809.568,-136.511 818.709,-141.868 820.054,-134.998"/>
</g>
<!-- Node16 -->
<g id="node16" class="node"><title>Node16</title>
<g id="a_node16"><a xlink:href="../../df/dd5/classgame_player_1_1_view_controller.html#a0d1a3d443966f151b070dc751d2faf9a" target="_top" xlink:title="gamePlayer.ViewController.restartGame">
<polygon fill="white" stroke="black" points="898,-120.5 898,-139.5 1106,-139.5 1106,-120.5 898,-120.5"/>
<text text-anchor="middle" x="1002" y="-127.5" font-family="Helvetica,sans-Serif" font-size="10.00">gamePlayer.ViewController.restartGame</text>
</a>
</g>
</g>
<!-- Node14&#45;&gt;Node16 -->
<g id="edge17" class="edge"><title>Node14&#45;&gt;Node16</title>
<path fill="none" stroke="midnightblue" d="M872.358,-128.392C880.811,-128.498 889.322,-128.604 897.722,-128.709"/>
<polygon fill="midnightblue" stroke="midnightblue" points="872.129,-124.889 862.086,-128.264 872.041,-131.888 872.129,-124.889"/>
</g>
<!-- Node17 -->
<g id="node17" class="node"><title>Node17</title>
<g id="a_node17"><a xlink:href="../../df/dd5/classgame_player_1_1_view_controller.html#adc15cd81cefb88c58f9d3b7478328df8" target="_top" xlink:title="gamePlayer.ViewController.test\lPlayGUIGame">
<polygon fill="white" stroke="black" points="919.5,-71 919.5,-101 1084.5,-101 1084.5,-71 919.5,-71"/>
<text text-anchor="start" x="927.5" y="-89" font-family="Helvetica,sans-Serif" font-size="10.00">gamePlayer.ViewController.test</text>
<text text-anchor="middle" x="1002" y="-78" font-family="Helvetica,sans-Serif" font-size="10.00">PlayGUIGame</text>
</a>
</g>
</g>
<!-- Node14&#45;&gt;Node17 -->
<g id="edge19" class="edge"><title>Node14&#45;&gt;Node17</title>
<path fill="none" stroke="midnightblue" d="M826.551,-115.802C855.161,-110.914 889.011,-105.131 919.245,-99.9666"/>
<polygon fill="midnightblue" stroke="midnightblue" points="825.932,-112.357 816.664,-117.491 827.111,-119.257 825.932,-112.357"/>
</g>
<!-- Node18 -->
<g id="node18" class="node"><title>Node18</title>
<g id="a_node18"><a xlink:href="../../df/dd5/classgame_player_1_1_view_controller.html#a4c1754d129a4eac955390b428eaa448a" target="_top" xlink:title="gamePlayer.ViewController.test\lPlayGame">
<polygon fill="white" stroke="black" points="919.5,-22 919.5,-52 1084.5,-52 1084.5,-22 919.5,-22"/>
<text text-anchor="start" x="927.5" y="-40" font-family="Helvetica,sans-Serif" font-size="10.00">gamePlayer.ViewController.test</text>
<text text-anchor="middle" x="1002" y="-29" font-family="Helvetica,sans-Serif" font-size="10.00">PlayGame</text>
</a>
</g>
</g>
<!-- Node14&#45;&gt;Node18 -->
<g id="edge20" class="edge"><title>Node14&#45;&gt;Node18</title>
<path fill="none" stroke="midnightblue" d="M786.579,-112.566C813.565,-97.8475 857.686,-75.2122 898,-61 907.437,-57.6729 917.525,-54.6748 927.558,-52.0162"/>
<polygon fill="midnightblue" stroke="midnightblue" points="784.85,-109.523 777.782,-117.416 788.229,-115.653 784.85,-109.523"/>
</g>
<!-- Node19 -->
<g id="node19" class="node"><title>Node19</title>
<g id="a_node19"><a xlink:href="../../db/d40/classfxml__main_1_1_authoring_controller.html#a2ec133c8edf0a7ab1e84f2e12455233d" target="_top" xlink:title="fxml_main.AuthoringController.save\lAsGame">
<polygon fill="white" stroke="black" points="1145.5,-44 1145.5,-74 1332.5,-74 1332.5,-44 1145.5,-44"/>
<text text-anchor="start" x="1153.5" y="-62" font-family="Helvetica,sans-Serif" font-size="10.00">fxml_main.AuthoringController.save</text>
<text text-anchor="middle" x="1239" y="-51" font-family="Helvetica,sans-Serif" font-size="10.00">AsGame</text>
</a>
</g>
</g>
<!-- Node18&#45;&gt;Node19 -->
<g id="edge21" class="edge"><title>Node18&#45;&gt;Node19</title>
<path fill="none" stroke="midnightblue" d="M1094.77,-45.591C1111.38,-47.1458 1128.7,-48.7681 1145.34,-50.3253"/>
<polygon fill="midnightblue" stroke="midnightblue" points="1094.81,-42.0802 1084.53,-44.6328 1094.16,-49.0497 1094.81,-42.0802"/>
</g>
<!-- Node20 -->
<g id="node20" class="node"><title>Node20</title>
<g id="a_node20"><a xlink:href="../../df/dd5/classgame_player_1_1_view_controller.html#a2bf1dce04187ad5eacb5359ef2b4eff8" target="_top" xlink:title="gamePlayer.ViewController.newGame">
<polygon fill="white" stroke="black" points="1142,-5.5 1142,-24.5 1336,-24.5 1336,-5.5 1142,-5.5"/>
<text text-anchor="middle" x="1239" y="-12.5" font-family="Helvetica,sans-Serif" font-size="10.00">gamePlayer.ViewController.newGame</text>
</a>
</g>
</g>
<!-- Node18&#45;&gt;Node20 -->
<g id="edge22" class="edge"><title>Node18&#45;&gt;Node20</title>
<path fill="none" stroke="midnightblue" d="M1094.58,-28.4266C1110.03,-26.9806 1126.1,-25.4757 1141.66,-24.0188"/>
<polygon fill="midnightblue" stroke="midnightblue" points="1094.16,-24.9503 1084.53,-29.3672 1094.81,-31.9198 1094.16,-24.9503"/>
</g>
<!-- Node21 -->
<g id="node21" class="node"><title>Node21</title>
<g id="a_node21"><a xlink:href="../../df/dd5/classgame_player_1_1_view_controller.html#a2acd822c93c35674b6978a97b4ce6e3f" target="_top" xlink:title="gamePlayer.ViewController.\lViewController">
<polygon fill="white" stroke="black" points="1372,-0 1372,-30 1518,-30 1518,-0 1372,-0"/>
<text text-anchor="start" x="1380" y="-18" font-family="Helvetica,sans-Serif" font-size="10.00">gamePlayer.ViewController.</text>
<text text-anchor="middle" x="1445" y="-7" font-family="Helvetica,sans-Serif" font-size="10.00">ViewController</text>
</a>
</g>
</g>
<!-- Node20&#45;&gt;Node21 -->
<g id="edge23" class="edge"><title>Node20&#45;&gt;Node21</title>
<path fill="none" stroke="midnightblue" d="M1346.24,-15C1354.94,-15 1363.59,-15 1371.95,-15"/>
<polygon fill="midnightblue" stroke="midnightblue" points="1346.03,-11.5001 1336.03,-15 1346.03,-18.5001 1346.03,-11.5001"/>
</g>
</g>
</svg>
