<?xml version="1.0" encoding="UTF-8" standalone="no"?>
<!DOCTYPE svg PUBLIC "-//W3C//DTD SVG 1.1//EN"
 "http://www.w3.org/Graphics/SVG/1.1/DTD/svg11.dtd">
<!-- Generated by graphviz version 2.36.0 (20140111.2315)
 -->
<!-- Title: gamePlayer.ViewController.testGame Pages: 1 -->
<svg width="1512pt" height="614pt"
 viewBox="0.00 0.00 1512.00 614.00" xmlns="http://www.w3.org/2000/svg" xmlns:xlink="http://www.w3.org/1999/xlink">
<g id="graph0" class="graph" transform="scale(1 1) rotate(0) translate(4 610)">
<title>gamePlayer.ViewController.testGame</title>
<polygon fill="white" stroke="none" points="-4,4 -4,-610 1508,-610 1508,4 -4,4"/>
<!-- Node1 -->
<g id="node1" class="node"><title>Node1</title>
<polygon fill="#bfbfbf" stroke="black" points="0,-90.5 0,-109.5 194,-109.5 194,-90.5 0,-90.5"/>
<text text-anchor="middle" x="97" y="-97.5" font-family="Helvetica,sans-Serif" font-size="10.00">gamePlayer.ViewController.testGame</text>
</g>
<!-- Node2 -->
<g id="node2" class="node"><title>Node2</title>
<g id="a_node2"><a xlink:href="../../d3/d12/classtests_1_1_test_game_creator.html#a6088501ec4cce8d90d4561b695065a0d" target="_top" xlink:title="tests.TestGameCreator.create\lNewGame">
<polygon fill="white" stroke="black" points="231.5,-122 231.5,-152 392.5,-152 392.5,-122 231.5,-122"/>
<text text-anchor="start" x="239.5" y="-140" font-family="Helvetica,sans-Serif" font-size="10.00">tests.TestGameCreator.create</text>
<text text-anchor="middle" x="312" y="-129" font-family="Helvetica,sans-Serif" font-size="10.00">NewGame</text>
</a>
</g>
</g>
<!-- Node1&#45;&gt;Node2 -->
<g id="edge1" class="edge"><title>Node1&#45;&gt;Node2</title>
<path fill="none" stroke="midnightblue" d="M152.853,-109.528C173.777,-113.163 198.21,-117.407 221.525,-121.457"/>
<polygon fill="midnightblue" stroke="midnightblue" points="220.984,-124.916 231.436,-123.179 222.182,-118.019 220.984,-124.916"/>
</g>
<!-- Node38 -->
<g id="node38" class="node"><title>Node38</title>
<g id="a_node38"><a xlink:href="../../df/dd5/classgame_player_1_1_view_controller.html#abd4293bc816fc044d7d4e57fe94e4029" target="_top" xlink:title="gamePlayer.ViewController.edit\lPlayers">
<polygon fill="white" stroke="black" points="230,-49 230,-79 394,-79 394,-49 230,-49"/>
<text text-anchor="start" x="238" y="-67" font-family="Helvetica,sans-Serif" font-size="10.00">gamePlayer.ViewController.edit</text>
<text text-anchor="middle" x="312" y="-56" font-family="Helvetica,sans-Serif" font-size="10.00">Players</text>
</a>
</g>
</g>
<!-- Node1&#45;&gt;Node38 -->
<g id="edge45" class="edge"><title>Node1&#45;&gt;Node38</title>
<path fill="none" stroke="midnightblue" d="M154.242,-90.4943C174.336,-87.0981 197.527,-83.1785 219.806,-79.4131"/>
<polygon fill="midnightblue" stroke="midnightblue" points="220.687,-82.8139 229.964,-77.6963 219.52,-75.9118 220.687,-82.8139"/>
</g>
<!-- Node3 -->
<g id="node3" class="node"><title>Node3</title>
<g id="a_node3"><a xlink:href="../../d3/d12/classtests_1_1_test_game_creator.html#a4c85cf768c7e38e9b2f6db858e8764ec" target="_top" xlink:title="tests.TestGameCreator.create\lNewGrid">
<polygon fill="white" stroke="black" points="431.5,-195 431.5,-225 592.5,-225 592.5,-195 431.5,-195"/>
<text text-anchor="start" x="439.5" y="-213" font-family="Helvetica,sans-Serif" font-size="10.00">tests.TestGameCreator.create</text>
<text text-anchor="middle" x="512" y="-202" font-family="Helvetica,sans-Serif" font-size="10.00">NewGrid</text>
</a>
</g>
</g>
<!-- Node2&#45;&gt;Node3 -->
<g id="edge2" class="edge"><title>Node2&#45;&gt;Node3</title>
<path fill="none" stroke="midnightblue" d="M354.026,-152.126C384.954,-163.529 427.539,-179.229 460.551,-191.4"/>
<polygon fill="midnightblue" stroke="midnightblue" points="459.433,-194.718 470.027,-194.894 461.855,-188.15 459.433,-194.718"/>
</g>
<!-- Node37 -->
<g id="node37" class="node"><title>Node37</title>
<g id="a_node37"><a xlink:href="../../d2/d99/classgamedata_1_1gamecomponents_1_1_game.html#ab77c298a59d70f94282359bb53e8bc29" target="_top" xlink:title="gamedata.gamecomponents.\lGame.addPlayers">
<polygon fill="white" stroke="black" points="432,-122 432,-152 592,-152 592,-122 432,-122"/>
<text text-anchor="start" x="440" y="-140" font-family="Helvetica,sans-Serif" font-size="10.00">gamedata.gamecomponents.</text>
<text text-anchor="middle" x="512" y="-129" font-family="Helvetica,sans-Serif" font-size="10.00">Game.addPlayers</text>
</a>
</g>
</g>
<!-- Node2&#45;&gt;Node37 -->
<g id="edge44" class="edge"><title>Node2&#45;&gt;Node37</title>
<path fill="none" stroke="midnightblue" d="M392.678,-137C402.249,-137 412.07,-137 421.765,-137"/>
<polygon fill="midnightblue" stroke="midnightblue" points="421.807,-140.5 431.807,-137 421.807,-133.5 421.807,-140.5"/>
</g>
<!-- Node4 -->
<g id="node4" class="node"><title>Node4</title>
<g id="a_node4"><a xlink:href="../../d3/d12/classtests_1_1_test_game_creator.html#a680449a018651ee514134c0517ec1cca" target="_top" xlink:title="tests.TestGameCreator.create\lNewPiece">
<polygon fill="white" stroke="black" points="644.5,-220 644.5,-250 805.5,-250 805.5,-220 644.5,-220"/>
<text text-anchor="start" x="652.5" y="-238" font-family="Helvetica,sans-Serif" font-size="10.00">tests.TestGameCreator.create</text>
<text text-anchor="middle" x="725" y="-227" font-family="Helvetica,sans-Serif" font-size="10.00">NewPiece</text>
</a>
</g>
</g>
<!-- Node3&#45;&gt;Node4 -->
<g id="edge3" class="edge"><title>Node3&#45;&gt;Node4</title>
<path fill="none" stroke="midnightblue" d="M592.77,-219.451C606.387,-221.065 620.613,-222.75 634.463,-224.391"/>
<polygon fill="midnightblue" stroke="midnightblue" points="634.125,-227.876 644.467,-225.577 634.949,-220.924 634.125,-227.876"/>
</g>
<!-- Node8 -->
<g id="node8" class="node"><title>Node8</title>
<g id="a_node8"><a xlink:href="../../d3/d12/classtests_1_1_test_game_creator.html#ae876033054f062fe1aeccb52edc5ac88" target="_top" xlink:title="tests.TestGameCreator.create\lNewPatch">
<polygon fill="white" stroke="black" points="644.5,-171 644.5,-201 805.5,-201 805.5,-171 644.5,-171"/>
<text text-anchor="start" x="652.5" y="-189" font-family="Helvetica,sans-Serif" font-size="10.00">tests.TestGameCreator.create</text>
<text text-anchor="middle" x="725" y="-178" font-family="Helvetica,sans-Serif" font-size="10.00">NewPatch</text>
</a>
</g>
</g>
<!-- Node3&#45;&gt;Node8 -->
<g id="edge7" class="edge"><title>Node3&#45;&gt;Node8</title>
<path fill="none" stroke="midnightblue" d="M592.77,-200.927C606.387,-199.378 620.613,-197.76 634.463,-196.184"/>
<polygon fill="midnightblue" stroke="midnightblue" points="634.927,-199.654 644.467,-195.046 634.136,-192.699 634.927,-199.654"/>
</g>
<!-- Node9 -->
<g id="node9" class="node"><title>Node9</title>
<g id="a_node9"><a xlink:href="../../d9/df3/classauthoring__environment_1_1_super_grid.html#a29e4179a44c4a09a1365958c5ab8b604" target="_top" xlink:title="authoring_environment.Super\lGrid.getNumCols">
<polygon fill="white" stroke="black" points="645,-122 645,-152 805,-152 805,-122 645,-122"/>
<text text-anchor="start" x="653" y="-140" font-family="Helvetica,sans-Serif" font-size="10.00">authoring_environment.Super</text>
<text text-anchor="middle" x="725" y="-129" font-family="Helvetica,sans-Serif" font-size="10.00">Grid.getNumCols</text>
</a>
</g>
</g>
<!-- Node3&#45;&gt;Node9 -->
<g id="edge8" class="edge"><title>Node3&#45;&gt;Node9</title>
<path fill="none" stroke="midnightblue" d="M545.291,-194.968C568.516,-184.531 600.767,-170.795 630,-161 636.438,-158.843 643.179,-156.77 649.969,-154.808"/>
<polygon fill="midnightblue" stroke="midnightblue" points="651.238,-158.088 659.921,-152.017 649.347,-151.348 651.238,-158.088"/>
</g>
<!-- Node10 -->
<g id="node10" class="node"><title>Node10</title>
<g id="a_node10"><a xlink:href="../../d9/df3/classauthoring__environment_1_1_super_grid.html#a08152131c1f1c2b5530970a0a02a74b0" target="_top" xlink:title="authoring_environment.Super\lGrid.getNumRows">
<polygon fill="white" stroke="black" points="645,-73 645,-103 805,-103 805,-73 645,-73"/>
<text text-anchor="start" x="653" y="-91" font-family="Helvetica,sans-Serif" font-size="10.00">authoring_environment.Super</text>
<text text-anchor="middle" x="725" y="-80" font-family="Helvetica,sans-Serif" font-size="10.00">Grid.getNumRows</text>
</a>
</g>
</g>
<!-- Node3&#45;&gt;Node10 -->
<g id="edge9" class="edge"><title>Node3&#45;&gt;Node10</title>
<path fill="none" stroke="midnightblue" d="M544.181,-194.899C560.111,-186.292 579.201,-174.529 594,-161 613.945,-142.766 607.599,-127.115 630,-112 632.278,-110.463 634.647,-109.025 637.086,-107.679"/>
<polygon fill="midnightblue" stroke="midnightblue" points="638.765,-110.753 646.19,-103.196 635.672,-104.473 638.765,-110.753"/>
</g>
<!-- Node11 -->
<g id="node11" class="node"><title>Node11</title>
<g id="a_node11"><a xlink:href="../../d4/d63/classgamedata_1_1gamecomponents_1_1_piece.html#a0e99b48e900129c9f2c2c32a44c7705c" target="_top" xlink:title="gamedata.gamecomponents.\lPiece.setPlayerID">
<polygon fill="white" stroke="black" points="645,-487 645,-517 805,-517 805,-487 645,-487"/>
<text text-anchor="start" x="653" y="-505" font-family="Helvetica,sans-Serif" font-size="10.00">gamedata.gamecomponents.</text>
<text text-anchor="middle" x="725" y="-494" font-family="Helvetica,sans-Serif" font-size="10.00">Piece.setPlayerID</text>
</a>
</g>
</g>
<!-- Node3&#45;&gt;Node11 -->
<g id="edge10" class="edge"><title>Node3&#45;&gt;Node11</title>
<path fill="none" stroke="midnightblue" d="M515.011,-225.082C521.892,-270.532 548.747,-407.32 630,-477 631.963,-478.683 634.027,-480.255 636.174,-481.721"/>
<polygon fill="midnightblue" stroke="midnightblue" points="634.44,-484.762 644.822,-486.876 638.024,-478.75 634.44,-484.762"/>
</g>
<!-- Node12 -->
<g id="node12" class="node"><title>Node12</title>
<g id="a_node12"><a xlink:href="../../da/d4c/classauthoring__environment_1_1_g_u_i_grid.html#a064e421c8d8d0268bb7d1db7e66590b5" target="_top" xlink:title="authoring_environment.GUIGrid.add\lPieceAtLoc">
<polygon fill="white" stroke="black" points="630.5,-438 630.5,-468 819.5,-468 819.5,-438 630.5,-438"/>
<text text-anchor="start" x="638.5" y="-456" font-family="Helvetica,sans-Serif" font-size="10.00">authoring_environment.GUIGrid.add</text>
<text text-anchor="middle" x="725" y="-445" font-family="Helvetica,sans-Serif" font-size="10.00">PieceAtLoc</text>
</a>
</g>
</g>
<!-- Node3&#45;&gt;Node12 -->
<g id="edge11" class="edge"><title>Node3&#45;&gt;Node12</title>
<path fill="none" stroke="midnightblue" d="M526.199,-225.201C562.093,-266.539 661.639,-381.181 704.241,-430.245"/>
<polygon fill="midnightblue" stroke="midnightblue" points="701.607,-432.549 710.806,-437.805 706.892,-427.959 701.607,-432.549"/>
</g>
<!-- Node26 -->
<g id="node26" class="node"><title>Node26</title>
<g id="a_node26"><a xlink:href="../../da/d4c/classauthoring__environment_1_1_g_u_i_grid.html#a964e976497a8a32ae8db18c037b8fac1" target="_top" xlink:title="authoring_environment.GUIGrid.add\lPatchAtLoc">
<polygon fill="white" stroke="black" points="630.5,-269 630.5,-299 819.5,-299 819.5,-269 630.5,-269"/>
<text text-anchor="start" x="638.5" y="-287" font-family="Helvetica,sans-Serif" font-size="10.00">authoring_environment.GUIGrid.add</text>
<text text-anchor="middle" x="725" y="-276" font-family="Helvetica,sans-Serif" font-size="10.00">PatchAtLoc</text>
</a>
</g>
</g>
<!-- Node3&#45;&gt;Node26 -->
<g id="edge27" class="edge"><title>Node3&#45;&gt;Node26</title>
<path fill="none" stroke="midnightblue" d="M545.57,-225.053C568.791,-235.435 600.92,-249.095 630,-259 637.362,-261.507 645.117,-263.922 652.886,-266.195"/>
<polygon fill="midnightblue" stroke="midnightblue" points="652.129,-269.619 662.705,-268.997 654.049,-262.888 652.129,-269.619"/>
</g>
<!-- Node5 -->
<g id="node5" class="node"><title>Node5</title>
<g id="a_node5"><a xlink:href="../../d3/d12/classtests_1_1_test_game_creator.html#aeac01635e2eb9d5528becc9734842279" target="_top" xlink:title="tests.TestGameCreator.create\lNewAction">
<polygon fill="white" stroke="black" points="879.5,-132 879.5,-162 1040.5,-162 1040.5,-132 879.5,-132"/>
<text text-anchor="start" x="887.5" y="-150" font-family="Helvetica,sans-Serif" font-size="10.00">tests.TestGameCreator.create</text>
<text text-anchor="middle" x="960" y="-139" font-family="Helvetica,sans-Serif" font-size="10.00">NewAction</text>
</a>
</g>
</g>
<!-- Node4&#45;&gt;Node5 -->
<g id="edge4" class="edge"><title>Node4&#45;&gt;Node5</title>
<path fill="none" stroke="midnightblue" d="M799.533,-219.856C806.685,-217.094 813.637,-213.837 820,-210 840.2,-197.818 835.613,-182.867 856,-171 860.4,-168.439 865.055,-166.151 869.858,-164.107"/>
<polygon fill="midnightblue" stroke="midnightblue" points="871.188,-167.345 879.25,-160.47 868.66,-160.818 871.188,-167.345"/>
</g>
<!-- Node7 -->
<g id="node7" class="node"><title>Node7</title>
<g id="a_node7"><a xlink:href="../../d6/d1d/classgamedata_1_1stats_1_1_stats.html#a2c731c37c7527e09767d009660646c0c" target="_top" xlink:title="gamedata.stats.Stats.add">
<polygon fill="white" stroke="black" points="888.5,-93.5 888.5,-112.5 1031.5,-112.5 1031.5,-93.5 888.5,-93.5"/>
<text text-anchor="middle" x="960" y="-100.5" font-family="Helvetica,sans-Serif" font-size="10.00">gamedata.stats.Stats.add</text>
</a>
</g>
</g>
<!-- Node4&#45;&gt;Node7 -->
<g id="edge6" class="edge"><title>Node4&#45;&gt;Node7</title>
<path fill="none" stroke="midnightblue" d="M805.285,-219.999C810.579,-217.205 815.561,-213.903 820,-210 851.736,-182.098 823.207,-148.651 856,-122 862.694,-116.56 870.444,-112.483 878.628,-109.452"/>
<polygon fill="midnightblue" stroke="midnightblue" points="879.924,-112.713 888.399,-106.354 877.809,-106.04 879.924,-112.713"/>
</g>
<!-- Node6 -->
<g id="node6" class="node"><title>Node6</title>
<g id="a_node6"><a xlink:href="../../d3/d12/classtests_1_1_test_game_creator.html#ab20fc3d25acb0bd9232a787f0e9df2c6" target="_top" xlink:title="tests.TestGameCreator.create\lNewStatsTotalLogic">
<polygon fill="white" stroke="black" points="1123.5,-125 1123.5,-155 1284.5,-155 1284.5,-125 1123.5,-125"/>
<text text-anchor="start" x="1131.5" y="-143" font-family="Helvetica,sans-Serif" font-size="10.00">tests.TestGameCreator.create</text>
<text text-anchor="middle" x="1204" y="-132" font-family="Helvetica,sans-Serif" font-size="10.00">NewStatsTotalLogic</text>
</a>
</g>
</g>
<!-- Node5&#45;&gt;Node6 -->
<g id="edge5" class="edge"><title>Node5&#45;&gt;Node6</title>
<path fill="none" stroke="midnightblue" d="M1040.58,-144.698C1063.84,-144.025 1089.43,-143.285 1113.28,-142.595"/>
<polygon fill="midnightblue" stroke="midnightblue" points="1113.48,-146.091 1123.38,-142.303 1113.28,-139.094 1113.48,-146.091"/>
</g>
<!-- Node13 -->
<g id="node13" class="node"><title>Node13</title>
<g id="a_node13"><a xlink:href="../../d6/dda/classauthoring_1_1data_1_1_piece_instance_data.html#a2517f3bd508a388343c4e5343d6391e8" target="_top" xlink:title="authoring.data.PieceInstance\lData.add">
<polygon fill="white" stroke="black" points="882,-575 882,-605 1038,-605 1038,-575 882,-575"/>
<text text-anchor="start" x="890" y="-593" font-family="Helvetica,sans-Serif" font-size="10.00">authoring.data.PieceInstance</text>
<text text-anchor="middle" x="960" y="-582" font-family="Helvetica,sans-Serif" font-size="10.00">Data.add</text>
</a>
</g>
</g>
<!-- Node12&#45;&gt;Node13 -->
<g id="edge12" class="edge"><title>Node12&#45;&gt;Node13</title>
<path fill="none" stroke="midnightblue" d="M806.989,-468.181C811.636,-470.695 816.026,-473.613 820,-477 850.604,-503.08 825.836,-533.412 856,-560 861.069,-564.468 866.77,-568.273 872.822,-571.512"/>
<polygon fill="midnightblue" stroke="midnightblue" points="871.377,-574.7 881.908,-575.864 874.401,-568.387 871.377,-574.7"/>
</g>
<!-- Node14 -->
<g id="node14" class="node"><title>Node14</title>
<g id="a_node14"><a xlink:href="../../d9/df2/classgamedata_1_1gamecomponents_1_1_grid_component.html#a9a5b2359d22e7d79d5065826a0dc8211" target="_top" xlink:title="gamedata.gamecomponents.\lGridComponent.getImageView">
<polygon fill="white" stroke="black" points="878.5,-389 878.5,-419 1041.5,-419 1041.5,-389 878.5,-389"/>
<text text-anchor="start" x="886.5" y="-407" font-family="Helvetica,sans-Serif" font-size="10.00">gamedata.gamecomponents.</text>
<text text-anchor="middle" x="960" y="-396" font-family="Helvetica,sans-Serif" font-size="10.00">GridComponent.getImageView</text>
</a>
</g>
</g>
<!-- Node12&#45;&gt;Node14 -->
<g id="edge13" class="edge"><title>Node12&#45;&gt;Node14</title>
<path fill="none" stroke="midnightblue" d="M797.491,-437.965C822.875,-432.627 851.629,-426.58 877.767,-421.083"/>
<polygon fill="midnightblue" stroke="midnightblue" points="878.578,-424.489 887.644,-419.006 877.138,-417.639 878.578,-424.489"/>
</g>
<!-- Node16 -->
<g id="node16" class="node"><title>Node16</title>
<g id="a_node16"><a xlink:href="../../da/d4c/classauthoring__environment_1_1_g_u_i_grid.html#a11c99629d13f4fd80d59bcd66a794695" target="_top" xlink:title="authoring_environment.GUIGrid.is\lPieceOccupied">
<polygon fill="white" stroke="black" points="1114.5,-556 1114.5,-586 1293.5,-586 1293.5,-556 1114.5,-556"/>
<text text-anchor="start" x="1122.5" y="-574" font-family="Helvetica,sans-Serif" font-size="10.00">authoring_environment.GUIGrid.is</text>
<text text-anchor="middle" x="1204" y="-563" font-family="Helvetica,sans-Serif" font-size="10.00">PieceOccupied</text>
</a>
</g>
</g>
<!-- Node12&#45;&gt;Node16 -->
<g id="edge15" class="edge"><title>Node12&#45;&gt;Node16</title>
<path fill="none" stroke="midnightblue" d="M803.81,-468.196C809.502,-470.696 814.974,-473.609 820,-477 842.401,-492.115 832.726,-512.267 856,-526 896.764,-550.053 1016.48,-561.497 1103.92,-566.77"/>
<polygon fill="midnightblue" stroke="midnightblue" points="1103.96,-570.278 1114.14,-567.368 1104.37,-563.29 1103.96,-570.278"/>
</g>
<!-- Node18 -->
<g id="node18" class="node"><title>Node18</title>
<g id="a_node18"><a xlink:href="../../da/d4c/classauthoring__environment_1_1_g_u_i_grid.html#afe59bd9dfeddc383a541f50fda3e647a" target="_top" xlink:title="authoring_environment.GUIGrid.remove\lPieceAtCoordinate">
<polygon fill="white" stroke="black" points="856,-487 856,-517 1064,-517 1064,-487 856,-487"/>
<text text-anchor="start" x="864" y="-505" font-family="Helvetica,sans-Serif" font-size="10.00">authoring_environment.GUIGrid.remove</text>
<text text-anchor="middle" x="960" y="-494" font-family="Helvetica,sans-Serif" font-size="10.00">PieceAtCoordinate</text>
</a>
</g>
</g>
<!-- Node12&#45;&gt;Node18 -->
<g id="edge17" class="edge"><title>Node12&#45;&gt;Node18</title>
<path fill="none" stroke="midnightblue" d="M797.491,-468.035C822.875,-473.373 851.629,-479.42 877.767,-484.917"/>
<polygon fill="midnightblue" stroke="midnightblue" points="877.138,-488.361 887.644,-486.994 878.578,-481.511 877.138,-488.361"/>
</g>
<!-- Node25 -->
<g id="node25" class="node"><title>Node25</title>
<g id="a_node25"><a xlink:href="../../dc/d5a/classauthoring__environment_1_1_super_tile.html#af7f7917a6fb88cc3145cd6f981a80f79" target="_top" xlink:title="authoring_environment.Super\lTile.setPieceImage">
<polygon fill="white" stroke="black" points="880,-438 880,-468 1040,-468 1040,-438 880,-438"/>
<text text-anchor="start" x="888" y="-456" font-family="Helvetica,sans-Serif" font-size="10.00">authoring_environment.Super</text>
<text text-anchor="middle" x="960" y="-445" font-family="Helvetica,sans-Serif" font-size="10.00">Tile.setPieceImage</text>
</a>
</g>
</g>
<!-- Node12&#45;&gt;Node25 -->
<g id="edge26" class="edge"><title>Node12&#45;&gt;Node25</title>
<path fill="none" stroke="midnightblue" d="M819.763,-453C836.204,-453 853.273,-453 869.592,-453"/>
<polygon fill="midnightblue" stroke="midnightblue" points="869.644,-456.5 879.644,-453 869.644,-449.5 869.644,-456.5"/>
</g>
<!-- Node15 -->
<g id="node15" class="node"><title>Node15</title>
<g id="a_node15"><a xlink:href="../../d9/df2/classgamedata_1_1gamecomponents_1_1_grid_component.html#a224e5aae28655f7e26ff73cbde7b0d99" target="_top" xlink:title="gamedata.gamecomponents.\lGridComponent.setImageView">
<polygon fill="white" stroke="black" points="1123,-409 1123,-439 1285,-439 1285,-409 1123,-409"/>
<text text-anchor="start" x="1131" y="-427" font-family="Helvetica,sans-Serif" font-size="10.00">gamedata.gamecomponents.</text>
<text text-anchor="middle" x="1204" y="-416" font-family="Helvetica,sans-Serif" font-size="10.00">GridComponent.setImageView</text>
</a>
</g>
</g>
<!-- Node14&#45;&gt;Node15 -->
<g id="edge14" class="edge"><title>Node14&#45;&gt;Node15</title>
<path fill="none" stroke="midnightblue" d="M1041.58,-410.66C1064.34,-412.54 1089.25,-414.599 1112.55,-416.524"/>
<polygon fill="midnightblue" stroke="midnightblue" points="1112.52,-420.034 1122.77,-417.369 1113.09,-413.058 1112.52,-420.034"/>
</g>
<!-- Node17 -->
<g id="node17" class="node"><title>Node17</title>
<g id="a_node17"><a xlink:href="../../d6/dda/classauthoring_1_1data_1_1_piece_instance_data.html#afb4443eda20595533c28fe05f079fb48" target="_top" xlink:title="authoring.data.PieceInstance\lData.getData">
<polygon fill="white" stroke="black" points="1346,-551 1346,-581 1502,-581 1502,-551 1346,-551"/>
<text text-anchor="start" x="1354" y="-569" font-family="Helvetica,sans-Serif" font-size="10.00">authoring.data.PieceInstance</text>
<text text-anchor="middle" x="1424" y="-558" font-family="Helvetica,sans-Serif" font-size="10.00">Data.getData</text>
</a>
</g>
</g>
<!-- Node16&#45;&gt;Node17 -->
<g id="edge16" class="edge"><title>Node16&#45;&gt;Node17</title>
<path fill="none" stroke="midnightblue" d="M1293.67,-568.966C1307.61,-568.646 1322.02,-568.316 1335.92,-567.997"/>
<polygon fill="midnightblue" stroke="midnightblue" points="1336.03,-571.496 1345.95,-567.767 1335.87,-564.498 1336.03,-571.496"/>
</g>
<!-- Node18&#45;&gt;Node16 -->
<g id="edge20" class="edge"><title>Node18&#45;&gt;Node16</title>
<path fill="none" stroke="midnightblue" d="M1016.07,-517.075C1031.65,-521.601 1048.57,-526.763 1064,-532 1080.26,-537.517 1083.62,-540.853 1100,-546 1108.23,-548.585 1116.89,-551.062 1125.56,-553.383"/>
<polygon fill="midnightblue" stroke="midnightblue" points="1124.77,-556.793 1135.33,-555.935 1126.54,-550.02 1124.77,-556.793"/>
</g>
<!-- Node19 -->
<g id="node19" class="node"><title>Node19</title>
<g id="a_node19"><a xlink:href="../../da/d4c/classauthoring__environment_1_1_g_u_i_grid.html#a1ac1af9ff6b3cff9aee00db73948d1c0" target="_top" xlink:title="authoring_environment.GUIGrid.get\lPiece">
<polygon fill="white" stroke="black" points="1110.5,-507 1110.5,-537 1297.5,-537 1297.5,-507 1110.5,-507"/>
<text text-anchor="start" x="1118.5" y="-525" font-family="Helvetica,sans-Serif" font-size="10.00">authoring_environment.GUIGrid.get</text>
<text text-anchor="middle" x="1204" y="-514" font-family="Helvetica,sans-Serif" font-size="10.00">Piece</text>
</a>
</g>
</g>
<!-- Node18&#45;&gt;Node19 -->
<g id="edge18" class="edge"><title>Node18&#45;&gt;Node19</title>
<path fill="none" stroke="midnightblue" d="M1064.33,-510.54C1076.16,-511.517 1088.21,-512.513 1100.03,-513.49"/>
<polygon fill="midnightblue" stroke="midnightblue" points="1100.09,-517.007 1110.34,-514.342 1100.67,-510.031 1100.09,-517.007"/>
</g>
<!-- Node20 -->
<g id="node20" class="node"><title>Node20</title>
<g id="a_node20"><a xlink:href="../../da/d4c/classauthoring__environment_1_1_g_u_i_grid.html#a53382a0de9f44f0642c3c9c5b009e613" target="_top" xlink:title="authoring_environment.GUIGrid.remove\lPiece">
<polygon fill="white" stroke="black" points="1100,-458 1100,-488 1308,-488 1308,-458 1100,-458"/>
<text text-anchor="start" x="1108" y="-476" font-family="Helvetica,sans-Serif" font-size="10.00">authoring_environment.GUIGrid.remove</text>
<text text-anchor="middle" x="1204" y="-465" font-family="Helvetica,sans-Serif" font-size="10.00">Piece</text>
</a>
</g>
</g>
<!-- Node18&#45;&gt;Node20 -->
<g id="edge21" class="edge"><title>Node18&#45;&gt;Node20</title>
<path fill="none" stroke="midnightblue" d="M1064.33,-489.617C1072.64,-488.621 1081.07,-487.612 1089.44,-486.608"/>
<polygon fill="midnightblue" stroke="midnightblue" points="1090.12,-490.053 1099.63,-485.387 1089.28,-483.102 1090.12,-490.053"/>
</g>
<!-- Node19&#45;&gt;Node17 -->
<g id="edge19" class="edge"><title>Node19&#45;&gt;Node17</title>
<path fill="none" stroke="midnightblue" d="M1279.41,-537.019C1298.51,-540.874 1319.19,-545.048 1338.75,-548.995"/>
<polygon fill="midnightblue" stroke="midnightblue" points="1338.06,-552.426 1348.55,-550.974 1339.44,-545.564 1338.06,-552.426"/>
</g>
<!-- Node21 -->
<g id="node21" class="node"><title>Node21</title>
<g id="a_node21"><a xlink:href="../../d9/df3/classauthoring__environment_1_1_super_grid.html#aa57ca0acf0ef3aab7d5d98cf9cbbd1d7" target="_top" xlink:title="authoring_environment.Super\lGrid.findTile">
<polygon fill="white" stroke="black" points="1344,-389 1344,-419 1504,-419 1504,-389 1344,-389"/>
<text text-anchor="start" x="1352" y="-407" font-family="Helvetica,sans-Serif" font-size="10.00">authoring_environment.Super</text>
<text text-anchor="middle" x="1424" y="-396" font-family="Helvetica,sans-Serif" font-size="10.00">Grid.findTile</text>
</a>
</g>
</g>
<!-- Node20&#45;&gt;Node21 -->
<g id="edge22" class="edge"><title>Node20&#45;&gt;Node21</title>
<path fill="none" stroke="midnightblue" d="M1272.38,-457.953C1284.32,-454.916 1296.58,-451.555 1308,-448 1331.36,-440.727 1356.83,-431.161 1377.84,-422.807"/>
<polygon fill="midnightblue" stroke="midnightblue" points="1379.18,-426.04 1387.16,-419.066 1376.57,-419.544 1379.18,-426.04"/>
</g>
<!-- Node22 -->
<g id="node22" class="node"><title>Node22</title>
<g id="a_node22"><a xlink:href="../../d9/df2/classgamedata_1_1gamecomponents_1_1_grid_component.html#a97439a493db38860397436079b123e8c" target="_top" xlink:title="gamedata.gamecomponents.\lGridComponent.getLoc">
<polygon fill="white" stroke="black" points="1344,-321 1344,-351 1504,-351 1504,-321 1344,-321"/>
<text text-anchor="start" x="1352" y="-339" font-family="Helvetica,sans-Serif" font-size="10.00">gamedata.gamecomponents.</text>
<text text-anchor="middle" x="1424" y="-328" font-family="Helvetica,sans-Serif" font-size="10.00">GridComponent.getLoc</text>
</a>
</g>
</g>
<!-- Node20&#45;&gt;Node22 -->
<g id="edge23" class="edge"><title>Node20&#45;&gt;Node22</title>
<path fill="none" stroke="midnightblue" d="M1291.92,-457.904C1297.64,-455.128 1303.07,-451.856 1308,-448 1335.24,-426.683 1319.76,-403.673 1344,-379 1353.07,-369.772 1364.54,-362.013 1375.91,-355.739"/>
<polygon fill="midnightblue" stroke="midnightblue" points="1377.71,-358.749 1384.96,-351.026 1374.48,-352.54 1377.71,-358.749"/>
</g>
<!-- Node23 -->
<g id="node23" class="node"><title>Node23</title>
<g id="a_node23"><a xlink:href="../../d6/dda/classauthoring_1_1data_1_1_piece_instance_data.html#a80a0e534e9cb103879f99230bc05efe7" target="_top" xlink:title="authoring.data.PieceInstance\lData.remove">
<polygon fill="white" stroke="black" points="1346,-448 1346,-478 1502,-478 1502,-448 1346,-448"/>
<text text-anchor="start" x="1354" y="-466" font-family="Helvetica,sans-Serif" font-size="10.00">authoring.data.PieceInstance</text>
<text text-anchor="middle" x="1424" y="-455" font-family="Helvetica,sans-Serif" font-size="10.00">Data.remove</text>
</a>
</g>
</g>
<!-- Node20&#45;&gt;Node23 -->
<g id="edge24" class="edge"><title>Node20&#45;&gt;Node23</title>
<path fill="none" stroke="midnightblue" d="M1308.25,-468.264C1317.45,-467.842 1326.7,-467.417 1335.74,-467.003"/>
<polygon fill="midnightblue" stroke="midnightblue" points="1336.02,-470.494 1345.85,-466.539 1335.7,-463.501 1336.02,-470.494"/>
</g>
<!-- Node24 -->
<g id="node24" class="node"><title>Node24</title>
<g id="a_node24"><a xlink:href="../../dc/d5a/classauthoring__environment_1_1_super_tile.html#aab4ca6a2e399a4f20d41eb9bc038f7aa" target="_top" xlink:title="authoring_environment.Super\lTile.removePieceImage">
<polygon fill="white" stroke="black" points="1344,-497 1344,-527 1504,-527 1504,-497 1344,-497"/>
<text text-anchor="start" x="1352" y="-515" font-family="Helvetica,sans-Serif" font-size="10.00">authoring_environment.Super</text>
<text text-anchor="middle" x="1424" y="-504" font-family="Helvetica,sans-Serif" font-size="10.00">Tile.removePieceImage</text>
</a>
</g>
</g>
<!-- Node20&#45;&gt;Node24 -->
<g id="edge25" class="edge"><title>Node20&#45;&gt;Node24</title>
<path fill="none" stroke="midnightblue" d="M1288.97,-488.023C1303.59,-490.638 1318.84,-493.367 1333.6,-496.007"/>
<polygon fill="midnightblue" stroke="midnightblue" points="1333.26,-499.502 1343.72,-497.818 1334.5,-492.611 1333.26,-499.502"/>
</g>
<!-- Node26&#45;&gt;Node14 -->
<g id="edge31" class="edge"><title>Node26&#45;&gt;Node14</title>
<path fill="none" stroke="midnightblue" d="M751.554,-299.187C777.524,-314.421 819.073,-338.248 856,-357 874.954,-366.625 896.275,-376.505 914.582,-384.708"/>
<polygon fill="midnightblue" stroke="midnightblue" points="913.292,-387.965 923.851,-388.834 916.139,-381.57 913.292,-387.965"/>
</g>
<!-- Node27 -->
<g id="node27" class="node"><title>Node27</title>
<g id="a_node27"><a xlink:href="../../d7/dd4/classauthoring_1_1data_1_1_patch_instance_data.html#a740aeb79225ad2a036656c599f1605ce" target="_top" xlink:title="authoring.data.PatchInstance\lData.add">
<polygon fill="white" stroke="black" points="881.5,-318 881.5,-348 1038.5,-348 1038.5,-318 881.5,-318"/>
<text text-anchor="start" x="889.5" y="-336" font-family="Helvetica,sans-Serif" font-size="10.00">authoring.data.PatchInstance</text>
<text text-anchor="middle" x="960" y="-325" font-family="Helvetica,sans-Serif" font-size="10.00">Data.add</text>
</a>
</g>
</g>
<!-- Node26&#45;&gt;Node27 -->
<g id="edge28" class="edge"><title>Node26&#45;&gt;Node27</title>
<path fill="none" stroke="midnightblue" d="M797.491,-299.035C822.875,-304.373 851.629,-310.42 877.767,-315.917"/>
<polygon fill="midnightblue" stroke="midnightblue" points="877.138,-319.361 887.644,-317.994 878.578,-312.511 877.138,-319.361"/>
</g>
<!-- Node29 -->
<g id="node29" class="node"><title>Node29</title>
<g id="a_node29"><a xlink:href="../../da/d4c/classauthoring__environment_1_1_g_u_i_grid.html#aae553512b4d34302577601426c0eaa2f" target="_top" xlink:title="authoring_environment.GUIGrid.is\lPatchOccupied">
<polygon fill="white" stroke="black" points="1114.5,-174 1114.5,-204 1293.5,-204 1293.5,-174 1114.5,-174"/>
<text text-anchor="start" x="1122.5" y="-192" font-family="Helvetica,sans-Serif" font-size="10.00">authoring_environment.GUIGrid.is</text>
<text text-anchor="middle" x="1204" y="-181" font-family="Helvetica,sans-Serif" font-size="10.00">PatchOccupied</text>
</a>
</g>
</g>
<!-- Node26&#45;&gt;Node29 -->
<g id="edge32" class="edge"><title>Node26&#45;&gt;Node29</title>
<path fill="none" stroke="midnightblue" d="M804.012,-268.937C821.138,-265.647 839.178,-262.194 856,-259 948.404,-241.452 971.864,-238.906 1064,-220 1084.71,-215.75 1107.09,-210.881 1127.72,-206.28"/>
<polygon fill="midnightblue" stroke="midnightblue" points="1128.7,-209.648 1137.69,-204.047 1127.17,-202.817 1128.7,-209.648"/>
</g>
<!-- Node31 -->
<g id="node31" class="node"><title>Node31</title>
<g id="a_node31"><a xlink:href="../../da/d4c/classauthoring__environment_1_1_g_u_i_grid.html#a7eab390461914d473383c90e9fb6e3b9" target="_top" xlink:title="authoring_environment.GUIGrid.remove\lPatchAtCoordinate">
<polygon fill="white" stroke="black" points="856,-269 856,-299 1064,-299 1064,-269 856,-269"/>
<text text-anchor="start" x="864" y="-287" font-family="Helvetica,sans-Serif" font-size="10.00">authoring_environment.GUIGrid.remove</text>
<text text-anchor="middle" x="960" y="-276" font-family="Helvetica,sans-Serif" font-size="10.00">PatchAtCoordinate</text>
</a>
</g>
</g>
<!-- Node26&#45;&gt;Node31 -->
<g id="edge34" class="edge"><title>Node26&#45;&gt;Node31</title>
<path fill="none" stroke="midnightblue" d="M819.763,-284C828.306,-284 837.02,-284 845.709,-284"/>
<polygon fill="midnightblue" stroke="midnightblue" points="845.887,-287.5 855.887,-284 845.887,-280.5 845.887,-287.5"/>
</g>
<!-- Node36 -->
<g id="node36" class="node"><title>Node36</title>
<g id="a_node36"><a xlink:href="../../dc/d5a/classauthoring__environment_1_1_super_tile.html#a7e65040df400ad3d7a62145816f0cca4" target="_top" xlink:title="authoring_environment.Super\lTile.setPatchImage">
<polygon fill="white" stroke="black" points="880,-181 880,-211 1040,-211 1040,-181 880,-181"/>
<text text-anchor="start" x="888" y="-199" font-family="Helvetica,sans-Serif" font-size="10.00">authoring_environment.Super</text>
<text text-anchor="middle" x="960" y="-188" font-family="Helvetica,sans-Serif" font-size="10.00">Tile.setPatchImage</text>
</a>
</g>
</g>
<!-- Node26&#45;&gt;Node36 -->
<g id="edge43" class="edge"><title>Node26&#45;&gt;Node36</title>
<path fill="none" stroke="midnightblue" d="M797.738,-268.84C805.465,-266.066 813.038,-262.812 820,-259 839.038,-248.576 837.086,-236.647 856,-226 863.867,-221.572 872.447,-217.745 881.188,-214.451"/>
<polygon fill="midnightblue" stroke="midnightblue" points="882.45,-217.717 890.71,-211.082 880.116,-211.118 882.45,-217.717"/>
</g>
<!-- Node27&#45;&gt;Node22 -->
<g id="edge29" class="edge"><title>Node27&#45;&gt;Node22</title>
<path fill="none" stroke="midnightblue" d="M1038.59,-333.504C1120.09,-334.033 1248.1,-334.864 1333.74,-335.42"/>
<polygon fill="midnightblue" stroke="midnightblue" points="1333.94,-338.922 1343.96,-335.487 1333.99,-331.922 1333.94,-338.922"/>
</g>
<!-- Node28 -->
<g id="node28" class="node"><title>Node28</title>
<g id="a_node28"><a xlink:href="../../d7/dd4/classauthoring_1_1data_1_1_patch_instance_data.html#a49b1a96b6897bdba2ab473736a710047" target="_top" xlink:title="authoring.data.PatchInstance\lData.removePatchAtLoc">
<polygon fill="white" stroke="black" points="1125.5,-360 1125.5,-390 1282.5,-390 1282.5,-360 1125.5,-360"/>
<text text-anchor="start" x="1133.5" y="-378" font-family="Helvetica,sans-Serif" font-size="10.00">authoring.data.PatchInstance</text>
<text text-anchor="middle" x="1204" y="-367" font-family="Helvetica,sans-Serif" font-size="10.00">Data.removePatchAtLoc</text>
</a>
</g>
</g>
<!-- Node27&#45;&gt;Node28 -->
<g id="edge30" class="edge"><title>Node27&#45;&gt;Node28</title>
<path fill="none" stroke="midnightblue" d="M1038.57,-346.462C1063.1,-350.72 1090.38,-355.454 1115.55,-359.823"/>
<polygon fill="midnightblue" stroke="midnightblue" points="1115,-363.28 1125.46,-361.542 1116.2,-356.383 1115,-363.28"/>
</g>
<!-- Node30 -->
<g id="node30" class="node"><title>Node30</title>
<g id="a_node30"><a xlink:href="../../d7/dd4/classauthoring_1_1data_1_1_patch_instance_data.html#a60ac72e96e7e0da6f3beb20122a8c041" target="_top" xlink:title="authoring.data.PatchInstance\lData.getData">
<polygon fill="white" stroke="black" points="1345.5,-174 1345.5,-204 1502.5,-204 1502.5,-174 1345.5,-174"/>
<text text-anchor="start" x="1353.5" y="-192" font-family="Helvetica,sans-Serif" font-size="10.00">authoring.data.PatchInstance</text>
<text text-anchor="middle" x="1424" y="-181" font-family="Helvetica,sans-Serif" font-size="10.00">Data.getData</text>
</a>
</g>
</g>
<!-- Node29&#45;&gt;Node30 -->
<g id="edge33" class="edge"><title>Node29&#45;&gt;Node30</title>
<path fill="none" stroke="midnightblue" d="M1293.67,-189C1307.29,-189 1321.35,-189 1334.96,-189"/>
<polygon fill="midnightblue" stroke="midnightblue" points="1335.26,-192.5 1345.26,-189 1335.26,-185.5 1335.26,-192.5"/>
</g>
<!-- Node31&#45;&gt;Node29 -->
<g id="edge37" class="edge"><title>Node31&#45;&gt;Node29</title>
<path fill="none" stroke="midnightblue" d="M1032.56,-268.917C1043.55,-264.997 1054.42,-260.101 1064,-254 1084.46,-240.979 1079.2,-225.459 1100,-213 1102.87,-211.278 1105.86,-209.68 1108.93,-208.197"/>
<polygon fill="midnightblue" stroke="midnightblue" points="1110.6,-211.289 1118.37,-204.081 1107.8,-204.873 1110.6,-211.289"/>
</g>
<!-- Node32 -->
<g id="node32" class="node"><title>Node32</title>
<g id="a_node32"><a xlink:href="../../da/d4c/classauthoring__environment_1_1_g_u_i_grid.html#a1a7fab3cd600b3c00a33ed4034ba9851" target="_top" xlink:title="authoring_environment.GUIGrid.get\lPatch">
<polygon fill="white" stroke="black" points="1110.5,-223 1110.5,-253 1297.5,-253 1297.5,-223 1110.5,-223"/>
<text text-anchor="start" x="1118.5" y="-241" font-family="Helvetica,sans-Serif" font-size="10.00">authoring_environment.GUIGrid.get</text>
<text text-anchor="middle" x="1204" y="-230" font-family="Helvetica,sans-Serif" font-size="10.00">Patch</text>
</a>
</g>
</g>
<!-- Node31&#45;&gt;Node32 -->
<g id="edge35" class="edge"><title>Node31&#45;&gt;Node32</title>
<path fill="none" stroke="midnightblue" d="M1040.24,-268.938C1063.86,-264.447 1089.91,-259.496 1114.11,-254.896"/>
<polygon fill="midnightblue" stroke="midnightblue" points="1114.83,-258.323 1124,-253.017 1113.52,-251.446 1114.83,-258.323"/>
</g>
<!-- Node33 -->
<g id="node33" class="node"><title>Node33</title>
<g id="a_node33"><a xlink:href="../../da/d4c/classauthoring__environment_1_1_g_u_i_grid.html#a2413204cbed4e6aae67dbb5ab1c55505" target="_top" xlink:title="authoring_environment.GUIGrid.remove\lPatch">
<polygon fill="white" stroke="black" points="1100,-272 1100,-302 1308,-302 1308,-272 1100,-272"/>
<text text-anchor="start" x="1108" y="-290" font-family="Helvetica,sans-Serif" font-size="10.00">authoring_environment.GUIGrid.remove</text>
<text text-anchor="middle" x="1204" y="-279" font-family="Helvetica,sans-Serif" font-size="10.00">Patch</text>
</a>
</g>
</g>
<!-- Node31&#45;&gt;Node33 -->
<g id="edge38" class="edge"><title>Node31&#45;&gt;Node33</title>
<path fill="none" stroke="midnightblue" d="M1064.33,-285.281C1072.64,-285.384 1081.07,-285.488 1089.44,-285.592"/>
<polygon fill="midnightblue" stroke="midnightblue" points="1089.59,-289.094 1099.63,-285.719 1089.67,-282.095 1089.59,-289.094"/>
</g>
<!-- Node32&#45;&gt;Node30 -->
<g id="edge36" class="edge"><title>Node32&#45;&gt;Node30</title>
<path fill="none" stroke="midnightblue" d="M1271.89,-222.965C1295.43,-217.674 1322.07,-211.687 1346.35,-206.229"/>
<polygon fill="midnightblue" stroke="midnightblue" points="1347.25,-209.614 1356.24,-204.006 1345.71,-202.784 1347.25,-209.614"/>
</g>
<!-- Node33&#45;&gt;Node21 -->
<g id="edge39" class="edge"><title>Node33&#45;&gt;Node21</title>
<path fill="none" stroke="midnightblue" d="M1233.05,-302.056C1271.94,-322.928 1342.33,-360.704 1385.64,-383.947"/>
<polygon fill="midnightblue" stroke="midnightblue" points="1384.24,-387.171 1394.71,-388.816 1387.55,-381.003 1384.24,-387.171"/>
</g>
<!-- Node33&#45;&gt;Node22 -->
<g id="edge40" class="edge"><title>Node33&#45;&gt;Node22</title>
<path fill="none" stroke="midnightblue" d="M1271.89,-302.035C1295.43,-307.326 1322.07,-313.313 1346.35,-318.771"/>
<polygon fill="midnightblue" stroke="midnightblue" points="1345.71,-322.216 1356.24,-320.994 1347.25,-315.386 1345.71,-322.216"/>
</g>
<!-- Node34 -->
<g id="node34" class="node"><title>Node34</title>
<g id="a_node34"><a xlink:href="../../d7/dd4/classauthoring_1_1data_1_1_patch_instance_data.html#a3cc84b2fe9d137219655d95e6b73ad6f" target="_top" xlink:title="authoring.data.PatchInstance\lData.remove">
<polygon fill="white" stroke="black" points="1345.5,-223 1345.5,-253 1502.5,-253 1502.5,-223 1345.5,-223"/>
<text text-anchor="start" x="1353.5" y="-241" font-family="Helvetica,sans-Serif" font-size="10.00">authoring.data.PatchInstance</text>
<text text-anchor="middle" x="1424" y="-230" font-family="Helvetica,sans-Serif" font-size="10.00">Data.remove</text>
</a>
</g>
</g>
<!-- Node33&#45;&gt;Node34 -->
<g id="edge41" class="edge"><title>Node33&#45;&gt;Node34</title>
<path fill="none" stroke="midnightblue" d="M1271.89,-271.965C1295.43,-266.674 1322.07,-260.687 1346.35,-255.229"/>
<polygon fill="midnightblue" stroke="midnightblue" points="1347.25,-258.614 1356.24,-253.006 1345.71,-251.784 1347.25,-258.614"/>
</g>
<!-- Node35 -->
<g id="node35" class="node"><title>Node35</title>
<g id="a_node35"><a xlink:href="../../dc/d5a/classauthoring__environment_1_1_super_tile.html#af629f0c1ad27b8ded911f0461606d056" target="_top" xlink:title="authoring_environment.Super\lTile.removePatchImage">
<polygon fill="white" stroke="black" points="1344,-272 1344,-302 1504,-302 1504,-272 1344,-272"/>
<text text-anchor="start" x="1352" y="-290" font-family="Helvetica,sans-Serif" font-size="10.00">authoring_environment.Super</text>
<text text-anchor="middle" x="1424" y="-279" font-family="Helvetica,sans-Serif" font-size="10.00">Tile.removePatchImage</text>
</a>
</g>
</g>
<!-- Node33&#45;&gt;Node35 -->
<g id="edge42" class="edge"><title>Node33&#45;&gt;Node35</title>
<path fill="none" stroke="midnightblue" d="M1308.25,-287C1316.78,-287 1325.36,-287 1333.77,-287"/>
<polygon fill="midnightblue" stroke="midnightblue" points="1333.94,-290.5 1343.94,-287 1333.94,-283.5 1333.94,-290.5"/>
</g>
<!-- Node39 -->
<g id="node39" class="node"><title>Node39</title>
<g id="a_node39"><a xlink:href="../../df/dd5/classgame_player_1_1_view_controller.html#a27bd012e4b5306525d19c6dd9f3b6ac0" target="_top" xlink:title="gamePlayer.ViewController.edit\lSpecificPlayer">
<polygon fill="white" stroke="black" points="430,-49 430,-79 594,-79 594,-49 430,-49"/>
<text text-anchor="start" x="438" y="-67" font-family="Helvetica,sans-Serif" font-size="10.00">gamePlayer.ViewController.edit</text>
<text text-anchor="middle" x="512" y="-56" font-family="Helvetica,sans-Serif" font-size="10.00">SpecificPlayer</text>
</a>
</g>
</g>
<!-- Node38&#45;&gt;Node39 -->
<g id="edge46" class="edge"><title>Node38&#45;&gt;Node39</title>
<path fill="none" stroke="midnightblue" d="M394.105,-64C402.457,-64 410.985,-64 419.44,-64"/>
<polygon fill="midnightblue" stroke="midnightblue" points="419.7,-67.5001 429.7,-64 419.7,-60.5001 419.7,-67.5001"/>
</g>
<!-- Node41 -->
<g id="node41" class="node"><title>Node41</title>
<g id="a_node41"><a xlink:href="../../d2/d99/classgamedata_1_1gamecomponents_1_1_game.html#a538b22872996297aad3b918c4f567a9f" target="_top" xlink:title="gamedata.gamecomponents.\lGame.getPlayers">
<polygon fill="white" stroke="black" points="432,-0 432,-30 592,-30 592,-0 432,-0"/>
<text text-anchor="start" x="440" y="-18" font-family="Helvetica,sans-Serif" font-size="10.00">gamedata.gamecomponents.</text>
<text text-anchor="middle" x="512" y="-7" font-family="Helvetica,sans-Serif" font-size="10.00">Game.getPlayers</text>
</a>
</g>
</g>
<!-- Node38&#45;&gt;Node41 -->
<g id="edge48" class="edge"><title>Node38&#45;&gt;Node41</title>
<path fill="none" stroke="midnightblue" d="M373.752,-48.9654C394.848,-43.7446 418.682,-37.8463 440.498,-32.4474"/>
<polygon fill="midnightblue" stroke="midnightblue" points="441.496,-35.806 450.363,-30.0062 439.815,-29.011 441.496,-35.806"/>
</g>
<!-- Node40 -->
<g id="node40" class="node"><title>Node40</title>
<g id="a_node40"><a xlink:href="../../d2/d99/classgamedata_1_1gamecomponents_1_1_game.html#ad0b2eb24eabcffe2596837c5c6c1ac2c" target="_top" xlink:title="gamedata.gamecomponents.\lGame.replacePlayer">
<polygon fill="white" stroke="black" points="645,-24 645,-54 805,-54 805,-24 645,-24"/>
<text text-anchor="start" x="653" y="-42" font-family="Helvetica,sans-Serif" font-size="10.00">gamedata.gamecomponents.</text>
<text text-anchor="middle" x="725" y="-31" font-family="Helvetica,sans-Serif" font-size="10.00">Game.replacePlayer</text>
</a>
</g>
</g>
<!-- Node39&#45;&gt;Node40 -->
<g id="edge47" class="edge"><title>Node39&#45;&gt;Node40</title>
<path fill="none" stroke="midnightblue" d="M594.276,-54.3701C607.505,-52.8027 621.272,-51.1716 634.681,-49.5828"/>
<polygon fill="midnightblue" stroke="midnightblue" points="635.332,-53.0303 644.85,-48.3779 634.508,-46.0789 635.332,-53.0303"/>
</g>
</g>
</svg>
