<?xml version="1.0" encoding="UTF-8" standalone="no"?>
<!DOCTYPE svg PUBLIC "-//W3C//DTD SVG 1.1//EN"
 "http://www.w3.org/Graphics/SVG/1.1/DTD/svg11.dtd">
<!-- Generated by graphviz version 2.36.0 (20140111.2315)
 -->
<!-- Title: gamedata.goals.Goal Pages: 1 -->
<svg width="358pt" height="115pt"
 viewBox="0.00 0.00 358.00 115.00" xmlns="http://www.w3.org/2000/svg" xmlns:xlink="http://www.w3.org/1999/xlink">
<g id="graph0" class="graph" transform="scale(1 1) rotate(0) translate(4 111)">
<title>gamedata.goals.Goal</title>
<polygon fill="white" stroke="none" points="-4,4 -4,-111 354,-111 354,4 -4,4"/>
<!-- Node1 -->
<g id="node1" class="node"><title>Node1</title>
<polygon fill="#bfbfbf" stroke="black" points="0.5,-49.5 0.5,-68.5 119.5,-68.5 119.5,-49.5 0.5,-49.5"/>
<text text-anchor="middle" x="60" y="-56.5" font-family="Helvetica,sans-Serif" font-size="10.00">gamedata.goals.Goal</text>
</g>
<!-- Node2 -->
<g id="node2" class="node"><title>Node2</title>
<g id="a_node2"><a xlink:href="../../d7/d7d/classgamedata_1_1goals_1_1_piece_on_patch_goal.html" target="_top" xlink:title="gamedata.goals.PieceOnPatchGoal">
<polygon fill="white" stroke="black" points="160.5,-87.5 160.5,-106.5 345.5,-106.5 345.5,-87.5 160.5,-87.5"/>
<text text-anchor="middle" x="253" y="-94.5" font-family="Helvetica,sans-Serif" font-size="10.00">gamedata.goals.PieceOnPatchGoal</text>
</a>
</g>
</g>
<!-- Node1&#45;&gt;Node2 -->
<g id="edge1" class="edge"><title>Node1&#45;&gt;Node2</title>
<path fill="none" stroke="midnightblue" d="M118.944,-70.608C131.18,-73.0539 144.014,-75.6154 156,-78 171.497,-81.0832 188.404,-84.4338 203.651,-87.4506"/>
<polygon fill="midnightblue" stroke="midnightblue" points="119.33,-67.116 108.838,-68.587 117.957,-73.9801 119.33,-67.116"/>
</g>
<!-- Node3 -->
<g id="node3" class="node"><title>Node3</title>
<g id="a_node3"><a xlink:href="../../d8/d81/classgamedata_1_1goals_1_1_pieces_removed_goal.html" target="_top" xlink:title="gamedata.goals.PiecesRemovedGoal">
<polygon fill="white" stroke="black" points="156,-49.5 156,-68.5 350,-68.5 350,-49.5 156,-49.5"/>
<text text-anchor="middle" x="253" y="-56.5" font-family="Helvetica,sans-Serif" font-size="10.00">gamedata.goals.PiecesRemovedGoal</text>
</a>
</g>
</g>
<!-- Node1&#45;&gt;Node3 -->
<g id="edge2" class="edge"><title>Node1&#45;&gt;Node3</title>
<path fill="none" stroke="midnightblue" d="M129.781,-59C138.265,-59 147.055,-59 155.852,-59"/>
<polygon fill="midnightblue" stroke="midnightblue" points="129.604,-55.5001 119.604,-59 129.604,-62.5001 129.604,-55.5001"/>
</g>
<!-- Node4 -->
<g id="node4" class="node"><title>Node4</title>
<g id="a_node4"><a xlink:href="../../db/d5e/classgamedata_1_1goals_1_1_player_pieces_removed_goal.html" target="_top" xlink:title="gamedata.goals.PlayerPieces\lRemovedGoal">
<polygon fill="white" stroke="black" points="174,-0 174,-30 332,-30 332,-0 174,-0"/>
<text text-anchor="start" x="182" y="-18" font-family="Helvetica,sans-Serif" font-size="10.00">gamedata.goals.PlayerPieces</text>
<text text-anchor="middle" x="253" y="-7" font-family="Helvetica,sans-Serif" font-size="10.00">RemovedGoal</text>
</a>
</g>
</g>
<!-- Node1&#45;&gt;Node4 -->
<g id="edge3" class="edge"><title>Node1&#45;&gt;Node4</title>
<path fill="none" stroke="midnightblue" d="M112.28,-47.1868C135.129,-41.9231 162.313,-35.6609 186.603,-30.0654"/>
<polygon fill="midnightblue" stroke="midnightblue" points="111.403,-43.797 102.444,-49.4527 112.975,-50.6184 111.403,-43.797"/>
</g>
</g>
</svg>
