<?xml version="1.0" encoding="UTF-8" standalone="no"?>
<!DOCTYPE svg PUBLIC "-//W3C//DTD SVG 1.1//EN"
 "http://www.w3.org/Graphics/SVG/1.1/DTD/svg11.dtd">
<!-- Generated by graphviz version 2.36.0 (20140111.2315)
 -->
<!-- Title: gameengine.player.Player.startTurn Pages: 1 -->
<svg width="2178pt" height="461pt"
 viewBox="0.00 0.00 2178.00 461.00" xmlns="http://www.w3.org/2000/svg" xmlns:xlink="http://www.w3.org/1999/xlink">
<g id="graph0" class="graph" transform="scale(1 1) rotate(0) translate(4 457)">
<title>gameengine.player.Player.startTurn</title>
<polygon fill="white" stroke="none" points="-4,4 -4,-457 2174,-457 2174,4 -4,4"/>
<!-- Node1 -->
<g id="node1" class="node"><title>Node1</title>
<polygon fill="#bfbfbf" stroke="black" points="0.5,-117.5 0.5,-136.5 185.5,-136.5 185.5,-117.5 0.5,-117.5"/>
<text text-anchor="middle" x="93" y="-124.5" font-family="Helvetica,sans-Serif" font-size="10.00">gameengine.player.Player.startTurn</text>
</g>
<!-- Node2 -->
<g id="node2" class="node"><title>Node2</title>
<g id="a_node2"><a xlink:href="../../d2/d99/classgamedata_1_1gamecomponents_1_1_game.html#a081a3f0c49afed5e186c5914a59a1673" target="_top" xlink:title="gamedata.gamecomponents.\lGame.nextPlayer">
<polygon fill="white" stroke="black" points="437,-186 437,-216 597,-216 597,-186 437,-186"/>
<text text-anchor="start" x="445" y="-204" font-family="Helvetica,sans-Serif" font-size="10.00">gamedata.gamecomponents.</text>
<text text-anchor="middle" x="517" y="-193" font-family="Helvetica,sans-Serif" font-size="10.00">Game.nextPlayer</text>
</a>
</g>
</g>
<!-- Node1&#45;&gt;Node2 -->
<g id="edge1" class="edge"><title>Node1&#45;&gt;Node2</title>
<path fill="none" stroke="midnightblue" d="M122.943,-140.775C148.419,-152.24 186.831,-167.943 222,-176 293.528,-192.387 377.063,-198.263 436.771,-200.26"/>
<polygon fill="midnightblue" stroke="midnightblue" points="124.395,-137.591 113.846,-136.613 121.483,-143.956 124.395,-137.591"/>
</g>
<!-- Node24 -->
<g id="node24" class="node"><title>Node24</title>
<g id="a_node24"><a xlink:href="../../d2/d99/classgamedata_1_1gamecomponents_1_1_game.html#ae5fe51cc99763d308a23912e884ffec7" target="_top" xlink:title="gamedata.gamecomponents.\lGame.resetPlayer">
<polygon fill="white" stroke="black" points="222,-137 222,-167 382,-167 382,-137 222,-137"/>
<text text-anchor="start" x="230" y="-155" font-family="Helvetica,sans-Serif" font-size="10.00">gamedata.gamecomponents.</text>
<text text-anchor="middle" x="302" y="-144" font-family="Helvetica,sans-Serif" font-size="10.00">Game.resetPlayer</text>
</a>
</g>
</g>
<!-- Node1&#45;&gt;Node24 -->
<g id="edge26" class="edge"><title>Node1&#45;&gt;Node24</title>
<path fill="none" stroke="midnightblue" d="M183.066,-137.757C195.908,-139.308 209.051,-140.895 221.685,-142.421"/>
<polygon fill="midnightblue" stroke="midnightblue" points="183.196,-134.247 172.848,-136.523 182.357,-141.197 183.196,-134.247"/>
</g>
<!-- Node26 -->
<g id="node26" class="node"><title>Node26</title>
<g id="a_node26"><a xlink:href="../../d2/d99/classgamedata_1_1gamecomponents_1_1_game.html#af10a4c1effbe4b034810f9f2e5e7863b" target="_top" xlink:title="gamedata.gamecomponents.\lGame.setCurrentPlayer">
<polygon fill="white" stroke="black" points="222,-88 222,-118 382,-118 382,-88 222,-88"/>
<text text-anchor="start" x="230" y="-106" font-family="Helvetica,sans-Serif" font-size="10.00">gamedata.gamecomponents.</text>
<text text-anchor="middle" x="302" y="-95" font-family="Helvetica,sans-Serif" font-size="10.00">Game.setCurrentPlayer</text>
</a>
</g>
</g>
<!-- Node1&#45;&gt;Node26 -->
<g id="edge29" class="edge"><title>Node1&#45;&gt;Node26</title>
<path fill="none" stroke="midnightblue" d="M186.394,-116.288C198.172,-114.922 210.145,-113.534 221.692,-112.195"/>
<polygon fill="midnightblue" stroke="midnightblue" points="185.64,-112.852 176.109,-117.48 186.446,-119.805 185.64,-112.852"/>
</g>
<!-- Node30 -->
<g id="node30" class="node"><title>Node30</title>
<g id="a_node30"><a xlink:href="../../d2/d99/classgamedata_1_1gamecomponents_1_1_game.html#a1ee5262a8307a1bf8de44e676a9a3dd5" target="_top" xlink:title="gamedata.gamecomponents.\lGame.startGame">
<polygon fill="white" stroke="black" points="222,-39 222,-69 382,-69 382,-39 222,-39"/>
<text text-anchor="start" x="230" y="-57" font-family="Helvetica,sans-Serif" font-size="10.00">gamedata.gamecomponents.</text>
<text text-anchor="middle" x="302" y="-46" font-family="Helvetica,sans-Serif" font-size="10.00">Game.startGame</text>
</a>
</g>
</g>
<!-- Node1&#45;&gt;Node30 -->
<g id="edge33" class="edge"><title>Node1&#45;&gt;Node30</title>
<path fill="none" stroke="midnightblue" d="M127.033,-113.617C152.743,-103.38 189.411,-89.1722 222,-78 230.814,-74.9784 240.245,-71.944 249.411,-69.0981"/>
<polygon fill="midnightblue" stroke="midnightblue" points="125.394,-110.503 117.409,-117.467 127.994,-117.002 125.394,-110.503"/>
</g>
<!-- Node3 -->
<g id="node3" class="node"><title>Node3</title>
<g id="a_node3"><a xlink:href="../../df/dd5/classgame_player_1_1_view_controller.html#a620f8a02d3ac7677cd179fcd812aca55" target="_top" xlink:title="gamePlayer.ViewController.check\lEndActions">
<polygon fill="white" stroke="black" points="652,-186 652,-216 826,-216 826,-186 652,-186"/>
<text text-anchor="start" x="660" y="-204" font-family="Helvetica,sans-Serif" font-size="10.00">gamePlayer.ViewController.check</text>
<text text-anchor="middle" x="739" y="-193" font-family="Helvetica,sans-Serif" font-size="10.00">EndActions</text>
</a>
</g>
</g>
<!-- Node2&#45;&gt;Node3 -->
<g id="edge2" class="edge"><title>Node2&#45;&gt;Node3</title>
<path fill="none" stroke="midnightblue" d="M607.202,-201C621.911,-201 637.136,-201 651.77,-201"/>
<polygon fill="midnightblue" stroke="midnightblue" points="607.114,-197.5 597.114,-201 607.114,-204.5 607.114,-197.5"/>
</g>
<!-- Node4 -->
<g id="node4" class="node"><title>Node4</title>
<g id="a_node4"><a xlink:href="../../df/dd5/classgame_player_1_1_view_controller.html#a95c2acd43bb39b8606c69971c1cd30f5" target="_top" xlink:title="gamePlayer.ViewController.perform\lAction">
<polygon fill="white" stroke="black" points="862.5,-279 862.5,-309 1047.5,-309 1047.5,-279 862.5,-279"/>
<text text-anchor="start" x="870.5" y="-297" font-family="Helvetica,sans-Serif" font-size="10.00">gamePlayer.ViewController.perform</text>
<text text-anchor="middle" x="955" y="-286" font-family="Helvetica,sans-Serif" font-size="10.00">Action</text>
</a>
</g>
</g>
<!-- Node3&#45;&gt;Node4 -->
<g id="edge3" class="edge"><title>Node3&#45;&gt;Node4</title>
<path fill="none" stroke="midnightblue" d="M784.111,-220.17C824.122,-237.558 882.32,-262.85 919.156,-278.857"/>
<polygon fill="midnightblue" stroke="midnightblue" points="785.425,-216.925 774.859,-216.149 782.635,-223.345 785.425,-216.925"/>
</g>
<!-- Node22 -->
<g id="node22" class="node"><title>Node22</title>
<g id="a_node22"><a xlink:href="../../df/dd5/classgame_player_1_1_view_controller.html#a13ea7814bde61a8042c5b1a23af41416" target="_top" xlink:title="gamePlayer.ViewController.end\lAction">
<polygon fill="white" stroke="black" points="873,-186 873,-216 1037,-216 1037,-186 873,-186"/>
<text text-anchor="start" x="881" y="-204" font-family="Helvetica,sans-Serif" font-size="10.00">gamePlayer.ViewController.end</text>
<text text-anchor="middle" x="955" y="-193" font-family="Helvetica,sans-Serif" font-size="10.00">Action</text>
</a>
</g>
</g>
<!-- Node3&#45;&gt;Node22 -->
<g id="edge24" class="edge"><title>Node3&#45;&gt;Node22</title>
<path fill="none" stroke="midnightblue" d="M836.327,-201C848.55,-201 860.962,-201 872.914,-201"/>
<polygon fill="midnightblue" stroke="midnightblue" points="836.117,-197.5 826.117,-201 836.117,-204.5 836.117,-197.5"/>
</g>
<!-- Node5 -->
<g id="node5" class="node"><title>Node5</title>
<g id="a_node5"><a xlink:href="../../da/d55/classgame_player_1_1_keyboard_movement.html#af45fd8d279b1ee2d6be5466d425485ab" target="_top" xlink:title="gamePlayer.KeyboardMovement.set\lMovementKeyControl">
<polygon fill="white" stroke="black" points="1084.5,-323 1084.5,-353 1273.5,-353 1273.5,-323 1084.5,-323"/>
<text text-anchor="start" x="1092.5" y="-341" font-family="Helvetica,sans-Serif" font-size="10.00">gamePlayer.KeyboardMovement.set</text>
<text text-anchor="middle" x="1179" y="-330" font-family="Helvetica,sans-Serif" font-size="10.00">MovementKeyControl</text>
</a>
</g>
</g>
<!-- Node4&#45;&gt;Node5 -->
<g id="edge4" class="edge"><title>Node4&#45;&gt;Node5</title>
<path fill="none" stroke="midnightblue" d="M1057.67,-307.423C1083.14,-312.355 1109.28,-317.895 1130.65,-322.969"/>
<polygon fill="midnightblue" stroke="midnightblue" points="1058.06,-303.933 1047.58,-305.493 1056.74,-310.808 1058.06,-303.933"/>
</g>
<!-- Node13 -->
<g id="node13" class="node"><title>Node13</title>
<g id="a_node13"><a xlink:href="../../df/dd5/classgame_player_1_1_view_controller.html#a22ee80193bbac79a935ee961a183bfcd" target="_top" xlink:title="gamePlayer.ViewController.set\lOnClick">
<polygon fill="white" stroke="black" points="1098.5,-235 1098.5,-265 1259.5,-265 1259.5,-235 1098.5,-235"/>
<text text-anchor="start" x="1106.5" y="-253" font-family="Helvetica,sans-Serif" font-size="10.00">gamePlayer.ViewController.set</text>
<text text-anchor="middle" x="1179" y="-242" font-family="Helvetica,sans-Serif" font-size="10.00">OnClick</text>
</a>
</g>
</g>
<!-- Node4&#45;&gt;Node13 -->
<g id="edge14" class="edge"><title>Node4&#45;&gt;Node13</title>
<path fill="none" stroke="midnightblue" d="M1041.76,-277.002C1061.68,-273.055 1082.73,-268.881 1102.19,-265.026"/>
<polygon fill="midnightblue" stroke="midnightblue" points="1040.91,-273.603 1031.78,-278.981 1042.27,-280.47 1040.91,-273.603"/>
</g>
<!-- Node5&#45;&gt;Node4 -->
<g id="edge12" class="edge"><title>Node5&#45;&gt;Node4</title>
<path fill="none" stroke="midnightblue" d="M1074.26,-324.177C1049.45,-319.347 1024.15,-313.969 1003.35,-309.032"/>
<polygon fill="midnightblue" stroke="midnightblue" points="1073.63,-327.618 1084.11,-326.069 1074.95,-320.744 1073.63,-327.618"/>
</g>
<!-- Node6 -->
<g id="node6" class="node"><title>Node6</title>
<g id="a_node6"><a xlink:href="../../df/dd5/classgame_player_1_1_view_controller.html#a7eb038fd9f20604ade0406f27ef76657" target="_top" xlink:title="gamePlayer.ViewController.bind\lAction">
<polygon fill="white" stroke="black" points="1328.5,-372 1328.5,-402 1495.5,-402 1495.5,-372 1328.5,-372"/>
<text text-anchor="start" x="1336.5" y="-390" font-family="Helvetica,sans-Serif" font-size="10.00">gamePlayer.ViewController.bind</text>
<text text-anchor="middle" x="1412" y="-379" font-family="Helvetica,sans-Serif" font-size="10.00">Action</text>
</a>
</g>
</g>
<!-- Node5&#45;&gt;Node6 -->
<g id="edge5" class="edge"><title>Node5&#45;&gt;Node6</title>
<path fill="none" stroke="midnightblue" d="M1260.67,-355.113C1286.6,-360.611 1315.1,-366.658 1340.26,-371.994"/>
<polygon fill="midnightblue" stroke="midnightblue" points="1261.39,-351.686 1250.88,-353.035 1259.93,-358.534 1261.39,-351.686"/>
</g>
<!-- Node12 -->
<g id="node12" class="node"><title>Node12</title>
<g id="a_node12"><a xlink:href="../../df/dd5/classgame_player_1_1_view_controller.html#a27da17c1280cd953a14f6b76b18f9a4b" target="_top" xlink:title="gamePlayer.ViewController.toggle\lKeyboardControl">
<polygon fill="white" stroke="black" points="1324,-323 1324,-353 1500,-353 1500,-323 1324,-323"/>
<text text-anchor="start" x="1332" y="-341" font-family="Helvetica,sans-Serif" font-size="10.00">gamePlayer.ViewController.toggle</text>
<text text-anchor="middle" x="1412" y="-330" font-family="Helvetica,sans-Serif" font-size="10.00">KeyboardControl</text>
</a>
</g>
</g>
<!-- Node5&#45;&gt;Node12 -->
<g id="edge13" class="edge"><title>Node5&#45;&gt;Node12</title>
<path fill="none" stroke="midnightblue" d="M1283.83,-338C1297.24,-338 1310.86,-338 1323.96,-338"/>
<polygon fill="midnightblue" stroke="midnightblue" points="1283.62,-334.5 1273.62,-338 1283.62,-341.5 1283.62,-334.5"/>
</g>
<!-- Node7 -->
<g id="node7" class="node"><title>Node7</title>
<g id="a_node7"><a xlink:href="../../d1/db7/classgame_player_1_1_keyboard_action.html#a08ace57322b8639020688dd9493c3e1f" target="_top" xlink:title="gamePlayer.KeyboardAction.set\lActionKeyControl">
<polygon fill="white" stroke="black" points="1570,-290 1570,-320 1738,-320 1738,-290 1570,-290"/>
<text text-anchor="start" x="1578" y="-308" font-family="Helvetica,sans-Serif" font-size="10.00">gamePlayer.KeyboardAction.set</text>
<text text-anchor="middle" x="1654" y="-297" font-family="Helvetica,sans-Serif" font-size="10.00">ActionKeyControl</text>
</a>
</g>
</g>
<!-- Node6&#45;&gt;Node7 -->
<g id="edge6" class="edge"><title>Node6&#45;&gt;Node7</title>
<path fill="none" stroke="midnightblue" d="M1494.53,-368.981C1501.19,-366.857 1507.76,-364.532 1514,-362 1531.16,-355.037 1533.18,-348.758 1550,-341 1567.12,-333.106 1586.49,-325.91 1603.77,-320.062"/>
<polygon fill="midnightblue" stroke="midnightblue" points="1493.28,-365.703 1484.72,-371.95 1495.31,-372.402 1493.28,-365.703"/>
</g>
<!-- Node8 -->
<g id="node8" class="node"><title>Node8</title>
<g id="a_node8"><a xlink:href="../../df/dd5/classgame_player_1_1_view_controller.html#ab8c14a8c53be9021a62d0107c2f75ef6" target="_top" xlink:title="gamePlayer.ViewController.update\lActions">
<polygon fill="white" stroke="black" points="1564,-399 1564,-429 1744,-429 1744,-399 1564,-399"/>
<text text-anchor="start" x="1572" y="-417" font-family="Helvetica,sans-Serif" font-size="10.00">gamePlayer.ViewController.update</text>
<text text-anchor="middle" x="1654" y="-406" font-family="Helvetica,sans-Serif" font-size="10.00">Actions</text>
</a>
</g>
</g>
<!-- Node6&#45;&gt;Node8 -->
<g id="edge8" class="edge"><title>Node6&#45;&gt;Node8</title>
<path fill="none" stroke="midnightblue" d="M1505.75,-397.434C1524.78,-399.576 1544.78,-401.826 1563.69,-403.953"/>
<polygon fill="midnightblue" stroke="midnightblue" points="1505.92,-393.932 1495.59,-396.292 1505.14,-400.888 1505.92,-393.932"/>
</g>
<!-- Node11 -->
<g id="node11" class="node"><title>Node11</title>
<g id="a_node11"><a xlink:href="../../df/df0/classtests_1_1_view_controller_test.html#a74e99f9c72cbdcd2d56271b2ad2df1ce" target="_top" xlink:title="tests.ViewControllerTest.bind\lActionTest">
<polygon fill="white" stroke="black" points="1577,-350 1577,-380 1731,-380 1731,-350 1577,-350"/>
<text text-anchor="start" x="1585" y="-368" font-family="Helvetica,sans-Serif" font-size="10.00">tests.ViewControllerTest.bind</text>
<text text-anchor="middle" x="1654" y="-357" font-family="Helvetica,sans-Serif" font-size="10.00">ActionTest</text>
</a>
</g>
</g>
<!-- Node6&#45;&gt;Node11 -->
<g id="edge11" class="edge"><title>Node6&#45;&gt;Node11</title>
<path fill="none" stroke="midnightblue" d="M1505.57,-378.514C1529.09,-376.358 1554.1,-374.066 1576.71,-371.994"/>
<polygon fill="midnightblue" stroke="midnightblue" points="1505.23,-375.031 1495.59,-379.429 1505.87,-382.001 1505.23,-375.031"/>
</g>
<!-- Node7&#45;&gt;Node4 -->
<g id="edge7" class="edge"><title>Node7&#45;&gt;Node4</title>
<path fill="none" stroke="midnightblue" d="M1559.71,-303.528C1425.86,-301.415 1180.87,-297.549 1047.84,-295.449"/>
<polygon fill="midnightblue" stroke="midnightblue" points="1559.88,-307.031 1569.94,-303.689 1559.99,-300.032 1559.88,-307.031"/>
</g>
<!-- Node9 -->
<g id="node9" class="node"><title>Node9</title>
<g id="a_node9"><a xlink:href="../../d6/d24/classgame_player_1_1_select_state.html#a801827392f0faeee6b96925060d77838" target="_top" xlink:title="gamePlayer.SelectState.on\lClick">
<polygon fill="white" stroke="black" points="1817.5,-423 1817.5,-453 1964.5,-453 1964.5,-423 1817.5,-423"/>
<text text-anchor="start" x="1825.5" y="-441" font-family="Helvetica,sans-Serif" font-size="10.00">gamePlayer.SelectState.on</text>
<text text-anchor="middle" x="1891" y="-430" font-family="Helvetica,sans-Serif" font-size="10.00">Click</text>
</a>
</g>
</g>
<!-- Node8&#45;&gt;Node9 -->
<g id="edge9" class="edge"><title>Node8&#45;&gt;Node9</title>
<path fill="none" stroke="midnightblue" d="M1754.17,-424.128C1775.35,-426.291 1797.34,-428.537 1817.3,-430.576"/>
<polygon fill="midnightblue" stroke="midnightblue" points="1754.48,-420.642 1744.18,-423.108 1753.77,-427.606 1754.48,-420.642"/>
</g>
<!-- Node10 -->
<g id="node10" class="node"><title>Node10</title>
<g id="a_node10"><a xlink:href="../../df/df0/classtests_1_1_view_controller_test.html#a785df2c49a72c183c22163ce927f5df1" target="_top" xlink:title="tests.ViewControllerTest.update\lActionsTest">
<polygon fill="white" stroke="black" points="1807.5,-374 1807.5,-404 1974.5,-404 1974.5,-374 1807.5,-374"/>
<text text-anchor="start" x="1815.5" y="-392" font-family="Helvetica,sans-Serif" font-size="10.00">tests.ViewControllerTest.update</text>
<text text-anchor="middle" x="1891" y="-381" font-family="Helvetica,sans-Serif" font-size="10.00">ActionsTest</text>
</a>
</g>
</g>
<!-- Node8&#45;&gt;Node10 -->
<g id="edge10" class="edge"><title>Node8&#45;&gt;Node10</title>
<path fill="none" stroke="midnightblue" d="M1754.49,-403.416C1772.14,-401.538 1790.34,-399.602 1807.46,-397.781"/>
<polygon fill="midnightblue" stroke="midnightblue" points="1753.75,-399.975 1744.18,-404.513 1754.49,-406.935 1753.75,-399.975"/>
</g>
<!-- Node14 -->
<g id="node14" class="node"><title>Node14</title>
<g id="a_node14"><a xlink:href="../../df/dd5/classgame_player_1_1_view_controller.html#a10a40967a873f067cf91b024ff85b38e" target="_top" xlink:title="gamePlayer.ViewController.initializeGrid">
<polygon fill="white" stroke="black" points="1310,-158.5 1310,-177.5 1514,-177.5 1514,-158.5 1310,-158.5"/>
<text text-anchor="middle" x="1412" y="-165.5" font-family="Helvetica,sans-Serif" font-size="10.00">gamePlayer.ViewController.initializeGrid</text>
</a>
</g>
</g>
<!-- Node13&#45;&gt;Node14 -->
<g id="edge15" class="edge"><title>Node13&#45;&gt;Node14</title>
<path fill="none" stroke="midnightblue" d="M1251.11,-232.178C1258.88,-229.908 1266.64,-227.499 1274,-225 1316.2,-210.68 1363.93,-189.684 1390.44,-177.574"/>
<polygon fill="midnightblue" stroke="midnightblue" points="1249.95,-228.87 1241.29,-234.976 1251.86,-235.602 1249.95,-228.87"/>
</g>
<!-- Node14&#45;&gt;Node3 -->
<g id="edge18" class="edge"><title>Node14&#45;&gt;Node3</title>
<path fill="none" stroke="midnightblue" d="M1299.75,-163.532C1188.58,-160.497 1012.94,-159.582 862,-176 842.333,-178.139 821.139,-181.943 802.023,-185.948"/>
<polygon fill="midnightblue" stroke="midnightblue" points="1299.88,-167.037 1309.97,-163.822 1300.07,-160.04 1299.88,-167.037"/>
</g>
<!-- Node15 -->
<g id="node15" class="node"><title>Node15</title>
<g id="a_node15"><a xlink:href="../../df/dd5/classgame_player_1_1_view_controller.html#aabf431713b65ec510f1cb2df12da4e45" target="_top" xlink:title="gamePlayer.ViewController.test\lPlayGameInTab">
<polygon fill="white" stroke="black" points="1571.5,-219 1571.5,-249 1736.5,-249 1736.5,-219 1571.5,-219"/>
<text text-anchor="start" x="1579.5" y="-237" font-family="Helvetica,sans-Serif" font-size="10.00">gamePlayer.ViewController.test</text>
<text text-anchor="middle" x="1654" y="-226" font-family="Helvetica,sans-Serif" font-size="10.00">PlayGameInTab</text>
</a>
</g>
</g>
<!-- Node14&#45;&gt;Node15 -->
<g id="edge16" class="edge"><title>Node14&#45;&gt;Node15</title>
<path fill="none" stroke="midnightblue" d="M1452.91,-180.55C1480.16,-188.967 1517.13,-200.1 1550,-209 1562.52,-212.391 1575.96,-215.81 1588.86,-218.985"/>
<polygon fill="midnightblue" stroke="midnightblue" points="1453.93,-177.2 1443.34,-177.58 1451.85,-183.886 1453.93,-177.2"/>
</g>
<!-- Node16 -->
<g id="node16" class="node"><title>Node16</title>
<g id="a_node16"><a xlink:href="../../df/dd5/classgame_player_1_1_view_controller.html#a0d1a3d443966f151b070dc751d2faf9a" target="_top" xlink:title="gamePlayer.ViewController.restartGame">
<polygon fill="white" stroke="black" points="1550,-180.5 1550,-199.5 1758,-199.5 1758,-180.5 1550,-180.5"/>
<text text-anchor="middle" x="1654" y="-187.5" font-family="Helvetica,sans-Serif" font-size="10.00">gamePlayer.ViewController.restartGame</text>
</a>
</g>
</g>
<!-- Node14&#45;&gt;Node16 -->
<g id="edge17" class="edge"><title>Node14&#45;&gt;Node16</title>
<path fill="none" stroke="midnightblue" d="M1524.08,-178.182C1532.62,-178.966 1541.23,-179.754 1549.72,-180.533"/>
<polygon fill="midnightblue" stroke="midnightblue" points="1524.36,-174.694 1514.09,-177.266 1523.72,-181.665 1524.36,-174.694"/>
</g>
<!-- Node17 -->
<g id="node17" class="node"><title>Node17</title>
<g id="a_node17"><a xlink:href="../../df/dd5/classgame_player_1_1_view_controller.html#adc15cd81cefb88c58f9d3b7478328df8" target="_top" xlink:title="gamePlayer.ViewController.test\lPlayGUIGame">
<polygon fill="white" stroke="black" points="1571.5,-131 1571.5,-161 1736.5,-161 1736.5,-131 1571.5,-131"/>
<text text-anchor="start" x="1579.5" y="-149" font-family="Helvetica,sans-Serif" font-size="10.00">gamePlayer.ViewController.test</text>
<text text-anchor="middle" x="1654" y="-138" font-family="Helvetica,sans-Serif" font-size="10.00">PlayGUIGame</text>
</a>
</g>
</g>
<!-- Node14&#45;&gt;Node17 -->
<g id="edge19" class="edge"><title>Node14&#45;&gt;Node17</title>
<path fill="none" stroke="midnightblue" d="M1524.43,-157.786C1540.23,-156.338 1556.22,-154.871 1571.32,-153.488"/>
<polygon fill="midnightblue" stroke="midnightblue" points="1523.72,-154.335 1514.09,-158.734 1524.36,-161.306 1523.72,-154.335"/>
</g>
<!-- Node18 -->
<g id="node18" class="node"><title>Node18</title>
<g id="a_node18"><a xlink:href="../../df/dd5/classgame_player_1_1_view_controller.html#a4c1754d129a4eac955390b428eaa448a" target="_top" xlink:title="gamePlayer.ViewController.test\lPlayGame">
<polygon fill="white" stroke="black" points="1571.5,-82 1571.5,-112 1736.5,-112 1736.5,-82 1571.5,-82"/>
<text text-anchor="start" x="1579.5" y="-100" font-family="Helvetica,sans-Serif" font-size="10.00">gamePlayer.ViewController.test</text>
<text text-anchor="middle" x="1654" y="-89" font-family="Helvetica,sans-Serif" font-size="10.00">PlayGame</text>
</a>
</g>
</g>
<!-- Node14&#45;&gt;Node18 -->
<g id="edge20" class="edge"><title>Node14&#45;&gt;Node18</title>
<path fill="none" stroke="midnightblue" d="M1447.82,-154.959C1475.32,-144.924 1514.81,-131.109 1550,-121 1560.94,-117.857 1572.62,-114.829 1584.05,-112.044"/>
<polygon fill="midnightblue" stroke="midnightblue" points="1446.44,-151.738 1438.26,-158.471 1448.85,-158.309 1446.44,-151.738"/>
</g>
<!-- Node19 -->
<g id="node19" class="node"><title>Node19</title>
<g id="a_node19"><a xlink:href="../../db/d40/classfxml__main_1_1_authoring_controller.html#a2ec133c8edf0a7ab1e84f2e12455233d" target="_top" xlink:title="fxml_main.AuthoringController.save\lAsGame">
<polygon fill="white" stroke="black" points="1797.5,-104 1797.5,-134 1984.5,-134 1984.5,-104 1797.5,-104"/>
<text text-anchor="start" x="1805.5" y="-122" font-family="Helvetica,sans-Serif" font-size="10.00">fxml_main.AuthoringController.save</text>
<text text-anchor="middle" x="1891" y="-111" font-family="Helvetica,sans-Serif" font-size="10.00">AsGame</text>
</a>
</g>
</g>
<!-- Node18&#45;&gt;Node19 -->
<g id="edge21" class="edge"><title>Node18&#45;&gt;Node19</title>
<path fill="none" stroke="midnightblue" d="M1746.77,-105.591C1763.38,-107.146 1780.7,-108.768 1797.34,-110.325"/>
<polygon fill="midnightblue" stroke="midnightblue" points="1746.81,-102.08 1736.53,-104.633 1746.16,-109.05 1746.81,-102.08"/>
</g>
<!-- Node20 -->
<g id="node20" class="node"><title>Node20</title>
<g id="a_node20"><a xlink:href="../../df/dd5/classgame_player_1_1_view_controller.html#a2bf1dce04187ad5eacb5359ef2b4eff8" target="_top" xlink:title="gamePlayer.ViewController.newGame">
<polygon fill="white" stroke="black" points="1794,-65.5 1794,-84.5 1988,-84.5 1988,-65.5 1794,-65.5"/>
<text text-anchor="middle" x="1891" y="-72.5" font-family="Helvetica,sans-Serif" font-size="10.00">gamePlayer.ViewController.newGame</text>
</a>
</g>
</g>
<!-- Node18&#45;&gt;Node20 -->
<g id="edge22" class="edge"><title>Node18&#45;&gt;Node20</title>
<path fill="none" stroke="midnightblue" d="M1746.58,-88.4266C1762.03,-86.9806 1778.1,-85.4757 1793.66,-84.0188"/>
<polygon fill="midnightblue" stroke="midnightblue" points="1746.16,-84.9503 1736.53,-89.3672 1746.81,-91.9198 1746.16,-84.9503"/>
</g>
<!-- Node21 -->
<g id="node21" class="node"><title>Node21</title>
<g id="a_node21"><a xlink:href="../../df/dd5/classgame_player_1_1_view_controller.html#a2acd822c93c35674b6978a97b4ce6e3f" target="_top" xlink:title="gamePlayer.ViewController.\lViewController">
<polygon fill="white" stroke="black" points="2024,-60 2024,-90 2170,-90 2170,-60 2024,-60"/>
<text text-anchor="start" x="2032" y="-78" font-family="Helvetica,sans-Serif" font-size="10.00">gamePlayer.ViewController.</text>
<text text-anchor="middle" x="2097" y="-67" font-family="Helvetica,sans-Serif" font-size="10.00">ViewController</text>
</a>
</g>
</g>
<!-- Node20&#45;&gt;Node21 -->
<g id="edge23" class="edge"><title>Node20&#45;&gt;Node21</title>
<path fill="none" stroke="midnightblue" d="M1998.24,-75C2006.94,-75 2015.59,-75 2023.95,-75"/>
<polygon fill="midnightblue" stroke="midnightblue" points="1998.03,-71.5001 1988.03,-75 1998.03,-78.5001 1998.03,-71.5001"/>
</g>
<!-- Node23 -->
<g id="node23" class="node"><title>Node23</title>
<g id="a_node23"><a xlink:href="../../db/d00/classgame_player_1_1_apply_state.html#aed42c1aba25264bc6880036f693a1c9e" target="_top" xlink:title="gamePlayer.ApplyState.on\lClick">
<polygon fill="white" stroke="black" points="1107.5,-186 1107.5,-216 1250.5,-216 1250.5,-186 1107.5,-186"/>
<text text-anchor="start" x="1115.5" y="-204" font-family="Helvetica,sans-Serif" font-size="10.00">gamePlayer.ApplyState.on</text>
<text text-anchor="middle" x="1179" y="-193" font-family="Helvetica,sans-Serif" font-size="10.00">Click</text>
</a>
</g>
</g>
<!-- Node22&#45;&gt;Node23 -->
<g id="edge25" class="edge"><title>Node22&#45;&gt;Node23</title>
<path fill="none" stroke="midnightblue" d="M1047.18,-201C1067.27,-201 1088.26,-201 1107.39,-201"/>
<polygon fill="midnightblue" stroke="midnightblue" points="1047.09,-197.5 1037.09,-201 1047.09,-204.5 1047.09,-197.5"/>
</g>
<!-- Node24&#45;&gt;Node2 -->
<g id="edge28" class="edge"><title>Node24&#45;&gt;Node2</title>
<path fill="none" stroke="midnightblue" d="M378.337,-169.331C401.985,-174.771 427.881,-180.729 450.769,-185.994"/>
<polygon fill="midnightblue" stroke="midnightblue" points="378.885,-165.866 368.355,-167.035 377.315,-172.688 378.885,-165.866"/>
</g>
<!-- Node25 -->
<g id="node25" class="node"><title>Node25</title>
<g id="a_node25"><a xlink:href="../../d2/d99/classgamedata_1_1gamecomponents_1_1_game.html#a86d6922f273765227f1416977a680df8" target="_top" xlink:title="gamedata.gamecomponents.\lGame.endTurn">
<polygon fill="white" stroke="black" points="437,-137 437,-167 597,-167 597,-137 437,-137"/>
<text text-anchor="start" x="445" y="-155" font-family="Helvetica,sans-Serif" font-size="10.00">gamedata.gamecomponents.</text>
<text text-anchor="middle" x="517" y="-144" font-family="Helvetica,sans-Serif" font-size="10.00">Game.endTurn</text>
</a>
</g>
</g>
<!-- Node24&#45;&gt;Node25 -->
<g id="edge27" class="edge"><title>Node24&#45;&gt;Node25</title>
<path fill="none" stroke="midnightblue" d="M392.169,-152C406.969,-152 422.229,-152 436.762,-152"/>
<polygon fill="midnightblue" stroke="midnightblue" points="392.011,-148.5 382.011,-152 392.011,-155.5 392.011,-148.5"/>
</g>
<!-- Node27 -->
<g id="node27" class="node"><title>Node27</title>
<g id="a_node27"><a xlink:href="../../d2/d99/classgamedata_1_1gamecomponents_1_1_game.html#a90eec8ba0c1d410466f991d4b5421e7d" target="_top" xlink:title="gamedata.gamecomponents.\lGame.changeTurn">
<polygon fill="white" stroke="black" points="437,-88 437,-118 597,-118 597,-88 437,-88"/>
<text text-anchor="start" x="445" y="-106" font-family="Helvetica,sans-Serif" font-size="10.00">gamedata.gamecomponents.</text>
<text text-anchor="middle" x="517" y="-95" font-family="Helvetica,sans-Serif" font-size="10.00">Game.changeTurn</text>
</a>
</g>
</g>
<!-- Node26&#45;&gt;Node27 -->
<g id="edge30" class="edge"><title>Node26&#45;&gt;Node27</title>
<path fill="none" stroke="midnightblue" d="M392.169,-103C406.969,-103 422.229,-103 436.762,-103"/>
<polygon fill="midnightblue" stroke="midnightblue" points="392.011,-99.5001 382.011,-103 392.011,-106.5 392.011,-99.5001"/>
</g>
<!-- Node28 -->
<g id="node28" class="node"><title>Node28</title>
<g id="a_node28"><a xlink:href="../../d9/d10/classgamedata_1_1wrappers_1_1_game_data.html#ab7fc650834149e8edee90a0f3373fb0c" target="_top" xlink:title="gamedata.wrappers.GameData.get\lGameFromData">
<polygon fill="white" stroke="black" points="423.5,-39 423.5,-69 610.5,-69 610.5,-39 423.5,-39"/>
<text text-anchor="start" x="431.5" y="-57" font-family="Helvetica,sans-Serif" font-size="10.00">gamedata.wrappers.GameData.get</text>
<text text-anchor="middle" x="517" y="-46" font-family="Helvetica,sans-Serif" font-size="10.00">GameFromData</text>
</a>
</g>
</g>
<!-- Node26&#45;&gt;Node28 -->
<g id="edge31" class="edge"><title>Node26&#45;&gt;Node28</title>
<path fill="none" stroke="midnightblue" d="M378.337,-85.6691C401.985,-80.2288 427.881,-74.2715 450.769,-69.0062"/>
<polygon fill="midnightblue" stroke="midnightblue" points="377.315,-82.3125 368.355,-87.9654 378.885,-89.1343 377.315,-82.3125"/>
</g>
<!-- Node29 -->
<g id="node29" class="node"><title>Node29</title>
<g id="a_node29"><a xlink:href="../../df/dd5/classgame_player_1_1_view_controller.html#a373a9d79a047ab463f62ed817ad382fd" target="_top" xlink:title="gamePlayer.ViewController.saveGame">
<polygon fill="white" stroke="black" points="418,-0.5 418,-19.5 616,-19.5 616,-0.5 418,-0.5"/>
<text text-anchor="middle" x="517" y="-7.5" font-family="Helvetica,sans-Serif" font-size="10.00">gamePlayer.ViewController.saveGame</text>
</a>
</g>
</g>
<!-- Node26&#45;&gt;Node29 -->
<g id="edge32" class="edge"><title>Node26&#45;&gt;Node29</title>
<path fill="none" stroke="midnightblue" d="M373.518,-83.359C376.467,-81.7102 379.311,-79.9274 382,-78 403.965,-62.2583 395.167,-43.4536 418,-29 424.077,-25.1532 430.759,-22.0543 437.691,-19.5619"/>
<polygon fill="midnightblue" stroke="midnightblue" points="371.786,-80.3116 364.406,-87.9132 374.916,-86.573 371.786,-80.3116"/>
</g>
</g>
</svg>
