<?xml version="1.0" encoding="UTF-8" standalone="no"?>
<!DOCTYPE svg PUBLIC "-//W3C//DTD SVG 1.1//EN"
 "http://www.w3.org/Graphics/SVG/1.1/DTD/svg11.dtd">
<!-- Generated by graphviz version 2.36.0 (20140111.2315)
 -->
<!-- Title: gameengine.player.Player.changeStat Pages: 1 -->
<svg width="382pt" height="87pt"
 viewBox="0.00 0.00 382.00 87.00" xmlns="http://www.w3.org/2000/svg" xmlns:xlink="http://www.w3.org/1999/xlink">
<g id="graph0" class="graph" transform="scale(1 1) rotate(0) translate(4 83)">
<title>gameengine.player.Player.changeStat</title>
<polygon fill="white" stroke="none" points="-4,4 -4,-83 378,-83 378,4 -4,4"/>
<!-- Node1 -->
<g id="node1" class="node"><title>Node1</title>
<polygon fill="#bfbfbf" stroke="black" points="0,-29.5 0,-48.5 198,-48.5 198,-29.5 0,-29.5"/>
<text text-anchor="middle" x="99" y="-36.5" font-family="Helvetica,sans-Serif" font-size="10.00">gameengine.player.Player.changeStat</text>
</g>
<!-- Node2 -->
<g id="node2" class="node"><title>Node2</title>
<g id="a_node2"><a xlink:href="../../d6/d1d/classgamedata_1_1stats_1_1_stats.html#af856afc55d980f35020bbeaefeb1777d" target="_top" xlink:title="gamedata.stats.Stats.get\lValue">
<polygon fill="white" stroke="black" points="234,-49 234,-79 374,-79 374,-49 234,-49"/>
<text text-anchor="start" x="242" y="-67" font-family="Helvetica,sans-Serif" font-size="10.00">gamedata.stats.Stats.get</text>
<text text-anchor="middle" x="304" y="-56" font-family="Helvetica,sans-Serif" font-size="10.00">Value</text>
</a>
</g>
</g>
<!-- Node1&#45;&gt;Node2 -->
<g id="edge1" class="edge"><title>Node1&#45;&gt;Node2</title>
<path fill="none" stroke="midnightblue" d="M177.325,-48.5227C192.582,-50.4018 208.614,-52.3761 223.928,-54.2621"/>
<polygon fill="midnightblue" stroke="midnightblue" points="223.52,-57.7382 233.873,-55.4868 224.376,-50.7907 223.52,-57.7382"/>
</g>
<!-- Node3 -->
<g id="node3" class="node"><title>Node3</title>
<g id="a_node3"><a xlink:href="../../d6/d1d/classgamedata_1_1stats_1_1_stats.html#a2b3c4d451bb085e792334ffe9a3282ec" target="_top" xlink:title="gamedata.stats.Stats.set\lValue">
<polygon fill="white" stroke="black" points="234,-0 234,-30 374,-30 374,-0 234,-0"/>
<text text-anchor="start" x="242" y="-18" font-family="Helvetica,sans-Serif" font-size="10.00">gamedata.stats.Stats.set</text>
<text text-anchor="middle" x="304" y="-7" font-family="Helvetica,sans-Serif" font-size="10.00">Value</text>
</a>
</g>
</g>
<!-- Node1&#45;&gt;Node3 -->
<g id="edge2" class="edge"><title>Node1&#45;&gt;Node3</title>
<path fill="none" stroke="midnightblue" d="M180.523,-29.4801C194.686,-27.8056 209.418,-26.0638 223.552,-24.3929"/>
<polygon fill="midnightblue" stroke="midnightblue" points="224.201,-27.8406 233.721,-23.1907 223.379,-20.8891 224.201,-27.8406"/>
</g>
</g>
</svg>
