<?xml version="1.0" encoding="UTF-8" standalone="no"?>
<!DOCTYPE svg PUBLIC "-//W3C//DTD SVG 1.1//EN"
 "http://www.w3.org/Graphics/SVG/1.1/DTD/svg11.dtd">
<!-- Generated by graphviz version 2.36.0 (20140111.2315)
 -->
<!-- Title: gameengine.player.Player.resetMovesPlayed Pages: 1 -->
<svg width="432pt" height="77pt"
 viewBox="0.00 0.00 432.00 77.00" xmlns="http://www.w3.org/2000/svg" xmlns:xlink="http://www.w3.org/1999/xlink">
<g id="graph0" class="graph" transform="scale(1 1) rotate(0) translate(4 73)">
<title>gameengine.player.Player.resetMovesPlayed</title>
<polygon fill="white" stroke="none" points="-4,4 -4,-73 428,-73 428,4 -4,4"/>
<!-- Node1 -->
<g id="node1" class="node"><title>Node1</title>
<polygon fill="#bfbfbf" stroke="black" points="0.5,-17 0.5,-47 167.5,-47 167.5,-17 0.5,-17"/>
<text text-anchor="start" x="8.5" y="-35" font-family="Helvetica,sans-Serif" font-size="10.00">gameengine.player.Player.reset</text>
<text text-anchor="middle" x="84" y="-24" font-family="Helvetica,sans-Serif" font-size="10.00">MovesPlayed</text>
</g>
<!-- Node2 -->
<g id="node2" class="node"><title>Node2</title>
<g id="a_node2"><a xlink:href="../../d8/d4d/classgameengine_1_1player_1_1_simple_a_i_player.html#a9a241075e35d6039a453f51445e9837c" target="_top" xlink:title="gameengine.player.Simple\lAIPlayer.startTurn">
<polygon fill="white" stroke="black" points="242,-39 242,-69 386,-69 386,-39 242,-39"/>
<text text-anchor="start" x="250" y="-57" font-family="Helvetica,sans-Serif" font-size="10.00">gameengine.player.Simple</text>
<text text-anchor="middle" x="314" y="-46" font-family="Helvetica,sans-Serif" font-size="10.00">AIPlayer.startTurn</text>
</a>
</g>
</g>
<!-- Node1&#45;&gt;Node2 -->
<g id="edge1" class="edge"><title>Node1&#45;&gt;Node2</title>
<path fill="none" stroke="midnightblue" d="M177.723,-40.9469C199.145,-43.014 221.606,-45.1813 241.934,-47.1428"/>
<polygon fill="midnightblue" stroke="midnightblue" points="177.926,-37.4503 167.636,-39.9736 177.253,-44.418 177.926,-37.4503"/>
</g>
<!-- Node3 -->
<g id="node3" class="node"><title>Node3</title>
<g id="a_node3"><a xlink:href="../../d5/de0/classgameengine_1_1player_1_1_human_player.html#af95fd739c711dbd990e6e9cbc4ad954d" target="_top" xlink:title="gameengine.player.HumanPlayer.startTurn">
<polygon fill="white" stroke="black" points="204,-0.5 204,-19.5 424,-19.5 424,-0.5 204,-0.5"/>
<text text-anchor="middle" x="314" y="-7.5" font-family="Helvetica,sans-Serif" font-size="10.00">gameengine.player.HumanPlayer.startTurn</text>
</a>
</g>
</g>
<!-- Node1&#45;&gt;Node3 -->
<g id="edge2" class="edge"><title>Node1&#45;&gt;Node3</title>
<path fill="none" stroke="midnightblue" d="M177.691,-23.0562C189.769,-21.8907 202.177,-20.6934 214.348,-19.519"/>
<polygon fill="midnightblue" stroke="midnightblue" points="177.253,-19.582 167.636,-24.0264 177.926,-26.5497 177.253,-19.582"/>
</g>
</g>
</svg>
