<?xml version="1.0" encoding="UTF-8" standalone="no"?>
<!DOCTYPE svg PUBLIC "-//W3C//DTD SVG 1.1//EN"
 "http://www.w3.org/Graphics/SVG/1.1/DTD/svg11.dtd">
<!-- Generated by graphviz version 2.36.0 (20140111.2315)
 -->
<!-- Title: gameengine.player.Player.getID Pages: 1 -->
<svg width="2194pt" height="411pt"
 viewBox="0.00 0.00 2194.00 411.00" xmlns="http://www.w3.org/2000/svg" xmlns:xlink="http://www.w3.org/1999/xlink">
<g id="graph0" class="graph" transform="scale(1 1) rotate(0) translate(4 407)">
<title>gameengine.player.Player.getID</title>
<polygon fill="white" stroke="none" points="-4,4 -4,-407 2190,-407 2190,4 -4,4"/>
<!-- Node1 -->
<g id="node1" class="node"><title>Node1</title>
<polygon fill="#bfbfbf" stroke="black" points="0,-99.5 0,-118.5 168,-118.5 168,-99.5 0,-99.5"/>
<text text-anchor="middle" x="84" y="-106.5" font-family="Helvetica,sans-Serif" font-size="10.00">gameengine.player.Player.getID</text>
</g>
<!-- Node2 -->
<g id="node2" class="node"><title>Node2</title>
<g id="a_node2"><a xlink:href="../../d6/d24/classgame_player_1_1_select_state.html#a801827392f0faeee6b96925060d77838" target="_top" xlink:title="gamePlayer.SelectState.on\lClick">
<polygon fill="white" stroke="black" points="2028.5,-230 2028.5,-260 2175.5,-260 2175.5,-230 2028.5,-230"/>
<text text-anchor="start" x="2036.5" y="-248" font-family="Helvetica,sans-Serif" font-size="10.00">gamePlayer.SelectState.on</text>
<text text-anchor="middle" x="2102" y="-237" font-family="Helvetica,sans-Serif" font-size="10.00">Click</text>
</a>
</g>
</g>
<!-- Node1&#45;&gt;Node2 -->
<g id="edge1" class="edge"><title>Node1&#45;&gt;Node2</title>
<path fill="none" stroke="midnightblue" d="M98.4039,-126.722C148.144,-190.277 329.735,-403 532,-403 532,-403 532,-403 1679,-403 1840.94,-403 2016.91,-299.696 2078.34,-260.15"/>
<polygon fill="midnightblue" stroke="midnightblue" points="101.154,-124.557 92.2721,-118.782 95.6141,-128.836 101.154,-124.557"/>
</g>
<!-- Node3 -->
<g id="node3" class="node"><title>Node3</title>
<g id="a_node3"><a xlink:href="../../db/d5e/classgamedata_1_1goals_1_1_player_pieces_removed_goal.html#adc84b70d6db2dc4e1b93279e8d09c144" target="_top" xlink:title="gamedata.goals.PlayerPieces\lRemovedGoal.PlayerPiecesRemovedGoal">
<polygon fill="white" stroke="black" points="204,-70 204,-100 416,-100 416,-70 204,-70"/>
<text text-anchor="start" x="212" y="-88" font-family="Helvetica,sans-Serif" font-size="10.00">gamedata.goals.PlayerPieces</text>
<text text-anchor="middle" x="310" y="-77" font-family="Helvetica,sans-Serif" font-size="10.00">RemovedGoal.PlayerPiecesRemovedGoal</text>
</a>
</g>
</g>
<!-- Node1&#45;&gt;Node3 -->
<g id="edge2" class="edge"><title>Node1&#45;&gt;Node3</title>
<path fill="none" stroke="midnightblue" d="M178.061,-99.0292C186.624,-98.1117 195.339,-97.178 203.998,-96.2502"/>
<polygon fill="midnightblue" stroke="midnightblue" points="177.661,-95.5519 168.091,-100.097 178.407,-102.512 177.661,-95.5519"/>
</g>
<!-- Node4 -->
<g id="node4" class="node"><title>Node4</title>
<g id="a_node4"><a xlink:href="../../df/dd5/classgame_player_1_1_view_controller.html#ade4f343e5c60f8634455706902bd52b0" target="_top" xlink:title="gamePlayer.ViewController.set\lPlayerTurnDisplay">
<polygon fill="white" stroke="black" points="229.5,-119 229.5,-149 390.5,-149 390.5,-119 229.5,-119"/>
<text text-anchor="start" x="237.5" y="-137" font-family="Helvetica,sans-Serif" font-size="10.00">gamePlayer.ViewController.set</text>
<text text-anchor="middle" x="310" y="-126" font-family="Helvetica,sans-Serif" font-size="10.00">PlayerTurnDisplay</text>
</a>
</g>
</g>
<!-- Node1&#45;&gt;Node4 -->
<g id="edge3" class="edge"><title>Node1&#45;&gt;Node4</title>
<path fill="none" stroke="midnightblue" d="M178.052,-119.385C195.109,-121.289 212.771,-123.26 229.391,-125.115"/>
<polygon fill="midnightblue" stroke="midnightblue" points="178.418,-115.904 168.091,-118.274 177.641,-122.861 178.418,-115.904"/>
</g>
<!-- Node26 -->
<g id="node26" class="node"><title>Node26</title>
<g id="a_node26"><a xlink:href="../../d9/d51/classtests_1_1_global_action_tester.html#ab756c421ccfcd79eddf660a012ddbfcb" target="_top" xlink:title="tests.GlobalActionTester.\lTestEndTurn">
<polygon fill="white" stroke="black" points="243,-21 243,-51 377,-51 377,-21 243,-21"/>
<text text-anchor="start" x="251" y="-39" font-family="Helvetica,sans-Serif" font-size="10.00">tests.GlobalActionTester.</text>
<text text-anchor="middle" x="310" y="-28" font-family="Helvetica,sans-Serif" font-size="10.00">TestEndTurn</text>
</a>
</g>
</g>
<!-- Node1&#45;&gt;Node26 -->
<g id="edge32" class="edge"><title>Node1&#45;&gt;Node26</title>
<path fill="none" stroke="midnightblue" d="M115.349,-95.2903C139.125,-84.9101 173.22,-70.8113 204,-61 216.408,-57.0448 229.818,-53.3946 242.771,-50.1752"/>
<polygon fill="midnightblue" stroke="midnightblue" points="113.883,-92.1115 106.144,-99.3481 116.706,-98.5167 113.883,-92.1115"/>
</g>
<!-- Node5 -->
<g id="node5" class="node"><title>Node5</title>
<g id="a_node5"><a xlink:href="../../df/dd5/classgame_player_1_1_view_controller.html#ab7475f8c5e52b985dd769ce178274d35" target="_top" xlink:title="gamePlayer.ViewController.set\lGridState">
<polygon fill="white" stroke="black" points="452.5,-50 452.5,-80 613.5,-80 613.5,-50 452.5,-50"/>
<text text-anchor="start" x="460.5" y="-68" font-family="Helvetica,sans-Serif" font-size="10.00">gamePlayer.ViewController.set</text>
<text text-anchor="middle" x="533" y="-57" font-family="Helvetica,sans-Serif" font-size="10.00">GridState</text>
</a>
</g>
</g>
<!-- Node4&#45;&gt;Node5 -->
<g id="edge4" class="edge"><title>Node4&#45;&gt;Node5</title>
<path fill="none" stroke="midnightblue" d="M389.433,-116.5C398.438,-114.144 407.45,-111.628 416,-109 443.177,-100.648 473.169,-89.2111 495.847,-80.0907"/>
<polygon fill="midnightblue" stroke="midnightblue" points="388.508,-113.124 379.687,-118.992 390.242,-119.906 388.508,-113.124"/>
</g>
<!-- Node10 -->
<g id="node10" class="node"><title>Node10</title>
<g id="a_node10"><a xlink:href="../../df/dd5/classgame_player_1_1_view_controller.html#a620f8a02d3ac7677cd179fcd812aca55" target="_top" xlink:title="gamePlayer.ViewController.check\lEndActions">
<polygon fill="white" stroke="black" points="907,-119 907,-149 1081,-149 1081,-119 907,-119"/>
<text text-anchor="start" x="915" y="-137" font-family="Helvetica,sans-Serif" font-size="10.00">gamePlayer.ViewController.check</text>
<text text-anchor="middle" x="994" y="-126" font-family="Helvetica,sans-Serif" font-size="10.00">EndActions</text>
</a>
</g>
</g>
<!-- Node4&#45;&gt;Node10 -->
<g id="edge31" class="edge"><title>Node4&#45;&gt;Node10</title>
<path fill="none" stroke="midnightblue" d="M400.643,-134C532.526,-134 777.21,-134 906.987,-134"/>
<polygon fill="midnightblue" stroke="midnightblue" points="400.569,-130.5 390.569,-134 400.569,-137.5 400.569,-130.5"/>
</g>
<!-- Node6 -->
<g id="node6" class="node"><title>Node6</title>
<g id="a_node6"><a xlink:href="../../db/d00/classgame_player_1_1_apply_state.html#aed42c1aba25264bc6880036f693a1c9e" target="_top" xlink:title="gamePlayer.ApplyState.on\lClick">
<polygon fill="white" stroke="black" points="1387.5,-29 1387.5,-59 1530.5,-59 1530.5,-29 1387.5,-29"/>
<text text-anchor="start" x="1395.5" y="-47" font-family="Helvetica,sans-Serif" font-size="10.00">gamePlayer.ApplyState.on</text>
<text text-anchor="middle" x="1459" y="-36" font-family="Helvetica,sans-Serif" font-size="10.00">Click</text>
</a>
</g>
</g>
<!-- Node5&#45;&gt;Node6 -->
<g id="edge5" class="edge"><title>Node5&#45;&gt;Node6</title>
<path fill="none" stroke="midnightblue" d="M623.727,-62.9608C807.057,-58.7941 1221.28,-49.38 1387.26,-45.6077"/>
<polygon fill="midnightblue" stroke="midnightblue" points="623.497,-59.465 613.579,-63.1914 623.656,-66.4632 623.497,-59.465"/>
</g>
<!-- Node7 -->
<g id="node7" class="node"><title>Node7</title>
<g id="a_node7"><a xlink:href="../../df/dd5/classgame_player_1_1_view_controller.html#a10a40967a873f067cf91b024ff85b38e" target="_top" xlink:title="gamePlayer.ViewController.initializeGrid">
<polygon fill="white" stroke="black" points="650,-212.5 650,-231.5 854,-231.5 854,-212.5 650,-212.5"/>
<text text-anchor="middle" x="752" y="-219.5" font-family="Helvetica,sans-Serif" font-size="10.00">gamePlayer.ViewController.initializeGrid</text>
</a>
</g>
</g>
<!-- Node5&#45;&gt;Node7 -->
<g id="edge6" class="edge"><title>Node5&#45;&gt;Node7</title>
<path fill="none" stroke="midnightblue" d="M563.156,-86.0944C610.807,-120.57 703.5,-187.633 737.812,-212.458"/>
<polygon fill="midnightblue" stroke="midnightblue" points="564.96,-83.0799 554.807,-80.0538 560.857,-88.7512 564.96,-83.0799"/>
</g>
<!-- Node13 -->
<g id="node13" class="node"><title>Node13</title>
<g id="a_node13"><a xlink:href="../../df/dd5/classgame_player_1_1_view_controller.html#a7eb038fd9f20604ade0406f27ef76657" target="_top" xlink:title="gamePlayer.ViewController.bind\lAction">
<polygon fill="white" stroke="black" points="1594.5,-29 1594.5,-59 1761.5,-59 1761.5,-29 1594.5,-29"/>
<text text-anchor="start" x="1602.5" y="-47" font-family="Helvetica,sans-Serif" font-size="10.00">gamePlayer.ViewController.bind</text>
<text text-anchor="middle" x="1678" y="-36" font-family="Helvetica,sans-Serif" font-size="10.00">Action</text>
</a>
</g>
</g>
<!-- Node5&#45;&gt;Node13 -->
<g id="edge30" class="edge"><title>Node5&#45;&gt;Node13</title>
<path fill="none" stroke="midnightblue" d="M608.849,-47.7998C699.33,-28.5426 856.469,-0 993,-0 993,-0 993,-0 1232,-0 1375.39,-7.10543e-15 1411.77,-1.78666 1554,-20 1571.7,-22.2662 1590.68,-25.543 1608.3,-28.9505"/>
<polygon fill="midnightblue" stroke="midnightblue" points="608.001,-44.402 598.959,-49.9243 609.471,-51.2459 608.001,-44.402"/>
</g>
<!-- Node8 -->
<g id="node8" class="node"><title>Node8</title>
<g id="a_node8"><a xlink:href="../../df/dd5/classgame_player_1_1_view_controller.html#aabf431713b65ec510f1cb2df12da4e45" target="_top" xlink:title="gamePlayer.ViewController.test\lPlayGameInTab">
<polygon fill="white" stroke="black" points="911.5,-344 911.5,-374 1076.5,-374 1076.5,-344 911.5,-344"/>
<text text-anchor="start" x="919.5" y="-362" font-family="Helvetica,sans-Serif" font-size="10.00">gamePlayer.ViewController.test</text>
<text text-anchor="middle" x="994" y="-351" font-family="Helvetica,sans-Serif" font-size="10.00">PlayGameInTab</text>
</a>
</g>
</g>
<!-- Node7&#45;&gt;Node8 -->
<g id="edge7" class="edge"><title>Node7&#45;&gt;Node8</title>
<path fill="none" stroke="midnightblue" d="M769.089,-239.368C793.039,-264.159 840.578,-309.408 890,-334 897.743,-337.853 906.115,-341.134 914.623,-343.923"/>
<polygon fill="midnightblue" stroke="midnightblue" points="771.327,-236.643 761.902,-231.804 766.253,-241.464 771.327,-236.643"/>
</g>
<!-- Node9 -->
<g id="node9" class="node"><title>Node9</title>
<g id="a_node9"><a xlink:href="../../df/dd5/classgame_player_1_1_view_controller.html#a0d1a3d443966f151b070dc751d2faf9a" target="_top" xlink:title="gamePlayer.ViewController.restartGame">
<polygon fill="white" stroke="black" points="890,-305.5 890,-324.5 1098,-324.5 1098,-305.5 890,-305.5"/>
<text text-anchor="middle" x="994" y="-312.5" font-family="Helvetica,sans-Serif" font-size="10.00">gamePlayer.ViewController.restartGame</text>
</a>
</g>
</g>
<!-- Node7&#45;&gt;Node9 -->
<g id="edge8" class="edge"><title>Node7&#45;&gt;Node9</title>
<path fill="none" stroke="midnightblue" d="M776.074,-237.066C802.539,-253.674 847.736,-280.017 890,-295 902.104,-299.291 915.353,-302.735 928.198,-305.474"/>
<polygon fill="midnightblue" stroke="midnightblue" points="777.847,-234.045 767.53,-231.632 774.09,-239.952 777.847,-234.045"/>
</g>
<!-- Node7&#45;&gt;Node10 -->
<g id="edge9" class="edge"><title>Node7&#45;&gt;Node10</title>
<path fill="none" stroke="midnightblue" d="M783.027,-208.086C810.519,-195.636 852.508,-177.345 890,-164 905.09,-158.629 921.666,-153.481 937.025,-149.012"/>
<polygon fill="midnightblue" stroke="midnightblue" points="781.237,-205.055 773.59,-212.388 784.141,-211.424 781.237,-205.055"/>
</g>
<!-- Node21 -->
<g id="node21" class="node"><title>Node21</title>
<g id="a_node21"><a xlink:href="../../df/dd5/classgame_player_1_1_view_controller.html#adc15cd81cefb88c58f9d3b7478328df8" target="_top" xlink:title="gamePlayer.ViewController.test\lPlayGUIGame">
<polygon fill="white" stroke="black" points="911.5,-256 911.5,-286 1076.5,-286 1076.5,-256 911.5,-256"/>
<text text-anchor="start" x="919.5" y="-274" font-family="Helvetica,sans-Serif" font-size="10.00">gamePlayer.ViewController.test</text>
<text text-anchor="middle" x="994" y="-263" font-family="Helvetica,sans-Serif" font-size="10.00">PlayGUIGame</text>
</a>
</g>
</g>
<!-- Node7&#45;&gt;Node21 -->
<g id="edge25" class="edge"><title>Node7&#45;&gt;Node21</title>
<path fill="none" stroke="midnightblue" d="M809.424,-233.52C842.186,-240.209 883.838,-248.713 919.181,-255.929"/>
<polygon fill="midnightblue" stroke="midnightblue" points="810.057,-230.077 799.559,-231.506 808.657,-236.936 810.057,-230.077"/>
</g>
<!-- Node22 -->
<g id="node22" class="node"><title>Node22</title>
<g id="a_node22"><a xlink:href="../../df/dd5/classgame_player_1_1_view_controller.html#a4c1754d129a4eac955390b428eaa448a" target="_top" xlink:title="gamePlayer.ViewController.test\lPlayGame">
<polygon fill="white" stroke="black" points="911.5,-207 911.5,-237 1076.5,-237 1076.5,-207 911.5,-207"/>
<text text-anchor="start" x="919.5" y="-225" font-family="Helvetica,sans-Serif" font-size="10.00">gamePlayer.ViewController.test</text>
<text text-anchor="middle" x="994" y="-214" font-family="Helvetica,sans-Serif" font-size="10.00">PlayGame</text>
</a>
</g>
</g>
<!-- Node7&#45;&gt;Node22 -->
<g id="edge26" class="edge"><title>Node7&#45;&gt;Node22</title>
<path fill="none" stroke="midnightblue" d="M864.427,-222C880.226,-222 896.223,-222 911.317,-222"/>
<polygon fill="midnightblue" stroke="midnightblue" points="864.086,-218.5 854.086,-222 864.086,-225.5 864.086,-218.5"/>
</g>
<!-- Node11 -->
<g id="node11" class="node"><title>Node11</title>
<g id="a_node11"><a xlink:href="../../df/dd5/classgame_player_1_1_view_controller.html#a95c2acd43bb39b8606c69971c1cd30f5" target="_top" xlink:title="gamePlayer.ViewController.perform\lAction">
<polygon fill="white" stroke="black" points="1138.5,-119 1138.5,-149 1323.5,-149 1323.5,-119 1138.5,-119"/>
<text text-anchor="start" x="1146.5" y="-137" font-family="Helvetica,sans-Serif" font-size="10.00">gamePlayer.ViewController.perform</text>
<text text-anchor="middle" x="1231" y="-126" font-family="Helvetica,sans-Serif" font-size="10.00">Action</text>
</a>
</g>
</g>
<!-- Node10&#45;&gt;Node11 -->
<g id="edge10" class="edge"><title>Node10&#45;&gt;Node11</title>
<path fill="none" stroke="midnightblue" d="M1091.3,-134C1106.83,-134 1122.88,-134 1138.31,-134"/>
<polygon fill="midnightblue" stroke="midnightblue" points="1091.17,-130.5 1081.17,-134 1091.17,-137.5 1091.17,-130.5"/>
</g>
<!-- Node20 -->
<g id="node20" class="node"><title>Node20</title>
<g id="a_node20"><a xlink:href="../../df/dd5/classgame_player_1_1_view_controller.html#a13ea7814bde61a8042c5b1a23af41416" target="_top" xlink:title="gamePlayer.ViewController.end\lAction">
<polygon fill="white" stroke="black" points="1149,-70 1149,-100 1313,-100 1313,-70 1149,-70"/>
<text text-anchor="start" x="1157" y="-88" font-family="Helvetica,sans-Serif" font-size="10.00">gamePlayer.ViewController.end</text>
<text text-anchor="middle" x="1231" y="-77" font-family="Helvetica,sans-Serif" font-size="10.00">Action</text>
</a>
</g>
</g>
<!-- Node10&#45;&gt;Node20 -->
<g id="edge23" class="edge"><title>Node10&#45;&gt;Node20</title>
<path fill="none" stroke="midnightblue" d="M1077.07,-116.887C1103.44,-111.389 1132.44,-105.342 1158.03,-100.006"/>
<polygon fill="midnightblue" stroke="midnightblue" points="1076.18,-113.498 1067.1,-118.965 1077.61,-120.35 1076.18,-113.498"/>
</g>
<!-- Node12 -->
<g id="node12" class="node"><title>Node12</title>
<g id="a_node12"><a xlink:href="../../da/d55/classgame_player_1_1_keyboard_movement.html#af45fd8d279b1ee2d6be5466d425485ab" target="_top" xlink:title="gamePlayer.KeyboardMovement.set\lMovementKeyControl">
<polygon fill="white" stroke="black" points="1364.5,-78 1364.5,-108 1553.5,-108 1553.5,-78 1364.5,-78"/>
<text text-anchor="start" x="1372.5" y="-96" font-family="Helvetica,sans-Serif" font-size="10.00">gamePlayer.KeyboardMovement.set</text>
<text text-anchor="middle" x="1459" y="-85" font-family="Helvetica,sans-Serif" font-size="10.00">MovementKeyControl</text>
</a>
</g>
</g>
<!-- Node11&#45;&gt;Node12 -->
<g id="edge11" class="edge"><title>Node11&#45;&gt;Node12</title>
<path fill="none" stroke="midnightblue" d="M1292.81,-116.903C1314.72,-112.31 1339.98,-107.527 1364.05,-103.38"/>
<polygon fill="midnightblue" stroke="midnightblue" points="1292.05,-113.487 1283,-118.997 1293.51,-120.333 1292.05,-113.487"/>
</g>
<!-- Node19 -->
<g id="node19" class="node"><title>Node19</title>
<g id="a_node19"><a xlink:href="../../df/dd5/classgame_player_1_1_view_controller.html#a22ee80193bbac79a935ee961a183bfcd" target="_top" xlink:title="gamePlayer.ViewController.set\lOnClick">
<polygon fill="white" stroke="black" points="1378.5,-166 1378.5,-196 1539.5,-196 1539.5,-166 1378.5,-166"/>
<text text-anchor="start" x="1386.5" y="-184" font-family="Helvetica,sans-Serif" font-size="10.00">gamePlayer.ViewController.set</text>
<text text-anchor="middle" x="1459" y="-173" font-family="Helvetica,sans-Serif" font-size="10.00">OnClick</text>
</a>
</g>
</g>
<!-- Node11&#45;&gt;Node19 -->
<g id="edge21" class="edge"><title>Node11&#45;&gt;Node19</title>
<path fill="none" stroke="midnightblue" d="M1314.06,-151.065C1337.54,-155.948 1362.94,-161.231 1385.78,-165.981"/>
<polygon fill="midnightblue" stroke="midnightblue" points="1314.63,-147.61 1304.13,-149 1313.21,-154.463 1314.63,-147.61"/>
</g>
<!-- Node12&#45;&gt;Node11 -->
<g id="edge19" class="edge"><title>Node12&#45;&gt;Node11</title>
<path fill="none" stroke="midnightblue" d="M1397.06,-110.123C1374.47,-114.858 1348.32,-119.792 1323.6,-124.024"/>
<polygon fill="midnightblue" stroke="midnightblue" points="1397.8,-113.546 1406.85,-108.037 1396.33,-106.7 1397.8,-113.546"/>
</g>
<!-- Node12&#45;&gt;Node13 -->
<g id="edge12" class="edge"><title>Node12&#45;&gt;Node13</title>
<path fill="none" stroke="midnightblue" d="M1536.43,-75.7419C1560.61,-70.282 1587.12,-64.295 1610.54,-59.0062"/>
<polygon fill="midnightblue" stroke="midnightblue" points="1535.57,-72.3487 1526.58,-77.9654 1537.11,-79.1767 1535.57,-72.3487"/>
</g>
<!-- Node18 -->
<g id="node18" class="node"><title>Node18</title>
<g id="a_node18"><a xlink:href="../../df/dd5/classgame_player_1_1_view_controller.html#a27da17c1280cd953a14f6b76b18f9a4b" target="_top" xlink:title="gamePlayer.ViewController.toggle\lKeyboardControl">
<polygon fill="white" stroke="black" points="1590,-78 1590,-108 1766,-108 1766,-78 1590,-78"/>
<text text-anchor="start" x="1598" y="-96" font-family="Helvetica,sans-Serif" font-size="10.00">gamePlayer.ViewController.toggle</text>
<text text-anchor="middle" x="1678" y="-85" font-family="Helvetica,sans-Serif" font-size="10.00">KeyboardControl</text>
</a>
</g>
</g>
<!-- Node12&#45;&gt;Node18 -->
<g id="edge20" class="edge"><title>Node12&#45;&gt;Node18</title>
<path fill="none" stroke="midnightblue" d="M1563.81,-93C1572.53,-93 1581.3,-93 1589.88,-93"/>
<polygon fill="midnightblue" stroke="midnightblue" points="1563.6,-89.5001 1553.6,-93 1563.6,-96.5001 1563.6,-89.5001"/>
</g>
<!-- Node14 -->
<g id="node14" class="node"><title>Node14</title>
<g id="a_node14"><a xlink:href="../../d1/db7/classgame_player_1_1_keyboard_action.html#a08ace57322b8639020688dd9493c3e1f" target="_top" xlink:title="gamePlayer.KeyboardAction.set\lActionKeyControl">
<polygon fill="white" stroke="black" points="1808,-122 1808,-152 1976,-152 1976,-122 1808,-122"/>
<text text-anchor="start" x="1816" y="-140" font-family="Helvetica,sans-Serif" font-size="10.00">gamePlayer.KeyboardAction.set</text>
<text text-anchor="middle" x="1892" y="-129" font-family="Helvetica,sans-Serif" font-size="10.00">ActionKeyControl</text>
</a>
</g>
</g>
<!-- Node13&#45;&gt;Node14 -->
<g id="edge13" class="edge"><title>Node13&#45;&gt;Node14</title>
<path fill="none" stroke="midnightblue" d="M1756.1,-63.3346C1759.53,-65.067 1762.85,-66.9512 1766,-69 1786.89,-82.5924 1781.07,-98.4701 1802,-112 1807.93,-115.833 1814.45,-119.088 1821.19,-121.848"/>
<polygon fill="midnightblue" stroke="midnightblue" points="1757.35,-60.058 1746.8,-59.0943 1754.45,-66.4273 1757.35,-60.058"/>
</g>
<!-- Node15 -->
<g id="node15" class="node"><title>Node15</title>
<g id="a_node15"><a xlink:href="../../df/dd5/classgame_player_1_1_view_controller.html#ab8c14a8c53be9021a62d0107c2f75ef6" target="_top" xlink:title="gamePlayer.ViewController.update\lActions">
<polygon fill="white" stroke="black" points="1802,-24 1802,-54 1982,-54 1982,-24 1802,-24"/>
<text text-anchor="start" x="1810" y="-42" font-family="Helvetica,sans-Serif" font-size="10.00">gamePlayer.ViewController.update</text>
<text text-anchor="middle" x="1892" y="-31" font-family="Helvetica,sans-Serif" font-size="10.00">Actions</text>
</a>
</g>
</g>
<!-- Node13&#45;&gt;Node15 -->
<g id="edge15" class="edge"><title>Node13&#45;&gt;Node15</title>
<path fill="none" stroke="midnightblue" d="M1771.59,-41.8162C1781.69,-41.5781 1791.94,-41.3362 1801.99,-41.0993"/>
<polygon fill="midnightblue" stroke="midnightblue" points="1771.49,-38.3176 1761.57,-42.0526 1771.65,-45.3157 1771.49,-38.3176"/>
</g>
<!-- Node17 -->
<g id="node17" class="node"><title>Node17</title>
<g id="a_node17"><a xlink:href="../../df/df0/classtests_1_1_view_controller_test.html#a74e99f9c72cbdcd2d56271b2ad2df1ce" target="_top" xlink:title="tests.ViewControllerTest.bind\lActionTest">
<polygon fill="white" stroke="black" points="1815,-73 1815,-103 1969,-103 1969,-73 1815,-73"/>
<text text-anchor="start" x="1823" y="-91" font-family="Helvetica,sans-Serif" font-size="10.00">tests.ViewControllerTest.bind</text>
<text text-anchor="middle" x="1892" y="-80" font-family="Helvetica,sans-Serif" font-size="10.00">ActionTest</text>
</a>
</g>
</g>
<!-- Node13&#45;&gt;Node17 -->
<g id="edge18" class="edge"><title>Node13&#45;&gt;Node17</title>
<path fill="none" stroke="midnightblue" d="M1761.16,-61.0518C1780.1,-64.9829 1800.11,-69.1362 1818.6,-72.9738"/>
<polygon fill="midnightblue" stroke="midnightblue" points="1761.87,-57.6245 1751.37,-59.0192 1760.45,-64.4785 1761.87,-57.6245"/>
</g>
<!-- Node14&#45;&gt;Node11 -->
<g id="edge14" class="edge"><title>Node14&#45;&gt;Node11</title>
<path fill="none" stroke="midnightblue" d="M1797.93,-136.576C1672.02,-136.003 1448.8,-134.987 1323.63,-134.417"/>
<polygon fill="midnightblue" stroke="midnightblue" points="1797.93,-140.076 1807.94,-136.622 1797.96,-133.076 1797.93,-140.076"/>
</g>
<!-- Node15&#45;&gt;Node2 -->
<g id="edge16" class="edge"><title>Node15&#45;&gt;Node2</title>
<path fill="none" stroke="midnightblue" d="M1973.64,-58.6134C1976.54,-60.266 1979.34,-62.0576 1982,-64 2043.16,-108.737 2081.77,-195.185 2095.43,-229.966"/>
<polygon fill="midnightblue" stroke="midnightblue" points="1975.15,-55.4548 1964.64,-54.0614 1971.99,-61.7003 1975.15,-55.4548"/>
</g>
<!-- Node16 -->
<g id="node16" class="node"><title>Node16</title>
<g id="a_node16"><a xlink:href="../../df/df0/classtests_1_1_view_controller_test.html#a785df2c49a72c183c22163ce927f5df1" target="_top" xlink:title="tests.ViewControllerTest.update\lActionsTest">
<polygon fill="white" stroke="black" points="2018.5,-24 2018.5,-54 2185.5,-54 2185.5,-24 2018.5,-24"/>
<text text-anchor="start" x="2026.5" y="-42" font-family="Helvetica,sans-Serif" font-size="10.00">tests.ViewControllerTest.update</text>
<text text-anchor="middle" x="2102" y="-31" font-family="Helvetica,sans-Serif" font-size="10.00">ActionsTest</text>
</a>
</g>
</g>
<!-- Node15&#45;&gt;Node16 -->
<g id="edge17" class="edge"><title>Node15&#45;&gt;Node16</title>
<path fill="none" stroke="midnightblue" d="M1992.31,-39C2001.02,-39 2009.77,-39 2018.32,-39"/>
<polygon fill="midnightblue" stroke="midnightblue" points="1992.12,-35.5001 1982.12,-39 1992.12,-42.5001 1992.12,-35.5001"/>
</g>
<!-- Node19&#45;&gt;Node7 -->
<g id="edge22" class="edge"><title>Node19&#45;&gt;Node7</title>
<path fill="none" stroke="midnightblue" d="M1368.02,-179.72C1255.8,-179.036 1058.22,-180.838 890,-198 859.011,-201.162 824.466,-207.231 797.818,-212.475"/>
<polygon fill="midnightblue" stroke="midnightblue" points="1368.25,-183.221 1378.27,-179.791 1368.3,-176.221 1368.25,-183.221"/>
</g>
<!-- Node20&#45;&gt;Node6 -->
<g id="edge24" class="edge"><title>Node20&#45;&gt;Node6</title>
<path fill="none" stroke="midnightblue" d="M1323.29,-68.4383C1344.57,-64.5771 1366.93,-60.5222 1387.17,-56.8497"/>
<polygon fill="midnightblue" stroke="midnightblue" points="1322.49,-65.0271 1313.27,-70.256 1323.74,-71.9147 1322.49,-65.0271"/>
</g>
<!-- Node23 -->
<g id="node23" class="node"><title>Node23</title>
<g id="a_node23"><a xlink:href="../../db/d40/classfxml__main_1_1_authoring_controller.html#a2ec133c8edf0a7ab1e84f2e12455233d" target="_top" xlink:title="fxml_main.AuthoringController.save\lAsGame">
<polygon fill="white" stroke="black" points="1137.5,-251 1137.5,-281 1324.5,-281 1324.5,-251 1137.5,-251"/>
<text text-anchor="start" x="1145.5" y="-269" font-family="Helvetica,sans-Serif" font-size="10.00">fxml_main.AuthoringController.save</text>
<text text-anchor="middle" x="1231" y="-258" font-family="Helvetica,sans-Serif" font-size="10.00">AsGame</text>
</a>
</g>
</g>
<!-- Node22&#45;&gt;Node23 -->
<g id="edge27" class="edge"><title>Node22&#45;&gt;Node23</title>
<path fill="none" stroke="midnightblue" d="M1085.21,-238.89C1106.46,-242.868 1128.97,-247.083 1149.75,-250.974"/>
<polygon fill="midnightblue" stroke="midnightblue" points="1085.69,-235.419 1075.22,-237.019 1084.4,-242.3 1085.69,-235.419"/>
</g>
<!-- Node24 -->
<g id="node24" class="node"><title>Node24</title>
<g id="a_node24"><a xlink:href="../../df/dd5/classgame_player_1_1_view_controller.html#a2bf1dce04187ad5eacb5359ef2b4eff8" target="_top" xlink:title="gamePlayer.ViewController.newGame">
<polygon fill="white" stroke="black" points="1134,-212.5 1134,-231.5 1328,-231.5 1328,-212.5 1134,-212.5"/>
<text text-anchor="middle" x="1231" y="-219.5" font-family="Helvetica,sans-Serif" font-size="10.00">gamePlayer.ViewController.newGame</text>
</a>
</g>
</g>
<!-- Node22&#45;&gt;Node24 -->
<g id="edge28" class="edge"><title>Node22&#45;&gt;Node24</title>
<path fill="none" stroke="midnightblue" d="M1086.58,-222C1102.03,-222 1118.1,-222 1133.66,-222"/>
<polygon fill="midnightblue" stroke="midnightblue" points="1086.53,-218.5 1076.53,-222 1086.53,-225.5 1086.53,-218.5"/>
</g>
<!-- Node25 -->
<g id="node25" class="node"><title>Node25</title>
<g id="a_node25"><a xlink:href="../../df/dd5/classgame_player_1_1_view_controller.html#a2acd822c93c35674b6978a97b4ce6e3f" target="_top" xlink:title="gamePlayer.ViewController.\lViewController">
<polygon fill="white" stroke="black" points="1386,-215 1386,-245 1532,-245 1532,-215 1386,-215"/>
<text text-anchor="start" x="1394" y="-233" font-family="Helvetica,sans-Serif" font-size="10.00">gamePlayer.ViewController.</text>
<text text-anchor="middle" x="1459" y="-222" font-family="Helvetica,sans-Serif" font-size="10.00">ViewController</text>
</a>
</g>
</g>
<!-- Node24&#45;&gt;Node25 -->
<g id="edge29" class="edge"><title>Node24&#45;&gt;Node25</title>
<path fill="none" stroke="midnightblue" d="M1338.19,-225.759C1354.35,-226.331 1370.68,-226.909 1385.88,-227.447"/>
<polygon fill="midnightblue" stroke="midnightblue" points="1338.29,-222.26 1328.17,-225.404 1338.04,-229.256 1338.29,-222.26"/>
</g>
</g>
</svg>
