<?xml version="1.0" encoding="UTF-8" standalone="no"?>
<!DOCTYPE svg PUBLIC "-//W3C//DTD SVG 1.1//EN"
 "http://www.w3.org/Graphics/SVG/1.1/DTD/svg11.dtd">
<!-- Generated by graphviz version 2.36.0 (20140111.2315)
 -->
<!-- Title: fxml_main.ActionController.initEntryEditBtn Pages: 1 -->
<svg width="588pt" height="88pt"
 viewBox="0.00 0.00 588.00 88.00" xmlns="http://www.w3.org/2000/svg" xmlns:xlink="http://www.w3.org/1999/xlink">
<g id="graph0" class="graph" transform="scale(1 1) rotate(0) translate(4 84)">
<title>fxml_main.ActionController.initEntryEditBtn</title>
<polygon fill="white" stroke="none" points="-4,4 -4,-84 584,-84 584,4 -4,4"/>
<!-- Node1 -->
<g id="node1" class="node"><title>Node1</title>
<polygon fill="#bfbfbf" stroke="black" points="0,-19 0,-49 162,-49 162,-19 0,-19"/>
<text text-anchor="start" x="8" y="-37" font-family="Helvetica,sans-Serif" font-size="10.00">fxml_main.ActionController.init</text>
<text text-anchor="middle" x="81" y="-26" font-family="Helvetica,sans-Serif" font-size="10.00">EntryEditBtn</text>
</g>
<!-- Node2 -->
<g id="node2" class="node"><title>Node2</title>
<g id="a_node2"><a xlink:href="../../da/d40/classfxml__main_1_1_grid_component_abst_ctrl.html#a690d85921c1558f7988bb18e895363ef" target="_top" xlink:title="fxml_main.GridComponentAbst\lCtrl\&lt; ConcreteAction \&gt;::\lmakeCompleteEntryBox">
<polygon fill="white" stroke="black" points="205.5,-38.5 205.5,-79.5 372.5,-79.5 372.5,-38.5 205.5,-38.5"/>
<text text-anchor="start" x="213.5" y="-67.5" font-family="Helvetica,sans-Serif" font-size="10.00">fxml_main.GridComponentAbst</text>
<text text-anchor="start" x="213.5" y="-56.5" font-family="Helvetica,sans-Serif" font-size="10.00">Ctrl&lt; ConcreteAction &gt;::</text>
<text text-anchor="middle" x="289" y="-45.5" font-family="Helvetica,sans-Serif" font-size="10.00">makeCompleteEntryBox</text>
</a>
</g>
</g>
<!-- Node1&#45;&gt;Node2 -->
<g id="edge1" class="edge"><title>Node1&#45;&gt;Node2</title>
<path fill="none" stroke="midnightblue" d="M162.235,-43.7372C173.047,-45.0493 184.211,-46.4042 195.217,-47.74"/>
<polygon fill="midnightblue" stroke="midnightblue" points="194.918,-51.2292 205.267,-48.9596 195.761,-44.2802 194.918,-51.2292"/>
</g>
<!-- Node3 -->
<g id="node3" class="node"><title>Node3</title>
<g id="a_node3"><a xlink:href="../../d2/da6/classauthoring_1_1data_1_1_action_data.html#a0453de13a03a506993c240d3efa6a4fc" target="_top" xlink:title="authoring.data.ActionData.replace">
<polygon fill="white" stroke="black" points="198,-0.5 198,-19.5 380,-19.5 380,-0.5 198,-0.5"/>
<text text-anchor="middle" x="289" y="-7.5" font-family="Helvetica,sans-Serif" font-size="10.00">authoring.data.ActionData.replace</text>
</a>
</g>
</g>
<!-- Node1&#45;&gt;Node3 -->
<g id="edge2" class="edge"><title>Node1&#45;&gt;Node3</title>
<path fill="none" stroke="midnightblue" d="M162.235,-24.6523C173.419,-23.3492 184.98,-22.0023 196.354,-20.6772"/>
<polygon fill="midnightblue" stroke="midnightblue" points="196.76,-24.1537 206.287,-19.5199 195.95,-17.2007 196.76,-24.1537"/>
</g>
<!-- Node4 -->
<g id="node4" class="node"><title>Node4</title>
<g id="a_node4"><a xlink:href="../../d2/da6/classauthoring_1_1data_1_1_action_data.html#ac4c4ab5711f3eeb1d62a8bb716338d4b" target="_top" xlink:title="authoring.data.ActionData.add">
<polygon fill="white" stroke="black" points="416,-0.5 416,-19.5 580,-19.5 580,-0.5 416,-0.5"/>
<text text-anchor="middle" x="498" y="-7.5" font-family="Helvetica,sans-Serif" font-size="10.00">authoring.data.ActionData.add</text>
</a>
</g>
</g>
<!-- Node3&#45;&gt;Node4 -->
<g id="edge3" class="edge"><title>Node3&#45;&gt;Node4</title>
<path fill="none" stroke="midnightblue" d="M380.191,-10C388.634,-10 397.197,-10 405.65,-10"/>
<polygon fill="midnightblue" stroke="midnightblue" points="405.891,-13.5001 415.891,-10 405.891,-6.5001 405.891,-13.5001"/>
</g>
</g>
</svg>
