<?xml version="1.0" encoding="UTF-8" standalone="no"?>
<!DOCTYPE svg PUBLIC "-//W3C//DTD SVG 1.1//EN"
 "http://www.w3.org/Graphics/SVG/1.1/DTD/svg11.dtd">
<!-- Generated by graphviz version 2.36.0 (20140111.2315)
 -->
<!-- Title: fxml_main.ActionController.initGlobalNewBtn Pages: 1 -->
<svg width="374pt" height="87pt"
 viewBox="0.00 0.00 374.00 87.00" xmlns="http://www.w3.org/2000/svg" xmlns:xlink="http://www.w3.org/1999/xlink">
<g id="graph0" class="graph" transform="scale(1 1) rotate(0) translate(4 83)">
<title>fxml_main.ActionController.initGlobalNewBtn</title>
<polygon fill="white" stroke="none" points="-4,4 -4,-83 370,-83 370,4 -4,4"/>
<!-- Node1 -->
<g id="node1" class="node"><title>Node1</title>
<polygon fill="#bfbfbf" stroke="black" points="0,-29 0,-59 162,-59 162,-29 0,-29"/>
<text text-anchor="start" x="8" y="-47" font-family="Helvetica,sans-Serif" font-size="10.00">fxml_main.ActionController.init</text>
<text text-anchor="middle" x="81" y="-36" font-family="Helvetica,sans-Serif" font-size="10.00">GlobalNewBtn</text>
</g>
<!-- Node2 -->
<g id="node2" class="node"><title>Node2</title>
<g id="a_node2"><a xlink:href="../../d2/da6/classauthoring_1_1data_1_1_action_data.html#ac4c4ab5711f3eeb1d62a8bb716338d4b" target="_top" xlink:title="authoring.data.ActionData.add">
<polygon fill="white" stroke="black" points="200,-59.5 200,-78.5 364,-78.5 364,-59.5 200,-59.5"/>
<text text-anchor="middle" x="282" y="-66.5" font-family="Helvetica,sans-Serif" font-size="10.00">authoring.data.ActionData.add</text>
</a>
</g>
</g>
<!-- Node1&#45;&gt;Node2 -->
<g id="edge1" class="edge"><title>Node1&#45;&gt;Node2</title>
<path fill="none" stroke="midnightblue" d="M162.081,-54.0604C172.996,-55.4316 184.235,-56.8436 195.245,-58.2268"/>
<polygon fill="midnightblue" stroke="midnightblue" points="194.918,-61.7131 205.277,-59.487 195.791,-54.7677 194.918,-61.7131"/>
</g>
<!-- Node3 -->
<g id="node3" class="node"><title>Node3</title>
<g id="a_node3"><a xlink:href="../../da/d40/classfxml__main_1_1_grid_component_abst_ctrl.html#a458f6bc495d1bdfc6d3ff39cea40bd84" target="_top" xlink:title="fxml_main.GridComponentAbst\lCtrl\&lt; ConcreteAction \&gt;::\laddEntry">
<polygon fill="white" stroke="black" points="198.5,0.5 198.5,-40.5 365.5,-40.5 365.5,0.5 198.5,0.5"/>
<text text-anchor="start" x="206.5" y="-28.5" font-family="Helvetica,sans-Serif" font-size="10.00">fxml_main.GridComponentAbst</text>
<text text-anchor="start" x="206.5" y="-17.5" font-family="Helvetica,sans-Serif" font-size="10.00">Ctrl&lt; ConcreteAction &gt;::</text>
<text text-anchor="middle" x="282" y="-6.5" font-family="Helvetica,sans-Serif" font-size="10.00">addEntry</text>
</a>
</g>
</g>
<!-- Node1&#45;&gt;Node3 -->
<g id="edge2" class="edge"><title>Node1&#45;&gt;Node3</title>
<path fill="none" stroke="midnightblue" d="M162.081,-34.342C170.791,-33.2916 179.708,-32.2162 188.55,-31.1498"/>
<polygon fill="midnightblue" stroke="midnightblue" points="188.977,-34.6237 198.486,-29.9514 188.139,-27.674 188.977,-34.6237"/>
</g>
</g>
</svg>
