<?xml version="1.0" encoding="UTF-8" standalone="no"?>
<!DOCTYPE svg PUBLIC "-//W3C//DTD SVG 1.1//EN"
 "http://www.w3.org/Graphics/SVG/1.1/DTD/svg11.dtd">
<!-- Generated by graphviz version 2.36.0 (20140111.2315)
 -->
<!-- Title: authoring.concretefeatures.menus.FileX Pages: 1 -->
<svg width="341pt" height="188pt"
 viewBox="0.00 0.00 341.00 188.00" xmlns="http://www.w3.org/2000/svg" xmlns:xlink="http://www.w3.org/1999/xlink">
<g id="graph0" class="graph" transform="scale(1 1) rotate(0) translate(4 184)">
<title>authoring.concretefeatures.menus.FileX</title>
<polygon fill="white" stroke="none" points="-4,4 -4,-184 337,-184 337,4 -4,4"/>
<!-- Node1 -->
<g id="node1" class="node"><title>Node1</title>
<polygon fill="#bfbfbf" stroke="black" points="0,-1 0,-31 186,-31 186,-1 0,-1"/>
<text text-anchor="start" x="8" y="-19" font-family="Helvetica,sans-Serif" font-size="10.00">authoring.concretefeatures.menus.</text>
<text text-anchor="middle" x="93" y="-8" font-family="Helvetica,sans-Serif" font-size="10.00">FileX</text>
</g>
<!-- Node2 -->
<g id="node2" class="node"><title>Node2</title>
<polygon fill="white" stroke="#bfbfbf" points="28.5,-80.5 28.5,-99.5 71.5,-99.5 71.5,-80.5 28.5,-80.5"/>
<text text-anchor="middle" x="50" y="-87.5" font-family="Helvetica,sans-Serif" font-size="10.00">Menu</text>
</g>
<!-- Node2&#45;&gt;Node1 -->
<g id="edge1" class="edge"><title>Node2&#45;&gt;Node1</title>
<path fill="none" stroke="midnightblue" d="M60.4082,-71.5723C67.7938,-59.2058 77.5842,-42.8125 84.5006,-31.2316"/>
<polygon fill="midnightblue" stroke="midnightblue" points="57.2241,-70.0779 55.1015,-80.4579 63.2339,-73.6671 57.2241,-70.0779"/>
</g>
<!-- Node3 -->
<g id="node3" class="node"><title>Node3</title>
<g id="a_node3"><a xlink:href="../../de/dfa/classauthoring__environment_1_1_workspace_view.html" target="_top" xlink:title="authoring_environment.WorkspaceView">
<polygon fill="white" stroke="black" points="90,-80.5 90,-99.5 294,-99.5 294,-80.5 90,-80.5"/>
<text text-anchor="middle" x="192" y="-87.5" font-family="Helvetica,sans-Serif" font-size="10.00">authoring_environment.WorkspaceView</text>
</a>
</g>
</g>
<!-- Node3&#45;&gt;Node1 -->
<g id="edge2" class="edge"><title>Node3&#45;&gt;Node1</title>
<path fill="none" stroke="#9a32cd" stroke-dasharray="5,2" d="M171.967,-74.4307C154.645,-61.8329 129.753,-43.7298 112.568,-31.2316"/>
<polygon fill="#9a32cd" stroke="#9a32cd" points="170.109,-77.4067 180.255,-80.4579 174.226,-71.7456 170.109,-77.4067"/>
<text text-anchor="middle" x="199.5" y="-53.5" font-family="Helvetica,sans-Serif" font-size="10.00"> myWorkspaceView</text>
</g>
<!-- Node4 -->
<g id="node4" class="node"><title>Node4</title>
<polygon fill="white" stroke="#bfbfbf" points="101,-154.5 101,-173.5 157,-173.5 157,-154.5 101,-154.5"/>
<text text-anchor="middle" x="129" y="-161.5" font-family="Helvetica,sans-Serif" font-size="10.00">TabPane</text>
</g>
<!-- Node4&#45;&gt;Node3 -->
<g id="edge3" class="edge"><title>Node4&#45;&gt;Node3</title>
<path fill="none" stroke="midnightblue" d="M143.283,-146.677C156.099,-132.029 174.405,-111.109 184.535,-99.531"/>
<polygon fill="midnightblue" stroke="midnightblue" points="140.425,-144.627 136.474,-154.458 145.693,-149.237 140.425,-144.627"/>
</g>
<!-- Node5 -->
<g id="node5" class="node"><title>Node5</title>
<polygon fill="white" stroke="#bfbfbf" points="174.5,-149 174.5,-179 333.5,-179 333.5,-149 174.5,-149"/>
<text text-anchor="start" x="182.5" y="-167" font-family="Helvetica,sans-Serif" font-size="10.00">List&lt; authoring_environment.</text>
<text text-anchor="middle" x="254" y="-156" font-family="Helvetica,sans-Serif" font-size="10.00">SuperGrid &gt;</text>
</g>
<!-- Node5&#45;&gt;Node3 -->
<g id="edge4" class="edge"><title>Node5&#45;&gt;Node3</title>
<path fill="none" stroke="#9a32cd" stroke-dasharray="5,2" d="M235.103,-141.055C223.138,-127.16 208.32,-109.952 199.542,-99.7589"/>
<polygon fill="#9a32cd" stroke="#9a32cd" points="232.573,-143.481 241.751,-148.775 237.878,-138.914 232.573,-143.481"/>
<text text-anchor="middle" x="245.5" y="-121.5" font-family="Helvetica,sans-Serif" font-size="10.00"> myGrids</text>
</g>
</g>
</svg>
