<?xml version="1.0" encoding="UTF-8" standalone="no"?>
<!DOCTYPE svg PUBLIC "-//W3C//DTD SVG 1.1//EN"
 "http://www.w3.org/Graphics/SVG/1.1/DTD/svg11.dtd">
<!-- Generated by graphviz version 2.36.0 (20140111.2315)
 -->
<!-- Title: gamedata.action.ConcreteAction.modifyStats Pages: 1 -->
<svg width="718pt" height="136pt"
 viewBox="0.00 0.00 718.00 136.00" xmlns="http://www.w3.org/2000/svg" xmlns:xlink="http://www.w3.org/1999/xlink">
<g id="graph0" class="graph" transform="scale(1 1) rotate(0) translate(4 132)">
<title>gamedata.action.ConcreteAction.modifyStats</title>
<polygon fill="white" stroke="none" points="-4,4 -4,-132 714,-132 714,4 -4,4"/>
<!-- Node1 -->
<g id="node1" class="node"><title>Node1</title>
<polygon fill="#bfbfbf" stroke="black" points="0.5,-49 0.5,-79 145.5,-79 145.5,-49 0.5,-49"/>
<text text-anchor="start" x="8.5" y="-67" font-family="Helvetica,sans-Serif" font-size="10.00">gamedata.action.Concrete</text>
<text text-anchor="middle" x="73" y="-56" font-family="Helvetica,sans-Serif" font-size="10.00">Action.modifyStats</text>
</g>
<!-- Node2 -->
<g id="node2" class="node"><title>Node2</title>
<g id="a_node2"><a xlink:href="../../d6/dcc/classgamedata_1_1action_1_1_stats_data_modifier.html#a5ebf6f78cddbc8300bf2c0ac096e1246" target="_top" xlink:title="gamedata.action.StatsData\lModifier.modifyStats">
<polygon fill="white" stroke="black" points="182,-49 182,-79 332,-79 332,-49 182,-49"/>
<text text-anchor="start" x="190" y="-67" font-family="Helvetica,sans-Serif" font-size="10.00">gamedata.action.StatsData</text>
<text text-anchor="middle" x="257" y="-56" font-family="Helvetica,sans-Serif" font-size="10.00">Modifier.modifyStats</text>
</a>
</g>
</g>
<!-- Node1&#45;&gt;Node2 -->
<g id="edge1" class="edge"><title>Node1&#45;&gt;Node2</title>
<path fill="none" stroke="midnightblue" d="M145.67,-64C154.178,-64 162.923,-64 171.587,-64"/>
<polygon fill="midnightblue" stroke="midnightblue" points="171.702,-67.5001 181.702,-64 171.702,-60.5001 171.702,-67.5001"/>
</g>
<!-- Node3 -->
<g id="node3" class="node"><title>Node3</title>
<g id="a_node3"><a xlink:href="../../dc/d5b/interfacegamedata_1_1gamecomponents_1_1_i_has_stats.html#a9f7badcb30c9fddd00c760c38341a616" target="_top" xlink:title="gamedata.gamecomponents.\lIHasStats.getStats">
<polygon fill="white" stroke="black" points="371,-98 371,-128 531,-128 531,-98 371,-98"/>
<text text-anchor="start" x="379" y="-116" font-family="Helvetica,sans-Serif" font-size="10.00">gamedata.gamecomponents.</text>
<text text-anchor="middle" x="451" y="-105" font-family="Helvetica,sans-Serif" font-size="10.00">IHasStats.getStats</text>
</a>
</g>
</g>
<!-- Node2&#45;&gt;Node3 -->
<g id="edge2" class="edge"><title>Node2&#45;&gt;Node3</title>
<path fill="none" stroke="midnightblue" d="M316.911,-79.0346C337.276,-84.2318 360.272,-90.1006 381.349,-95.4796"/>
<polygon fill="midnightblue" stroke="midnightblue" points="380.645,-98.9122 391.2,-97.9938 382.376,-92.1296 380.645,-98.9122"/>
</g>
<!-- Node4 -->
<g id="node4" class="node"><title>Node4</title>
<g id="a_node4"><a xlink:href="../../d6/dcc/classgamedata_1_1action_1_1_stats_data_modifier.html#a270d8b56c5471f0f15a2e97a4ca2b3ee" target="_top" xlink:title="gamedata.action.StatsData\lModifier.evaluateMultiplierLogic">
<polygon fill="white" stroke="black" points="368.5,-49 368.5,-79 533.5,-79 533.5,-49 368.5,-49"/>
<text text-anchor="start" x="376.5" y="-67" font-family="Helvetica,sans-Serif" font-size="10.00">gamedata.action.StatsData</text>
<text text-anchor="middle" x="451" y="-56" font-family="Helvetica,sans-Serif" font-size="10.00">Modifier.evaluateMultiplierLogic</text>
</a>
</g>
</g>
<!-- Node2&#45;&gt;Node4 -->
<g id="edge3" class="edge"><title>Node2&#45;&gt;Node4</title>
<path fill="none" stroke="midnightblue" d="M332.232,-64C340.727,-64 349.462,-64 358.151,-64"/>
<polygon fill="midnightblue" stroke="midnightblue" points="358.314,-67.5001 368.314,-64 358.314,-60.5001 358.314,-67.5001"/>
</g>
<!-- Node6 -->
<g id="node6" class="node"><title>Node6</title>
<g id="a_node6"><a xlink:href="../../d6/d1d/classgamedata_1_1stats_1_1_stats.html#a2b3c4d451bb085e792334ffe9a3282ec" target="_top" xlink:title="gamedata.stats.Stats.set\lValue">
<polygon fill="white" stroke="black" points="381,-0 381,-30 521,-30 521,-0 381,-0"/>
<text text-anchor="start" x="389" y="-18" font-family="Helvetica,sans-Serif" font-size="10.00">gamedata.stats.Stats.set</text>
<text text-anchor="middle" x="451" y="-7" font-family="Helvetica,sans-Serif" font-size="10.00">Value</text>
</a>
</g>
</g>
<!-- Node2&#45;&gt;Node6 -->
<g id="edge5" class="edge"><title>Node2&#45;&gt;Node6</title>
<path fill="none" stroke="midnightblue" d="M316.911,-48.9654C337.276,-43.7682 360.272,-37.8994 381.349,-32.5204"/>
<polygon fill="midnightblue" stroke="midnightblue" points="382.376,-35.8704 391.2,-30.0062 380.645,-29.0878 382.376,-35.8704"/>
</g>
<!-- Node5 -->
<g id="node5" class="node"><title>Node5</title>
<g id="a_node5"><a xlink:href="../../d6/d1d/classgamedata_1_1stats_1_1_stats.html#af856afc55d980f35020bbeaefeb1777d" target="_top" xlink:title="gamedata.stats.Stats.get\lValue">
<polygon fill="white" stroke="black" points="570,-49 570,-79 710,-79 710,-49 570,-49"/>
<text text-anchor="start" x="578" y="-67" font-family="Helvetica,sans-Serif" font-size="10.00">gamedata.stats.Stats.get</text>
<text text-anchor="middle" x="640" y="-56" font-family="Helvetica,sans-Serif" font-size="10.00">Value</text>
</a>
</g>
</g>
<!-- Node4&#45;&gt;Node5 -->
<g id="edge4" class="edge"><title>Node4&#45;&gt;Node5</title>
<path fill="none" stroke="midnightblue" d="M533.749,-64C542.437,-64 551.263,-64 559.92,-64"/>
<polygon fill="midnightblue" stroke="midnightblue" points="559.987,-67.5001 569.987,-64 559.987,-60.5001 559.987,-67.5001"/>
</g>
</g>
</svg>
