<?xml version="1.0" encoding="UTF-8" standalone="no"?>
<!DOCTYPE svg PUBLIC "-//W3C//DTD SVG 1.1//EN"
 "http://www.w3.org/Graphics/SVG/1.1/DTD/svg11.dtd">
<!-- Generated by graphviz version 2.36.0 (20140111.2315)
 -->
<!-- Title: fxml_main.LevelController.setAndDisplayGrid Pages: 1 -->
<svg width="394pt" height="165pt"
 viewBox="0.00 0.00 394.00 165.00" xmlns="http://www.w3.org/2000/svg" xmlns:xlink="http://www.w3.org/1999/xlink">
<g id="graph0" class="graph" transform="scale(1 1) rotate(0) translate(4 161)">
<title>fxml_main.LevelController.setAndDisplayGrid</title>
<polygon fill="white" stroke="none" points="-4,4 -4,-161 390,-161 390,4 -4,4"/>
<!-- Node1 -->
<g id="node1" class="node"><title>Node1</title>
<polygon fill="#bfbfbf" stroke="black" points="0,-61 0,-91 158,-91 158,-61 0,-61"/>
<text text-anchor="start" x="8" y="-79" font-family="Helvetica,sans-Serif" font-size="10.00">fxml_main.LevelController.set</text>
<text text-anchor="middle" x="79" y="-68" font-family="Helvetica,sans-Serif" font-size="10.00">AndDisplayGrid</text>
</g>
<!-- Node2 -->
<g id="node2" class="node"><title>Node2</title>
<g id="a_node2"><a xlink:href="../../d9/df3/classauthoring__environment_1_1_super_grid.html#aba69dd5b1d04abadf1186c952362a46e" target="_top" xlink:title="authoring_environment.Super\lGrid.displayPane">
<polygon fill="white" stroke="black" points="210,-127 210,-157 370,-157 370,-127 210,-127"/>
<text text-anchor="start" x="218" y="-145" font-family="Helvetica,sans-Serif" font-size="10.00">authoring_environment.Super</text>
<text text-anchor="middle" x="290" y="-134" font-family="Helvetica,sans-Serif" font-size="10.00">Grid.displayPane</text>
</a>
</g>
</g>
<!-- Node1&#45;&gt;Node2 -->
<g id="edge1" class="edge"><title>Node1&#45;&gt;Node2</title>
<path fill="none" stroke="midnightblue" d="M119.281,-91.0918C141.125,-99.2402 168.893,-109.198 194,-117 202.018,-119.492 210.467,-121.95 218.882,-124.295"/>
<polygon fill="midnightblue" stroke="midnightblue" points="218.15,-127.723 228.719,-126.991 220,-120.972 218.15,-127.723"/>
</g>
<!-- Node3 -->
<g id="node3" class="node"><title>Node3</title>
<g id="a_node3"><a xlink:href="../../d6/d05/classfxml__main_1_1_g_u_i_grid_reference.html#ab47bae2ec738eb18d99809ec9443a2ae" target="_top" xlink:title="fxml_main.GUIGridReference.getGrid">
<polygon fill="white" stroke="black" points="194.5,-88.5 194.5,-107.5 385.5,-107.5 385.5,-88.5 194.5,-88.5"/>
<text text-anchor="middle" x="290" y="-95.5" font-family="Helvetica,sans-Serif" font-size="10.00">fxml_main.GUIGridReference.getGrid</text>
</a>
</g>
</g>
<!-- Node1&#45;&gt;Node3 -->
<g id="edge2" class="edge"><title>Node1&#45;&gt;Node3</title>
<path fill="none" stroke="midnightblue" d="M158.121,-84.2233C168.034,-85.2668 178.286,-86.3459 188.488,-87.4198"/>
<polygon fill="midnightblue" stroke="midnightblue" points="188.346,-90.9241 198.658,-88.4903 189.079,-83.9626 188.346,-90.9241"/>
</g>
<!-- Node4 -->
<g id="node4" class="node"><title>Node4</title>
<g id="a_node4"><a xlink:href="../../d8/d01/classgamedata_1_1gamecomponents_1_1_level.html#adef1fc175daf62d54468e35e67413edb" target="_top" xlink:title="gamedata.gamecomponents.\lLevel.getGrid">
<polygon fill="white" stroke="black" points="210,-39 210,-69 370,-69 370,-39 210,-39"/>
<text text-anchor="start" x="218" y="-57" font-family="Helvetica,sans-Serif" font-size="10.00">gamedata.gamecomponents.</text>
<text text-anchor="middle" x="290" y="-46" font-family="Helvetica,sans-Serif" font-size="10.00">Level.getGrid</text>
</a>
</g>
</g>
<!-- Node1&#45;&gt;Node4 -->
<g id="edge3" class="edge"><title>Node1&#45;&gt;Node4</title>
<path fill="none" stroke="midnightblue" d="M158.121,-67.7767C171.743,-66.3429 186.004,-64.8417 199.895,-63.3795"/>
<polygon fill="midnightblue" stroke="midnightblue" points="200.35,-66.851 209.929,-62.3233 199.618,-59.8894 200.35,-66.851"/>
</g>
<!-- Node5 -->
<g id="node5" class="node"><title>Node5</title>
<g id="a_node5"><a xlink:href="../../d6/d05/classfxml__main_1_1_g_u_i_grid_reference.html#a6a50d6c8429ddb56128b31faed01dd21" target="_top" xlink:title="fxml_main.GUIGridReference.setGrid">
<polygon fill="white" stroke="black" points="194.5,-0.5 194.5,-19.5 385.5,-19.5 385.5,-0.5 194.5,-0.5"/>
<text text-anchor="middle" x="290" y="-7.5" font-family="Helvetica,sans-Serif" font-size="10.00">fxml_main.GUIGridReference.setGrid</text>
</a>
</g>
</g>
<!-- Node1&#45;&gt;Node5 -->
<g id="edge4" class="edge"><title>Node1&#45;&gt;Node5</title>
<path fill="none" stroke="midnightblue" d="M112.866,-60.9417C135.347,-51.0905 166.029,-38.5152 194,-30 204.02,-26.9498 214.772,-24.202 225.312,-21.7894"/>
<polygon fill="midnightblue" stroke="midnightblue" points="226.311,-25.1534 235.321,-19.5802 224.802,-18.3179 226.311,-25.1534"/>
</g>
</g>
</svg>
