<?xml version="1.0" encoding="UTF-8" standalone="no"?>
<!DOCTYPE svg PUBLIC "-//W3C//DTD SVG 1.1//EN"
 "http://www.w3.org/Graphics/SVG/1.1/DTD/svg11.dtd">
<!-- Generated by graphviz version 2.36.0 (20140111.2315)
 -->
<!-- Title: fxml_main.LevelController.globalNewBtnOnClickAction Pages: 1 -->
<svg width="374pt" height="38pt"
 viewBox="0.00 0.00 374.00 38.00" xmlns="http://www.w3.org/2000/svg" xmlns:xlink="http://www.w3.org/1999/xlink">
<g id="graph0" class="graph" transform="scale(1 1) rotate(0) translate(4 34)">
<title>fxml_main.LevelController.globalNewBtnOnClickAction</title>
<polygon fill="white" stroke="none" points="-4,4 -4,-34 370,-34 370,4 -4,4"/>
<!-- Node1 -->
<g id="node1" class="node"><title>Node1</title>
<polygon fill="#bfbfbf" stroke="black" points="0.5,-0 0.5,-30 171.5,-30 171.5,-0 0.5,-0"/>
<text text-anchor="start" x="8.5" y="-18" font-family="Helvetica,sans-Serif" font-size="10.00">fxml_main.LevelController.global</text>
<text text-anchor="middle" x="86" y="-7" font-family="Helvetica,sans-Serif" font-size="10.00">NewBtnOnClickAction</text>
</g>
<!-- Node2 -->
<g id="node2" class="node"><title>Node2</title>
<g id="a_node2"><a xlink:href="../../da/d61/classfxml__main_1_1_level_controller.html#a75d5024df2cbcdabc2967c829c3e2f6d" target="_top" xlink:title="fxml_main.LevelController.init\lGlobalNewBtn">
<polygon fill="white" stroke="black" points="208.5,-0 208.5,-30 365.5,-30 365.5,-0 208.5,-0"/>
<text text-anchor="start" x="216.5" y="-18" font-family="Helvetica,sans-Serif" font-size="10.00">fxml_main.LevelController.init</text>
<text text-anchor="middle" x="287" y="-7" font-family="Helvetica,sans-Serif" font-size="10.00">GlobalNewBtn</text>
</a>
</g>
</g>
<!-- Node1&#45;&gt;Node2 -->
<g id="edge1" class="edge"><title>Node1&#45;&gt;Node2</title>
<path fill="none" stroke="midnightblue" d="M181.714,-15C190.633,-15 199.603,-15 208.336,-15"/>
<polygon fill="midnightblue" stroke="midnightblue" points="181.683,-11.5001 171.682,-15 181.682,-18.5001 181.683,-11.5001"/>
</g>
</g>
</svg>
