<?xml version="1.0" encoding="UTF-8" standalone="no"?>
<!DOCTYPE svg PUBLIC "-//W3C//DTD SVG 1.1//EN"
 "http://www.w3.org/Graphics/SVG/1.1/DTD/svg11.dtd">
<!-- Generated by graphviz version 2.36.0 (20140111.2315)
 -->
<!-- Title: fxml_main.LevelController.initEntryEditBtn Pages: 1 -->
<svg width="634pt" height="331pt"
 viewBox="0.00 0.00 634.00 331.00" xmlns="http://www.w3.org/2000/svg" xmlns:xlink="http://www.w3.org/1999/xlink">
<g id="graph0" class="graph" transform="scale(1 1) rotate(0) translate(4 327)">
<title>fxml_main.LevelController.initEntryEditBtn</title>
<polygon fill="white" stroke="none" points="-4,4 -4,-327 630,-327 630,4 -4,4"/>
<!-- Node1 -->
<g id="node1" class="node"><title>Node1</title>
<polygon fill="#bfbfbf" stroke="black" points="0.5,-195 0.5,-225 157.5,-225 157.5,-195 0.5,-195"/>
<text text-anchor="start" x="8.5" y="-213" font-family="Helvetica,sans-Serif" font-size="10.00">fxml_main.LevelController.init</text>
<text text-anchor="middle" x="79" y="-202" font-family="Helvetica,sans-Serif" font-size="10.00">EntryEditBtn</text>
</g>
<!-- Node2 -->
<g id="node2" class="node"><title>Node2</title>
<g id="a_node2"><a xlink:href="../../d5/d98/classauthoring_1_1data_1_1_piece_type_data.html#abc992f9707c3ef6417bf99f60f2693a4" target="_top" xlink:title="authoring.data.PieceType\lData.getData">
<polygon fill="white" stroke="black" points="227.5,-293 227.5,-323 364.5,-323 364.5,-293 227.5,-293"/>
<text text-anchor="start" x="235.5" y="-311" font-family="Helvetica,sans-Serif" font-size="10.00">authoring.data.PieceType</text>
<text text-anchor="middle" x="296" y="-300" font-family="Helvetica,sans-Serif" font-size="10.00">Data.getData</text>
</a>
</g>
</g>
<!-- Node1&#45;&gt;Node2 -->
<g id="edge1" class="edge"><title>Node1&#45;&gt;Node2</title>
<path fill="none" stroke="midnightblue" d="M99.0739,-225.009C120.866,-241.469 158.16,-267.589 194,-283 201.574,-286.257 209.658,-289.147 217.828,-291.698"/>
<polygon fill="midnightblue" stroke="midnightblue" points="216.853,-295.059 227.435,-294.538 218.838,-288.346 216.853,-295.059"/>
</g>
<!-- Node3 -->
<g id="node3" class="node"><title>Node3</title>
<g id="a_node3"><a xlink:href="../../d1/d4f/classauthoring_1_1data_1_1_patch_type_data.html#a2e6df81086dce6ae1f9ea953024a74f3" target="_top" xlink:title="authoring.data.PatchType\lData.getData">
<polygon fill="white" stroke="black" points="227.5,-244 227.5,-274 364.5,-274 364.5,-244 227.5,-244"/>
<text text-anchor="start" x="235.5" y="-262" font-family="Helvetica,sans-Serif" font-size="10.00">authoring.data.PatchType</text>
<text text-anchor="middle" x="296" y="-251" font-family="Helvetica,sans-Serif" font-size="10.00">Data.getData</text>
</a>
</g>
</g>
<!-- Node1&#45;&gt;Node3 -->
<g id="edge2" class="edge"><title>Node1&#45;&gt;Node3</title>
<path fill="none" stroke="midnightblue" d="M145.968,-225.035C169.185,-230.326 195.456,-236.313 219.404,-241.771"/>
<polygon fill="midnightblue" stroke="midnightblue" points="218.629,-245.184 229.157,-243.994 220.184,-238.359 218.629,-245.184"/>
</g>
<!-- Node4 -->
<g id="node4" class="node"><title>Node4</title>
<g id="a_node4"><a xlink:href="../../da/d40/classfxml__main_1_1_grid_component_abst_ctrl.html#a690d85921c1558f7988bb18e895363ef" target="_top" xlink:title="fxml_main.GridComponentAbst\lCtrl\&lt; Level \&gt;::makeCompleteEntryBox">
<polygon fill="white" stroke="black" points="194.5,-195 194.5,-225 397.5,-225 397.5,-195 194.5,-195"/>
<text text-anchor="start" x="202.5" y="-213" font-family="Helvetica,sans-Serif" font-size="10.00">fxml_main.GridComponentAbst</text>
<text text-anchor="middle" x="296" y="-202" font-family="Helvetica,sans-Serif" font-size="10.00">Ctrl&lt; Level &gt;::makeCompleteEntryBox</text>
</a>
</g>
</g>
<!-- Node1&#45;&gt;Node4 -->
<g id="edge3" class="edge"><title>Node1&#45;&gt;Node4</title>
<path fill="none" stroke="midnightblue" d="M157.62,-210C166.272,-210 175.204,-210 184.167,-210"/>
<polygon fill="midnightblue" stroke="midnightblue" points="184.287,-213.5 194.287,-210 184.287,-206.5 184.287,-213.5"/>
</g>
<!-- Node5 -->
<g id="node5" class="node"><title>Node5</title>
<g id="a_node5"><a xlink:href="../../d7/d88/classauthoring_1_1data_1_1_level_data.html#ac8b362f5ec6a41804b40ba231c8afe93" target="_top" xlink:title="authoring.data.LevelData.replace">
<polygon fill="white" stroke="black" points="208,-156.5 208,-175.5 384,-175.5 384,-156.5 208,-156.5"/>
<text text-anchor="middle" x="296" y="-163.5" font-family="Helvetica,sans-Serif" font-size="10.00">authoring.data.LevelData.replace</text>
</a>
</g>
</g>
<!-- Node1&#45;&gt;Node5 -->
<g id="edge4" class="edge"><title>Node1&#45;&gt;Node5</title>
<path fill="none" stroke="midnightblue" d="M150.819,-194.953C165.108,-191.956 180.029,-188.854 194,-186 207.67,-183.208 222.394,-180.259 236.257,-177.508"/>
<polygon fill="midnightblue" stroke="midnightblue" points="237.043,-180.921 246.173,-175.546 235.684,-174.054 237.043,-180.921"/>
</g>
<!-- Node7 -->
<g id="node7" class="node"><title>Node7</title>
<g id="a_node7"><a xlink:href="../../da/d61/classfxml__main_1_1_level_controller.html#a2e3171d5138673f8798df865cd7474d6" target="_top" xlink:title="fxml_main.LevelController.set\lAndDisplayGrid">
<polygon fill="white" stroke="black" points="217,-88 217,-118 375,-118 375,-88 217,-88"/>
<text text-anchor="start" x="225" y="-106" font-family="Helvetica,sans-Serif" font-size="10.00">fxml_main.LevelController.set</text>
<text text-anchor="middle" x="296" y="-95" font-family="Helvetica,sans-Serif" font-size="10.00">AndDisplayGrid</text>
</a>
</g>
</g>
<!-- Node1&#45;&gt;Node7 -->
<g id="edge6" class="edge"><title>Node1&#45;&gt;Node7</title>
<path fill="none" stroke="midnightblue" d="M105.892,-194.778C128.76,-181.554 163.169,-162.193 194,-147 211.66,-138.297 231.448,-129.479 248.798,-122.046"/>
<polygon fill="midnightblue" stroke="midnightblue" points="250.322,-125.201 258.156,-118.068 247.584,-118.758 250.322,-125.201"/>
</g>
<!-- Node6 -->
<g id="node6" class="node"><title>Node6</title>
<g id="a_node6"><a xlink:href="../../d7/d88/classauthoring_1_1data_1_1_level_data.html#aa787c7b16b418f2e13df37800afe1b13" target="_top" xlink:title="authoring.data.LevelData.add">
<polygon fill="white" stroke="black" points="450.5,-175.5 450.5,-194.5 609.5,-194.5 609.5,-175.5 450.5,-175.5"/>
<text text-anchor="middle" x="530" y="-182.5" font-family="Helvetica,sans-Serif" font-size="10.00">authoring.data.LevelData.add</text>
</a>
</g>
</g>
<!-- Node5&#45;&gt;Node6 -->
<g id="edge5" class="edge"><title>Node5&#45;&gt;Node6</title>
<path fill="none" stroke="midnightblue" d="M384.048,-173.129C402.382,-174.63 421.747,-176.216 440.147,-177.723"/>
<polygon fill="midnightblue" stroke="midnightblue" points="440.005,-181.223 450.257,-178.551 440.576,-174.247 440.005,-181.223"/>
</g>
<!-- Node8 -->
<g id="node8" class="node"><title>Node8</title>
<g id="a_node8"><a xlink:href="../../d6/d05/classfxml__main_1_1_g_u_i_grid_reference.html#a6a50d6c8429ddb56128b31faed01dd21" target="_top" xlink:title="fxml_main.GUIGridReference.setGrid">
<polygon fill="white" stroke="black" points="434.5,-137.5 434.5,-156.5 625.5,-156.5 625.5,-137.5 434.5,-137.5"/>
<text text-anchor="middle" x="530" y="-144.5" font-family="Helvetica,sans-Serif" font-size="10.00">fxml_main.GUIGridReference.setGrid</text>
</a>
</g>
</g>
<!-- Node7&#45;&gt;Node8 -->
<g id="edge7" class="edge"><title>Node7&#45;&gt;Node8</title>
<path fill="none" stroke="midnightblue" d="M375.221,-117.835C405.816,-123.638 440.347,-130.187 468.925,-135.606"/>
<polygon fill="midnightblue" stroke="midnightblue" points="468.292,-139.049 478.769,-137.473 469.596,-132.171 468.292,-139.049"/>
</g>
<!-- Node9 -->
<g id="node9" class="node"><title>Node9</title>
<g id="a_node9"><a xlink:href="../../d8/d01/classgamedata_1_1gamecomponents_1_1_level.html#adef1fc175daf62d54468e35e67413edb" target="_top" xlink:title="gamedata.gamecomponents.\lLevel.getGrid">
<polygon fill="white" stroke="black" points="450,-88 450,-118 610,-118 610,-88 450,-88"/>
<text text-anchor="start" x="458" y="-106" font-family="Helvetica,sans-Serif" font-size="10.00">gamedata.gamecomponents.</text>
<text text-anchor="middle" x="530" y="-95" font-family="Helvetica,sans-Serif" font-size="10.00">Level.getGrid</text>
</a>
</g>
</g>
<!-- Node7&#45;&gt;Node9 -->
<g id="edge8" class="edge"><title>Node7&#45;&gt;Node9</title>
<path fill="none" stroke="midnightblue" d="M375.221,-103C396.003,-103 418.601,-103 439.916,-103"/>
<polygon fill="midnightblue" stroke="midnightblue" points="439.934,-106.5 449.934,-103 439.934,-99.5001 439.934,-106.5"/>
</g>
<!-- Node10 -->
<g id="node10" class="node"><title>Node10</title>
<g id="a_node10"><a xlink:href="../../d6/d05/classfxml__main_1_1_g_u_i_grid_reference.html#ab47bae2ec738eb18d99809ec9443a2ae" target="_top" xlink:title="fxml_main.GUIGridReference.getGrid">
<polygon fill="white" stroke="black" points="434.5,-49.5 434.5,-68.5 625.5,-68.5 625.5,-49.5 434.5,-49.5"/>
<text text-anchor="middle" x="530" y="-56.5" font-family="Helvetica,sans-Serif" font-size="10.00">fxml_main.GUIGridReference.getGrid</text>
</a>
</g>
</g>
<!-- Node7&#45;&gt;Node10 -->
<g id="edge9" class="edge"><title>Node7&#45;&gt;Node10</title>
<path fill="none" stroke="midnightblue" d="M375.221,-88.1649C405.816,-82.3625 440.347,-75.8135 468.925,-70.3935"/>
<polygon fill="midnightblue" stroke="midnightblue" points="469.596,-73.8287 478.769,-68.5266 468.292,-66.9513 469.596,-73.8287"/>
</g>
<!-- Node11 -->
<g id="node11" class="node"><title>Node11</title>
<g id="a_node11"><a xlink:href="../../d9/df3/classauthoring__environment_1_1_super_grid.html#aba69dd5b1d04abadf1186c952362a46e" target="_top" xlink:title="authoring_environment.Super\lGrid.displayPane">
<polygon fill="white" stroke="black" points="450,-0 450,-30 610,-30 610,-0 450,-0"/>
<text text-anchor="start" x="458" y="-18" font-family="Helvetica,sans-Serif" font-size="10.00">authoring_environment.Super</text>
<text text-anchor="middle" x="530" y="-7" font-family="Helvetica,sans-Serif" font-size="10.00">Grid.displayPane</text>
</a>
</g>
</g>
<!-- Node7&#45;&gt;Node11 -->
<g id="edge10" class="edge"><title>Node7&#45;&gt;Node11</title>
<path fill="none" stroke="midnightblue" d="M325.784,-87.979C353.092,-74.1598 395.556,-53.7798 434,-40 441.033,-37.4793 448.44,-35.0892 455.888,-32.8589"/>
<polygon fill="midnightblue" stroke="midnightblue" points="457.045,-36.1677 465.675,-30.0214 455.095,-29.4446 457.045,-36.1677"/>
</g>
</g>
</svg>
