<?xml version="1.0" encoding="UTF-8" standalone="no"?>
<!DOCTYPE svg PUBLIC "-//W3C//DTD SVG 1.1//EN"
 "http://www.w3.org/Graphics/SVG/1.1/DTD/svg11.dtd">
<!-- Generated by graphviz version 2.36.0 (20140111.2315)
 -->
<!-- Title: authoring_environment.GUIGrid.replacePatchType Pages: 1 -->
<!--zoomable 207 -->
<svg id="main" version="1.1" xmlns="http://www.w3.org/2000/svg" xmlns:xlink="http://www.w3.org/1999/xlink" xml:space="preserve" onload="init(evt)">
<style type="text/css"><![CDATA[
.edge:hover path { stroke: red; }
.edge:hover polygon { stroke: red; fill: red; }
]]></style>
<script type="text/javascript"><![CDATA[
var edges = document.getElementsByTagName('g');
if (edges && edges.length) {
  for (var i=0;i<edges.length;i++) {
    if (edges[i].id.substr(0,4)=='edge') {
      edges[i].setAttribute('class','edge');
    }
  }
}
]]></script>
        <defs>
                <circle id="rim" cx="0" cy="0" r="7"/>
                <circle id="rim2" cx="0" cy="0" r="3.5"/>
                <g id="zoomPlus">
                        <use xlink:href="#rim" fill="#404040">
                                <set attributeName="fill" to="#808080" begin="zoomplus.mouseover" end="zoomplus.mouseout"/>
                        </use>
                        <path d="M-4,0h8M0,-4v8" fill="none" stroke="white" stroke-width="1.5" pointer-events="none"/>
                </g>
                <g id="zoomMin">
                        <use xlink:href="#rim" fill="#404040">
                                <set attributeName="fill" to="#808080" begin="zoomminus.mouseover" end="zoomminus.mouseout"/>
                        </use>
                        <path d="M-4,0h8" fill="none" stroke="white" stroke-width="1.5" pointer-events="none"/>
                </g>
                <g id="dirArrow">
                        <path fill="none" stroke="white" stroke-width="1.5" d="M0,-3.0v7 M-2.5,-0.5L0,-3.0L2.5,-0.5"/>
                </g>
               <g id="resetDef">
                       <use xlink:href="#rim2" fill="#404040">
                               <set attributeName="fill" to="#808080" begin="reset.mouseover" end="reset.mouseout"/>
                       </use>
               </g>
        </defs>

<script type="text/javascript">
var viewWidth = 830;
var viewHeight = 207;
var sectionId = 'dynsection-39';
</script>
<script xlink:href="../../svgpan.js"/>
<svg id="graph" class="graph">
<g id="viewport">
<title>authoring_environment.GUIGrid.replacePatchType</title>
<polygon fill="white" stroke="none" points="-4,4 -4,-203 826,-203 826,4 -4,4"/>
<!-- Node1 -->
<g id="node1" class="node"><title>Node1</title>
<polygon fill="#bfbfbf" stroke="black" points="0,-98 0,-128 206,-128 206,-98 0,-98"/>
<text text-anchor="start" x="8" y="-116" font-family="Helvetica,sans-Serif" font-size="10.00">authoring_environment.GUIGrid.replace</text>
<text text-anchor="middle" x="103" y="-105" font-family="Helvetica,sans-Serif" font-size="10.00">PatchType</text>
</g>
<!-- Node2 -->
<g id="node2" class="node"><title>Node2</title>
<g id="a_node2"><a xlink:href="../../d9/df2/classgamedata_1_1gamecomponents_1_1_grid_component.html#a9a5b2359d22e7d79d5065826a0dc8211" target="_top" xlink:title="gamedata.gamecomponents.\lGridComponent.getImageView">
<polygon fill="white" stroke="black" points="242.5,-169 242.5,-199 405.5,-199 405.5,-169 242.5,-169"/>
<text text-anchor="start" x="250.5" y="-187" font-family="Helvetica,sans-Serif" font-size="10.00">gamedata.gamecomponents.</text>
<text text-anchor="middle" x="324" y="-176" font-family="Helvetica,sans-Serif" font-size="10.00">GridComponent.getImageView</text>
</a>
</g>
</g>
<!-- Node1&#45;&gt;Node2 -->
<g id="edge1" class="edge"><title>Node1&#45;&gt;Node2</title>
<path fill="none" stroke="midnightblue" d="M150.444,-128.057C184.415,-139.071 230.669,-154.066 266.738,-165.76"/>
<polygon fill="midnightblue" stroke="midnightblue" points="266.031,-169.21 276.623,-168.964 268.19,-162.551 266.031,-169.21"/>
</g>
<!-- Node4 -->
<g id="node4" class="node"><title>Node4</title>
<g id="a_node4"><a xlink:href="../../d7/dd4/classauthoring_1_1data_1_1_patch_instance_data.html#af4709ab2b1fb90846ae8d56fa277496b" target="_top" xlink:title="authoring.data.PatchInstance\lData.replace">
<polygon fill="white" stroke="black" points="245.5,-98 245.5,-128 402.5,-128 402.5,-98 245.5,-98"/>
<text text-anchor="start" x="253.5" y="-116" font-family="Helvetica,sans-Serif" font-size="10.00">authoring.data.PatchInstance</text>
<text text-anchor="middle" x="324" y="-105" font-family="Helvetica,sans-Serif" font-size="10.00">Data.replace</text>
</a>
</g>
</g>
<!-- Node1&#45;&gt;Node4 -->
<g id="edge3" class="edge"><title>Node1&#45;&gt;Node4</title>
<path fill="none" stroke="midnightblue" d="M206.127,-113C215.79,-113 225.53,-113 235.044,-113"/>
<polygon fill="midnightblue" stroke="midnightblue" points="235.265,-116.5 245.265,-113 235.265,-109.5 235.265,-116.5"/>
</g>
<!-- Node9 -->
<g id="node9" class="node"><title>Node9</title>
<g id="a_node9"><a xlink:href="../../dc/d5a/classauthoring__environment_1_1_super_tile.html#a7e65040df400ad3d7a62145816f0cca4" target="_top" xlink:title="authoring_environment.Super\lTile.setPatchImage">
<polygon fill="white" stroke="black" points="244,-49 244,-79 404,-79 404,-49 244,-49"/>
<text text-anchor="start" x="252" y="-67" font-family="Helvetica,sans-Serif" font-size="10.00">authoring_environment.Super</text>
<text text-anchor="middle" x="324" y="-56" font-family="Helvetica,sans-Serif" font-size="10.00">Tile.setPatchImage</text>
</a>
</g>
</g>
<!-- Node1&#45;&gt;Node9 -->
<g id="edge9" class="edge"><title>Node1&#45;&gt;Node9</title>
<path fill="none" stroke="midnightblue" d="M171.196,-97.9654C194.844,-92.6741 221.604,-86.6867 245.998,-81.2288"/>
<polygon fill="midnightblue" stroke="midnightblue" points="246.937,-84.6053 255.932,-79.0062 245.409,-77.7742 246.937,-84.6053"/>
</g>
<!-- Node3 -->
<g id="node3" class="node"><title>Node3</title>
<g id="a_node3"><a xlink:href="../../d9/df2/classgamedata_1_1gamecomponents_1_1_grid_component.html#a224e5aae28655f7e26ff73cbde7b0d99" target="_top" xlink:title="gamedata.gamecomponents.\lGridComponent.setImageView">
<polygon fill="white" stroke="black" points="660,-144 660,-174 822,-174 822,-144 660,-144"/>
<text text-anchor="start" x="668" y="-162" font-family="Helvetica,sans-Serif" font-size="10.00">gamedata.gamecomponents.</text>
<text text-anchor="middle" x="741" y="-151" font-family="Helvetica,sans-Serif" font-size="10.00">GridComponent.setImageView</text>
</a>
</g>
</g>
<!-- Node2&#45;&gt;Node3 -->
<g id="edge2" class="edge"><title>Node2&#45;&gt;Node3</title>
<path fill="none" stroke="midnightblue" d="M405.551,-189.792C465.894,-192.859 550.381,-194.455 624,-186 641.43,-183.998 660.048,-180.358 677.153,-176.384"/>
<polygon fill="midnightblue" stroke="midnightblue" points="678.12,-179.751 687.029,-174.016 676.488,-172.944 678.12,-179.751"/>
</g>
<!-- Node5 -->
<g id="node5" class="node"><title>Node5</title>
<g id="a_node5"><a xlink:href="../../d9/df2/classgamedata_1_1gamecomponents_1_1_grid_component.html#afb88b190b2f6bc5a77e94b0306839476" target="_top" xlink:title="gamedata.gamecomponents.\lGridComponent.getImageLocation">
<polygon fill="white" stroke="black" points="442,-147 442,-177 624,-177 624,-147 442,-147"/>
<text text-anchor="start" x="450" y="-165" font-family="Helvetica,sans-Serif" font-size="10.00">gamedata.gamecomponents.</text>
<text text-anchor="middle" x="533" y="-154" font-family="Helvetica,sans-Serif" font-size="10.00">GridComponent.getImageLocation</text>
</a>
</g>
</g>
<!-- Node4&#45;&gt;Node5 -->
<g id="edge4" class="edge"><title>Node4&#45;&gt;Node5</title>
<path fill="none" stroke="midnightblue" d="M388.514,-128.035C410.668,-133.279 435.711,-139.207 458.602,-144.626"/>
<polygon fill="midnightblue" stroke="midnightblue" points="458.069,-148.096 468.607,-146.994 459.682,-141.284 458.069,-148.096"/>
</g>
<!-- Node6 -->
<g id="node6" class="node"><title>Node6</title>
<g id="a_node6"><a xlink:href="../../d9/df2/classgamedata_1_1gamecomponents_1_1_grid_component.html#a919551a7769d8357902ae93decaf2ad1" target="_top" xlink:title="gamedata.gamecomponents.\lGridComponent.setImageLocation">
<polygon fill="white" stroke="black" points="442.5,-98 442.5,-128 623.5,-128 623.5,-98 442.5,-98"/>
<text text-anchor="start" x="450.5" y="-116" font-family="Helvetica,sans-Serif" font-size="10.00">gamedata.gamecomponents.</text>
<text text-anchor="middle" x="533" y="-105" font-family="Helvetica,sans-Serif" font-size="10.00">GridComponent.setImageLocation</text>
</a>
</g>
</g>
<!-- Node4&#45;&gt;Node6 -->
<g id="edge5" class="edge"><title>Node4&#45;&gt;Node6</title>
<path fill="none" stroke="midnightblue" d="M402.668,-113C412.289,-113 422.229,-113 432.124,-113"/>
<polygon fill="midnightblue" stroke="midnightblue" points="432.405,-116.5 442.405,-113 432.405,-109.5 432.405,-116.5"/>
</g>
<!-- Node7 -->
<g id="node7" class="node"><title>Node7</title>
<g id="a_node7"><a xlink:href="../../d9/df2/classgamedata_1_1gamecomponents_1_1_grid_component.html#acd1ac5f1fe1d366ecd6e09b572eaa4fc" target="_top" xlink:title="gamedata.gamecomponents.\lGridComponent.setName">
<polygon fill="white" stroke="black" points="453,-49 453,-79 613,-79 613,-49 453,-49"/>
<text text-anchor="start" x="461" y="-67" font-family="Helvetica,sans-Serif" font-size="10.00">gamedata.gamecomponents.</text>
<text text-anchor="middle" x="533" y="-56" font-family="Helvetica,sans-Serif" font-size="10.00">GridComponent.setName</text>
</a>
</g>
</g>
<!-- Node4&#45;&gt;Node7 -->
<g id="edge7" class="edge"><title>Node4&#45;&gt;Node7</title>
<path fill="none" stroke="midnightblue" d="M388.514,-97.9654C410.668,-92.7211 435.711,-86.7931 458.602,-81.3745"/>
<polygon fill="midnightblue" stroke="midnightblue" points="459.682,-84.7156 468.607,-79.0062 458.069,-77.9039 459.682,-84.7156"/>
</g>
<!-- Node8 -->
<g id="node8" class="node"><title>Node8</title>
<g id="a_node8"><a xlink:href="../../dd/dc6/classgamedata_1_1gamecomponents_1_1_patch.html#afe2960a2f8ab420ef2f42baf360d9a96" target="_top" xlink:title="gamedata.gamecomponents.\lPatch.toString">
<polygon fill="white" stroke="black" points="453,-0 453,-30 613,-30 613,-0 453,-0"/>
<text text-anchor="start" x="461" y="-18" font-family="Helvetica,sans-Serif" font-size="10.00">gamedata.gamecomponents.</text>
<text text-anchor="middle" x="533" y="-7" font-family="Helvetica,sans-Serif" font-size="10.00">Patch.toString</text>
</a>
</g>
</g>
<!-- Node4&#45;&gt;Node8 -->
<g id="edge8" class="edge"><title>Node4&#45;&gt;Node8</title>
<path fill="none" stroke="midnightblue" d="M388.373,-97.8691C394.601,-95.1003 400.603,-91.8387 406,-88 428.021,-72.3366 419.679,-54.2337 442,-39 444.379,-37.3762 446.863,-35.8622 449.425,-34.4506"/>
<polygon fill="midnightblue" stroke="midnightblue" points="450.974,-37.5894 458.402,-30.0346 447.884,-31.3082 450.974,-37.5894"/>
</g>
<!-- Node6&#45;&gt;Node3 -->
<g id="edge6" class="edge"><title>Node6&#45;&gt;Node3</title>
<path fill="none" stroke="midnightblue" d="M601.452,-128.062C621.116,-132.453 642.75,-137.284 662.958,-141.796"/>
<polygon fill="midnightblue" stroke="midnightblue" points="662.226,-145.219 672.748,-143.983 663.752,-138.387 662.226,-145.219"/>
</g>
</g>
</svg>
        <g id="navigator" transform="translate(0 0)" fill="#404254">
                <rect fill="#f2f5e9" fill-opacity="0.5" stroke="#606060" stroke-width=".5" x="0" y="0" width="60" height="60"/>
                <use id="zoomplus" xlink:href="#zoomPlus" x="17" y="9" onmousedown="handleZoom(evt,'in')"/>
                <use id="zoomminus" xlink:href="#zoomMin" x="42" y="9" onmousedown="handleZoom(evt,'out')"/>
                <use id="reset" xlink:href="#resetDef" x="30" y="36" onmousedown="handleReset()"/>
                <g id="arrowUp" xlink:href="#dirArrow" transform="translate(30 24)" onmousedown="handlePan(0,-1)">
                  <use xlink:href="#rim" fill="#404040">
                        <set attributeName="fill" to="#808080" begin="arrowUp.mouseover" end="arrowUp.mouseout"/>
                  </use>
                  <path fill="none" stroke="white" stroke-width="1.5" d="M0,-3.0v7 M-2.5,-0.5L0,-3.0L2.5,-0.5"/>
                </g>
                <g id="arrowRight" xlink:href="#dirArrow" transform="rotate(90) translate(36 -43)" onmousedown="handlePan(1,0)">
                  <use xlink:href="#rim" fill="#404040">
                        <set attributeName="fill" to="#808080" begin="arrowRight.mouseover" end="arrowRight.mouseout"/>
                  </use>
                  <path fill="none" stroke="white" stroke-width="1.5" d="M0,-3.0v7 M-2.5,-0.5L0,-3.0L2.5,-0.5"/>
                </g>
                <g id="arrowDown" xlink:href="#dirArrow" transform="rotate(180) translate(-30 -48)" onmousedown="handlePan(0,1)">
                  <use xlink:href="#rim" fill="#404040">
                        <set attributeName="fill" to="#808080" begin="arrowDown.mouseover" end="arrowDown.mouseout"/>
                  </use>
                  <path fill="none" stroke="white" stroke-width="1.5" d="M0,-3.0v7 M-2.5,-0.5L0,-3.0L2.5,-0.5"/>
                </g>
                <g id="arrowLeft" xlink:href="#dirArrow" transform="rotate(270) translate(-36 17)" onmousedown="handlePan(-1,0)">
                  <use xlink:href="#rim" fill="#404040">
                        <set attributeName="fill" to="#808080" begin="arrowLeft.mouseover" end="arrowLeft.mouseout"/>
                  </use>
                  <path fill="none" stroke="white" stroke-width="1.5" d="M0,-3.0v7 M-2.5,-0.5L0,-3.0L2.5,-0.5"/>
                </g>
        </g>
        <svg viewBox="0 0 15 15" width="100%" height="30px" preserveAspectRatio="xMaxYMin meet">
         <g id="arrow_out" transform="scale(0.3 0.3)">
          <a xlink:href="classauthoring__environment_1_1_g_u_i_grid_a952391a274a83f5eee0044d7e5be3673_cgraph_org.svg" target="_base">
           <rect id="button" ry="5" rx="5" y="6" x="6" height="38" width="38"
                fill="#f2f5e9" fill-opacity="0.5" stroke="#606060" stroke-width="1.0"/>
           <path id="arrow"
             d="M 11.500037,31.436501 C 11.940474,20.09759 22.043105,11.32322 32.158766,21.979434 L 37.068811,17.246167 C 37.068811,17.246167 37.088388,32 37.088388,32 L 22.160133,31.978069 C 22.160133,31.978069 26.997745,27.140456 26.997745,27.140456 C 18.528582,18.264221 13.291696,25.230495 11.500037,31.436501 z"
             style="fill:#404040;"/>
          </a>
         </g>
        </svg>
</svg>
