<?xml version="1.0" encoding="UTF-8" standalone="no"?>
<!DOCTYPE svg PUBLIC "-//W3C//DTD SVG 1.1//EN"
 "http://www.w3.org/Graphics/SVG/1.1/DTD/svg11.dtd">
<!-- Generated by graphviz version 2.36.0 (20140111.2315)
 -->
<!-- Title: authoring_environment.GUIGrid.removePatchAtCoordinate Pages: 1 -->
<svg width="656pt" height="234pt"
 viewBox="0.00 0.00 656.00 234.00" xmlns="http://www.w3.org/2000/svg" xmlns:xlink="http://www.w3.org/1999/xlink">
<g id="graph0" class="graph" transform="scale(1 1) rotate(0) translate(4 230)">
<title>authoring_environment.GUIGrid.removePatchAtCoordinate</title>
<polygon fill="white" stroke="none" points="-4,4 -4,-230 652,-230 652,4 -4,4"/>
<!-- Node1 -->
<g id="node1" class="node"><title>Node1</title>
<polygon fill="#bfbfbf" stroke="black" points="0,-147 0,-177 208,-177 208,-147 0,-147"/>
<text text-anchor="start" x="8" y="-165" font-family="Helvetica,sans-Serif" font-size="10.00">authoring_environment.GUIGrid.remove</text>
<text text-anchor="middle" x="104" y="-154" font-family="Helvetica,sans-Serif" font-size="10.00">PatchAtCoordinate</text>
</g>
<!-- Node2 -->
<g id="node2" class="node"><title>Node2</title>
<g id="a_node2"><a xlink:href="../../da/d4c/classauthoring__environment_1_1_g_u_i_grid.html#a1a7fab3cd600b3c00a33ed4034ba9851" target="_top" xlink:title="authoring_environment.GUIGrid.get\lPatch">
<polygon fill="white" stroke="black" points="254.5,-196 254.5,-226 441.5,-226 441.5,-196 254.5,-196"/>
<text text-anchor="start" x="262.5" y="-214" font-family="Helvetica,sans-Serif" font-size="10.00">authoring_environment.GUIGrid.get</text>
<text text-anchor="middle" x="348" y="-203" font-family="Helvetica,sans-Serif" font-size="10.00">Patch</text>
</a>
</g>
</g>
<!-- Node1&#45;&gt;Node2 -->
<g id="edge1" class="edge"><title>Node1&#45;&gt;Node2</title>
<path fill="none" stroke="midnightblue" d="M179.253,-177.035C205.734,-182.396 235.744,-188.473 262.988,-193.989"/>
<polygon fill="midnightblue" stroke="midnightblue" points="262.392,-197.44 272.888,-195.994 263.781,-190.579 262.392,-197.44"/>
</g>
<!-- Node4 -->
<g id="node4" class="node"><title>Node4</title>
<g id="a_node4"><a xlink:href="../../da/d4c/classauthoring__environment_1_1_g_u_i_grid.html#aae553512b4d34302577601426c0eaa2f" target="_top" xlink:title="authoring_environment.GUIGrid.is\lPatchOccupied">
<polygon fill="white" stroke="black" points="258.5,-147 258.5,-177 437.5,-177 437.5,-147 258.5,-147"/>
<text text-anchor="start" x="266.5" y="-165" font-family="Helvetica,sans-Serif" font-size="10.00">authoring_environment.GUIGrid.is</text>
<text text-anchor="middle" x="348" y="-154" font-family="Helvetica,sans-Serif" font-size="10.00">PatchOccupied</text>
</a>
</g>
</g>
<!-- Node1&#45;&gt;Node4 -->
<g id="edge3" class="edge"><title>Node1&#45;&gt;Node4</title>
<path fill="none" stroke="midnightblue" d="M208.332,-162C221.408,-162 234.766,-162 247.777,-162"/>
<polygon fill="midnightblue" stroke="midnightblue" points="248.124,-165.5 258.124,-162 248.124,-158.5 248.124,-165.5"/>
</g>
<!-- Node5 -->
<g id="node5" class="node"><title>Node5</title>
<g id="a_node5"><a xlink:href="../../da/d4c/classauthoring__environment_1_1_g_u_i_grid.html#a2413204cbed4e6aae67dbb5ab1c55505" target="_top" xlink:title="authoring_environment.GUIGrid.remove\lPatch">
<polygon fill="white" stroke="black" points="244,-98 244,-128 452,-128 452,-98 244,-98"/>
<text text-anchor="start" x="252" y="-116" font-family="Helvetica,sans-Serif" font-size="10.00">authoring_environment.GUIGrid.remove</text>
<text text-anchor="middle" x="348" y="-105" font-family="Helvetica,sans-Serif" font-size="10.00">Patch</text>
</a>
</g>
</g>
<!-- Node1&#45;&gt;Node5 -->
<g id="edge5" class="edge"><title>Node1&#45;&gt;Node5</title>
<path fill="none" stroke="midnightblue" d="M179.253,-146.965C205.734,-141.604 235.744,-135.527 262.988,-130.011"/>
<polygon fill="midnightblue" stroke="midnightblue" points="263.781,-133.421 272.888,-128.006 262.392,-126.56 263.781,-133.421"/>
</g>
<!-- Node3 -->
<g id="node3" class="node"><title>Node3</title>
<g id="a_node3"><a xlink:href="../../d7/dd4/classauthoring_1_1data_1_1_patch_instance_data.html#a60ac72e96e7e0da6f3beb20122a8c041" target="_top" xlink:title="authoring.data.PatchInstance\lData.getData">
<polygon fill="white" stroke="black" points="489.5,-196 489.5,-226 646.5,-226 646.5,-196 489.5,-196"/>
<text text-anchor="start" x="497.5" y="-214" font-family="Helvetica,sans-Serif" font-size="10.00">authoring.data.PatchInstance</text>
<text text-anchor="middle" x="568" y="-203" font-family="Helvetica,sans-Serif" font-size="10.00">Data.getData</text>
</a>
</g>
</g>
<!-- Node2&#45;&gt;Node3 -->
<g id="edge2" class="edge"><title>Node2&#45;&gt;Node3</title>
<path fill="none" stroke="midnightblue" d="M441.768,-211C454.171,-211 466.862,-211 479.177,-211"/>
<polygon fill="midnightblue" stroke="midnightblue" points="479.419,-214.5 489.419,-211 479.419,-207.5 479.419,-214.5"/>
</g>
<!-- Node4&#45;&gt;Node3 -->
<g id="edge4" class="edge"><title>Node4&#45;&gt;Node3</title>
<path fill="none" stroke="midnightblue" d="M415.889,-177.035C439.43,-182.326 466.067,-188.313 490.349,-193.771"/>
<polygon fill="midnightblue" stroke="midnightblue" points="489.714,-197.216 500.238,-195.994 491.249,-190.386 489.714,-197.216"/>
</g>
<!-- Node6 -->
<g id="node6" class="node"><title>Node6</title>
<g id="a_node6"><a xlink:href="../../d9/df3/classauthoring__environment_1_1_super_grid.html#aa57ca0acf0ef3aab7d5d98cf9cbbd1d7" target="_top" xlink:title="authoring_environment.Super\lGrid.findTile">
<polygon fill="white" stroke="black" points="488,-147 488,-177 648,-177 648,-147 488,-147"/>
<text text-anchor="start" x="496" y="-165" font-family="Helvetica,sans-Serif" font-size="10.00">authoring_environment.Super</text>
<text text-anchor="middle" x="568" y="-154" font-family="Helvetica,sans-Serif" font-size="10.00">Grid.findTile</text>
</a>
</g>
</g>
<!-- Node5&#45;&gt;Node6 -->
<g id="edge6" class="edge"><title>Node5&#45;&gt;Node6</title>
<path fill="none" stroke="midnightblue" d="M415.889,-128.035C439.43,-133.326 466.067,-139.313 490.349,-144.771"/>
<polygon fill="midnightblue" stroke="midnightblue" points="489.714,-148.216 500.238,-146.994 491.249,-141.386 489.714,-148.216"/>
</g>
<!-- Node7 -->
<g id="node7" class="node"><title>Node7</title>
<g id="a_node7"><a xlink:href="../../d9/df2/classgamedata_1_1gamecomponents_1_1_grid_component.html#a97439a493db38860397436079b123e8c" target="_top" xlink:title="gamedata.gamecomponents.\lGridComponent.getLoc">
<polygon fill="white" stroke="black" points="488,-98 488,-128 648,-128 648,-98 488,-98"/>
<text text-anchor="start" x="496" y="-116" font-family="Helvetica,sans-Serif" font-size="10.00">gamedata.gamecomponents.</text>
<text text-anchor="middle" x="568" y="-105" font-family="Helvetica,sans-Serif" font-size="10.00">GridComponent.getLoc</text>
</a>
</g>
</g>
<!-- Node5&#45;&gt;Node7 -->
<g id="edge7" class="edge"><title>Node5&#45;&gt;Node7</title>
<path fill="none" stroke="midnightblue" d="M452.254,-113C460.782,-113 469.358,-113 477.77,-113"/>
<polygon fill="midnightblue" stroke="midnightblue" points="477.937,-116.5 487.937,-113 477.937,-109.5 477.937,-116.5"/>
</g>
<!-- Node8 -->
<g id="node8" class="node"><title>Node8</title>
<g id="a_node8"><a xlink:href="../../d7/dd4/classauthoring_1_1data_1_1_patch_instance_data.html#a3cc84b2fe9d137219655d95e6b73ad6f" target="_top" xlink:title="authoring.data.PatchInstance\lData.remove">
<polygon fill="white" stroke="black" points="489.5,-49 489.5,-79 646.5,-79 646.5,-49 489.5,-49"/>
<text text-anchor="start" x="497.5" y="-67" font-family="Helvetica,sans-Serif" font-size="10.00">authoring.data.PatchInstance</text>
<text text-anchor="middle" x="568" y="-56" font-family="Helvetica,sans-Serif" font-size="10.00">Data.remove</text>
</a>
</g>
</g>
<!-- Node5&#45;&gt;Node8 -->
<g id="edge8" class="edge"><title>Node5&#45;&gt;Node8</title>
<path fill="none" stroke="midnightblue" d="M415.889,-97.9654C439.43,-92.6741 466.067,-86.6867 490.349,-81.2288"/>
<polygon fill="midnightblue" stroke="midnightblue" points="491.249,-84.6141 500.238,-79.0062 489.714,-77.7845 491.249,-84.6141"/>
</g>
<!-- Node9 -->
<g id="node9" class="node"><title>Node9</title>
<g id="a_node9"><a xlink:href="../../dc/d5a/classauthoring__environment_1_1_super_tile.html#af629f0c1ad27b8ded911f0461606d056" target="_top" xlink:title="authoring_environment.Super\lTile.removePatchImage">
<polygon fill="white" stroke="black" points="488,-0 488,-30 648,-30 648,-0 488,-0"/>
<text text-anchor="start" x="496" y="-18" font-family="Helvetica,sans-Serif" font-size="10.00">authoring_environment.Super</text>
<text text-anchor="middle" x="568" y="-7" font-family="Helvetica,sans-Serif" font-size="10.00">Tile.removePatchImage</text>
</a>
</g>
</g>
<!-- Node5&#45;&gt;Node9 -->
<g id="edge9" class="edge"><title>Node5&#45;&gt;Node9</title>
<path fill="none" stroke="midnightblue" d="M374.469,-97.8672C401.853,-82.018 446.992,-57.0984 488,-40 493.444,-37.7302 499.17,-35.5461 504.949,-33.4786"/>
<polygon fill="midnightblue" stroke="midnightblue" points="506.375,-36.689 514.684,-30.1147 504.089,-30.0729 506.375,-36.689"/>
</g>
</g>
</svg>
