<?xml version="1.0" encoding="UTF-8" standalone="no"?>
<!DOCTYPE svg PUBLIC "-//W3C//DTD SVG 1.1//EN"
 "http://www.w3.org/Graphics/SVG/1.1/DTD/svg11.dtd">
<!-- Generated by graphviz version 2.36.0 (20140111.2315)
 -->
<!-- Title: authoring_environment.GUIGrid.removePieceAtCoordinate Pages: 1 -->
<!--zoomable 234 -->
<svg id="main" version="1.1" xmlns="http://www.w3.org/2000/svg" xmlns:xlink="http://www.w3.org/1999/xlink" xml:space="preserve" onload="init(evt)">
<style type="text/css"><![CDATA[
.edge:hover path { stroke: red; }
.edge:hover polygon { stroke: red; fill: red; }
]]></style>
<script type="text/javascript"><![CDATA[
var edges = document.getElementsByTagName('g');
if (edges && edges.length) {
  for (var i=0;i<edges.length;i++) {
    if (edges[i].id.substr(0,4)=='edge') {
      edges[i].setAttribute('class','edge');
    }
  }
}
]]></script>
        <defs>
                <circle id="rim" cx="0" cy="0" r="7"/>
                <circle id="rim2" cx="0" cy="0" r="3.5"/>
                <g id="zoomPlus">
                        <use xlink:href="#rim" fill="#404040">
                                <set attributeName="fill" to="#808080" begin="zoomplus.mouseover" end="zoomplus.mouseout"/>
                        </use>
                        <path d="M-4,0h8M0,-4v8" fill="none" stroke="white" stroke-width="1.5" pointer-events="none"/>
                </g>
                <g id="zoomMin">
                        <use xlink:href="#rim" fill="#404040">
                                <set attributeName="fill" to="#808080" begin="zoomminus.mouseover" end="zoomminus.mouseout"/>
                        </use>
                        <path d="M-4,0h8" fill="none" stroke="white" stroke-width="1.5" pointer-events="none"/>
                </g>
                <g id="dirArrow">
                        <path fill="none" stroke="white" stroke-width="1.5" d="M0,-3.0v7 M-2.5,-0.5L0,-3.0L2.5,-0.5"/>
                </g>
               <g id="resetDef">
                       <use xlink:href="#rim2" fill="#404040">
                               <set attributeName="fill" to="#808080" begin="reset.mouseover" end="reset.mouseout"/>
                       </use>
               </g>
        </defs>

<script type="text/javascript">
var viewWidth = 656;
var viewHeight = 234;
var sectionId = 'dynsection-33';
</script>
<script xlink:href="../../svgpan.js"/>
<svg id="graph" class="graph">
<g id="viewport">
<title>authoring_environment.GUIGrid.removePieceAtCoordinate</title>
<polygon fill="white" stroke="none" points="-4,4 -4,-230 652,-230 652,4 -4,4"/>
<!-- Node1 -->
<g id="node1" class="node"><title>Node1</title>
<polygon fill="#bfbfbf" stroke="black" points="0,-147 0,-177 208,-177 208,-147 0,-147"/>
<text text-anchor="start" x="8" y="-165" font-family="Helvetica,sans-Serif" font-size="10.00">authoring_environment.GUIGrid.remove</text>
<text text-anchor="middle" x="104" y="-154" font-family="Helvetica,sans-Serif" font-size="10.00">PieceAtCoordinate</text>
</g>
<!-- Node2 -->
<g id="node2" class="node"><title>Node2</title>
<g id="a_node2"><a xlink:href="../../da/d4c/classauthoring__environment_1_1_g_u_i_grid.html#a1ac1af9ff6b3cff9aee00db73948d1c0" target="_top" xlink:title="authoring_environment.GUIGrid.get\lPiece">
<polygon fill="white" stroke="black" points="254.5,-196 254.5,-226 441.5,-226 441.5,-196 254.5,-196"/>
<text text-anchor="start" x="262.5" y="-214" font-family="Helvetica,sans-Serif" font-size="10.00">authoring_environment.GUIGrid.get</text>
<text text-anchor="middle" x="348" y="-203" font-family="Helvetica,sans-Serif" font-size="10.00">Piece</text>
</a>
</g>
</g>
<!-- Node1&#45;&gt;Node2 -->
<g id="edge1" class="edge"><title>Node1&#45;&gt;Node2</title>
<path fill="none" stroke="midnightblue" d="M179.253,-177.035C205.734,-182.396 235.744,-188.473 262.988,-193.989"/>
<polygon fill="midnightblue" stroke="midnightblue" points="262.392,-197.44 272.888,-195.994 263.781,-190.579 262.392,-197.44"/>
</g>
<!-- Node4 -->
<g id="node4" class="node"><title>Node4</title>
<g id="a_node4"><a xlink:href="../../da/d4c/classauthoring__environment_1_1_g_u_i_grid.html#a11c99629d13f4fd80d59bcd66a794695" target="_top" xlink:title="authoring_environment.GUIGrid.is\lPieceOccupied">
<polygon fill="white" stroke="black" points="258.5,-147 258.5,-177 437.5,-177 437.5,-147 258.5,-147"/>
<text text-anchor="start" x="266.5" y="-165" font-family="Helvetica,sans-Serif" font-size="10.00">authoring_environment.GUIGrid.is</text>
<text text-anchor="middle" x="348" y="-154" font-family="Helvetica,sans-Serif" font-size="10.00">PieceOccupied</text>
</a>
</g>
</g>
<!-- Node1&#45;&gt;Node4 -->
<g id="edge3" class="edge"><title>Node1&#45;&gt;Node4</title>
<path fill="none" stroke="midnightblue" d="M208.332,-162C221.408,-162 234.766,-162 247.777,-162"/>
<polygon fill="midnightblue" stroke="midnightblue" points="248.124,-165.5 258.124,-162 248.124,-158.5 248.124,-165.5"/>
</g>
<!-- Node5 -->
<g id="node5" class="node"><title>Node5</title>
<g id="a_node5"><a xlink:href="../../da/d4c/classauthoring__environment_1_1_g_u_i_grid.html#a53382a0de9f44f0642c3c9c5b009e613" target="_top" xlink:title="authoring_environment.GUIGrid.remove\lPiece">
<polygon fill="white" stroke="black" points="244,-98 244,-128 452,-128 452,-98 244,-98"/>
<text text-anchor="start" x="252" y="-116" font-family="Helvetica,sans-Serif" font-size="10.00">authoring_environment.GUIGrid.remove</text>
<text text-anchor="middle" x="348" y="-105" font-family="Helvetica,sans-Serif" font-size="10.00">Piece</text>
</a>
</g>
</g>
<!-- Node1&#45;&gt;Node5 -->
<g id="edge5" class="edge"><title>Node1&#45;&gt;Node5</title>
<path fill="none" stroke="midnightblue" d="M179.253,-146.965C205.734,-141.604 235.744,-135.527 262.988,-130.011"/>
<polygon fill="midnightblue" stroke="midnightblue" points="263.781,-133.421 272.888,-128.006 262.392,-126.56 263.781,-133.421"/>
</g>
<!-- Node3 -->
<g id="node3" class="node"><title>Node3</title>
<g id="a_node3"><a xlink:href="../../d6/dda/classauthoring_1_1data_1_1_piece_instance_data.html#afb4443eda20595533c28fe05f079fb48" target="_top" xlink:title="authoring.data.PieceInstance\lData.getData">
<polygon fill="white" stroke="black" points="490,-196 490,-226 646,-226 646,-196 490,-196"/>
<text text-anchor="start" x="498" y="-214" font-family="Helvetica,sans-Serif" font-size="10.00">authoring.data.PieceInstance</text>
<text text-anchor="middle" x="568" y="-203" font-family="Helvetica,sans-Serif" font-size="10.00">Data.getData</text>
</a>
</g>
</g>
<!-- Node2&#45;&gt;Node3 -->
<g id="edge2" class="edge"><title>Node2&#45;&gt;Node3</title>
<path fill="none" stroke="midnightblue" d="M441.768,-211C454.262,-211 467.047,-211 479.446,-211"/>
<polygon fill="midnightblue" stroke="midnightblue" points="479.757,-214.5 489.757,-211 479.757,-207.5 479.757,-214.5"/>
</g>
<!-- Node4&#45;&gt;Node3 -->
<g id="edge4" class="edge"><title>Node4&#45;&gt;Node3</title>
<path fill="none" stroke="midnightblue" d="M415.889,-177.035C439.43,-182.326 466.067,-188.313 490.349,-193.771"/>
<polygon fill="midnightblue" stroke="midnightblue" points="489.714,-197.216 500.238,-195.994 491.249,-190.386 489.714,-197.216"/>
</g>
<!-- Node6 -->
<g id="node6" class="node"><title>Node6</title>
<g id="a_node6"><a xlink:href="../../d9/df3/classauthoring__environment_1_1_super_grid.html#aa57ca0acf0ef3aab7d5d98cf9cbbd1d7" target="_top" xlink:title="authoring_environment.Super\lGrid.findTile">
<polygon fill="white" stroke="black" points="488,-147 488,-177 648,-177 648,-147 488,-147"/>
<text text-anchor="start" x="496" y="-165" font-family="Helvetica,sans-Serif" font-size="10.00">authoring_environment.Super</text>
<text text-anchor="middle" x="568" y="-154" font-family="Helvetica,sans-Serif" font-size="10.00">Grid.findTile</text>
</a>
</g>
</g>
<!-- Node5&#45;&gt;Node6 -->
<g id="edge6" class="edge"><title>Node5&#45;&gt;Node6</title>
<path fill="none" stroke="midnightblue" d="M415.889,-128.035C439.43,-133.326 466.067,-139.313 490.349,-144.771"/>
<polygon fill="midnightblue" stroke="midnightblue" points="489.714,-148.216 500.238,-146.994 491.249,-141.386 489.714,-148.216"/>
</g>
<!-- Node7 -->
<g id="node7" class="node"><title>Node7</title>
<g id="a_node7"><a xlink:href="../../d9/df2/classgamedata_1_1gamecomponents_1_1_grid_component.html#a97439a493db38860397436079b123e8c" target="_top" xlink:title="gamedata.gamecomponents.\lGridComponent.getLoc">
<polygon fill="white" stroke="black" points="488,-98 488,-128 648,-128 648,-98 488,-98"/>
<text text-anchor="start" x="496" y="-116" font-family="Helvetica,sans-Serif" font-size="10.00">gamedata.gamecomponents.</text>
<text text-anchor="middle" x="568" y="-105" font-family="Helvetica,sans-Serif" font-size="10.00">GridComponent.getLoc</text>
</a>
</g>
</g>
<!-- Node5&#45;&gt;Node7 -->
<g id="edge7" class="edge"><title>Node5&#45;&gt;Node7</title>
<path fill="none" stroke="midnightblue" d="M452.254,-113C460.782,-113 469.358,-113 477.77,-113"/>
<polygon fill="midnightblue" stroke="midnightblue" points="477.937,-116.5 487.937,-113 477.937,-109.5 477.937,-116.5"/>
</g>
<!-- Node8 -->
<g id="node8" class="node"><title>Node8</title>
<g id="a_node8"><a xlink:href="../../d6/dda/classauthoring_1_1data_1_1_piece_instance_data.html#a80a0e534e9cb103879f99230bc05efe7" target="_top" xlink:title="authoring.data.PieceInstance\lData.remove">
<polygon fill="white" stroke="black" points="490,-49 490,-79 646,-79 646,-49 490,-49"/>
<text text-anchor="start" x="498" y="-67" font-family="Helvetica,sans-Serif" font-size="10.00">authoring.data.PieceInstance</text>
<text text-anchor="middle" x="568" y="-56" font-family="Helvetica,sans-Serif" font-size="10.00">Data.remove</text>
</a>
</g>
</g>
<!-- Node5&#45;&gt;Node8 -->
<g id="edge8" class="edge"><title>Node5&#45;&gt;Node8</title>
<path fill="none" stroke="midnightblue" d="M415.889,-97.9654C439.43,-92.6741 466.067,-86.6867 490.349,-81.2288"/>
<polygon fill="midnightblue" stroke="midnightblue" points="491.249,-84.6141 500.238,-79.0062 489.714,-77.7845 491.249,-84.6141"/>
</g>
<!-- Node9 -->
<g id="node9" class="node"><title>Node9</title>
<g id="a_node9"><a xlink:href="../../dc/d5a/classauthoring__environment_1_1_super_tile.html#aab4ca6a2e399a4f20d41eb9bc038f7aa" target="_top" xlink:title="authoring_environment.Super\lTile.removePieceImage">
<polygon fill="white" stroke="black" points="488,-0 488,-30 648,-30 648,-0 488,-0"/>
<text text-anchor="start" x="496" y="-18" font-family="Helvetica,sans-Serif" font-size="10.00">authoring_environment.Super</text>
<text text-anchor="middle" x="568" y="-7" font-family="Helvetica,sans-Serif" font-size="10.00">Tile.removePieceImage</text>
</a>
</g>
</g>
<!-- Node5&#45;&gt;Node9 -->
<g id="edge9" class="edge"><title>Node5&#45;&gt;Node9</title>
<path fill="none" stroke="midnightblue" d="M374.469,-97.8672C401.853,-82.018 446.992,-57.0984 488,-40 493.444,-37.7302 499.17,-35.5461 504.949,-33.4786"/>
<polygon fill="midnightblue" stroke="midnightblue" points="506.375,-36.689 514.684,-30.1147 504.089,-30.0729 506.375,-36.689"/>
</g>
</g>
</svg>
        <g id="navigator" transform="translate(0 0)" fill="#404254">
                <rect fill="#f2f5e9" fill-opacity="0.5" stroke="#606060" stroke-width=".5" x="0" y="0" width="60" height="60"/>
                <use id="zoomplus" xlink:href="#zoomPlus" x="17" y="9" onmousedown="handleZoom(evt,'in')"/>
                <use id="zoomminus" xlink:href="#zoomMin" x="42" y="9" onmousedown="handleZoom(evt,'out')"/>
                <use id="reset" xlink:href="#resetDef" x="30" y="36" onmousedown="handleReset()"/>
                <g id="arrowUp" xlink:href="#dirArrow" transform="translate(30 24)" onmousedown="handlePan(0,-1)">
                  <use xlink:href="#rim" fill="#404040">
                        <set attributeName="fill" to="#808080" begin="arrowUp.mouseover" end="arrowUp.mouseout"/>
                  </use>
                  <path fill="none" stroke="white" stroke-width="1.5" d="M0,-3.0v7 M-2.5,-0.5L0,-3.0L2.5,-0.5"/>
                </g>
                <g id="arrowRight" xlink:href="#dirArrow" transform="rotate(90) translate(36 -43)" onmousedown="handlePan(1,0)">
                  <use xlink:href="#rim" fill="#404040">
                        <set attributeName="fill" to="#808080" begin="arrowRight.mouseover" end="arrowRight.mouseout"/>
                  </use>
                  <path fill="none" stroke="white" stroke-width="1.5" d="M0,-3.0v7 M-2.5,-0.5L0,-3.0L2.5,-0.5"/>
                </g>
                <g id="arrowDown" xlink:href="#dirArrow" transform="rotate(180) translate(-30 -48)" onmousedown="handlePan(0,1)">
                  <use xlink:href="#rim" fill="#404040">
                        <set attributeName="fill" to="#808080" begin="arrowDown.mouseover" end="arrowDown.mouseout"/>
                  </use>
                  <path fill="none" stroke="white" stroke-width="1.5" d="M0,-3.0v7 M-2.5,-0.5L0,-3.0L2.5,-0.5"/>
                </g>
                <g id="arrowLeft" xlink:href="#dirArrow" transform="rotate(270) translate(-36 17)" onmousedown="handlePan(-1,0)">
                  <use xlink:href="#rim" fill="#404040">
                        <set attributeName="fill" to="#808080" begin="arrowLeft.mouseover" end="arrowLeft.mouseout"/>
                  </use>
                  <path fill="none" stroke="white" stroke-width="1.5" d="M0,-3.0v7 M-2.5,-0.5L0,-3.0L2.5,-0.5"/>
                </g>
        </g>
        <svg viewBox="0 0 15 15" width="100%" height="30px" preserveAspectRatio="xMaxYMin meet">
         <g id="arrow_out" transform="scale(0.3 0.3)">
          <a xlink:href="classauthoring__environment_1_1_g_u_i_grid_afe59bd9dfeddc383a541f50fda3e647a_cgraph_org.svg" target="_base">
           <rect id="button" ry="5" rx="5" y="6" x="6" height="38" width="38"
                fill="#f2f5e9" fill-opacity="0.5" stroke="#606060" stroke-width="1.0"/>
           <path id="arrow"
             d="M 11.500037,31.436501 C 11.940474,20.09759 22.043105,11.32322 32.158766,21.979434 L 37.068811,17.246167 C 37.068811,17.246167 37.088388,32 37.088388,32 L 22.160133,31.978069 C 22.160133,31.978069 26.997745,27.140456 26.997745,27.140456 C 18.528582,18.264221 13.291696,25.230495 11.500037,31.436501 z"
             style="fill:#404040;"/>
          </a>
         </g>
        </svg>
</svg>
