<?xml version="1.0" encoding="UTF-8" standalone="no"?>
<!DOCTYPE svg PUBLIC "-//W3C//DTD SVG 1.1//EN"
 "http://www.w3.org/Graphics/SVG/1.1/DTD/svg11.dtd">
<!-- Generated by graphviz version 2.36.0 (20140111.2315)
 -->
<!-- Title: authoring_environment.GUIGrid.runEvents Pages: 1 -->
<!--zoomable 321 -->
<svg id="main" version="1.1" xmlns="http://www.w3.org/2000/svg" xmlns:xlink="http://www.w3.org/1999/xlink" xml:space="preserve" onload="init(evt)">
<style type="text/css"><![CDATA[
.edge:hover path { stroke: red; }
.edge:hover polygon { stroke: red; fill: red; }
]]></style>
<script type="text/javascript"><![CDATA[
var edges = document.getElementsByTagName('g');
if (edges && edges.length) {
  for (var i=0;i<edges.length;i++) {
    if (edges[i].id.substr(0,4)=='edge') {
      edges[i].setAttribute('class','edge');
    }
  }
}
]]></script>
        <defs>
                <circle id="rim" cx="0" cy="0" r="7"/>
                <circle id="rim2" cx="0" cy="0" r="3.5"/>
                <g id="zoomPlus">
                        <use xlink:href="#rim" fill="#404040">
                                <set attributeName="fill" to="#808080" begin="zoomplus.mouseover" end="zoomplus.mouseout"/>
                        </use>
                        <path d="M-4,0h8M0,-4v8" fill="none" stroke="white" stroke-width="1.5" pointer-events="none"/>
                </g>
                <g id="zoomMin">
                        <use xlink:href="#rim" fill="#404040">
                                <set attributeName="fill" to="#808080" begin="zoomminus.mouseover" end="zoomminus.mouseout"/>
                        </use>
                        <path d="M-4,0h8" fill="none" stroke="white" stroke-width="1.5" pointer-events="none"/>
                </g>
                <g id="dirArrow">
                        <path fill="none" stroke="white" stroke-width="1.5" d="M0,-3.0v7 M-2.5,-0.5L0,-3.0L2.5,-0.5"/>
                </g>
               <g id="resetDef">
                       <use xlink:href="#rim2" fill="#404040">
                               <set attributeName="fill" to="#808080" begin="reset.mouseover" end="reset.mouseout"/>
                       </use>
               </g>
        </defs>

<script type="text/javascript">
var viewWidth = 1758;
var viewHeight = 321;
var sectionId = 'dynsection-48';
</script>
<script xlink:href="../../svgpan.js"/>
<svg id="graph" class="graph">
<g id="viewport">
<title>authoring_environment.GUIGrid.runEvents</title>
<polygon fill="white" stroke="none" points="-4,4 -4,-316.556 1754,-316.556 1754,4 -4,4"/>
<!-- Node1 -->
<g id="node1" class="node"><title>Node1</title>
<polygon fill="#bfbfbf" stroke="black" points="0.5,-30.5564 0.5,-60.5564 187.5,-60.5564 187.5,-30.5564 0.5,-30.5564"/>
<text text-anchor="start" x="8.5" y="-48.5564" font-family="Helvetica,sans-Serif" font-size="10.00">authoring_environment.GUIGrid.run</text>
<text text-anchor="middle" x="94" y="-37.5564" font-family="Helvetica,sans-Serif" font-size="10.00">Events</text>
</g>
<!-- Node2 -->
<g id="node2" class="node"><title>Node2</title>
<g id="a_node2"><a xlink:href="../../d8/d01/classgamedata_1_1gamecomponents_1_1_level.html#a369f5f4a962d2ae8be063f5b2a01e0ff" target="_top" xlink:title="gamedata.gamecomponents.\lLevel.runGameEvents">
<polygon fill="white" stroke="black" points="224,-30.5564 224,-60.5564 384,-60.5564 384,-30.5564 224,-30.5564"/>
<text text-anchor="start" x="232" y="-48.5564" font-family="Helvetica,sans-Serif" font-size="10.00">gamedata.gamecomponents.</text>
<text text-anchor="middle" x="304" y="-37.5564" font-family="Helvetica,sans-Serif" font-size="10.00">Level.runGameEvents</text>
</a>
</g>
</g>
<!-- Node1&#45;&gt;Node2 -->
<g id="edge1" class="edge"><title>Node1&#45;&gt;Node2</title>
<path fill="none" stroke="midnightblue" d="M197.926,-45.5564C206.614,-45.5564 215.312,-45.5564 223.777,-45.5564"/>
<polygon fill="midnightblue" stroke="midnightblue" points="197.746,-42.0565 187.746,-45.5564 197.746,-49.0565 197.746,-42.0565"/>
</g>
<!-- Node3 -->
<g id="node3" class="node"><title>Node3</title>
<g id="a_node3"><a xlink:href="../../df/dd5/classgame_player_1_1_view_controller.html#a620f8a02d3ac7677cd179fcd812aca55" target="_top" xlink:title="gamePlayer.ViewController.check\lEndActions">
<polygon fill="white" stroke="black" points="420,-30.5564 420,-60.5564 594,-60.5564 594,-30.5564 420,-30.5564"/>
<text text-anchor="start" x="428" y="-48.5564" font-family="Helvetica,sans-Serif" font-size="10.00">gamePlayer.ViewController.check</text>
<text text-anchor="middle" x="507" y="-37.5564" font-family="Helvetica,sans-Serif" font-size="10.00">EndActions</text>
</a>
</g>
</g>
<!-- Node2&#45;&gt;Node3 -->
<g id="edge2" class="edge"><title>Node2&#45;&gt;Node3</title>
<path fill="none" stroke="midnightblue" d="M394.432,-45.5564C402.916,-45.5564 411.506,-45.5564 419.958,-45.5564"/>
<polygon fill="midnightblue" stroke="midnightblue" points="394.152,-42.0565 384.152,-45.5564 394.152,-49.0565 394.152,-42.0565"/>
</g>
<!-- Node4 -->
<g id="node4" class="node"><title>Node4</title>
<g id="a_node4"><a xlink:href="../../df/dd5/classgame_player_1_1_view_controller.html#a95c2acd43bb39b8606c69971c1cd30f5" target="_top" xlink:title="gamePlayer.ViewController.perform\lAction">
<polygon fill="white" stroke="black" points="630.5,-123.556 630.5,-153.556 815.5,-153.556 815.5,-123.556 630.5,-123.556"/>
<text text-anchor="start" x="638.5" y="-141.556" font-family="Helvetica,sans-Serif" font-size="10.00">gamePlayer.ViewController.perform</text>
<text text-anchor="middle" x="723" y="-130.556" font-family="Helvetica,sans-Serif" font-size="10.00">Action</text>
</a>
</g>
</g>
<!-- Node3&#45;&gt;Node4 -->
<g id="edge3" class="edge"><title>Node3&#45;&gt;Node4</title>
<path fill="none" stroke="midnightblue" d="M552.111,-64.7261C592.122,-82.1142 650.32,-107.406 687.156,-123.414"/>
<polygon fill="midnightblue" stroke="midnightblue" points="553.425,-61.4812 542.859,-60.7054 550.635,-67.9012 553.425,-61.4812"/>
</g>
<!-- Node19 -->
<g id="node19" class="node"><title>Node19</title>
<g id="a_node19"><a xlink:href="../../df/dd5/classgame_player_1_1_view_controller.html#a13ea7814bde61a8042c5b1a23af41416" target="_top" xlink:title="gamePlayer.ViewController.end\lAction">
<polygon fill="white" stroke="black" points="641,-30.5564 641,-60.5564 805,-60.5564 805,-30.5564 641,-30.5564"/>
<text text-anchor="start" x="649" y="-48.5564" font-family="Helvetica,sans-Serif" font-size="10.00">gamePlayer.ViewController.end</text>
<text text-anchor="middle" x="723" y="-37.5564" font-family="Helvetica,sans-Serif" font-size="10.00">Action</text>
</a>
</g>
</g>
<!-- Node3&#45;&gt;Node19 -->
<g id="edge21" class="edge"><title>Node3&#45;&gt;Node19</title>
<path fill="none" stroke="midnightblue" d="M604.327,-45.5564C616.55,-45.5564 628.962,-45.5564 640.914,-45.5564"/>
<polygon fill="midnightblue" stroke="midnightblue" points="604.117,-42.0565 594.117,-45.5564 604.117,-49.0565 604.117,-42.0565"/>
</g>
<!-- Node5 -->
<g id="node5" class="node"><title>Node5</title>
<g id="a_node5"><a xlink:href="../../da/d55/classgame_player_1_1_keyboard_movement.html#af45fd8d279b1ee2d6be5466d425485ab" target="_top" xlink:title="gamePlayer.KeyboardMovement.set\lMovementKeyControl">
<polygon fill="white" stroke="black" points="852.5,-167.556 852.5,-197.556 1041.5,-197.556 1041.5,-167.556 852.5,-167.556"/>
<text text-anchor="start" x="860.5" y="-185.556" font-family="Helvetica,sans-Serif" font-size="10.00">gamePlayer.KeyboardMovement.set</text>
<text text-anchor="middle" x="947" y="-174.556" font-family="Helvetica,sans-Serif" font-size="10.00">MovementKeyControl</text>
</a>
</g>
</g>
<!-- Node4&#45;&gt;Node5 -->
<g id="edge4" class="edge"><title>Node4&#45;&gt;Node5</title>
<path fill="none" stroke="midnightblue" d="M825.673,-151.979C851.145,-156.911 877.275,-162.451 898.65,-167.525"/>
<polygon fill="midnightblue" stroke="midnightblue" points="826.057,-148.489 815.578,-150.05 824.743,-155.365 826.057,-148.489"/>
</g>
<!-- Node13 -->
<g id="node13" class="node"><title>Node13</title>
<g id="a_node13"><a xlink:href="../../df/dd5/classgame_player_1_1_view_controller.html#a22ee80193bbac79a935ee961a183bfcd" target="_top" xlink:title="gamePlayer.ViewController.set\lOnClick">
<polygon fill="white" stroke="black" points="866.5,-79.5564 866.5,-109.556 1027.5,-109.556 1027.5,-79.5564 866.5,-79.5564"/>
<text text-anchor="start" x="874.5" y="-97.5564" font-family="Helvetica,sans-Serif" font-size="10.00">gamePlayer.ViewController.set</text>
<text text-anchor="middle" x="947" y="-86.5564" font-family="Helvetica,sans-Serif" font-size="10.00">OnClick</text>
</a>
</g>
</g>
<!-- Node4&#45;&gt;Node13 -->
<g id="edge14" class="edge"><title>Node4&#45;&gt;Node13</title>
<path fill="none" stroke="midnightblue" d="M809.761,-121.559C829.676,-117.612 850.735,-113.438 870.186,-109.583"/>
<polygon fill="midnightblue" stroke="midnightblue" points="808.908,-118.16 799.779,-123.537 810.269,-125.026 808.908,-118.16"/>
</g>
<!-- Node5&#45;&gt;Node4 -->
<g id="edge12" class="edge"><title>Node5&#45;&gt;Node4</title>
<path fill="none" stroke="midnightblue" d="M842.264,-168.733C817.45,-163.903 792.15,-158.525 771.352,-153.588"/>
<polygon fill="midnightblue" stroke="midnightblue" points="841.627,-172.175 852.108,-170.625 842.948,-165.301 841.627,-172.175"/>
</g>
<!-- Node6 -->
<g id="node6" class="node"><title>Node6</title>
<g id="a_node6"><a xlink:href="../../df/dd5/classgame_player_1_1_view_controller.html#a7eb038fd9f20604ade0406f27ef76657" target="_top" xlink:title="gamePlayer.ViewController.bind\lAction">
<polygon fill="white" stroke="black" points="1096.5,-216.556 1096.5,-246.556 1263.5,-246.556 1263.5,-216.556 1096.5,-216.556"/>
<text text-anchor="start" x="1104.5" y="-234.556" font-family="Helvetica,sans-Serif" font-size="10.00">gamePlayer.ViewController.bind</text>
<text text-anchor="middle" x="1180" y="-223.556" font-family="Helvetica,sans-Serif" font-size="10.00">Action</text>
</a>
</g>
</g>
<!-- Node5&#45;&gt;Node6 -->
<g id="edge5" class="edge"><title>Node5&#45;&gt;Node6</title>
<path fill="none" stroke="midnightblue" d="M1028.67,-199.669C1054.6,-205.168 1083.1,-211.214 1108.26,-216.55"/>
<polygon fill="midnightblue" stroke="midnightblue" points="1029.39,-196.242 1018.88,-197.591 1027.93,-203.09 1029.39,-196.242"/>
</g>
<!-- Node12 -->
<g id="node12" class="node"><title>Node12</title>
<g id="a_node12"><a xlink:href="../../df/dd5/classgame_player_1_1_view_controller.html#a27da17c1280cd953a14f6b76b18f9a4b" target="_top" xlink:title="gamePlayer.ViewController.toggle\lKeyboardControl">
<polygon fill="white" stroke="black" points="1092,-167.556 1092,-197.556 1268,-197.556 1268,-167.556 1092,-167.556"/>
<text text-anchor="start" x="1100" y="-185.556" font-family="Helvetica,sans-Serif" font-size="10.00">gamePlayer.ViewController.toggle</text>
<text text-anchor="middle" x="1180" y="-174.556" font-family="Helvetica,sans-Serif" font-size="10.00">KeyboardControl</text>
</a>
</g>
</g>
<!-- Node5&#45;&gt;Node12 -->
<g id="edge13" class="edge"><title>Node5&#45;&gt;Node12</title>
<path fill="none" stroke="midnightblue" d="M1051.83,-182.556C1065.24,-182.556 1078.86,-182.556 1091.96,-182.556"/>
<polygon fill="midnightblue" stroke="midnightblue" points="1051.62,-179.056 1041.62,-182.556 1051.62,-186.056 1051.62,-179.056"/>
</g>
<!-- Node7 -->
<g id="node7" class="node"><title>Node7</title>
<g id="a_node7"><a xlink:href="../../d1/db7/classgame_player_1_1_keyboard_action.html#a08ace57322b8639020688dd9493c3e1f" target="_top" xlink:title="gamePlayer.KeyboardAction.set\lActionKeyControl">
<polygon fill="white" stroke="black" points="1338,-154.556 1338,-184.556 1506,-184.556 1506,-154.556 1338,-154.556"/>
<text text-anchor="start" x="1346" y="-172.556" font-family="Helvetica,sans-Serif" font-size="10.00">gamePlayer.KeyboardAction.set</text>
<text text-anchor="middle" x="1422" y="-161.556" font-family="Helvetica,sans-Serif" font-size="10.00">ActionKeyControl</text>
</a>
</g>
</g>
<!-- Node6&#45;&gt;Node7 -->
<g id="edge6" class="edge"><title>Node6&#45;&gt;Node7</title>
<path fill="none" stroke="midnightblue" d="M1252.36,-214.059C1262.32,-211.568 1272.42,-209.017 1282,-206.556 1309.45,-199.506 1339.89,-191.434 1365.26,-184.632"/>
<polygon fill="midnightblue" stroke="midnightblue" points="1251.32,-210.71 1242.47,-216.524 1253.02,-217.502 1251.32,-210.71"/>
</g>
<!-- Node8 -->
<g id="node8" class="node"><title>Node8</title>
<g id="a_node8"><a xlink:href="../../df/dd5/classgame_player_1_1_view_controller.html#ab8c14a8c53be9021a62d0107c2f75ef6" target="_top" xlink:title="gamePlayer.ViewController.update\lActions">
<polygon fill="white" stroke="black" points="1332,-258.556 1332,-288.556 1512,-288.556 1512,-258.556 1332,-258.556"/>
<text text-anchor="start" x="1340" y="-276.556" font-family="Helvetica,sans-Serif" font-size="10.00">gamePlayer.ViewController.update</text>
<text text-anchor="middle" x="1422" y="-265.556" font-family="Helvetica,sans-Serif" font-size="10.00">Actions</text>
</a>
</g>
</g>
<!-- Node6&#45;&gt;Node8 -->
<g id="edge8" class="edge"><title>Node6&#45;&gt;Node8</title>
<path fill="none" stroke="midnightblue" d="M1273.71,-247.78C1293.86,-251.307 1315.1,-255.024 1334.98,-258.504"/>
<polygon fill="midnightblue" stroke="midnightblue" points="1274.05,-244.287 1263.59,-246.01 1272.84,-251.182 1274.05,-244.287"/>
</g>
<!-- Node11 -->
<g id="node11" class="node"><title>Node11</title>
<g id="a_node11"><a xlink:href="../../df/df0/classtests_1_1_view_controller_test.html#a74e99f9c72cbdcd2d56271b2ad2df1ce" target="_top" xlink:title="tests.ViewControllerTest.bind\lActionTest">
<polygon fill="white" stroke="black" points="1345,-209.556 1345,-239.556 1499,-239.556 1499,-209.556 1345,-209.556"/>
<text text-anchor="start" x="1353" y="-227.556" font-family="Helvetica,sans-Serif" font-size="10.00">tests.ViewControllerTest.bind</text>
<text text-anchor="middle" x="1422" y="-216.556" font-family="Helvetica,sans-Serif" font-size="10.00">ActionTest</text>
</a>
</g>
</g>
<!-- Node6&#45;&gt;Node11 -->
<g id="edge11" class="edge"><title>Node6&#45;&gt;Node11</title>
<path fill="none" stroke="midnightblue" d="M1273.89,-228.847C1297.32,-228.164 1322.2,-227.438 1344.71,-226.782"/>
<polygon fill="midnightblue" stroke="midnightblue" points="1273.49,-225.357 1263.59,-229.147 1273.69,-232.354 1273.49,-225.357"/>
</g>
<!-- Node7&#45;&gt;Node4 -->
<g id="edge7" class="edge"><title>Node7&#45;&gt;Node4</title>
<path fill="none" stroke="midnightblue" d="M1327.97,-161.636C1312.62,-160.49 1296.87,-159.411 1282,-158.556 1117.96,-149.13 926.525,-143.419 815.884,-140.635"/>
<polygon fill="midnightblue" stroke="midnightblue" points="1327.75,-165.129 1337.98,-162.398 1328.28,-158.15 1327.75,-165.129"/>
</g>
<!-- Node9 -->
<g id="node9" class="node"><title>Node9</title>
<g id="a_node9"><a xlink:href="../../d6/d24/classgame_player_1_1_select_state.html#a801827392f0faeee6b96925060d77838" target="_top" xlink:title="gamePlayer.SelectState.on\lClick">
<polygon fill="white" stroke="black" points="1582.5,-282.556 1582.5,-312.556 1729.5,-312.556 1729.5,-282.556 1582.5,-282.556"/>
<text text-anchor="start" x="1590.5" y="-300.556" font-family="Helvetica,sans-Serif" font-size="10.00">gamePlayer.SelectState.on</text>
<text text-anchor="middle" x="1656" y="-289.556" font-family="Helvetica,sans-Serif" font-size="10.00">Click</text>
</a>
</g>
</g>
<!-- Node8&#45;&gt;Node9 -->
<g id="edge9" class="edge"><title>Node8&#45;&gt;Node9</title>
<path fill="none" stroke="midnightblue" d="M1522.2,-283.819C1542.4,-285.908 1563.3,-288.07 1582.37,-290.043"/>
<polygon fill="midnightblue" stroke="midnightblue" points="1522.34,-280.314 1512.03,-282.767 1521.62,-287.277 1522.34,-280.314"/>
</g>
<!-- Node10 -->
<g id="node10" class="node"><title>Node10</title>
<g id="a_node10"><a xlink:href="../../df/df0/classtests_1_1_view_controller_test.html#a785df2c49a72c183c22163ce927f5df1" target="_top" xlink:title="tests.ViewControllerTest.update\lActionsTest">
<polygon fill="white" stroke="black" points="1572.5,-233.556 1572.5,-263.556 1739.5,-263.556 1739.5,-233.556 1572.5,-233.556"/>
<text text-anchor="start" x="1580.5" y="-251.556" font-family="Helvetica,sans-Serif" font-size="10.00">tests.ViewControllerTest.update</text>
<text text-anchor="middle" x="1656" y="-240.556" font-family="Helvetica,sans-Serif" font-size="10.00">ActionsTest</text>
</a>
</g>
</g>
<!-- Node8&#45;&gt;Node10 -->
<g id="edge10" class="edge"><title>Node8&#45;&gt;Node10</title>
<path fill="none" stroke="midnightblue" d="M1522.33,-262.852C1538.99,-261.057 1556.12,-259.212 1572.3,-257.468"/>
<polygon fill="midnightblue" stroke="midnightblue" points="1521.6,-259.411 1512.03,-263.962 1522.35,-266.371 1521.6,-259.411"/>
</g>
<!-- Node14 -->
<g id="node14" class="node"><title>Node14</title>
<g id="a_node14"><a xlink:href="../../df/dd5/classgame_player_1_1_view_controller.html#a10a40967a873f067cf91b024ff85b38e" target="_top" xlink:title="gamePlayer.ViewController.initializeGrid">
<polygon fill="white" stroke="black" points="1078,-66.0564 1078,-85.0564 1282,-85.0564 1282,-66.0564 1078,-66.0564"/>
<text text-anchor="middle" x="1180" y="-73.0564" font-family="Helvetica,sans-Serif" font-size="10.00">gamePlayer.ViewController.initializeGrid</text>
</a>
</g>
</g>
<!-- Node13&#45;&gt;Node14 -->
<g id="edge15" class="edge"><title>Node13&#45;&gt;Node14</title>
<path fill="none" stroke="midnightblue" d="M1037.79,-87.171C1050.96,-86.0875 1064.61,-84.9653 1077.99,-83.8648"/>
<polygon fill="midnightblue" stroke="midnightblue" points="1037.5,-83.683 1027.82,-87.9911 1038.07,-90.6594 1037.5,-83.683"/>
</g>
<!-- Node14&#45;&gt;Node3 -->
<g id="edge20" class="edge"><title>Node14&#45;&gt;Node3</title>
<path fill="none" stroke="midnightblue" d="M1152.35,-61.2891C1125.4,-47.7349 1082.12,-28.3085 1042,-20.5564 862.215,14.1844 812.177,-2.08267 630,-20.5564 609.995,-22.585 588.425,-26.439 569.066,-30.5244"/>
<polygon fill="midnightblue" stroke="midnightblue" points="1151,-64.5341 1161.5,-65.9846 1154.2,-58.3058 1151,-64.5341"/>
</g>
<!-- Node15 -->
<g id="node15" class="node"><title>Node15</title>
<g id="a_node15"><a xlink:href="../../df/dd5/classgame_player_1_1_view_controller.html#a0d1a3d443966f151b070dc751d2faf9a" target="_top" xlink:title="gamePlayer.ViewController.restartGame">
<polygon fill="white" stroke="black" points="1318,-104.056 1318,-123.056 1526,-123.056 1526,-104.056 1318,-104.056"/>
<text text-anchor="middle" x="1422" y="-111.056" font-family="Helvetica,sans-Serif" font-size="10.00">gamePlayer.ViewController.restartGame</text>
</a>
</g>
</g>
<!-- Node14&#45;&gt;Node15 -->
<g id="edge16" class="edge"><title>Node14&#45;&gt;Node15</title>
<path fill="none" stroke="midnightblue" d="M1251.32,-86.6905C1286.03,-92.1867 1327.48,-98.7493 1360.72,-104.013"/>
<polygon fill="midnightblue" stroke="midnightblue" points="1251.68,-83.2033 1241.25,-85.0963 1250.58,-90.1172 1251.68,-83.2033"/>
</g>
<!-- Node16 -->
<g id="node16" class="node"><title>Node16</title>
<g id="a_node16"><a xlink:href="../../df/dd5/classgame_player_1_1_view_controller.html#af1870a0b6786d96d118021fc62b6475d" target="_top" xlink:title="gamePlayer.ViewController.beginGame">
<polygon fill="white" stroke="black" points="1321,-66.0564 1321,-85.0564 1523,-85.0564 1523,-66.0564 1321,-66.0564"/>
<text text-anchor="middle" x="1422" y="-73.0564" font-family="Helvetica,sans-Serif" font-size="10.00">gamePlayer.ViewController.beginGame</text>
</a>
</g>
</g>
<!-- Node14&#45;&gt;Node16 -->
<g id="edge17" class="edge"><title>Node14&#45;&gt;Node16</title>
<path fill="none" stroke="midnightblue" d="M1292.35,-75.5564C1301.84,-75.5564 1311.4,-75.5564 1320.8,-75.5564"/>
<polygon fill="midnightblue" stroke="midnightblue" points="1292.09,-72.0565 1282.09,-75.5564 1292.09,-79.0565 1292.09,-72.0565"/>
</g>
<!-- Node17 -->
<g id="node17" class="node"><title>Node17</title>
<g id="a_node17"><a xlink:href="../../df/dd5/classgame_player_1_1_view_controller.html#a4c1754d129a4eac955390b428eaa448a" target="_top" xlink:title="gamePlayer.ViewController.test\lPlayGame">
<polygon fill="white" stroke="black" points="1339.5,-16.5564 1339.5,-46.5564 1504.5,-46.5564 1504.5,-16.5564 1339.5,-16.5564"/>
<text text-anchor="start" x="1347.5" y="-34.5564" font-family="Helvetica,sans-Serif" font-size="10.00">gamePlayer.ViewController.test</text>
<text text-anchor="middle" x="1422" y="-23.5564" font-family="Helvetica,sans-Serif" font-size="10.00">PlayGame</text>
</a>
</g>
</g>
<!-- Node14&#45;&gt;Node17 -->
<g id="edge18" class="edge"><title>Node14&#45;&gt;Node17</title>
<path fill="none" stroke="midnightblue" d="M1243.18,-64.1574C1272.49,-58.7834 1307.85,-52.3004 1339.29,-46.5358"/>
<polygon fill="midnightblue" stroke="midnightblue" points="1242.28,-60.7631 1233.08,-66.009 1243.54,-67.6483 1242.28,-60.7631"/>
</g>
<!-- Node18 -->
<g id="node18" class="node"><title>Node18</title>
<g id="a_node18"><a xlink:href="../../db/d40/classfxml__main_1_1_authoring_controller.html#a2ec133c8edf0a7ab1e84f2e12455233d" target="_top" xlink:title="fxml_main.AuthoringController.save\lAsGame">
<polygon fill="white" stroke="black" points="1562.5,-16.5564 1562.5,-46.5564 1749.5,-46.5564 1749.5,-16.5564 1562.5,-16.5564"/>
<text text-anchor="start" x="1570.5" y="-34.5564" font-family="Helvetica,sans-Serif" font-size="10.00">fxml_main.AuthoringController.save</text>
<text text-anchor="middle" x="1656" y="-23.5564" font-family="Helvetica,sans-Serif" font-size="10.00">AsGame</text>
</a>
</g>
</g>
<!-- Node17&#45;&gt;Node18 -->
<g id="edge19" class="edge"><title>Node17&#45;&gt;Node18</title>
<path fill="none" stroke="midnightblue" d="M1514.96,-31.5564C1530.59,-31.5564 1546.83,-31.5564 1562.47,-31.5564"/>
<polygon fill="midnightblue" stroke="midnightblue" points="1514.79,-28.0565 1504.79,-31.5564 1514.79,-35.0565 1514.79,-28.0565"/>
</g>
<!-- Node20 -->
<g id="node20" class="node"><title>Node20</title>
<g id="a_node20"><a xlink:href="../../db/d00/classgame_player_1_1_apply_state.html#aed42c1aba25264bc6880036f693a1c9e" target="_top" xlink:title="gamePlayer.ApplyState.on\lClick">
<polygon fill="white" stroke="black" points="875.5,-30.5564 875.5,-60.5564 1018.5,-60.5564 1018.5,-30.5564 875.5,-30.5564"/>
<text text-anchor="start" x="883.5" y="-48.5564" font-family="Helvetica,sans-Serif" font-size="10.00">gamePlayer.ApplyState.on</text>
<text text-anchor="middle" x="947" y="-37.5564" font-family="Helvetica,sans-Serif" font-size="10.00">Click</text>
</a>
</g>
</g>
<!-- Node19&#45;&gt;Node20 -->
<g id="edge22" class="edge"><title>Node19&#45;&gt;Node20</title>
<path fill="none" stroke="midnightblue" d="M815.182,-45.5564C835.271,-45.5564 856.256,-45.5564 875.387,-45.5564"/>
<polygon fill="midnightblue" stroke="midnightblue" points="815.089,-42.0565 805.089,-45.5564 815.089,-49.0565 815.089,-42.0565"/>
</g>
</g>
</svg>
        <g id="navigator" transform="translate(0 0)" fill="#404254">
                <rect fill="#f2f5e9" fill-opacity="0.5" stroke="#606060" stroke-width=".5" x="0" y="0" width="60" height="60"/>
                <use id="zoomplus" xlink:href="#zoomPlus" x="17" y="9" onmousedown="handleZoom(evt,'in')"/>
                <use id="zoomminus" xlink:href="#zoomMin" x="42" y="9" onmousedown="handleZoom(evt,'out')"/>
                <use id="reset" xlink:href="#resetDef" x="30" y="36" onmousedown="handleReset()"/>
                <g id="arrowUp" xlink:href="#dirArrow" transform="translate(30 24)" onmousedown="handlePan(0,-1)">
                  <use xlink:href="#rim" fill="#404040">
                        <set attributeName="fill" to="#808080" begin="arrowUp.mouseover" end="arrowUp.mouseout"/>
                  </use>
                  <path fill="none" stroke="white" stroke-width="1.5" d="M0,-3.0v7 M-2.5,-0.5L0,-3.0L2.5,-0.5"/>
                </g>
                <g id="arrowRight" xlink:href="#dirArrow" transform="rotate(90) translate(36 -43)" onmousedown="handlePan(1,0)">
                  <use xlink:href="#rim" fill="#404040">
                        <set attributeName="fill" to="#808080" begin="arrowRight.mouseover" end="arrowRight.mouseout"/>
                  </use>
                  <path fill="none" stroke="white" stroke-width="1.5" d="M0,-3.0v7 M-2.5,-0.5L0,-3.0L2.5,-0.5"/>
                </g>
                <g id="arrowDown" xlink:href="#dirArrow" transform="rotate(180) translate(-30 -48)" onmousedown="handlePan(0,1)">
                  <use xlink:href="#rim" fill="#404040">
                        <set attributeName="fill" to="#808080" begin="arrowDown.mouseover" end="arrowDown.mouseout"/>
                  </use>
                  <path fill="none" stroke="white" stroke-width="1.5" d="M0,-3.0v7 M-2.5,-0.5L0,-3.0L2.5,-0.5"/>
                </g>
                <g id="arrowLeft" xlink:href="#dirArrow" transform="rotate(270) translate(-36 17)" onmousedown="handlePan(-1,0)">
                  <use xlink:href="#rim" fill="#404040">
                        <set attributeName="fill" to="#808080" begin="arrowLeft.mouseover" end="arrowLeft.mouseout"/>
                  </use>
                  <path fill="none" stroke="white" stroke-width="1.5" d="M0,-3.0v7 M-2.5,-0.5L0,-3.0L2.5,-0.5"/>
                </g>
        </g>
        <svg viewBox="0 0 15 15" width="100%" height="30px" preserveAspectRatio="xMaxYMin meet">
         <g id="arrow_out" transform="scale(0.3 0.3)">
          <a xlink:href="classauthoring__environment_1_1_g_u_i_grid_a2da4b5e0668626dbeef2fa237e243999_icgraph_org.svg" target="_base">
           <rect id="button" ry="5" rx="5" y="6" x="6" height="38" width="38"
                fill="#f2f5e9" fill-opacity="0.5" stroke="#606060" stroke-width="1.0"/>
           <path id="arrow"
             d="M 11.500037,31.436501 C 11.940474,20.09759 22.043105,11.32322 32.158766,21.979434 L 37.068811,17.246167 C 37.068811,17.246167 37.088388,32 37.088388,32 L 22.160133,31.978069 C 22.160133,31.978069 26.997745,27.140456 26.997745,27.140456 C 18.528582,18.264221 13.291696,25.230495 11.500037,31.436501 z"
             style="fill:#404040;"/>
          </a>
         </g>
        </svg>
</svg>
