<?xml version="1.0" encoding="UTF-8" standalone="no"?>
<!DOCTYPE svg PUBLIC "-//W3C//DTD SVG 1.1//EN"
 "http://www.w3.org/Graphics/SVG/1.1/DTD/svg11.dtd">
<!-- Generated by graphviz version 2.36.0 (20140111.2315)
 -->
<!-- Title: authoring_environment.GUIGrid.addPatchAtLoc Pages: 1 -->
<!--zoomable 176 -->
<svg id="main" version="1.1" xmlns="http://www.w3.org/2000/svg" xmlns:xlink="http://www.w3.org/1999/xlink" xml:space="preserve" onload="init(evt)">
<style type="text/css"><![CDATA[
.edge:hover path { stroke: red; }
.edge:hover polygon { stroke: red; fill: red; }
]]></style>
<script type="text/javascript"><![CDATA[
var edges = document.getElementsByTagName('g');
if (edges && edges.length) {
  for (var i=0;i<edges.length;i++) {
    if (edges[i].id.substr(0,4)=='edge') {
      edges[i].setAttribute('class','edge');
    }
  }
}
]]></script>
        <defs>
                <circle id="rim" cx="0" cy="0" r="7"/>
                <circle id="rim2" cx="0" cy="0" r="3.5"/>
                <g id="zoomPlus">
                        <use xlink:href="#rim" fill="#404040">
                                <set attributeName="fill" to="#808080" begin="zoomplus.mouseover" end="zoomplus.mouseout"/>
                        </use>
                        <path d="M-4,0h8M0,-4v8" fill="none" stroke="white" stroke-width="1.5" pointer-events="none"/>
                </g>
                <g id="zoomMin">
                        <use xlink:href="#rim" fill="#404040">
                                <set attributeName="fill" to="#808080" begin="zoomminus.mouseover" end="zoomminus.mouseout"/>
                        </use>
                        <path d="M-4,0h8" fill="none" stroke="white" stroke-width="1.5" pointer-events="none"/>
                </g>
                <g id="dirArrow">
                        <path fill="none" stroke="white" stroke-width="1.5" d="M0,-3.0v7 M-2.5,-0.5L0,-3.0L2.5,-0.5"/>
                </g>
               <g id="resetDef">
                       <use xlink:href="#rim2" fill="#404040">
                               <set attributeName="fill" to="#808080" begin="reset.mouseover" end="reset.mouseout"/>
                       </use>
               </g>
        </defs>

<script type="text/javascript">
var viewWidth = 1056;
var viewHeight = 176;
var sectionId = 'dynsection-4';
</script>
<script xlink:href="../../svgpan.js"/>
<svg id="graph" class="graph">
<g id="viewport">
<title>authoring_environment.GUIGrid.addPatchAtLoc</title>
<polygon fill="white" stroke="none" points="-4,4 -4,-172 1052,-172 1052,4 -4,4"/>
<!-- Node1 -->
<g id="node1" class="node"><title>Node1</title>
<polygon fill="#bfbfbf" stroke="black" points="0.5,-47 0.5,-77 189.5,-77 189.5,-47 0.5,-47"/>
<text text-anchor="start" x="8.5" y="-65" font-family="Helvetica,sans-Serif" font-size="10.00">authoring_environment.GUIGrid.add</text>
<text text-anchor="middle" x="95" y="-54" font-family="Helvetica,sans-Serif" font-size="10.00">PatchAtLoc</text>
</g>
<!-- Node2 -->
<g id="node2" class="node"><title>Node2</title>
<g id="a_node2"><a xlink:href="../../d3/d12/classtests_1_1_test_game_creator.html#a4c85cf768c7e38e9b2f6db858e8764ec" target="_top" xlink:title="tests.TestGameCreator.create\lNewGrid">
<polygon fill="white" stroke="black" points="231.5,-72 231.5,-102 392.5,-102 392.5,-72 231.5,-72"/>
<text text-anchor="start" x="239.5" y="-90" font-family="Helvetica,sans-Serif" font-size="10.00">tests.TestGameCreator.create</text>
<text text-anchor="middle" x="312" y="-79" font-family="Helvetica,sans-Serif" font-size="10.00">NewGrid</text>
</a>
</g>
</g>
<!-- Node1&#45;&gt;Node2 -->
<g id="edge1" class="edge"><title>Node1&#45;&gt;Node2</title>
<path fill="none" stroke="midnightblue" d="M199.831,-74.0734C210.452,-75.3084 221.121,-76.5489 231.422,-77.7467"/>
<polygon fill="midnightblue" stroke="midnightblue" points="200.014,-70.5712 189.677,-72.8926 199.205,-77.5243 200.014,-70.5712"/>
</g>
<!-- Node10 -->
<g id="node10" class="node"><title>Node10</title>
<g id="a_node10"><a xlink:href="../../d4/d3f/classfxml__main_1_1_patch_controller.html#a806919701c76bb361bf89e0815a76a96" target="_top" xlink:title="fxml_main.PatchController.make\lEntryBox">
<polygon fill="white" stroke="black" points="226.5,-23 226.5,-53 397.5,-53 397.5,-23 226.5,-23"/>
<text text-anchor="start" x="234.5" y="-41" font-family="Helvetica,sans-Serif" font-size="10.00">fxml_main.PatchController.make</text>
<text text-anchor="middle" x="312" y="-30" font-family="Helvetica,sans-Serif" font-size="10.00">EntryBox</text>
</a>
</g>
</g>
<!-- Node1&#45;&gt;Node10 -->
<g id="edge9" class="edge"><title>Node1&#45;&gt;Node10</title>
<path fill="none" stroke="midnightblue" d="M199.743,-50.4194C208.684,-49.4213 217.659,-48.4194 226.422,-47.4413"/>
<polygon fill="midnightblue" stroke="midnightblue" points="199.227,-46.9552 189.677,-51.5431 200.003,-53.912 199.227,-46.9552"/>
</g>
<!-- Node3 -->
<g id="node3" class="node"><title>Node3</title>
<g id="a_node3"><a xlink:href="../../d3/d12/classtests_1_1_test_game_creator.html#a6088501ec4cce8d90d4561b695065a0d" target="_top" xlink:title="tests.TestGameCreator.create\lNewGame">
<polygon fill="white" stroke="black" points="434.5,-72 434.5,-102 595.5,-102 595.5,-72 434.5,-72"/>
<text text-anchor="start" x="442.5" y="-90" font-family="Helvetica,sans-Serif" font-size="10.00">tests.TestGameCreator.create</text>
<text text-anchor="middle" x="515" y="-79" font-family="Helvetica,sans-Serif" font-size="10.00">NewGame</text>
</a>
</g>
</g>
<!-- Node2&#45;&gt;Node3 -->
<g id="edge2" class="edge"><title>Node2&#45;&gt;Node3</title>
<path fill="none" stroke="midnightblue" d="M402.763,-87C413.295,-87 423.987,-87 434.367,-87"/>
<polygon fill="midnightblue" stroke="midnightblue" points="402.729,-83.5001 392.729,-87 402.729,-90.5001 402.729,-83.5001"/>
</g>
<!-- Node4 -->
<g id="node4" class="node"><title>Node4</title>
<g id="a_node4"><a xlink:href="../../d8/d93/classauthoring_1_1concretefeatures_1_1menus_1_1_file_x.html#a06eadcf7852f723bc5a70d08a1bc5f3f" target="_top" xlink:title="authoring.concretefeatures.menus.\lFileX.handleSave">
<polygon fill="white" stroke="black" points="636,-138 636,-168 822,-168 822,-138 636,-138"/>
<text text-anchor="start" x="644" y="-156" font-family="Helvetica,sans-Serif" font-size="10.00">authoring.concretefeatures.menus.</text>
<text text-anchor="middle" x="729" y="-145" font-family="Helvetica,sans-Serif" font-size="10.00">FileX.handleSave</text>
</a>
</g>
</g>
<!-- Node3&#45;&gt;Node4 -->
<g id="edge3" class="edge"><title>Node3&#45;&gt;Node4</title>
<path fill="none" stroke="midnightblue" d="M565.418,-105.509C585.891,-112.904 609.961,-121.249 632,-128 643.28,-131.455 655.397,-134.852 667.095,-137.973"/>
<polygon fill="midnightblue" stroke="midnightblue" points="566.578,-102.207 555.984,-102.077 564.185,-108.785 566.578,-102.207"/>
</g>
<!-- Node6 -->
<g id="node6" class="node"><title>Node6</title>
<g id="a_node6"><a xlink:href="../../df/dd5/classgame_player_1_1_view_controller.html#ac0350fa190876455755b7fb25f567af1" target="_top" xlink:title="gamePlayer.ViewController.testGame">
<polygon fill="white" stroke="black" points="632,-99.5 632,-118.5 826,-118.5 826,-99.5 632,-99.5"/>
<text text-anchor="middle" x="729" y="-106.5" font-family="Helvetica,sans-Serif" font-size="10.00">gamePlayer.ViewController.testGame</text>
</a>
</g>
</g>
<!-- Node3&#45;&gt;Node6 -->
<g id="edge5" class="edge"><title>Node3&#45;&gt;Node6</title>
<path fill="none" stroke="midnightblue" d="M605.598,-96.2979C615.735,-97.3499 626.077,-98.4231 636.241,-99.4778"/>
<polygon fill="midnightblue" stroke="midnightblue" points="605.852,-92.8056 595.544,-95.2546 605.129,-99.7682 605.852,-92.8056"/>
</g>
<!-- Node7 -->
<g id="node7" class="node"><title>Node7</title>
<g id="a_node7"><a xlink:href="../../d9/d51/classtests_1_1_global_action_tester.html#acc8e81a79086b93c043129dba02b3854" target="_top" xlink:title="tests.GlobalActionTester.\lGlobalActionTester">
<polygon fill="white" stroke="black" points="662,-50 662,-80 796,-80 796,-50 662,-50"/>
<text text-anchor="start" x="670" y="-68" font-family="Helvetica,sans-Serif" font-size="10.00">tests.GlobalActionTester.</text>
<text text-anchor="middle" x="729" y="-57" font-family="Helvetica,sans-Serif" font-size="10.00">GlobalActionTester</text>
</a>
</g>
</g>
<!-- Node3&#45;&gt;Node7 -->
<g id="edge6" class="edge"><title>Node3&#45;&gt;Node7</title>
<path fill="none" stroke="midnightblue" d="M605.629,-77.6989C624.488,-75.7418 644.055,-73.7113 661.864,-71.8632"/>
<polygon fill="midnightblue" stroke="midnightblue" points="605.129,-74.2318 595.544,-78.7454 605.852,-81.1944 605.129,-74.2318"/>
</g>
<!-- Node8 -->
<g id="node8" class="node"><title>Node8</title>
<g id="a_node8"><a xlink:href="../../d7/df4/classtests_1_1_j_s_o_n_tester_main.html#a5f1fa68f3fcb37a473271cdbfeaaa92e" target="_top" xlink:title="tests.JSONTesterMain.test\lJSONwrite">
<polygon fill="white" stroke="black" points="659,-1 659,-31 799,-31 799,-1 659,-1"/>
<text text-anchor="start" x="667" y="-19" font-family="Helvetica,sans-Serif" font-size="10.00">tests.JSONTesterMain.test</text>
<text text-anchor="middle" x="729" y="-8" font-family="Helvetica,sans-Serif" font-size="10.00">JSONwrite</text>
</a>
</g>
</g>
<!-- Node3&#45;&gt;Node8 -->
<g id="edge7" class="edge"><title>Node3&#45;&gt;Node8</title>
<path fill="none" stroke="midnightblue" d="M560.112,-68.0284C581.577,-59.1786 607.894,-48.8854 632,-41 642.804,-37.466 654.417,-34.0925 665.706,-31.0317"/>
<polygon fill="midnightblue" stroke="midnightblue" points="558.505,-64.9062 550.617,-71.9791 561.194,-71.3691 558.505,-64.9062"/>
</g>
<!-- Node5 -->
<g id="node5" class="node"><title>Node5</title>
<g id="a_node5"><a xlink:href="../../d8/d93/classauthoring_1_1concretefeatures_1_1menus_1_1_file_x.html#a4b99e0877ab0c9e769217c815f3b99a1" target="_top" xlink:title="authoring.concretefeatures.menus.\lFileX.FileX">
<polygon fill="white" stroke="black" points="862,-138 862,-168 1048,-168 1048,-138 862,-138"/>
<text text-anchor="start" x="870" y="-156" font-family="Helvetica,sans-Serif" font-size="10.00">authoring.concretefeatures.menus.</text>
<text text-anchor="middle" x="955" y="-145" font-family="Helvetica,sans-Serif" font-size="10.00">FileX.FileX</text>
</a>
</g>
</g>
<!-- Node4&#45;&gt;Node5 -->
<g id="edge4" class="edge"><title>Node4&#45;&gt;Node5</title>
<path fill="none" stroke="midnightblue" d="M832.315,-153C842.184,-153 852.155,-153 861.916,-153"/>
<polygon fill="midnightblue" stroke="midnightblue" points="832.079,-149.5 822.079,-153 832.079,-156.5 832.079,-149.5"/>
</g>
<!-- Node9 -->
<g id="node9" class="node"><title>Node9</title>
<g id="a_node9"><a xlink:href="../../d7/df4/classtests_1_1_j_s_o_n_tester_main.html#a931215da47157cbc5157c6a9df31ccd4" target="_top" xlink:title="tests.JSONTesterMain.main">
<polygon fill="white" stroke="black" points="882,-6.5 882,-25.5 1028,-25.5 1028,-6.5 882,-6.5"/>
<text text-anchor="middle" x="955" y="-13.5" font-family="Helvetica,sans-Serif" font-size="10.00">tests.JSONTesterMain.main</text>
</a>
</g>
</g>
<!-- Node8&#45;&gt;Node9 -->
<g id="edge8" class="edge"><title>Node8&#45;&gt;Node9</title>
<path fill="none" stroke="midnightblue" d="M809.346,-16C832.918,-16 858.605,-16 881.704,-16"/>
<polygon fill="midnightblue" stroke="midnightblue" points="809.035,-12.5001 799.035,-16 809.035,-19.5001 809.035,-12.5001"/>
</g>
</g>
</svg>
        <g id="navigator" transform="translate(0 0)" fill="#404254">
                <rect fill="#f2f5e9" fill-opacity="0.5" stroke="#606060" stroke-width=".5" x="0" y="0" width="60" height="60"/>
                <use id="zoomplus" xlink:href="#zoomPlus" x="17" y="9" onmousedown="handleZoom(evt,'in')"/>
                <use id="zoomminus" xlink:href="#zoomMin" x="42" y="9" onmousedown="handleZoom(evt,'out')"/>
                <use id="reset" xlink:href="#resetDef" x="30" y="36" onmousedown="handleReset()"/>
                <g id="arrowUp" xlink:href="#dirArrow" transform="translate(30 24)" onmousedown="handlePan(0,-1)">
                  <use xlink:href="#rim" fill="#404040">
                        <set attributeName="fill" to="#808080" begin="arrowUp.mouseover" end="arrowUp.mouseout"/>
                  </use>
                  <path fill="none" stroke="white" stroke-width="1.5" d="M0,-3.0v7 M-2.5,-0.5L0,-3.0L2.5,-0.5"/>
                </g>
                <g id="arrowRight" xlink:href="#dirArrow" transform="rotate(90) translate(36 -43)" onmousedown="handlePan(1,0)">
                  <use xlink:href="#rim" fill="#404040">
                        <set attributeName="fill" to="#808080" begin="arrowRight.mouseover" end="arrowRight.mouseout"/>
                  </use>
                  <path fill="none" stroke="white" stroke-width="1.5" d="M0,-3.0v7 M-2.5,-0.5L0,-3.0L2.5,-0.5"/>
                </g>
                <g id="arrowDown" xlink:href="#dirArrow" transform="rotate(180) translate(-30 -48)" onmousedown="handlePan(0,1)">
                  <use xlink:href="#rim" fill="#404040">
                        <set attributeName="fill" to="#808080" begin="arrowDown.mouseover" end="arrowDown.mouseout"/>
                  </use>
                  <path fill="none" stroke="white" stroke-width="1.5" d="M0,-3.0v7 M-2.5,-0.5L0,-3.0L2.5,-0.5"/>
                </g>
                <g id="arrowLeft" xlink:href="#dirArrow" transform="rotate(270) translate(-36 17)" onmousedown="handlePan(-1,0)">
                  <use xlink:href="#rim" fill="#404040">
                        <set attributeName="fill" to="#808080" begin="arrowLeft.mouseover" end="arrowLeft.mouseout"/>
                  </use>
                  <path fill="none" stroke="white" stroke-width="1.5" d="M0,-3.0v7 M-2.5,-0.5L0,-3.0L2.5,-0.5"/>
                </g>
        </g>
        <svg viewBox="0 0 15 15" width="100%" height="30px" preserveAspectRatio="xMaxYMin meet">
         <g id="arrow_out" transform="scale(0.3 0.3)">
          <a xlink:href="classauthoring__environment_1_1_g_u_i_grid_a964e976497a8a32ae8db18c037b8fac1_icgraph_org.svg" target="_base">
           <rect id="button" ry="5" rx="5" y="6" x="6" height="38" width="38"
                fill="#f2f5e9" fill-opacity="0.5" stroke="#606060" stroke-width="1.0"/>
           <path id="arrow"
             d="M 11.500037,31.436501 C 11.940474,20.09759 22.043105,11.32322 32.158766,21.979434 L 37.068811,17.246167 C 37.068811,17.246167 37.088388,32 37.088388,32 L 22.160133,31.978069 C 22.160133,31.978069 26.997745,27.140456 26.997745,27.140456 C 18.528582,18.264221 13.291696,25.230495 11.500037,31.436501 z"
             style="fill:#404040;"/>
          </a>
         </g>
        </svg>
</svg>
