<?xml version="1.0" encoding="UTF-8" standalone="no"?>
<!DOCTYPE svg PUBLIC "-//W3C//DTD SVG 1.1//EN"
 "http://www.w3.org/Graphics/SVG/1.1/DTD/svg11.dtd">
<!-- Generated by graphviz version 2.36.0 (20140111.2315)
 -->
<!-- Title: authoring_environment.GUIGrid.GUIGrid Pages: 1 -->
<svg width="1064pt" height="209pt"
 viewBox="0.00 0.00 1064.00 209.00" xmlns="http://www.w3.org/2000/svg" xmlns:xlink="http://www.w3.org/1999/xlink">
<g id="graph0" class="graph" transform="scale(1 1) rotate(0) translate(4 205)">
<title>authoring_environment.GUIGrid.GUIGrid</title>
<polygon fill="white" stroke="none" points="-4,4 -4,-205 1060,-205 1060,4 -4,4"/>
<!-- Node1 -->
<g id="node1" class="node"><title>Node1</title>
<polygon fill="#bfbfbf" stroke="black" points="0.5,-122 0.5,-152 171.5,-152 171.5,-122 0.5,-122"/>
<text text-anchor="start" x="8.5" y="-140" font-family="Helvetica,sans-Serif" font-size="10.00">authoring_environment.GUIGrid.</text>
<text text-anchor="middle" x="86" y="-129" font-family="Helvetica,sans-Serif" font-size="10.00">GUIGrid</text>
</g>
<!-- Node2 -->
<g id="node2" class="node"><title>Node2</title>
<g id="a_node2"><a xlink:href="../../da/d4c/classauthoring__environment_1_1_g_u_i_grid.html#a59c51f627edc0324bfb890737d079dea" target="_top" xlink:title="authoring_environment.GUIGrid.remove\lRunOffData">
<polygon fill="white" stroke="black" points="216,-144 216,-174 424,-174 424,-144 216,-144"/>
<text text-anchor="start" x="224" y="-162" font-family="Helvetica,sans-Serif" font-size="10.00">authoring_environment.GUIGrid.remove</text>
<text text-anchor="middle" x="320" y="-151" font-family="Helvetica,sans-Serif" font-size="10.00">RunOffData</text>
</a>
</g>
</g>
<!-- Node1&#45;&gt;Node2 -->
<g id="edge1" class="edge"><title>Node1&#45;&gt;Node2</title>
<path fill="none" stroke="midnightblue" d="M171.742,-145.036C182.855,-146.09 194.381,-147.183 205.87,-148.272"/>
<polygon fill="midnightblue" stroke="midnightblue" points="205.659,-151.768 215.945,-149.228 206.32,-144.799 205.659,-151.768"/>
</g>
<!-- Node5 -->
<g id="node5" class="node"><title>Node5</title>
<g id="a_node5"><a xlink:href="../../da/d4c/classauthoring__environment_1_1_g_u_i_grid.html#a786f87ee51b7799ca0b502d33b41dfc4" target="_top" xlink:title="authoring_environment.GUIGrid.repopulate">
<polygon fill="white" stroke="black" points="208.5,-105.5 208.5,-124.5 431.5,-124.5 431.5,-105.5 208.5,-105.5"/>
<text text-anchor="middle" x="320" y="-112.5" font-family="Helvetica,sans-Serif" font-size="10.00">authoring_environment.GUIGrid.repopulate</text>
</a>
</g>
</g>
<!-- Node1&#45;&gt;Node5 -->
<g id="edge4" class="edge"><title>Node1&#45;&gt;Node5</title>
<path fill="none" stroke="midnightblue" d="M171.742,-128.964C183.675,-127.833 196.085,-126.656 208.413,-125.487"/>
<polygon fill="midnightblue" stroke="midnightblue" points="209.112,-128.936 218.737,-124.508 208.451,-121.967 209.112,-128.936"/>
</g>
<!-- Node3 -->
<g id="node3" class="node"><title>Node3</title>
<g id="a_node3"><a xlink:href="../../d6/dda/classauthoring_1_1data_1_1_piece_instance_data.html#afb4443eda20595533c28fe05f079fb48" target="_top" xlink:title="authoring.data.PieceInstance\lData.getData">
<polygon fill="white" stroke="black" points="485,-171 485,-201 641,-201 641,-171 485,-171"/>
<text text-anchor="start" x="493" y="-189" font-family="Helvetica,sans-Serif" font-size="10.00">authoring.data.PieceInstance</text>
<text text-anchor="middle" x="563" y="-178" font-family="Helvetica,sans-Serif" font-size="10.00">Data.getData</text>
</a>
</g>
</g>
<!-- Node2&#45;&gt;Node3 -->
<g id="edge2" class="edge"><title>Node2&#45;&gt;Node3</title>
<path fill="none" stroke="midnightblue" d="M424.254,-170.568C441.076,-172.453 458.356,-174.388 474.746,-176.225"/>
<polygon fill="midnightblue" stroke="midnightblue" points="474.496,-179.718 484.824,-177.354 475.276,-172.762 474.496,-179.718"/>
</g>
<!-- Node4 -->
<g id="node4" class="node"><title>Node4</title>
<g id="a_node4"><a xlink:href="../../d7/dd4/classauthoring_1_1data_1_1_patch_instance_data.html#a60ac72e96e7e0da6f3beb20122a8c041" target="_top" xlink:title="authoring.data.PatchInstance\lData.getData">
<polygon fill="white" stroke="black" points="484.5,-122 484.5,-152 641.5,-152 641.5,-122 484.5,-122"/>
<text text-anchor="start" x="492.5" y="-140" font-family="Helvetica,sans-Serif" font-size="10.00">authoring.data.PatchInstance</text>
<text text-anchor="middle" x="563" y="-129" font-family="Helvetica,sans-Serif" font-size="10.00">Data.getData</text>
</a>
</g>
</g>
<!-- Node2&#45;&gt;Node4 -->
<g id="edge3" class="edge"><title>Node2&#45;&gt;Node4</title>
<path fill="none" stroke="midnightblue" d="M424.254,-149.574C440.971,-148.048 458.139,-146.481 474.437,-144.993"/>
<polygon fill="midnightblue" stroke="midnightblue" points="474.819,-148.473 484.46,-144.078 474.183,-141.502 474.819,-148.473"/>
</g>
<!-- Node5&#45;&gt;Node3 -->
<g id="edge10" class="edge"><title>Node5&#45;&gt;Node3</title>
<path fill="none" stroke="midnightblue" d="M399.321,-124.553C410.527,-127.221 421.728,-130.634 432,-135 450.164,-142.72 450.166,-152.545 468,-161 472.959,-163.351 478.174,-165.508 483.5,-167.483"/>
<polygon fill="midnightblue" stroke="midnightblue" points="482.58,-170.868 493.175,-170.842 484.876,-164.255 482.58,-170.868"/>
</g>
<!-- Node5&#45;&gt;Node4 -->
<g id="edge5" class="edge"><title>Node5&#45;&gt;Node4</title>
<path fill="none" stroke="midnightblue" d="M425.304,-124.522C441.584,-126.008 458.265,-127.53 474.13,-128.979"/>
<polygon fill="midnightblue" stroke="midnightblue" points="474.148,-132.495 484.425,-129.918 474.784,-125.524 474.148,-132.495"/>
</g>
<!-- Node6 -->
<g id="node6" class="node"><title>Node6</title>
<g id="a_node6"><a xlink:href="../../da/d4c/classauthoring__environment_1_1_g_u_i_grid.html#a12341db20ff77949c83ff8e9db4f2e10" target="_top" xlink:title="authoring_environment.GUIGrid.add\lPatchToTile">
<polygon fill="white" stroke="black" points="468.5,-73 468.5,-103 657.5,-103 657.5,-73 468.5,-73"/>
<text text-anchor="start" x="476.5" y="-91" font-family="Helvetica,sans-Serif" font-size="10.00">authoring_environment.GUIGrid.add</text>
<text text-anchor="middle" x="563" y="-80" font-family="Helvetica,sans-Serif" font-size="10.00">PatchToTile</text>
</a>
</g>
</g>
<!-- Node5&#45;&gt;Node6 -->
<g id="edge6" class="edge"><title>Node5&#45;&gt;Node6</title>
<path fill="none" stroke="midnightblue" d="M405.968,-105.481C422.847,-103.59 440.748,-101.584 458.175,-99.6319"/>
<polygon fill="midnightblue" stroke="midnightblue" points="458.821,-103.081 468.369,-98.4898 458.041,-96.125 458.821,-103.081"/>
</g>
<!-- Node10 -->
<g id="node10" class="node"><title>Node10</title>
<g id="a_node10"><a xlink:href="../../da/d4c/classauthoring__environment_1_1_g_u_i_grid.html#ad9520ccdfc36fd1e2b2cbb9ee68c22f1" target="_top" xlink:title="authoring_environment.GUIGrid.add\lPieceToTile">
<polygon fill="white" stroke="black" points="468.5,-24 468.5,-54 657.5,-54 657.5,-24 468.5,-24"/>
<text text-anchor="start" x="476.5" y="-42" font-family="Helvetica,sans-Serif" font-size="10.00">authoring_environment.GUIGrid.add</text>
<text text-anchor="middle" x="563" y="-31" font-family="Helvetica,sans-Serif" font-size="10.00">PieceToTile</text>
</a>
</g>
</g>
<!-- Node5&#45;&gt;Node10 -->
<g id="edge11" class="edge"><title>Node5&#45;&gt;Node10</title>
<path fill="none" stroke="midnightblue" d="M346.569,-105.483C375.745,-94.7752 424.992,-77.1601 468,-64 476.066,-61.5318 484.564,-59.075 493.017,-56.719"/>
<polygon fill="midnightblue" stroke="midnightblue" points="494.177,-60.0301 502.891,-54.005 492.321,-53.2804 494.177,-60.0301"/>
</g>
<!-- Node7 -->
<g id="node7" class="node"><title>Node7</title>
<g id="a_node7"><a xlink:href="../../dc/d5a/classauthoring__environment_1_1_super_tile.html#a7e65040df400ad3d7a62145816f0cca4" target="_top" xlink:title="authoring_environment.Super\lTile.setPatchImage">
<polygon fill="white" stroke="black" points="696,-98 696,-128 856,-128 856,-98 696,-98"/>
<text text-anchor="start" x="704" y="-116" font-family="Helvetica,sans-Serif" font-size="10.00">authoring_environment.Super</text>
<text text-anchor="middle" x="776" y="-105" font-family="Helvetica,sans-Serif" font-size="10.00">Tile.setPatchImage</text>
</a>
</g>
</g>
<!-- Node6&#45;&gt;Node7 -->
<g id="edge7" class="edge"><title>Node6&#45;&gt;Node7</title>
<path fill="none" stroke="midnightblue" d="M657.776,-99.111C667.072,-100.212 676.49,-101.328 685.738,-102.424"/>
<polygon fill="midnightblue" stroke="midnightblue" points="685.349,-105.902 695.691,-103.603 686.173,-98.9509 685.349,-105.902"/>
</g>
<!-- Node8 -->
<g id="node8" class="node"><title>Node8</title>
<g id="a_node8"><a xlink:href="../../d9/df2/classgamedata_1_1gamecomponents_1_1_grid_component.html#a9a5b2359d22e7d79d5065826a0dc8211" target="_top" xlink:title="gamedata.gamecomponents.\lGridComponent.getImageView">
<polygon fill="white" stroke="black" points="694.5,-49 694.5,-79 857.5,-79 857.5,-49 694.5,-49"/>
<text text-anchor="start" x="702.5" y="-67" font-family="Helvetica,sans-Serif" font-size="10.00">gamedata.gamecomponents.</text>
<text text-anchor="middle" x="776" y="-56" font-family="Helvetica,sans-Serif" font-size="10.00">GridComponent.getImageView</text>
</a>
</g>
</g>
<!-- Node6&#45;&gt;Node8 -->
<g id="edge8" class="edge"><title>Node6&#45;&gt;Node8</title>
<path fill="none" stroke="midnightblue" d="M657.776,-77.3335C666.558,-76.3347 675.448,-75.3234 684.201,-74.3278"/>
<polygon fill="midnightblue" stroke="midnightblue" points="684.858,-77.7758 694.399,-73.1679 684.067,-70.8206 684.858,-77.7758"/>
</g>
<!-- Node9 -->
<g id="node9" class="node"><title>Node9</title>
<g id="a_node9"><a xlink:href="../../d9/df2/classgamedata_1_1gamecomponents_1_1_grid_component.html#a224e5aae28655f7e26ff73cbde7b0d99" target="_top" xlink:title="gamedata.gamecomponents.\lGridComponent.setImageView">
<polygon fill="white" stroke="black" points="894,-49 894,-79 1056,-79 1056,-49 894,-49"/>
<text text-anchor="start" x="902" y="-67" font-family="Helvetica,sans-Serif" font-size="10.00">gamedata.gamecomponents.</text>
<text text-anchor="middle" x="975" y="-56" font-family="Helvetica,sans-Serif" font-size="10.00">GridComponent.setImageView</text>
</a>
</g>
</g>
<!-- Node8&#45;&gt;Node9 -->
<g id="edge9" class="edge"><title>Node8&#45;&gt;Node9</title>
<path fill="none" stroke="midnightblue" d="M857.696,-64C866.25,-64 874.989,-64 883.643,-64"/>
<polygon fill="midnightblue" stroke="midnightblue" points="883.748,-67.5001 893.748,-64 883.748,-60.5001 883.748,-67.5001"/>
</g>
<!-- Node10&#45;&gt;Node8 -->
<g id="edge13" class="edge"><title>Node10&#45;&gt;Node8</title>
<path fill="none" stroke="midnightblue" d="M657.776,-50.111C666.558,-51.1514 675.448,-52.2048 684.201,-53.2419"/>
<polygon fill="midnightblue" stroke="midnightblue" points="684.056,-56.7491 694.399,-54.4501 684.88,-49.7977 684.056,-56.7491"/>
</g>
<!-- Node11 -->
<g id="node11" class="node"><title>Node11</title>
<g id="a_node11"><a xlink:href="../../dc/d5a/classauthoring__environment_1_1_super_tile.html#af7f7917a6fb88cc3145cd6f981a80f79" target="_top" xlink:title="authoring_environment.Super\lTile.setPieceImage">
<polygon fill="white" stroke="black" points="696,-0 696,-30 856,-30 856,-0 696,-0"/>
<text text-anchor="start" x="704" y="-18" font-family="Helvetica,sans-Serif" font-size="10.00">authoring_environment.Super</text>
<text text-anchor="middle" x="776" y="-7" font-family="Helvetica,sans-Serif" font-size="10.00">Tile.setPieceImage</text>
</a>
</g>
</g>
<!-- Node10&#45;&gt;Node11 -->
<g id="edge12" class="edge"><title>Node10&#45;&gt;Node11</title>
<path fill="none" stroke="midnightblue" d="M657.776,-28.3335C667.072,-27.2762 676.49,-26.2049 685.738,-25.1531"/>
<polygon fill="midnightblue" stroke="midnightblue" points="686.151,-28.6287 695.691,-24.0209 685.36,-21.6735 686.151,-28.6287"/>
</g>
</g>
</svg>
