<?xml version="1.0" encoding="UTF-8" standalone="no"?>
<!DOCTYPE svg PUBLIC "-//W3C//DTD SVG 1.1//EN"
 "http://www.w3.org/Graphics/SVG/1.1/DTD/svg11.dtd">
<!-- Generated by graphviz version 2.36.0 (20140111.2315)
 -->
<!-- Title: authoring_environment.GUIGrid.removePieceType Pages: 1 -->
<svg width="412pt" height="136pt"
 viewBox="0.00 0.00 412.00 136.00" xmlns="http://www.w3.org/2000/svg" xmlns:xlink="http://www.w3.org/1999/xlink">
<g id="graph0" class="graph" transform="scale(1 1) rotate(0) translate(4 132)">
<title>authoring_environment.GUIGrid.removePieceType</title>
<polygon fill="white" stroke="none" points="-4,4 -4,-132 408,-132 408,4 -4,4"/>
<!-- Node1 -->
<g id="node1" class="node"><title>Node1</title>
<polygon fill="#bfbfbf" stroke="black" points="0,-49 0,-79 208,-79 208,-49 0,-49"/>
<text text-anchor="start" x="8" y="-67" font-family="Helvetica,sans-Serif" font-size="10.00">authoring_environment.GUIGrid.remove</text>
<text text-anchor="middle" x="104" y="-56" font-family="Helvetica,sans-Serif" font-size="10.00">PieceType</text>
</g>
<!-- Node2 -->
<g id="node2" class="node"><title>Node2</title>
<g id="a_node2"><a xlink:href="../../d5/d98/classauthoring_1_1data_1_1_piece_type_data.html#aa1d0d039a5387306af02e423d0f6e495" target="_top" xlink:title="authoring.data.PieceType\lData.getIdSet">
<polygon fill="white" stroke="black" points="255.5,-98 255.5,-128 392.5,-128 392.5,-98 255.5,-98"/>
<text text-anchor="start" x="263.5" y="-116" font-family="Helvetica,sans-Serif" font-size="10.00">authoring.data.PieceType</text>
<text text-anchor="middle" x="324" y="-105" font-family="Helvetica,sans-Serif" font-size="10.00">Data.getIdSet</text>
</a>
</g>
</g>
<!-- Node1&#45;&gt;Node2 -->
<g id="edge1" class="edge"><title>Node1&#45;&gt;Node2</title>
<path fill="none" stroke="midnightblue" d="M171.889,-79.0346C195.43,-84.3259 222.067,-90.3133 246.349,-95.7712"/>
<polygon fill="midnightblue" stroke="midnightblue" points="245.714,-99.2155 256.238,-97.9938 247.249,-92.3859 245.714,-99.2155"/>
</g>
<!-- Node3 -->
<g id="node3" class="node"><title>Node3</title>
<g id="a_node3"><a xlink:href="../../dc/d5a/classauthoring__environment_1_1_super_tile.html#aab4ca6a2e399a4f20d41eb9bc038f7aa" target="_top" xlink:title="authoring_environment.Super\lTile.removePieceImage">
<polygon fill="white" stroke="black" points="244,-49 244,-79 404,-79 404,-49 244,-49"/>
<text text-anchor="start" x="252" y="-67" font-family="Helvetica,sans-Serif" font-size="10.00">authoring_environment.Super</text>
<text text-anchor="middle" x="324" y="-56" font-family="Helvetica,sans-Serif" font-size="10.00">Tile.removePieceImage</text>
</a>
</g>
</g>
<!-- Node1&#45;&gt;Node3 -->
<g id="edge2" class="edge"><title>Node1&#45;&gt;Node3</title>
<path fill="none" stroke="midnightblue" d="M208.254,-64C216.782,-64 225.358,-64 233.77,-64"/>
<polygon fill="midnightblue" stroke="midnightblue" points="233.937,-67.5001 243.937,-64 233.937,-60.5001 233.937,-67.5001"/>
</g>
<!-- Node4 -->
<g id="node4" class="node"><title>Node4</title>
<g id="a_node4"><a xlink:href="../../d6/dda/classauthoring_1_1data_1_1_piece_instance_data.html#a0a7ad68bf47394a4326f13eadfa83363" target="_top" xlink:title="authoring.data.PieceInstance\lData.removeUnknown">
<polygon fill="white" stroke="black" points="246,-0 246,-30 402,-30 402,-0 246,-0"/>
<text text-anchor="start" x="254" y="-18" font-family="Helvetica,sans-Serif" font-size="10.00">authoring.data.PieceInstance</text>
<text text-anchor="middle" x="324" y="-7" font-family="Helvetica,sans-Serif" font-size="10.00">Data.removeUnknown</text>
</a>
</g>
</g>
<!-- Node1&#45;&gt;Node4 -->
<g id="edge3" class="edge"><title>Node1&#45;&gt;Node4</title>
<path fill="none" stroke="midnightblue" d="M171.889,-48.9654C195.43,-43.6741 222.067,-37.6867 246.349,-32.2288"/>
<polygon fill="midnightblue" stroke="midnightblue" points="247.249,-35.6141 256.238,-30.0062 245.714,-28.7845 247.249,-35.6141"/>
</g>
</g>
</svg>
