<?xml version="1.0" encoding="UTF-8" standalone="no"?>
<!DOCTYPE svg PUBLIC "-//W3C//DTD SVG 1.1//EN"
 "http://www.w3.org/Graphics/SVG/1.1/DTD/svg11.dtd">
<!-- Generated by graphviz version 2.36.0 (20140111.2315)
 -->
<!-- Title: authoring_environment.GUIGrid.repopulateGrid Pages: 1 -->
<svg width="1644pt" height="292pt"
 viewBox="0.00 0.00 1644.00 292.00" xmlns="http://www.w3.org/2000/svg" xmlns:xlink="http://www.w3.org/1999/xlink">
<g id="graph0" class="graph" transform="scale(1 1) rotate(0) translate(4 288)">
<title>authoring_environment.GUIGrid.repopulateGrid</title>
<polygon fill="white" stroke="none" points="-4,4 -4,-288 1640,-288 1640,4 -4,4"/>
<!-- Node1 -->
<g id="node1" class="node"><title>Node1</title>
<polygon fill="#bfbfbf" stroke="black" points="0,-120.5 0,-139.5 242,-139.5 242,-120.5 0,-120.5"/>
<text text-anchor="middle" x="121" y="-127.5" font-family="Helvetica,sans-Serif" font-size="10.00">authoring_environment.GUIGrid.repopulateGrid</text>
</g>
<!-- Node2 -->
<g id="node2" class="node"><title>Node2</title>
<g id="a_node2"><a xlink:href="../../df/dd5/classgame_player_1_1_view_controller.html#af1870a0b6786d96d118021fc62b6475d" target="_top" xlink:title="gamePlayer.ViewController.beginGame">
<polygon fill="white" stroke="black" points="1207,-264.5 1207,-283.5 1409,-283.5 1409,-264.5 1207,-264.5"/>
<text text-anchor="middle" x="1308" y="-271.5" font-family="Helvetica,sans-Serif" font-size="10.00">gamePlayer.ViewController.beginGame</text>
</a>
</g>
</g>
<!-- Node1&#45;&gt;Node2 -->
<g id="edge1" class="edge"><title>Node1&#45;&gt;Node2</title>
<path fill="none" stroke="midnightblue" d="M143.991,-145.683C173.17,-165.699 226.962,-199.897 278,-218 418.205,-267.73 459.237,-274 608,-274 608,-274 608,-274 834,-274 962.72,-274 1111.14,-274 1206.88,-274"/>
<polygon fill="midnightblue" stroke="midnightblue" points="145.625,-142.556 135.417,-139.72 141.629,-148.303 145.625,-142.556"/>
</g>
<!-- Node3 -->
<g id="node3" class="node"><title>Node3</title>
<g id="a_node3"><a xlink:href="../../df/dd5/classgame_player_1_1_view_controller.html#a620f8a02d3ac7677cd179fcd812aca55" target="_top" xlink:title="gamePlayer.ViewController.check\lEndActions">
<polygon fill="white" stroke="black" points="292,-137 292,-167 466,-167 466,-137 292,-137"/>
<text text-anchor="start" x="300" y="-155" font-family="Helvetica,sans-Serif" font-size="10.00">gamePlayer.ViewController.check</text>
<text text-anchor="middle" x="379" y="-144" font-family="Helvetica,sans-Serif" font-size="10.00">EndActions</text>
</a>
</g>
</g>
<!-- Node1&#45;&gt;Node3 -->
<g id="edge2" class="edge"><title>Node1&#45;&gt;Node3</title>
<path fill="none" stroke="midnightblue" d="M243.009,-140.399C259.458,-141.813 276.062,-143.24 291.729,-144.586"/>
<polygon fill="midnightblue" stroke="midnightblue" points="243.059,-136.891 232.796,-139.522 242.46,-143.865 243.059,-136.891"/>
</g>
<!-- Node16 -->
<g id="node16" class="node"><title>Node16</title>
<g id="a_node16"><a xlink:href="../../df/dd5/classgame_player_1_1_view_controller.html#a4c1754d129a4eac955390b428eaa448a" target="_top" xlink:title="gamePlayer.ViewController.test\lPlayGame">
<polygon fill="white" stroke="black" points="1225.5,-215 1225.5,-245 1390.5,-245 1390.5,-215 1225.5,-215"/>
<text text-anchor="start" x="1233.5" y="-233" font-family="Helvetica,sans-Serif" font-size="10.00">gamePlayer.ViewController.test</text>
<text text-anchor="middle" x="1308" y="-222" font-family="Helvetica,sans-Serif" font-size="10.00">PlayGame</text>
</a>
</g>
</g>
<!-- Node1&#45;&gt;Node16 -->
<g id="edge27" class="edge"><title>Node1&#45;&gt;Node16</title>
<path fill="none" stroke="midnightblue" d="M156.576,-142.918C235.43,-171.181 435.121,-236 608,-236 608,-236 608,-236 834,-236 971.353,-236 1131.12,-233.439 1225.4,-231.663"/>
<polygon fill="midnightblue" stroke="midnightblue" points="157.728,-139.612 147.133,-139.5 155.345,-146.195 157.728,-139.612"/>
</g>
<!-- Node18 -->
<g id="node18" class="node"><title>Node18</title>
<g id="a_node18"><a xlink:href="../../df/dd5/classgame_player_1_1_view_controller.html#a13ea7814bde61a8042c5b1a23af41416" target="_top" xlink:title="gamePlayer.ViewController.end\lAction">
<polygon fill="white" stroke="black" points="527,-68 527,-98 691,-98 691,-68 527,-68"/>
<text text-anchor="start" x="535" y="-86" font-family="Helvetica,sans-Serif" font-size="10.00">gamePlayer.ViewController.end</text>
<text text-anchor="middle" x="609" y="-75" font-family="Helvetica,sans-Serif" font-size="10.00">Action</text>
</a>
</g>
</g>
<!-- Node1&#45;&gt;Node18 -->
<g id="edge24" class="edge"><title>Node1&#45;&gt;Node18</title>
<path fill="none" stroke="midnightblue" d="M230.553,-119.502C320.217,-110.831 445.521,-98.713 526.714,-90.861"/>
<polygon fill="midnightblue" stroke="midnightblue" points="229.966,-116.042 220.349,-120.489 230.64,-123.01 229.966,-116.042"/>
</g>
<!-- Node20 -->
<g id="node20" class="node"><title>Node20</title>
<g id="a_node20"><a xlink:href="../../d0/d47/classgameengine_1_1movement_1_1_movement.html#a8ea733019f1f434af7d41aa4b91bd533" target="_top" xlink:title="gameengine.movement.Movement.do\lBehavior">
<polygon fill="white" stroke="black" points="278.5,-49 278.5,-79 479.5,-79 479.5,-49 278.5,-49"/>
<text text-anchor="start" x="286.5" y="-67" font-family="Helvetica,sans-Serif" font-size="10.00">gameengine.movement.Movement.do</text>
<text text-anchor="middle" x="379" y="-56" font-family="Helvetica,sans-Serif" font-size="10.00">Behavior</text>
</a>
</g>
</g>
<!-- Node1&#45;&gt;Node20 -->
<g id="edge23" class="edge"><title>Node1&#45;&gt;Node20</title>
<path fill="none" stroke="midnightblue" d="M168.754,-117.946C211.226,-106.996 274.041,-90.802 319.76,-79.0151"/>
<polygon fill="midnightblue" stroke="midnightblue" points="167.761,-114.588 158.951,-120.474 169.508,-121.366 167.761,-114.588"/>
</g>
<!-- Node21 -->
<g id="node21" class="node"><title>Node21</title>
<g id="a_node21"><a xlink:href="../../d8/d4d/classgameengine_1_1player_1_1_simple_a_i_player.html#a4939c006130cc2f30060ccb3abd9d5e5" target="_top" xlink:title="gameengine.player.Simple\lAIPlayer.play">
<polygon fill="white" stroke="black" points="307,-0 307,-30 451,-30 451,-0 307,-0"/>
<text text-anchor="start" x="315" y="-18" font-family="Helvetica,sans-Serif" font-size="10.00">gameengine.player.Simple</text>
<text text-anchor="middle" x="379" y="-7" font-family="Helvetica,sans-Serif" font-size="10.00">AIPlayer.play</text>
</a>
</g>
</g>
<!-- Node1&#45;&gt;Node21 -->
<g id="edge25" class="edge"><title>Node1&#45;&gt;Node21</title>
<path fill="none" stroke="midnightblue" d="M143.724,-114.542C172.937,-94.4245 227.108,-59.4338 278,-39 287.196,-35.3079 297.104,-32.0886 306.984,-29.3107"/>
<polygon fill="midnightblue" stroke="midnightblue" points="141.697,-111.689 135.49,-120.276 145.697,-117.433 141.697,-111.689"/>
</g>
<!-- Node4 -->
<g id="node4" class="node"><title>Node4</title>
<g id="a_node4"><a xlink:href="../../df/dd5/classgame_player_1_1_view_controller.html#a95c2acd43bb39b8606c69971c1cd30f5" target="_top" xlink:title="gamePlayer.ViewController.perform\lAction">
<polygon fill="white" stroke="black" points="516.5,-117 516.5,-147 701.5,-147 701.5,-117 516.5,-117"/>
<text text-anchor="start" x="524.5" y="-135" font-family="Helvetica,sans-Serif" font-size="10.00">gamePlayer.ViewController.perform</text>
<text text-anchor="middle" x="609" y="-124" font-family="Helvetica,sans-Serif" font-size="10.00">Action</text>
</a>
</g>
</g>
<!-- Node3&#45;&gt;Node4 -->
<g id="edge3" class="edge"><title>Node3&#45;&gt;Node4</title>
<path fill="none" stroke="midnightblue" d="M476.276,-143.555C489.555,-142.39 503.164,-141.196 516.357,-140.039"/>
<polygon fill="midnightblue" stroke="midnightblue" points="475.853,-140.078 466.197,-144.439 476.465,-147.052 475.853,-140.078"/>
</g>
<!-- Node3&#45;&gt;Node18 -->
<g id="edge21" class="edge"><title>Node3&#45;&gt;Node18</title>
<path fill="none" stroke="midnightblue" d="M443.456,-134.041C455.658,-130.284 468.282,-126.186 480,-122 496.323,-116.169 499.574,-112.534 516,-107 525.386,-103.838 535.425,-100.839 545.297,-98.1018"/>
<polygon fill="midnightblue" stroke="midnightblue" points="442.339,-130.722 433.787,-136.976 444.372,-137.421 442.339,-130.722"/>
</g>
<!-- Node5 -->
<g id="node5" class="node"><title>Node5</title>
<g id="a_node5"><a xlink:href="../../da/d55/classgame_player_1_1_keyboard_movement.html#af45fd8d279b1ee2d6be5466d425485ab" target="_top" xlink:title="gamePlayer.KeyboardMovement.set\lMovementKeyControl">
<polygon fill="white" stroke="black" points="738.5,-51 738.5,-81 927.5,-81 927.5,-51 738.5,-51"/>
<text text-anchor="start" x="746.5" y="-69" font-family="Helvetica,sans-Serif" font-size="10.00">gamePlayer.KeyboardMovement.set</text>
<text text-anchor="middle" x="833" y="-58" font-family="Helvetica,sans-Serif" font-size="10.00">MovementKeyControl</text>
</a>
</g>
</g>
<!-- Node4&#45;&gt;Node5 -->
<g id="edge4" class="edge"><title>Node4&#45;&gt;Node5</title>
<path fill="none" stroke="midnightblue" d="M648.157,-113.732C664.745,-108.557 684.376,-103.171 702,-98 713.297,-94.685 735.451,-87.7532 758.316,-81.0453"/>
<polygon fill="midnightblue" stroke="midnightblue" points="646.71,-110.522 638.268,-116.924 648.86,-117.183 646.71,-110.522"/>
</g>
<!-- Node13 -->
<g id="node13" class="node"><title>Node13</title>
<g id="a_node13"><a xlink:href="../../df/dd5/classgame_player_1_1_view_controller.html#a22ee80193bbac79a935ee961a183bfcd" target="_top" xlink:title="gamePlayer.ViewController.set\lOnClick">
<polygon fill="white" stroke="black" points="752.5,-139 752.5,-169 913.5,-169 913.5,-139 752.5,-139"/>
<text text-anchor="start" x="760.5" y="-157" font-family="Helvetica,sans-Serif" font-size="10.00">gamePlayer.ViewController.set</text>
<text text-anchor="middle" x="833" y="-146" font-family="Helvetica,sans-Serif" font-size="10.00">OnClick</text>
</a>
</g>
</g>
<!-- Node4&#45;&gt;Node13 -->
<g id="edge14" class="edge"><title>Node4&#45;&gt;Node13</title>
<path fill="none" stroke="midnightblue" d="M711.903,-142.098C725.469,-143.443 739.217,-144.805 752.331,-146.105"/>
<polygon fill="midnightblue" stroke="midnightblue" points="711.874,-138.579 701.578,-141.075 711.184,-145.544 711.874,-138.579"/>
</g>
<!-- Node5&#45;&gt;Node4 -->
<g id="edge12" class="edge"><title>Node5&#45;&gt;Node4</title>
<path fill="none" stroke="midnightblue" d="M795.18,-84.8152C763.269,-96.982 719.544,-110.852 702,-116 700.888,-116.326 699.769,-116.653 698.642,-116.981"/>
<polygon fill="midnightblue" stroke="midnightblue" points="796.624,-88.0085 804.661,-81.1055 794.074,-81.4896 796.624,-88.0085"/>
</g>
<!-- Node6 -->
<g id="node6" class="node"><title>Node6</title>
<g id="a_node6"><a xlink:href="../../df/dd5/classgame_player_1_1_view_controller.html#a7eb038fd9f20604ade0406f27ef76657" target="_top" xlink:title="gamePlayer.ViewController.bind\lAction">
<polygon fill="white" stroke="black" points="982.5,-51 982.5,-81 1149.5,-81 1149.5,-51 982.5,-51"/>
<text text-anchor="start" x="990.5" y="-69" font-family="Helvetica,sans-Serif" font-size="10.00">gamePlayer.ViewController.bind</text>
<text text-anchor="middle" x="1066" y="-58" font-family="Helvetica,sans-Serif" font-size="10.00">Action</text>
</a>
</g>
</g>
<!-- Node5&#45;&gt;Node6 -->
<g id="edge5" class="edge"><title>Node5&#45;&gt;Node6</title>
<path fill="none" stroke="midnightblue" d="M937.89,-66C952.798,-66 967.967,-66 982.389,-66"/>
<polygon fill="midnightblue" stroke="midnightblue" points="937.624,-62.5001 927.624,-66 937.624,-69.5001 937.624,-62.5001"/>
</g>
<!-- Node12 -->
<g id="node12" class="node"><title>Node12</title>
<g id="a_node12"><a xlink:href="../../df/dd5/classgame_player_1_1_view_controller.html#a27da17c1280cd953a14f6b76b18f9a4b" target="_top" xlink:title="gamePlayer.ViewController.toggle\lKeyboardControl">
<polygon fill="white" stroke="black" points="978,-2 978,-32 1154,-32 1154,-2 978,-2"/>
<text text-anchor="start" x="986" y="-20" font-family="Helvetica,sans-Serif" font-size="10.00">gamePlayer.ViewController.toggle</text>
<text text-anchor="middle" x="1066" y="-9" font-family="Helvetica,sans-Serif" font-size="10.00">KeyboardControl</text>
</a>
</g>
</g>
<!-- Node5&#45;&gt;Node12 -->
<g id="edge13" class="edge"><title>Node5&#45;&gt;Node12</title>
<path fill="none" stroke="midnightblue" d="M914.674,-48.8873C940.597,-43.3885 969.102,-37.342 994.257,-32.0062"/>
<polygon fill="midnightblue" stroke="midnightblue" points="913.934,-45.4664 904.877,-50.9654 915.386,-52.3141 913.934,-45.4664"/>
</g>
<!-- Node7 -->
<g id="node7" class="node"><title>Node7</title>
<g id="a_node7"><a xlink:href="../../d1/db7/classgame_player_1_1_keyboard_action.html#a08ace57322b8639020688dd9493c3e1f" target="_top" xlink:title="gamePlayer.KeyboardAction.set\lActionKeyControl">
<polygon fill="white" stroke="black" points="1224,-98 1224,-128 1392,-128 1392,-98 1224,-98"/>
<text text-anchor="start" x="1232" y="-116" font-family="Helvetica,sans-Serif" font-size="10.00">gamePlayer.KeyboardAction.set</text>
<text text-anchor="middle" x="1308" y="-105" font-family="Helvetica,sans-Serif" font-size="10.00">ActionKeyControl</text>
</a>
</g>
</g>
<!-- Node6&#45;&gt;Node7 -->
<g id="edge6" class="edge"><title>Node6&#45;&gt;Node7</title>
<path fill="none" stroke="midnightblue" d="M1153.48,-82.9347C1178.59,-87.8532 1205.84,-93.1888 1230.31,-97.981"/>
<polygon fill="midnightblue" stroke="midnightblue" points="1154.08,-79.4875 1143.6,-81.0003 1152.74,-86.357 1154.08,-79.4875"/>
</g>
<!-- Node8 -->
<g id="node8" class="node"><title>Node8</title>
<g id="a_node8"><a xlink:href="../../df/dd5/classgame_player_1_1_view_controller.html#ab8c14a8c53be9021a62d0107c2f75ef6" target="_top" xlink:title="gamePlayer.ViewController.update\lActions">
<polygon fill="white" stroke="black" points="1218,-49 1218,-79 1398,-79 1398,-49 1218,-49"/>
<text text-anchor="start" x="1226" y="-67" font-family="Helvetica,sans-Serif" font-size="10.00">gamePlayer.ViewController.update</text>
<text text-anchor="middle" x="1308" y="-56" font-family="Helvetica,sans-Serif" font-size="10.00">Actions</text>
</a>
</g>
</g>
<!-- Node6&#45;&gt;Node8 -->
<g id="edge8" class="edge"><title>Node6&#45;&gt;Node8</title>
<path fill="none" stroke="midnightblue" d="M1159.75,-65.2271C1178.78,-65.0685 1198.78,-64.9018 1217.69,-64.7442"/>
<polygon fill="midnightblue" stroke="midnightblue" points="1159.56,-61.7284 1149.59,-65.3117 1159.62,-68.7282 1159.56,-61.7284"/>
</g>
<!-- Node11 -->
<g id="node11" class="node"><title>Node11</title>
<g id="a_node11"><a xlink:href="../../df/df0/classtests_1_1_view_controller_test.html#a74e99f9c72cbdcd2d56271b2ad2df1ce" target="_top" xlink:title="tests.ViewControllerTest.bind\lActionTest">
<polygon fill="white" stroke="black" points="1231,-0 1231,-30 1385,-30 1385,-0 1231,-0"/>
<text text-anchor="start" x="1239" y="-18" font-family="Helvetica,sans-Serif" font-size="10.00">tests.ViewControllerTest.bind</text>
<text text-anchor="middle" x="1308" y="-7" font-family="Helvetica,sans-Serif" font-size="10.00">ActionTest</text>
</a>
</g>
</g>
<!-- Node6&#45;&gt;Node11 -->
<g id="edge11" class="edge"><title>Node6&#45;&gt;Node11</title>
<path fill="none" stroke="midnightblue" d="M1147.72,-48.8471C1176.45,-42.7415 1208.56,-35.9183 1236.38,-30.0065"/>
<polygon fill="midnightblue" stroke="midnightblue" points="1146.76,-45.4719 1137.71,-50.9742 1148.22,-52.3191 1146.76,-45.4719"/>
</g>
<!-- Node7&#45;&gt;Node4 -->
<g id="edge7" class="edge"><title>Node7&#45;&gt;Node4</title>
<path fill="none" stroke="midnightblue" d="M1213.71,-115.543C1079.86,-119.192 834.868,-125.87 701.837,-129.497"/>
<polygon fill="midnightblue" stroke="midnightblue" points="1214.04,-119.036 1223.94,-115.264 1213.85,-112.038 1214.04,-119.036"/>
</g>
<!-- Node9 -->
<g id="node9" class="node"><title>Node9</title>
<g id="a_node9"><a xlink:href="../../d6/d24/classgame_player_1_1_select_state.html#a801827392f0faeee6b96925060d77838" target="_top" xlink:title="gamePlayer.SelectState.on\lClick">
<polygon fill="white" stroke="black" points="1468.5,-25 1468.5,-55 1615.5,-55 1615.5,-25 1468.5,-25"/>
<text text-anchor="start" x="1476.5" y="-43" font-family="Helvetica,sans-Serif" font-size="10.00">gamePlayer.SelectState.on</text>
<text text-anchor="middle" x="1542" y="-32" font-family="Helvetica,sans-Serif" font-size="10.00">Click</text>
</a>
</g>
</g>
<!-- Node8&#45;&gt;Node9 -->
<g id="edge9" class="edge"><title>Node8&#45;&gt;Node9</title>
<path fill="none" stroke="midnightblue" d="M1408.2,-53.7378C1428.4,-51.6479 1449.3,-49.4862 1468.37,-47.5135"/>
<polygon fill="midnightblue" stroke="midnightblue" points="1407.62,-50.2791 1398.03,-54.7896 1408.34,-57.242 1407.62,-50.2791"/>
</g>
<!-- Node10 -->
<g id="node10" class="node"><title>Node10</title>
<g id="a_node10"><a xlink:href="../../df/df0/classtests_1_1_view_controller_test.html#a785df2c49a72c183c22163ce927f5df1" target="_top" xlink:title="tests.ViewControllerTest.update\lActionsTest">
<polygon fill="white" stroke="black" points="1458.5,-74 1458.5,-104 1625.5,-104 1625.5,-74 1458.5,-74"/>
<text text-anchor="start" x="1466.5" y="-92" font-family="Helvetica,sans-Serif" font-size="10.00">tests.ViewControllerTest.update</text>
<text text-anchor="middle" x="1542" y="-81" font-family="Helvetica,sans-Serif" font-size="10.00">ActionsTest</text>
</a>
</g>
</g>
<!-- Node8&#45;&gt;Node10 -->
<g id="edge10" class="edge"><title>Node8&#45;&gt;Node10</title>
<path fill="none" stroke="midnightblue" d="M1408.33,-74.7039C1424.99,-76.4989 1442.12,-78.3443 1458.3,-80.088"/>
<polygon fill="midnightblue" stroke="midnightblue" points="1408.35,-71.1858 1398.03,-73.5942 1407.6,-78.1455 1408.35,-71.1858"/>
</g>
<!-- Node14 -->
<g id="node14" class="node"><title>Node14</title>
<g id="a_node14"><a xlink:href="../../df/dd5/classgame_player_1_1_view_controller.html#a10a40967a873f067cf91b024ff85b38e" target="_top" xlink:title="gamePlayer.ViewController.initializeGrid">
<polygon fill="white" stroke="black" points="964,-188.5 964,-207.5 1168,-207.5 1168,-188.5 964,-188.5"/>
<text text-anchor="middle" x="1066" y="-195.5" font-family="Helvetica,sans-Serif" font-size="10.00">gamePlayer.ViewController.initializeGrid</text>
</a>
</g>
</g>
<!-- Node13&#45;&gt;Node14 -->
<g id="edge15" class="edge"><title>Node13&#45;&gt;Node14</title>
<path fill="none" stroke="midnightblue" d="M922.89,-170.931C954.146,-176.885 988.152,-183.362 1015.06,-188.488"/>
<polygon fill="midnightblue" stroke="midnightblue" points="923.329,-167.452 912.851,-169.019 922.019,-174.329 923.329,-167.452"/>
</g>
<!-- Node14&#45;&gt;Node2 -->
<g id="edge17" class="edge"><title>Node14&#45;&gt;Node2</title>
<path fill="none" stroke="midnightblue" d="M1096.34,-211.963C1123.68,-224.494 1165.84,-242.617 1204,-254 1217.88,-258.14 1233.07,-261.637 1247.42,-264.492"/>
<polygon fill="midnightblue" stroke="midnightblue" points="1097.52,-208.652 1086.98,-207.622 1094.58,-215.003 1097.52,-208.652"/>
</g>
<!-- Node14&#45;&gt;Node3 -->
<g id="edge20" class="edge"><title>Node14&#45;&gt;Node3</title>
<path fill="none" stroke="midnightblue" d="M953.712,-191.509C890.454,-187.741 809.779,-182.801 738,-178 645.045,-171.782 538.567,-163.959 466.061,-158.527"/>
<polygon fill="midnightblue" stroke="midnightblue" points="953.521,-195.004 963.711,-192.104 953.937,-188.016 953.521,-195.004"/>
</g>
<!-- Node15 -->
<g id="node15" class="node"><title>Node15</title>
<g id="a_node15"><a xlink:href="../../df/dd5/classgame_player_1_1_view_controller.html#a0d1a3d443966f151b070dc751d2faf9a" target="_top" xlink:title="gamePlayer.ViewController.restartGame">
<polygon fill="white" stroke="black" points="1204,-176.5 1204,-195.5 1412,-195.5 1412,-176.5 1204,-176.5"/>
<text text-anchor="middle" x="1308" y="-183.5" font-family="Helvetica,sans-Serif" font-size="10.00">gamePlayer.ViewController.restartGame</text>
</a>
</g>
</g>
<!-- Node14&#45;&gt;Node15 -->
<g id="edge16" class="edge"><title>Node14&#45;&gt;Node15</title>
<path fill="none" stroke="midnightblue" d="M1178.08,-192.446C1186.62,-192.019 1195.23,-191.588 1203.72,-191.164"/>
<polygon fill="midnightblue" stroke="midnightblue" points="1177.9,-188.951 1168.09,-192.946 1178.25,-195.942 1177.9,-188.951"/>
</g>
<!-- Node14&#45;&gt;Node16 -->
<g id="edge18" class="edge"><title>Node14&#45;&gt;Node16</title>
<path fill="none" stroke="midnightblue" d="M1148.46,-208.862C1173.28,-212.171 1200.56,-215.808 1225.38,-219.118"/>
<polygon fill="midnightblue" stroke="midnightblue" points="1148.73,-205.367 1138.36,-207.514 1147.81,-212.305 1148.73,-205.367"/>
</g>
<!-- Node17 -->
<g id="node17" class="node"><title>Node17</title>
<g id="a_node17"><a xlink:href="../../db/d40/classfxml__main_1_1_authoring_controller.html#a2ec133c8edf0a7ab1e84f2e12455233d" target="_top" xlink:title="fxml_main.AuthoringController.save\lAsGame">
<polygon fill="white" stroke="black" points="1448.5,-215 1448.5,-245 1635.5,-245 1635.5,-215 1448.5,-215"/>
<text text-anchor="start" x="1456.5" y="-233" font-family="Helvetica,sans-Serif" font-size="10.00">fxml_main.AuthoringController.save</text>
<text text-anchor="middle" x="1542" y="-222" font-family="Helvetica,sans-Serif" font-size="10.00">AsGame</text>
</a>
</g>
</g>
<!-- Node16&#45;&gt;Node17 -->
<g id="edge19" class="edge"><title>Node16&#45;&gt;Node17</title>
<path fill="none" stroke="midnightblue" d="M1400.96,-230C1416.59,-230 1432.83,-230 1448.47,-230"/>
<polygon fill="midnightblue" stroke="midnightblue" points="1400.79,-226.5 1390.79,-230 1400.79,-233.5 1400.79,-226.5"/>
</g>
<!-- Node19 -->
<g id="node19" class="node"><title>Node19</title>
<g id="a_node19"><a xlink:href="../../db/d00/classgame_player_1_1_apply_state.html#aed42c1aba25264bc6880036f693a1c9e" target="_top" xlink:title="gamePlayer.ApplyState.on\lClick">
<polygon fill="white" stroke="black" points="761.5,-2 761.5,-32 904.5,-32 904.5,-2 761.5,-2"/>
<text text-anchor="start" x="769.5" y="-20" font-family="Helvetica,sans-Serif" font-size="10.00">gamePlayer.ApplyState.on</text>
<text text-anchor="middle" x="833" y="-9" font-family="Helvetica,sans-Serif" font-size="10.00">Click</text>
</a>
</g>
</g>
<!-- Node18&#45;&gt;Node19 -->
<g id="edge22" class="edge"><title>Node18&#45;&gt;Node19</title>
<path fill="none" stroke="midnightblue" d="M662.881,-64.7652C685.855,-57.0728 713.146,-48.2416 738,-41 748.511,-37.9375 759.744,-34.8829 770.656,-32.0297"/>
<polygon fill="midnightblue" stroke="midnightblue" points="661.68,-61.4766 653.319,-67.9843 663.913,-68.1107 661.68,-61.4766"/>
</g>
<!-- Node22 -->
<g id="node22" class="node"><title>Node22</title>
<g id="a_node22"><a xlink:href="../../d8/d4d/classgameengine_1_1player_1_1_simple_a_i_player.html#a9a241075e35d6039a453f51445e9837c" target="_top" xlink:title="gameengine.player.Simple\lAIPlayer.startTurn">
<polygon fill="white" stroke="black" points="537,-0 537,-30 681,-30 681,-0 537,-0"/>
<text text-anchor="start" x="545" y="-18" font-family="Helvetica,sans-Serif" font-size="10.00">gameengine.player.Simple</text>
<text text-anchor="middle" x="609" y="-7" font-family="Helvetica,sans-Serif" font-size="10.00">AIPlayer.startTurn</text>
</a>
</g>
</g>
<!-- Node21&#45;&gt;Node22 -->
<g id="edge26" class="edge"><title>Node21&#45;&gt;Node22</title>
<path fill="none" stroke="midnightblue" d="M461.278,-15C485.996,-15 512.956,-15 536.945,-15"/>
<polygon fill="midnightblue" stroke="midnightblue" points="461.203,-11.5001 451.203,-15 461.203,-18.5001 461.203,-11.5001"/>
</g>
</g>
</svg>
