<?xml version="1.0" encoding="UTF-8" standalone="no"?>
<!DOCTYPE svg PUBLIC "-//W3C//DTD SVG 1.1//EN"
 "http://www.w3.org/Graphics/SVG/1.1/DTD/svg11.dtd">
<!-- Generated by graphviz version 2.36.0 (20140111.2315)
 -->
<!-- Title: authoring_environment.GUIGrid.addPieceAtLoc Pages: 1 -->
<svg width="1060pt" height="202pt"
 viewBox="0.00 0.00 1060.00 202.00" xmlns="http://www.w3.org/2000/svg" xmlns:xlink="http://www.w3.org/1999/xlink">
<g id="graph0" class="graph" transform="scale(1 1) rotate(0) translate(4 198)">
<title>authoring_environment.GUIGrid.addPieceAtLoc</title>
<polygon fill="white" stroke="none" points="-4,4 -4,-198 1056,-198 1056,4 -4,4"/>
<!-- Node1 -->
<g id="node1" class="node"><title>Node1</title>
<polygon fill="#bfbfbf" stroke="black" points="0.5,-49 0.5,-79 189.5,-79 189.5,-49 0.5,-49"/>
<text text-anchor="start" x="8.5" y="-67" font-family="Helvetica,sans-Serif" font-size="10.00">authoring_environment.GUIGrid.add</text>
<text text-anchor="middle" x="95" y="-56" font-family="Helvetica,sans-Serif" font-size="10.00">PieceAtLoc</text>
</g>
<!-- Node2 -->
<g id="node2" class="node"><title>Node2</title>
<g id="a_node2"><a xlink:href="../../d3/d12/classtests_1_1_test_game_creator.html#a4c85cf768c7e38e9b2f6db858e8764ec" target="_top" xlink:title="tests.TestGameCreator.create\lNewGrid">
<polygon fill="white" stroke="black" points="233.5,-98 233.5,-128 394.5,-128 394.5,-98 233.5,-98"/>
<text text-anchor="start" x="241.5" y="-116" font-family="Helvetica,sans-Serif" font-size="10.00">tests.TestGameCreator.create</text>
<text text-anchor="middle" x="314" y="-105" font-family="Helvetica,sans-Serif" font-size="10.00">NewGrid</text>
</a>
</g>
</g>
<!-- Node1&#45;&gt;Node2 -->
<g id="edge1" class="edge"><title>Node1&#45;&gt;Node2</title>
<path fill="none" stroke="midnightblue" d="M172.429,-81.2581C196.608,-86.718 223.122,-92.705 246.544,-97.9938"/>
<polygon fill="midnightblue" stroke="midnightblue" points="173.107,-77.8233 162.582,-79.0346 171.565,-84.6513 173.107,-77.8233"/>
</g>
<!-- Node10 -->
<g id="node10" class="node"><title>Node10</title>
<g id="a_node10"><a xlink:href="../../d1/d90/classgamedata_1_1events_1_1globalaction_1_1_make_piece_at_location.html#a2e5e6942db2fced94205f89f25aa859a" target="_top" xlink:title="gamedata.events.globalaction.\lMakePieceAtLocation.doBehavior">
<polygon fill="white" stroke="black" points="226,-49 226,-79 402,-79 402,-49 226,-49"/>
<text text-anchor="start" x="234" y="-67" font-family="Helvetica,sans-Serif" font-size="10.00">gamedata.events.globalaction.</text>
<text text-anchor="middle" x="314" y="-56" font-family="Helvetica,sans-Serif" font-size="10.00">MakePieceAtLocation.doBehavior</text>
</a>
</g>
</g>
<!-- Node1&#45;&gt;Node10 -->
<g id="edge9" class="edge"><title>Node1&#45;&gt;Node10</title>
<path fill="none" stroke="midnightblue" d="M199.81,-64C208.533,-64 217.297,-64 225.875,-64"/>
<polygon fill="midnightblue" stroke="midnightblue" points="199.602,-60.5001 189.602,-64 199.602,-67.5001 199.602,-60.5001"/>
</g>
<!-- Node12 -->
<g id="node12" class="node"><title>Node12</title>
<g id="a_node12"><a xlink:href="../../dc/d77/classfxml__main_1_1_piece_controller.html#a57d25cb33125e10494c536f9fbce1434" target="_top" xlink:title="fxml_main.PieceController.make\lEntryBox">
<polygon fill="white" stroke="black" points="229,-0 229,-30 399,-30 399,-0 229,-0"/>
<text text-anchor="start" x="237" y="-18" font-family="Helvetica,sans-Serif" font-size="10.00">fxml_main.PieceController.make</text>
<text text-anchor="middle" x="314" y="-7" font-family="Helvetica,sans-Serif" font-size="10.00">EntryBox</text>
</a>
</g>
</g>
<!-- Node1&#45;&gt;Node12 -->
<g id="edge11" class="edge"><title>Node1&#45;&gt;Node12</title>
<path fill="none" stroke="midnightblue" d="M172.429,-46.7419C196.608,-41.282 223.122,-35.295 246.544,-30.0062"/>
<polygon fill="midnightblue" stroke="midnightblue" points="171.565,-43.3487 162.582,-48.9654 173.107,-50.1767 171.565,-43.3487"/>
</g>
<!-- Node3 -->
<g id="node3" class="node"><title>Node3</title>
<g id="a_node3"><a xlink:href="../../d3/d12/classtests_1_1_test_game_creator.html#a6088501ec4cce8d90d4561b695065a0d" target="_top" xlink:title="tests.TestGameCreator.create\lNewGame">
<polygon fill="white" stroke="black" points="438.5,-98 438.5,-128 599.5,-128 599.5,-98 438.5,-98"/>
<text text-anchor="start" x="446.5" y="-116" font-family="Helvetica,sans-Serif" font-size="10.00">tests.TestGameCreator.create</text>
<text text-anchor="middle" x="519" y="-105" font-family="Helvetica,sans-Serif" font-size="10.00">NewGame</text>
</a>
</g>
</g>
<!-- Node2&#45;&gt;Node3 -->
<g id="edge2" class="edge"><title>Node2&#45;&gt;Node3</title>
<path fill="none" stroke="midnightblue" d="M404.808,-113C415.947,-113 427.275,-113 438.248,-113"/>
<polygon fill="midnightblue" stroke="midnightblue" points="404.648,-109.5 394.648,-113 404.648,-116.5 404.648,-109.5"/>
</g>
<!-- Node4 -->
<g id="node4" class="node"><title>Node4</title>
<g id="a_node4"><a xlink:href="../../d8/d93/classauthoring_1_1concretefeatures_1_1menus_1_1_file_x.html#a06eadcf7852f723bc5a70d08a1bc5f3f" target="_top" xlink:title="authoring.concretefeatures.menus.\lFileX.handleSave">
<polygon fill="white" stroke="black" points="640,-164 640,-194 826,-194 826,-164 640,-164"/>
<text text-anchor="start" x="648" y="-182" font-family="Helvetica,sans-Serif" font-size="10.00">authoring.concretefeatures.menus.</text>
<text text-anchor="middle" x="733" y="-171" font-family="Helvetica,sans-Serif" font-size="10.00">FileX.handleSave</text>
</a>
</g>
</g>
<!-- Node3&#45;&gt;Node4 -->
<g id="edge3" class="edge"><title>Node3&#45;&gt;Node4</title>
<path fill="none" stroke="midnightblue" d="M569.418,-131.509C589.891,-138.904 613.961,-147.249 636,-154 647.28,-157.455 659.397,-160.852 671.095,-163.973"/>
<polygon fill="midnightblue" stroke="midnightblue" points="570.578,-128.207 559.984,-128.077 568.185,-134.785 570.578,-128.207"/>
</g>
<!-- Node6 -->
<g id="node6" class="node"><title>Node6</title>
<g id="a_node6"><a xlink:href="../../df/dd5/classgame_player_1_1_view_controller.html#ac0350fa190876455755b7fb25f567af1" target="_top" xlink:title="gamePlayer.ViewController.testGame">
<polygon fill="white" stroke="black" points="636,-125.5 636,-144.5 830,-144.5 830,-125.5 636,-125.5"/>
<text text-anchor="middle" x="733" y="-132.5" font-family="Helvetica,sans-Serif" font-size="10.00">gamePlayer.ViewController.testGame</text>
</a>
</g>
</g>
<!-- Node3&#45;&gt;Node6 -->
<g id="edge5" class="edge"><title>Node3&#45;&gt;Node6</title>
<path fill="none" stroke="midnightblue" d="M609.598,-122.298C619.735,-123.35 630.077,-124.423 640.241,-125.478"/>
<polygon fill="midnightblue" stroke="midnightblue" points="609.852,-118.806 599.544,-121.255 609.129,-125.768 609.852,-118.806"/>
</g>
<!-- Node7 -->
<g id="node7" class="node"><title>Node7</title>
<g id="a_node7"><a xlink:href="../../d9/d51/classtests_1_1_global_action_tester.html#acc8e81a79086b93c043129dba02b3854" target="_top" xlink:title="tests.GlobalActionTester.\lGlobalActionTester">
<polygon fill="white" stroke="black" points="666,-76 666,-106 800,-106 800,-76 666,-76"/>
<text text-anchor="start" x="674" y="-94" font-family="Helvetica,sans-Serif" font-size="10.00">tests.GlobalActionTester.</text>
<text text-anchor="middle" x="733" y="-83" font-family="Helvetica,sans-Serif" font-size="10.00">GlobalActionTester</text>
</a>
</g>
</g>
<!-- Node3&#45;&gt;Node7 -->
<g id="edge6" class="edge"><title>Node3&#45;&gt;Node7</title>
<path fill="none" stroke="midnightblue" d="M609.629,-103.699C628.488,-101.742 648.055,-99.7113 665.864,-97.8632"/>
<polygon fill="midnightblue" stroke="midnightblue" points="609.129,-100.232 599.544,-104.745 609.852,-107.194 609.129,-100.232"/>
</g>
<!-- Node8 -->
<g id="node8" class="node"><title>Node8</title>
<g id="a_node8"><a xlink:href="../../d7/df4/classtests_1_1_j_s_o_n_tester_main.html#a5f1fa68f3fcb37a473271cdbfeaaa92e" target="_top" xlink:title="tests.JSONTesterMain.test\lJSONwrite">
<polygon fill="white" stroke="black" points="663,-27 663,-57 803,-57 803,-27 663,-27"/>
<text text-anchor="start" x="671" y="-45" font-family="Helvetica,sans-Serif" font-size="10.00">tests.JSONTesterMain.test</text>
<text text-anchor="middle" x="733" y="-34" font-family="Helvetica,sans-Serif" font-size="10.00">JSONwrite</text>
</a>
</g>
</g>
<!-- Node3&#45;&gt;Node8 -->
<g id="edge7" class="edge"><title>Node3&#45;&gt;Node8</title>
<path fill="none" stroke="midnightblue" d="M584.227,-94.4767C589.626,-92.4542 594.948,-90.291 600,-88 617.077,-80.2563 618.706,-73.2461 636,-66 644.556,-62.415 653.774,-59.2746 662.994,-56.5507"/>
<polygon fill="midnightblue" stroke="midnightblue" points="582.707,-91.3029 574.467,-97.9625 585.061,-97.895 582.707,-91.3029"/>
</g>
<!-- Node5 -->
<g id="node5" class="node"><title>Node5</title>
<g id="a_node5"><a xlink:href="../../d8/d93/classauthoring_1_1concretefeatures_1_1menus_1_1_file_x.html#a4b99e0877ab0c9e769217c815f3b99a1" target="_top" xlink:title="authoring.concretefeatures.menus.\lFileX.FileX">
<polygon fill="white" stroke="black" points="866,-164 866,-194 1052,-194 1052,-164 866,-164"/>
<text text-anchor="start" x="874" y="-182" font-family="Helvetica,sans-Serif" font-size="10.00">authoring.concretefeatures.menus.</text>
<text text-anchor="middle" x="959" y="-171" font-family="Helvetica,sans-Serif" font-size="10.00">FileX.FileX</text>
</a>
</g>
</g>
<!-- Node4&#45;&gt;Node5 -->
<g id="edge4" class="edge"><title>Node4&#45;&gt;Node5</title>
<path fill="none" stroke="midnightblue" d="M836.315,-179C846.184,-179 856.155,-179 865.916,-179"/>
<polygon fill="midnightblue" stroke="midnightblue" points="836.079,-175.5 826.079,-179 836.079,-182.5 836.079,-175.5"/>
</g>
<!-- Node9 -->
<g id="node9" class="node"><title>Node9</title>
<g id="a_node9"><a xlink:href="../../d7/df4/classtests_1_1_j_s_o_n_tester_main.html#a931215da47157cbc5157c6a9df31ccd4" target="_top" xlink:title="tests.JSONTesterMain.main">
<polygon fill="white" stroke="black" points="886,-32.5 886,-51.5 1032,-51.5 1032,-32.5 886,-32.5"/>
<text text-anchor="middle" x="959" y="-39.5" font-family="Helvetica,sans-Serif" font-size="10.00">tests.JSONTesterMain.main</text>
</a>
</g>
</g>
<!-- Node8&#45;&gt;Node9 -->
<g id="edge8" class="edge"><title>Node8&#45;&gt;Node9</title>
<path fill="none" stroke="midnightblue" d="M813.346,-42C836.918,-42 862.605,-42 885.704,-42"/>
<polygon fill="midnightblue" stroke="midnightblue" points="813.035,-38.5001 803.035,-42 813.035,-45.5001 813.035,-38.5001"/>
</g>
<!-- Node11 -->
<g id="node11" class="node"><title>Node11</title>
<g id="a_node11"><a xlink:href="../../d9/d51/classtests_1_1_global_action_tester.html#a26ff5051aca4e703848f88b149cfef39" target="_top" xlink:title="tests.GlobalActionTester.\lTestCreatePiece">
<polygon fill="white" stroke="black" points="452,-49 452,-79 586,-79 586,-49 452,-49"/>
<text text-anchor="start" x="460" y="-67" font-family="Helvetica,sans-Serif" font-size="10.00">tests.GlobalActionTester.</text>
<text text-anchor="middle" x="519" y="-56" font-family="Helvetica,sans-Serif" font-size="10.00">TestCreatePiece</text>
</a>
</g>
</g>
<!-- Node10&#45;&gt;Node11 -->
<g id="edge10" class="edge"><title>Node10&#45;&gt;Node11</title>
<path fill="none" stroke="midnightblue" d="M412.468,-64C425.849,-64 439.324,-64 451.96,-64"/>
<polygon fill="midnightblue" stroke="midnightblue" points="412.268,-60.5001 402.268,-64 412.268,-67.5001 412.268,-60.5001"/>
</g>
</g>
</svg>
