<?xml version="1.0" encoding="UTF-8" standalone="no"?>
<!DOCTYPE svg PUBLIC "-//W3C//DTD SVG 1.1//EN"
 "http://www.w3.org/Graphics/SVG/1.1/DTD/svg11.dtd">
<!-- Generated by graphviz version 2.36.0 (20140111.2315)
 -->
<!-- Title: authoring_environment.GUIGrid.repopulateGrid Pages: 1 -->
<svg width="1832pt" height="424pt"
 viewBox="0.00 0.00 1832.00 424.00" xmlns="http://www.w3.org/2000/svg" xmlns:xlink="http://www.w3.org/1999/xlink">
<g id="graph0" class="graph" transform="scale(1 1) rotate(0) translate(4 420)">
<title>authoring_environment.GUIGrid.repopulateGrid</title>
<polygon fill="white" stroke="none" points="-4,4 -4,-420 1828,-420 1828,4 -4,4"/>
<!-- Node1 -->
<g id="node1" class="node"><title>Node1</title>
<polygon fill="#bfbfbf" stroke="black" points="0,-186.5 0,-205.5 242,-205.5 242,-186.5 0,-186.5"/>
<text text-anchor="middle" x="121" y="-193.5" font-family="Helvetica,sans-Serif" font-size="10.00">authoring_environment.GUIGrid.repopulateGrid</text>
</g>
<!-- Node2 -->
<g id="node2" class="node"><title>Node2</title>
<g id="a_node2"><a xlink:href="../../df/dd5/classgame_player_1_1_view_controller.html#a620f8a02d3ac7677cd179fcd812aca55" target="_top" xlink:title="gamePlayer.ViewController.check\lEndActions">
<polygon fill="white" stroke="black" points="292,-225 292,-255 466,-255 466,-225 292,-225"/>
<text text-anchor="start" x="300" y="-243" font-family="Helvetica,sans-Serif" font-size="10.00">gamePlayer.ViewController.check</text>
<text text-anchor="middle" x="379" y="-232" font-family="Helvetica,sans-Serif" font-size="10.00">EndActions</text>
</a>
</g>
</g>
<!-- Node1&#45;&gt;Node2 -->
<g id="edge1" class="edge"><title>Node1&#45;&gt;Node2</title>
<path fill="none" stroke="midnightblue" d="M187.594,-207.274C219.312,-212.725 257.798,-219.34 291.846,-225.192"/>
<polygon fill="midnightblue" stroke="midnightblue" points="187.997,-203.792 177.548,-205.547 186.811,-210.691 187.997,-203.792"/>
</g>
<!-- Node14 -->
<g id="node14" class="node"><title>Node14</title>
<g id="a_node14"><a xlink:href="../../df/dd5/classgame_player_1_1_view_controller.html#aabf431713b65ec510f1cb2df12da4e45" target="_top" xlink:title="gamePlayer.ViewController.test\lPlayGameInTab">
<polygon fill="white" stroke="black" points="1225.5,-386 1225.5,-416 1390.5,-416 1390.5,-386 1225.5,-386"/>
<text text-anchor="start" x="1233.5" y="-404" font-family="Helvetica,sans-Serif" font-size="10.00">gamePlayer.ViewController.test</text>
<text text-anchor="middle" x="1308" y="-393" font-family="Helvetica,sans-Serif" font-size="10.00">PlayGameInTab</text>
</a>
</g>
</g>
<!-- Node1&#45;&gt;Node14 -->
<g id="edge29" class="edge"><title>Node1&#45;&gt;Node14</title>
<path fill="none" stroke="midnightblue" d="M136.662,-213.392C162.251,-242.574 218.078,-301.217 278,-332 412.054,-400.865 457.292,-410 608,-410 608,-410 608,-410 834,-410 971.367,-410 1131.13,-406.159 1225.4,-403.495"/>
<polygon fill="midnightblue" stroke="midnightblue" points="139.177,-210.95 129.994,-205.667 133.878,-215.524 139.177,-210.95"/>
</g>
<!-- Node16 -->
<g id="node16" class="node"><title>Node16</title>
<g id="a_node16"><a xlink:href="../../df/dd5/classgame_player_1_1_view_controller.html#adc15cd81cefb88c58f9d3b7478328df8" target="_top" xlink:title="gamePlayer.ViewController.test\lPlayGUIGame">
<polygon fill="white" stroke="black" points="1225.5,-329 1225.5,-359 1390.5,-359 1390.5,-329 1225.5,-329"/>
<text text-anchor="start" x="1233.5" y="-347" font-family="Helvetica,sans-Serif" font-size="10.00">gamePlayer.ViewController.test</text>
<text text-anchor="middle" x="1308" y="-336" font-family="Helvetica,sans-Serif" font-size="10.00">PlayGUIGame</text>
</a>
</g>
</g>
<!-- Node1&#45;&gt;Node16 -->
<g id="edge30" class="edge"><title>Node1&#45;&gt;Node16</title>
<path fill="none" stroke="midnightblue" d="M145.534,-211.225C213.949,-253.973 419.875,-372 608,-372 608,-372 608,-372 834,-372 971.583,-372 1131.28,-360.049 1225.48,-351.762"/>
<polygon fill="midnightblue" stroke="midnightblue" points="147.133,-208.095 136.809,-205.713 143.394,-214.013 147.133,-208.095"/>
</g>
<!-- Node17 -->
<g id="node17" class="node"><title>Node17</title>
<g id="a_node17"><a xlink:href="../../df/dd5/classgame_player_1_1_view_controller.html#a4c1754d129a4eac955390b428eaa448a" target="_top" xlink:title="gamePlayer.ViewController.test\lPlayGame">
<polygon fill="white" stroke="black" points="1225.5,-211 1225.5,-241 1390.5,-241 1390.5,-211 1225.5,-211"/>
<text text-anchor="start" x="1233.5" y="-229" font-family="Helvetica,sans-Serif" font-size="10.00">gamePlayer.ViewController.test</text>
<text text-anchor="middle" x="1308" y="-218" font-family="Helvetica,sans-Serif" font-size="10.00">PlayGame</text>
</a>
</g>
</g>
<!-- Node1&#45;&gt;Node17 -->
<g id="edge28" class="edge"><title>Node1&#45;&gt;Node17</title>
<path fill="none" stroke="midnightblue" d="M162.396,-183.613C245.15,-159.369 440.286,-108 608,-108 608,-108 608,-108 834,-108 908.342,-108 1104.51,-88.3178 1168,-127 1194.88,-143.38 1179.83,-167.827 1204,-188 1215.93,-197.954 1230.7,-205.422 1245.29,-210.977"/>
<polygon fill="midnightblue" stroke="midnightblue" points="161.235,-180.306 152.638,-186.499 163.22,-187.019 161.235,-180.306"/>
</g>
<!-- Node23 -->
<g id="node23" class="node"><title>Node23</title>
<g id="a_node23"><a xlink:href="../../d0/d47/classgameengine_1_1movement_1_1_movement.html#a8ea733019f1f434af7d41aa4b91bd533" target="_top" xlink:title="gameengine.movement.Movement.do\lBehavior">
<polygon fill="white" stroke="black" points="278.5,-49 278.5,-79 479.5,-79 479.5,-49 278.5,-49"/>
<text text-anchor="start" x="286.5" y="-67" font-family="Helvetica,sans-Serif" font-size="10.00">gameengine.movement.Movement.do</text>
<text text-anchor="middle" x="379" y="-56" font-family="Helvetica,sans-Serif" font-size="10.00">Behavior</text>
</a>
</g>
</g>
<!-- Node1&#45;&gt;Node23 -->
<g id="edge25" class="edge"><title>Node1&#45;&gt;Node23</title>
<path fill="none" stroke="midnightblue" d="M142.257,-179.987C170.986,-157.945 225.882,-118.235 278,-94 290.491,-88.1916 304.379,-83.1879 317.733,-79.023"/>
<polygon fill="midnightblue" stroke="midnightblue" points="139.972,-177.331 134.214,-186.224 144.261,-182.863 139.972,-177.331"/>
</g>
<!-- Node24 -->
<g id="node24" class="node"><title>Node24</title>
<g id="a_node24"><a xlink:href="../../d8/d4d/classgameengine_1_1player_1_1_simple_a_i_player.html#a4939c006130cc2f30060ccb3abd9d5e5" target="_top" xlink:title="gameengine.player.Simple\lAIPlayer.play">
<polygon fill="white" stroke="black" points="307,-0 307,-30 451,-30 451,-0 307,-0"/>
<text text-anchor="start" x="315" y="-18" font-family="Helvetica,sans-Serif" font-size="10.00">gameengine.player.Simple</text>
<text text-anchor="middle" x="379" y="-7" font-family="Helvetica,sans-Serif" font-size="10.00">AIPlayer.play</text>
</a>
</g>
</g>
<!-- Node1&#45;&gt;Node24 -->
<g id="edge26" class="edge"><title>Node1&#45;&gt;Node24</title>
<path fill="none" stroke="midnightblue" d="M134.334,-178.223C158.121,-145.352 213.703,-75.1397 278,-39 286.871,-34.0135 296.75,-30.0578 306.747,-26.921"/>
<polygon fill="midnightblue" stroke="midnightblue" points="131.43,-176.266 128.487,-186.444 137.135,-180.323 131.43,-176.266"/>
</g>
<!-- Node3 -->
<g id="node3" class="node"><title>Node3</title>
<g id="a_node3"><a xlink:href="../../df/dd5/classgame_player_1_1_view_controller.html#a95c2acd43bb39b8606c69971c1cd30f5" target="_top" xlink:title="gamePlayer.ViewController.perform\lAction">
<polygon fill="white" stroke="black" points="516.5,-181 516.5,-211 701.5,-211 701.5,-181 516.5,-181"/>
<text text-anchor="start" x="524.5" y="-199" font-family="Helvetica,sans-Serif" font-size="10.00">gamePlayer.ViewController.perform</text>
<text text-anchor="middle" x="609" y="-188" font-family="Helvetica,sans-Serif" font-size="10.00">Action</text>
</a>
</g>
</g>
<!-- Node2&#45;&gt;Node3 -->
<g id="edge2" class="edge"><title>Node2&#45;&gt;Node3</title>
<path fill="none" stroke="midnightblue" d="M467.799,-223.056C488.334,-219.093 510.069,-214.899 530.137,-211.026"/>
<polygon fill="midnightblue" stroke="midnightblue" points="466.983,-219.649 457.827,-224.981 468.309,-226.522 466.983,-219.649"/>
</g>
<!-- Node21 -->
<g id="node21" class="node"><title>Node21</title>
<g id="a_node21"><a xlink:href="../../df/dd5/classgame_player_1_1_view_controller.html#a13ea7814bde61a8042c5b1a23af41416" target="_top" xlink:title="gamePlayer.ViewController.end\lAction">
<polygon fill="white" stroke="black" points="527,-313 527,-343 691,-343 691,-313 527,-313"/>
<text text-anchor="start" x="535" y="-331" font-family="Helvetica,sans-Serif" font-size="10.00">gamePlayer.ViewController.end</text>
<text text-anchor="middle" x="609" y="-320" font-family="Helvetica,sans-Serif" font-size="10.00">Action</text>
</a>
</g>
</g>
<!-- Node2&#45;&gt;Node21 -->
<g id="edge23" class="edge"><title>Node2&#45;&gt;Node21</title>
<path fill="none" stroke="midnightblue" d="M422.331,-259.189C448.975,-270.983 484.217,-286.067 516,-298 529.841,-303.196 545.037,-308.365 559.021,-312.911"/>
<polygon fill="midnightblue" stroke="midnightblue" points="423.485,-255.872 412.926,-255.005 420.64,-262.268 423.485,-255.872"/>
</g>
<!-- Node4 -->
<g id="node4" class="node"><title>Node4</title>
<g id="a_node4"><a xlink:href="../../da/d55/classgame_player_1_1_keyboard_movement.html#af45fd8d279b1ee2d6be5466d425485ab" target="_top" xlink:title="gamePlayer.KeyboardMovement.set\lMovementKeyControl">
<polygon fill="white" stroke="black" points="738.5,-137 738.5,-167 927.5,-167 927.5,-137 738.5,-137"/>
<text text-anchor="start" x="746.5" y="-155" font-family="Helvetica,sans-Serif" font-size="10.00">gamePlayer.KeyboardMovement.set</text>
<text text-anchor="middle" x="833" y="-144" font-family="Helvetica,sans-Serif" font-size="10.00">MovementKeyControl</text>
</a>
</g>
</g>
<!-- Node3&#45;&gt;Node4 -->
<g id="edge3" class="edge"><title>Node3&#45;&gt;Node4</title>
<path fill="none" stroke="midnightblue" d="M667.32,-178.646C688.904,-173.708 714.055,-168.495 738.108,-163.931"/>
<polygon fill="midnightblue" stroke="midnightblue" points="666.298,-175.291 657.352,-180.968 667.886,-182.108 666.298,-175.291"/>
</g>
<!-- Node12 -->
<g id="node12" class="node"><title>Node12</title>
<g id="a_node12"><a xlink:href="../../df/dd5/classgame_player_1_1_view_controller.html#a22ee80193bbac79a935ee961a183bfcd" target="_top" xlink:title="gamePlayer.ViewController.set\lOnClick">
<polygon fill="white" stroke="black" points="752.5,-225 752.5,-255 913.5,-255 913.5,-225 752.5,-225"/>
<text text-anchor="start" x="760.5" y="-243" font-family="Helvetica,sans-Serif" font-size="10.00">gamePlayer.ViewController.set</text>
<text text-anchor="middle" x="833" y="-232" font-family="Helvetica,sans-Serif" font-size="10.00">OnClick</text>
</a>
</g>
</g>
<!-- Node3&#45;&gt;Node12 -->
<g id="edge13" class="edge"><title>Node3&#45;&gt;Node12</title>
<path fill="none" stroke="midnightblue" d="M695.761,-212.998C715.676,-216.945 736.735,-221.119 756.186,-224.974"/>
<polygon fill="midnightblue" stroke="midnightblue" points="696.269,-209.53 685.779,-211.019 694.908,-216.397 696.269,-209.53"/>
</g>
<!-- Node4&#45;&gt;Node3 -->
<g id="edge11" class="edge"><title>Node4&#45;&gt;Node3</title>
<path fill="none" stroke="midnightblue" d="M774.698,-169.349C752.417,-174.447 726.332,-179.839 701.578,-184.507"/>
<polygon fill="midnightblue" stroke="midnightblue" points="775.705,-172.709 784.65,-167.031 774.117,-165.891 775.705,-172.709"/>
</g>
<!-- Node5 -->
<g id="node5" class="node"><title>Node5</title>
<g id="a_node5"><a xlink:href="../../df/dd5/classgame_player_1_1_view_controller.html#a7eb038fd9f20604ade0406f27ef76657" target="_top" xlink:title="gamePlayer.ViewController.bind\lAction">
<polygon fill="white" stroke="black" points="982.5,-49 982.5,-79 1149.5,-79 1149.5,-49 982.5,-49"/>
<text text-anchor="start" x="990.5" y="-67" font-family="Helvetica,sans-Serif" font-size="10.00">gamePlayer.ViewController.bind</text>
<text text-anchor="middle" x="1066" y="-56" font-family="Helvetica,sans-Serif" font-size="10.00">Action</text>
</a>
</g>
</g>
<!-- Node4&#45;&gt;Node5 -->
<g id="edge4" class="edge"><title>Node4&#45;&gt;Node5</title>
<path fill="none" stroke="midnightblue" d="M883.006,-133.331C925.399,-117.181 985.917,-94.127 1025.33,-79.1131"/>
<polygon fill="midnightblue" stroke="midnightblue" points="881.547,-130.142 873.448,-136.972 884.039,-136.683 881.547,-130.142"/>
</g>
<!-- Node11 -->
<g id="node11" class="node"><title>Node11</title>
<g id="a_node11"><a xlink:href="../../df/dd5/classgame_player_1_1_view_controller.html#a27da17c1280cd953a14f6b76b18f9a4b" target="_top" xlink:title="gamePlayer.ViewController.toggle\lKeyboardControl">
<polygon fill="white" stroke="black" points="978,-137 978,-167 1154,-167 1154,-137 978,-137"/>
<text text-anchor="start" x="986" y="-155" font-family="Helvetica,sans-Serif" font-size="10.00">gamePlayer.ViewController.toggle</text>
<text text-anchor="middle" x="1066" y="-144" font-family="Helvetica,sans-Serif" font-size="10.00">KeyboardControl</text>
</a>
</g>
</g>
<!-- Node4&#45;&gt;Node11 -->
<g id="edge12" class="edge"><title>Node4&#45;&gt;Node11</title>
<path fill="none" stroke="midnightblue" d="M937.825,-152C951.236,-152 964.858,-152 977.96,-152"/>
<polygon fill="midnightblue" stroke="midnightblue" points="937.624,-148.5 927.624,-152 937.623,-155.5 937.624,-148.5"/>
</g>
<!-- Node6 -->
<g id="node6" class="node"><title>Node6</title>
<g id="a_node6"><a xlink:href="../../d1/db7/classgame_player_1_1_keyboard_action.html#a08ace57322b8639020688dd9493c3e1f" target="_top" xlink:title="gamePlayer.KeyboardAction.set\lActionKeyControl">
<polygon fill="white" stroke="black" points="1224,-149 1224,-179 1392,-179 1392,-149 1224,-149"/>
<text text-anchor="start" x="1232" y="-167" font-family="Helvetica,sans-Serif" font-size="10.00">gamePlayer.KeyboardAction.set</text>
<text text-anchor="middle" x="1308" y="-156" font-family="Helvetica,sans-Serif" font-size="10.00">ActionKeyControl</text>
</a>
</g>
</g>
<!-- Node5&#45;&gt;Node6 -->
<g id="edge5" class="edge"><title>Node5&#45;&gt;Node6</title>
<path fill="none" stroke="midnightblue" d="M1134.65,-82.0847C1145.92,-85.6674 1157.39,-89.6732 1168,-94 1184.75,-100.831 1187.89,-104.763 1204,-113 1227.98,-125.264 1255.32,-138.776 1275.79,-148.809"/>
<polygon fill="midnightblue" stroke="midnightblue" points="1135.42,-78.6574 1124.83,-79.0477 1133.35,-85.3451 1135.42,-78.6574"/>
</g>
<!-- Node7 -->
<g id="node7" class="node"><title>Node7</title>
<g id="a_node7"><a xlink:href="../../df/dd5/classgame_player_1_1_view_controller.html#ab8c14a8c53be9021a62d0107c2f75ef6" target="_top" xlink:title="gamePlayer.ViewController.update\lActions">
<polygon fill="white" stroke="black" points="1218,-25 1218,-55 1398,-55 1398,-25 1218,-25"/>
<text text-anchor="start" x="1226" y="-43" font-family="Helvetica,sans-Serif" font-size="10.00">gamePlayer.ViewController.update</text>
<text text-anchor="middle" x="1308" y="-32" font-family="Helvetica,sans-Serif" font-size="10.00">Actions</text>
</a>
</g>
</g>
<!-- Node5&#45;&gt;Node7 -->
<g id="edge7" class="edge"><title>Node5&#45;&gt;Node7</title>
<path fill="none" stroke="midnightblue" d="M1159.75,-54.7249C1178.78,-52.8216 1198.78,-50.8217 1217.69,-48.9309"/>
<polygon fill="midnightblue" stroke="midnightblue" points="1159.2,-51.2628 1149.59,-55.7406 1159.89,-58.2281 1159.2,-51.2628"/>
</g>
<!-- Node10 -->
<g id="node10" class="node"><title>Node10</title>
<g id="a_node10"><a xlink:href="../../df/df0/classtests_1_1_view_controller_test.html#a74e99f9c72cbdcd2d56271b2ad2df1ce" target="_top" xlink:title="tests.ViewControllerTest.bind\lActionTest">
<polygon fill="white" stroke="black" points="1231,-74 1231,-104 1385,-104 1385,-74 1231,-74"/>
<text text-anchor="start" x="1239" y="-92" font-family="Helvetica,sans-Serif" font-size="10.00">tests.ViewControllerTest.bind</text>
<text text-anchor="middle" x="1308" y="-81" font-family="Helvetica,sans-Serif" font-size="10.00">ActionTest</text>
</a>
</g>
</g>
<!-- Node5&#45;&gt;Node10 -->
<g id="edge10" class="edge"><title>Node5&#45;&gt;Node10</title>
<path fill="none" stroke="midnightblue" d="M1159.57,-73.643C1183.09,-76.093 1208.1,-78.6978 1230.71,-81.0528"/>
<polygon fill="midnightblue" stroke="midnightblue" points="1159.9,-70.1586 1149.59,-72.6036 1159.18,-77.1209 1159.9,-70.1586"/>
</g>
<!-- Node6&#45;&gt;Node3 -->
<g id="edge6" class="edge"><title>Node6&#45;&gt;Node3</title>
<path fill="none" stroke="midnightblue" d="M1213.98,-172.682C1198.63,-173.927 1182.87,-175.092 1168,-176 1004,-186.012 812.549,-191.534 701.896,-194.122"/>
<polygon fill="midnightblue" stroke="midnightblue" points="1214.32,-176.166 1223.99,-171.854 1213.74,-169.19 1214.32,-176.166"/>
</g>
<!-- Node8 -->
<g id="node8" class="node"><title>Node8</title>
<g id="a_node8"><a xlink:href="../../d6/d24/classgame_player_1_1_select_state.html#a801827392f0faeee6b96925060d77838" target="_top" xlink:title="gamePlayer.SelectState.on\lClick">
<polygon fill="white" stroke="black" points="1471.5,-50 1471.5,-80 1618.5,-80 1618.5,-50 1471.5,-50"/>
<text text-anchor="start" x="1479.5" y="-68" font-family="Helvetica,sans-Serif" font-size="10.00">gamePlayer.SelectState.on</text>
<text text-anchor="middle" x="1545" y="-57" font-family="Helvetica,sans-Serif" font-size="10.00">Click</text>
</a>
</g>
</g>
<!-- Node7&#45;&gt;Node8 -->
<g id="edge8" class="edge"><title>Node7&#45;&gt;Node8</title>
<path fill="none" stroke="midnightblue" d="M1408.17,-50.5498C1429.35,-52.8028 1451.34,-55.1425 1471.3,-57.2663"/>
<polygon fill="midnightblue" stroke="midnightblue" points="1408.49,-47.0647 1398.18,-49.4871 1407.75,-54.0254 1408.49,-47.0647"/>
</g>
<!-- Node9 -->
<g id="node9" class="node"><title>Node9</title>
<g id="a_node9"><a xlink:href="../../df/df0/classtests_1_1_view_controller_test.html#a785df2c49a72c183c22163ce927f5df1" target="_top" xlink:title="tests.ViewControllerTest.update\lActionsTest">
<polygon fill="white" stroke="black" points="1461.5,-1 1461.5,-31 1628.5,-31 1628.5,-1 1461.5,-1"/>
<text text-anchor="start" x="1469.5" y="-19" font-family="Helvetica,sans-Serif" font-size="10.00">tests.ViewControllerTest.update</text>
<text text-anchor="middle" x="1545" y="-8" font-family="Helvetica,sans-Serif" font-size="10.00">ActionsTest</text>
</a>
</g>
</g>
<!-- Node7&#45;&gt;Node9 -->
<g id="edge9" class="edge"><title>Node7&#45;&gt;Node9</title>
<path fill="none" stroke="midnightblue" d="M1408.49,-29.839C1426.14,-28.0367 1444.34,-26.1777 1461.46,-24.4299"/>
<polygon fill="midnightblue" stroke="midnightblue" points="1407.77,-26.3944 1398.18,-30.8924 1408.48,-33.3582 1407.77,-26.3944"/>
</g>
<!-- Node13 -->
<g id="node13" class="node"><title>Node13</title>
<g id="a_node13"><a xlink:href="../../df/dd5/classgame_player_1_1_view_controller.html#a10a40967a873f067cf91b024ff85b38e" target="_top" xlink:title="gamePlayer.ViewController.initializeGrid">
<polygon fill="white" stroke="black" points="964,-274.5 964,-293.5 1168,-293.5 1168,-274.5 964,-274.5"/>
<text text-anchor="middle" x="1066" y="-281.5" font-family="Helvetica,sans-Serif" font-size="10.00">gamePlayer.ViewController.initializeGrid</text>
</a>
</g>
</g>
<!-- Node12&#45;&gt;Node13 -->
<g id="edge14" class="edge"><title>Node12&#45;&gt;Node13</title>
<path fill="none" stroke="midnightblue" d="M922.89,-256.931C954.146,-262.885 988.152,-269.362 1015.06,-274.488"/>
<polygon fill="midnightblue" stroke="midnightblue" points="923.329,-253.452 912.851,-255.019 922.019,-260.329 923.329,-253.452"/>
</g>
<!-- Node13&#45;&gt;Node2 -->
<g id="edge17" class="edge"><title>Node13&#45;&gt;Node2</title>
<path fill="none" stroke="midnightblue" d="M953.722,-277.356C890.467,-273.539 809.793,-268.602 738,-264 645.064,-258.043 538.583,-250.859 466.071,-245.912"/>
<polygon fill="midnightblue" stroke="midnightblue" points="953.528,-280.851 963.721,-277.959 953.949,-273.863 953.528,-280.851"/>
</g>
<!-- Node13&#45;&gt;Node14 -->
<g id="edge15" class="edge"><title>Node13&#45;&gt;Node14</title>
<path fill="none" stroke="midnightblue" d="M1088.83,-299.678C1115.13,-318.008 1161.13,-348.335 1204,-368 1219.02,-374.889 1235.88,-380.941 1251.55,-385.918"/>
<polygon fill="midnightblue" stroke="midnightblue" points="1090.58,-296.629 1080.39,-293.732 1086.55,-302.352 1090.58,-296.629"/>
</g>
<!-- Node15 -->
<g id="node15" class="node"><title>Node15</title>
<g id="a_node15"><a xlink:href="../../df/dd5/classgame_player_1_1_view_controller.html#a0d1a3d443966f151b070dc751d2faf9a" target="_top" xlink:title="gamePlayer.ViewController.restartGame">
<polygon fill="white" stroke="black" points="1204,-274.5 1204,-293.5 1412,-293.5 1412,-274.5 1204,-274.5"/>
<text text-anchor="middle" x="1308" y="-281.5" font-family="Helvetica,sans-Serif" font-size="10.00">gamePlayer.ViewController.restartGame</text>
</a>
</g>
</g>
<!-- Node13&#45;&gt;Node15 -->
<g id="edge16" class="edge"><title>Node13&#45;&gt;Node15</title>
<path fill="none" stroke="midnightblue" d="M1178.36,-284C1186.81,-284 1195.32,-284 1203.72,-284"/>
<polygon fill="midnightblue" stroke="midnightblue" points="1178.09,-280.5 1168.09,-284 1178.09,-287.5 1178.09,-280.5"/>
</g>
<!-- Node13&#45;&gt;Node16 -->
<g id="edge18" class="edge"><title>Node13&#45;&gt;Node16</title>
<path fill="none" stroke="midnightblue" d="M1114.8,-295.951C1152.7,-305.425 1205.89,-318.722 1246.71,-328.927"/>
<polygon fill="midnightblue" stroke="midnightblue" points="1115.58,-292.537 1105.03,-293.507 1113.88,-299.328 1115.58,-292.537"/>
</g>
<!-- Node13&#45;&gt;Node17 -->
<g id="edge19" class="edge"><title>Node13&#45;&gt;Node17</title>
<path fill="none" stroke="midnightblue" d="M1116.44,-272.051C1153.57,-263.079 1204.68,-250.728 1244.61,-241.076"/>
<polygon fill="midnightblue" stroke="midnightblue" points="1115.26,-268.736 1106.36,-274.487 1116.9,-275.54 1115.26,-268.736"/>
</g>
<!-- Node18 -->
<g id="node18" class="node"><title>Node18</title>
<g id="a_node18"><a xlink:href="../../db/d40/classfxml__main_1_1_authoring_controller.html#a2ec133c8edf0a7ab1e84f2e12455233d" target="_top" xlink:title="fxml_main.AuthoringController.save\lAsGame">
<polygon fill="white" stroke="black" points="1451.5,-233 1451.5,-263 1638.5,-263 1638.5,-233 1451.5,-233"/>
<text text-anchor="start" x="1459.5" y="-251" font-family="Helvetica,sans-Serif" font-size="10.00">fxml_main.AuthoringController.save</text>
<text text-anchor="middle" x="1545" y="-240" font-family="Helvetica,sans-Serif" font-size="10.00">AsGame</text>
</a>
</g>
</g>
<!-- Node17&#45;&gt;Node18 -->
<g id="edge20" class="edge"><title>Node17&#45;&gt;Node18</title>
<path fill="none" stroke="midnightblue" d="M1400.77,-234.591C1417.38,-236.146 1434.7,-237.768 1451.34,-239.325"/>
<polygon fill="midnightblue" stroke="midnightblue" points="1400.81,-231.08 1390.53,-233.633 1400.16,-238.05 1400.81,-231.08"/>
</g>
<!-- Node19 -->
<g id="node19" class="node"><title>Node19</title>
<g id="a_node19"><a xlink:href="../../df/dd5/classgame_player_1_1_view_controller.html#a2bf1dce04187ad5eacb5359ef2b4eff8" target="_top" xlink:title="gamePlayer.ViewController.newGame">
<polygon fill="white" stroke="black" points="1448,-194.5 1448,-213.5 1642,-213.5 1642,-194.5 1448,-194.5"/>
<text text-anchor="middle" x="1545" y="-201.5" font-family="Helvetica,sans-Serif" font-size="10.00">gamePlayer.ViewController.newGame</text>
</a>
</g>
</g>
<!-- Node17&#45;&gt;Node19 -->
<g id="edge21" class="edge"><title>Node17&#45;&gt;Node19</title>
<path fill="none" stroke="midnightblue" d="M1400.58,-217.427C1416.03,-215.981 1432.1,-214.476 1447.66,-213.019"/>
<polygon fill="midnightblue" stroke="midnightblue" points="1400.16,-213.95 1390.53,-218.367 1400.81,-220.92 1400.16,-213.95"/>
</g>
<!-- Node20 -->
<g id="node20" class="node"><title>Node20</title>
<g id="a_node20"><a xlink:href="../../df/dd5/classgame_player_1_1_view_controller.html#a2acd822c93c35674b6978a97b4ce6e3f" target="_top" xlink:title="gamePlayer.ViewController.\lViewController">
<polygon fill="white" stroke="black" points="1678,-189 1678,-219 1824,-219 1824,-189 1678,-189"/>
<text text-anchor="start" x="1686" y="-207" font-family="Helvetica,sans-Serif" font-size="10.00">gamePlayer.ViewController.</text>
<text text-anchor="middle" x="1751" y="-196" font-family="Helvetica,sans-Serif" font-size="10.00">ViewController</text>
</a>
</g>
</g>
<!-- Node19&#45;&gt;Node20 -->
<g id="edge22" class="edge"><title>Node19&#45;&gt;Node20</title>
<path fill="none" stroke="midnightblue" d="M1652.24,-204C1660.94,-204 1669.59,-204 1677.95,-204"/>
<polygon fill="midnightblue" stroke="midnightblue" points="1652.03,-200.5 1642.03,-204 1652.03,-207.5 1652.03,-200.5"/>
</g>
<!-- Node22 -->
<g id="node22" class="node"><title>Node22</title>
<g id="a_node22"><a xlink:href="../../db/d00/classgame_player_1_1_apply_state.html#aed42c1aba25264bc6880036f693a1c9e" target="_top" xlink:title="gamePlayer.ApplyState.on\lClick">
<polygon fill="white" stroke="black" points="761.5,-313 761.5,-343 904.5,-343 904.5,-313 761.5,-313"/>
<text text-anchor="start" x="769.5" y="-331" font-family="Helvetica,sans-Serif" font-size="10.00">gamePlayer.ApplyState.on</text>
<text text-anchor="middle" x="833" y="-320" font-family="Helvetica,sans-Serif" font-size="10.00">Click</text>
</a>
</g>
</g>
<!-- Node21&#45;&gt;Node22 -->
<g id="edge24" class="edge"><title>Node21&#45;&gt;Node22</title>
<path fill="none" stroke="midnightblue" d="M701.182,-328C721.271,-328 742.256,-328 761.387,-328"/>
<polygon fill="midnightblue" stroke="midnightblue" points="701.089,-324.5 691.089,-328 701.089,-331.5 701.089,-324.5"/>
</g>
<!-- Node25 -->
<g id="node25" class="node"><title>Node25</title>
<g id="a_node25"><a xlink:href="../../d8/d4d/classgameengine_1_1player_1_1_simple_a_i_player.html#a9a241075e35d6039a453f51445e9837c" target="_top" xlink:title="gameengine.player.Simple\lAIPlayer.startTurn">
<polygon fill="white" stroke="black" points="537,-0 537,-30 681,-30 681,-0 537,-0"/>
<text text-anchor="start" x="545" y="-18" font-family="Helvetica,sans-Serif" font-size="10.00">gameengine.player.Simple</text>
<text text-anchor="middle" x="609" y="-7" font-family="Helvetica,sans-Serif" font-size="10.00">AIPlayer.startTurn</text>
</a>
</g>
</g>
<!-- Node24&#45;&gt;Node25 -->
<g id="edge27" class="edge"><title>Node24&#45;&gt;Node25</title>
<path fill="none" stroke="midnightblue" d="M461.278,-15C485.996,-15 512.956,-15 536.945,-15"/>
<polygon fill="midnightblue" stroke="midnightblue" points="461.203,-11.5001 451.203,-15 461.203,-18.5001 461.203,-11.5001"/>
</g>
</g>
</svg>
