<?xml version="1.0" encoding="UTF-8" standalone="no"?>
<!DOCTYPE svg PUBLIC "-//W3C//DTD SVG 1.1//EN"
 "http://www.w3.org/Graphics/SVG/1.1/DTD/svg11.dtd">
<!-- Generated by graphviz version 2.36.0 (20140111.2315)
 -->
<!-- Title: authoring_environment.GUIGrid.getPiece Pages: 1 -->
<svg width="1614pt" height="732pt"
 viewBox="0.00 0.00 1614.00 732.00" xmlns="http://www.w3.org/2000/svg" xmlns:xlink="http://www.w3.org/1999/xlink">
<g id="graph0" class="graph" transform="scale(1 1) rotate(0) translate(4 728)">
<title>authoring_environment.GUIGrid.getPiece</title>
<polygon fill="white" stroke="none" points="-4,4 -4,-728 1610,-728 1610,4 -4,4"/>
<!-- Node1 -->
<g id="node1" class="node"><title>Node1</title>
<polygon fill="#bfbfbf" stroke="black" points="0.5,-388 0.5,-418 187.5,-418 187.5,-388 0.5,-388"/>
<text text-anchor="start" x="8.5" y="-406" font-family="Helvetica,sans-Serif" font-size="10.00">authoring_environment.GUIGrid.get</text>
<text text-anchor="middle" x="94" y="-395" font-family="Helvetica,sans-Serif" font-size="10.00">Piece</text>
</g>
<!-- Node2 -->
<g id="node2" class="node"><title>Node2</title>
<g id="a_node2"><a xlink:href="../../d8/d81/classgamedata_1_1goals_1_1_pieces_removed_goal.html#aaf295faa2931d44a86c30db56645d823" target="_top" xlink:title="gamedata.goals.PiecesRemoved\lGoal.checkGameState">
<polygon fill="white" stroke="black" points="241.5,-694 241.5,-724 414.5,-724 414.5,-694 241.5,-694"/>
<text text-anchor="start" x="249.5" y="-712" font-family="Helvetica,sans-Serif" font-size="10.00">gamedata.goals.PiecesRemoved</text>
<text text-anchor="middle" x="328" y="-701" font-family="Helvetica,sans-Serif" font-size="10.00">Goal.checkGameState</text>
</a>
</g>
</g>
<!-- Node1&#45;&gt;Node2 -->
<g id="edge1" class="edge"><title>Node1&#45;&gt;Node2</title>
<path fill="none" stroke="midnightblue" d="M99.5619,-428.312C110.683,-482.583 144.342,-610.74 224,-679 231.213,-685.181 239.64,-690.09 248.51,-693.988"/>
<polygon fill="midnightblue" stroke="midnightblue" points="102.936,-427.33 97.5765,-418.191 96.067,-428.678 102.936,-427.33"/>
</g>
<!-- Node3 -->
<g id="node3" class="node"><title>Node3</title>
<g id="a_node3"><a xlink:href="../../d1/d90/classgamedata_1_1events_1_1globalaction_1_1_make_piece_at_location.html#a2e5e6942db2fced94205f89f25aa859a" target="_top" xlink:title="gamedata.events.globalaction.\lMakePieceAtLocation.doBehavior">
<polygon fill="white" stroke="black" points="720,-568 720,-598 896,-598 896,-568 720,-568"/>
<text text-anchor="start" x="728" y="-586" font-family="Helvetica,sans-Serif" font-size="10.00">gamedata.events.globalaction.</text>
<text text-anchor="middle" x="808" y="-575" font-family="Helvetica,sans-Serif" font-size="10.00">MakePieceAtLocation.doBehavior</text>
</a>
</g>
</g>
<!-- Node1&#45;&gt;Node3 -->
<g id="edge2" class="edge"><title>Node1&#45;&gt;Node3</title>
<path fill="none" stroke="midnightblue" d="M119.976,-424.928C144.837,-445.768 184.836,-476.71 224,-496 325.544,-546.016 356.362,-550.297 468,-569 552.818,-583.21 651.153,-585.765 719.999,-585.337"/>
<polygon fill="midnightblue" stroke="midnightblue" points="122.036,-422.086 112.149,-418.28 117.504,-427.421 122.036,-422.086"/>
</g>
<!-- Node4 -->
<g id="node4" class="node"><title>Node4</title>
<g id="a_node4"><a xlink:href="../../d9/d51/classtests_1_1_global_action_tester.html#a26ff5051aca4e703848f88b149cfef39" target="_top" xlink:title="tests.GlobalActionTester.\lTestCreatePiece">
<polygon fill="white" stroke="black" points="983,-587 983,-617 1117,-617 1117,-587 983,-587"/>
<text text-anchor="start" x="991" y="-605" font-family="Helvetica,sans-Serif" font-size="10.00">tests.GlobalActionTester.</text>
<text text-anchor="middle" x="1050" y="-594" font-family="Helvetica,sans-Serif" font-size="10.00">TestCreatePiece</text>
</a>
</g>
</g>
<!-- Node1&#45;&gt;Node4 -->
<g id="edge50" class="edge"><title>Node1&#45;&gt;Node4</title>
<path fill="none" stroke="midnightblue" d="M109.8,-427.009C130.94,-459.112 172.93,-515.297 224,-544 473.868,-684.432 835.703,-641.118 982.948,-615.231"/>
<polygon fill="midnightblue" stroke="midnightblue" points="112.519,-424.767 104.161,-418.256 106.635,-428.558 112.519,-424.767"/>
</g>
<!-- Node5 -->
<g id="node5" class="node"><title>Node5</title>
<g id="a_node5"><a xlink:href="../../df/dd5/classgame_player_1_1_view_controller.html#ac39aa40a815b8d3d277aecffe6d63426" target="_top" xlink:title="gamePlayer.ViewController.highlight\lSelected">
<polygon fill="white" stroke="black" points="234.5,-344 234.5,-374 421.5,-374 421.5,-344 234.5,-344"/>
<text text-anchor="start" x="242.5" y="-362" font-family="Helvetica,sans-Serif" font-size="10.00">gamePlayer.ViewController.highlight</text>
<text text-anchor="middle" x="328" y="-351" font-family="Helvetica,sans-Serif" font-size="10.00">Selected</text>
</a>
</g>
</g>
<!-- Node1&#45;&gt;Node5 -->
<g id="edge4" class="edge"><title>Node1&#45;&gt;Node5</title>
<path fill="none" stroke="midnightblue" d="M184.055,-386.11C205.034,-382.132 227.258,-377.917 247.771,-374.026"/>
<polygon fill="midnightblue" stroke="midnightblue" points="183.365,-382.679 174.192,-387.981 184.669,-389.556 183.365,-382.679"/>
</g>
<!-- Node7 -->
<g id="node7" class="node"><title>Node7</title>
<g id="a_node7"><a xlink:href="../../dc/d77/classfxml__main_1_1_piece_controller.html#a33f528825344a5932f5820d55f67765e" target="_top" xlink:title="fxml_main.PieceController.init\lGlobalEditBtn">
<polygon fill="white" stroke="black" points="249,-191 249,-221 407,-221 407,-191 249,-191"/>
<text text-anchor="start" x="257" y="-209" font-family="Helvetica,sans-Serif" font-size="10.00">fxml_main.PieceController.init</text>
<text text-anchor="middle" x="328" y="-198" font-family="Helvetica,sans-Serif" font-size="10.00">GlobalEditBtn</text>
</a>
</g>
</g>
<!-- Node1&#45;&gt;Node7 -->
<g id="edge6" class="edge"><title>Node1&#45;&gt;Node7</title>
<path fill="none" stroke="midnightblue" d="M106.168,-378.635C124.889,-340.648 166.302,-267.761 224,-230 231.605,-225.023 240.12,-221.073 248.908,-217.94"/>
<polygon fill="midnightblue" stroke="midnightblue" points="102.877,-377.403 101.698,-387.932 109.186,-380.437 102.877,-377.403"/>
</g>
<!-- Node8 -->
<g id="node8" class="node"><title>Node8</title>
<g id="a_node8"><a xlink:href="../../d0/d47/classgameengine_1_1movement_1_1_movement.html#a8811af7cd48cc4e3f8e9543c9bfd466a" target="_top" xlink:title="gameengine.movement.Movement.is\lValidLocation">
<polygon fill="white" stroke="black" points="229.5,-122 229.5,-152 426.5,-152 426.5,-122 229.5,-122"/>
<text text-anchor="start" x="237.5" y="-140" font-family="Helvetica,sans-Serif" font-size="10.00">gameengine.movement.Movement.is</text>
<text text-anchor="middle" x="328" y="-129" font-family="Helvetica,sans-Serif" font-size="10.00">ValidLocation</text>
</a>
</g>
</g>
<!-- Node1&#45;&gt;Node8 -->
<g id="edge7" class="edge"><title>Node1&#45;&gt;Node8</title>
<path fill="none" stroke="midnightblue" d="M103.361,-378.32C119.755,-333.332 160.182,-237.433 224,-181 238.348,-168.312 256.904,-158.874 274.305,-152.063"/>
<polygon fill="midnightblue" stroke="midnightblue" points="100.021,-377.269 99.9683,-387.864 106.616,-379.614 100.021,-377.269"/>
</g>
<!-- Node10 -->
<g id="node10" class="node"><title>Node10</title>
<g id="a_node10"><a xlink:href="../../df/dd5/classgame_player_1_1_view_controller.html#a95c2acd43bb39b8606c69971c1cd30f5" target="_top" xlink:title="gamePlayer.ViewController.perform\lAction">
<polygon fill="white" stroke="black" points="235.5,-240 235.5,-270 420.5,-270 420.5,-240 235.5,-240"/>
<text text-anchor="start" x="243.5" y="-258" font-family="Helvetica,sans-Serif" font-size="10.00">gamePlayer.ViewController.perform</text>
<text text-anchor="middle" x="328" y="-247" font-family="Helvetica,sans-Serif" font-size="10.00">Action</text>
</a>
</g>
</g>
<!-- Node1&#45;&gt;Node10 -->
<g id="edge9" class="edge"><title>Node1&#45;&gt;Node10</title>
<path fill="none" stroke="midnightblue" d="M127.142,-382.496C174.414,-352.339 261.597,-296.723 303.416,-270.045"/>
<polygon fill="midnightblue" stroke="midnightblue" points="125.07,-379.666 118.522,-387.995 128.835,-385.567 125.07,-379.666"/>
</g>
<!-- Node30 -->
<g id="node30" class="node"><title>Node30</title>
<g id="a_node30"><a xlink:href="../../d8/d4d/classgameengine_1_1player_1_1_simple_a_i_player.html#a4939c006130cc2f30060ccb3abd9d5e5" target="_top" xlink:title="gameengine.player.Simple\lAIPlayer.play">
<polygon fill="white" stroke="black" points="256,-32 256,-62 400,-62 400,-32 256,-32"/>
<text text-anchor="start" x="264" y="-50" font-family="Helvetica,sans-Serif" font-size="10.00">gameengine.player.Simple</text>
<text text-anchor="middle" x="328" y="-39" font-family="Helvetica,sans-Serif" font-size="10.00">AIPlayer.play</text>
</a>
</g>
</g>
<!-- Node1&#45;&gt;Node30 -->
<g id="edge33" class="edge"><title>Node1&#45;&gt;Node30</title>
<path fill="none" stroke="midnightblue" d="M100.791,-377.937C114.309,-323.961 152.363,-194.915 224,-112 242.801,-90.2397 270.695,-73.255 292.715,-62.1131"/>
<polygon fill="midnightblue" stroke="midnightblue" points="97.3802,-377.151 98.4119,-387.695 104.181,-378.809 97.3802,-377.151"/>
</g>
<!-- Node32 -->
<g id="node32" class="node"><title>Node32</title>
<g id="a_node32"><a xlink:href="../../da/d4c/classauthoring__environment_1_1_g_u_i_grid.html#afe59bd9dfeddc383a541f50fda3e647a" target="_top" xlink:title="authoring_environment.GUIGrid.remove\lPieceAtCoordinate">
<polygon fill="white" stroke="black" points="224,-457 224,-487 432,-487 432,-457 224,-457"/>
<text text-anchor="start" x="232" y="-475" font-family="Helvetica,sans-Serif" font-size="10.00">authoring_environment.GUIGrid.remove</text>
<text text-anchor="middle" x="328" y="-464" font-family="Helvetica,sans-Serif" font-size="10.00">PieceAtCoordinate</text>
</a>
</g>
</g>
<!-- Node1&#45;&gt;Node32 -->
<g id="edge35" class="edge"><title>Node1&#45;&gt;Node32</title>
<path fill="none" stroke="midnightblue" d="M155.451,-420.979C193.069,-432.167 240.89,-446.39 276.481,-456.975"/>
<polygon fill="midnightblue" stroke="midnightblue" points="156.21,-417.553 145.627,-418.057 154.214,-424.263 156.21,-417.553"/>
</g>
<!-- Node40 -->
<g id="node40" class="node"><title>Node40</title>
<g id="a_node40"><a xlink:href="../../d7/df4/classtests_1_1_j_s_o_n_tester_main.html#a5f1fa68f3fcb37a473271cdbfeaaa92e" target="_top" xlink:title="tests.JSONTesterMain.test\lJSONwrite">
<polygon fill="white" stroke="black" points="1217,-622 1217,-652 1357,-652 1357,-622 1217,-622"/>
<text text-anchor="start" x="1225" y="-640" font-family="Helvetica,sans-Serif" font-size="10.00">tests.JSONTesterMain.test</text>
<text text-anchor="middle" x="1287" y="-629" font-family="Helvetica,sans-Serif" font-size="10.00">JSONwrite</text>
</a>
</g>
</g>
<!-- Node1&#45;&gt;Node40 -->
<g id="edge52" class="edge"><title>Node1&#45;&gt;Node40</title>
<path fill="none" stroke="midnightblue" d="M104.25,-427.467C121.249,-468.922 161.543,-552.587 224,-595 353.074,-682.651 411.978,-665 568,-665 568,-665 568,-665 809,-665 954.379,-665 1124.25,-651.878 1216.96,-643.6"/>
<polygon fill="midnightblue" stroke="midnightblue" points="107.477,-426.111 100.521,-418.12 100.976,-428.705 107.477,-426.111"/>
</g>
<!-- Node45 -->
<g id="node45" class="node"><title>Node45</title>
<g id="a_node45"><a xlink:href="../../d9/d51/classtests_1_1_global_action_tester.html#ab0f7fb48a001634ae4131d8e7a64352e" target="_top" xlink:title="tests.GlobalActionTester.\lTestDeletePiece">
<polygon fill="white" stroke="black" points="741,-414 741,-444 875,-444 875,-414 741,-414"/>
<text text-anchor="start" x="749" y="-432" font-family="Helvetica,sans-Serif" font-size="10.00">tests.GlobalActionTester.</text>
<text text-anchor="middle" x="808" y="-421" font-family="Helvetica,sans-Serif" font-size="10.00">TestDeletePiece</text>
</a>
</g>
</g>
<!-- Node1&#45;&gt;Node45 -->
<g id="edge51" class="edge"><title>Node1&#45;&gt;Node45</title>
<path fill="none" stroke="midnightblue" d="M197.841,-405.84C312.901,-409.147 504.838,-415.052 670,-422 693.081,-422.971 718.34,-424.211 740.813,-425.377"/>
<polygon fill="midnightblue" stroke="midnightblue" points="197.732,-402.335 187.636,-405.547 197.532,-409.332 197.732,-402.335"/>
</g>
<!-- Node3&#45;&gt;Node4 -->
<g id="edge3" class="edge"><title>Node3&#45;&gt;Node4</title>
<path fill="none" stroke="midnightblue" d="M906.459,-590.716C932.127,-592.748 959.223,-594.893 982.817,-596.761"/>
<polygon fill="midnightblue" stroke="midnightblue" points="906.569,-587.213 896.324,-589.913 906.017,-594.192 906.569,-587.213"/>
</g>
<!-- Node6 -->
<g id="node6" class="node"><title>Node6</title>
<g id="a_node6"><a xlink:href="../../d6/d24/classgame_player_1_1_select_state.html#a801827392f0faeee6b96925060d77838" target="_top" xlink:title="gamePlayer.SelectState.on\lClick">
<polygon fill="white" stroke="black" points="1213.5,-377 1213.5,-407 1360.5,-407 1360.5,-377 1213.5,-377"/>
<text text-anchor="start" x="1221.5" y="-395" font-family="Helvetica,sans-Serif" font-size="10.00">gamePlayer.SelectState.on</text>
<text text-anchor="middle" x="1287" y="-384" font-family="Helvetica,sans-Serif" font-size="10.00">Click</text>
</a>
</g>
</g>
<!-- Node5&#45;&gt;Node6 -->
<g id="edge5" class="edge"><title>Node5&#45;&gt;Node6</title>
<path fill="none" stroke="midnightblue" d="M431.869,-362.547C626.656,-369.264 1044.89,-383.686 1213.42,-389.497"/>
<polygon fill="midnightblue" stroke="midnightblue" points="431.745,-359.041 421.631,-362.194 431.504,-366.037 431.745,-359.041"/>
</g>
<!-- Node9 -->
<g id="node9" class="node"><title>Node9</title>
<g id="a_node9"><a xlink:href="../../d0/d47/classgameengine_1_1movement_1_1_movement.html#a8ea733019f1f434af7d41aa4b91bd533" target="_top" xlink:title="gameengine.movement.Movement.do\lBehavior">
<polygon fill="white" stroke="black" points="468.5,-58 468.5,-88 669.5,-88 669.5,-58 468.5,-58"/>
<text text-anchor="start" x="476.5" y="-76" font-family="Helvetica,sans-Serif" font-size="10.00">gameengine.movement.Movement.do</text>
<text text-anchor="middle" x="569" y="-65" font-family="Helvetica,sans-Serif" font-size="10.00">Behavior</text>
</a>
</g>
</g>
<!-- Node8&#45;&gt;Node9 -->
<g id="edge8" class="edge"><title>Node8&#45;&gt;Node9</title>
<path fill="none" stroke="midnightblue" d="M395.143,-119.288C431.829,-109.464 476.957,-97.3798 511.903,-88.0219"/>
<polygon fill="midnightblue" stroke="midnightblue" points="393.789,-116.027 385.035,-121.995 395.6,-122.789 393.789,-116.027"/>
</g>
<!-- Node11 -->
<g id="node11" class="node"><title>Node11</title>
<g id="a_node11"><a xlink:href="../../da/d55/classgame_player_1_1_keyboard_movement.html#af45fd8d279b1ee2d6be5466d425485ab" target="_top" xlink:title="gamePlayer.KeyboardMovement.set\lMovementKeyControl">
<polygon fill="white" stroke="black" points="474.5,-240 474.5,-270 663.5,-270 663.5,-240 474.5,-240"/>
<text text-anchor="start" x="482.5" y="-258" font-family="Helvetica,sans-Serif" font-size="10.00">gamePlayer.KeyboardMovement.set</text>
<text text-anchor="middle" x="569" y="-247" font-family="Helvetica,sans-Serif" font-size="10.00">MovementKeyControl</text>
</a>
</g>
</g>
<!-- Node10&#45;&gt;Node11 -->
<g id="edge10" class="edge"><title>Node10&#45;&gt;Node11</title>
<path fill="none" stroke="midnightblue" d="M431.063,-248.314C445.367,-248.208 460.011,-248.233 474.152,-248.39"/>
<polygon fill="midnightblue" stroke="midnightblue" points="430.686,-244.818 420.72,-248.415 430.754,-251.817 430.686,-244.818"/>
</g>
<!-- Node18 -->
<g id="node18" class="node"><title>Node18</title>
<g id="a_node18"><a xlink:href="../../df/dd5/classgame_player_1_1_view_controller.html#a22ee80193bbac79a935ee961a183bfcd" target="_top" xlink:title="gamePlayer.ViewController.set\lOnClick">
<polygon fill="white" stroke="black" points="488.5,-150 488.5,-180 649.5,-180 649.5,-150 488.5,-150"/>
<text text-anchor="start" x="496.5" y="-168" font-family="Helvetica,sans-Serif" font-size="10.00">gamePlayer.ViewController.set</text>
<text text-anchor="middle" x="569" y="-157" font-family="Helvetica,sans-Serif" font-size="10.00">OnClick</text>
</a>
</g>
</g>
<!-- Node10&#45;&gt;Node18 -->
<g id="edge20" class="edge"><title>Node10&#45;&gt;Node18</title>
<path fill="none" stroke="midnightblue" d="M418.059,-236.479C422.868,-234.528 427.548,-232.375 432,-230 451.151,-219.784 449.227,-207.894 468,-197 479.824,-190.138 493.304,-184.55 506.453,-180.079"/>
<polygon fill="midnightblue" stroke="midnightblue" points="416.82,-233.206 408.681,-239.988 419.274,-239.762 416.82,-233.206"/>
</g>
<!-- Node11&#45;&gt;Node10 -->
<g id="edge18" class="edge"><title>Node11&#45;&gt;Node10</title>
<path fill="none" stroke="midnightblue" d="M463.778,-261.701C449.442,-261.794 434.809,-261.755 420.72,-261.585"/>
<polygon fill="midnightblue" stroke="midnightblue" points="464.183,-265.197 474.152,-261.61 464.122,-258.198 464.183,-265.197"/>
</g>
<!-- Node12 -->
<g id="node12" class="node"><title>Node12</title>
<g id="a_node12"><a xlink:href="../../df/dd5/classgame_player_1_1_view_controller.html#a7eb038fd9f20604ade0406f27ef76657" target="_top" xlink:title="gamePlayer.ViewController.bind\lAction">
<polygon fill="white" stroke="black" points="724.5,-289 724.5,-319 891.5,-319 891.5,-289 724.5,-289"/>
<text text-anchor="start" x="732.5" y="-307" font-family="Helvetica,sans-Serif" font-size="10.00">gamePlayer.ViewController.bind</text>
<text text-anchor="middle" x="808" y="-296" font-family="Helvetica,sans-Serif" font-size="10.00">Action</text>
</a>
</g>
</g>
<!-- Node11&#45;&gt;Node12 -->
<g id="edge11" class="edge"><title>Node11&#45;&gt;Node12</title>
<path fill="none" stroke="midnightblue" d="M652.769,-272.113C679.366,-277.611 708.611,-283.658 734.419,-288.994"/>
<polygon fill="midnightblue" stroke="midnightblue" points="653.22,-268.632 642.718,-270.035 651.803,-275.487 653.22,-268.632"/>
</g>
<!-- Node17 -->
<g id="node17" class="node"><title>Node17</title>
<g id="a_node17"><a xlink:href="../../df/dd5/classgame_player_1_1_view_controller.html#a27da17c1280cd953a14f6b76b18f9a4b" target="_top" xlink:title="gamePlayer.ViewController.toggle\lKeyboardControl">
<polygon fill="white" stroke="black" points="720,-240 720,-270 896,-270 896,-240 720,-240"/>
<text text-anchor="start" x="728" y="-258" font-family="Helvetica,sans-Serif" font-size="10.00">gamePlayer.ViewController.toggle</text>
<text text-anchor="middle" x="808" y="-247" font-family="Helvetica,sans-Serif" font-size="10.00">KeyboardControl</text>
</a>
</g>
</g>
<!-- Node11&#45;&gt;Node17 -->
<g id="edge19" class="edge"><title>Node11&#45;&gt;Node17</title>
<path fill="none" stroke="midnightblue" d="M673.713,-255C689.089,-255 704.803,-255 719.796,-255"/>
<polygon fill="midnightblue" stroke="midnightblue" points="673.669,-251.5 663.669,-255 673.669,-258.5 673.669,-251.5"/>
</g>
<!-- Node13 -->
<g id="node13" class="node"><title>Node13</title>
<g id="a_node13"><a xlink:href="../../d1/db7/classgame_player_1_1_keyboard_action.html#a08ace57322b8639020688dd9493c3e1f" target="_top" xlink:title="gamePlayer.KeyboardAction.set\lActionKeyControl">
<polygon fill="white" stroke="black" points="966,-235 966,-265 1134,-265 1134,-235 966,-235"/>
<text text-anchor="start" x="974" y="-253" font-family="Helvetica,sans-Serif" font-size="10.00">gamePlayer.KeyboardAction.set</text>
<text text-anchor="middle" x="1050" y="-242" font-family="Helvetica,sans-Serif" font-size="10.00">ActionKeyControl</text>
</a>
</g>
</g>
<!-- Node12&#45;&gt;Node13 -->
<g id="edge12" class="edge"><title>Node12&#45;&gt;Node13</title>
<path fill="none" stroke="midnightblue" d="M885.746,-286.732C916.737,-279.759 952.17,-271.787 982.089,-265.055"/>
<polygon fill="midnightblue" stroke="midnightblue" points="884.841,-283.348 875.853,-288.958 886.378,-290.177 884.841,-283.348"/>
</g>
<!-- Node14 -->
<g id="node14" class="node"><title>Node14</title>
<g id="a_node14"><a xlink:href="../../df/dd5/classgame_player_1_1_view_controller.html#ab8c14a8c53be9021a62d0107c2f75ef6" target="_top" xlink:title="gamePlayer.ViewController.update\lActions">
<polygon fill="white" stroke="black" points="960,-333 960,-363 1140,-363 1140,-333 960,-333"/>
<text text-anchor="start" x="968" y="-351" font-family="Helvetica,sans-Serif" font-size="10.00">gamePlayer.ViewController.update</text>
<text text-anchor="middle" x="1050" y="-340" font-family="Helvetica,sans-Serif" font-size="10.00">Actions</text>
</a>
</g>
</g>
<!-- Node12&#45;&gt;Node14 -->
<g id="edge14" class="edge"><title>Node12&#45;&gt;Node14</title>
<path fill="none" stroke="midnightblue" d="M900.831,-320.836C922.62,-324.83 945.723,-329.066 967.039,-332.974"/>
<polygon fill="midnightblue" stroke="midnightblue" points="901.39,-317.38 890.923,-319.019 900.128,-324.265 901.39,-317.38"/>
</g>
<!-- Node16 -->
<g id="node16" class="node"><title>Node16</title>
<g id="a_node16"><a xlink:href="../../df/df0/classtests_1_1_view_controller_test.html#a74e99f9c72cbdcd2d56271b2ad2df1ce" target="_top" xlink:title="tests.ViewControllerTest.bind\lActionTest">
<polygon fill="white" stroke="black" points="973,-284 973,-314 1127,-314 1127,-284 973,-284"/>
<text text-anchor="start" x="981" y="-302" font-family="Helvetica,sans-Serif" font-size="10.00">tests.ViewControllerTest.bind</text>
<text text-anchor="middle" x="1050" y="-291" font-family="Helvetica,sans-Serif" font-size="10.00">ActionTest</text>
</a>
</g>
</g>
<!-- Node12&#45;&gt;Node16 -->
<g id="edge17" class="edge"><title>Node12&#45;&gt;Node16</title>
<path fill="none" stroke="midnightblue" d="M901.887,-302.065C925.316,-301.577 950.2,-301.058 972.707,-300.589"/>
<polygon fill="midnightblue" stroke="midnightblue" points="901.519,-298.572 891.594,-302.279 901.665,-305.57 901.519,-298.572"/>
</g>
<!-- Node13&#45;&gt;Node10 -->
<g id="edge13" class="edge"><title>Node13&#45;&gt;Node10</title>
<path fill="none" stroke="midnightblue" d="M955.821,-234.725C940.549,-232.759 924.862,-231.064 910,-230 714.057,-215.976 663.667,-212.544 468,-230 445.287,-232.026 420.733,-235.88 398.672,-239.965"/>
<polygon fill="midnightblue" stroke="midnightblue" points="955.41,-238.201 965.784,-236.051 956.334,-231.262 955.41,-238.201"/>
</g>
<!-- Node14&#45;&gt;Node6 -->
<g id="edge15" class="edge"><title>Node14&#45;&gt;Node6</title>
<path fill="none" stroke="midnightblue" d="M1141.31,-364.909C1165.11,-369.366 1190.49,-374.118 1213.24,-378.378"/>
<polygon fill="midnightblue" stroke="midnightblue" points="1141.69,-361.419 1131.22,-363.019 1140.4,-368.3 1141.69,-361.419"/>
</g>
<!-- Node15 -->
<g id="node15" class="node"><title>Node15</title>
<g id="a_node15"><a xlink:href="../../df/df0/classtests_1_1_view_controller_test.html#a785df2c49a72c183c22163ce927f5df1" target="_top" xlink:title="tests.ViewControllerTest.update\lActionsTest">
<polygon fill="white" stroke="black" points="1203.5,-328 1203.5,-358 1370.5,-358 1370.5,-328 1203.5,-328"/>
<text text-anchor="start" x="1211.5" y="-346" font-family="Helvetica,sans-Serif" font-size="10.00">tests.ViewControllerTest.update</text>
<text text-anchor="middle" x="1287" y="-335" font-family="Helvetica,sans-Serif" font-size="10.00">ActionsTest</text>
</a>
</g>
</g>
<!-- Node14&#45;&gt;Node15 -->
<g id="edge16" class="edge"><title>Node14&#45;&gt;Node15</title>
<path fill="none" stroke="midnightblue" d="M1150.49,-345.883C1168.14,-345.508 1186.34,-345.12 1203.46,-344.756"/>
<polygon fill="midnightblue" stroke="midnightblue" points="1150.1,-342.391 1140.18,-346.103 1150.25,-349.389 1150.1,-342.391"/>
</g>
<!-- Node19 -->
<g id="node19" class="node"><title>Node19</title>
<g id="a_node19"><a xlink:href="../../df/dd5/classgame_player_1_1_view_controller.html#a10a40967a873f067cf91b024ff85b38e" target="_top" xlink:title="gamePlayer.ViewController.initializeGrid">
<polygon fill="white" stroke="black" points="706,-145.5 706,-164.5 910,-164.5 910,-145.5 706,-145.5"/>
<text text-anchor="middle" x="808" y="-152.5" font-family="Helvetica,sans-Serif" font-size="10.00">gamePlayer.ViewController.initializeGrid</text>
</a>
</g>
</g>
<!-- Node18&#45;&gt;Node19 -->
<g id="edge21" class="edge"><title>Node18&#45;&gt;Node19</title>
<path fill="none" stroke="midnightblue" d="M659.843,-161.209C674.84,-160.576 690.488,-159.916 705.747,-159.272"/>
<polygon fill="midnightblue" stroke="midnightblue" points="659.42,-157.724 649.577,-161.642 659.716,-164.718 659.42,-157.724"/>
</g>
<!-- Node20 -->
<g id="node20" class="node"><title>Node20</title>
<g id="a_node20"><a xlink:href="../../df/dd5/classgame_player_1_1_view_controller.html#aabf431713b65ec510f1cb2df12da4e45" target="_top" xlink:title="gamePlayer.ViewController.test\lPlayGameInTab">
<polygon fill="white" stroke="black" points="967.5,-137 967.5,-167 1132.5,-167 1132.5,-137 967.5,-137"/>
<text text-anchor="start" x="975.5" y="-155" font-family="Helvetica,sans-Serif" font-size="10.00">gamePlayer.ViewController.test</text>
<text text-anchor="middle" x="1050" y="-144" font-family="Helvetica,sans-Serif" font-size="10.00">PlayGameInTab</text>
</a>
</g>
</g>
<!-- Node19&#45;&gt;Node20 -->
<g id="edge22" class="edge"><title>Node19&#45;&gt;Node20</title>
<path fill="none" stroke="midnightblue" d="M920.427,-153.607C936.226,-153.41 952.223,-153.21 967.317,-153.021"/>
<polygon fill="midnightblue" stroke="midnightblue" points="920.041,-150.112 910.086,-153.736 920.129,-157.111 920.041,-150.112"/>
</g>
<!-- Node21 -->
<g id="node21" class="node"><title>Node21</title>
<g id="a_node21"><a xlink:href="../../df/dd5/classgame_player_1_1_view_controller.html#a0d1a3d443966f151b070dc751d2faf9a" target="_top" xlink:title="gamePlayer.ViewController.restartGame">
<polygon fill="white" stroke="black" points="946,-98.5 946,-117.5 1154,-117.5 1154,-98.5 946,-98.5"/>
<text text-anchor="middle" x="1050" y="-105.5" font-family="Helvetica,sans-Serif" font-size="10.00">gamePlayer.ViewController.restartGame</text>
</a>
</g>
</g>
<!-- Node19&#45;&gt;Node21 -->
<g id="edge23" class="edge"><title>Node19&#45;&gt;Node21</title>
<path fill="none" stroke="midnightblue" d="M864.61,-143.382C889.487,-138.25 919.191,-132.212 946,-127 962.332,-123.825 980.148,-120.492 996.3,-117.52"/>
<polygon fill="midnightblue" stroke="midnightblue" points="863.707,-139.995 854.623,-145.447 865.125,-146.85 863.707,-139.995"/>
</g>
<!-- Node22 -->
<g id="node22" class="node"><title>Node22</title>
<g id="a_node22"><a xlink:href="../../df/dd5/classgame_player_1_1_view_controller.html#a620f8a02d3ac7677cd179fcd812aca55" target="_top" xlink:title="gamePlayer.ViewController.check\lEndActions">
<polygon fill="white" stroke="black" points="963,-0 963,-30 1137,-30 1137,-0 963,-0"/>
<text text-anchor="start" x="971" y="-18" font-family="Helvetica,sans-Serif" font-size="10.00">gamePlayer.ViewController.check</text>
<text text-anchor="middle" x="1050" y="-7" font-family="Helvetica,sans-Serif" font-size="10.00">EndActions</text>
</a>
</g>
</g>
<!-- Node19&#45;&gt;Node22 -->
<g id="edge24" class="edge"><title>Node19&#45;&gt;Node22</title>
<path fill="none" stroke="midnightblue" d="M894.717,-141.215C900.212,-138.386 905.382,-135.015 910,-131 943.139,-102.195 912.798,-67.7326 946,-39 951.068,-34.6145 956.784,-30.9916 962.861,-28.0031"/>
<polygon fill="midnightblue" stroke="midnightblue" points="892.898,-138.195 885.206,-145.481 895.762,-144.583 892.898,-138.195"/>
</g>
<!-- Node25 -->
<g id="node25" class="node"><title>Node25</title>
<g id="a_node25"><a xlink:href="../../df/dd5/classgame_player_1_1_view_controller.html#adc15cd81cefb88c58f9d3b7478328df8" target="_top" xlink:title="gamePlayer.ViewController.test\lPlayGUIGame">
<polygon fill="white" stroke="black" points="967.5,-49 967.5,-79 1132.5,-79 1132.5,-49 967.5,-49"/>
<text text-anchor="start" x="975.5" y="-67" font-family="Helvetica,sans-Serif" font-size="10.00">gamePlayer.ViewController.test</text>
<text text-anchor="middle" x="1050" y="-56" font-family="Helvetica,sans-Serif" font-size="10.00">PlayGUIGame</text>
</a>
</g>
</g>
<!-- Node19&#45;&gt;Node25 -->
<g id="edge28" class="edge"><title>Node19&#45;&gt;Node25</title>
<path fill="none" stroke="midnightblue" d="M885.505,-142.33C894.093,-139.323 902.454,-135.603 910,-131 930.989,-118.197 925.042,-101.853 946,-89 952.667,-84.9114 959.958,-81.4913 967.484,-78.6304"/>
<polygon fill="midnightblue" stroke="midnightblue" points="884.216,-139.067 875.745,-145.43 886.335,-145.738 884.216,-139.067"/>
</g>
<!-- Node26 -->
<g id="node26" class="node"><title>Node26</title>
<g id="a_node26"><a xlink:href="../../df/dd5/classgame_player_1_1_view_controller.html#a4c1754d129a4eac955390b428eaa448a" target="_top" xlink:title="gamePlayer.ViewController.test\lPlayGame">
<polygon fill="white" stroke="black" points="967.5,-186 967.5,-216 1132.5,-216 1132.5,-186 967.5,-186"/>
<text text-anchor="start" x="975.5" y="-204" font-family="Helvetica,sans-Serif" font-size="10.00">gamePlayer.ViewController.test</text>
<text text-anchor="middle" x="1050" y="-193" font-family="Helvetica,sans-Serif" font-size="10.00">PlayGame</text>
</a>
</g>
</g>
<!-- Node19&#45;&gt;Node26 -->
<g id="edge29" class="edge"><title>Node19&#45;&gt;Node26</title>
<path fill="none" stroke="midnightblue" d="M868.866,-166.474C899.612,-172.367 937.461,-179.622 970.516,-185.957"/>
<polygon fill="midnightblue" stroke="midnightblue" points="869.208,-162.976 858.728,-164.531 867.891,-169.851 869.208,-162.976"/>
</g>
<!-- Node22&#45;&gt;Node10 -->
<g id="edge25" class="edge"><title>Node22&#45;&gt;Node10</title>
<path fill="none" stroke="midnightblue" d="M969.794,-32.2172C893.13,-48.863 773.625,-74.7606 670,-97 580.254,-116.261 538.203,-80.8666 468,-140 435.05,-167.754 464.553,-201.781 432,-230 427.551,-233.857 422.604,-237.14 417.355,-239.933"/>
<polygon fill="midnightblue" stroke="midnightblue" points="970.827,-35.5747 979.856,-30.0323 969.341,-28.7341 970.827,-35.5747"/>
</g>
<!-- Node23 -->
<g id="node23" class="node"><title>Node23</title>
<g id="a_node23"><a xlink:href="../../df/dd5/classgame_player_1_1_view_controller.html#a13ea7814bde61a8042c5b1a23af41416" target="_top" xlink:title="gamePlayer.ViewController.end\lAction">
<polygon fill="white" stroke="black" points="1205,-0 1205,-30 1369,-30 1369,-0 1205,-0"/>
<text text-anchor="start" x="1213" y="-18" font-family="Helvetica,sans-Serif" font-size="10.00">gamePlayer.ViewController.end</text>
<text text-anchor="middle" x="1287" y="-7" font-family="Helvetica,sans-Serif" font-size="10.00">Action</text>
</a>
</g>
</g>
<!-- Node22&#45;&gt;Node23 -->
<g id="edge26" class="edge"><title>Node22&#45;&gt;Node23</title>
<path fill="none" stroke="midnightblue" d="M1147.39,-15C1166.5,-15 1186.38,-15 1204.92,-15"/>
<polygon fill="midnightblue" stroke="midnightblue" points="1147.17,-11.5001 1137.17,-15 1147.17,-18.5001 1147.17,-11.5001"/>
</g>
<!-- Node24 -->
<g id="node24" class="node"><title>Node24</title>
<g id="a_node24"><a xlink:href="../../db/d00/classgame_player_1_1_apply_state.html#aed42c1aba25264bc6880036f693a1c9e" target="_top" xlink:title="gamePlayer.ApplyState.on\lClick">
<polygon fill="white" stroke="black" points="1441.5,-0 1441.5,-30 1584.5,-30 1584.5,-0 1441.5,-0"/>
<text text-anchor="start" x="1449.5" y="-18" font-family="Helvetica,sans-Serif" font-size="10.00">gamePlayer.ApplyState.on</text>
<text text-anchor="middle" x="1513" y="-7" font-family="Helvetica,sans-Serif" font-size="10.00">Click</text>
</a>
</g>
</g>
<!-- Node23&#45;&gt;Node24 -->
<g id="edge27" class="edge"><title>Node23&#45;&gt;Node24</title>
<path fill="none" stroke="midnightblue" d="M1379.27,-15C1400.01,-15 1421.73,-15 1441.45,-15"/>
<polygon fill="midnightblue" stroke="midnightblue" points="1379.19,-11.5001 1369.19,-15 1379.19,-18.5001 1379.19,-11.5001"/>
</g>
<!-- Node27 -->
<g id="node27" class="node"><title>Node27</title>
<g id="a_node27"><a xlink:href="../../db/d40/classfxml__main_1_1_authoring_controller.html#a2ec133c8edf0a7ab1e84f2e12455233d" target="_top" xlink:title="fxml_main.AuthoringController.save\lAsGame">
<polygon fill="white" stroke="black" points="1193.5,-208 1193.5,-238 1380.5,-238 1380.5,-208 1193.5,-208"/>
<text text-anchor="start" x="1201.5" y="-226" font-family="Helvetica,sans-Serif" font-size="10.00">fxml_main.AuthoringController.save</text>
<text text-anchor="middle" x="1287" y="-215" font-family="Helvetica,sans-Serif" font-size="10.00">AsGame</text>
</a>
</g>
</g>
<!-- Node26&#45;&gt;Node27 -->
<g id="edge30" class="edge"><title>Node26&#45;&gt;Node27</title>
<path fill="none" stroke="midnightblue" d="M1142.77,-209.591C1159.38,-211.146 1176.7,-212.768 1193.34,-214.325"/>
<polygon fill="midnightblue" stroke="midnightblue" points="1142.81,-206.08 1132.53,-208.633 1142.16,-213.05 1142.81,-206.08"/>
</g>
<!-- Node28 -->
<g id="node28" class="node"><title>Node28</title>
<g id="a_node28"><a xlink:href="../../df/dd5/classgame_player_1_1_view_controller.html#a2bf1dce04187ad5eacb5359ef2b4eff8" target="_top" xlink:title="gamePlayer.ViewController.newGame">
<polygon fill="white" stroke="black" points="1190,-169.5 1190,-188.5 1384,-188.5 1384,-169.5 1190,-169.5"/>
<text text-anchor="middle" x="1287" y="-176.5" font-family="Helvetica,sans-Serif" font-size="10.00">gamePlayer.ViewController.newGame</text>
</a>
</g>
</g>
<!-- Node26&#45;&gt;Node28 -->
<g id="edge31" class="edge"><title>Node26&#45;&gt;Node28</title>
<path fill="none" stroke="midnightblue" d="M1142.58,-192.427C1158.03,-190.981 1174.1,-189.476 1189.66,-188.019"/>
<polygon fill="midnightblue" stroke="midnightblue" points="1142.16,-188.95 1132.53,-193.367 1142.81,-195.92 1142.16,-188.95"/>
</g>
<!-- Node29 -->
<g id="node29" class="node"><title>Node29</title>
<g id="a_node29"><a xlink:href="../../df/dd5/classgame_player_1_1_view_controller.html#a2acd822c93c35674b6978a97b4ce6e3f" target="_top" xlink:title="gamePlayer.ViewController.\lViewController">
<polygon fill="white" stroke="black" points="1440,-164 1440,-194 1586,-194 1586,-164 1440,-164"/>
<text text-anchor="start" x="1448" y="-182" font-family="Helvetica,sans-Serif" font-size="10.00">gamePlayer.ViewController.</text>
<text text-anchor="middle" x="1513" y="-171" font-family="Helvetica,sans-Serif" font-size="10.00">ViewController</text>
</a>
</g>
</g>
<!-- Node28&#45;&gt;Node29 -->
<g id="edge32" class="edge"><title>Node28&#45;&gt;Node29</title>
<path fill="none" stroke="midnightblue" d="M1394.38,-179C1409.77,-179 1425.3,-179 1439.81,-179"/>
<polygon fill="midnightblue" stroke="midnightblue" points="1394.3,-175.5 1384.3,-179 1394.3,-182.5 1394.3,-175.5"/>
</g>
<!-- Node31 -->
<g id="node31" class="node"><title>Node31</title>
<g id="a_node31"><a xlink:href="../../d8/d4d/classgameengine_1_1player_1_1_simple_a_i_player.html#a9a241075e35d6039a453f51445e9837c" target="_top" xlink:title="gameengine.player.Simple\lAIPlayer.startTurn">
<polygon fill="white" stroke="black" points="497,-9 497,-39 641,-39 641,-9 497,-9"/>
<text text-anchor="start" x="505" y="-27" font-family="Helvetica,sans-Serif" font-size="10.00">gameengine.player.Simple</text>
<text text-anchor="middle" x="569" y="-16" font-family="Helvetica,sans-Serif" font-size="10.00">AIPlayer.startTurn</text>
</a>
</g>
</g>
<!-- Node30&#45;&gt;Node31 -->
<g id="edge34" class="edge"><title>Node30&#45;&gt;Node31</title>
<path fill="none" stroke="midnightblue" d="M410.253,-39.1807C438.341,-36.4776 469.581,-33.4713 496.8,-30.8519"/>
<polygon fill="midnightblue" stroke="midnightblue" points="409.68,-35.7196 400.061,-40.1615 410.35,-42.6874 409.68,-35.7196"/>
</g>
<!-- Node33 -->
<g id="node33" class="node"><title>Node33</title>
<g id="a_node33"><a xlink:href="../../da/d4c/classauthoring__environment_1_1_g_u_i_grid.html#a064e421c8d8d0268bb7d1db7e66590b5" target="_top" xlink:title="authoring_environment.GUIGrid.add\lPieceAtLoc">
<polygon fill="white" stroke="black" points="474.5,-530 474.5,-560 663.5,-560 663.5,-530 474.5,-530"/>
<text text-anchor="start" x="482.5" y="-548" font-family="Helvetica,sans-Serif" font-size="10.00">authoring_environment.GUIGrid.add</text>
<text text-anchor="middle" x="569" y="-537" font-family="Helvetica,sans-Serif" font-size="10.00">PieceAtLoc</text>
</a>
</g>
</g>
<!-- Node32&#45;&gt;Node33 -->
<g id="edge36" class="edge"><title>Node32&#45;&gt;Node33</title>
<path fill="none" stroke="midnightblue" d="M379.178,-490.517C405.455,-499.91 438.27,-511.169 468,-520 479.665,-523.465 492.189,-526.853 504.292,-529.961"/>
<polygon fill="midnightblue" stroke="midnightblue" points="380.042,-487.108 369.447,-487.017 377.673,-493.695 380.042,-487.108"/>
</g>
<!-- Node43 -->
<g id="node43" class="node"><title>Node43</title>
<g id="a_node43"><a xlink:href="../../dc/d77/classfxml__main_1_1_piece_controller.html#a7190534f96aae2433b925ff2ba45ee20" target="_top" xlink:title="fxml_main.PieceController.init\lGlobalDelBtn">
<polygon fill="white" stroke="black" points="490,-432 490,-462 648,-462 648,-432 490,-432"/>
<text text-anchor="start" x="498" y="-450" font-family="Helvetica,sans-Serif" font-size="10.00">fxml_main.PieceController.init</text>
<text text-anchor="middle" x="569" y="-439" font-family="Helvetica,sans-Serif" font-size="10.00">GlobalDelBtn</text>
</a>
</g>
</g>
<!-- Node32&#45;&gt;Node43 -->
<g id="edge47" class="edge"><title>Node32&#45;&gt;Node43</title>
<path fill="none" stroke="midnightblue" d="M442.1,-460.169C458.223,-458.483 474.501,-456.78 489.757,-455.184"/>
<polygon fill="midnightblue" stroke="midnightblue" points="441.673,-456.695 432.092,-461.216 442.402,-463.657 441.673,-456.695"/>
</g>
<!-- Node44 -->
<g id="node44" class="node"><title>Node44</title>
<g id="a_node44"><a xlink:href="../../dd/dfa/classgamedata_1_1events_1_1globalaction_1_1_delete_piece_at_location.html#ab1fe115131d732f046e4775b1aa33b54" target="_top" xlink:title="gamedata.events.globalaction.\lDeletePieceAtLocation.doBehavior">
<polygon fill="white" stroke="black" points="478,-481 478,-511 660,-511 660,-481 478,-481"/>
<text text-anchor="start" x="486" y="-499" font-family="Helvetica,sans-Serif" font-size="10.00">gamedata.events.globalaction.</text>
<text text-anchor="middle" x="569" y="-488" font-family="Helvetica,sans-Serif" font-size="10.00">DeletePieceAtLocation.doBehavior</text>
</a>
</g>
</g>
<!-- Node32&#45;&gt;Node44 -->
<g id="edge48" class="edge"><title>Node32&#45;&gt;Node44</title>
<path fill="none" stroke="midnightblue" d="M442.082,-483.355C454.011,-484.553 466.026,-485.76 477.65,-486.927"/>
<polygon fill="midnightblue" stroke="midnightblue" points="442.391,-479.869 432.092,-482.352 441.692,-486.834 442.391,-479.869"/>
</g>
<!-- Node33&#45;&gt;Node3 -->
<g id="edge45" class="edge"><title>Node33&#45;&gt;Node3</title>
<path fill="none" stroke="midnightblue" d="M673.713,-561.629C689.089,-564.095 704.803,-566.614 719.796,-569.018"/>
<polygon fill="midnightblue" stroke="midnightblue" points="674.097,-558.146 663.669,-560.019 672.988,-565.058 674.097,-558.146"/>
</g>
<!-- Node34 -->
<g id="node34" class="node"><title>Node34</title>
<g id="a_node34"><a xlink:href="../../d3/d12/classtests_1_1_test_game_creator.html#a4c85cf768c7e38e9b2f6db858e8764ec" target="_top" xlink:title="tests.TestGameCreator.create\lNewGrid">
<polygon fill="white" stroke="black" points="727.5,-470 727.5,-500 888.5,-500 888.5,-470 727.5,-470"/>
<text text-anchor="start" x="735.5" y="-488" font-family="Helvetica,sans-Serif" font-size="10.00">tests.TestGameCreator.create</text>
<text text-anchor="middle" x="808" y="-477" font-family="Helvetica,sans-Serif" font-size="10.00">NewGrid</text>
</a>
</g>
</g>
<!-- Node33&#45;&gt;Node34 -->
<g id="edge37" class="edge"><title>Node33&#45;&gt;Node34</title>
<path fill="none" stroke="midnightblue" d="M642.041,-527.462C651.466,-525.03 660.978,-522.504 670,-520 686.121,-515.525 689.853,-513.381 706,-509 717.306,-505.933 729.382,-502.876 741.108,-500.022"/>
<polygon fill="midnightblue" stroke="midnightblue" points="641.098,-524.091 632.276,-529.959 642.832,-530.873 641.098,-524.091"/>
</g>
<!-- Node42 -->
<g id="node42" class="node"><title>Node42</title>
<g id="a_node42"><a xlink:href="../../dc/d77/classfxml__main_1_1_piece_controller.html#a57d25cb33125e10494c536f9fbce1434" target="_top" xlink:title="fxml_main.PieceController.make\lEntryBox">
<polygon fill="white" stroke="black" points="723,-519 723,-549 893,-549 893,-519 723,-519"/>
<text text-anchor="start" x="731" y="-537" font-family="Helvetica,sans-Serif" font-size="10.00">fxml_main.PieceController.make</text>
<text text-anchor="middle" x="808" y="-526" font-family="Helvetica,sans-Serif" font-size="10.00">EntryBox</text>
</a>
</g>
</g>
<!-- Node33&#45;&gt;Node42 -->
<g id="edge46" class="edge"><title>Node33&#45;&gt;Node42</title>
<path fill="none" stroke="midnightblue" d="M673.815,-540.182C690.207,-539.421 706.98,-538.642 722.854,-537.906"/>
<polygon fill="midnightblue" stroke="midnightblue" points="673.496,-536.693 663.669,-540.653 673.82,-543.685 673.496,-536.693"/>
</g>
<!-- Node35 -->
<g id="node35" class="node"><title>Node35</title>
<g id="a_node35"><a xlink:href="../../d3/d12/classtests_1_1_test_game_creator.html#a6088501ec4cce8d90d4561b695065a0d" target="_top" xlink:title="tests.TestGameCreator.create\lNewGame">
<polygon fill="white" stroke="black" points="969.5,-506 969.5,-536 1130.5,-536 1130.5,-506 969.5,-506"/>
<text text-anchor="start" x="977.5" y="-524" font-family="Helvetica,sans-Serif" font-size="10.00">tests.TestGameCreator.create</text>
<text text-anchor="middle" x="1050" y="-513" font-family="Helvetica,sans-Serif" font-size="10.00">NewGame</text>
</a>
</g>
</g>
<!-- Node34&#45;&gt;Node35 -->
<g id="edge38" class="edge"><title>Node34&#45;&gt;Node35</title>
<path fill="none" stroke="midnightblue" d="M898.739,-498.461C921.88,-501.932 946.627,-505.644 969.223,-509.033"/>
<polygon fill="midnightblue" stroke="midnightblue" points="898.992,-494.96 888.583,-496.937 897.953,-501.882 898.992,-494.96"/>
</g>
<!-- Node36 -->
<g id="node36" class="node"><title>Node36</title>
<g id="a_node36"><a xlink:href="../../d8/d93/classauthoring_1_1concretefeatures_1_1menus_1_1_file_x.html#a06eadcf7852f723bc5a70d08a1bc5f3f" target="_top" xlink:title="authoring.concretefeatures.menus.\lFileX.handleSave">
<polygon fill="white" stroke="black" points="1194,-457 1194,-487 1380,-487 1380,-457 1194,-457"/>
<text text-anchor="start" x="1202" y="-475" font-family="Helvetica,sans-Serif" font-size="10.00">authoring.concretefeatures.menus.</text>
<text text-anchor="middle" x="1287" y="-464" font-family="Helvetica,sans-Serif" font-size="10.00">FileX.handleSave</text>
</a>
</g>
</g>
<!-- Node35&#45;&gt;Node36 -->
<g id="edge39" class="edge"><title>Node35&#45;&gt;Node36</title>
<path fill="none" stroke="midnightblue" d="M1133.07,-503.887C1159.44,-498.389 1188.44,-492.342 1214.03,-487.006"/>
<polygon fill="midnightblue" stroke="midnightblue" points="1132.18,-500.498 1123.1,-505.965 1133.61,-507.35 1132.18,-500.498"/>
</g>
<!-- Node38 -->
<g id="node38" class="node"><title>Node38</title>
<g id="a_node38"><a xlink:href="../../df/dd5/classgame_player_1_1_view_controller.html#ac0350fa190876455755b7fb25f567af1" target="_top" xlink:title="gamePlayer.ViewController.testGame">
<polygon fill="white" stroke="black" points="1190,-555.5 1190,-574.5 1384,-574.5 1384,-555.5 1190,-555.5"/>
<text text-anchor="middle" x="1287" y="-562.5" font-family="Helvetica,sans-Serif" font-size="10.00">gamePlayer.ViewController.testGame</text>
</a>
</g>
</g>
<!-- Node35&#45;&gt;Node38 -->
<g id="edge41" class="edge"><title>Node35&#45;&gt;Node38</title>
<path fill="none" stroke="midnightblue" d="M1140.79,-537.812C1172.65,-543.777 1207.4,-550.283 1234.91,-555.434"/>
<polygon fill="midnightblue" stroke="midnightblue" points="1141.03,-534.297 1130.56,-535.896 1139.75,-541.177 1141.03,-534.297"/>
</g>
<!-- Node39 -->
<g id="node39" class="node"><title>Node39</title>
<g id="a_node39"><a xlink:href="../../d9/d51/classtests_1_1_global_action_tester.html#acc8e81a79086b93c043129dba02b3854" target="_top" xlink:title="tests.GlobalActionTester.\lGlobalActionTester">
<polygon fill="white" stroke="black" points="1220,-506 1220,-536 1354,-536 1354,-506 1220,-506"/>
<text text-anchor="start" x="1228" y="-524" font-family="Helvetica,sans-Serif" font-size="10.00">tests.GlobalActionTester.</text>
<text text-anchor="middle" x="1287" y="-513" font-family="Helvetica,sans-Serif" font-size="10.00">GlobalActionTester</text>
</a>
</g>
</g>
<!-- Node35&#45;&gt;Node39 -->
<g id="edge42" class="edge"><title>Node35&#45;&gt;Node39</title>
<path fill="none" stroke="midnightblue" d="M1140.89,-521C1167.14,-521 1195.33,-521 1219.82,-521"/>
<polygon fill="midnightblue" stroke="midnightblue" points="1140.56,-517.5 1130.56,-521 1140.56,-524.5 1140.56,-517.5"/>
</g>
<!-- Node35&#45;&gt;Node40 -->
<g id="edge43" class="edge"><title>Node35&#45;&gt;Node40</title>
<path fill="none" stroke="midnightblue" d="M1090.89,-540.69C1137.36,-563.629 1213.13,-601.031 1255.27,-621.831"/>
<polygon fill="midnightblue" stroke="midnightblue" points="1092.24,-537.453 1081.72,-536.165 1089.14,-543.73 1092.24,-537.453"/>
</g>
<!-- Node37 -->
<g id="node37" class="node"><title>Node37</title>
<g id="a_node37"><a xlink:href="../../d8/d93/classauthoring_1_1concretefeatures_1_1menus_1_1_file_x.html#a4b99e0877ab0c9e769217c815f3b99a1" target="_top" xlink:title="authoring.concretefeatures.menus.\lFileX.FileX">
<polygon fill="white" stroke="black" points="1420,-457 1420,-487 1606,-487 1606,-457 1420,-457"/>
<text text-anchor="start" x="1428" y="-475" font-family="Helvetica,sans-Serif" font-size="10.00">authoring.concretefeatures.menus.</text>
<text text-anchor="middle" x="1513" y="-464" font-family="Helvetica,sans-Serif" font-size="10.00">FileX.FileX</text>
</a>
</g>
</g>
<!-- Node36&#45;&gt;Node37 -->
<g id="edge40" class="edge"><title>Node36&#45;&gt;Node37</title>
<path fill="none" stroke="midnightblue" d="M1390.31,-472C1400.18,-472 1410.15,-472 1419.92,-472"/>
<polygon fill="midnightblue" stroke="midnightblue" points="1390.08,-468.5 1380.08,-472 1390.08,-475.5 1390.08,-468.5"/>
</g>
<!-- Node41 -->
<g id="node41" class="node"><title>Node41</title>
<g id="a_node41"><a xlink:href="../../d7/df4/classtests_1_1_j_s_o_n_tester_main.html#a931215da47157cbc5157c6a9df31ccd4" target="_top" xlink:title="tests.JSONTesterMain.main">
<polygon fill="white" stroke="black" points="1440,-627.5 1440,-646.5 1586,-646.5 1586,-627.5 1440,-627.5"/>
<text text-anchor="middle" x="1513" y="-634.5" font-family="Helvetica,sans-Serif" font-size="10.00">tests.JSONTesterMain.main</text>
</a>
</g>
</g>
<!-- Node40&#45;&gt;Node41 -->
<g id="edge44" class="edge"><title>Node40&#45;&gt;Node41</title>
<path fill="none" stroke="midnightblue" d="M1367.35,-637C1390.92,-637 1416.6,-637 1439.7,-637"/>
<polygon fill="midnightblue" stroke="midnightblue" points="1367.04,-633.5 1357.04,-637 1367.04,-640.5 1367.04,-633.5"/>
</g>
<!-- Node44&#45;&gt;Node45 -->
<g id="edge49" class="edge"><title>Node44&#45;&gt;Node45</title>
<path fill="none" stroke="midnightblue" d="M642.044,-478.47C651.468,-476.036 660.979,-473.509 670,-471 671.138,-470.683 719.223,-455.936 758.104,-444.006"/>
<polygon fill="midnightblue" stroke="midnightblue" points="641.099,-475.099 632.279,-480.968 642.834,-481.881 641.099,-475.099"/>
</g>
</g>
</svg>
