<?xml version="1.0" encoding="UTF-8" standalone="no"?>
<!DOCTYPE svg PUBLIC "-//W3C//DTD SVG 1.1//EN"
 "http://www.w3.org/Graphics/SVG/1.1/DTD/svg11.dtd">
<!-- Generated by graphviz version 2.36.0 (20140111.2315)
 -->
<!-- Title: authoring_environment.GUIGrid.addPatchAtLoc Pages: 1 -->
<svg width="882pt" height="326pt"
 viewBox="0.00 0.00 882.00 326.00" xmlns="http://www.w3.org/2000/svg" xmlns:xlink="http://www.w3.org/1999/xlink">
<g id="graph0" class="graph" transform="scale(1 1) rotate(0) translate(4 322)">
<title>authoring_environment.GUIGrid.addPatchAtLoc</title>
<polygon fill="white" stroke="none" points="-4,4 -4,-322 878,-322 878,4 -4,4"/>
<!-- Node1 -->
<g id="node1" class="node"><title>Node1</title>
<polygon fill="#bfbfbf" stroke="black" points="0.5,-93 0.5,-123 189.5,-123 189.5,-93 0.5,-93"/>
<text text-anchor="start" x="8.5" y="-111" font-family="Helvetica,sans-Serif" font-size="10.00">authoring_environment.GUIGrid.add</text>
<text text-anchor="middle" x="95" y="-100" font-family="Helvetica,sans-Serif" font-size="10.00">PatchAtLoc</text>
</g>
<!-- Node2 -->
<g id="node2" class="node"><title>Node2</title>
<g id="a_node2"><a xlink:href="../../d7/dd4/classauthoring_1_1data_1_1_patch_instance_data.html#a740aeb79225ad2a036656c599f1605ce" target="_top" xlink:title="authoring.data.PatchInstance\lData.add">
<polygon fill="white" stroke="black" points="251.5,-241 251.5,-271 408.5,-271 408.5,-241 251.5,-241"/>
<text text-anchor="start" x="259.5" y="-259" font-family="Helvetica,sans-Serif" font-size="10.00">authoring.data.PatchInstance</text>
<text text-anchor="middle" x="330" y="-248" font-family="Helvetica,sans-Serif" font-size="10.00">Data.add</text>
</a>
</g>
</g>
<!-- Node1&#45;&gt;Node2 -->
<g id="edge1" class="edge"><title>Node1&#45;&gt;Node2</title>
<path fill="none" stroke="midnightblue" d="M119.624,-123.005C161.578,-149.654 249.133,-205.269 296.649,-235.451"/>
<polygon fill="midnightblue" stroke="midnightblue" points="294.996,-238.547 305.314,-240.955 298.749,-232.639 294.996,-238.547"/>
</g>
<!-- Node5 -->
<g id="node5" class="node"><title>Node5</title>
<g id="a_node5"><a xlink:href="../../d9/df2/classgamedata_1_1gamecomponents_1_1_grid_component.html#a9a5b2359d22e7d79d5065826a0dc8211" target="_top" xlink:title="gamedata.gamecomponents.\lGridComponent.getImageView">
<polygon fill="white" stroke="black" points="248.5,-49 248.5,-79 411.5,-79 411.5,-49 248.5,-49"/>
<text text-anchor="start" x="256.5" y="-67" font-family="Helvetica,sans-Serif" font-size="10.00">gamedata.gamecomponents.</text>
<text text-anchor="middle" x="330" y="-56" font-family="Helvetica,sans-Serif" font-size="10.00">GridComponent.getImageView</text>
</a>
</g>
</g>
<!-- Node1&#45;&gt;Node5 -->
<g id="edge4" class="edge"><title>Node1&#45;&gt;Node5</title>
<path fill="none" stroke="midnightblue" d="M175.534,-92.9808C196.133,-89.0908 218.453,-84.8759 239.524,-80.8968"/>
<polygon fill="midnightblue" stroke="midnightblue" points="240.253,-84.3211 249.429,-79.0262 238.954,-77.4427 240.253,-84.3211"/>
</g>
<!-- Node7 -->
<g id="node7" class="node"><title>Node7</title>
<g id="a_node7"><a xlink:href="../../da/d4c/classauthoring__environment_1_1_g_u_i_grid.html#aae553512b4d34302577601426c0eaa2f" target="_top" xlink:title="authoring_environment.GUIGrid.is\lPatchOccupied">
<polygon fill="white" stroke="black" points="484.5,-92 484.5,-122 663.5,-122 663.5,-92 484.5,-92"/>
<text text-anchor="start" x="492.5" y="-110" font-family="Helvetica,sans-Serif" font-size="10.00">authoring_environment.GUIGrid.is</text>
<text text-anchor="middle" x="574" y="-99" font-family="Helvetica,sans-Serif" font-size="10.00">PatchOccupied</text>
</a>
</g>
</g>
<!-- Node1&#45;&gt;Node7 -->
<g id="edge6" class="edge"><title>Node1&#45;&gt;Node7</title>
<path fill="none" stroke="midnightblue" d="M189.671,-107.804C271.798,-107.631 390.798,-107.382 474.368,-107.207"/>
<polygon fill="midnightblue" stroke="midnightblue" points="474.387,-110.707 484.379,-107.186 474.372,-103.707 474.387,-110.707"/>
</g>
<!-- Node9 -->
<g id="node9" class="node"><title>Node9</title>
<g id="a_node9"><a xlink:href="../../da/d4c/classauthoring__environment_1_1_g_u_i_grid.html#a7eab390461914d473383c90e9fb6e3b9" target="_top" xlink:title="authoring_environment.GUIGrid.remove\lPatchAtCoordinate">
<polygon fill="white" stroke="black" points="226,-139 226,-169 434,-169 434,-139 226,-139"/>
<text text-anchor="start" x="234" y="-157" font-family="Helvetica,sans-Serif" font-size="10.00">authoring_environment.GUIGrid.remove</text>
<text text-anchor="middle" x="330" y="-146" font-family="Helvetica,sans-Serif" font-size="10.00">PatchAtCoordinate</text>
</a>
</g>
</g>
<!-- Node1&#45;&gt;Node9 -->
<g id="edge8" class="edge"><title>Node1&#45;&gt;Node9</title>
<path fill="none" stroke="midnightblue" d="M172.293,-123.062C194.938,-127.533 219.894,-132.46 243.105,-137.042"/>
<polygon fill="midnightblue" stroke="midnightblue" points="242.445,-140.479 252.934,-138.983 243.801,-133.612 242.445,-140.479"/>
</g>
<!-- Node15 -->
<g id="node15" class="node"><title>Node15</title>
<g id="a_node15"><a xlink:href="../../dc/d5a/classauthoring__environment_1_1_super_tile.html#a7e65040df400ad3d7a62145816f0cca4" target="_top" xlink:title="authoring_environment.Super\lTile.setPatchImage">
<polygon fill="white" stroke="black" points="250,-0 250,-30 410,-30 410,-0 250,-0"/>
<text text-anchor="start" x="258" y="-18" font-family="Helvetica,sans-Serif" font-size="10.00">authoring_environment.Super</text>
<text text-anchor="middle" x="330" y="-7" font-family="Helvetica,sans-Serif" font-size="10.00">Tile.setPatchImage</text>
</a>
</g>
</g>
<!-- Node1&#45;&gt;Node15 -->
<g id="edge17" class="edge"><title>Node1&#45;&gt;Node15</title>
<path fill="none" stroke="midnightblue" d="M120.032,-92.7964C145.475,-77.2954 187.237,-53.5215 226,-39 231.867,-36.8019 238.001,-34.7634 244.225,-32.8809"/>
<polygon fill="midnightblue" stroke="midnightblue" points="245.414,-36.1808 254.055,-30.0507 243.477,-29.454 245.414,-36.1808"/>
</g>
<!-- Node3 -->
<g id="node3" class="node"><title>Node3</title>
<g id="a_node3"><a xlink:href="../../d9/df2/classgamedata_1_1gamecomponents_1_1_grid_component.html#a97439a493db38860397436079b123e8c" target="_top" xlink:title="gamedata.gamecomponents.\lGridComponent.getLoc">
<polygon fill="white" stroke="black" points="714,-288 714,-318 874,-318 874,-288 714,-288"/>
<text text-anchor="start" x="722" y="-306" font-family="Helvetica,sans-Serif" font-size="10.00">gamedata.gamecomponents.</text>
<text text-anchor="middle" x="794" y="-295" font-family="Helvetica,sans-Serif" font-size="10.00">GridComponent.getLoc</text>
</a>
</g>
</g>
<!-- Node2&#45;&gt;Node3 -->
<g id="edge2" class="edge"><title>Node2&#45;&gt;Node3</title>
<path fill="none" stroke="midnightblue" d="M408.725,-270.83C428.641,-274.242 450.066,-277.575 470,-280 548.665,-289.568 638.629,-295.572 703.599,-299.037"/>
<polygon fill="midnightblue" stroke="midnightblue" points="703.637,-302.544 713.807,-299.571 704.003,-295.553 703.637,-302.544"/>
</g>
<!-- Node4 -->
<g id="node4" class="node"><title>Node4</title>
<g id="a_node4"><a xlink:href="../../d7/dd4/classauthoring_1_1data_1_1_patch_instance_data.html#a49b1a96b6897bdba2ab473736a710047" target="_top" xlink:title="authoring.data.PatchInstance\lData.removePatchAtLoc">
<polygon fill="white" stroke="black" points="495.5,-241 495.5,-271 652.5,-271 652.5,-241 495.5,-241"/>
<text text-anchor="start" x="503.5" y="-259" font-family="Helvetica,sans-Serif" font-size="10.00">authoring.data.PatchInstance</text>
<text text-anchor="middle" x="574" y="-248" font-family="Helvetica,sans-Serif" font-size="10.00">Data.removePatchAtLoc</text>
</a>
</g>
</g>
<!-- Node2&#45;&gt;Node4 -->
<g id="edge3" class="edge"><title>Node2&#45;&gt;Node4</title>
<path fill="none" stroke="midnightblue" d="M408.569,-256C432.992,-256 460.137,-256 485.218,-256"/>
<polygon fill="midnightblue" stroke="midnightblue" points="485.455,-259.5 495.455,-256 485.455,-252.5 485.455,-259.5"/>
</g>
<!-- Node6 -->
<g id="node6" class="node"><title>Node6</title>
<g id="a_node6"><a xlink:href="../../d9/df2/classgamedata_1_1gamecomponents_1_1_grid_component.html#a224e5aae28655f7e26ff73cbde7b0d99" target="_top" xlink:title="gamedata.gamecomponents.\lGridComponent.setImageView">
<polygon fill="white" stroke="black" points="493,-43 493,-73 655,-73 655,-43 493,-43"/>
<text text-anchor="start" x="501" y="-61" font-family="Helvetica,sans-Serif" font-size="10.00">gamedata.gamecomponents.</text>
<text text-anchor="middle" x="574" y="-50" font-family="Helvetica,sans-Serif" font-size="10.00">GridComponent.setImageView</text>
</a>
</g>
</g>
<!-- Node5&#45;&gt;Node6 -->
<g id="edge5" class="edge"><title>Node5&#45;&gt;Node6</title>
<path fill="none" stroke="midnightblue" d="M411.582,-62.0021C434.339,-61.4379 459.251,-60.8202 482.546,-60.2427"/>
<polygon fill="midnightblue" stroke="midnightblue" points="482.859,-63.7361 492.769,-59.9892 482.686,-56.7382 482.859,-63.7361"/>
</g>
<!-- Node8 -->
<g id="node8" class="node"><title>Node8</title>
<g id="a_node8"><a xlink:href="../../d7/dd4/classauthoring_1_1data_1_1_patch_instance_data.html#a60ac72e96e7e0da6f3beb20122a8c041" target="_top" xlink:title="authoring.data.PatchInstance\lData.getData">
<polygon fill="white" stroke="black" points="715.5,-92 715.5,-122 872.5,-122 872.5,-92 715.5,-92"/>
<text text-anchor="start" x="723.5" y="-110" font-family="Helvetica,sans-Serif" font-size="10.00">authoring.data.PatchInstance</text>
<text text-anchor="middle" x="794" y="-99" font-family="Helvetica,sans-Serif" font-size="10.00">Data.getData</text>
</a>
</g>
</g>
<!-- Node7&#45;&gt;Node8 -->
<g id="edge7" class="edge"><title>Node7&#45;&gt;Node8</title>
<path fill="none" stroke="midnightblue" d="M663.669,-107C677.29,-107 691.349,-107 704.956,-107"/>
<polygon fill="midnightblue" stroke="midnightblue" points="705.259,-110.5 715.259,-107 705.259,-103.5 705.259,-110.5"/>
</g>
<!-- Node9&#45;&gt;Node7 -->
<g id="edge11" class="edge"><title>Node9&#45;&gt;Node7</title>
<path fill="none" stroke="midnightblue" d="M408.236,-139C432.903,-134.209 460.375,-128.873 485.705,-123.954"/>
<polygon fill="midnightblue" stroke="midnightblue" points="486.519,-127.361 495.668,-122.019 485.184,-120.49 486.519,-127.361"/>
</g>
<!-- Node10 -->
<g id="node10" class="node"><title>Node10</title>
<g id="a_node10"><a xlink:href="../../da/d4c/classauthoring__environment_1_1_g_u_i_grid.html#a1a7fab3cd600b3c00a33ed4034ba9851" target="_top" xlink:title="authoring_environment.GUIGrid.get\lPatch">
<polygon fill="white" stroke="black" points="480.5,-141 480.5,-171 667.5,-171 667.5,-141 480.5,-141"/>
<text text-anchor="start" x="488.5" y="-159" font-family="Helvetica,sans-Serif" font-size="10.00">authoring_environment.GUIGrid.get</text>
<text text-anchor="middle" x="574" y="-148" font-family="Helvetica,sans-Serif" font-size="10.00">Patch</text>
</a>
</g>
</g>
<!-- Node9&#45;&gt;Node10 -->
<g id="edge9" class="edge"><title>Node9&#45;&gt;Node10</title>
<path fill="none" stroke="midnightblue" d="M434.332,-154.854C446.156,-154.952 458.21,-155.051 470.029,-155.149"/>
<polygon fill="midnightblue" stroke="midnightblue" points="470.315,-158.651 480.343,-155.234 470.373,-151.652 470.315,-158.651"/>
</g>
<!-- Node11 -->
<g id="node11" class="node"><title>Node11</title>
<g id="a_node11"><a xlink:href="../../da/d4c/classauthoring__environment_1_1_g_u_i_grid.html#a2413204cbed4e6aae67dbb5ab1c55505" target="_top" xlink:title="authoring_environment.GUIGrid.remove\lPatch">
<polygon fill="white" stroke="black" points="470,-190 470,-220 678,-220 678,-190 470,-190"/>
<text text-anchor="start" x="478" y="-208" font-family="Helvetica,sans-Serif" font-size="10.00">authoring_environment.GUIGrid.remove</text>
<text text-anchor="middle" x="574" y="-197" font-family="Helvetica,sans-Serif" font-size="10.00">Patch</text>
</a>
</g>
</g>
<!-- Node9&#45;&gt;Node11 -->
<g id="edge12" class="edge"><title>Node9&#45;&gt;Node11</title>
<path fill="none" stroke="midnightblue" d="M402.299,-169.026C430.36,-174.94 462.738,-181.763 491.703,-187.867"/>
<polygon fill="midnightblue" stroke="midnightblue" points="491.286,-191.356 501.793,-189.994 492.729,-184.507 491.286,-191.356"/>
</g>
<!-- Node10&#45;&gt;Node8 -->
<g id="edge10" class="edge"><title>Node10&#45;&gt;Node8</title>
<path fill="none" stroke="midnightblue" d="M641.889,-140.965C665.43,-135.674 692.067,-129.687 716.349,-124.229"/>
<polygon fill="midnightblue" stroke="midnightblue" points="717.249,-127.614 726.238,-122.006 715.714,-120.784 717.249,-127.614"/>
</g>
<!-- Node11&#45;&gt;Node3 -->
<g id="edge15" class="edge"><title>Node11&#45;&gt;Node3</title>
<path fill="none" stroke="midnightblue" d="M656.766,-220.095C664.241,-223.094 671.453,-226.69 678,-231 699.977,-245.468 692.461,-262.887 714,-278 716.854,-280.002 719.875,-281.85 723.007,-283.553"/>
<polygon fill="midnightblue" stroke="midnightblue" points="721.556,-286.74 732.078,-287.984 724.628,-280.45 721.556,-286.74"/>
</g>
<!-- Node12 -->
<g id="node12" class="node"><title>Node12</title>
<g id="a_node12"><a xlink:href="../../d7/dd4/classauthoring_1_1data_1_1_patch_instance_data.html#a3cc84b2fe9d137219655d95e6b73ad6f" target="_top" xlink:title="authoring.data.PatchInstance\lData.remove">
<polygon fill="white" stroke="black" points="715.5,-239 715.5,-269 872.5,-269 872.5,-239 715.5,-239"/>
<text text-anchor="start" x="723.5" y="-257" font-family="Helvetica,sans-Serif" font-size="10.00">authoring.data.PatchInstance</text>
<text text-anchor="middle" x="794" y="-246" font-family="Helvetica,sans-Serif" font-size="10.00">Data.remove</text>
</a>
</g>
</g>
<!-- Node11&#45;&gt;Node12 -->
<g id="edge13" class="edge"><title>Node11&#45;&gt;Node12</title>
<path fill="none" stroke="midnightblue" d="M641.889,-220.035C665.43,-225.326 692.067,-231.313 716.349,-236.771"/>
<polygon fill="midnightblue" stroke="midnightblue" points="715.714,-240.216 726.238,-238.994 717.249,-233.386 715.714,-240.216"/>
</g>
<!-- Node13 -->
<g id="node13" class="node"><title>Node13</title>
<g id="a_node13"><a xlink:href="../../d9/df3/classauthoring__environment_1_1_super_grid.html#aa57ca0acf0ef3aab7d5d98cf9cbbd1d7" target="_top" xlink:title="authoring_environment.Super\lGrid.findTile">
<polygon fill="white" stroke="black" points="714,-190 714,-220 874,-220 874,-190 714,-190"/>
<text text-anchor="start" x="722" y="-208" font-family="Helvetica,sans-Serif" font-size="10.00">authoring_environment.Super</text>
<text text-anchor="middle" x="794" y="-197" font-family="Helvetica,sans-Serif" font-size="10.00">Grid.findTile</text>
</a>
</g>
</g>
<!-- Node11&#45;&gt;Node13 -->
<g id="edge14" class="edge"><title>Node11&#45;&gt;Node13</title>
<path fill="none" stroke="midnightblue" d="M678.254,-205C686.782,-205 695.358,-205 703.77,-205"/>
<polygon fill="midnightblue" stroke="midnightblue" points="703.937,-208.5 713.937,-205 703.937,-201.5 703.937,-208.5"/>
</g>
<!-- Node14 -->
<g id="node14" class="node"><title>Node14</title>
<g id="a_node14"><a xlink:href="../../dc/d5a/classauthoring__environment_1_1_super_tile.html#af629f0c1ad27b8ded911f0461606d056" target="_top" xlink:title="authoring_environment.Super\lTile.removePatchImage">
<polygon fill="white" stroke="black" points="714,-141 714,-171 874,-171 874,-141 714,-141"/>
<text text-anchor="start" x="722" y="-159" font-family="Helvetica,sans-Serif" font-size="10.00">authoring_environment.Super</text>
<text text-anchor="middle" x="794" y="-148" font-family="Helvetica,sans-Serif" font-size="10.00">Tile.removePatchImage</text>
</a>
</g>
</g>
<!-- Node11&#45;&gt;Node14 -->
<g id="edge16" class="edge"><title>Node11&#45;&gt;Node14</title>
<path fill="none" stroke="midnightblue" d="M641.889,-189.965C665.43,-184.674 692.067,-178.687 716.349,-173.229"/>
<polygon fill="midnightblue" stroke="midnightblue" points="717.249,-176.614 726.238,-171.006 715.714,-169.784 717.249,-176.614"/>
</g>
</g>
</svg>
