<?xml version="1.0" encoding="UTF-8" standalone="no"?>
<!DOCTYPE svg PUBLIC "-//W3C//DTD SVG 1.1//EN"
 "http://www.w3.org/Graphics/SVG/1.1/DTD/svg11.dtd">
<!-- Generated by graphviz version 2.36.0 (20140111.2315)
 -->
<!-- Title: authoring.concretefeatures.menus.FileX.FileX Pages: 1 -->
<svg width="1748pt" height="635pt"
 viewBox="0.00 0.00 1748.00 635.00" xmlns="http://www.w3.org/2000/svg" xmlns:xlink="http://www.w3.org/1999/xlink">
<g id="graph0" class="graph" transform="scale(1 1) rotate(0) translate(4 631)">
<title>authoring.concretefeatures.menus.FileX.FileX</title>
<polygon fill="white" stroke="none" points="-4,4 -4,-631 1744,-631 1744,4 -4,4"/>
<!-- Node1 -->
<g id="node1" class="node"><title>Node1</title>
<polygon fill="#bfbfbf" stroke="black" points="0,-476 0,-506 186,-506 186,-476 0,-476"/>
<text text-anchor="start" x="8" y="-494" font-family="Helvetica,sans-Serif" font-size="10.00">authoring.concretefeatures.menus.</text>
<text text-anchor="middle" x="93" y="-483" font-family="Helvetica,sans-Serif" font-size="10.00">FileX.FileX</text>
</g>
<!-- Node2 -->
<g id="node2" class="node"><title>Node2</title>
<g id="a_node2"><a xlink:href="../../d8/d93/classauthoring_1_1concretefeatures_1_1menus_1_1_file_x.html#a932920afcf9f8fbe7d5dca93d8fabd66" target="_top" xlink:title="authoring.concretefeatures.menus.\lFileX.handleLoad">
<polygon fill="white" stroke="black" points="222,-525 222,-555 408,-555 408,-525 222,-525"/>
<text text-anchor="start" x="230" y="-543" font-family="Helvetica,sans-Serif" font-size="10.00">authoring.concretefeatures.menus.</text>
<text text-anchor="middle" x="315" y="-532" font-family="Helvetica,sans-Serif" font-size="10.00">FileX.handleLoad</text>
</a>
</g>
</g>
<!-- Node1&#45;&gt;Node2 -->
<g id="edge1" class="edge"><title>Node1&#45;&gt;Node2</title>
<path fill="none" stroke="midnightblue" d="M161.502,-506.035C185.259,-511.326 212.141,-517.313 236.646,-522.771"/>
<polygon fill="midnightblue" stroke="midnightblue" points="236.104,-526.236 246.625,-524.994 237.625,-519.403 236.104,-526.236"/>
</g>
<!-- Node4 -->
<g id="node4" class="node"><title>Node4</title>
<g id="a_node4"><a xlink:href="../../d8/d93/classauthoring_1_1concretefeatures_1_1menus_1_1_file_x.html#ac521b1e696ad941b69270bfcc04bd017" target="_top" xlink:title="authoring.concretefeatures.menus.\lFileX.handleNewLevel">
<polygon fill="white" stroke="black" points="222,-476 222,-506 408,-506 408,-476 222,-476"/>
<text text-anchor="start" x="230" y="-494" font-family="Helvetica,sans-Serif" font-size="10.00">authoring.concretefeatures.menus.</text>
<text text-anchor="middle" x="315" y="-483" font-family="Helvetica,sans-Serif" font-size="10.00">FileX.handleNewLevel</text>
</a>
</g>
</g>
<!-- Node1&#45;&gt;Node4 -->
<g id="edge3" class="edge"><title>Node1&#45;&gt;Node4</title>
<path fill="none" stroke="midnightblue" d="M186.025,-491C194.573,-491 203.269,-491 211.9,-491"/>
<polygon fill="midnightblue" stroke="midnightblue" points="211.99,-494.5 221.99,-491 211.99,-487.5 211.99,-494.5"/>
</g>
<!-- Node5 -->
<g id="node5" class="node"><title>Node5</title>
<g id="a_node5"><a xlink:href="../../d8/d93/classauthoring_1_1concretefeatures_1_1menus_1_1_file_x.html#a06eadcf7852f723bc5a70d08a1bc5f3f" target="_top" xlink:title="authoring.concretefeatures.menus.\lFileX.handleSave">
<polygon fill="white" stroke="black" points="222,-427 222,-457 408,-457 408,-427 222,-427"/>
<text text-anchor="start" x="230" y="-445" font-family="Helvetica,sans-Serif" font-size="10.00">authoring.concretefeatures.menus.</text>
<text text-anchor="middle" x="315" y="-434" font-family="Helvetica,sans-Serif" font-size="10.00">FileX.handleSave</text>
</a>
</g>
</g>
<!-- Node1&#45;&gt;Node5 -->
<g id="edge4" class="edge"><title>Node1&#45;&gt;Node5</title>
<path fill="none" stroke="midnightblue" d="M161.502,-475.965C185.259,-470.674 212.141,-464.687 236.646,-459.229"/>
<polygon fill="midnightblue" stroke="midnightblue" points="237.625,-462.597 246.625,-457.006 236.104,-455.764 237.625,-462.597"/>
</g>
<!-- Node3 -->
<g id="node3" class="node"><title>Node3</title>
<g id="a_node3"><a xlink:href="../../d0/dbd/classgamedata_1_1_j_s_o_n_1_1_j_s_o_n_manager.html#a5690469e5cd34911a87e3f4c78e500a3" target="_top" xlink:title="gamedata.JSON.JSONManager.read\lFromJSONFile">
<polygon fill="white" stroke="black" points="445,-525 445,-555 631,-555 631,-525 445,-525"/>
<text text-anchor="start" x="453" y="-543" font-family="Helvetica,sans-Serif" font-size="10.00">gamedata.JSON.JSONManager.read</text>
<text text-anchor="middle" x="538" y="-532" font-family="Helvetica,sans-Serif" font-size="10.00">FromJSONFile</text>
</a>
</g>
</g>
<!-- Node2&#45;&gt;Node3 -->
<g id="edge2" class="edge"><title>Node2&#45;&gt;Node3</title>
<path fill="none" stroke="midnightblue" d="M408.124,-540C416.807,-540 425.645,-540 434.417,-540"/>
<polygon fill="midnightblue" stroke="midnightblue" points="434.67,-543.5 444.67,-540 434.67,-536.5 434.67,-543.5"/>
</g>
<!-- Node6 -->
<g id="node6" class="node"><title>Node6</title>
<g id="a_node6"><a xlink:href="../../d0/dbd/classgamedata_1_1_j_s_o_n_1_1_j_s_o_n_manager.html#af9ee30f2c59580f457cb066bf835d481" target="_top" xlink:title="gamedata.JSON.JSONManager.write\lToJSON">
<polygon fill="white" stroke="black" points="444.5,-452 444.5,-482 631.5,-482 631.5,-452 444.5,-452"/>
<text text-anchor="start" x="452.5" y="-470" font-family="Helvetica,sans-Serif" font-size="10.00">gamedata.JSON.JSONManager.write</text>
<text text-anchor="middle" x="538" y="-459" font-family="Helvetica,sans-Serif" font-size="10.00">ToJSON</text>
</a>
</g>
</g>
<!-- Node5&#45;&gt;Node6 -->
<g id="edge5" class="edge"><title>Node5&#45;&gt;Node6</title>
<path fill="none" stroke="midnightblue" d="M408.124,-452.421C416.721,-453.394 425.472,-454.384 434.159,-455.366"/>
<polygon fill="midnightblue" stroke="midnightblue" points="433.985,-458.869 444.315,-456.515 434.772,-451.913 433.985,-458.869"/>
</g>
<!-- Node7 -->
<g id="node7" class="node"><title>Node7</title>
<g id="a_node7"><a xlink:href="../../d3/d12/classtests_1_1_test_game_creator.html#a6088501ec4cce8d90d4561b695065a0d" target="_top" xlink:title="tests.TestGameCreator.create\lNewGame">
<polygon fill="white" stroke="black" points="457.5,-403 457.5,-433 618.5,-433 618.5,-403 457.5,-403"/>
<text text-anchor="start" x="465.5" y="-421" font-family="Helvetica,sans-Serif" font-size="10.00">tests.TestGameCreator.create</text>
<text text-anchor="middle" x="538" y="-410" font-family="Helvetica,sans-Serif" font-size="10.00">NewGame</text>
</a>
</g>
</g>
<!-- Node5&#45;&gt;Node7 -->
<g id="edge6" class="edge"><title>Node5&#45;&gt;Node7</title>
<path fill="none" stroke="midnightblue" d="M408.124,-431.996C421.02,-430.595 434.261,-429.157 447.115,-427.761"/>
<polygon fill="midnightblue" stroke="midnightblue" points="447.764,-431.211 457.327,-426.652 447.008,-424.252 447.764,-431.211"/>
</g>
<!-- Node8 -->
<g id="node8" class="node"><title>Node8</title>
<g id="a_node8"><a xlink:href="../../d3/d12/classtests_1_1_test_game_creator.html#a4c85cf768c7e38e9b2f6db858e8764ec" target="_top" xlink:title="tests.TestGameCreator.create\lNewGrid">
<polygon fill="white" stroke="black" points="668.5,-428 668.5,-458 829.5,-458 829.5,-428 668.5,-428"/>
<text text-anchor="start" x="676.5" y="-446" font-family="Helvetica,sans-Serif" font-size="10.00">tests.TestGameCreator.create</text>
<text text-anchor="middle" x="749" y="-435" font-family="Helvetica,sans-Serif" font-size="10.00">NewGrid</text>
</a>
</g>
</g>
<!-- Node7&#45;&gt;Node8 -->
<g id="edge7" class="edge"><title>Node7&#45;&gt;Node8</title>
<path fill="none" stroke="midnightblue" d="M618.61,-427.523C631.572,-429.073 645.076,-430.688 658.26,-432.266"/>
<polygon fill="midnightblue" stroke="midnightblue" points="657.92,-435.75 668.265,-433.462 658.752,-428.799 657.92,-435.75"/>
</g>
<!-- Node42 -->
<g id="node42" class="node"><title>Node42</title>
<g id="a_node42"><a xlink:href="../../d2/d99/classgamedata_1_1gamecomponents_1_1_game.html#ab77c298a59d70f94282359bb53e8bc29" target="_top" xlink:title="gamedata.gamecomponents.\lGame.addPlayers">
<polygon fill="white" stroke="black" points="669,-379 669,-409 829,-409 829,-379 669,-379"/>
<text text-anchor="start" x="677" y="-397" font-family="Helvetica,sans-Serif" font-size="10.00">gamedata.gamecomponents.</text>
<text text-anchor="middle" x="749" y="-386" font-family="Helvetica,sans-Serif" font-size="10.00">Game.addPlayers</text>
</a>
</g>
</g>
<!-- Node7&#45;&gt;Node42 -->
<g id="edge49" class="edge"><title>Node7&#45;&gt;Node42</title>
<path fill="none" stroke="midnightblue" d="M618.61,-408.858C631.756,-407.349 645.459,-405.775 658.821,-404.241"/>
<polygon fill="midnightblue" stroke="midnightblue" points="659.422,-407.695 668.957,-403.077 658.623,-400.74 659.422,-407.695"/>
</g>
<!-- Node9 -->
<g id="node9" class="node"><title>Node9</title>
<g id="a_node9"><a xlink:href="../../d3/d12/classtests_1_1_test_game_creator.html#a680449a018651ee514134c0517ec1cca" target="_top" xlink:title="tests.TestGameCreator.create\lNewPiece">
<polygon fill="white" stroke="black" points="880.5,-575 880.5,-605 1041.5,-605 1041.5,-575 880.5,-575"/>
<text text-anchor="start" x="888.5" y="-593" font-family="Helvetica,sans-Serif" font-size="10.00">tests.TestGameCreator.create</text>
<text text-anchor="middle" x="961" y="-582" font-family="Helvetica,sans-Serif" font-size="10.00">NewPiece</text>
</a>
</g>
</g>
<!-- Node8&#45;&gt;Node9 -->
<g id="edge8" class="edge"><title>Node8&#45;&gt;Node9</title>
<path fill="none" stroke="midnightblue" d="M760.202,-458.318C778.333,-484.316 818.739,-536.973 866,-565 869.677,-567.18 873.545,-569.174 877.532,-570.996"/>
<polygon fill="midnightblue" stroke="midnightblue" points="876.436,-574.331 887.013,-574.945 879.128,-567.869 876.436,-574.331"/>
</g>
<!-- Node13 -->
<g id="node13" class="node"><title>Node13</title>
<g id="a_node13"><a xlink:href="../../d3/d12/classtests_1_1_test_game_creator.html#ae876033054f062fe1aeccb52edc5ac88" target="_top" xlink:title="tests.TestGameCreator.create\lNewPatch">
<polygon fill="white" stroke="black" points="880.5,-526 880.5,-556 1041.5,-556 1041.5,-526 880.5,-526"/>
<text text-anchor="start" x="888.5" y="-544" font-family="Helvetica,sans-Serif" font-size="10.00">tests.TestGameCreator.create</text>
<text text-anchor="middle" x="961" y="-533" font-family="Helvetica,sans-Serif" font-size="10.00">NewPatch</text>
</a>
</g>
</g>
<!-- Node8&#45;&gt;Node13 -->
<g id="edge12" class="edge"><title>Node8&#45;&gt;Node13</title>
<path fill="none" stroke="midnightblue" d="M769.907,-458.171C792.221,-474.527 830.005,-500.321 866,-516 871.69,-518.478 877.683,-520.76 883.775,-522.851"/>
<polygon fill="midnightblue" stroke="midnightblue" points="882.809,-526.217 893.401,-525.981 884.973,-519.56 882.809,-526.217"/>
</g>
<!-- Node14 -->
<g id="node14" class="node"><title>Node14</title>
<g id="a_node14"><a xlink:href="../../d9/df3/classauthoring__environment_1_1_super_grid.html#a29e4179a44c4a09a1365958c5ab8b604" target="_top" xlink:title="authoring_environment.Super\lGrid.getNumCols">
<polygon fill="white" stroke="black" points="881,-477 881,-507 1041,-507 1041,-477 881,-477"/>
<text text-anchor="start" x="889" y="-495" font-family="Helvetica,sans-Serif" font-size="10.00">authoring_environment.Super</text>
<text text-anchor="middle" x="961" y="-484" font-family="Helvetica,sans-Serif" font-size="10.00">Grid.getNumCols</text>
</a>
</g>
</g>
<!-- Node8&#45;&gt;Node14 -->
<g id="edge13" class="edge"><title>Node8&#45;&gt;Node14</title>
<path fill="none" stroke="midnightblue" d="M814.434,-458.035C837.01,-463.302 862.543,-469.26 885.85,-474.698"/>
<polygon fill="midnightblue" stroke="midnightblue" points="885.154,-478.13 895.688,-476.994 886.745,-471.313 885.154,-478.13"/>
</g>
<!-- Node15 -->
<g id="node15" class="node"><title>Node15</title>
<g id="a_node15"><a xlink:href="../../d9/df3/classauthoring__environment_1_1_super_grid.html#a08152131c1f1c2b5530970a0a02a74b0" target="_top" xlink:title="authoring_environment.Super\lGrid.getNumRows">
<polygon fill="white" stroke="black" points="881,-428 881,-458 1041,-458 1041,-428 881,-428"/>
<text text-anchor="start" x="889" y="-446" font-family="Helvetica,sans-Serif" font-size="10.00">authoring_environment.Super</text>
<text text-anchor="middle" x="961" y="-435" font-family="Helvetica,sans-Serif" font-size="10.00">Grid.getNumRows</text>
</a>
</g>
</g>
<!-- Node8&#45;&gt;Node15 -->
<g id="edge14" class="edge"><title>Node8&#45;&gt;Node15</title>
<path fill="none" stroke="midnightblue" d="M829.691,-443C843.006,-443 856.898,-443 870.439,-443"/>
<polygon fill="midnightblue" stroke="midnightblue" points="870.711,-446.5 880.711,-443 870.711,-439.5 870.711,-446.5"/>
</g>
<!-- Node16 -->
<g id="node16" class="node"><title>Node16</title>
<g id="a_node16"><a xlink:href="../../d4/d63/classgamedata_1_1gamecomponents_1_1_piece.html#a0e99b48e900129c9f2c2c32a44c7705c" target="_top" xlink:title="gamedata.gamecomponents.\lPiece.setPlayerID">
<polygon fill="white" stroke="black" points="881,-379 881,-409 1041,-409 1041,-379 881,-379"/>
<text text-anchor="start" x="889" y="-397" font-family="Helvetica,sans-Serif" font-size="10.00">gamedata.gamecomponents.</text>
<text text-anchor="middle" x="961" y="-386" font-family="Helvetica,sans-Serif" font-size="10.00">Piece.setPlayerID</text>
</a>
</g>
</g>
<!-- Node8&#45;&gt;Node16 -->
<g id="edge15" class="edge"><title>Node8&#45;&gt;Node16</title>
<path fill="none" stroke="midnightblue" d="M814.434,-427.965C837.01,-422.698 862.543,-416.74 885.85,-411.302"/>
<polygon fill="midnightblue" stroke="midnightblue" points="886.745,-414.687 895.688,-409.006 885.154,-407.87 886.745,-414.687"/>
</g>
<!-- Node17 -->
<g id="node17" class="node"><title>Node17</title>
<g id="a_node17"><a xlink:href="../../da/d4c/classauthoring__environment_1_1_g_u_i_grid.html#a064e421c8d8d0268bb7d1db7e66590b5" target="_top" xlink:title="authoring_environment.GUIGrid.add\lPieceAtLoc">
<polygon fill="white" stroke="black" points="866.5,-330 866.5,-360 1055.5,-360 1055.5,-330 866.5,-330"/>
<text text-anchor="start" x="874.5" y="-348" font-family="Helvetica,sans-Serif" font-size="10.00">authoring_environment.GUIGrid.add</text>
<text text-anchor="middle" x="961" y="-337" font-family="Helvetica,sans-Serif" font-size="10.00">PieceAtLoc</text>
</a>
</g>
</g>
<!-- Node8&#45;&gt;Node17 -->
<g id="edge16" class="edge"><title>Node8&#45;&gt;Node17</title>
<path fill="none" stroke="midnightblue" d="M812.143,-427.929C818.448,-425.144 824.533,-421.862 830,-418 851.779,-402.612 843.895,-384.916 866,-370 868.959,-368.003 872.071,-366.166 875.289,-364.475"/>
<polygon fill="midnightblue" stroke="midnightblue" points="877.05,-367.514 884.605,-360.087 874.067,-361.182 877.05,-367.514"/>
</g>
<!-- Node31 -->
<g id="node31" class="node"><title>Node31</title>
<g id="a_node31"><a xlink:href="../../da/d4c/classauthoring__environment_1_1_g_u_i_grid.html#a964e976497a8a32ae8db18c037b8fac1" target="_top" xlink:title="authoring_environment.GUIGrid.add\lPatchAtLoc">
<polygon fill="white" stroke="black" points="866.5,-122 866.5,-152 1055.5,-152 1055.5,-122 866.5,-122"/>
<text text-anchor="start" x="874.5" y="-140" font-family="Helvetica,sans-Serif" font-size="10.00">authoring_environment.GUIGrid.add</text>
<text text-anchor="middle" x="961" y="-129" font-family="Helvetica,sans-Serif" font-size="10.00">PatchAtLoc</text>
</a>
</g>
</g>
<!-- Node8&#45;&gt;Node31 -->
<g id="edge32" class="edge"><title>Node8&#45;&gt;Node31</title>
<path fill="none" stroke="midnightblue" d="M816.136,-427.999C821.175,-425.214 825.89,-421.913 830,-418 863.607,-386.006 847.364,-362.495 866,-320 891.568,-261.697 927.101,-195.868 946.328,-161.257"/>
<polygon fill="midnightblue" stroke="midnightblue" points="949.479,-162.793 951.297,-152.355 943.367,-159.381 949.479,-162.793"/>
</g>
<!-- Node10 -->
<g id="node10" class="node"><title>Node10</title>
<g id="a_node10"><a xlink:href="../../d3/d12/classtests_1_1_test_game_creator.html#aeac01635e2eb9d5528becc9734842279" target="_top" xlink:title="tests.TestGameCreator.create\lNewAction">
<polygon fill="white" stroke="black" points="1115.5,-597 1115.5,-627 1276.5,-627 1276.5,-597 1115.5,-597"/>
<text text-anchor="start" x="1123.5" y="-615" font-family="Helvetica,sans-Serif" font-size="10.00">tests.TestGameCreator.create</text>
<text text-anchor="middle" x="1196" y="-604" font-family="Helvetica,sans-Serif" font-size="10.00">NewAction</text>
</a>
</g>
</g>
<!-- Node9&#45;&gt;Node10 -->
<g id="edge9" class="edge"><title>Node9&#45;&gt;Node10</title>
<path fill="none" stroke="midnightblue" d="M1041.53,-597.51C1062.04,-599.446 1084.25,-601.543 1105.24,-603.525"/>
<polygon fill="midnightblue" stroke="midnightblue" points="1105.14,-607.031 1115.43,-604.487 1105.8,-600.062 1105.14,-607.031"/>
</g>
<!-- Node12 -->
<g id="node12" class="node"><title>Node12</title>
<g id="a_node12"><a xlink:href="../../d6/d1d/classgamedata_1_1stats_1_1_stats.html#a2c731c37c7527e09767d009660646c0c" target="_top" xlink:title="gamedata.stats.Stats.add">
<polygon fill="white" stroke="black" points="1124.5,-558.5 1124.5,-577.5 1267.5,-577.5 1267.5,-558.5 1124.5,-558.5"/>
<text text-anchor="middle" x="1196" y="-565.5" font-family="Helvetica,sans-Serif" font-size="10.00">gamedata.stats.Stats.add</text>
</a>
</g>
</g>
<!-- Node9&#45;&gt;Node12 -->
<g id="edge11" class="edge"><title>Node9&#45;&gt;Node12</title>
<path fill="none" stroke="midnightblue" d="M1041.53,-582.49C1065.07,-580.268 1090.84,-577.835 1114.44,-575.607"/>
<polygon fill="midnightblue" stroke="midnightblue" points="1114.78,-579.09 1124.41,-574.666 1114.12,-572.121 1114.78,-579.09"/>
</g>
<!-- Node11 -->
<g id="node11" class="node"><title>Node11</title>
<g id="a_node11"><a xlink:href="../../d3/d12/classtests_1_1_test_game_creator.html#ab20fc3d25acb0bd9232a787f0e9df2c6" target="_top" xlink:title="tests.TestGameCreator.create\lNewStatsTotalLogic">
<polygon fill="white" stroke="black" points="1359.5,-597 1359.5,-627 1520.5,-627 1520.5,-597 1359.5,-597"/>
<text text-anchor="start" x="1367.5" y="-615" font-family="Helvetica,sans-Serif" font-size="10.00">tests.TestGameCreator.create</text>
<text text-anchor="middle" x="1440" y="-604" font-family="Helvetica,sans-Serif" font-size="10.00">NewStatsTotalLogic</text>
</a>
</g>
</g>
<!-- Node10&#45;&gt;Node11 -->
<g id="edge10" class="edge"><title>Node10&#45;&gt;Node11</title>
<path fill="none" stroke="midnightblue" d="M1276.58,-612C1299.84,-612 1325.43,-612 1349.28,-612"/>
<polygon fill="midnightblue" stroke="midnightblue" points="1349.38,-615.5 1359.38,-612 1349.38,-608.5 1349.38,-615.5"/>
</g>
<!-- Node18 -->
<g id="node18" class="node"><title>Node18</title>
<g id="a_node18"><a xlink:href="../../da/d4c/classauthoring__environment_1_1_g_u_i_grid.html#a11c99629d13f4fd80d59bcd66a794695" target="_top" xlink:title="authoring_environment.GUIGrid.is\lPieceOccupied">
<polygon fill="white" stroke="black" points="1350.5,-382 1350.5,-412 1529.5,-412 1529.5,-382 1350.5,-382"/>
<text text-anchor="start" x="1358.5" y="-400" font-family="Helvetica,sans-Serif" font-size="10.00">authoring_environment.GUIGrid.is</text>
<text text-anchor="middle" x="1440" y="-389" font-family="Helvetica,sans-Serif" font-size="10.00">PieceOccupied</text>
</a>
</g>
</g>
<!-- Node17&#45;&gt;Node18 -->
<g id="edge17" class="edge"><title>Node17&#45;&gt;Node18</title>
<path fill="none" stroke="midnightblue" d="M1055.67,-355.211C1137.8,-364.165 1256.8,-377.137 1340.37,-386.248"/>
<polygon fill="midnightblue" stroke="midnightblue" points="1340.06,-389.735 1350.38,-387.339 1340.82,-382.776 1340.06,-389.735"/>
</g>
<!-- Node20 -->
<g id="node20" class="node"><title>Node20</title>
<g id="a_node20"><a xlink:href="../../da/d4c/classauthoring__environment_1_1_g_u_i_grid.html#afe59bd9dfeddc383a541f50fda3e647a" target="_top" xlink:title="authoring_environment.GUIGrid.remove\lPieceAtCoordinate">
<polygon fill="white" stroke="black" points="1092,-308 1092,-338 1300,-338 1300,-308 1092,-308"/>
<text text-anchor="start" x="1100" y="-326" font-family="Helvetica,sans-Serif" font-size="10.00">authoring_environment.GUIGrid.remove</text>
<text text-anchor="middle" x="1196" y="-315" font-family="Helvetica,sans-Serif" font-size="10.00">PieceAtCoordinate</text>
</a>
</g>
</g>
<!-- Node17&#45;&gt;Node20 -->
<g id="edge19" class="edge"><title>Node17&#45;&gt;Node20</title>
<path fill="none" stroke="midnightblue" d="M1055.76,-336.147C1064.31,-335.34 1073.02,-334.517 1081.71,-333.697"/>
<polygon fill="midnightblue" stroke="midnightblue" points="1082.26,-337.161 1091.89,-332.736 1081.6,-330.192 1082.26,-337.161"/>
</g>
<!-- Node27 -->
<g id="node27" class="node"><title>Node27</title>
<g id="a_node27"><a xlink:href="../../d6/dda/classauthoring_1_1data_1_1_piece_instance_data.html#a2517f3bd508a388343c4e5343d6391e8" target="_top" xlink:title="authoring.data.PieceInstance\lData.add">
<polygon fill="white" stroke="black" points="1118,-445 1118,-475 1274,-475 1274,-445 1118,-445"/>
<text text-anchor="start" x="1126" y="-463" font-family="Helvetica,sans-Serif" font-size="10.00">authoring.data.PieceInstance</text>
<text text-anchor="middle" x="1196" y="-452" font-family="Helvetica,sans-Serif" font-size="10.00">Data.add</text>
</a>
</g>
</g>
<!-- Node17&#45;&gt;Node27 -->
<g id="edge28" class="edge"><title>Node17&#45;&gt;Node27</title>
<path fill="none" stroke="midnightblue" d="M1039.86,-360.147C1045.61,-362.903 1051.07,-366.157 1056,-370 1082.04,-390.312 1065.74,-414.974 1092,-435 1097.04,-438.845 1102.59,-442.107 1108.42,-444.875"/>
<polygon fill="midnightblue" stroke="midnightblue" points="1107.21,-448.161 1117.78,-448.829 1109.93,-441.713 1107.21,-448.161"/>
</g>
<!-- Node28 -->
<g id="node28" class="node"><title>Node28</title>
<g id="a_node28"><a xlink:href="../../dc/d5a/classauthoring__environment_1_1_super_tile.html#af7f7917a6fb88cc3145cd6f981a80f79" target="_top" xlink:title="authoring_environment.Super\lTile.setPieceImage">
<polygon fill="white" stroke="black" points="1116,-396 1116,-426 1276,-426 1276,-396 1116,-396"/>
<text text-anchor="start" x="1124" y="-414" font-family="Helvetica,sans-Serif" font-size="10.00">authoring_environment.Super</text>
<text text-anchor="middle" x="1196" y="-403" font-family="Helvetica,sans-Serif" font-size="10.00">Tile.setPieceImage</text>
</a>
</g>
</g>
<!-- Node17&#45;&gt;Node28 -->
<g id="edge29" class="edge"><title>Node17&#45;&gt;Node28</title>
<path fill="none" stroke="midnightblue" d="M1019.76,-360.004C1031.76,-363.222 1044.31,-366.66 1056,-370 1072.09,-374.595 1075.97,-376.216 1092,-381 1105.28,-384.964 1119.55,-389.159 1133.11,-393.116"/>
<polygon fill="midnightblue" stroke="midnightblue" points="1132.25,-396.511 1142.83,-395.948 1134.2,-389.79 1132.25,-396.511"/>
</g>
<!-- Node29 -->
<g id="node29" class="node"><title>Node29</title>
<g id="a_node29"><a xlink:href="../../d9/df2/classgamedata_1_1gamecomponents_1_1_grid_component.html#a9a5b2359d22e7d79d5065826a0dc8211" target="_top" xlink:title="gamedata.gamecomponents.\lGridComponent.getImageView">
<polygon fill="white" stroke="black" points="1114.5,-235 1114.5,-265 1277.5,-265 1277.5,-235 1114.5,-235"/>
<text text-anchor="start" x="1122.5" y="-253" font-family="Helvetica,sans-Serif" font-size="10.00">gamedata.gamecomponents.</text>
<text text-anchor="middle" x="1196" y="-242" font-family="Helvetica,sans-Serif" font-size="10.00">GridComponent.getImageView</text>
</a>
</g>
</g>
<!-- Node17&#45;&gt;Node29 -->
<g id="edge30" class="edge"><title>Node17&#45;&gt;Node29</title>
<path fill="none" stroke="midnightblue" d="M998.92,-329.947C1039.45,-313.423 1104.58,-286.865 1148.55,-268.939"/>
<polygon fill="midnightblue" stroke="midnightblue" points="1149.93,-272.156 1157.87,-265.14 1147.29,-265.674 1149.93,-272.156"/>
</g>
<!-- Node19 -->
<g id="node19" class="node"><title>Node19</title>
<g id="a_node19"><a xlink:href="../../d6/dda/classauthoring_1_1data_1_1_piece_instance_data.html#afb4443eda20595533c28fe05f079fb48" target="_top" xlink:title="authoring.data.PieceInstance\lData.getData">
<polygon fill="white" stroke="black" points="1582,-382 1582,-412 1738,-412 1738,-382 1582,-382"/>
<text text-anchor="start" x="1590" y="-400" font-family="Helvetica,sans-Serif" font-size="10.00">authoring.data.PieceInstance</text>
<text text-anchor="middle" x="1660" y="-389" font-family="Helvetica,sans-Serif" font-size="10.00">Data.getData</text>
</a>
</g>
</g>
<!-- Node18&#45;&gt;Node19 -->
<g id="edge18" class="edge"><title>Node18&#45;&gt;Node19</title>
<path fill="none" stroke="midnightblue" d="M1529.67,-397C1543.61,-397 1558.02,-397 1571.92,-397"/>
<polygon fill="midnightblue" stroke="midnightblue" points="1571.95,-400.5 1581.95,-397 1571.95,-393.5 1571.95,-400.5"/>
</g>
<!-- Node20&#45;&gt;Node18 -->
<g id="edge22" class="edge"><title>Node20&#45;&gt;Node18</title>
<path fill="none" stroke="midnightblue" d="M1256.26,-338.037C1270.76,-342.322 1286.1,-347.376 1300,-353 1316.77,-359.786 1319.08,-365.595 1336,-372 1342.8,-374.575 1349.96,-376.951 1357.2,-379.128"/>
<polygon fill="midnightblue" stroke="midnightblue" points="1356.53,-382.575 1367.1,-381.973 1358.46,-375.847 1356.53,-382.575"/>
</g>
<!-- Node21 -->
<g id="node21" class="node"><title>Node21</title>
<g id="a_node21"><a xlink:href="../../da/d4c/classauthoring__environment_1_1_g_u_i_grid.html#a1ac1af9ff6b3cff9aee00db73948d1c0" target="_top" xlink:title="authoring_environment.GUIGrid.get\lPiece">
<polygon fill="white" stroke="black" points="1346.5,-333 1346.5,-363 1533.5,-363 1533.5,-333 1346.5,-333"/>
<text text-anchor="start" x="1354.5" y="-351" font-family="Helvetica,sans-Serif" font-size="10.00">authoring_environment.GUIGrid.get</text>
<text text-anchor="middle" x="1440" y="-340" font-family="Helvetica,sans-Serif" font-size="10.00">Piece</text>
</a>
</g>
</g>
<!-- Node20&#45;&gt;Node21 -->
<g id="edge20" class="edge"><title>Node20&#45;&gt;Node21</title>
<path fill="none" stroke="midnightblue" d="M1300.33,-333.675C1312.28,-334.909 1324.45,-336.167 1336.39,-337.399"/>
<polygon fill="midnightblue" stroke="midnightblue" points="1336.04,-340.882 1346.34,-338.428 1336.76,-333.919 1336.04,-340.882"/>
</g>
<!-- Node22 -->
<g id="node22" class="node"><title>Node22</title>
<g id="a_node22"><a xlink:href="../../da/d4c/classauthoring__environment_1_1_g_u_i_grid.html#a53382a0de9f44f0642c3c9c5b009e613" target="_top" xlink:title="authoring_environment.GUIGrid.remove\lPiece">
<polygon fill="white" stroke="black" points="1336,-284 1336,-314 1544,-314 1544,-284 1336,-284"/>
<text text-anchor="start" x="1344" y="-302" font-family="Helvetica,sans-Serif" font-size="10.00">authoring_environment.GUIGrid.remove</text>
<text text-anchor="middle" x="1440" y="-291" font-family="Helvetica,sans-Serif" font-size="10.00">Piece</text>
</a>
</g>
</g>
<!-- Node20&#45;&gt;Node22 -->
<g id="edge23" class="edge"><title>Node20&#45;&gt;Node22</title>
<path fill="none" stroke="midnightblue" d="M1300.33,-312.752C1308.64,-311.928 1317.07,-311.092 1325.44,-310.262"/>
<polygon fill="midnightblue" stroke="midnightblue" points="1326.02,-313.722 1335.63,-309.252 1325.33,-306.756 1326.02,-313.722"/>
</g>
<!-- Node21&#45;&gt;Node19 -->
<g id="edge21" class="edge"><title>Node21&#45;&gt;Node19</title>
<path fill="none" stroke="midnightblue" d="M1507.89,-363.035C1531.43,-368.326 1558.07,-374.313 1582.35,-379.771"/>
<polygon fill="midnightblue" stroke="midnightblue" points="1581.71,-383.216 1592.24,-381.994 1583.25,-376.386 1581.71,-383.216"/>
</g>
<!-- Node23 -->
<g id="node23" class="node"><title>Node23</title>
<g id="a_node23"><a xlink:href="../../d6/dda/classauthoring_1_1data_1_1_piece_instance_data.html#a80a0e534e9cb103879f99230bc05efe7" target="_top" xlink:title="authoring.data.PieceInstance\lData.remove">
<polygon fill="white" stroke="black" points="1582,-333 1582,-363 1738,-363 1738,-333 1582,-333"/>
<text text-anchor="start" x="1590" y="-351" font-family="Helvetica,sans-Serif" font-size="10.00">authoring.data.PieceInstance</text>
<text text-anchor="middle" x="1660" y="-340" font-family="Helvetica,sans-Serif" font-size="10.00">Data.remove</text>
</a>
</g>
</g>
<!-- Node22&#45;&gt;Node23 -->
<g id="edge24" class="edge"><title>Node22&#45;&gt;Node23</title>
<path fill="none" stroke="midnightblue" d="M1507.89,-314.035C1531.43,-319.326 1558.07,-325.313 1582.35,-330.771"/>
<polygon fill="midnightblue" stroke="midnightblue" points="1581.71,-334.216 1592.24,-332.994 1583.25,-327.386 1581.71,-334.216"/>
</g>
<!-- Node24 -->
<g id="node24" class="node"><title>Node24</title>
<g id="a_node24"><a xlink:href="../../d9/df3/classauthoring__environment_1_1_super_grid.html#aa57ca0acf0ef3aab7d5d98cf9cbbd1d7" target="_top" xlink:title="authoring_environment.Super\lGrid.findTile">
<polygon fill="white" stroke="black" points="1580,-235 1580,-265 1740,-265 1740,-235 1580,-235"/>
<text text-anchor="start" x="1588" y="-253" font-family="Helvetica,sans-Serif" font-size="10.00">authoring_environment.Super</text>
<text text-anchor="middle" x="1660" y="-242" font-family="Helvetica,sans-Serif" font-size="10.00">Grid.findTile</text>
</a>
</g>
</g>
<!-- Node22&#45;&gt;Node24 -->
<g id="edge25" class="edge"><title>Node22&#45;&gt;Node24</title>
<path fill="none" stroke="midnightblue" d="M1507.89,-283.965C1531.43,-278.674 1558.07,-272.687 1582.35,-267.229"/>
<polygon fill="midnightblue" stroke="midnightblue" points="1583.25,-270.614 1592.24,-265.006 1581.71,-263.784 1583.25,-270.614"/>
</g>
<!-- Node25 -->
<g id="node25" class="node"><title>Node25</title>
<g id="a_node25"><a xlink:href="../../d9/df2/classgamedata_1_1gamecomponents_1_1_grid_component.html#a97439a493db38860397436079b123e8c" target="_top" xlink:title="gamedata.gamecomponents.\lGridComponent.getLoc">
<polygon fill="white" stroke="black" points="1580,-186 1580,-216 1740,-216 1740,-186 1580,-186"/>
<text text-anchor="start" x="1588" y="-204" font-family="Helvetica,sans-Serif" font-size="10.00">gamedata.gamecomponents.</text>
<text text-anchor="middle" x="1660" y="-193" font-family="Helvetica,sans-Serif" font-size="10.00">GridComponent.getLoc</text>
</a>
</g>
</g>
<!-- Node22&#45;&gt;Node25 -->
<g id="edge26" class="edge"><title>Node22&#45;&gt;Node25</title>
<path fill="none" stroke="midnightblue" d="M1525.21,-283.922C1531.82,-281.153 1538.18,-277.877 1544,-274 1566.49,-259.018 1557.94,-240.615 1580,-225 1582.1,-223.514 1584.29,-222.119 1586.55,-220.809"/>
<polygon fill="midnightblue" stroke="midnightblue" points="1588.29,-223.852 1595.58,-216.165 1585.09,-217.627 1588.29,-223.852"/>
</g>
<!-- Node26 -->
<g id="node26" class="node"><title>Node26</title>
<g id="a_node26"><a xlink:href="../../dc/d5a/classauthoring__environment_1_1_super_tile.html#aab4ca6a2e399a4f20d41eb9bc038f7aa" target="_top" xlink:title="authoring_environment.Super\lTile.removePieceImage">
<polygon fill="white" stroke="black" points="1580,-284 1580,-314 1740,-314 1740,-284 1580,-284"/>
<text text-anchor="start" x="1588" y="-302" font-family="Helvetica,sans-Serif" font-size="10.00">authoring_environment.Super</text>
<text text-anchor="middle" x="1660" y="-291" font-family="Helvetica,sans-Serif" font-size="10.00">Tile.removePieceImage</text>
</a>
</g>
</g>
<!-- Node22&#45;&gt;Node26 -->
<g id="edge27" class="edge"><title>Node22&#45;&gt;Node26</title>
<path fill="none" stroke="midnightblue" d="M1544.25,-299C1552.78,-299 1561.36,-299 1569.77,-299"/>
<polygon fill="midnightblue" stroke="midnightblue" points="1569.94,-302.5 1579.94,-299 1569.94,-295.5 1569.94,-302.5"/>
</g>
<!-- Node30 -->
<g id="node30" class="node"><title>Node30</title>
<g id="a_node30"><a xlink:href="../../d9/df2/classgamedata_1_1gamecomponents_1_1_grid_component.html#a224e5aae28655f7e26ff73cbde7b0d99" target="_top" xlink:title="gamedata.gamecomponents.\lGridComponent.setImageView">
<polygon fill="white" stroke="black" points="1359,-235 1359,-265 1521,-265 1521,-235 1359,-235"/>
<text text-anchor="start" x="1367" y="-253" font-family="Helvetica,sans-Serif" font-size="10.00">gamedata.gamecomponents.</text>
<text text-anchor="middle" x="1440" y="-242" font-family="Helvetica,sans-Serif" font-size="10.00">GridComponent.setImageView</text>
</a>
</g>
</g>
<!-- Node29&#45;&gt;Node30 -->
<g id="edge31" class="edge"><title>Node29&#45;&gt;Node30</title>
<path fill="none" stroke="midnightblue" d="M1277.58,-250C1300.34,-250 1325.25,-250 1348.55,-250"/>
<polygon fill="midnightblue" stroke="midnightblue" points="1348.77,-253.5 1358.77,-250 1348.77,-246.5 1348.77,-253.5"/>
</g>
<!-- Node31&#45;&gt;Node29 -->
<g id="edge48" class="edge"><title>Node31&#45;&gt;Node29</title>
<path fill="none" stroke="midnightblue" d="M992.941,-152.006C1034.63,-172.225 1108.91,-208.247 1154.86,-230.532"/>
<polygon fill="midnightblue" stroke="midnightblue" points="1153.41,-233.718 1163.93,-234.932 1156.46,-227.419 1153.41,-233.718"/>
</g>
<!-- Node32 -->
<g id="node32" class="node"><title>Node32</title>
<g id="a_node32"><a xlink:href="../../da/d4c/classauthoring__environment_1_1_g_u_i_grid.html#aae553512b4d34302577601426c0eaa2f" target="_top" xlink:title="authoring_environment.GUIGrid.is\lPatchOccupied">
<polygon fill="white" stroke="black" points="1350.5,-0 1350.5,-30 1529.5,-30 1529.5,-0 1350.5,-0"/>
<text text-anchor="start" x="1358.5" y="-18" font-family="Helvetica,sans-Serif" font-size="10.00">authoring_environment.GUIGrid.is</text>
<text text-anchor="middle" x="1440" y="-7" font-family="Helvetica,sans-Serif" font-size="10.00">PatchOccupied</text>
</a>
</g>
</g>
<!-- Node31&#45;&gt;Node32 -->
<g id="edge33" class="edge"><title>Node31&#45;&gt;Node32</title>
<path fill="none" stroke="midnightblue" d="M996.757,-121.995C1022.63,-111.298 1059.02,-97.2312 1092,-88 1182.57,-62.6495 1208.38,-70.2728 1300,-49 1316.18,-45.2442 1319.91,-43.1073 1336,-39 1344.69,-36.7821 1353.81,-34.5371 1362.88,-32.3559"/>
<polygon fill="midnightblue" stroke="midnightblue" points="1363.77,-35.7422 1372.69,-30.0185 1362.15,-28.9331 1363.77,-35.7422"/>
</g>
<!-- Node34 -->
<g id="node34" class="node"><title>Node34</title>
<g id="a_node34"><a xlink:href="../../da/d4c/classauthoring__environment_1_1_g_u_i_grid.html#a7eab390461914d473383c90e9fb6e3b9" target="_top" xlink:title="authoring_environment.GUIGrid.remove\lPatchAtCoordinate">
<polygon fill="white" stroke="black" points="1092,-98 1092,-128 1300,-128 1300,-98 1092,-98"/>
<text text-anchor="start" x="1100" y="-116" font-family="Helvetica,sans-Serif" font-size="10.00">authoring_environment.GUIGrid.remove</text>
<text text-anchor="middle" x="1196" y="-105" font-family="Helvetica,sans-Serif" font-size="10.00">PatchAtCoordinate</text>
</a>
</g>
</g>
<!-- Node31&#45;&gt;Node34 -->
<g id="edge35" class="edge"><title>Node31&#45;&gt;Node34</title>
<path fill="none" stroke="midnightblue" d="M1055.76,-127.342C1064.31,-126.462 1073.02,-125.564 1081.71,-124.669"/>
<polygon fill="midnightblue" stroke="midnightblue" points="1082.3,-128.127 1091.89,-123.621 1081.58,-121.164 1082.3,-128.127"/>
</g>
<!-- Node39 -->
<g id="node39" class="node"><title>Node39</title>
<g id="a_node39"><a xlink:href="../../d7/dd4/classauthoring_1_1data_1_1_patch_instance_data.html#a740aeb79225ad2a036656c599f1605ce" target="_top" xlink:title="authoring.data.PatchInstance\lData.add">
<polygon fill="white" stroke="black" points="1117.5,-147 1117.5,-177 1274.5,-177 1274.5,-147 1117.5,-147"/>
<text text-anchor="start" x="1125.5" y="-165" font-family="Helvetica,sans-Serif" font-size="10.00">authoring.data.PatchInstance</text>
<text text-anchor="middle" x="1196" y="-154" font-family="Helvetica,sans-Serif" font-size="10.00">Data.add</text>
</a>
</g>
</g>
<!-- Node31&#45;&gt;Node39 -->
<g id="edge44" class="edge"><title>Node31&#45;&gt;Node39</title>
<path fill="none" stroke="midnightblue" d="M1055.76,-147.06C1072.73,-148.881 1090.36,-150.773 1107.15,-152.574"/>
<polygon fill="midnightblue" stroke="midnightblue" points="1107.16,-156.095 1117.48,-153.682 1107.91,-149.135 1107.16,-156.095"/>
</g>
<!-- Node41 -->
<g id="node41" class="node"><title>Node41</title>
<g id="a_node41"><a xlink:href="../../dc/d5a/classauthoring__environment_1_1_super_tile.html#a7e65040df400ad3d7a62145816f0cca4" target="_top" xlink:title="authoring_environment.Super\lTile.setPatchImage">
<polygon fill="white" stroke="black" points="1116,-10 1116,-40 1276,-40 1276,-10 1116,-10"/>
<text text-anchor="start" x="1124" y="-28" font-family="Helvetica,sans-Serif" font-size="10.00">authoring_environment.Super</text>
<text text-anchor="middle" x="1196" y="-17" font-family="Helvetica,sans-Serif" font-size="10.00">Tile.setPatchImage</text>
</a>
</g>
</g>
<!-- Node31&#45;&gt;Node41 -->
<g id="edge47" class="edge"><title>Node31&#45;&gt;Node41</title>
<path fill="none" stroke="midnightblue" d="M982.152,-121.761C1006.88,-103.674 1050.64,-73.6248 1092,-55 1101.88,-50.5505 1112.59,-46.5738 1123.25,-43.0848"/>
<polygon fill="midnightblue" stroke="midnightblue" points="1124.5,-46.3596 1132.99,-40.0182 1122.4,-39.6826 1124.5,-46.3596"/>
</g>
<!-- Node33 -->
<g id="node33" class="node"><title>Node33</title>
<g id="a_node33"><a xlink:href="../../d7/dd4/classauthoring_1_1data_1_1_patch_instance_data.html#a60ac72e96e7e0da6f3beb20122a8c041" target="_top" xlink:title="authoring.data.PatchInstance\lData.getData">
<polygon fill="white" stroke="black" points="1581.5,-10 1581.5,-40 1738.5,-40 1738.5,-10 1581.5,-10"/>
<text text-anchor="start" x="1589.5" y="-28" font-family="Helvetica,sans-Serif" font-size="10.00">authoring.data.PatchInstance</text>
<text text-anchor="middle" x="1660" y="-17" font-family="Helvetica,sans-Serif" font-size="10.00">Data.getData</text>
</a>
</g>
</g>
<!-- Node32&#45;&gt;Node33 -->
<g id="edge34" class="edge"><title>Node32&#45;&gt;Node33</title>
<path fill="none" stroke="midnightblue" d="M1529.67,-19.0674C1543.29,-19.6922 1557.35,-20.3371 1570.96,-20.9613"/>
<polygon fill="midnightblue" stroke="midnightblue" points="1571.11,-24.4719 1581.26,-21.4339 1571.43,-17.4792 1571.11,-24.4719"/>
</g>
<!-- Node34&#45;&gt;Node32 -->
<g id="edge38" class="edge"><title>Node34&#45;&gt;Node32</title>
<path fill="none" stroke="midnightblue" d="M1269.56,-97.9123C1280.25,-94.0041 1290.76,-89.1124 1300,-83 1321.08,-69.0635 1314.55,-52.3571 1336,-39 1338.68,-37.331 1341.46,-35.7779 1344.33,-34.3327"/>
<polygon fill="midnightblue" stroke="midnightblue" points="1346.05,-37.3954 1353.71,-30.0744 1343.15,-31.0215 1346.05,-37.3954"/>
</g>
<!-- Node35 -->
<g id="node35" class="node"><title>Node35</title>
<g id="a_node35"><a xlink:href="../../da/d4c/classauthoring__environment_1_1_g_u_i_grid.html#a1a7fab3cd600b3c00a33ed4034ba9851" target="_top" xlink:title="authoring_environment.GUIGrid.get\lPatch">
<polygon fill="white" stroke="black" points="1346.5,-49 1346.5,-79 1533.5,-79 1533.5,-49 1346.5,-49"/>
<text text-anchor="start" x="1354.5" y="-67" font-family="Helvetica,sans-Serif" font-size="10.00">authoring_environment.GUIGrid.get</text>
<text text-anchor="middle" x="1440" y="-56" font-family="Helvetica,sans-Serif" font-size="10.00">Patch</text>
</a>
</g>
</g>
<!-- Node34&#45;&gt;Node35 -->
<g id="edge36" class="edge"><title>Node34&#45;&gt;Node35</title>
<path fill="none" stroke="midnightblue" d="M1271.25,-97.9654C1297.73,-92.6035 1327.74,-86.5269 1354.99,-81.0108"/>
<polygon fill="midnightblue" stroke="midnightblue" points="1355.78,-84.4212 1364.89,-79.0062 1354.39,-77.5604 1355.78,-84.4212"/>
</g>
<!-- Node36 -->
<g id="node36" class="node"><title>Node36</title>
<g id="a_node36"><a xlink:href="../../da/d4c/classauthoring__environment_1_1_g_u_i_grid.html#a2413204cbed4e6aae67dbb5ab1c55505" target="_top" xlink:title="authoring_environment.GUIGrid.remove\lPatch">
<polygon fill="white" stroke="black" points="1336,-98 1336,-128 1544,-128 1544,-98 1336,-98"/>
<text text-anchor="start" x="1344" y="-116" font-family="Helvetica,sans-Serif" font-size="10.00">authoring_environment.GUIGrid.remove</text>
<text text-anchor="middle" x="1440" y="-105" font-family="Helvetica,sans-Serif" font-size="10.00">Patch</text>
</a>
</g>
</g>
<!-- Node34&#45;&gt;Node36 -->
<g id="edge39" class="edge"><title>Node34&#45;&gt;Node36</title>
<path fill="none" stroke="midnightblue" d="M1300.33,-113C1308.64,-113 1317.07,-113 1325.44,-113"/>
<polygon fill="midnightblue" stroke="midnightblue" points="1325.63,-116.5 1335.63,-113 1325.63,-109.5 1325.63,-116.5"/>
</g>
<!-- Node35&#45;&gt;Node33 -->
<g id="edge37" class="edge"><title>Node35&#45;&gt;Node33</title>
<path fill="none" stroke="midnightblue" d="M1524.97,-48.9774C1540.12,-46.2666 1555.96,-43.4339 1571.22,-40.7043"/>
<polygon fill="midnightblue" stroke="midnightblue" points="1571.92,-44.1342 1581.15,-38.9278 1570.69,-37.2436 1571.92,-44.1342"/>
</g>
<!-- Node36&#45;&gt;Node24 -->
<g id="edge41" class="edge"><title>Node36&#45;&gt;Node24</title>
<path fill="none" stroke="midnightblue" d="M1531.26,-128.267C1535.8,-130.774 1540.09,-133.666 1544,-137 1576.16,-164.407 1548.92,-196.367 1580,-225 1581.72,-226.584 1583.54,-228.068 1585.44,-229.457"/>
<polygon fill="midnightblue" stroke="midnightblue" points="1583.89,-232.618 1594.22,-234.968 1587.61,-226.688 1583.89,-232.618"/>
</g>
<!-- Node36&#45;&gt;Node25 -->
<g id="edge42" class="edge"><title>Node36&#45;&gt;Node25</title>
<path fill="none" stroke="midnightblue" d="M1521.52,-128.012C1529.28,-130.567 1536.9,-133.541 1544,-137 1562.47,-146.002 1562.46,-155.303 1580,-166 1589.41,-171.74 1599.93,-177.07 1610.15,-181.751"/>
<polygon fill="midnightblue" stroke="midnightblue" points="1608.84,-185.001 1619.4,-185.86 1611.69,-178.603 1608.84,-185.001"/>
</g>
<!-- Node37 -->
<g id="node37" class="node"><title>Node37</title>
<g id="a_node37"><a xlink:href="../../d7/dd4/classauthoring_1_1data_1_1_patch_instance_data.html#a3cc84b2fe9d137219655d95e6b73ad6f" target="_top" xlink:title="authoring.data.PatchInstance\lData.remove">
<polygon fill="white" stroke="black" points="1581.5,-127 1581.5,-157 1738.5,-157 1738.5,-127 1581.5,-127"/>
<text text-anchor="start" x="1589.5" y="-145" font-family="Helvetica,sans-Serif" font-size="10.00">authoring.data.PatchInstance</text>
<text text-anchor="middle" x="1660" y="-134" font-family="Helvetica,sans-Serif" font-size="10.00">Data.remove</text>
</a>
</g>
</g>
<!-- Node36&#45;&gt;Node37 -->
<g id="edge40" class="edge"><title>Node36&#45;&gt;Node37</title>
<path fill="none" stroke="midnightblue" d="M1544.25,-126.736C1553.29,-127.938 1562.38,-129.147 1571.27,-130.329"/>
<polygon fill="midnightblue" stroke="midnightblue" points="1570.84,-133.803 1581.21,-131.652 1571.76,-126.864 1570.84,-133.803"/>
</g>
<!-- Node38 -->
<g id="node38" class="node"><title>Node38</title>
<g id="a_node38"><a xlink:href="../../dc/d5a/classauthoring__environment_1_1_super_tile.html#af629f0c1ad27b8ded911f0461606d056" target="_top" xlink:title="authoring_environment.Super\lTile.removePatchImage">
<polygon fill="white" stroke="black" points="1580,-78 1580,-108 1740,-108 1740,-78 1580,-78"/>
<text text-anchor="start" x="1588" y="-96" font-family="Helvetica,sans-Serif" font-size="10.00">authoring_environment.Super</text>
<text text-anchor="middle" x="1660" y="-85" font-family="Helvetica,sans-Serif" font-size="10.00">Tile.removePatchImage</text>
</a>
</g>
</g>
<!-- Node36&#45;&gt;Node38 -->
<g id="edge43" class="edge"><title>Node36&#45;&gt;Node38</title>
<path fill="none" stroke="midnightblue" d="M1544.25,-103.527C1552.78,-102.745 1561.36,-101.958 1569.77,-101.186"/>
<polygon fill="midnightblue" stroke="midnightblue" points="1570.3,-104.653 1579.94,-100.253 1569.66,-97.6818 1570.3,-104.653"/>
</g>
<!-- Node39&#45;&gt;Node25 -->
<g id="edge46" class="edge"><title>Node39&#45;&gt;Node25</title>
<path fill="none" stroke="midnightblue" d="M1273.96,-177.047C1294.08,-180.497 1315.79,-183.795 1336,-186 1414.66,-194.584 1504.63,-198.263 1569.6,-199.835"/>
<polygon fill="midnightblue" stroke="midnightblue" points="1569.73,-203.339 1579.81,-200.07 1569.89,-196.341 1569.73,-203.339"/>
</g>
<!-- Node40 -->
<g id="node40" class="node"><title>Node40</title>
<g id="a_node40"><a xlink:href="../../d7/dd4/classauthoring_1_1data_1_1_patch_instance_data.html#a49b1a96b6897bdba2ab473736a710047" target="_top" xlink:title="authoring.data.PatchInstance\lData.removePatchAtLoc">
<polygon fill="white" stroke="black" points="1361.5,-147 1361.5,-177 1518.5,-177 1518.5,-147 1361.5,-147"/>
<text text-anchor="start" x="1369.5" y="-165" font-family="Helvetica,sans-Serif" font-size="10.00">authoring.data.PatchInstance</text>
<text text-anchor="middle" x="1440" y="-154" font-family="Helvetica,sans-Serif" font-size="10.00">Data.removePatchAtLoc</text>
</a>
</g>
</g>
<!-- Node39&#45;&gt;Node40 -->
<g id="edge45" class="edge"><title>Node39&#45;&gt;Node40</title>
<path fill="none" stroke="midnightblue" d="M1274.57,-162C1298.99,-162 1326.14,-162 1351.22,-162"/>
<polygon fill="midnightblue" stroke="midnightblue" points="1351.46,-165.5 1361.46,-162 1351.46,-158.5 1351.46,-165.5"/>
</g>
</g>
</svg>
