<?xml version="1.0" encoding="UTF-8" standalone="no"?>
<!DOCTYPE svg PUBLIC "-//W3C//DTD SVG 1.1//EN"
 "http://www.w3.org/Graphics/SVG/1.1/DTD/svg11.dtd">
<!-- Generated by graphviz version 2.36.0 (20140111.2315)
 -->
<!-- Title: authoring.concretefeatures.menus.FileX.handleSave Pages: 1 -->
<svg width="1526pt" height="635pt"
 viewBox="0.00 0.00 1526.00 635.00" xmlns="http://www.w3.org/2000/svg" xmlns:xlink="http://www.w3.org/1999/xlink">
<g id="graph0" class="graph" transform="scale(1 1) rotate(0) translate(4 631)">
<title>authoring.concretefeatures.menus.FileX.handleSave</title>
<polygon fill="white" stroke="none" points="-4,4 -4,-631 1522,-631 1522,4 -4,4"/>
<!-- Node1 -->
<g id="node1" class="node"><title>Node1</title>
<polygon fill="#bfbfbf" stroke="black" points="0,-378 0,-408 186,-408 186,-378 0,-378"/>
<text text-anchor="start" x="8" y="-396" font-family="Helvetica,sans-Serif" font-size="10.00">authoring.concretefeatures.menus.</text>
<text text-anchor="middle" x="93" y="-385" font-family="Helvetica,sans-Serif" font-size="10.00">FileX.handleSave</text>
</g>
<!-- Node2 -->
<g id="node2" class="node"><title>Node2</title>
<g id="a_node2"><a xlink:href="../../d3/d12/classtests_1_1_test_game_creator.html#a6088501ec4cce8d90d4561b695065a0d" target="_top" xlink:title="tests.TestGameCreator.create\lNewGame">
<polygon fill="white" stroke="black" points="235.5,-403 235.5,-433 396.5,-433 396.5,-403 235.5,-403"/>
<text text-anchor="start" x="243.5" y="-421" font-family="Helvetica,sans-Serif" font-size="10.00">tests.TestGameCreator.create</text>
<text text-anchor="middle" x="316" y="-410" font-family="Helvetica,sans-Serif" font-size="10.00">NewGame</text>
</a>
</g>
</g>
<!-- Node1&#45;&gt;Node2 -->
<g id="edge1" class="edge"><title>Node1&#45;&gt;Node2</title>
<path fill="none" stroke="midnightblue" d="M186.124,-403.421C199.02,-404.88 212.261,-406.378 225.115,-407.832"/>
<polygon fill="midnightblue" stroke="midnightblue" points="224.997,-411.341 235.327,-408.987 225.784,-404.385 224.997,-411.341"/>
</g>
<!-- Node38 -->
<g id="node38" class="node"><title>Node38</title>
<g id="a_node38"><a xlink:href="../../d0/dbd/classgamedata_1_1_j_s_o_n_1_1_j_s_o_n_manager.html#af9ee30f2c59580f457cb066bf835d481" target="_top" xlink:title="gamedata.JSON.JSONManager.write\lToJSON">
<polygon fill="white" stroke="black" points="222.5,-354 222.5,-384 409.5,-384 409.5,-354 222.5,-354"/>
<text text-anchor="start" x="230.5" y="-372" font-family="Helvetica,sans-Serif" font-size="10.00">gamedata.JSON.JSONManager.write</text>
<text text-anchor="middle" x="316" y="-361" font-family="Helvetica,sans-Serif" font-size="10.00">ToJSON</text>
</a>
</g>
</g>
<!-- Node1&#45;&gt;Node38 -->
<g id="edge45" class="edge"><title>Node1&#45;&gt;Node38</title>
<path fill="none" stroke="midnightblue" d="M186.124,-382.996C194.721,-382.062 203.472,-381.112 212.159,-380.168"/>
<polygon fill="midnightblue" stroke="midnightblue" points="212.751,-383.625 222.315,-379.065 211.995,-376.666 212.751,-383.625"/>
</g>
<!-- Node3 -->
<g id="node3" class="node"><title>Node3</title>
<g id="a_node3"><a xlink:href="../../d3/d12/classtests_1_1_test_game_creator.html#a4c85cf768c7e38e9b2f6db858e8764ec" target="_top" xlink:title="tests.TestGameCreator.create\lNewGrid">
<polygon fill="white" stroke="black" points="446.5,-428 446.5,-458 607.5,-458 607.5,-428 446.5,-428"/>
<text text-anchor="start" x="454.5" y="-446" font-family="Helvetica,sans-Serif" font-size="10.00">tests.TestGameCreator.create</text>
<text text-anchor="middle" x="527" y="-435" font-family="Helvetica,sans-Serif" font-size="10.00">NewGrid</text>
</a>
</g>
</g>
<!-- Node2&#45;&gt;Node3 -->
<g id="edge2" class="edge"><title>Node2&#45;&gt;Node3</title>
<path fill="none" stroke="midnightblue" d="M396.61,-427.523C409.572,-429.073 423.076,-430.688 436.26,-432.266"/>
<polygon fill="midnightblue" stroke="midnightblue" points="435.92,-435.75 446.265,-433.462 436.752,-428.799 435.92,-435.75"/>
</g>
<!-- Node37 -->
<g id="node37" class="node"><title>Node37</title>
<g id="a_node37"><a xlink:href="../../d2/d99/classgamedata_1_1gamecomponents_1_1_game.html#ab77c298a59d70f94282359bb53e8bc29" target="_top" xlink:title="gamedata.gamecomponents.\lGame.addPlayers">
<polygon fill="white" stroke="black" points="447,-379 447,-409 607,-409 607,-379 447,-379"/>
<text text-anchor="start" x="455" y="-397" font-family="Helvetica,sans-Serif" font-size="10.00">gamedata.gamecomponents.</text>
<text text-anchor="middle" x="527" y="-386" font-family="Helvetica,sans-Serif" font-size="10.00">Game.addPlayers</text>
</a>
</g>
</g>
<!-- Node2&#45;&gt;Node37 -->
<g id="edge44" class="edge"><title>Node2&#45;&gt;Node37</title>
<path fill="none" stroke="midnightblue" d="M396.61,-408.858C409.756,-407.349 423.459,-405.775 436.821,-404.241"/>
<polygon fill="midnightblue" stroke="midnightblue" points="437.422,-407.695 446.957,-403.077 436.623,-400.74 437.422,-407.695"/>
</g>
<!-- Node4 -->
<g id="node4" class="node"><title>Node4</title>
<g id="a_node4"><a xlink:href="../../d3/d12/classtests_1_1_test_game_creator.html#a680449a018651ee514134c0517ec1cca" target="_top" xlink:title="tests.TestGameCreator.create\lNewPiece">
<polygon fill="white" stroke="black" points="658.5,-575 658.5,-605 819.5,-605 819.5,-575 658.5,-575"/>
<text text-anchor="start" x="666.5" y="-593" font-family="Helvetica,sans-Serif" font-size="10.00">tests.TestGameCreator.create</text>
<text text-anchor="middle" x="739" y="-582" font-family="Helvetica,sans-Serif" font-size="10.00">NewPiece</text>
</a>
</g>
</g>
<!-- Node3&#45;&gt;Node4 -->
<g id="edge3" class="edge"><title>Node3&#45;&gt;Node4</title>
<path fill="none" stroke="midnightblue" d="M538.202,-458.318C556.333,-484.316 596.739,-536.973 644,-565 647.677,-567.18 651.545,-569.174 655.532,-570.996"/>
<polygon fill="midnightblue" stroke="midnightblue" points="654.436,-574.331 665.013,-574.945 657.128,-567.869 654.436,-574.331"/>
</g>
<!-- Node8 -->
<g id="node8" class="node"><title>Node8</title>
<g id="a_node8"><a xlink:href="../../d3/d12/classtests_1_1_test_game_creator.html#ae876033054f062fe1aeccb52edc5ac88" target="_top" xlink:title="tests.TestGameCreator.create\lNewPatch">
<polygon fill="white" stroke="black" points="658.5,-526 658.5,-556 819.5,-556 819.5,-526 658.5,-526"/>
<text text-anchor="start" x="666.5" y="-544" font-family="Helvetica,sans-Serif" font-size="10.00">tests.TestGameCreator.create</text>
<text text-anchor="middle" x="739" y="-533" font-family="Helvetica,sans-Serif" font-size="10.00">NewPatch</text>
</a>
</g>
</g>
<!-- Node3&#45;&gt;Node8 -->
<g id="edge7" class="edge"><title>Node3&#45;&gt;Node8</title>
<path fill="none" stroke="midnightblue" d="M547.907,-458.171C570.221,-474.527 608.005,-500.321 644,-516 649.69,-518.478 655.683,-520.76 661.775,-522.851"/>
<polygon fill="midnightblue" stroke="midnightblue" points="660.809,-526.217 671.401,-525.981 662.973,-519.56 660.809,-526.217"/>
</g>
<!-- Node9 -->
<g id="node9" class="node"><title>Node9</title>
<g id="a_node9"><a xlink:href="../../d9/df3/classauthoring__environment_1_1_super_grid.html#a29e4179a44c4a09a1365958c5ab8b604" target="_top" xlink:title="authoring_environment.Super\lGrid.getNumCols">
<polygon fill="white" stroke="black" points="659,-477 659,-507 819,-507 819,-477 659,-477"/>
<text text-anchor="start" x="667" y="-495" font-family="Helvetica,sans-Serif" font-size="10.00">authoring_environment.Super</text>
<text text-anchor="middle" x="739" y="-484" font-family="Helvetica,sans-Serif" font-size="10.00">Grid.getNumCols</text>
</a>
</g>
</g>
<!-- Node3&#45;&gt;Node9 -->
<g id="edge8" class="edge"><title>Node3&#45;&gt;Node9</title>
<path fill="none" stroke="midnightblue" d="M592.434,-458.035C615.01,-463.302 640.543,-469.26 663.85,-474.698"/>
<polygon fill="midnightblue" stroke="midnightblue" points="663.154,-478.13 673.688,-476.994 664.745,-471.313 663.154,-478.13"/>
</g>
<!-- Node10 -->
<g id="node10" class="node"><title>Node10</title>
<g id="a_node10"><a xlink:href="../../d9/df3/classauthoring__environment_1_1_super_grid.html#a08152131c1f1c2b5530970a0a02a74b0" target="_top" xlink:title="authoring_environment.Super\lGrid.getNumRows">
<polygon fill="white" stroke="black" points="659,-428 659,-458 819,-458 819,-428 659,-428"/>
<text text-anchor="start" x="667" y="-446" font-family="Helvetica,sans-Serif" font-size="10.00">authoring_environment.Super</text>
<text text-anchor="middle" x="739" y="-435" font-family="Helvetica,sans-Serif" font-size="10.00">Grid.getNumRows</text>
</a>
</g>
</g>
<!-- Node3&#45;&gt;Node10 -->
<g id="edge9" class="edge"><title>Node3&#45;&gt;Node10</title>
<path fill="none" stroke="midnightblue" d="M607.691,-443C621.006,-443 634.898,-443 648.439,-443"/>
<polygon fill="midnightblue" stroke="midnightblue" points="648.711,-446.5 658.711,-443 648.711,-439.5 648.711,-446.5"/>
</g>
<!-- Node11 -->
<g id="node11" class="node"><title>Node11</title>
<g id="a_node11"><a xlink:href="../../d4/d63/classgamedata_1_1gamecomponents_1_1_piece.html#a0e99b48e900129c9f2c2c32a44c7705c" target="_top" xlink:title="gamedata.gamecomponents.\lPiece.setPlayerID">
<polygon fill="white" stroke="black" points="659,-379 659,-409 819,-409 819,-379 659,-379"/>
<text text-anchor="start" x="667" y="-397" font-family="Helvetica,sans-Serif" font-size="10.00">gamedata.gamecomponents.</text>
<text text-anchor="middle" x="739" y="-386" font-family="Helvetica,sans-Serif" font-size="10.00">Piece.setPlayerID</text>
</a>
</g>
</g>
<!-- Node3&#45;&gt;Node11 -->
<g id="edge10" class="edge"><title>Node3&#45;&gt;Node11</title>
<path fill="none" stroke="midnightblue" d="M592.434,-427.965C615.01,-422.698 640.543,-416.74 663.85,-411.302"/>
<polygon fill="midnightblue" stroke="midnightblue" points="664.745,-414.687 673.688,-409.006 663.154,-407.87 664.745,-414.687"/>
</g>
<!-- Node12 -->
<g id="node12" class="node"><title>Node12</title>
<g id="a_node12"><a xlink:href="../../da/d4c/classauthoring__environment_1_1_g_u_i_grid.html#a064e421c8d8d0268bb7d1db7e66590b5" target="_top" xlink:title="authoring_environment.GUIGrid.add\lPieceAtLoc">
<polygon fill="white" stroke="black" points="644.5,-330 644.5,-360 833.5,-360 833.5,-330 644.5,-330"/>
<text text-anchor="start" x="652.5" y="-348" font-family="Helvetica,sans-Serif" font-size="10.00">authoring_environment.GUIGrid.add</text>
<text text-anchor="middle" x="739" y="-337" font-family="Helvetica,sans-Serif" font-size="10.00">PieceAtLoc</text>
</a>
</g>
</g>
<!-- Node3&#45;&gt;Node12 -->
<g id="edge11" class="edge"><title>Node3&#45;&gt;Node12</title>
<path fill="none" stroke="midnightblue" d="M590.143,-427.929C596.448,-425.144 602.533,-421.862 608,-418 629.779,-402.612 621.895,-384.916 644,-370 646.959,-368.003 650.071,-366.166 653.289,-364.475"/>
<polygon fill="midnightblue" stroke="midnightblue" points="655.05,-367.514 662.605,-360.087 652.067,-361.182 655.05,-367.514"/>
</g>
<!-- Node26 -->
<g id="node26" class="node"><title>Node26</title>
<g id="a_node26"><a xlink:href="../../da/d4c/classauthoring__environment_1_1_g_u_i_grid.html#a964e976497a8a32ae8db18c037b8fac1" target="_top" xlink:title="authoring_environment.GUIGrid.add\lPatchAtLoc">
<polygon fill="white" stroke="black" points="644.5,-122 644.5,-152 833.5,-152 833.5,-122 644.5,-122"/>
<text text-anchor="start" x="652.5" y="-140" font-family="Helvetica,sans-Serif" font-size="10.00">authoring_environment.GUIGrid.add</text>
<text text-anchor="middle" x="739" y="-129" font-family="Helvetica,sans-Serif" font-size="10.00">PatchAtLoc</text>
</a>
</g>
</g>
<!-- Node3&#45;&gt;Node26 -->
<g id="edge27" class="edge"><title>Node3&#45;&gt;Node26</title>
<path fill="none" stroke="midnightblue" d="M594.122,-427.984C599.164,-425.202 603.883,-421.906 608,-418 641.358,-386.349 625.508,-363.103 644,-321 669.711,-262.459 705.188,-196.239 724.368,-161.412"/>
<polygon fill="midnightblue" stroke="midnightblue" points="727.545,-162.898 729.323,-152.454 721.42,-159.51 727.545,-162.898"/>
</g>
<!-- Node5 -->
<g id="node5" class="node"><title>Node5</title>
<g id="a_node5"><a xlink:href="../../d3/d12/classtests_1_1_test_game_creator.html#aeac01635e2eb9d5528becc9734842279" target="_top" xlink:title="tests.TestGameCreator.create\lNewAction">
<polygon fill="white" stroke="black" points="893.5,-597 893.5,-627 1054.5,-627 1054.5,-597 893.5,-597"/>
<text text-anchor="start" x="901.5" y="-615" font-family="Helvetica,sans-Serif" font-size="10.00">tests.TestGameCreator.create</text>
<text text-anchor="middle" x="974" y="-604" font-family="Helvetica,sans-Serif" font-size="10.00">NewAction</text>
</a>
</g>
</g>
<!-- Node4&#45;&gt;Node5 -->
<g id="edge4" class="edge"><title>Node4&#45;&gt;Node5</title>
<path fill="none" stroke="midnightblue" d="M819.534,-597.51C840.04,-599.446 862.251,-601.543 883.238,-603.525"/>
<polygon fill="midnightblue" stroke="midnightblue" points="883.145,-607.031 893.429,-604.487 883.803,-600.062 883.145,-607.031"/>
</g>
<!-- Node7 -->
<g id="node7" class="node"><title>Node7</title>
<g id="a_node7"><a xlink:href="../../d6/d1d/classgamedata_1_1stats_1_1_stats.html#a2c731c37c7527e09767d009660646c0c" target="_top" xlink:title="gamedata.stats.Stats.add">
<polygon fill="white" stroke="black" points="902.5,-558.5 902.5,-577.5 1045.5,-577.5 1045.5,-558.5 902.5,-558.5"/>
<text text-anchor="middle" x="974" y="-565.5" font-family="Helvetica,sans-Serif" font-size="10.00">gamedata.stats.Stats.add</text>
</a>
</g>
</g>
<!-- Node4&#45;&gt;Node7 -->
<g id="edge6" class="edge"><title>Node4&#45;&gt;Node7</title>
<path fill="none" stroke="midnightblue" d="M819.534,-582.49C843.066,-580.268 868.843,-577.835 892.439,-575.607"/>
<polygon fill="midnightblue" stroke="midnightblue" points="892.779,-579.09 902.406,-574.666 892.121,-572.121 892.779,-579.09"/>
</g>
<!-- Node6 -->
<g id="node6" class="node"><title>Node6</title>
<g id="a_node6"><a xlink:href="../../d3/d12/classtests_1_1_test_game_creator.html#ab20fc3d25acb0bd9232a787f0e9df2c6" target="_top" xlink:title="tests.TestGameCreator.create\lNewStatsTotalLogic">
<polygon fill="white" stroke="black" points="1137.5,-597 1137.5,-627 1298.5,-627 1298.5,-597 1137.5,-597"/>
<text text-anchor="start" x="1145.5" y="-615" font-family="Helvetica,sans-Serif" font-size="10.00">tests.TestGameCreator.create</text>
<text text-anchor="middle" x="1218" y="-604" font-family="Helvetica,sans-Serif" font-size="10.00">NewStatsTotalLogic</text>
</a>
</g>
</g>
<!-- Node5&#45;&gt;Node6 -->
<g id="edge5" class="edge"><title>Node5&#45;&gt;Node6</title>
<path fill="none" stroke="midnightblue" d="M1054.58,-612C1077.84,-612 1103.43,-612 1127.28,-612"/>
<polygon fill="midnightblue" stroke="midnightblue" points="1127.38,-615.5 1137.38,-612 1127.38,-608.5 1127.38,-615.5"/>
</g>
<!-- Node13 -->
<g id="node13" class="node"><title>Node13</title>
<g id="a_node13"><a xlink:href="../../da/d4c/classauthoring__environment_1_1_g_u_i_grid.html#a11c99629d13f4fd80d59bcd66a794695" target="_top" xlink:title="authoring_environment.GUIGrid.is\lPieceOccupied">
<polygon fill="white" stroke="black" points="1128.5,-382 1128.5,-412 1307.5,-412 1307.5,-382 1128.5,-382"/>
<text text-anchor="start" x="1136.5" y="-400" font-family="Helvetica,sans-Serif" font-size="10.00">authoring_environment.GUIGrid.is</text>
<text text-anchor="middle" x="1218" y="-389" font-family="Helvetica,sans-Serif" font-size="10.00">PieceOccupied</text>
</a>
</g>
</g>
<!-- Node12&#45;&gt;Node13 -->
<g id="edge12" class="edge"><title>Node12&#45;&gt;Node13</title>
<path fill="none" stroke="midnightblue" d="M833.671,-355.211C915.798,-364.165 1034.8,-377.137 1118.37,-386.248"/>
<polygon fill="midnightblue" stroke="midnightblue" points="1118.06,-389.735 1128.38,-387.339 1118.82,-382.776 1118.06,-389.735"/>
</g>
<!-- Node15 -->
<g id="node15" class="node"><title>Node15</title>
<g id="a_node15"><a xlink:href="../../da/d4c/classauthoring__environment_1_1_g_u_i_grid.html#afe59bd9dfeddc383a541f50fda3e647a" target="_top" xlink:title="authoring_environment.GUIGrid.remove\lPieceAtCoordinate">
<polygon fill="white" stroke="black" points="870,-308 870,-338 1078,-338 1078,-308 870,-308"/>
<text text-anchor="start" x="878" y="-326" font-family="Helvetica,sans-Serif" font-size="10.00">authoring_environment.GUIGrid.remove</text>
<text text-anchor="middle" x="974" y="-315" font-family="Helvetica,sans-Serif" font-size="10.00">PieceAtCoordinate</text>
</a>
</g>
</g>
<!-- Node12&#45;&gt;Node15 -->
<g id="edge14" class="edge"><title>Node12&#45;&gt;Node15</title>
<path fill="none" stroke="midnightblue" d="M833.763,-336.147C842.306,-335.34 851.02,-334.517 859.709,-333.697"/>
<polygon fill="midnightblue" stroke="midnightblue" points="860.261,-337.161 869.887,-332.736 859.603,-330.192 860.261,-337.161"/>
</g>
<!-- Node22 -->
<g id="node22" class="node"><title>Node22</title>
<g id="a_node22"><a xlink:href="../../d6/dda/classauthoring_1_1data_1_1_piece_instance_data.html#a2517f3bd508a388343c4e5343d6391e8" target="_top" xlink:title="authoring.data.PieceInstance\lData.add">
<polygon fill="white" stroke="black" points="896,-445 896,-475 1052,-475 1052,-445 896,-445"/>
<text text-anchor="start" x="904" y="-463" font-family="Helvetica,sans-Serif" font-size="10.00">authoring.data.PieceInstance</text>
<text text-anchor="middle" x="974" y="-452" font-family="Helvetica,sans-Serif" font-size="10.00">Data.add</text>
</a>
</g>
</g>
<!-- Node12&#45;&gt;Node22 -->
<g id="edge23" class="edge"><title>Node12&#45;&gt;Node22</title>
<path fill="none" stroke="midnightblue" d="M817.861,-360.147C823.608,-362.903 829.074,-366.157 834,-370 860.038,-390.312 843.742,-414.974 870,-435 875.041,-438.845 880.591,-442.107 886.421,-444.875"/>
<polygon fill="midnightblue" stroke="midnightblue" points="885.207,-448.161 895.781,-448.829 887.931,-441.713 885.207,-448.161"/>
</g>
<!-- Node23 -->
<g id="node23" class="node"><title>Node23</title>
<g id="a_node23"><a xlink:href="../../dc/d5a/classauthoring__environment_1_1_super_tile.html#af7f7917a6fb88cc3145cd6f981a80f79" target="_top" xlink:title="authoring_environment.Super\lTile.setPieceImage">
<polygon fill="white" stroke="black" points="894,-396 894,-426 1054,-426 1054,-396 894,-396"/>
<text text-anchor="start" x="902" y="-414" font-family="Helvetica,sans-Serif" font-size="10.00">authoring_environment.Super</text>
<text text-anchor="middle" x="974" y="-403" font-family="Helvetica,sans-Serif" font-size="10.00">Tile.setPieceImage</text>
</a>
</g>
</g>
<!-- Node12&#45;&gt;Node23 -->
<g id="edge24" class="edge"><title>Node12&#45;&gt;Node23</title>
<path fill="none" stroke="midnightblue" d="M797.757,-360.004C809.759,-363.222 822.309,-366.66 834,-370 850.087,-374.595 853.968,-376.216 870,-381 883.284,-384.964 897.551,-389.159 911.106,-393.116"/>
<polygon fill="midnightblue" stroke="midnightblue" points="910.247,-396.511 920.826,-395.948 912.205,-389.79 910.247,-396.511"/>
</g>
<!-- Node24 -->
<g id="node24" class="node"><title>Node24</title>
<g id="a_node24"><a xlink:href="../../d9/df2/classgamedata_1_1gamecomponents_1_1_grid_component.html#a9a5b2359d22e7d79d5065826a0dc8211" target="_top" xlink:title="gamedata.gamecomponents.\lGridComponent.getImageView">
<polygon fill="white" stroke="black" points="892.5,-235 892.5,-265 1055.5,-265 1055.5,-235 892.5,-235"/>
<text text-anchor="start" x="900.5" y="-253" font-family="Helvetica,sans-Serif" font-size="10.00">gamedata.gamecomponents.</text>
<text text-anchor="middle" x="974" y="-242" font-family="Helvetica,sans-Serif" font-size="10.00">GridComponent.getImageView</text>
</a>
</g>
</g>
<!-- Node12&#45;&gt;Node24 -->
<g id="edge25" class="edge"><title>Node12&#45;&gt;Node24</title>
<path fill="none" stroke="midnightblue" d="M776.92,-329.947C817.446,-313.423 882.584,-286.865 926.55,-268.939"/>
<polygon fill="midnightblue" stroke="midnightblue" points="927.93,-272.156 935.868,-265.14 925.287,-265.674 927.93,-272.156"/>
</g>
<!-- Node14 -->
<g id="node14" class="node"><title>Node14</title>
<g id="a_node14"><a xlink:href="../../d6/dda/classauthoring_1_1data_1_1_piece_instance_data.html#afb4443eda20595533c28fe05f079fb48" target="_top" xlink:title="authoring.data.PieceInstance\lData.getData">
<polygon fill="white" stroke="black" points="1360,-382 1360,-412 1516,-412 1516,-382 1360,-382"/>
<text text-anchor="start" x="1368" y="-400" font-family="Helvetica,sans-Serif" font-size="10.00">authoring.data.PieceInstance</text>
<text text-anchor="middle" x="1438" y="-389" font-family="Helvetica,sans-Serif" font-size="10.00">Data.getData</text>
</a>
</g>
</g>
<!-- Node13&#45;&gt;Node14 -->
<g id="edge13" class="edge"><title>Node13&#45;&gt;Node14</title>
<path fill="none" stroke="midnightblue" d="M1307.67,-397C1321.61,-397 1336.02,-397 1349.92,-397"/>
<polygon fill="midnightblue" stroke="midnightblue" points="1349.95,-400.5 1359.95,-397 1349.95,-393.5 1349.95,-400.5"/>
</g>
<!-- Node15&#45;&gt;Node13 -->
<g id="edge17" class="edge"><title>Node15&#45;&gt;Node13</title>
<path fill="none" stroke="midnightblue" d="M1034.26,-338.037C1048.76,-342.322 1064.1,-347.376 1078,-353 1094.77,-359.786 1097.08,-365.595 1114,-372 1120.8,-374.575 1127.96,-376.951 1135.2,-379.128"/>
<polygon fill="midnightblue" stroke="midnightblue" points="1134.53,-382.575 1145.1,-381.973 1136.46,-375.847 1134.53,-382.575"/>
</g>
<!-- Node16 -->
<g id="node16" class="node"><title>Node16</title>
<g id="a_node16"><a xlink:href="../../da/d4c/classauthoring__environment_1_1_g_u_i_grid.html#a1ac1af9ff6b3cff9aee00db73948d1c0" target="_top" xlink:title="authoring_environment.GUIGrid.get\lPiece">
<polygon fill="white" stroke="black" points="1124.5,-333 1124.5,-363 1311.5,-363 1311.5,-333 1124.5,-333"/>
<text text-anchor="start" x="1132.5" y="-351" font-family="Helvetica,sans-Serif" font-size="10.00">authoring_environment.GUIGrid.get</text>
<text text-anchor="middle" x="1218" y="-340" font-family="Helvetica,sans-Serif" font-size="10.00">Piece</text>
</a>
</g>
</g>
<!-- Node15&#45;&gt;Node16 -->
<g id="edge15" class="edge"><title>Node15&#45;&gt;Node16</title>
<path fill="none" stroke="midnightblue" d="M1078.33,-333.675C1090.28,-334.909 1102.45,-336.167 1114.39,-337.399"/>
<polygon fill="midnightblue" stroke="midnightblue" points="1114.04,-340.882 1124.34,-338.428 1114.76,-333.919 1114.04,-340.882"/>
</g>
<!-- Node17 -->
<g id="node17" class="node"><title>Node17</title>
<g id="a_node17"><a xlink:href="../../da/d4c/classauthoring__environment_1_1_g_u_i_grid.html#a53382a0de9f44f0642c3c9c5b009e613" target="_top" xlink:title="authoring_environment.GUIGrid.remove\lPiece">
<polygon fill="white" stroke="black" points="1114,-284 1114,-314 1322,-314 1322,-284 1114,-284"/>
<text text-anchor="start" x="1122" y="-302" font-family="Helvetica,sans-Serif" font-size="10.00">authoring_environment.GUIGrid.remove</text>
<text text-anchor="middle" x="1218" y="-291" font-family="Helvetica,sans-Serif" font-size="10.00">Piece</text>
</a>
</g>
</g>
<!-- Node15&#45;&gt;Node17 -->
<g id="edge18" class="edge"><title>Node15&#45;&gt;Node17</title>
<path fill="none" stroke="midnightblue" d="M1078.33,-312.752C1086.64,-311.928 1095.07,-311.092 1103.44,-310.262"/>
<polygon fill="midnightblue" stroke="midnightblue" points="1104.02,-313.722 1113.63,-309.252 1103.33,-306.756 1104.02,-313.722"/>
</g>
<!-- Node16&#45;&gt;Node14 -->
<g id="edge16" class="edge"><title>Node16&#45;&gt;Node14</title>
<path fill="none" stroke="midnightblue" d="M1285.89,-363.035C1309.43,-368.326 1336.07,-374.313 1360.35,-379.771"/>
<polygon fill="midnightblue" stroke="midnightblue" points="1359.71,-383.216 1370.24,-381.994 1361.25,-376.386 1359.71,-383.216"/>
</g>
<!-- Node18 -->
<g id="node18" class="node"><title>Node18</title>
<g id="a_node18"><a xlink:href="../../d6/dda/classauthoring_1_1data_1_1_piece_instance_data.html#a80a0e534e9cb103879f99230bc05efe7" target="_top" xlink:title="authoring.data.PieceInstance\lData.remove">
<polygon fill="white" stroke="black" points="1360,-333 1360,-363 1516,-363 1516,-333 1360,-333"/>
<text text-anchor="start" x="1368" y="-351" font-family="Helvetica,sans-Serif" font-size="10.00">authoring.data.PieceInstance</text>
<text text-anchor="middle" x="1438" y="-340" font-family="Helvetica,sans-Serif" font-size="10.00">Data.remove</text>
</a>
</g>
</g>
<!-- Node17&#45;&gt;Node18 -->
<g id="edge19" class="edge"><title>Node17&#45;&gt;Node18</title>
<path fill="none" stroke="midnightblue" d="M1285.89,-314.035C1309.43,-319.326 1336.07,-325.313 1360.35,-330.771"/>
<polygon fill="midnightblue" stroke="midnightblue" points="1359.71,-334.216 1370.24,-332.994 1361.25,-327.386 1359.71,-334.216"/>
</g>
<!-- Node19 -->
<g id="node19" class="node"><title>Node19</title>
<g id="a_node19"><a xlink:href="../../d9/df3/classauthoring__environment_1_1_super_grid.html#aa57ca0acf0ef3aab7d5d98cf9cbbd1d7" target="_top" xlink:title="authoring_environment.Super\lGrid.findTile">
<polygon fill="white" stroke="black" points="1358,-235 1358,-265 1518,-265 1518,-235 1358,-235"/>
<text text-anchor="start" x="1366" y="-253" font-family="Helvetica,sans-Serif" font-size="10.00">authoring_environment.Super</text>
<text text-anchor="middle" x="1438" y="-242" font-family="Helvetica,sans-Serif" font-size="10.00">Grid.findTile</text>
</a>
</g>
</g>
<!-- Node17&#45;&gt;Node19 -->
<g id="edge20" class="edge"><title>Node17&#45;&gt;Node19</title>
<path fill="none" stroke="midnightblue" d="M1285.89,-283.965C1309.43,-278.674 1336.07,-272.687 1360.35,-267.229"/>
<polygon fill="midnightblue" stroke="midnightblue" points="1361.25,-270.614 1370.24,-265.006 1359.71,-263.784 1361.25,-270.614"/>
</g>
<!-- Node20 -->
<g id="node20" class="node"><title>Node20</title>
<g id="a_node20"><a xlink:href="../../d9/df2/classgamedata_1_1gamecomponents_1_1_grid_component.html#a97439a493db38860397436079b123e8c" target="_top" xlink:title="gamedata.gamecomponents.\lGridComponent.getLoc">
<polygon fill="white" stroke="black" points="1358,-186 1358,-216 1518,-216 1518,-186 1358,-186"/>
<text text-anchor="start" x="1366" y="-204" font-family="Helvetica,sans-Serif" font-size="10.00">gamedata.gamecomponents.</text>
<text text-anchor="middle" x="1438" y="-193" font-family="Helvetica,sans-Serif" font-size="10.00">GridComponent.getLoc</text>
</a>
</g>
</g>
<!-- Node17&#45;&gt;Node20 -->
<g id="edge21" class="edge"><title>Node17&#45;&gt;Node20</title>
<path fill="none" stroke="midnightblue" d="M1303.21,-283.922C1309.82,-281.153 1316.18,-277.877 1322,-274 1344.49,-259.018 1335.94,-240.615 1358,-225 1360.1,-223.514 1362.29,-222.119 1364.55,-220.809"/>
<polygon fill="midnightblue" stroke="midnightblue" points="1366.29,-223.852 1373.58,-216.165 1363.09,-217.627 1366.29,-223.852"/>
</g>
<!-- Node21 -->
<g id="node21" class="node"><title>Node21</title>
<g id="a_node21"><a xlink:href="../../dc/d5a/classauthoring__environment_1_1_super_tile.html#aab4ca6a2e399a4f20d41eb9bc038f7aa" target="_top" xlink:title="authoring_environment.Super\lTile.removePieceImage">
<polygon fill="white" stroke="black" points="1358,-284 1358,-314 1518,-314 1518,-284 1358,-284"/>
<text text-anchor="start" x="1366" y="-302" font-family="Helvetica,sans-Serif" font-size="10.00">authoring_environment.Super</text>
<text text-anchor="middle" x="1438" y="-291" font-family="Helvetica,sans-Serif" font-size="10.00">Tile.removePieceImage</text>
</a>
</g>
</g>
<!-- Node17&#45;&gt;Node21 -->
<g id="edge22" class="edge"><title>Node17&#45;&gt;Node21</title>
<path fill="none" stroke="midnightblue" d="M1322.25,-299C1330.78,-299 1339.36,-299 1347.77,-299"/>
<polygon fill="midnightblue" stroke="midnightblue" points="1347.94,-302.5 1357.94,-299 1347.94,-295.5 1347.94,-302.5"/>
</g>
<!-- Node25 -->
<g id="node25" class="node"><title>Node25</title>
<g id="a_node25"><a xlink:href="../../d9/df2/classgamedata_1_1gamecomponents_1_1_grid_component.html#a224e5aae28655f7e26ff73cbde7b0d99" target="_top" xlink:title="gamedata.gamecomponents.\lGridComponent.setImageView">
<polygon fill="white" stroke="black" points="1137,-235 1137,-265 1299,-265 1299,-235 1137,-235"/>
<text text-anchor="start" x="1145" y="-253" font-family="Helvetica,sans-Serif" font-size="10.00">gamedata.gamecomponents.</text>
<text text-anchor="middle" x="1218" y="-242" font-family="Helvetica,sans-Serif" font-size="10.00">GridComponent.setImageView</text>
</a>
</g>
</g>
<!-- Node24&#45;&gt;Node25 -->
<g id="edge26" class="edge"><title>Node24&#45;&gt;Node25</title>
<path fill="none" stroke="midnightblue" d="M1055.58,-250C1078.34,-250 1103.25,-250 1126.55,-250"/>
<polygon fill="midnightblue" stroke="midnightblue" points="1126.77,-253.5 1136.77,-250 1126.77,-246.5 1126.77,-253.5"/>
</g>
<!-- Node26&#45;&gt;Node24 -->
<g id="edge43" class="edge"><title>Node26&#45;&gt;Node24</title>
<path fill="none" stroke="midnightblue" d="M770.941,-152.006C812.633,-172.225 886.907,-208.247 932.858,-230.532"/>
<polygon fill="midnightblue" stroke="midnightblue" points="931.406,-233.718 941.931,-234.932 934.461,-227.419 931.406,-233.718"/>
</g>
<!-- Node27 -->
<g id="node27" class="node"><title>Node27</title>
<g id="a_node27"><a xlink:href="../../da/d4c/classauthoring__environment_1_1_g_u_i_grid.html#aae553512b4d34302577601426c0eaa2f" target="_top" xlink:title="authoring_environment.GUIGrid.is\lPatchOccupied">
<polygon fill="white" stroke="black" points="1128.5,-0 1128.5,-30 1307.5,-30 1307.5,-0 1128.5,-0"/>
<text text-anchor="start" x="1136.5" y="-18" font-family="Helvetica,sans-Serif" font-size="10.00">authoring_environment.GUIGrid.is</text>
<text text-anchor="middle" x="1218" y="-7" font-family="Helvetica,sans-Serif" font-size="10.00">PatchOccupied</text>
</a>
</g>
</g>
<!-- Node26&#45;&gt;Node27 -->
<g id="edge28" class="edge"><title>Node26&#45;&gt;Node27</title>
<path fill="none" stroke="midnightblue" d="M774.757,-121.995C800.627,-111.298 837.018,-97.2312 870,-88 960.575,-62.6495 986.382,-70.2728 1078,-49 1094.18,-45.2442 1097.91,-43.1073 1114,-39 1122.69,-36.7821 1131.81,-34.5371 1140.88,-32.3559"/>
<polygon fill="midnightblue" stroke="midnightblue" points="1141.77,-35.7422 1150.69,-30.0185 1140.15,-28.9331 1141.77,-35.7422"/>
</g>
<!-- Node29 -->
<g id="node29" class="node"><title>Node29</title>
<g id="a_node29"><a xlink:href="../../da/d4c/classauthoring__environment_1_1_g_u_i_grid.html#a7eab390461914d473383c90e9fb6e3b9" target="_top" xlink:title="authoring_environment.GUIGrid.remove\lPatchAtCoordinate">
<polygon fill="white" stroke="black" points="870,-98 870,-128 1078,-128 1078,-98 870,-98"/>
<text text-anchor="start" x="878" y="-116" font-family="Helvetica,sans-Serif" font-size="10.00">authoring_environment.GUIGrid.remove</text>
<text text-anchor="middle" x="974" y="-105" font-family="Helvetica,sans-Serif" font-size="10.00">PatchAtCoordinate</text>
</a>
</g>
</g>
<!-- Node26&#45;&gt;Node29 -->
<g id="edge30" class="edge"><title>Node26&#45;&gt;Node29</title>
<path fill="none" stroke="midnightblue" d="M833.763,-127.342C842.306,-126.462 851.02,-125.564 859.709,-124.669"/>
<polygon fill="midnightblue" stroke="midnightblue" points="860.299,-128.127 869.887,-123.621 859.581,-121.164 860.299,-128.127"/>
</g>
<!-- Node34 -->
<g id="node34" class="node"><title>Node34</title>
<g id="a_node34"><a xlink:href="../../d7/dd4/classauthoring_1_1data_1_1_patch_instance_data.html#a740aeb79225ad2a036656c599f1605ce" target="_top" xlink:title="authoring.data.PatchInstance\lData.add">
<polygon fill="white" stroke="black" points="895.5,-147 895.5,-177 1052.5,-177 1052.5,-147 895.5,-147"/>
<text text-anchor="start" x="903.5" y="-165" font-family="Helvetica,sans-Serif" font-size="10.00">authoring.data.PatchInstance</text>
<text text-anchor="middle" x="974" y="-154" font-family="Helvetica,sans-Serif" font-size="10.00">Data.add</text>
</a>
</g>
</g>
<!-- Node26&#45;&gt;Node34 -->
<g id="edge39" class="edge"><title>Node26&#45;&gt;Node34</title>
<path fill="none" stroke="midnightblue" d="M833.763,-147.06C850.727,-148.881 868.361,-150.773 885.149,-152.574"/>
<polygon fill="midnightblue" stroke="midnightblue" points="885.163,-156.095 895.479,-153.682 885.909,-149.135 885.163,-156.095"/>
</g>
<!-- Node36 -->
<g id="node36" class="node"><title>Node36</title>
<g id="a_node36"><a xlink:href="../../dc/d5a/classauthoring__environment_1_1_super_tile.html#a7e65040df400ad3d7a62145816f0cca4" target="_top" xlink:title="authoring_environment.Super\lTile.setPatchImage">
<polygon fill="white" stroke="black" points="894,-10 894,-40 1054,-40 1054,-10 894,-10"/>
<text text-anchor="start" x="902" y="-28" font-family="Helvetica,sans-Serif" font-size="10.00">authoring_environment.Super</text>
<text text-anchor="middle" x="974" y="-17" font-family="Helvetica,sans-Serif" font-size="10.00">Tile.setPatchImage</text>
</a>
</g>
</g>
<!-- Node26&#45;&gt;Node36 -->
<g id="edge42" class="edge"><title>Node26&#45;&gt;Node36</title>
<path fill="none" stroke="midnightblue" d="M760.152,-121.761C784.882,-103.674 828.637,-73.6248 870,-55 879.882,-50.5505 890.593,-46.5738 901.245,-43.0848"/>
<polygon fill="midnightblue" stroke="midnightblue" points="902.499,-46.3596 910.987,-40.0182 900.397,-39.6826 902.499,-46.3596"/>
</g>
<!-- Node28 -->
<g id="node28" class="node"><title>Node28</title>
<g id="a_node28"><a xlink:href="../../d7/dd4/classauthoring_1_1data_1_1_patch_instance_data.html#a60ac72e96e7e0da6f3beb20122a8c041" target="_top" xlink:title="authoring.data.PatchInstance\lData.getData">
<polygon fill="white" stroke="black" points="1359.5,-10 1359.5,-40 1516.5,-40 1516.5,-10 1359.5,-10"/>
<text text-anchor="start" x="1367.5" y="-28" font-family="Helvetica,sans-Serif" font-size="10.00">authoring.data.PatchInstance</text>
<text text-anchor="middle" x="1438" y="-17" font-family="Helvetica,sans-Serif" font-size="10.00">Data.getData</text>
</a>
</g>
</g>
<!-- Node27&#45;&gt;Node28 -->
<g id="edge29" class="edge"><title>Node27&#45;&gt;Node28</title>
<path fill="none" stroke="midnightblue" d="M1307.67,-19.0674C1321.29,-19.6922 1335.35,-20.3371 1348.96,-20.9613"/>
<polygon fill="midnightblue" stroke="midnightblue" points="1349.11,-24.4719 1359.26,-21.4339 1349.43,-17.4792 1349.11,-24.4719"/>
</g>
<!-- Node29&#45;&gt;Node27 -->
<g id="edge33" class="edge"><title>Node29&#45;&gt;Node27</title>
<path fill="none" stroke="midnightblue" d="M1047.56,-97.9123C1058.25,-94.0041 1068.76,-89.1124 1078,-83 1099.08,-69.0635 1092.55,-52.3571 1114,-39 1116.68,-37.331 1119.46,-35.7779 1122.33,-34.3327"/>
<polygon fill="midnightblue" stroke="midnightblue" points="1124.05,-37.3954 1131.71,-30.0744 1121.15,-31.0215 1124.05,-37.3954"/>
</g>
<!-- Node30 -->
<g id="node30" class="node"><title>Node30</title>
<g id="a_node30"><a xlink:href="../../da/d4c/classauthoring__environment_1_1_g_u_i_grid.html#a1a7fab3cd600b3c00a33ed4034ba9851" target="_top" xlink:title="authoring_environment.GUIGrid.get\lPatch">
<polygon fill="white" stroke="black" points="1124.5,-49 1124.5,-79 1311.5,-79 1311.5,-49 1124.5,-49"/>
<text text-anchor="start" x="1132.5" y="-67" font-family="Helvetica,sans-Serif" font-size="10.00">authoring_environment.GUIGrid.get</text>
<text text-anchor="middle" x="1218" y="-56" font-family="Helvetica,sans-Serif" font-size="10.00">Patch</text>
</a>
</g>
</g>
<!-- Node29&#45;&gt;Node30 -->
<g id="edge31" class="edge"><title>Node29&#45;&gt;Node30</title>
<path fill="none" stroke="midnightblue" d="M1049.25,-97.9654C1075.73,-92.6035 1105.74,-86.5269 1132.99,-81.0108"/>
<polygon fill="midnightblue" stroke="midnightblue" points="1133.78,-84.4212 1142.89,-79.0062 1132.39,-77.5604 1133.78,-84.4212"/>
</g>
<!-- Node31 -->
<g id="node31" class="node"><title>Node31</title>
<g id="a_node31"><a xlink:href="../../da/d4c/classauthoring__environment_1_1_g_u_i_grid.html#a2413204cbed4e6aae67dbb5ab1c55505" target="_top" xlink:title="authoring_environment.GUIGrid.remove\lPatch">
<polygon fill="white" stroke="black" points="1114,-98 1114,-128 1322,-128 1322,-98 1114,-98"/>
<text text-anchor="start" x="1122" y="-116" font-family="Helvetica,sans-Serif" font-size="10.00">authoring_environment.GUIGrid.remove</text>
<text text-anchor="middle" x="1218" y="-105" font-family="Helvetica,sans-Serif" font-size="10.00">Patch</text>
</a>
</g>
</g>
<!-- Node29&#45;&gt;Node31 -->
<g id="edge34" class="edge"><title>Node29&#45;&gt;Node31</title>
<path fill="none" stroke="midnightblue" d="M1078.33,-113C1086.64,-113 1095.07,-113 1103.44,-113"/>
<polygon fill="midnightblue" stroke="midnightblue" points="1103.63,-116.5 1113.63,-113 1103.63,-109.5 1103.63,-116.5"/>
</g>
<!-- Node30&#45;&gt;Node28 -->
<g id="edge32" class="edge"><title>Node30&#45;&gt;Node28</title>
<path fill="none" stroke="midnightblue" d="M1302.97,-48.9774C1318.12,-46.2666 1333.96,-43.4339 1349.22,-40.7043"/>
<polygon fill="midnightblue" stroke="midnightblue" points="1349.92,-44.1342 1359.15,-38.9278 1348.69,-37.2436 1349.92,-44.1342"/>
</g>
<!-- Node31&#45;&gt;Node19 -->
<g id="edge36" class="edge"><title>Node31&#45;&gt;Node19</title>
<path fill="none" stroke="midnightblue" d="M1309.26,-128.267C1313.8,-130.774 1318.09,-133.666 1322,-137 1354.16,-164.407 1326.92,-196.367 1358,-225 1359.72,-226.584 1361.54,-228.068 1363.44,-229.457"/>
<polygon fill="midnightblue" stroke="midnightblue" points="1361.89,-232.618 1372.22,-234.968 1365.61,-226.688 1361.89,-232.618"/>
</g>
<!-- Node31&#45;&gt;Node20 -->
<g id="edge37" class="edge"><title>Node31&#45;&gt;Node20</title>
<path fill="none" stroke="midnightblue" d="M1299.52,-128.012C1307.28,-130.567 1314.9,-133.541 1322,-137 1340.47,-146.002 1340.46,-155.303 1358,-166 1367.41,-171.74 1377.93,-177.07 1388.15,-181.751"/>
<polygon fill="midnightblue" stroke="midnightblue" points="1386.84,-185.001 1397.4,-185.86 1389.69,-178.603 1386.84,-185.001"/>
</g>
<!-- Node32 -->
<g id="node32" class="node"><title>Node32</title>
<g id="a_node32"><a xlink:href="../../d7/dd4/classauthoring_1_1data_1_1_patch_instance_data.html#a3cc84b2fe9d137219655d95e6b73ad6f" target="_top" xlink:title="authoring.data.PatchInstance\lData.remove">
<polygon fill="white" stroke="black" points="1359.5,-127 1359.5,-157 1516.5,-157 1516.5,-127 1359.5,-127"/>
<text text-anchor="start" x="1367.5" y="-145" font-family="Helvetica,sans-Serif" font-size="10.00">authoring.data.PatchInstance</text>
<text text-anchor="middle" x="1438" y="-134" font-family="Helvetica,sans-Serif" font-size="10.00">Data.remove</text>
</a>
</g>
</g>
<!-- Node31&#45;&gt;Node32 -->
<g id="edge35" class="edge"><title>Node31&#45;&gt;Node32</title>
<path fill="none" stroke="midnightblue" d="M1322.25,-126.736C1331.29,-127.938 1340.38,-129.147 1349.27,-130.329"/>
<polygon fill="midnightblue" stroke="midnightblue" points="1348.84,-133.803 1359.21,-131.652 1349.76,-126.864 1348.84,-133.803"/>
</g>
<!-- Node33 -->
<g id="node33" class="node"><title>Node33</title>
<g id="a_node33"><a xlink:href="../../dc/d5a/classauthoring__environment_1_1_super_tile.html#af629f0c1ad27b8ded911f0461606d056" target="_top" xlink:title="authoring_environment.Super\lTile.removePatchImage">
<polygon fill="white" stroke="black" points="1358,-78 1358,-108 1518,-108 1518,-78 1358,-78"/>
<text text-anchor="start" x="1366" y="-96" font-family="Helvetica,sans-Serif" font-size="10.00">authoring_environment.Super</text>
<text text-anchor="middle" x="1438" y="-85" font-family="Helvetica,sans-Serif" font-size="10.00">Tile.removePatchImage</text>
</a>
</g>
</g>
<!-- Node31&#45;&gt;Node33 -->
<g id="edge38" class="edge"><title>Node31&#45;&gt;Node33</title>
<path fill="none" stroke="midnightblue" d="M1322.25,-103.527C1330.78,-102.745 1339.36,-101.958 1347.77,-101.186"/>
<polygon fill="midnightblue" stroke="midnightblue" points="1348.3,-104.653 1357.94,-100.253 1347.66,-97.6818 1348.3,-104.653"/>
</g>
<!-- Node34&#45;&gt;Node20 -->
<g id="edge41" class="edge"><title>Node34&#45;&gt;Node20</title>
<path fill="none" stroke="midnightblue" d="M1051.96,-177.047C1072.08,-180.497 1093.79,-183.795 1114,-186 1192.66,-194.584 1282.63,-198.263 1347.6,-199.835"/>
<polygon fill="midnightblue" stroke="midnightblue" points="1347.73,-203.339 1357.81,-200.07 1347.89,-196.341 1347.73,-203.339"/>
</g>
<!-- Node35 -->
<g id="node35" class="node"><title>Node35</title>
<g id="a_node35"><a xlink:href="../../d7/dd4/classauthoring_1_1data_1_1_patch_instance_data.html#a49b1a96b6897bdba2ab473736a710047" target="_top" xlink:title="authoring.data.PatchInstance\lData.removePatchAtLoc">
<polygon fill="white" stroke="black" points="1139.5,-147 1139.5,-177 1296.5,-177 1296.5,-147 1139.5,-147"/>
<text text-anchor="start" x="1147.5" y="-165" font-family="Helvetica,sans-Serif" font-size="10.00">authoring.data.PatchInstance</text>
<text text-anchor="middle" x="1218" y="-154" font-family="Helvetica,sans-Serif" font-size="10.00">Data.removePatchAtLoc</text>
</a>
</g>
</g>
<!-- Node34&#45;&gt;Node35 -->
<g id="edge40" class="edge"><title>Node34&#45;&gt;Node35</title>
<path fill="none" stroke="midnightblue" d="M1052.57,-162C1076.99,-162 1104.14,-162 1129.22,-162"/>
<polygon fill="midnightblue" stroke="midnightblue" points="1129.46,-165.5 1139.46,-162 1129.46,-158.5 1129.46,-165.5"/>
</g>
</g>
</svg>
