<?xml version="1.0" encoding="UTF-8" standalone="no"?>
<!DOCTYPE svg PUBLIC "-//W3C//DTD SVG 1.1//EN"
 "http://www.w3.org/Graphics/SVG/1.1/DTD/svg11.dtd">
<!-- Generated by graphviz version 2.36.0 (20140111.2315)
 -->
<!-- Title: authoring_environment.SandyGrid Pages: 1 -->
<!--zoomable 204 -->
<svg id="main" version="1.1" xmlns="http://www.w3.org/2000/svg" xmlns:xlink="http://www.w3.org/1999/xlink" xml:space="preserve" onload="init(evt)">
<style type="text/css"><![CDATA[
.edge:hover path { stroke: red; }
.edge:hover polygon { stroke: red; fill: red; }
]]></style>
<script type="text/javascript"><![CDATA[
var edges = document.getElementsByTagName('g');
if (edges && edges.length) {
  for (var i=0;i<edges.length;i++) {
    if (edges[i].id.substr(0,4)=='edge') {
      edges[i].setAttribute('class','edge');
    }
  }
}
]]></script>
        <defs>
                <circle id="rim" cx="0" cy="0" r="7"/>
                <circle id="rim2" cx="0" cy="0" r="3.5"/>
                <g id="zoomPlus">
                        <use xlink:href="#rim" fill="#404040">
                                <set attributeName="fill" to="#808080" begin="zoomplus.mouseover" end="zoomplus.mouseout"/>
                        </use>
                        <path d="M-4,0h8M0,-4v8" fill="none" stroke="white" stroke-width="1.5" pointer-events="none"/>
                </g>
                <g id="zoomMin">
                        <use xlink:href="#rim" fill="#404040">
                                <set attributeName="fill" to="#808080" begin="zoomminus.mouseover" end="zoomminus.mouseout"/>
                        </use>
                        <path d="M-4,0h8" fill="none" stroke="white" stroke-width="1.5" pointer-events="none"/>
                </g>
                <g id="dirArrow">
                        <path fill="none" stroke="white" stroke-width="1.5" d="M0,-3.0v7 M-2.5,-0.5L0,-3.0L2.5,-0.5"/>
                </g>
               <g id="resetDef">
                       <use xlink:href="#rim2" fill="#404040">
                               <set attributeName="fill" to="#808080" begin="reset.mouseover" end="reset.mouseout"/>
                       </use>
               </g>
        </defs>

<script type="text/javascript">
var viewWidth = 974;
var viewHeight = 204;
var sectionId = 'dynsection-1';
</script>
<script xlink:href="../../svgpan.js"/>
<svg id="graph" class="graph">
<g id="viewport">
<title>authoring_environment.SandyGrid</title>
<polygon fill="white" stroke="none" points="-4,4 -4,-200 970,-200 970,4 -4,4"/>
<!-- Node1 -->
<g id="node1" class="node"><title>Node1</title>
<polygon fill="#bfbfbf" stroke="black" points="784.5,-107.5 784.5,-126.5 965.5,-126.5 965.5,-107.5 784.5,-107.5"/>
<text text-anchor="middle" x="875" y="-114.5" font-family="Helvetica,sans-Serif" font-size="10.00">authoring_environment.SandyGrid</text>
</g>
<!-- Node2 -->
<g id="node2" class="node"><title>Node2</title>
<g id="a_node2"><a xlink:href="../../d1/d4e/classauthoring__environment_1_1_shape_grid.html" target="_top" xlink:title="authoring_environment.ShapeGrid">
<polygon fill="white" stroke="black" points="564,-107.5 564,-126.5 746,-126.5 746,-107.5 564,-107.5"/>
<text text-anchor="middle" x="655" y="-114.5" font-family="Helvetica,sans-Serif" font-size="10.00">authoring_environment.ShapeGrid</text>
</a>
</g>
</g>
<!-- Node2&#45;&gt;Node1 -->
<g id="edge1" class="edge"><title>Node2&#45;&gt;Node1</title>
<path fill="none" stroke="midnightblue" d="M756.289,-117C765.591,-117 774.978,-117 784.176,-117"/>
<polygon fill="midnightblue" stroke="midnightblue" points="756.243,-113.5 746.243,-117 756.243,-120.5 756.243,-113.5"/>
</g>
<!-- Node3 -->
<g id="node3" class="node"><title>Node3</title>
<polygon fill="white" stroke="#bfbfbf" points="350,-170.5 350,-189.5 390,-189.5 390,-170.5 350,-170.5"/>
<text text-anchor="middle" x="370" y="-177.5" font-family="Helvetica,sans-Serif" font-size="10.00">Pane</text>
</g>
<!-- Node3&#45;&gt;Node2 -->
<g id="edge2" class="edge"><title>Node3&#45;&gt;Node2</title>
<path fill="none" stroke="midnightblue" d="M399.975,-175.309C434.812,-169.491 494.969,-158.877 546,-147 571.966,-140.957 601.071,-132.79 622.518,-126.503"/>
<polygon fill="midnightblue" stroke="midnightblue" points="399.309,-171.871 390.014,-176.956 400.451,-178.777 399.309,-171.871"/>
</g>
<!-- Node4 -->
<g id="node4" class="node"><title>Node4</title>
<g id="a_node4"><a xlink:href="../../d7/dd4/classauthoring_1_1data_1_1_patch_instance_data.html" target="_top" xlink:title="authoring.data.PatchInstanceData">
<polygon fill="white" stroke="black" points="280,-132.5 280,-151.5 460,-151.5 460,-132.5 280,-132.5"/>
<text text-anchor="middle" x="370" y="-139.5" font-family="Helvetica,sans-Serif" font-size="10.00">authoring.data.PatchInstanceData</text>
</a>
</g>
</g>
<!-- Node4&#45;&gt;Node2 -->
<g id="edge3" class="edge"><title>Node4&#45;&gt;Node2</title>
<path fill="none" stroke="#9a32cd" stroke-dasharray="5,2" d="M470.353,-133.223C500.776,-130.536 534.059,-127.595 563.834,-124.965"/>
<polygon fill="#9a32cd" stroke="#9a32cd" points="469.808,-129.758 460.155,-134.124 470.424,-136.731 469.808,-129.758"/>
<text text-anchor="middle" x="512" y="-135" font-family="Helvetica,sans-Serif" font-size="10.00"> myPatchData</text>
</g>
<!-- Node5 -->
<g id="node5" class="node"><title>Node5</title>
<g id="a_node5"><a xlink:href="../../d5/d29/interfaceauthoring_1_1data_1_1_authoring_data.html" target="_top" xlink:title="authoring.data.Authoring\lData\&lt; Patch \&gt;">
<polygon fill="white" stroke="black" points="25.5,-166 25.5,-196 162.5,-196 162.5,-166 25.5,-166"/>
<text text-anchor="start" x="33.5" y="-184" font-family="Helvetica,sans-Serif" font-size="10.00">authoring.data.Authoring</text>
<text text-anchor="middle" x="94" y="-173" font-family="Helvetica,sans-Serif" font-size="10.00">Data&lt; Patch &gt;</text>
</a>
</g>
</g>
<!-- Node5&#45;&gt;Node4 -->
<g id="edge4" class="edge"><title>Node5&#45;&gt;Node4</title>
<path fill="none" stroke="midnightblue" d="M172.635,-169.95C213.437,-164.142 262.95,-157.095 302.049,-151.53"/>
<polygon fill="midnightblue" stroke="midnightblue" points="172.137,-166.485 162.73,-171.36 173.124,-173.415 172.137,-166.485"/>
</g>
<!-- Node6 -->
<g id="node6" class="node"><title>Node6</title>
<polygon fill="white" stroke="#bfbfbf" points="0,-117 0,-147 188,-147 188,-117 0,-117"/>
<text text-anchor="start" x="8" y="-135" font-family="Helvetica,sans-Serif" font-size="10.00">List&lt; gamedata.gamecomponents.</text>
<text text-anchor="middle" x="94" y="-124" font-family="Helvetica,sans-Serif" font-size="10.00">Patch &gt;</text>
</g>
<!-- Node6&#45;&gt;Node4 -->
<g id="edge5" class="edge"><title>Node6&#45;&gt;Node4</title>
<path fill="none" stroke="#9a32cd" stroke-dasharray="5,2" d="M198.325,-135.771C225.142,-136.75 253.795,-137.795 279.816,-138.745"/>
<polygon fill="#9a32cd" stroke="#9a32cd" points="198.267,-132.267 188.146,-135.399 198.012,-139.262 198.267,-132.267"/>
<text text-anchor="middle" x="234" y="-140" font-family="Helvetica,sans-Serif" font-size="10.00"> myPatches</text>
</g>
<!-- Node7 -->
<g id="node7" class="node"><title>Node7</title>
<polygon fill="white" stroke="#bfbfbf" points="293,-83 293,-113 447,-113 447,-83 293,-83"/>
<text text-anchor="start" x="301" y="-101" font-family="Helvetica,sans-Serif" font-size="10.00">List&lt; List&lt; authoring</text>
<text text-anchor="middle" x="370" y="-90" font-family="Helvetica,sans-Serif" font-size="10.00">_environment.SandyTile &gt; &gt;</text>
</g>
<!-- Node7&#45;&gt;Node2 -->
<g id="edge6" class="edge"><title>Node7&#45;&gt;Node2</title>
<path fill="none" stroke="#9a32cd" stroke-dasharray="5,2" d="M457.554,-99.5014C485.781,-100.383 517.251,-101.781 546,-104 557.674,-104.901 570.028,-106.128 582.049,-107.471"/>
<polygon fill="#9a32cd" stroke="#9a32cd" points="457.411,-95.9958 447.313,-99.1996 457.205,-102.993 457.411,-95.9958"/>
<text text-anchor="middle" x="512" y="-107" font-family="Helvetica,sans-Serif" font-size="10.00"> myGrid</text>
</g>
<!-- Node8 -->
<g id="node8" class="node"><title>Node8</title>
<g id="a_node8"><a xlink:href="../../d6/dda/classauthoring_1_1data_1_1_piece_instance_data.html" target="_top" xlink:title="authoring.data.PieceInstanceData">
<polygon fill="white" stroke="black" points="280.5,-44.5 280.5,-63.5 459.5,-63.5 459.5,-44.5 280.5,-44.5"/>
<text text-anchor="middle" x="370" y="-51.5" font-family="Helvetica,sans-Serif" font-size="10.00">authoring.data.PieceInstanceData</text>
</a>
</g>
</g>
<!-- Node8&#45;&gt;Node2 -->
<g id="edge7" class="edge"><title>Node8&#45;&gt;Node2</title>
<path fill="none" stroke="#9a32cd" stroke-dasharray="5,2" d="M441.413,-65.2438C473.472,-70.7807 511.811,-77.9879 546,-86 572.4,-92.1866 601.971,-100.794 623.487,-107.37"/>
<polygon fill="#9a32cd" stroke="#9a32cd" points="441.685,-61.7396 431.239,-63.5058 440.506,-68.6396 441.685,-61.7396"/>
<text text-anchor="middle" x="512" y="-89" font-family="Helvetica,sans-Serif" font-size="10.00"> myPieceData</text>
</g>
<!-- Node9 -->
<g id="node9" class="node"><title>Node9</title>
<g id="a_node9"><a xlink:href="../../d5/d29/interfaceauthoring_1_1data_1_1_authoring_data.html" target="_top" xlink:title="authoring.data.Authoring\lData\&lt; Piece \&gt;">
<polygon fill="white" stroke="black" points="25.5,-49 25.5,-79 162.5,-79 162.5,-49 25.5,-49"/>
<text text-anchor="start" x="33.5" y="-67" font-family="Helvetica,sans-Serif" font-size="10.00">authoring.data.Authoring</text>
<text text-anchor="middle" x="94" y="-56" font-family="Helvetica,sans-Serif" font-size="10.00">Data&lt; Piece &gt;</text>
</a>
</g>
</g>
<!-- Node9&#45;&gt;Node8 -->
<g id="edge8" class="edge"><title>Node9&#45;&gt;Node8</title>
<path fill="none" stroke="midnightblue" d="M172.925,-61.156C206.413,-59.9338 245.726,-58.499 280.324,-57.2364"/>
<polygon fill="midnightblue" stroke="midnightblue" points="172.596,-57.6656 162.73,-61.5281 172.851,-64.6609 172.596,-57.6656"/>
</g>
<!-- Node10 -->
<g id="node10" class="node"><title>Node10</title>
<polygon fill="white" stroke="#bfbfbf" points="0,-0 0,-30 188,-30 188,-0 0,-0"/>
<text text-anchor="start" x="8" y="-18" font-family="Helvetica,sans-Serif" font-size="10.00">List&lt; gamedata.gamecomponents.</text>
<text text-anchor="middle" x="94" y="-7" font-family="Helvetica,sans-Serif" font-size="10.00">Piece &gt;</text>
</g>
<!-- Node10&#45;&gt;Node8 -->
<g id="edge9" class="edge"><title>Node10&#45;&gt;Node8</title>
<path fill="none" stroke="#9a32cd" stroke-dasharray="5,2" d="M198.332,-29.7079C233.065,-34.6516 270.875,-40.0333 302.059,-44.4719"/>
<polygon fill="#9a32cd" stroke="#9a32cd" points="198.54,-26.2022 188.146,-28.258 197.553,-33.1324 198.54,-26.2022"/>
<text text-anchor="middle" x="234" y="-41" font-family="Helvetica,sans-Serif" font-size="10.00"> myPieces</text>
</g>
</g>
</svg>
        <g id="navigator" transform="translate(0 0)" fill="#404254">
                <rect fill="#f2f5e9" fill-opacity="0.5" stroke="#606060" stroke-width=".5" x="0" y="0" width="60" height="60"/>
                <use id="zoomplus" xlink:href="#zoomPlus" x="17" y="9" onmousedown="handleZoom(evt,'in')"/>
                <use id="zoomminus" xlink:href="#zoomMin" x="42" y="9" onmousedown="handleZoom(evt,'out')"/>
                <use id="reset" xlink:href="#resetDef" x="30" y="36" onmousedown="handleReset()"/>
                <g id="arrowUp" xlink:href="#dirArrow" transform="translate(30 24)" onmousedown="handlePan(0,-1)">
                  <use xlink:href="#rim" fill="#404040">
                        <set attributeName="fill" to="#808080" begin="arrowUp.mouseover" end="arrowUp.mouseout"/>
                  </use>
                  <path fill="none" stroke="white" stroke-width="1.5" d="M0,-3.0v7 M-2.5,-0.5L0,-3.0L2.5,-0.5"/>
                </g>
                <g id="arrowRight" xlink:href="#dirArrow" transform="rotate(90) translate(36 -43)" onmousedown="handlePan(1,0)">
                  <use xlink:href="#rim" fill="#404040">
                        <set attributeName="fill" to="#808080" begin="arrowRight.mouseover" end="arrowRight.mouseout"/>
                  </use>
                  <path fill="none" stroke="white" stroke-width="1.5" d="M0,-3.0v7 M-2.5,-0.5L0,-3.0L2.5,-0.5"/>
                </g>
                <g id="arrowDown" xlink:href="#dirArrow" transform="rotate(180) translate(-30 -48)" onmousedown="handlePan(0,1)">
                  <use xlink:href="#rim" fill="#404040">
                        <set attributeName="fill" to="#808080" begin="arrowDown.mouseover" end="arrowDown.mouseout"/>
                  </use>
                  <path fill="none" stroke="white" stroke-width="1.5" d="M0,-3.0v7 M-2.5,-0.5L0,-3.0L2.5,-0.5"/>
                </g>
                <g id="arrowLeft" xlink:href="#dirArrow" transform="rotate(270) translate(-36 17)" onmousedown="handlePan(-1,0)">
                  <use xlink:href="#rim" fill="#404040">
                        <set attributeName="fill" to="#808080" begin="arrowLeft.mouseover" end="arrowLeft.mouseout"/>
                  </use>
                  <path fill="none" stroke="white" stroke-width="1.5" d="M0,-3.0v7 M-2.5,-0.5L0,-3.0L2.5,-0.5"/>
                </g>
        </g>
        <svg viewBox="0 0 15 15" width="100%" height="30px" preserveAspectRatio="xMaxYMin meet">
         <g id="arrow_out" transform="scale(0.3 0.3)">
          <a xlink:href="classauthoring__environment_1_1_sandy_grid__coll__graph_org.svg" target="_base">
           <rect id="button" ry="5" rx="5" y="6" x="6" height="38" width="38"
                fill="#f2f5e9" fill-opacity="0.5" stroke="#606060" stroke-width="1.0"/>
           <path id="arrow"
             d="M 11.500037,31.436501 C 11.940474,20.09759 22.043105,11.32322 32.158766,21.979434 L 37.068811,17.246167 C 37.068811,17.246167 37.088388,32 37.088388,32 L 22.160133,31.978069 C 22.160133,31.978069 26.997745,27.140456 26.997745,27.140456 C 18.528582,18.264221 13.291696,25.230495 11.500037,31.436501 z"
             style="fill:#404040;"/>
          </a>
         </g>
        </svg>
</svg>
