<?xml version="1.0" encoding="UTF-8" standalone="no"?>
<!DOCTYPE svg PUBLIC "-//W3C//DTD SVG 1.1//EN"
 "http://www.w3.org/Graphics/SVG/1.1/DTD/svg11.dtd">
<!-- Generated by graphviz version 2.36.0 (20140111.2315)
 -->
<!-- Title: authoring_environment.SandyTile.SandyTile Pages: 1 -->
<svg width="368pt" height="87pt"
 viewBox="0.00 0.00 368.00 87.00" xmlns="http://www.w3.org/2000/svg" xmlns:xlink="http://www.w3.org/1999/xlink">
<g id="graph0" class="graph" transform="scale(1 1) rotate(0) translate(4 83)">
<title>authoring_environment.SandyTile.SandyTile</title>
<polygon fill="white" stroke="none" points="-4,4 -4,-83 364,-83 364,4 -4,4"/>
<!-- Node1 -->
<g id="node1" class="node"><title>Node1</title>
<polygon fill="#bfbfbf" stroke="black" points="0.5,-24 0.5,-54 161.5,-54 161.5,-24 0.5,-24"/>
<text text-anchor="start" x="8.5" y="-42" font-family="Helvetica,sans-Serif" font-size="10.00">authoring_environment.Sandy</text>
<text text-anchor="middle" x="81" y="-31" font-family="Helvetica,sans-Serif" font-size="10.00">Tile.SandyTile</text>
</g>
<!-- Node2 -->
<g id="node2" class="node"><title>Node2</title>
<g id="a_node2"><a xlink:href="../../db/d80/classauthoring__environment_1_1_sandy_tile.html#aed33c8f46dce3ea63e7fc76daf3ecd27" target="_top" xlink:title="authoring_environment.Sandy\lTile.alignNodes">
<polygon fill="white" stroke="black" points="198.5,-49 198.5,-79 359.5,-79 359.5,-49 198.5,-49"/>
<text text-anchor="start" x="206.5" y="-67" font-family="Helvetica,sans-Serif" font-size="10.00">authoring_environment.Sandy</text>
<text text-anchor="middle" x="279" y="-56" font-family="Helvetica,sans-Serif" font-size="10.00">Tile.alignNodes</text>
</a>
</g>
</g>
<!-- Node1&#45;&gt;Node2 -->
<g id="edge1" class="edge"><title>Node1&#45;&gt;Node2</title>
<path fill="none" stroke="midnightblue" d="M161.721,-49.1685C170.499,-50.2882 179.48,-51.4337 188.369,-52.5675"/>
<polygon fill="midnightblue" stroke="midnightblue" points="187.987,-56.0471 198.35,-53.8406 188.873,-49.1033 187.987,-56.0471"/>
</g>
<!-- Node3 -->
<g id="node3" class="node"><title>Node3</title>
<g id="a_node3"><a xlink:href="../../db/d80/classauthoring__environment_1_1_sandy_tile.html#afef5eb4141cf0d22e8f5e350cef1acb5" target="_top" xlink:title="authoring_environment.Sandy\lTile.initImageView">
<polygon fill="white" stroke="black" points="198.5,-0 198.5,-30 359.5,-30 359.5,-0 198.5,-0"/>
<text text-anchor="start" x="206.5" y="-18" font-family="Helvetica,sans-Serif" font-size="10.00">authoring_environment.Sandy</text>
<text text-anchor="middle" x="279" y="-7" font-family="Helvetica,sans-Serif" font-size="10.00">Tile.initImageView</text>
</a>
</g>
</g>
<!-- Node1&#45;&gt;Node3 -->
<g id="edge2" class="edge"><title>Node1&#45;&gt;Node3</title>
<path fill="none" stroke="midnightblue" d="M161.721,-29.2383C170.499,-28.1634 179.48,-27.0636 188.369,-25.9752"/>
<polygon fill="midnightblue" stroke="midnightblue" points="188.85,-29.4426 198.35,-24.7531 187.999,-22.4945 188.85,-29.4426"/>
</g>
</g>
</svg>
