<?xml version="1.0" encoding="UTF-8" standalone="no"?>
<!DOCTYPE svg PUBLIC "-//W3C//DTD SVG 1.1//EN"
 "http://www.w3.org/Graphics/SVG/1.1/DTD/svg11.dtd">
<!-- Generated by graphviz version 2.36.0 (20140111.2315)
 -->
<!-- Title: authoring.eventeditor.ConditionEditorPane.initDoneButton Pages: 1 -->
<svg width="392pt" height="38pt"
 viewBox="0.00 0.00 392.00 38.00" xmlns="http://www.w3.org/2000/svg" xmlns:xlink="http://www.w3.org/1999/xlink">
<g id="graph0" class="graph" transform="scale(1 1) rotate(0) translate(4 34)">
<title>authoring.eventeditor.ConditionEditorPane.initDoneButton</title>
<polygon fill="white" stroke="none" points="-4,4 -4,-34 388,-34 388,4 -4,4"/>
<!-- Node1 -->
<g id="node1" class="node"><title>Node1</title>
<polygon fill="#bfbfbf" stroke="black" points="0.5,-0 0.5,-30 167.5,-30 167.5,-0 0.5,-0"/>
<text text-anchor="start" x="8.5" y="-18" font-family="Helvetica,sans-Serif" font-size="10.00">authoring.eventeditor.Condition</text>
<text text-anchor="middle" x="84" y="-7" font-family="Helvetica,sans-Serif" font-size="10.00">EditorPane.initDoneButton</text>
</g>
<!-- Node2 -->
<g id="node2" class="node"><title>Node2</title>
<g id="a_node2"><a xlink:href="../../db/d5e/classutilities_1_1reflection_1_1_reflection.html#a8bc52887d77966c001a83c2f585e6100" target="_top" xlink:title="utilities.reflection.Reflection.create\lInstance">
<polygon fill="white" stroke="black" points="204,-0 204,-30 384,-30 384,-0 204,-0"/>
<text text-anchor="start" x="212" y="-18" font-family="Helvetica,sans-Serif" font-size="10.00">utilities.reflection.Reflection.create</text>
<text text-anchor="middle" x="294" y="-7" font-family="Helvetica,sans-Serif" font-size="10.00">Instance</text>
</a>
</g>
</g>
<!-- Node1&#45;&gt;Node2 -->
<g id="edge1" class="edge"><title>Node1&#45;&gt;Node2</title>
<path fill="none" stroke="midnightblue" d="M167.506,-15C176.066,-15 184.829,-15 193.549,-15"/>
<polygon fill="midnightblue" stroke="midnightblue" points="193.751,-18.5001 203.751,-15 193.751,-11.5001 193.751,-18.5001"/>
</g>
</g>
</svg>
