<?xml version="1.0" encoding="UTF-8" standalone="no"?>
<!DOCTYPE svg PUBLIC "-//W3C//DTD SVG 1.1//EN"
 "http://www.w3.org/Graphics/SVG/1.1/DTD/svg11.dtd">
<!-- Generated by graphviz version 2.36.0 (20140111.2315)
 -->
<!-- Title: authoring.eventeditor.ConditionEditorPane.setupStatsBox Pages: 1 -->
<svg width="372pt" height="87pt"
 viewBox="0.00 0.00 372.00 87.00" xmlns="http://www.w3.org/2000/svg" xmlns:xlink="http://www.w3.org/1999/xlink">
<g id="graph0" class="graph" transform="scale(1 1) rotate(0) translate(4 83)">
<title>authoring.eventeditor.ConditionEditorPane.setupStatsBox</title>
<polygon fill="white" stroke="none" points="-4,4 -4,-83 368,-83 368,4 -4,4"/>
<!-- Node1 -->
<g id="node1" class="node"><title>Node1</title>
<polygon fill="#bfbfbf" stroke="black" points="0.5,-24 0.5,-54 167.5,-54 167.5,-24 0.5,-24"/>
<text text-anchor="start" x="8.5" y="-42" font-family="Helvetica,sans-Serif" font-size="10.00">authoring.eventeditor.Condition</text>
<text text-anchor="middle" x="84" y="-31" font-family="Helvetica,sans-Serif" font-size="10.00">EditorPane.setupStatsBox</text>
</g>
<!-- Node2 -->
<g id="node2" class="node"><title>Node2</title>
<g id="a_node2"><a xlink:href="../../d6/d1d/classgamedata_1_1stats_1_1_stats.html#a697416262aa5871d7b38fdcc0b92c586" target="_top" xlink:title="gamedata.stats.Stats.get\lStatNames">
<polygon fill="white" stroke="black" points="214,-49 214,-79 354,-79 354,-49 214,-49"/>
<text text-anchor="start" x="222" y="-67" font-family="Helvetica,sans-Serif" font-size="10.00">gamedata.stats.Stats.get</text>
<text text-anchor="middle" x="284" y="-56" font-family="Helvetica,sans-Serif" font-size="10.00">StatNames</text>
</a>
</g>
</g>
<!-- Node1&#45;&gt;Node2 -->
<g id="edge1" class="edge"><title>Node1&#45;&gt;Node2</title>
<path fill="none" stroke="midnightblue" d="M167.536,-49.4212C179.556,-50.939 191.91,-52.4987 203.861,-54.0077"/>
<polygon fill="midnightblue" stroke="midnightblue" points="203.429,-57.4809 213.789,-55.2612 204.306,-50.536 203.429,-57.4809"/>
</g>
<!-- Node3 -->
<g id="node3" class="node"><title>Node3</title>
<g id="a_node3"><a xlink:href="../../dc/d5b/interfacegamedata_1_1gamecomponents_1_1_i_has_stats.html#a9f7badcb30c9fddd00c760c38341a616" target="_top" xlink:title="gamedata.gamecomponents.\lIHasStats.getStats">
<polygon fill="white" stroke="black" points="204,-0 204,-30 364,-30 364,-0 204,-0"/>
<text text-anchor="start" x="212" y="-18" font-family="Helvetica,sans-Serif" font-size="10.00">gamedata.gamecomponents.</text>
<text text-anchor="middle" x="284" y="-7" font-family="Helvetica,sans-Serif" font-size="10.00">IHasStats.getStats</text>
</a>
</g>
</g>
<!-- Node1&#45;&gt;Node3 -->
<g id="edge2" class="edge"><title>Node1&#45;&gt;Node3</title>
<path fill="none" stroke="midnightblue" d="M167.536,-28.9956C176.154,-27.951 184.944,-26.8856 193.633,-25.8323"/>
<polygon fill="midnightblue" stroke="midnightblue" points="194.266,-29.2814 203.772,-24.6034 193.423,-22.3322 194.266,-29.2814"/>
</g>
</g>
</svg>
