<?xml version="1.0" encoding="UTF-8" standalone="no"?>
<!DOCTYPE svg PUBLIC "-//W3C//DTD SVG 1.1//EN"
 "http://www.w3.org/Graphics/SVG/1.1/DTD/svg11.dtd">
<!-- Generated by graphviz version 2.36.0 (20140111.2315)
 -->
<!-- Title: authoring.concretefeatures.IndividualUnitEditor.initialize Pages: 1 -->
<svg width="370pt" height="234pt"
 viewBox="0.00 0.00 370.00 234.00" xmlns="http://www.w3.org/2000/svg" xmlns:xlink="http://www.w3.org/1999/xlink">
<g id="graph0" class="graph" transform="scale(1 1) rotate(0) translate(4 230)">
<title>authoring.concretefeatures.IndividualUnitEditor.initialize</title>
<polygon fill="white" stroke="none" points="-4,4 -4,-230 366,-230 366,4 -4,4"/>
<!-- Node1 -->
<g id="node1" class="node"><title>Node1</title>
<polygon fill="#bfbfbf" stroke="black" points="0,-98 0,-128 150,-128 150,-98 0,-98"/>
<text text-anchor="start" x="8" y="-116" font-family="Helvetica,sans-Serif" font-size="10.00">authoring.concretefeatures.</text>
<text text-anchor="middle" x="75" y="-105" font-family="Helvetica,sans-Serif" font-size="10.00">IndividualUnitEditor.initialize</text>
</g>
<!-- Node2 -->
<g id="node2" class="node"><title>Node2</title>
<g id="a_node2"><a xlink:href="../../d4/d63/classgamedata_1_1gamecomponents_1_1_piece.html#aff9c4298f1796f022bc82ee138e925a4" target="_top" xlink:title="gamedata.gamecomponents.\lPiece.getStats">
<polygon fill="white" stroke="black" points="194,-196 194,-226 354,-226 354,-196 194,-196"/>
<text text-anchor="start" x="202" y="-214" font-family="Helvetica,sans-Serif" font-size="10.00">gamedata.gamecomponents.</text>
<text text-anchor="middle" x="274" y="-203" font-family="Helvetica,sans-Serif" font-size="10.00">Piece.getStats</text>
</a>
</g>
</g>
<!-- Node1&#45;&gt;Node2 -->
<g id="edge1" class="edge"><title>Node1&#45;&gt;Node2</title>
<path fill="none" stroke="midnightblue" d="M94.803,-128.101C115.897,-144.396 151.67,-170.137 186,-186 191.209,-188.407 196.703,-190.636 202.293,-192.689"/>
<polygon fill="midnightblue" stroke="midnightblue" points="201.165,-196.002 211.759,-195.978 203.462,-189.39 201.165,-196.002"/>
</g>
<!-- Node3 -->
<g id="node3" class="node"><title>Node3</title>
<g id="a_node3"><a xlink:href="../../dc/dc0/classauthoring_1_1concretefeatures_1_1_individual_unit_editor.html#a0ba8b10543da32337576ba88c89fc709" target="_top" xlink:title="authoring.concretefeatures.\lIndividualUnitEditor.initImage">
<polygon fill="white" stroke="black" points="196.5,-147 196.5,-177 351.5,-177 351.5,-147 196.5,-147"/>
<text text-anchor="start" x="204.5" y="-165" font-family="Helvetica,sans-Serif" font-size="10.00">authoring.concretefeatures.</text>
<text text-anchor="middle" x="274" y="-154" font-family="Helvetica,sans-Serif" font-size="10.00">IndividualUnitEditor.initImage</text>
</a>
</g>
</g>
<!-- Node1&#45;&gt;Node3 -->
<g id="edge2" class="edge"><title>Node1&#45;&gt;Node3</title>
<path fill="none" stroke="midnightblue" d="M136.445,-128.035C157.435,-133.255 181.149,-139.154 202.854,-144.553"/>
<polygon fill="midnightblue" stroke="midnightblue" points="202.12,-147.976 212.669,-146.994 203.81,-141.183 202.12,-147.976"/>
</g>
<!-- Node4 -->
<g id="node4" class="node"><title>Node4</title>
<g id="a_node4"><a xlink:href="../../dc/dc0/classauthoring_1_1concretefeatures_1_1_individual_unit_editor.html#aee45650ca0526e6085413ab81ca9a156" target="_top" xlink:title="authoring.concretefeatures.\lIndividualUnitEditor.initNameField">
<polygon fill="white" stroke="black" points="186.5,-98 186.5,-128 361.5,-128 361.5,-98 186.5,-98"/>
<text text-anchor="start" x="194.5" y="-116" font-family="Helvetica,sans-Serif" font-size="10.00">authoring.concretefeatures.</text>
<text text-anchor="middle" x="274" y="-105" font-family="Helvetica,sans-Serif" font-size="10.00">IndividualUnitEditor.initNameField</text>
</a>
</g>
</g>
<!-- Node1&#45;&gt;Node4 -->
<g id="edge3" class="edge"><title>Node1&#45;&gt;Node4</title>
<path fill="none" stroke="midnightblue" d="M150.197,-113C158.663,-113 167.385,-113 176.091,-113"/>
<polygon fill="midnightblue" stroke="midnightblue" points="176.286,-116.5 186.286,-113 176.286,-109.5 176.286,-116.5"/>
</g>
<!-- Node5 -->
<g id="node5" class="node"><title>Node5</title>
<g id="a_node5"><a xlink:href="../../dc/dc0/classauthoring_1_1concretefeatures_1_1_individual_unit_editor.html#aac5eb4e27079e46110868d88b205c411" target="_top" xlink:title="authoring.concretefeatures.\lIndividualUnitEditor.initPlayerID">
<polygon fill="white" stroke="black" points="192,-49 192,-79 356,-79 356,-49 192,-49"/>
<text text-anchor="start" x="200" y="-67" font-family="Helvetica,sans-Serif" font-size="10.00">authoring.concretefeatures.</text>
<text text-anchor="middle" x="274" y="-56" font-family="Helvetica,sans-Serif" font-size="10.00">IndividualUnitEditor.initPlayerID</text>
</a>
</g>
</g>
<!-- Node1&#45;&gt;Node5 -->
<g id="edge4" class="edge"><title>Node1&#45;&gt;Node5</title>
<path fill="none" stroke="midnightblue" d="M136.445,-97.9654C157.435,-92.7446 181.149,-86.8463 202.854,-81.4474"/>
<polygon fill="midnightblue" stroke="midnightblue" points="203.81,-84.8165 212.669,-79.0062 202.12,-78.0235 203.81,-84.8165"/>
</g>
<!-- Node6 -->
<g id="node6" class="node"><title>Node6</title>
<g id="a_node6"><a xlink:href="../../dc/dc0/classauthoring_1_1concretefeatures_1_1_individual_unit_editor.html#ab27651acf94c4e325d22bab1a90d4442" target="_top" xlink:title="authoring.concretefeatures.\lIndividualUnitEditor.initRot">
<polygon fill="white" stroke="black" points="199,-0 199,-30 349,-30 349,-0 199,-0"/>
<text text-anchor="start" x="207" y="-18" font-family="Helvetica,sans-Serif" font-size="10.00">authoring.concretefeatures.</text>
<text text-anchor="middle" x="274" y="-7" font-family="Helvetica,sans-Serif" font-size="10.00">IndividualUnitEditor.initRot</text>
</a>
</g>
</g>
<!-- Node1&#45;&gt;Node6 -->
<g id="edge5" class="edge"><title>Node1&#45;&gt;Node6</title>
<path fill="none" stroke="midnightblue" d="M94.803,-97.8988C115.897,-81.6036 151.67,-55.8634 186,-40 191.209,-37.5928 196.703,-35.3638 202.293,-33.3109"/>
<polygon fill="midnightblue" stroke="midnightblue" points="203.462,-36.6101 211.759,-30.0222 201.165,-29.9977 203.462,-36.6101"/>
</g>
</g>
</svg>
