<?xml version="1.0" encoding="UTF-8" standalone="no"?>
<!DOCTYPE svg PUBLIC "-//W3C//DTD SVG 1.1//EN"
 "http://www.w3.org/Graphics/SVG/1.1/DTD/svg11.dtd">
<!-- Generated by graphviz version 2.36.0 (20140111.2315)
 -->
<!-- Title: authoring.concretefeatures.IndividualUnitEditor.IndividualUnitEditor Pages: 1 -->
<!--zoomable 234 -->
<svg id="main" version="1.1" xmlns="http://www.w3.org/2000/svg" xmlns:xlink="http://www.w3.org/1999/xlink" xml:space="preserve" onload="init(evt)">
<style type="text/css"><![CDATA[
.edge:hover path { stroke: red; }
.edge:hover polygon { stroke: red; fill: red; }
]]></style>
<script type="text/javascript"><![CDATA[
var edges = document.getElementsByTagName('g');
if (edges && edges.length) {
  for (var i=0;i<edges.length;i++) {
    if (edges[i].id.substr(0,4)=='edge') {
      edges[i].setAttribute('class','edge');
    }
  }
}
]]></script>
        <defs>
                <circle id="rim" cx="0" cy="0" r="7"/>
                <circle id="rim2" cx="0" cy="0" r="3.5"/>
                <g id="zoomPlus">
                        <use xlink:href="#rim" fill="#404040">
                                <set attributeName="fill" to="#808080" begin="zoomplus.mouseover" end="zoomplus.mouseout"/>
                        </use>
                        <path d="M-4,0h8M0,-4v8" fill="none" stroke="white" stroke-width="1.5" pointer-events="none"/>
                </g>
                <g id="zoomMin">
                        <use xlink:href="#rim" fill="#404040">
                                <set attributeName="fill" to="#808080" begin="zoomminus.mouseover" end="zoomminus.mouseout"/>
                        </use>
                        <path d="M-4,0h8" fill="none" stroke="white" stroke-width="1.5" pointer-events="none"/>
                </g>
                <g id="dirArrow">
                        <path fill="none" stroke="white" stroke-width="1.5" d="M0,-3.0v7 M-2.5,-0.5L0,-3.0L2.5,-0.5"/>
                </g>
               <g id="resetDef">
                       <use xlink:href="#rim2" fill="#404040">
                               <set attributeName="fill" to="#808080" begin="reset.mouseover" end="reset.mouseout"/>
                       </use>
               </g>
        </defs>

<script type="text/javascript">
var viewWidth = 562;
var viewHeight = 234;
var sectionId = 'dynsection-2';
</script>
<script xlink:href="../../svgpan.js"/>
<svg id="graph" class="graph">
<g id="viewport">
<title>authoring.concretefeatures.IndividualUnitEditor.IndividualUnitEditor</title>
<polygon fill="white" stroke="none" points="-4,4 -4,-230 558,-230 558,4 -4,4"/>
<!-- Node1 -->
<g id="node1" class="node"><title>Node1</title>
<polygon fill="#bfbfbf" stroke="black" points="0.5,-92.5 0.5,-133.5 155.5,-133.5 155.5,-92.5 0.5,-92.5"/>
<text text-anchor="start" x="8.5" y="-121.5" font-family="Helvetica,sans-Serif" font-size="10.00">authoring.concretefeatures.</text>
<text text-anchor="start" x="8.5" y="-110.5" font-family="Helvetica,sans-Serif" font-size="10.00">IndividualUnitEditor.Individual</text>
<text text-anchor="middle" x="78" y="-99.5" font-family="Helvetica,sans-Serif" font-size="10.00">UnitEditor</text>
</g>
<!-- Node2 -->
<g id="node2" class="node"><title>Node2</title>
<g id="a_node2"><a xlink:href="../../dc/dc0/classauthoring_1_1concretefeatures_1_1_individual_unit_editor.html#adacfe00b8401b01ebefda14536286480" target="_top" xlink:title="authoring.concretefeatures.\lIndividualUnitEditor.initialize">
<polygon fill="white" stroke="black" points="192,-98 192,-128 342,-128 342,-98 192,-98"/>
<text text-anchor="start" x="200" y="-116" font-family="Helvetica,sans-Serif" font-size="10.00">authoring.concretefeatures.</text>
<text text-anchor="middle" x="267" y="-105" font-family="Helvetica,sans-Serif" font-size="10.00">IndividualUnitEditor.initialize</text>
</a>
</g>
</g>
<!-- Node1&#45;&gt;Node2 -->
<g id="edge1" class="edge"><title>Node1&#45;&gt;Node2</title>
<path fill="none" stroke="midnightblue" d="M155.6,-113C164.227,-113 173.052,-113 181.769,-113"/>
<polygon fill="midnightblue" stroke="midnightblue" points="181.934,-116.5 191.934,-113 181.934,-109.5 181.934,-116.5"/>
</g>
<!-- Node3 -->
<g id="node3" class="node"><title>Node3</title>
<g id="a_node3"><a xlink:href="../../dc/dc0/classauthoring_1_1concretefeatures_1_1_individual_unit_editor.html#aee45650ca0526e6085413ab81ca9a156" target="_top" xlink:title="authoring.concretefeatures.\lIndividualUnitEditor.initNameField">
<polygon fill="white" stroke="black" points="378.5,-196 378.5,-226 553.5,-226 553.5,-196 378.5,-196"/>
<text text-anchor="start" x="386.5" y="-214" font-family="Helvetica,sans-Serif" font-size="10.00">authoring.concretefeatures.</text>
<text text-anchor="middle" x="466" y="-203" font-family="Helvetica,sans-Serif" font-size="10.00">IndividualUnitEditor.initNameField</text>
</a>
</g>
</g>
<!-- Node2&#45;&gt;Node3 -->
<g id="edge2" class="edge"><title>Node2&#45;&gt;Node3</title>
<path fill="none" stroke="midnightblue" d="M286.803,-128.101C307.897,-144.396 343.67,-170.137 378,-186 383.209,-188.407 388.703,-190.636 394.293,-192.689"/>
<polygon fill="midnightblue" stroke="midnightblue" points="393.165,-196.002 403.759,-195.978 395.462,-189.39 393.165,-196.002"/>
</g>
<!-- Node4 -->
<g id="node4" class="node"><title>Node4</title>
<g id="a_node4"><a xlink:href="../../dc/dc0/classauthoring_1_1concretefeatures_1_1_individual_unit_editor.html#a0ba8b10543da32337576ba88c89fc709" target="_top" xlink:title="authoring.concretefeatures.\lIndividualUnitEditor.initImage">
<polygon fill="white" stroke="black" points="388.5,-147 388.5,-177 543.5,-177 543.5,-147 388.5,-147"/>
<text text-anchor="start" x="396.5" y="-165" font-family="Helvetica,sans-Serif" font-size="10.00">authoring.concretefeatures.</text>
<text text-anchor="middle" x="466" y="-154" font-family="Helvetica,sans-Serif" font-size="10.00">IndividualUnitEditor.initImage</text>
</a>
</g>
</g>
<!-- Node2&#45;&gt;Node4 -->
<g id="edge3" class="edge"><title>Node2&#45;&gt;Node4</title>
<path fill="none" stroke="midnightblue" d="M328.445,-128.035C349.435,-133.255 373.149,-139.154 394.854,-144.553"/>
<polygon fill="midnightblue" stroke="midnightblue" points="394.12,-147.976 404.669,-146.994 395.81,-141.183 394.12,-147.976"/>
</g>
<!-- Node5 -->
<g id="node5" class="node"><title>Node5</title>
<g id="a_node5"><a xlink:href="../../dc/dc0/classauthoring_1_1concretefeatures_1_1_individual_unit_editor.html#aac5eb4e27079e46110868d88b205c411" target="_top" xlink:title="authoring.concretefeatures.\lIndividualUnitEditor.initPlayerID">
<polygon fill="white" stroke="black" points="384,-98 384,-128 548,-128 548,-98 384,-98"/>
<text text-anchor="start" x="392" y="-116" font-family="Helvetica,sans-Serif" font-size="10.00">authoring.concretefeatures.</text>
<text text-anchor="middle" x="466" y="-105" font-family="Helvetica,sans-Serif" font-size="10.00">IndividualUnitEditor.initPlayerID</text>
</a>
</g>
</g>
<!-- Node2&#45;&gt;Node5 -->
<g id="edge4" class="edge"><title>Node2&#45;&gt;Node5</title>
<path fill="none" stroke="midnightblue" d="M342.197,-113C352.528,-113 363.241,-113 373.839,-113"/>
<polygon fill="midnightblue" stroke="midnightblue" points="373.949,-116.5 383.949,-113 373.949,-109.5 373.949,-116.5"/>
</g>
<!-- Node6 -->
<g id="node6" class="node"><title>Node6</title>
<g id="a_node6"><a xlink:href="../../dc/dc0/classauthoring_1_1concretefeatures_1_1_individual_unit_editor.html#ab27651acf94c4e325d22bab1a90d4442" target="_top" xlink:title="authoring.concretefeatures.\lIndividualUnitEditor.initRot">
<polygon fill="white" stroke="black" points="391,-49 391,-79 541,-79 541,-49 391,-49"/>
<text text-anchor="start" x="399" y="-67" font-family="Helvetica,sans-Serif" font-size="10.00">authoring.concretefeatures.</text>
<text text-anchor="middle" x="466" y="-56" font-family="Helvetica,sans-Serif" font-size="10.00">IndividualUnitEditor.initRot</text>
</a>
</g>
</g>
<!-- Node2&#45;&gt;Node6 -->
<g id="edge5" class="edge"><title>Node2&#45;&gt;Node6</title>
<path fill="none" stroke="midnightblue" d="M328.445,-97.9654C349.435,-92.7446 373.149,-86.8463 394.854,-81.4474"/>
<polygon fill="midnightblue" stroke="midnightblue" points="395.81,-84.8165 404.669,-79.0062 394.12,-78.0235 395.81,-84.8165"/>
</g>
<!-- Node7 -->
<g id="node7" class="node"><title>Node7</title>
<g id="a_node7"><a xlink:href="../../d4/d63/classgamedata_1_1gamecomponents_1_1_piece.html#aff9c4298f1796f022bc82ee138e925a4" target="_top" xlink:title="gamedata.gamecomponents.\lPiece.getStats">
<polygon fill="white" stroke="black" points="386,-0 386,-30 546,-30 546,-0 386,-0"/>
<text text-anchor="start" x="394" y="-18" font-family="Helvetica,sans-Serif" font-size="10.00">gamedata.gamecomponents.</text>
<text text-anchor="middle" x="466" y="-7" font-family="Helvetica,sans-Serif" font-size="10.00">Piece.getStats</text>
</a>
</g>
</g>
<!-- Node2&#45;&gt;Node7 -->
<g id="edge6" class="edge"><title>Node2&#45;&gt;Node7</title>
<path fill="none" stroke="midnightblue" d="M286.803,-97.8988C307.897,-81.6036 343.67,-55.8634 378,-40 383.209,-37.5928 388.703,-35.3638 394.293,-33.3109"/>
<polygon fill="midnightblue" stroke="midnightblue" points="395.462,-36.6101 403.759,-30.0222 393.165,-29.9977 395.462,-36.6101"/>
</g>
</g>
</svg>
        <g id="navigator" transform="translate(0 0)" fill="#404254">
                <rect fill="#f2f5e9" fill-opacity="0.5" stroke="#606060" stroke-width=".5" x="0" y="0" width="60" height="60"/>
                <use id="zoomplus" xlink:href="#zoomPlus" x="17" y="9" onmousedown="handleZoom(evt,'in')"/>
                <use id="zoomminus" xlink:href="#zoomMin" x="42" y="9" onmousedown="handleZoom(evt,'out')"/>
                <use id="reset" xlink:href="#resetDef" x="30" y="36" onmousedown="handleReset()"/>
                <g id="arrowUp" xlink:href="#dirArrow" transform="translate(30 24)" onmousedown="handlePan(0,-1)">
                  <use xlink:href="#rim" fill="#404040">
                        <set attributeName="fill" to="#808080" begin="arrowUp.mouseover" end="arrowUp.mouseout"/>
                  </use>
                  <path fill="none" stroke="white" stroke-width="1.5" d="M0,-3.0v7 M-2.5,-0.5L0,-3.0L2.5,-0.5"/>
                </g>
                <g id="arrowRight" xlink:href="#dirArrow" transform="rotate(90) translate(36 -43)" onmousedown="handlePan(1,0)">
                  <use xlink:href="#rim" fill="#404040">
                        <set attributeName="fill" to="#808080" begin="arrowRight.mouseover" end="arrowRight.mouseout"/>
                  </use>
                  <path fill="none" stroke="white" stroke-width="1.5" d="M0,-3.0v7 M-2.5,-0.5L0,-3.0L2.5,-0.5"/>
                </g>
                <g id="arrowDown" xlink:href="#dirArrow" transform="rotate(180) translate(-30 -48)" onmousedown="handlePan(0,1)">
                  <use xlink:href="#rim" fill="#404040">
                        <set attributeName="fill" to="#808080" begin="arrowDown.mouseover" end="arrowDown.mouseout"/>
                  </use>
                  <path fill="none" stroke="white" stroke-width="1.5" d="M0,-3.0v7 M-2.5,-0.5L0,-3.0L2.5,-0.5"/>
                </g>
                <g id="arrowLeft" xlink:href="#dirArrow" transform="rotate(270) translate(-36 17)" onmousedown="handlePan(-1,0)">
                  <use xlink:href="#rim" fill="#404040">
                        <set attributeName="fill" to="#808080" begin="arrowLeft.mouseover" end="arrowLeft.mouseout"/>
                  </use>
                  <path fill="none" stroke="white" stroke-width="1.5" d="M0,-3.0v7 M-2.5,-0.5L0,-3.0L2.5,-0.5"/>
                </g>
        </g>
        <svg viewBox="0 0 15 15" width="100%" height="30px" preserveAspectRatio="xMaxYMin meet">
         <g id="arrow_out" transform="scale(0.3 0.3)">
          <a xlink:href="classauthoring_1_1concretefeatures_1_1_individual_unit_editor_a8c024ae13e1fdef1fe2517c5469b66f0_cgraph_org.svg" target="_base">
           <rect id="button" ry="5" rx="5" y="6" x="6" height="38" width="38"
                fill="#f2f5e9" fill-opacity="0.5" stroke="#606060" stroke-width="1.0"/>
           <path id="arrow"
             d="M 11.500037,31.436501 C 11.940474,20.09759 22.043105,11.32322 32.158766,21.979434 L 37.068811,17.246167 C 37.068811,17.246167 37.088388,32 37.088388,32 L 22.160133,31.978069 C 22.160133,31.978069 26.997745,27.140456 26.997745,27.140456 C 18.528582,18.264221 13.291696,25.230495 11.500037,31.436501 z"
             style="fill:#404040;"/>
          </a>
         </g>
        </svg>
</svg>
