<?xml version="1.0" encoding="UTF-8" standalone="no"?>
<!DOCTYPE svg PUBLIC "-//W3C//DTD SVG 1.1//EN"
 "http://www.w3.org/Graphics/SVG/1.1/DTD/svg11.dtd">
<!-- Generated by graphviz version 2.36.0 (20140111.2315)
 -->
<!-- Title: authoring.concretefeatures.IndividualUnitEditor.initialize Pages: 1 -->
<svg width="350pt" height="48pt"
 viewBox="0.00 0.00 350.00 48.00" xmlns="http://www.w3.org/2000/svg" xmlns:xlink="http://www.w3.org/1999/xlink">
<g id="graph0" class="graph" transform="scale(1 1) rotate(0) translate(4 44)">
<title>authoring.concretefeatures.IndividualUnitEditor.initialize</title>
<polygon fill="white" stroke="none" points="-4,4 -4,-44 346,-44 346,4 -4,4"/>
<!-- Node1 -->
<g id="node1" class="node"><title>Node1</title>
<polygon fill="#bfbfbf" stroke="black" points="0,-5 0,-35 150,-35 150,-5 0,-5"/>
<text text-anchor="start" x="8" y="-23" font-family="Helvetica,sans-Serif" font-size="10.00">authoring.concretefeatures.</text>
<text text-anchor="middle" x="75" y="-12" font-family="Helvetica,sans-Serif" font-size="10.00">IndividualUnitEditor.initialize</text>
</g>
<!-- Node2 -->
<g id="node2" class="node"><title>Node2</title>
<g id="a_node2"><a xlink:href="../../dc/dc0/classauthoring_1_1concretefeatures_1_1_individual_unit_editor.html#a8c024ae13e1fdef1fe2517c5469b66f0" target="_top" xlink:title="authoring.concretefeatures.\lIndividualUnitEditor.Individual\lUnitEditor">
<polygon fill="white" stroke="black" points="186.5,0.5 186.5,-40.5 341.5,-40.5 341.5,0.5 186.5,0.5"/>
<text text-anchor="start" x="194.5" y="-28.5" font-family="Helvetica,sans-Serif" font-size="10.00">authoring.concretefeatures.</text>
<text text-anchor="start" x="194.5" y="-17.5" font-family="Helvetica,sans-Serif" font-size="10.00">IndividualUnitEditor.Individual</text>
<text text-anchor="middle" x="264" y="-6.5" font-family="Helvetica,sans-Serif" font-size="10.00">UnitEditor</text>
</a>
</g>
</g>
<!-- Node1&#45;&gt;Node2 -->
<g id="edge1" class="edge"><title>Node1&#45;&gt;Node2</title>
<path fill="none" stroke="midnightblue" d="M160.328,-20C169.034,-20 177.847,-20 186.461,-20"/>
<polygon fill="midnightblue" stroke="midnightblue" points="160.176,-16.5001 150.176,-20 160.176,-23.5001 160.176,-16.5001"/>
</g>
</g>
</svg>
