<?xml version="1.0" encoding="UTF-8" standalone="no"?>
<!DOCTYPE svg PUBLIC "-//W3C//DTD SVG 1.1//EN"
 "http://www.w3.org/Graphics/SVG/1.1/DTD/svg11.dtd">
<!-- Generated by graphviz version 2.36.0 (20140111.2315)
 -->
<!-- Title: authoring_environment.RangeGridView.returnSelectedList Pages: 1 -->
<svg width="566pt" height="87pt"
 viewBox="0.00 0.00 566.00 87.00" xmlns="http://www.w3.org/2000/svg" xmlns:xlink="http://www.w3.org/1999/xlink">
<g id="graph0" class="graph" transform="scale(1 1) rotate(0) translate(4 83)">
<title>authoring_environment.RangeGridView.returnSelectedList</title>
<polygon fill="white" stroke="none" points="-4,4 -4,-83 562,-83 562,4 -4,4"/>
<!-- Node1 -->
<g id="node1" class="node"><title>Node1</title>
<polygon fill="#bfbfbf" stroke="black" points="0.5,-24 0.5,-54 161.5,-54 161.5,-24 0.5,-24"/>
<text text-anchor="start" x="8.5" y="-42" font-family="Helvetica,sans-Serif" font-size="10.00">authoring_environment.Range</text>
<text text-anchor="middle" x="81" y="-31" font-family="Helvetica,sans-Serif" font-size="10.00">GridView.returnSelectedList</text>
</g>
<!-- Node2 -->
<g id="node2" class="node"><title>Node2</title>
<g id="a_node2"><a xlink:href="../../d5/da8/classauthoring__environment_1_1_range_grid.html#a5d631da91234e98b2970a530dc860503" target="_top" xlink:title="authoring_environment.Range\lGrid.selectedRangeList">
<polygon fill="white" stroke="black" points="198.5,-24 198.5,-54 359.5,-54 359.5,-24 198.5,-24"/>
<text text-anchor="start" x="206.5" y="-42" font-family="Helvetica,sans-Serif" font-size="10.00">authoring_environment.Range</text>
<text text-anchor="middle" x="279" y="-31" font-family="Helvetica,sans-Serif" font-size="10.00">Grid.selectedRangeList</text>
</a>
</g>
</g>
<!-- Node1&#45;&gt;Node2 -->
<g id="edge1" class="edge"><title>Node1&#45;&gt;Node2</title>
<path fill="none" stroke="midnightblue" d="M161.721,-39C170.405,-39 179.287,-39 188.082,-39"/>
<polygon fill="midnightblue" stroke="midnightblue" points="188.35,-42.5001 198.35,-39 188.35,-35.5001 188.35,-42.5001"/>
</g>
<!-- Node3 -->
<g id="node3" class="node"><title>Node3</title>
<g id="a_node3"><a xlink:href="../../d5/da8/classauthoring__environment_1_1_range_grid.html#aee0028d314fe7e42143f91d67f9c25c1" target="_top" xlink:title="authoring_environment.Range\lGrid.findTile">
<polygon fill="white" stroke="black" points="396.5,-49 396.5,-79 557.5,-79 557.5,-49 396.5,-49"/>
<text text-anchor="start" x="404.5" y="-67" font-family="Helvetica,sans-Serif" font-size="10.00">authoring_environment.Range</text>
<text text-anchor="middle" x="477" y="-56" font-family="Helvetica,sans-Serif" font-size="10.00">Grid.findTile</text>
</a>
</g>
</g>
<!-- Node2&#45;&gt;Node3 -->
<g id="edge2" class="edge"><title>Node2&#45;&gt;Node3</title>
<path fill="none" stroke="midnightblue" d="M359.721,-49.1685C368.499,-50.2882 377.48,-51.4337 386.369,-52.5675"/>
<polygon fill="midnightblue" stroke="midnightblue" points="385.987,-56.0471 396.35,-53.8406 386.873,-49.1033 385.987,-56.0471"/>
</g>
<!-- Node4 -->
<g id="node4" class="node"><title>Node4</title>
<g id="a_node4"><a xlink:href="../../dc/d5a/classauthoring__environment_1_1_super_tile.html#afafc82a52123f943132cdfcf6d72370b" target="_top" xlink:title="authoring_environment.Super\lTile.isSelected">
<polygon fill="white" stroke="black" points="397,-0 397,-30 557,-30 557,-0 397,-0"/>
<text text-anchor="start" x="405" y="-18" font-family="Helvetica,sans-Serif" font-size="10.00">authoring_environment.Super</text>
<text text-anchor="middle" x="477" y="-7" font-family="Helvetica,sans-Serif" font-size="10.00">Tile.isSelected</text>
</a>
</g>
</g>
<!-- Node2&#45;&gt;Node4 -->
<g id="edge3" class="edge"><title>Node2&#45;&gt;Node4</title>
<path fill="none" stroke="midnightblue" d="M359.721,-29.2383C368.653,-28.1445 377.796,-27.025 386.837,-25.9179"/>
<polygon fill="midnightblue" stroke="midnightblue" points="387.485,-29.3648 396.985,-24.6753 386.634,-22.4167 387.485,-29.3648"/>
</g>
</g>
</svg>
