<?xml version="1.0" encoding="UTF-8" standalone="no"?>
<!DOCTYPE svg PUBLIC "-//W3C//DTD SVG 1.1//EN"
 "http://www.w3.org/Graphics/SVG/1.1/DTD/svg11.dtd">
<!-- Generated by graphviz version 2.36.0 (20140111.2315)
 -->
<!-- Title: authoring.data.ActionData.add Pages: 1 -->
<!--zoomable 134 -->
<svg id="main" version="1.1" xmlns="http://www.w3.org/2000/svg" xmlns:xlink="http://www.w3.org/1999/xlink" xml:space="preserve" onload="init(evt)">
<style type="text/css"><![CDATA[
.edge:hover path { stroke: red; }
.edge:hover polygon { stroke: red; fill: red; }
]]></style>
<script type="text/javascript"><![CDATA[
var edges = document.getElementsByTagName('g');
if (edges && edges.length) {
  for (var i=0;i<edges.length;i++) {
    if (edges[i].id.substr(0,4)=='edge') {
      edges[i].setAttribute('class','edge');
    }
  }
}
]]></script>
        <defs>
                <circle id="rim" cx="0" cy="0" r="7"/>
                <circle id="rim2" cx="0" cy="0" r="3.5"/>
                <g id="zoomPlus">
                        <use xlink:href="#rim" fill="#404040">
                                <set attributeName="fill" to="#808080" begin="zoomplus.mouseover" end="zoomplus.mouseout"/>
                        </use>
                        <path d="M-4,0h8M0,-4v8" fill="none" stroke="white" stroke-width="1.5" pointer-events="none"/>
                </g>
                <g id="zoomMin">
                        <use xlink:href="#rim" fill="#404040">
                                <set attributeName="fill" to="#808080" begin="zoomminus.mouseover" end="zoomminus.mouseout"/>
                        </use>
                        <path d="M-4,0h8" fill="none" stroke="white" stroke-width="1.5" pointer-events="none"/>
                </g>
                <g id="dirArrow">
                        <path fill="none" stroke="white" stroke-width="1.5" d="M0,-3.0v7 M-2.5,-0.5L0,-3.0L2.5,-0.5"/>
                </g>
               <g id="resetDef">
                       <use xlink:href="#rim2" fill="#404040">
                               <set attributeName="fill" to="#808080" begin="reset.mouseover" end="reset.mouseout"/>
                       </use>
               </g>
        </defs>

<script type="text/javascript">
var viewWidth = 588;
var viewHeight = 134;
var sectionId = 'dynsection-2';
</script>
<script xlink:href="../../svgpan.js"/>
<svg id="graph" class="graph">
<g id="viewport">
<title>authoring.data.ActionData.add</title>
<polygon fill="white" stroke="none" points="-4,4 -4,-130 584,-130 584,4 -4,4"/>
<!-- Node1 -->
<g id="node1" class="node"><title>Node1</title>
<polygon fill="#bfbfbf" stroke="black" points="0,-52.5 0,-71.5 164,-71.5 164,-52.5 0,-52.5"/>
<text text-anchor="middle" x="82" y="-59.5" font-family="Helvetica,sans-Serif" font-size="10.00">authoring.data.ActionData.add</text>
</g>
<!-- Node2 -->
<g id="node2" class="node"><title>Node2</title>
<g id="a_node2"><a xlink:href="../../d8/d67/classfxml__main_1_1_action_controller.html#a8793bac146d1bfab8547c66dde24bc12" target="_top" xlink:title="fxml_main.ActionController.init\lGlobalNewBtn">
<polygon fill="white" stroke="black" points="210,-96 210,-126 372,-126 372,-96 210,-96"/>
<text text-anchor="start" x="218" y="-114" font-family="Helvetica,sans-Serif" font-size="10.00">fxml_main.ActionController.init</text>
<text text-anchor="middle" x="291" y="-103" font-family="Helvetica,sans-Serif" font-size="10.00">GlobalNewBtn</text>
</a>
</g>
</g>
<!-- Node1&#45;&gt;Node2 -->
<g id="edge1" class="edge"><title>Node1&#45;&gt;Node2</title>
<path fill="none" stroke="midnightblue" d="M133.385,-73.9268C161.415,-80.562 196.576,-88.8851 226.476,-95.963"/>
<polygon fill="midnightblue" stroke="midnightblue" points="133.94,-70.4617 123.403,-71.564 132.328,-77.2735 133.94,-70.4617"/>
</g>
<!-- Node3 -->
<g id="node3" class="node"><title>Node3</title>
<g id="a_node3"><a xlink:href="../../d5/d7c/classauthoring_1_1createedit_1_1_action_creator.html#ad674395590b84f53c85f078d183bc133" target="_top" xlink:title="authoring.createedit.Action\lCreator.initialize">
<polygon fill="white" stroke="black" points="217.5,-47 217.5,-77 364.5,-77 364.5,-47 217.5,-47"/>
<text text-anchor="start" x="225.5" y="-65" font-family="Helvetica,sans-Serif" font-size="10.00">authoring.createedit.Action</text>
<text text-anchor="middle" x="291" y="-54" font-family="Helvetica,sans-Serif" font-size="10.00">Creator.initialize</text>
</a>
</g>
</g>
<!-- Node1&#45;&gt;Node3 -->
<g id="edge2" class="edge"><title>Node1&#45;&gt;Node3</title>
<path fill="none" stroke="midnightblue" d="M174.591,-62C188.935,-62 203.587,-62 217.428,-62"/>
<polygon fill="midnightblue" stroke="midnightblue" points="174.218,-58.5001 164.218,-62 174.218,-65.5001 174.218,-58.5001"/>
</g>
<!-- Node5 -->
<g id="node5" class="node"><title>Node5</title>
<g id="a_node5"><a xlink:href="../../d2/da6/classauthoring_1_1data_1_1_action_data.html#a0453de13a03a506993c240d3efa6a4fc" target="_top" xlink:title="authoring.data.ActionData.replace">
<polygon fill="white" stroke="black" points="200,-7.5 200,-26.5 382,-26.5 382,-7.5 200,-7.5"/>
<text text-anchor="middle" x="291" y="-14.5" font-family="Helvetica,sans-Serif" font-size="10.00">authoring.data.ActionData.replace</text>
</a>
</g>
</g>
<!-- Node1&#45;&gt;Node5 -->
<g id="edge4" class="edge"><title>Node1&#45;&gt;Node5</title>
<path fill="none" stroke="midnightblue" d="M136.684,-50.3296C170.725,-42.9294 214.207,-33.4768 246.164,-26.5296"/>
<polygon fill="midnightblue" stroke="midnightblue" points="135.928,-46.9122 126.899,-52.4567 137.415,-53.7524 135.928,-46.9122"/>
</g>
<!-- Node4 -->
<g id="node4" class="node"><title>Node4</title>
<g id="a_node4"><a xlink:href="../../d5/d7c/classauthoring_1_1createedit_1_1_action_creator.html#a5ed7745b05fe6a4c847f2e392784941f" target="_top" xlink:title="authoring.createedit.Action\lCreator.ActionCreator">
<polygon fill="white" stroke="black" points="425.5,-49 425.5,-79 572.5,-79 572.5,-49 425.5,-49"/>
<text text-anchor="start" x="433.5" y="-67" font-family="Helvetica,sans-Serif" font-size="10.00">authoring.createedit.Action</text>
<text text-anchor="middle" x="499" y="-56" font-family="Helvetica,sans-Serif" font-size="10.00">Creator.ActionCreator</text>
</a>
</g>
</g>
<!-- Node3&#45;&gt;Node4 -->
<g id="edge3" class="edge"><title>Node3&#45;&gt;Node4</title>
<path fill="none" stroke="midnightblue" d="M374.909,-62.8049C391.601,-62.967 409.024,-63.1362 425.334,-63.2945"/>
<polygon fill="midnightblue" stroke="midnightblue" points="374.661,-59.3025 364.628,-62.7051 374.593,-66.3021 374.661,-59.3025"/>
</g>
<!-- Node6 -->
<g id="node6" class="node"><title>Node6</title>
<g id="a_node6"><a xlink:href="../../d8/d67/classfxml__main_1_1_action_controller.html#a0d06879a7755571e9d8188a10370ebe1" target="_top" xlink:title="fxml_main.ActionController.init\lEntryEditBtn">
<polygon fill="white" stroke="black" points="418,-0 418,-30 580,-30 580,-0 418,-0"/>
<text text-anchor="start" x="426" y="-18" font-family="Helvetica,sans-Serif" font-size="10.00">fxml_main.ActionController.init</text>
<text text-anchor="middle" x="499" y="-7" font-family="Helvetica,sans-Serif" font-size="10.00">EntryEditBtn</text>
</a>
</g>
</g>
<!-- Node5&#45;&gt;Node6 -->
<g id="edge5" class="edge"><title>Node5&#45;&gt;Node6</title>
<path fill="none" stroke="midnightblue" d="M392.144,-16.0277C400.762,-15.9441 409.406,-15.8601 417.835,-15.7783"/>
<polygon fill="midnightblue" stroke="midnightblue" points="392.02,-12.5287 382.055,-16.1257 392.088,-19.5283 392.02,-12.5287"/>
</g>
</g>
</svg>
        <g id="navigator" transform="translate(0 0)" fill="#404254">
                <rect fill="#f2f5e9" fill-opacity="0.5" stroke="#606060" stroke-width=".5" x="0" y="0" width="60" height="60"/>
                <use id="zoomplus" xlink:href="#zoomPlus" x="17" y="9" onmousedown="handleZoom(evt,'in')"/>
                <use id="zoomminus" xlink:href="#zoomMin" x="42" y="9" onmousedown="handleZoom(evt,'out')"/>
                <use id="reset" xlink:href="#resetDef" x="30" y="36" onmousedown="handleReset()"/>
                <g id="arrowUp" xlink:href="#dirArrow" transform="translate(30 24)" onmousedown="handlePan(0,-1)">
                  <use xlink:href="#rim" fill="#404040">
                        <set attributeName="fill" to="#808080" begin="arrowUp.mouseover" end="arrowUp.mouseout"/>
                  </use>
                  <path fill="none" stroke="white" stroke-width="1.5" d="M0,-3.0v7 M-2.5,-0.5L0,-3.0L2.5,-0.5"/>
                </g>
                <g id="arrowRight" xlink:href="#dirArrow" transform="rotate(90) translate(36 -43)" onmousedown="handlePan(1,0)">
                  <use xlink:href="#rim" fill="#404040">
                        <set attributeName="fill" to="#808080" begin="arrowRight.mouseover" end="arrowRight.mouseout"/>
                  </use>
                  <path fill="none" stroke="white" stroke-width="1.5" d="M0,-3.0v7 M-2.5,-0.5L0,-3.0L2.5,-0.5"/>
                </g>
                <g id="arrowDown" xlink:href="#dirArrow" transform="rotate(180) translate(-30 -48)" onmousedown="handlePan(0,1)">
                  <use xlink:href="#rim" fill="#404040">
                        <set attributeName="fill" to="#808080" begin="arrowDown.mouseover" end="arrowDown.mouseout"/>
                  </use>
                  <path fill="none" stroke="white" stroke-width="1.5" d="M0,-3.0v7 M-2.5,-0.5L0,-3.0L2.5,-0.5"/>
                </g>
                <g id="arrowLeft" xlink:href="#dirArrow" transform="rotate(270) translate(-36 17)" onmousedown="handlePan(-1,0)">
                  <use xlink:href="#rim" fill="#404040">
                        <set attributeName="fill" to="#808080" begin="arrowLeft.mouseover" end="arrowLeft.mouseout"/>
                  </use>
                  <path fill="none" stroke="white" stroke-width="1.5" d="M0,-3.0v7 M-2.5,-0.5L0,-3.0L2.5,-0.5"/>
                </g>
        </g>
        <svg viewBox="0 0 15 15" width="100%" height="30px" preserveAspectRatio="xMaxYMin meet">
         <g id="arrow_out" transform="scale(0.3 0.3)">
          <a xlink:href="classauthoring_1_1data_1_1_action_data_ac4c4ab5711f3eeb1d62a8bb716338d4b_icgraph_org.svg" target="_base">
           <rect id="button" ry="5" rx="5" y="6" x="6" height="38" width="38"
                fill="#f2f5e9" fill-opacity="0.5" stroke="#606060" stroke-width="1.0"/>
           <path id="arrow"
             d="M 11.500037,31.436501 C 11.940474,20.09759 22.043105,11.32322 32.158766,21.979434 L 37.068811,17.246167 C 37.068811,17.246167 37.088388,32 37.088388,32 L 22.160133,31.978069 C 22.160133,31.978069 26.997745,27.140456 26.997745,27.140456 C 18.528582,18.264221 13.291696,25.230495 11.500037,31.436501 z"
             style="fill:#404040;"/>
          </a>
         </g>
        </svg>
</svg>
