<?xml version="1.0" encoding="UTF-8" standalone="no"?>
<!DOCTYPE svg PUBLIC "-//W3C//DTD SVG 1.1//EN"
 "http://www.w3.org/Graphics/SVG/1.1/DTD/svg11.dtd">
<!-- Generated by graphviz version 2.36.0 (20140111.2315)
 -->
<!-- Title: authoring.data.ActionData.add Pages: 1 -->
<svg width="588pt" height="134pt"
 viewBox="0.00 0.00 588.00 134.00" xmlns="http://www.w3.org/2000/svg" xmlns:xlink="http://www.w3.org/1999/xlink">
<g id="graph0" class="graph" transform="scale(1 1) rotate(0) translate(4 130)">
<title>authoring.data.ActionData.add</title>
<polygon fill="white" stroke="none" points="-4,4 -4,-130 584,-130 584,4 -4,4"/>
<!-- Node1 -->
<g id="node1" class="node"><title>Node1</title>
<polygon fill="#bfbfbf" stroke="black" points="0,-52.5 0,-71.5 164,-71.5 164,-52.5 0,-52.5"/>
<text text-anchor="middle" x="82" y="-59.5" font-family="Helvetica,sans-Serif" font-size="10.00">authoring.data.ActionData.add</text>
</g>
<!-- Node2 -->
<g id="node2" class="node"><title>Node2</title>
<g id="a_node2"><a xlink:href="../../d8/d67/classfxml__main_1_1_action_controller.html#a8793bac146d1bfab8547c66dde24bc12" target="_top" xlink:title="fxml_main.ActionController.init\lGlobalNewBtn">
<polygon fill="white" stroke="black" points="210,-96 210,-126 372,-126 372,-96 210,-96"/>
<text text-anchor="start" x="218" y="-114" font-family="Helvetica,sans-Serif" font-size="10.00">fxml_main.ActionController.init</text>
<text text-anchor="middle" x="291" y="-103" font-family="Helvetica,sans-Serif" font-size="10.00">GlobalNewBtn</text>
</a>
</g>
</g>
<!-- Node1&#45;&gt;Node2 -->
<g id="edge1" class="edge"><title>Node1&#45;&gt;Node2</title>
<path fill="none" stroke="midnightblue" d="M133.385,-73.9268C161.415,-80.562 196.576,-88.8851 226.476,-95.963"/>
<polygon fill="midnightblue" stroke="midnightblue" points="133.94,-70.4617 123.403,-71.564 132.328,-77.2735 133.94,-70.4617"/>
</g>
<!-- Node3 -->
<g id="node3" class="node"><title>Node3</title>
<g id="a_node3"><a xlink:href="../../d5/d7c/classauthoring_1_1createedit_1_1_action_creator.html#ad674395590b84f53c85f078d183bc133" target="_top" xlink:title="authoring.createedit.Action\lCreator.initialize">
<polygon fill="white" stroke="black" points="217.5,-47 217.5,-77 364.5,-77 364.5,-47 217.5,-47"/>
<text text-anchor="start" x="225.5" y="-65" font-family="Helvetica,sans-Serif" font-size="10.00">authoring.createedit.Action</text>
<text text-anchor="middle" x="291" y="-54" font-family="Helvetica,sans-Serif" font-size="10.00">Creator.initialize</text>
</a>
</g>
</g>
<!-- Node1&#45;&gt;Node3 -->
<g id="edge2" class="edge"><title>Node1&#45;&gt;Node3</title>
<path fill="none" stroke="midnightblue" d="M174.591,-62C188.935,-62 203.587,-62 217.428,-62"/>
<polygon fill="midnightblue" stroke="midnightblue" points="174.218,-58.5001 164.218,-62 174.218,-65.5001 174.218,-58.5001"/>
</g>
<!-- Node5 -->
<g id="node5" class="node"><title>Node5</title>
<g id="a_node5"><a xlink:href="../../d2/da6/classauthoring_1_1data_1_1_action_data.html#a0453de13a03a506993c240d3efa6a4fc" target="_top" xlink:title="authoring.data.ActionData.replace">
<polygon fill="white" stroke="black" points="200,-7.5 200,-26.5 382,-26.5 382,-7.5 200,-7.5"/>
<text text-anchor="middle" x="291" y="-14.5" font-family="Helvetica,sans-Serif" font-size="10.00">authoring.data.ActionData.replace</text>
</a>
</g>
</g>
<!-- Node1&#45;&gt;Node5 -->
<g id="edge4" class="edge"><title>Node1&#45;&gt;Node5</title>
<path fill="none" stroke="midnightblue" d="M136.684,-50.3296C170.725,-42.9294 214.207,-33.4768 246.164,-26.5296"/>
<polygon fill="midnightblue" stroke="midnightblue" points="135.928,-46.9122 126.899,-52.4567 137.415,-53.7524 135.928,-46.9122"/>
</g>
<!-- Node4 -->
<g id="node4" class="node"><title>Node4</title>
<g id="a_node4"><a xlink:href="../../d5/d7c/classauthoring_1_1createedit_1_1_action_creator.html#a5ed7745b05fe6a4c847f2e392784941f" target="_top" xlink:title="authoring.createedit.Action\lCreator.ActionCreator">
<polygon fill="white" stroke="black" points="425.5,-49 425.5,-79 572.5,-79 572.5,-49 425.5,-49"/>
<text text-anchor="start" x="433.5" y="-67" font-family="Helvetica,sans-Serif" font-size="10.00">authoring.createedit.Action</text>
<text text-anchor="middle" x="499" y="-56" font-family="Helvetica,sans-Serif" font-size="10.00">Creator.ActionCreator</text>
</a>
</g>
</g>
<!-- Node3&#45;&gt;Node4 -->
<g id="edge3" class="edge"><title>Node3&#45;&gt;Node4</title>
<path fill="none" stroke="midnightblue" d="M374.909,-62.8049C391.601,-62.967 409.024,-63.1362 425.334,-63.2945"/>
<polygon fill="midnightblue" stroke="midnightblue" points="374.661,-59.3025 364.628,-62.7051 374.593,-66.3021 374.661,-59.3025"/>
</g>
<!-- Node6 -->
<g id="node6" class="node"><title>Node6</title>
<g id="a_node6"><a xlink:href="../../d8/d67/classfxml__main_1_1_action_controller.html#a0d06879a7755571e9d8188a10370ebe1" target="_top" xlink:title="fxml_main.ActionController.init\lEntryEditBtn">
<polygon fill="white" stroke="black" points="418,-0 418,-30 580,-30 580,-0 418,-0"/>
<text text-anchor="start" x="426" y="-18" font-family="Helvetica,sans-Serif" font-size="10.00">fxml_main.ActionController.init</text>
<text text-anchor="middle" x="499" y="-7" font-family="Helvetica,sans-Serif" font-size="10.00">EntryEditBtn</text>
</a>
</g>
</g>
<!-- Node5&#45;&gt;Node6 -->
<g id="edge5" class="edge"><title>Node5&#45;&gt;Node6</title>
<path fill="none" stroke="midnightblue" d="M392.144,-16.0277C400.762,-15.9441 409.406,-15.8601 417.835,-15.7783"/>
<polygon fill="midnightblue" stroke="midnightblue" points="392.02,-12.5287 382.055,-16.1257 392.088,-19.5283 392.02,-12.5287"/>
</g>
</g>
</svg>
