<?xml version="1.0" encoding="UTF-8" standalone="no"?>
<!DOCTYPE svg PUBLIC "-//W3C//DTD SVG 1.1//EN"
 "http://www.w3.org/Graphics/SVG/1.1/DTD/svg11.dtd">
<!-- Generated by graphviz version 2.36.0 (20140111.2315)
 -->
<!-- Title: authoring.data.ActionData.getAction Pages: 1 -->
<!--zoomable 87 -->
<svg id="main" version="1.1" xmlns="http://www.w3.org/2000/svg" xmlns:xlink="http://www.w3.org/1999/xlink" xml:space="preserve" onload="init(evt)">
<style type="text/css"><![CDATA[
.edge:hover path { stroke: red; }
.edge:hover polygon { stroke: red; fill: red; }
]]></style>
<script type="text/javascript"><![CDATA[
var edges = document.getElementsByTagName('g');
if (edges && edges.length) {
  for (var i=0;i<edges.length;i++) {
    if (edges[i].id.substr(0,4)=='edge') {
      edges[i].setAttribute('class','edge');
    }
  }
}
]]></script>
        <defs>
                <circle id="rim" cx="0" cy="0" r="7"/>
                <circle id="rim2" cx="0" cy="0" r="3.5"/>
                <g id="zoomPlus">
                        <use xlink:href="#rim" fill="#404040">
                                <set attributeName="fill" to="#808080" begin="zoomplus.mouseover" end="zoomplus.mouseout"/>
                        </use>
                        <path d="M-4,0h8M0,-4v8" fill="none" stroke="white" stroke-width="1.5" pointer-events="none"/>
                </g>
                <g id="zoomMin">
                        <use xlink:href="#rim" fill="#404040">
                                <set attributeName="fill" to="#808080" begin="zoomminus.mouseover" end="zoomminus.mouseout"/>
                        </use>
                        <path d="M-4,0h8" fill="none" stroke="white" stroke-width="1.5" pointer-events="none"/>
                </g>
                <g id="dirArrow">
                        <path fill="none" stroke="white" stroke-width="1.5" d="M0,-3.0v7 M-2.5,-0.5L0,-3.0L2.5,-0.5"/>
                </g>
               <g id="resetDef">
                       <use xlink:href="#rim2" fill="#404040">
                               <set attributeName="fill" to="#808080" begin="reset.mouseover" end="reset.mouseout"/>
                       </use>
               </g>
        </defs>

<script type="text/javascript">
var viewWidth = 1252;
var viewHeight = 87;
var sectionId = 'dynsection-4';
</script>
<script xlink:href="../../svgpan.js"/>
<svg id="graph" class="graph">
<g id="viewport">
<title>authoring.data.ActionData.getAction</title>
<polygon fill="white" stroke="none" points="-4,4 -4,-83 1248,-83 1248,4 -4,4"/>
<!-- Node1 -->
<g id="node1" class="node"><title>Node1</title>
<polygon fill="#bfbfbf" stroke="black" points="0,-24 0,-54 162,-54 162,-24 0,-24"/>
<text text-anchor="start" x="8" y="-42" font-family="Helvetica,sans-Serif" font-size="10.00">authoring.data.ActionData.get</text>
<text text-anchor="middle" x="81" y="-31" font-family="Helvetica,sans-Serif" font-size="10.00">Action</text>
</g>
<!-- Node2 -->
<g id="node2" class="node"><title>Node2</title>
<g id="a_node2"><a xlink:href="../../d8/d6c/classauthoring_1_1concretefeatures_1_1_library_unit_editor.html#ad0195b287c254bea0d50a41df74fd1c2" target="_top" xlink:title="authoring.concretefeatures.\lLibraryUnitEditor.addSelectedActions">
<polygon fill="white" stroke="black" points="198,-49 198,-79 392,-79 392,-49 198,-49"/>
<text text-anchor="start" x="206" y="-67" font-family="Helvetica,sans-Serif" font-size="10.00">authoring.concretefeatures.</text>
<text text-anchor="middle" x="295" y="-56" font-family="Helvetica,sans-Serif" font-size="10.00">LibraryUnitEditor.addSelectedActions</text>
</a>
</g>
</g>
<!-- Node1&#45;&gt;Node2 -->
<g id="edge1" class="edge"><title>Node1&#45;&gt;Node2</title>
<path fill="none" stroke="midnightblue" d="M172.31,-49.6498C180.708,-50.6401 189.241,-51.6463 197.69,-52.6427"/>
<polygon fill="midnightblue" stroke="midnightblue" points="172.489,-46.1467 162.148,-48.4514 171.669,-53.0986 172.489,-46.1467"/>
</g>
<!-- Node4 -->
<g id="node4" class="node"><title>Node4</title>
<g id="a_node4"><a xlink:href="../../d9/d15/classfxml__main_1_1_piece_type_editor.html#aa4c7faabdffe53a947c2a64818742318" target="_top" xlink:title="fxml_main.PieceTypeEditor.add\lSelectedActions">
<polygon fill="white" stroke="black" points="213,-0 213,-30 377,-30 377,-0 213,-0"/>
<text text-anchor="start" x="221" y="-18" font-family="Helvetica,sans-Serif" font-size="10.00">fxml_main.PieceTypeEditor.add</text>
<text text-anchor="middle" x="295" y="-7" font-family="Helvetica,sans-Serif" font-size="10.00">SelectedActions</text>
</a>
</g>
</g>
<!-- Node1&#45;&gt;Node4 -->
<g id="edge3" class="edge"><title>Node1&#45;&gt;Node4</title>
<path fill="none" stroke="midnightblue" d="M172.319,-28.7752C185.725,-27.2575 199.474,-25.701 212.682,-24.2058"/>
<polygon fill="midnightblue" stroke="midnightblue" points="171.691,-25.3239 162.148,-29.9266 172.478,-32.2794 171.691,-25.3239"/>
</g>
<!-- Node3 -->
<g id="node3" class="node"><title>Node3</title>
<g id="a_node3"><a xlink:href="../../d8/d6c/classauthoring_1_1concretefeatures_1_1_library_unit_editor.html#adeb9a177c6883b70b936575c82f2642b" target="_top" xlink:title="authoring.concretefeatures.\lLibraryUnitEditor.LibraryUnitEditor">
<polygon fill="white" stroke="black" points="428,-49 428,-79 606,-79 606,-49 428,-49"/>
<text text-anchor="start" x="436" y="-67" font-family="Helvetica,sans-Serif" font-size="10.00">authoring.concretefeatures.</text>
<text text-anchor="middle" x="517" y="-56" font-family="Helvetica,sans-Serif" font-size="10.00">LibraryUnitEditor.LibraryUnitEditor</text>
</a>
</g>
</g>
<!-- Node2&#45;&gt;Node3 -->
<g id="edge2" class="edge"><title>Node2&#45;&gt;Node3</title>
<path fill="none" stroke="midnightblue" d="M402.263,-64C410.879,-64 419.526,-64 427.991,-64"/>
<polygon fill="midnightblue" stroke="midnightblue" points="402.175,-60.5001 392.175,-64 402.175,-67.5001 402.175,-60.5001"/>
</g>
<!-- Node5 -->
<g id="node5" class="node"><title>Node5</title>
<g id="a_node5"><a xlink:href="../../d9/d15/classfxml__main_1_1_piece_type_editor.html#a36caa4e38e75916af15c3b336543960f" target="_top" xlink:title="fxml_main.PieceTypeEditor.init\lGoBtn">
<polygon fill="white" stroke="black" points="437,-0 437,-30 597,-30 597,-0 437,-0"/>
<text text-anchor="start" x="445" y="-18" font-family="Helvetica,sans-Serif" font-size="10.00">fxml_main.PieceTypeEditor.init</text>
<text text-anchor="middle" x="517" y="-7" font-family="Helvetica,sans-Serif" font-size="10.00">GoBtn</text>
</a>
</g>
</g>
<!-- Node4&#45;&gt;Node5 -->
<g id="edge4" class="edge"><title>Node4&#45;&gt;Node5</title>
<path fill="none" stroke="midnightblue" d="M387.431,-15C403.849,-15 420.836,-15 436.87,-15"/>
<polygon fill="midnightblue" stroke="midnightblue" points="387.295,-11.5001 377.295,-15 387.295,-18.5001 387.295,-11.5001"/>
</g>
<!-- Node6 -->
<g id="node6" class="node"><title>Node6</title>
<g id="a_node6"><a xlink:href="../../d9/d15/classfxml__main_1_1_piece_type_editor.html#a4d5ecc37717a0f7dee7d88e74792388a" target="_top" xlink:title="fxml_main.PieceTypeEditor.initialize">
<polygon fill="white" stroke="black" points="642,-5.5 642,-24.5 826,-24.5 826,-5.5 642,-5.5"/>
<text text-anchor="middle" x="734" y="-12.5" font-family="Helvetica,sans-Serif" font-size="10.00">fxml_main.PieceTypeEditor.initialize</text>
</a>
</g>
</g>
<!-- Node5&#45;&gt;Node6 -->
<g id="edge5" class="edge"><title>Node5&#45;&gt;Node6</title>
<path fill="none" stroke="midnightblue" d="M607.436,-15C618.745,-15 630.329,-15 641.667,-15"/>
<polygon fill="midnightblue" stroke="midnightblue" points="607.142,-11.5001 597.142,-15 607.142,-18.5001 607.142,-11.5001"/>
</g>
<!-- Node7 -->
<g id="node7" class="node"><title>Node7</title>
<g id="a_node7"><a xlink:href="../../d9/d15/classfxml__main_1_1_piece_type_editor.html#ab6e627c5d9474cd4c497ad70eb51a0c6" target="_top" xlink:title="fxml_main.PieceTypeEditor.constructor">
<polygon fill="white" stroke="black" points="862,-5.5 862,-24.5 1062,-24.5 1062,-5.5 862,-5.5"/>
<text text-anchor="middle" x="962" y="-12.5" font-family="Helvetica,sans-Serif" font-size="10.00">fxml_main.PieceTypeEditor.constructor</text>
</a>
</g>
</g>
<!-- Node6&#45;&gt;Node7 -->
<g id="edge6" class="edge"><title>Node6&#45;&gt;Node7</title>
<path fill="none" stroke="midnightblue" d="M836.539,-15C845.002,-15 853.552,-15 861.996,-15"/>
<polygon fill="midnightblue" stroke="midnightblue" points="836.271,-11.5001 826.271,-15 836.271,-18.5001 836.271,-11.5001"/>
</g>
<!-- Node8 -->
<g id="node8" class="node"><title>Node8</title>
<g id="a_node8"><a xlink:href="../../d9/d15/classfxml__main_1_1_piece_type_editor.html#aba63586973ffa81f331904a44690684c" target="_top" xlink:title="fxml_main.PieceTypeEditor.\lPieceTypeEditor">
<polygon fill="white" stroke="black" points="1098,-0 1098,-30 1244,-30 1244,-0 1098,-0"/>
<text text-anchor="start" x="1106" y="-18" font-family="Helvetica,sans-Serif" font-size="10.00">fxml_main.PieceTypeEditor.</text>
<text text-anchor="middle" x="1171" y="-7" font-family="Helvetica,sans-Serif" font-size="10.00">PieceTypeEditor</text>
</a>
</g>
</g>
<!-- Node7&#45;&gt;Node8 -->
<g id="edge7" class="edge"><title>Node7&#45;&gt;Node8</title>
<path fill="none" stroke="midnightblue" d="M1072.42,-15C1081.06,-15 1089.65,-15 1097.94,-15"/>
<polygon fill="midnightblue" stroke="midnightblue" points="1072.26,-11.5001 1062.26,-15 1072.26,-18.5001 1072.26,-11.5001"/>
</g>
</g>
</svg>
        <g id="navigator" transform="translate(0 0)" fill="#404254">
                <rect fill="#f2f5e9" fill-opacity="0.5" stroke="#606060" stroke-width=".5" x="0" y="0" width="60" height="60"/>
                <use id="zoomplus" xlink:href="#zoomPlus" x="17" y="9" onmousedown="handleZoom(evt,'in')"/>
                <use id="zoomminus" xlink:href="#zoomMin" x="42" y="9" onmousedown="handleZoom(evt,'out')"/>
                <use id="reset" xlink:href="#resetDef" x="30" y="36" onmousedown="handleReset()"/>
                <g id="arrowUp" xlink:href="#dirArrow" transform="translate(30 24)" onmousedown="handlePan(0,-1)">
                  <use xlink:href="#rim" fill="#404040">
                        <set attributeName="fill" to="#808080" begin="arrowUp.mouseover" end="arrowUp.mouseout"/>
                  </use>
                  <path fill="none" stroke="white" stroke-width="1.5" d="M0,-3.0v7 M-2.5,-0.5L0,-3.0L2.5,-0.5"/>
                </g>
                <g id="arrowRight" xlink:href="#dirArrow" transform="rotate(90) translate(36 -43)" onmousedown="handlePan(1,0)">
                  <use xlink:href="#rim" fill="#404040">
                        <set attributeName="fill" to="#808080" begin="arrowRight.mouseover" end="arrowRight.mouseout"/>
                  </use>
                  <path fill="none" stroke="white" stroke-width="1.5" d="M0,-3.0v7 M-2.5,-0.5L0,-3.0L2.5,-0.5"/>
                </g>
                <g id="arrowDown" xlink:href="#dirArrow" transform="rotate(180) translate(-30 -48)" onmousedown="handlePan(0,1)">
                  <use xlink:href="#rim" fill="#404040">
                        <set attributeName="fill" to="#808080" begin="arrowDown.mouseover" end="arrowDown.mouseout"/>
                  </use>
                  <path fill="none" stroke="white" stroke-width="1.5" d="M0,-3.0v7 M-2.5,-0.5L0,-3.0L2.5,-0.5"/>
                </g>
                <g id="arrowLeft" xlink:href="#dirArrow" transform="rotate(270) translate(-36 17)" onmousedown="handlePan(-1,0)">
                  <use xlink:href="#rim" fill="#404040">
                        <set attributeName="fill" to="#808080" begin="arrowLeft.mouseover" end="arrowLeft.mouseout"/>
                  </use>
                  <path fill="none" stroke="white" stroke-width="1.5" d="M0,-3.0v7 M-2.5,-0.5L0,-3.0L2.5,-0.5"/>
                </g>
        </g>
        <svg viewBox="0 0 15 15" width="100%" height="30px" preserveAspectRatio="xMaxYMin meet">
         <g id="arrow_out" transform="scale(0.3 0.3)">
          <a xlink:href="classauthoring_1_1data_1_1_action_data_af66a8db8f87c010a94eda1b2a734092f_icgraph_org.svg" target="_base">
           <rect id="button" ry="5" rx="5" y="6" x="6" height="38" width="38"
                fill="#f2f5e9" fill-opacity="0.5" stroke="#606060" stroke-width="1.0"/>
           <path id="arrow"
             d="M 11.500037,31.436501 C 11.940474,20.09759 22.043105,11.32322 32.158766,21.979434 L 37.068811,17.246167 C 37.068811,17.246167 37.088388,32 37.088388,32 L 22.160133,31.978069 C 22.160133,31.978069 26.997745,27.140456 26.997745,27.140456 C 18.528582,18.264221 13.291696,25.230495 11.500037,31.436501 z"
             style="fill:#404040;"/>
          </a>
         </g>
        </svg>
</svg>
