<?xml version="1.0" encoding="UTF-8" standalone="no"?>
<!DOCTYPE svg PUBLIC "-//W3C//DTD SVG 1.1//EN"
 "http://www.w3.org/Graphics/SVG/1.1/DTD/svg11.dtd">
<!-- Generated by graphviz version 2.36.0 (20140111.2315)
 -->
<!-- Title: utilities.leapMotion.LeapMotionListener.onFrame Pages: 1 -->
<svg width="334pt" height="87pt"
 viewBox="0.00 0.00 334.00 87.00" xmlns="http://www.w3.org/2000/svg" xmlns:xlink="http://www.w3.org/1999/xlink">
<g id="graph0" class="graph" transform="scale(1 1) rotate(0) translate(4 83)">
<title>utilities.leapMotion.LeapMotionListener.onFrame</title>
<polygon fill="white" stroke="none" points="-4,4 -4,-83 330,-83 330,4 -4,4"/>
<!-- Node1 -->
<g id="node1" class="node"><title>Node1</title>
<polygon fill="#bfbfbf" stroke="black" points="0,-24 0,-54 132,-54 132,-24 0,-24"/>
<text text-anchor="start" x="8" y="-42" font-family="Helvetica,sans-Serif" font-size="10.00">utilities.leapMotion.Leap</text>
<text text-anchor="middle" x="66" y="-31" font-family="Helvetica,sans-Serif" font-size="10.00">MotionListener.onFrame</text>
</g>
<!-- Node2 -->
<g id="node2" class="node"><title>Node2</title>
<g id="a_node2"><a xlink:href="../../da/de3/interfaceutilities_1_1leap_motion_1_1_i_leap_mouse.html#ae4cdc454fabfe462068a9e12bfad0003" target="_top" xlink:title="utilities.leapMotion.ILeap\lMouse.moveMouse">
<polygon fill="white" stroke="black" points="180,-49 180,-79 314,-79 314,-49 180,-49"/>
<text text-anchor="start" x="188" y="-67" font-family="Helvetica,sans-Serif" font-size="10.00">utilities.leapMotion.ILeap</text>
<text text-anchor="middle" x="247" y="-56" font-family="Helvetica,sans-Serif" font-size="10.00">Mouse.moveMouse</text>
</a>
</g>
</g>
<!-- Node1&#45;&gt;Node2 -->
<g id="edge1" class="edge"><title>Node1&#45;&gt;Node2</title>
<path fill="none" stroke="midnightblue" d="M132.129,-48.0963C144.355,-49.8038 157.238,-51.6031 169.766,-53.3528"/>
<polygon fill="midnightblue" stroke="midnightblue" points="169.33,-56.8257 179.718,-54.7427 170.298,-49.893 169.33,-56.8257"/>
</g>
<!-- Node3 -->
<g id="node3" class="node"><title>Node3</title>
<g id="a_node3"><a xlink:href="../../d8/d12/classutilities_1_1leap_motion_1_1_leap_motion_listener.html#a62c2c89d9c458ea680c320ee193d5763" target="_top" xlink:title="utilities.leapMotion.Leap\lMotionListener.performAction">
<polygon fill="white" stroke="black" points="168,-0 168,-30 326,-30 326,-0 168,-0"/>
<text text-anchor="start" x="176" y="-18" font-family="Helvetica,sans-Serif" font-size="10.00">utilities.leapMotion.Leap</text>
<text text-anchor="middle" x="247" y="-7" font-family="Helvetica,sans-Serif" font-size="10.00">MotionListener.performAction</text>
</a>
</g>
</g>
<!-- Node1&#45;&gt;Node3 -->
<g id="edge2" class="edge"><title>Node1&#45;&gt;Node3</title>
<path fill="none" stroke="midnightblue" d="M132.129,-30.2676C140.464,-29.1501 149.103,-27.9917 157.728,-26.8354"/>
<polygon fill="midnightblue" stroke="midnightblue" points="158.38,-30.2794 167.826,-25.4815 157.449,-23.3415 158.38,-30.2794"/>
</g>
</g>
</svg>
