<?xml version="1.0" encoding="UTF-8" standalone="no"?>
<!DOCTYPE svg PUBLIC "-//W3C//DTD SVG 1.1//EN"
 "http://www.w3.org/Graphics/SVG/1.1/DTD/svg11.dtd">
<!-- Generated by graphviz version 2.36.0 (20140111.2315)
 -->
<!-- Title: gamedata.gamecomponents.Level.getEvents Pages: 1 -->
<svg width="536pt" height="87pt"
 viewBox="0.00 0.00 536.00 87.00" xmlns="http://www.w3.org/2000/svg" xmlns:xlink="http://www.w3.org/1999/xlink">
<g id="graph0" class="graph" transform="scale(1 1) rotate(0) translate(4 83)">
<title>gamedata.gamecomponents.Level.getEvents</title>
<polygon fill="white" stroke="none" points="-4,4 -4,-83 532,-83 532,4 -4,4"/>
<!-- Node1 -->
<g id="node1" class="node"><title>Node1</title>
<polygon fill="#bfbfbf" stroke="black" points="0,-24 0,-54 160,-54 160,-24 0,-24"/>
<text text-anchor="start" x="8" y="-42" font-family="Helvetica,sans-Serif" font-size="10.00">gamedata.gamecomponents.</text>
<text text-anchor="middle" x="80" y="-31" font-family="Helvetica,sans-Serif" font-size="10.00">Level.getEvents</text>
</g>
<!-- Node2 -->
<g id="node2" class="node"><title>Node2</title>
<g id="a_node2"><a xlink:href="../../de/d8c/classfxml__main_1_1_level_editor.html#a014e481bcd2183307716f56c746af0bd" target="_top" xlink:title="fxml_main.LevelEditor.Level\lEditor">
<polygon fill="white" stroke="black" points="196.5,-49 196.5,-79 345.5,-79 345.5,-49 196.5,-49"/>
<text text-anchor="start" x="204.5" y="-67" font-family="Helvetica,sans-Serif" font-size="10.00">fxml_main.LevelEditor.Level</text>
<text text-anchor="middle" x="271" y="-56" font-family="Helvetica,sans-Serif" font-size="10.00">Editor</text>
</a>
</g>
</g>
<!-- Node1&#45;&gt;Node2 -->
<g id="edge1" class="edge"><title>Node1&#45;&gt;Node2</title>
<path fill="none" stroke="midnightblue" d="M169.993,-50.7715C178.831,-51.9406 187.734,-53.1183 196.391,-54.2633"/>
<polygon fill="midnightblue" stroke="midnightblue" points="170.431,-47.299 160.058,-49.4574 169.513,-54.2386 170.431,-47.299"/>
</g>
<!-- Node3 -->
<g id="node3" class="node"><title>Node3</title>
<g id="a_node3"><a xlink:href="../../d7/df4/classtests_1_1_j_s_o_n_tester_main.html#a5f1fa68f3fcb37a473271cdbfeaaa92e" target="_top" xlink:title="tests.JSONTesterMain.test\lJSONwrite">
<polygon fill="white" stroke="black" points="201,-0 201,-30 341,-30 341,-0 201,-0"/>
<text text-anchor="start" x="209" y="-18" font-family="Helvetica,sans-Serif" font-size="10.00">tests.JSONTesterMain.test</text>
<text text-anchor="middle" x="271" y="-7" font-family="Helvetica,sans-Serif" font-size="10.00">JSONwrite</text>
</a>
</g>
</g>
<!-- Node1&#45;&gt;Node3 -->
<g id="edge2" class="edge"><title>Node1&#45;&gt;Node3</title>
<path fill="none" stroke="midnightblue" d="M170.288,-27.6619C180.563,-26.3571 190.92,-25.0419 200.872,-23.7781"/>
<polygon fill="midnightblue" stroke="midnightblue" points="169.537,-24.229 160.058,-28.9609 170.419,-31.1732 169.537,-24.229"/>
</g>
<!-- Node4 -->
<g id="node4" class="node"><title>Node4</title>
<g id="a_node4"><a xlink:href="../../d7/df4/classtests_1_1_j_s_o_n_tester_main.html#a931215da47157cbc5157c6a9df31ccd4" target="_top" xlink:title="tests.JSONTesterMain.main">
<polygon fill="white" stroke="black" points="382,-5.5 382,-24.5 528,-24.5 528,-5.5 382,-5.5"/>
<text text-anchor="middle" x="455" y="-12.5" font-family="Helvetica,sans-Serif" font-size="10.00">tests.JSONTesterMain.main</text>
</a>
</g>
</g>
<!-- Node3&#45;&gt;Node4 -->
<g id="edge3" class="edge"><title>Node3&#45;&gt;Node4</title>
<path fill="none" stroke="midnightblue" d="M351.203,-15C361.427,-15 371.854,-15 381.954,-15"/>
<polygon fill="midnightblue" stroke="midnightblue" points="351.066,-11.5001 341.066,-15 351.066,-18.5001 351.066,-11.5001"/>
</g>
</g>
</svg>
