<?xml version="1.0" encoding="UTF-8" standalone="no"?>
<!DOCTYPE svg PUBLIC "-//W3C//DTD SVG 1.1//EN"
 "http://www.w3.org/Graphics/SVG/1.1/DTD/svg11.dtd">
<!-- Generated by graphviz version 2.36.0 (20140111.2315)
 -->
<!-- Title: gamedata.gamecomponents.Level.toString Pages: 1 -->
<svg width="580pt" height="87pt"
 viewBox="0.00 0.00 580.00 87.00" xmlns="http://www.w3.org/2000/svg" xmlns:xlink="http://www.w3.org/1999/xlink">
<g id="graph0" class="graph" transform="scale(1 1) rotate(0) translate(4 83)">
<title>gamedata.gamecomponents.Level.toString</title>
<polygon fill="white" stroke="none" points="-4,4 -4,-83 576,-83 576,4 -4,4"/>
<!-- Node1 -->
<g id="node1" class="node"><title>Node1</title>
<polygon fill="#bfbfbf" stroke="black" points="0,-24 0,-54 160,-54 160,-24 0,-24"/>
<text text-anchor="start" x="8" y="-42" font-family="Helvetica,sans-Serif" font-size="10.00">gamedata.gamecomponents.</text>
<text text-anchor="middle" x="80" y="-31" font-family="Helvetica,sans-Serif" font-size="10.00">Level.toString</text>
</g>
<!-- Node2 -->
<g id="node2" class="node"><title>Node2</title>
<g id="a_node2"><a xlink:href="../../da/d4c/classauthoring__environment_1_1_g_u_i_grid.html#acab78ec4c4547ad0998fb9b251623ced" target="_top" xlink:title="authoring_environment.GUIGrid.to\lString">
<polygon fill="white" stroke="black" points="196.5,-24 196.5,-54 377.5,-54 377.5,-24 196.5,-24"/>
<text text-anchor="start" x="204.5" y="-42" font-family="Helvetica,sans-Serif" font-size="10.00">authoring_environment.GUIGrid.to</text>
<text text-anchor="middle" x="287" y="-31" font-family="Helvetica,sans-Serif" font-size="10.00">String</text>
</a>
</g>
</g>
<!-- Node1&#45;&gt;Node2 -->
<g id="edge1" class="edge"><title>Node1&#45;&gt;Node2</title>
<path fill="none" stroke="midnightblue" d="M160.258,-39C168.761,-39 177.49,-39 186.192,-39"/>
<polygon fill="midnightblue" stroke="midnightblue" points="186.381,-42.5001 196.381,-39 186.381,-35.5001 186.381,-42.5001"/>
</g>
<!-- Node3 -->
<g id="node3" class="node"><title>Node3</title>
<g id="a_node3"><a xlink:href="../../d7/dd4/classauthoring_1_1data_1_1_patch_instance_data.html#a60ac72e96e7e0da6f3beb20122a8c041" target="_top" xlink:title="authoring.data.PatchInstance\lData.getData">
<polygon fill="white" stroke="black" points="414.5,-49 414.5,-79 571.5,-79 571.5,-49 414.5,-49"/>
<text text-anchor="start" x="422.5" y="-67" font-family="Helvetica,sans-Serif" font-size="10.00">authoring.data.PatchInstance</text>
<text text-anchor="middle" x="493" y="-56" font-family="Helvetica,sans-Serif" font-size="10.00">Data.getData</text>
</a>
</g>
</g>
<!-- Node2&#45;&gt;Node3 -->
<g id="edge2" class="edge"><title>Node2&#45;&gt;Node3</title>
<path fill="none" stroke="midnightblue" d="M377.774,-50.0017C386.533,-51.0751 395.414,-52.1635 404.153,-53.2345"/>
<polygon fill="midnightblue" stroke="midnightblue" points="403.98,-56.7394 414.332,-54.4819 404.832,-49.7914 403.98,-56.7394"/>
</g>
<!-- Node4 -->
<g id="node4" class="node"><title>Node4</title>
<g id="a_node4"><a xlink:href="../../d6/dda/classauthoring_1_1data_1_1_piece_instance_data.html#afb4443eda20595533c28fe05f079fb48" target="_top" xlink:title="authoring.data.PieceInstance\lData.getData">
<polygon fill="white" stroke="black" points="415,-0 415,-30 571,-30 571,-0 415,-0"/>
<text text-anchor="start" x="423" y="-18" font-family="Helvetica,sans-Serif" font-size="10.00">authoring.data.PieceInstance</text>
<text text-anchor="middle" x="493" y="-7" font-family="Helvetica,sans-Serif" font-size="10.00">Data.getData</text>
</a>
</g>
</g>
<!-- Node2&#45;&gt;Node4 -->
<g id="edge3" class="edge"><title>Node2&#45;&gt;Node4</title>
<path fill="none" stroke="midnightblue" d="M377.774,-28.4383C386.784,-27.3784 395.922,-26.3033 404.903,-25.2467"/>
<polygon fill="midnightblue" stroke="midnightblue" points="405.438,-28.708 414.96,-24.0635 404.62,-21.756 405.438,-28.708"/>
</g>
</g>
</svg>
