<?xml version="1.0" encoding="UTF-8" standalone="no"?>
<!DOCTYPE svg PUBLIC "-//W3C//DTD SVG 1.1//EN"
 "http://www.w3.org/Graphics/SVG/1.1/DTD/svg11.dtd">
<!-- Generated by graphviz version 2.36.0 (20140111.2315)
 -->
<!-- Title: gamedata.gamecomponents.Level.runGameEvents Pages: 1 -->
<!--zoomable 275 -->
<svg id="main" version="1.1" xmlns="http://www.w3.org/2000/svg" xmlns:xlink="http://www.w3.org/1999/xlink" xml:space="preserve" onload="init(evt)">
<style type="text/css"><![CDATA[
.edge:hover path { stroke: red; }
.edge:hover polygon { stroke: red; fill: red; }
]]></style>
<script type="text/javascript"><![CDATA[
var edges = document.getElementsByTagName('g');
if (edges && edges.length) {
  for (var i=0;i<edges.length;i++) {
    if (edges[i].id.substr(0,4)=='edge') {
      edges[i].setAttribute('class','edge');
    }
  }
}
]]></script>
        <defs>
                <circle id="rim" cx="0" cy="0" r="7"/>
                <circle id="rim2" cx="0" cy="0" r="3.5"/>
                <g id="zoomPlus">
                        <use xlink:href="#rim" fill="#404040">
                                <set attributeName="fill" to="#808080" begin="zoomplus.mouseover" end="zoomplus.mouseout"/>
                        </use>
                        <path d="M-4,0h8M0,-4v8" fill="none" stroke="white" stroke-width="1.5" pointer-events="none"/>
                </g>
                <g id="zoomMin">
                        <use xlink:href="#rim" fill="#404040">
                                <set attributeName="fill" to="#808080" begin="zoomminus.mouseover" end="zoomminus.mouseout"/>
                        </use>
                        <path d="M-4,0h8" fill="none" stroke="white" stroke-width="1.5" pointer-events="none"/>
                </g>
                <g id="dirArrow">
                        <path fill="none" stroke="white" stroke-width="1.5" d="M0,-3.0v7 M-2.5,-0.5L0,-3.0L2.5,-0.5"/>
                </g>
               <g id="resetDef">
                       <use xlink:href="#rim2" fill="#404040">
                               <set attributeName="fill" to="#808080" begin="reset.mouseover" end="reset.mouseout"/>
                       </use>
               </g>
        </defs>

<script type="text/javascript">
var viewWidth = 832;
var viewHeight = 275;
var sectionId = 'dynsection-10';
</script>
<script xlink:href="../../svgpan.js"/>
<svg id="graph" class="graph">
<g id="viewport">
<title>gamedata.gamecomponents.Level.runGameEvents</title>
<polygon fill="white" stroke="none" points="-4,4 -4,-271.414 828,-271.414 828,4 -4,4"/>
<!-- Node1 -->
<g id="node1" class="node"><title>Node1</title>
<polygon fill="#bfbfbf" stroke="black" points="0,-66.4139 0,-96.4139 160,-96.4139 160,-66.4139 0,-66.4139"/>
<text text-anchor="start" x="8" y="-84.4139" font-family="Helvetica,sans-Serif" font-size="10.00">gamedata.gamecomponents.</text>
<text text-anchor="middle" x="80" y="-73.4139" font-family="Helvetica,sans-Serif" font-size="10.00">Level.runGameEvents</text>
</g>
<!-- Node2 -->
<g id="node2" class="node"><title>Node2</title>
<g id="a_node2"><a xlink:href="../../d8/d01/classgamedata_1_1gamecomponents_1_1_level.html#a5a04f9565ce8ed0bb887cb4a69548e9f" target="_top" xlink:title="gamedata.gamecomponents.\lLevel.garbageCollectPieces">
<polygon fill="white" stroke="black" points="210,-115.414 210,-145.414 370,-145.414 370,-115.414 210,-115.414"/>
<text text-anchor="start" x="218" y="-133.414" font-family="Helvetica,sans-Serif" font-size="10.00">gamedata.gamecomponents.</text>
<text text-anchor="middle" x="290" y="-122.414" font-family="Helvetica,sans-Serif" font-size="10.00">Level.garbageCollectPieces</text>
</a>
</g>
</g>
<!-- Node1&#45;&gt;Node2 -->
<g id="edge1" class="edge"><title>Node1&#45;&gt;Node2</title>
<path fill="none" stroke="midnightblue" d="M144.82,-96.4485C167.182,-101.716 192.471,-107.674 215.557,-113.112"/>
<polygon fill="midnightblue" stroke="midnightblue" points="214.764,-116.521 225.3,-115.408 216.369,-109.708 214.764,-116.521"/>
</g>
<!-- Node12 -->
<g id="node12" class="node"><title>Node12</title>
<g id="a_node12"><a xlink:href="../../da/d4c/classauthoring__environment_1_1_g_u_i_grid.html#a2da4b5e0668626dbeef2fa237e243999" target="_top" xlink:title="authoring_environment.GUIGrid.run\lEvents">
<polygon fill="white" stroke="black" points="196.5,-17.4139 196.5,-47.4139 383.5,-47.4139 383.5,-17.4139 196.5,-17.4139"/>
<text text-anchor="start" x="204.5" y="-35.4139" font-family="Helvetica,sans-Serif" font-size="10.00">authoring_environment.GUIGrid.run</text>
<text text-anchor="middle" x="290" y="-24.4139" font-family="Helvetica,sans-Serif" font-size="10.00">Events</text>
</a>
</g>
</g>
<!-- Node1&#45;&gt;Node12 -->
<g id="edge11" class="edge"><title>Node1&#45;&gt;Node12</title>
<path fill="none" stroke="midnightblue" d="M144.82,-66.3792C167.182,-61.1115 192.471,-55.1538 215.557,-49.7154"/>
<polygon fill="midnightblue" stroke="midnightblue" points="216.369,-53.1199 225.3,-47.42 214.764,-46.3064 216.369,-53.1199"/>
</g>
<!-- Node3 -->
<g id="node3" class="node"><title>Node3</title>
<g id="a_node3"><a xlink:href="../../d3/d8e/classgamedata_1_1gamecomponents_1_1_inventory.html#a95738f17209550e98829ea736d803734" target="_top" xlink:title="gamedata.gamecomponents.\lInventory.getAllInventory">
<polygon fill="white" stroke="black" points="444,-115.414 444,-145.414 604,-145.414 604,-115.414 444,-115.414"/>
<text text-anchor="start" x="452" y="-133.414" font-family="Helvetica,sans-Serif" font-size="10.00">gamedata.gamecomponents.</text>
<text text-anchor="middle" x="524" y="-122.414" font-family="Helvetica,sans-Serif" font-size="10.00">Inventory.getAllInventory</text>
</a>
</g>
</g>
<!-- Node2&#45;&gt;Node3 -->
<g id="edge2" class="edge"><title>Node2&#45;&gt;Node3</title>
<path fill="none" stroke="midnightblue" d="M370.192,-130.414C390.611,-130.414 412.726,-130.414 433.623,-130.414"/>
<polygon fill="midnightblue" stroke="midnightblue" points="433.771,-133.914 443.771,-130.414 433.771,-126.914 433.771,-133.914"/>
</g>
<!-- Node4 -->
<g id="node4" class="node"><title>Node4</title>
<g id="a_node4"><a xlink:href="../../da/d4c/classauthoring__environment_1_1_g_u_i_grid.html#aa30c60a03c51ae3e23e43b6acd17e3cd" target="_top" xlink:title="authoring_environment.GUIGrid.get\lRemovedPieces">
<polygon fill="white" stroke="black" points="430.5,-66.4139 430.5,-96.4139 617.5,-96.4139 617.5,-66.4139 430.5,-66.4139"/>
<text text-anchor="start" x="438.5" y="-84.4139" font-family="Helvetica,sans-Serif" font-size="10.00">authoring_environment.GUIGrid.get</text>
<text text-anchor="middle" x="524" y="-73.4139" font-family="Helvetica,sans-Serif" font-size="10.00">RemovedPieces</text>
</a>
</g>
</g>
<!-- Node2&#45;&gt;Node4 -->
<g id="edge3" class="edge"><title>Node2&#45;&gt;Node4</title>
<path fill="none" stroke="midnightblue" d="M362.184,-115.379C387.46,-110.041 416.09,-103.994 442.115,-98.4972"/>
<polygon fill="midnightblue" stroke="midnightblue" points="442.889,-101.911 451.95,-96.42 441.443,-95.0621 442.889,-101.911"/>
</g>
<!-- Node6 -->
<g id="node6" class="node"><title>Node6</title>
<g id="a_node6"><a xlink:href="../../d3/d8e/classgamedata_1_1gamecomponents_1_1_inventory.html#a2e7a699fd293cd57e5452b3791362a26" target="_top" xlink:title="gamedata.gamecomponents.\lInventory.removeItem">
<polygon fill="white" stroke="black" points="444,-213.414 444,-243.414 604,-243.414 604,-213.414 444,-213.414"/>
<text text-anchor="start" x="452" y="-231.414" font-family="Helvetica,sans-Serif" font-size="10.00">gamedata.gamecomponents.</text>
<text text-anchor="middle" x="524" y="-220.414" font-family="Helvetica,sans-Serif" font-size="10.00">Inventory.removeItem</text>
</a>
</g>
</g>
<!-- Node2&#45;&gt;Node6 -->
<g id="edge5" class="edge"><title>Node2&#45;&gt;Node6</title>
<path fill="none" stroke="midnightblue" d="M313.344,-145.61C338.339,-161.989 380.515,-187.801 420,-203.414 426.381,-205.937 433.088,-208.255 439.892,-210.375"/>
<polygon fill="midnightblue" stroke="midnightblue" points="439.319,-213.856 449.901,-213.34 441.307,-207.144 439.319,-213.856"/>
</g>
<!-- Node7 -->
<g id="node7" class="node"><title>Node7</title>
<g id="a_node7"><a xlink:href="../../da/d4c/classauthoring__environment_1_1_g_u_i_grid.html#a53382a0de9f44f0642c3c9c5b009e613" target="_top" xlink:title="authoring_environment.GUIGrid.remove\lPiece">
<polygon fill="white" stroke="black" points="420,-164.414 420,-194.414 628,-194.414 628,-164.414 420,-164.414"/>
<text text-anchor="start" x="428" y="-182.414" font-family="Helvetica,sans-Serif" font-size="10.00">authoring_environment.GUIGrid.remove</text>
<text text-anchor="middle" x="524" y="-171.414" font-family="Helvetica,sans-Serif" font-size="10.00">Piece</text>
</a>
</g>
</g>
<!-- Node2&#45;&gt;Node7 -->
<g id="edge6" class="edge"><title>Node2&#45;&gt;Node7</title>
<path fill="none" stroke="midnightblue" d="M362.184,-145.448C387.46,-150.787 416.09,-156.834 442.115,-162.33"/>
<polygon fill="midnightblue" stroke="midnightblue" points="441.443,-165.766 451.95,-164.408 442.889,-158.917 441.443,-165.766"/>
</g>
<!-- Node5 -->
<g id="node5" class="node"><title>Node5</title>
<g id="a_node5"><a xlink:href="../../d6/dda/classauthoring_1_1data_1_1_piece_instance_data.html#afb4443eda20595533c28fe05f079fb48" target="_top" xlink:title="authoring.data.PieceInstance\lData.getData">
<polygon fill="white" stroke="black" points="666,-19.4139 666,-49.4139 822,-49.4139 822,-19.4139 666,-19.4139"/>
<text text-anchor="start" x="674" y="-37.4139" font-family="Helvetica,sans-Serif" font-size="10.00">authoring.data.PieceInstance</text>
<text text-anchor="middle" x="744" y="-26.4139" font-family="Helvetica,sans-Serif" font-size="10.00">Data.getData</text>
</a>
</g>
</g>
<!-- Node4&#45;&gt;Node5 -->
<g id="edge4" class="edge"><title>Node4&#45;&gt;Node5</title>
<path fill="none" stroke="midnightblue" d="M594.576,-66.4135C616.502,-61.6863 640.888,-56.4288 663.453,-51.5639"/>
<polygon fill="midnightblue" stroke="midnightblue" points="664.3,-54.9619 673.337,-49.4329 662.824,-48.1191 664.3,-54.9619"/>
</g>
<!-- Node8 -->
<g id="node8" class="node"><title>Node8</title>
<g id="a_node8"><a xlink:href="../../d9/df3/classauthoring__environment_1_1_super_grid.html#aa57ca0acf0ef3aab7d5d98cf9cbbd1d7" target="_top" xlink:title="authoring_environment.Super\lGrid.findTile">
<polygon fill="white" stroke="black" points="664,-188.414 664,-218.414 824,-218.414 824,-188.414 664,-188.414"/>
<text text-anchor="start" x="672" y="-206.414" font-family="Helvetica,sans-Serif" font-size="10.00">authoring_environment.Super</text>
<text text-anchor="middle" x="744" y="-195.414" font-family="Helvetica,sans-Serif" font-size="10.00">Grid.findTile</text>
</a>
</g>
</g>
<!-- Node7&#45;&gt;Node8 -->
<g id="edge7" class="edge"><title>Node7&#45;&gt;Node8</title>
<path fill="none" stroke="midnightblue" d="M628.254,-190.781C636.782,-191.72 645.358,-192.664 653.77,-193.59"/>
<polygon fill="midnightblue" stroke="midnightblue" points="653.614,-197.094 663.937,-194.71 654.38,-190.136 653.614,-197.094"/>
</g>
<!-- Node9 -->
<g id="node9" class="node"><title>Node9</title>
<g id="a_node9"><a xlink:href="../../d9/df2/classgamedata_1_1gamecomponents_1_1_grid_component.html#a97439a493db38860397436079b123e8c" target="_top" xlink:title="gamedata.gamecomponents.\lGridComponent.getLoc">
<polygon fill="white" stroke="black" points="664,-139.414 664,-169.414 824,-169.414 824,-139.414 664,-139.414"/>
<text text-anchor="start" x="672" y="-157.414" font-family="Helvetica,sans-Serif" font-size="10.00">gamedata.gamecomponents.</text>
<text text-anchor="middle" x="744" y="-146.414" font-family="Helvetica,sans-Serif" font-size="10.00">GridComponent.getLoc</text>
</a>
</g>
</g>
<!-- Node7&#45;&gt;Node9 -->
<g id="edge8" class="edge"><title>Node7&#45;&gt;Node9</title>
<path fill="none" stroke="midnightblue" d="M628.254,-167.573C636.782,-166.595 645.358,-165.611 653.77,-164.647"/>
<polygon fill="midnightblue" stroke="midnightblue" points="654.401,-168.097 663.937,-163.481 653.603,-161.143 654.401,-168.097"/>
</g>
<!-- Node10 -->
<g id="node10" class="node"><title>Node10</title>
<g id="a_node10"><a xlink:href="../../d6/dda/classauthoring_1_1data_1_1_piece_instance_data.html#a80a0e534e9cb103879f99230bc05efe7" target="_top" xlink:title="authoring.data.PieceInstance\lData.remove">
<polygon fill="white" stroke="black" points="666,-90.4139 666,-120.414 822,-120.414 822,-90.4139 666,-90.4139"/>
<text text-anchor="start" x="674" y="-108.414" font-family="Helvetica,sans-Serif" font-size="10.00">authoring.data.PieceInstance</text>
<text text-anchor="middle" x="744" y="-97.4139" font-family="Helvetica,sans-Serif" font-size="10.00">Data.remove</text>
</a>
</g>
</g>
<!-- Node7&#45;&gt;Node10 -->
<g id="edge9" class="edge"><title>Node7&#45;&gt;Node10</title>
<path fill="none" stroke="midnightblue" d="M600.899,-164.399C610.204,-161.57 619.441,-158.262 628,-154.414 645.766,-146.425 646.468,-137.904 664,-129.414 667.846,-127.551 671.868,-125.797 675.972,-124.151"/>
<polygon fill="midnightblue" stroke="midnightblue" points="677.528,-127.306 685.655,-120.508 675.063,-120.754 677.528,-127.306"/>
</g>
<!-- Node11 -->
<g id="node11" class="node"><title>Node11</title>
<g id="a_node11"><a xlink:href="../../dc/d5a/classauthoring__environment_1_1_super_tile.html#aab4ca6a2e399a4f20d41eb9bc038f7aa" target="_top" xlink:title="authoring_environment.Super\lTile.removePieceImage">
<polygon fill="white" stroke="black" points="664,-237.414 664,-267.414 824,-267.414 824,-237.414 664,-237.414"/>
<text text-anchor="start" x="672" y="-255.414" font-family="Helvetica,sans-Serif" font-size="10.00">authoring_environment.Super</text>
<text text-anchor="middle" x="744" y="-244.414" font-family="Helvetica,sans-Serif" font-size="10.00">Tile.removePieceImage</text>
</a>
</g>
</g>
<!-- Node7&#45;&gt;Node11 -->
<g id="edge10" class="edge"><title>Node7&#45;&gt;Node11</title>
<path fill="none" stroke="midnightblue" d="M599.662,-194.422C609.359,-197.272 619.03,-200.586 628,-204.414 645.463,-211.866 646.802,-219.37 664,-227.414 668.887,-229.699 674.037,-231.852 679.268,-233.861"/>
<polygon fill="midnightblue" stroke="midnightblue" points="678.14,-237.175 688.734,-237.321 680.543,-230.601 678.14,-237.175"/>
</g>
<!-- Node12&#45;&gt;Node5 -->
<g id="edge12" class="edge"><title>Node12&#45;&gt;Node5</title>
<path fill="none" stroke="midnightblue" d="M355.611,-17.3806C376.082,-13.2951 398.881,-9.44136 420,-7.41385 512.021,1.42075 536.169,3.22166 628,-7.41385 645.285,-9.41576 663.745,-13.0566 680.703,-17.0301"/>
<polygon fill="midnightblue" stroke="midnightblue" points="679.95,-20.449 690.493,-19.3982 681.596,-13.6452 679.95,-20.449"/>
</g>
<!-- Node13 -->
<g id="node13" class="node"><title>Node13</title>
<g id="a_node13"><a xlink:href="../../d7/dd4/classauthoring_1_1data_1_1_patch_instance_data.html#a60ac72e96e7e0da6f3beb20122a8c041" target="_top" xlink:title="authoring.data.PatchInstance\lData.getData">
<polygon fill="white" stroke="black" points="445.5,-17.4139 445.5,-47.4139 602.5,-47.4139 602.5,-17.4139 445.5,-17.4139"/>
<text text-anchor="start" x="453.5" y="-35.4139" font-family="Helvetica,sans-Serif" font-size="10.00">authoring.data.PatchInstance</text>
<text text-anchor="middle" x="524" y="-24.4139" font-family="Helvetica,sans-Serif" font-size="10.00">Data.getData</text>
</a>
</g>
</g>
<!-- Node12&#45;&gt;Node13 -->
<g id="edge13" class="edge"><title>Node12&#45;&gt;Node13</title>
<path fill="none" stroke="midnightblue" d="M383.693,-32.4139C400.625,-32.4139 418.248,-32.4139 435.038,-32.4139"/>
<polygon fill="midnightblue" stroke="midnightblue" points="435.371,-35.914 445.371,-32.4139 435.371,-28.914 435.371,-35.914"/>
</g>
</g>
</svg>
        <g id="navigator" transform="translate(0 0)" fill="#404254">
                <rect fill="#f2f5e9" fill-opacity="0.5" stroke="#606060" stroke-width=".5" x="0" y="0" width="60" height="60"/>
                <use id="zoomplus" xlink:href="#zoomPlus" x="17" y="9" onmousedown="handleZoom(evt,'in')"/>
                <use id="zoomminus" xlink:href="#zoomMin" x="42" y="9" onmousedown="handleZoom(evt,'out')"/>
                <use id="reset" xlink:href="#resetDef" x="30" y="36" onmousedown="handleReset()"/>
                <g id="arrowUp" xlink:href="#dirArrow" transform="translate(30 24)" onmousedown="handlePan(0,-1)">
                  <use xlink:href="#rim" fill="#404040">
                        <set attributeName="fill" to="#808080" begin="arrowUp.mouseover" end="arrowUp.mouseout"/>
                  </use>
                  <path fill="none" stroke="white" stroke-width="1.5" d="M0,-3.0v7 M-2.5,-0.5L0,-3.0L2.5,-0.5"/>
                </g>
                <g id="arrowRight" xlink:href="#dirArrow" transform="rotate(90) translate(36 -43)" onmousedown="handlePan(1,0)">
                  <use xlink:href="#rim" fill="#404040">
                        <set attributeName="fill" to="#808080" begin="arrowRight.mouseover" end="arrowRight.mouseout"/>
                  </use>
                  <path fill="none" stroke="white" stroke-width="1.5" d="M0,-3.0v7 M-2.5,-0.5L0,-3.0L2.5,-0.5"/>
                </g>
                <g id="arrowDown" xlink:href="#dirArrow" transform="rotate(180) translate(-30 -48)" onmousedown="handlePan(0,1)">
                  <use xlink:href="#rim" fill="#404040">
                        <set attributeName="fill" to="#808080" begin="arrowDown.mouseover" end="arrowDown.mouseout"/>
                  </use>
                  <path fill="none" stroke="white" stroke-width="1.5" d="M0,-3.0v7 M-2.5,-0.5L0,-3.0L2.5,-0.5"/>
                </g>
                <g id="arrowLeft" xlink:href="#dirArrow" transform="rotate(270) translate(-36 17)" onmousedown="handlePan(-1,0)">
                  <use xlink:href="#rim" fill="#404040">
                        <set attributeName="fill" to="#808080" begin="arrowLeft.mouseover" end="arrowLeft.mouseout"/>
                  </use>
                  <path fill="none" stroke="white" stroke-width="1.5" d="M0,-3.0v7 M-2.5,-0.5L0,-3.0L2.5,-0.5"/>
                </g>
        </g>
        <svg viewBox="0 0 15 15" width="100%" height="30px" preserveAspectRatio="xMaxYMin meet">
         <g id="arrow_out" transform="scale(0.3 0.3)">
          <a xlink:href="classgamedata_1_1gamecomponents_1_1_level_a369f5f4a962d2ae8be063f5b2a01e0ff_cgraph_org.svg" target="_base">
           <rect id="button" ry="5" rx="5" y="6" x="6" height="38" width="38"
                fill="#f2f5e9" fill-opacity="0.5" stroke="#606060" stroke-width="1.0"/>
           <path id="arrow"
             d="M 11.500037,31.436501 C 11.940474,20.09759 22.043105,11.32322 32.158766,21.979434 L 37.068811,17.246167 C 37.068811,17.246167 37.088388,32 37.088388,32 L 22.160133,31.978069 C 22.160133,31.978069 26.997745,27.140456 26.997745,27.140456 C 18.528582,18.264221 13.291696,25.230495 11.500037,31.436501 z"
             style="fill:#404040;"/>
          </a>
         </g>
        </svg>
</svg>
