<?xml version="1.0" encoding="UTF-8" standalone="no"?>
<!DOCTYPE svg PUBLIC "-//W3C//DTD SVG 1.1//EN"
 "http://www.w3.org/Graphics/SVG/1.1/DTD/svg11.dtd">
<!-- Generated by graphviz version 2.36.0 (20140111.2315)
 -->
<!-- Title: gamedata.gamecomponents.Level.getId Pages: 1 -->
<svg width="382pt" height="175pt"
 viewBox="0.00 0.00 382.00 175.00" xmlns="http://www.w3.org/2000/svg" xmlns:xlink="http://www.w3.org/1999/xlink">
<g id="graph0" class="graph" transform="scale(1 1) rotate(0) translate(4 171)">
<title>gamedata.gamecomponents.Level.getId</title>
<polygon fill="white" stroke="none" points="-4,4 -4,-171 378,-171 378,4 -4,4"/>
<!-- Node1 -->
<g id="node1" class="node"><title>Node1</title>
<polygon fill="#bfbfbf" stroke="black" points="0,-73 0,-103 160,-103 160,-73 0,-73"/>
<text text-anchor="start" x="8" y="-91" font-family="Helvetica,sans-Serif" font-size="10.00">gamedata.gamecomponents.</text>
<text text-anchor="middle" x="80" y="-80" font-family="Helvetica,sans-Serif" font-size="10.00">Level.getId</text>
</g>
<!-- Node2 -->
<g id="node2" class="node"><title>Node2</title>
<g id="a_node2"><a xlink:href="../../d7/d88/classauthoring_1_1data_1_1_level_data.html#a15d19464a94874191ceede255de436b0" target="_top" xlink:title="authoring.data.LevelData.canAdd">
<polygon fill="white" stroke="black" points="196.5,-147.5 196.5,-166.5 373.5,-166.5 373.5,-147.5 196.5,-147.5"/>
<text text-anchor="middle" x="285" y="-154.5" font-family="Helvetica,sans-Serif" font-size="10.00">authoring.data.LevelData.canAdd</text>
</a>
</g>
</g>
<!-- Node1&#45;&gt;Node2 -->
<g id="edge1" class="edge"><title>Node1&#45;&gt;Node2</title>
<path fill="none" stroke="midnightblue" d="M121.397,-107.319C143.143,-117.178 170.641,-128.789 196,-137 208.372,-141.006 221.971,-144.516 234.702,-147.432"/>
<polygon fill="midnightblue" stroke="midnightblue" points="122.695,-104.064 112.146,-103.074 119.775,-110.426 122.695,-104.064"/>
</g>
<!-- Node3 -->
<g id="node3" class="node"><title>Node3</title>
<g id="a_node3"><a xlink:href="../../de/d8c/classfxml__main_1_1_level_editor.html#a014e481bcd2183307716f56c746af0bd" target="_top" xlink:title="fxml_main.LevelEditor.Level\lEditor">
<polygon fill="white" stroke="black" points="210.5,-98 210.5,-128 359.5,-128 359.5,-98 210.5,-98"/>
<text text-anchor="start" x="218.5" y="-116" font-family="Helvetica,sans-Serif" font-size="10.00">fxml_main.LevelEditor.Level</text>
<text text-anchor="middle" x="285" y="-105" font-family="Helvetica,sans-Serif" font-size="10.00">Editor</text>
</a>
</g>
</g>
<!-- Node1&#45;&gt;Node3 -->
<g id="edge2" class="edge"><title>Node1&#45;&gt;Node3</title>
<path fill="none" stroke="midnightblue" d="M170.263,-98.9929C183.691,-100.647 197.409,-102.336 210.459,-103.943"/>
<polygon fill="midnightblue" stroke="midnightblue" points="170.419,-95.4859 160.066,-97.7372 169.564,-102.433 170.419,-95.4859"/>
</g>
<!-- Node4 -->
<g id="node4" class="node"><title>Node4</title>
<g id="a_node4"><a xlink:href="../../da/d61/classfxml__main_1_1_level_controller.html#a2b46111b25876d30c6d6a2e6a40aba63" target="_top" xlink:title="fxml_main.LevelController.make\lEntryBox">
<polygon fill="white" stroke="black" points="200,-49 200,-79 370,-79 370,-49 200,-49"/>
<text text-anchor="start" x="208" y="-67" font-family="Helvetica,sans-Serif" font-size="10.00">fxml_main.LevelController.make</text>
<text text-anchor="middle" x="285" y="-56" font-family="Helvetica,sans-Serif" font-size="10.00">EntryBox</text>
</a>
</g>
</g>
<!-- Node1&#45;&gt;Node4 -->
<g id="edge3" class="edge"><title>Node1&#45;&gt;Node4</title>
<path fill="none" stroke="midnightblue" d="M170.228,-77.4508C180.049,-76.2898 190.025,-75.1104 199.781,-73.9569"/>
<polygon fill="midnightblue" stroke="midnightblue" points="169.586,-74.0023 160.066,-78.6523 170.408,-80.9539 169.586,-74.0023"/>
</g>
<!-- Node5 -->
<g id="node5" class="node"><title>Node5</title>
<g id="a_node5"><a xlink:href="../../d9/d51/classtests_1_1_global_action_tester.html#a6f86a4282490e90c8df308939e5a895c" target="_top" xlink:title="tests.GlobalActionTester.\lTestLevelChange">
<polygon fill="white" stroke="black" points="218,-0 218,-30 352,-30 352,-0 218,-0"/>
<text text-anchor="start" x="226" y="-18" font-family="Helvetica,sans-Serif" font-size="10.00">tests.GlobalActionTester.</text>
<text text-anchor="middle" x="285" y="-7" font-family="Helvetica,sans-Serif" font-size="10.00">TestLevelChange</text>
</a>
</g>
</g>
<!-- Node1&#45;&gt;Node5 -->
<g id="edge4" class="edge"><title>Node1&#45;&gt;Node5</title>
<path fill="none" stroke="midnightblue" d="M123.489,-68.8479C144.986,-59.5226 171.626,-48.5153 196,-40 206.046,-36.4904 216.861,-33.1055 227.355,-30.0203"/>
<polygon fill="midnightblue" stroke="midnightblue" points="122.066,-65.6498 114.307,-72.8639 124.872,-72.0631 122.066,-65.6498"/>
</g>
</g>
</svg>
