<?xml version="1.0" encoding="UTF-8" standalone="no"?>
<!DOCTYPE svg PUBLIC "-//W3C//DTD SVG 1.1//EN"
 "http://www.w3.org/Graphics/SVG/1.1/DTD/svg11.dtd">
<!-- Generated by graphviz version 2.36.0 (20140111.2315)
 -->
<!-- Title: gamedata.gamecomponents.Level.runGameEvents Pages: 1 -->
<svg width="1722pt" height="401pt"
 viewBox="0.00 0.00 1722.00 401.00" xmlns="http://www.w3.org/2000/svg" xmlns:xlink="http://www.w3.org/1999/xlink">
<g id="graph0" class="graph" transform="scale(1 1) rotate(0) translate(4 397)">
<title>gamedata.gamecomponents.Level.runGameEvents</title>
<polygon fill="white" stroke="none" points="-4,4 -4,-397 1718,-397 1718,4 -4,4"/>
<!-- Node1 -->
<g id="node1" class="node"><title>Node1</title>
<polygon fill="#bfbfbf" stroke="black" points="0,-126 0,-156 160,-156 160,-126 0,-126"/>
<text text-anchor="start" x="8" y="-144" font-family="Helvetica,sans-Serif" font-size="10.00">gamedata.gamecomponents.</text>
<text text-anchor="middle" x="80" y="-133" font-family="Helvetica,sans-Serif" font-size="10.00">Level.runGameEvents</text>
</g>
<!-- Node2 -->
<g id="node2" class="node"><title>Node2</title>
<g id="a_node2"><a xlink:href="../../df/dd5/classgame_player_1_1_view_controller.html#a620f8a02d3ac7677cd179fcd812aca55" target="_top" xlink:title="gamePlayer.ViewController.check\lEndActions">
<polygon fill="white" stroke="black" points="196,-126 196,-156 370,-156 370,-126 196,-126"/>
<text text-anchor="start" x="204" y="-144" font-family="Helvetica,sans-Serif" font-size="10.00">gamePlayer.ViewController.check</text>
<text text-anchor="middle" x="283" y="-133" font-family="Helvetica,sans-Serif" font-size="10.00">EndActions</text>
</a>
</g>
</g>
<!-- Node1&#45;&gt;Node2 -->
<g id="edge1" class="edge"><title>Node1&#45;&gt;Node2</title>
<path fill="none" stroke="midnightblue" d="M170.432,-141C178.916,-141 187.506,-141 195.958,-141"/>
<polygon fill="midnightblue" stroke="midnightblue" points="170.152,-137.5 160.152,-141 170.152,-144.5 170.152,-137.5"/>
</g>
<!-- Node3 -->
<g id="node3" class="node"><title>Node3</title>
<g id="a_node3"><a xlink:href="../../df/dd5/classgame_player_1_1_view_controller.html#a95c2acd43bb39b8606c69971c1cd30f5" target="_top" xlink:title="gamePlayer.ViewController.perform\lAction">
<polygon fill="white" stroke="black" points="406.5,-219 406.5,-249 591.5,-249 591.5,-219 406.5,-219"/>
<text text-anchor="start" x="414.5" y="-237" font-family="Helvetica,sans-Serif" font-size="10.00">gamePlayer.ViewController.perform</text>
<text text-anchor="middle" x="499" y="-226" font-family="Helvetica,sans-Serif" font-size="10.00">Action</text>
</a>
</g>
</g>
<!-- Node2&#45;&gt;Node3 -->
<g id="edge2" class="edge"><title>Node2&#45;&gt;Node3</title>
<path fill="none" stroke="midnightblue" d="M328.111,-160.17C368.122,-177.558 426.32,-202.85 463.156,-218.857"/>
<polygon fill="midnightblue" stroke="midnightblue" points="329.425,-156.925 318.859,-156.149 326.635,-163.345 329.425,-156.925"/>
</g>
<!-- Node21 -->
<g id="node21" class="node"><title>Node21</title>
<g id="a_node21"><a xlink:href="../../df/dd5/classgame_player_1_1_view_controller.html#a13ea7814bde61a8042c5b1a23af41416" target="_top" xlink:title="gamePlayer.ViewController.end\lAction">
<polygon fill="white" stroke="black" points="417,-126 417,-156 581,-156 581,-126 417,-126"/>
<text text-anchor="start" x="425" y="-144" font-family="Helvetica,sans-Serif" font-size="10.00">gamePlayer.ViewController.end</text>
<text text-anchor="middle" x="499" y="-133" font-family="Helvetica,sans-Serif" font-size="10.00">Action</text>
</a>
</g>
</g>
<!-- Node2&#45;&gt;Node21 -->
<g id="edge23" class="edge"><title>Node2&#45;&gt;Node21</title>
<path fill="none" stroke="midnightblue" d="M380.327,-141C392.55,-141 404.962,-141 416.914,-141"/>
<polygon fill="midnightblue" stroke="midnightblue" points="380.117,-137.5 370.117,-141 380.117,-144.5 380.117,-137.5"/>
</g>
<!-- Node4 -->
<g id="node4" class="node"><title>Node4</title>
<g id="a_node4"><a xlink:href="../../da/d55/classgame_player_1_1_keyboard_movement.html#af45fd8d279b1ee2d6be5466d425485ab" target="_top" xlink:title="gamePlayer.KeyboardMovement.set\lMovementKeyControl">
<polygon fill="white" stroke="black" points="628.5,-263 628.5,-293 817.5,-293 817.5,-263 628.5,-263"/>
<text text-anchor="start" x="636.5" y="-281" font-family="Helvetica,sans-Serif" font-size="10.00">gamePlayer.KeyboardMovement.set</text>
<text text-anchor="middle" x="723" y="-270" font-family="Helvetica,sans-Serif" font-size="10.00">MovementKeyControl</text>
</a>
</g>
</g>
<!-- Node3&#45;&gt;Node4 -->
<g id="edge3" class="edge"><title>Node3&#45;&gt;Node4</title>
<path fill="none" stroke="midnightblue" d="M601.673,-247.423C627.145,-252.355 653.275,-257.895 674.65,-262.969"/>
<polygon fill="midnightblue" stroke="midnightblue" points="602.057,-243.933 591.578,-245.493 600.743,-250.808 602.057,-243.933"/>
</g>
<!-- Node12 -->
<g id="node12" class="node"><title>Node12</title>
<g id="a_node12"><a xlink:href="../../df/dd5/classgame_player_1_1_view_controller.html#a22ee80193bbac79a935ee961a183bfcd" target="_top" xlink:title="gamePlayer.ViewController.set\lOnClick">
<polygon fill="white" stroke="black" points="642.5,-175 642.5,-205 803.5,-205 803.5,-175 642.5,-175"/>
<text text-anchor="start" x="650.5" y="-193" font-family="Helvetica,sans-Serif" font-size="10.00">gamePlayer.ViewController.set</text>
<text text-anchor="middle" x="723" y="-182" font-family="Helvetica,sans-Serif" font-size="10.00">OnClick</text>
</a>
</g>
</g>
<!-- Node3&#45;&gt;Node12 -->
<g id="edge13" class="edge"><title>Node3&#45;&gt;Node12</title>
<path fill="none" stroke="midnightblue" d="M585.761,-217.002C605.676,-213.055 626.735,-208.881 646.186,-205.026"/>
<polygon fill="midnightblue" stroke="midnightblue" points="584.908,-213.603 575.779,-218.981 586.269,-220.47 584.908,-213.603"/>
</g>
<!-- Node4&#45;&gt;Node3 -->
<g id="edge11" class="edge"><title>Node4&#45;&gt;Node3</title>
<path fill="none" stroke="midnightblue" d="M618.264,-264.177C593.45,-259.347 568.15,-253.969 547.352,-249.032"/>
<polygon fill="midnightblue" stroke="midnightblue" points="617.627,-267.618 628.108,-266.069 618.948,-260.744 617.627,-267.618"/>
</g>
<!-- Node5 -->
<g id="node5" class="node"><title>Node5</title>
<g id="a_node5"><a xlink:href="../../df/dd5/classgame_player_1_1_view_controller.html#a7eb038fd9f20604ade0406f27ef76657" target="_top" xlink:title="gamePlayer.ViewController.bind\lAction">
<polygon fill="white" stroke="black" points="872.5,-312 872.5,-342 1039.5,-342 1039.5,-312 872.5,-312"/>
<text text-anchor="start" x="880.5" y="-330" font-family="Helvetica,sans-Serif" font-size="10.00">gamePlayer.ViewController.bind</text>
<text text-anchor="middle" x="956" y="-319" font-family="Helvetica,sans-Serif" font-size="10.00">Action</text>
</a>
</g>
</g>
<!-- Node4&#45;&gt;Node5 -->
<g id="edge4" class="edge"><title>Node4&#45;&gt;Node5</title>
<path fill="none" stroke="midnightblue" d="M804.674,-295.113C830.597,-300.611 859.102,-306.658 884.257,-311.994"/>
<polygon fill="midnightblue" stroke="midnightblue" points="805.386,-291.686 794.877,-293.035 803.934,-298.534 805.386,-291.686"/>
</g>
<!-- Node11 -->
<g id="node11" class="node"><title>Node11</title>
<g id="a_node11"><a xlink:href="../../df/dd5/classgame_player_1_1_view_controller.html#a27da17c1280cd953a14f6b76b18f9a4b" target="_top" xlink:title="gamePlayer.ViewController.toggle\lKeyboardControl">
<polygon fill="white" stroke="black" points="868,-263 868,-293 1044,-293 1044,-263 868,-263"/>
<text text-anchor="start" x="876" y="-281" font-family="Helvetica,sans-Serif" font-size="10.00">gamePlayer.ViewController.toggle</text>
<text text-anchor="middle" x="956" y="-270" font-family="Helvetica,sans-Serif" font-size="10.00">KeyboardControl</text>
</a>
</g>
</g>
<!-- Node4&#45;&gt;Node11 -->
<g id="edge12" class="edge"><title>Node4&#45;&gt;Node11</title>
<path fill="none" stroke="midnightblue" d="M827.825,-278C841.236,-278 854.858,-278 867.96,-278"/>
<polygon fill="midnightblue" stroke="midnightblue" points="827.624,-274.5 817.624,-278 827.623,-281.5 827.624,-274.5"/>
</g>
<!-- Node6 -->
<g id="node6" class="node"><title>Node6</title>
<g id="a_node6"><a xlink:href="../../d1/db7/classgame_player_1_1_keyboard_action.html#a08ace57322b8639020688dd9493c3e1f" target="_top" xlink:title="gamePlayer.KeyboardAction.set\lActionKeyControl">
<polygon fill="white" stroke="black" points="1114,-230 1114,-260 1282,-260 1282,-230 1114,-230"/>
<text text-anchor="start" x="1122" y="-248" font-family="Helvetica,sans-Serif" font-size="10.00">gamePlayer.KeyboardAction.set</text>
<text text-anchor="middle" x="1198" y="-237" font-family="Helvetica,sans-Serif" font-size="10.00">ActionKeyControl</text>
</a>
</g>
</g>
<!-- Node5&#45;&gt;Node6 -->
<g id="edge5" class="edge"><title>Node5&#45;&gt;Node6</title>
<path fill="none" stroke="midnightblue" d="M1038.53,-308.981C1045.19,-306.857 1051.76,-304.532 1058,-302 1075.16,-295.037 1077.18,-288.758 1094,-281 1111.12,-273.106 1130.49,-265.91 1147.77,-260.062"/>
<polygon fill="midnightblue" stroke="midnightblue" points="1037.28,-305.703 1028.72,-311.95 1039.31,-312.402 1037.28,-305.703"/>
</g>
<!-- Node7 -->
<g id="node7" class="node"><title>Node7</title>
<g id="a_node7"><a xlink:href="../../df/dd5/classgame_player_1_1_view_controller.html#ab8c14a8c53be9021a62d0107c2f75ef6" target="_top" xlink:title="gamePlayer.ViewController.update\lActions">
<polygon fill="white" stroke="black" points="1108,-339 1108,-369 1288,-369 1288,-339 1108,-339"/>
<text text-anchor="start" x="1116" y="-357" font-family="Helvetica,sans-Serif" font-size="10.00">gamePlayer.ViewController.update</text>
<text text-anchor="middle" x="1198" y="-346" font-family="Helvetica,sans-Serif" font-size="10.00">Actions</text>
</a>
</g>
</g>
<!-- Node5&#45;&gt;Node7 -->
<g id="edge7" class="edge"><title>Node5&#45;&gt;Node7</title>
<path fill="none" stroke="midnightblue" d="M1049.75,-337.434C1068.78,-339.576 1088.78,-341.826 1107.69,-343.953"/>
<polygon fill="midnightblue" stroke="midnightblue" points="1049.92,-333.932 1039.59,-336.292 1049.14,-340.888 1049.92,-333.932"/>
</g>
<!-- Node10 -->
<g id="node10" class="node"><title>Node10</title>
<g id="a_node10"><a xlink:href="../../df/df0/classtests_1_1_view_controller_test.html#a74e99f9c72cbdcd2d56271b2ad2df1ce" target="_top" xlink:title="tests.ViewControllerTest.bind\lActionTest">
<polygon fill="white" stroke="black" points="1121,-290 1121,-320 1275,-320 1275,-290 1121,-290"/>
<text text-anchor="start" x="1129" y="-308" font-family="Helvetica,sans-Serif" font-size="10.00">tests.ViewControllerTest.bind</text>
<text text-anchor="middle" x="1198" y="-297" font-family="Helvetica,sans-Serif" font-size="10.00">ActionTest</text>
</a>
</g>
</g>
<!-- Node5&#45;&gt;Node10 -->
<g id="edge10" class="edge"><title>Node5&#45;&gt;Node10</title>
<path fill="none" stroke="midnightblue" d="M1049.57,-318.514C1073.09,-316.358 1098.1,-314.066 1120.71,-311.994"/>
<polygon fill="midnightblue" stroke="midnightblue" points="1049.23,-315.031 1039.59,-319.429 1049.87,-322.001 1049.23,-315.031"/>
</g>
<!-- Node6&#45;&gt;Node3 -->
<g id="edge6" class="edge"><title>Node6&#45;&gt;Node3</title>
<path fill="none" stroke="midnightblue" d="M1103.71,-243.528C969.864,-241.415 724.868,-237.549 591.837,-235.449"/>
<polygon fill="midnightblue" stroke="midnightblue" points="1103.88,-247.031 1113.94,-243.689 1103.99,-240.032 1103.88,-247.031"/>
</g>
<!-- Node8 -->
<g id="node8" class="node"><title>Node8</title>
<g id="a_node8"><a xlink:href="../../d6/d24/classgame_player_1_1_select_state.html#a801827392f0faeee6b96925060d77838" target="_top" xlink:title="gamePlayer.SelectState.on\lClick">
<polygon fill="white" stroke="black" points="1361.5,-363 1361.5,-393 1508.5,-393 1508.5,-363 1361.5,-363"/>
<text text-anchor="start" x="1369.5" y="-381" font-family="Helvetica,sans-Serif" font-size="10.00">gamePlayer.SelectState.on</text>
<text text-anchor="middle" x="1435" y="-370" font-family="Helvetica,sans-Serif" font-size="10.00">Click</text>
</a>
</g>
</g>
<!-- Node7&#45;&gt;Node8 -->
<g id="edge8" class="edge"><title>Node7&#45;&gt;Node8</title>
<path fill="none" stroke="midnightblue" d="M1298.17,-364.128C1319.35,-366.291 1341.34,-368.537 1361.3,-370.576"/>
<polygon fill="midnightblue" stroke="midnightblue" points="1298.48,-360.642 1288.18,-363.108 1297.77,-367.606 1298.48,-360.642"/>
</g>
<!-- Node9 -->
<g id="node9" class="node"><title>Node9</title>
<g id="a_node9"><a xlink:href="../../df/df0/classtests_1_1_view_controller_test.html#a785df2c49a72c183c22163ce927f5df1" target="_top" xlink:title="tests.ViewControllerTest.update\lActionsTest">
<polygon fill="white" stroke="black" points="1351.5,-314 1351.5,-344 1518.5,-344 1518.5,-314 1351.5,-314"/>
<text text-anchor="start" x="1359.5" y="-332" font-family="Helvetica,sans-Serif" font-size="10.00">tests.ViewControllerTest.update</text>
<text text-anchor="middle" x="1435" y="-321" font-family="Helvetica,sans-Serif" font-size="10.00">ActionsTest</text>
</a>
</g>
</g>
<!-- Node7&#45;&gt;Node9 -->
<g id="edge9" class="edge"><title>Node7&#45;&gt;Node9</title>
<path fill="none" stroke="midnightblue" d="M1298.49,-343.416C1316.14,-341.538 1334.34,-339.602 1351.46,-337.781"/>
<polygon fill="midnightblue" stroke="midnightblue" points="1297.75,-339.975 1288.18,-344.513 1298.49,-346.935 1297.75,-339.975"/>
</g>
<!-- Node13 -->
<g id="node13" class="node"><title>Node13</title>
<g id="a_node13"><a xlink:href="../../df/dd5/classgame_player_1_1_view_controller.html#a10a40967a873f067cf91b024ff85b38e" target="_top" xlink:title="gamePlayer.ViewController.initializeGrid">
<polygon fill="white" stroke="black" points="854,-98.5 854,-117.5 1058,-117.5 1058,-98.5 854,-98.5"/>
<text text-anchor="middle" x="956" y="-105.5" font-family="Helvetica,sans-Serif" font-size="10.00">gamePlayer.ViewController.initializeGrid</text>
</a>
</g>
</g>
<!-- Node12&#45;&gt;Node13 -->
<g id="edge14" class="edge"><title>Node12&#45;&gt;Node13</title>
<path fill="none" stroke="midnightblue" d="M795.108,-172.178C802.878,-169.908 810.635,-167.499 818,-165 860.204,-150.68 907.932,-129.684 934.444,-117.574"/>
<polygon fill="midnightblue" stroke="midnightblue" points="793.946,-168.87 785.288,-174.976 795.864,-175.602 793.946,-168.87"/>
</g>
<!-- Node13&#45;&gt;Node2 -->
<g id="edge17" class="edge"><title>Node13&#45;&gt;Node2</title>
<path fill="none" stroke="midnightblue" d="M843.75,-103.532C732.576,-100.497 556.937,-99.5823 406,-116 386.333,-118.139 365.139,-121.943 346.023,-125.948"/>
<polygon fill="midnightblue" stroke="midnightblue" points="843.875,-107.037 853.971,-103.822 844.074,-100.04 843.875,-107.037"/>
</g>
<!-- Node14 -->
<g id="node14" class="node"><title>Node14</title>
<g id="a_node14"><a xlink:href="../../df/dd5/classgame_player_1_1_view_controller.html#aabf431713b65ec510f1cb2df12da4e45" target="_top" xlink:title="gamePlayer.ViewController.test\lPlayGameInTab">
<polygon fill="white" stroke="black" points="1115.5,-159 1115.5,-189 1280.5,-189 1280.5,-159 1115.5,-159"/>
<text text-anchor="start" x="1123.5" y="-177" font-family="Helvetica,sans-Serif" font-size="10.00">gamePlayer.ViewController.test</text>
<text text-anchor="middle" x="1198" y="-166" font-family="Helvetica,sans-Serif" font-size="10.00">PlayGameInTab</text>
</a>
</g>
</g>
<!-- Node13&#45;&gt;Node14 -->
<g id="edge15" class="edge"><title>Node13&#45;&gt;Node14</title>
<path fill="none" stroke="midnightblue" d="M996.912,-120.55C1024.16,-128.967 1061.13,-140.1 1094,-149 1106.52,-152.391 1119.96,-155.81 1132.86,-158.985"/>
<polygon fill="midnightblue" stroke="midnightblue" points="997.928,-117.2 987.34,-117.58 995.854,-123.886 997.928,-117.2"/>
</g>
<!-- Node15 -->
<g id="node15" class="node"><title>Node15</title>
<g id="a_node15"><a xlink:href="../../df/dd5/classgame_player_1_1_view_controller.html#a0d1a3d443966f151b070dc751d2faf9a" target="_top" xlink:title="gamePlayer.ViewController.restartGame">
<polygon fill="white" stroke="black" points="1094,-120.5 1094,-139.5 1302,-139.5 1302,-120.5 1094,-120.5"/>
<text text-anchor="middle" x="1198" y="-127.5" font-family="Helvetica,sans-Serif" font-size="10.00">gamePlayer.ViewController.restartGame</text>
</a>
</g>
</g>
<!-- Node13&#45;&gt;Node15 -->
<g id="edge16" class="edge"><title>Node13&#45;&gt;Node15</title>
<path fill="none" stroke="midnightblue" d="M1068.08,-118.182C1076.62,-118.966 1085.23,-119.754 1093.72,-120.533"/>
<polygon fill="midnightblue" stroke="midnightblue" points="1068.36,-114.694 1058.09,-117.266 1067.72,-121.665 1068.36,-114.694"/>
</g>
<!-- Node16 -->
<g id="node16" class="node"><title>Node16</title>
<g id="a_node16"><a xlink:href="../../df/dd5/classgame_player_1_1_view_controller.html#adc15cd81cefb88c58f9d3b7478328df8" target="_top" xlink:title="gamePlayer.ViewController.test\lPlayGUIGame">
<polygon fill="white" stroke="black" points="1115.5,-71 1115.5,-101 1280.5,-101 1280.5,-71 1115.5,-71"/>
<text text-anchor="start" x="1123.5" y="-89" font-family="Helvetica,sans-Serif" font-size="10.00">gamePlayer.ViewController.test</text>
<text text-anchor="middle" x="1198" y="-78" font-family="Helvetica,sans-Serif" font-size="10.00">PlayGUIGame</text>
</a>
</g>
</g>
<!-- Node13&#45;&gt;Node16 -->
<g id="edge18" class="edge"><title>Node13&#45;&gt;Node16</title>
<path fill="none" stroke="midnightblue" d="M1068.43,-97.7858C1084.23,-96.3377 1100.22,-94.8712 1115.32,-93.4877"/>
<polygon fill="midnightblue" stroke="midnightblue" points="1067.72,-94.3355 1058.09,-98.7338 1068.36,-101.306 1067.72,-94.3355"/>
</g>
<!-- Node17 -->
<g id="node17" class="node"><title>Node17</title>
<g id="a_node17"><a xlink:href="../../df/dd5/classgame_player_1_1_view_controller.html#a4c1754d129a4eac955390b428eaa448a" target="_top" xlink:title="gamePlayer.ViewController.test\lPlayGame">
<polygon fill="white" stroke="black" points="1115.5,-22 1115.5,-52 1280.5,-52 1280.5,-22 1115.5,-22"/>
<text text-anchor="start" x="1123.5" y="-40" font-family="Helvetica,sans-Serif" font-size="10.00">gamePlayer.ViewController.test</text>
<text text-anchor="middle" x="1198" y="-29" font-family="Helvetica,sans-Serif" font-size="10.00">PlayGame</text>
</a>
</g>
</g>
<!-- Node13&#45;&gt;Node17 -->
<g id="edge19" class="edge"><title>Node13&#45;&gt;Node17</title>
<path fill="none" stroke="midnightblue" d="M991.818,-94.9591C1019.32,-84.9244 1058.81,-71.1087 1094,-61 1104.94,-57.8573 1116.62,-54.8291 1128.05,-52.0443"/>
<polygon fill="midnightblue" stroke="midnightblue" points="990.437,-91.7379 982.257,-98.4712 992.85,-98.3087 990.437,-91.7379"/>
</g>
<!-- Node18 -->
<g id="node18" class="node"><title>Node18</title>
<g id="a_node18"><a xlink:href="../../db/d40/classfxml__main_1_1_authoring_controller.html#a2ec133c8edf0a7ab1e84f2e12455233d" target="_top" xlink:title="fxml_main.AuthoringController.save\lAsGame">
<polygon fill="white" stroke="black" points="1341.5,-44 1341.5,-74 1528.5,-74 1528.5,-44 1341.5,-44"/>
<text text-anchor="start" x="1349.5" y="-62" font-family="Helvetica,sans-Serif" font-size="10.00">fxml_main.AuthoringController.save</text>
<text text-anchor="middle" x="1435" y="-51" font-family="Helvetica,sans-Serif" font-size="10.00">AsGame</text>
</a>
</g>
</g>
<!-- Node17&#45;&gt;Node18 -->
<g id="edge20" class="edge"><title>Node17&#45;&gt;Node18</title>
<path fill="none" stroke="midnightblue" d="M1290.77,-45.591C1307.38,-47.1458 1324.7,-48.7681 1341.34,-50.3253"/>
<polygon fill="midnightblue" stroke="midnightblue" points="1290.81,-42.0802 1280.53,-44.6328 1290.16,-49.0497 1290.81,-42.0802"/>
</g>
<!-- Node19 -->
<g id="node19" class="node"><title>Node19</title>
<g id="a_node19"><a xlink:href="../../df/dd5/classgame_player_1_1_view_controller.html#a2bf1dce04187ad5eacb5359ef2b4eff8" target="_top" xlink:title="gamePlayer.ViewController.newGame">
<polygon fill="white" stroke="black" points="1338,-5.5 1338,-24.5 1532,-24.5 1532,-5.5 1338,-5.5"/>
<text text-anchor="middle" x="1435" y="-12.5" font-family="Helvetica,sans-Serif" font-size="10.00">gamePlayer.ViewController.newGame</text>
</a>
</g>
</g>
<!-- Node17&#45;&gt;Node19 -->
<g id="edge21" class="edge"><title>Node17&#45;&gt;Node19</title>
<path fill="none" stroke="midnightblue" d="M1290.58,-28.4266C1306.03,-26.9806 1322.1,-25.4757 1337.66,-24.0188"/>
<polygon fill="midnightblue" stroke="midnightblue" points="1290.16,-24.9503 1280.53,-29.3672 1290.81,-31.9198 1290.16,-24.9503"/>
</g>
<!-- Node20 -->
<g id="node20" class="node"><title>Node20</title>
<g id="a_node20"><a xlink:href="../../df/dd5/classgame_player_1_1_view_controller.html#a2acd822c93c35674b6978a97b4ce6e3f" target="_top" xlink:title="gamePlayer.ViewController.\lViewController">
<polygon fill="white" stroke="black" points="1568,-0 1568,-30 1714,-30 1714,-0 1568,-0"/>
<text text-anchor="start" x="1576" y="-18" font-family="Helvetica,sans-Serif" font-size="10.00">gamePlayer.ViewController.</text>
<text text-anchor="middle" x="1641" y="-7" font-family="Helvetica,sans-Serif" font-size="10.00">ViewController</text>
</a>
</g>
</g>
<!-- Node19&#45;&gt;Node20 -->
<g id="edge22" class="edge"><title>Node19&#45;&gt;Node20</title>
<path fill="none" stroke="midnightblue" d="M1542.24,-15C1550.94,-15 1559.59,-15 1567.95,-15"/>
<polygon fill="midnightblue" stroke="midnightblue" points="1542.03,-11.5001 1532.03,-15 1542.03,-18.5001 1542.03,-11.5001"/>
</g>
<!-- Node22 -->
<g id="node22" class="node"><title>Node22</title>
<g id="a_node22"><a xlink:href="../../db/d00/classgame_player_1_1_apply_state.html#aed42c1aba25264bc6880036f693a1c9e" target="_top" xlink:title="gamePlayer.ApplyState.on\lClick">
<polygon fill="white" stroke="black" points="651.5,-126 651.5,-156 794.5,-156 794.5,-126 651.5,-126"/>
<text text-anchor="start" x="659.5" y="-144" font-family="Helvetica,sans-Serif" font-size="10.00">gamePlayer.ApplyState.on</text>
<text text-anchor="middle" x="723" y="-133" font-family="Helvetica,sans-Serif" font-size="10.00">Click</text>
</a>
</g>
</g>
<!-- Node21&#45;&gt;Node22 -->
<g id="edge24" class="edge"><title>Node21&#45;&gt;Node22</title>
<path fill="none" stroke="midnightblue" d="M591.182,-141C611.271,-141 632.256,-141 651.387,-141"/>
<polygon fill="midnightblue" stroke="midnightblue" points="591.089,-137.5 581.089,-141 591.089,-144.5 591.089,-137.5"/>
</g>
</g>
</svg>
