<?xml version="1.0" encoding="UTF-8" standalone="no"?>
<!DOCTYPE svg PUBLIC "-//W3C//DTD SVG 1.1//EN"
 "http://www.w3.org/Graphics/SVG/1.1/DTD/svg11.dtd">
<!-- Generated by graphviz version 2.36.0 (20140111.2315)
 -->
<!-- Title: authoring.concretefeatures.GameCreator.initializeVBoxContent Pages: 1 -->
<svg width="380pt" height="136pt"
 viewBox="0.00 0.00 380.00 136.00" xmlns="http://www.w3.org/2000/svg" xmlns:xlink="http://www.w3.org/1999/xlink">
<g id="graph0" class="graph" transform="scale(1 1) rotate(0) translate(4 132)">
<title>authoring.concretefeatures.GameCreator.initializeVBoxContent</title>
<polygon fill="white" stroke="none" points="-4,4 -4,-132 376,-132 376,4 -4,4"/>
<!-- Node1 -->
<g id="node1" class="node"><title>Node1</title>
<polygon fill="#bfbfbf" stroke="black" points="0.5,-49 0.5,-79 185.5,-79 185.5,-49 0.5,-49"/>
<text text-anchor="start" x="8.5" y="-67" font-family="Helvetica,sans-Serif" font-size="10.00">authoring.concretefeatures.</text>
<text text-anchor="middle" x="93" y="-56" font-family="Helvetica,sans-Serif" font-size="10.00">GameCreator.initializeVBoxContent</text>
</g>
<!-- Node2 -->
<g id="node2" class="node"><title>Node2</title>
<g id="a_node2"><a xlink:href="../../db/dc8/classauthoring_1_1concretefeatures_1_1_game_creator.html#a911340de827e674a6da9053ca3b90256" target="_top" xlink:title="authoring.concretefeatures.\lGameCreator.handleCreate">
<polygon fill="white" stroke="black" points="222,-98 222,-128 372,-128 372,-98 222,-98"/>
<text text-anchor="start" x="230" y="-116" font-family="Helvetica,sans-Serif" font-size="10.00">authoring.concretefeatures.</text>
<text text-anchor="middle" x="297" y="-105" font-family="Helvetica,sans-Serif" font-size="10.00">GameCreator.handleCreate</text>
</a>
</g>
</g>
<!-- Node1&#45;&gt;Node2 -->
<g id="edge1" class="edge"><title>Node1&#45;&gt;Node2</title>
<path fill="none" stroke="midnightblue" d="M155.979,-79.0346C177.599,-84.2789 202.037,-90.2069 224.375,-95.6255"/>
<polygon fill="midnightblue" stroke="midnightblue" points="223.594,-99.0377 234.138,-97.9938 225.245,-92.235 223.594,-99.0377"/>
</g>
<!-- Node3 -->
<g id="node3" class="node"><title>Node3</title>
<g id="a_node3"><a xlink:href="../../db/dc8/classauthoring_1_1concretefeatures_1_1_game_creator.html#a5459278c7681115e2b3f7336aa599268" target="_top" xlink:title="authoring.concretefeatures.\lGameCreator.initChoiceBox">
<polygon fill="white" stroke="black" points="222,-49 222,-79 372,-79 372,-49 222,-49"/>
<text text-anchor="start" x="230" y="-67" font-family="Helvetica,sans-Serif" font-size="10.00">authoring.concretefeatures.</text>
<text text-anchor="middle" x="297" y="-56" font-family="Helvetica,sans-Serif" font-size="10.00">GameCreator.initChoiceBox</text>
</a>
</g>
</g>
<!-- Node1&#45;&gt;Node3 -->
<g id="edge2" class="edge"><title>Node1&#45;&gt;Node3</title>
<path fill="none" stroke="midnightblue" d="M185.544,-64C194.247,-64 203.045,-64 211.676,-64"/>
<polygon fill="midnightblue" stroke="midnightblue" points="211.715,-67.5001 221.715,-64 211.715,-60.5001 211.715,-67.5001"/>
</g>
<!-- Node4 -->
<g id="node4" class="node"><title>Node4</title>
<g id="a_node4"><a xlink:href="../../db/dc8/classauthoring_1_1concretefeatures_1_1_game_creator.html#a5059769a41cff3ec23c9962122fda370" target="_top" xlink:title="authoring.concretefeatures.\lGameCreator.initLabel">
<polygon fill="white" stroke="black" points="222,-0 222,-30 372,-30 372,-0 222,-0"/>
<text text-anchor="start" x="230" y="-18" font-family="Helvetica,sans-Serif" font-size="10.00">authoring.concretefeatures.</text>
<text text-anchor="middle" x="297" y="-7" font-family="Helvetica,sans-Serif" font-size="10.00">GameCreator.initLabel</text>
</a>
</g>
</g>
<!-- Node1&#45;&gt;Node4 -->
<g id="edge3" class="edge"><title>Node1&#45;&gt;Node4</title>
<path fill="none" stroke="midnightblue" d="M155.979,-48.9654C177.599,-43.7211 202.037,-37.7931 224.375,-32.3745"/>
<polygon fill="midnightblue" stroke="midnightblue" points="225.245,-35.765 234.138,-30.0062 223.594,-28.9623 225.245,-35.765"/>
</g>
</g>
</svg>
