<?xml version="1.0" encoding="UTF-8" standalone="no"?>
<!DOCTYPE svg PUBLIC "-//W3C//DTD SVG 1.1//EN"
 "http://www.w3.org/Graphics/SVG/1.1/DTD/svg11.dtd">
<!-- Generated by graphviz version 2.36.0 (20140111.2315)
 -->
<!-- Title: authoring.concretefeatures.GameCreator.GameCreator Pages: 1 -->
<svg width="566pt" height="136pt"
 viewBox="0.00 0.00 566.00 136.00" xmlns="http://www.w3.org/2000/svg" xmlns:xlink="http://www.w3.org/1999/xlink">
<g id="graph0" class="graph" transform="scale(1 1) rotate(0) translate(4 132)">
<title>authoring.concretefeatures.GameCreator.GameCreator</title>
<polygon fill="white" stroke="none" points="-4,4 -4,-132 562,-132 562,4 -4,4"/>
<!-- Node1 -->
<g id="node1" class="node"><title>Node1</title>
<polygon fill="#bfbfbf" stroke="black" points="0,-49 0,-79 150,-79 150,-49 0,-49"/>
<text text-anchor="start" x="8" y="-67" font-family="Helvetica,sans-Serif" font-size="10.00">authoring.concretefeatures.</text>
<text text-anchor="middle" x="75" y="-56" font-family="Helvetica,sans-Serif" font-size="10.00">GameCreator.GameCreator</text>
</g>
<!-- Node2 -->
<g id="node2" class="node"><title>Node2</title>
<g id="a_node2"><a xlink:href="../../db/dc8/classauthoring_1_1concretefeatures_1_1_game_creator.html#a7c0727c065eff8ba3ca0ea36e8188063" target="_top" xlink:title="authoring.concretefeatures.\lGameCreator.initializeVBoxContent">
<polygon fill="white" stroke="black" points="186.5,-49 186.5,-79 371.5,-79 371.5,-49 186.5,-49"/>
<text text-anchor="start" x="194.5" y="-67" font-family="Helvetica,sans-Serif" font-size="10.00">authoring.concretefeatures.</text>
<text text-anchor="middle" x="279" y="-56" font-family="Helvetica,sans-Serif" font-size="10.00">GameCreator.initializeVBoxContent</text>
</a>
</g>
</g>
<!-- Node1&#45;&gt;Node2 -->
<g id="edge1" class="edge"><title>Node1&#45;&gt;Node2</title>
<path fill="none" stroke="midnightblue" d="M150.07,-64C158.66,-64 167.531,-64 176.407,-64"/>
<polygon fill="midnightblue" stroke="midnightblue" points="176.417,-67.5001 186.417,-64 176.417,-60.5001 176.417,-67.5001"/>
</g>
<!-- Node3 -->
<g id="node3" class="node"><title>Node3</title>
<g id="a_node3"><a xlink:href="../../db/dc8/classauthoring_1_1concretefeatures_1_1_game_creator.html#a5059769a41cff3ec23c9962122fda370" target="_top" xlink:title="authoring.concretefeatures.\lGameCreator.initLabel">
<polygon fill="white" stroke="black" points="408,-98 408,-128 558,-128 558,-98 408,-98"/>
<text text-anchor="start" x="416" y="-116" font-family="Helvetica,sans-Serif" font-size="10.00">authoring.concretefeatures.</text>
<text text-anchor="middle" x="483" y="-105" font-family="Helvetica,sans-Serif" font-size="10.00">GameCreator.initLabel</text>
</a>
</g>
</g>
<!-- Node2&#45;&gt;Node3 -->
<g id="edge2" class="edge"><title>Node2&#45;&gt;Node3</title>
<path fill="none" stroke="midnightblue" d="M341.979,-79.0346C363.599,-84.2789 388.037,-90.2069 410.375,-95.6255"/>
<polygon fill="midnightblue" stroke="midnightblue" points="409.594,-99.0377 420.138,-97.9938 411.245,-92.235 409.594,-99.0377"/>
</g>
<!-- Node4 -->
<g id="node4" class="node"><title>Node4</title>
<g id="a_node4"><a xlink:href="../../db/dc8/classauthoring_1_1concretefeatures_1_1_game_creator.html#a5459278c7681115e2b3f7336aa599268" target="_top" xlink:title="authoring.concretefeatures.\lGameCreator.initChoiceBox">
<polygon fill="white" stroke="black" points="408,-49 408,-79 558,-79 558,-49 408,-49"/>
<text text-anchor="start" x="416" y="-67" font-family="Helvetica,sans-Serif" font-size="10.00">authoring.concretefeatures.</text>
<text text-anchor="middle" x="483" y="-56" font-family="Helvetica,sans-Serif" font-size="10.00">GameCreator.initChoiceBox</text>
</a>
</g>
</g>
<!-- Node2&#45;&gt;Node4 -->
<g id="edge3" class="edge"><title>Node2&#45;&gt;Node4</title>
<path fill="none" stroke="midnightblue" d="M371.544,-64C380.247,-64 389.045,-64 397.676,-64"/>
<polygon fill="midnightblue" stroke="midnightblue" points="397.715,-67.5001 407.715,-64 397.715,-60.5001 397.715,-67.5001"/>
</g>
<!-- Node5 -->
<g id="node5" class="node"><title>Node5</title>
<g id="a_node5"><a xlink:href="../../db/dc8/classauthoring_1_1concretefeatures_1_1_game_creator.html#a911340de827e674a6da9053ca3b90256" target="_top" xlink:title="authoring.concretefeatures.\lGameCreator.handleCreate">
<polygon fill="white" stroke="black" points="408,-0 408,-30 558,-30 558,-0 408,-0"/>
<text text-anchor="start" x="416" y="-18" font-family="Helvetica,sans-Serif" font-size="10.00">authoring.concretefeatures.</text>
<text text-anchor="middle" x="483" y="-7" font-family="Helvetica,sans-Serif" font-size="10.00">GameCreator.handleCreate</text>
</a>
</g>
</g>
<!-- Node2&#45;&gt;Node5 -->
<g id="edge4" class="edge"><title>Node2&#45;&gt;Node5</title>
<path fill="none" stroke="midnightblue" d="M341.979,-48.9654C363.599,-43.7211 388.037,-37.7931 410.375,-32.3745"/>
<polygon fill="midnightblue" stroke="midnightblue" points="411.245,-35.765 420.138,-30.0062 409.594,-28.9623 411.245,-35.765"/>
</g>
</g>
</svg>
