<?xml version="1.0" encoding="UTF-8" standalone="no"?>
<!DOCTYPE svg PUBLIC "-//W3C//DTD SVG 1.1//EN"
 "http://www.w3.org/Graphics/SVG/1.1/DTD/svg11.dtd">
<!-- Generated by graphviz version 2.36.0 (20140111.2315)
 -->
<!-- Title: gamedata.gamecomponents.IHasStats.getStats Pages: 1 -->
<!--zoomable 234 -->
<svg id="main" version="1.1" xmlns="http://www.w3.org/2000/svg" xmlns:xlink="http://www.w3.org/1999/xlink" xml:space="preserve" onload="init(evt)">
<style type="text/css"><![CDATA[
.edge:hover path { stroke: red; }
.edge:hover polygon { stroke: red; fill: red; }
]]></style>
<script type="text/javascript"><![CDATA[
var edges = document.getElementsByTagName('g');
if (edges && edges.length) {
  for (var i=0;i<edges.length;i++) {
    if (edges[i].id.substr(0,4)=='edge') {
      edges[i].setAttribute('class','edge');
    }
  }
}
]]></script>
        <defs>
                <circle id="rim" cx="0" cy="0" r="7"/>
                <circle id="rim2" cx="0" cy="0" r="3.5"/>
                <g id="zoomPlus">
                        <use xlink:href="#rim" fill="#404040">
                                <set attributeName="fill" to="#808080" begin="zoomplus.mouseover" end="zoomplus.mouseout"/>
                        </use>
                        <path d="M-4,0h8M0,-4v8" fill="none" stroke="white" stroke-width="1.5" pointer-events="none"/>
                </g>
                <g id="zoomMin">
                        <use xlink:href="#rim" fill="#404040">
                                <set attributeName="fill" to="#808080" begin="zoomminus.mouseover" end="zoomminus.mouseout"/>
                        </use>
                        <path d="M-4,0h8" fill="none" stroke="white" stroke-width="1.5" pointer-events="none"/>
                </g>
                <g id="dirArrow">
                        <path fill="none" stroke="white" stroke-width="1.5" d="M0,-3.0v7 M-2.5,-0.5L0,-3.0L2.5,-0.5"/>
                </g>
               <g id="resetDef">
                       <use xlink:href="#rim2" fill="#404040">
                               <set attributeName="fill" to="#808080" begin="reset.mouseover" end="reset.mouseout"/>
                       </use>
               </g>
        </defs>

<script type="text/javascript">
var viewWidth = 984;
var viewHeight = 234;
var sectionId = 'dynsection-1';
</script>
<script xlink:href="../../svgpan.js"/>
<svg id="graph" class="graph">
<g id="viewport">
<title>gamedata.gamecomponents.IHasStats.getStats</title>
<polygon fill="white" stroke="none" points="-4,4 -4,-230 980,-230 980,4 -4,4"/>
<!-- Node1 -->
<g id="node1" class="node"><title>Node1</title>
<polygon fill="#bfbfbf" stroke="black" points="0,-98 0,-128 160,-128 160,-98 0,-98"/>
<text text-anchor="start" x="8" y="-116" font-family="Helvetica,sans-Serif" font-size="10.00">gamedata.gamecomponents.</text>
<text text-anchor="middle" x="80" y="-105" font-family="Helvetica,sans-Serif" font-size="10.00">IHasStats.getStats</text>
</g>
<!-- Node2 -->
<g id="node2" class="node"><title>Node2</title>
<g id="a_node2"><a xlink:href="../../d8/d9d/classgamedata_1_1events_1_1conditions_1_1_stat_greater_than.html#a3c6457298160cf4481f78a9c02fa38d8" target="_top" xlink:title="gamedata.events.conditions.\lStatGreaterThan.compare">
<polygon fill="white" stroke="black" points="202,-196 202,-226 358,-226 358,-196 202,-196"/>
<text text-anchor="start" x="210" y="-214" font-family="Helvetica,sans-Serif" font-size="10.00">gamedata.events.conditions.</text>
<text text-anchor="middle" x="280" y="-203" font-family="Helvetica,sans-Serif" font-size="10.00">StatGreaterThan.compare</text>
</a>
</g>
</g>
<!-- Node1&#45;&gt;Node2 -->
<g id="edge1" class="edge"><title>Node1&#45;&gt;Node2</title>
<path fill="none" stroke="midnightblue" d="M109.628,-134.298C132.165,-150.274 164.866,-171.756 196,-186 204.074,-189.694 212.835,-193.013 221.538,-195.934"/>
<polygon fill="midnightblue" stroke="midnightblue" points="111.381,-131.248 101.218,-128.256 107.297,-136.933 111.381,-131.248"/>
</g>
<!-- Node3 -->
<g id="node3" class="node"><title>Node3</title>
<g id="a_node3"><a xlink:href="../../d4/daf/classgamedata_1_1events_1_1conditions_1_1_stat_less_than.html#a2efc10b27cbd2cfa529bf0273ea7443c" target="_top" xlink:title="gamedata.events.conditions.\lStatLessThan.compare">
<polygon fill="white" stroke="black" points="202,-147 202,-177 358,-177 358,-147 202,-147"/>
<text text-anchor="start" x="210" y="-165" font-family="Helvetica,sans-Serif" font-size="10.00">gamedata.events.conditions.</text>
<text text-anchor="middle" x="280" y="-154" font-family="Helvetica,sans-Serif" font-size="10.00">StatLessThan.compare</text>
</a>
</g>
</g>
<!-- Node1&#45;&gt;Node3 -->
<g id="edge2" class="edge"><title>Node1&#45;&gt;Node3</title>
<path fill="none" stroke="midnightblue" d="M151.621,-130.477C173.444,-135.877 197.277,-141.776 218.363,-146.994"/>
<polygon fill="midnightblue" stroke="midnightblue" points="152.3,-127.039 141.752,-128.035 150.618,-133.834 152.3,-127.039"/>
</g>
<!-- Node4 -->
<g id="node4" class="node"><title>Node4</title>
<g id="a_node4"><a xlink:href="../../de/d0d/classgamedata_1_1events_1_1conditions_1_1_stat_equals.html#af9b90e8762bef91ad549035bb381e7f3" target="_top" xlink:title="gamedata.events.conditions.\lStatEquals.compare">
<polygon fill="white" stroke="black" points="202,-98 202,-128 358,-128 358,-98 202,-98"/>
<text text-anchor="start" x="210" y="-116" font-family="Helvetica,sans-Serif" font-size="10.00">gamedata.events.conditions.</text>
<text text-anchor="middle" x="280" y="-105" font-family="Helvetica,sans-Serif" font-size="10.00">StatEquals.compare</text>
</a>
</g>
</g>
<!-- Node1&#45;&gt;Node4 -->
<g id="edge3" class="edge"><title>Node1&#45;&gt;Node4</title>
<path fill="none" stroke="midnightblue" d="M170.204,-113C180.8,-113 191.546,-113 201.952,-113"/>
<polygon fill="midnightblue" stroke="midnightblue" points="170.108,-109.5 160.108,-113 170.108,-116.5 170.108,-109.5"/>
</g>
<!-- Node5 -->
<g id="node5" class="node"><title>Node5</title>
<g id="a_node5"><a xlink:href="../../d6/dcc/classgamedata_1_1action_1_1_stats_data_modifier.html#a5ebf6f78cddbc8300bf2c0ac096e1246" target="_top" xlink:title="gamedata.action.StatsData\lModifier.modifyStats">
<polygon fill="white" stroke="black" points="205,-49 205,-79 355,-79 355,-49 205,-49"/>
<text text-anchor="start" x="213" y="-67" font-family="Helvetica,sans-Serif" font-size="10.00">gamedata.action.StatsData</text>
<text text-anchor="middle" x="280" y="-56" font-family="Helvetica,sans-Serif" font-size="10.00">Modifier.modifyStats</text>
</a>
</g>
</g>
<!-- Node1&#45;&gt;Node5 -->
<g id="edge4" class="edge"><title>Node1&#45;&gt;Node5</title>
<path fill="none" stroke="midnightblue" d="M151.621,-95.5232C173.444,-90.1225 197.277,-84.2245 218.363,-79.0062"/>
<polygon fill="midnightblue" stroke="midnightblue" points="150.618,-92.1655 141.752,-97.9654 152.3,-98.9605 150.618,-92.1655"/>
</g>
<!-- Node8 -->
<g id="node8" class="node"><title>Node8</title>
<g id="a_node8"><a xlink:href="../../d8/d5f/classauthoring_1_1eventeditor_1_1_condition_editor_pane.html#a958135e32cc01512c109f4c48a031ee0" target="_top" xlink:title="authoring.eventeditor.Condition\lEditorPane.setupStatsBox">
<polygon fill="white" stroke="black" points="196.5,-0 196.5,-30 363.5,-30 363.5,-0 196.5,-0"/>
<text text-anchor="start" x="204.5" y="-18" font-family="Helvetica,sans-Serif" font-size="10.00">authoring.eventeditor.Condition</text>
<text text-anchor="middle" x="280" y="-7" font-family="Helvetica,sans-Serif" font-size="10.00">EditorPane.setupStatsBox</text>
</a>
</g>
</g>
<!-- Node1&#45;&gt;Node8 -->
<g id="edge7" class="edge"><title>Node1&#45;&gt;Node8</title>
<path fill="none" stroke="midnightblue" d="M109.628,-91.7024C132.165,-75.7258 164.866,-54.2443 196,-40 204.074,-36.306 212.835,-32.9868 221.538,-30.0659"/>
<polygon fill="midnightblue" stroke="midnightblue" points="107.297,-89.0671 101.218,-97.744 111.381,-94.7523 107.297,-89.0671"/>
</g>
<!-- Node6 -->
<g id="node6" class="node"><title>Node6</title>
<g id="a_node6"><a xlink:href="../../d1/d6d/classgamedata_1_1action_1_1_concrete_action.html#abc19207421045aa3b6adc01b29231f25" target="_top" xlink:title="gamedata.action.Concrete\lAction.modifyStats">
<polygon fill="white" stroke="black" points="411.5,-49 411.5,-79 556.5,-79 556.5,-49 411.5,-49"/>
<text text-anchor="start" x="419.5" y="-67" font-family="Helvetica,sans-Serif" font-size="10.00">gamedata.action.Concrete</text>
<text text-anchor="middle" x="484" y="-56" font-family="Helvetica,sans-Serif" font-size="10.00">Action.modifyStats</text>
</a>
</g>
</g>
<!-- Node5&#45;&gt;Node6 -->
<g id="edge5" class="edge"><title>Node5&#45;&gt;Node6</title>
<path fill="none" stroke="midnightblue" d="M365.073,-64C380.435,-64 396.335,-64 411.296,-64"/>
<polygon fill="midnightblue" stroke="midnightblue" points="365.07,-60.5001 355.07,-64 365.07,-67.5001 365.07,-60.5001"/>
</g>
<!-- Node7 -->
<g id="node7" class="node"><title>Node7</title>
<g id="a_node7"><a xlink:href="../../d1/d6d/classgamedata_1_1action_1_1_concrete_action.html#ad9d830d118b159992c27da362fd911b5" target="_top" xlink:title="gamedata.action.Concrete\lAction.doBehavior">
<polygon fill="white" stroke="black" points="615.5,-49 615.5,-79 760.5,-79 760.5,-49 615.5,-49"/>
<text text-anchor="start" x="623.5" y="-67" font-family="Helvetica,sans-Serif" font-size="10.00">gamedata.action.Concrete</text>
<text text-anchor="middle" x="688" y="-56" font-family="Helvetica,sans-Serif" font-size="10.00">Action.doBehavior</text>
</a>
</g>
</g>
<!-- Node6&#45;&gt;Node7 -->
<g id="edge6" class="edge"><title>Node6&#45;&gt;Node7</title>
<path fill="none" stroke="midnightblue" d="M566.911,-64C582.924,-64 599.602,-64 615.254,-64"/>
<polygon fill="midnightblue" stroke="midnightblue" points="566.502,-60.5001 556.502,-64 566.502,-67.5001 566.502,-60.5001"/>
</g>
<!-- Node9 -->
<g id="node9" class="node"><title>Node9</title>
<g id="a_node9"><a xlink:href="../../d8/d5f/classauthoring_1_1eventeditor_1_1_condition_editor_pane.html#a421ca65a21e0a47b69c3d253020d5d8e" target="_top" xlink:title="authoring.eventeditor.Condition\lEditorPane.setUpComponents">
<polygon fill="white" stroke="black" points="400.5,-0 400.5,-30 567.5,-30 567.5,-0 400.5,-0"/>
<text text-anchor="start" x="408.5" y="-18" font-family="Helvetica,sans-Serif" font-size="10.00">authoring.eventeditor.Condition</text>
<text text-anchor="middle" x="484" y="-7" font-family="Helvetica,sans-Serif" font-size="10.00">EditorPane.setUpComponents</text>
</a>
</g>
</g>
<!-- Node8&#45;&gt;Node9 -->
<g id="edge8" class="edge"><title>Node8&#45;&gt;Node9</title>
<path fill="none" stroke="midnightblue" d="M374.018,-15C382.815,-15 391.694,-15 400.385,-15"/>
<polygon fill="midnightblue" stroke="midnightblue" points="373.744,-11.5001 363.744,-15 373.744,-18.5001 373.744,-11.5001"/>
</g>
<!-- Node10 -->
<g id="node10" class="node"><title>Node10</title>
<g id="a_node10"><a xlink:href="../../d8/d5f/classauthoring_1_1eventeditor_1_1_condition_editor_pane.html#a194c440cd15f0b71cae8f07dd45377e0" target="_top" xlink:title="authoring.eventeditor.Condition\lEditorPane.initialize">
<polygon fill="white" stroke="black" points="604.5,-0 604.5,-30 771.5,-30 771.5,-0 604.5,-0"/>
<text text-anchor="start" x="612.5" y="-18" font-family="Helvetica,sans-Serif" font-size="10.00">authoring.eventeditor.Condition</text>
<text text-anchor="middle" x="688" y="-7" font-family="Helvetica,sans-Serif" font-size="10.00">EditorPane.initialize</text>
</a>
</g>
</g>
<!-- Node9&#45;&gt;Node10 -->
<g id="edge9" class="edge"><title>Node9&#45;&gt;Node10</title>
<path fill="none" stroke="midnightblue" d="M578.018,-15C586.815,-15 595.694,-15 604.385,-15"/>
<polygon fill="midnightblue" stroke="midnightblue" points="577.744,-11.5001 567.744,-15 577.744,-18.5001 577.744,-11.5001"/>
</g>
<!-- Node11 -->
<g id="node11" class="node"><title>Node11</title>
<g id="a_node11"><a xlink:href="../../d8/d5f/classauthoring_1_1eventeditor_1_1_condition_editor_pane.html#a1ce5d677410533b45754ccaf6464e573" target="_top" xlink:title="authoring.eventeditor.Condition\lEditorPane.ConditionEditorPane">
<polygon fill="white" stroke="black" points="808.5,-0 808.5,-30 975.5,-30 975.5,-0 808.5,-0"/>
<text text-anchor="start" x="816.5" y="-18" font-family="Helvetica,sans-Serif" font-size="10.00">authoring.eventeditor.Condition</text>
<text text-anchor="middle" x="892" y="-7" font-family="Helvetica,sans-Serif" font-size="10.00">EditorPane.ConditionEditorPane</text>
</a>
</g>
</g>
<!-- Node10&#45;&gt;Node11 -->
<g id="edge10" class="edge"><title>Node10&#45;&gt;Node11</title>
<path fill="none" stroke="midnightblue" d="M782.018,-15C790.815,-15 799.694,-15 808.385,-15"/>
<polygon fill="midnightblue" stroke="midnightblue" points="781.744,-11.5001 771.744,-15 781.744,-18.5001 781.744,-11.5001"/>
</g>
</g>
</svg>
        <g id="navigator" transform="translate(0 0)" fill="#404254">
                <rect fill="#f2f5e9" fill-opacity="0.5" stroke="#606060" stroke-width=".5" x="0" y="0" width="60" height="60"/>
                <use id="zoomplus" xlink:href="#zoomPlus" x="17" y="9" onmousedown="handleZoom(evt,'in')"/>
                <use id="zoomminus" xlink:href="#zoomMin" x="42" y="9" onmousedown="handleZoom(evt,'out')"/>
                <use id="reset" xlink:href="#resetDef" x="30" y="36" onmousedown="handleReset()"/>
                <g id="arrowUp" xlink:href="#dirArrow" transform="translate(30 24)" onmousedown="handlePan(0,-1)">
                  <use xlink:href="#rim" fill="#404040">
                        <set attributeName="fill" to="#808080" begin="arrowUp.mouseover" end="arrowUp.mouseout"/>
                  </use>
                  <path fill="none" stroke="white" stroke-width="1.5" d="M0,-3.0v7 M-2.5,-0.5L0,-3.0L2.5,-0.5"/>
                </g>
                <g id="arrowRight" xlink:href="#dirArrow" transform="rotate(90) translate(36 -43)" onmousedown="handlePan(1,0)">
                  <use xlink:href="#rim" fill="#404040">
                        <set attributeName="fill" to="#808080" begin="arrowRight.mouseover" end="arrowRight.mouseout"/>
                  </use>
                  <path fill="none" stroke="white" stroke-width="1.5" d="M0,-3.0v7 M-2.5,-0.5L0,-3.0L2.5,-0.5"/>
                </g>
                <g id="arrowDown" xlink:href="#dirArrow" transform="rotate(180) translate(-30 -48)" onmousedown="handlePan(0,1)">
                  <use xlink:href="#rim" fill="#404040">
                        <set attributeName="fill" to="#808080" begin="arrowDown.mouseover" end="arrowDown.mouseout"/>
                  </use>
                  <path fill="none" stroke="white" stroke-width="1.5" d="M0,-3.0v7 M-2.5,-0.5L0,-3.0L2.5,-0.5"/>
                </g>
                <g id="arrowLeft" xlink:href="#dirArrow" transform="rotate(270) translate(-36 17)" onmousedown="handlePan(-1,0)">
                  <use xlink:href="#rim" fill="#404040">
                        <set attributeName="fill" to="#808080" begin="arrowLeft.mouseover" end="arrowLeft.mouseout"/>
                  </use>
                  <path fill="none" stroke="white" stroke-width="1.5" d="M0,-3.0v7 M-2.5,-0.5L0,-3.0L2.5,-0.5"/>
                </g>
        </g>
        <svg viewBox="0 0 15 15" width="100%" height="30px" preserveAspectRatio="xMaxYMin meet">
         <g id="arrow_out" transform="scale(0.3 0.3)">
          <a xlink:href="interfacegamedata_1_1gamecomponents_1_1_i_has_stats_a9f7badcb30c9fddd00c760c38341a616_icgraph_org.svg" target="_base">
           <rect id="button" ry="5" rx="5" y="6" x="6" height="38" width="38"
                fill="#f2f5e9" fill-opacity="0.5" stroke="#606060" stroke-width="1.0"/>
           <path id="arrow"
             d="M 11.500037,31.436501 C 11.940474,20.09759 22.043105,11.32322 32.158766,21.979434 L 37.068811,17.246167 C 37.068811,17.246167 37.088388,32 37.088388,32 L 22.160133,31.978069 C 22.160133,31.978069 26.997745,27.140456 26.997745,27.140456 C 18.528582,18.264221 13.291696,25.230495 11.500037,31.436501 z"
             style="fill:#404040;"/>
          </a>
         </g>
        </svg>
</svg>
