<?xml version="1.0" encoding="UTF-8" standalone="no"?>
<!DOCTYPE svg PUBLIC "-//W3C//DTD SVG 1.1//EN"
 "http://www.w3.org/Graphics/SVG/1.1/DTD/svg11.dtd">
<!-- Generated by graphviz version 2.36.0 (20140111.2315)
 -->
<!-- Title: gameengine.engine.GameBuilder Pages: 1 -->
<svg width="486pt" height="224pt"
 viewBox="0.00 0.00 486.00 224.00" xmlns="http://www.w3.org/2000/svg" xmlns:xlink="http://www.w3.org/1999/xlink">
<g id="graph0" class="graph" transform="scale(1 1) rotate(0) translate(4 220)">
<title>gameengine.engine.GameBuilder</title>
<polygon fill="white" stroke="none" points="-4,4 -4,-220 482,-220 482,4 -4,4"/>
<!-- Node1 -->
<g id="node1" class="node"><title>Node1</title>
<polygon fill="#bfbfbf" stroke="black" points="300.5,-98.5 300.5,-117.5 477.5,-117.5 477.5,-98.5 300.5,-98.5"/>
<text text-anchor="middle" x="389" y="-105.5" font-family="Helvetica,sans-Serif" font-size="10.00">gameengine.engine.GameBuilder</text>
</g>
<!-- Node2 -->
<g id="node2" class="node"><title>Node2</title>
<polygon fill="white" stroke="#bfbfbf" points="0,-186 0,-216 188,-216 188,-186 0,-186"/>
<text text-anchor="start" x="8" y="-204" font-family="Helvetica,sans-Serif" font-size="10.00">List&lt; gamedata.gamecomponents.</text>
<text text-anchor="middle" x="94" y="-193" font-family="Helvetica,sans-Serif" font-size="10.00">Piece &gt;</text>
</g>
<!-- Node2&#45;&gt;Node1 -->
<g id="edge1" class="edge"><title>Node2&#45;&gt;Node1</title>
<path fill="none" stroke="#9a32cd" stroke-dasharray="5,2" d="M169.225,-183.41C203.801,-174.642 245.313,-163.293 282,-151 311.94,-140.968 345.579,-126.81 366.773,-117.521"/>
<polygon fill="#9a32cd" stroke="#9a32cd" points="168.045,-180.098 159.199,-185.929 169.751,-186.886 168.045,-180.098"/>
<text text-anchor="middle" x="244" y="-175" font-family="Helvetica,sans-Serif" font-size="10.00"> myPieces</text>
</g>
<!-- Node3 -->
<g id="node3" class="node"><title>Node3</title>
<polygon fill="white" stroke="#bfbfbf" points="0,-137 0,-167 188,-167 188,-137 0,-137"/>
<text text-anchor="start" x="8" y="-155" font-family="Helvetica,sans-Serif" font-size="10.00">List&lt; gamedata.gamecomponents.</text>
<text text-anchor="middle" x="94" y="-144" font-family="Helvetica,sans-Serif" font-size="10.00">Patch &gt;</text>
</g>
<!-- Node3&#45;&gt;Node1 -->
<g id="edge2" class="edge"><title>Node3&#45;&gt;Node1</title>
<path fill="none" stroke="#9a32cd" stroke-dasharray="5,2" d="M198.114,-136.515C240.165,-130.2 287.458,-123.098 324.327,-117.562"/>
<polygon fill="#9a32cd" stroke="#9a32cd" points="197.479,-133.071 188.11,-138.018 198.519,-139.994 197.479,-133.071"/>
<text text-anchor="middle" x="244" y="-139" font-family="Helvetica,sans-Serif" font-size="10.00"> myPatches</text>
</g>
<!-- Node4 -->
<g id="node4" class="node"><title>Node4</title>
<polygon fill="white" stroke="#bfbfbf" points="78,-98.5 78,-117.5 110,-117.5 110,-98.5 78,-98.5"/>
<text text-anchor="middle" x="94" y="-105.5" font-family="Helvetica,sans-Serif" font-size="10.00">File</text>
</g>
<!-- Node4&#45;&gt;Node1 -->
<g id="edge3" class="edge"><title>Node4&#45;&gt;Node1</title>
<path fill="none" stroke="#9a32cd" stroke-dasharray="5,2" d="M120.462,-108C160.16,-108 238.65,-108 300.395,-108"/>
<polygon fill="#9a32cd" stroke="#9a32cd" points="120.34,-104.5 110.34,-108 120.34,-111.5 120.34,-104.5"/>
<text text-anchor="middle" x="244" y="-111" font-family="Helvetica,sans-Serif" font-size="10.00"> mySampleJson</text>
</g>
<!-- Node5 -->
<g id="node5" class="node"><title>Node5</title>
<polygon fill="white" stroke="#bfbfbf" points="0,-49 0,-79 188,-79 188,-49 0,-49"/>
<text text-anchor="start" x="8" y="-67" font-family="Helvetica,sans-Serif" font-size="10.00">List&lt; gamedata.gamecomponents.</text>
<text text-anchor="middle" x="94" y="-56" font-family="Helvetica,sans-Serif" font-size="10.00">Level &gt;</text>
</g>
<!-- Node5&#45;&gt;Node1 -->
<g id="edge4" class="edge"><title>Node5&#45;&gt;Node1</title>
<path fill="none" stroke="#9a32cd" stroke-dasharray="5,2" d="M198.114,-79.4847C240.165,-85.7995 287.458,-92.9015 324.327,-98.4381"/>
<polygon fill="#9a32cd" stroke="#9a32cd" points="198.519,-76.0063 188.11,-77.9823 197.479,-82.9287 198.519,-76.0063"/>
<text text-anchor="middle" x="244" y="-95" font-family="Helvetica,sans-Serif" font-size="10.00"> myLevels</text>
</g>
<!-- Node6 -->
<g id="node6" class="node"><title>Node6</title>
<polygon fill="white" stroke="#bfbfbf" points="24.5,-0 24.5,-30 163.5,-30 163.5,-0 24.5,-0"/>
<text text-anchor="start" x="32.5" y="-18" font-family="Helvetica,sans-Serif" font-size="10.00">List&lt; gameengine.player.</text>
<text text-anchor="middle" x="94" y="-7" font-family="Helvetica,sans-Serif" font-size="10.00">Player &gt;</text>
</g>
<!-- Node6&#45;&gt;Node1 -->
<g id="edge5" class="edge"><title>Node6&#45;&gt;Node1</title>
<path fill="none" stroke="#9a32cd" stroke-dasharray="5,2" d="M164.309,-32.6649C172.306,-34.7686 180.337,-36.9111 188,-39 229.937,-50.4318 240.857,-51.9775 282,-66 311.229,-75.9619 344.197,-89.3789 365.493,-98.3409"/>
<polygon fill="#9a32cd" stroke="#9a32cd" points="165.159,-29.2695 154.599,-30.1242 163.387,-36.0415 165.159,-29.2695"/>
<text text-anchor="middle" x="244" y="-69" font-family="Helvetica,sans-Serif" font-size="10.00"> myPlayers</text>
</g>
</g>
</svg>
