<?xml version="1.0" encoding="UTF-8" standalone="no"?>
<!DOCTYPE svg PUBLIC "-//W3C//DTD SVG 1.1//EN"
 "http://www.w3.org/Graphics/SVG/1.1/DTD/svg11.dtd">
<!-- Generated by graphviz version 2.36.0 (20140111.2315)
 -->
<!-- Title: gamedata.gamecomponents.Patch.toString Pages: 1 -->
<svg width="846pt" height="136pt"
 viewBox="0.00 0.00 846.00 136.00" xmlns="http://www.w3.org/2000/svg" xmlns:xlink="http://www.w3.org/1999/xlink">
<g id="graph0" class="graph" transform="scale(1 1) rotate(0) translate(4 132)">
<title>gamedata.gamecomponents.Patch.toString</title>
<polygon fill="white" stroke="none" points="-4,4 -4,-132 842,-132 842,4 -4,4"/>
<!-- Node1 -->
<g id="node1" class="node"><title>Node1</title>
<polygon fill="#bfbfbf" stroke="black" points="0,-24 0,-54 160,-54 160,-24 0,-24"/>
<text text-anchor="start" x="8" y="-42" font-family="Helvetica,sans-Serif" font-size="10.00">gamedata.gamecomponents.</text>
<text text-anchor="middle" x="80" y="-31" font-family="Helvetica,sans-Serif" font-size="10.00">Patch.toString</text>
</g>
<!-- Node2 -->
<g id="node2" class="node"><title>Node2</title>
<g id="a_node2"><a xlink:href="../../d7/dd4/classauthoring_1_1data_1_1_patch_instance_data.html#af4709ab2b1fb90846ae8d56fa277496b" target="_top" xlink:title="authoring.data.PatchInstance\lData.replace">
<polygon fill="white" stroke="black" points="196.5,-49 196.5,-79 353.5,-79 353.5,-49 196.5,-49"/>
<text text-anchor="start" x="204.5" y="-67" font-family="Helvetica,sans-Serif" font-size="10.00">authoring.data.PatchInstance</text>
<text text-anchor="middle" x="275" y="-56" font-family="Helvetica,sans-Serif" font-size="10.00">Data.replace</text>
</a>
</g>
</g>
<!-- Node1&#45;&gt;Node2 -->
<g id="edge1" class="edge"><title>Node1&#45;&gt;Node2</title>
<path fill="none" stroke="midnightblue" d="M170.229,-50.5582C178.94,-51.6865 187.73,-52.8251 196.313,-53.9369"/>
<polygon fill="midnightblue" stroke="midnightblue" points="170.424,-47.0543 160.057,-49.2406 169.525,-53.9963 170.424,-47.0543"/>
</g>
<!-- Node6 -->
<g id="node6" class="node"><title>Node6</title>
<g id="a_node6"><a xlink:href="../../d7/dd4/classauthoring_1_1data_1_1_patch_instance_data.html#a11093c677748d5c3da9e4aa2ca9acee2" target="_top" xlink:title="authoring.data.PatchInstance\lData.terrainAtLoc">
<polygon fill="white" stroke="black" points="196.5,-0 196.5,-30 353.5,-30 353.5,-0 196.5,-0"/>
<text text-anchor="start" x="204.5" y="-18" font-family="Helvetica,sans-Serif" font-size="10.00">authoring.data.PatchInstance</text>
<text text-anchor="middle" x="275" y="-7" font-family="Helvetica,sans-Serif" font-size="10.00">Data.terrainAtLoc</text>
</a>
</g>
</g>
<!-- Node1&#45;&gt;Node6 -->
<g id="edge5" class="edge"><title>Node1&#45;&gt;Node6</title>
<path fill="none" stroke="midnightblue" d="M170.229,-27.9041C178.94,-26.821 187.73,-25.7279 196.313,-24.6605"/>
<polygon fill="midnightblue" stroke="midnightblue" points="169.549,-24.4617 160.057,-29.169 170.413,-31.4082 169.549,-24.4617"/>
</g>
<!-- Node3 -->
<g id="node3" class="node"><title>Node3</title>
<g id="a_node3"><a xlink:href="../../d7/dd4/classauthoring_1_1data_1_1_patch_instance_data.html#aa4da6c694f1ce08740a61884498439b0" target="_top" xlink:title="authoring.data.PatchInstance\lData.replace">
<polygon fill="white" stroke="black" points="414.5,-98 414.5,-128 571.5,-128 571.5,-98 414.5,-98"/>
<text text-anchor="start" x="422.5" y="-116" font-family="Helvetica,sans-Serif" font-size="10.00">authoring.data.PatchInstance</text>
<text text-anchor="middle" x="493" y="-105" font-family="Helvetica,sans-Serif" font-size="10.00">Data.replace</text>
</a>
</g>
</g>
<!-- Node2&#45;&gt;Node3 -->
<g id="edge2" class="edge"><title>Node2&#45;&gt;Node3</title>
<path fill="none" stroke="midnightblue" d="M352.077,-81.2581C376.144,-86.718 402.536,-92.705 425.85,-97.9938"/>
<polygon fill="midnightblue" stroke="midnightblue" points="352.802,-77.8337 342.275,-79.0346 351.253,-84.6603 352.802,-77.8337"/>
</g>
<!-- Node4 -->
<g id="node4" class="node"><title>Node4</title>
<g id="a_node4"><a xlink:href="../../da/d4c/classauthoring__environment_1_1_g_u_i_grid.html#a952391a274a83f5eee0044d7e5be3673" target="_top" xlink:title="authoring_environment.GUIGrid.replace\lPatchType">
<polygon fill="white" stroke="black" points="390,-49 390,-79 596,-79 596,-49 390,-49"/>
<text text-anchor="start" x="398" y="-67" font-family="Helvetica,sans-Serif" font-size="10.00">authoring_environment.GUIGrid.replace</text>
<text text-anchor="middle" x="493" y="-56" font-family="Helvetica,sans-Serif" font-size="10.00">PatchType</text>
</a>
</g>
</g>
<!-- Node2&#45;&gt;Node4 -->
<g id="edge3" class="edge"><title>Node2&#45;&gt;Node4</title>
<path fill="none" stroke="midnightblue" d="M363.684,-64C372.291,-64 381.077,-64 389.812,-64"/>
<polygon fill="midnightblue" stroke="midnightblue" points="363.676,-60.5001 353.676,-64 363.676,-67.5001 363.676,-60.5001"/>
</g>
<!-- Node5 -->
<g id="node5" class="node"><title>Node5</title>
<g id="a_node5"><a xlink:href="../../da/d4c/classauthoring__environment_1_1_g_u_i_grid.html#a89d8eeee5ec72e145a2c60735013581e" target="_top" xlink:title="authoring_environment.GUIGrid.update">
<polygon fill="white" stroke="black" points="632.5,-54.5 632.5,-73.5 837.5,-73.5 837.5,-54.5 632.5,-54.5"/>
<text text-anchor="middle" x="735" y="-61.5" font-family="Helvetica,sans-Serif" font-size="10.00">authoring_environment.GUIGrid.update</text>
</a>
</g>
</g>
<!-- Node4&#45;&gt;Node5 -->
<g id="edge4" class="edge"><title>Node4&#45;&gt;Node5</title>
<path fill="none" stroke="midnightblue" d="M606.295,-64C614.985,-64 623.73,-64 632.345,-64"/>
<polygon fill="midnightblue" stroke="midnightblue" points="606.13,-60.5001 596.13,-64 606.13,-67.5001 606.13,-60.5001"/>
</g>
<!-- Node7 -->
<g id="node7" class="node"><title>Node7</title>
<g id="a_node7"><a xlink:href="../../d1/d4e/classauthoring__environment_1_1_shape_grid.html#a2b5e0336c52b04f2964756ed52e7c86a" target="_top" xlink:title="authoring_environment.Shape\lGrid.removePatches">
<polygon fill="white" stroke="black" points="412,-0 412,-30 574,-30 574,-0 412,-0"/>
<text text-anchor="start" x="420" y="-18" font-family="Helvetica,sans-Serif" font-size="10.00">authoring_environment.Shape</text>
<text text-anchor="middle" x="493" y="-7" font-family="Helvetica,sans-Serif" font-size="10.00">Grid.removePatches</text>
</a>
</g>
</g>
<!-- Node6&#45;&gt;Node7 -->
<g id="edge6" class="edge"><title>Node6&#45;&gt;Node7</title>
<path fill="none" stroke="midnightblue" d="M363.962,-15C379.767,-15 396.166,-15 411.74,-15"/>
<polygon fill="midnightblue" stroke="midnightblue" points="363.676,-11.5001 353.676,-15 363.676,-18.5001 363.676,-11.5001"/>
</g>
</g>
</svg>
