<?xml version="1.0" encoding="UTF-8" standalone="no"?>
<!DOCTYPE svg PUBLIC "-//W3C//DTD SVG 1.1//EN"
 "http://www.w3.org/Graphics/SVG/1.1/DTD/svg11.dtd">
<!-- Generated by graphviz version 2.36.0 (20140111.2315)
 -->
<!-- Title: authoring.eventeditor.EventEditorController.handleNewAction Pages: 1 -->
<svg width="798pt" height="136pt"
 viewBox="0.00 0.00 798.00 136.00" xmlns="http://www.w3.org/2000/svg" xmlns:xlink="http://www.w3.org/1999/xlink">
<g id="graph0" class="graph" transform="scale(1 1) rotate(0) translate(4 132)">
<title>authoring.eventeditor.EventEditorController.handleNewAction</title>
<polygon fill="white" stroke="none" points="-4,4 -4,-132 794,-132 794,4 -4,4"/>
<!-- Node1 -->
<g id="node1" class="node"><title>Node1</title>
<polygon fill="#bfbfbf" stroke="black" points="0,-49 0,-79 176,-79 176,-49 0,-49"/>
<text text-anchor="start" x="8" y="-67" font-family="Helvetica,sans-Serif" font-size="10.00">authoring.eventeditor.Event</text>
<text text-anchor="middle" x="88" y="-56" font-family="Helvetica,sans-Serif" font-size="10.00">EditorController.handleNewAction</text>
</g>
<!-- Node2 -->
<g id="node2" class="node"><title>Node2</title>
<g id="a_node2"><a xlink:href="../../d8/d60/classauthoring_1_1eventeditor_1_1_event_editor_controller.html#abf29beae428be3582faafee10e28c91e" target="_top" xlink:title="authoring.eventeditor.Event\lEditorController.showNewActionWindow">
<polygon fill="white" stroke="black" points="212.5,-49 212.5,-79 415.5,-79 415.5,-49 212.5,-49"/>
<text text-anchor="start" x="220.5" y="-67" font-family="Helvetica,sans-Serif" font-size="10.00">authoring.eventeditor.Event</text>
<text text-anchor="middle" x="314" y="-56" font-family="Helvetica,sans-Serif" font-size="10.00">EditorController.showNewActionWindow</text>
</a>
</g>
</g>
<!-- Node1&#45;&gt;Node2 -->
<g id="edge1" class="edge"><title>Node1&#45;&gt;Node2</title>
<path fill="none" stroke="midnightblue" d="M176.246,-64C184.722,-64 193.397,-64 202.064,-64"/>
<polygon fill="midnightblue" stroke="midnightblue" points="202.222,-67.5001 212.222,-64 202.221,-60.5001 202.222,-67.5001"/>
</g>
<!-- Node3 -->
<g id="node3" class="node"><title>Node3</title>
<g id="a_node3"><a xlink:href="../../dc/dc7/classauthoring_1_1eventeditor_1_1_new_action_controller.html#a1570f3c780766e34f552b1f43dded02d" target="_top" xlink:title="authoring.eventeditor.New\lActionController.loadLambda">
<polygon fill="white" stroke="black" points="452.5,-98 452.5,-128 607.5,-128 607.5,-98 452.5,-98"/>
<text text-anchor="start" x="460.5" y="-116" font-family="Helvetica,sans-Serif" font-size="10.00">authoring.eventeditor.New</text>
<text text-anchor="middle" x="530" y="-105" font-family="Helvetica,sans-Serif" font-size="10.00">ActionController.loadLambda</text>
</a>
</g>
</g>
<!-- Node2&#45;&gt;Node3 -->
<g id="edge2" class="edge"><title>Node2&#45;&gt;Node3</title>
<path fill="none" stroke="midnightblue" d="M380.661,-79.0346C403.668,-84.3024 429.687,-90.2601 453.438,-95.6984"/>
<polygon fill="midnightblue" stroke="midnightblue" points="452.934,-99.1735 463.463,-97.9938 454.496,-92.3501 452.934,-99.1735"/>
</g>
<!-- Node4 -->
<g id="node4" class="node"><title>Node4</title>
<g id="a_node4"><a xlink:href="../../dc/dc7/classauthoring_1_1eventeditor_1_1_new_action_controller.html#aa4c9c74d366adf880aba6513209f566e" target="_top" xlink:title="authoring.eventeditor.New\lActionController.loadState">
<polygon fill="white" stroke="black" points="458.5,-49 458.5,-79 601.5,-79 601.5,-49 458.5,-49"/>
<text text-anchor="start" x="466.5" y="-67" font-family="Helvetica,sans-Serif" font-size="10.00">authoring.eventeditor.New</text>
<text text-anchor="middle" x="530" y="-56" font-family="Helvetica,sans-Serif" font-size="10.00">ActionController.loadState</text>
</a>
</g>
</g>
<!-- Node2&#45;&gt;Node4 -->
<g id="edge3" class="edge"><title>Node2&#45;&gt;Node4</title>
<path fill="none" stroke="midnightblue" d="M415.734,-64C426.66,-64 437.674,-64 448.317,-64"/>
<polygon fill="midnightblue" stroke="midnightblue" points="448.393,-67.5001 458.393,-64 448.393,-60.5001 448.393,-67.5001"/>
</g>
<!-- Node5 -->
<g id="node5" class="node"><title>Node5</title>
<g id="a_node5"><a xlink:href="../../dc/dc7/classauthoring_1_1eventeditor_1_1_new_action_controller.html#a47c21183db250d3493270d1165ea4df8" target="_top" xlink:title="authoring.eventeditor.New\lActionController.loadData">
<polygon fill="white" stroke="black" points="458.5,-0 458.5,-30 601.5,-30 601.5,-0 458.5,-0"/>
<text text-anchor="start" x="466.5" y="-18" font-family="Helvetica,sans-Serif" font-size="10.00">authoring.eventeditor.New</text>
<text text-anchor="middle" x="530" y="-7" font-family="Helvetica,sans-Serif" font-size="10.00">ActionController.loadData</text>
</a>
</g>
</g>
<!-- Node2&#45;&gt;Node5 -->
<g id="edge4" class="edge"><title>Node2&#45;&gt;Node5</title>
<path fill="none" stroke="midnightblue" d="M380.661,-48.9654C403.668,-43.6976 429.687,-37.7399 453.438,-32.3016"/>
<polygon fill="midnightblue" stroke="midnightblue" points="454.496,-35.6499 463.463,-30.0062 452.934,-28.8265 454.496,-35.6499"/>
</g>
<!-- Node6 -->
<g id="node6" class="node"><title>Node6</title>
<g id="a_node6"><a xlink:href="../../d5/d55/classauthoring_1_1data_1_1_events_data_wrapper.html#a89d220fa6146977b51dc14cc64c60678" target="_top" xlink:title="authoring.data.EventsData\lWrapper.getPieceTypes">
<polygon fill="white" stroke="black" points="644,-0 644,-30 790,-30 790,-0 644,-0"/>
<text text-anchor="start" x="652" y="-18" font-family="Helvetica,sans-Serif" font-size="10.00">authoring.data.EventsData</text>
<text text-anchor="middle" x="717" y="-7" font-family="Helvetica,sans-Serif" font-size="10.00">Wrapper.getPieceTypes</text>
</a>
</g>
</g>
<!-- Node5&#45;&gt;Node6 -->
<g id="edge5" class="edge"><title>Node5&#45;&gt;Node6</title>
<path fill="none" stroke="midnightblue" d="M601.732,-15C612.168,-15 622.995,-15 633.641,-15"/>
<polygon fill="midnightblue" stroke="midnightblue" points="633.774,-18.5001 643.774,-15 633.774,-11.5001 633.774,-18.5001"/>
</g>
</g>
</svg>
