<?xml version="1.0" encoding="UTF-8" standalone="no"?>
<!DOCTYPE svg PUBLIC "-//W3C//DTD SVG 1.1//EN"
 "http://www.w3.org/Graphics/SVG/1.1/DTD/svg11.dtd">
<!-- Generated by graphviz version 2.36.0 (20140111.2315)
 -->
<!-- Title: authoring.eventeditor.EventEditorController.handleNewCondition Pages: 1 -->
<svg width="624pt" height="87pt"
 viewBox="0.00 0.00 624.00 87.00" xmlns="http://www.w3.org/2000/svg" xmlns:xlink="http://www.w3.org/1999/xlink">
<g id="graph0" class="graph" transform="scale(1 1) rotate(0) translate(4 83)">
<title>authoring.eventeditor.EventEditorController.handleNewCondition</title>
<polygon fill="white" stroke="none" points="-4,4 -4,-83 620,-83 620,4 -4,4"/>
<!-- Node1 -->
<g id="node1" class="node"><title>Node1</title>
<polygon fill="#bfbfbf" stroke="black" points="0.5,-24 0.5,-54 191.5,-54 191.5,-24 0.5,-24"/>
<text text-anchor="start" x="8.5" y="-42" font-family="Helvetica,sans-Serif" font-size="10.00">authoring.eventeditor.Event</text>
<text text-anchor="middle" x="96" y="-31" font-family="Helvetica,sans-Serif" font-size="10.00">EditorController.handleNewCondition</text>
</g>
<!-- Node2 -->
<g id="node2" class="node"><title>Node2</title>
<g id="a_node2"><a xlink:href="../../d8/d60/classauthoring_1_1eventeditor_1_1_event_editor_controller.html#a6449cb5d1013d9e78486bc62374c64a8" target="_top" xlink:title="authoring.eventeditor.Event\lEditorController.showNewCondition\lWindow">
<polygon fill="white" stroke="black" points="228,-18.5 228,-59.5 410,-59.5 410,-18.5 228,-18.5"/>
<text text-anchor="start" x="236" y="-47.5" font-family="Helvetica,sans-Serif" font-size="10.00">authoring.eventeditor.Event</text>
<text text-anchor="start" x="236" y="-36.5" font-family="Helvetica,sans-Serif" font-size="10.00">EditorController.showNewCondition</text>
<text text-anchor="middle" x="319" y="-25.5" font-family="Helvetica,sans-Serif" font-size="10.00">Window</text>
</a>
</g>
</g>
<!-- Node1&#45;&gt;Node2 -->
<g id="edge1" class="edge"><title>Node1&#45;&gt;Node2</title>
<path fill="none" stroke="midnightblue" d="M191.686,-39C200.275,-39 208.994,-39 217.629,-39"/>
<polygon fill="midnightblue" stroke="midnightblue" points="217.716,-42.5001 227.716,-39 217.716,-35.5001 217.716,-42.5001"/>
</g>
<!-- Node3 -->
<g id="node3" class="node"><title>Node3</title>
<g id="a_node3"><a xlink:href="../../d7/d8d/classauthoring_1_1eventeditor_1_1_new_condition_controller.html#afe1d3a8169e41fbb57c0d407994cb8f6" target="_top" xlink:title="authoring.eventeditor.New\lConditionController.loadLambda">
<polygon fill="white" stroke="black" points="446,-49 446,-79 616,-79 616,-49 446,-49"/>
<text text-anchor="start" x="454" y="-67" font-family="Helvetica,sans-Serif" font-size="10.00">authoring.eventeditor.New</text>
<text text-anchor="middle" x="531" y="-56" font-family="Helvetica,sans-Serif" font-size="10.00">ConditionController.loadLambda</text>
</a>
</g>
</g>
<!-- Node2&#45;&gt;Node3 -->
<g id="edge2" class="edge"><title>Node2&#45;&gt;Node3</title>
<path fill="none" stroke="midnightblue" d="M410.278,-49.7473C418.655,-50.7447 427.16,-51.7571 435.574,-52.7588"/>
<polygon fill="midnightblue" stroke="midnightblue" points="435.432,-56.2666 445.776,-53.9733 436.26,-49.3157 435.432,-56.2666"/>
</g>
<!-- Node4 -->
<g id="node4" class="node"><title>Node4</title>
<g id="a_node4"><a xlink:href="../../d7/d8d/classauthoring_1_1eventeditor_1_1_new_condition_controller.html#afba0819c3420e2d40d91ae23088dd95d" target="_top" xlink:title="authoring.eventeditor.New\lConditionController.loadData">
<polygon fill="white" stroke="black" points="454,-0 454,-30 608,-30 608,-0 454,-0"/>
<text text-anchor="start" x="462" y="-18" font-family="Helvetica,sans-Serif" font-size="10.00">authoring.eventeditor.New</text>
<text text-anchor="middle" x="531" y="-7" font-family="Helvetica,sans-Serif" font-size="10.00">ConditionController.loadData</text>
</a>
</g>
</g>
<!-- Node2&#45;&gt;Node4 -->
<g id="edge3" class="edge"><title>Node2&#45;&gt;Node4</title>
<path fill="none" stroke="midnightblue" d="M410.278,-28.6826C421.427,-27.4083 432.803,-26.1082 443.888,-24.8414"/>
<polygon fill="midnightblue" stroke="midnightblue" points="444.434,-28.3019 453.972,-23.6889 443.639,-21.3471 444.434,-28.3019"/>
</g>
</g>
</svg>
