<?xml version="1.0" encoding="UTF-8" standalone="no"?>
<!DOCTYPE svg PUBLIC "-//W3C//DTD SVG 1.1//EN"
 "http://www.w3.org/Graphics/SVG/1.1/DTD/svg11.dtd">
<!-- Generated by graphviz version 2.36.0 (20140111.2315)
 -->
<!-- Title: authoring.eventeditor.EventEditorController.initialize Pages: 1 -->
<svg width="560pt" height="87pt"
 viewBox="0.00 0.00 560.00 87.00" xmlns="http://www.w3.org/2000/svg" xmlns:xlink="http://www.w3.org/1999/xlink">
<g id="graph0" class="graph" transform="scale(1 1) rotate(0) translate(4 83)">
<title>authoring.eventeditor.EventEditorController.initialize</title>
<polygon fill="white" stroke="none" points="-4,4 -4,-83 556,-83 556,4 -4,4"/>
<!-- Node1 -->
<g id="node1" class="node"><title>Node1</title>
<polygon fill="#bfbfbf" stroke="black" points="0.5,-24 0.5,-54 149.5,-54 149.5,-24 0.5,-24"/>
<text text-anchor="start" x="8.5" y="-42" font-family="Helvetica,sans-Serif" font-size="10.00">authoring.eventeditor.Event</text>
<text text-anchor="middle" x="75" y="-31" font-family="Helvetica,sans-Serif" font-size="10.00">EditorController.initialize</text>
</g>
<!-- Node2 -->
<g id="node2" class="node"><title>Node2</title>
<g id="a_node2"><a xlink:href="../../d8/d60/classauthoring_1_1eventeditor_1_1_event_editor_controller.html#a93fff7a48d4492092faafda67a21acda" target="_top" xlink:title="authoring.eventeditor.Event\lEditorController.showEventInEditor">
<polygon fill="white" stroke="black" points="186,-24 186,-54 366,-54 366,-24 186,-24"/>
<text text-anchor="start" x="194" y="-42" font-family="Helvetica,sans-Serif" font-size="10.00">authoring.eventeditor.Event</text>
<text text-anchor="middle" x="276" y="-31" font-family="Helvetica,sans-Serif" font-size="10.00">EditorController.showEventInEditor</text>
</a>
</g>
</g>
<!-- Node1&#45;&gt;Node2 -->
<g id="edge1" class="edge"><title>Node1&#45;&gt;Node2</title>
<path fill="none" stroke="midnightblue" d="M149.535,-39C158.142,-39 167.029,-39 175.91,-39"/>
<polygon fill="midnightblue" stroke="midnightblue" points="175.921,-42.5001 185.921,-39 175.921,-35.5001 175.921,-42.5001"/>
</g>
<!-- Node3 -->
<g id="node3" class="node"><title>Node3</title>
<g id="a_node3"><a xlink:href="../../d5/d5e/classgamedata_1_1events_1_1_event.html#a0f68737849a6bdbf9db6ff8416d3904f" target="_top" xlink:title="gamedata.events.Event.get\lConditions">
<polygon fill="white" stroke="black" points="402,-49 402,-79 552,-79 552,-49 402,-49"/>
<text text-anchor="start" x="410" y="-67" font-family="Helvetica,sans-Serif" font-size="10.00">gamedata.events.Event.get</text>
<text text-anchor="middle" x="477" y="-56" font-family="Helvetica,sans-Serif" font-size="10.00">Conditions</text>
</a>
</g>
</g>
<!-- Node2&#45;&gt;Node3 -->
<g id="edge2" class="edge"><title>Node2&#45;&gt;Node3</title>
<path fill="none" stroke="midnightblue" d="M366.023,-50.1838C374.651,-51.2678 383.386,-52.365 391.963,-53.4426"/>
<polygon fill="midnightblue" stroke="midnightblue" points="391.586,-56.9226 401.944,-54.6965 392.458,-49.9772 391.586,-56.9226"/>
</g>
<!-- Node4 -->
<g id="node4" class="node"><title>Node4</title>
<g id="a_node4"><a xlink:href="../../d5/d5e/classgamedata_1_1events_1_1_event.html#af09bcc2b8f0948068057a64715709ffe" target="_top" xlink:title="gamedata.events.Event.get\lGlobalActions">
<polygon fill="white" stroke="black" points="402,-0 402,-30 552,-30 552,-0 402,-0"/>
<text text-anchor="start" x="410" y="-18" font-family="Helvetica,sans-Serif" font-size="10.00">gamedata.events.Event.get</text>
<text text-anchor="middle" x="477" y="-7" font-family="Helvetica,sans-Serif" font-size="10.00">GlobalActions</text>
</a>
</g>
</g>
<!-- Node2&#45;&gt;Node4 -->
<g id="edge3" class="edge"><title>Node2&#45;&gt;Node4</title>
<path fill="none" stroke="midnightblue" d="M366.023,-28.2635C374.651,-27.223 383.386,-26.1696 391.963,-25.1351"/>
<polygon fill="midnightblue" stroke="midnightblue" points="392.435,-28.6036 401.944,-23.9314 391.597,-21.654 392.435,-28.6036"/>
</g>
</g>
</svg>
