<?xml version="1.0" encoding="UTF-8" standalone="no"?>
<!DOCTYPE svg PUBLIC "-//W3C//DTD SVG 1.1//EN"
 "http://www.w3.org/Graphics/SVG/1.1/DTD/svg11.dtd">
<!-- Generated by graphviz version 2.36.0 (20140111.2315)
 -->
<!-- Title: /tmp/git/duke&#45;compsci308&#45;fall2014/voogasalad_VOOGirlsGeneration/repository/src/gamedata Pages: 1 -->
<svg width="754pt" height="111pt"
 viewBox="0.00 0.00 754.00 111.00" xmlns="http://www.w3.org/2000/svg" xmlns:xlink="http://www.w3.org/1999/xlink">
<g id="graph0" class="graph" transform="scale(1 1) rotate(0) translate(4 107)">
<title>/tmp/git/duke&#45;compsci308&#45;fall2014/voogasalad_VOOGirlsGeneration/repository/src/gamedata</title>
<polygon fill="white" stroke="none" points="-4,4 -4,-107 750,-107 750,4 -4,4"/>
<g id="clust1" class="cluster"><title>clusterdir_a1de4f3ad513f8c9c22c4a95b47bdcaa</title>
<g id="a_clust1"><a xlink:href="dir_a1de4f3ad513f8c9c22c4a95b47bdcaa.html" target="_top" xlink:title="src">
<polygon fill="#ddddee" stroke="black" points="8,-8 8,-95 738,-95 738,-8 8,-8"/>
<text text-anchor="middle" x="373" y="-83" font-family="Helvetica,sans-Serif" font-size="10.00">src</text>
</a>
</g>
</g>
<g id="clust2" class="cluster"><title>clusterdir_2b390acdae39bd680c561b39dea5c83d</title>
<g id="a_clust2"><a xlink:href="dir_2b390acdae39bd680c561b39dea5c83d.html" target="_top">
<polygon fill="#eeeeff" stroke="black" points="16,-16 16,-68 730,-68 730,-16 16,-16"/>
</a>
</g>
</g>
<!-- dir_2b390acdae39bd680c561b39dea5c83d -->
<g id="node1" class="node"><title>dir_2b390acdae39bd680c561b39dea5c83d</title>
<text text-anchor="middle" x="689" y="-39.5" font-family="Helvetica,sans-Serif" font-size="10.00">gamedata</text>
</g>
<!-- dir_46a54a1d1f3ece99555099b2251980f2 -->
<g id="node2" class="node"><title>dir_46a54a1d1f3ece99555099b2251980f2</title>
<g id="a_node2"><a xlink:href="dir_46a54a1d1f3ece99555099b2251980f2.html" target="_top" xlink:title="action">
<polygon fill="white" stroke="red" points="638,-60 584,-60 584,-24 638,-24 638,-60"/>
<text text-anchor="middle" x="611" y="-39.5" font-family="Helvetica,sans-Serif" font-size="10.00">action</text>
</a>
</g>
</g>
<!-- dir_cef561701b5798bcbb84ae06e3a3fa99 -->
<g id="node3" class="node"><title>dir_cef561701b5798bcbb84ae06e3a3fa99</title>
<g id="a_node3"><a xlink:href="dir_cef561701b5798bcbb84ae06e3a3fa99.html" target="_top" xlink:title="events">
<polygon fill="white" stroke="red" points="566,-60 512,-60 512,-24 566,-24 566,-60"/>
<text text-anchor="middle" x="539" y="-39.5" font-family="Helvetica,sans-Serif" font-size="10.00">events</text>
</a>
</g>
</g>
<!-- dir_225a3df3635eb436b52e34bcacbc28b0 -->
<g id="node4" class="node"><title>dir_225a3df3635eb436b52e34bcacbc28b0</title>
<g id="a_node4"><a xlink:href="dir_225a3df3635eb436b52e34bcacbc28b0.html" target="_top" xlink:title="gamecomponents">
<polygon fill="white" stroke="black" points="494,-60 390,-60 390,-24 494,-24 494,-60"/>
<text text-anchor="middle" x="442" y="-39.5" font-family="Helvetica,sans-Serif" font-size="10.00">gamecomponents</text>
</a>
</g>
</g>
<!-- dir_6a7748b1550a59c45f4f92afeaf74903 -->
<g id="node5" class="node"><title>dir_6a7748b1550a59c45f4f92afeaf74903</title>
<g id="a_node5"><a xlink:href="dir_6a7748b1550a59c45f4f92afeaf74903.html" target="_top" xlink:title="goals">
<polygon fill="white" stroke="black" points="372,-60 318,-60 318,-24 372,-24 372,-60"/>
<text text-anchor="middle" x="345" y="-39.5" font-family="Helvetica,sans-Serif" font-size="10.00">goals</text>
</a>
</g>
</g>
<!-- dir_6863c32267b36adab3f18b164e858d4a -->
<g id="node6" class="node"><title>dir_6863c32267b36adab3f18b164e858d4a</title>
<g id="a_node6"><a xlink:href="dir_6863c32267b36adab3f18b164e858d4a.html" target="_top" xlink:title="JSON">
<polygon fill="white" stroke="black" points="300,-60 246,-60 246,-24 300,-24 300,-60"/>
<text text-anchor="middle" x="273" y="-39.5" font-family="Helvetica,sans-Serif" font-size="10.00">JSON</text>
</a>
</g>
</g>
<!-- dir_14e31bb4fc4565f15e32e65de8f5a291 -->
<g id="node7" class="node"><title>dir_14e31bb4fc4565f15e32e65de8f5a291</title>
<g id="a_node7"><a xlink:href="dir_14e31bb4fc4565f15e32e65de8f5a291.html" target="_top" xlink:title="rules">
<polygon fill="white" stroke="black" points="228,-60 174,-60 174,-24 228,-24 228,-60"/>
<text text-anchor="middle" x="201" y="-39.5" font-family="Helvetica,sans-Serif" font-size="10.00">rules</text>
</a>
</g>
</g>
<!-- dir_b712d2c6855ccb77ff77e6916ca28f20 -->
<g id="node8" class="node"><title>dir_b712d2c6855ccb77ff77e6916ca28f20</title>
<g id="a_node8"><a xlink:href="dir_b712d2c6855ccb77ff77e6916ca28f20.html" target="_top" xlink:title="stats">
<polygon fill="white" stroke="black" points="156,-60 102,-60 102,-24 156,-24 156,-60"/>
<text text-anchor="middle" x="129" y="-39.5" font-family="Helvetica,sans-Serif" font-size="10.00">stats</text>
</a>
</g>
</g>
<!-- dir_bd1c6e1bb17c1b9e27b9a97181517edc -->
<g id="node9" class="node"><title>dir_bd1c6e1bb17c1b9e27b9a97181517edc</title>
<g id="a_node9"><a xlink:href="dir_bd1c6e1bb17c1b9e27b9a97181517edc.html" target="_top" xlink:title="wrappers">
<polygon fill="white" stroke="black" points="83.5,-60 24.5,-60 24.5,-24 83.5,-24 83.5,-60"/>
<text text-anchor="middle" x="54" y="-39.5" font-family="Helvetica,sans-Serif" font-size="10.00">wrappers</text>
</a>
</g>
</g>
</g>
</svg>
