<?xml version="1.0" encoding="UTF-8" standalone="no"?>
<!DOCTYPE svg PUBLIC "-//W3C//DTD SVG 1.1//EN"
 "http://www.w3.org/Graphics/SVG/1.1/DTD/svg11.dtd">
<!-- Generated by graphviz version 2.36.0 (20140111.2315)
 -->
<!-- Title: Graphical Class Hierarchy Pages: 1 -->
<svg width="484pt" height="305pt"
 viewBox="0.00 0.00 484.00 305.00" xmlns="http://www.w3.org/2000/svg" xmlns:xlink="http://www.w3.org/1999/xlink">
<g id="graph0" class="graph" transform="scale(1 1) rotate(0) translate(4 301)">
<title>Graphical Class Hierarchy</title>
<polygon fill="white" stroke="none" points="-4,4 -4,-301 480,-301 480,4 -4,4"/>
<!-- Node1 -->
<g id="node1" class="node"><title>Node1</title>
<polygon fill="white" stroke="#bfbfbf" points="0,-133.5 0,-152.5 40,-152.5 40,-133.5 0,-133.5"/>
<text text-anchor="middle" x="20" y="-140.5" font-family="Helvetica,sans-Serif" font-size="10.00">Pane</text>
</g>
<!-- Node2 -->
<g id="node2" class="node"><title>Node2</title>
<g id="a_node2"><a xlink:href="d8/d5f/classauthoring_1_1eventeditor_1_1_condition_editor_pane.html" target="_top" xlink:title="authoring.eventeditor.Condition\lEditorPane">
<polygon fill="white" stroke="black" points="83.5,-267 83.5,-297 250.5,-297 250.5,-267 83.5,-267"/>
<text text-anchor="start" x="91.5" y="-285" font-family="Helvetica,sans-Serif" font-size="10.00">authoring.eventeditor.Condition</text>
<text text-anchor="middle" x="167" y="-274" font-family="Helvetica,sans-Serif" font-size="10.00">EditorPane</text>
</a>
</g>
</g>
<!-- Node1&#45;&gt;Node2 -->
<g id="edge1" class="edge"><title>Node1&#45;&gt;Node2</title>
<path fill="none" stroke="midnightblue" d="M25.1617,-162.571C31.6098,-188.078 46.4763,-232.328 76,-257 80.6042,-260.848 85.7574,-264.105 91.205,-266.863"/>
<polygon fill="midnightblue" stroke="midnightblue" points="28.5161,-161.544 22.832,-152.603 21.6998,-163.137 28.5161,-161.544"/>
</g>
<!-- Node3 -->
<g id="node3" class="node"><title>Node3</title>
<g id="a_node3"><a xlink:href="d1/d4e/classauthoring__environment_1_1_shape_grid.html" target="_top" xlink:title="authoring_environment.ShapeGrid">
<polygon fill="white" stroke="black" points="76,-228.5 76,-247.5 258,-247.5 258,-228.5 76,-228.5"/>
<text text-anchor="middle" x="167" y="-235.5" font-family="Helvetica,sans-Serif" font-size="10.00">authoring_environment.ShapeGrid</text>
</a>
</g>
</g>
<!-- Node1&#45;&gt;Node3 -->
<g id="edge2" class="edge"><title>Node1&#45;&gt;Node3</title>
<path fill="none" stroke="midnightblue" d="M29.6672,-162.004C38.6982,-179.589 54.5367,-205.054 76,-219 81.892,-222.828 88.4173,-225.902 95.1842,-228.367"/>
<polygon fill="midnightblue" stroke="midnightblue" points="32.6668,-160.169 25.1455,-152.707 26.3719,-163.231 32.6668,-160.169"/>
</g>
<!-- Node6 -->
<g id="node6" class="node"><title>Node6</title>
<g id="a_node6"><a xlink:href="d1/dfc/classfxml__main_1_1_action_editor.html" target="_top" xlink:title="fxml_main.ActionEditor">
<polygon fill="white" stroke="black" points="103.5,-190.5 103.5,-209.5 230.5,-209.5 230.5,-190.5 103.5,-190.5"/>
<text text-anchor="middle" x="167" y="-197.5" font-family="Helvetica,sans-Serif" font-size="10.00">fxml_main.ActionEditor</text>
</a>
</g>
</g>
<!-- Node1&#45;&gt;Node6 -->
<g id="edge5" class="edge"><title>Node1&#45;&gt;Node6</title>
<path fill="none" stroke="midnightblue" d="M40.0779,-158.992C50.1813,-166.707 63.1368,-175.465 76,-181 84.9482,-184.85 94.742,-187.944 104.47,-190.424"/>
<polygon fill="midnightblue" stroke="midnightblue" points="42.0166,-156.063 32.0073,-152.589 37.6659,-161.547 42.0166,-156.063"/>
</g>
<!-- Node7 -->
<g id="node7" class="node"><title>Node7</title>
<g id="a_node7"><a xlink:href="d5/db5/classfxml__main_1_1_action_viewer.html" target="_top" xlink:title="fxml_main.ActionViewer">
<polygon fill="white" stroke="black" points="101.5,-152.5 101.5,-171.5 232.5,-171.5 232.5,-152.5 101.5,-152.5"/>
<text text-anchor="middle" x="167" y="-159.5" font-family="Helvetica,sans-Serif" font-size="10.00">fxml_main.ActionViewer</text>
</a>
</g>
</g>
<!-- Node1&#45;&gt;Node7 -->
<g id="edge6" class="edge"><title>Node1&#45;&gt;Node7</title>
<path fill="none" stroke="midnightblue" d="M50.2518,-146.833C64.9776,-148.763 83.4552,-151.184 101.296,-153.522"/>
<polygon fill="midnightblue" stroke="midnightblue" points="50.6249,-143.352 40.2549,-145.523 49.7154,-150.293 50.6249,-143.352"/>
</g>
<!-- Node8 -->
<g id="node8" class="node"><title>Node8</title>
<g id="a_node8"><a xlink:href="da/dc9/classfxml__main_1_1_patch_type_editor.html" target="_top" xlink:title="fxml_main.PatchTypeEditor">
<polygon fill="white" stroke="black" points="95,-114.5 95,-133.5 239,-133.5 239,-114.5 95,-114.5"/>
<text text-anchor="middle" x="167" y="-121.5" font-family="Helvetica,sans-Serif" font-size="10.00">fxml_main.PatchTypeEditor</text>
</a>
</g>
</g>
<!-- Node1&#45;&gt;Node8 -->
<g id="edge7" class="edge"><title>Node1&#45;&gt;Node8</title>
<path fill="none" stroke="midnightblue" d="M50.3612,-139.153C63.2727,-137.461 79.0528,-135.393 94.7544,-133.336"/>
<polygon fill="midnightblue" stroke="midnightblue" points="49.7154,-135.707 40.2549,-140.477 50.6249,-142.648 49.7154,-135.707"/>
</g>
<!-- Node9 -->
<g id="node9" class="node"><title>Node9</title>
<g id="a_node9"><a xlink:href="df/d59/classfxml__main_1_1_patch_viewer.html" target="_top" xlink:title="fxml_main.PatchViewer">
<polygon fill="white" stroke="black" points="103.5,-76.5 103.5,-95.5 230.5,-95.5 230.5,-76.5 103.5,-76.5"/>
<text text-anchor="middle" x="167" y="-83.5" font-family="Helvetica,sans-Serif" font-size="10.00">fxml_main.PatchViewer</text>
</a>
</g>
</g>
<!-- Node1&#45;&gt;Node9 -->
<g id="edge8" class="edge"><title>Node1&#45;&gt;Node9</title>
<path fill="none" stroke="midnightblue" d="M40.0779,-127.008C50.1813,-119.293 63.1368,-110.535 76,-105 84.9482,-101.15 94.742,-98.0558 104.47,-95.576"/>
<polygon fill="midnightblue" stroke="midnightblue" points="37.6659,-124.453 32.0073,-133.411 42.0166,-129.937 37.6659,-124.453"/>
</g>
<!-- Node10 -->
<g id="node10" class="node"><title>Node10</title>
<g id="a_node10"><a xlink:href="df/dbd/classfxml__main_1_1_piece_editor.html" target="_top" xlink:title="fxml_main.PieceEditor">
<polygon fill="white" stroke="black" points="106,-38.5 106,-57.5 228,-57.5 228,-38.5 106,-38.5"/>
<text text-anchor="middle" x="167" y="-45.5" font-family="Helvetica,sans-Serif" font-size="10.00">fxml_main.PieceEditor</text>
</a>
</g>
</g>
<!-- Node1&#45;&gt;Node10 -->
<g id="edge9" class="edge"><title>Node1&#45;&gt;Node10</title>
<path fill="none" stroke="midnightblue" d="M29.6672,-123.996C38.6982,-106.411 54.5367,-80.9459 76,-67 84.9719,-61.1704 95.4123,-57.0909 105.938,-54.2445"/>
<polygon fill="midnightblue" stroke="midnightblue" points="26.3719,-122.769 25.1455,-133.293 32.6668,-125.831 26.3719,-122.769"/>
</g>
<!-- Node11 -->
<g id="node11" class="node"><title>Node11</title>
<g id="a_node11"><a xlink:href="d9/d15/classfxml__main_1_1_piece_type_editor.html" target="_top" xlink:title="fxml_main.PieceTypeEditor">
<polygon fill="white" stroke="black" points="95.5,-0.5 95.5,-19.5 238.5,-19.5 238.5,-0.5 95.5,-0.5"/>
<text text-anchor="middle" x="167" y="-7.5" font-family="Helvetica,sans-Serif" font-size="10.00">fxml_main.PieceTypeEditor</text>
</a>
</g>
</g>
<!-- Node1&#45;&gt;Node11 -->
<g id="edge10" class="edge"><title>Node1&#45;&gt;Node11</title>
<path fill="none" stroke="midnightblue" d="M24.9337,-123.147C31.1287,-97.3279 45.7152,-52.7316 76,-29 81.7821,-24.469 88.3922,-20.9529 95.3459,-18.2333"/>
<polygon fill="midnightblue" stroke="midnightblue" points="21.442,-122.729 22.711,-133.248 28.2784,-124.233 21.442,-122.729"/>
</g>
<!-- Node4 -->
<g id="node4" class="node"><title>Node4</title>
<g id="a_node4"><a xlink:href="df/d00/classauthoring__environment_1_1_jennie_grid.html" target="_top" xlink:title="authoring_environment.JennieGrid">
<polygon fill="white" stroke="black" points="295.5,-247.5 295.5,-266.5 474.5,-266.5 474.5,-247.5 295.5,-247.5"/>
<text text-anchor="middle" x="385" y="-254.5" font-family="Helvetica,sans-Serif" font-size="10.00">authoring_environment.JennieGrid</text>
</a>
</g>
</g>
<!-- Node3&#45;&gt;Node4 -->
<g id="edge3" class="edge"><title>Node3&#45;&gt;Node4</title>
<path fill="none" stroke="midnightblue" d="M268.259,-246.819C277.35,-247.619 286.515,-248.425 295.494,-249.215"/>
<polygon fill="midnightblue" stroke="midnightblue" points="268.308,-243.31 258.039,-245.92 267.694,-250.283 268.308,-243.31"/>
</g>
<!-- Node5 -->
<g id="node5" class="node"><title>Node5</title>
<g id="a_node5"><a xlink:href="d0/d82/classauthoring__environment_1_1_sandy_grid.html" target="_top" xlink:title="authoring_environment.SandyGrid">
<polygon fill="white" stroke="black" points="294.5,-209.5 294.5,-228.5 475.5,-228.5 475.5,-209.5 294.5,-209.5"/>
<text text-anchor="middle" x="385" y="-216.5" font-family="Helvetica,sans-Serif" font-size="10.00">authoring_environment.SandyGrid</text>
</a>
</g>
</g>
<!-- Node3&#45;&gt;Node5 -->
<g id="edge4" class="edge"><title>Node3&#45;&gt;Node5</title>
<path fill="none" stroke="midnightblue" d="M268.256,-229.181C276.997,-228.412 285.807,-227.637 294.454,-226.877"/>
<polygon fill="midnightblue" stroke="midnightblue" points="267.694,-225.717 258.039,-230.08 268.308,-232.69 267.694,-225.717"/>
</g>
</g>
</svg>
