<?xml version="1.0" encoding="UTF-8" standalone="no"?>
<!DOCTYPE svg PUBLIC "-//W3C//DTD SVG 1.1//EN"
 "http://www.w3.org/Graphics/SVG/1.1/DTD/svg11.dtd">
<!-- Generated by graphviz version 2.36.0 (20140111.2315)
 -->
<!-- Title: Graphical Class Hierarchy Pages: 1 -->
<svg width="300pt" height="77pt"
 viewBox="0.00 0.00 300.00 77.00" xmlns="http://www.w3.org/2000/svg" xmlns:xlink="http://www.w3.org/1999/xlink">
<g id="graph0" class="graph" transform="scale(1 1) rotate(0) translate(4 73)">
<title>Graphical Class Hierarchy</title>
<polygon fill="white" stroke="none" points="-4,4 -4,-73 296,-73 296,4 -4,4"/>
<!-- Node1 -->
<g id="node1" class="node"><title>Node1</title>
<polygon fill="white" stroke="#bfbfbf" points="0,-22.5 0,-41.5 72,-41.5 72,-22.5 0,-22.5"/>
<text text-anchor="middle" x="36" y="-29.5" font-family="Helvetica,sans-Serif" font-size="10.00">BorderPane</text>
</g>
<!-- Node2 -->
<g id="node2" class="node"><title>Node2</title>
<g id="a_node2"><a xlink:href="d9/df7/classauthoring_1_1abstractfeatures_1_1_creator_pane.html" target="_top" xlink:title="authoring.abstractfeatures.\lCreatorPane">
<polygon fill="white" stroke="black" points="126,-39 126,-69 274,-69 274,-39 126,-39"/>
<text text-anchor="start" x="134" y="-57" font-family="Helvetica,sans-Serif" font-size="10.00">authoring.abstractfeatures.</text>
<text text-anchor="middle" x="200" y="-46" font-family="Helvetica,sans-Serif" font-size="10.00">CreatorPane</text>
</a>
</g>
</g>
<!-- Node1&#45;&gt;Node2 -->
<g id="edge1" class="edge"><title>Node1&#45;&gt;Node2</title>
<path fill="none" stroke="midnightblue" d="M82.1884,-38.1367C95.7878,-39.9835 111.073,-42.0594 125.994,-44.0856"/>
<polygon fill="midnightblue" stroke="midnightblue" points="82.5316,-34.6513 72.1516,-36.7737 81.5896,-41.5876 82.5316,-34.6513"/>
</g>
<!-- Node3 -->
<g id="node3" class="node"><title>Node3</title>
<g id="a_node3"><a xlink:href="df/d3a/classauthoring__environment_1_1_vooga_view.html" target="_top" xlink:title="authoring_environment.VoogaView">
<polygon fill="white" stroke="black" points="108.5,-0.5 108.5,-19.5 291.5,-19.5 291.5,-0.5 108.5,-0.5"/>
<text text-anchor="middle" x="200" y="-7.5" font-family="Helvetica,sans-Serif" font-size="10.00">authoring_environment.VoogaView</text>
</a>
</g>
</g>
<!-- Node1&#45;&gt;Node3 -->
<g id="edge2" class="edge"><title>Node1&#45;&gt;Node3</title>
<path fill="none" stroke="midnightblue" d="M82.3179,-25.8457C96.789,-23.8805 113.159,-21.6574 128.962,-19.5113"/>
<polygon fill="midnightblue" stroke="midnightblue" points="81.5896,-22.4124 72.1516,-27.2263 82.5316,-29.3487 81.5896,-22.4124"/>
</g>
</g>
</svg>
