<?xml version="1.0" encoding="UTF-8" standalone="no"?>
<!DOCTYPE svg PUBLIC "-//W3C//DTD SVG 1.1//EN"
 "http://www.w3.org/Graphics/SVG/1.1/DTD/svg11.dtd">
<!-- Generated by graphviz version 2.36.0 (20140111.2315)
 -->
<!-- Title: Graphical Class Hierarchy Pages: 1 -->
<svg width="464pt" height="224pt"
 viewBox="0.00 0.00 464.00 224.00" xmlns="http://www.w3.org/2000/svg" xmlns:xlink="http://www.w3.org/1999/xlink">
<g id="graph0" class="graph" transform="scale(1 1) rotate(0) translate(4 220)">
<title>Graphical Class Hierarchy</title>
<polygon fill="white" stroke="none" points="-4,4 -4,-220 460,-220 460,4 -4,4"/>
<!-- Node1 -->
<g id="node1" class="node"><title>Node1</title>
<polygon fill="white" stroke="#bfbfbf" points="0,-93.5 0,-112.5 42,-112.5 42,-93.5 0,-93.5"/>
<text text-anchor="middle" x="21" y="-100.5" font-family="Helvetica,sans-Serif" font-size="10.00">HBox</text>
</g>
<!-- Node2 -->
<g id="node2" class="node"><title>Node2</title>
<g id="a_node2"><a xlink:href="d9/d45/classauthoring_1_1abstractfeatures_1_1_library_entry.html" target="_top" xlink:title="authoring.abstractfeatures.\lLibraryEntry">
<polygon fill="white" stroke="black" points="100,-186 100,-216 248,-216 248,-186 100,-186"/>
<text text-anchor="start" x="108" y="-204" font-family="Helvetica,sans-Serif" font-size="10.00">authoring.abstractfeatures.</text>
<text text-anchor="middle" x="174" y="-193" font-family="Helvetica,sans-Serif" font-size="10.00">LibraryEntry</text>
</a>
</g>
</g>
<!-- Node1&#45;&gt;Node2 -->
<g id="edge1" class="edge"><title>Node1&#45;&gt;Node2</title>
<path fill="none" stroke="midnightblue" d="M31.5558,-121.564C41.1027,-138.271 57.3199,-162.247 78,-176 84.6744,-180.439 92.1002,-184.09 99.7765,-187.094"/>
<polygon fill="midnightblue" stroke="midnightblue" points="34.5823,-119.803 26.7222,-112.699 28.4365,-123.154 34.5823,-119.803"/>
</g>
<!-- Node4 -->
<g id="node4" class="node"><title>Node4</title>
<g id="a_node4"><a xlink:href="db/d36/classauthoring_1_1concretefeatures_1_1_modified_stat.html" target="_top" xlink:title="authoring.concretefeatures.\lModifiedStat">
<polygon fill="white" stroke="black" points="99,-137 99,-167 249,-167 249,-137 99,-137"/>
<text text-anchor="start" x="107" y="-155" font-family="Helvetica,sans-Serif" font-size="10.00">authoring.concretefeatures.</text>
<text text-anchor="middle" x="174" y="-144" font-family="Helvetica,sans-Serif" font-size="10.00">ModifiedStat</text>
</a>
</g>
</g>
<!-- Node1&#45;&gt;Node4 -->
<g id="edge3" class="edge"><title>Node1&#45;&gt;Node4</title>
<path fill="none" stroke="midnightblue" d="M51.3498,-116.543C59.8477,-120.2 69.206,-123.977 78,-127 88.4027,-130.576 99.5941,-133.937 110.516,-136.965"/>
<polygon fill="midnightblue" stroke="midnightblue" points="52.7594,-113.339 42.1969,-112.512 49.9381,-119.746 52.7594,-113.339"/>
</g>
<!-- Node5 -->
<g id="node5" class="node"><title>Node5</title>
<g id="a_node5"><a xlink:href="d1/d45/classauthoring_1_1concretefeatures_1_1_stats_creator_box.html" target="_top" xlink:title="authoring.concretefeatures.\lStatsCreatorBox">
<polygon fill="white" stroke="black" points="99,-88 99,-118 249,-118 249,-88 99,-88"/>
<text text-anchor="start" x="107" y="-106" font-family="Helvetica,sans-Serif" font-size="10.00">authoring.concretefeatures.</text>
<text text-anchor="middle" x="174" y="-95" font-family="Helvetica,sans-Serif" font-size="10.00">StatsCreatorBox</text>
</a>
</g>
</g>
<!-- Node1&#45;&gt;Node5 -->
<g id="edge4" class="edge"><title>Node1&#45;&gt;Node5</title>
<path fill="none" stroke="midnightblue" d="M52.1736,-103C65.6932,-103 82.2915,-103 98.8064,-103"/>
<polygon fill="midnightblue" stroke="midnightblue" points="52.0517,-99.5001 42.0516,-103 52.0516,-106.5 52.0517,-99.5001"/>
</g>
<!-- Node6 -->
<g id="node6" class="node"><title>Node6</title>
<g id="a_node6"><a xlink:href="d8/d4c/classauthoring_1_1concretefeatures_1_1_stats_operation_box.html" target="_top" xlink:title="authoring.concretefeatures.\lStatsOperationBox">
<polygon fill="white" stroke="black" points="99,-39 99,-69 249,-69 249,-39 99,-39"/>
<text text-anchor="start" x="107" y="-57" font-family="Helvetica,sans-Serif" font-size="10.00">authoring.concretefeatures.</text>
<text text-anchor="middle" x="174" y="-46" font-family="Helvetica,sans-Serif" font-size="10.00">StatsOperationBox</text>
</a>
</g>
</g>
<!-- Node1&#45;&gt;Node6 -->
<g id="edge5" class="edge"><title>Node1&#45;&gt;Node6</title>
<path fill="none" stroke="midnightblue" d="M51.3498,-89.4569C59.8477,-85.8002 69.206,-82.023 78,-79 88.4027,-75.4239 99.5941,-72.0629 110.516,-69.0355"/>
<polygon fill="midnightblue" stroke="midnightblue" points="49.9381,-86.2542 42.1969,-93.4878 52.7594,-92.6605 49.9381,-86.2542"/>
</g>
<!-- Node7 -->
<g id="node7" class="node"><title>Node7</title>
<g id="a_node7"><a xlink:href="d1/dcf/classgamedata_1_1action_1_1_single_multiplier_box.html" target="_top" xlink:title="gamedata.action.SingleMultiplierBox">
<polygon fill="white" stroke="black" points="78.5,-0.5 78.5,-19.5 269.5,-19.5 269.5,-0.5 78.5,-0.5"/>
<text text-anchor="middle" x="174" y="-7.5" font-family="Helvetica,sans-Serif" font-size="10.00">gamedata.action.SingleMultiplierBox</text>
</a>
</g>
</g>
<!-- Node1&#45;&gt;Node7 -->
<g id="edge6" class="edge"><title>Node1&#45;&gt;Node7</title>
<path fill="none" stroke="midnightblue" d="M31.2487,-84.4674C40.6652,-67.5802 56.8707,-43.3048 78,-30 84.846,-25.6892 92.4646,-22.2918 100.325,-19.6168"/>
<polygon fill="midnightblue" stroke="midnightblue" points="28.0952,-82.9433 26.503,-93.4178 34.2797,-86.2225 28.0952,-82.9433"/>
</g>
<!-- Node3 -->
<g id="node3" class="node"><title>Node3</title>
<g id="a_node3"><a xlink:href="df/d51/classauthoring_1_1concretefeatures_1_1_unit_entry.html" target="_top" xlink:title="authoring.concretefeatures.\lUnitEntry">
<polygon fill="white" stroke="black" points="306,-186 306,-216 456,-216 456,-186 306,-186"/>
<text text-anchor="start" x="314" y="-204" font-family="Helvetica,sans-Serif" font-size="10.00">authoring.concretefeatures.</text>
<text text-anchor="middle" x="381" y="-193" font-family="Helvetica,sans-Serif" font-size="10.00">UnitEntry</text>
</a>
</g>
</g>
<!-- Node2&#45;&gt;Node3 -->
<g id="edge2" class="edge"><title>Node2&#45;&gt;Node3</title>
<path fill="none" stroke="midnightblue" d="M258.367,-201C274.089,-201 290.434,-201 305.85,-201"/>
<polygon fill="midnightblue" stroke="midnightblue" points="258.142,-197.5 248.141,-201 258.141,-204.5 258.142,-197.5"/>
</g>
</g>
</svg>
