<?xml version="1.0" encoding="UTF-8" standalone="no"?>
<!DOCTYPE svg PUBLIC "-//W3C//DTD SVG 1.1//EN"
 "http://www.w3.org/Graphics/SVG/1.1/DTD/svg11.dtd">
<!-- Generated by graphviz version 2.36.0 (20140111.2315)
 -->
<!-- Title: Graphical Class Hierarchy Pages: 1 -->
<svg width="274pt" height="283pt"
 viewBox="0.00 0.00 274.00 283.00" xmlns="http://www.w3.org/2000/svg" xmlns:xlink="http://www.w3.org/1999/xlink">
<g id="graph0" class="graph" transform="scale(1 1) rotate(0) translate(4 279)">
<title>Graphical Class Hierarchy</title>
<polygon fill="white" stroke="none" points="-4,4 -4,-279 270,-279 270,4 -4,4"/>
<!-- Node1 -->
<g id="node1" class="node"><title>Node1</title>
<polygon fill="white" stroke="#bfbfbf" points="0.5,-127.5 0.5,-146.5 43.5,-146.5 43.5,-127.5 0.5,-127.5"/>
<text text-anchor="middle" x="22" y="-134.5" font-family="Helvetica,sans-Serif" font-size="10.00">Menu</text>
</g>
<!-- Node2 -->
<g id="node2" class="node"><title>Node2</title>
<g id="a_node2"><a xlink:href="de/d30/classauthoring_1_1concretefeatures_1_1menus_1_1_actions.html" target="_top" xlink:title="authoring.concretefeatures.menus.\lActions">
<polygon fill="white" stroke="black" points="80,-245 80,-275 266,-275 266,-245 80,-245"/>
<text text-anchor="start" x="88" y="-263" font-family="Helvetica,sans-Serif" font-size="10.00">authoring.concretefeatures.menus.</text>
<text text-anchor="middle" x="173" y="-252" font-family="Helvetica,sans-Serif" font-size="10.00">Actions</text>
</a>
</g>
</g>
<!-- Node1&#45;&gt;Node2 -->
<g id="edge1" class="edge"><title>Node1&#45;&gt;Node2</title>
<path fill="none" stroke="midnightblue" d="M29.2137,-156.468C37.3338,-178.766 53.7015,-214.814 80,-235 84.9892,-238.83 90.5243,-242.073 96.3334,-244.82"/>
<polygon fill="midnightblue" stroke="midnightblue" points="32.4376,-155.079 25.8826,-146.756 25.8163,-157.35 32.4376,-155.079"/>
</g>
<!-- Node3 -->
<g id="node3" class="node"><title>Node3</title>
<g id="a_node3"><a xlink:href="d9/d40/classauthoring_1_1concretefeatures_1_1menus_1_1_events.html" target="_top" xlink:title="authoring.concretefeatures.menus.\lEvents">
<polygon fill="white" stroke="black" points="80,-196 80,-226 266,-226 266,-196 80,-196"/>
<text text-anchor="start" x="88" y="-214" font-family="Helvetica,sans-Serif" font-size="10.00">authoring.concretefeatures.menus.</text>
<text text-anchor="middle" x="173" y="-203" font-family="Helvetica,sans-Serif" font-size="10.00">Events</text>
</a>
</g>
</g>
<!-- Node1&#45;&gt;Node3 -->
<g id="edge2" class="edge"><title>Node1&#45;&gt;Node3</title>
<path fill="none" stroke="midnightblue" d="M38.6892,-153.915C49.395,-164.533 64.4152,-177.733 80,-186 87.1647,-189.8 94.9571,-193.062 102.875,-195.851"/>
<polygon fill="midnightblue" stroke="midnightblue" points="41.1939,-151.47 31.7099,-146.748 36.1787,-156.354 41.1939,-151.47"/>
</g>
<!-- Node4 -->
<g id="node4" class="node"><title>Node4</title>
<g id="a_node4"><a xlink:href="d8/d93/classauthoring_1_1concretefeatures_1_1menus_1_1_file_x.html" target="_top" xlink:title="authoring.concretefeatures.menus.\lFileX">
<polygon fill="white" stroke="black" points="80,-147 80,-177 266,-177 266,-147 80,-147"/>
<text text-anchor="start" x="88" y="-165" font-family="Helvetica,sans-Serif" font-size="10.00">authoring.concretefeatures.menus.</text>
<text text-anchor="middle" x="173" y="-154" font-family="Helvetica,sans-Serif" font-size="10.00">FileX</text>
</a>
</g>
</g>
<!-- Node1&#45;&gt;Node4 -->
<g id="edge3" class="edge"><title>Node1&#45;&gt;Node4</title>
<path fill="none" stroke="midnightblue" d="M53.5888,-142.132C62.2243,-143.581 72.0838,-145.236 82.3436,-146.957"/>
<polygon fill="midnightblue" stroke="midnightblue" points="54.1591,-138.679 43.7178,-140.476 53.0008,-145.583 54.1591,-138.679"/>
</g>
<!-- Node5 -->
<g id="node5" class="node"><title>Node5</title>
<g id="a_node5"><a xlink:href="df/d53/classauthoring_1_1concretefeatures_1_1menus_1_1_global_rules.html" target="_top" xlink:title="authoring.concretefeatures.menus.\lGlobalRules">
<polygon fill="white" stroke="black" points="80,-98 80,-128 266,-128 266,-98 80,-98"/>
<text text-anchor="start" x="88" y="-116" font-family="Helvetica,sans-Serif" font-size="10.00">authoring.concretefeatures.menus.</text>
<text text-anchor="middle" x="173" y="-105" font-family="Helvetica,sans-Serif" font-size="10.00">GlobalRules</text>
</a>
</g>
</g>
<!-- Node1&#45;&gt;Node5 -->
<g id="edge4" class="edge"><title>Node1&#45;&gt;Node5</title>
<path fill="none" stroke="midnightblue" d="M53.7529,-132.047C61.6116,-130.781 70.4761,-129.353 79.729,-127.862"/>
<polygon fill="midnightblue" stroke="midnightblue" points="53.0339,-128.617 43.7178,-133.663 54.1472,-135.528 53.0339,-128.617"/>
</g>
<!-- Node6 -->
<g id="node6" class="node"><title>Node6</title>
<g id="a_node6"><a xlink:href="d7/d85/classauthoring_1_1concretefeatures_1_1menus_1_1_terrain.html" target="_top" xlink:title="authoring.concretefeatures.menus.\lTerrain">
<polygon fill="white" stroke="black" points="80,-49 80,-79 266,-79 266,-49 80,-49"/>
<text text-anchor="start" x="88" y="-67" font-family="Helvetica,sans-Serif" font-size="10.00">authoring.concretefeatures.menus.</text>
<text text-anchor="middle" x="173" y="-56" font-family="Helvetica,sans-Serif" font-size="10.00">Terrain</text>
</a>
</g>
</g>
<!-- Node1&#45;&gt;Node6 -->
<g id="edge5" class="edge"><title>Node1&#45;&gt;Node6</title>
<path fill="none" stroke="midnightblue" d="M39.065,-120.139C49.7745,-109.796 64.6584,-97.038 80,-89 87.3305,-85.1593 95.3071,-81.8652 103.398,-79.0507"/>
<polygon fill="midnightblue" stroke="midnightblue" points="36.3429,-117.912 31.7508,-127.46 41.2948,-122.859 36.3429,-117.912"/>
</g>
<!-- Node7 -->
<g id="node7" class="node"><title>Node7</title>
<g id="a_node7"><a xlink:href="d6/d0a/classauthoring_1_1concretefeatures_1_1menus_1_1_units.html" target="_top" xlink:title="authoring.concretefeatures.menus.\lUnits">
<polygon fill="white" stroke="black" points="80,-0 80,-30 266,-30 266,-0 80,-0"/>
<text text-anchor="start" x="88" y="-18" font-family="Helvetica,sans-Serif" font-size="10.00">authoring.concretefeatures.menus.</text>
<text text-anchor="middle" x="173" y="-7" font-family="Helvetica,sans-Serif" font-size="10.00">Units</text>
</a>
</g>
</g>
<!-- Node1&#45;&gt;Node7 -->
<g id="edge6" class="edge"><title>Node1&#45;&gt;Node7</title>
<path fill="none" stroke="midnightblue" d="M29.2683,-117.729C37.4402,-95.6563 53.8571,-59.9743 80,-40 84.9977,-36.1815 90.5389,-32.9458 96.352,-30.204"/>
<polygon fill="midnightblue" stroke="midnightblue" points="25.9036,-116.748 25.9124,-127.343 32.5126,-119.055 25.9036,-116.748"/>
</g>
</g>
</svg>
