<?xml version="1.0" encoding="UTF-8" standalone="no"?>
<!DOCTYPE svg PUBLIC "-//W3C//DTD SVG 1.1//EN"
 "http://www.w3.org/Graphics/SVG/1.1/DTD/svg11.dtd">
<!-- Generated by graphviz version 2.36.0 (20140111.2315)
 -->
<!-- Title: Graphical Class Hierarchy Pages: 1 -->
<svg width="284pt" height="126pt"
 viewBox="0.00 0.00 284.00 126.00" xmlns="http://www.w3.org/2000/svg" xmlns:xlink="http://www.w3.org/1999/xlink">
<g id="graph0" class="graph" transform="scale(1 1) rotate(0) translate(4 122)">
<title>Graphical Class Hierarchy</title>
<polygon fill="white" stroke="none" points="-4,4 -4,-122 280,-122 280,4 -4,4"/>
<!-- Node1 -->
<g id="node1" class="node"><title>Node1</title>
<polygon fill="white" stroke="#bfbfbf" points="0,-54.5 0,-73.5 66,-73.5 66,-54.5 0,-54.5"/>
<text text-anchor="middle" x="33" y="-61.5" font-family="Helvetica,sans-Serif" font-size="10.00">ScrollPane</text>
</g>
<!-- Node2 -->
<g id="node2" class="node"><title>Node2</title>
<g id="a_node2"><a xlink:href="d2/dcf/classauthoring__environment_1_1_grid_view.html" target="_top" xlink:title="authoring_environment.GridView">
<polygon fill="white" stroke="black" points="102.5,-98.5 102.5,-117.5 275.5,-117.5 275.5,-98.5 102.5,-98.5"/>
<text text-anchor="middle" x="189" y="-105.5" font-family="Helvetica,sans-Serif" font-size="10.00">authoring_environment.GridView</text>
</a>
</g>
</g>
<!-- Node1&#45;&gt;Node2 -->
<g id="edge1" class="edge"><title>Node1&#45;&gt;Node2</title>
<path fill="none" stroke="midnightblue" d="M68.3961,-76.9726C79.0837,-80.7779 90.9583,-84.7783 102,-88 115.097,-91.8213 129.481,-95.4029 142.676,-98.4496"/>
<polygon fill="midnightblue" stroke="midnightblue" points="69.567,-73.6742 58.9727,-73.5608 67.1839,-80.2561 69.567,-73.6742"/>
</g>
<!-- Node3 -->
<g id="node3" class="node"><title>Node3</title>
<g id="a_node3"><a xlink:href="d5/df6/classauthoring__environment_1_1_range_grid_view.html" target="_top" xlink:title="authoring_environment.Range\lGridView">
<polygon fill="white" stroke="black" points="108.5,-49 108.5,-79 269.5,-79 269.5,-49 108.5,-49"/>
<text text-anchor="start" x="116.5" y="-67" font-family="Helvetica,sans-Serif" font-size="10.00">authoring_environment.Range</text>
<text text-anchor="middle" x="189" y="-56" font-family="Helvetica,sans-Serif" font-size="10.00">GridView</text>
</a>
</g>
</g>
<!-- Node1&#45;&gt;Node3 -->
<g id="edge2" class="edge"><title>Node1&#45;&gt;Node3</title>
<path fill="none" stroke="midnightblue" d="M76.3382,-64C86.3681,-64 97.3897,-64 108.481,-64"/>
<polygon fill="midnightblue" stroke="midnightblue" points="76.2835,-60.5001 66.2834,-64 76.2834,-67.5001 76.2835,-60.5001"/>
</g>
<!-- Node4 -->
<g id="node4" class="node"><title>Node4</title>
<g id="a_node4"><a xlink:href="de/d34/classauthoring__environment_1_1_sandy_grid_view.html" target="_top" xlink:title="authoring_environment.Sandy\lGridView">
<polygon fill="white" stroke="black" points="108.5,-0 108.5,-30 269.5,-30 269.5,-0 108.5,-0"/>
<text text-anchor="start" x="116.5" y="-18" font-family="Helvetica,sans-Serif" font-size="10.00">authoring_environment.Sandy</text>
<text text-anchor="middle" x="189" y="-7" font-family="Helvetica,sans-Serif" font-size="10.00">GridView</text>
</a>
</g>
</g>
<!-- Node1&#45;&gt;Node4 -->
<g id="edge3" class="edge"><title>Node1&#45;&gt;Node4</title>
<path fill="none" stroke="midnightblue" d="M69.6344,-50.9978C80.0284,-47.3208 91.4327,-43.3978 102,-40 112.51,-36.6208 123.805,-33.193 134.641,-30.0035"/>
<polygon fill="midnightblue" stroke="midnightblue" points="68.2805,-47.7647 60.0389,-54.4225 70.6336,-54.3574 68.2805,-47.7647"/>
</g>
</g>
</svg>
