<?xml version="1.0" encoding="UTF-8" standalone="no"?>
<!DOCTYPE svg PUBLIC "-//W3C//DTD SVG 1.1//EN"
 "http://www.w3.org/Graphics/SVG/1.1/DTD/svg11.dtd">
<!-- Generated by graphviz version 2.36.0 (20140111.2315)
 -->
<!-- Title: Graphical Class Hierarchy Pages: 1 -->
<svg width="260pt" height="136pt"
 viewBox="0.00 0.00 260.00 136.00" xmlns="http://www.w3.org/2000/svg" xmlns:xlink="http://www.w3.org/1999/xlink">
<g id="graph0" class="graph" transform="scale(1 1) rotate(0) translate(4 132)">
<title>Graphical Class Hierarchy</title>
<polygon fill="white" stroke="none" points="-4,4 -4,-132 256,-132 256,4 -4,4"/>
<!-- Node1 -->
<g id="node1" class="node"><title>Node1</title>
<polygon fill="white" stroke="#bfbfbf" points="0.5,-54.5 0.5,-73.5 65.5,-73.5 65.5,-54.5 0.5,-54.5"/>
<text text-anchor="middle" x="33" y="-61.5" font-family="Helvetica,sans-Serif" font-size="10.00">TitledPane</text>
</g>
<!-- Node2 -->
<g id="node2" class="node"><title>Node2</title>
<g id="a_node2"><a xlink:href="d8/d6c/classauthoring_1_1concretefeatures_1_1_library_unit_editor.html" target="_top" xlink:title="authoring.concretefeatures.\lLibraryUnitEditor">
<polygon fill="white" stroke="black" points="102,-98 102,-128 252,-128 252,-98 102,-98"/>
<text text-anchor="start" x="110" y="-116" font-family="Helvetica,sans-Serif" font-size="10.00">authoring.concretefeatures.</text>
<text text-anchor="middle" x="177" y="-105" font-family="Helvetica,sans-Serif" font-size="10.00">LibraryUnitEditor</text>
</a>
</g>
</g>
<!-- Node1&#45;&gt;Node2 -->
<g id="edge1" class="edge"><title>Node1&#45;&gt;Node2</title>
<path fill="none" stroke="midnightblue" d="M70.2649,-76.9013C80.5157,-80.5203 91.6874,-84.4383 102,-88 111.357,-91.2316 121.395,-94.653 130.964,-97.8933"/>
<polygon fill="midnightblue" stroke="midnightblue" points="71.3719,-73.5804 60.7771,-73.5445 69.0371,-80.1795 71.3719,-73.5804"/>
</g>
<!-- Node3 -->
<g id="node3" class="node"><title>Node3</title>
<g id="a_node3"><a xlink:href="d4/d8f/classauthoring_1_1createedit_1_1_event_creator.html" target="_top" xlink:title="authoring.createedit.Event\lCreator">
<polygon fill="white" stroke="black" points="105,-49 105,-79 249,-79 249,-49 105,-49"/>
<text text-anchor="start" x="113" y="-67" font-family="Helvetica,sans-Serif" font-size="10.00">authoring.createedit.Event</text>
<text text-anchor="middle" x="177" y="-56" font-family="Helvetica,sans-Serif" font-size="10.00">Creator</text>
</a>
</g>
</g>
<!-- Node1&#45;&gt;Node3 -->
<g id="edge2" class="edge"><title>Node1&#45;&gt;Node3</title>
<path fill="none" stroke="midnightblue" d="M75.5258,-64C84.7333,-64 94.7449,-64 104.763,-64"/>
<polygon fill="midnightblue" stroke="midnightblue" points="75.5144,-60.5001 65.5144,-64 75.5144,-67.5001 75.5144,-60.5001"/>
</g>
<!-- Node4 -->
<g id="node4" class="node"><title>Node4</title>
<g id="a_node4"><a xlink:href="da/dcb/classauthoring_1_1createedit_1_1_event_editor.html" target="_top" xlink:title="authoring.createedit.Event\lEditor">
<polygon fill="white" stroke="black" points="105,-0 105,-30 249,-30 249,-0 105,-0"/>
<text text-anchor="start" x="113" y="-18" font-family="Helvetica,sans-Serif" font-size="10.00">authoring.createedit.Event</text>
<text text-anchor="middle" x="177" y="-7" font-family="Helvetica,sans-Serif" font-size="10.00">Editor</text>
</a>
</g>
</g>
<!-- Node1&#45;&gt;Node4 -->
<g id="edge3" class="edge"><title>Node1&#45;&gt;Node4</title>
<path fill="none" stroke="midnightblue" d="M70.2649,-51.0987C80.5157,-47.4797 91.6874,-43.5617 102,-40 111.357,-36.7684 121.395,-33.347 130.964,-30.1067"/>
<polygon fill="midnightblue" stroke="midnightblue" points="69.0371,-47.8205 60.7771,-54.4555 71.3719,-54.4196 69.0371,-47.8205"/>
</g>
</g>
</svg>
