<?xml version="1.0" encoding="UTF-8" standalone="no"?>
<!DOCTYPE svg PUBLIC "-//W3C//DTD SVG 1.1//EN"
 "http://www.w3.org/Graphics/SVG/1.1/DTD/svg11.dtd">
<!-- Generated by graphviz version 2.36.0 (20140111.2315)
 -->
<!-- Title: authoring.data.EventsDataWrapper.getPlayers Pages: 1 -->
<!--zoomable 38 -->
<svg id="main" version="1.1" xmlns="http://www.w3.org/2000/svg" xmlns:xlink="http://www.w3.org/1999/xlink" xml:space="preserve" onload="init(evt)">
<style type="text/css"><![CDATA[
.edge:hover path { stroke: red; }
.edge:hover polygon { stroke: red; fill: red; }
]]></style>
<script type="text/javascript"><![CDATA[
var edges = document.getElementsByTagName('g');
if (edges && edges.length) {
  for (var i=0;i<edges.length;i++) {
    if (edges[i].id.substr(0,4)=='edge') {
      edges[i].setAttribute('class','edge');
    }
  }
}
]]></script>
        <defs>
                <circle id="rim" cx="0" cy="0" r="7"/>
                <circle id="rim2" cx="0" cy="0" r="3.5"/>
                <g id="zoomPlus">
                        <use xlink:href="#rim" fill="#404040">
                                <set attributeName="fill" to="#808080" begin="zoomplus.mouseover" end="zoomplus.mouseout"/>
                        </use>
                        <path d="M-4,0h8M0,-4v8" fill="none" stroke="white" stroke-width="1.5" pointer-events="none"/>
                </g>
                <g id="zoomMin">
                        <use xlink:href="#rim" fill="#404040">
                                <set attributeName="fill" to="#808080" begin="zoomminus.mouseover" end="zoomminus.mouseout"/>
                        </use>
                        <path d="M-4,0h8" fill="none" stroke="white" stroke-width="1.5" pointer-events="none"/>
                </g>
                <g id="dirArrow">
                        <path fill="none" stroke="white" stroke-width="1.5" d="M0,-3.0v7 M-2.5,-0.5L0,-3.0L2.5,-0.5"/>
                </g>
               <g id="resetDef">
                       <use xlink:href="#rim2" fill="#404040">
                               <set attributeName="fill" to="#808080" begin="reset.mouseover" end="reset.mouseout"/>
                       </use>
               </g>
        </defs>

<script type="text/javascript">
var viewWidth = 970;
var viewHeight = 38;
var sectionId = 'dynsection-3';
</script>
<script xlink:href="../../svgpan.js"/>
<svg id="graph" class="graph">
<g id="viewport">
<title>authoring.data.EventsDataWrapper.getPlayers</title>
<polygon fill="white" stroke="none" points="-4,4 -4,-34 966,-34 966,4 -4,4"/>
<!-- Node1 -->
<g id="node1" class="node"><title>Node1</title>
<polygon fill="#bfbfbf" stroke="black" points="0,-0 0,-30 146,-30 146,-0 0,-0"/>
<text text-anchor="start" x="8" y="-18" font-family="Helvetica,sans-Serif" font-size="10.00">authoring.data.EventsData</text>
<text text-anchor="middle" x="73" y="-7" font-family="Helvetica,sans-Serif" font-size="10.00">Wrapper.getPlayers</text>
</g>
<!-- Node2 -->
<g id="node2" class="node"><title>Node2</title>
<g id="a_node2"><a xlink:href="../../d8/d5f/classauthoring_1_1eventeditor_1_1_condition_editor_pane.html#a454b561fde725c091c7d2e77670ca124" target="_top" xlink:title="authoring.eventeditor.Condition\lEditorPane.setupEditor">
<polygon fill="white" stroke="black" points="182.5,-0 182.5,-30 349.5,-30 349.5,-0 182.5,-0"/>
<text text-anchor="start" x="190.5" y="-18" font-family="Helvetica,sans-Serif" font-size="10.00">authoring.eventeditor.Condition</text>
<text text-anchor="middle" x="266" y="-7" font-family="Helvetica,sans-Serif" font-size="10.00">EditorPane.setupEditor</text>
</a>
</g>
</g>
<!-- Node1&#45;&gt;Node2 -->
<g id="edge1" class="edge"><title>Node1&#45;&gt;Node2</title>
<path fill="none" stroke="midnightblue" d="M156.295,-15C164.96,-15 173.772,-15 182.44,-15"/>
<polygon fill="midnightblue" stroke="midnightblue" points="156.209,-11.5001 146.209,-15 156.209,-18.5001 156.209,-11.5001"/>
</g>
<!-- Node3 -->
<g id="node3" class="node"><title>Node3</title>
<g id="a_node3"><a xlink:href="../../d8/d5f/classauthoring_1_1eventeditor_1_1_condition_editor_pane.html#a421ca65a21e0a47b69c3d253020d5d8e" target="_top" xlink:title="authoring.eventeditor.Condition\lEditorPane.setUpComponents">
<polygon fill="white" stroke="black" points="386.5,-0 386.5,-30 553.5,-30 553.5,-0 386.5,-0"/>
<text text-anchor="start" x="394.5" y="-18" font-family="Helvetica,sans-Serif" font-size="10.00">authoring.eventeditor.Condition</text>
<text text-anchor="middle" x="470" y="-7" font-family="Helvetica,sans-Serif" font-size="10.00">EditorPane.setUpComponents</text>
</a>
</g>
</g>
<!-- Node2&#45;&gt;Node3 -->
<g id="edge2" class="edge"><title>Node2&#45;&gt;Node3</title>
<path fill="none" stroke="midnightblue" d="M360.018,-15C368.815,-15 377.694,-15 386.385,-15"/>
<polygon fill="midnightblue" stroke="midnightblue" points="359.744,-11.5001 349.744,-15 359.744,-18.5001 359.744,-11.5001"/>
</g>
<!-- Node4 -->
<g id="node4" class="node"><title>Node4</title>
<g id="a_node4"><a xlink:href="../../d8/d5f/classauthoring_1_1eventeditor_1_1_condition_editor_pane.html#a194c440cd15f0b71cae8f07dd45377e0" target="_top" xlink:title="authoring.eventeditor.Condition\lEditorPane.initialize">
<polygon fill="white" stroke="black" points="590.5,-0 590.5,-30 757.5,-30 757.5,-0 590.5,-0"/>
<text text-anchor="start" x="598.5" y="-18" font-family="Helvetica,sans-Serif" font-size="10.00">authoring.eventeditor.Condition</text>
<text text-anchor="middle" x="674" y="-7" font-family="Helvetica,sans-Serif" font-size="10.00">EditorPane.initialize</text>
</a>
</g>
</g>
<!-- Node3&#45;&gt;Node4 -->
<g id="edge3" class="edge"><title>Node3&#45;&gt;Node4</title>
<path fill="none" stroke="midnightblue" d="M564.018,-15C572.815,-15 581.694,-15 590.385,-15"/>
<polygon fill="midnightblue" stroke="midnightblue" points="563.744,-11.5001 553.744,-15 563.744,-18.5001 563.744,-11.5001"/>
</g>
<!-- Node5 -->
<g id="node5" class="node"><title>Node5</title>
<g id="a_node5"><a xlink:href="../../d8/d5f/classauthoring_1_1eventeditor_1_1_condition_editor_pane.html#a1ce5d677410533b45754ccaf6464e573" target="_top" xlink:title="authoring.eventeditor.Condition\lEditorPane.ConditionEditorPane">
<polygon fill="white" stroke="black" points="794.5,-0 794.5,-30 961.5,-30 961.5,-0 794.5,-0"/>
<text text-anchor="start" x="802.5" y="-18" font-family="Helvetica,sans-Serif" font-size="10.00">authoring.eventeditor.Condition</text>
<text text-anchor="middle" x="878" y="-7" font-family="Helvetica,sans-Serif" font-size="10.00">EditorPane.ConditionEditorPane</text>
</a>
</g>
</g>
<!-- Node4&#45;&gt;Node5 -->
<g id="edge4" class="edge"><title>Node4&#45;&gt;Node5</title>
<path fill="none" stroke="midnightblue" d="M768.018,-15C776.815,-15 785.694,-15 794.385,-15"/>
<polygon fill="midnightblue" stroke="midnightblue" points="767.744,-11.5001 757.744,-15 767.744,-18.5001 767.744,-11.5001"/>
</g>
</g>
</svg>
        <g id="navigator" transform="translate(0 0)" fill="#404254">
                <rect fill="#f2f5e9" fill-opacity="0.5" stroke="#606060" stroke-width=".5" x="0" y="0" width="60" height="60"/>
                <use id="zoomplus" xlink:href="#zoomPlus" x="17" y="9" onmousedown="handleZoom(evt,'in')"/>
                <use id="zoomminus" xlink:href="#zoomMin" x="42" y="9" onmousedown="handleZoom(evt,'out')"/>
                <use id="reset" xlink:href="#resetDef" x="30" y="36" onmousedown="handleReset()"/>
                <g id="arrowUp" xlink:href="#dirArrow" transform="translate(30 24)" onmousedown="handlePan(0,-1)">
                  <use xlink:href="#rim" fill="#404040">
                        <set attributeName="fill" to="#808080" begin="arrowUp.mouseover" end="arrowUp.mouseout"/>
                  </use>
                  <path fill="none" stroke="white" stroke-width="1.5" d="M0,-3.0v7 M-2.5,-0.5L0,-3.0L2.5,-0.5"/>
                </g>
                <g id="arrowRight" xlink:href="#dirArrow" transform="rotate(90) translate(36 -43)" onmousedown="handlePan(1,0)">
                  <use xlink:href="#rim" fill="#404040">
                        <set attributeName="fill" to="#808080" begin="arrowRight.mouseover" end="arrowRight.mouseout"/>
                  </use>
                  <path fill="none" stroke="white" stroke-width="1.5" d="M0,-3.0v7 M-2.5,-0.5L0,-3.0L2.5,-0.5"/>
                </g>
                <g id="arrowDown" xlink:href="#dirArrow" transform="rotate(180) translate(-30 -48)" onmousedown="handlePan(0,1)">
                  <use xlink:href="#rim" fill="#404040">
                        <set attributeName="fill" to="#808080" begin="arrowDown.mouseover" end="arrowDown.mouseout"/>
                  </use>
                  <path fill="none" stroke="white" stroke-width="1.5" d="M0,-3.0v7 M-2.5,-0.5L0,-3.0L2.5,-0.5"/>
                </g>
                <g id="arrowLeft" xlink:href="#dirArrow" transform="rotate(270) translate(-36 17)" onmousedown="handlePan(-1,0)">
                  <use xlink:href="#rim" fill="#404040">
                        <set attributeName="fill" to="#808080" begin="arrowLeft.mouseover" end="arrowLeft.mouseout"/>
                  </use>
                  <path fill="none" stroke="white" stroke-width="1.5" d="M0,-3.0v7 M-2.5,-0.5L0,-3.0L2.5,-0.5"/>
                </g>
        </g>
        <svg viewBox="0 0 15 15" width="100%" height="30px" preserveAspectRatio="xMaxYMin meet">
         <g id="arrow_out" transform="scale(0.3 0.3)">
          <a xlink:href="classauthoring_1_1data_1_1_events_data_wrapper_a478b75bff6a987a671e648ec8df851e3_icgraph_org.svg" target="_base">
           <rect id="button" ry="5" rx="5" y="6" x="6" height="38" width="38"
                fill="#f2f5e9" fill-opacity="0.5" stroke="#606060" stroke-width="1.0"/>
           <path id="arrow"
             d="M 11.500037,31.436501 C 11.940474,20.09759 22.043105,11.32322 32.158766,21.979434 L 37.068811,17.246167 C 37.068811,17.246167 37.088388,32 37.088388,32 L 22.160133,31.978069 C 22.160133,31.978069 26.997745,27.140456 26.997745,27.140456 C 18.528582,18.264221 13.291696,25.230495 11.500037,31.436501 z"
             style="fill:#404040;"/>
          </a>
         </g>
        </svg>
</svg>
