<?xml version="1.0" encoding="UTF-8" standalone="no"?>
<!DOCTYPE svg PUBLIC "-//W3C//DTD SVG 1.1//EN"
 "http://www.w3.org/Graphics/SVG/1.1/DTD/svg11.dtd">
<!-- Generated by graphviz version 2.36.0 (20140111.2315)
 -->
<!-- Title: gameengine.player.SimpleAIPlayer.play Pages: 1 -->
<svg width="1054pt" height="420pt"
 viewBox="0.00 0.00 1054.00 420.00" xmlns="http://www.w3.org/2000/svg" xmlns:xlink="http://www.w3.org/1999/xlink">
<g id="graph0" class="graph" transform="scale(1 1) rotate(0) translate(4 416)">
<title>gameengine.player.SimpleAIPlayer.play</title>
<polygon fill="white" stroke="none" points="-4,4 -4,-416 1050,-416 1050,4 -4,4"/>
<!-- Node1 -->
<g id="node1" class="node"><title>Node1</title>
<polygon fill="#bfbfbf" stroke="black" points="0,-240 0,-270 144,-270 144,-240 0,-240"/>
<text text-anchor="start" x="8" y="-258" font-family="Helvetica,sans-Serif" font-size="10.00">gameengine.player.Simple</text>
<text text-anchor="middle" x="72" y="-247" font-family="Helvetica,sans-Serif" font-size="10.00">AIPlayer.play</text>
</g>
<!-- Node2 -->
<g id="node2" class="node"><title>Node2</title>
<g id="a_node2"><a xlink:href="../../d8/d85/interfacegamedata_1_1action_1_1_action.html#a4840c2c33c25e70e1173f54499ff86fd" target="_top" xlink:title="gamedata.action.Action.do\lBehavior">
<polygon fill="white" stroke="black" points="228,-382 228,-412 374,-412 374,-382 228,-382"/>
<text text-anchor="start" x="236" y="-400" font-family="Helvetica,sans-Serif" font-size="10.00">gamedata.action.Action.do</text>
<text text-anchor="middle" x="301" y="-389" font-family="Helvetica,sans-Serif" font-size="10.00">Behavior</text>
</a>
</g>
</g>
<!-- Node1&#45;&gt;Node2 -->
<g id="edge1" class="edge"><title>Node1&#45;&gt;Node2</title>
<path fill="none" stroke="midnightblue" d="M82.3813,-270.366C98.795,-295.839 135.272,-346.526 180,-372 191.568,-378.588 204.647,-383.449 217.809,-387.034"/>
<polygon fill="midnightblue" stroke="midnightblue" points="217.317,-390.518 227.866,-389.534 219.006,-383.725 217.317,-390.518"/>
</g>
<!-- Node3 -->
<g id="node3" class="node"><title>Node3</title>
<g id="a_node3"><a xlink:href="../../d8/d85/interfacegamedata_1_1action_1_1_action.html#adc36be3a570d0bad2636b91cee6f4065" target="_top" xlink:title="gamedata.action.Action.get\lAbsoluteActionRange">
<polygon fill="white" stroke="black" points="226,-333 226,-363 376,-363 376,-333 226,-333"/>
<text text-anchor="start" x="234" y="-351" font-family="Helvetica,sans-Serif" font-size="10.00">gamedata.action.Action.get</text>
<text text-anchor="middle" x="301" y="-340" font-family="Helvetica,sans-Serif" font-size="10.00">AbsoluteActionRange</text>
</a>
</g>
</g>
<!-- Node1&#45;&gt;Node3 -->
<g id="edge2" class="edge"><title>Node1&#45;&gt;Node3</title>
<path fill="none" stroke="midnightblue" d="M91.943,-270.058C112.47,-285.624 146.76,-309.501 180,-323 191.357,-327.612 203.679,-331.415 215.956,-334.538"/>
<polygon fill="midnightblue" stroke="midnightblue" points="215.232,-337.964 225.773,-336.9 216.869,-331.158 215.232,-337.964"/>
</g>
<!-- Node4 -->
<g id="node4" class="node"><title>Node4</title>
<g id="a_node4"><a xlink:href="../../d8/d01/classgamedata_1_1gamecomponents_1_1_level.html#adef1fc175daf62d54468e35e67413edb" target="_top" xlink:title="gamedata.gamecomponents.\lLevel.getGrid">
<polygon fill="white" stroke="black" points="221,-284 221,-314 381,-314 381,-284 221,-284"/>
<text text-anchor="start" x="229" y="-302" font-family="Helvetica,sans-Serif" font-size="10.00">gamedata.gamecomponents.</text>
<text text-anchor="middle" x="301" y="-291" font-family="Helvetica,sans-Serif" font-size="10.00">Level.getGrid</text>
</a>
</g>
</g>
<!-- Node1&#45;&gt;Node4 -->
<g id="edge3" class="edge"><title>Node1&#45;&gt;Node4</title>
<path fill="none" stroke="midnightblue" d="M144.201,-268.801C165.834,-272.994 189.86,-277.651 212.438,-282.028"/>
<polygon fill="midnightblue" stroke="midnightblue" points="211.871,-285.483 222.355,-283.95 213.203,-278.611 211.871,-285.483"/>
</g>
<!-- Node5 -->
<g id="node5" class="node"><title>Node5</title>
<g id="a_node5"><a xlink:href="../../d0/dfd/classgameengine_1_1player_1_1_player.html#a52b8c59631167c4e0d76e923d8e3a69a" target="_top" xlink:title="gameengine.player.Player.getLoc">
<polygon fill="white" stroke="black" points="213.5,-245.5 213.5,-264.5 388.5,-264.5 388.5,-245.5 213.5,-245.5"/>
<text text-anchor="middle" x="301" y="-252.5" font-family="Helvetica,sans-Serif" font-size="10.00">gameengine.player.Player.getLoc</text>
</a>
</g>
</g>
<!-- Node1&#45;&gt;Node5 -->
<g id="edge4" class="edge"><title>Node1&#45;&gt;Node5</title>
<path fill="none" stroke="midnightblue" d="M144.201,-255C162.803,-255 183.173,-255 202.871,-255"/>
<polygon fill="midnightblue" stroke="midnightblue" points="203.098,-258.5 213.098,-255 203.098,-251.5 203.098,-258.5"/>
</g>
<!-- Node6 -->
<g id="node6" class="node"><title>Node6</title>
<g id="a_node6"><a xlink:href="../../da/d4c/classauthoring__environment_1_1_g_u_i_grid.html#a1ac1af9ff6b3cff9aee00db73948d1c0" target="_top" xlink:title="authoring_environment.GUIGrid.get\lPiece">
<polygon fill="white" stroke="black" points="207.5,-196 207.5,-226 394.5,-226 394.5,-196 207.5,-196"/>
<text text-anchor="start" x="215.5" y="-214" font-family="Helvetica,sans-Serif" font-size="10.00">authoring_environment.GUIGrid.get</text>
<text text-anchor="middle" x="301" y="-203" font-family="Helvetica,sans-Serif" font-size="10.00">Piece</text>
</a>
</g>
</g>
<!-- Node1&#45;&gt;Node6 -->
<g id="edge5" class="edge"><title>Node1&#45;&gt;Node6</title>
<path fill="none" stroke="midnightblue" d="M144.201,-241.199C165.834,-237.006 189.86,-232.349 212.438,-227.972"/>
<polygon fill="midnightblue" stroke="midnightblue" points="213.203,-231.389 222.355,-226.05 211.871,-224.517 213.203,-231.389"/>
</g>
<!-- Node8 -->
<g id="node8" class="node"><title>Node8</title>
<g id="a_node8"><a xlink:href="../../da/d4c/classauthoring__environment_1_1_g_u_i_grid.html#a0e558fc3c62fb0e9d8ff93cca87f0bcc" target="_top" xlink:title="authoring_environment.GUIGrid.get\lPlayerPieces">
<polygon fill="white" stroke="black" points="207.5,-147 207.5,-177 394.5,-177 394.5,-147 207.5,-147"/>
<text text-anchor="start" x="215.5" y="-165" font-family="Helvetica,sans-Serif" font-size="10.00">authoring_environment.GUIGrid.get</text>
<text text-anchor="middle" x="301" y="-154" font-family="Helvetica,sans-Serif" font-size="10.00">PlayerPieces</text>
</a>
</g>
</g>
<!-- Node1&#45;&gt;Node8 -->
<g id="edge7" class="edge"><title>Node1&#45;&gt;Node8</title>
<path fill="none" stroke="midnightblue" d="M91.943,-239.942C112.47,-224.376 146.76,-200.499 180,-187 186.359,-184.418 193.02,-182.089 199.806,-179.992"/>
<polygon fill="midnightblue" stroke="midnightblue" points="201.192,-183.234 209.817,-177.081 199.238,-176.512 201.192,-183.234"/>
</g>
<!-- Node9 -->
<g id="node9" class="node"><title>Node9</title>
<g id="a_node9"><a xlink:href="../../da/d4c/classauthoring__environment_1_1_g_u_i_grid.html#a0dd951cc5155fadf7b6d1f01ba887540" target="_top" xlink:title="authoring_environment.GUIGrid.repopulateGrid">
<polygon fill="white" stroke="black" points="180,-105.5 180,-124.5 422,-124.5 422,-105.5 180,-105.5"/>
<text text-anchor="middle" x="301" y="-112.5" font-family="Helvetica,sans-Serif" font-size="10.00">authoring_environment.GUIGrid.repopulateGrid</text>
</a>
</g>
</g>
<!-- Node1&#45;&gt;Node9 -->
<g id="edge9" class="edge"><title>Node1&#45;&gt;Node9</title>
<path fill="none" stroke="midnightblue" d="M82.0218,-239.797C98.1594,-214.068 134.57,-162.28 180,-137 186.553,-133.354 193.589,-130.295 200.848,-127.731"/>
<polygon fill="midnightblue" stroke="midnightblue" points="202.401,-130.91 210.863,-124.533 200.272,-124.241 202.401,-130.91"/>
</g>
<!-- Node7 -->
<g id="node7" class="node"><title>Node7</title>
<g id="a_node7"><a xlink:href="../../d6/dda/classauthoring_1_1data_1_1_piece_instance_data.html#afb4443eda20595533c28fe05f079fb48" target="_top" xlink:title="authoring.data.PieceInstance\lData.getData">
<polygon fill="white" stroke="black" points="475,-196 475,-226 631,-226 631,-196 475,-196"/>
<text text-anchor="start" x="483" y="-214" font-family="Helvetica,sans-Serif" font-size="10.00">authoring.data.PieceInstance</text>
<text text-anchor="middle" x="553" y="-203" font-family="Helvetica,sans-Serif" font-size="10.00">Data.getData</text>
</a>
</g>
</g>
<!-- Node6&#45;&gt;Node7 -->
<g id="edge6" class="edge"><title>Node6&#45;&gt;Node7</title>
<path fill="none" stroke="midnightblue" d="M394.736,-211C417.631,-211 442.077,-211 464.705,-211"/>
<polygon fill="midnightblue" stroke="midnightblue" points="464.961,-214.5 474.961,-211 464.961,-207.5 464.961,-214.5"/>
</g>
<!-- Node8&#45;&gt;Node7 -->
<g id="edge8" class="edge"><title>Node8&#45;&gt;Node7</title>
<path fill="none" stroke="midnightblue" d="M378.707,-177.035C406.184,-182.42 437.339,-188.526 465.581,-194.062"/>
<polygon fill="midnightblue" stroke="midnightblue" points="464.951,-197.505 475.438,-195.994 466.298,-190.636 464.951,-197.505"/>
</g>
<!-- Node9&#45;&gt;Node7 -->
<g id="edge17" class="edge"><title>Node9&#45;&gt;Node7</title>
<path fill="none" stroke="midnightblue" d="M394.787,-124.588C404.377,-127.722 413.651,-131.775 422,-137 444.907,-151.337 435.674,-170.774 458,-186 460.949,-188.011 464.053,-189.861 467.264,-191.562"/>
<polygon fill="midnightblue" stroke="midnightblue" points="466.029,-194.85 476.564,-195.973 469.029,-188.525 466.029,-194.85"/>
</g>
<!-- Node10 -->
<g id="node10" class="node"><title>Node10</title>
<g id="a_node10"><a xlink:href="../../da/d4c/classauthoring__environment_1_1_g_u_i_grid.html#a12341db20ff77949c83ff8e9db4f2e10" target="_top" xlink:title="authoring_environment.GUIGrid.add\lPatchToTile">
<polygon fill="white" stroke="black" points="458.5,-147 458.5,-177 647.5,-177 647.5,-147 458.5,-147"/>
<text text-anchor="start" x="466.5" y="-165" font-family="Helvetica,sans-Serif" font-size="10.00">authoring_environment.GUIGrid.add</text>
<text text-anchor="middle" x="553" y="-154" font-family="Helvetica,sans-Serif" font-size="10.00">PatchToTile</text>
</a>
</g>
</g>
<!-- Node9&#45;&gt;Node10 -->
<g id="edge10" class="edge"><title>Node9&#45;&gt;Node10</title>
<path fill="none" stroke="midnightblue" d="M354.59,-124.54C375.568,-128.372 399.934,-132.856 422,-137 435.632,-139.56 450.062,-142.303 464.156,-145"/>
<polygon fill="midnightblue" stroke="midnightblue" points="463.862,-148.507 474.342,-146.952 465.18,-141.632 463.862,-148.507"/>
</g>
<!-- Node14 -->
<g id="node14" class="node"><title>Node14</title>
<g id="a_node14"><a xlink:href="../../da/d4c/classauthoring__environment_1_1_g_u_i_grid.html#ad9520ccdfc36fd1e2b2cbb9ee68c22f1" target="_top" xlink:title="authoring_environment.GUIGrid.add\lPieceToTile">
<polygon fill="white" stroke="black" points="458.5,-98 458.5,-128 647.5,-128 647.5,-98 458.5,-98"/>
<text text-anchor="start" x="466.5" y="-116" font-family="Helvetica,sans-Serif" font-size="10.00">authoring_environment.GUIGrid.add</text>
<text text-anchor="middle" x="553" y="-105" font-family="Helvetica,sans-Serif" font-size="10.00">PieceToTile</text>
</a>
</g>
</g>
<!-- Node9&#45;&gt;Node14 -->
<g id="edge14" class="edge"><title>Node9&#45;&gt;Node14</title>
<path fill="none" stroke="midnightblue" d="M422.24,-114.038C430.961,-113.968 439.713,-113.898 448.326,-113.829"/>
<polygon fill="midnightblue" stroke="midnightblue" points="448.391,-117.329 458.363,-113.749 448.335,-110.329 448.391,-117.329"/>
</g>
<!-- Node16 -->
<g id="node16" class="node"><title>Node16</title>
<g id="a_node16"><a xlink:href="../../d7/dd4/classauthoring_1_1data_1_1_patch_instance_data.html#a60ac72e96e7e0da6f3beb20122a8c041" target="_top" xlink:title="authoring.data.PatchInstance\lData.getData">
<polygon fill="white" stroke="black" points="474.5,-49 474.5,-79 631.5,-79 631.5,-49 474.5,-49"/>
<text text-anchor="start" x="482.5" y="-67" font-family="Helvetica,sans-Serif" font-size="10.00">authoring.data.PatchInstance</text>
<text text-anchor="middle" x="553" y="-56" font-family="Helvetica,sans-Serif" font-size="10.00">Data.getData</text>
</a>
</g>
</g>
<!-- Node9&#45;&gt;Node16 -->
<g id="edge18" class="edge"><title>Node9&#45;&gt;Node16</title>
<path fill="none" stroke="midnightblue" d="M348.73,-105.467C382.213,-98.6365 428.234,-89.2483 468.019,-81.132"/>
<polygon fill="midnightblue" stroke="midnightblue" points="468.89,-84.5266 477.989,-79.0983 467.491,-77.6679 468.89,-84.5266"/>
</g>
<!-- Node17 -->
<g id="node17" class="node"><title>Node17</title>
<g id="a_node17"><a xlink:href="../../d9/df3/classauthoring__environment_1_1_super_grid.html#a05c3a225e4a4cab14f9cce4921eaef82" target="_top" xlink:title="authoring_environment.Super\lGrid.initGridTiles">
<polygon fill="white" stroke="black" points="473,-0 473,-30 633,-30 633,-0 473,-0"/>
<text text-anchor="start" x="481" y="-18" font-family="Helvetica,sans-Serif" font-size="10.00">authoring_environment.Super</text>
<text text-anchor="middle" x="553" y="-7" font-family="Helvetica,sans-Serif" font-size="10.00">Grid.initGridTiles</text>
</a>
</g>
</g>
<!-- Node9&#45;&gt;Node17 -->
<g id="edge19" class="edge"><title>Node9&#45;&gt;Node17</title>
<path fill="none" stroke="midnightblue" d="M318.813,-105.39C346.88,-89.6754 405.394,-58.3016 458,-39 463.863,-36.8489 469.999,-34.8174 476.207,-32.916"/>
<polygon fill="midnightblue" stroke="midnightblue" points="477.387,-36.2174 485.992,-30.0368 475.411,-29.5021 477.387,-36.2174"/>
</g>
<!-- Node11 -->
<g id="node11" class="node"><title>Node11</title>
<g id="a_node11"><a xlink:href="../../d9/df2/classgamedata_1_1gamecomponents_1_1_grid_component.html#a9a5b2359d22e7d79d5065826a0dc8211" target="_top" xlink:title="gamedata.gamecomponents.\lGridComponent.getImageView">
<polygon fill="white" stroke="black" points="684.5,-122 684.5,-152 847.5,-152 847.5,-122 684.5,-122"/>
<text text-anchor="start" x="692.5" y="-140" font-family="Helvetica,sans-Serif" font-size="10.00">gamedata.gamecomponents.</text>
<text text-anchor="middle" x="766" y="-129" font-family="Helvetica,sans-Serif" font-size="10.00">GridComponent.getImageView</text>
</a>
</g>
</g>
<!-- Node10&#45;&gt;Node11 -->
<g id="edge11" class="edge"><title>Node10&#45;&gt;Node11</title>
<path fill="none" stroke="midnightblue" d="M647.776,-150.889C656.558,-149.849 665.448,-148.795 674.201,-147.758"/>
<polygon fill="midnightblue" stroke="midnightblue" points="674.88,-151.202 684.399,-146.55 674.056,-144.251 674.88,-151.202"/>
</g>
<!-- Node13 -->
<g id="node13" class="node"><title>Node13</title>
<g id="a_node13"><a xlink:href="../../dc/d5a/classauthoring__environment_1_1_super_tile.html#a7e65040df400ad3d7a62145816f0cca4" target="_top" xlink:title="authoring_environment.Super\lTile.setPatchImage">
<polygon fill="white" stroke="black" points="686,-171 686,-201 846,-201 846,-171 686,-171"/>
<text text-anchor="start" x="694" y="-189" font-family="Helvetica,sans-Serif" font-size="10.00">authoring_environment.Super</text>
<text text-anchor="middle" x="766" y="-178" font-family="Helvetica,sans-Serif" font-size="10.00">Tile.setPatchImage</text>
</a>
</g>
</g>
<!-- Node10&#45;&gt;Node13 -->
<g id="edge13" class="edge"><title>Node10&#45;&gt;Node13</title>
<path fill="none" stroke="midnightblue" d="M647.776,-172.667C657.072,-173.724 666.49,-174.795 675.738,-175.847"/>
<polygon fill="midnightblue" stroke="midnightblue" points="675.36,-179.326 685.691,-176.979 676.151,-172.371 675.36,-179.326"/>
</g>
<!-- Node12 -->
<g id="node12" class="node"><title>Node12</title>
<g id="a_node12"><a xlink:href="../../d9/df2/classgamedata_1_1gamecomponents_1_1_grid_component.html#a224e5aae28655f7e26ff73cbde7b0d99" target="_top" xlink:title="gamedata.gamecomponents.\lGridComponent.setImageView">
<polygon fill="white" stroke="black" points="884,-122 884,-152 1046,-152 1046,-122 884,-122"/>
<text text-anchor="start" x="892" y="-140" font-family="Helvetica,sans-Serif" font-size="10.00">gamedata.gamecomponents.</text>
<text text-anchor="middle" x="965" y="-129" font-family="Helvetica,sans-Serif" font-size="10.00">GridComponent.setImageView</text>
</a>
</g>
</g>
<!-- Node11&#45;&gt;Node12 -->
<g id="edge12" class="edge"><title>Node11&#45;&gt;Node12</title>
<path fill="none" stroke="midnightblue" d="M847.696,-137C856.25,-137 864.989,-137 873.643,-137"/>
<polygon fill="midnightblue" stroke="midnightblue" points="873.748,-140.5 883.748,-137 873.748,-133.5 873.748,-140.5"/>
</g>
<!-- Node14&#45;&gt;Node11 -->
<g id="edge15" class="edge"><title>Node14&#45;&gt;Node11</title>
<path fill="none" stroke="midnightblue" d="M647.776,-123.667C656.558,-124.665 665.448,-125.677 674.201,-126.672"/>
<polygon fill="midnightblue" stroke="midnightblue" points="674.067,-130.179 684.399,-127.832 674.858,-123.224 674.067,-130.179"/>
</g>
<!-- Node15 -->
<g id="node15" class="node"><title>Node15</title>
<g id="a_node15"><a xlink:href="../../dc/d5a/classauthoring__environment_1_1_super_tile.html#af7f7917a6fb88cc3145cd6f981a80f79" target="_top" xlink:title="authoring_environment.Super\lTile.setPieceImage">
<polygon fill="white" stroke="black" points="686,-73 686,-103 846,-103 846,-73 686,-73"/>
<text text-anchor="start" x="694" y="-91" font-family="Helvetica,sans-Serif" font-size="10.00">authoring_environment.Super</text>
<text text-anchor="middle" x="766" y="-80" font-family="Helvetica,sans-Serif" font-size="10.00">Tile.setPieceImage</text>
</a>
</g>
</g>
<!-- Node14&#45;&gt;Node15 -->
<g id="edge16" class="edge"><title>Node14&#45;&gt;Node15</title>
<path fill="none" stroke="midnightblue" d="M647.776,-101.889C657.072,-100.788 666.49,-99.6718 675.738,-98.5761"/>
<polygon fill="midnightblue" stroke="midnightblue" points="676.173,-102.049 685.691,-97.3968 675.349,-95.0978 676.173,-102.049"/>
</g>
<!-- Node18 -->
<g id="node18" class="node"><title>Node18</title>
<g id="a_node18"><a xlink:href="../../d9/df3/classauthoring__environment_1_1_super_grid.html#a94d725216cfe4f629eafae0d5b526f9d" target="_top" xlink:title="authoring_environment.Super\lGrid.makeShapeTile">
<polygon fill="white" stroke="black" points="686,-0 686,-30 846,-30 846,-0 686,-0"/>
<text text-anchor="start" x="694" y="-18" font-family="Helvetica,sans-Serif" font-size="10.00">authoring_environment.Super</text>
<text text-anchor="middle" x="766" y="-7" font-family="Helvetica,sans-Serif" font-size="10.00">Grid.makeShapeTile</text>
</a>
</g>
</g>
<!-- Node17&#45;&gt;Node18 -->
<g id="edge20" class="edge"><title>Node17&#45;&gt;Node18</title>
<path fill="none" stroke="midnightblue" d="M633.169,-15C647.001,-15 661.479,-15 675.565,-15"/>
<polygon fill="midnightblue" stroke="midnightblue" points="675.738,-18.5001 685.738,-15 675.738,-11.5001 675.738,-18.5001"/>
</g>
</g>
</svg>
