<?xml version="1.0" encoding="UTF-8" standalone="no"?>
<!DOCTYPE svg PUBLIC "-//W3C//DTD SVG 1.1//EN"
 "http://www.w3.org/Graphics/SVG/1.1/DTD/svg11.dtd">
<!-- Generated by graphviz version 2.36.0 (20140111.2315)
 -->
<!-- Title: gamedata.JSON.JSONManager.writeToJSON Pages: 1 -->
<svg width="670pt" height="164pt"
 viewBox="0.00 0.00 670.00 164.00" xmlns="http://www.w3.org/2000/svg" xmlns:xlink="http://www.w3.org/1999/xlink">
<g id="graph0" class="graph" transform="scale(1 1) rotate(0) translate(4 160)">
<title>gamedata.JSON.JSONManager.writeToJSON</title>
<polygon fill="white" stroke="none" points="-4,4 -4,-160 666,-160 666,4 -4,4"/>
<!-- Node1 -->
<g id="node1" class="node"><title>Node1</title>
<polygon fill="#bfbfbf" stroke="black" points="0.5,-63 0.5,-93 187.5,-93 187.5,-63 0.5,-63"/>
<text text-anchor="start" x="8.5" y="-81" font-family="Helvetica,sans-Serif" font-size="10.00">gamedata.JSON.JSONManager.write</text>
<text text-anchor="middle" x="94" y="-70" font-family="Helvetica,sans-Serif" font-size="10.00">ToJSON</text>
</g>
<!-- Node2 -->
<g id="node2" class="node"><title>Node2</title>
<g id="a_node2"><a xlink:href="../../d8/d93/classauthoring_1_1concretefeatures_1_1menus_1_1_file_x.html#a06eadcf7852f723bc5a70d08a1bc5f3f" target="_top" xlink:title="authoring.concretefeatures.menus.\lFileX.handleSave">
<polygon fill="white" stroke="black" points="239,-126 239,-156 425,-156 425,-126 239,-126"/>
<text text-anchor="start" x="247" y="-144" font-family="Helvetica,sans-Serif" font-size="10.00">authoring.concretefeatures.menus.</text>
<text text-anchor="middle" x="332" y="-133" font-family="Helvetica,sans-Serif" font-size="10.00">FileX.handleSave</text>
</a>
</g>
</g>
<!-- Node1&#45;&gt;Node2 -->
<g id="edge1" class="edge"><title>Node1&#45;&gt;Node2</title>
<path fill="none" stroke="midnightblue" d="M153.096,-95.8776C175.213,-102.482 200.697,-109.851 224,-116 236.912,-119.407 250.763,-122.82 264.073,-125.981"/>
<polygon fill="midnightblue" stroke="midnightblue" points="154.1,-92.5248 143.516,-93.0021 152.087,-99.2293 154.1,-92.5248"/>
</g>
<!-- Node4 -->
<g id="node4" class="node"><title>Node4</title>
<g id="a_node4"><a xlink:href="../../db/d40/classfxml__main_1_1_authoring_controller.html#a0a9b65fb87ba111e2185014364016f95" target="_top" xlink:title="fxml_main.AuthoringController.saveGame">
<polygon fill="white" stroke="black" points="224,-87.5 224,-106.5 440,-106.5 440,-87.5 224,-87.5"/>
<text text-anchor="middle" x="332" y="-94.5" font-family="Helvetica,sans-Serif" font-size="10.00">fxml_main.AuthoringController.saveGame</text>
</a>
</g>
</g>
<!-- Node1&#45;&gt;Node4 -->
<g id="edge3" class="edge"><title>Node1&#45;&gt;Node4</title>
<path fill="none" stroke="midnightblue" d="M197.694,-86.2678C206.35,-86.9646 215.117,-87.6705 223.806,-88.37"/>
<polygon fill="midnightblue" stroke="midnightblue" points="197.845,-82.7686 187.596,-85.4548 197.283,-89.7461 197.845,-82.7686"/>
</g>
<!-- Node5 -->
<g id="node5" class="node"><title>Node5</title>
<g id="a_node5"><a xlink:href="../../df/dd5/classgame_player_1_1_view_controller.html#a373a9d79a047ab463f62ed817ad382fd" target="_top" xlink:title="gamePlayer.ViewController.saveGame">
<polygon fill="white" stroke="black" points="233,-49.5 233,-68.5 431,-68.5 431,-49.5 233,-49.5"/>
<text text-anchor="middle" x="332" y="-56.5" font-family="Helvetica,sans-Serif" font-size="10.00">gamePlayer.ViewController.saveGame</text>
</a>
</g>
</g>
<!-- Node1&#45;&gt;Node5 -->
<g id="edge4" class="edge"><title>Node1&#45;&gt;Node5</title>
<path fill="none" stroke="midnightblue" d="M197.765,-69.7266C209.408,-68.7891 221.253,-67.8355 232.836,-66.9031"/>
<polygon fill="midnightblue" stroke="midnightblue" points="197.283,-66.2539 187.596,-70.5452 197.845,-73.2314 197.283,-66.2539"/>
</g>
<!-- Node6 -->
<g id="node6" class="node"><title>Node6</title>
<g id="a_node6"><a xlink:href="../../d7/df4/classtests_1_1_j_s_o_n_tester_main.html#a5f1fa68f3fcb37a473271cdbfeaaa92e" target="_top" xlink:title="tests.JSONTesterMain.test\lJSONwrite">
<polygon fill="white" stroke="black" points="262,-0 262,-30 402,-30 402,-0 262,-0"/>
<text text-anchor="start" x="270" y="-18" font-family="Helvetica,sans-Serif" font-size="10.00">tests.JSONTesterMain.test</text>
<text text-anchor="middle" x="332" y="-7" font-family="Helvetica,sans-Serif" font-size="10.00">JSONwrite</text>
</a>
</g>
</g>
<!-- Node1&#45;&gt;Node6 -->
<g id="edge5" class="edge"><title>Node1&#45;&gt;Node6</title>
<path fill="none" stroke="midnightblue" d="M153.096,-60.1224C175.213,-53.5176 200.697,-46.1491 224,-40 236.912,-36.5929 250.763,-33.1798 264.073,-30.0188"/>
<polygon fill="midnightblue" stroke="midnightblue" points="152.087,-56.7707 143.516,-62.9979 154.1,-63.4752 152.087,-56.7707"/>
</g>
<!-- Node3 -->
<g id="node3" class="node"><title>Node3</title>
<g id="a_node3"><a xlink:href="../../d8/d93/classauthoring_1_1concretefeatures_1_1menus_1_1_file_x.html#a4b99e0877ab0c9e769217c815f3b99a1" target="_top" xlink:title="authoring.concretefeatures.menus.\lFileX.FileX">
<polygon fill="white" stroke="black" points="476,-126 476,-156 662,-156 662,-126 476,-126"/>
<text text-anchor="start" x="484" y="-144" font-family="Helvetica,sans-Serif" font-size="10.00">authoring.concretefeatures.menus.</text>
<text text-anchor="middle" x="569" y="-133" font-family="Helvetica,sans-Serif" font-size="10.00">FileX.FileX</text>
</a>
</g>
</g>
<!-- Node2&#45;&gt;Node3 -->
<g id="edge2" class="edge"><title>Node2&#45;&gt;Node3</title>
<path fill="none" stroke="midnightblue" d="M435.387,-141C448.788,-141 462.455,-141 475.676,-141"/>
<polygon fill="midnightblue" stroke="midnightblue" points="435.204,-137.5 425.204,-141 435.204,-144.5 435.204,-137.5"/>
</g>
<!-- Node7 -->
<g id="node7" class="node"><title>Node7</title>
<g id="a_node7"><a xlink:href="../../d7/df4/classtests_1_1_j_s_o_n_tester_main.html#a931215da47157cbc5157c6a9df31ccd4" target="_top" xlink:title="tests.JSONTesterMain.main">
<polygon fill="white" stroke="black" points="496,-5.5 496,-24.5 642,-24.5 642,-5.5 496,-5.5"/>
<text text-anchor="middle" x="569" y="-12.5" font-family="Helvetica,sans-Serif" font-size="10.00">tests.JSONTesterMain.main</text>
</a>
</g>
</g>
<!-- Node6&#45;&gt;Node7 -->
<g id="edge6" class="edge"><title>Node6&#45;&gt;Node7</title>
<path fill="none" stroke="midnightblue" d="M412.443,-15C439.493,-15 469.561,-15 495.995,-15"/>
<polygon fill="midnightblue" stroke="midnightblue" points="412.237,-11.5001 402.237,-15 412.237,-18.5001 412.237,-11.5001"/>
</g>
</g>
</svg>
