<?xml version="1.0" encoding="UTF-8" standalone="no"?>
<!DOCTYPE svg PUBLIC "-//W3C//DTD SVG 1.1//EN"
 "http://www.w3.org/Graphics/SVG/1.1/DTD/svg11.dtd">
<!-- Generated by graphviz version 2.36.0 (20140111.2315)
 -->
<!-- Title: gamedata.JSON.JSONManager.JSONManager Pages: 1 -->
<svg width="410pt" height="38pt"
 viewBox="0.00 0.00 410.00 38.00" xmlns="http://www.w3.org/2000/svg" xmlns:xlink="http://www.w3.org/1999/xlink">
<g id="graph0" class="graph" transform="scale(1 1) rotate(0) translate(4 34)">
<title>gamedata.JSON.JSONManager.JSONManager</title>
<polygon fill="white" stroke="none" points="-4,4 -4,-34 406,-34 406,4 -4,4"/>
<!-- Node1 -->
<g id="node1" class="node"><title>Node1</title>
<polygon fill="#bfbfbf" stroke="black" points="0,-0 0,-30 164,-30 164,-0 0,-0"/>
<text text-anchor="start" x="8" y="-18" font-family="Helvetica,sans-Serif" font-size="10.00">gamedata.JSON.JSONManager.</text>
<text text-anchor="middle" x="82" y="-7" font-family="Helvetica,sans-Serif" font-size="10.00">JSONManager</text>
</g>
<!-- Node2 -->
<g id="node2" class="node"><title>Node2</title>
<g id="a_node2"><a xlink:href="../../d0/dbd/classgamedata_1_1_j_s_o_n_1_1_j_s_o_n_manager.html#a0935675a8c95fcaec9cd66274a013d5e" target="_top" xlink:title="gamedata.JSON.JSONManager.register\lTypeAdapters">
<polygon fill="white" stroke="black" points="200.5,-0 200.5,-30 401.5,-30 401.5,-0 200.5,-0"/>
<text text-anchor="start" x="208.5" y="-18" font-family="Helvetica,sans-Serif" font-size="10.00">gamedata.JSON.JSONManager.register</text>
<text text-anchor="middle" x="301" y="-7" font-family="Helvetica,sans-Serif" font-size="10.00">TypeAdapters</text>
</a>
</g>
</g>
<!-- Node1&#45;&gt;Node2 -->
<g id="edge1" class="edge"><title>Node1&#45;&gt;Node2</title>
<path fill="none" stroke="midnightblue" d="M164.111,-15C172.591,-15 181.309,-15 190.04,-15"/>
<polygon fill="midnightblue" stroke="midnightblue" points="190.281,-18.5001 200.281,-15 190.281,-11.5001 190.281,-18.5001"/>
</g>
</g>
</svg>
