<?xml version="1.0" encoding="UTF-8" standalone="no"?>
<!DOCTYPE svg PUBLIC "-//W3C//DTD SVG 1.1//EN"
 "http://www.w3.org/Graphics/SVG/1.1/DTD/svg11.dtd">
<!-- Generated by graphviz version 2.36.0 (20140111.2315)
 -->
<!-- Title: gamedata.JSON.JSONManager.readFromJSONFile Pages: 1 -->
<svg width="648pt" height="126pt"
 viewBox="0.00 0.00 648.00 126.00" xmlns="http://www.w3.org/2000/svg" xmlns:xlink="http://www.w3.org/1999/xlink">
<g id="graph0" class="graph" transform="scale(1 1) rotate(0) translate(4 122)">
<title>gamedata.JSON.JSONManager.readFromJSONFile</title>
<polygon fill="white" stroke="none" points="-4,4 -4,-122 644,-122 644,4 -4,4"/>
<!-- Node1 -->
<g id="node1" class="node"><title>Node1</title>
<polygon fill="#bfbfbf" stroke="black" points="0,-44 0,-74 186,-74 186,-44 0,-44"/>
<text text-anchor="start" x="8" y="-62" font-family="Helvetica,sans-Serif" font-size="10.00">gamedata.JSON.JSONManager.read</text>
<text text-anchor="middle" x="93" y="-51" font-family="Helvetica,sans-Serif" font-size="10.00">FromJSONFile</text>
</g>
<!-- Node2 -->
<g id="node2" class="node"><title>Node2</title>
<g id="a_node2"><a xlink:href="../../d8/d93/classauthoring_1_1concretefeatures_1_1menus_1_1_file_x.html#a932920afcf9f8fbe7d5dca93d8fabd66" target="_top" xlink:title="authoring.concretefeatures.menus.\lFileX.handleLoad">
<polygon fill="white" stroke="black" points="227,-88 227,-118 413,-118 413,-88 227,-88"/>
<text text-anchor="start" x="235" y="-106" font-family="Helvetica,sans-Serif" font-size="10.00">authoring.concretefeatures.menus.</text>
<text text-anchor="middle" x="320" y="-95" font-family="Helvetica,sans-Serif" font-size="10.00">FileX.handleLoad</text>
</a>
</g>
</g>
<!-- Node1&#45;&gt;Node2 -->
<g id="edge1" class="edge"><title>Node1&#45;&gt;Node2</title>
<path fill="none" stroke="midnightblue" d="M180.644,-75.9437C200.909,-79.9066 222.357,-84.101 242.161,-87.9738"/>
<polygon fill="midnightblue" stroke="midnightblue" points="181.289,-72.5036 170.803,-74.0192 179.945,-79.3735 181.289,-72.5036"/>
</g>
<!-- Node4 -->
<g id="node4" class="node"><title>Node4</title>
<g id="a_node4"><a xlink:href="../../df/dd5/classgame_player_1_1_view_controller.html#a87ee83b9dc170a094457a10bfdff7c20" target="_top" xlink:title="gamePlayer.ViewController.loadGame">
<polygon fill="white" stroke="black" points="222,-49.5 222,-68.5 418,-68.5 418,-49.5 222,-49.5"/>
<text text-anchor="middle" x="320" y="-56.5" font-family="Helvetica,sans-Serif" font-size="10.00">gamePlayer.ViewController.loadGame</text>
</a>
</g>
</g>
<!-- Node1&#45;&gt;Node4 -->
<g id="edge3" class="edge"><title>Node1&#45;&gt;Node4</title>
<path fill="none" stroke="midnightblue" d="M196.438,-59C204.901,-59 213.441,-59 221.864,-59"/>
<polygon fill="midnightblue" stroke="midnightblue" points="196.165,-55.5001 186.165,-59 196.165,-62.5001 196.165,-55.5001"/>
</g>
<!-- Node5 -->
<g id="node5" class="node"><title>Node5</title>
<g id="a_node5"><a xlink:href="../../d7/df4/classtests_1_1_j_s_o_n_tester_main.html#aed46ec0a44058a0179ca4f4b30547e06" target="_top" xlink:title="tests.JSONTesterMain.test\lJSONload">
<polygon fill="white" stroke="black" points="250,-0 250,-30 390,-30 390,-0 250,-0"/>
<text text-anchor="start" x="258" y="-18" font-family="Helvetica,sans-Serif" font-size="10.00">tests.JSONTesterMain.test</text>
<text text-anchor="middle" x="320" y="-7" font-family="Helvetica,sans-Serif" font-size="10.00">JSONload</text>
</a>
</g>
</g>
<!-- Node1&#45;&gt;Node5 -->
<g id="edge4" class="edge"><title>Node1&#45;&gt;Node5</title>
<path fill="none" stroke="midnightblue" d="M180.822,-42.0214C203.641,-37.559 227.949,-32.8054 249.713,-28.5495"/>
<polygon fill="midnightblue" stroke="midnightblue" points="179.945,-38.6265 170.803,-43.9808 181.289,-45.4964 179.945,-38.6265"/>
</g>
<!-- Node3 -->
<g id="node3" class="node"><title>Node3</title>
<g id="a_node3"><a xlink:href="../../d8/d93/classauthoring_1_1concretefeatures_1_1menus_1_1_file_x.html#a4b99e0877ab0c9e769217c815f3b99a1" target="_top" xlink:title="authoring.concretefeatures.menus.\lFileX.FileX">
<polygon fill="white" stroke="black" points="454,-88 454,-118 640,-118 640,-88 454,-88"/>
<text text-anchor="start" x="462" y="-106" font-family="Helvetica,sans-Serif" font-size="10.00">authoring.concretefeatures.menus.</text>
<text text-anchor="middle" x="547" y="-95" font-family="Helvetica,sans-Serif" font-size="10.00">FileX.FileX</text>
</a>
</g>
</g>
<!-- Node2&#45;&gt;Node3 -->
<g id="edge2" class="edge"><title>Node2&#45;&gt;Node3</title>
<path fill="none" stroke="midnightblue" d="M423.331,-103C433.548,-103 443.877,-103 453.978,-103"/>
<polygon fill="midnightblue" stroke="midnightblue" points="423.165,-99.5001 413.165,-103 423.165,-106.5 423.165,-99.5001"/>
</g>
</g>
</svg>
