<?xml version="1.0" encoding="UTF-8" standalone="no"?>
<!DOCTYPE svg PUBLIC "-//W3C//DTD SVG 1.1//EN"
 "http://www.w3.org/Graphics/SVG/1.1/DTD/svg11.dtd">
<!-- Generated by graphviz version 2.36.0 (20140111.2315)
 -->
<!-- Title: gamedata.action.TotalLogicBox.initNewButton Pages: 1 -->
<svg width="524pt" height="38pt"
 viewBox="0.00 0.00 524.00 38.00" xmlns="http://www.w3.org/2000/svg" xmlns:xlink="http://www.w3.org/1999/xlink">
<g id="graph0" class="graph" transform="scale(1 1) rotate(0) translate(4 34)">
<title>gamedata.action.TotalLogicBox.initNewButton</title>
<polygon fill="white" stroke="none" points="-4,4 -4,-34 520,-34 520,4 -4,4"/>
<!-- Node1 -->
<g id="node1" class="node"><title>Node1</title>
<polygon fill="#bfbfbf" stroke="black" points="0,-0 0,-30 148,-30 148,-0 0,-0"/>
<text text-anchor="start" x="8" y="-18" font-family="Helvetica,sans-Serif" font-size="10.00">gamedata.action.TotalLogic</text>
<text text-anchor="middle" x="74" y="-7" font-family="Helvetica,sans-Serif" font-size="10.00">Box.initNewButton</text>
</g>
<!-- Node2 -->
<g id="node2" class="node"><title>Node2</title>
<g id="a_node2"><a xlink:href="../../d6/d24/classgamedata_1_1action_1_1_total_logic_box.html#a4fcb11e8f9dbe25afe9d2a599726b577" target="_top" xlink:title="gamedata.action.TotalLogic\lBox.addSingleMultiplierBox">
<polygon fill="white" stroke="black" points="184,-0 184,-30 332,-30 332,-0 184,-0"/>
<text text-anchor="start" x="192" y="-18" font-family="Helvetica,sans-Serif" font-size="10.00">gamedata.action.TotalLogic</text>
<text text-anchor="middle" x="258" y="-7" font-family="Helvetica,sans-Serif" font-size="10.00">Box.addSingleMultiplierBox</text>
</a>
</g>
</g>
<!-- Node1&#45;&gt;Node2 -->
<g id="edge1" class="edge"><title>Node1&#45;&gt;Node2</title>
<path fill="none" stroke="midnightblue" d="M148.24,-15C156.596,-15 165.161,-15 173.636,-15"/>
<polygon fill="midnightblue" stroke="midnightblue" points="173.91,-18.5001 183.91,-15 173.91,-11.5001 173.91,-18.5001"/>
</g>
<!-- Node3 -->
<g id="node3" class="node"><title>Node3</title>
<g id="a_node3"><a xlink:href="../../d6/d24/classgamedata_1_1action_1_1_total_logic_box.html#a79248f8eb7f918f0ccb8988a1851fa34" target="_top" xlink:title="gamedata.action.TotalLogic\lBox.makeDeleteButton">
<polygon fill="white" stroke="black" points="368,-0 368,-30 516,-30 516,-0 368,-0"/>
<text text-anchor="start" x="376" y="-18" font-family="Helvetica,sans-Serif" font-size="10.00">gamedata.action.TotalLogic</text>
<text text-anchor="middle" x="442" y="-7" font-family="Helvetica,sans-Serif" font-size="10.00">Box.makeDeleteButton</text>
</a>
</g>
</g>
<!-- Node2&#45;&gt;Node3 -->
<g id="edge2" class="edge"><title>Node2&#45;&gt;Node3</title>
<path fill="none" stroke="midnightblue" d="M332.24,-15C340.596,-15 349.161,-15 357.636,-15"/>
<polygon fill="midnightblue" stroke="midnightblue" points="357.91,-18.5001 367.91,-15 357.91,-11.5001 357.91,-18.5001"/>
</g>
</g>
</svg>
