<?xml version="1.0" encoding="UTF-8" standalone="no"?>
<!DOCTYPE svg PUBLIC "-//W3C//DTD SVG 1.1//EN"
 "http://www.w3.org/Graphics/SVG/1.1/DTD/svg11.dtd">
<!-- Generated by graphviz version 2.36.0 (20140111.2315)
 -->
<!-- Title: gamedata.action.TotalLogicBox.makeDeleteButton Pages: 1 -->
<!--zoomable 61 -->
<svg id="main" version="1.1" xmlns="http://www.w3.org/2000/svg" xmlns:xlink="http://www.w3.org/1999/xlink" xml:space="preserve" onload="init(evt)">
<style type="text/css"><![CDATA[
.edge:hover path { stroke: red; }
.edge:hover polygon { stroke: red; fill: red; }
]]></style>
<script type="text/javascript"><![CDATA[
var edges = document.getElementsByTagName('g');
if (edges && edges.length) {
  for (var i=0;i<edges.length;i++) {
    if (edges[i].id.substr(0,4)=='edge') {
      edges[i].setAttribute('class','edge');
    }
  }
}
]]></script>
        <defs>
                <circle id="rim" cx="0" cy="0" r="7"/>
                <circle id="rim2" cx="0" cy="0" r="3.5"/>
                <g id="zoomPlus">
                        <use xlink:href="#rim" fill="#404040">
                                <set attributeName="fill" to="#808080" begin="zoomplus.mouseover" end="zoomplus.mouseout"/>
                        </use>
                        <path d="M-4,0h8M0,-4v8" fill="none" stroke="white" stroke-width="1.5" pointer-events="none"/>
                </g>
                <g id="zoomMin">
                        <use xlink:href="#rim" fill="#404040">
                                <set attributeName="fill" to="#808080" begin="zoomminus.mouseover" end="zoomminus.mouseout"/>
                        </use>
                        <path d="M-4,0h8" fill="none" stroke="white" stroke-width="1.5" pointer-events="none"/>
                </g>
                <g id="dirArrow">
                        <path fill="none" stroke="white" stroke-width="1.5" d="M0,-3.0v7 M-2.5,-0.5L0,-3.0L2.5,-0.5"/>
                </g>
               <g id="resetDef">
                       <use xlink:href="#rim2" fill="#404040">
                               <set attributeName="fill" to="#808080" begin="reset.mouseover" end="reset.mouseout"/>
                       </use>
               </g>
        </defs>

<script type="text/javascript">
var viewWidth = 894;
var viewHeight = 61;
var sectionId = 'dynsection-13';
</script>
<script xlink:href="../../svgpan.js"/>
<svg id="graph" class="graph">
<g id="viewport">
<title>gamedata.action.TotalLogicBox.makeDeleteButton</title>
<polygon fill="white" stroke="none" points="-4,4 -4,-57 890,-57 890,4 -4,4"/>
<!-- Node1 -->
<g id="node1" class="node"><title>Node1</title>
<polygon fill="#bfbfbf" stroke="black" points="0,-1 0,-31 148,-31 148,-1 0,-1"/>
<text text-anchor="start" x="8" y="-19" font-family="Helvetica,sans-Serif" font-size="10.00">gamedata.action.TotalLogic</text>
<text text-anchor="middle" x="74" y="-8" font-family="Helvetica,sans-Serif" font-size="10.00">Box.makeDeleteButton</text>
</g>
<!-- Node2 -->
<g id="node2" class="node"><title>Node2</title>
<g id="a_node2"><a xlink:href="../../d6/d24/classgamedata_1_1action_1_1_total_logic_box.html#a4fcb11e8f9dbe25afe9d2a599726b577" target="_top" xlink:title="gamedata.action.TotalLogic\lBox.addSingleMultiplierBox">
<polygon fill="white" stroke="black" points="184,-1 184,-31 332,-31 332,-1 184,-1"/>
<text text-anchor="start" x="192" y="-19" font-family="Helvetica,sans-Serif" font-size="10.00">gamedata.action.TotalLogic</text>
<text text-anchor="middle" x="258" y="-8" font-family="Helvetica,sans-Serif" font-size="10.00">Box.addSingleMultiplierBox</text>
</a>
</g>
</g>
<!-- Node1&#45;&gt;Node2 -->
<g id="edge1" class="edge"><title>Node1&#45;&gt;Node2</title>
<path fill="none" stroke="midnightblue" d="M158.516,-16C166.992,-16 175.556,-16 183.91,-16"/>
<polygon fill="midnightblue" stroke="midnightblue" points="158.24,-12.5001 148.24,-16 158.24,-19.5001 158.24,-12.5001"/>
</g>
<!-- Node3 -->
<g id="node3" class="node"><title>Node3</title>
<g id="a_node3"><a xlink:href="../../d6/d24/classgamedata_1_1action_1_1_total_logic_box.html#a8071a6e0b7c3c1a74c931e0bb7fddc78" target="_top" xlink:title="gamedata.action.TotalLogic\lBox.initNewButton">
<polygon fill="white" stroke="black" points="368,-23 368,-53 516,-53 516,-23 368,-23"/>
<text text-anchor="start" x="376" y="-41" font-family="Helvetica,sans-Serif" font-size="10.00">gamedata.action.TotalLogic</text>
<text text-anchor="middle" x="442" y="-30" font-family="Helvetica,sans-Serif" font-size="10.00">Box.initNewButton</text>
</a>
</g>
</g>
<!-- Node2&#45;&gt;Node3 -->
<g id="edge2" class="edge"><title>Node2&#45;&gt;Node3</title>
<path fill="none" stroke="midnightblue" d="M342.237,-26.0616C350.804,-27.0972 359.464,-28.1441 367.91,-29.165"/>
<polygon fill="midnightblue" stroke="midnightblue" points="342.587,-22.5786 332.24,-24.8531 341.747,-29.528 342.587,-22.5786"/>
</g>
<!-- Node4 -->
<g id="node4" class="node"><title>Node4</title>
<g id="a_node4"><a xlink:href="../../d6/d24/classgamedata_1_1action_1_1_total_logic_box.html#abd6245089411e0004b6dbe03bf2712c8" target="_top" xlink:title="gamedata.action.TotalLogic\lBox.initSingleMultiplierVBox">
<polygon fill="white" stroke="black" points="552.5,-1 552.5,-31 701.5,-31 701.5,-1 552.5,-1"/>
<text text-anchor="start" x="560.5" y="-19" font-family="Helvetica,sans-Serif" font-size="10.00">gamedata.action.TotalLogic</text>
<text text-anchor="middle" x="627" y="-8" font-family="Helvetica,sans-Serif" font-size="10.00">Box.initSingleMultiplierVBox</text>
</a>
</g>
</g>
<!-- Node2&#45;&gt;Node4 -->
<g id="edge5" class="edge"><title>Node2&#45;&gt;Node4</title>
<path fill="none" stroke="midnightblue" d="M342.407,-14.3127C351.049,-14.1848 359.702,-14.0761 368,-14 433.775,-13.3966 450.225,-13.4021 516,-14 527.746,-14.1068 540.197,-14.2777 552.336,-14.4757"/>
<polygon fill="midnightblue" stroke="midnightblue" points="342.231,-10.8149 332.287,-14.4709 342.341,-17.8141 342.231,-10.8149"/>
</g>
<!-- Node3&#45;&gt;Node4 -->
<g id="edge3" class="edge"><title>Node3&#45;&gt;Node4</title>
<path fill="none" stroke="midnightblue" d="M526.28,-27.9882C534.994,-26.9406 543.808,-25.881 552.403,-24.8477"/>
<polygon fill="midnightblue" stroke="midnightblue" points="525.626,-24.5415 516.115,-29.2102 526.462,-31.4915 525.626,-24.5415"/>
</g>
<!-- Node5 -->
<g id="node5" class="node"><title>Node5</title>
<g id="a_node5"><a xlink:href="../../d6/d24/classgamedata_1_1action_1_1_total_logic_box.html#a8253e20e78d09bfda4bf099e726b24cd" target="_top" xlink:title="gamedata.action.TotalLogic\lBox.TotalLogicBox">
<polygon fill="white" stroke="black" points="738,-1 738,-31 886,-31 886,-1 738,-1"/>
<text text-anchor="start" x="746" y="-19" font-family="Helvetica,sans-Serif" font-size="10.00">gamedata.action.TotalLogic</text>
<text text-anchor="middle" x="812" y="-8" font-family="Helvetica,sans-Serif" font-size="10.00">Box.TotalLogicBox</text>
</a>
</g>
</g>
<!-- Node4&#45;&gt;Node5 -->
<g id="edge4" class="edge"><title>Node4&#45;&gt;Node5</title>
<path fill="none" stroke="midnightblue" d="M711.779,-16C720.467,-16 729.248,-16 737.806,-16"/>
<polygon fill="midnightblue" stroke="midnightblue" points="711.642,-12.5001 701.642,-16 711.642,-19.5001 711.642,-12.5001"/>
</g>
</g>
</svg>
        <g id="navigator" transform="translate(0 0)" fill="#404254">
                <rect fill="#f2f5e9" fill-opacity="0.5" stroke="#606060" stroke-width=".5" x="0" y="0" width="60" height="60"/>
                <use id="zoomplus" xlink:href="#zoomPlus" x="17" y="9" onmousedown="handleZoom(evt,'in')"/>
                <use id="zoomminus" xlink:href="#zoomMin" x="42" y="9" onmousedown="handleZoom(evt,'out')"/>
                <use id="reset" xlink:href="#resetDef" x="30" y="36" onmousedown="handleReset()"/>
                <g id="arrowUp" xlink:href="#dirArrow" transform="translate(30 24)" onmousedown="handlePan(0,-1)">
                  <use xlink:href="#rim" fill="#404040">
                        <set attributeName="fill" to="#808080" begin="arrowUp.mouseover" end="arrowUp.mouseout"/>
                  </use>
                  <path fill="none" stroke="white" stroke-width="1.5" d="M0,-3.0v7 M-2.5,-0.5L0,-3.0L2.5,-0.5"/>
                </g>
                <g id="arrowRight" xlink:href="#dirArrow" transform="rotate(90) translate(36 -43)" onmousedown="handlePan(1,0)">
                  <use xlink:href="#rim" fill="#404040">
                        <set attributeName="fill" to="#808080" begin="arrowRight.mouseover" end="arrowRight.mouseout"/>
                  </use>
                  <path fill="none" stroke="white" stroke-width="1.5" d="M0,-3.0v7 M-2.5,-0.5L0,-3.0L2.5,-0.5"/>
                </g>
                <g id="arrowDown" xlink:href="#dirArrow" transform="rotate(180) translate(-30 -48)" onmousedown="handlePan(0,1)">
                  <use xlink:href="#rim" fill="#404040">
                        <set attributeName="fill" to="#808080" begin="arrowDown.mouseover" end="arrowDown.mouseout"/>
                  </use>
                  <path fill="none" stroke="white" stroke-width="1.5" d="M0,-3.0v7 M-2.5,-0.5L0,-3.0L2.5,-0.5"/>
                </g>
                <g id="arrowLeft" xlink:href="#dirArrow" transform="rotate(270) translate(-36 17)" onmousedown="handlePan(-1,0)">
                  <use xlink:href="#rim" fill="#404040">
                        <set attributeName="fill" to="#808080" begin="arrowLeft.mouseover" end="arrowLeft.mouseout"/>
                  </use>
                  <path fill="none" stroke="white" stroke-width="1.5" d="M0,-3.0v7 M-2.5,-0.5L0,-3.0L2.5,-0.5"/>
                </g>
        </g>
        <svg viewBox="0 0 15 15" width="100%" height="30px" preserveAspectRatio="xMaxYMin meet">
         <g id="arrow_out" transform="scale(0.3 0.3)">
          <a xlink:href="classgamedata_1_1action_1_1_total_logic_box_a79248f8eb7f918f0ccb8988a1851fa34_icgraph_org.svg" target="_base">
           <rect id="button" ry="5" rx="5" y="6" x="6" height="38" width="38"
                fill="#f2f5e9" fill-opacity="0.5" stroke="#606060" stroke-width="1.0"/>
           <path id="arrow"
             d="M 11.500037,31.436501 C 11.940474,20.09759 22.043105,11.32322 32.158766,21.979434 L 37.068811,17.246167 C 37.068811,17.246167 37.088388,32 37.088388,32 L 22.160133,31.978069 C 22.160133,31.978069 26.997745,27.140456 26.997745,27.140456 C 18.528582,18.264221 13.291696,25.230495 11.500037,31.436501 z"
             style="fill:#404040;"/>
          </a>
         </g>
        </svg>
</svg>
