<?xml version="1.0" encoding="UTF-8" standalone="no"?>
<!DOCTYPE svg PUBLIC "-//W3C//DTD SVG 1.1//EN"
 "http://www.w3.org/Graphics/SVG/1.1/DTD/svg11.dtd">
<!-- Generated by graphviz version 2.36.0 (20140111.2315)
 -->
<!-- Title: gamedata.action.TotalLogicBox.TotalLogicBox Pages: 1 -->
<!--zoomable 185 -->
<svg id="main" version="1.1" xmlns="http://www.w3.org/2000/svg" xmlns:xlink="http://www.w3.org/1999/xlink" xml:space="preserve" onload="init(evt)">
<style type="text/css"><![CDATA[
.edge:hover path { stroke: red; }
.edge:hover polygon { stroke: red; fill: red; }
]]></style>
<script type="text/javascript"><![CDATA[
var edges = document.getElementsByTagName('g');
if (edges && edges.length) {
  for (var i=0;i<edges.length;i++) {
    if (edges[i].id.substr(0,4)=='edge') {
      edges[i].setAttribute('class','edge');
    }
  }
}
]]></script>
        <defs>
                <circle id="rim" cx="0" cy="0" r="7"/>
                <circle id="rim2" cx="0" cy="0" r="3.5"/>
                <g id="zoomPlus">
                        <use xlink:href="#rim" fill="#404040">
                                <set attributeName="fill" to="#808080" begin="zoomplus.mouseover" end="zoomplus.mouseout"/>
                        </use>
                        <path d="M-4,0h8M0,-4v8" fill="none" stroke="white" stroke-width="1.5" pointer-events="none"/>
                </g>
                <g id="zoomMin">
                        <use xlink:href="#rim" fill="#404040">
                                <set attributeName="fill" to="#808080" begin="zoomminus.mouseover" end="zoomminus.mouseout"/>
                        </use>
                        <path d="M-4,0h8" fill="none" stroke="white" stroke-width="1.5" pointer-events="none"/>
                </g>
                <g id="dirArrow">
                        <path fill="none" stroke="white" stroke-width="1.5" d="M0,-3.0v7 M-2.5,-0.5L0,-3.0L2.5,-0.5"/>
                </g>
               <g id="resetDef">
                       <use xlink:href="#rim2" fill="#404040">
                               <set attributeName="fill" to="#808080" begin="reset.mouseover" end="reset.mouseout"/>
                       </use>
               </g>
        </defs>

<script type="text/javascript">
var viewWidth = 928;
var viewHeight = 185;
var sectionId = 'dynsection-2';
</script>
<script xlink:href="../../svgpan.js"/>
<svg id="graph" class="graph">
<g id="viewport">
<title>gamedata.action.TotalLogicBox.TotalLogicBox</title>
<polygon fill="white" stroke="none" points="-4,4 -4,-181 924,-181 924,4 -4,4"/>
<!-- Node1 -->
<g id="node1" class="node"><title>Node1</title>
<polygon fill="#bfbfbf" stroke="black" points="0,-98 0,-128 148,-128 148,-98 0,-98"/>
<text text-anchor="start" x="8" y="-116" font-family="Helvetica,sans-Serif" font-size="10.00">gamedata.action.TotalLogic</text>
<text text-anchor="middle" x="74" y="-105" font-family="Helvetica,sans-Serif" font-size="10.00">Box.TotalLogicBox</text>
</g>
<!-- Node2 -->
<g id="node2" class="node"><title>Node2</title>
<g id="a_node2"><a xlink:href="../../da/dd8/classgamedata_1_1action_1_1_stats_total_logic.html#a93d226da3467195864cf37717535548f" target="_top" xlink:title="gamedata.action.StatsTotal\lLogic.getMultiplierLogic">
<polygon fill="white" stroke="black" points="184.5,-147 184.5,-177 333.5,-177 333.5,-147 184.5,-147"/>
<text text-anchor="start" x="192.5" y="-165" font-family="Helvetica,sans-Serif" font-size="10.00">gamedata.action.StatsTotal</text>
<text text-anchor="middle" x="259" y="-154" font-family="Helvetica,sans-Serif" font-size="10.00">Logic.getMultiplierLogic</text>
</a>
</g>
</g>
<!-- Node1&#45;&gt;Node2 -->
<g id="edge1" class="edge"><title>Node1&#45;&gt;Node2</title>
<path fill="none" stroke="midnightblue" d="M131.399,-128.101C150.535,-133.225 172.086,-138.996 191.908,-144.303"/>
<polygon fill="midnightblue" stroke="midnightblue" points="191.222,-147.743 201.787,-146.948 193.033,-140.981 191.222,-147.743"/>
</g>
<!-- Node3 -->
<g id="node3" class="node"><title>Node3</title>
<g id="a_node3"><a xlink:href="../../d6/d24/classgamedata_1_1action_1_1_total_logic_box.html#abd6245089411e0004b6dbe03bf2712c8" target="_top" xlink:title="gamedata.action.TotalLogic\lBox.initSingleMultiplierVBox">
<polygon fill="white" stroke="black" points="184.5,-98 184.5,-128 333.5,-128 333.5,-98 184.5,-98"/>
<text text-anchor="start" x="192.5" y="-116" font-family="Helvetica,sans-Serif" font-size="10.00">gamedata.action.TotalLogic</text>
<text text-anchor="middle" x="259" y="-105" font-family="Helvetica,sans-Serif" font-size="10.00">Box.initSingleMultiplierVBox</text>
</a>
</g>
</g>
<!-- Node1&#45;&gt;Node3 -->
<g id="edge2" class="edge"><title>Node1&#45;&gt;Node3</title>
<path fill="none" stroke="midnightblue" d="M148.115,-113C156.702,-113 165.514,-113 174.232,-113"/>
<polygon fill="midnightblue" stroke="midnightblue" points="174.403,-116.5 184.403,-113 174.403,-109.5 174.403,-116.5"/>
</g>
<!-- Node7 -->
<g id="node7" class="node"><title>Node7</title>
<g id="a_node7"><a xlink:href="../../d6/d24/classgamedata_1_1action_1_1_total_logic_box.html#afcae3c3988f11f44939a230b779a57a2" target="_top" xlink:title="gamedata.action.TotalLogic\lBox.initStatsModifier">
<polygon fill="white" stroke="black" points="185,-49 185,-79 333,-79 333,-49 185,-49"/>
<text text-anchor="start" x="193" y="-67" font-family="Helvetica,sans-Serif" font-size="10.00">gamedata.action.TotalLogic</text>
<text text-anchor="middle" x="259" y="-56" font-family="Helvetica,sans-Serif" font-size="10.00">Box.initStatsModifier</text>
</a>
</g>
</g>
<!-- Node1&#45;&gt;Node7 -->
<g id="edge7" class="edge"><title>Node1&#45;&gt;Node7</title>
<path fill="none" stroke="midnightblue" d="M131.399,-97.8986C150.535,-92.7747 172.086,-87.0044 191.908,-81.6968"/>
<polygon fill="midnightblue" stroke="midnightblue" points="193.033,-85.019 201.787,-79.0516 191.222,-78.2572 193.033,-85.019"/>
</g>
<!-- Node4 -->
<g id="node4" class="node"><title>Node4</title>
<g id="a_node4"><a xlink:href="../../d6/d24/classgamedata_1_1action_1_1_total_logic_box.html#a4fcb11e8f9dbe25afe9d2a599726b577" target="_top" xlink:title="gamedata.action.TotalLogic\lBox.addSingleMultiplierBox">
<polygon fill="white" stroke="black" points="588,-120 588,-150 736,-150 736,-120 588,-120"/>
<text text-anchor="start" x="596" y="-138" font-family="Helvetica,sans-Serif" font-size="10.00">gamedata.action.TotalLogic</text>
<text text-anchor="middle" x="662" y="-127" font-family="Helvetica,sans-Serif" font-size="10.00">Box.addSingleMultiplierBox</text>
</a>
</g>
</g>
<!-- Node3&#45;&gt;Node4 -->
<g id="edge3" class="edge"><title>Node3&#45;&gt;Node4</title>
<path fill="none" stroke="midnightblue" d="M317.847,-128.06C334.556,-131.744 352.898,-135.156 370,-137 439.657,-144.511 519.237,-143.297 577.551,-140.608"/>
<polygon fill="midnightblue" stroke="midnightblue" points="577.999,-144.09 587.818,-140.109 577.659,-137.099 577.999,-144.09"/>
</g>
<!-- Node6 -->
<g id="node6" class="node"><title>Node6</title>
<g id="a_node6"><a xlink:href="../../d6/d24/classgamedata_1_1action_1_1_total_logic_box.html#a8071a6e0b7c3c1a74c931e0bb7fddc78" target="_top" xlink:title="gamedata.action.TotalLogic\lBox.initNewButton">
<polygon fill="white" stroke="black" points="387,-98 387,-128 535,-128 535,-98 387,-98"/>
<text text-anchor="start" x="395" y="-116" font-family="Helvetica,sans-Serif" font-size="10.00">gamedata.action.TotalLogic</text>
<text text-anchor="middle" x="461" y="-105" font-family="Helvetica,sans-Serif" font-size="10.00">Box.initNewButton</text>
</a>
</g>
</g>
<!-- Node3&#45;&gt;Node6 -->
<g id="edge5" class="edge"><title>Node3&#45;&gt;Node6</title>
<path fill="none" stroke="midnightblue" d="M333.621,-113C347.602,-113 362.325,-113 376.585,-113"/>
<polygon fill="midnightblue" stroke="midnightblue" points="376.869,-116.5 386.869,-113 376.869,-109.5 376.869,-116.5"/>
</g>
<!-- Node5 -->
<g id="node5" class="node"><title>Node5</title>
<g id="a_node5"><a xlink:href="../../d6/d24/classgamedata_1_1action_1_1_total_logic_box.html#a79248f8eb7f918f0ccb8988a1851fa34" target="_top" xlink:title="gamedata.action.TotalLogic\lBox.makeDeleteButton">
<polygon fill="white" stroke="black" points="772,-120 772,-150 920,-150 920,-120 772,-120"/>
<text text-anchor="start" x="780" y="-138" font-family="Helvetica,sans-Serif" font-size="10.00">gamedata.action.TotalLogic</text>
<text text-anchor="middle" x="846" y="-127" font-family="Helvetica,sans-Serif" font-size="10.00">Box.makeDeleteButton</text>
</a>
</g>
</g>
<!-- Node4&#45;&gt;Node5 -->
<g id="edge4" class="edge"><title>Node4&#45;&gt;Node5</title>
<path fill="none" stroke="midnightblue" d="M736.24,-135C744.596,-135 753.161,-135 761.636,-135"/>
<polygon fill="midnightblue" stroke="midnightblue" points="761.91,-138.5 771.91,-135 761.91,-131.5 761.91,-138.5"/>
</g>
<!-- Node6&#45;&gt;Node4 -->
<g id="edge6" class="edge"><title>Node6&#45;&gt;Node4</title>
<path fill="none" stroke="midnightblue" d="M535.252,-121.098C549.075,-122.626 563.625,-124.235 577.729,-125.794"/>
<polygon fill="midnightblue" stroke="midnightblue" points="577.578,-129.299 587.902,-126.919 578.348,-122.341 577.578,-129.299"/>
</g>
<!-- Node8 -->
<g id="node8" class="node"><title>Node8</title>
<g id="a_node8"><a xlink:href="../../dd/da3/classgamedata_1_1action_1_1_stats_modifier.html#a5502c1a69d7a60c78a71bf045a96c60d" target="_top" xlink:title="gamedata.action.StatsModifier.get\lStatRef">
<polygon fill="white" stroke="black" points="370,-49 370,-79 552,-79 552,-49 370,-49"/>
<text text-anchor="start" x="378" y="-67" font-family="Helvetica,sans-Serif" font-size="10.00">gamedata.action.StatsModifier.get</text>
<text text-anchor="middle" x="461" y="-56" font-family="Helvetica,sans-Serif" font-size="10.00">StatRef</text>
</a>
</g>
</g>
<!-- Node7&#45;&gt;Node8 -->
<g id="edge8" class="edge"><title>Node7&#45;&gt;Node8</title>
<path fill="none" stroke="midnightblue" d="M333.054,-64C341.729,-64 350.696,-64 359.667,-64"/>
<polygon fill="midnightblue" stroke="midnightblue" points="359.782,-67.5001 369.782,-64 359.782,-60.5001 359.782,-67.5001"/>
</g>
<!-- Node9 -->
<g id="node9" class="node"><title>Node9</title>
<g id="a_node9"><a xlink:href="../../dd/da3/classgamedata_1_1action_1_1_stats_modifier.html#a1c674af3bb9e0b377da5b1be0be5bd08" target="_top" xlink:title="gamedata.action.StatsModifier.get\lStatName">
<polygon fill="white" stroke="black" points="370,-0 370,-30 552,-30 552,-0 370,-0"/>
<text text-anchor="start" x="378" y="-18" font-family="Helvetica,sans-Serif" font-size="10.00">gamedata.action.StatsModifier.get</text>
<text text-anchor="middle" x="461" y="-7" font-family="Helvetica,sans-Serif" font-size="10.00">StatName</text>
</a>
</g>
</g>
<!-- Node7&#45;&gt;Node9 -->
<g id="edge9" class="edge"><title>Node7&#45;&gt;Node9</title>
<path fill="none" stroke="midnightblue" d="M321.366,-48.9654C342.675,-43.7446 366.75,-37.8463 388.786,-32.4474"/>
<polygon fill="midnightblue" stroke="midnightblue" points="389.87,-35.7853 398.75,-30.0062 388.205,-28.9864 389.87,-35.7853"/>
</g>
</g>
</svg>
        <g id="navigator" transform="translate(0 0)" fill="#404254">
                <rect fill="#f2f5e9" fill-opacity="0.5" stroke="#606060" stroke-width=".5" x="0" y="0" width="60" height="60"/>
                <use id="zoomplus" xlink:href="#zoomPlus" x="17" y="9" onmousedown="handleZoom(evt,'in')"/>
                <use id="zoomminus" xlink:href="#zoomMin" x="42" y="9" onmousedown="handleZoom(evt,'out')"/>
                <use id="reset" xlink:href="#resetDef" x="30" y="36" onmousedown="handleReset()"/>
                <g id="arrowUp" xlink:href="#dirArrow" transform="translate(30 24)" onmousedown="handlePan(0,-1)">
                  <use xlink:href="#rim" fill="#404040">
                        <set attributeName="fill" to="#808080" begin="arrowUp.mouseover" end="arrowUp.mouseout"/>
                  </use>
                  <path fill="none" stroke="white" stroke-width="1.5" d="M0,-3.0v7 M-2.5,-0.5L0,-3.0L2.5,-0.5"/>
                </g>
                <g id="arrowRight" xlink:href="#dirArrow" transform="rotate(90) translate(36 -43)" onmousedown="handlePan(1,0)">
                  <use xlink:href="#rim" fill="#404040">
                        <set attributeName="fill" to="#808080" begin="arrowRight.mouseover" end="arrowRight.mouseout"/>
                  </use>
                  <path fill="none" stroke="white" stroke-width="1.5" d="M0,-3.0v7 M-2.5,-0.5L0,-3.0L2.5,-0.5"/>
                </g>
                <g id="arrowDown" xlink:href="#dirArrow" transform="rotate(180) translate(-30 -48)" onmousedown="handlePan(0,1)">
                  <use xlink:href="#rim" fill="#404040">
                        <set attributeName="fill" to="#808080" begin="arrowDown.mouseover" end="arrowDown.mouseout"/>
                  </use>
                  <path fill="none" stroke="white" stroke-width="1.5" d="M0,-3.0v7 M-2.5,-0.5L0,-3.0L2.5,-0.5"/>
                </g>
                <g id="arrowLeft" xlink:href="#dirArrow" transform="rotate(270) translate(-36 17)" onmousedown="handlePan(-1,0)">
                  <use xlink:href="#rim" fill="#404040">
                        <set attributeName="fill" to="#808080" begin="arrowLeft.mouseover" end="arrowLeft.mouseout"/>
                  </use>
                  <path fill="none" stroke="white" stroke-width="1.5" d="M0,-3.0v7 M-2.5,-0.5L0,-3.0L2.5,-0.5"/>
                </g>
        </g>
        <svg viewBox="0 0 15 15" width="100%" height="30px" preserveAspectRatio="xMaxYMin meet">
         <g id="arrow_out" transform="scale(0.3 0.3)">
          <a xlink:href="classgamedata_1_1action_1_1_total_logic_box_a8253e20e78d09bfda4bf099e726b24cd_cgraph_org.svg" target="_base">
           <rect id="button" ry="5" rx="5" y="6" x="6" height="38" width="38"
                fill="#f2f5e9" fill-opacity="0.5" stroke="#606060" stroke-width="1.0"/>
           <path id="arrow"
             d="M 11.500037,31.436501 C 11.940474,20.09759 22.043105,11.32322 32.158766,21.979434 L 37.068811,17.246167 C 37.068811,17.246167 37.088388,32 37.088388,32 L 22.160133,31.978069 C 22.160133,31.978069 26.997745,27.140456 26.997745,27.140456 C 18.528582,18.264221 13.291696,25.230495 11.500037,31.436501 z"
             style="fill:#404040;"/>
          </a>
         </g>
        </svg>
</svg>
