<?xml version="1.0" encoding="UTF-8" standalone="no"?>
<!DOCTYPE svg PUBLIC "-//W3C//DTD SVG 1.1//EN"
 "http://www.w3.org/Graphics/SVG/1.1/DTD/svg11.dtd">
<!-- Generated by graphviz version 2.36.0 (20140111.2315)
 -->
<!-- Title: gamedata.action.TotalLogicBox.addSingleMultiplierBox Pages: 1 -->
<svg width="710pt" height="61pt"
 viewBox="0.00 0.00 710.00 61.00" xmlns="http://www.w3.org/2000/svg" xmlns:xlink="http://www.w3.org/1999/xlink">
<g id="graph0" class="graph" transform="scale(1 1) rotate(0) translate(4 57)">
<title>gamedata.action.TotalLogicBox.addSingleMultiplierBox</title>
<polygon fill="white" stroke="none" points="-4,4 -4,-57 706,-57 706,4 -4,4"/>
<!-- Node1 -->
<g id="node1" class="node"><title>Node1</title>
<polygon fill="#bfbfbf" stroke="black" points="0,-1 0,-31 148,-31 148,-1 0,-1"/>
<text text-anchor="start" x="8" y="-19" font-family="Helvetica,sans-Serif" font-size="10.00">gamedata.action.TotalLogic</text>
<text text-anchor="middle" x="74" y="-8" font-family="Helvetica,sans-Serif" font-size="10.00">Box.addSingleMultiplierBox</text>
</g>
<!-- Node2 -->
<g id="node2" class="node"><title>Node2</title>
<g id="a_node2"><a xlink:href="../../d6/d24/classgamedata_1_1action_1_1_total_logic_box.html#a8071a6e0b7c3c1a74c931e0bb7fddc78" target="_top" xlink:title="gamedata.action.TotalLogic\lBox.initNewButton">
<polygon fill="white" stroke="black" points="184,-23 184,-53 332,-53 332,-23 184,-23"/>
<text text-anchor="start" x="192" y="-41" font-family="Helvetica,sans-Serif" font-size="10.00">gamedata.action.TotalLogic</text>
<text text-anchor="middle" x="258" y="-30" font-family="Helvetica,sans-Serif" font-size="10.00">Box.initNewButton</text>
</a>
</g>
</g>
<!-- Node1&#45;&gt;Node2 -->
<g id="edge1" class="edge"><title>Node1&#45;&gt;Node2</title>
<path fill="none" stroke="midnightblue" d="M158.237,-26.0616C166.804,-27.0972 175.464,-28.1441 183.91,-29.165"/>
<polygon fill="midnightblue" stroke="midnightblue" points="158.587,-22.5786 148.24,-24.8531 157.747,-29.528 158.587,-22.5786"/>
</g>
<!-- Node3 -->
<g id="node3" class="node"><title>Node3</title>
<g id="a_node3"><a xlink:href="../../d6/d24/classgamedata_1_1action_1_1_total_logic_box.html#abd6245089411e0004b6dbe03bf2712c8" target="_top" xlink:title="gamedata.action.TotalLogic\lBox.initSingleMultiplierVBox">
<polygon fill="white" stroke="black" points="368.5,-1 368.5,-31 517.5,-31 517.5,-1 368.5,-1"/>
<text text-anchor="start" x="376.5" y="-19" font-family="Helvetica,sans-Serif" font-size="10.00">gamedata.action.TotalLogic</text>
<text text-anchor="middle" x="443" y="-8" font-family="Helvetica,sans-Serif" font-size="10.00">Box.initSingleMultiplierVBox</text>
</a>
</g>
</g>
<!-- Node1&#45;&gt;Node3 -->
<g id="edge4" class="edge"><title>Node1&#45;&gt;Node3</title>
<path fill="none" stroke="midnightblue" d="M158.407,-14.3127C167.049,-14.1848 175.702,-14.0761 184,-14 249.775,-13.3966 266.225,-13.4021 332,-14 343.746,-14.1068 356.197,-14.2777 368.336,-14.4757"/>
<polygon fill="midnightblue" stroke="midnightblue" points="158.231,-10.8149 148.287,-14.4709 158.341,-17.8141 158.231,-10.8149"/>
</g>
<!-- Node2&#45;&gt;Node3 -->
<g id="edge2" class="edge"><title>Node2&#45;&gt;Node3</title>
<path fill="none" stroke="midnightblue" d="M342.28,-27.9882C350.994,-26.9406 359.808,-25.881 368.403,-24.8477"/>
<polygon fill="midnightblue" stroke="midnightblue" points="341.626,-24.5415 332.115,-29.2102 342.462,-31.4915 341.626,-24.5415"/>
</g>
<!-- Node4 -->
<g id="node4" class="node"><title>Node4</title>
<g id="a_node4"><a xlink:href="../../d6/d24/classgamedata_1_1action_1_1_total_logic_box.html#a8253e20e78d09bfda4bf099e726b24cd" target="_top" xlink:title="gamedata.action.TotalLogic\lBox.TotalLogicBox">
<polygon fill="white" stroke="black" points="554,-1 554,-31 702,-31 702,-1 554,-1"/>
<text text-anchor="start" x="562" y="-19" font-family="Helvetica,sans-Serif" font-size="10.00">gamedata.action.TotalLogic</text>
<text text-anchor="middle" x="628" y="-8" font-family="Helvetica,sans-Serif" font-size="10.00">Box.TotalLogicBox</text>
</a>
</g>
</g>
<!-- Node3&#45;&gt;Node4 -->
<g id="edge3" class="edge"><title>Node3&#45;&gt;Node4</title>
<path fill="none" stroke="midnightblue" d="M527.779,-16C536.467,-16 545.248,-16 553.806,-16"/>
<polygon fill="midnightblue" stroke="midnightblue" points="527.642,-12.5001 517.642,-16 527.642,-19.5001 527.642,-12.5001"/>
</g>
</g>
</svg>
