<?xml version="1.0" encoding="UTF-8" standalone="no"?>
<!DOCTYPE svg PUBLIC "-//W3C//DTD SVG 1.1//EN"
 "http://www.w3.org/Graphics/SVG/1.1/DTD/svg11.dtd">
<!-- Generated by graphviz version 2.36.0 (20140111.2315)
 -->
<!-- Title: authoring.data.EventsDataWrapper Pages: 1 -->
<svg width="450pt" height="136pt"
 viewBox="0.00 0.00 450.00 136.00" xmlns="http://www.w3.org/2000/svg" xmlns:xlink="http://www.w3.org/1999/xlink">
<g id="graph0" class="graph" transform="scale(1 1) rotate(0) translate(4 132)">
<title>authoring.data.EventsDataWrapper</title>
<polygon fill="white" stroke="none" points="-4,4 -4,-132 446,-132 446,4 -4,4"/>
<!-- Node1 -->
<g id="node1" class="node"><title>Node1</title>
<polygon fill="#bfbfbf" stroke="black" points="296,-49 296,-79 442,-79 442,-49 296,-49"/>
<text text-anchor="start" x="304" y="-67" font-family="Helvetica,sans-Serif" font-size="10.00">authoring.data.EventsData</text>
<text text-anchor="middle" x="369" y="-56" font-family="Helvetica,sans-Serif" font-size="10.00">Wrapper</text>
</g>
<!-- Node2 -->
<g id="node2" class="node"><title>Node2</title>
<polygon fill="white" stroke="#bfbfbf" points="0,-98 0,-128 188,-128 188,-98 0,-98"/>
<text text-anchor="start" x="8" y="-116" font-family="Helvetica,sans-Serif" font-size="10.00">List&lt; gamedata.gamecomponents.</text>
<text text-anchor="middle" x="94" y="-105" font-family="Helvetica,sans-Serif" font-size="10.00">Piece &gt;</text>
</g>
<!-- Node2&#45;&gt;Node1 -->
<g id="edge1" class="edge"><title>Node2&#45;&gt;Node1</title>
<path fill="none" stroke="#9a32cd" stroke-dasharray="5,2" d="M189.002,-96.1278C224.018,-89.8429 263.179,-82.8141 295.922,-76.9371"/>
<polygon fill="#9a32cd" stroke="#9a32cd" points="187.989,-92.7537 178.764,-97.9654 189.225,-99.6436 187.989,-92.7537"/>
<text text-anchor="middle" x="242" y="-95" font-family="Helvetica,sans-Serif" font-size="10.00"> myPieceTypes</text>
</g>
<!-- Node3 -->
<g id="node3" class="node"><title>Node3</title>
<polygon fill="white" stroke="#bfbfbf" points="0,-49 0,-79 188,-79 188,-49 0,-49"/>
<text text-anchor="start" x="8" y="-67" font-family="Helvetica,sans-Serif" font-size="10.00">List&lt; gamedata.gamecomponents.</text>
<text text-anchor="middle" x="94" y="-56" font-family="Helvetica,sans-Serif" font-size="10.00">Patch &gt;</text>
</g>
<!-- Node3&#45;&gt;Node1 -->
<g id="edge2" class="edge"><title>Node3&#45;&gt;Node1</title>
<path fill="none" stroke="#9a32cd" stroke-dasharray="5,2" d="M198.197,-64C230.756,-64 266.008,-64 295.91,-64"/>
<polygon fill="#9a32cd" stroke="#9a32cd" points="198.188,-60.5001 188.188,-64 198.188,-67.5001 198.188,-60.5001"/>
<text text-anchor="middle" x="242" y="-67" font-family="Helvetica,sans-Serif" font-size="10.00"> myPatchTypes</text>
</g>
<!-- Node4 -->
<g id="node4" class="node"><title>Node4</title>
<polygon fill="white" stroke="#bfbfbf" points="24.5,-0 24.5,-30 163.5,-30 163.5,-0 24.5,-0"/>
<text text-anchor="start" x="32.5" y="-18" font-family="Helvetica,sans-Serif" font-size="10.00">List&lt; gameengine.player.</text>
<text text-anchor="middle" x="94" y="-7" font-family="Helvetica,sans-Serif" font-size="10.00">Player &gt;</text>
</g>
<!-- Node4&#45;&gt;Node1 -->
<g id="edge3" class="edge"><title>Node4&#45;&gt;Node1</title>
<path fill="none" stroke="#9a32cd" stroke-dasharray="5,2" d="M173.651,-29.1169C212.093,-36.0166 258.045,-44.2644 295.613,-51.0075"/>
<polygon fill="#9a32cd" stroke="#9a32cd" points="173.998,-25.6233 163.537,-27.3015 172.761,-32.5132 173.998,-25.6233"/>
<text text-anchor="middle" x="242" y="-49" font-family="Helvetica,sans-Serif" font-size="10.00"> myPlayers</text>
</g>
</g>
</svg>
