<?xml version="1.0" encoding="UTF-8" standalone="no"?>
<!DOCTYPE svg PUBLIC "-//W3C//DTD SVG 1.1//EN"
 "http://www.w3.org/Graphics/SVG/1.1/DTD/svg11.dtd">
<!-- Generated by graphviz version 2.36.0 (20140111.2315)
 -->
<!-- Title: gamedata.gamecomponents.Patch Pages: 1 -->
<svg width="340pt" height="190pt"
 viewBox="0.00 0.00 340.00 190.00" xmlns="http://www.w3.org/2000/svg" xmlns:xlink="http://www.w3.org/1999/xlink">
<g id="graph0" class="graph" transform="scale(1 1) rotate(0) translate(4 186)">
<title>gamedata.gamecomponents.Patch</title>
<polygon fill="white" stroke="none" points="-4,4 -4,-186 336,-186 336,4 -4,4"/>
<!-- Node1 -->
<g id="node1" class="node"><title>Node1</title>
<polygon fill="#bfbfbf" stroke="black" points="132,-1 132,-31 292,-31 292,-1 132,-1"/>
<text text-anchor="start" x="140" y="-19" font-family="Helvetica,sans-Serif" font-size="10.00">gamedata.gamecomponents.</text>
<text text-anchor="middle" x="212" y="-8" font-family="Helvetica,sans-Serif" font-size="10.00">Patch</text>
</g>
<!-- Node2 -->
<g id="node2" class="node"><title>Node2</title>
<g id="a_node2"><a xlink:href="../../d9/df2/classgamedata_1_1gamecomponents_1_1_grid_component.html" target="_top" xlink:title="gamedata.gamecomponents.\lGridComponent">
<polygon fill="white" stroke="black" points="132,-71 132,-101 292,-101 292,-71 132,-71"/>
<text text-anchor="start" x="140" y="-89" font-family="Helvetica,sans-Serif" font-size="10.00">gamedata.gamecomponents.</text>
<text text-anchor="middle" x="212" y="-78" font-family="Helvetica,sans-Serif" font-size="10.00">GridComponent</text>
</a>
</g>
</g>
<!-- Node2&#45;&gt;Node1 -->
<g id="edge1" class="edge"><title>Node2&#45;&gt;Node1</title>
<path fill="none" stroke="midnightblue" d="M212,-60.7688C212,-50.8141 212,-39.6384 212,-31.0716"/>
<polygon fill="midnightblue" stroke="midnightblue" points="208.5,-60.9103 212,-70.9104 215.5,-60.9104 208.5,-60.9103"/>
</g>
<!-- Node3 -->
<g id="node3" class="node"><title>Node3</title>
<g id="a_node3"><a xlink:href="../../dc/d5b/interfacegamedata_1_1gamecomponents_1_1_i_has_stats.html" target="_top" xlink:title="gamedata.gamecomponents.\lIHasStats">
<polygon fill="white" stroke="black" points="0,-151 0,-181 160,-181 160,-151 0,-151"/>
<text text-anchor="start" x="8" y="-169" font-family="Helvetica,sans-Serif" font-size="10.00">gamedata.gamecomponents.</text>
<text text-anchor="middle" x="80" y="-158" font-family="Helvetica,sans-Serif" font-size="10.00">IHasStats</text>
</a>
</g>
</g>
<!-- Node3&#45;&gt;Node2 -->
<g id="edge2" class="edge"><title>Node3&#45;&gt;Node2</title>
<path fill="none" stroke="midnightblue" d="M112.795,-145.621C136.227,-131.775 167.21,-113.467 188.274,-101.02"/>
<polygon fill="midnightblue" stroke="midnightblue" points="110.733,-142.774 103.904,-150.875 114.294,-148.801 110.733,-142.774"/>
</g>
<!-- Node4 -->
<g id="node4" class="node"><title>Node4</title>
<polygon fill="white" stroke="#bfbfbf" points="178,-156.5 178,-175.5 246,-175.5 246,-156.5 178,-156.5"/>
<text text-anchor="middle" x="212" y="-163.5" font-family="Helvetica,sans-Serif" font-size="10.00">ImageView</text>
</g>
<!-- Node4&#45;&gt;Node2 -->
<g id="edge3" class="edge"><title>Node4&#45;&gt;Node2</title>
<path fill="none" stroke="#9a32cd" stroke-dasharray="5,2" d="M212,-146.062C212,-132.242 212,-113.802 212,-101.227"/>
<polygon fill="#9a32cd" stroke="#9a32cd" points="208.5,-146.355 212,-156.355 215.5,-146.355 208.5,-146.355"/>
<text text-anchor="middle" x="247" y="-123.5" font-family="Helvetica,sans-Serif" font-size="10.00"> myImageView</text>
</g>
<!-- Node5 -->
<g id="node5" class="node"><title>Node5</title>
<polygon fill="white" stroke="#bfbfbf" points="278,-156.5 278,-175.5 332,-175.5 332,-156.5 278,-156.5"/>
<text text-anchor="middle" x="305" y="-163.5" font-family="Helvetica,sans-Serif" font-size="10.00">Point2D</text>
</g>
<!-- Node5&#45;&gt;Node2 -->
<g id="edge4" class="edge"><title>Node5&#45;&gt;Node2</title>
<path fill="none" stroke="#9a32cd" stroke-dasharray="5,2" d="M299.345,-146.747C295.817,-137.78 290.498,-127.352 283,-120 274.944,-112.101 264.649,-105.855 254.413,-101.021"/>
<polygon fill="#9a32cd" stroke="#9a32cd" points="296.089,-148.04 302.686,-156.33 302.698,-145.735 296.089,-148.04"/>
<text text-anchor="middle" x="309.5" y="-123.5" font-family="Helvetica,sans-Serif" font-size="10.00"> myLoc</text>
</g>
</g>
</svg>
