<?xml version="1.0" encoding="UTF-8" standalone="no"?>
<!DOCTYPE svg PUBLIC "-//W3C//DTD SVG 1.1//EN"
 "http://www.w3.org/Graphics/SVG/1.1/DTD/svg11.dtd">
<!-- Generated by graphviz version 2.36.0 (20140111.2315)
 -->
<!-- Title: authoring.concretefeatures.ReceiverEditor.initCheckBoxes Pages: 1 -->
<svg width="544pt" height="38pt"
 viewBox="0.00 0.00 544.00 38.00" xmlns="http://www.w3.org/2000/svg" xmlns:xlink="http://www.w3.org/1999/xlink">
<g id="graph0" class="graph" transform="scale(1 1) rotate(0) translate(4 34)">
<title>authoring.concretefeatures.ReceiverEditor.initCheckBoxes</title>
<polygon fill="white" stroke="none" points="-4,4 -4,-34 540,-34 540,4 -4,4"/>
<!-- Node1 -->
<g id="node1" class="node"><title>Node1</title>
<polygon fill="#bfbfbf" stroke="black" points="0.5,-0 0.5,-30 159.5,-30 159.5,-0 0.5,-0"/>
<text text-anchor="start" x="8.5" y="-18" font-family="Helvetica,sans-Serif" font-size="10.00">authoring.concretefeatures.</text>
<text text-anchor="middle" x="80" y="-7" font-family="Helvetica,sans-Serif" font-size="10.00">ReceiverEditor.initCheckBoxes</text>
</g>
<!-- Node2 -->
<g id="node2" class="node"><title>Node2</title>
<g id="a_node2"><a xlink:href="../../d5/d0e/classauthoring_1_1concretefeatures_1_1_receiver_editor.html#afd845c64e6d930763ffe88fb7bd8f4d2" target="_top" xlink:title="authoring.concretefeatures.\lReceiverEditor.initialize">
<polygon fill="white" stroke="black" points="196,-0 196,-30 346,-30 346,-0 196,-0"/>
<text text-anchor="start" x="204" y="-18" font-family="Helvetica,sans-Serif" font-size="10.00">authoring.concretefeatures.</text>
<text text-anchor="middle" x="271" y="-7" font-family="Helvetica,sans-Serif" font-size="10.00">ReceiverEditor.initialize</text>
</a>
</g>
</g>
<!-- Node1&#45;&gt;Node2 -->
<g id="edge1" class="edge"><title>Node1&#45;&gt;Node2</title>
<path fill="none" stroke="midnightblue" d="M169.761,-15C178.534,-15 187.373,-15 195.975,-15"/>
<polygon fill="midnightblue" stroke="midnightblue" points="169.511,-11.5001 159.511,-15 169.511,-18.5001 169.511,-11.5001"/>
</g>
<!-- Node3 -->
<g id="node3" class="node"><title>Node3</title>
<g id="a_node3"><a xlink:href="../../d5/d0e/classauthoring_1_1concretefeatures_1_1_receiver_editor.html#ab02cf7cf2e698998ff83a4db17672f7f" target="_top" xlink:title="authoring.concretefeatures.\lReceiverEditor.ReceiverEditor">
<polygon fill="white" stroke="black" points="382,-0 382,-30 536,-30 536,-0 382,-0"/>
<text text-anchor="start" x="390" y="-18" font-family="Helvetica,sans-Serif" font-size="10.00">authoring.concretefeatures.</text>
<text text-anchor="middle" x="459" y="-7" font-family="Helvetica,sans-Serif" font-size="10.00">ReceiverEditor.ReceiverEditor</text>
</a>
</g>
</g>
<!-- Node2&#45;&gt;Node3 -->
<g id="edge2" class="edge"><title>Node2&#45;&gt;Node3</title>
<path fill="none" stroke="midnightblue" d="M356.324,-15C364.805,-15 373.383,-15 381.772,-15"/>
<polygon fill="midnightblue" stroke="midnightblue" points="356.047,-11.5001 346.047,-15 356.047,-18.5001 356.047,-11.5001"/>
</g>
</g>
</svg>
