<?xml version="1.0" encoding="UTF-8" standalone="no"?>
<!DOCTYPE svg PUBLIC "-//W3C//DTD SVG 1.1//EN"
 "http://www.w3.org/Graphics/SVG/1.1/DTD/svg11.dtd">
<!-- Generated by graphviz version 2.36.0 (20140111.2315)
 -->
<!-- Title: authoring.concretefeatures.ReceiverEditor.ReceiverEditor Pages: 1 -->
<svg width="544pt" height="87pt"
 viewBox="0.00 0.00 544.00 87.00" xmlns="http://www.w3.org/2000/svg" xmlns:xlink="http://www.w3.org/1999/xlink">
<g id="graph0" class="graph" transform="scale(1 1) rotate(0) translate(4 83)">
<title>authoring.concretefeatures.ReceiverEditor.ReceiverEditor</title>
<polygon fill="white" stroke="none" points="-4,4 -4,-83 540,-83 540,4 -4,4"/>
<!-- Node1 -->
<g id="node1" class="node"><title>Node1</title>
<polygon fill="#bfbfbf" stroke="black" points="0,-24 0,-54 154,-54 154,-24 0,-24"/>
<text text-anchor="start" x="8" y="-42" font-family="Helvetica,sans-Serif" font-size="10.00">authoring.concretefeatures.</text>
<text text-anchor="middle" x="77" y="-31" font-family="Helvetica,sans-Serif" font-size="10.00">ReceiverEditor.ReceiverEditor</text>
</g>
<!-- Node2 -->
<g id="node2" class="node"><title>Node2</title>
<g id="a_node2"><a xlink:href="../../d5/d0e/classauthoring_1_1concretefeatures_1_1_receiver_editor.html#afd845c64e6d930763ffe88fb7bd8f4d2" target="_top" xlink:title="authoring.concretefeatures.\lReceiverEditor.initialize">
<polygon fill="white" stroke="black" points="190,-24 190,-54 340,-54 340,-24 190,-24"/>
<text text-anchor="start" x="198" y="-42" font-family="Helvetica,sans-Serif" font-size="10.00">authoring.concretefeatures.</text>
<text text-anchor="middle" x="265" y="-31" font-family="Helvetica,sans-Serif" font-size="10.00">ReceiverEditor.initialize</text>
</a>
</g>
</g>
<!-- Node1&#45;&gt;Node2 -->
<g id="edge1" class="edge"><title>Node1&#45;&gt;Node2</title>
<path fill="none" stroke="midnightblue" d="M154.19,-39C162.535,-39 171.067,-39 179.504,-39"/>
<polygon fill="midnightblue" stroke="midnightblue" points="179.731,-42.5001 189.731,-39 179.731,-35.5001 179.731,-42.5001"/>
</g>
<!-- Node3 -->
<g id="node3" class="node"><title>Node3</title>
<g id="a_node3"><a xlink:href="../../d5/d0e/classauthoring_1_1concretefeatures_1_1_receiver_editor.html#a57414e6f42fe09977fd567124a48201d" target="_top" xlink:title="authoring.concretefeatures.\lReceiverEditor.getReceivers">
<polygon fill="white" stroke="black" points="381,-49 381,-79 531,-79 531,-49 381,-49"/>
<text text-anchor="start" x="389" y="-67" font-family="Helvetica,sans-Serif" font-size="10.00">authoring.concretefeatures.</text>
<text text-anchor="middle" x="456" y="-56" font-family="Helvetica,sans-Serif" font-size="10.00">ReceiverEditor.getReceivers</text>
</a>
</g>
</g>
<!-- Node2&#45;&gt;Node3 -->
<g id="edge2" class="edge"><title>Node2&#45;&gt;Node3</title>
<path fill="none" stroke="midnightblue" d="M340.155,-48.8089C350.161,-50.1324 360.486,-51.4981 370.652,-52.8429"/>
<polygon fill="midnightblue" stroke="midnightblue" points="370.376,-56.3367 380.748,-54.1783 371.294,-49.3972 370.376,-56.3367"/>
</g>
<!-- Node4 -->
<g id="node4" class="node"><title>Node4</title>
<g id="a_node4"><a xlink:href="../../d5/d0e/classauthoring_1_1concretefeatures_1_1_receiver_editor.html#af98c69feb4905c2cbef11b8c74fd1e2d" target="_top" xlink:title="authoring.concretefeatures.\lReceiverEditor.initCheckBoxes">
<polygon fill="white" stroke="black" points="376.5,-0 376.5,-30 535.5,-30 535.5,-0 376.5,-0"/>
<text text-anchor="start" x="384.5" y="-18" font-family="Helvetica,sans-Serif" font-size="10.00">authoring.concretefeatures.</text>
<text text-anchor="middle" x="456" y="-7" font-family="Helvetica,sans-Serif" font-size="10.00">ReceiverEditor.initCheckBoxes</text>
</a>
</g>
</g>
<!-- Node2&#45;&gt;Node4 -->
<g id="edge3" class="edge"><title>Node2&#45;&gt;Node4</title>
<path fill="none" stroke="midnightblue" d="M340.155,-29.5834C348.703,-28.498 357.485,-27.3829 366.201,-26.2761"/>
<polygon fill="midnightblue" stroke="midnightblue" points="366.906,-29.7147 376.385,-24.9828 366.024,-22.7705 366.906,-29.7147"/>
</g>
</g>
</svg>
