<?xml version="1.0" encoding="UTF-8" standalone="no"?>
<!DOCTYPE svg PUBLIC "-//W3C//DTD SVG 1.1//EN"
 "http://www.w3.org/Graphics/SVG/1.1/DTD/svg11.dtd">
<!-- Generated by graphviz version 2.36.0 (20140111.2315)
 -->
<!-- Title: fxml_main.ComponentAbstCtrl Pages: 1 -->
<svg width="209pt" height="96pt"
 viewBox="0.00 0.00 209.00 96.00" xmlns="http://www.w3.org/2000/svg" xmlns:xlink="http://www.w3.org/1999/xlink">
<g id="graph0" class="graph" transform="scale(1 1) rotate(0) translate(4 92)">
<title>fxml_main.ComponentAbstCtrl</title>
<polygon fill="white" stroke="none" points="-4,4 -4,-92 205,-92 205,4 -4,4"/>
<!-- Node1 -->
<g id="node1" class="node"><title>Node1</title>
<polygon fill="#bfbfbf" stroke="black" points="0,-0.5 0,-19.5 164,-19.5 164,-0.5 0,-0.5"/>
<text text-anchor="middle" x="82" y="-7.5" font-family="Helvetica,sans-Serif" font-size="10.00">fxml_main.ComponentAbstCtrl</text>
</g>
<!-- Node2 -->
<g id="node2" class="node"><title>Node2</title>
<polygon fill="white" stroke="#bfbfbf" points="25.5,-68.5 25.5,-87.5 66.5,-87.5 66.5,-68.5 25.5,-68.5"/>
<text text-anchor="middle" x="46" y="-75.5" font-family="Helvetica,sans-Serif" font-size="10.00">VBox</text>
</g>
<!-- Node2&#45;&gt;Node1 -->
<g id="edge1" class="edge"><title>Node2&#45;&gt;Node1</title>
<path fill="none" stroke="#9a32cd" stroke-dasharray="5,2" d="M46.9259,-58.173C47.8739,-51.4885 49.6658,-44.1127 53,-38 56.9528,-30.7531 63.572,-24.3676 69.4892,-19.6282"/>
<polygon fill="#9a32cd" stroke="#9a32cd" points="43.4138,-58.1515 46.0039,-68.4248 50.3857,-58.7786 43.4138,-58.1515"/>
<text text-anchor="middle" x="74.5" y="-41.5" font-family="Helvetica,sans-Serif" font-size="10.00"> myVBox</text>
</g>
<!-- Node3 -->
<g id="node3" class="node"><title>Node3</title>
<polygon fill="white" stroke="#bfbfbf" points="85,-68.5 85,-87.5 151,-87.5 151,-68.5 85,-68.5"/>
<text text-anchor="middle" x="118" y="-75.5" font-family="Helvetica,sans-Serif" font-size="10.00">ScrollPane</text>
</g>
<!-- Node3&#45;&gt;Node1 -->
<g id="edge2" class="edge"><title>Node3&#45;&gt;Node1</title>
<path fill="none" stroke="#9a32cd" stroke-dasharray="5,2" d="M108.489,-59.563C101.517,-46.7815 92.3418,-29.9599 86.8224,-19.8411"/>
<polygon fill="#9a32cd" stroke="#9a32cd" points="105.432,-61.2687 113.294,-68.3717 111.578,-57.9167 105.432,-61.2687"/>
<text text-anchor="middle" x="152.5" y="-41.5" font-family="Helvetica,sans-Serif" font-size="10.00"> myPropertiesSPane</text>
</g>
</g>
</svg>
