<?xml version="1.0" encoding="UTF-8" standalone="no"?>
<!DOCTYPE svg PUBLIC "-//W3C//DTD SVG 1.1//EN"
 "http://www.w3.org/Graphics/SVG/1.1/DTD/svg11.dtd">
<!-- Generated by graphviz version 2.36.0 (20140111.2315)
 -->
<!-- Title: fxml_main.PatchController.initEntryEditBtn Pages: 1 -->
<svg width="610pt" height="136pt"
 viewBox="0.00 0.00 610.00 136.00" xmlns="http://www.w3.org/2000/svg" xmlns:xlink="http://www.w3.org/1999/xlink">
<g id="graph0" class="graph" transform="scale(1 1) rotate(0) translate(4 132)">
<title>fxml_main.PatchController.initEntryEditBtn</title>
<polygon fill="white" stroke="none" points="-4,4 -4,-132 606,-132 606,4 -4,4"/>
<!-- Node1 -->
<g id="node1" class="node"><title>Node1</title>
<polygon fill="#bfbfbf" stroke="black" points="0,-24 0,-54 158,-54 158,-24 0,-24"/>
<text text-anchor="start" x="8" y="-42" font-family="Helvetica,sans-Serif" font-size="10.00">fxml_main.PatchController.init</text>
<text text-anchor="middle" x="79" y="-31" font-family="Helvetica,sans-Serif" font-size="10.00">EntryEditBtn</text>
</g>
<!-- Node2 -->
<g id="node2" class="node"><title>Node2</title>
<g id="a_node2"><a xlink:href="../../da/d40/classfxml__main_1_1_grid_component_abst_ctrl.html#a690d85921c1558f7988bb18e895363ef" target="_top" xlink:title="fxml_main.GridComponentAbst\lCtrl\&lt; Patch \&gt;::makeCompleteEntryBox">
<polygon fill="white" stroke="black" points="194,-49 194,-79 398,-79 398,-49 194,-49"/>
<text text-anchor="start" x="202" y="-67" font-family="Helvetica,sans-Serif" font-size="10.00">fxml_main.GridComponentAbst</text>
<text text-anchor="middle" x="296" y="-56" font-family="Helvetica,sans-Serif" font-size="10.00">Ctrl&lt; Patch &gt;::makeCompleteEntryBox</text>
</a>
</g>
</g>
<!-- Node1&#45;&gt;Node2 -->
<g id="edge1" class="edge"><title>Node1&#45;&gt;Node2</title>
<path fill="none" stroke="midnightblue" d="M158.228,-48.0963C166.513,-49.0596 175.048,-50.0521 183.617,-51.0485"/>
<polygon fill="midnightblue" stroke="midnightblue" points="183.34,-54.5398 193.678,-52.2183 184.149,-47.5867 183.34,-54.5398"/>
</g>
<!-- Node5 -->
<g id="node5" class="node"><title>Node5</title>
<g id="a_node5"><a xlink:href="../../d1/d4f/classauthoring_1_1data_1_1_patch_type_data.html#ac6cb7289b2cb9e32624cc1adb913a8cd" target="_top" xlink:title="authoring.data.PatchType\lData.replace">
<polygon fill="white" stroke="black" points="227.5,-0 227.5,-30 364.5,-30 364.5,-0 227.5,-0"/>
<text text-anchor="start" x="235.5" y="-18" font-family="Helvetica,sans-Serif" font-size="10.00">authoring.data.PatchType</text>
<text text-anchor="middle" x="296" y="-7" font-family="Helvetica,sans-Serif" font-size="10.00">Data.replace</text>
</a>
</g>
</g>
<!-- Node1&#45;&gt;Node5 -->
<g id="edge4" class="edge"><title>Node1&#45;&gt;Node5</title>
<path fill="none" stroke="midnightblue" d="M158.228,-30.2676C177.552,-28.1105 198.242,-25.8009 217.53,-23.6478"/>
<polygon fill="midnightblue" stroke="midnightblue" points="217.924,-27.1257 227.474,-22.5378 217.147,-20.1689 217.924,-27.1257"/>
</g>
<!-- Node3 -->
<g id="node3" class="node"><title>Node3</title>
<g id="a_node3"><a xlink:href="../../da/d40/classfxml__main_1_1_grid_component_abst_ctrl.html#a3a7a07e8be0f36be9304aba140f2211c" target="_top" xlink:title="fxml_main.GridComponentAbst\lCtrl.makeEntryBox">
<polygon fill="white" stroke="black" points="434.5,-98 434.5,-128 601.5,-128 601.5,-98 434.5,-98"/>
<text text-anchor="start" x="442.5" y="-116" font-family="Helvetica,sans-Serif" font-size="10.00">fxml_main.GridComponentAbst</text>
<text text-anchor="middle" x="518" y="-105" font-family="Helvetica,sans-Serif" font-size="10.00">Ctrl.makeEntryBox</text>
</a>
</g>
</g>
<!-- Node2&#45;&gt;Node3 -->
<g id="edge2" class="edge"><title>Node2&#45;&gt;Node3</title>
<path fill="none" stroke="midnightblue" d="M364.502,-79.0346C388.259,-84.3259 415.141,-90.3133 439.646,-95.7712"/>
<polygon fill="midnightblue" stroke="midnightblue" points="439.104,-99.236 449.625,-97.9938 440.625,-92.4034 439.104,-99.236"/>
</g>
<!-- Node4 -->
<g id="node4" class="node"><title>Node4</title>
<g id="a_node4"><a xlink:href="../../da/d40/classfxml__main_1_1_grid_component_abst_ctrl.html#a2ce80206bf232bf1d6417c2bcd9bd66f" target="_top" xlink:title="fxml_main.GridComponentAbst\lCtrl.initEntryControls">
<polygon fill="white" stroke="black" points="434.5,-49 434.5,-79 601.5,-79 601.5,-49 434.5,-49"/>
<text text-anchor="start" x="442.5" y="-67" font-family="Helvetica,sans-Serif" font-size="10.00">fxml_main.GridComponentAbst</text>
<text text-anchor="middle" x="518" y="-56" font-family="Helvetica,sans-Serif" font-size="10.00">Ctrl.initEntryControls</text>
</a>
</g>
</g>
<!-- Node2&#45;&gt;Node4 -->
<g id="edge3" class="edge"><title>Node2&#45;&gt;Node4</title>
<path fill="none" stroke="midnightblue" d="M398.307,-64C406.98,-64 415.725,-64 424.326,-64"/>
<polygon fill="midnightblue" stroke="midnightblue" points="424.342,-67.5001 434.342,-64 424.342,-60.5001 424.342,-67.5001"/>
</g>
<!-- Node6 -->
<g id="node6" class="node"><title>Node6</title>
<g id="a_node6"><a xlink:href="../../d1/d4f/classauthoring_1_1data_1_1_patch_type_data.html#a83d13a28f3d638344c13fa92eb7baa80" target="_top" xlink:title="authoring.data.PatchType\lData.add">
<polygon fill="white" stroke="black" points="449.5,-0 449.5,-30 586.5,-30 586.5,-0 449.5,-0"/>
<text text-anchor="start" x="457.5" y="-18" font-family="Helvetica,sans-Serif" font-size="10.00">authoring.data.PatchType</text>
<text text-anchor="middle" x="518" y="-7" font-family="Helvetica,sans-Serif" font-size="10.00">Data.add</text>
</a>
</g>
</g>
<!-- Node5&#45;&gt;Node6 -->
<g id="edge5" class="edge"><title>Node5&#45;&gt;Node6</title>
<path fill="none" stroke="midnightblue" d="M364.502,-15C388.043,-15 414.652,-15 438.977,-15"/>
<polygon fill="midnightblue" stroke="midnightblue" points="439.246,-18.5001 449.246,-15 439.246,-11.5001 439.246,-18.5001"/>
</g>
</g>
</svg>
