<?xml version="1.0" encoding="UTF-8" standalone="no"?>
<!DOCTYPE svg PUBLIC "-//W3C//DTD SVG 1.1//EN"
 "http://www.w3.org/Graphics/SVG/1.1/DTD/svg11.dtd">
<!-- Generated by graphviz version 2.36.0 (20140111.2315)
 -->
<!-- Title: fxml_main.PatchController.initGlobalNewBtn Pages: 1 -->
<svg width="574pt" height="87pt"
 viewBox="0.00 0.00 574.00 87.00" xmlns="http://www.w3.org/2000/svg" xmlns:xlink="http://www.w3.org/1999/xlink">
<g id="graph0" class="graph" transform="scale(1 1) rotate(0) translate(4 83)">
<title>fxml_main.PatchController.initGlobalNewBtn</title>
<polygon fill="white" stroke="none" points="-4,4 -4,-83 570,-83 570,4 -4,4"/>
<!-- Node1 -->
<g id="node1" class="node"><title>Node1</title>
<polygon fill="#bfbfbf" stroke="black" points="0,-24 0,-54 158,-54 158,-24 0,-24"/>
<text text-anchor="start" x="8" y="-42" font-family="Helvetica,sans-Serif" font-size="10.00">fxml_main.PatchController.init</text>
<text text-anchor="middle" x="79" y="-31" font-family="Helvetica,sans-Serif" font-size="10.00">GlobalNewBtn</text>
</g>
<!-- Node2 -->
<g id="node2" class="node"><title>Node2</title>
<g id="a_node2"><a xlink:href="../../d1/d4f/classauthoring_1_1data_1_1_patch_type_data.html#a83d13a28f3d638344c13fa92eb7baa80" target="_top" xlink:title="authoring.data.PatchType\lData.add">
<polygon fill="white" stroke="black" points="209.5,-49 209.5,-79 346.5,-79 346.5,-49 209.5,-49"/>
<text text-anchor="start" x="217.5" y="-67" font-family="Helvetica,sans-Serif" font-size="10.00">authoring.data.PatchType</text>
<text text-anchor="middle" x="278" y="-56" font-family="Helvetica,sans-Serif" font-size="10.00">Data.add</text>
</a>
</g>
</g>
<!-- Node1&#45;&gt;Node2 -->
<g id="edge1" class="edge"><title>Node1&#45;&gt;Node2</title>
<path fill="none" stroke="midnightblue" d="M158.143,-48.9166C171.668,-50.633 185.729,-52.4174 199.244,-54.1325"/>
<polygon fill="midnightblue" stroke="midnightblue" points="199.094,-57.6414 209.455,-55.4283 199.975,-50.6971 199.094,-57.6414"/>
</g>
<!-- Node3 -->
<g id="node3" class="node"><title>Node3</title>
<g id="a_node3"><a xlink:href="../../da/d40/classfxml__main_1_1_grid_component_abst_ctrl.html#a458f6bc495d1bdfc6d3ff39cea40bd84" target="_top" xlink:title="fxml_main.GridComponentAbst\lCtrl\&lt; Patch \&gt;::addEntry">
<polygon fill="white" stroke="black" points="194.5,-0 194.5,-30 361.5,-30 361.5,-0 194.5,-0"/>
<text text-anchor="start" x="202.5" y="-18" font-family="Helvetica,sans-Serif" font-size="10.00">fxml_main.GridComponentAbst</text>
<text text-anchor="middle" x="278" y="-7" font-family="Helvetica,sans-Serif" font-size="10.00">Ctrl&lt; Patch &gt;::addEntry</text>
</a>
</g>
</g>
<!-- Node1&#45;&gt;Node3 -->
<g id="edge2" class="edge"><title>Node1&#45;&gt;Node3</title>
<path fill="none" stroke="midnightblue" d="M158.143,-29.4801C166.713,-28.436 175.498,-27.3657 184.224,-26.3027"/>
<polygon fill="midnightblue" stroke="midnightblue" points="184.919,-29.7439 194.423,-25.0602 184.073,-22.7953 184.919,-29.7439"/>
</g>
<!-- Node4 -->
<g id="node4" class="node"><title>Node4</title>
<g id="a_node4"><a xlink:href="../../da/d40/classfxml__main_1_1_grid_component_abst_ctrl.html#a690d85921c1558f7988bb18e895363ef" target="_top" xlink:title="fxml_main.GridComponentAbst\lCtrl.makeCompleteEntryBox">
<polygon fill="white" stroke="black" points="398.5,-0 398.5,-30 565.5,-30 565.5,-0 398.5,-0"/>
<text text-anchor="start" x="406.5" y="-18" font-family="Helvetica,sans-Serif" font-size="10.00">fxml_main.GridComponentAbst</text>
<text text-anchor="middle" x="482" y="-7" font-family="Helvetica,sans-Serif" font-size="10.00">Ctrl.makeCompleteEntryBox</text>
</a>
</g>
</g>
<!-- Node3&#45;&gt;Node4 -->
<g id="edge3" class="edge"><title>Node3&#45;&gt;Node4</title>
<path fill="none" stroke="midnightblue" d="M361.744,-15C370.437,-15 379.316,-15 388.112,-15"/>
<polygon fill="midnightblue" stroke="midnightblue" points="388.385,-18.5001 398.385,-15 388.385,-11.5001 388.385,-18.5001"/>
</g>
</g>
</svg>
