<?xml version="1.0" encoding="UTF-8" standalone="no"?>
<!DOCTYPE svg PUBLIC "-//W3C//DTD SVG 1.1//EN"
 "http://www.w3.org/Graphics/SVG/1.1/DTD/svg11.dtd">
<!-- Generated by graphviz version 2.36.0 (20140111.2315)
 -->
<!-- Title: authoring.concretefeatures.LevelCreator.LevelCreator Pages: 1 -->
<svg width="518pt" height="38pt"
 viewBox="0.00 0.00 518.00 38.00" xmlns="http://www.w3.org/2000/svg" xmlns:xlink="http://www.w3.org/1999/xlink">
<g id="graph0" class="graph" transform="scale(1 1) rotate(0) translate(4 34)">
<title>authoring.concretefeatures.LevelCreator.LevelCreator</title>
<polygon fill="white" stroke="none" points="-4,4 -4,-34 514,-34 514,4 -4,4"/>
<!-- Node1 -->
<g id="node1" class="node"><title>Node1</title>
<polygon fill="#bfbfbf" stroke="black" points="0,-0 0,-30 150,-30 150,-0 0,-0"/>
<text text-anchor="start" x="8" y="-18" font-family="Helvetica,sans-Serif" font-size="10.00">authoring.concretefeatures.</text>
<text text-anchor="middle" x="75" y="-7" font-family="Helvetica,sans-Serif" font-size="10.00">LevelCreator.LevelCreator</text>
</g>
<!-- Node2 -->
<g id="node2" class="node"><title>Node2</title>
<g id="a_node2"><a xlink:href="../../d6/d9d/classauthoring_1_1concretefeatures_1_1_level_creator.html#aca7f9c7e48481e37ede28392697371d4" target="_top" xlink:title="authoring.concretefeatures.\lLevelCreator.initialize">
<polygon fill="white" stroke="black" points="186,-0 186,-30 336,-30 336,-0 186,-0"/>
<text text-anchor="start" x="194" y="-18" font-family="Helvetica,sans-Serif" font-size="10.00">authoring.concretefeatures.</text>
<text text-anchor="middle" x="261" y="-7" font-family="Helvetica,sans-Serif" font-size="10.00">LevelCreator.initialize</text>
</a>
</g>
</g>
<!-- Node1&#45;&gt;Node2 -->
<g id="edge1" class="edge"><title>Node1&#45;&gt;Node2</title>
<path fill="none" stroke="midnightblue" d="M150.044,-15C158.514,-15 167.195,-15 175.784,-15"/>
<polygon fill="midnightblue" stroke="midnightblue" points="175.808,-18.5001 185.808,-15 175.807,-11.5001 175.808,-18.5001"/>
</g>
<!-- Node3 -->
<g id="node3" class="node"><title>Node3</title>
<g id="a_node3"><a xlink:href="../../da/dd4/classauthoring_1_1data_1_1_authoring_level.html#ab4ef0fc9ffcf9d416a5d87797f88aa16" target="_top" xlink:title="authoring.data.Authoring\lLevel.getId">
<polygon fill="white" stroke="black" points="372.5,-0 372.5,-30 509.5,-30 509.5,-0 372.5,-0"/>
<text text-anchor="start" x="380.5" y="-18" font-family="Helvetica,sans-Serif" font-size="10.00">authoring.data.Authoring</text>
<text text-anchor="middle" x="441" y="-7" font-family="Helvetica,sans-Serif" font-size="10.00">Level.getId</text>
</a>
</g>
</g>
<!-- Node2&#45;&gt;Node3 -->
<g id="edge2" class="edge"><title>Node2&#45;&gt;Node3</title>
<path fill="none" stroke="midnightblue" d="M336.199,-15C344.838,-15 353.669,-15 362.352,-15"/>
<polygon fill="midnightblue" stroke="midnightblue" points="362.459,-18.5001 372.459,-15 362.459,-11.5001 362.459,-18.5001"/>
</g>
</g>
</svg>
