<?xml version="1.0" encoding="UTF-8" standalone="no"?>
<!DOCTYPE svg PUBLIC "-//W3C//DTD SVG 1.1//EN"
 "http://www.w3.org/Graphics/SVG/1.1/DTD/svg11.dtd">
<!-- Generated by graphviz version 2.36.0 (20140111.2315)
 -->
<!-- Title: gamedata.action.ActionStatsEditor.addTotalLogicBox Pages: 1 -->
<svg width="554pt" height="60pt"
 viewBox="0.00 0.00 554.00 60.00" xmlns="http://www.w3.org/2000/svg" xmlns:xlink="http://www.w3.org/1999/xlink">
<g id="graph0" class="graph" transform="scale(1 1) rotate(0) translate(4 56)">
<title>gamedata.action.ActionStatsEditor.addTotalLogicBox</title>
<polygon fill="white" stroke="none" points="-4,4 -4,-56 550,-56 550,4 -4,4"/>
<!-- Node1 -->
<g id="node1" class="node"><title>Node1</title>
<polygon fill="#bfbfbf" stroke="black" points="0.5,-22 0.5,-52 157.5,-52 157.5,-22 0.5,-22"/>
<text text-anchor="start" x="8.5" y="-40" font-family="Helvetica,sans-Serif" font-size="10.00">gamedata.action.ActionStats</text>
<text text-anchor="middle" x="79" y="-29" font-family="Helvetica,sans-Serif" font-size="10.00">Editor.addTotalLogicBox</text>
</g>
<!-- Node2 -->
<g id="node2" class="node"><title>Node2</title>
<g id="a_node2"><a xlink:href="../../d9/d59/classgamedata_1_1action_1_1_action_stats_editor.html#a0b88b0d5b51f3c300c263198fdf1486a" target="_top" xlink:title="gamedata.action.ActionStats\lEditor.ActionStatsEditor">
<polygon fill="white" stroke="black" points="388.5,-22 388.5,-52 545.5,-52 545.5,-22 388.5,-22"/>
<text text-anchor="start" x="396.5" y="-40" font-family="Helvetica,sans-Serif" font-size="10.00">gamedata.action.ActionStats</text>
<text text-anchor="middle" x="467" y="-29" font-family="Helvetica,sans-Serif" font-size="10.00">Editor.ActionStatsEditor</text>
</a>
</g>
</g>
<!-- Node1&#45;&gt;Node2 -->
<g id="edge1" class="edge"><title>Node1&#45;&gt;Node2</title>
<path fill="none" stroke="midnightblue" d="M167.612,-38.6926C176.525,-38.8182 185.443,-38.9249 194,-39 264.22,-39.6159 281.78,-39.6159 352,-39 363.777,-38.8967 376.238,-38.7334 388.429,-38.5435"/>
<polygon fill="midnightblue" stroke="midnightblue" points="167.622,-35.1925 157.571,-38.5435 167.518,-42.1917 167.622,-35.1925"/>
</g>
<!-- Node3 -->
<g id="node3" class="node"><title>Node3</title>
<g id="a_node3"><a xlink:href="../../d9/d59/classgamedata_1_1action_1_1_action_stats_editor.html#a09f5d430dee5db156219d367c11a876f" target="_top" xlink:title="gamedata.action.ActionStats\lEditor.makeNewOpButton">
<polygon fill="white" stroke="black" points="194.5,-0 194.5,-30 351.5,-30 351.5,-0 194.5,-0"/>
<text text-anchor="start" x="202.5" y="-18" font-family="Helvetica,sans-Serif" font-size="10.00">gamedata.action.ActionStats</text>
<text text-anchor="middle" x="273" y="-7" font-family="Helvetica,sans-Serif" font-size="10.00">Editor.makeNewOpButton</text>
</a>
</g>
</g>
<!-- Node1&#45;&gt;Node3 -->
<g id="edge2" class="edge"><title>Node1&#45;&gt;Node3</title>
<path fill="none" stroke="midnightblue" d="M167.605,-26.962C176.571,-25.9346 185.635,-24.8959 194.482,-23.8822"/>
<polygon fill="midnightblue" stroke="midnightblue" points="167.077,-23.4995 157.54,-28.1152 167.874,-30.4539 167.077,-23.4995"/>
</g>
<!-- Node3&#45;&gt;Node2 -->
<g id="edge3" class="edge"><title>Node3&#45;&gt;Node2</title>
<path fill="none" stroke="midnightblue" d="M361.605,-25.038C370.571,-26.0654 379.635,-27.1041 388.482,-28.1178"/>
<polygon fill="midnightblue" stroke="midnightblue" points="361.874,-21.5461 351.54,-23.8848 361.077,-28.5005 361.874,-21.5461"/>
</g>
</g>
</svg>
