<?xml version="1.0" encoding="UTF-8" standalone="no"?>
<!DOCTYPE svg PUBLIC "-//W3C//DTD SVG 1.1//EN"
 "http://www.w3.org/Graphics/SVG/1.1/DTD/svg11.dtd">
<!-- Generated by graphviz version 2.36.0 (20140111.2315)
 -->
<!-- Title: gamedata.action.ActionStatsEditor.makeDeleteButton Pages: 1 -->
<svg width="748pt" height="60pt"
 viewBox="0.00 0.00 748.00 60.00" xmlns="http://www.w3.org/2000/svg" xmlns:xlink="http://www.w3.org/1999/xlink">
<g id="graph0" class="graph" transform="scale(1 1) rotate(0) translate(4 56)">
<title>gamedata.action.ActionStatsEditor.makeDeleteButton</title>
<polygon fill="white" stroke="none" points="-4,4 -4,-56 744,-56 744,4 -4,4"/>
<!-- Node1 -->
<g id="node1" class="node"><title>Node1</title>
<polygon fill="#bfbfbf" stroke="black" points="0.5,-22 0.5,-52 157.5,-52 157.5,-22 0.5,-22"/>
<text text-anchor="start" x="8.5" y="-40" font-family="Helvetica,sans-Serif" font-size="10.00">gamedata.action.ActionStats</text>
<text text-anchor="middle" x="79" y="-29" font-family="Helvetica,sans-Serif" font-size="10.00">Editor.makeDeleteButton</text>
</g>
<!-- Node2 -->
<g id="node2" class="node"><title>Node2</title>
<g id="a_node2"><a xlink:href="../../d9/d59/classgamedata_1_1action_1_1_action_stats_editor.html#acc81b02bda47260ec0fa182655bcadd7" target="_top" xlink:title="gamedata.action.ActionStats\lEditor.addTotalLogicBox">
<polygon fill="white" stroke="black" points="194.5,-22 194.5,-52 351.5,-52 351.5,-22 194.5,-22"/>
<text text-anchor="start" x="202.5" y="-40" font-family="Helvetica,sans-Serif" font-size="10.00">gamedata.action.ActionStats</text>
<text text-anchor="middle" x="273" y="-29" font-family="Helvetica,sans-Serif" font-size="10.00">Editor.addTotalLogicBox</text>
</a>
</g>
</g>
<!-- Node1&#45;&gt;Node2 -->
<g id="edge1" class="edge"><title>Node1&#45;&gt;Node2</title>
<path fill="none" stroke="midnightblue" d="M167.605,-37C176.571,-37 185.635,-37 194.482,-37"/>
<polygon fill="midnightblue" stroke="midnightblue" points="167.54,-33.5001 157.54,-37 167.54,-40.5001 167.54,-33.5001"/>
</g>
<!-- Node3 -->
<g id="node3" class="node"><title>Node3</title>
<g id="a_node3"><a xlink:href="../../d9/d59/classgamedata_1_1action_1_1_action_stats_editor.html#a0b88b0d5b51f3c300c263198fdf1486a" target="_top" xlink:title="gamedata.action.ActionStats\lEditor.ActionStatsEditor">
<polygon fill="white" stroke="black" points="582.5,-22 582.5,-52 739.5,-52 739.5,-22 582.5,-22"/>
<text text-anchor="start" x="590.5" y="-40" font-family="Helvetica,sans-Serif" font-size="10.00">gamedata.action.ActionStats</text>
<text text-anchor="middle" x="661" y="-29" font-family="Helvetica,sans-Serif" font-size="10.00">Editor.ActionStatsEditor</text>
</a>
</g>
</g>
<!-- Node2&#45;&gt;Node3 -->
<g id="edge2" class="edge"><title>Node2&#45;&gt;Node3</title>
<path fill="none" stroke="midnightblue" d="M361.612,-38.6926C370.525,-38.8182 379.443,-38.9249 388,-39 458.22,-39.6159 475.78,-39.6159 546,-39 557.777,-38.8967 570.238,-38.7334 582.429,-38.5435"/>
<polygon fill="midnightblue" stroke="midnightblue" points="361.622,-35.1925 351.571,-38.5435 361.518,-42.1917 361.622,-35.1925"/>
</g>
<!-- Node4 -->
<g id="node4" class="node"><title>Node4</title>
<g id="a_node4"><a xlink:href="../../d9/d59/classgamedata_1_1action_1_1_action_stats_editor.html#a09f5d430dee5db156219d367c11a876f" target="_top" xlink:title="gamedata.action.ActionStats\lEditor.makeNewOpButton">
<polygon fill="white" stroke="black" points="388.5,-0 388.5,-30 545.5,-30 545.5,-0 388.5,-0"/>
<text text-anchor="start" x="396.5" y="-18" font-family="Helvetica,sans-Serif" font-size="10.00">gamedata.action.ActionStats</text>
<text text-anchor="middle" x="467" y="-7" font-family="Helvetica,sans-Serif" font-size="10.00">Editor.makeNewOpButton</text>
</a>
</g>
</g>
<!-- Node2&#45;&gt;Node4 -->
<g id="edge3" class="edge"><title>Node2&#45;&gt;Node4</title>
<path fill="none" stroke="midnightblue" d="M361.605,-26.962C370.571,-25.9346 379.635,-24.8959 388.482,-23.8822"/>
<polygon fill="midnightblue" stroke="midnightblue" points="361.077,-23.4995 351.54,-28.1152 361.874,-30.4539 361.077,-23.4995"/>
</g>
<!-- Node4&#45;&gt;Node3 -->
<g id="edge4" class="edge"><title>Node4&#45;&gt;Node3</title>
<path fill="none" stroke="midnightblue" d="M555.605,-25.038C564.571,-26.0654 573.635,-27.1041 582.482,-28.1178"/>
<polygon fill="midnightblue" stroke="midnightblue" points="555.874,-21.5461 545.54,-23.8848 555.077,-28.5005 555.874,-21.5461"/>
</g>
</g>
</svg>
