<?xml version="1.0" encoding="UTF-8" standalone="no"?>
<!DOCTYPE svg PUBLIC "-//W3C//DTD SVG 1.1//EN"
 "http://www.w3.org/Graphics/SVG/1.1/DTD/svg11.dtd">
<!-- Generated by graphviz version 2.36.0 (20140111.2315)
 -->
<!-- Title: gamedata.action.ActionStatsEditor.makeNewOpButton Pages: 1 -->
<svg width="554pt" height="38pt"
 viewBox="0.00 0.00 554.00 38.00" xmlns="http://www.w3.org/2000/svg" xmlns:xlink="http://www.w3.org/1999/xlink">
<g id="graph0" class="graph" transform="scale(1 1) rotate(0) translate(4 34)">
<title>gamedata.action.ActionStatsEditor.makeNewOpButton</title>
<polygon fill="white" stroke="none" points="-4,4 -4,-34 550,-34 550,4 -4,4"/>
<!-- Node1 -->
<g id="node1" class="node"><title>Node1</title>
<polygon fill="#bfbfbf" stroke="black" points="0.5,-0 0.5,-30 157.5,-30 157.5,-0 0.5,-0"/>
<text text-anchor="start" x="8.5" y="-18" font-family="Helvetica,sans-Serif" font-size="10.00">gamedata.action.ActionStats</text>
<text text-anchor="middle" x="79" y="-7" font-family="Helvetica,sans-Serif" font-size="10.00">Editor.makeNewOpButton</text>
</g>
<!-- Node2 -->
<g id="node2" class="node"><title>Node2</title>
<g id="a_node2"><a xlink:href="../../d9/d59/classgamedata_1_1action_1_1_action_stats_editor.html#acc81b02bda47260ec0fa182655bcadd7" target="_top" xlink:title="gamedata.action.ActionStats\lEditor.addTotalLogicBox">
<polygon fill="white" stroke="black" points="194.5,-0 194.5,-30 351.5,-30 351.5,-0 194.5,-0"/>
<text text-anchor="start" x="202.5" y="-18" font-family="Helvetica,sans-Serif" font-size="10.00">gamedata.action.ActionStats</text>
<text text-anchor="middle" x="273" y="-7" font-family="Helvetica,sans-Serif" font-size="10.00">Editor.addTotalLogicBox</text>
</a>
</g>
</g>
<!-- Node1&#45;&gt;Node2 -->
<g id="edge1" class="edge"><title>Node1&#45;&gt;Node2</title>
<path fill="none" stroke="midnightblue" d="M157.54,-15C166.388,-15 175.452,-15 184.418,-15"/>
<polygon fill="midnightblue" stroke="midnightblue" points="184.482,-18.5001 194.482,-15 184.482,-11.5001 184.482,-18.5001"/>
</g>
<!-- Node3 -->
<g id="node3" class="node"><title>Node3</title>
<g id="a_node3"><a xlink:href="../../d9/d59/classgamedata_1_1action_1_1_action_stats_editor.html#a1755a1b81e3da4cc27a7fe77a8172856" target="_top" xlink:title="gamedata.action.ActionStats\lEditor.makeDeleteButton">
<polygon fill="white" stroke="black" points="388.5,-0 388.5,-30 545.5,-30 545.5,-0 388.5,-0"/>
<text text-anchor="start" x="396.5" y="-18" font-family="Helvetica,sans-Serif" font-size="10.00">gamedata.action.ActionStats</text>
<text text-anchor="middle" x="467" y="-7" font-family="Helvetica,sans-Serif" font-size="10.00">Editor.makeDeleteButton</text>
</a>
</g>
</g>
<!-- Node2&#45;&gt;Node3 -->
<g id="edge2" class="edge"><title>Node2&#45;&gt;Node3</title>
<path fill="none" stroke="midnightblue" d="M351.54,-15C360.388,-15 369.452,-15 378.418,-15"/>
<polygon fill="midnightblue" stroke="midnightblue" points="378.482,-18.5001 388.482,-15 378.482,-11.5001 378.482,-18.5001"/>
</g>
</g>
</svg>
