<?xml version="1.0" encoding="UTF-8" standalone="no"?>
<!DOCTYPE svg PUBLIC "-//W3C//DTD SVG 1.1//EN"
 "http://www.w3.org/Graphics/SVG/1.1/DTD/svg11.dtd">
<!-- Generated by graphviz version 2.36.0 (20140111.2315)
 -->
<!-- Title: utilities.ClassGrabber.getClasses Pages: 1 -->
<svg width="318pt" height="38pt"
 viewBox="0.00 0.00 318.00 38.00" xmlns="http://www.w3.org/2000/svg" xmlns:xlink="http://www.w3.org/1999/xlink">
<g id="graph0" class="graph" transform="scale(1 1) rotate(0) translate(4 34)">
<title>utilities.ClassGrabber.getClasses</title>
<polygon fill="white" stroke="none" points="-4,4 -4,-34 314,-34 314,4 -4,4"/>
<!-- Node1 -->
<g id="node1" class="node"><title>Node1</title>
<polygon fill="#bfbfbf" stroke="black" points="0,-0 0,-30 136,-30 136,-0 0,-0"/>
<text text-anchor="start" x="8" y="-18" font-family="Helvetica,sans-Serif" font-size="10.00">utilities.ClassGrabber.get</text>
<text text-anchor="middle" x="68" y="-7" font-family="Helvetica,sans-Serif" font-size="10.00">Classes</text>
</g>
<!-- Node2 -->
<g id="node2" class="node"><title>Node2</title>
<g id="a_node2"><a xlink:href="../../d7/dcc/classutilities_1_1_class_grabber.html#ad4bda95822ecf4385d69f6ecec3fd545" target="_top" xlink:title="utilities.ClassGrabber.find\lClasses">
<polygon fill="white" stroke="black" points="172.5,-0 172.5,-30 309.5,-30 309.5,-0 172.5,-0"/>
<text text-anchor="start" x="180.5" y="-18" font-family="Helvetica,sans-Serif" font-size="10.00">utilities.ClassGrabber.find</text>
<text text-anchor="middle" x="241" y="-7" font-family="Helvetica,sans-Serif" font-size="10.00">Classes</text>
</a>
</g>
</g>
<!-- Node1&#45;&gt;Node2 -->
<g id="edge1" class="edge"><title>Node1&#45;&gt;Node2</title>
<path fill="none" stroke="midnightblue" d="M136.093,-15C144.634,-15 153.432,-15 162.124,-15"/>
<polygon fill="midnightblue" stroke="midnightblue" points="162.258,-18.5001 172.258,-15 162.258,-11.5001 162.258,-18.5001"/>
</g>
</g>
</svg>
