<?xml version="1.0" encoding="UTF-8" standalone="no"?>
<!DOCTYPE svg PUBLIC "-//W3C//DTD SVG 1.1//EN"
 "http://www.w3.org/Graphics/SVG/1.1/DTD/svg11.dtd">
<!-- Generated by graphviz version 2.36.0 (20140111.2315)
 -->
<!-- Title: utilities.ClassGrabber.getClasses Pages: 1 -->
<svg width="894pt" height="185pt"
 viewBox="0.00 0.00 894.00 185.00" xmlns="http://www.w3.org/2000/svg" xmlns:xlink="http://www.w3.org/1999/xlink">
<g id="graph0" class="graph" transform="scale(1 1) rotate(0) translate(4 181)">
<title>utilities.ClassGrabber.getClasses</title>
<polygon fill="white" stroke="none" points="-4,4 -4,-181 890,-181 890,4 -4,4"/>
<!-- Node1 -->
<g id="node1" class="node"><title>Node1</title>
<polygon fill="#bfbfbf" stroke="black" points="0,-73 0,-103 136,-103 136,-73 0,-73"/>
<text text-anchor="start" x="8" y="-91" font-family="Helvetica,sans-Serif" font-size="10.00">utilities.ClassGrabber.get</text>
<text text-anchor="middle" x="68" y="-80" font-family="Helvetica,sans-Serif" font-size="10.00">Classes</text>
</g>
<!-- Node2 -->
<g id="node2" class="node"><title>Node2</title>
<g id="a_node2"><a xlink:href="../../d7/dcc/classutilities_1_1_class_grabber.html#a6e528c82ad6e17a13e844e6e12c02c47" target="_top" xlink:title="utilities.ClassGrabber.get\lClassNames">
<polygon fill="white" stroke="black" points="179,-147 179,-177 315,-177 315,-147 179,-147"/>
<text text-anchor="start" x="187" y="-165" font-family="Helvetica,sans-Serif" font-size="10.00">utilities.ClassGrabber.get</text>
<text text-anchor="middle" x="247" y="-154" font-family="Helvetica,sans-Serif" font-size="10.00">ClassNames</text>
</a>
</g>
</g>
<!-- Node1&#45;&gt;Node2 -->
<g id="edge1" class="edge"><title>Node1&#45;&gt;Node2</title>
<path fill="none" stroke="midnightblue" d="M107.355,-107.575C126.53,-117.018 150.234,-128.182 172,-137 180.546,-140.462 189.774,-143.849 198.717,-146.957"/>
<polygon fill="midnightblue" stroke="midnightblue" points="108.847,-104.408 98.3335,-103.095 105.733,-110.677 108.847,-104.408"/>
</g>
<!-- Node6 -->
<g id="node6" class="node"><title>Node6</title>
<g id="a_node6"><a xlink:href="../../d5/d7c/classauthoring_1_1createedit_1_1_action_creator.html#a2a6e47c579e20e95fb11d3a85f382f34" target="_top" xlink:title="authoring.createedit.Action\lCreator.initConclusionsBox">
<polygon fill="white" stroke="black" points="173.5,-98 173.5,-128 320.5,-128 320.5,-98 173.5,-98"/>
<text text-anchor="start" x="181.5" y="-116" font-family="Helvetica,sans-Serif" font-size="10.00">authoring.createedit.Action</text>
<text text-anchor="middle" x="247" y="-105" font-family="Helvetica,sans-Serif" font-size="10.00">Creator.initConclusionsBox</text>
</a>
</g>
</g>
<!-- Node1&#45;&gt;Node6 -->
<g id="edge5" class="edge"><title>Node1&#45;&gt;Node6</title>
<path fill="none" stroke="midnightblue" d="M146.224,-98.9073C155.207,-100.176 164.347,-101.467 173.267,-102.727"/>
<polygon fill="midnightblue" stroke="midnightblue" points="146.56,-95.4201 136.168,-97.4871 145.581,-102.351 146.56,-95.4201"/>
</g>
<!-- Node9 -->
<g id="node9" class="node"><title>Node9</title>
<g id="a_node9"><a xlink:href="../../d7/d8d/classauthoring_1_1eventeditor_1_1_new_condition_controller.html#aed1a64ec8d1df46da1fb2d8d73963496" target="_top" xlink:title="authoring.eventeditor.New\lConditionController.initialize">
<polygon fill="white" stroke="black" points="172.5,-49 172.5,-79 321.5,-79 321.5,-49 172.5,-49"/>
<text text-anchor="start" x="180.5" y="-67" font-family="Helvetica,sans-Serif" font-size="10.00">authoring.eventeditor.New</text>
<text text-anchor="middle" x="247" y="-56" font-family="Helvetica,sans-Serif" font-size="10.00">ConditionController.initialize</text>
</a>
</g>
</g>
<!-- Node1&#45;&gt;Node9 -->
<g id="edge8" class="edge"><title>Node1&#45;&gt;Node9</title>
<path fill="none" stroke="midnightblue" d="M146.261,-77.5239C154.933,-76.3481 163.751,-75.1524 172.375,-73.983"/>
<polygon fill="midnightblue" stroke="midnightblue" points="145.608,-74.0804 136.168,-78.8924 146.548,-81.0169 145.608,-74.0804"/>
</g>
<!-- Node10 -->
<g id="node10" class="node"><title>Node10</title>
<g id="a_node10"><a xlink:href="../../dc/dc7/classauthoring_1_1eventeditor_1_1_new_action_controller.html#abd68eb4ecff32893772a9924cfc29f39" target="_top" xlink:title="authoring.eventeditor.New\lActionController.initialize">
<polygon fill="white" stroke="black" points="175.5,-0 175.5,-30 318.5,-30 318.5,-0 175.5,-0"/>
<text text-anchor="start" x="183.5" y="-18" font-family="Helvetica,sans-Serif" font-size="10.00">authoring.eventeditor.New</text>
<text text-anchor="middle" x="247" y="-7" font-family="Helvetica,sans-Serif" font-size="10.00">ActionController.initialize</text>
</a>
</g>
</g>
<!-- Node1&#45;&gt;Node10 -->
<g id="edge9" class="edge"><title>Node1&#45;&gt;Node10</title>
<path fill="none" stroke="midnightblue" d="M108.492,-68.3499C127.479,-59.2249 150.693,-48.5338 172,-40 180.56,-36.5716 189.794,-33.2006 198.739,-30.0984"/>
<polygon fill="midnightblue" stroke="midnightblue" points="106.733,-65.3127 99.2599,-72.8228 109.785,-71.6123 106.733,-65.3127"/>
</g>
<!-- Node3 -->
<g id="node3" class="node"><title>Node3</title>
<g id="a_node3"><a xlink:href="../../d1/dfc/classfxml__main_1_1_action_editor.html#adf8f00b5c1e13d8de4085c8023874e30" target="_top" xlink:title="fxml_main.ActionEditor.init\lConclusionsBox">
<polygon fill="white" stroke="black" points="360.5,-147 360.5,-177 503.5,-177 503.5,-147 360.5,-147"/>
<text text-anchor="start" x="368.5" y="-165" font-family="Helvetica,sans-Serif" font-size="10.00">fxml_main.ActionEditor.init</text>
<text text-anchor="middle" x="432" y="-154" font-family="Helvetica,sans-Serif" font-size="10.00">ConclusionsBox</text>
</a>
</g>
</g>
<!-- Node2&#45;&gt;Node3 -->
<g id="edge2" class="edge"><title>Node2&#45;&gt;Node3</title>
<path fill="none" stroke="midnightblue" d="M325.207,-162C336.819,-162 348.746,-162 360.215,-162"/>
<polygon fill="midnightblue" stroke="midnightblue" points="325.103,-158.5 315.103,-162 325.103,-165.5 325.103,-158.5"/>
</g>
<!-- Node4 -->
<g id="node4" class="node"><title>Node4</title>
<g id="a_node4"><a xlink:href="../../d1/dfc/classfxml__main_1_1_action_editor.html#a3f41408f9918728d0fd74ef22c57ca07" target="_top" xlink:title="fxml_main.ActionEditor.init\lEditor">
<polygon fill="white" stroke="black" points="544.5,-147 544.5,-177 687.5,-177 687.5,-147 544.5,-147"/>
<text text-anchor="start" x="552.5" y="-165" font-family="Helvetica,sans-Serif" font-size="10.00">fxml_main.ActionEditor.init</text>
<text text-anchor="middle" x="616" y="-154" font-family="Helvetica,sans-Serif" font-size="10.00">Editor</text>
</a>
</g>
</g>
<!-- Node3&#45;&gt;Node4 -->
<g id="edge3" class="edge"><title>Node3&#45;&gt;Node4</title>
<path fill="none" stroke="midnightblue" d="M513.765,-162C523.982,-162 534.372,-162 544.413,-162"/>
<polygon fill="midnightblue" stroke="midnightblue" points="513.626,-158.5 503.626,-162 513.626,-165.5 513.626,-158.5"/>
</g>
<!-- Node5 -->
<g id="node5" class="node"><title>Node5</title>
<g id="a_node5"><a xlink:href="../../d1/dfc/classfxml__main_1_1_action_editor.html#a7f9f88d727095254365be96c187826b2" target="_top" xlink:title="fxml_main.ActionEditor.Action\lEditor">
<polygon fill="white" stroke="black" points="726.5,-147 726.5,-177 885.5,-177 885.5,-147 726.5,-147"/>
<text text-anchor="start" x="734.5" y="-165" font-family="Helvetica,sans-Serif" font-size="10.00">fxml_main.ActionEditor.Action</text>
<text text-anchor="middle" x="806" y="-154" font-family="Helvetica,sans-Serif" font-size="10.00">Editor</text>
</a>
</g>
</g>
<!-- Node4&#45;&gt;Node5 -->
<g id="edge4" class="edge"><title>Node4&#45;&gt;Node5</title>
<path fill="none" stroke="midnightblue" d="M697.779,-162C707.3,-162 717.005,-162 726.494,-162"/>
<polygon fill="midnightblue" stroke="midnightblue" points="697.539,-158.5 687.539,-162 697.539,-165.5 697.539,-158.5"/>
</g>
<!-- Node7 -->
<g id="node7" class="node"><title>Node7</title>
<g id="a_node7"><a xlink:href="../../d5/d7c/classauthoring_1_1createedit_1_1_action_creator.html#ad674395590b84f53c85f078d183bc133" target="_top" xlink:title="authoring.createedit.Action\lCreator.initialize">
<polygon fill="white" stroke="black" points="358.5,-98 358.5,-128 505.5,-128 505.5,-98 358.5,-98"/>
<text text-anchor="start" x="366.5" y="-116" font-family="Helvetica,sans-Serif" font-size="10.00">authoring.createedit.Action</text>
<text text-anchor="middle" x="432" y="-105" font-family="Helvetica,sans-Serif" font-size="10.00">Creator.initialize</text>
</a>
</g>
</g>
<!-- Node6&#45;&gt;Node7 -->
<g id="edge6" class="edge"><title>Node6&#45;&gt;Node7</title>
<path fill="none" stroke="midnightblue" d="M330.615,-113C339.915,-113 349.34,-113 358.499,-113"/>
<polygon fill="midnightblue" stroke="midnightblue" points="330.589,-109.5 320.589,-113 330.589,-116.5 330.589,-109.5"/>
</g>
<!-- Node8 -->
<g id="node8" class="node"><title>Node8</title>
<g id="a_node8"><a xlink:href="../../d5/d7c/classauthoring_1_1createedit_1_1_action_creator.html#a5ed7745b05fe6a4c847f2e392784941f" target="_top" xlink:title="authoring.createedit.Action\lCreator.ActionCreator">
<polygon fill="white" stroke="black" points="542.5,-98 542.5,-128 689.5,-128 689.5,-98 542.5,-98"/>
<text text-anchor="start" x="550.5" y="-116" font-family="Helvetica,sans-Serif" font-size="10.00">authoring.createedit.Action</text>
<text text-anchor="middle" x="616" y="-105" font-family="Helvetica,sans-Serif" font-size="10.00">Creator.ActionCreator</text>
</a>
</g>
</g>
<!-- Node7&#45;&gt;Node8 -->
<g id="edge7" class="edge"><title>Node7&#45;&gt;Node8</title>
<path fill="none" stroke="midnightblue" d="M515.994,-113C524.806,-113 533.72,-113 542.4,-113"/>
<polygon fill="midnightblue" stroke="midnightblue" points="515.716,-109.5 505.716,-113 515.716,-116.5 515.716,-109.5"/>
</g>
</g>
</svg>
