<?xml version="1.0" encoding="UTF-8" standalone="no"?>
<!DOCTYPE svg PUBLIC "-//W3C//DTD SVG 1.1//EN"
 "http://www.w3.org/Graphics/SVG/1.1/DTD/svg11.dtd">
<!-- Generated by graphviz version 2.36.0 (20140111.2315)
 -->
<!-- Title: utilities.ClassGrabber.getClassNames Pages: 1 -->
<svg width="490pt" height="38pt"
 viewBox="0.00 0.00 490.00 38.00" xmlns="http://www.w3.org/2000/svg" xmlns:xlink="http://www.w3.org/1999/xlink">
<g id="graph0" class="graph" transform="scale(1 1) rotate(0) translate(4 34)">
<title>utilities.ClassGrabber.getClassNames</title>
<polygon fill="white" stroke="none" points="-4,4 -4,-34 486,-34 486,4 -4,4"/>
<!-- Node1 -->
<g id="node1" class="node"><title>Node1</title>
<polygon fill="#bfbfbf" stroke="black" points="0,-0 0,-30 136,-30 136,-0 0,-0"/>
<text text-anchor="start" x="8" y="-18" font-family="Helvetica,sans-Serif" font-size="10.00">utilities.ClassGrabber.get</text>
<text text-anchor="middle" x="68" y="-7" font-family="Helvetica,sans-Serif" font-size="10.00">ClassNames</text>
</g>
<!-- Node2 -->
<g id="node2" class="node"><title>Node2</title>
<g id="a_node2"><a xlink:href="../../d7/dcc/classutilities_1_1_class_grabber.html#aafd30d1c4beed85d57bce894927acb09" target="_top" xlink:title="utilities.ClassGrabber.get\lClasses">
<polygon fill="white" stroke="black" points="172,-0 172,-30 308,-30 308,-0 172,-0"/>
<text text-anchor="start" x="180" y="-18" font-family="Helvetica,sans-Serif" font-size="10.00">utilities.ClassGrabber.get</text>
<text text-anchor="middle" x="240" y="-7" font-family="Helvetica,sans-Serif" font-size="10.00">Classes</text>
</a>
</g>
</g>
<!-- Node1&#45;&gt;Node2 -->
<g id="edge1" class="edge"><title>Node1&#45;&gt;Node2</title>
<path fill="none" stroke="midnightblue" d="M136.189,-15C144.502,-15 153.054,-15 161.506,-15"/>
<polygon fill="midnightblue" stroke="midnightblue" points="161.743,-18.5001 171.743,-15 161.743,-11.5001 161.743,-18.5001"/>
</g>
<!-- Node3 -->
<g id="node3" class="node"><title>Node3</title>
<g id="a_node3"><a xlink:href="../../d7/dcc/classutilities_1_1_class_grabber.html#ad4bda95822ecf4385d69f6ecec3fd545" target="_top" xlink:title="utilities.ClassGrabber.find\lClasses">
<polygon fill="white" stroke="black" points="344.5,-0 344.5,-30 481.5,-30 481.5,-0 344.5,-0"/>
<text text-anchor="start" x="352.5" y="-18" font-family="Helvetica,sans-Serif" font-size="10.00">utilities.ClassGrabber.find</text>
<text text-anchor="middle" x="413" y="-7" font-family="Helvetica,sans-Serif" font-size="10.00">Classes</text>
</a>
</g>
</g>
<!-- Node2&#45;&gt;Node3 -->
<g id="edge2" class="edge"><title>Node2&#45;&gt;Node3</title>
<path fill="none" stroke="midnightblue" d="M308.093,-15C316.634,-15 325.432,-15 334.124,-15"/>
<polygon fill="midnightblue" stroke="midnightblue" points="334.258,-18.5001 344.258,-15 334.258,-11.5001 334.258,-18.5001"/>
</g>
</g>
</svg>
