<?xml version="1.0" encoding="UTF-8" standalone="no"?>
<!DOCTYPE svg PUBLIC "-//W3C//DTD SVG 1.1//EN"
 "http://www.w3.org/Graphics/SVG/1.1/DTD/svg11.dtd">
<!-- Generated by graphviz version 2.36.0 (20140111.2315)
 -->
<!-- Title: utilities.ClassGrabber.findClasses Pages: 1 -->
<svg width="1068pt" height="185pt"
 viewBox="0.00 0.00 1068.00 185.00" xmlns="http://www.w3.org/2000/svg" xmlns:xlink="http://www.w3.org/1999/xlink">
<g id="graph0" class="graph" transform="scale(1 1) rotate(0) translate(4 181)">
<title>utilities.ClassGrabber.findClasses</title>
<polygon fill="white" stroke="none" points="-4,4 -4,-181 1064,-181 1064,4 -4,4"/>
<!-- Node1 -->
<g id="node1" class="node"><title>Node1</title>
<polygon fill="#bfbfbf" stroke="black" points="0.5,-73 0.5,-103 137.5,-103 137.5,-73 0.5,-73"/>
<text text-anchor="start" x="8.5" y="-91" font-family="Helvetica,sans-Serif" font-size="10.00">utilities.ClassGrabber.find</text>
<text text-anchor="middle" x="69" y="-80" font-family="Helvetica,sans-Serif" font-size="10.00">Classes</text>
</g>
<!-- Node2 -->
<g id="node2" class="node"><title>Node2</title>
<g id="a_node2"><a xlink:href="../../d7/dcc/classutilities_1_1_class_grabber.html#aafd30d1c4beed85d57bce894927acb09" target="_top" xlink:title="utilities.ClassGrabber.get\lClasses">
<polygon fill="white" stroke="black" points="174,-73 174,-103 310,-103 310,-73 174,-73"/>
<text text-anchor="start" x="182" y="-91" font-family="Helvetica,sans-Serif" font-size="10.00">utilities.ClassGrabber.get</text>
<text text-anchor="middle" x="242" y="-80" font-family="Helvetica,sans-Serif" font-size="10.00">Classes</text>
</a>
</g>
</g>
<!-- Node1&#45;&gt;Node2 -->
<g id="edge1" class="edge"><title>Node1&#45;&gt;Node2</title>
<path fill="none" stroke="midnightblue" d="M147.76,-88C156.49,-88 165.328,-88 173.907,-88"/>
<polygon fill="midnightblue" stroke="midnightblue" points="147.584,-84.5001 137.584,-88 147.584,-91.5001 147.584,-84.5001"/>
</g>
<!-- Node3 -->
<g id="node3" class="node"><title>Node3</title>
<g id="a_node3"><a xlink:href="../../d5/d7c/classauthoring_1_1createedit_1_1_action_creator.html#a2a6e47c579e20e95fb11d3a85f382f34" target="_top" xlink:title="authoring.createedit.Action\lCreator.initConclusionsBox">
<polygon fill="white" stroke="black" points="347.5,-147 347.5,-177 494.5,-177 494.5,-147 347.5,-147"/>
<text text-anchor="start" x="355.5" y="-165" font-family="Helvetica,sans-Serif" font-size="10.00">authoring.createedit.Action</text>
<text text-anchor="middle" x="421" y="-154" font-family="Helvetica,sans-Serif" font-size="10.00">Creator.initConclusionsBox</text>
</a>
</g>
</g>
<!-- Node2&#45;&gt;Node3 -->
<g id="edge2" class="edge"><title>Node2&#45;&gt;Node3</title>
<path fill="none" stroke="midnightblue" d="M281.355,-107.575C300.53,-117.018 324.234,-128.182 346,-137 354.546,-140.462 363.774,-143.849 372.717,-146.957"/>
<polygon fill="midnightblue" stroke="midnightblue" points="282.847,-104.408 272.334,-103.095 279.733,-110.677 282.847,-104.408"/>
</g>
<!-- Node6 -->
<g id="node6" class="node"><title>Node6</title>
<g id="a_node6"><a xlink:href="../../dc/dc7/classauthoring_1_1eventeditor_1_1_new_action_controller.html#abd68eb4ecff32893772a9924cfc29f39" target="_top" xlink:title="authoring.eventeditor.New\lActionController.initialize">
<polygon fill="white" stroke="black" points="349.5,-98 349.5,-128 492.5,-128 492.5,-98 349.5,-98"/>
<text text-anchor="start" x="357.5" y="-116" font-family="Helvetica,sans-Serif" font-size="10.00">authoring.eventeditor.New</text>
<text text-anchor="middle" x="421" y="-105" font-family="Helvetica,sans-Serif" font-size="10.00">ActionController.initialize</text>
</a>
</g>
</g>
<!-- Node2&#45;&gt;Node6 -->
<g id="edge5" class="edge"><title>Node2&#45;&gt;Node6</title>
<path fill="none" stroke="midnightblue" d="M320.184,-98.9017C329.878,-100.271 339.755,-101.666 349.342,-103.02"/>
<polygon fill="midnightblue" stroke="midnightblue" points="320.56,-95.4201 310.168,-97.4871 319.581,-102.351 320.56,-95.4201"/>
</g>
<!-- Node7 -->
<g id="node7" class="node"><title>Node7</title>
<g id="a_node7"><a xlink:href="../../d7/d8d/classauthoring_1_1eventeditor_1_1_new_condition_controller.html#aed1a64ec8d1df46da1fb2d8d73963496" target="_top" xlink:title="authoring.eventeditor.New\lConditionController.initialize">
<polygon fill="white" stroke="black" points="346.5,-49 346.5,-79 495.5,-79 495.5,-49 346.5,-49"/>
<text text-anchor="start" x="354.5" y="-67" font-family="Helvetica,sans-Serif" font-size="10.00">authoring.eventeditor.New</text>
<text text-anchor="middle" x="421" y="-56" font-family="Helvetica,sans-Serif" font-size="10.00">ConditionController.initialize</text>
</a>
</g>
</g>
<!-- Node2&#45;&gt;Node7 -->
<g id="edge6" class="edge"><title>Node2&#45;&gt;Node7</title>
<path fill="none" stroke="midnightblue" d="M320.261,-77.5239C328.933,-76.3481 337.751,-75.1524 346.375,-73.983"/>
<polygon fill="midnightblue" stroke="midnightblue" points="319.608,-74.0804 310.168,-78.8924 320.548,-81.0169 319.608,-74.0804"/>
</g>
<!-- Node8 -->
<g id="node8" class="node"><title>Node8</title>
<g id="a_node8"><a xlink:href="../../d7/dcc/classutilities_1_1_class_grabber.html#a6e528c82ad6e17a13e844e6e12c02c47" target="_top" xlink:title="utilities.ClassGrabber.get\lClassNames">
<polygon fill="white" stroke="black" points="353,-0 353,-30 489,-30 489,-0 353,-0"/>
<text text-anchor="start" x="361" y="-18" font-family="Helvetica,sans-Serif" font-size="10.00">utilities.ClassGrabber.get</text>
<text text-anchor="middle" x="421" y="-7" font-family="Helvetica,sans-Serif" font-size="10.00">ClassNames</text>
</a>
</g>
</g>
<!-- Node2&#45;&gt;Node8 -->
<g id="edge7" class="edge"><title>Node2&#45;&gt;Node8</title>
<path fill="none" stroke="midnightblue" d="M282.492,-68.3499C301.479,-59.2249 324.693,-48.5338 346,-40 354.56,-36.5716 363.794,-33.2006 372.739,-30.0984"/>
<polygon fill="midnightblue" stroke="midnightblue" points="280.733,-65.3127 273.26,-72.8228 283.785,-71.6123 280.733,-65.3127"/>
</g>
<!-- Node4 -->
<g id="node4" class="node"><title>Node4</title>
<g id="a_node4"><a xlink:href="../../d5/d7c/classauthoring_1_1createedit_1_1_action_creator.html#ad674395590b84f53c85f078d183bc133" target="_top" xlink:title="authoring.createedit.Action\lCreator.initialize">
<polygon fill="white" stroke="black" points="532.5,-147 532.5,-177 679.5,-177 679.5,-147 532.5,-147"/>
<text text-anchor="start" x="540.5" y="-165" font-family="Helvetica,sans-Serif" font-size="10.00">authoring.createedit.Action</text>
<text text-anchor="middle" x="606" y="-154" font-family="Helvetica,sans-Serif" font-size="10.00">Creator.initialize</text>
</a>
</g>
</g>
<!-- Node3&#45;&gt;Node4 -->
<g id="edge3" class="edge"><title>Node3&#45;&gt;Node4</title>
<path fill="none" stroke="midnightblue" d="M504.615,-162C513.915,-162 523.34,-162 532.499,-162"/>
<polygon fill="midnightblue" stroke="midnightblue" points="504.589,-158.5 494.589,-162 504.589,-165.5 504.589,-158.5"/>
</g>
<!-- Node5 -->
<g id="node5" class="node"><title>Node5</title>
<g id="a_node5"><a xlink:href="../../d5/d7c/classauthoring_1_1createedit_1_1_action_creator.html#a5ed7745b05fe6a4c847f2e392784941f" target="_top" xlink:title="authoring.createedit.Action\lCreator.ActionCreator">
<polygon fill="white" stroke="black" points="716.5,-147 716.5,-177 863.5,-177 863.5,-147 716.5,-147"/>
<text text-anchor="start" x="724.5" y="-165" font-family="Helvetica,sans-Serif" font-size="10.00">authoring.createedit.Action</text>
<text text-anchor="middle" x="790" y="-154" font-family="Helvetica,sans-Serif" font-size="10.00">Creator.ActionCreator</text>
</a>
</g>
</g>
<!-- Node4&#45;&gt;Node5 -->
<g id="edge4" class="edge"><title>Node4&#45;&gt;Node5</title>
<path fill="none" stroke="midnightblue" d="M689.994,-162C698.806,-162 707.72,-162 716.4,-162"/>
<polygon fill="midnightblue" stroke="midnightblue" points="689.716,-158.5 679.716,-162 689.716,-165.5 689.716,-158.5"/>
</g>
<!-- Node9 -->
<g id="node9" class="node"><title>Node9</title>
<g id="a_node9"><a xlink:href="../../d1/dfc/classfxml__main_1_1_action_editor.html#adf8f00b5c1e13d8de4085c8023874e30" target="_top" xlink:title="fxml_main.ActionEditor.init\lConclusionsBox">
<polygon fill="white" stroke="black" points="534.5,-0 534.5,-30 677.5,-30 677.5,-0 534.5,-0"/>
<text text-anchor="start" x="542.5" y="-18" font-family="Helvetica,sans-Serif" font-size="10.00">fxml_main.ActionEditor.init</text>
<text text-anchor="middle" x="606" y="-7" font-family="Helvetica,sans-Serif" font-size="10.00">ConclusionsBox</text>
</a>
</g>
</g>
<!-- Node8&#45;&gt;Node9 -->
<g id="edge8" class="edge"><title>Node8&#45;&gt;Node9</title>
<path fill="none" stroke="midnightblue" d="M499.207,-15C510.819,-15 522.746,-15 534.215,-15"/>
<polygon fill="midnightblue" stroke="midnightblue" points="499.103,-11.5001 489.103,-15 499.103,-18.5001 499.103,-11.5001"/>
</g>
<!-- Node10 -->
<g id="node10" class="node"><title>Node10</title>
<g id="a_node10"><a xlink:href="../../d1/dfc/classfxml__main_1_1_action_editor.html#a3f41408f9918728d0fd74ef22c57ca07" target="_top" xlink:title="fxml_main.ActionEditor.init\lEditor">
<polygon fill="white" stroke="black" points="718.5,-0 718.5,-30 861.5,-30 861.5,-0 718.5,-0"/>
<text text-anchor="start" x="726.5" y="-18" font-family="Helvetica,sans-Serif" font-size="10.00">fxml_main.ActionEditor.init</text>
<text text-anchor="middle" x="790" y="-7" font-family="Helvetica,sans-Serif" font-size="10.00">Editor</text>
</a>
</g>
</g>
<!-- Node9&#45;&gt;Node10 -->
<g id="edge9" class="edge"><title>Node9&#45;&gt;Node10</title>
<path fill="none" stroke="midnightblue" d="M687.765,-15C697.982,-15 708.372,-15 718.413,-15"/>
<polygon fill="midnightblue" stroke="midnightblue" points="687.626,-11.5001 677.626,-15 687.626,-18.5001 687.626,-11.5001"/>
</g>
<!-- Node11 -->
<g id="node11" class="node"><title>Node11</title>
<g id="a_node11"><a xlink:href="../../d1/dfc/classfxml__main_1_1_action_editor.html#a7f9f88d727095254365be96c187826b2" target="_top" xlink:title="fxml_main.ActionEditor.Action\lEditor">
<polygon fill="white" stroke="black" points="900.5,-0 900.5,-30 1059.5,-30 1059.5,-0 900.5,-0"/>
<text text-anchor="start" x="908.5" y="-18" font-family="Helvetica,sans-Serif" font-size="10.00">fxml_main.ActionEditor.Action</text>
<text text-anchor="middle" x="980" y="-7" font-family="Helvetica,sans-Serif" font-size="10.00">Editor</text>
</a>
</g>
</g>
<!-- Node10&#45;&gt;Node11 -->
<g id="edge10" class="edge"><title>Node10&#45;&gt;Node11</title>
<path fill="none" stroke="midnightblue" d="M871.779,-15C881.3,-15 891.005,-15 900.494,-15"/>
<polygon fill="midnightblue" stroke="midnightblue" points="871.539,-11.5001 861.539,-15 871.539,-18.5001 871.539,-11.5001"/>
</g>
</g>
</svg>
