<?xml version="1.0" encoding="UTF-8" standalone="no"?>
<!DOCTYPE svg PUBLIC "-//W3C//DTD SVG 1.1//EN"
 "http://www.w3.org/Graphics/SVG/1.1/DTD/svg11.dtd">
<!-- Generated by graphviz version 2.36.0 (20140111.2315)
 -->
<!-- Title: fxml_main.PatchTypeEditor Pages: 1 -->
<!--zoomable 270 -->
<svg id="main" version="1.1" xmlns="http://www.w3.org/2000/svg" xmlns:xlink="http://www.w3.org/1999/xlink" xml:space="preserve" onload="init(evt)">
<style type="text/css"><![CDATA[
.edge:hover path { stroke: red; }
.edge:hover polygon { stroke: red; fill: red; }
]]></style>
<script type="text/javascript"><![CDATA[
var edges = document.getElementsByTagName('g');
if (edges && edges.length) {
  for (var i=0;i<edges.length;i++) {
    if (edges[i].id.substr(0,4)=='edge') {
      edges[i].setAttribute('class','edge');
    }
  }
}
]]></script>
        <defs>
                <circle id="rim" cx="0" cy="0" r="7"/>
                <circle id="rim2" cx="0" cy="0" r="3.5"/>
                <g id="zoomPlus">
                        <use xlink:href="#rim" fill="#404040">
                                <set attributeName="fill" to="#808080" begin="zoomplus.mouseover" end="zoomplus.mouseout"/>
                        </use>
                        <path d="M-4,0h8M0,-4v8" fill="none" stroke="white" stroke-width="1.5" pointer-events="none"/>
                </g>
                <g id="zoomMin">
                        <use xlink:href="#rim" fill="#404040">
                                <set attributeName="fill" to="#808080" begin="zoomminus.mouseover" end="zoomminus.mouseout"/>
                        </use>
                        <path d="M-4,0h8" fill="none" stroke="white" stroke-width="1.5" pointer-events="none"/>
                </g>
                <g id="dirArrow">
                        <path fill="none" stroke="white" stroke-width="1.5" d="M0,-3.0v7 M-2.5,-0.5L0,-3.0L2.5,-0.5"/>
                </g>
               <g id="resetDef">
                       <use xlink:href="#rim2" fill="#404040">
                               <set attributeName="fill" to="#808080" begin="reset.mouseover" end="reset.mouseout"/>
                       </use>
               </g>
        </defs>

<script type="text/javascript">
var viewWidth = 1012;
var viewHeight = 270;
var sectionId = 'dynsection-1';
</script>
<script xlink:href="../../svgpan.js"/>
<svg id="graph" class="graph">
<g id="viewport">
<title>fxml_main.PatchTypeEditor</title>
<polygon fill="white" stroke="none" points="-4,4 -4,-266 1008,-266 1008,4 -4,4"/>
<!-- Node1 -->
<g id="node1" class="node"><title>Node1</title>
<polygon fill="#bfbfbf" stroke="black" points="860,-104.5 860,-123.5 1004,-123.5 1004,-104.5 860,-104.5"/>
<text text-anchor="middle" x="932" y="-111.5" font-family="Helvetica,sans-Serif" font-size="10.00">fxml_main.PatchTypeEditor</text>
</g>
<!-- Node2 -->
<g id="node2" class="node"><title>Node2</title>
<polygon fill="white" stroke="#bfbfbf" points="623,-214.5 623,-233.5 663,-233.5 663,-214.5 623,-214.5"/>
<text text-anchor="middle" x="643" y="-221.5" font-family="Helvetica,sans-Serif" font-size="10.00">Pane</text>
</g>
<!-- Node2&#45;&gt;Node1 -->
<g id="edge1" class="edge"><title>Node2&#45;&gt;Node1</title>
<path fill="none" stroke="midnightblue" d="M673.368,-221.945C713.305,-218.21 786.16,-208.006 842,-181 873.688,-165.675 905.303,-138.276 920.933,-123.717"/>
<polygon fill="midnightblue" stroke="midnightblue" points="672.914,-218.471 663.252,-222.817 673.515,-225.445 672.914,-218.471"/>
</g>
<!-- Node3 -->
<g id="node3" class="node"><title>Node3</title>
<g id="a_node3"><a xlink:href="../../dd/dc6/classgamedata_1_1gamecomponents_1_1_patch.html" target="_top" xlink:title="gamedata.gamecomponents.\lPatch">
<polygon fill="white" stroke="black" points="563,-165 563,-195 723,-195 723,-165 563,-165"/>
<text text-anchor="start" x="571" y="-183" font-family="Helvetica,sans-Serif" font-size="10.00">gamedata.gamecomponents.</text>
<text text-anchor="middle" x="643" y="-172" font-family="Helvetica,sans-Serif" font-size="10.00">Patch</text>
</a>
</g>
</g>
<!-- Node3&#45;&gt;Node1 -->
<g id="edge2" class="edge"><title>Node3&#45;&gt;Node1</title>
<path fill="none" stroke="#9a32cd" stroke-dasharray="5,2" d="M733.424,-170.962C767.75,-166.323 807.055,-159.572 842,-150 866.595,-143.263 893.582,-131.72 911.316,-123.522"/>
<polygon fill="#9a32cd" stroke="#9a32cd" points="732.874,-167.505 723.414,-172.275 733.784,-174.445 732.874,-167.505"/>
<text text-anchor="middle" x="807" y="-169" font-family="Helvetica,sans-Serif" font-size="10.00"> myPatch</text>
</g>
<!-- Node4 -->
<g id="node4" class="node"><title>Node4</title>
<g id="a_node4"><a xlink:href="../../d9/df2/classgamedata_1_1gamecomponents_1_1_grid_component.html" target="_top" xlink:title="gamedata.gamecomponents.\lGridComponent">
<polygon fill="white" stroke="black" points="266,-176 266,-206 426,-206 426,-176 266,-176"/>
<text text-anchor="start" x="274" y="-194" font-family="Helvetica,sans-Serif" font-size="10.00">gamedata.gamecomponents.</text>
<text text-anchor="middle" x="346" y="-183" font-family="Helvetica,sans-Serif" font-size="10.00">GridComponent</text>
</a>
</g>
</g>
<!-- Node4&#45;&gt;Node3 -->
<g id="edge3" class="edge"><title>Node4&#45;&gt;Node3</title>
<path fill="none" stroke="midnightblue" d="M436.163,-187.675C476.549,-186.169 523.891,-184.404 562.983,-182.946"/>
<polygon fill="midnightblue" stroke="midnightblue" points="435.917,-184.182 426.055,-188.052 436.178,-191.177 435.917,-184.182"/>
</g>
<!-- Node5 -->
<g id="node5" class="node"><title>Node5</title>
<g id="a_node5"><a xlink:href="../../dc/d5b/interfacegamedata_1_1gamecomponents_1_1_i_has_stats.html" target="_top" xlink:title="gamedata.gamecomponents.\lIHasStats">
<polygon fill="white" stroke="black" points="0,-232 0,-262 160,-262 160,-232 0,-232"/>
<text text-anchor="start" x="8" y="-250" font-family="Helvetica,sans-Serif" font-size="10.00">gamedata.gamecomponents.</text>
<text text-anchor="middle" x="80" y="-239" font-family="Helvetica,sans-Serif" font-size="10.00">IHasStats</text>
</a>
</g>
</g>
<!-- Node5&#45;&gt;Node4 -->
<g id="edge4" class="edge"><title>Node5&#45;&gt;Node4</title>
<path fill="none" stroke="midnightblue" d="M170.052,-230.049C195.289,-225.07 222.759,-219.484 248,-214 259.416,-211.52 271.556,-208.748 283.243,-206.012"/>
<polygon fill="midnightblue" stroke="midnightblue" points="169.269,-226.636 160.131,-231.998 170.618,-233.505 169.269,-226.636"/>
</g>
<!-- Node6 -->
<g id="node6" class="node"><title>Node6</title>
<polygon fill="white" stroke="#bfbfbf" points="46,-193.5 46,-212.5 114,-212.5 114,-193.5 46,-193.5"/>
<text text-anchor="middle" x="80" y="-200.5" font-family="Helvetica,sans-Serif" font-size="10.00">ImageView</text>
</g>
<!-- Node6&#45;&gt;Node4 -->
<g id="edge5" class="edge"><title>Node6&#45;&gt;Node4</title>
<path fill="none" stroke="#9a32cd" stroke-dasharray="5,2" d="M124.452,-201.025C162.731,-199.285 219.447,-196.707 265.778,-194.601"/>
<polygon fill="#9a32cd" stroke="#9a32cd" points="123.999,-197.542 114.168,-201.492 124.317,-204.535 123.999,-197.542"/>
<text text-anchor="middle" x="213" y="-202" font-family="Helvetica,sans-Serif" font-size="10.00"> myImageView</text>
</g>
<!-- Node7 -->
<g id="node7" class="node"><title>Node7</title>
<polygon fill="white" stroke="#bfbfbf" points="53,-141.5 53,-160.5 107,-160.5 107,-141.5 53,-141.5"/>
<text text-anchor="middle" x="80" y="-148.5" font-family="Helvetica,sans-Serif" font-size="10.00">Point2D</text>
</g>
<!-- Node7&#45;&gt;Node1 -->
<g id="edge8" class="edge"><title>Node7&#45;&gt;Node1</title>
<path fill="none" stroke="#9a32cd" stroke-dasharray="5,2" d="M117.508,-150.276C227.23,-147.958 563.631,-139.803 842,-122 847.728,-121.634 853.66,-121.206 859.617,-120.743"/>
<polygon fill="#9a32cd" stroke="#9a32cd" points="117.237,-146.781 107.312,-150.489 117.383,-153.78 117.237,-146.781"/>
<text text-anchor="middle" x="479" y="-144" font-family="Helvetica,sans-Serif" font-size="10.00"> DEFAULT_LOC</text>
</g>
<!-- Node7&#45;&gt;Node4 -->
<g id="edge6" class="edge"><title>Node7&#45;&gt;Node4</title>
<path fill="none" stroke="#9a32cd" stroke-dasharray="5,2" d="M117.393,-156.514C155.515,-162.29 216.587,-171.543 265.875,-179.011"/>
<polygon fill="#9a32cd" stroke="#9a32cd" points="117.69,-153.019 107.278,-154.982 116.641,-159.94 117.69,-153.019"/>
<text text-anchor="middle" x="213" y="-179" font-family="Helvetica,sans-Serif" font-size="10.00"> myLoc</text>
</g>
<!-- Node8 -->
<g id="node8" class="node"><title>Node8</title>
<polygon fill="white" stroke="#bfbfbf" points="532.5,-77 532.5,-107 753.5,-107 753.5,-77 532.5,-77"/>
<text text-anchor="start" x="540.5" y="-95" font-family="Helvetica,sans-Serif" font-size="10.00">Consumer&lt; gamedata.gamecomponents.</text>
<text text-anchor="middle" x="643" y="-84" font-family="Helvetica,sans-Serif" font-size="10.00">Patch &gt;</text>
</g>
<!-- Node8&#45;&gt;Node1 -->
<g id="edge7" class="edge"><title>Node8&#45;&gt;Node1</title>
<path fill="none" stroke="#9a32cd" stroke-dasharray="5,2" d="M763.815,-101.184C796.506,-103.69 830.884,-106.326 859.907,-108.55"/>
<polygon fill="#9a32cd" stroke="#9a32cd" points="763.969,-97.6861 753.731,-100.411 763.434,-104.666 763.969,-97.6861"/>
<text text-anchor="middle" x="807" y="-110" font-family="Helvetica,sans-Serif" font-size="10.00"> myOkLambda</text>
</g>
<!-- Node9 -->
<g id="node9" class="node"><title>Node9</title>
<polygon fill="white" stroke="#bfbfbf" points="620.5,-38.5 620.5,-57.5 665.5,-57.5 665.5,-38.5 620.5,-38.5"/>
<text text-anchor="middle" x="643" y="-45.5" font-family="Helvetica,sans-Serif" font-size="10.00">Insets</text>
</g>
<!-- Node9&#45;&gt;Node1 -->
<g id="edge9" class="edge"><title>Node9&#45;&gt;Node1</title>
<path fill="none" stroke="#9a32cd" stroke-dasharray="5,2" d="M675.698,-52.9304C697.729,-56.4901 727.735,-61.6033 754,-67 793.387,-75.0927 803.134,-77.6925 842,-88 861.294,-93.1168 882.778,-99.3768 899.803,-104.472"/>
<polygon fill="#9a32cd" stroke="#9a32cd" points="676.002,-49.4346 665.575,-51.3132 674.898,-56.3469 676.002,-49.4346"/>
<text text-anchor="middle" x="807" y="-91" font-family="Helvetica,sans-Serif" font-size="10.00"> MARGINS</text>
</g>
<!-- Node10 -->
<g id="node10" class="node"><title>Node10</title>
<polygon fill="white" stroke="#bfbfbf" points="601,-0.5 601,-19.5 685,-19.5 685,-0.5 601,-0.5"/>
<text text-anchor="middle" x="643" y="-7.5" font-family="Helvetica,sans-Serif" font-size="10.00">Set&lt; String &gt;</text>
</g>
<!-- Node10&#45;&gt;Node1 -->
<g id="edge10" class="edge"><title>Node10&#45;&gt;Node1</title>
<path fill="none" stroke="#9a32cd" stroke-dasharray="5,2" d="M695.144,-15.8969C736.304,-22.03 794.852,-33.9401 842,-56 871.233,-69.6779 902.089,-91.759 918.688,-104.363"/>
<polygon fill="#9a32cd" stroke="#9a32cd" points="695.467,-12.4075 685.072,-14.4595 694.477,-19.3373 695.467,-12.4075"/>
<text text-anchor="middle" x="807" y="-59" font-family="Helvetica,sans-Serif" font-size="10.00"> myIDSet</text>
</g>
</g>
</svg>
        <g id="navigator" transform="translate(0 0)" fill="#404254">
                <rect fill="#f2f5e9" fill-opacity="0.5" stroke="#606060" stroke-width=".5" x="0" y="0" width="60" height="60"/>
                <use id="zoomplus" xlink:href="#zoomPlus" x="17" y="9" onmousedown="handleZoom(evt,'in')"/>
                <use id="zoomminus" xlink:href="#zoomMin" x="42" y="9" onmousedown="handleZoom(evt,'out')"/>
                <use id="reset" xlink:href="#resetDef" x="30" y="36" onmousedown="handleReset()"/>
                <g id="arrowUp" xlink:href="#dirArrow" transform="translate(30 24)" onmousedown="handlePan(0,-1)">
                  <use xlink:href="#rim" fill="#404040">
                        <set attributeName="fill" to="#808080" begin="arrowUp.mouseover" end="arrowUp.mouseout"/>
                  </use>
                  <path fill="none" stroke="white" stroke-width="1.5" d="M0,-3.0v7 M-2.5,-0.5L0,-3.0L2.5,-0.5"/>
                </g>
                <g id="arrowRight" xlink:href="#dirArrow" transform="rotate(90) translate(36 -43)" onmousedown="handlePan(1,0)">
                  <use xlink:href="#rim" fill="#404040">
                        <set attributeName="fill" to="#808080" begin="arrowRight.mouseover" end="arrowRight.mouseout"/>
                  </use>
                  <path fill="none" stroke="white" stroke-width="1.5" d="M0,-3.0v7 M-2.5,-0.5L0,-3.0L2.5,-0.5"/>
                </g>
                <g id="arrowDown" xlink:href="#dirArrow" transform="rotate(180) translate(-30 -48)" onmousedown="handlePan(0,1)">
                  <use xlink:href="#rim" fill="#404040">
                        <set attributeName="fill" to="#808080" begin="arrowDown.mouseover" end="arrowDown.mouseout"/>
                  </use>
                  <path fill="none" stroke="white" stroke-width="1.5" d="M0,-3.0v7 M-2.5,-0.5L0,-3.0L2.5,-0.5"/>
                </g>
                <g id="arrowLeft" xlink:href="#dirArrow" transform="rotate(270) translate(-36 17)" onmousedown="handlePan(-1,0)">
                  <use xlink:href="#rim" fill="#404040">
                        <set attributeName="fill" to="#808080" begin="arrowLeft.mouseover" end="arrowLeft.mouseout"/>
                  </use>
                  <path fill="none" stroke="white" stroke-width="1.5" d="M0,-3.0v7 M-2.5,-0.5L0,-3.0L2.5,-0.5"/>
                </g>
        </g>
        <svg viewBox="0 0 15 15" width="100%" height="30px" preserveAspectRatio="xMaxYMin meet">
         <g id="arrow_out" transform="scale(0.3 0.3)">
          <a xlink:href="classfxml__main_1_1_patch_type_editor__coll__graph_org.svg" target="_base">
           <rect id="button" ry="5" rx="5" y="6" x="6" height="38" width="38"
                fill="#f2f5e9" fill-opacity="0.5" stroke="#606060" stroke-width="1.0"/>
           <path id="arrow"
             d="M 11.500037,31.436501 C 11.940474,20.09759 22.043105,11.32322 32.158766,21.979434 L 37.068811,17.246167 C 37.068811,17.246167 37.088388,32 37.088388,32 L 22.160133,31.978069 C 22.160133,31.978069 26.997745,27.140456 26.997745,27.140456 C 18.528582,18.264221 13.291696,25.230495 11.500037,31.436501 z"
             style="fill:#404040;"/>
          </a>
         </g>
        </svg>
</svg>
