<?xml version="1.0" encoding="UTF-8" standalone="no"?>
<!DOCTYPE svg PUBLIC "-//W3C//DTD SVG 1.1//EN"
 "http://www.w3.org/Graphics/SVG/1.1/DTD/svg11.dtd">
<!-- Generated by graphviz version 2.36.0 (20140111.2315)
 -->
<!-- Title: authoring.eventeditor.ConditionEditorPane Pages: 1 -->
<!--zoomable 340 -->
<svg id="main" version="1.1" xmlns="http://www.w3.org/2000/svg" xmlns:xlink="http://www.w3.org/1999/xlink" xml:space="preserve" onload="init(evt)">
<style type="text/css"><![CDATA[
.edge:hover path { stroke: red; }
.edge:hover polygon { stroke: red; fill: red; }
]]></style>
<script type="text/javascript"><![CDATA[
var edges = document.getElementsByTagName('g');
if (edges && edges.length) {
  for (var i=0;i<edges.length;i++) {
    if (edges[i].id.substr(0,4)=='edge') {
      edges[i].setAttribute('class','edge');
    }
  }
}
]]></script>
        <defs>
                <circle id="rim" cx="0" cy="0" r="7"/>
                <circle id="rim2" cx="0" cy="0" r="3.5"/>
                <g id="zoomPlus">
                        <use xlink:href="#rim" fill="#404040">
                                <set attributeName="fill" to="#808080" begin="zoomplus.mouseover" end="zoomplus.mouseout"/>
                        </use>
                        <path d="M-4,0h8M0,-4v8" fill="none" stroke="white" stroke-width="1.5" pointer-events="none"/>
                </g>
                <g id="zoomMin">
                        <use xlink:href="#rim" fill="#404040">
                                <set attributeName="fill" to="#808080" begin="zoomminus.mouseover" end="zoomminus.mouseout"/>
                        </use>
                        <path d="M-4,0h8" fill="none" stroke="white" stroke-width="1.5" pointer-events="none"/>
                </g>
                <g id="dirArrow">
                        <path fill="none" stroke="white" stroke-width="1.5" d="M0,-3.0v7 M-2.5,-0.5L0,-3.0L2.5,-0.5"/>
                </g>
               <g id="resetDef">
                       <use xlink:href="#rim2" fill="#404040">
                               <set attributeName="fill" to="#808080" begin="reset.mouseover" end="reset.mouseout"/>
                       </use>
               </g>
        </defs>

<script type="text/javascript">
var viewWidth = 814;
var viewHeight = 340;
var sectionId = 'dynsection-1';
</script>
<script xlink:href="../../svgpan.js"/>
<svg id="graph" class="graph">
<g id="viewport">
<title>authoring.eventeditor.ConditionEditorPane</title>
<polygon fill="white" stroke="none" points="-4,4 -4,-336 810,-336 810,4 -4,4"/>
<!-- Node1 -->
<g id="node1" class="node"><title>Node1</title>
<polygon fill="#bfbfbf" stroke="black" points="638.5,-161 638.5,-191 805.5,-191 805.5,-161 638.5,-161"/>
<text text-anchor="start" x="646.5" y="-179" font-family="Helvetica,sans-Serif" font-size="10.00">authoring.eventeditor.Condition</text>
<text text-anchor="middle" x="722" y="-168" font-family="Helvetica,sans-Serif" font-size="10.00">EditorPane</text>
</g>
<!-- Node2 -->
<g id="node2" class="node"><title>Node2</title>
<polygon fill="white" stroke="#bfbfbf" points="387,-312.5 387,-331.5 427,-331.5 427,-312.5 387,-312.5"/>
<text text-anchor="middle" x="407" y="-319.5" font-family="Helvetica,sans-Serif" font-size="10.00">Pane</text>
</g>
<!-- Node2&#45;&gt;Node1 -->
<g id="edge1" class="edge"><title>Node2&#45;&gt;Node1</title>
<path fill="none" stroke="midnightblue" d="M437.19,-322.854C479.936,-322.872 560.893,-318.146 620,-286 662.363,-262.96 696.484,-215.332 711.977,-191.008"/>
<polygon fill="midnightblue" stroke="midnightblue" points="437.214,-319.354 427.182,-322.761 437.149,-326.354 437.214,-319.354"/>
</g>
<!-- Node3 -->
<g id="node3" class="node"><title>Node3</title>
<polygon fill="white" stroke="#bfbfbf" points="348,-274.5 348,-293.5 466,-293.5 466,-274.5 348,-274.5"/>
<text text-anchor="middle" x="407" y="-281.5" font-family="Helvetica,sans-Serif" font-size="10.00">ChoiceBox&lt; String &gt;</text>
</g>
<!-- Node3&#45;&gt;Node1 -->
<g id="edge2" class="edge"><title>Node3&#45;&gt;Node1</title>
<path fill="none" stroke="#9a32cd" stroke-dasharray="5,2" d="M476.372,-274.473C518.875,-267.038 573.993,-254.606 620,-235 648.583,-222.819 679.077,-204.124 698.988,-191.052"/>
<polygon fill="#9a32cd" stroke="#9a32cd" points="475.678,-271.041 466.405,-276.166 476.85,-277.942 475.678,-271.041"/>
<text text-anchor="middle" x="578" y="-274" font-family="Helvetica,sans-Serif" font-size="10.00"> myStat</text>
<text text-anchor="middle" x="578" y="-263" font-family="Helvetica,sans-Serif" font-size="10.00">myRefType</text>
</g>
<!-- Node4 -->
<g id="node4" class="node"><title>Node4</title>
<g id="a_node4"><a xlink:href="../../dd/d41/classgamedata_1_1events_1_1conditions_1_1_condition.html" target="_top" xlink:title="gamedata.events.conditions.\lCondition">
<polygon fill="white" stroke="black" points="329,-225 329,-255 485,-255 485,-225 329,-225"/>
<text text-anchor="start" x="337" y="-243" font-family="Helvetica,sans-Serif" font-size="10.00">gamedata.events.conditions.</text>
<text text-anchor="middle" x="407" y="-232" font-family="Helvetica,sans-Serif" font-size="10.00">Condition</text>
</a>
</g>
</g>
<!-- Node4&#45;&gt;Node1 -->
<g id="edge3" class="edge"><title>Node4&#45;&gt;Node1</title>
<path fill="none" stroke="#9a32cd" stroke-dasharray="5,2" d="M495.464,-226.521C533.831,-220.149 579.306,-211.972 620,-203 635.775,-199.522 652.789,-195.199 668.273,-191.039"/>
<polygon fill="#9a32cd" stroke="#9a32cd" points="494.656,-223.107 485.357,-228.186 495.793,-230.014 494.656,-223.107"/>
<text text-anchor="middle" x="578" y="-223" font-family="Helvetica,sans-Serif" font-size="10.00"> myCondition</text>
</g>
<!-- Node5 -->
<g id="node5" class="node"><title>Node5</title>
<polygon fill="white" stroke="#bfbfbf" points="379,-186.5 379,-205.5 435,-205.5 435,-186.5 379,-186.5"/>
<text text-anchor="middle" x="407" y="-193.5" font-family="Helvetica,sans-Serif" font-size="10.00">TextField</text>
</g>
<!-- Node5&#45;&gt;Node1 -->
<g id="edge4" class="edge"><title>Node5&#45;&gt;Node1</title>
<path fill="none" stroke="#9a32cd" stroke-dasharray="5,2" d="M445.332,-193.615C492.663,-190.59 575.628,-185.289 638.211,-181.29"/>
<polygon fill="#9a32cd" stroke="#9a32cd" points="444.986,-190.129 435.229,-194.26 445.432,-197.115 444.986,-190.129"/>
<text text-anchor="middle" x="578" y="-191" font-family="Helvetica,sans-Serif" font-size="10.00"> myVal</text>
</g>
<!-- Node6 -->
<g id="node6" class="node"><title>Node6</title>
<g id="a_node6"><a xlink:href="../../d5/d55/classauthoring_1_1data_1_1_events_data_wrapper.html" target="_top" xlink:title="authoring.data.EventsData\lWrapper">
<polygon fill="white" stroke="black" points="334,-137 334,-167 480,-167 480,-137 334,-137"/>
<text text-anchor="start" x="342" y="-155" font-family="Helvetica,sans-Serif" font-size="10.00">authoring.data.EventsData</text>
<text text-anchor="middle" x="407" y="-144" font-family="Helvetica,sans-Serif" font-size="10.00">Wrapper</text>
</a>
</g>
</g>
<!-- Node6&#45;&gt;Node1 -->
<g id="edge5" class="edge"><title>Node6&#45;&gt;Node1</title>
<path fill="none" stroke="#9a32cd" stroke-dasharray="5,2" d="M490.187,-158.131C529.478,-161.081 577.175,-164.688 620,-168 625.963,-168.461 632.123,-168.941 638.323,-169.426"/>
<polygon fill="#9a32cd" stroke="#9a32cd" points="490.36,-154.635 480.126,-157.377 489.836,-161.615 490.36,-154.635"/>
<text text-anchor="middle" x="578" y="-171" font-family="Helvetica,sans-Serif" font-size="10.00"> myData</text>
</g>
<!-- Node7 -->
<g id="node7" class="node"><title>Node7</title>
<polygon fill="white" stroke="#bfbfbf" points="0,-186 0,-216 188,-216 188,-186 0,-186"/>
<text text-anchor="start" x="8" y="-204" font-family="Helvetica,sans-Serif" font-size="10.00">List&lt; gamedata.gamecomponents.</text>
<text text-anchor="middle" x="94" y="-193" font-family="Helvetica,sans-Serif" font-size="10.00">Piece &gt;</text>
</g>
<!-- Node7&#45;&gt;Node6 -->
<g id="edge6" class="edge"><title>Node7&#45;&gt;Node6</title>
<path fill="none" stroke="#9a32cd" stroke-dasharray="5,2" d="M198.247,-184.733C242.561,-177.751 293.282,-169.759 333.514,-163.421"/>
<polygon fill="#9a32cd" stroke="#9a32cd" points="197.644,-181.285 188.31,-186.298 198.733,-188.199 197.644,-181.285"/>
<text text-anchor="middle" x="242" y="-186" font-family="Helvetica,sans-Serif" font-size="10.00"> myPieceTypes</text>
</g>
<!-- Node8 -->
<g id="node8" class="node"><title>Node8</title>
<polygon fill="white" stroke="#bfbfbf" points="0,-137 0,-167 188,-167 188,-137 0,-137"/>
<text text-anchor="start" x="8" y="-155" font-family="Helvetica,sans-Serif" font-size="10.00">List&lt; gamedata.gamecomponents.</text>
<text text-anchor="middle" x="94" y="-144" font-family="Helvetica,sans-Serif" font-size="10.00">Patch &gt;</text>
</g>
<!-- Node8&#45;&gt;Node6 -->
<g id="edge7" class="edge"><title>Node8&#45;&gt;Node6</title>
<path fill="none" stroke="#9a32cd" stroke-dasharray="5,2" d="M198.527,-152C242.774,-152 293.366,-152 333.514,-152"/>
<polygon fill="#9a32cd" stroke="#9a32cd" points="198.31,-148.5 188.31,-152 198.31,-155.5 198.31,-148.5"/>
<text text-anchor="middle" x="242" y="-155" font-family="Helvetica,sans-Serif" font-size="10.00"> myPatchTypes</text>
</g>
<!-- Node9 -->
<g id="node9" class="node"><title>Node9</title>
<polygon fill="white" stroke="#bfbfbf" points="24.5,-88 24.5,-118 163.5,-118 163.5,-88 24.5,-88"/>
<text text-anchor="start" x="32.5" y="-106" font-family="Helvetica,sans-Serif" font-size="10.00">List&lt; gameengine.player.</text>
<text text-anchor="middle" x="94" y="-95" font-family="Helvetica,sans-Serif" font-size="10.00">Player &gt;</text>
</g>
<!-- Node9&#45;&gt;Node6 -->
<g id="edge8" class="edge"><title>Node9&#45;&gt;Node6</title>
<path fill="none" stroke="#9a32cd" stroke-dasharray="5,2" d="M173.603,-115.384C222.825,-123.14 285.785,-133.059 333.754,-140.617"/>
<polygon fill="#9a32cd" stroke="#9a32cd" points="174.058,-111.913 163.635,-113.814 172.969,-118.828 174.058,-111.913"/>
<text text-anchor="middle" x="242" y="-134" font-family="Helvetica,sans-Serif" font-size="10.00"> myPlayers</text>
</g>
<!-- Node10 -->
<g id="node10" class="node"><title>Node10</title>
<polygon fill="white" stroke="#bfbfbf" points="384.5,-98.5 384.5,-117.5 429.5,-117.5 429.5,-98.5 384.5,-98.5"/>
<text text-anchor="middle" x="407" y="-105.5" font-family="Helvetica,sans-Serif" font-size="10.00">Insets</text>
</g>
<!-- Node10&#45;&gt;Node1 -->
<g id="edge9" class="edge"><title>Node10&#45;&gt;Node1</title>
<path fill="none" stroke="#9a32cd" stroke-dasharray="5,2" d="M439.602,-112.706C481.227,-119.158 556.58,-131.707 620,-147 637.026,-151.105 655.485,-156.21 671.909,-160.987"/>
<polygon fill="#9a32cd" stroke="#9a32cd" points="439.943,-109.218 429.528,-111.162 438.882,-116.137 439.943,-109.218"/>
<text text-anchor="middle" x="578" y="-150" font-family="Helvetica,sans-Serif" font-size="10.00"> MARGINS</text>
</g>
<!-- Node11 -->
<g id="node11" class="node"><title>Node11</title>
<polygon fill="white" stroke="#bfbfbf" points="298.5,-49 298.5,-79 515.5,-79 515.5,-49 298.5,-49"/>
<text text-anchor="start" x="306.5" y="-67" font-family="Helvetica,sans-Serif" font-size="10.00">Consumer&lt; gamedata.events.conditions.</text>
<text text-anchor="middle" x="407" y="-56" font-family="Helvetica,sans-Serif" font-size="10.00">Condition &gt;</text>
</g>
<!-- Node11&#45;&gt;Node1 -->
<g id="edge10" class="edge"><title>Node11&#45;&gt;Node1</title>
<path fill="none" stroke="#9a32cd" stroke-dasharray="5,2" d="M508.25,-81.2104C544.29,-89.1822 584.73,-100.235 620,-115 649.477,-127.34 680.534,-147.292 700.3,-160.997"/>
<polygon fill="#9a32cd" stroke="#9a32cd" points="508.723,-77.732 498.209,-79.0432 507.246,-84.5744 508.723,-77.732"/>
<text text-anchor="middle" x="578" y="-118" font-family="Helvetica,sans-Serif" font-size="10.00"> myDoneLambda</text>
</g>
<!-- Node12 -->
<g id="node12" class="node"><title>Node12</title>
<polygon fill="white" stroke="#bfbfbf" points="296.5,-0 296.5,-30 517.5,-30 517.5,-0 296.5,-0"/>
<text text-anchor="start" x="304.5" y="-18" font-family="Helvetica,sans-Serif" font-size="10.00">ChoiceBox&lt; gamedata.gamecomponents.</text>
<text text-anchor="middle" x="407" y="-7" font-family="Helvetica,sans-Serif" font-size="10.00">IHasStats &gt;</text>
</g>
<!-- Node12&#45;&gt;Node1 -->
<g id="edge11" class="edge"><title>Node12&#45;&gt;Node1</title>
<path fill="none" stroke="#9a32cd" stroke-dasharray="5,2" d="M516.294,-32.4292C551.195,-41.2776 588.868,-54.4629 620,-74 657.995,-97.8443 692.493,-138.585 709.627,-160.673"/>
<polygon fill="#9a32cd" stroke="#9a32cd" points="517.076,-29.0174 506.531,-30.0468 515.416,-35.8178 517.076,-29.0174"/>
<text text-anchor="middle" x="578" y="-77" font-family="Helvetica,sans-Serif" font-size="10.00"> myRefName</text>
</g>
</g>
</svg>
        <g id="navigator" transform="translate(0 0)" fill="#404254">
                <rect fill="#f2f5e9" fill-opacity="0.5" stroke="#606060" stroke-width=".5" x="0" y="0" width="60" height="60"/>
                <use id="zoomplus" xlink:href="#zoomPlus" x="17" y="9" onmousedown="handleZoom(evt,'in')"/>
                <use id="zoomminus" xlink:href="#zoomMin" x="42" y="9" onmousedown="handleZoom(evt,'out')"/>
                <use id="reset" xlink:href="#resetDef" x="30" y="36" onmousedown="handleReset()"/>
                <g id="arrowUp" xlink:href="#dirArrow" transform="translate(30 24)" onmousedown="handlePan(0,-1)">
                  <use xlink:href="#rim" fill="#404040">
                        <set attributeName="fill" to="#808080" begin="arrowUp.mouseover" end="arrowUp.mouseout"/>
                  </use>
                  <path fill="none" stroke="white" stroke-width="1.5" d="M0,-3.0v7 M-2.5,-0.5L0,-3.0L2.5,-0.5"/>
                </g>
                <g id="arrowRight" xlink:href="#dirArrow" transform="rotate(90) translate(36 -43)" onmousedown="handlePan(1,0)">
                  <use xlink:href="#rim" fill="#404040">
                        <set attributeName="fill" to="#808080" begin="arrowRight.mouseover" end="arrowRight.mouseout"/>
                  </use>
                  <path fill="none" stroke="white" stroke-width="1.5" d="M0,-3.0v7 M-2.5,-0.5L0,-3.0L2.5,-0.5"/>
                </g>
                <g id="arrowDown" xlink:href="#dirArrow" transform="rotate(180) translate(-30 -48)" onmousedown="handlePan(0,1)">
                  <use xlink:href="#rim" fill="#404040">
                        <set attributeName="fill" to="#808080" begin="arrowDown.mouseover" end="arrowDown.mouseout"/>
                  </use>
                  <path fill="none" stroke="white" stroke-width="1.5" d="M0,-3.0v7 M-2.5,-0.5L0,-3.0L2.5,-0.5"/>
                </g>
                <g id="arrowLeft" xlink:href="#dirArrow" transform="rotate(270) translate(-36 17)" onmousedown="handlePan(-1,0)">
                  <use xlink:href="#rim" fill="#404040">
                        <set attributeName="fill" to="#808080" begin="arrowLeft.mouseover" end="arrowLeft.mouseout"/>
                  </use>
                  <path fill="none" stroke="white" stroke-width="1.5" d="M0,-3.0v7 M-2.5,-0.5L0,-3.0L2.5,-0.5"/>
                </g>
        </g>
        <svg viewBox="0 0 15 15" width="100%" height="30px" preserveAspectRatio="xMaxYMin meet">
         <g id="arrow_out" transform="scale(0.3 0.3)">
          <a xlink:href="classauthoring_1_1eventeditor_1_1_condition_editor_pane__coll__graph_org.svg" target="_base">
           <rect id="button" ry="5" rx="5" y="6" x="6" height="38" width="38"
                fill="#f2f5e9" fill-opacity="0.5" stroke="#606060" stroke-width="1.0"/>
           <path id="arrow"
             d="M 11.500037,31.436501 C 11.940474,20.09759 22.043105,11.32322 32.158766,21.979434 L 37.068811,17.246167 C 37.068811,17.246167 37.088388,32 37.088388,32 L 22.160133,31.978069 C 22.160133,31.978069 26.997745,27.140456 26.997745,27.140456 C 18.528582,18.264221 13.291696,25.230495 11.500037,31.436501 z"
             style="fill:#404040;"/>
          </a>
         </g>
        </svg>
</svg>
