<?xml version="1.0" encoding="UTF-8" standalone="no"?>
<!DOCTYPE svg PUBLIC "-//W3C//DTD SVG 1.1//EN"
 "http://www.w3.org/Graphics/SVG/1.1/DTD/svg11.dtd">
<!-- Generated by graphviz version 2.36.0 (20140111.2315)
 -->
<!-- Title: authoring.concretefeatures.LevelEditor.addWorkspaceTab Pages: 1 -->
<svg width="382pt" height="87pt"
 viewBox="0.00 0.00 382.00 87.00" xmlns="http://www.w3.org/2000/svg" xmlns:xlink="http://www.w3.org/1999/xlink">
<g id="graph0" class="graph" transform="scale(1 1) rotate(0) translate(4 83)">
<title>authoring.concretefeatures.LevelEditor.addWorkspaceTab</title>
<polygon fill="white" stroke="none" points="-4,4 -4,-83 378,-83 378,4 -4,4"/>
<!-- Node1 -->
<g id="node1" class="node"><title>Node1</title>
<polygon fill="#bfbfbf" stroke="black" points="0,-24 0,-54 156,-54 156,-24 0,-24"/>
<text text-anchor="start" x="8" y="-42" font-family="Helvetica,sans-Serif" font-size="10.00">authoring.concretefeatures.</text>
<text text-anchor="middle" x="78" y="-31" font-family="Helvetica,sans-Serif" font-size="10.00">LevelEditor.addWorkspaceTab</text>
</g>
<!-- Node2 -->
<g id="node2" class="node"><title>Node2</title>
<g id="a_node2"><a xlink:href="../../de/dfa/classauthoring__environment_1_1_workspace_view.html#a0d9d174fa267921bc4292a08a0279cc1" target="_top" xlink:title="authoring_environment.Workspace\lView.addGrid">
<polygon fill="white" stroke="black" points="192,-49 192,-79 374,-79 374,-49 192,-49"/>
<text text-anchor="start" x="200" y="-67" font-family="Helvetica,sans-Serif" font-size="10.00">authoring_environment.Workspace</text>
<text text-anchor="middle" x="283" y="-56" font-family="Helvetica,sans-Serif" font-size="10.00">View.addGrid</text>
</a>
</g>
</g>
<!-- Node1&#45;&gt;Node2 -->
<g id="edge1" class="edge"><title>Node1&#45;&gt;Node2</title>
<path fill="none" stroke="midnightblue" d="M156.035,-48.4871C164.419,-49.5196 173.04,-50.5813 181.65,-51.6416"/>
<polygon fill="midnightblue" stroke="midnightblue" points="181.385,-55.1353 191.737,-52.8839 182.24,-48.1878 181.385,-55.1353"/>
</g>
<!-- Node3 -->
<g id="node3" class="node"><title>Node3</title>
<g id="a_node3"><a xlink:href="../../de/dfa/classauthoring__environment_1_1_workspace_view.html#af1d2392e61228891692a19f85af95e64" target="_top" xlink:title="authoring_environment.Workspace\lView.addNextTab">
<polygon fill="white" stroke="black" points="192,-0 192,-30 374,-30 374,-0 192,-0"/>
<text text-anchor="start" x="200" y="-18" font-family="Helvetica,sans-Serif" font-size="10.00">authoring_environment.Workspace</text>
<text text-anchor="middle" x="283" y="-7" font-family="Helvetica,sans-Serif" font-size="10.00">View.addNextTab</text>
</a>
</g>
</g>
<!-- Node1&#45;&gt;Node3 -->
<g id="edge2" class="edge"><title>Node1&#45;&gt;Node3</title>
<path fill="none" stroke="midnightblue" d="M156.035,-29.8924C164.419,-28.9012 173.04,-27.882 181.65,-26.864"/>
<polygon fill="midnightblue" stroke="midnightblue" points="182.218,-30.3214 191.737,-25.6714 181.396,-23.3698 182.218,-30.3214"/>
</g>
</g>
</svg>
