<?xml version="1.0" encoding="UTF-8" standalone="no"?>
<!DOCTYPE svg PUBLIC "-//W3C//DTD SVG 1.1//EN"
 "http://www.w3.org/Graphics/SVG/1.1/DTD/svg11.dtd">
<!-- Generated by graphviz version 2.36.0 (20140111.2315)
 -->
<!-- Title: authoring.concretefeatures.LevelEditor.LevelEditor Pages: 1 -->
<svg width="568pt" height="111pt"
 viewBox="0.00 0.00 568.00 111.00" xmlns="http://www.w3.org/2000/svg" xmlns:xlink="http://www.w3.org/1999/xlink">
<g id="graph0" class="graph" transform="scale(1 1) rotate(0) translate(4 107)">
<title>authoring.concretefeatures.LevelEditor.LevelEditor</title>
<polygon fill="white" stroke="none" points="-4,4 -4,-107 564,-107 564,4 -4,4"/>
<!-- Node1 -->
<g id="node1" class="node"><title>Node1</title>
<polygon fill="#bfbfbf" stroke="black" points="0,-24 0,-54 150,-54 150,-24 0,-24"/>
<text text-anchor="start" x="8" y="-42" font-family="Helvetica,sans-Serif" font-size="10.00">authoring.concretefeatures.</text>
<text text-anchor="middle" x="75" y="-31" font-family="Helvetica,sans-Serif" font-size="10.00">LevelEditor.LevelEditor</text>
</g>
<!-- Node2 -->
<g id="node2" class="node"><title>Node2</title>
<g id="a_node2"><a xlink:href="../../d8/d2b/classauthoring_1_1concretefeatures_1_1_level_editor.html#a63c45b21309f195d70d6120120569b35" target="_top" xlink:title="authoring.concretefeatures.\lLevelEditor.addWorkspaceTab">
<polygon fill="white" stroke="black" points="186,-49 186,-79 342,-79 342,-49 186,-49"/>
<text text-anchor="start" x="194" y="-67" font-family="Helvetica,sans-Serif" font-size="10.00">authoring.concretefeatures.</text>
<text text-anchor="middle" x="264" y="-56" font-family="Helvetica,sans-Serif" font-size="10.00">LevelEditor.addWorkspaceTab</text>
</a>
</g>
</g>
<!-- Node1&#45;&gt;Node2 -->
<g id="edge1" class="edge"><title>Node1&#45;&gt;Node2</title>
<path fill="none" stroke="midnightblue" d="M150.176,-48.9166C158.604,-50.0434 167.252,-51.1995 175.828,-52.346"/>
<polygon fill="midnightblue" stroke="midnightblue" points="175.47,-55.8292 185.846,-53.6853 176.398,-48.891 175.47,-55.8292"/>
</g>
<!-- Node5 -->
<g id="node5" class="node"><title>Node5</title>
<g id="a_node5"><a xlink:href="../../d8/d2b/classauthoring_1_1concretefeatures_1_1_level_editor.html#ac8c37924423422a5e887534cac92d8bc" target="_top" xlink:title="authoring.concretefeatures.\lLevelEditor.getPrefTileSize">
<polygon fill="white" stroke="black" points="189,-0 189,-30 339,-30 339,-0 189,-0"/>
<text text-anchor="start" x="197" y="-18" font-family="Helvetica,sans-Serif" font-size="10.00">authoring.concretefeatures.</text>
<text text-anchor="middle" x="264" y="-7" font-family="Helvetica,sans-Serif" font-size="10.00">LevelEditor.getPrefTileSize</text>
</a>
</g>
</g>
<!-- Node1&#45;&gt;Node5 -->
<g id="edge4" class="edge"><title>Node1&#45;&gt;Node5</title>
<path fill="none" stroke="midnightblue" d="M150.176,-29.4801C159.636,-28.2659 169.372,-27.0164 178.974,-25.7841"/>
<polygon fill="midnightblue" stroke="midnightblue" points="179.441,-29.253 188.914,-24.5084 178.55,-22.3099 179.441,-29.253"/>
</g>
<!-- Node3 -->
<g id="node3" class="node"><title>Node3</title>
<g id="a_node3"><a xlink:href="../../de/dfa/classauthoring__environment_1_1_workspace_view.html#a0d9d174fa267921bc4292a08a0279cc1" target="_top" xlink:title="authoring_environment.Workspace\lView.addGrid">
<polygon fill="white" stroke="black" points="378,-73 378,-103 560,-103 560,-73 378,-73"/>
<text text-anchor="start" x="386" y="-91" font-family="Helvetica,sans-Serif" font-size="10.00">authoring_environment.Workspace</text>
<text text-anchor="middle" x="469" y="-80" font-family="Helvetica,sans-Serif" font-size="10.00">View.addGrid</text>
</a>
</g>
</g>
<!-- Node2&#45;&gt;Node3 -->
<g id="edge2" class="edge"><title>Node2&#45;&gt;Node3</title>
<path fill="none" stroke="midnightblue" d="M342.035,-73.1076C350.419,-74.0988 359.04,-75.118 367.65,-76.136"/>
<polygon fill="midnightblue" stroke="midnightblue" points="367.396,-79.6302 377.737,-77.3286 368.218,-72.6786 367.396,-79.6302"/>
</g>
<!-- Node4 -->
<g id="node4" class="node"><title>Node4</title>
<g id="a_node4"><a xlink:href="../../de/dfa/classauthoring__environment_1_1_workspace_view.html#af1d2392e61228891692a19f85af95e64" target="_top" xlink:title="authoring_environment.Workspace\lView.addNextTab">
<polygon fill="white" stroke="black" points="378,-24 378,-54 560,-54 560,-24 378,-24"/>
<text text-anchor="start" x="386" y="-42" font-family="Helvetica,sans-Serif" font-size="10.00">authoring_environment.Workspace</text>
<text text-anchor="middle" x="469" y="-31" font-family="Helvetica,sans-Serif" font-size="10.00">View.addNextTab</text>
</a>
</g>
</g>
<!-- Node2&#45;&gt;Node4 -->
<g id="edge3" class="edge"><title>Node2&#45;&gt;Node4</title>
<path fill="none" stroke="midnightblue" d="M342.035,-54.5129C350.419,-53.4804 359.04,-52.4187 367.65,-51.3584"/>
<polygon fill="midnightblue" stroke="midnightblue" points="368.24,-54.8122 377.737,-50.1161 367.385,-47.8647 368.24,-54.8122"/>
</g>
</g>
</svg>
