<?xml version="1.0" encoding="UTF-8" standalone="no"?>
<!DOCTYPE svg PUBLIC "-//W3C//DTD SVG 1.1//EN"
 "http://www.w3.org/Graphics/SVG/1.1/DTD/svg11.dtd">
<!-- Generated by graphviz version 2.36.0 (20140111.2315)
 -->
<!-- Title: fxml_main.LevelEditor.initialize Pages: 1 -->
<svg width="540pt" height="87pt"
 viewBox="0.00 0.00 540.00 87.00" xmlns="http://www.w3.org/2000/svg" xmlns:xlink="http://www.w3.org/1999/xlink">
<g id="graph0" class="graph" transform="scale(1 1) rotate(0) translate(4 83)">
<title>fxml_main.LevelEditor.initialize</title>
<polygon fill="white" stroke="none" points="-4,4 -4,-83 536,-83 536,4 -4,4"/>
<!-- Node1 -->
<g id="node1" class="node"><title>Node1</title>
<polygon fill="#bfbfbf" stroke="black" points="0,-29.5 0,-48.5 162,-48.5 162,-29.5 0,-29.5"/>
<text text-anchor="middle" x="81" y="-36.5" font-family="Helvetica,sans-Serif" font-size="10.00">fxml_main.LevelEditor.initialize</text>
</g>
<!-- Node2 -->
<g id="node2" class="node"><title>Node2</title>
<g id="a_node2"><a xlink:href="../../de/d8c/classfxml__main_1_1_level_editor.html#a1e403c7da8c864c5c4383bb100e94b1c" target="_top" xlink:title="fxml_main.LevelEditor.show\lEventsEditorWindow">
<polygon fill="white" stroke="black" points="198,-24 198,-54 346,-54 346,-24 198,-24"/>
<text text-anchor="start" x="206" y="-42" font-family="Helvetica,sans-Serif" font-size="10.00">fxml_main.LevelEditor.show</text>
<text text-anchor="middle" x="272" y="-31" font-family="Helvetica,sans-Serif" font-size="10.00">EventsEditorWindow</text>
</a>
</g>
</g>
<!-- Node1&#45;&gt;Node2 -->
<g id="edge1" class="edge"><title>Node1&#45;&gt;Node2</title>
<path fill="none" stroke="midnightblue" d="M162.153,-39C170.593,-39 179.19,-39 187.665,-39"/>
<polygon fill="midnightblue" stroke="midnightblue" points="187.923,-42.5001 197.923,-39 187.923,-35.5001 187.923,-42.5001"/>
</g>
<!-- Node3 -->
<g id="node3" class="node"><title>Node3</title>
<g id="a_node3"><a xlink:href="../../d8/d60/classauthoring_1_1eventeditor_1_1_event_editor_controller.html#a6efd80f39b600b582ef955b401fbc545" target="_top" xlink:title="authoring.eventeditor.Event\lEditorController.loadEvents">
<polygon fill="white" stroke="black" points="382.5,-49 382.5,-79 531.5,-79 531.5,-49 382.5,-49"/>
<text text-anchor="start" x="390.5" y="-67" font-family="Helvetica,sans-Serif" font-size="10.00">authoring.eventeditor.Event</text>
<text text-anchor="middle" x="457" y="-56" font-family="Helvetica,sans-Serif" font-size="10.00">EditorController.loadEvents</text>
</a>
</g>
</g>
<!-- Node2&#45;&gt;Node3 -->
<g id="edge2" class="edge"><title>Node2&#45;&gt;Node3</title>
<path fill="none" stroke="midnightblue" d="M346.115,-48.9884C354.702,-50.1615 363.514,-51.3653 372.232,-52.5563"/>
<polygon fill="midnightblue" stroke="midnightblue" points="372.021,-56.06 382.403,-53.9458 372.969,-49.1244 372.021,-56.06"/>
</g>
<!-- Node4 -->
<g id="node4" class="node"><title>Node4</title>
<g id="a_node4"><a xlink:href="../../d8/d60/classauthoring_1_1eventeditor_1_1_event_editor_controller.html#a3d4defec7b726d9adfd19b54c1acf3cb" target="_top" xlink:title="authoring.eventeditor.Event\lEditorController.loadData">
<polygon fill="white" stroke="black" points="382.5,-0 382.5,-30 531.5,-30 531.5,-0 382.5,-0"/>
<text text-anchor="start" x="390.5" y="-18" font-family="Helvetica,sans-Serif" font-size="10.00">authoring.eventeditor.Event</text>
<text text-anchor="middle" x="457" y="-7" font-family="Helvetica,sans-Serif" font-size="10.00">EditorController.loadData</text>
</a>
</g>
</g>
<!-- Node2&#45;&gt;Node4 -->
<g id="edge3" class="edge"><title>Node2&#45;&gt;Node4</title>
<path fill="none" stroke="midnightblue" d="M346.115,-29.4111C354.702,-28.285 363.514,-27.1293 372.232,-25.986"/>
<polygon fill="midnightblue" stroke="midnightblue" points="372.943,-29.4227 382.403,-24.652 372.033,-22.4822 372.943,-29.4227"/>
</g>
</g>
</svg>
