<?xml version="1.0" encoding="UTF-8" standalone="no"?>
<!DOCTYPE svg PUBLIC "-//W3C//DTD SVG 1.1//EN"
 "http://www.w3.org/Graphics/SVG/1.1/DTD/svg11.dtd">
<!-- Generated by graphviz version 2.36.0 (20140111.2315)
 -->
<!-- Title: fxml_main.LevelEditor.initEditor Pages: 1 -->
<svg width="714pt" height="87pt"
 viewBox="0.00 0.00 714.00 87.00" xmlns="http://www.w3.org/2000/svg" xmlns:xlink="http://www.w3.org/1999/xlink">
<g id="graph0" class="graph" transform="scale(1 1) rotate(0) translate(4 83)">
<title>fxml_main.LevelEditor.initEditor</title>
<polygon fill="white" stroke="none" points="-4,4 -4,-83 710,-83 710,4 -4,4"/>
<!-- Node1 -->
<g id="node1" class="node"><title>Node1</title>
<polygon fill="#bfbfbf" stroke="black" points="0,-24 0,-54 138,-54 138,-24 0,-24"/>
<text text-anchor="start" x="8" y="-42" font-family="Helvetica,sans-Serif" font-size="10.00">fxml_main.LevelEditor.init</text>
<text text-anchor="middle" x="69" y="-31" font-family="Helvetica,sans-Serif" font-size="10.00">Editor</text>
</g>
<!-- Node2 -->
<g id="node2" class="node"><title>Node2</title>
<g id="a_node2"><a xlink:href="../../de/d8c/classfxml__main_1_1_level_editor.html#a5a5fddc41488adab8bdc60f5b1603959" target="_top" xlink:title="fxml_main.LevelEditor.initialize">
<polygon fill="white" stroke="black" points="174,-29.5 174,-48.5 336,-48.5 336,-29.5 174,-29.5"/>
<text text-anchor="middle" x="255" y="-36.5" font-family="Helvetica,sans-Serif" font-size="10.00">fxml_main.LevelEditor.initialize</text>
</a>
</g>
</g>
<!-- Node1&#45;&gt;Node2 -->
<g id="edge1" class="edge"><title>Node1&#45;&gt;Node2</title>
<path fill="none" stroke="midnightblue" d="M138.253,-39C146.56,-39 155.144,-39 163.708,-39"/>
<polygon fill="midnightblue" stroke="midnightblue" points="163.735,-42.5001 173.735,-39 163.735,-35.5001 163.735,-42.5001"/>
</g>
<!-- Node3 -->
<g id="node3" class="node"><title>Node3</title>
<g id="a_node3"><a xlink:href="../../de/d8c/classfxml__main_1_1_level_editor.html#a1e403c7da8c864c5c4383bb100e94b1c" target="_top" xlink:title="fxml_main.LevelEditor.show\lEventsEditorWindow">
<polygon fill="white" stroke="black" points="372,-24 372,-54 520,-54 520,-24 372,-24"/>
<text text-anchor="start" x="380" y="-42" font-family="Helvetica,sans-Serif" font-size="10.00">fxml_main.LevelEditor.show</text>
<text text-anchor="middle" x="446" y="-31" font-family="Helvetica,sans-Serif" font-size="10.00">EventsEditorWindow</text>
</a>
</g>
</g>
<!-- Node2&#45;&gt;Node3 -->
<g id="edge2" class="edge"><title>Node2&#45;&gt;Node3</title>
<path fill="none" stroke="midnightblue" d="M336.153,-39C344.593,-39 353.19,-39 361.665,-39"/>
<polygon fill="midnightblue" stroke="midnightblue" points="361.923,-42.5001 371.923,-39 361.923,-35.5001 361.923,-42.5001"/>
</g>
<!-- Node4 -->
<g id="node4" class="node"><title>Node4</title>
<g id="a_node4"><a xlink:href="../../d8/d60/classauthoring_1_1eventeditor_1_1_event_editor_controller.html#a6efd80f39b600b582ef955b401fbc545" target="_top" xlink:title="authoring.eventeditor.Event\lEditorController.loadEvents">
<polygon fill="white" stroke="black" points="556.5,-49 556.5,-79 705.5,-79 705.5,-49 556.5,-49"/>
<text text-anchor="start" x="564.5" y="-67" font-family="Helvetica,sans-Serif" font-size="10.00">authoring.eventeditor.Event</text>
<text text-anchor="middle" x="631" y="-56" font-family="Helvetica,sans-Serif" font-size="10.00">EditorController.loadEvents</text>
</a>
</g>
</g>
<!-- Node3&#45;&gt;Node4 -->
<g id="edge3" class="edge"><title>Node3&#45;&gt;Node4</title>
<path fill="none" stroke="midnightblue" d="M520.115,-48.9884C528.702,-50.1615 537.514,-51.3653 546.232,-52.5563"/>
<polygon fill="midnightblue" stroke="midnightblue" points="546.021,-56.06 556.403,-53.9458 546.969,-49.1244 546.021,-56.06"/>
</g>
<!-- Node5 -->
<g id="node5" class="node"><title>Node5</title>
<g id="a_node5"><a xlink:href="../../d8/d60/classauthoring_1_1eventeditor_1_1_event_editor_controller.html#a3d4defec7b726d9adfd19b54c1acf3cb" target="_top" xlink:title="authoring.eventeditor.Event\lEditorController.loadData">
<polygon fill="white" stroke="black" points="556.5,-0 556.5,-30 705.5,-30 705.5,-0 556.5,-0"/>
<text text-anchor="start" x="564.5" y="-18" font-family="Helvetica,sans-Serif" font-size="10.00">authoring.eventeditor.Event</text>
<text text-anchor="middle" x="631" y="-7" font-family="Helvetica,sans-Serif" font-size="10.00">EditorController.loadData</text>
</a>
</g>
</g>
<!-- Node3&#45;&gt;Node5 -->
<g id="edge4" class="edge"><title>Node3&#45;&gt;Node5</title>
<path fill="none" stroke="midnightblue" d="M520.115,-29.4111C528.702,-28.285 537.514,-27.1293 546.232,-25.986"/>
<polygon fill="midnightblue" stroke="midnightblue" points="546.943,-29.4227 556.403,-24.652 546.033,-22.4822 546.943,-29.4227"/>
</g>
</g>
</svg>
