<?xml version="1.0" encoding="UTF-8" standalone="no"?>
<!DOCTYPE svg PUBLIC "-//W3C//DTD SVG 1.1//EN"
 "http://www.w3.org/Graphics/SVG/1.1/DTD/svg11.dtd">
<!-- Generated by graphviz version 2.36.0 (20140111.2315)
 -->
<!-- Title: fxml_main.LevelEditor.showEventsEditorWindow Pages: 1 -->
<svg width="342pt" height="87pt"
 viewBox="0.00 0.00 342.00 87.00" xmlns="http://www.w3.org/2000/svg" xmlns:xlink="http://www.w3.org/1999/xlink">
<g id="graph0" class="graph" transform="scale(1 1) rotate(0) translate(4 83)">
<title>fxml_main.LevelEditor.showEventsEditorWindow</title>
<polygon fill="white" stroke="none" points="-4,4 -4,-83 338,-83 338,4 -4,4"/>
<!-- Node1 -->
<g id="node1" class="node"><title>Node1</title>
<polygon fill="#bfbfbf" stroke="black" points="0,-24 0,-54 148,-54 148,-24 0,-24"/>
<text text-anchor="start" x="8" y="-42" font-family="Helvetica,sans-Serif" font-size="10.00">fxml_main.LevelEditor.show</text>
<text text-anchor="middle" x="74" y="-31" font-family="Helvetica,sans-Serif" font-size="10.00">EventsEditorWindow</text>
</g>
<!-- Node2 -->
<g id="node2" class="node"><title>Node2</title>
<g id="a_node2"><a xlink:href="../../d8/d60/classauthoring_1_1eventeditor_1_1_event_editor_controller.html#a3d4defec7b726d9adfd19b54c1acf3cb" target="_top" xlink:title="authoring.eventeditor.Event\lEditorController.loadData">
<polygon fill="white" stroke="black" points="184.5,-49 184.5,-79 333.5,-79 333.5,-49 184.5,-49"/>
<text text-anchor="start" x="192.5" y="-67" font-family="Helvetica,sans-Serif" font-size="10.00">authoring.eventeditor.Event</text>
<text text-anchor="middle" x="259" y="-56" font-family="Helvetica,sans-Serif" font-size="10.00">EditorController.loadData</text>
</a>
</g>
</g>
<!-- Node1&#45;&gt;Node2 -->
<g id="edge1" class="edge"><title>Node1&#45;&gt;Node2</title>
<path fill="none" stroke="midnightblue" d="M148.115,-48.9884C156.702,-50.1615 165.514,-51.3653 174.232,-52.5563"/>
<polygon fill="midnightblue" stroke="midnightblue" points="174.021,-56.06 184.403,-53.9458 174.969,-49.1244 174.021,-56.06"/>
</g>
<!-- Node3 -->
<g id="node3" class="node"><title>Node3</title>
<g id="a_node3"><a xlink:href="../../d8/d60/classauthoring_1_1eventeditor_1_1_event_editor_controller.html#a6efd80f39b600b582ef955b401fbc545" target="_top" xlink:title="authoring.eventeditor.Event\lEditorController.loadEvents">
<polygon fill="white" stroke="black" points="184.5,-0 184.5,-30 333.5,-30 333.5,-0 184.5,-0"/>
<text text-anchor="start" x="192.5" y="-18" font-family="Helvetica,sans-Serif" font-size="10.00">authoring.eventeditor.Event</text>
<text text-anchor="middle" x="259" y="-7" font-family="Helvetica,sans-Serif" font-size="10.00">EditorController.loadEvents</text>
</a>
</g>
</g>
<!-- Node1&#45;&gt;Node3 -->
<g id="edge2" class="edge"><title>Node1&#45;&gt;Node3</title>
<path fill="none" stroke="midnightblue" d="M148.115,-29.4111C156.702,-28.285 165.514,-27.1293 174.232,-25.986"/>
<polygon fill="midnightblue" stroke="midnightblue" points="174.943,-29.4227 184.403,-24.652 174.033,-22.4822 174.943,-29.4227"/>
</g>
</g>
</svg>
