<?xml version="1.0" encoding="UTF-8" standalone="no"?>
<!DOCTYPE svg PUBLIC "-//W3C//DTD SVG 1.1//EN"
 "http://www.w3.org/Graphics/SVG/1.1/DTD/svg11.dtd">
<!-- Generated by graphviz version 2.36.0 (20140111.2315)
 -->
<!-- Title: fxml_main.LevelEditor.LevelEditor Pages: 1 -->
<svg width="922pt" height="356pt"
 viewBox="0.00 0.00 922.00 356.00" xmlns="http://www.w3.org/2000/svg" xmlns:xlink="http://www.w3.org/1999/xlink">
<g id="graph0" class="graph" transform="scale(1 1) rotate(0) translate(4 352)">
<title>fxml_main.LevelEditor.LevelEditor</title>
<polygon fill="white" stroke="none" points="-4,4 -4,-352 918,-352 918,4 -4,4"/>
<!-- Node1 -->
<g id="node1" class="node"><title>Node1</title>
<polygon fill="#bfbfbf" stroke="black" points="0.5,-171 0.5,-201 149.5,-201 149.5,-171 0.5,-171"/>
<text text-anchor="start" x="8.5" y="-189" font-family="Helvetica,sans-Serif" font-size="10.00">fxml_main.LevelEditor.Level</text>
<text text-anchor="middle" x="75" y="-178" font-family="Helvetica,sans-Serif" font-size="10.00">Editor</text>
</g>
<!-- Node2 -->
<g id="node2" class="node"><title>Node2</title>
<g id="a_node2"><a xlink:href="../../d8/d01/classgamedata_1_1gamecomponents_1_1_level.html#a4a86fcb78274223563eb89d284f018ac" target="_top" xlink:title="gamedata.gamecomponents.\lLevel.getEvents">
<polygon fill="white" stroke="black" points="186,-318 186,-348 346,-348 346,-318 186,-318"/>
<text text-anchor="start" x="194" y="-336" font-family="Helvetica,sans-Serif" font-size="10.00">gamedata.gamecomponents.</text>
<text text-anchor="middle" x="266" y="-325" font-family="Helvetica,sans-Serif" font-size="10.00">Level.getEvents</text>
</a>
</g>
</g>
<!-- Node1&#45;&gt;Node2 -->
<g id="edge1" class="edge"><title>Node1&#45;&gt;Node2</title>
<path fill="none" stroke="midnightblue" d="M85.6169,-201.11C102.724,-226.792 140.913,-278.987 186,-308 189.149,-310.026 192.475,-311.899 195.908,-313.629"/>
<polygon fill="midnightblue" stroke="midnightblue" points="194.652,-316.903 205.202,-317.879 197.563,-310.537 194.652,-316.903"/>
</g>
<!-- Node3 -->
<g id="node3" class="node"><title>Node3</title>
<g id="a_node3"><a xlink:href="../../d8/d01/classgamedata_1_1gamecomponents_1_1_level.html#adef1fc175daf62d54468e35e67413edb" target="_top" xlink:title="gamedata.gamecomponents.\lLevel.getGrid">
<polygon fill="white" stroke="black" points="186,-269 186,-299 346,-299 346,-269 186,-269"/>
<text text-anchor="start" x="194" y="-287" font-family="Helvetica,sans-Serif" font-size="10.00">gamedata.gamecomponents.</text>
<text text-anchor="middle" x="266" y="-276" font-family="Helvetica,sans-Serif" font-size="10.00">Level.getGrid</text>
</a>
</g>
</g>
<!-- Node1&#45;&gt;Node3 -->
<g id="edge2" class="edge"><title>Node1&#45;&gt;Node3</title>
<path fill="none" stroke="midnightblue" d="M95.2707,-201.223C116.484,-217.382 152.091,-242.779 186,-259 190.666,-261.232 195.579,-263.33 200.579,-265.288"/>
<polygon fill="midnightblue" stroke="midnightblue" points="199.663,-268.681 210.256,-268.878 202.098,-262.119 199.663,-268.681"/>
</g>
<!-- Node4 -->
<g id="node4" class="node"><title>Node4</title>
<g id="a_node4"><a xlink:href="../../d8/d01/classgamedata_1_1gamecomponents_1_1_level.html#a7f4bb1aadc1ae9de7eb9c2d4c955c134" target="_top" xlink:title="gamedata.gamecomponents.\lLevel.getId">
<polygon fill="white" stroke="black" points="186,-220 186,-250 346,-250 346,-220 186,-220"/>
<text text-anchor="start" x="194" y="-238" font-family="Helvetica,sans-Serif" font-size="10.00">gamedata.gamecomponents.</text>
<text text-anchor="middle" x="266" y="-227" font-family="Helvetica,sans-Serif" font-size="10.00">Level.getId</text>
</a>
</g>
</g>
<!-- Node1&#45;&gt;Node4 -->
<g id="edge3" class="edge"><title>Node1&#45;&gt;Node4</title>
<path fill="none" stroke="midnightblue" d="M133.991,-201.035C154.037,-206.232 176.674,-212.101 197.421,-217.48"/>
<polygon fill="midnightblue" stroke="midnightblue" points="196.561,-220.872 207.119,-219.994 198.317,-214.096 196.561,-220.872"/>
</g>
<!-- Node5 -->
<g id="node5" class="node"><title>Node5</title>
<g id="a_node5"><a xlink:href="../../d9/df3/classauthoring__environment_1_1_super_grid.html#a29e4179a44c4a09a1365958c5ab8b604" target="_top" xlink:title="authoring_environment.Super\lGrid.getNumCols">
<polygon fill="white" stroke="black" points="186,-171 186,-201 346,-201 346,-171 186,-171"/>
<text text-anchor="start" x="194" y="-189" font-family="Helvetica,sans-Serif" font-size="10.00">authoring_environment.Super</text>
<text text-anchor="middle" x="266" y="-178" font-family="Helvetica,sans-Serif" font-size="10.00">Grid.getNumCols</text>
</a>
</g>
</g>
<!-- Node1&#45;&gt;Node5 -->
<g id="edge4" class="edge"><title>Node1&#45;&gt;Node5</title>
<path fill="none" stroke="midnightblue" d="M149.614,-186C158.181,-186 166.989,-186 175.737,-186"/>
<polygon fill="midnightblue" stroke="midnightblue" points="175.961,-189.5 185.961,-186 175.961,-182.5 175.961,-189.5"/>
</g>
<!-- Node6 -->
<g id="node6" class="node"><title>Node6</title>
<g id="a_node6"><a xlink:href="../../d9/df3/classauthoring__environment_1_1_super_grid.html#a08152131c1f1c2b5530970a0a02a74b0" target="_top" xlink:title="authoring_environment.Super\lGrid.getNumRows">
<polygon fill="white" stroke="black" points="186,-122 186,-152 346,-152 346,-122 186,-122"/>
<text text-anchor="start" x="194" y="-140" font-family="Helvetica,sans-Serif" font-size="10.00">authoring_environment.Super</text>
<text text-anchor="middle" x="266" y="-129" font-family="Helvetica,sans-Serif" font-size="10.00">Grid.getNumRows</text>
</a>
</g>
</g>
<!-- Node1&#45;&gt;Node6 -->
<g id="edge5" class="edge"><title>Node1&#45;&gt;Node6</title>
<path fill="none" stroke="midnightblue" d="M133.991,-170.965C154.037,-165.768 176.674,-159.899 197.421,-154.52"/>
<polygon fill="midnightblue" stroke="midnightblue" points="198.317,-157.904 207.119,-152.006 196.561,-151.128 198.317,-157.904"/>
</g>
<!-- Node7 -->
<g id="node7" class="node"><title>Node7</title>
<g id="a_node7"><a xlink:href="../../d9/df3/classauthoring__environment_1_1_super_grid.html#a34b6ca198d6ec5976c9d8a4a65000068" target="_top" xlink:title="authoring_environment.Super\lGrid.getTileHeight">
<polygon fill="white" stroke="black" points="186,-73 186,-103 346,-103 346,-73 186,-73"/>
<text text-anchor="start" x="194" y="-91" font-family="Helvetica,sans-Serif" font-size="10.00">authoring_environment.Super</text>
<text text-anchor="middle" x="266" y="-80" font-family="Helvetica,sans-Serif" font-size="10.00">Grid.getTileHeight</text>
</a>
</g>
</g>
<!-- Node1&#45;&gt;Node7 -->
<g id="edge6" class="edge"><title>Node1&#45;&gt;Node7</title>
<path fill="none" stroke="midnightblue" d="M95.2707,-170.777C116.484,-154.618 152.091,-129.221 186,-113 190.666,-110.768 195.579,-108.67 200.579,-106.712"/>
<polygon fill="midnightblue" stroke="midnightblue" points="202.098,-109.881 210.256,-103.122 199.663,-103.319 202.098,-109.881"/>
</g>
<!-- Node8 -->
<g id="node8" class="node"><title>Node8</title>
<g id="a_node8"><a xlink:href="../../de/d8c/classfxml__main_1_1_level_editor.html#a38c83793ac0eb37f9881e84db3f793d1" target="_top" xlink:title="fxml_main.LevelEditor.init\lEditor">
<polygon fill="white" stroke="black" points="197,-24 197,-54 335,-54 335,-24 197,-24"/>
<text text-anchor="start" x="205" y="-42" font-family="Helvetica,sans-Serif" font-size="10.00">fxml_main.LevelEditor.init</text>
<text text-anchor="middle" x="266" y="-31" font-family="Helvetica,sans-Serif" font-size="10.00">Editor</text>
</a>
</g>
</g>
<!-- Node1&#45;&gt;Node8 -->
<g id="edge7" class="edge"><title>Node1&#45;&gt;Node8</title>
<path fill="none" stroke="midnightblue" d="M85.6169,-170.89C102.724,-145.208 140.913,-93.0128 186,-64 189.149,-61.9736 192.475,-60.1008 195.908,-58.3713"/>
<polygon fill="midnightblue" stroke="midnightblue" points="197.563,-61.463 205.202,-54.121 194.652,-55.0971 197.563,-61.463"/>
</g>
<!-- Node9 -->
<g id="node9" class="node"><title>Node9</title>
<g id="a_node9"><a xlink:href="../../de/d8c/classfxml__main_1_1_level_editor.html#a5a5fddc41488adab8bdc60f5b1603959" target="_top" xlink:title="fxml_main.LevelEditor.initialize">
<polygon fill="white" stroke="black" points="382,-29.5 382,-48.5 544,-48.5 544,-29.5 382,-29.5"/>
<text text-anchor="middle" x="463" y="-36.5" font-family="Helvetica,sans-Serif" font-size="10.00">fxml_main.LevelEditor.initialize</text>
</a>
</g>
</g>
<!-- Node8&#45;&gt;Node9 -->
<g id="edge8" class="edge"><title>Node8&#45;&gt;Node9</title>
<path fill="none" stroke="midnightblue" d="M335.202,-39C346.957,-39 359.338,-39 371.57,-39"/>
<polygon fill="midnightblue" stroke="midnightblue" points="371.794,-42.5001 381.793,-39 371.793,-35.5001 371.794,-42.5001"/>
</g>
<!-- Node10 -->
<g id="node10" class="node"><title>Node10</title>
<g id="a_node10"><a xlink:href="../../de/d8c/classfxml__main_1_1_level_editor.html#a1e403c7da8c864c5c4383bb100e94b1c" target="_top" xlink:title="fxml_main.LevelEditor.show\lEventsEditorWindow">
<polygon fill="white" stroke="black" points="580,-24 580,-54 728,-54 728,-24 580,-24"/>
<text text-anchor="start" x="588" y="-42" font-family="Helvetica,sans-Serif" font-size="10.00">fxml_main.LevelEditor.show</text>
<text text-anchor="middle" x="654" y="-31" font-family="Helvetica,sans-Serif" font-size="10.00">EventsEditorWindow</text>
</a>
</g>
</g>
<!-- Node9&#45;&gt;Node10 -->
<g id="edge9" class="edge"><title>Node9&#45;&gt;Node10</title>
<path fill="none" stroke="midnightblue" d="M544.153,-39C552.593,-39 561.19,-39 569.665,-39"/>
<polygon fill="midnightblue" stroke="midnightblue" points="569.923,-42.5001 579.923,-39 569.923,-35.5001 569.923,-42.5001"/>
</g>
<!-- Node11 -->
<g id="node11" class="node"><title>Node11</title>
<g id="a_node11"><a xlink:href="../../d8/d60/classauthoring_1_1eventeditor_1_1_event_editor_controller.html#a6efd80f39b600b582ef955b401fbc545" target="_top" xlink:title="authoring.eventeditor.Event\lEditorController.loadEvents">
<polygon fill="white" stroke="black" points="764.5,-49 764.5,-79 913.5,-79 913.5,-49 764.5,-49"/>
<text text-anchor="start" x="772.5" y="-67" font-family="Helvetica,sans-Serif" font-size="10.00">authoring.eventeditor.Event</text>
<text text-anchor="middle" x="839" y="-56" font-family="Helvetica,sans-Serif" font-size="10.00">EditorController.loadEvents</text>
</a>
</g>
</g>
<!-- Node10&#45;&gt;Node11 -->
<g id="edge10" class="edge"><title>Node10&#45;&gt;Node11</title>
<path fill="none" stroke="midnightblue" d="M728.115,-48.9884C736.702,-50.1615 745.514,-51.3653 754.232,-52.5563"/>
<polygon fill="midnightblue" stroke="midnightblue" points="754.021,-56.06 764.403,-53.9458 754.969,-49.1244 754.021,-56.06"/>
</g>
<!-- Node12 -->
<g id="node12" class="node"><title>Node12</title>
<g id="a_node12"><a xlink:href="../../d8/d60/classauthoring_1_1eventeditor_1_1_event_editor_controller.html#a3d4defec7b726d9adfd19b54c1acf3cb" target="_top" xlink:title="authoring.eventeditor.Event\lEditorController.loadData">
<polygon fill="white" stroke="black" points="764.5,-0 764.5,-30 913.5,-30 913.5,-0 764.5,-0"/>
<text text-anchor="start" x="772.5" y="-18" font-family="Helvetica,sans-Serif" font-size="10.00">authoring.eventeditor.Event</text>
<text text-anchor="middle" x="839" y="-7" font-family="Helvetica,sans-Serif" font-size="10.00">EditorController.loadData</text>
</a>
</g>
</g>
<!-- Node10&#45;&gt;Node12 -->
<g id="edge11" class="edge"><title>Node10&#45;&gt;Node12</title>
<path fill="none" stroke="midnightblue" d="M728.115,-29.4111C736.702,-28.285 745.514,-27.1293 754.232,-25.986"/>
<polygon fill="midnightblue" stroke="midnightblue" points="754.943,-29.4227 764.403,-24.652 754.033,-22.4822 754.943,-29.4227"/>
</g>
</g>
</svg>
