<?xml version="1.0" encoding="UTF-8" standalone="no"?>
<!DOCTYPE svg PUBLIC "-//W3C//DTD SVG 1.1//EN"
 "http://www.w3.org/Graphics/SVG/1.1/DTD/svg11.dtd">
<!-- Generated by graphviz version 2.36.0 (20140111.2315)
 -->
<!-- Title: fxml_main.LevelEditor.showEventsEditorWindow Pages: 1 -->
<svg width="714pt" height="38pt"
 viewBox="0.00 0.00 714.00 38.00" xmlns="http://www.w3.org/2000/svg" xmlns:xlink="http://www.w3.org/1999/xlink">
<g id="graph0" class="graph" transform="scale(1 1) rotate(0) translate(4 34)">
<title>fxml_main.LevelEditor.showEventsEditorWindow</title>
<polygon fill="white" stroke="none" points="-4,4 -4,-34 710,-34 710,4 -4,4"/>
<!-- Node1 -->
<g id="node1" class="node"><title>Node1</title>
<polygon fill="#bfbfbf" stroke="black" points="0,-0 0,-30 148,-30 148,-0 0,-0"/>
<text text-anchor="start" x="8" y="-18" font-family="Helvetica,sans-Serif" font-size="10.00">fxml_main.LevelEditor.show</text>
<text text-anchor="middle" x="74" y="-7" font-family="Helvetica,sans-Serif" font-size="10.00">EventsEditorWindow</text>
</g>
<!-- Node2 -->
<g id="node2" class="node"><title>Node2</title>
<g id="a_node2"><a xlink:href="../../de/d8c/classfxml__main_1_1_level_editor.html#a5a5fddc41488adab8bdc60f5b1603959" target="_top" xlink:title="fxml_main.LevelEditor.initialize">
<polygon fill="white" stroke="black" points="184,-5.5 184,-24.5 346,-24.5 346,-5.5 184,-5.5"/>
<text text-anchor="middle" x="265" y="-12.5" font-family="Helvetica,sans-Serif" font-size="10.00">fxml_main.LevelEditor.initialize</text>
</a>
</g>
</g>
<!-- Node1&#45;&gt;Node2 -->
<g id="edge1" class="edge"><title>Node1&#45;&gt;Node2</title>
<path fill="none" stroke="midnightblue" d="M158.349,-15C166.839,-15 175.451,-15 183.906,-15"/>
<polygon fill="midnightblue" stroke="midnightblue" points="158.072,-11.5001 148.072,-15 158.072,-18.5001 158.072,-11.5001"/>
</g>
<!-- Node3 -->
<g id="node3" class="node"><title>Node3</title>
<g id="a_node3"><a xlink:href="../../de/d8c/classfxml__main_1_1_level_editor.html#a38c83793ac0eb37f9881e84db3f793d1" target="_top" xlink:title="fxml_main.LevelEditor.init\lEditor">
<polygon fill="white" stroke="black" points="382,-0 382,-30 520,-30 520,-0 382,-0"/>
<text text-anchor="start" x="390" y="-18" font-family="Helvetica,sans-Serif" font-size="10.00">fxml_main.LevelEditor.init</text>
<text text-anchor="middle" x="451" y="-7" font-family="Helvetica,sans-Serif" font-size="10.00">Editor</text>
</a>
</g>
</g>
<!-- Node2&#45;&gt;Node3 -->
<g id="edge2" class="edge"><title>Node2&#45;&gt;Node3</title>
<path fill="none" stroke="midnightblue" d="M356.266,-15C364.89,-15 373.534,-15 381.896,-15"/>
<polygon fill="midnightblue" stroke="midnightblue" points="356.17,-11.5001 346.17,-15 356.17,-18.5001 356.17,-11.5001"/>
</g>
<!-- Node4 -->
<g id="node4" class="node"><title>Node4</title>
<g id="a_node4"><a xlink:href="../../de/d8c/classfxml__main_1_1_level_editor.html#a7ff0942b01aa917ba1d3447d5d12b59d" target="_top" xlink:title="fxml_main.LevelEditor.Level\lEditor">
<polygon fill="white" stroke="black" points="556.5,-0 556.5,-30 705.5,-30 705.5,-0 556.5,-0"/>
<text text-anchor="start" x="564.5" y="-18" font-family="Helvetica,sans-Serif" font-size="10.00">fxml_main.LevelEditor.Level</text>
<text text-anchor="middle" x="631" y="-7" font-family="Helvetica,sans-Serif" font-size="10.00">Editor</text>
</a>
</g>
</g>
<!-- Node3&#45;&gt;Node4 -->
<g id="edge3" class="edge"><title>Node3&#45;&gt;Node4</title>
<path fill="none" stroke="midnightblue" d="M530.181,-15C538.878,-15 547.715,-15 556.352,-15"/>
<polygon fill="midnightblue" stroke="midnightblue" points="530.056,-11.5001 520.056,-15 530.056,-18.5001 530.056,-11.5001"/>
</g>
</g>
</svg>
