<?xml version="1.0" encoding="UTF-8" standalone="no"?>
<!DOCTYPE svg PUBLIC "-//W3C//DTD SVG 1.1//EN"
 "http://www.w3.org/Graphics/SVG/1.1/DTD/svg11.dtd">
<!-- Generated by graphviz version 2.36.0 (20140111.2315)
 -->
<!-- Title: authoring_environment.LibraryView.addPiece Pages: 1 -->
<svg width="358pt" height="87pt"
 viewBox="0.00 0.00 358.00 87.00" xmlns="http://www.w3.org/2000/svg" xmlns:xlink="http://www.w3.org/1999/xlink">
<g id="graph0" class="graph" transform="scale(1 1) rotate(0) translate(4 83)">
<title>authoring_environment.LibraryView.addPiece</title>
<polygon fill="white" stroke="none" points="-4,4 -4,-83 354,-83 354,4 -4,4"/>
<!-- Node1 -->
<g id="node1" class="node"><title>Node1</title>
<polygon fill="#bfbfbf" stroke="black" points="0,-24 0,-54 164,-54 164,-24 0,-24"/>
<text text-anchor="start" x="8" y="-42" font-family="Helvetica,sans-Serif" font-size="10.00">authoring_environment.Library</text>
<text text-anchor="middle" x="82" y="-31" font-family="Helvetica,sans-Serif" font-size="10.00">View.addPiece</text>
</g>
<!-- Node2 -->
<g id="node2" class="node"><title>Node2</title>
<g id="a_node2"><a xlink:href="../../d5/d98/classauthoring_1_1data_1_1_piece_type_data.html#a614e86b80a55cde68e3fbf524f16cb6e" target="_top" xlink:title="authoring.data.PieceType\lData.add">
<polygon fill="white" stroke="black" points="206.5,-49 206.5,-79 343.5,-79 343.5,-49 206.5,-49"/>
<text text-anchor="start" x="214.5" y="-67" font-family="Helvetica,sans-Serif" font-size="10.00">authoring.data.PieceType</text>
<text text-anchor="middle" x="275" y="-56" font-family="Helvetica,sans-Serif" font-size="10.00">Data.add</text>
</a>
</g>
</g>
<!-- Node1&#45;&gt;Node2 -->
<g id="edge1" class="edge"><title>Node1&#45;&gt;Node2</title>
<path fill="none" stroke="midnightblue" d="M164.001,-49.6023C174.711,-51.0041 185.67,-52.4385 196.322,-53.8328"/>
<polygon fill="midnightblue" stroke="midnightblue" points="196.054,-57.3274 206.423,-55.1549 196.962,-50.3866 196.054,-57.3274"/>
</g>
<!-- Node3 -->
<g id="node3" class="node"><title>Node3</title>
<g id="a_node3"><a xlink:href="../../df/d51/classauthoring_1_1concretefeatures_1_1_unit_entry.html#aab32e6434b3a78d686c65218e9fe9485" target="_top" xlink:title="authoring.concretefeatures.\lUnitEntry.getUnit">
<polygon fill="white" stroke="black" points="200,-0 200,-30 350,-30 350,-0 200,-0"/>
<text text-anchor="start" x="208" y="-18" font-family="Helvetica,sans-Serif" font-size="10.00">authoring.concretefeatures.</text>
<text text-anchor="middle" x="275" y="-7" font-family="Helvetica,sans-Serif" font-size="10.00">UnitEntry.getUnit</text>
</a>
</g>
</g>
<!-- Node1&#45;&gt;Node3 -->
<g id="edge2" class="edge"><title>Node1&#45;&gt;Node3</title>
<path fill="none" stroke="midnightblue" d="M164.001,-28.8218C172.551,-27.7475 181.26,-26.6532 189.845,-25.5744"/>
<polygon fill="midnightblue" stroke="midnightblue" points="190.363,-29.0369 199.849,-24.3174 189.491,-22.0915 190.363,-29.0369"/>
</g>
</g>
</svg>
