<?xml version="1.0" encoding="UTF-8" standalone="no"?>
<!DOCTYPE svg PUBLIC "-//W3C//DTD SVG 1.1//EN"
 "http://www.w3.org/Graphics/SVG/1.1/DTD/svg11.dtd">
<!-- Generated by graphviz version 2.36.0 (20140111.2315)
 -->
<!-- Title: authoring.concretefeatures.RangeEditor.SelectHandler Pages: 1 -->
<svg width="1418pt" height="214pt"
 viewBox="0.00 0.00 1418.00 214.00" xmlns="http://www.w3.org/2000/svg" xmlns:xlink="http://www.w3.org/1999/xlink">
<g id="graph0" class="graph" transform="scale(1 1) rotate(0) translate(4 210)">
<title>authoring.concretefeatures.RangeEditor.SelectHandler</title>
<polygon fill="white" stroke="none" points="-4,4 -4,-210 1414,-210 1414,4 -4,4"/>
<!-- Node1 -->
<g id="node1" class="node"><title>Node1</title>
<polygon fill="#bfbfbf" stroke="black" points="1260,-118 1260,-148 1410,-148 1410,-118 1260,-118"/>
<text text-anchor="start" x="1268" y="-136" font-family="Helvetica,sans-Serif" font-size="10.00">authoring.concretefeatures.</text>
<text text-anchor="middle" x="1335" y="-125" font-family="Helvetica,sans-Serif" font-size="10.00">RangeEditor.SelectHandler</text>
</g>
<!-- Node2 -->
<g id="node2" class="node"><title>Node2</title>
<polygon fill="white" stroke="#bfbfbf" points="1037,-137 1037,-167 1185,-167 1185,-137 1037,-137"/>
<text text-anchor="start" x="1045" y="-155" font-family="Helvetica,sans-Serif" font-size="10.00">javafx::event::EventHandler</text>
<text text-anchor="middle" x="1111" y="-144" font-family="Helvetica,sans-Serif" font-size="10.00">&lt; ActionEvent &gt;</text>
</g>
<!-- Node2&#45;&gt;Node1 -->
<g id="edge1" class="edge"><title>Node2&#45;&gt;Node1</title>
<path fill="none" stroke="midnightblue" d="M1195.52,-144.852C1216.58,-143.049 1239.05,-141.126 1259.63,-139.365"/>
<polygon fill="midnightblue" stroke="midnightblue" points="1194.97,-141.386 1185.31,-145.726 1195.57,-148.36 1194.97,-141.386"/>
</g>
<!-- Node3 -->
<g id="node3" class="node"><title>Node3</title>
<g id="a_node3"><a xlink:href="../../d6/d17/classauthoring_1_1concretefeatures_1_1_range_editor.html" target="_top" xlink:title="authoring.concretefeatures.\lRangeEditor">
<polygon fill="white" stroke="black" points="1036,-88 1036,-118 1186,-118 1186,-88 1036,-88"/>
<text text-anchor="start" x="1044" y="-106" font-family="Helvetica,sans-Serif" font-size="10.00">authoring.concretefeatures.</text>
<text text-anchor="middle" x="1111" y="-95" font-family="Helvetica,sans-Serif" font-size="10.00">RangeEditor</text>
</a>
</g>
</g>
<!-- Node3&#45;&gt;Node1 -->
<g id="edge2" class="edge"><title>Node3&#45;&gt;Node1</title>
<path fill="none" stroke="#9a32cd" stroke-dasharray="5,2" d="M1196.36,-114.401C1217.25,-117.223 1239.48,-120.227 1259.84,-122.978"/>
<polygon fill="#9a32cd" stroke="#9a32cd" points="1196.61,-110.902 1186.23,-113.031 1195.67,-117.839 1196.61,-110.902"/>
<text text-anchor="middle" x="1223" y="-123" font-family="Helvetica,sans-Serif" font-size="10.00"> current</text>
</g>
<!-- Node4 -->
<g id="node4" class="node"><title>Node4</title>
<g id="a_node4"><a xlink:href="../../d4/d2e/classauthoring_1_1abstractfeatures_1_1_popup_window.html" target="_top" xlink:title="authoring.abstractfeatures.\lPopupWindow">
<polygon fill="white" stroke="black" points="771,-176 771,-206 919,-206 919,-176 771,-176"/>
<text text-anchor="start" x="779" y="-194" font-family="Helvetica,sans-Serif" font-size="10.00">authoring.abstractfeatures.</text>
<text text-anchor="middle" x="845" y="-183" font-family="Helvetica,sans-Serif" font-size="10.00">PopupWindow</text>
</a>
</g>
</g>
<!-- Node4&#45;&gt;Node3 -->
<g id="edge3" class="edge"><title>Node4&#45;&gt;Node3</title>
<path fill="none" stroke="midnightblue" d="M929,-178.556C958.431,-171.798 990.936,-161.519 1018,-146 1027.81,-140.372 1026.39,-133.967 1036,-128 1042.11,-124.209 1048.86,-120.916 1055.72,-118.078"/>
<polygon fill="midnightblue" stroke="midnightblue" points="928.168,-175.155 919.149,-180.716 929.667,-181.993 928.168,-175.155"/>
</g>
<!-- Node5 -->
<g id="node5" class="node"><title>Node5</title>
<polygon fill="white" stroke="#bfbfbf" points="564.5,-181.5 564.5,-200.5 609.5,-200.5 609.5,-181.5 564.5,-181.5"/>
<text text-anchor="middle" x="587" y="-188.5" font-family="Helvetica,sans-Serif" font-size="10.00">Stage</text>
</g>
<!-- Node5&#45;&gt;Node4 -->
<g id="edge4" class="edge"><title>Node5&#45;&gt;Node4</title>
<path fill="none" stroke="midnightblue" d="M620.155,-191C657.702,-191 720.999,-191 770.724,-191"/>
<polygon fill="midnightblue" stroke="midnightblue" points="619.826,-187.5 609.826,-191 619.826,-194.5 619.826,-187.5"/>
</g>
<!-- Node6 -->
<g id="node6" class="node"><title>Node6</title>
<polygon fill="white" stroke="#bfbfbf" points="820.5,-137.5 820.5,-156.5 869.5,-156.5 869.5,-137.5 820.5,-137.5"/>
<text text-anchor="middle" x="845" y="-144.5" font-family="Helvetica,sans-Serif" font-size="10.00">Button</text>
</g>
<!-- Node6&#45;&gt;Node3 -->
<g id="edge5" class="edge"><title>Node6&#45;&gt;Node3</title>
<path fill="none" stroke="#9a32cd" stroke-dasharray="5,2" d="M879.977,-141.337C919.172,-134.805 984.779,-123.87 1035.92,-115.347"/>
<polygon fill="#9a32cd" stroke="#9a32cd" points="879.182,-137.921 869.894,-143.018 880.333,-144.826 879.182,-137.921"/>
<text text-anchor="middle" x="981" y="-134" font-family="Helvetica,sans-Serif" font-size="10.00"> mySelect</text>
</g>
<!-- Node7 -->
<g id="node7" class="node"><title>Node7</title>
<g id="a_node7"><a xlink:href="../../d5/df6/classauthoring__environment_1_1_range_grid_view.html" target="_top" xlink:title="authoring_environment.Range\lGridView">
<polygon fill="white" stroke="black" points="764.5,-88 764.5,-118 925.5,-118 925.5,-88 764.5,-88"/>
<text text-anchor="start" x="772.5" y="-106" font-family="Helvetica,sans-Serif" font-size="10.00">authoring_environment.Range</text>
<text text-anchor="middle" x="845" y="-95" font-family="Helvetica,sans-Serif" font-size="10.00">GridView</text>
</a>
</g>
</g>
<!-- Node7&#45;&gt;Node3 -->
<g id="edge6" class="edge"><title>Node7&#45;&gt;Node3</title>
<path fill="none" stroke="#9a32cd" stroke-dasharray="5,2" d="M935.953,-103C968.386,-103 1004.6,-103 1035.56,-103"/>
<polygon fill="#9a32cd" stroke="#9a32cd" points="935.567,-99.5001 925.567,-103 935.567,-106.5 935.567,-99.5001"/>
<text text-anchor="middle" x="981" y="-106" font-family="Helvetica,sans-Serif" font-size="10.00"> rangeGridView</text>
</g>
<!-- Node8 -->
<g id="node8" class="node"><title>Node8</title>
<polygon fill="white" stroke="#bfbfbf" points="554,-131.5 554,-150.5 620,-150.5 620,-131.5 554,-131.5"/>
<text text-anchor="middle" x="587" y="-138.5" font-family="Helvetica,sans-Serif" font-size="10.00">ScrollPane</text>
</g>
<!-- Node8&#45;&gt;Node7 -->
<g id="edge7" class="edge"><title>Node8&#45;&gt;Node7</title>
<path fill="none" stroke="midnightblue" d="M630.36,-134.92C662.182,-130.331 706.836,-123.848 746,-118 751.958,-117.11 758.119,-116.184 764.316,-115.247"/>
<polygon fill="midnightblue" stroke="midnightblue" points="629.486,-131.509 620.087,-136.399 630.484,-138.438 629.486,-131.509"/>
</g>
<!-- Node9 -->
<g id="node9" class="node"><title>Node9</title>
<g id="a_node9"><a xlink:href="../../d5/da8/classauthoring__environment_1_1_range_grid.html" target="_top" xlink:title="authoring_environment.RangeGrid">
<polygon fill="white" stroke="black" points="496.5,-93.5 496.5,-112.5 677.5,-112.5 677.5,-93.5 496.5,-93.5"/>
<text text-anchor="middle" x="587" y="-100.5" font-family="Helvetica,sans-Serif" font-size="10.00">authoring_environment.RangeGrid</text>
</a>
</g>
</g>
<!-- Node9&#45;&gt;Node7 -->
<g id="edge8" class="edge"><title>Node9&#45;&gt;Node7</title>
<path fill="none" stroke="#9a32cd" stroke-dasharray="5,2" d="M687.575,-103C713.019,-103 740.04,-103 764.338,-103"/>
<polygon fill="#9a32cd" stroke="#9a32cd" points="687.536,-99.5001 677.536,-103 687.536,-106.5 687.536,-99.5001"/>
<text text-anchor="middle" x="721" y="-106" font-family="Helvetica,sans-Serif" font-size="10.00"> myGrid</text>
</g>
<!-- Node10 -->
<g id="node10" class="node"><title>Node10</title>
<g id="a_node10"><a xlink:href="../../d9/df3/classauthoring__environment_1_1_super_grid.html" target="_top" xlink:title="authoring_environment.SuperGrid">
<polygon fill="white" stroke="black" points="230.5,-102.5 230.5,-121.5 409.5,-121.5 409.5,-102.5 230.5,-102.5"/>
<text text-anchor="middle" x="320" y="-109.5" font-family="Helvetica,sans-Serif" font-size="10.00">authoring_environment.SuperGrid</text>
</a>
</g>
</g>
<!-- Node10&#45;&gt;Node9 -->
<g id="edge9" class="edge"><title>Node10&#45;&gt;Node9</title>
<path fill="none" stroke="midnightblue" d="M419.84,-108.643C444.851,-107.794 471.576,-106.886 496.118,-106.053"/>
<polygon fill="midnightblue" stroke="midnightblue" points="419.485,-105.153 409.61,-108.991 419.723,-112.149 419.485,-105.153"/>
</g>
<!-- Node11 -->
<g id="node11" class="node"><title>Node11</title>
<polygon fill="white" stroke="#bfbfbf" points="0,-135 0,-165 152,-165 152,-135 0,-135"/>
<text text-anchor="start" x="8" y="-153" font-family="Helvetica,sans-Serif" font-size="10.00">List&lt; List&lt; authoring</text>
<text text-anchor="middle" x="76" y="-142" font-family="Helvetica,sans-Serif" font-size="10.00">_environment.SuperTile &gt; &gt;</text>
</g>
<!-- Node11&#45;&gt;Node9 -->
<g id="edge12" class="edge"><title>Node11&#45;&gt;Node9</title>
<path fill="none" stroke="#9a32cd" stroke-dasharray="5,2" d="M162.264,-148.151C243.755,-145.417 369.853,-138.662 478,-122 496.44,-119.159 516.588,-115.709 534.435,-112.532"/>
<polygon fill="#9a32cd" stroke="#9a32cd" points="161.94,-144.659 152.058,-148.48 162.165,-151.656 161.94,-144.659"/>
<text text-anchor="middle" x="320" y="-148" font-family="Helvetica,sans-Serif" font-size="10.00"> rangeGrid</text>
</g>
<!-- Node11&#45;&gt;Node10 -->
<g id="edge10" class="edge"><title>Node11&#45;&gt;Node10</title>
<path fill="none" stroke="#9a32cd" stroke-dasharray="5,2" d="M161.964,-134.323C164.673,-133.87 167.357,-133.428 170,-133 195.144,-128.932 222.748,-124.916 247.291,-121.503"/>
<polygon fill="#9a32cd" stroke="#9a32cd" points="161.348,-130.877 152.077,-136.005 162.522,-137.778 161.348,-130.877"/>
<text text-anchor="middle" x="191" y="-136" font-family="Helvetica,sans-Serif" font-size="10.00"> myGrid</text>
</g>
<!-- Node12 -->
<g id="node12" class="node"><title>Node12</title>
<polygon fill="white" stroke="#bfbfbf" points="56,-88.5 56,-107.5 96,-107.5 96,-88.5 56,-88.5"/>
<text text-anchor="middle" x="76" y="-95.5" font-family="Helvetica,sans-Serif" font-size="10.00">Pane</text>
</g>
<!-- Node12&#45;&gt;Node10 -->
<g id="edge11" class="edge"><title>Node12&#45;&gt;Node10</title>
<path fill="none" stroke="#9a32cd" stroke-dasharray="5,2" d="M106.331,-97.2599C133.701,-96.7962 175.658,-96.6653 212,-99 224.419,-99.7978 237.605,-101.058 250.323,-102.487"/>
<polygon fill="#9a32cd" stroke="#9a32cd" points="106.18,-93.7621 96.2506,-97.4571 106.317,-100.761 106.18,-93.7621"/>
<text text-anchor="middle" x="191" y="-102" font-family="Helvetica,sans-Serif" font-size="10.00"> myPane</text>
</g>
<!-- Node13 -->
<g id="node13" class="node"><title>Node13</title>
<polygon fill="white" stroke="#bfbfbf" points="255,-54.5 255,-73.5 385,-73.5 385,-54.5 255,-54.5"/>
<text text-anchor="middle" x="320" y="-61.5" font-family="Helvetica,sans-Serif" font-size="10.00">List&lt; Point2D.Double &gt;</text>
</g>
<!-- Node13&#45;&gt;Node3 -->
<g id="edge15" class="edge"><title>Node13&#45;&gt;Node3</title>
<path fill="none" stroke="#9a32cd" stroke-dasharray="5,2" d="M395.179,-63.0497C509.395,-62.1882 735.122,-62.872 926,-78 962.315,-80.8781 1002.42,-86.0864 1035.9,-91.007"/>
<polygon fill="#9a32cd" stroke="#9a32cd" points="395.117,-59.55 385.146,-63.1315 395.174,-66.5497 395.117,-59.55"/>
<text text-anchor="middle" x="721" y="-71" font-family="Helvetica,sans-Serif" font-size="10.00"> myRange</text>
</g>
<!-- Node13&#45;&gt;Node9 -->
<g id="edge13" class="edge"><title>Node13&#45;&gt;Node9</title>
<path fill="none" stroke="#9a32cd" stroke-dasharray="5,2" d="M395.269,-74.9302C434.822,-80.7511 483.016,-87.8438 521.062,-93.4431"/>
<polygon fill="#9a32cd" stroke="#9a32cd" points="395.552,-71.4342 385.149,-73.4408 394.533,-78.3596 395.552,-71.4342"/>
<text text-anchor="middle" x="453" y="-90" font-family="Helvetica,sans-Serif" font-size="10.00"> myRange</text>
</g>
<!-- Node14 -->
<g id="node14" class="node"><title>Node14</title>
<polygon fill="white" stroke="#bfbfbf" points="772,-0 772,-30 918,-30 918,-0 772,-0"/>
<text text-anchor="start" x="780" y="-18" font-family="Helvetica,sans-Serif" font-size="10.00">Consumer&lt; List&lt; Point2D.</text>
<text text-anchor="middle" x="845" y="-7" font-family="Helvetica,sans-Serif" font-size="10.00">Double &gt; &gt;</text>
</g>
<!-- Node14&#45;&gt;Node3 -->
<g id="edge14" class="edge"><title>Node14&#45;&gt;Node3</title>
<path fill="none" stroke="#9a32cd" stroke-dasharray="5,2" d="M928.485,-15.2409C957.587,-17.61 990.012,-22.9263 1018,-34 1048.82,-46.1934 1078.35,-71.586 1095.31,-87.9331"/>
<polygon fill="#9a32cd" stroke="#9a32cd" points="928.565,-11.7379 918.342,-14.5212 928.069,-18.7203 928.565,-11.7379"/>
<text text-anchor="middle" x="981" y="-37" font-family="Helvetica,sans-Serif" font-size="10.00"> myConsumer</text>
</g>
</g>
</svg>
