<?xml version="1.0" encoding="UTF-8" standalone="no"?>
<!DOCTYPE svg PUBLIC "-//W3C//DTD SVG 1.1//EN"
 "http://www.w3.org/Graphics/SVG/1.1/DTD/svg11.dtd">
<!-- Generated by graphviz version 2.36.0 (20140111.2315)
 -->
<!-- Title: gamePlayer.GameGridEffect.highlightCurrent Pages: 1 -->
<!--zoomable 297 -->
<svg id="main" version="1.1" xmlns="http://www.w3.org/2000/svg" xmlns:xlink="http://www.w3.org/1999/xlink" xml:space="preserve" onload="init(evt)">
<style type="text/css"><![CDATA[
.edge:hover path { stroke: red; }
.edge:hover polygon { stroke: red; fill: red; }
]]></style>
<script type="text/javascript"><![CDATA[
var edges = document.getElementsByTagName('g');
if (edges && edges.length) {
  for (var i=0;i<edges.length;i++) {
    if (edges[i].id.substr(0,4)=='edge') {
      edges[i].setAttribute('class','edge');
    }
  }
}
]]></script>
        <defs>
                <circle id="rim" cx="0" cy="0" r="7"/>
                <circle id="rim2" cx="0" cy="0" r="3.5"/>
                <g id="zoomPlus">
                        <use xlink:href="#rim" fill="#404040">
                                <set attributeName="fill" to="#808080" begin="zoomplus.mouseover" end="zoomplus.mouseout"/>
                        </use>
                        <path d="M-4,0h8M0,-4v8" fill="none" stroke="white" stroke-width="1.5" pointer-events="none"/>
                </g>
                <g id="zoomMin">
                        <use xlink:href="#rim" fill="#404040">
                                <set attributeName="fill" to="#808080" begin="zoomminus.mouseover" end="zoomminus.mouseout"/>
                        </use>
                        <path d="M-4,0h8" fill="none" stroke="white" stroke-width="1.5" pointer-events="none"/>
                </g>
                <g id="dirArrow">
                        <path fill="none" stroke="white" stroke-width="1.5" d="M0,-3.0v7 M-2.5,-0.5L0,-3.0L2.5,-0.5"/>
                </g>
               <g id="resetDef">
                       <use xlink:href="#rim2" fill="#404040">
                               <set attributeName="fill" to="#808080" begin="reset.mouseover" end="reset.mouseout"/>
                       </use>
               </g>
        </defs>

<script type="text/javascript">
var viewWidth = 626;
var viewHeight = 297;
var sectionId = 'dynsection-11';
</script>
<script xlink:href="../../svgpan.js"/>
<svg id="graph" class="graph">
<g id="viewport">
<title>gamePlayer.GameGridEffect.highlightCurrent</title>
<polygon fill="white" stroke="none" points="-4,4 -4,-293 622,-293 622,4 -4,4"/>
<!-- Node1 -->
<g id="node1" class="node"><title>Node1</title>
<polygon fill="#bfbfbf" stroke="black" points="0.5,-146 0.5,-176 195.5,-176 195.5,-146 0.5,-146"/>
<text text-anchor="start" x="8.5" y="-164" font-family="Helvetica,sans-Serif" font-size="10.00">gamePlayer.GameGridEffect.highlight</text>
<text text-anchor="middle" x="98" y="-153" font-family="Helvetica,sans-Serif" font-size="10.00">Current</text>
</g>
<!-- Node2 -->
<g id="node2" class="node"><title>Node2</title>
<g id="a_node2"><a xlink:href="../../d5/dfb/classgame_player_1_1_game_grid_effect.html#a15e8c38e57010ae65b1f98bcca6ca3c1" target="_top" xlink:title="gamePlayer.GameGridEffect.clear\lAllActionHighlights">
<polygon fill="white" stroke="black" points="237,-259 237,-289 415,-289 415,-259 237,-259"/>
<text text-anchor="start" x="245" y="-277" font-family="Helvetica,sans-Serif" font-size="10.00">gamePlayer.GameGridEffect.clear</text>
<text text-anchor="middle" x="326" y="-266" font-family="Helvetica,sans-Serif" font-size="10.00">AllActionHighlights</text>
</a>
</g>
</g>
<!-- Node1&#45;&gt;Node2 -->
<g id="edge1" class="edge"><title>Node1&#45;&gt;Node2</title>
<path fill="none" stroke="midnightblue" d="M119.738,-176.206C145.157,-194.299 190.039,-224.502 232,-244 241.116,-248.236 250.994,-252.118 260.793,-255.583"/>
<polygon fill="midnightblue" stroke="midnightblue" points="259.94,-258.99 270.534,-258.907 262.2,-252.365 259.94,-258.99"/>
</g>
<!-- Node3 -->
<g id="node3" class="node"><title>Node3</title>
<g id="a_node3"><a xlink:href="../../d9/df3/classauthoring__environment_1_1_super_grid.html#aa57ca0acf0ef3aab7d5d98cf9cbbd1d7" target="_top" xlink:title="authoring_environment.Super\lGrid.findTile">
<polygon fill="white" stroke="black" points="457,-193 457,-223 617,-223 617,-193 457,-193"/>
<text text-anchor="start" x="465" y="-211" font-family="Helvetica,sans-Serif" font-size="10.00">authoring_environment.Super</text>
<text text-anchor="middle" x="537" y="-200" font-family="Helvetica,sans-Serif" font-size="10.00">Grid.findTile</text>
</a>
</g>
</g>
<!-- Node1&#45;&gt;Node3 -->
<g id="edge7" class="edge"><title>Node1&#45;&gt;Node3</title>
<path fill="none" stroke="midnightblue" d="M130.099,-176.031C156.509,-187.915 195.783,-203.541 232,-210 303.491,-222.75 385.949,-221.217 446.935,-217.071"/>
<polygon fill="midnightblue" stroke="midnightblue" points="447.191,-220.562 456.915,-216.357 446.691,-213.58 447.191,-220.562"/>
</g>
<!-- Node4 -->
<g id="node4" class="node"><title>Node4</title>
<g id="a_node4"><a xlink:href="../../d5/dfb/classgame_player_1_1_game_grid_effect.html#a2e61198f82a0f6a14f5a04afd490eda8" target="_top" xlink:title="gamePlayer.GameGridEffect.clear\lAllEffectHighlights">
<polygon fill="white" stroke="black" points="237,-171 237,-201 415,-201 415,-171 237,-171"/>
<text text-anchor="start" x="245" y="-189" font-family="Helvetica,sans-Serif" font-size="10.00">gamePlayer.GameGridEffect.clear</text>
<text text-anchor="middle" x="326" y="-178" font-family="Helvetica,sans-Serif" font-size="10.00">AllEffectHighlights</text>
</a>
</g>
</g>
<!-- Node1&#45;&gt;Node4 -->
<g id="edge3" class="edge"><title>Node1&#45;&gt;Node4</title>
<path fill="none" stroke="midnightblue" d="M195.828,-171.711C206.071,-172.844 216.496,-173.997 226.755,-175.132"/>
<polygon fill="midnightblue" stroke="midnightblue" points="226.622,-178.639 236.946,-176.26 227.392,-171.681 226.622,-178.639"/>
</g>
<!-- Node5 -->
<g id="node5" class="node"><title>Node5</title>
<g id="a_node5"><a xlink:href="../../d5/dfb/classgame_player_1_1_game_grid_effect.html#a8ec1cee16a259d5d7c3fca0132060049" target="_top" xlink:title="gamePlayer.GameGridEffect.clear\lAllPieceHighlights">
<polygon fill="white" stroke="black" points="237,-122 237,-152 415,-152 415,-122 237,-122"/>
<text text-anchor="start" x="245" y="-140" font-family="Helvetica,sans-Serif" font-size="10.00">gamePlayer.GameGridEffect.clear</text>
<text text-anchor="middle" x="326" y="-129" font-family="Helvetica,sans-Serif" font-size="10.00">AllPieceHighlights</text>
</a>
</g>
</g>
<!-- Node1&#45;&gt;Node5 -->
<g id="edge5" class="edge"><title>Node1&#45;&gt;Node5</title>
<path fill="none" stroke="midnightblue" d="M195.828,-150.717C206.071,-149.63 216.496,-148.523 226.755,-147.433"/>
<polygon fill="midnightblue" stroke="midnightblue" points="227.372,-150.887 236.946,-146.351 226.633,-143.927 227.372,-150.887"/>
</g>
<!-- Node6 -->
<g id="node6" class="node"><title>Node6</title>
<g id="a_node6"><a xlink:href="../../dc/d5a/classauthoring__environment_1_1_super_tile.html#ab5ef68199e1e504d94b443e562cba0b9" target="_top" xlink:title="authoring_environment.Super\lTile.selectTile">
<polygon fill="white" stroke="black" points="246,-73 246,-103 406,-103 406,-73 246,-73"/>
<text text-anchor="start" x="254" y="-91" font-family="Helvetica,sans-Serif" font-size="10.00">authoring_environment.Super</text>
<text text-anchor="middle" x="326" y="-80" font-family="Helvetica,sans-Serif" font-size="10.00">Tile.selectTile</text>
</a>
</g>
</g>
<!-- Node1&#45;&gt;Node6 -->
<g id="edge8" class="edge"><title>Node1&#45;&gt;Node6</title>
<path fill="none" stroke="midnightblue" d="M137.989,-145.954C164.343,-136.025 200.033,-123.046 232,-113 239.711,-110.577 247.826,-108.177 255.918,-105.879"/>
<polygon fill="midnightblue" stroke="midnightblue" points="257.059,-109.194 265.747,-103.131 255.174,-102.453 257.059,-109.194"/>
</g>
<!-- Node7 -->
<g id="node7" class="node"><title>Node7</title>
<g id="a_node7"><a xlink:href="../../d5/dfb/classgame_player_1_1_game_grid_effect.html#a5e34f8b7cca52de2db06626494e76457" target="_top" xlink:title="gamePlayer.GameGridEffect.update\lActives">
<polygon fill="white" stroke="black" points="232,-24 232,-54 420,-54 420,-24 232,-24"/>
<text text-anchor="start" x="240" y="-42" font-family="Helvetica,sans-Serif" font-size="10.00">gamePlayer.GameGridEffect.update</text>
<text text-anchor="middle" x="326" y="-31" font-family="Helvetica,sans-Serif" font-size="10.00">Actives</text>
</a>
</g>
</g>
<!-- Node1&#45;&gt;Node7 -->
<g id="edge9" class="edge"><title>Node1&#45;&gt;Node7</title>
<path fill="none" stroke="midnightblue" d="M115.275,-145.718C139.083,-124.174 185.633,-85.0437 232,-63 236.092,-61.0546 240.363,-59.2518 244.729,-57.5832"/>
<polygon fill="midnightblue" stroke="midnightblue" points="246.157,-60.7902 254.406,-54.1416 243.811,-54.1949 246.157,-60.7902"/>
</g>
<!-- Node2&#45;&gt;Node3 -->
<g id="edge2" class="edge"><title>Node2&#45;&gt;Node3</title>
<path fill="none" stroke="midnightblue" d="M374.687,-258.941C405.476,-249.218 445.719,-236.51 478.308,-226.219"/>
<polygon fill="midnightblue" stroke="midnightblue" points="479.675,-229.457 488.157,-223.108 477.567,-222.782 479.675,-229.457"/>
</g>
<!-- Node4&#45;&gt;Node3 -->
<g id="edge4" class="edge"><title>Node4&#45;&gt;Node3</title>
<path fill="none" stroke="midnightblue" d="M415.029,-195.266C425.512,-196.37 436.222,-197.497 446.722,-198.602"/>
<polygon fill="midnightblue" stroke="midnightblue" points="446.4,-202.088 456.711,-199.654 447.133,-195.126 446.4,-202.088"/>
</g>
<!-- Node5&#45;&gt;Node3 -->
<g id="edge6" class="edge"><title>Node5&#45;&gt;Node3</title>
<path fill="none" stroke="midnightblue" d="M387.334,-152.134C398.271,-155.185 409.526,-158.528 420,-162 443.986,-169.95 470.194,-180.205 491.622,-189.014"/>
<polygon fill="midnightblue" stroke="midnightblue" points="490.527,-192.349 501.105,-192.946 493.208,-185.883 490.527,-192.349"/>
</g>
<!-- Node8 -->
<g id="node8" class="node"><title>Node8</title>
<g id="a_node8"><a xlink:href="../../df/dd5/classgame_player_1_1_view_controller.html#a53f6a078b1b2d43b3df91a7acd19121a" target="_top" xlink:title="gamePlayer.ViewController.get\lActivePiece">
<polygon fill="white" stroke="black" points="456,-49 456,-79 618,-79 618,-49 456,-49"/>
<text text-anchor="start" x="464" y="-67" font-family="Helvetica,sans-Serif" font-size="10.00">gamePlayer.ViewController.get</text>
<text text-anchor="middle" x="537" y="-56" font-family="Helvetica,sans-Serif" font-size="10.00">ActivePiece</text>
</a>
</g>
</g>
<!-- Node7&#45;&gt;Node8 -->
<g id="edge10" class="edge"><title>Node7&#45;&gt;Node8</title>
<path fill="none" stroke="midnightblue" d="M420.192,-50.1474C428.627,-51.1564 437.162,-52.1773 445.573,-53.1834"/>
<polygon fill="midnightblue" stroke="midnightblue" points="445.411,-56.6889 455.756,-54.4014 446.243,-49.7384 445.411,-56.6889"/>
</g>
<!-- Node9 -->
<g id="node9" class="node"><title>Node9</title>
<g id="a_node9"><a xlink:href="../../df/dd5/classgame_player_1_1_view_controller.html#a7c056f49d735d05a774efccf94893e0e" target="_top" xlink:title="gamePlayer.ViewController.get\lActiveAction">
<polygon fill="white" stroke="black" points="456,-0 456,-30 618,-30 618,-0 456,-0"/>
<text text-anchor="start" x="464" y="-18" font-family="Helvetica,sans-Serif" font-size="10.00">gamePlayer.ViewController.get</text>
<text text-anchor="middle" x="537" y="-7" font-family="Helvetica,sans-Serif" font-size="10.00">ActiveAction</text>
</a>
</g>
</g>
<!-- Node7&#45;&gt;Node9 -->
<g id="edge11" class="edge"><title>Node7&#45;&gt;Node9</title>
<path fill="none" stroke="midnightblue" d="M420.192,-28.2985C428.627,-27.3299 437.162,-26.3498 445.573,-25.3839"/>
<polygon fill="midnightblue" stroke="midnightblue" points="446.221,-28.8327 455.756,-24.2146 445.422,-21.8784 446.221,-28.8327"/>
</g>
</g>
</svg>
        <g id="navigator" transform="translate(0 0)" fill="#404254">
                <rect fill="#f2f5e9" fill-opacity="0.5" stroke="#606060" stroke-width=".5" x="0" y="0" width="60" height="60"/>
                <use id="zoomplus" xlink:href="#zoomPlus" x="17" y="9" onmousedown="handleZoom(evt,'in')"/>
                <use id="zoomminus" xlink:href="#zoomMin" x="42" y="9" onmousedown="handleZoom(evt,'out')"/>
                <use id="reset" xlink:href="#resetDef" x="30" y="36" onmousedown="handleReset()"/>
                <g id="arrowUp" xlink:href="#dirArrow" transform="translate(30 24)" onmousedown="handlePan(0,-1)">
                  <use xlink:href="#rim" fill="#404040">
                        <set attributeName="fill" to="#808080" begin="arrowUp.mouseover" end="arrowUp.mouseout"/>
                  </use>
                  <path fill="none" stroke="white" stroke-width="1.5" d="M0,-3.0v7 M-2.5,-0.5L0,-3.0L2.5,-0.5"/>
                </g>
                <g id="arrowRight" xlink:href="#dirArrow" transform="rotate(90) translate(36 -43)" onmousedown="handlePan(1,0)">
                  <use xlink:href="#rim" fill="#404040">
                        <set attributeName="fill" to="#808080" begin="arrowRight.mouseover" end="arrowRight.mouseout"/>
                  </use>
                  <path fill="none" stroke="white" stroke-width="1.5" d="M0,-3.0v7 M-2.5,-0.5L0,-3.0L2.5,-0.5"/>
                </g>
                <g id="arrowDown" xlink:href="#dirArrow" transform="rotate(180) translate(-30 -48)" onmousedown="handlePan(0,1)">
                  <use xlink:href="#rim" fill="#404040">
                        <set attributeName="fill" to="#808080" begin="arrowDown.mouseover" end="arrowDown.mouseout"/>
                  </use>
                  <path fill="none" stroke="white" stroke-width="1.5" d="M0,-3.0v7 M-2.5,-0.5L0,-3.0L2.5,-0.5"/>
                </g>
                <g id="arrowLeft" xlink:href="#dirArrow" transform="rotate(270) translate(-36 17)" onmousedown="handlePan(-1,0)">
                  <use xlink:href="#rim" fill="#404040">
                        <set attributeName="fill" to="#808080" begin="arrowLeft.mouseover" end="arrowLeft.mouseout"/>
                  </use>
                  <path fill="none" stroke="white" stroke-width="1.5" d="M0,-3.0v7 M-2.5,-0.5L0,-3.0L2.5,-0.5"/>
                </g>
        </g>
        <svg viewBox="0 0 15 15" width="100%" height="30px" preserveAspectRatio="xMaxYMin meet">
         <g id="arrow_out" transform="scale(0.3 0.3)">
          <a xlink:href="classgame_player_1_1_game_grid_effect_a1c6be8631bc6b597b5ed7dc9cd7e62fe_cgraph_org.svg" target="_base">
           <rect id="button" ry="5" rx="5" y="6" x="6" height="38" width="38"
                fill="#f2f5e9" fill-opacity="0.5" stroke="#606060" stroke-width="1.0"/>
           <path id="arrow"
             d="M 11.500037,31.436501 C 11.940474,20.09759 22.043105,11.32322 32.158766,21.979434 L 37.068811,17.246167 C 37.068811,17.246167 37.088388,32 37.088388,32 L 22.160133,31.978069 C 22.160133,31.978069 26.997745,27.140456 26.997745,27.140456 C 18.528582,18.264221 13.291696,25.230495 11.500037,31.436501 z"
             style="fill:#404040;"/>
          </a>
         </g>
        </svg>
</svg>
