<?xml version="1.0" encoding="UTF-8" standalone="no"?>
<!DOCTYPE svg PUBLIC "-//W3C//DTD SVG 1.1//EN"
 "http://www.w3.org/Graphics/SVG/1.1/DTD/svg11.dtd">
<!-- Generated by graphviz version 2.36.0 (20140111.2315)
 -->
<!-- Title: gamePlayer.GameGridEffect.updateActives Pages: 1 -->
<svg width="2212pt" height="283pt"
 viewBox="0.00 0.00 2212.00 283.30" xmlns="http://www.w3.org/2000/svg" xmlns:xlink="http://www.w3.org/1999/xlink">
<g id="graph0" class="graph" transform="scale(1 1) rotate(0) translate(4 279.3)">
<title>gamePlayer.GameGridEffect.updateActives</title>
<polygon fill="white" stroke="none" points="-4,4 -4,-279.3 2208,-279.3 2208,4 -4,4"/>
<!-- Node1 -->
<g id="node1" class="node"><title>Node1</title>
<polygon fill="#bfbfbf" stroke="black" points="0,-141 0,-171 188,-171 188,-141 0,-141"/>
<text text-anchor="start" x="8" y="-159" font-family="Helvetica,sans-Serif" font-size="10.00">gamePlayer.GameGridEffect.update</text>
<text text-anchor="middle" x="94" y="-148" font-family="Helvetica,sans-Serif" font-size="10.00">Actives</text>
</g>
<!-- Node2 -->
<g id="node2" class="node"><title>Node2</title>
<g id="a_node2"><a xlink:href="../../d5/dfb/classgame_player_1_1_game_grid_effect.html#a2d475fdcd2837d14f9883d0cbf7a3c74" target="_top" xlink:title="gamePlayer.GameGridEffect.grey\lOutPiece">
<polygon fill="white" stroke="black" points="234,-190 234,-220 410,-220 410,-190 234,-190"/>
<text text-anchor="start" x="242" y="-208" font-family="Helvetica,sans-Serif" font-size="10.00">gamePlayer.GameGridEffect.grey</text>
<text text-anchor="middle" x="322" y="-197" font-family="Helvetica,sans-Serif" font-size="10.00">OutPiece</text>
</a>
</g>
</g>
<!-- Node1&#45;&gt;Node2 -->
<g id="edge1" class="edge"><title>Node1&#45;&gt;Node2</title>
<path fill="none" stroke="midnightblue" d="M174.263,-173.185C199.535,-178.665 227.286,-184.682 251.788,-189.994"/>
<polygon fill="midnightblue" stroke="midnightblue" points="174.858,-169.733 164.343,-171.035 173.375,-176.574 174.858,-169.733"/>
</g>
<!-- Node3 -->
<g id="node3" class="node"><title>Node3</title>
<g id="a_node3"><a xlink:href="../../d5/dfb/classgame_player_1_1_game_grid_effect.html#ae71ddafff23aecd0ee6697d732e0a919" target="_top" xlink:title="gamePlayer.GameGridEffect.highlight\lActionRange">
<polygon fill="white" stroke="black" points="224.5,-141 224.5,-171 419.5,-171 419.5,-141 224.5,-141"/>
<text text-anchor="start" x="232.5" y="-159" font-family="Helvetica,sans-Serif" font-size="10.00">gamePlayer.GameGridEffect.highlight</text>
<text text-anchor="middle" x="322" y="-148" font-family="Helvetica,sans-Serif" font-size="10.00">ActionRange</text>
</a>
</g>
</g>
<!-- Node1&#45;&gt;Node3 -->
<g id="edge2" class="edge"><title>Node1&#45;&gt;Node3</title>
<path fill="none" stroke="midnightblue" d="M198.341,-156C206.997,-156 215.728,-156 224.331,-156"/>
<polygon fill="midnightblue" stroke="midnightblue" points="198.228,-152.5 188.228,-156 198.228,-159.5 198.228,-152.5"/>
</g>
<!-- Node25 -->
<g id="node25" class="node"><title>Node25</title>
<g id="a_node25"><a xlink:href="../../d5/dfb/classgame_player_1_1_game_grid_effect.html#a1c6be8631bc6b597b5ed7dc9cd7e62fe" target="_top" xlink:title="gamePlayer.GameGridEffect.highlight\lCurrent">
<polygon fill="white" stroke="black" points="224.5,-70 224.5,-100 419.5,-100 419.5,-70 224.5,-70"/>
<text text-anchor="start" x="232.5" y="-88" font-family="Helvetica,sans-Serif" font-size="10.00">gamePlayer.GameGridEffect.highlight</text>
<text text-anchor="middle" x="322" y="-77" font-family="Helvetica,sans-Serif" font-size="10.00">Current</text>
</a>
</g>
</g>
<!-- Node1&#45;&gt;Node25 -->
<g id="edge27" class="edge"><title>Node1&#45;&gt;Node25</title>
<path fill="none" stroke="midnightblue" d="M152.657,-137.887C189.961,-126.167 237.95,-111.091 273.14,-100.036"/>
<polygon fill="midnightblue" stroke="midnightblue" points="151.42,-134.606 142.929,-140.943 153.518,-141.285 151.42,-134.606"/>
</g>
<!-- Node4 -->
<g id="node4" class="node"><title>Node4</title>
<g id="a_node4"><a xlink:href="../../df/dd5/classgame_player_1_1_view_controller.html#a7eb038fd9f20604ade0406f27ef76657" target="_top" xlink:title="gamePlayer.ViewController.bind\lAction">
<polygon fill="white" stroke="black" points="466.5,-152 466.5,-182 633.5,-182 633.5,-152 466.5,-152"/>
<text text-anchor="start" x="474.5" y="-170" font-family="Helvetica,sans-Serif" font-size="10.00">gamePlayer.ViewController.bind</text>
<text text-anchor="middle" x="550" y="-159" font-family="Helvetica,sans-Serif" font-size="10.00">Action</text>
</a>
</g>
</g>
<!-- Node3&#45;&gt;Node4 -->
<g id="edge3" class="edge"><title>Node3&#45;&gt;Node4</title>
<path fill="none" stroke="midnightblue" d="M430.017,-161.209C442.187,-161.801 454.451,-162.398 466.24,-162.972"/>
<polygon fill="midnightblue" stroke="midnightblue" points="429.986,-157.703 419.828,-160.713 429.646,-164.695 429.986,-157.703"/>
</g>
<!-- Node5 -->
<g id="node5" class="node"><title>Node5</title>
<g id="a_node5"><a xlink:href="../../d1/db7/classgame_player_1_1_keyboard_action.html#a08ace57322b8639020688dd9493c3e1f" target="_top" xlink:title="gamePlayer.KeyboardAction.set\lActionKeyControl">
<polygon fill="white" stroke="black" points="686,-201 686,-231 854,-231 854,-201 686,-201"/>
<text text-anchor="start" x="694" y="-219" font-family="Helvetica,sans-Serif" font-size="10.00">gamePlayer.KeyboardAction.set</text>
<text text-anchor="middle" x="770" y="-208" font-family="Helvetica,sans-Serif" font-size="10.00">ActionKeyControl</text>
</a>
</g>
</g>
<!-- Node4&#45;&gt;Node5 -->
<g id="edge4" class="edge"><title>Node4&#45;&gt;Node5</title>
<path fill="none" stroke="midnightblue" d="M627.781,-184.258C652.072,-189.718 678.708,-195.705 702.238,-200.994"/>
<polygon fill="midnightblue" stroke="midnightblue" points="628.413,-180.813 617.889,-182.035 626.878,-187.642 628.413,-180.813"/>
</g>
<!-- Node21 -->
<g id="node21" class="node"><title>Node21</title>
<g id="a_node21"><a xlink:href="../../df/dd5/classgame_player_1_1_view_controller.html#ab8c14a8c53be9021a62d0107c2f75ef6" target="_top" xlink:title="gamePlayer.ViewController.update\lActions">
<polygon fill="white" stroke="black" points="680,-152 680,-182 860,-182 860,-152 680,-152"/>
<text text-anchor="start" x="688" y="-170" font-family="Helvetica,sans-Serif" font-size="10.00">gamePlayer.ViewController.update</text>
<text text-anchor="middle" x="770" y="-159" font-family="Helvetica,sans-Serif" font-size="10.00">Actions</text>
</a>
</g>
</g>
<!-- Node4&#45;&gt;Node21 -->
<g id="edge23" class="edge"><title>Node4&#45;&gt;Node21</title>
<path fill="none" stroke="midnightblue" d="M644.056,-167C655.901,-167 668.002,-167 679.785,-167"/>
<polygon fill="midnightblue" stroke="midnightblue" points="643.727,-163.5 633.727,-167 643.727,-170.5 643.727,-163.5"/>
</g>
<!-- Node24 -->
<g id="node24" class="node"><title>Node24</title>
<g id="a_node24"><a xlink:href="../../df/df0/classtests_1_1_view_controller_test.html#a74e99f9c72cbdcd2d56271b2ad2df1ce" target="_top" xlink:title="tests.ViewControllerTest.bind\lActionTest">
<polygon fill="white" stroke="black" points="693,-103 693,-133 847,-133 847,-103 693,-103"/>
<text text-anchor="start" x="701" y="-121" font-family="Helvetica,sans-Serif" font-size="10.00">tests.ViewControllerTest.bind</text>
<text text-anchor="middle" x="770" y="-110" font-family="Helvetica,sans-Serif" font-size="10.00">ActionTest</text>
</a>
</g>
</g>
<!-- Node4&#45;&gt;Node24 -->
<g id="edge26" class="edge"><title>Node4&#45;&gt;Node24</title>
<path fill="none" stroke="midnightblue" d="M627.781,-149.742C652.072,-144.282 678.708,-138.295 702.238,-133.006"/>
<polygon fill="midnightblue" stroke="midnightblue" points="626.878,-146.358 617.889,-151.965 628.413,-153.187 626.878,-146.358"/>
</g>
<!-- Node6 -->
<g id="node6" class="node"><title>Node6</title>
<g id="a_node6"><a xlink:href="../../df/dd5/classgame_player_1_1_view_controller.html#a95c2acd43bb39b8606c69971c1cd30f5" target="_top" xlink:title="gamePlayer.ViewController.perform\lAction">
<polygon fill="white" stroke="black" points="896.5,-201 896.5,-231 1081.5,-231 1081.5,-201 896.5,-201"/>
<text text-anchor="start" x="904.5" y="-219" font-family="Helvetica,sans-Serif" font-size="10.00">gamePlayer.ViewController.perform</text>
<text text-anchor="middle" x="989" y="-208" font-family="Helvetica,sans-Serif" font-size="10.00">Action</text>
</a>
</g>
</g>
<!-- Node5&#45;&gt;Node6 -->
<g id="edge5" class="edge"><title>Node5&#45;&gt;Node6</title>
<path fill="none" stroke="midnightblue" d="M864.351,-216C874.935,-216 885.715,-216 896.277,-216"/>
<polygon fill="midnightblue" stroke="midnightblue" points="864.277,-212.5 854.277,-216 864.277,-219.5 864.277,-212.5"/>
</g>
<!-- Node7 -->
<g id="node7" class="node"><title>Node7</title>
<g id="a_node7"><a xlink:href="../../da/d55/classgame_player_1_1_keyboard_movement.html#af45fd8d279b1ee2d6be5466d425485ab" target="_top" xlink:title="gamePlayer.KeyboardMovement.set\lMovementKeyControl">
<polygon fill="white" stroke="black" points="1118.5,-245 1118.5,-275 1307.5,-275 1307.5,-245 1118.5,-245"/>
<text text-anchor="start" x="1126.5" y="-263" font-family="Helvetica,sans-Serif" font-size="10.00">gamePlayer.KeyboardMovement.set</text>
<text text-anchor="middle" x="1213" y="-252" font-family="Helvetica,sans-Serif" font-size="10.00">MovementKeyControl</text>
</a>
</g>
</g>
<!-- Node6&#45;&gt;Node7 -->
<g id="edge6" class="edge"><title>Node6&#45;&gt;Node7</title>
<path fill="none" stroke="midnightblue" d="M1091.67,-229.423C1117.14,-234.355 1143.28,-239.895 1164.65,-244.969"/>
<polygon fill="midnightblue" stroke="midnightblue" points="1092.06,-225.933 1081.58,-227.493 1090.74,-232.808 1092.06,-225.933"/>
</g>
<!-- Node9 -->
<g id="node9" class="node"><title>Node9</title>
<g id="a_node9"><a xlink:href="../../df/dd5/classgame_player_1_1_view_controller.html#a22ee80193bbac79a935ee961a183bfcd" target="_top" xlink:title="gamePlayer.ViewController.set\lOnClick">
<polygon fill="white" stroke="black" points="1132.5,-133 1132.5,-163 1293.5,-163 1293.5,-133 1132.5,-133"/>
<text text-anchor="start" x="1140.5" y="-151" font-family="Helvetica,sans-Serif" font-size="10.00">gamePlayer.ViewController.set</text>
<text text-anchor="middle" x="1213" y="-140" font-family="Helvetica,sans-Serif" font-size="10.00">OnClick</text>
</a>
</g>
</g>
<!-- Node6&#45;&gt;Node9 -->
<g id="edge10" class="edge"><title>Node6&#45;&gt;Node9</title>
<path fill="none" stroke="midnightblue" d="M1057.29,-198.166C1065.63,-195.823 1074.03,-193.4 1082,-191 1111.02,-182.264 1143.38,-171.563 1168.56,-163.022"/>
<polygon fill="midnightblue" stroke="midnightblue" points="1056.25,-194.822 1047.56,-200.874 1058.13,-201.566 1056.25,-194.822"/>
</g>
<!-- Node7&#45;&gt;Node4 -->
<g id="edge7" class="edge"><title>Node7&#45;&gt;Node4</title>
<path fill="none" stroke="midnightblue" d="M1108.13,-270.384C999.232,-277.996 824.219,-280.889 680,-240 637.913,-228.067 594.836,-199.791 570.644,-182.14"/>
<polygon fill="midnightblue" stroke="midnightblue" points="1108.42,-273.873 1118.14,-269.659 1107.91,-266.891 1108.42,-273.873"/>
</g>
<!-- Node7&#45;&gt;Node6 -->
<g id="edge8" class="edge"><title>Node7&#45;&gt;Node6</title>
<path fill="none" stroke="midnightblue" d="M1108.26,-246.177C1083.45,-241.347 1058.15,-235.969 1037.35,-231.032"/>
<polygon fill="midnightblue" stroke="midnightblue" points="1107.63,-249.618 1118.11,-248.069 1108.95,-242.744 1107.63,-249.618"/>
</g>
<!-- Node8 -->
<g id="node8" class="node"><title>Node8</title>
<g id="a_node8"><a xlink:href="../../df/dd5/classgame_player_1_1_view_controller.html#a27da17c1280cd953a14f6b76b18f9a4b" target="_top" xlink:title="gamePlayer.ViewController.toggle\lKeyboardControl">
<polygon fill="white" stroke="black" points="1358,-245 1358,-275 1534,-275 1534,-245 1358,-245"/>
<text text-anchor="start" x="1366" y="-263" font-family="Helvetica,sans-Serif" font-size="10.00">gamePlayer.ViewController.toggle</text>
<text text-anchor="middle" x="1446" y="-252" font-family="Helvetica,sans-Serif" font-size="10.00">KeyboardControl</text>
</a>
</g>
</g>
<!-- Node7&#45;&gt;Node8 -->
<g id="edge9" class="edge"><title>Node7&#45;&gt;Node8</title>
<path fill="none" stroke="midnightblue" d="M1317.83,-260C1331.24,-260 1344.86,-260 1357.96,-260"/>
<polygon fill="midnightblue" stroke="midnightblue" points="1317.62,-256.5 1307.62,-260 1317.62,-263.5 1317.62,-256.5"/>
</g>
<!-- Node10 -->
<g id="node10" class="node"><title>Node10</title>
<g id="a_node10"><a xlink:href="../../df/dd5/classgame_player_1_1_view_controller.html#a10a40967a873f067cf91b024ff85b38e" target="_top" xlink:title="gamePlayer.ViewController.initializeGrid">
<polygon fill="white" stroke="black" points="1344,-126.5 1344,-145.5 1548,-145.5 1548,-126.5 1344,-126.5"/>
<text text-anchor="middle" x="1446" y="-133.5" font-family="Helvetica,sans-Serif" font-size="10.00">gamePlayer.ViewController.initializeGrid</text>
</a>
</g>
</g>
<!-- Node9&#45;&gt;Node10 -->
<g id="edge11" class="edge"><title>Node9&#45;&gt;Node10</title>
<path fill="none" stroke="midnightblue" d="M1304.18,-143.315C1317.23,-142.637 1330.74,-141.936 1343.99,-141.247"/>
<polygon fill="midnightblue" stroke="midnightblue" points="1303.63,-139.839 1293.82,-143.853 1303.99,-146.83 1303.63,-139.839"/>
</g>
<!-- Node11 -->
<g id="node11" class="node"><title>Node11</title>
<g id="a_node11"><a xlink:href="../../df/dd5/classgame_player_1_1_view_controller.html#aabf431713b65ec510f1cb2df12da4e45" target="_top" xlink:title="gamePlayer.ViewController.test\lPlayGameInTab">
<polygon fill="white" stroke="black" points="1605.5,-159 1605.5,-189 1770.5,-189 1770.5,-159 1605.5,-159"/>
<text text-anchor="start" x="1613.5" y="-177" font-family="Helvetica,sans-Serif" font-size="10.00">gamePlayer.ViewController.test</text>
<text text-anchor="middle" x="1688" y="-166" font-family="Helvetica,sans-Serif" font-size="10.00">PlayGameInTab</text>
</a>
</g>
</g>
<!-- Node10&#45;&gt;Node11 -->
<g id="edge12" class="edge"><title>Node10&#45;&gt;Node11</title>
<path fill="none" stroke="midnightblue" d="M1517.22,-147.119C1544.85,-151.493 1576.76,-156.546 1605.41,-161.081"/>
<polygon fill="midnightblue" stroke="midnightblue" points="1517.68,-143.647 1507.25,-145.54 1516.58,-150.561 1517.68,-143.647"/>
</g>
<!-- Node12 -->
<g id="node12" class="node"><title>Node12</title>
<g id="a_node12"><a xlink:href="../../df/dd5/classgame_player_1_1_view_controller.html#a0d1a3d443966f151b070dc751d2faf9a" target="_top" xlink:title="gamePlayer.ViewController.restartGame">
<polygon fill="white" stroke="black" points="1584,-120.5 1584,-139.5 1792,-139.5 1792,-120.5 1584,-120.5"/>
<text text-anchor="middle" x="1688" y="-127.5" font-family="Helvetica,sans-Serif" font-size="10.00">gamePlayer.ViewController.restartGame</text>
</a>
</g>
</g>
<!-- Node10&#45;&gt;Node12 -->
<g id="edge13" class="edge"><title>Node10&#45;&gt;Node12</title>
<path fill="none" stroke="midnightblue" d="M1558.36,-133.216C1566.81,-133.005 1575.32,-132.792 1583.72,-132.582"/>
<polygon fill="midnightblue" stroke="midnightblue" points="1558,-129.724 1548.09,-133.473 1558.17,-136.722 1558,-129.724"/>
</g>
<!-- Node13 -->
<g id="node13" class="node"><title>Node13</title>
<g id="a_node13"><a xlink:href="../../df/dd5/classgame_player_1_1_view_controller.html#a620f8a02d3ac7677cd179fcd812aca55" target="_top" xlink:title="gamePlayer.ViewController.check\lEndActions">
<polygon fill="white" stroke="black" points="1601,-208 1601,-238 1775,-238 1775,-208 1601,-208"/>
<text text-anchor="start" x="1609" y="-226" font-family="Helvetica,sans-Serif" font-size="10.00">gamePlayer.ViewController.check</text>
<text text-anchor="middle" x="1688" y="-215" font-family="Helvetica,sans-Serif" font-size="10.00">EndActions</text>
</a>
</g>
</g>
<!-- Node10&#45;&gt;Node13 -->
<g id="edge14" class="edge"><title>Node10&#45;&gt;Node13</title>
<path fill="none" stroke="midnightblue" d="M1474.44,-150.26C1501.66,-163.965 1544.87,-184.528 1584,-198 1594.61,-201.654 1606.02,-204.986 1617.23,-207.942"/>
<polygon fill="midnightblue" stroke="midnightblue" points="1475.67,-146.959 1465.17,-145.547 1472.5,-153.199 1475.67,-146.959"/>
</g>
<!-- Node16 -->
<g id="node16" class="node"><title>Node16</title>
<g id="a_node16"><a xlink:href="../../df/dd5/classgame_player_1_1_view_controller.html#adc15cd81cefb88c58f9d3b7478328df8" target="_top" xlink:title="gamePlayer.ViewController.test\lPlayGUIGame">
<polygon fill="white" stroke="black" points="1605.5,-71 1605.5,-101 1770.5,-101 1770.5,-71 1605.5,-71"/>
<text text-anchor="start" x="1613.5" y="-89" font-family="Helvetica,sans-Serif" font-size="10.00">gamePlayer.ViewController.test</text>
<text text-anchor="middle" x="1688" y="-78" font-family="Helvetica,sans-Serif" font-size="10.00">PlayGUIGame</text>
</a>
</g>
</g>
<!-- Node10&#45;&gt;Node16 -->
<g id="edge18" class="edge"><title>Node10&#45;&gt;Node16</title>
<path fill="none" stroke="midnightblue" d="M1502.72,-124.391C1536.01,-117.455 1578.67,-108.568 1614.56,-101.091"/>
<polygon fill="midnightblue" stroke="midnightblue" points="1501.78,-121.012 1492.71,-126.478 1503.21,-127.865 1501.78,-121.012"/>
</g>
<!-- Node17 -->
<g id="node17" class="node"><title>Node17</title>
<g id="a_node17"><a xlink:href="../../df/dd5/classgame_player_1_1_view_controller.html#a4c1754d129a4eac955390b428eaa448a" target="_top" xlink:title="gamePlayer.ViewController.test\lPlayGame">
<polygon fill="white" stroke="black" points="1605.5,-22 1605.5,-52 1770.5,-52 1770.5,-22 1605.5,-22"/>
<text text-anchor="start" x="1613.5" y="-40" font-family="Helvetica,sans-Serif" font-size="10.00">gamePlayer.ViewController.test</text>
<text text-anchor="middle" x="1688" y="-29" font-family="Helvetica,sans-Serif" font-size="10.00">PlayGame</text>
</a>
</g>
</g>
<!-- Node10&#45;&gt;Node17 -->
<g id="edge19" class="edge"><title>Node10&#45;&gt;Node17</title>
<path fill="none" stroke="midnightblue" d="M1470.12,-120.781C1496.62,-103.953 1541.85,-77.0999 1584,-61 1592.83,-57.6256 1602.28,-54.6376 1611.74,-52.017"/>
<polygon fill="midnightblue" stroke="midnightblue" points="1468.08,-117.93 1461.56,-126.281 1471.86,-123.819 1468.08,-117.93"/>
</g>
<!-- Node13&#45;&gt;Node6 -->
<g id="edge15" class="edge"><title>Node13&#45;&gt;Node6</title>
<path fill="none" stroke="midnightblue" d="M1590.7,-222.033C1456.22,-220.682 1213.88,-218.248 1081.84,-216.922"/>
<polygon fill="midnightblue" stroke="midnightblue" points="1590.95,-225.535 1600.98,-222.136 1591.02,-218.536 1590.95,-225.535"/>
</g>
<!-- Node14 -->
<g id="node14" class="node"><title>Node14</title>
<g id="a_node14"><a xlink:href="../../df/dd5/classgame_player_1_1_view_controller.html#a13ea7814bde61a8042c5b1a23af41416" target="_top" xlink:title="gamePlayer.ViewController.end\lAction">
<polygon fill="white" stroke="black" points="1843,-208 1843,-238 2007,-238 2007,-208 1843,-208"/>
<text text-anchor="start" x="1851" y="-226" font-family="Helvetica,sans-Serif" font-size="10.00">gamePlayer.ViewController.end</text>
<text text-anchor="middle" x="1925" y="-215" font-family="Helvetica,sans-Serif" font-size="10.00">Action</text>
</a>
</g>
</g>
<!-- Node13&#45;&gt;Node14 -->
<g id="edge16" class="edge"><title>Node13&#45;&gt;Node14</title>
<path fill="none" stroke="midnightblue" d="M1785.39,-223C1804.5,-223 1824.38,-223 1842.92,-223"/>
<polygon fill="midnightblue" stroke="midnightblue" points="1785.17,-219.5 1775.17,-223 1785.17,-226.5 1785.17,-219.5"/>
</g>
<!-- Node15 -->
<g id="node15" class="node"><title>Node15</title>
<g id="a_node15"><a xlink:href="../../db/d00/classgame_player_1_1_apply_state.html#aed42c1aba25264bc6880036f693a1c9e" target="_top" xlink:title="gamePlayer.ApplyState.on\lClick">
<polygon fill="white" stroke="black" points="2059.5,-208 2059.5,-238 2202.5,-238 2202.5,-208 2059.5,-208"/>
<text text-anchor="start" x="2067.5" y="-226" font-family="Helvetica,sans-Serif" font-size="10.00">gamePlayer.ApplyState.on</text>
<text text-anchor="middle" x="2131" y="-215" font-family="Helvetica,sans-Serif" font-size="10.00">Click</text>
</a>
</g>
</g>
<!-- Node14&#45;&gt;Node15 -->
<g id="edge17" class="edge"><title>Node14&#45;&gt;Node15</title>
<path fill="none" stroke="midnightblue" d="M2017.38,-223C2031.44,-223 2045.76,-223 2059.28,-223"/>
<polygon fill="midnightblue" stroke="midnightblue" points="2017.21,-219.5 2007.21,-223 2017.21,-226.5 2017.21,-219.5"/>
</g>
<!-- Node18 -->
<g id="node18" class="node"><title>Node18</title>
<g id="a_node18"><a xlink:href="../../db/d40/classfxml__main_1_1_authoring_controller.html#a2ec133c8edf0a7ab1e84f2e12455233d" target="_top" xlink:title="fxml_main.AuthoringController.save\lAsGame">
<polygon fill="white" stroke="black" points="1831.5,-0 1831.5,-30 2018.5,-30 2018.5,-0 1831.5,-0"/>
<text text-anchor="start" x="1839.5" y="-18" font-family="Helvetica,sans-Serif" font-size="10.00">fxml_main.AuthoringController.save</text>
<text text-anchor="middle" x="1925" y="-7" font-family="Helvetica,sans-Serif" font-size="10.00">AsGame</text>
</a>
</g>
</g>
<!-- Node17&#45;&gt;Node18 -->
<g id="edge20" class="edge"><title>Node17&#45;&gt;Node18</title>
<path fill="none" stroke="midnightblue" d="M1780.77,-28.409C1797.38,-26.8542 1814.7,-25.2319 1831.34,-23.6747"/>
<polygon fill="midnightblue" stroke="midnightblue" points="1780.16,-24.9503 1770.53,-29.3672 1780.81,-31.9198 1780.16,-24.9503"/>
</g>
<!-- Node19 -->
<g id="node19" class="node"><title>Node19</title>
<g id="a_node19"><a xlink:href="../../df/dd5/classgame_player_1_1_view_controller.html#a2bf1dce04187ad5eacb5359ef2b4eff8" target="_top" xlink:title="gamePlayer.ViewController.newGame">
<polygon fill="white" stroke="black" points="1828,-49.5 1828,-68.5 2022,-68.5 2022,-49.5 1828,-49.5"/>
<text text-anchor="middle" x="1925" y="-56.5" font-family="Helvetica,sans-Serif" font-size="10.00">gamePlayer.ViewController.newGame</text>
</a>
</g>
</g>
<!-- Node17&#45;&gt;Node19 -->
<g id="edge21" class="edge"><title>Node17&#45;&gt;Node19</title>
<path fill="none" stroke="midnightblue" d="M1780.58,-45.5734C1796.03,-47.0194 1812.1,-48.5243 1827.66,-49.9812"/>
<polygon fill="midnightblue" stroke="midnightblue" points="1780.81,-42.0802 1770.53,-44.6328 1780.16,-49.0497 1780.81,-42.0802"/>
</g>
<!-- Node20 -->
<g id="node20" class="node"><title>Node20</title>
<g id="a_node20"><a xlink:href="../../df/dd5/classgame_player_1_1_view_controller.html#a2acd822c93c35674b6978a97b4ce6e3f" target="_top" xlink:title="gamePlayer.ViewController.\lViewController">
<polygon fill="white" stroke="black" points="2058,-44 2058,-74 2204,-74 2204,-44 2058,-44"/>
<text text-anchor="start" x="2066" y="-62" font-family="Helvetica,sans-Serif" font-size="10.00">gamePlayer.ViewController.</text>
<text text-anchor="middle" x="2131" y="-51" font-family="Helvetica,sans-Serif" font-size="10.00">ViewController</text>
</a>
</g>
</g>
<!-- Node19&#45;&gt;Node20 -->
<g id="edge22" class="edge"><title>Node19&#45;&gt;Node20</title>
<path fill="none" stroke="midnightblue" d="M2032.24,-59C2040.94,-59 2049.59,-59 2057.95,-59"/>
<polygon fill="midnightblue" stroke="midnightblue" points="2032.03,-55.5001 2022.03,-59 2032.03,-62.5001 2032.03,-55.5001"/>
</g>
<!-- Node22 -->
<g id="node22" class="node"><title>Node22</title>
<g id="a_node22"><a xlink:href="../../d6/d24/classgame_player_1_1_select_state.html#a801827392f0faeee6b96925060d77838" target="_top" xlink:title="gamePlayer.SelectState.on\lClick">
<polygon fill="white" stroke="black" points="915.5,-81 915.5,-111 1062.5,-111 1062.5,-81 915.5,-81"/>
<text text-anchor="start" x="923.5" y="-99" font-family="Helvetica,sans-Serif" font-size="10.00">gamePlayer.SelectState.on</text>
<text text-anchor="middle" x="989" y="-88" font-family="Helvetica,sans-Serif" font-size="10.00">Click</text>
</a>
</g>
</g>
<!-- Node21&#45;&gt;Node22 -->
<g id="edge24" class="edge"><title>Node21&#45;&gt;Node22</title>
<path fill="none" stroke="midnightblue" d="M837.006,-149.026C844.781,-146.741 852.583,-144.371 860,-142 889.915,-132.437 923.295,-120.394 948.466,-111.03"/>
<polygon fill="midnightblue" stroke="midnightblue" points="835.834,-145.722 827.204,-151.867 837.783,-152.445 835.834,-145.722"/>
</g>
<!-- Node23 -->
<g id="node23" class="node"><title>Node23</title>
<g id="a_node23"><a xlink:href="../../df/df0/classtests_1_1_view_controller_test.html#a785df2c49a72c183c22163ce927f5df1" target="_top" xlink:title="tests.ViewControllerTest.update\lActionsTest">
<polygon fill="white" stroke="black" points="905.5,-152 905.5,-182 1072.5,-182 1072.5,-152 905.5,-152"/>
<text text-anchor="start" x="913.5" y="-170" font-family="Helvetica,sans-Serif" font-size="10.00">tests.ViewControllerTest.update</text>
<text text-anchor="middle" x="989" y="-159" font-family="Helvetica,sans-Serif" font-size="10.00">ActionsTest</text>
</a>
</g>
</g>
<!-- Node21&#45;&gt;Node23 -->
<g id="edge25" class="edge"><title>Node21&#45;&gt;Node23</title>
<path fill="none" stroke="midnightblue" d="M870.436,-167C882.139,-167 893.983,-167 905.42,-167"/>
<polygon fill="midnightblue" stroke="midnightblue" points="870.202,-163.5 860.202,-167 870.202,-170.5 870.202,-163.5"/>
</g>
<!-- Node26 -->
<g id="node26" class="node"><title>Node26</title>
<g id="a_node26"><a xlink:href="../../df/dd5/classgame_player_1_1_view_controller.html#ac39aa40a815b8d3d277aecffe6d63426" target="_top" xlink:title="gamePlayer.ViewController.highlight\lSelected">
<polygon fill="white" stroke="black" points="456.5,-64 456.5,-94 643.5,-94 643.5,-64 456.5,-64"/>
<text text-anchor="start" x="464.5" y="-82" font-family="Helvetica,sans-Serif" font-size="10.00">gamePlayer.ViewController.highlight</text>
<text text-anchor="middle" x="550" y="-71" font-family="Helvetica,sans-Serif" font-size="10.00">Selected</text>
</a>
</g>
</g>
<!-- Node25&#45;&gt;Node26 -->
<g id="edge28" class="edge"><title>Node25&#45;&gt;Node26</title>
<path fill="none" stroke="midnightblue" d="M430.085,-82.157C438.852,-81.9243 447.666,-81.6903 456.316,-81.4606"/>
<polygon fill="midnightblue" stroke="midnightblue" points="429.731,-78.6651 419.828,-82.4293 429.917,-85.6626 429.731,-78.6651"/>
</g>
<!-- Node26&#45;&gt;Node22 -->
<g id="edge29" class="edge"><title>Node26&#45;&gt;Node22</title>
<path fill="none" stroke="midnightblue" d="M653.821,-82.9999C734.18,-86.126 843.871,-90.3932 915.309,-93.1722"/>
<polygon fill="midnightblue" stroke="midnightblue" points="653.805,-79.4967 643.676,-82.6053 653.533,-86.4914 653.805,-79.4967"/>
</g>
</g>
</svg>
