<?xml version="1.0" encoding="UTF-8" standalone="no"?>
<!DOCTYPE svg PUBLIC "-//W3C//DTD SVG 1.1//EN"
 "http://www.w3.org/Graphics/SVG/1.1/DTD/svg11.dtd">
<!-- Generated by graphviz version 2.36.0 (20140111.2315)
 -->
<!-- Title: gamePlayer.GameGridEffect.updateActives Pages: 1 -->
<!--zoomable 219 -->
<svg id="main" version="1.1" xmlns="http://www.w3.org/2000/svg" xmlns:xlink="http://www.w3.org/1999/xlink" xml:space="preserve" onload="init(evt)">
<style type="text/css"><![CDATA[
.edge:hover path { stroke: red; }
.edge:hover polygon { stroke: red; fill: red; }
]]></style>
<script type="text/javascript"><![CDATA[
var edges = document.getElementsByTagName('g');
if (edges && edges.length) {
  for (var i=0;i<edges.length;i++) {
    if (edges[i].id.substr(0,4)=='edge') {
      edges[i].setAttribute('class','edge');
    }
  }
}
]]></script>
        <defs>
                <circle id="rim" cx="0" cy="0" r="7"/>
                <circle id="rim2" cx="0" cy="0" r="3.5"/>
                <g id="zoomPlus">
                        <use xlink:href="#rim" fill="#404040">
                                <set attributeName="fill" to="#808080" begin="zoomplus.mouseover" end="zoomplus.mouseout"/>
                        </use>
                        <path d="M-4,0h8M0,-4v8" fill="none" stroke="white" stroke-width="1.5" pointer-events="none"/>
                </g>
                <g id="zoomMin">
                        <use xlink:href="#rim" fill="#404040">
                                <set attributeName="fill" to="#808080" begin="zoomminus.mouseover" end="zoomminus.mouseout"/>
                        </use>
                        <path d="M-4,0h8" fill="none" stroke="white" stroke-width="1.5" pointer-events="none"/>
                </g>
                <g id="dirArrow">
                        <path fill="none" stroke="white" stroke-width="1.5" d="M0,-3.0v7 M-2.5,-0.5L0,-3.0L2.5,-0.5"/>
                </g>
               <g id="resetDef">
                       <use xlink:href="#rim2" fill="#404040">
                               <set attributeName="fill" to="#808080" begin="reset.mouseover" end="reset.mouseout"/>
                       </use>
               </g>
        </defs>

<script type="text/javascript">
var viewWidth = 2204;
var viewHeight = 219;
var sectionId = 'dynsection-17';
</script>
<script xlink:href="../../svgpan.js"/>
<svg id="graph" class="graph">
<g id="viewport">
<title>gamePlayer.GameGridEffect.updateActives</title>
<polygon fill="white" stroke="none" points="-4,4 -4,-215.3 2200,-215.3 2200,4 -4,4"/>
<!-- Node1 -->
<g id="node1" class="node"><title>Node1</title>
<polygon fill="#bfbfbf" stroke="black" points="0,-77 0,-107 188,-107 188,-77 0,-77"/>
<text text-anchor="start" x="8" y="-95" font-family="Helvetica,sans-Serif" font-size="10.00">gamePlayer.GameGridEffect.update</text>
<text text-anchor="middle" x="94" y="-84" font-family="Helvetica,sans-Serif" font-size="10.00">Actives</text>
</g>
<!-- Node2 -->
<g id="node2" class="node"><title>Node2</title>
<g id="a_node2"><a xlink:href="../../d5/dfb/classgame_player_1_1_game_grid_effect.html#a2d475fdcd2837d14f9883d0cbf7a3c74" target="_top" xlink:title="gamePlayer.GameGridEffect.grey\lOutPiece">
<polygon fill="white" stroke="black" points="234,-126 234,-156 410,-156 410,-126 234,-126"/>
<text text-anchor="start" x="242" y="-144" font-family="Helvetica,sans-Serif" font-size="10.00">gamePlayer.GameGridEffect.grey</text>
<text text-anchor="middle" x="322" y="-133" font-family="Helvetica,sans-Serif" font-size="10.00">OutPiece</text>
</a>
</g>
</g>
<!-- Node1&#45;&gt;Node2 -->
<g id="edge1" class="edge"><title>Node1&#45;&gt;Node2</title>
<path fill="none" stroke="midnightblue" d="M174.263,-109.185C199.535,-114.665 227.286,-120.682 251.788,-125.994"/>
<polygon fill="midnightblue" stroke="midnightblue" points="174.858,-105.733 164.343,-107.035 173.375,-112.574 174.858,-105.733"/>
</g>
<!-- Node3 -->
<g id="node3" class="node"><title>Node3</title>
<g id="a_node3"><a xlink:href="../../d5/dfb/classgame_player_1_1_game_grid_effect.html#ae71ddafff23aecd0ee6697d732e0a919" target="_top" xlink:title="gamePlayer.GameGridEffect.highlight\lActionRange">
<polygon fill="white" stroke="black" points="224.5,-77 224.5,-107 419.5,-107 419.5,-77 224.5,-77"/>
<text text-anchor="start" x="232.5" y="-95" font-family="Helvetica,sans-Serif" font-size="10.00">gamePlayer.GameGridEffect.highlight</text>
<text text-anchor="middle" x="322" y="-84" font-family="Helvetica,sans-Serif" font-size="10.00">ActionRange</text>
</a>
</g>
</g>
<!-- Node1&#45;&gt;Node3 -->
<g id="edge2" class="edge"><title>Node1&#45;&gt;Node3</title>
<path fill="none" stroke="midnightblue" d="M198.341,-92C206.997,-92 215.728,-92 224.331,-92"/>
<polygon fill="midnightblue" stroke="midnightblue" points="198.228,-88.5001 188.228,-92 198.228,-95.5001 198.228,-88.5001"/>
</g>
<!-- Node22 -->
<g id="node22" class="node"><title>Node22</title>
<g id="a_node22"><a xlink:href="../../d5/dfb/classgame_player_1_1_game_grid_effect.html#a1c6be8631bc6b597b5ed7dc9cd7e62fe" target="_top" xlink:title="gamePlayer.GameGridEffect.highlight\lCurrent">
<polygon fill="white" stroke="black" points="224.5,-6 224.5,-36 419.5,-36 419.5,-6 224.5,-6"/>
<text text-anchor="start" x="232.5" y="-24" font-family="Helvetica,sans-Serif" font-size="10.00">gamePlayer.GameGridEffect.highlight</text>
<text text-anchor="middle" x="322" y="-13" font-family="Helvetica,sans-Serif" font-size="10.00">Current</text>
</a>
</g>
</g>
<!-- Node1&#45;&gt;Node22 -->
<g id="edge24" class="edge"><title>Node1&#45;&gt;Node22</title>
<path fill="none" stroke="midnightblue" d="M152.657,-73.8866C189.961,-62.1672 237.95,-47.0909 273.14,-36.0356"/>
<polygon fill="midnightblue" stroke="midnightblue" points="151.42,-70.6064 142.929,-76.9427 153.518,-77.2846 151.42,-70.6064"/>
</g>
<!-- Node4 -->
<g id="node4" class="node"><title>Node4</title>
<g id="a_node4"><a xlink:href="../../df/dd5/classgame_player_1_1_view_controller.html#a7eb038fd9f20604ade0406f27ef76657" target="_top" xlink:title="gamePlayer.ViewController.bind\lAction">
<polygon fill="white" stroke="black" points="466.5,-88 466.5,-118 633.5,-118 633.5,-88 466.5,-88"/>
<text text-anchor="start" x="474.5" y="-106" font-family="Helvetica,sans-Serif" font-size="10.00">gamePlayer.ViewController.bind</text>
<text text-anchor="middle" x="550" y="-95" font-family="Helvetica,sans-Serif" font-size="10.00">Action</text>
</a>
</g>
</g>
<!-- Node3&#45;&gt;Node4 -->
<g id="edge3" class="edge"><title>Node3&#45;&gt;Node4</title>
<path fill="none" stroke="midnightblue" d="M430.017,-97.2088C442.187,-97.8012 454.451,-98.398 466.24,-98.9719"/>
<polygon fill="midnightblue" stroke="midnightblue" points="429.986,-93.7032 419.828,-96.7129 429.646,-100.695 429.986,-93.7032"/>
</g>
<!-- Node5 -->
<g id="node5" class="node"><title>Node5</title>
<g id="a_node5"><a xlink:href="../../d1/db7/classgame_player_1_1_keyboard_action.html#a08ace57322b8639020688dd9493c3e1f" target="_top" xlink:title="gamePlayer.KeyboardAction.set\lActionKeyControl">
<polygon fill="white" stroke="black" points="686,-137 686,-167 854,-167 854,-137 686,-137"/>
<text text-anchor="start" x="694" y="-155" font-family="Helvetica,sans-Serif" font-size="10.00">gamePlayer.KeyboardAction.set</text>
<text text-anchor="middle" x="770" y="-144" font-family="Helvetica,sans-Serif" font-size="10.00">ActionKeyControl</text>
</a>
</g>
</g>
<!-- Node4&#45;&gt;Node5 -->
<g id="edge4" class="edge"><title>Node4&#45;&gt;Node5</title>
<path fill="none" stroke="midnightblue" d="M627.781,-120.258C652.072,-125.718 678.708,-131.705 702.238,-136.994"/>
<polygon fill="midnightblue" stroke="midnightblue" points="628.413,-116.813 617.889,-118.035 626.878,-123.642 628.413,-116.813"/>
</g>
<!-- Node18 -->
<g id="node18" class="node"><title>Node18</title>
<g id="a_node18"><a xlink:href="../../df/dd5/classgame_player_1_1_view_controller.html#ab8c14a8c53be9021a62d0107c2f75ef6" target="_top" xlink:title="gamePlayer.ViewController.update\lActions">
<polygon fill="white" stroke="black" points="680,-88 680,-118 860,-118 860,-88 680,-88"/>
<text text-anchor="start" x="688" y="-106" font-family="Helvetica,sans-Serif" font-size="10.00">gamePlayer.ViewController.update</text>
<text text-anchor="middle" x="770" y="-95" font-family="Helvetica,sans-Serif" font-size="10.00">Actions</text>
</a>
</g>
</g>
<!-- Node4&#45;&gt;Node18 -->
<g id="edge20" class="edge"><title>Node4&#45;&gt;Node18</title>
<path fill="none" stroke="midnightblue" d="M644.056,-103C655.901,-103 668.002,-103 679.785,-103"/>
<polygon fill="midnightblue" stroke="midnightblue" points="643.727,-99.5001 633.727,-103 643.727,-106.5 643.727,-99.5001"/>
</g>
<!-- Node21 -->
<g id="node21" class="node"><title>Node21</title>
<g id="a_node21"><a xlink:href="../../df/df0/classtests_1_1_view_controller_test.html#a74e99f9c72cbdcd2d56271b2ad2df1ce" target="_top" xlink:title="tests.ViewControllerTest.bind\lActionTest">
<polygon fill="white" stroke="black" points="693,-39 693,-69 847,-69 847,-39 693,-39"/>
<text text-anchor="start" x="701" y="-57" font-family="Helvetica,sans-Serif" font-size="10.00">tests.ViewControllerTest.bind</text>
<text text-anchor="middle" x="770" y="-46" font-family="Helvetica,sans-Serif" font-size="10.00">ActionTest</text>
</a>
</g>
</g>
<!-- Node4&#45;&gt;Node21 -->
<g id="edge23" class="edge"><title>Node4&#45;&gt;Node21</title>
<path fill="none" stroke="midnightblue" d="M627.781,-85.7419C652.072,-80.282 678.708,-74.295 702.238,-69.0062"/>
<polygon fill="midnightblue" stroke="midnightblue" points="626.878,-82.3575 617.889,-87.9654 628.413,-89.1871 626.878,-82.3575"/>
</g>
<!-- Node6 -->
<g id="node6" class="node"><title>Node6</title>
<g id="a_node6"><a xlink:href="../../df/dd5/classgame_player_1_1_view_controller.html#a95c2acd43bb39b8606c69971c1cd30f5" target="_top" xlink:title="gamePlayer.ViewController.perform\lAction">
<polygon fill="white" stroke="black" points="896.5,-137 896.5,-167 1081.5,-167 1081.5,-137 896.5,-137"/>
<text text-anchor="start" x="904.5" y="-155" font-family="Helvetica,sans-Serif" font-size="10.00">gamePlayer.ViewController.perform</text>
<text text-anchor="middle" x="989" y="-144" font-family="Helvetica,sans-Serif" font-size="10.00">Action</text>
</a>
</g>
</g>
<!-- Node5&#45;&gt;Node6 -->
<g id="edge5" class="edge"><title>Node5&#45;&gt;Node6</title>
<path fill="none" stroke="midnightblue" d="M864.351,-152C874.935,-152 885.715,-152 896.277,-152"/>
<polygon fill="midnightblue" stroke="midnightblue" points="864.277,-148.5 854.277,-152 864.277,-155.5 864.277,-148.5"/>
</g>
<!-- Node7 -->
<g id="node7" class="node"><title>Node7</title>
<g id="a_node7"><a xlink:href="../../da/d55/classgame_player_1_1_keyboard_movement.html#af45fd8d279b1ee2d6be5466d425485ab" target="_top" xlink:title="gamePlayer.KeyboardMovement.set\lMovementKeyControl">
<polygon fill="white" stroke="black" points="1118.5,-181 1118.5,-211 1307.5,-211 1307.5,-181 1118.5,-181"/>
<text text-anchor="start" x="1126.5" y="-199" font-family="Helvetica,sans-Serif" font-size="10.00">gamePlayer.KeyboardMovement.set</text>
<text text-anchor="middle" x="1213" y="-188" font-family="Helvetica,sans-Serif" font-size="10.00">MovementKeyControl</text>
</a>
</g>
</g>
<!-- Node6&#45;&gt;Node7 -->
<g id="edge6" class="edge"><title>Node6&#45;&gt;Node7</title>
<path fill="none" stroke="midnightblue" d="M1091.67,-165.423C1117.14,-170.355 1143.28,-175.895 1164.65,-180.969"/>
<polygon fill="midnightblue" stroke="midnightblue" points="1092.06,-161.933 1081.58,-163.493 1090.74,-168.808 1092.06,-161.933"/>
</g>
<!-- Node9 -->
<g id="node9" class="node"><title>Node9</title>
<g id="a_node9"><a xlink:href="../../df/dd5/classgame_player_1_1_view_controller.html#a22ee80193bbac79a935ee961a183bfcd" target="_top" xlink:title="gamePlayer.ViewController.set\lOnClick">
<polygon fill="white" stroke="black" points="1132.5,-93 1132.5,-123 1293.5,-123 1293.5,-93 1132.5,-93"/>
<text text-anchor="start" x="1140.5" y="-111" font-family="Helvetica,sans-Serif" font-size="10.00">gamePlayer.ViewController.set</text>
<text text-anchor="middle" x="1213" y="-100" font-family="Helvetica,sans-Serif" font-size="10.00">OnClick</text>
</a>
</g>
</g>
<!-- Node6&#45;&gt;Node9 -->
<g id="edge10" class="edge"><title>Node6&#45;&gt;Node9</title>
<path fill="none" stroke="midnightblue" d="M1075.76,-135.002C1095.68,-131.055 1116.73,-126.881 1136.19,-123.026"/>
<polygon fill="midnightblue" stroke="midnightblue" points="1074.91,-131.603 1065.78,-136.981 1076.27,-138.47 1074.91,-131.603"/>
</g>
<!-- Node7&#45;&gt;Node4 -->
<g id="edge7" class="edge"><title>Node7&#45;&gt;Node4</title>
<path fill="none" stroke="midnightblue" d="M1108.13,-206.384C999.232,-213.996 824.219,-216.889 680,-176 637.913,-164.067 594.836,-135.791 570.644,-118.14"/>
<polygon fill="midnightblue" stroke="midnightblue" points="1108.42,-209.873 1118.14,-205.659 1107.91,-202.891 1108.42,-209.873"/>
</g>
<!-- Node7&#45;&gt;Node6 -->
<g id="edge8" class="edge"><title>Node7&#45;&gt;Node6</title>
<path fill="none" stroke="midnightblue" d="M1108.26,-182.177C1083.45,-177.347 1058.15,-171.969 1037.35,-167.032"/>
<polygon fill="midnightblue" stroke="midnightblue" points="1107.63,-185.618 1118.11,-184.069 1108.95,-178.744 1107.63,-185.618"/>
</g>
<!-- Node8 -->
<g id="node8" class="node"><title>Node8</title>
<g id="a_node8"><a xlink:href="../../df/dd5/classgame_player_1_1_view_controller.html#a27da17c1280cd953a14f6b76b18f9a4b" target="_top" xlink:title="gamePlayer.ViewController.toggle\lKeyboardControl">
<polygon fill="white" stroke="black" points="1358,-181 1358,-211 1534,-211 1534,-181 1358,-181"/>
<text text-anchor="start" x="1366" y="-199" font-family="Helvetica,sans-Serif" font-size="10.00">gamePlayer.ViewController.toggle</text>
<text text-anchor="middle" x="1446" y="-188" font-family="Helvetica,sans-Serif" font-size="10.00">KeyboardControl</text>
</a>
</g>
</g>
<!-- Node7&#45;&gt;Node8 -->
<g id="edge9" class="edge"><title>Node7&#45;&gt;Node8</title>
<path fill="none" stroke="midnightblue" d="M1317.83,-196C1331.24,-196 1344.86,-196 1357.96,-196"/>
<polygon fill="midnightblue" stroke="midnightblue" points="1317.62,-192.5 1307.62,-196 1317.62,-199.5 1317.62,-192.5"/>
</g>
<!-- Node10 -->
<g id="node10" class="node"><title>Node10</title>
<g id="a_node10"><a xlink:href="../../df/dd5/classgame_player_1_1_view_controller.html#a10a40967a873f067cf91b024ff85b38e" target="_top" xlink:title="gamePlayer.ViewController.initializeGrid">
<polygon fill="white" stroke="black" points="1344,-98.5 1344,-117.5 1548,-117.5 1548,-98.5 1344,-98.5"/>
<text text-anchor="middle" x="1446" y="-105.5" font-family="Helvetica,sans-Serif" font-size="10.00">gamePlayer.ViewController.initializeGrid</text>
</a>
</g>
</g>
<!-- Node9&#45;&gt;Node10 -->
<g id="edge11" class="edge"><title>Node9&#45;&gt;Node10</title>
<path fill="none" stroke="midnightblue" d="M1304.18,-108C1317.23,-108 1330.74,-108 1343.99,-108"/>
<polygon fill="midnightblue" stroke="midnightblue" points="1303.82,-104.5 1293.82,-108 1303.82,-111.5 1303.82,-104.5"/>
</g>
<!-- Node11 -->
<g id="node11" class="node"><title>Node11</title>
<g id="a_node11"><a xlink:href="../../df/dd5/classgame_player_1_1_view_controller.html#a0d1a3d443966f151b070dc751d2faf9a" target="_top" xlink:title="gamePlayer.ViewController.restartGame">
<polygon fill="white" stroke="black" points="1584,-98.5 1584,-117.5 1792,-117.5 1792,-98.5 1584,-98.5"/>
<text text-anchor="middle" x="1688" y="-105.5" font-family="Helvetica,sans-Serif" font-size="10.00">gamePlayer.ViewController.restartGame</text>
</a>
</g>
</g>
<!-- Node10&#45;&gt;Node11 -->
<g id="edge12" class="edge"><title>Node10&#45;&gt;Node11</title>
<path fill="none" stroke="midnightblue" d="M1558.36,-108C1566.81,-108 1575.32,-108 1583.72,-108"/>
<polygon fill="midnightblue" stroke="midnightblue" points="1558.09,-104.5 1548.09,-108 1558.09,-111.5 1558.09,-104.5"/>
</g>
<!-- Node12 -->
<g id="node12" class="node"><title>Node12</title>
<g id="a_node12"><a xlink:href="../../df/dd5/classgame_player_1_1_view_controller.html#af1870a0b6786d96d118021fc62b6475d" target="_top" xlink:title="gamePlayer.ViewController.beginGame">
<polygon fill="white" stroke="black" points="1587,-60.5 1587,-79.5 1789,-79.5 1789,-60.5 1587,-60.5"/>
<text text-anchor="middle" x="1688" y="-67.5" font-family="Helvetica,sans-Serif" font-size="10.00">gamePlayer.ViewController.beginGame</text>
</a>
</g>
</g>
<!-- Node10&#45;&gt;Node12 -->
<g id="edge13" class="edge"><title>Node10&#45;&gt;Node12</title>
<path fill="none" stroke="midnightblue" d="M1517.32,-96.8659C1552.03,-91.3697 1593.48,-84.8071 1626.72,-79.5439"/>
<polygon fill="midnightblue" stroke="midnightblue" points="1516.58,-93.4392 1507.25,-98.46 1517.68,-100.353 1516.58,-93.4392"/>
</g>
<!-- Node13 -->
<g id="node13" class="node"><title>Node13</title>
<g id="a_node13"><a xlink:href="../../df/dd5/classgame_player_1_1_view_controller.html#a4c1754d129a4eac955390b428eaa448a" target="_top" xlink:title="gamePlayer.ViewController.test\lPlayGame">
<polygon fill="white" stroke="black" points="1605.5,-11 1605.5,-41 1770.5,-41 1770.5,-11 1605.5,-11"/>
<text text-anchor="start" x="1613.5" y="-29" font-family="Helvetica,sans-Serif" font-size="10.00">gamePlayer.ViewController.test</text>
<text text-anchor="middle" x="1688" y="-18" font-family="Helvetica,sans-Serif" font-size="10.00">PlayGame</text>
</a>
</g>
</g>
<!-- Node10&#45;&gt;Node13 -->
<g id="edge14" class="edge"><title>Node10&#45;&gt;Node13</title>
<path fill="none" stroke="midnightblue" d="M1476.44,-94.1742C1503.85,-81.6856 1546.06,-63.4137 1584,-51 1595.02,-47.3952 1606.85,-44.0506 1618.43,-41.0565"/>
<polygon fill="midnightblue" stroke="midnightblue" points="1474.67,-91.1349 1467.05,-98.4921 1477.6,-97.4949 1474.67,-91.1349"/>
</g>
<!-- Node15 -->
<g id="node15" class="node"><title>Node15</title>
<g id="a_node15"><a xlink:href="../../df/dd5/classgame_player_1_1_view_controller.html#a620f8a02d3ac7677cd179fcd812aca55" target="_top" xlink:title="gamePlayer.ViewController.check\lEndActions">
<polygon fill="white" stroke="black" points="1601,-137 1601,-167 1775,-167 1775,-137 1601,-137"/>
<text text-anchor="start" x="1609" y="-155" font-family="Helvetica,sans-Serif" font-size="10.00">gamePlayer.ViewController.check</text>
<text text-anchor="middle" x="1688" y="-144" font-family="Helvetica,sans-Serif" font-size="10.00">EndActions</text>
</a>
</g>
</g>
<!-- Node10&#45;&gt;Node15 -->
<g id="edge16" class="edge"><title>Node10&#45;&gt;Node15</title>
<path fill="none" stroke="midnightblue" d="M1509.13,-119.39C1538.31,-124.739 1573.48,-131.189 1604.83,-136.935"/>
<polygon fill="midnightblue" stroke="midnightblue" points="1509.54,-115.908 1499.08,-117.547 1508.28,-122.793 1509.54,-115.908"/>
</g>
<!-- Node14 -->
<g id="node14" class="node"><title>Node14</title>
<g id="a_node14"><a xlink:href="../../db/d40/classfxml__main_1_1_authoring_controller.html#a2ec133c8edf0a7ab1e84f2e12455233d" target="_top" xlink:title="fxml_main.AuthoringController.save\lAsGame">
<polygon fill="white" stroke="black" points="1828.5,-11 1828.5,-41 2015.5,-41 2015.5,-11 1828.5,-11"/>
<text text-anchor="start" x="1836.5" y="-29" font-family="Helvetica,sans-Serif" font-size="10.00">fxml_main.AuthoringController.save</text>
<text text-anchor="middle" x="1922" y="-18" font-family="Helvetica,sans-Serif" font-size="10.00">AsGame</text>
</a>
</g>
</g>
<!-- Node13&#45;&gt;Node14 -->
<g id="edge15" class="edge"><title>Node13&#45;&gt;Node14</title>
<path fill="none" stroke="midnightblue" d="M1780.96,-26C1796.59,-26 1812.83,-26 1828.47,-26"/>
<polygon fill="midnightblue" stroke="midnightblue" points="1780.79,-22.5001 1770.79,-26 1780.79,-29.5001 1780.79,-22.5001"/>
</g>
<!-- Node15&#45;&gt;Node6 -->
<g id="edge17" class="edge"><title>Node15&#45;&gt;Node6</title>
<path fill="none" stroke="midnightblue" d="M1590.7,-152C1456.22,-152 1213.88,-152 1081.84,-152"/>
<polygon fill="midnightblue" stroke="midnightblue" points="1590.98,-155.5 1600.98,-152 1590.98,-148.5 1590.98,-155.5"/>
</g>
<!-- Node16 -->
<g id="node16" class="node"><title>Node16</title>
<g id="a_node16"><a xlink:href="../../df/dd5/classgame_player_1_1_view_controller.html#a13ea7814bde61a8042c5b1a23af41416" target="_top" xlink:title="gamePlayer.ViewController.end\lAction">
<polygon fill="white" stroke="black" points="1840,-137 1840,-167 2004,-167 2004,-137 1840,-137"/>
<text text-anchor="start" x="1848" y="-155" font-family="Helvetica,sans-Serif" font-size="10.00">gamePlayer.ViewController.end</text>
<text text-anchor="middle" x="1922" y="-144" font-family="Helvetica,sans-Serif" font-size="10.00">Action</text>
</a>
</g>
</g>
<!-- Node15&#45;&gt;Node16 -->
<g id="edge18" class="edge"><title>Node15&#45;&gt;Node16</title>
<path fill="none" stroke="midnightblue" d="M1785.06,-152C1803.22,-152 1822.05,-152 1839.7,-152"/>
<polygon fill="midnightblue" stroke="midnightblue" points="1785.06,-148.5 1775.06,-152 1785.06,-155.5 1785.06,-148.5"/>
</g>
<!-- Node17 -->
<g id="node17" class="node"><title>Node17</title>
<g id="a_node17"><a xlink:href="../../db/d00/classgame_player_1_1_apply_state.html#aed42c1aba25264bc6880036f693a1c9e" target="_top" xlink:title="gamePlayer.ApplyState.on\lClick">
<polygon fill="white" stroke="black" points="2052.5,-137 2052.5,-167 2195.5,-167 2195.5,-137 2052.5,-137"/>
<text text-anchor="start" x="2060.5" y="-155" font-family="Helvetica,sans-Serif" font-size="10.00">gamePlayer.ApplyState.on</text>
<text text-anchor="middle" x="2124" y="-144" font-family="Helvetica,sans-Serif" font-size="10.00">Click</text>
</a>
</g>
</g>
<!-- Node16&#45;&gt;Node17 -->
<g id="edge19" class="edge"><title>Node16&#45;&gt;Node17</title>
<path fill="none" stroke="midnightblue" d="M2014.27,-152C2027.08,-152 2040.08,-152 2052.43,-152"/>
<polygon fill="midnightblue" stroke="midnightblue" points="2014.06,-148.5 2004.06,-152 2014.06,-155.5 2014.06,-148.5"/>
</g>
<!-- Node19 -->
<g id="node19" class="node"><title>Node19</title>
<g id="a_node19"><a xlink:href="../../d6/d24/classgame_player_1_1_select_state.html#a801827392f0faeee6b96925060d77838" target="_top" xlink:title="gamePlayer.SelectState.on\lClick">
<polygon fill="white" stroke="black" points="915.5,-17 915.5,-47 1062.5,-47 1062.5,-17 915.5,-17"/>
<text text-anchor="start" x="923.5" y="-35" font-family="Helvetica,sans-Serif" font-size="10.00">gamePlayer.SelectState.on</text>
<text text-anchor="middle" x="989" y="-24" font-family="Helvetica,sans-Serif" font-size="10.00">Click</text>
</a>
</g>
</g>
<!-- Node18&#45;&gt;Node19 -->
<g id="edge21" class="edge"><title>Node18&#45;&gt;Node19</title>
<path fill="none" stroke="midnightblue" d="M837.006,-85.0259C844.781,-82.7413 852.583,-80.371 860,-78 889.915,-68.4366 923.295,-56.3941 948.466,-47.0299"/>
<polygon fill="midnightblue" stroke="midnightblue" points="835.834,-81.7216 827.204,-87.8675 837.783,-88.4449 835.834,-81.7216"/>
</g>
<!-- Node20 -->
<g id="node20" class="node"><title>Node20</title>
<g id="a_node20"><a xlink:href="../../df/df0/classtests_1_1_view_controller_test.html#a785df2c49a72c183c22163ce927f5df1" target="_top" xlink:title="tests.ViewControllerTest.update\lActionsTest">
<polygon fill="white" stroke="black" points="905.5,-88 905.5,-118 1072.5,-118 1072.5,-88 905.5,-88"/>
<text text-anchor="start" x="913.5" y="-106" font-family="Helvetica,sans-Serif" font-size="10.00">tests.ViewControllerTest.update</text>
<text text-anchor="middle" x="989" y="-95" font-family="Helvetica,sans-Serif" font-size="10.00">ActionsTest</text>
</a>
</g>
</g>
<!-- Node18&#45;&gt;Node20 -->
<g id="edge22" class="edge"><title>Node18&#45;&gt;Node20</title>
<path fill="none" stroke="midnightblue" d="M870.436,-103C882.139,-103 893.983,-103 905.42,-103"/>
<polygon fill="midnightblue" stroke="midnightblue" points="870.202,-99.5001 860.202,-103 870.202,-106.5 870.202,-99.5001"/>
</g>
<!-- Node23 -->
<g id="node23" class="node"><title>Node23</title>
<g id="a_node23"><a xlink:href="../../df/dd5/classgame_player_1_1_view_controller.html#ac39aa40a815b8d3d277aecffe6d63426" target="_top" xlink:title="gamePlayer.ViewController.highlight\lSelected">
<polygon fill="white" stroke="black" points="456.5,-0 456.5,-30 643.5,-30 643.5,-0 456.5,-0"/>
<text text-anchor="start" x="464.5" y="-18" font-family="Helvetica,sans-Serif" font-size="10.00">gamePlayer.ViewController.highlight</text>
<text text-anchor="middle" x="550" y="-7" font-family="Helvetica,sans-Serif" font-size="10.00">Selected</text>
</a>
</g>
</g>
<!-- Node22&#45;&gt;Node23 -->
<g id="edge25" class="edge"><title>Node22&#45;&gt;Node23</title>
<path fill="none" stroke="midnightblue" d="M430.085,-18.157C438.852,-17.9243 447.666,-17.6903 456.316,-17.4606"/>
<polygon fill="midnightblue" stroke="midnightblue" points="429.731,-14.6651 419.828,-18.4293 429.917,-21.6626 429.731,-14.6651"/>
</g>
<!-- Node23&#45;&gt;Node19 -->
<g id="edge26" class="edge"><title>Node23&#45;&gt;Node19</title>
<path fill="none" stroke="midnightblue" d="M653.821,-18.9999C734.18,-22.126 843.871,-26.3932 915.309,-29.1722"/>
<polygon fill="midnightblue" stroke="midnightblue" points="653.805,-15.4967 643.676,-18.6053 653.533,-22.4914 653.805,-15.4967"/>
</g>
</g>
</svg>
        <g id="navigator" transform="translate(0 0)" fill="#404254">
                <rect fill="#f2f5e9" fill-opacity="0.5" stroke="#606060" stroke-width=".5" x="0" y="0" width="60" height="60"/>
                <use id="zoomplus" xlink:href="#zoomPlus" x="17" y="9" onmousedown="handleZoom(evt,'in')"/>
                <use id="zoomminus" xlink:href="#zoomMin" x="42" y="9" onmousedown="handleZoom(evt,'out')"/>
                <use id="reset" xlink:href="#resetDef" x="30" y="36" onmousedown="handleReset()"/>
                <g id="arrowUp" xlink:href="#dirArrow" transform="translate(30 24)" onmousedown="handlePan(0,-1)">
                  <use xlink:href="#rim" fill="#404040">
                        <set attributeName="fill" to="#808080" begin="arrowUp.mouseover" end="arrowUp.mouseout"/>
                  </use>
                  <path fill="none" stroke="white" stroke-width="1.5" d="M0,-3.0v7 M-2.5,-0.5L0,-3.0L2.5,-0.5"/>
                </g>
                <g id="arrowRight" xlink:href="#dirArrow" transform="rotate(90) translate(36 -43)" onmousedown="handlePan(1,0)">
                  <use xlink:href="#rim" fill="#404040">
                        <set attributeName="fill" to="#808080" begin="arrowRight.mouseover" end="arrowRight.mouseout"/>
                  </use>
                  <path fill="none" stroke="white" stroke-width="1.5" d="M0,-3.0v7 M-2.5,-0.5L0,-3.0L2.5,-0.5"/>
                </g>
                <g id="arrowDown" xlink:href="#dirArrow" transform="rotate(180) translate(-30 -48)" onmousedown="handlePan(0,1)">
                  <use xlink:href="#rim" fill="#404040">
                        <set attributeName="fill" to="#808080" begin="arrowDown.mouseover" end="arrowDown.mouseout"/>
                  </use>
                  <path fill="none" stroke="white" stroke-width="1.5" d="M0,-3.0v7 M-2.5,-0.5L0,-3.0L2.5,-0.5"/>
                </g>
                <g id="arrowLeft" xlink:href="#dirArrow" transform="rotate(270) translate(-36 17)" onmousedown="handlePan(-1,0)">
                  <use xlink:href="#rim" fill="#404040">
                        <set attributeName="fill" to="#808080" begin="arrowLeft.mouseover" end="arrowLeft.mouseout"/>
                  </use>
                  <path fill="none" stroke="white" stroke-width="1.5" d="M0,-3.0v7 M-2.5,-0.5L0,-3.0L2.5,-0.5"/>
                </g>
        </g>
        <svg viewBox="0 0 15 15" width="100%" height="30px" preserveAspectRatio="xMaxYMin meet">
         <g id="arrow_out" transform="scale(0.3 0.3)">
          <a xlink:href="classgame_player_1_1_game_grid_effect_a5e34f8b7cca52de2db06626494e76457_icgraph_org.svg" target="_base">
           <rect id="button" ry="5" rx="5" y="6" x="6" height="38" width="38"
                fill="#f2f5e9" fill-opacity="0.5" stroke="#606060" stroke-width="1.0"/>
           <path id="arrow"
             d="M 11.500037,31.436501 C 11.940474,20.09759 22.043105,11.32322 32.158766,21.979434 L 37.068811,17.246167 C 37.068811,17.246167 37.088388,32 37.088388,32 L 22.160133,31.978069 C 22.160133,31.978069 26.997745,27.140456 26.997745,27.140456 C 18.528582,18.264221 13.291696,25.230495 11.500037,31.436501 z"
             style="fill:#404040;"/>
          </a>
         </g>
        </svg>
</svg>
