<?xml version="1.0" encoding="UTF-8" standalone="no"?>
<!DOCTYPE svg PUBLIC "-//W3C//DTD SVG 1.1//EN"
 "http://www.w3.org/Graphics/SVG/1.1/DTD/svg11.dtd">
<!-- Generated by graphviz version 2.36.0 (20140111.2315)
 -->
<!-- Title: gamePlayer.GameGridEffect.highlightActionRange Pages: 1 -->
<svg width="626pt" height="395pt"
 viewBox="0.00 0.00 626.00 395.00" xmlns="http://www.w3.org/2000/svg" xmlns:xlink="http://www.w3.org/1999/xlink">
<g id="graph0" class="graph" transform="scale(1 1) rotate(0) translate(4 391)">
<title>gamePlayer.GameGridEffect.highlightActionRange</title>
<polygon fill="white" stroke="none" points="-4,4 -4,-391 622,-391 622,4 -4,4"/>
<!-- Node1 -->
<g id="node1" class="node"><title>Node1</title>
<polygon fill="#bfbfbf" stroke="black" points="0.5,-195 0.5,-225 195.5,-225 195.5,-195 0.5,-195"/>
<text text-anchor="start" x="8.5" y="-213" font-family="Helvetica,sans-Serif" font-size="10.00">gamePlayer.GameGridEffect.highlight</text>
<text text-anchor="middle" x="98" y="-202" font-family="Helvetica,sans-Serif" font-size="10.00">ActionRange</text>
</g>
<!-- Node2 -->
<g id="node2" class="node"><title>Node2</title>
<g id="a_node2"><a xlink:href="../../d5/dfb/classgame_player_1_1_game_grid_effect.html#a15e8c38e57010ae65b1f98bcca6ca3c1" target="_top" xlink:title="gamePlayer.GameGridEffect.clear\lAllActionHighlights">
<polygon fill="white" stroke="black" points="237,-357 237,-387 415,-387 415,-357 237,-357"/>
<text text-anchor="start" x="245" y="-375" font-family="Helvetica,sans-Serif" font-size="10.00">gamePlayer.GameGridEffect.clear</text>
<text text-anchor="middle" x="326" y="-364" font-family="Helvetica,sans-Serif" font-size="10.00">AllActionHighlights</text>
</a>
</g>
</g>
<!-- Node1&#45;&gt;Node2 -->
<g id="edge1" class="edge"><title>Node1&#45;&gt;Node2</title>
<path fill="none" stroke="midnightblue" d="M110.434,-225.388C131.514,-252.716 179.203,-309.859 232,-342 239.083,-346.312 246.851,-350.07 254.784,-353.33"/>
<polygon fill="midnightblue" stroke="midnightblue" points="253.552,-356.606 264.142,-356.931 256.066,-350.073 253.552,-356.606"/>
</g>
<!-- Node3 -->
<g id="node3" class="node"><title>Node3</title>
<g id="a_node3"><a xlink:href="../../d9/df3/classauthoring__environment_1_1_super_grid.html#aa57ca0acf0ef3aab7d5d98cf9cbbd1d7" target="_top" xlink:title="authoring_environment.Super\lGrid.findTile">
<polygon fill="white" stroke="black" points="457,-335 457,-365 617,-365 617,-335 457,-335"/>
<text text-anchor="start" x="465" y="-353" font-family="Helvetica,sans-Serif" font-size="10.00">authoring_environment.Super</text>
<text text-anchor="middle" x="537" y="-342" font-family="Helvetica,sans-Serif" font-size="10.00">Grid.findTile</text>
</a>
</g>
</g>
<!-- Node1&#45;&gt;Node3 -->
<g id="edge3" class="edge"><title>Node1&#45;&gt;Node3</title>
<path fill="none" stroke="midnightblue" d="M114.175,-225.271C137.336,-247.554 183.909,-288.448 232,-308 300.61,-335.895 384.346,-345.879 446.55,-349.18"/>
<polygon fill="midnightblue" stroke="midnightblue" points="446.576,-352.685 456.733,-349.671 446.913,-345.693 446.576,-352.685"/>
</g>
<!-- Node4 -->
<g id="node4" class="node"><title>Node4</title>
<g id="a_node4"><a xlink:href="../../d8/d85/interfacegamedata_1_1action_1_1_action.html#adc36be3a570d0bad2636b91cee6f4065" target="_top" xlink:title="gamedata.action.Action.get\lAbsoluteActionRange">
<polygon fill="white" stroke="black" points="251,-269 251,-299 401,-299 401,-269 251,-269"/>
<text text-anchor="start" x="259" y="-287" font-family="Helvetica,sans-Serif" font-size="10.00">gamedata.action.Action.get</text>
<text text-anchor="middle" x="326" y="-276" font-family="Helvetica,sans-Serif" font-size="10.00">AbsoluteActionRange</text>
</a>
</g>
</g>
<!-- Node1&#45;&gt;Node4 -->
<g id="edge4" class="edge"><title>Node1&#45;&gt;Node4</title>
<path fill="none" stroke="midnightblue" d="M137.095,-225.077C163.518,-235.277 199.638,-248.712 232,-259 239.703,-261.449 247.813,-263.864 255.902,-266.172"/>
<polygon fill="midnightblue" stroke="midnightblue" points="255.155,-269.597 265.729,-268.927 257.045,-262.857 255.155,-269.597"/>
</g>
<!-- Node5 -->
<g id="node5" class="node"><title>Node5</title>
<g id="a_node5"><a xlink:href="../../d9/df2/classgamedata_1_1gamecomponents_1_1_grid_component.html#a97439a493db38860397436079b123e8c" target="_top" xlink:title="gamedata.gamecomponents.\lGridComponent.getLoc">
<polygon fill="white" stroke="black" points="246,-220 246,-250 406,-250 406,-220 246,-220"/>
<text text-anchor="start" x="254" y="-238" font-family="Helvetica,sans-Serif" font-size="10.00">gamedata.gamecomponents.</text>
<text text-anchor="middle" x="326" y="-227" font-family="Helvetica,sans-Serif" font-size="10.00">GridComponent.getLoc</text>
</a>
</g>
</g>
<!-- Node1&#45;&gt;Node5 -->
<g id="edge5" class="edge"><title>Node1&#45;&gt;Node5</title>
<path fill="none" stroke="midnightblue" d="M195.828,-220.711C208.968,-222.165 222.406,-223.651 235.411,-225.09"/>
<polygon fill="midnightblue" stroke="midnightblue" points="235.411,-228.611 245.735,-226.232 236.18,-221.653 235.411,-228.611"/>
</g>
<!-- Node6 -->
<g id="node6" class="node"><title>Node6</title>
<g id="a_node6"><a xlink:href="../../d9/df3/classauthoring__environment_1_1_super_grid.html#a29e4179a44c4a09a1365958c5ab8b604" target="_top" xlink:title="authoring_environment.Super\lGrid.getNumCols">
<polygon fill="white" stroke="black" points="246,-171 246,-201 406,-201 406,-171 246,-171"/>
<text text-anchor="start" x="254" y="-189" font-family="Helvetica,sans-Serif" font-size="10.00">authoring_environment.Super</text>
<text text-anchor="middle" x="326" y="-178" font-family="Helvetica,sans-Serif" font-size="10.00">Grid.getNumCols</text>
</a>
</g>
</g>
<!-- Node1&#45;&gt;Node6 -->
<g id="edge6" class="edge"><title>Node1&#45;&gt;Node6</title>
<path fill="none" stroke="midnightblue" d="M195.828,-199.717C208.968,-198.322 222.406,-196.895 235.411,-195.514"/>
<polygon fill="midnightblue" stroke="midnightblue" points="236.16,-198.954 245.735,-194.418 235.421,-191.993 236.16,-198.954"/>
</g>
<!-- Node7 -->
<g id="node7" class="node"><title>Node7</title>
<g id="a_node7"><a xlink:href="../../d9/df3/classauthoring__environment_1_1_super_grid.html#a08152131c1f1c2b5530970a0a02a74b0" target="_top" xlink:title="authoring_environment.Super\lGrid.getNumRows">
<polygon fill="white" stroke="black" points="246,-122 246,-152 406,-152 406,-122 246,-122"/>
<text text-anchor="start" x="254" y="-140" font-family="Helvetica,sans-Serif" font-size="10.00">authoring_environment.Super</text>
<text text-anchor="middle" x="326" y="-129" font-family="Helvetica,sans-Serif" font-size="10.00">Grid.getNumRows</text>
</a>
</g>
</g>
<!-- Node1&#45;&gt;Node7 -->
<g id="edge7" class="edge"><title>Node1&#45;&gt;Node7</title>
<path fill="none" stroke="midnightblue" d="M137.989,-194.954C164.343,-185.025 200.033,-172.046 232,-162 239.711,-159.577 247.826,-157.177 255.918,-154.879"/>
<polygon fill="midnightblue" stroke="midnightblue" points="257.059,-158.194 265.747,-152.131 255.174,-151.453 257.059,-158.194"/>
</g>
<!-- Node8 -->
<g id="node8" class="node"><title>Node8</title>
<g id="a_node8"><a xlink:href="../../dc/d5a/classauthoring__environment_1_1_super_tile.html#ab5ef68199e1e504d94b443e562cba0b9" target="_top" xlink:title="authoring_environment.Super\lTile.selectTile">
<polygon fill="white" stroke="black" points="246,-73 246,-103 406,-103 406,-73 246,-73"/>
<text text-anchor="start" x="254" y="-91" font-family="Helvetica,sans-Serif" font-size="10.00">authoring_environment.Super</text>
<text text-anchor="middle" x="326" y="-80" font-family="Helvetica,sans-Serif" font-size="10.00">Tile.selectTile</text>
</a>
</g>
</g>
<!-- Node1&#45;&gt;Node8 -->
<g id="edge8" class="edge"><title>Node1&#45;&gt;Node8</title>
<path fill="none" stroke="midnightblue" d="M115.335,-194.946C139.217,-173.709 185.856,-135.084 232,-113 236.996,-110.609 242.255,-108.419 247.627,-106.416"/>
<polygon fill="midnightblue" stroke="midnightblue" points="249.096,-109.611 257.386,-103.013 246.791,-103.001 249.096,-109.611"/>
</g>
<!-- Node9 -->
<g id="node9" class="node"><title>Node9</title>
<g id="a_node9"><a xlink:href="../../d5/dfb/classgame_player_1_1_game_grid_effect.html#a5e34f8b7cca52de2db06626494e76457" target="_top" xlink:title="gamePlayer.GameGridEffect.update\lActives">
<polygon fill="white" stroke="black" points="232,-24 232,-54 420,-54 420,-24 232,-24"/>
<text text-anchor="start" x="240" y="-42" font-family="Helvetica,sans-Serif" font-size="10.00">gamePlayer.GameGridEffect.update</text>
<text text-anchor="middle" x="326" y="-31" font-family="Helvetica,sans-Serif" font-size="10.00">Actives</text>
</a>
</g>
</g>
<!-- Node1&#45;&gt;Node9 -->
<g id="edge9" class="edge"><title>Node1&#45;&gt;Node9</title>
<path fill="none" stroke="midnightblue" d="M108.274,-194.854C127.465,-164.844 174.575,-97.7319 232,-63 234.854,-61.2741 237.829,-59.6713 240.89,-58.1831"/>
<polygon fill="midnightblue" stroke="midnightblue" points="242.543,-61.2795 250.291,-54.053 239.728,-54.8706 242.543,-61.2795"/>
</g>
<!-- Node2&#45;&gt;Node3 -->
<g id="edge2" class="edge"><title>Node2&#45;&gt;Node3</title>
<path fill="none" stroke="midnightblue" d="M415.029,-362.734C425.512,-361.63 436.222,-360.503 446.722,-359.398"/>
<polygon fill="midnightblue" stroke="midnightblue" points="447.133,-362.874 456.711,-358.346 446.4,-355.912 447.133,-362.874"/>
</g>
<!-- Node10 -->
<g id="node10" class="node"><title>Node10</title>
<g id="a_node10"><a xlink:href="../../df/dd5/classgame_player_1_1_view_controller.html#a53f6a078b1b2d43b3df91a7acd19121a" target="_top" xlink:title="gamePlayer.ViewController.get\lActivePiece">
<polygon fill="white" stroke="black" points="456,-49 456,-79 618,-79 618,-49 456,-49"/>
<text text-anchor="start" x="464" y="-67" font-family="Helvetica,sans-Serif" font-size="10.00">gamePlayer.ViewController.get</text>
<text text-anchor="middle" x="537" y="-56" font-family="Helvetica,sans-Serif" font-size="10.00">ActivePiece</text>
</a>
</g>
</g>
<!-- Node9&#45;&gt;Node10 -->
<g id="edge10" class="edge"><title>Node9&#45;&gt;Node10</title>
<path fill="none" stroke="midnightblue" d="M420.192,-50.1474C428.627,-51.1564 437.162,-52.1773 445.573,-53.1834"/>
<polygon fill="midnightblue" stroke="midnightblue" points="445.411,-56.6889 455.756,-54.4014 446.243,-49.7384 445.411,-56.6889"/>
</g>
<!-- Node11 -->
<g id="node11" class="node"><title>Node11</title>
<g id="a_node11"><a xlink:href="../../df/dd5/classgame_player_1_1_view_controller.html#a7c056f49d735d05a774efccf94893e0e" target="_top" xlink:title="gamePlayer.ViewController.get\lActiveAction">
<polygon fill="white" stroke="black" points="456,-0 456,-30 618,-30 618,-0 456,-0"/>
<text text-anchor="start" x="464" y="-18" font-family="Helvetica,sans-Serif" font-size="10.00">gamePlayer.ViewController.get</text>
<text text-anchor="middle" x="537" y="-7" font-family="Helvetica,sans-Serif" font-size="10.00">ActiveAction</text>
</a>
</g>
</g>
<!-- Node9&#45;&gt;Node11 -->
<g id="edge11" class="edge"><title>Node9&#45;&gt;Node11</title>
<path fill="none" stroke="midnightblue" d="M420.192,-28.2985C428.627,-27.3299 437.162,-26.3498 445.573,-25.3839"/>
<polygon fill="midnightblue" stroke="midnightblue" points="446.221,-28.8327 455.756,-24.2146 445.422,-21.8784 446.221,-28.8327"/>
</g>
</g>
</svg>
