<?xml version="1.0" encoding="UTF-8" standalone="no"?>
<!DOCTYPE svg PUBLIC "-//W3C//DTD SVG 1.1//EN"
 "http://www.w3.org/Graphics/SVG/1.1/DTD/svg11.dtd">
<!-- Generated by graphviz version 2.36.0 (20140111.2315)
 -->
<!-- Title: gamePlayer.GameGridEffect.GameGridEffect Pages: 1 -->
<svg width="382pt" height="126pt"
 viewBox="0.00 0.00 382.00 126.00" xmlns="http://www.w3.org/2000/svg" xmlns:xlink="http://www.w3.org/1999/xlink">
<g id="graph0" class="graph" transform="scale(1 1) rotate(0) translate(4 122)">
<title>gamePlayer.GameGridEffect.GameGridEffect</title>
<polygon fill="white" stroke="none" points="-4,4 -4,-122 378,-122 378,4 -4,4"/>
<!-- Node1 -->
<g id="node1" class="node"><title>Node1</title>
<polygon fill="#bfbfbf" stroke="black" points="0.5,-39 0.5,-69 155.5,-69 155.5,-39 0.5,-39"/>
<text text-anchor="start" x="8.5" y="-57" font-family="Helvetica,sans-Serif" font-size="10.00">gamePlayer.GameGridEffect.</text>
<text text-anchor="middle" x="78" y="-46" font-family="Helvetica,sans-Serif" font-size="10.00">GameGridEffect</text>
</g>
<!-- Node2 -->
<g id="node2" class="node"><title>Node2</title>
<g id="a_node2"><a xlink:href="../../df/dd5/classgame_player_1_1_view_controller.html#a7c056f49d735d05a774efccf94893e0e" target="_top" xlink:title="gamePlayer.ViewController.get\lActiveAction">
<polygon fill="white" stroke="black" points="202,-88 202,-118 364,-118 364,-88 202,-88"/>
<text text-anchor="start" x="210" y="-106" font-family="Helvetica,sans-Serif" font-size="10.00">gamePlayer.ViewController.get</text>
<text text-anchor="middle" x="283" y="-95" font-family="Helvetica,sans-Serif" font-size="10.00">ActiveAction</text>
</a>
</g>
</g>
<!-- Node1&#45;&gt;Node2 -->
<g id="edge1" class="edge"><title>Node1&#45;&gt;Node2</title>
<path fill="none" stroke="midnightblue" d="M141.286,-69.0346C163.013,-74.2789 187.571,-80.2069 210.02,-85.6255"/>
<polygon fill="midnightblue" stroke="midnightblue" points="209.289,-89.0496 219.832,-87.9938 210.932,-82.245 209.289,-89.0496"/>
</g>
<!-- Node3 -->
<g id="node3" class="node"><title>Node3</title>
<g id="a_node3"><a xlink:href="../../df/dd5/classgame_player_1_1_view_controller.html#a53f6a078b1b2d43b3df91a7acd19121a" target="_top" xlink:title="gamePlayer.ViewController.get\lActivePiece">
<polygon fill="white" stroke="black" points="202,-39 202,-69 364,-69 364,-39 202,-39"/>
<text text-anchor="start" x="210" y="-57" font-family="Helvetica,sans-Serif" font-size="10.00">gamePlayer.ViewController.get</text>
<text text-anchor="middle" x="283" y="-46" font-family="Helvetica,sans-Serif" font-size="10.00">ActivePiece</text>
</a>
</g>
</g>
<!-- Node1&#45;&gt;Node3 -->
<g id="edge2" class="edge"><title>Node1&#45;&gt;Node3</title>
<path fill="none" stroke="midnightblue" d="M155.746,-54C167.5,-54 179.725,-54 191.738,-54"/>
<polygon fill="midnightblue" stroke="midnightblue" points="191.765,-57.5001 201.764,-54 191.764,-50.5001 191.765,-57.5001"/>
</g>
<!-- Node4 -->
<g id="node4" class="node"><title>Node4</title>
<g id="a_node4"><a xlink:href="../../df/dd5/classgame_player_1_1_view_controller.html#a68d6b3645af17eb6fb25133a5827f7fb" target="_top" xlink:title="gamePlayer.ViewController.getGrid">
<polygon fill="white" stroke="black" points="192,-0.5 192,-19.5 374,-19.5 374,-0.5 192,-0.5"/>
<text text-anchor="middle" x="283" y="-7.5" font-family="Helvetica,sans-Serif" font-size="10.00">gamePlayer.ViewController.getGrid</text>
</a>
</g>
</g>
<!-- Node1&#45;&gt;Node4 -->
<g id="edge3" class="edge"><title>Node1&#45;&gt;Node4</title>
<path fill="none" stroke="midnightblue" d="M148.293,-38.9808C174.439,-33.3136 203.766,-26.9571 228.277,-21.6444"/>
<polygon fill="midnightblue" stroke="midnightblue" points="229.082,-25.0514 238.113,-19.5124 227.599,-18.2102 229.082,-25.0514"/>
</g>
</g>
</svg>
