<?xml version="1.0" encoding="UTF-8" standalone="no"?>
<!DOCTYPE svg PUBLIC "-//W3C//DTD SVG 1.1//EN"
 "http://www.w3.org/Graphics/SVG/1.1/DTD/svg11.dtd">
<!-- Generated by graphviz version 2.36.0 (20140111.2315)
 -->
<!-- Title: gamePlayer.GameGridEffect.highlightActionRange Pages: 1 -->
<svg width="1968pt" height="256pt"
 viewBox="0.00 0.00 1968.00 256.49" xmlns="http://www.w3.org/2000/svg" xmlns:xlink="http://www.w3.org/1999/xlink">
<g id="graph0" class="graph" transform="scale(1 1) rotate(0) translate(4 252.49)">
<title>gamePlayer.GameGridEffect.highlightActionRange</title>
<polygon fill="white" stroke="none" points="-4,4 -4,-252.49 1964,-252.49 1964,4 -4,4"/>
<!-- Node1 -->
<g id="node1" class="node"><title>Node1</title>
<polygon fill="#bfbfbf" stroke="black" points="0.5,-64.4904 0.5,-94.4904 195.5,-94.4904 195.5,-64.4904 0.5,-64.4904"/>
<text text-anchor="start" x="8.5" y="-82.4904" font-family="Helvetica,sans-Serif" font-size="10.00">gamePlayer.GameGridEffect.highlight</text>
<text text-anchor="middle" x="98" y="-71.4904" font-family="Helvetica,sans-Serif" font-size="10.00">ActionRange</text>
</g>
<!-- Node2 -->
<g id="node2" class="node"><title>Node2</title>
<g id="a_node2"><a xlink:href="../../df/dd5/classgame_player_1_1_view_controller.html#a7eb038fd9f20604ade0406f27ef76657" target="_top" xlink:title="gamePlayer.ViewController.bind\lAction">
<polygon fill="white" stroke="black" points="232.5,-64.4904 232.5,-94.4904 399.5,-94.4904 399.5,-64.4904 232.5,-64.4904"/>
<text text-anchor="start" x="240.5" y="-82.4904" font-family="Helvetica,sans-Serif" font-size="10.00">gamePlayer.ViewController.bind</text>
<text text-anchor="middle" x="316" y="-71.4904" font-family="Helvetica,sans-Serif" font-size="10.00">Action</text>
</a>
</g>
</g>
<!-- Node1&#45;&gt;Node2 -->
<g id="edge1" class="edge"><title>Node1&#45;&gt;Node2</title>
<path fill="none" stroke="midnightblue" d="M205.703,-79.4904C214.642,-79.4904 223.593,-79.4904 232.311,-79.4904"/>
<polygon fill="midnightblue" stroke="midnightblue" points="205.628,-75.9905 195.628,-79.4904 205.628,-82.9905 205.628,-75.9905"/>
</g>
<!-- Node3 -->
<g id="node3" class="node"><title>Node3</title>
<g id="a_node3"><a xlink:href="../../d1/db7/classgame_player_1_1_keyboard_action.html#a08ace57322b8639020688dd9493c3e1f" target="_top" xlink:title="gamePlayer.KeyboardAction.set\lActionKeyControl">
<polygon fill="white" stroke="black" points="442,-138.49 442,-168.49 610,-168.49 610,-138.49 442,-138.49"/>
<text text-anchor="start" x="450" y="-156.49" font-family="Helvetica,sans-Serif" font-size="10.00">gamePlayer.KeyboardAction.set</text>
<text text-anchor="middle" x="526" y="-145.49" font-family="Helvetica,sans-Serif" font-size="10.00">ActionKeyControl</text>
</a>
</g>
</g>
<!-- Node2&#45;&gt;Node3 -->
<g id="edge2" class="edge"><title>Node2&#45;&gt;Node3</title>
<path fill="none" stroke="midnightblue" d="M359.708,-98.4935C382.172,-108.126 410.312,-119.628 436,-128.49 446.165,-131.998 457.106,-135.381 467.719,-138.466"/>
<polygon fill="midnightblue" stroke="midnightblue" points="361.02,-95.2477 350.452,-94.4929 358.243,-101.673 361.02,-95.2477"/>
</g>
<!-- Node19 -->
<g id="node19" class="node"><title>Node19</title>
<g id="a_node19"><a xlink:href="../../df/dd5/classgame_player_1_1_view_controller.html#ab8c14a8c53be9021a62d0107c2f75ef6" target="_top" xlink:title="gamePlayer.ViewController.update\lActions">
<polygon fill="white" stroke="black" points="436,-89.4904 436,-119.49 616,-119.49 616,-89.4904 436,-89.4904"/>
<text text-anchor="start" x="444" y="-107.49" font-family="Helvetica,sans-Serif" font-size="10.00">gamePlayer.ViewController.update</text>
<text text-anchor="middle" x="526" y="-96.4904" font-family="Helvetica,sans-Serif" font-size="10.00">Actions</text>
</a>
</g>
</g>
<!-- Node2&#45;&gt;Node19 -->
<g id="edge21" class="edge"><title>Node2&#45;&gt;Node19</title>
<path fill="none" stroke="midnightblue" d="M409.633,-90.6242C418.314,-91.6676 427.102,-92.7239 435.751,-93.7634"/>
<polygon fill="midnightblue" stroke="midnightblue" points="409.852,-87.1254 399.506,-89.407 409.017,-94.0754 409.852,-87.1254"/>
</g>
<!-- Node22 -->
<g id="node22" class="node"><title>Node22</title>
<g id="a_node22"><a xlink:href="../../df/df0/classtests_1_1_view_controller_test.html#a74e99f9c72cbdcd2d56271b2ad2df1ce" target="_top" xlink:title="tests.ViewControllerTest.bind\lActionTest">
<polygon fill="white" stroke="black" points="449,-40.4904 449,-70.4904 603,-70.4904 603,-40.4904 449,-40.4904"/>
<text text-anchor="start" x="457" y="-58.4904" font-family="Helvetica,sans-Serif" font-size="10.00">tests.ViewControllerTest.bind</text>
<text text-anchor="middle" x="526" y="-47.4904" font-family="Helvetica,sans-Serif" font-size="10.00">ActionTest</text>
</a>
</g>
</g>
<!-- Node2&#45;&gt;Node22 -->
<g id="edge24" class="edge"><title>Node2&#45;&gt;Node22</title>
<path fill="none" stroke="midnightblue" d="M409.466,-68.8213C422.572,-67.3091 435.925,-65.7683 448.679,-64.2966"/>
<polygon fill="midnightblue" stroke="midnightblue" points="409.039,-65.3473 399.506,-69.9705 409.841,-72.3011 409.039,-65.3473"/>
</g>
<!-- Node4 -->
<g id="node4" class="node"><title>Node4</title>
<g id="a_node4"><a xlink:href="../../df/dd5/classgame_player_1_1_view_controller.html#a95c2acd43bb39b8606c69971c1cd30f5" target="_top" xlink:title="gamePlayer.ViewController.perform\lAction">
<polygon fill="white" stroke="black" points="652.5,-138.49 652.5,-168.49 837.5,-168.49 837.5,-138.49 652.5,-138.49"/>
<text text-anchor="start" x="660.5" y="-156.49" font-family="Helvetica,sans-Serif" font-size="10.00">gamePlayer.ViewController.perform</text>
<text text-anchor="middle" x="745" y="-145.49" font-family="Helvetica,sans-Serif" font-size="10.00">Action</text>
</a>
</g>
</g>
<!-- Node3&#45;&gt;Node4 -->
<g id="edge3" class="edge"><title>Node3&#45;&gt;Node4</title>
<path fill="none" stroke="midnightblue" d="M620.351,-153.49C630.935,-153.49 641.715,-153.49 652.277,-153.49"/>
<polygon fill="midnightblue" stroke="midnightblue" points="620.277,-149.991 610.277,-153.49 620.277,-156.991 620.277,-149.991"/>
</g>
<!-- Node5 -->
<g id="node5" class="node"><title>Node5</title>
<g id="a_node5"><a xlink:href="../../da/d55/classgame_player_1_1_keyboard_movement.html#af45fd8d279b1ee2d6be5466d425485ab" target="_top" xlink:title="gamePlayer.KeyboardMovement.set\lMovementKeyControl">
<polygon fill="white" stroke="black" points="874.5,-89.4904 874.5,-119.49 1063.5,-119.49 1063.5,-89.4904 874.5,-89.4904"/>
<text text-anchor="start" x="882.5" y="-107.49" font-family="Helvetica,sans-Serif" font-size="10.00">gamePlayer.KeyboardMovement.set</text>
<text text-anchor="middle" x="969" y="-96.4904" font-family="Helvetica,sans-Serif" font-size="10.00">MovementKeyControl</text>
</a>
</g>
</g>
<!-- Node4&#45;&gt;Node5 -->
<g id="edge4" class="edge"><title>Node4&#45;&gt;Node5</title>
<path fill="none" stroke="midnightblue" d="M799.028,-135.932C821.57,-130.189 848.545,-123.96 874.254,-118.505"/>
<polygon fill="midnightblue" stroke="midnightblue" points="798.133,-132.548 789.331,-138.445 799.889,-139.324 798.133,-132.548"/>
</g>
<!-- Node7 -->
<g id="node7" class="node"><title>Node7</title>
<g id="a_node7"><a xlink:href="../../df/dd5/classgame_player_1_1_view_controller.html#a22ee80193bbac79a935ee961a183bfcd" target="_top" xlink:title="gamePlayer.ViewController.set\lOnClick">
<polygon fill="white" stroke="black" points="888.5,-138.49 888.5,-168.49 1049.5,-168.49 1049.5,-138.49 888.5,-138.49"/>
<text text-anchor="start" x="896.5" y="-156.49" font-family="Helvetica,sans-Serif" font-size="10.00">gamePlayer.ViewController.set</text>
<text text-anchor="middle" x="969" y="-145.49" font-family="Helvetica,sans-Serif" font-size="10.00">OnClick</text>
</a>
</g>
</g>
<!-- Node4&#45;&gt;Node7 -->
<g id="edge8" class="edge"><title>Node4&#45;&gt;Node7</title>
<path fill="none" stroke="midnightblue" d="M847.903,-153.49C861.469,-153.49 875.217,-153.49 888.331,-153.49"/>
<polygon fill="midnightblue" stroke="midnightblue" points="847.578,-149.991 837.578,-153.49 847.578,-156.991 847.578,-149.991"/>
</g>
<!-- Node5&#45;&gt;Node2 -->
<g id="edge5" class="edge"><title>Node5&#45;&gt;Node2</title>
<path fill="none" stroke="midnightblue" d="M940.438,-83.1173C915.326,-65.0924 876.402,-40.6546 838,-30.4904 665.281,15.2244 611.27,4.1824 436,-30.4904 403.342,-36.9509 368.388,-52.4902 344.873,-64.3515"/>
<polygon fill="midnightblue" stroke="midnightblue" points="938.586,-86.1001 948.72,-89.1916 942.726,-80.4553 938.586,-86.1001"/>
</g>
<!-- Node5&#45;&gt;Node4 -->
<g id="edge6" class="edge"><title>Node5&#45;&gt;Node4</title>
<path fill="none" stroke="midnightblue" d="M914.611,-122.141C891.507,-128.02 863.796,-134.4 837.578,-139.935"/>
<polygon fill="midnightblue" stroke="midnightblue" points="915.742,-125.464 924.545,-119.568 913.987,-118.687 915.742,-125.464"/>
</g>
<!-- Node6 -->
<g id="node6" class="node"><title>Node6</title>
<g id="a_node6"><a xlink:href="../../df/dd5/classgame_player_1_1_view_controller.html#a27da17c1280cd953a14f6b76b18f9a4b" target="_top" xlink:title="gamePlayer.ViewController.toggle\lKeyboardControl">
<polygon fill="white" stroke="black" points="1114,-89.4904 1114,-119.49 1290,-119.49 1290,-89.4904 1114,-89.4904"/>
<text text-anchor="start" x="1122" y="-107.49" font-family="Helvetica,sans-Serif" font-size="10.00">gamePlayer.ViewController.toggle</text>
<text text-anchor="middle" x="1202" y="-96.4904" font-family="Helvetica,sans-Serif" font-size="10.00">KeyboardControl</text>
</a>
</g>
</g>
<!-- Node5&#45;&gt;Node6 -->
<g id="edge7" class="edge"><title>Node5&#45;&gt;Node6</title>
<path fill="none" stroke="midnightblue" d="M1073.83,-104.49C1087.24,-104.49 1100.86,-104.49 1113.96,-104.49"/>
<polygon fill="midnightblue" stroke="midnightblue" points="1073.62,-100.991 1063.62,-104.49 1073.62,-107.991 1073.62,-100.991"/>
</g>
<!-- Node8 -->
<g id="node8" class="node"><title>Node8</title>
<g id="a_node8"><a xlink:href="../../df/dd5/classgame_player_1_1_view_controller.html#a10a40967a873f067cf91b024ff85b38e" target="_top" xlink:title="gamePlayer.ViewController.initializeGrid">
<polygon fill="white" stroke="black" points="1100,-141.99 1100,-160.99 1304,-160.99 1304,-141.99 1100,-141.99"/>
<text text-anchor="middle" x="1202" y="-148.99" font-family="Helvetica,sans-Serif" font-size="10.00">gamePlayer.ViewController.initializeGrid</text>
</a>
</g>
</g>
<!-- Node7&#45;&gt;Node8 -->
<g id="edge9" class="edge"><title>Node7&#45;&gt;Node8</title>
<path fill="none" stroke="midnightblue" d="M1060.18,-152.71C1073.23,-152.597 1086.74,-152.48 1099.99,-152.365"/>
<polygon fill="midnightblue" stroke="midnightblue" points="1059.79,-149.213 1049.82,-152.799 1059.85,-156.213 1059.79,-149.213"/>
</g>
<!-- Node9 -->
<g id="node9" class="node"><title>Node9</title>
<g id="a_node9"><a xlink:href="../../df/dd5/classgame_player_1_1_view_controller.html#aabf431713b65ec510f1cb2df12da4e45" target="_top" xlink:title="gamePlayer.ViewController.test\lPlayGameInTab">
<polygon fill="white" stroke="black" points="1361.5,-169.49 1361.5,-199.49 1526.5,-199.49 1526.5,-169.49 1361.5,-169.49"/>
<text text-anchor="start" x="1369.5" y="-187.49" font-family="Helvetica,sans-Serif" font-size="10.00">gamePlayer.ViewController.test</text>
<text text-anchor="middle" x="1444" y="-176.49" font-family="Helvetica,sans-Serif" font-size="10.00">PlayGameInTab</text>
</a>
</g>
</g>
<!-- Node8&#45;&gt;Node9 -->
<g id="edge10" class="edge"><title>Node8&#45;&gt;Node9</title>
<path fill="none" stroke="midnightblue" d="M1282.05,-162.36C1307.46,-165.854 1335.65,-169.729 1361.24,-173.249"/>
<polygon fill="midnightblue" stroke="midnightblue" points="1282.48,-158.886 1272.1,-160.991 1281.53,-165.821 1282.48,-158.886"/>
</g>
<!-- Node10 -->
<g id="node10" class="node"><title>Node10</title>
<g id="a_node10"><a xlink:href="../../df/dd5/classgame_player_1_1_view_controller.html#a0d1a3d443966f151b070dc751d2faf9a" target="_top" xlink:title="gamePlayer.ViewController.restartGame">
<polygon fill="white" stroke="black" points="1340,-130.99 1340,-149.99 1548,-149.99 1548,-130.99 1340,-130.99"/>
<text text-anchor="middle" x="1444" y="-137.99" font-family="Helvetica,sans-Serif" font-size="10.00">gamePlayer.ViewController.restartGame</text>
</a>
</g>
</g>
<!-- Node8&#45;&gt;Node10 -->
<g id="edge11" class="edge"><title>Node8&#45;&gt;Node10</title>
<path fill="none" stroke="midnightblue" d="M1314.08,-146.399C1322.62,-146.008 1331.23,-145.613 1339.72,-145.224"/>
<polygon fill="midnightblue" stroke="midnightblue" points="1313.92,-142.903 1304.09,-146.857 1314.24,-149.896 1313.92,-142.903"/>
</g>
<!-- Node11 -->
<g id="node11" class="node"><title>Node11</title>
<g id="a_node11"><a xlink:href="../../df/dd5/classgame_player_1_1_view_controller.html#a620f8a02d3ac7677cd179fcd812aca55" target="_top" xlink:title="gamePlayer.ViewController.check\lEndActions">
<polygon fill="white" stroke="black" points="1357,-218.49 1357,-248.49 1531,-248.49 1531,-218.49 1357,-218.49"/>
<text text-anchor="start" x="1365" y="-236.49" font-family="Helvetica,sans-Serif" font-size="10.00">gamePlayer.ViewController.check</text>
<text text-anchor="middle" x="1444" y="-225.49" font-family="Helvetica,sans-Serif" font-size="10.00">EndActions</text>
</a>
</g>
</g>
<!-- Node8&#45;&gt;Node11 -->
<g id="edge12" class="edge"><title>Node8&#45;&gt;Node11</title>
<path fill="none" stroke="midnightblue" d="M1232.44,-165.316C1259.85,-177.805 1302.06,-196.077 1340,-208.49 1351.02,-212.095 1362.85,-215.44 1374.43,-218.434"/>
<polygon fill="midnightblue" stroke="midnightblue" points="1233.6,-161.996 1223.05,-160.998 1230.67,-168.356 1233.6,-161.996"/>
</g>
<!-- Node14 -->
<g id="node14" class="node"><title>Node14</title>
<g id="a_node14"><a xlink:href="../../df/dd5/classgame_player_1_1_view_controller.html#adc15cd81cefb88c58f9d3b7478328df8" target="_top" xlink:title="gamePlayer.ViewController.test\lPlayGUIGame">
<polygon fill="white" stroke="black" points="1361.5,-81.4904 1361.5,-111.49 1526.5,-111.49 1526.5,-81.4904 1361.5,-81.4904"/>
<text text-anchor="start" x="1369.5" y="-99.4904" font-family="Helvetica,sans-Serif" font-size="10.00">gamePlayer.ViewController.test</text>
<text text-anchor="middle" x="1444" y="-88.4904" font-family="Helvetica,sans-Serif" font-size="10.00">PlayGUIGame</text>
</a>
</g>
</g>
<!-- Node8&#45;&gt;Node14 -->
<g id="edge16" class="edge"><title>Node8&#45;&gt;Node14</title>
<path fill="none" stroke="midnightblue" d="M1255.3,-139.604C1270.97,-136.038 1288.18,-132.112 1304,-128.49 1328.14,-122.963 1354.63,-116.872 1377.95,-111.5"/>
<polygon fill="midnightblue" stroke="midnightblue" points="1254.24,-136.257 1245.27,-141.889 1255.79,-143.082 1254.24,-136.257"/>
</g>
<!-- Node15 -->
<g id="node15" class="node"><title>Node15</title>
<g id="a_node15"><a xlink:href="../../df/dd5/classgame_player_1_1_view_controller.html#a4c1754d129a4eac955390b428eaa448a" target="_top" xlink:title="gamePlayer.ViewController.test\lPlayGame">
<polygon fill="white" stroke="black" points="1361.5,-32.4904 1361.5,-62.4904 1526.5,-62.4904 1526.5,-32.4904 1361.5,-32.4904"/>
<text text-anchor="start" x="1369.5" y="-50.4904" font-family="Helvetica,sans-Serif" font-size="10.00">gamePlayer.ViewController.test</text>
<text text-anchor="middle" x="1444" y="-39.4904" font-family="Helvetica,sans-Serif" font-size="10.00">PlayGame</text>
</a>
</g>
</g>
<!-- Node8&#45;&gt;Node15 -->
<g id="edge17" class="edge"><title>Node8&#45;&gt;Node15</title>
<path fill="none" stroke="midnightblue" d="M1286.04,-138.365C1292.39,-135.654 1298.48,-132.398 1304,-128.49 1328.46,-111.186 1315.58,-88.8561 1340,-71.4904 1346.51,-66.8614 1353.78,-63.1125 1361.37,-60.0784"/>
<polygon fill="midnightblue" stroke="midnightblue" points="1284.67,-135.141 1276.56,-141.96 1287.15,-141.686 1284.67,-135.141"/>
</g>
<!-- Node11&#45;&gt;Node4 -->
<g id="edge13" class="edge"><title>Node11&#45;&gt;Node4</title>
<path fill="none" stroke="midnightblue" d="M1346.88,-226.603C1233.51,-217.885 1039.5,-201.104 874,-177.49 856.541,-174.999 837.839,-171.798 820.271,-168.551"/>
<polygon fill="midnightblue" stroke="midnightblue" points="1346.69,-230.098 1356.93,-227.37 1347.22,-223.119 1346.69,-230.098"/>
</g>
<!-- Node12 -->
<g id="node12" class="node"><title>Node12</title>
<g id="a_node12"><a xlink:href="../../df/dd5/classgame_player_1_1_view_controller.html#a13ea7814bde61a8042c5b1a23af41416" target="_top" xlink:title="gamePlayer.ViewController.end\lAction">
<polygon fill="white" stroke="black" points="1599,-218.49 1599,-248.49 1763,-248.49 1763,-218.49 1599,-218.49"/>
<text text-anchor="start" x="1607" y="-236.49" font-family="Helvetica,sans-Serif" font-size="10.00">gamePlayer.ViewController.end</text>
<text text-anchor="middle" x="1681" y="-225.49" font-family="Helvetica,sans-Serif" font-size="10.00">Action</text>
</a>
</g>
</g>
<!-- Node11&#45;&gt;Node12 -->
<g id="edge14" class="edge"><title>Node11&#45;&gt;Node12</title>
<path fill="none" stroke="midnightblue" d="M1541.39,-233.49C1560.5,-233.49 1580.38,-233.49 1598.92,-233.49"/>
<polygon fill="midnightblue" stroke="midnightblue" points="1541.17,-229.991 1531.17,-233.49 1541.17,-236.991 1541.17,-229.991"/>
</g>
<!-- Node13 -->
<g id="node13" class="node"><title>Node13</title>
<g id="a_node13"><a xlink:href="../../db/d00/classgame_player_1_1_apply_state.html#aed42c1aba25264bc6880036f693a1c9e" target="_top" xlink:title="gamePlayer.ApplyState.on\lClick">
<polygon fill="white" stroke="black" points="1815.5,-218.49 1815.5,-248.49 1958.5,-248.49 1958.5,-218.49 1815.5,-218.49"/>
<text text-anchor="start" x="1823.5" y="-236.49" font-family="Helvetica,sans-Serif" font-size="10.00">gamePlayer.ApplyState.on</text>
<text text-anchor="middle" x="1887" y="-225.49" font-family="Helvetica,sans-Serif" font-size="10.00">Click</text>
</a>
</g>
</g>
<!-- Node12&#45;&gt;Node13 -->
<g id="edge15" class="edge"><title>Node12&#45;&gt;Node13</title>
<path fill="none" stroke="midnightblue" d="M1773.38,-233.49C1787.44,-233.49 1801.76,-233.49 1815.28,-233.49"/>
<polygon fill="midnightblue" stroke="midnightblue" points="1773.21,-229.991 1763.21,-233.49 1773.21,-236.991 1773.21,-229.991"/>
</g>
<!-- Node16 -->
<g id="node16" class="node"><title>Node16</title>
<g id="a_node16"><a xlink:href="../../db/d40/classfxml__main_1_1_authoring_controller.html#a2ec133c8edf0a7ab1e84f2e12455233d" target="_top" xlink:title="fxml_main.AuthoringController.save\lAsGame">
<polygon fill="white" stroke="black" points="1587.5,-10.4904 1587.5,-40.4904 1774.5,-40.4904 1774.5,-10.4904 1587.5,-10.4904"/>
<text text-anchor="start" x="1595.5" y="-28.4904" font-family="Helvetica,sans-Serif" font-size="10.00">fxml_main.AuthoringController.save</text>
<text text-anchor="middle" x="1681" y="-17.4904" font-family="Helvetica,sans-Serif" font-size="10.00">AsGame</text>
</a>
</g>
</g>
<!-- Node15&#45;&gt;Node16 -->
<g id="edge18" class="edge"><title>Node15&#45;&gt;Node16</title>
<path fill="none" stroke="midnightblue" d="M1536.77,-38.8995C1553.38,-37.3447 1570.7,-35.7223 1587.34,-34.1652"/>
<polygon fill="midnightblue" stroke="midnightblue" points="1536.16,-35.4407 1526.53,-39.8576 1536.81,-42.4102 1536.16,-35.4407"/>
</g>
<!-- Node17 -->
<g id="node17" class="node"><title>Node17</title>
<g id="a_node17"><a xlink:href="../../df/dd5/classgame_player_1_1_view_controller.html#a2bf1dce04187ad5eacb5359ef2b4eff8" target="_top" xlink:title="gamePlayer.ViewController.newGame">
<polygon fill="white" stroke="black" points="1584,-59.9904 1584,-78.9904 1778,-78.9904 1778,-59.9904 1584,-59.9904"/>
<text text-anchor="middle" x="1681" y="-66.9904" font-family="Helvetica,sans-Serif" font-size="10.00">gamePlayer.ViewController.newGame</text>
</a>
</g>
</g>
<!-- Node15&#45;&gt;Node17 -->
<g id="edge19" class="edge"><title>Node15&#45;&gt;Node17</title>
<path fill="none" stroke="midnightblue" d="M1536.58,-56.0638C1552.03,-57.5098 1568.1,-59.0147 1583.66,-60.4716"/>
<polygon fill="midnightblue" stroke="midnightblue" points="1536.81,-52.5706 1526.53,-55.1232 1536.16,-59.5402 1536.81,-52.5706"/>
</g>
<!-- Node18 -->
<g id="node18" class="node"><title>Node18</title>
<g id="a_node18"><a xlink:href="../../df/dd5/classgame_player_1_1_view_controller.html#a2acd822c93c35674b6978a97b4ce6e3f" target="_top" xlink:title="gamePlayer.ViewController.\lViewController">
<polygon fill="white" stroke="black" points="1814,-54.4904 1814,-84.4904 1960,-84.4904 1960,-54.4904 1814,-54.4904"/>
<text text-anchor="start" x="1822" y="-72.4904" font-family="Helvetica,sans-Serif" font-size="10.00">gamePlayer.ViewController.</text>
<text text-anchor="middle" x="1887" y="-61.4904" font-family="Helvetica,sans-Serif" font-size="10.00">ViewController</text>
</a>
</g>
</g>
<!-- Node17&#45;&gt;Node18 -->
<g id="edge20" class="edge"><title>Node17&#45;&gt;Node18</title>
<path fill="none" stroke="midnightblue" d="M1788.24,-69.4904C1796.94,-69.4904 1805.59,-69.4904 1813.95,-69.4904"/>
<polygon fill="midnightblue" stroke="midnightblue" points="1788.03,-65.9905 1778.03,-69.4904 1788.03,-72.9905 1788.03,-65.9905"/>
</g>
<!-- Node20 -->
<g id="node20" class="node"><title>Node20</title>
<g id="a_node20"><a xlink:href="../../d6/d24/classgame_player_1_1_select_state.html#a801827392f0faeee6b96925060d77838" target="_top" xlink:title="gamePlayer.SelectState.on\lClick">
<polygon fill="white" stroke="black" points="671.5,-89.4904 671.5,-119.49 818.5,-119.49 818.5,-89.4904 671.5,-89.4904"/>
<text text-anchor="start" x="679.5" y="-107.49" font-family="Helvetica,sans-Serif" font-size="10.00">gamePlayer.SelectState.on</text>
<text text-anchor="middle" x="745" y="-96.4904" font-family="Helvetica,sans-Serif" font-size="10.00">Click</text>
</a>
</g>
</g>
<!-- Node19&#45;&gt;Node20 -->
<g id="edge22" class="edge"><title>Node19&#45;&gt;Node20</title>
<path fill="none" stroke="midnightblue" d="M626.591,-104.49C641.672,-104.49 656.984,-104.49 671.351,-104.49"/>
<polygon fill="midnightblue" stroke="midnightblue" points="626.202,-100.991 616.202,-104.49 626.202,-107.991 626.202,-100.991"/>
</g>
<!-- Node21 -->
<g id="node21" class="node"><title>Node21</title>
<g id="a_node21"><a xlink:href="../../df/df0/classtests_1_1_view_controller_test.html#a785df2c49a72c183c22163ce927f5df1" target="_top" xlink:title="tests.ViewControllerTest.update\lActionsTest">
<polygon fill="white" stroke="black" points="661.5,-40.4904 661.5,-70.4904 828.5,-70.4904 828.5,-40.4904 661.5,-40.4904"/>
<text text-anchor="start" x="669.5" y="-58.4904" font-family="Helvetica,sans-Serif" font-size="10.00">tests.ViewControllerTest.update</text>
<text text-anchor="middle" x="745" y="-47.4904" font-family="Helvetica,sans-Serif" font-size="10.00">ActionsTest</text>
</a>
</g>
</g>
<!-- Node19&#45;&gt;Node21 -->
<g id="edge23" class="edge"><title>Node19&#45;&gt;Node21</title>
<path fill="none" stroke="midnightblue" d="M603.429,-87.2323C627.608,-81.7725 654.122,-75.7854 677.544,-70.4966"/>
<polygon fill="midnightblue" stroke="midnightblue" points="602.565,-83.8391 593.582,-89.4558 604.107,-90.6672 602.565,-83.8391"/>
</g>
</g>
</svg>
