<?xml version="1.0" encoding="UTF-8" standalone="no"?>
<!DOCTYPE svg PUBLIC "-//W3C//DTD SVG 1.1//EN"
 "http://www.w3.org/Graphics/SVG/1.1/DTD/svg11.dtd">
<!-- Generated by graphviz version 2.36.0 (20140111.2315)
 -->
<!-- Title: gamePlayer.GameGridEffect.isHoveringOverActionHighlight Pages: 1 -->
<svg width="564pt" height="38pt"
 viewBox="0.00 0.00 564.00 38.00" xmlns="http://www.w3.org/2000/svg" xmlns:xlink="http://www.w3.org/1999/xlink">
<g id="graph0" class="graph" transform="scale(1 1) rotate(0) translate(4 34)">
<title>gamePlayer.GameGridEffect.isHoveringOverActionHighlight</title>
<polygon fill="white" stroke="none" points="-4,4 -4,-34 560,-34 560,4 -4,4"/>
<!-- Node1 -->
<g id="node1" class="node"><title>Node1</title>
<polygon fill="#bfbfbf" stroke="black" points="0,-0 0,-30 162,-30 162,-0 0,-0"/>
<text text-anchor="start" x="8" y="-18" font-family="Helvetica,sans-Serif" font-size="10.00">gamePlayer.GameGridEffect.is</text>
<text text-anchor="middle" x="81" y="-7" font-family="Helvetica,sans-Serif" font-size="10.00">HoveringOverActionHighlight</text>
</g>
<!-- Node2 -->
<g id="node2" class="node"><title>Node2</title>
<g id="a_node2"><a xlink:href="../../db/d00/classgame_player_1_1_apply_state.html#ab752906e9e7f3d4a5ff3a1114668bc14" target="_top" xlink:title="gamePlayer.ApplyState.handle\lMouseMove">
<polygon fill="white" stroke="black" points="198,-0 198,-30 362,-30 362,-0 198,-0"/>
<text text-anchor="start" x="206" y="-18" font-family="Helvetica,sans-Serif" font-size="10.00">gamePlayer.ApplyState.handle</text>
<text text-anchor="middle" x="280" y="-7" font-family="Helvetica,sans-Serif" font-size="10.00">MouseMove</text>
</a>
</g>
</g>
<!-- Node1&#45;&gt;Node2 -->
<g id="edge1" class="edge"><title>Node1&#45;&gt;Node2</title>
<path fill="none" stroke="midnightblue" d="M172.175,-15C180.781,-15 189.473,-15 197.984,-15"/>
<polygon fill="midnightblue" stroke="midnightblue" points="172.127,-11.5001 162.127,-15 172.127,-18.5001 172.127,-11.5001"/>
</g>
<!-- Node3 -->
<g id="node3" class="node"><title>Node3</title>
<g id="a_node3"><a xlink:href="../../db/d00/classgame_player_1_1_apply_state.html#ac9cc1c36c4c541a7a34361733704936c" target="_top" xlink:title="gamePlayer.ApplyState.Apply\lState">
<polygon fill="white" stroke="black" points="398,-0 398,-30 556,-30 556,-0 398,-0"/>
<text text-anchor="start" x="406" y="-18" font-family="Helvetica,sans-Serif" font-size="10.00">gamePlayer.ApplyState.Apply</text>
<text text-anchor="middle" x="477" y="-7" font-family="Helvetica,sans-Serif" font-size="10.00">State</text>
</a>
</g>
</g>
<!-- Node2&#45;&gt;Node3 -->
<g id="edge2" class="edge"><title>Node2&#45;&gt;Node3</title>
<path fill="none" stroke="midnightblue" d="M372.043,-15C380.636,-15 389.295,-15 397.754,-15"/>
<polygon fill="midnightblue" stroke="midnightblue" points="372.004,-11.5001 362.003,-15 372.003,-18.5001 372.004,-11.5001"/>
</g>
</g>
</svg>
