<?xml version="1.0" encoding="UTF-8" standalone="no"?>
<!DOCTYPE svg PUBLIC "-//W3C//DTD SVG 1.1//EN"
 "http://www.w3.org/Graphics/SVG/1.1/DTD/svg11.dtd">
<!-- Generated by graphviz version 2.36.0 (20140111.2315)
 -->
<!-- Title: utilities.leapMotion.LeapUIController Pages: 1 -->
<!--zoomable 118 -->
<svg id="main" version="1.1" xmlns="http://www.w3.org/2000/svg" xmlns:xlink="http://www.w3.org/1999/xlink" xml:space="preserve" onload="init(evt)">
<style type="text/css"><![CDATA[
.edge:hover path { stroke: red; }
.edge:hover polygon { stroke: red; fill: red; }
]]></style>
<script type="text/javascript"><![CDATA[
var edges = document.getElementsByTagName('g');
if (edges && edges.length) {
  for (var i=0;i<edges.length;i++) {
    if (edges[i].id.substr(0,4)=='edge') {
      edges[i].setAttribute('class','edge');
    }
  }
}
]]></script>
        <defs>
                <circle id="rim" cx="0" cy="0" r="7"/>
                <circle id="rim2" cx="0" cy="0" r="3.5"/>
                <g id="zoomPlus">
                        <use xlink:href="#rim" fill="#404040">
                                <set attributeName="fill" to="#808080" begin="zoomplus.mouseover" end="zoomplus.mouseout"/>
                        </use>
                        <path d="M-4,0h8M0,-4v8" fill="none" stroke="white" stroke-width="1.5" pointer-events="none"/>
                </g>
                <g id="zoomMin">
                        <use xlink:href="#rim" fill="#404040">
                                <set attributeName="fill" to="#808080" begin="zoomminus.mouseover" end="zoomminus.mouseout"/>
                        </use>
                        <path d="M-4,0h8" fill="none" stroke="white" stroke-width="1.5" pointer-events="none"/>
                </g>
                <g id="dirArrow">
                        <path fill="none" stroke="white" stroke-width="1.5" d="M0,-3.0v7 M-2.5,-0.5L0,-3.0L2.5,-0.5"/>
                </g>
               <g id="resetDef">
                       <use xlink:href="#rim2" fill="#404040">
                               <set attributeName="fill" to="#808080" begin="reset.mouseover" end="reset.mouseout"/>
                       </use>
               </g>
        </defs>

<script type="text/javascript">
var viewWidth = 627;
var viewHeight = 118;
var sectionId = 'dynsection-1';
</script>
<script xlink:href="../../svgpan.js"/>
<svg id="graph" class="graph">
<g id="viewport">
<title>utilities.leapMotion.LeapUIController</title>
<polygon fill="white" stroke="none" points="-4,4 -4,-114 623,-114 623,4 -4,4"/>
<!-- Node1 -->
<g id="node1" class="node"><title>Node1</title>
<polygon fill="#bfbfbf" stroke="black" points="204,-1 204,-31 336,-31 336,-1 204,-1"/>
<text text-anchor="start" x="212" y="-19" font-family="Helvetica,sans-Serif" font-size="10.00">utilities.leapMotion.Leap</text>
<text text-anchor="middle" x="270" y="-8" font-family="Helvetica,sans-Serif" font-size="10.00">UIController</text>
</g>
<!-- Node2 -->
<g id="node2" class="node"><title>Node2</title>
<polygon fill="white" stroke="#bfbfbf" points="-0.5,-90.5 -0.5,-109.5 68.5,-109.5 68.5,-90.5 -0.5,-90.5"/>
<text text-anchor="middle" x="34" y="-97.5" font-family="Helvetica,sans-Serif" font-size="10.00">Application</text>
</g>
<!-- Node2&#45;&gt;Node1 -->
<g id="edge1" class="edge"><title>Node2&#45;&gt;Node1</title>
<path fill="none" stroke="midnightblue" d="M53.5575,-84.3834C69.1662,-73.3886 91.9912,-58.7654 114,-50 142.418,-38.6818 175.369,-30.9861 203.644,-25.8943"/>
<polygon fill="midnightblue" stroke="midnightblue" points="51.3255,-81.6778 45.2619,-90.366 55.42,-87.3554 51.3255,-81.6778"/>
</g>
<!-- Node3 -->
<g id="node3" class="node"><title>Node3</title>
<polygon fill="white" stroke="#bfbfbf" points="86.5,-90.5 86.5,-109.5 127.5,-109.5 127.5,-90.5 86.5,-90.5"/>
<text text-anchor="middle" x="107" y="-97.5" font-family="Helvetica,sans-Serif" font-size="10.00">VBox</text>
</g>
<!-- Node3&#45;&gt;Node1 -->
<g id="edge2" class="edge"><title>Node3&#45;&gt;Node1</title>
<path fill="none" stroke="#9a32cd" stroke-dasharray="5,2" d="M112.844,-80.7673C117.11,-70.2801 123.929,-57.6972 134,-50 153.979,-34.7294 180.033,-26.4125 203.984,-21.9226"/>
<polygon fill="#9a32cd" stroke="#9a32cd" points="109.507,-79.7031 109.403,-90.2974 116.091,-82.0803 109.507,-79.7031"/>
<text text-anchor="middle" x="169" y="-58.5" font-family="Helvetica,sans-Serif" font-size="10.00"> gesturesVBox</text>
</g>
<!-- Node4 -->
<g id="node4" class="node"><title>Node4</title>
<polygon fill="white" stroke="#bfbfbf" points="177.5,-90.5 177.5,-109.5 222.5,-109.5 222.5,-90.5 177.5,-90.5"/>
<text text-anchor="middle" x="200" y="-97.5" font-family="Helvetica,sans-Serif" font-size="10.00">Stage</text>
</g>
<!-- Node4&#45;&gt;Node1 -->
<g id="edge3" class="edge"><title>Node4&#45;&gt;Node1</title>
<path fill="none" stroke="#9a32cd" stroke-dasharray="5,2" d="M204.283,-80.2356C207.213,-70.4532 211.886,-58.7403 219,-50 225.125,-42.4752 233.434,-36.0969 241.567,-31.0129"/>
<polygon fill="#9a32cd" stroke="#9a32cd" points="200.821,-79.6384 201.677,-90.1986 207.594,-81.4098 200.821,-79.6384"/>
<text text-anchor="middle" x="242.5" y="-58.5" font-family="Helvetica,sans-Serif" font-size="10.00"> myStage</text>
</g>
<!-- Node5 -->
<g id="node5" class="node"><title>Node5</title>
<polygon fill="white" stroke="#bfbfbf" points="249,-90.5 249,-109.5 291,-109.5 291,-90.5 249,-90.5"/>
<text text-anchor="middle" x="270" y="-97.5" font-family="Helvetica,sans-Serif" font-size="10.00">Label</text>
</g>
<!-- Node5&#45;&gt;Node1 -->
<g id="edge4" class="edge"><title>Node5&#45;&gt;Node1</title>
<path fill="none" stroke="#9a32cd" stroke-dasharray="5,2" d="M270,-80.1139C270,-65.2014 270,-44.7195 270,-31.1839"/>
<polygon fill="#9a32cd" stroke="#9a32cd" points="266.5,-80.2245 270,-90.2246 273.5,-80.2246 266.5,-80.2245"/>
<text text-anchor="middle" x="310" y="-58.5" font-family="Helvetica,sans-Serif" font-size="10.00"> myCurrentLabel</text>
</g>
<!-- Node6 -->
<g id="node6" class="node"><title>Node6</title>
<polygon fill="white" stroke="#bfbfbf" points="310,-90.5 310,-109.5 432,-109.5 432,-90.5 310,-90.5"/>
<text text-anchor="middle" x="371" y="-97.5" font-family="Helvetica,sans-Serif" font-size="10.00">Map&lt; String, String &gt;</text>
</g>
<!-- Node6&#45;&gt;Node1 -->
<g id="edge5" class="edge"><title>Node6&#45;&gt;Node1</title>
<path fill="none" stroke="#9a32cd" stroke-dasharray="5,2" d="M367.123,-80.3318C364.187,-70.2413 359.209,-58.204 351,-50 342.944,-41.9497 332.657,-35.7839 322.136,-31.0895"/>
<polygon fill="#9a32cd" stroke="#9a32cd" points="363.774,-81.3708 369.564,-90.2436 370.571,-79.6967 363.774,-81.3708"/>
<text text-anchor="middle" x="394" y="-58.5" font-family="Helvetica,sans-Serif" font-size="10.00"> myControls</text>
</g>
<!-- Node7 -->
<g id="node7" class="node"><title>Node7</title>
<polygon fill="white" stroke="#bfbfbf" points="450.5,-90.5 450.5,-109.5 519.5,-109.5 519.5,-90.5 450.5,-90.5"/>
<text text-anchor="middle" x="485" y="-97.5" font-family="Helvetica,sans-Serif" font-size="10.00">ComboBox</text>
</g>
<!-- Node7&#45;&gt;Node1 -->
<g id="edge6" class="edge"><title>Node7&#45;&gt;Node1</title>
<path fill="none" stroke="#9a32cd" stroke-dasharray="5,2" d="M470.284,-82.9276C459.378,-71.9974 443.584,-58.0999 427,-50 398.845,-36.2487 365.115,-28.2106 336.149,-23.5199"/>
<polygon fill="#9a32cd" stroke="#9a32cd" points="467.852,-85.4485 477.303,-90.2368 472.901,-80.5998 467.852,-85.4485"/>
<text text-anchor="middle" x="500.5" y="-64" font-family="Helvetica,sans-Serif" font-size="10.00"> MouseDropDown</text>
<text text-anchor="middle" x="500.5" y="-53" font-family="Helvetica,sans-Serif" font-size="10.00">ClickDropDown</text>
</g>
<!-- Node8 -->
<g id="node8" class="node"><title>Node8</title>
<polygon fill="white" stroke="#bfbfbf" points="547,-90.5 547,-109.5 619,-109.5 619,-90.5 547,-90.5"/>
<text text-anchor="middle" x="583" y="-97.5" font-family="Helvetica,sans-Serif" font-size="10.00">BorderPane</text>
</g>
<!-- Node8&#45;&gt;Node1 -->
<g id="edge7" class="edge"><title>Node8&#45;&gt;Node1</title>
<path fill="none" stroke="#9a32cd" stroke-dasharray="5,2" d="M574.692,-81.2579C568.614,-70.3629 559.288,-57.1647 547,-50 512.327,-29.7834 406.433,-21.912 336.078,-18.8745"/>
<polygon fill="#9a32cd" stroke="#9a32cd" points="571.685,-83.065 579.352,-90.3768 577.918,-79.8795 571.685,-83.065"/>
<text text-anchor="middle" x="589" y="-58.5" font-family="Helvetica,sans-Serif" font-size="10.00"> myRoot</text>
</g>
</g>
</svg>
        <g id="navigator" transform="translate(0 0)" fill="#404254">
                <rect fill="#f2f5e9" fill-opacity="0.5" stroke="#606060" stroke-width=".5" x="0" y="0" width="60" height="60"/>
                <use id="zoomplus" xlink:href="#zoomPlus" x="17" y="9" onmousedown="handleZoom(evt,'in')"/>
                <use id="zoomminus" xlink:href="#zoomMin" x="42" y="9" onmousedown="handleZoom(evt,'out')"/>
                <use id="reset" xlink:href="#resetDef" x="30" y="36" onmousedown="handleReset()"/>
                <g id="arrowUp" xlink:href="#dirArrow" transform="translate(30 24)" onmousedown="handlePan(0,-1)">
                  <use xlink:href="#rim" fill="#404040">
                        <set attributeName="fill" to="#808080" begin="arrowUp.mouseover" end="arrowUp.mouseout"/>
                  </use>
                  <path fill="none" stroke="white" stroke-width="1.5" d="M0,-3.0v7 M-2.5,-0.5L0,-3.0L2.5,-0.5"/>
                </g>
                <g id="arrowRight" xlink:href="#dirArrow" transform="rotate(90) translate(36 -43)" onmousedown="handlePan(1,0)">
                  <use xlink:href="#rim" fill="#404040">
                        <set attributeName="fill" to="#808080" begin="arrowRight.mouseover" end="arrowRight.mouseout"/>
                  </use>
                  <path fill="none" stroke="white" stroke-width="1.5" d="M0,-3.0v7 M-2.5,-0.5L0,-3.0L2.5,-0.5"/>
                </g>
                <g id="arrowDown" xlink:href="#dirArrow" transform="rotate(180) translate(-30 -48)" onmousedown="handlePan(0,1)">
                  <use xlink:href="#rim" fill="#404040">
                        <set attributeName="fill" to="#808080" begin="arrowDown.mouseover" end="arrowDown.mouseout"/>
                  </use>
                  <path fill="none" stroke="white" stroke-width="1.5" d="M0,-3.0v7 M-2.5,-0.5L0,-3.0L2.5,-0.5"/>
                </g>
                <g id="arrowLeft" xlink:href="#dirArrow" transform="rotate(270) translate(-36 17)" onmousedown="handlePan(-1,0)">
                  <use xlink:href="#rim" fill="#404040">
                        <set attributeName="fill" to="#808080" begin="arrowLeft.mouseover" end="arrowLeft.mouseout"/>
                  </use>
                  <path fill="none" stroke="white" stroke-width="1.5" d="M0,-3.0v7 M-2.5,-0.5L0,-3.0L2.5,-0.5"/>
                </g>
        </g>
        <svg viewBox="0 0 15 15" width="100%" height="30px" preserveAspectRatio="xMaxYMin meet">
         <g id="arrow_out" transform="scale(0.3 0.3)">
          <a xlink:href="classutilities_1_1leap_motion_1_1_leap_u_i_controller__coll__graph_org.svg" target="_base">
           <rect id="button" ry="5" rx="5" y="6" x="6" height="38" width="38"
                fill="#f2f5e9" fill-opacity="0.5" stroke="#606060" stroke-width="1.0"/>
           <path id="arrow"
             d="M 11.500037,31.436501 C 11.940474,20.09759 22.043105,11.32322 32.158766,21.979434 L 37.068811,17.246167 C 37.068811,17.246167 37.088388,32 37.088388,32 L 22.160133,31.978069 C 22.160133,31.978069 26.997745,27.140456 26.997745,27.140456 C 18.528582,18.264221 13.291696,25.230495 11.500037,31.436501 z"
             style="fill:#404040;"/>
          </a>
         </g>
        </svg>
</svg>
