<?xml version="1.0" encoding="UTF-8" standalone="no"?>
<!DOCTYPE svg PUBLIC "-//W3C//DTD SVG 1.1//EN"
 "http://www.w3.org/Graphics/SVG/1.1/DTD/svg11.dtd">
<!-- Generated by graphviz version 2.36.0 (20140111.2315)
 -->
<!-- Title: authoring.concretefeatures.StatsIndividualEditor.initStatsEditorBox Pages: 1 -->
<svg width="340pt" height="48pt"
 viewBox="0.00 0.00 340.00 48.00" xmlns="http://www.w3.org/2000/svg" xmlns:xlink="http://www.w3.org/1999/xlink">
<g id="graph0" class="graph" transform="scale(1 1) rotate(0) translate(4 44)">
<title>authoring.concretefeatures.StatsIndividualEditor.initStatsEditorBox</title>
<polygon fill="white" stroke="none" points="-4,4 -4,-44 336,-44 336,4 -4,4"/>
<!-- Node1 -->
<g id="node1" class="node"><title>Node1</title>
<polygon fill="#bfbfbf" stroke="black" points="0,0.5 0,-40.5 156,-40.5 156,0.5 0,0.5"/>
<text text-anchor="start" x="8" y="-28.5" font-family="Helvetica,sans-Serif" font-size="10.00">authoring.concretefeatures.</text>
<text text-anchor="start" x="8" y="-17.5" font-family="Helvetica,sans-Serif" font-size="10.00">StatsIndividualEditor.initStats</text>
<text text-anchor="middle" x="78" y="-6.5" font-family="Helvetica,sans-Serif" font-size="10.00">EditorBox</text>
</g>
<!-- Node2 -->
<g id="node2" class="node"><title>Node2</title>
<g id="a_node2"><a xlink:href="../../d6/d1d/classgamedata_1_1stats_1_1_stats.html#af856afc55d980f35020bbeaefeb1777d" target="_top" xlink:title="gamedata.stats.Stats.get\lValue">
<polygon fill="white" stroke="black" points="192,-5 192,-35 332,-35 332,-5 192,-5"/>
<text text-anchor="start" x="200" y="-23" font-family="Helvetica,sans-Serif" font-size="10.00">gamedata.stats.Stats.get</text>
<text text-anchor="middle" x="262" y="-12" font-family="Helvetica,sans-Serif" font-size="10.00">Value</text>
</a>
</g>
</g>
<!-- Node1&#45;&gt;Node2 -->
<g id="edge1" class="edge"><title>Node1&#45;&gt;Node2</title>
<path fill="none" stroke="midnightblue" d="M156.184,-20C164.587,-20 173.151,-20 181.581,-20"/>
<polygon fill="midnightblue" stroke="midnightblue" points="181.776,-23.5001 191.776,-20 181.776,-16.5001 181.776,-23.5001"/>
</g>
</g>
</svg>
