<?xml version="1.0" encoding="UTF-8" standalone="no"?>
<!DOCTYPE svg PUBLIC "-//W3C//DTD SVG 1.1//EN"
 "http://www.w3.org/Graphics/SVG/1.1/DTD/svg11.dtd">
<!-- Generated by graphviz version 2.36.0 (20140111.2315)
 -->
<!-- Title: authoring.concretefeatures.StatsIndividualEditor.initialize Pages: 1 -->
<svg width="560pt" height="147pt"
 viewBox="0.00 0.00 560.00 147.00" xmlns="http://www.w3.org/2000/svg" xmlns:xlink="http://www.w3.org/1999/xlink">
<g id="graph0" class="graph" transform="scale(1 1) rotate(0) translate(4 143)">
<title>authoring.concretefeatures.StatsIndividualEditor.initialize</title>
<polygon fill="white" stroke="none" points="-4,4 -4,-143 556,-143 556,4 -4,4"/>
<!-- Node1 -->
<g id="node1" class="node"><title>Node1</title>
<polygon fill="#bfbfbf" stroke="black" points="0.5,-60 0.5,-90 155.5,-90 155.5,-60 0.5,-60"/>
<text text-anchor="start" x="8.5" y="-78" font-family="Helvetica,sans-Serif" font-size="10.00">authoring.concretefeatures.</text>
<text text-anchor="middle" x="78" y="-67" font-family="Helvetica,sans-Serif" font-size="10.00">StatsIndividualEditor.initialize</text>
</g>
<!-- Node2 -->
<g id="node2" class="node"><title>Node2</title>
<g id="a_node2"><a xlink:href="../../d3/d7c/classauthoring_1_1concretefeatures_1_1_stats_individual_editor.html#a75a80af4a0d76e633249f777c3322fe2" target="_top" xlink:title="authoring.concretefeatures.\lStatsIndividualEditor.createButton">
<polygon fill="white" stroke="black" points="192.5,-109 192.5,-139 371.5,-139 371.5,-109 192.5,-109"/>
<text text-anchor="start" x="200.5" y="-127" font-family="Helvetica,sans-Serif" font-size="10.00">authoring.concretefeatures.</text>
<text text-anchor="middle" x="282" y="-116" font-family="Helvetica,sans-Serif" font-size="10.00">StatsIndividualEditor.createButton</text>
</a>
</g>
</g>
<!-- Node1&#45;&gt;Node2 -->
<g id="edge1" class="edge"><title>Node1&#45;&gt;Node2</title>
<path fill="none" stroke="midnightblue" d="M140.979,-90.0346C162.599,-95.2789 187.037,-101.207 209.375,-106.626"/>
<polygon fill="midnightblue" stroke="midnightblue" points="208.594,-110.038 219.138,-108.994 210.245,-103.235 208.594,-110.038"/>
</g>
<!-- Node4 -->
<g id="node4" class="node"><title>Node4</title>
<g id="a_node4"><a xlink:href="../../d6/d1d/classgamedata_1_1stats_1_1_stats.html#a697416262aa5871d7b38fdcc0b92c586" target="_top" xlink:title="gamedata.stats.Stats.get\lStatNames">
<polygon fill="white" stroke="black" points="212,-60 212,-90 352,-90 352,-60 212,-60"/>
<text text-anchor="start" x="220" y="-78" font-family="Helvetica,sans-Serif" font-size="10.00">gamedata.stats.Stats.get</text>
<text text-anchor="middle" x="282" y="-67" font-family="Helvetica,sans-Serif" font-size="10.00">StatNames</text>
</a>
</g>
</g>
<!-- Node1&#45;&gt;Node4 -->
<g id="edge3" class="edge"><title>Node1&#45;&gt;Node4</title>
<path fill="none" stroke="midnightblue" d="M155.656,-75C170.618,-75 186.339,-75 201.395,-75"/>
<polygon fill="midnightblue" stroke="midnightblue" points="201.695,-78.5001 211.694,-75 201.694,-71.5001 201.695,-78.5001"/>
</g>
<!-- Node5 -->
<g id="node5" class="node"><title>Node5</title>
<g id="a_node5"><a xlink:href="../../d3/d7c/classauthoring_1_1concretefeatures_1_1_stats_individual_editor.html#a0e905c830eff8f2e8783d7c1490f884e" target="_top" xlink:title="authoring.concretefeatures.\lStatsIndividualEditor.initStats\lEditorBox">
<polygon fill="white" stroke="black" points="204,-0.5 204,-41.5 360,-41.5 360,-0.5 204,-0.5"/>
<text text-anchor="start" x="212" y="-29.5" font-family="Helvetica,sans-Serif" font-size="10.00">authoring.concretefeatures.</text>
<text text-anchor="start" x="212" y="-18.5" font-family="Helvetica,sans-Serif" font-size="10.00">StatsIndividualEditor.initStats</text>
<text text-anchor="middle" x="282" y="-7.5" font-family="Helvetica,sans-Serif" font-size="10.00">EditorBox</text>
</a>
</g>
</g>
<!-- Node1&#45;&gt;Node5 -->
<g id="edge4" class="edge"><title>Node1&#45;&gt;Node5</title>
<path fill="none" stroke="midnightblue" d="M135.268,-59.958C153.627,-55.0501 174.457,-49.4817 194.508,-44.1216"/>
<polygon fill="midnightblue" stroke="midnightblue" points="195.518,-47.4747 204.275,-41.5107 193.71,-40.7121 195.518,-47.4747"/>
</g>
<!-- Node3 -->
<g id="node3" class="node"><title>Node3</title>
<g id="a_node3"><a xlink:href="../../d6/d1d/classgamedata_1_1stats_1_1_stats.html#a2c731c37c7527e09767d009660646c0c" target="_top" xlink:title="gamedata.stats.Stats.add">
<polygon fill="white" stroke="black" points="408.5,-114.5 408.5,-133.5 551.5,-133.5 551.5,-114.5 408.5,-114.5"/>
<text text-anchor="middle" x="480" y="-121.5" font-family="Helvetica,sans-Serif" font-size="10.00">gamedata.stats.Stats.add</text>
</a>
</g>
</g>
<!-- Node2&#45;&gt;Node3 -->
<g id="edge2" class="edge"><title>Node2&#45;&gt;Node3</title>
<path fill="none" stroke="midnightblue" d="M371.539,-124C380.434,-124 389.435,-124 398.244,-124"/>
<polygon fill="midnightblue" stroke="midnightblue" points="398.479,-127.5 408.479,-124 398.479,-120.5 398.479,-127.5"/>
</g>
<!-- Node6 -->
<g id="node6" class="node"><title>Node6</title>
<g id="a_node6"><a xlink:href="../../d6/d1d/classgamedata_1_1stats_1_1_stats.html#af856afc55d980f35020bbeaefeb1777d" target="_top" xlink:title="gamedata.stats.Stats.get\lValue">
<polygon fill="white" stroke="black" points="410,-6 410,-36 550,-36 550,-6 410,-6"/>
<text text-anchor="start" x="418" y="-24" font-family="Helvetica,sans-Serif" font-size="10.00">gamedata.stats.Stats.get</text>
<text text-anchor="middle" x="480" y="-13" font-family="Helvetica,sans-Serif" font-size="10.00">Value</text>
</a>
</g>
</g>
<!-- Node5&#45;&gt;Node6 -->
<g id="edge5" class="edge"><title>Node5&#45;&gt;Node6</title>
<path fill="none" stroke="midnightblue" d="M360.183,-21C373.116,-21 386.556,-21 399.545,-21"/>
<polygon fill="midnightblue" stroke="midnightblue" points="399.847,-24.5001 409.847,-21 399.847,-17.5001 399.847,-24.5001"/>
</g>
</g>
</svg>
