<?xml version="1.0" encoding="UTF-8" standalone="no"?>
<!DOCTYPE svg PUBLIC "-//W3C//DTD SVG 1.1//EN"
 "http://www.w3.org/Graphics/SVG/1.1/DTD/svg11.dtd">
<!-- Generated by graphviz version 2.36.0 (20140111.2315)
 -->
<!-- Title: authoring.concretefeatures.StatsIndividualEditor.initStatsEditorBox Pages: 1 -->
<svg width="578pt" height="48pt"
 viewBox="0.00 0.00 578.00 48.00" xmlns="http://www.w3.org/2000/svg" xmlns:xlink="http://www.w3.org/1999/xlink">
<g id="graph0" class="graph" transform="scale(1 1) rotate(0) translate(4 44)">
<title>authoring.concretefeatures.StatsIndividualEditor.initStatsEditorBox</title>
<polygon fill="white" stroke="none" points="-4,4 -4,-44 574,-44 574,4 -4,4"/>
<!-- Node1 -->
<g id="node1" class="node"><title>Node1</title>
<polygon fill="#bfbfbf" stroke="black" points="0,0.5 0,-40.5 156,-40.5 156,0.5 0,0.5"/>
<text text-anchor="start" x="8" y="-28.5" font-family="Helvetica,sans-Serif" font-size="10.00">authoring.concretefeatures.</text>
<text text-anchor="start" x="8" y="-17.5" font-family="Helvetica,sans-Serif" font-size="10.00">StatsIndividualEditor.initStats</text>
<text text-anchor="middle" x="78" y="-6.5" font-family="Helvetica,sans-Serif" font-size="10.00">EditorBox</text>
</g>
<!-- Node2 -->
<g id="node2" class="node"><title>Node2</title>
<g id="a_node2"><a xlink:href="../../d3/d7c/classauthoring_1_1concretefeatures_1_1_stats_individual_editor.html#a764ff9599a5931fe06a974fe48dfac86" target="_top" xlink:title="authoring.concretefeatures.\lStatsIndividualEditor.initialize">
<polygon fill="white" stroke="black" points="192.5,-5 192.5,-35 347.5,-35 347.5,-5 192.5,-5"/>
<text text-anchor="start" x="200.5" y="-23" font-family="Helvetica,sans-Serif" font-size="10.00">authoring.concretefeatures.</text>
<text text-anchor="middle" x="270" y="-12" font-family="Helvetica,sans-Serif" font-size="10.00">StatsIndividualEditor.initialize</text>
</a>
</g>
</g>
<!-- Node1&#45;&gt;Node2 -->
<g id="edge1" class="edge"><title>Node1&#45;&gt;Node2</title>
<path fill="none" stroke="midnightblue" d="M166.15,-20C174.841,-20 183.619,-20 192.193,-20"/>
<polygon fill="midnightblue" stroke="midnightblue" points="166.006,-16.5001 156.006,-20 166.006,-23.5001 166.006,-16.5001"/>
</g>
<!-- Node3 -->
<g id="node3" class="node"><title>Node3</title>
<g id="a_node3"><a xlink:href="../../d3/d7c/classauthoring_1_1concretefeatures_1_1_stats_individual_editor.html#a25a8b4ab6003b44c59da6321f574536e" target="_top" xlink:title="authoring.concretefeatures.\lStatsIndividualEditor.StatsIndividual\lEditor">
<polygon fill="white" stroke="black" points="384,0.5 384,-40.5 570,-40.5 570,0.5 384,0.5"/>
<text text-anchor="start" x="392" y="-28.5" font-family="Helvetica,sans-Serif" font-size="10.00">authoring.concretefeatures.</text>
<text text-anchor="start" x="392" y="-17.5" font-family="Helvetica,sans-Serif" font-size="10.00">StatsIndividualEditor.StatsIndividual</text>
<text text-anchor="middle" x="477" y="-6.5" font-family="Helvetica,sans-Serif" font-size="10.00">Editor</text>
</a>
</g>
</g>
<!-- Node2&#45;&gt;Node3 -->
<g id="edge2" class="edge"><title>Node2&#45;&gt;Node3</title>
<path fill="none" stroke="midnightblue" d="M357.707,-20C366.367,-20 375.182,-20 383.896,-20"/>
<polygon fill="midnightblue" stroke="midnightblue" points="357.626,-16.5001 347.626,-20 357.626,-23.5001 357.626,-16.5001"/>
</g>
</g>
</svg>
