<?xml version="1.0" encoding="UTF-8" standalone="no"?>
<!DOCTYPE svg PUBLIC "-//W3C//DTD SVG 1.1//EN"
 "http://www.w3.org/Graphics/SVG/1.1/DTD/svg11.dtd">
<!-- Generated by graphviz version 2.36.0 (20140111.2315)
 -->
<!-- Title: authoring.concretefeatures.LibraryUnitEditor Pages: 1 -->
<!--zoomable 460 -->
<svg id="main" version="1.1" xmlns="http://www.w3.org/2000/svg" xmlns:xlink="http://www.w3.org/1999/xlink" xml:space="preserve" onload="init(evt)">
<style type="text/css"><![CDATA[
.edge:hover path { stroke: red; }
.edge:hover polygon { stroke: red; fill: red; }
]]></style>
<script type="text/javascript"><![CDATA[
var edges = document.getElementsByTagName('g');
if (edges && edges.length) {
  for (var i=0;i<edges.length;i++) {
    if (edges[i].id.substr(0,4)=='edge') {
      edges[i].setAttribute('class','edge');
    }
  }
}
]]></script>
        <defs>
                <circle id="rim" cx="0" cy="0" r="7"/>
                <circle id="rim2" cx="0" cy="0" r="3.5"/>
                <g id="zoomPlus">
                        <use xlink:href="#rim" fill="#404040">
                                <set attributeName="fill" to="#808080" begin="zoomplus.mouseover" end="zoomplus.mouseout"/>
                        </use>
                        <path d="M-4,0h8M0,-4v8" fill="none" stroke="white" stroke-width="1.5" pointer-events="none"/>
                </g>
                <g id="zoomMin">
                        <use xlink:href="#rim" fill="#404040">
                                <set attributeName="fill" to="#808080" begin="zoomminus.mouseover" end="zoomminus.mouseout"/>
                        </use>
                        <path d="M-4,0h8" fill="none" stroke="white" stroke-width="1.5" pointer-events="none"/>
                </g>
                <g id="dirArrow">
                        <path fill="none" stroke="white" stroke-width="1.5" d="M0,-3.0v7 M-2.5,-0.5L0,-3.0L2.5,-0.5"/>
                </g>
               <g id="resetDef">
                       <use xlink:href="#rim2" fill="#404040">
                               <set attributeName="fill" to="#808080" begin="reset.mouseover" end="reset.mouseout"/>
                       </use>
               </g>
        </defs>

<script type="text/javascript">
var viewWidth = 1718;
var viewHeight = 460;
var sectionId = 'dynsection-1';
</script>
<script xlink:href="../../svgpan.js"/>
<svg id="graph" class="graph">
<g id="viewport">
<title>authoring.concretefeatures.LibraryUnitEditor</title>
<polygon fill="white" stroke="none" points="-4,4 -4,-456 1714,-456 1714,4 -4,4"/>
<!-- Node1 -->
<g id="node1" class="node"><title>Node1</title>
<polygon fill="#bfbfbf" stroke="black" points="1560,-319 1560,-349 1710,-349 1710,-319 1560,-319"/>
<text text-anchor="start" x="1568" y="-337" font-family="Helvetica,sans-Serif" font-size="10.00">authoring.concretefeatures.</text>
<text text-anchor="middle" x="1635" y="-326" font-family="Helvetica,sans-Serif" font-size="10.00">LibraryUnitEditor</text>
</g>
<!-- Node2 -->
<g id="node2" class="node"><title>Node2</title>
<polygon fill="white" stroke="#bfbfbf" points="1315.5,-432.5 1315.5,-451.5 1380.5,-451.5 1380.5,-432.5 1315.5,-432.5"/>
<text text-anchor="middle" x="1348" y="-439.5" font-family="Helvetica,sans-Serif" font-size="10.00">TitledPane</text>
</g>
<!-- Node2&#45;&gt;Node1 -->
<g id="edge1" class="edge"><title>Node2&#45;&gt;Node1</title>
<path fill="none" stroke="midnightblue" d="M1390.7,-443.628C1431.18,-443.626 1493.44,-439.355 1542,-417 1576,-401.348 1606.28,-368.629 1622.19,-349.274"/>
<polygon fill="midnightblue" stroke="midnightblue" points="1390.68,-440.128 1380.65,-443.54 1390.62,-447.127 1390.68,-440.128"/>
</g>
<!-- Node3 -->
<g id="node3" class="node"><title>Node3</title>
<g id="a_node3"><a xlink:href="../../d6/d1d/classgamedata_1_1stats_1_1_stats.html" target="_top" xlink:title="gamedata.stats.Stats">
<polygon fill="white" stroke="black" points="1008,-385.5 1008,-404.5 1130,-404.5 1130,-385.5 1008,-385.5"/>
<text text-anchor="middle" x="1069" y="-392.5" font-family="Helvetica,sans-Serif" font-size="10.00">gamedata.stats.Stats</text>
</a>
</g>
</g>
<!-- Node3&#45;&gt;Node1 -->
<g id="edge2" class="edge"><title>Node3&#45;&gt;Node1</title>
<path fill="none" stroke="#9a32cd" stroke-dasharray="5,2" d="M1140.19,-389.622C1232.53,-382.213 1399.78,-367.638 1542,-349 1547.78,-348.243 1553.75,-347.402 1559.74,-346.516"/>
<polygon fill="#9a32cd" stroke="#9a32cd" points="1139.81,-386.141 1130.12,-390.425 1140.37,-393.119 1139.81,-386.141"/>
<text text-anchor="middle" x="1348" y="-382" font-family="Helvetica,sans-Serif" font-size="10.00"> myStats</text>
</g>
<!-- Node8 -->
<g id="node8" class="node"><title>Node8</title>
<g id="a_node8"><a xlink:href="../../d4/d63/classgamedata_1_1gamecomponents_1_1_piece.html" target="_top" xlink:title="gamedata.gamecomponents.\lPiece">
<polygon fill="white" stroke="black" points="1268,-214 1268,-244 1428,-244 1428,-214 1268,-214"/>
<text text-anchor="start" x="1276" y="-232" font-family="Helvetica,sans-Serif" font-size="10.00">gamedata.gamecomponents.</text>
<text text-anchor="middle" x="1348" y="-221" font-family="Helvetica,sans-Serif" font-size="10.00">Piece</text>
</a>
</g>
</g>
<!-- Node3&#45;&gt;Node8 -->
<g id="edge13" class="edge"><title>Node3&#45;&gt;Node8</title>
<path fill="none" stroke="#9a32cd" stroke-dasharray="5,2" d="M1114.37,-382.691C1129.55,-378.291 1146.59,-373.144 1162,-368 1201.62,-354.776 1222.19,-366.168 1250,-335 1271.96,-310.388 1246.63,-288.129 1268,-263 1274.77,-255.037 1283.75,-248.887 1293.21,-244.154"/>
<polygon fill="#9a32cd" stroke="#9a32cd" points="1113.35,-379.343 1104.7,-385.466 1115.28,-386.072 1113.35,-379.343"/>
<text text-anchor="middle" x="1215" y="-366" font-family="Helvetica,sans-Serif" font-size="10.00"> myStats</text>
</g>
<!-- Node4 -->
<g id="node4" class="node"><title>Node4</title>
<polygon fill="white" stroke="#bfbfbf" points="692,-385.5 692,-404.5 820,-404.5 820,-385.5 692,-385.5"/>
<text text-anchor="middle" x="756" y="-392.5" font-family="Helvetica,sans-Serif" font-size="10.00">Map&lt; String, Double &gt;</text>
</g>
<!-- Node4&#45;&gt;Node3 -->
<g id="edge3" class="edge"><title>Node4&#45;&gt;Node3</title>
<path fill="none" stroke="#9a32cd" stroke-dasharray="5,2" d="M830.531,-395C884.646,-395 957.307,-395 1007.95,-395"/>
<polygon fill="#9a32cd" stroke="#9a32cd" points="830.31,-391.5 820.31,-395 830.31,-398.5 830.31,-391.5"/>
<text text-anchor="middle" x="912" y="-398" font-family="Helvetica,sans-Serif" font-size="10.00"> myStats</text>
</g>
<!-- Node5 -->
<g id="node5" class="node"><title>Node5</title>
<g id="a_node5"><a xlink:href="../../d2/da6/classauthoring_1_1data_1_1_action_data.html" target="_top" xlink:title="authoring.data.ActionData">
<polygon fill="white" stroke="black" points="1276.5,-324.5 1276.5,-343.5 1419.5,-343.5 1419.5,-324.5 1276.5,-324.5"/>
<text text-anchor="middle" x="1348" y="-331.5" font-family="Helvetica,sans-Serif" font-size="10.00">authoring.data.ActionData</text>
</a>
</g>
</g>
<!-- Node5&#45;&gt;Node1 -->
<g id="edge4" class="edge"><title>Node5&#45;&gt;Node1</title>
<path fill="none" stroke="#9a32cd" stroke-dasharray="5,2" d="M1430,-334C1470.83,-334 1519.99,-334 1559.82,-334"/>
<polygon fill="#9a32cd" stroke="#9a32cd" points="1429.82,-330.5 1419.82,-334 1429.82,-337.5 1429.82,-330.5"/>
<text text-anchor="middle" x="1494" y="-337" font-family="Helvetica,sans-Serif" font-size="10.00"> myAvailableActions</text>
</g>
<!-- Node6 -->
<g id="node6" class="node"><title>Node6</title>
<g id="a_node6"><a xlink:href="../../d5/d29/interfaceauthoring_1_1data_1_1_authoring_data.html" target="_top" xlink:title="authoring.data.Authoring\lData\&lt; Action \&gt;">
<polygon fill="white" stroke="black" points="1000.5,-329 1000.5,-359 1137.5,-359 1137.5,-329 1000.5,-329"/>
<text text-anchor="start" x="1008.5" y="-347" font-family="Helvetica,sans-Serif" font-size="10.00">authoring.data.Authoring</text>
<text text-anchor="middle" x="1069" y="-336" font-family="Helvetica,sans-Serif" font-size="10.00">Data&lt; Action &gt;</text>
</a>
</g>
</g>
<!-- Node6&#45;&gt;Node5 -->
<g id="edge5" class="edge"><title>Node6&#45;&gt;Node5</title>
<path fill="none" stroke="midnightblue" d="M1147.8,-341.191C1188.06,-339.738 1236.86,-337.976 1276.07,-336.561"/>
<polygon fill="midnightblue" stroke="midnightblue" points="1147.63,-337.695 1137.76,-341.554 1147.88,-344.691 1147.63,-337.695"/>
</g>
<!-- Node7 -->
<g id="node7" class="node"><title>Node7</title>
<polygon fill="white" stroke="#bfbfbf" points="984,-283.5 984,-302.5 1154,-302.5 1154,-283.5 984,-283.5"/>
<text text-anchor="middle" x="1069" y="-290.5" font-family="Helvetica,sans-Serif" font-size="10.00">List&lt; gamedata.action.Action &gt;</text>
</g>
<!-- Node7&#45;&gt;Node1 -->
<g id="edge7" class="edge"><title>Node7&#45;&gt;Node1</title>
<path fill="none" stroke="#9a32cd" stroke-dasharray="5,2" d="M1164.51,-292.974C1236.79,-293.662 1338.85,-296.165 1428,-304 1471.92,-307.86 1520.77,-314.855 1559.87,-321.119"/>
<polygon fill="#9a32cd" stroke="#9a32cd" points="1164.1,-289.47 1154.07,-292.885 1164.04,-296.47 1164.1,-289.47"/>
<text text-anchor="middle" x="1348" y="-307" font-family="Helvetica,sans-Serif" font-size="10.00"> myActions</text>
</g>
<!-- Node7&#45;&gt;Node5 -->
<g id="edge6" class="edge"><title>Node7&#45;&gt;Node5</title>
<path fill="none" stroke="#9a32cd" stroke-dasharray="5,2" d="M1144.4,-304.013C1187.54,-310.397 1241.32,-318.357 1282.62,-324.471"/>
<polygon fill="#9a32cd" stroke="#9a32cd" points="1144.65,-300.511 1134.25,-302.509 1143.63,-307.436 1144.65,-300.511"/>
<text text-anchor="middle" x="1215" y="-323" font-family="Helvetica,sans-Serif" font-size="10.00"> myActions</text>
</g>
<!-- Node7&#45;&gt;Node8 -->
<g id="edge32" class="edge"><title>Node7&#45;&gt;Node8</title>
<path fill="none" stroke="#9a32cd" stroke-dasharray="5,2" d="M1140.93,-280.7C1148.19,-278.524 1155.33,-275.977 1162,-273 1171.01,-268.978 1170.93,-263.884 1180,-260 1207.38,-248.278 1239.15,-240.98 1267.58,-236.44"/>
<polygon fill="#9a32cd" stroke="#9a32cd" points="1139.72,-277.405 1131.02,-283.444 1141.59,-284.151 1139.72,-277.405"/>
<text text-anchor="middle" x="1215" y="-263" font-family="Helvetica,sans-Serif" font-size="10.00"> myActions</text>
</g>
<!-- Node8&#45;&gt;Node1 -->
<g id="edge8" class="edge"><title>Node8&#45;&gt;Node1</title>
<path fill="none" stroke="#9a32cd" stroke-dasharray="5,2" d="M1438.44,-233.673C1472.02,-237.893 1509.82,-245.695 1542,-260 1573.47,-273.989 1603.25,-301.487 1620.02,-318.738"/>
<polygon fill="#9a32cd" stroke="#9a32cd" points="1438.5,-230.157 1428.17,-232.475 1437.69,-237.11 1438.5,-230.157"/>
<text text-anchor="middle" x="1494" y="-263" font-family="Helvetica,sans-Serif" font-size="10.00"> myUnit</text>
</g>
<!-- Node9 -->
<g id="node9" class="node"><title>Node9</title>
<g id="a_node9"><a xlink:href="../../d9/df2/classgamedata_1_1gamecomponents_1_1_grid_component.html" target="_top" xlink:title="gamedata.gamecomponents.\lGridComponent">
<polygon fill="white" stroke="black" points="989,-234 989,-264 1149,-264 1149,-234 989,-234"/>
<text text-anchor="start" x="997" y="-252" font-family="Helvetica,sans-Serif" font-size="10.00">gamedata.gamecomponents.</text>
<text text-anchor="middle" x="1069" y="-241" font-family="Helvetica,sans-Serif" font-size="10.00">GridComponent</text>
</a>
</g>
</g>
<!-- Node9&#45;&gt;Node8 -->
<g id="edge9" class="edge"><title>Node9&#45;&gt;Node8</title>
<path fill="none" stroke="midnightblue" d="M1159.28,-241.576C1166.29,-241.029 1173.26,-240.498 1180,-240 1208.69,-237.882 1240.16,-235.757 1267.98,-233.947"/>
<polygon fill="midnightblue" stroke="midnightblue" points="1158.69,-238.11 1149,-242.385 1159.24,-245.089 1158.69,-238.11"/>
</g>
<!-- Node10 -->
<g id="node10" class="node"><title>Node10</title>
<g id="a_node10"><a xlink:href="../../dc/d5b/interfacegamedata_1_1gamecomponents_1_1_i_has_stats.html" target="_top" xlink:title="gamedata.gamecomponents.\lIHasStats">
<polygon fill="white" stroke="black" points="676,-234 676,-264 836,-264 836,-234 676,-234"/>
<text text-anchor="start" x="684" y="-252" font-family="Helvetica,sans-Serif" font-size="10.00">gamedata.gamecomponents.</text>
<text text-anchor="middle" x="756" y="-241" font-family="Helvetica,sans-Serif" font-size="10.00">IHasStats</text>
</a>
</g>
</g>
<!-- Node10&#45;&gt;Node9 -->
<g id="edge10" class="edge"><title>Node10&#45;&gt;Node9</title>
<path fill="none" stroke="midnightblue" d="M846.326,-249C891.313,-249 945.384,-249 988.862,-249"/>
<polygon fill="midnightblue" stroke="midnightblue" points="846.283,-245.5 836.283,-249 846.283,-252.5 846.283,-245.5"/>
</g>
<!-- Node11 -->
<g id="node11" class="node"><title>Node11</title>
<polygon fill="white" stroke="#bfbfbf" points="722,-321.5 722,-340.5 790,-340.5 790,-321.5 722,-321.5"/>
<text text-anchor="middle" x="756" y="-328.5" font-family="Helvetica,sans-Serif" font-size="10.00">ImageView</text>
</g>
<!-- Node11&#45;&gt;Node9 -->
<g id="edge11" class="edge"><title>Node11&#45;&gt;Node9</title>
<path fill="none" stroke="#9a32cd" stroke-dasharray="5,2" d="M800.067,-330.435C842.605,-328.197 908.323,-320.115 958,-293 968.21,-287.427 966.016,-279.969 976,-274 982.393,-270.178 989.381,-266.927 996.557,-264.165"/>
<polygon fill="#9a32cd" stroke="#9a32cd" points="799.876,-326.94 790.04,-330.877 800.184,-333.933 799.876,-326.94"/>
<text text-anchor="middle" x="912" y="-326" font-family="Helvetica,sans-Serif" font-size="10.00"> myImageView</text>
</g>
<!-- Node12 -->
<g id="node12" class="node"><title>Node12</title>
<polygon fill="white" stroke="#bfbfbf" points="729,-283.5 729,-302.5 783,-302.5 783,-283.5 729,-283.5"/>
<text text-anchor="middle" x="756" y="-290.5" font-family="Helvetica,sans-Serif" font-size="10.00">Point2D</text>
</g>
<!-- Node12&#45;&gt;Node9 -->
<g id="edge12" class="edge"><title>Node12&#45;&gt;Node9</title>
<path fill="none" stroke="#9a32cd" stroke-dasharray="5,2" d="M793.406,-287.849C841.11,-281.1 926.073,-269.08 988.898,-260.191"/>
<polygon fill="#9a32cd" stroke="#9a32cd" points="792.659,-284.42 783.248,-289.287 793.639,-291.351 792.659,-284.42"/>
<text text-anchor="middle" x="912" y="-281" font-family="Helvetica,sans-Serif" font-size="10.00"> myLoc</text>
</g>
<!-- Node13 -->
<g id="node13" class="node"><title>Node13</title>
<g id="a_node13"><a xlink:href="../../d0/d47/classgameengine_1_1movement_1_1_movement.html" target="_top" xlink:title="gameengine.movement.Movement">
<polygon fill="white" stroke="black" points="976,-140.5 976,-159.5 1162,-159.5 1162,-140.5 976,-140.5"/>
<text text-anchor="middle" x="1069" y="-147.5" font-family="Helvetica,sans-Serif" font-size="10.00">gameengine.movement.Movement</text>
</a>
</g>
</g>
<!-- Node13&#45;&gt;Node8 -->
<g id="edge14" class="edge"><title>Node13&#45;&gt;Node8</title>
<path fill="none" stroke="#9a32cd" stroke-dasharray="5,2" d="M1113.06,-162.28C1161.95,-176.223 1241.72,-198.974 1294.29,-213.967"/>
<polygon fill="#9a32cd" stroke="#9a32cd" points="1113.99,-158.906 1103.41,-159.529 1112.07,-165.638 1113.99,-158.906"/>
<text text-anchor="middle" x="1215" y="-205" font-family="Helvetica,sans-Serif" font-size="10.00"> myMovement</text>
</g>
<!-- Node14 -->
<g id="node14" class="node"><title>Node14</title>
<g id="a_node14"><a xlink:href="../../d8/d85/interfacegamedata_1_1action_1_1_action.html" target="_top" xlink:title="gamedata.action.Action">
<polygon fill="white" stroke="black" points="690.5,-195.5 690.5,-214.5 821.5,-214.5 821.5,-195.5 690.5,-195.5"/>
<text text-anchor="middle" x="756" y="-202.5" font-family="Helvetica,sans-Serif" font-size="10.00">gamedata.action.Action</text>
</a>
</g>
</g>
<!-- Node14&#45;&gt;Node13 -->
<g id="edge15" class="edge"><title>Node14&#45;&gt;Node13</title>
<path fill="none" stroke="midnightblue" d="M831.513,-196.465C869.52,-191.645 916.39,-184.983 958,-177 983.299,-172.146 1011.51,-165.19 1033.03,-159.554"/>
<polygon fill="midnightblue" stroke="midnightblue" points="831.034,-192.997 821.546,-197.712 831.903,-199.943 831.034,-192.997"/>
</g>
<!-- Node15 -->
<g id="node15" class="node"><title>Node15</title>
<polygon fill="white" stroke="#bfbfbf" points="671.5,-157.5 671.5,-176.5 840.5,-176.5 840.5,-157.5 671.5,-157.5"/>
<text text-anchor="middle" x="756" y="-164.5" font-family="Helvetica,sans-Serif" font-size="10.00">List&lt; List&lt; Point2D.Double &gt; &gt;</text>
</g>
<!-- Node15&#45;&gt;Node13 -->
<g id="edge16" class="edge"><title>Node15&#45;&gt;Node13</title>
<path fill="none" stroke="#9a32cd" stroke-dasharray="5,2" d="M850.94,-161.865C890.54,-159.7 936.492,-157.189 975.893,-155.035"/>
<polygon fill="#9a32cd" stroke="#9a32cd" points="850.545,-158.381 840.751,-162.422 850.928,-165.371 850.545,-158.381"/>
<text text-anchor="middle" x="912" y="-165" font-family="Helvetica,sans-Serif" font-size="10.00"> myPaths</text>
</g>
<!-- Node16 -->
<g id="node16" class="node"><title>Node16</title>
<g id="a_node16"><a xlink:href="../../da/d4c/classauthoring__environment_1_1_g_u_i_grid.html" target="_top" xlink:title="authoring_environment.GUIGrid">
<polygon fill="white" stroke="black" points="672,-119.5 672,-138.5 840,-138.5 840,-119.5 672,-119.5"/>
<text text-anchor="middle" x="756" y="-126.5" font-family="Helvetica,sans-Serif" font-size="10.00">authoring_environment.GUIGrid</text>
</a>
</g>
</g>
<!-- Node16&#45;&gt;Node13 -->
<g id="edge17" class="edge"><title>Node16&#45;&gt;Node13</title>
<path fill="none" stroke="#9a32cd" stroke-dasharray="5,2" d="M850.486,-134.89C884.357,-137.066 922.906,-139.589 958,-142 963.826,-142.4 969.826,-142.819 975.874,-143.245"/>
<polygon fill="#9a32cd" stroke="#9a32cd" points="850.337,-131.374 840.134,-134.227 849.89,-138.359 850.337,-131.374"/>
<text text-anchor="middle" x="912" y="-145" font-family="Helvetica,sans-Serif" font-size="10.00"> myGrid</text>
</g>
<!-- Node17 -->
<g id="node17" class="node"><title>Node17</title>
<g id="a_node17"><a xlink:href="../../d9/df3/classauthoring__environment_1_1_super_grid.html" target="_top" xlink:title="authoring_environment.SuperGrid">
<polygon fill="white" stroke="black" points="288.5,-119.5 288.5,-138.5 467.5,-138.5 467.5,-119.5 288.5,-119.5"/>
<text text-anchor="middle" x="378" y="-126.5" font-family="Helvetica,sans-Serif" font-size="10.00">authoring_environment.SuperGrid</text>
</a>
</g>
</g>
<!-- Node17&#45;&gt;Node16 -->
<g id="edge18" class="edge"><title>Node17&#45;&gt;Node16</title>
<path fill="none" stroke="midnightblue" d="M477.938,-129C538.288,-129 614.563,-129 671.796,-129"/>
<polygon fill="midnightblue" stroke="midnightblue" points="477.631,-125.5 467.631,-129 477.631,-132.5 477.631,-125.5"/>
</g>
<!-- Node18 -->
<g id="node18" class="node"><title>Node18</title>
<polygon fill="white" stroke="#bfbfbf" points="18,-155 18,-185 170,-185 170,-155 18,-155"/>
<text text-anchor="start" x="26" y="-173" font-family="Helvetica,sans-Serif" font-size="10.00">List&lt; List&lt; authoring</text>
<text text-anchor="middle" x="94" y="-162" font-family="Helvetica,sans-Serif" font-size="10.00">_environment.SuperTile &gt; &gt;</text>
</g>
<!-- Node18&#45;&gt;Node17 -->
<g id="edge19" class="edge"><title>Node18&#45;&gt;Node17</title>
<path fill="none" stroke="#9a32cd" stroke-dasharray="5,2" d="M180.182,-157.615C222.362,-151.483 272.489,-144.195 311.599,-138.509"/>
<polygon fill="#9a32cd" stroke="#9a32cd" points="179.593,-154.164 170.2,-159.067 180.6,-161.091 179.593,-154.164"/>
<text text-anchor="middle" x="238" y="-157" font-family="Helvetica,sans-Serif" font-size="10.00"> myGrid</text>
</g>
<!-- Node19 -->
<g id="node19" class="node"><title>Node19</title>
<polygon fill="white" stroke="#bfbfbf" points="74,-116.5 74,-135.5 114,-135.5 114,-116.5 74,-116.5"/>
<text text-anchor="middle" x="94" y="-123.5" font-family="Helvetica,sans-Serif" font-size="10.00">Pane</text>
</g>
<!-- Node19&#45;&gt;Node17 -->
<g id="edge20" class="edge"><title>Node19&#45;&gt;Node17</title>
<path fill="none" stroke="#9a32cd" stroke-dasharray="5,2" d="M124.399,-126.313C162.93,-126.723 232.221,-127.46 288.497,-128.058"/>
<polygon fill="#9a32cd" stroke="#9a32cd" points="124.42,-122.813 114.383,-126.206 124.345,-129.812 124.42,-122.813"/>
<text text-anchor="middle" x="238" y="-131" font-family="Helvetica,sans-Serif" font-size="10.00"> myPane</text>
</g>
<!-- Node20 -->
<g id="node20" class="node"><title>Node20</title>
<polygon fill="white" stroke="#bfbfbf" points="348,-43.5 348,-62.5 408,-62.5 408,-43.5 348,-43.5"/>
<text text-anchor="middle" x="378" y="-50.5" font-family="Helvetica,sans-Serif" font-size="10.00">Observer</text>
</g>
<!-- Node20&#45;&gt;Node16 -->
<g id="edge21" class="edge"><title>Node20&#45;&gt;Node16</title>
<path fill="none" stroke="midnightblue" d="M418.498,-53.3076C472.164,-55.0493 570.118,-62.987 646,-96 655.293,-100.043 654.802,-105.743 664,-110 672.349,-113.864 681.491,-116.949 690.66,-119.41"/>
<polygon fill="midnightblue" stroke="midnightblue" points="418.465,-49.8056 408.375,-53.0363 418.278,-56.8031 418.465,-49.8056"/>
</g>
<!-- Node21 -->
<g id="node21" class="node"><title>Node21</title>
<g id="a_node21"><a xlink:href="../../d7/dd4/classauthoring_1_1data_1_1_patch_instance_data.html" target="_top" xlink:title="authoring.data.PatchInstanceData">
<polygon fill="white" stroke="black" points="288,-209.5 288,-228.5 468,-228.5 468,-209.5 288,-209.5"/>
<text text-anchor="middle" x="378" y="-216.5" font-family="Helvetica,sans-Serif" font-size="10.00">authoring.data.PatchInstanceData</text>
</a>
</g>
</g>
<!-- Node21&#45;&gt;Node16 -->
<g id="edge22" class="edge"><title>Node21&#45;&gt;Node16</title>
<path fill="none" stroke="#9a32cd" stroke-dasharray="5,2" d="M425.347,-206.874C481.635,-192.281 579.537,-167.331 664,-148 678.159,-144.759 693.61,-141.449 707.694,-138.518"/>
<polygon fill="#9a32cd" stroke="#9a32cd" points="424.133,-203.573 415.334,-209.474 425.893,-210.348 424.133,-203.573"/>
<text text-anchor="middle" x="566" y="-194" font-family="Helvetica,sans-Serif" font-size="10.00"> myPatchData</text>
</g>
<!-- Node22 -->
<g id="node22" class="node"><title>Node22</title>
<g id="a_node22"><a xlink:href="../../d5/d29/interfaceauthoring_1_1data_1_1_authoring_data.html" target="_top" xlink:title="authoring.data.Authoring\lData\&lt; Patch \&gt;">
<polygon fill="white" stroke="black" points="25.5,-253 25.5,-283 162.5,-283 162.5,-253 25.5,-253"/>
<text text-anchor="start" x="33.5" y="-271" font-family="Helvetica,sans-Serif" font-size="10.00">authoring.data.Authoring</text>
<text text-anchor="middle" x="94" y="-260" font-family="Helvetica,sans-Serif" font-size="10.00">Data&lt; Patch &gt;</text>
</a>
</g>
</g>
<!-- Node22&#45;&gt;Node21 -->
<g id="edge23" class="edge"><title>Node22&#45;&gt;Node21</title>
<path fill="none" stroke="midnightblue" d="M172.49,-254.535C220.005,-246.279 279.685,-235.909 322.288,-228.507"/>
<polygon fill="midnightblue" stroke="midnightblue" points="171.799,-251.103 162.546,-256.263 172.998,-258 171.799,-251.103"/>
</g>
<!-- Node23 -->
<g id="node23" class="node"><title>Node23</title>
<polygon fill="white" stroke="#bfbfbf" points="0,-204 0,-234 188,-234 188,-204 0,-204"/>
<text text-anchor="start" x="8" y="-222" font-family="Helvetica,sans-Serif" font-size="10.00">List&lt; gamedata.gamecomponents.</text>
<text text-anchor="middle" x="94" y="-211" font-family="Helvetica,sans-Serif" font-size="10.00">Patch &gt;</text>
</g>
<!-- Node23&#45;&gt;Node21 -->
<g id="edge24" class="edge"><title>Node23&#45;&gt;Node21</title>
<path fill="none" stroke="#9a32cd" stroke-dasharray="5,2" d="M198.387,-219C227.72,-219 259.395,-219 287.81,-219"/>
<polygon fill="#9a32cd" stroke="#9a32cd" points="198.119,-215.5 188.119,-219 198.119,-222.5 198.119,-215.5"/>
<text text-anchor="middle" x="238" y="-222" font-family="Helvetica,sans-Serif" font-size="10.00"> myPatches</text>
</g>
<!-- Node24 -->
<g id="node24" class="node"><title>Node24</title>
<g id="a_node24"><a xlink:href="../../d6/dda/classauthoring_1_1data_1_1_piece_instance_data.html" target="_top" xlink:title="authoring.data.PieceInstanceData">
<polygon fill="white" stroke="black" points="288.5,-81.5 288.5,-100.5 467.5,-100.5 467.5,-81.5 288.5,-81.5"/>
<text text-anchor="middle" x="378" y="-88.5" font-family="Helvetica,sans-Serif" font-size="10.00">authoring.data.PieceInstanceData</text>
</a>
</g>
</g>
<!-- Node24&#45;&gt;Node16 -->
<g id="edge25" class="edge"><title>Node24&#45;&gt;Node16</title>
<path fill="none" stroke="#9a32cd" stroke-dasharray="5,2" d="M477.747,-98.3024C528.154,-102.335 590.414,-107.785 646,-114 660.238,-115.592 675.489,-117.538 689.937,-119.495"/>
<polygon fill="#9a32cd" stroke="#9a32cd" points="477.749,-94.7916 467.504,-97.4892 477.195,-101.77 477.749,-94.7916"/>
<text text-anchor="middle" x="566" y="-117" font-family="Helvetica,sans-Serif" font-size="10.00"> myPieceData</text>
</g>
<!-- Node25 -->
<g id="node25" class="node"><title>Node25</title>
<g id="a_node25"><a xlink:href="../../d5/d29/interfaceauthoring_1_1data_1_1_authoring_data.html" target="_top" xlink:title="authoring.data.Authoring\lData\&lt; Piece \&gt;">
<polygon fill="white" stroke="black" points="25.5,-67 25.5,-97 162.5,-97 162.5,-67 25.5,-67"/>
<text text-anchor="start" x="33.5" y="-85" font-family="Helvetica,sans-Serif" font-size="10.00">authoring.data.Authoring</text>
<text text-anchor="middle" x="94" y="-74" font-family="Helvetica,sans-Serif" font-size="10.00">Data&lt; Piece &gt;</text>
</a>
</g>
</g>
<!-- Node25&#45;&gt;Node24 -->
<g id="edge26" class="edge"><title>Node25&#45;&gt;Node24</title>
<path fill="none" stroke="midnightblue" d="M172.937,-84.4873C208.739,-85.63 251.374,-86.9907 288.392,-88.1721"/>
<polygon fill="midnightblue" stroke="midnightblue" points="172.653,-80.9766 162.546,-84.1557 172.429,-87.973 172.653,-80.9766"/>
</g>
<!-- Node26 -->
<g id="node26" class="node"><title>Node26</title>
<polygon fill="white" stroke="#bfbfbf" points="0,-9 0,-39 188,-39 188,-9 0,-9"/>
<text text-anchor="start" x="8" y="-27" font-family="Helvetica,sans-Serif" font-size="10.00">List&lt; gamedata.gamecomponents.</text>
<text text-anchor="middle" x="94" y="-16" font-family="Helvetica,sans-Serif" font-size="10.00">Piece &gt;</text>
</g>
<!-- Node26&#45;&gt;Node24 -->
<g id="edge27" class="edge"><title>Node26&#45;&gt;Node24</title>
<path fill="none" stroke="#9a32cd" stroke-dasharray="5,2" d="M163.288,-41.5742C200.151,-50.9119 246.487,-62.4094 288,-72 301.855,-75.2008 316.968,-78.4994 330.742,-81.4313"/>
<polygon fill="#9a32cd" stroke="#9a32cd" points="163.707,-38.0697 153.153,-39.0012 161.985,-44.8545 163.707,-38.0697"/>
<text text-anchor="middle" x="238" y="-71" font-family="Helvetica,sans-Serif" font-size="10.00"> myPieces</text>
</g>
<!-- Node29 -->
<g id="node29" class="node"><title>Node29</title>
<g id="a_node29"><a xlink:href="../../d3/d8e/classgamedata_1_1gamecomponents_1_1_inventory.html" target="_top" xlink:title="gamedata.gamecomponents.\lInventory">
<polygon fill="white" stroke="black" points="486,-0 486,-30 646,-30 646,-0 486,-0"/>
<text text-anchor="start" x="494" y="-18" font-family="Helvetica,sans-Serif" font-size="10.00">gamedata.gamecomponents.</text>
<text text-anchor="middle" x="566" y="-7" font-family="Helvetica,sans-Serif" font-size="10.00">Inventory</text>
</a>
</g>
</g>
<!-- Node26&#45;&gt;Node29 -->
<g id="edge31" class="edge"><title>Node26&#45;&gt;Node29</title>
<path fill="none" stroke="#9a32cd" stroke-dasharray="5,2" d="M198.251,-22.0229C284.827,-20.365 406.649,-18.0323 485.713,-16.5183"/>
<polygon fill="#9a32cd" stroke="#9a32cd" points="198.069,-18.5256 188.138,-22.2165 198.203,-25.5243 198.069,-18.5256"/>
<text text-anchor="middle" x="238" y="-25" font-family="Helvetica,sans-Serif" font-size="10.00"> myInventory</text>
</g>
<!-- Node27 -->
<g id="node27" class="node"><title>Node27</title>
<g id="a_node27"><a xlink:href="../../d1/dac/classgameengine_1_1movement_1_1_orientator.html" target="_top" xlink:title="gameengine.movement.Orientator">
<polygon fill="white" stroke="black" points="664,-81.5 664,-100.5 848,-100.5 848,-81.5 664,-81.5"/>
<text text-anchor="middle" x="756" y="-88.5" font-family="Helvetica,sans-Serif" font-size="10.00">gameengine.movement.Orientator</text>
</a>
</g>
</g>
<!-- Node27&#45;&gt;Node13 -->
<g id="edge28" class="edge"><title>Node27&#45;&gt;Node13</title>
<path fill="none" stroke="#9a32cd" stroke-dasharray="5,2" d="M839.939,-101.96C876.31,-107.238 919.419,-114.134 958,-122 983.681,-127.236 1012.37,-134.589 1034.01,-140.446"/>
<polygon fill="#9a32cd" stroke="#9a32cd" points="840.264,-98.4713 829.868,-100.515 839.269,-105.4 840.264,-98.4713"/>
<text text-anchor="middle" x="912" y="-125" font-family="Helvetica,sans-Serif" font-size="10.00"> myOrientator</text>
</g>
<!-- Node28 -->
<g id="node28" class="node"><title>Node28</title>
<polygon fill="white" stroke="#bfbfbf" points="691,-43.5 691,-62.5 821,-62.5 821,-43.5 691,-43.5"/>
<text text-anchor="middle" x="756" y="-50.5" font-family="Helvetica,sans-Serif" font-size="10.00">List&lt; Point2D.Double &gt;</text>
</g>
<!-- Node28&#45;&gt;Node13 -->
<g id="edge29" class="edge"><title>Node28&#45;&gt;Node13</title>
<path fill="none" stroke="#9a32cd" stroke-dasharray="5,2" d="M831.278,-55.8838C869.999,-59.2291 917.582,-66.2774 958,-81 997.186,-95.2741 1037.18,-124.952 1056.35,-140.315"/>
<polygon fill="#9a32cd" stroke="#9a32cd" points="831.369,-52.3799 821.122,-55.0728 830.811,-59.3577 831.369,-52.3799"/>
<text text-anchor="middle" x="912" y="-95" font-family="Helvetica,sans-Serif" font-size="10.00"> myAbsoluteMoves</text>
<text text-anchor="middle" x="912" y="-84" font-family="Helvetica,sans-Serif" font-size="10.00">myMoves</text>
</g>
<!-- Node29&#45;&gt;Node8 -->
<g id="edge30" class="edge"><title>Node29&#45;&gt;Node8</title>
<path fill="none" stroke="#9a32cd" stroke-dasharray="5,2" d="M656.198,-20.2964C711.466,-23.7604 783.896,-28.629 848,-34 896.961,-38.1023 910.386,-32.877 958,-45 1053.35,-69.2777 1073.11,-88.8184 1162,-131 1219.46,-158.268 1284.81,-194.051 1320.42,-213.965"/>
<polygon fill="#9a32cd" stroke="#9a32cd" points="656.282,-16.7949 646.084,-19.6661 655.847,-23.7814 656.282,-16.7949"/>
<text text-anchor="middle" x="912" y="-48" font-family="Helvetica,sans-Serif" font-size="10.00"> myInventory</text>
</g>
</g>
</svg>
        <g id="navigator" transform="translate(0 0)" fill="#404254">
                <rect fill="#f2f5e9" fill-opacity="0.5" stroke="#606060" stroke-width=".5" x="0" y="0" width="60" height="60"/>
                <use id="zoomplus" xlink:href="#zoomPlus" x="17" y="9" onmousedown="handleZoom(evt,'in')"/>
                <use id="zoomminus" xlink:href="#zoomMin" x="42" y="9" onmousedown="handleZoom(evt,'out')"/>
                <use id="reset" xlink:href="#resetDef" x="30" y="36" onmousedown="handleReset()"/>
                <g id="arrowUp" xlink:href="#dirArrow" transform="translate(30 24)" onmousedown="handlePan(0,-1)">
                  <use xlink:href="#rim" fill="#404040">
                        <set attributeName="fill" to="#808080" begin="arrowUp.mouseover" end="arrowUp.mouseout"/>
                  </use>
                  <path fill="none" stroke="white" stroke-width="1.5" d="M0,-3.0v7 M-2.5,-0.5L0,-3.0L2.5,-0.5"/>
                </g>
                <g id="arrowRight" xlink:href="#dirArrow" transform="rotate(90) translate(36 -43)" onmousedown="handlePan(1,0)">
                  <use xlink:href="#rim" fill="#404040">
                        <set attributeName="fill" to="#808080" begin="arrowRight.mouseover" end="arrowRight.mouseout"/>
                  </use>
                  <path fill="none" stroke="white" stroke-width="1.5" d="M0,-3.0v7 M-2.5,-0.5L0,-3.0L2.5,-0.5"/>
                </g>
                <g id="arrowDown" xlink:href="#dirArrow" transform="rotate(180) translate(-30 -48)" onmousedown="handlePan(0,1)">
                  <use xlink:href="#rim" fill="#404040">
                        <set attributeName="fill" to="#808080" begin="arrowDown.mouseover" end="arrowDown.mouseout"/>
                  </use>
                  <path fill="none" stroke="white" stroke-width="1.5" d="M0,-3.0v7 M-2.5,-0.5L0,-3.0L2.5,-0.5"/>
                </g>
                <g id="arrowLeft" xlink:href="#dirArrow" transform="rotate(270) translate(-36 17)" onmousedown="handlePan(-1,0)">
                  <use xlink:href="#rim" fill="#404040">
                        <set attributeName="fill" to="#808080" begin="arrowLeft.mouseover" end="arrowLeft.mouseout"/>
                  </use>
                  <path fill="none" stroke="white" stroke-width="1.5" d="M0,-3.0v7 M-2.5,-0.5L0,-3.0L2.5,-0.5"/>
                </g>
        </g>
        <svg viewBox="0 0 15 15" width="100%" height="30px" preserveAspectRatio="xMaxYMin meet">
         <g id="arrow_out" transform="scale(0.3 0.3)">
          <a xlink:href="classauthoring_1_1concretefeatures_1_1_library_unit_editor__coll__graph_org.svg" target="_base">
           <rect id="button" ry="5" rx="5" y="6" x="6" height="38" width="38"
                fill="#f2f5e9" fill-opacity="0.5" stroke="#606060" stroke-width="1.0"/>
           <path id="arrow"
             d="M 11.500037,31.436501 C 11.940474,20.09759 22.043105,11.32322 32.158766,21.979434 L 37.068811,17.246167 C 37.068811,17.246167 37.088388,32 37.088388,32 L 22.160133,31.978069 C 22.160133,31.978069 26.997745,27.140456 26.997745,27.140456 C 18.528582,18.264221 13.291696,25.230495 11.500037,31.436501 z"
             style="fill:#404040;"/>
          </a>
         </g>
        </svg>
</svg>
