<?xml version="1.0" encoding="UTF-8" standalone="no"?>
<!DOCTYPE svg PUBLIC "-//W3C//DTD SVG 1.1//EN"
 "http://www.w3.org/Graphics/SVG/1.1/DTD/svg11.dtd">
<!-- Generated by graphviz version 2.36.0 (20140111.2315)
 -->
<!-- Title: authoring.abstractfeatures.PopupWindow Pages: 1 -->
<svg width="424pt" height="469pt"
 viewBox="0.00 0.00 424.00 469.00" xmlns="http://www.w3.org/2000/svg" xmlns:xlink="http://www.w3.org/1999/xlink">
<g id="graph0" class="graph" transform="scale(1 1) rotate(0) translate(4 465)">
<title>authoring.abstractfeatures.PopupWindow</title>
<polygon fill="white" stroke="none" points="-4,4 -4,-465 420,-465 420,4 -4,4"/>
<!-- Node1 -->
<g id="node1" class="node"><title>Node1</title>
<polygon fill="#bfbfbf" stroke="black" points="82,-210 82,-240 230,-240 230,-210 82,-210"/>
<text text-anchor="start" x="90" y="-228" font-family="Helvetica,sans-Serif" font-size="10.00">authoring.abstractfeatures.</text>
<text text-anchor="middle" x="156" y="-217" font-family="Helvetica,sans-Serif" font-size="10.00">PopupWindow</text>
</g>
<!-- Node3 -->
<g id="node3" class="node"><title>Node3</title>
<g id="a_node3"><a xlink:href="../../de/d84/classauthoring_1_1concretefeatures_1_1_action_check.html" target="_top" xlink:title="authoring.concretefeatures.\lActionCheck">
<polygon fill="white" stroke="black" points="266,-431 266,-461 416,-461 416,-431 266,-431"/>
<text text-anchor="start" x="274" y="-449" font-family="Helvetica,sans-Serif" font-size="10.00">authoring.concretefeatures.</text>
<text text-anchor="middle" x="341" y="-438" font-family="Helvetica,sans-Serif" font-size="10.00">ActionCheck</text>
</a>
</g>
</g>
<!-- Node1&#45;&gt;Node3 -->
<g id="edge2" class="edge"><title>Node1&#45;&gt;Node3</title>
<path fill="none" stroke="midnightblue" d="M164.264,-249.791C177.633,-291.172 210.014,-374.365 266,-421 270.584,-424.819 275.779,-428.063 281.239,-430.818"/>
<polygon fill="midnightblue" stroke="midnightblue" points="167.597,-248.72 161.272,-240.219 160.915,-250.808 167.597,-248.72"/>
</g>
<!-- Node4 -->
<g id="node4" class="node"><title>Node4</title>
<g id="a_node4"><a xlink:href="../../dc/dc0/classauthoring_1_1concretefeatures_1_1_individual_unit_editor.html" target="_top" xlink:title="authoring.concretefeatures.\lIndividualUnitEditor">
<polygon fill="white" stroke="black" points="266,-382 266,-412 416,-412 416,-382 266,-382"/>
<text text-anchor="start" x="274" y="-400" font-family="Helvetica,sans-Serif" font-size="10.00">authoring.concretefeatures.</text>
<text text-anchor="middle" x="341" y="-389" font-family="Helvetica,sans-Serif" font-size="10.00">IndividualUnitEditor</text>
</a>
</g>
</g>
<!-- Node1&#45;&gt;Node4 -->
<g id="edge3" class="edge"><title>Node1&#45;&gt;Node4</title>
<path fill="none" stroke="midnightblue" d="M169.092,-249.556C186.3,-282.072 220.842,-339.124 266,-372 271.262,-375.831 277.153,-379.104 283.251,-381.894"/>
<polygon fill="midnightblue" stroke="midnightblue" points="172.013,-247.586 164.315,-240.307 165.794,-250.798 172.013,-247.586"/>
</g>
<!-- Node5 -->
<g id="node5" class="node"><title>Node5</title>
<g id="a_node5"><a xlink:href="../../d6/d17/classauthoring_1_1concretefeatures_1_1_range_editor.html" target="_top" xlink:title="authoring.concretefeatures.\lRangeEditor">
<polygon fill="white" stroke="black" points="266,-333 266,-363 416,-363 416,-333 266,-333"/>
<text text-anchor="start" x="274" y="-351" font-family="Helvetica,sans-Serif" font-size="10.00">authoring.concretefeatures.</text>
<text text-anchor="middle" x="341" y="-340" font-family="Helvetica,sans-Serif" font-size="10.00">RangeEditor</text>
</a>
</g>
</g>
<!-- Node1&#45;&gt;Node5 -->
<g id="edge4" class="edge"><title>Node1&#45;&gt;Node5</title>
<path fill="none" stroke="midnightblue" d="M176.881,-247.577C197.304,-269.546 230.977,-302.524 266,-323 272.439,-326.764 279.526,-330.065 286.687,-332.928"/>
<polygon fill="midnightblue" stroke="midnightblue" points="179.309,-245.045 169.979,-240.025 174.142,-249.767 179.309,-245.045"/>
</g>
<!-- Node6 -->
<g id="node6" class="node"><title>Node6</title>
<g id="a_node6"><a xlink:href="../../d5/d0e/classauthoring_1_1concretefeatures_1_1_receiver_editor.html" target="_top" xlink:title="authoring.concretefeatures.\lReceiverEditor">
<polygon fill="white" stroke="black" points="266,-284 266,-314 416,-314 416,-284 266,-284"/>
<text text-anchor="start" x="274" y="-302" font-family="Helvetica,sans-Serif" font-size="10.00">authoring.concretefeatures.</text>
<text text-anchor="middle" x="341" y="-291" font-family="Helvetica,sans-Serif" font-size="10.00">ReceiverEditor</text>
</a>
</g>
</g>
<!-- Node1&#45;&gt;Node6 -->
<g id="edge5" class="edge"><title>Node1&#45;&gt;Node6</title>
<path fill="none" stroke="midnightblue" d="M197.868,-244.501C218.158,-253.892 243.159,-265.032 266,-274 274.71,-277.42 284.1,-280.812 293.172,-283.943"/>
<polygon fill="midnightblue" stroke="midnightblue" points="199.153,-241.238 188.61,-240.186 196.196,-247.583 199.153,-241.238"/>
</g>
<!-- Node7 -->
<g id="node7" class="node"><title>Node7</title>
<g id="a_node7"><a xlink:href="../../d2/d5a/classauthoring_1_1concretefeatures_1_1_rule_creator.html" target="_top" xlink:title="authoring.concretefeatures.\lRuleCreator">
<polygon fill="white" stroke="black" points="266,-235 266,-265 416,-265 416,-235 266,-235"/>
<text text-anchor="start" x="274" y="-253" font-family="Helvetica,sans-Serif" font-size="10.00">authoring.concretefeatures.</text>
<text text-anchor="middle" x="341" y="-242" font-family="Helvetica,sans-Serif" font-size="10.00">RuleCreator</text>
</a>
</g>
</g>
<!-- Node1&#45;&gt;Node7 -->
<g id="edge6" class="edge"><title>Node1&#45;&gt;Node7</title>
<path fill="none" stroke="midnightblue" d="M240.109,-236.354C248.677,-237.524 257.343,-238.708 265.805,-239.864"/>
<polygon fill="midnightblue" stroke="midnightblue" points="240.497,-232.874 230.115,-234.988 239.55,-239.81 240.497,-232.874"/>
</g>
<!-- Node8 -->
<g id="node8" class="node"><title>Node8</title>
<g id="a_node8"><a xlink:href="../../d3/d7c/classauthoring_1_1concretefeatures_1_1_stats_individual_editor.html" target="_top" xlink:title="authoring.concretefeatures.\lStatsIndividualEditor">
<polygon fill="white" stroke="black" points="266,-186 266,-216 416,-216 416,-186 266,-186"/>
<text text-anchor="start" x="274" y="-204" font-family="Helvetica,sans-Serif" font-size="10.00">authoring.concretefeatures.</text>
<text text-anchor="middle" x="341" y="-193" font-family="Helvetica,sans-Serif" font-size="10.00">StatsIndividualEditor</text>
</a>
</g>
</g>
<!-- Node1&#45;&gt;Node8 -->
<g id="edge7" class="edge"><title>Node1&#45;&gt;Node8</title>
<path fill="none" stroke="midnightblue" d="M240.109,-214.1C248.677,-212.977 257.343,-211.84 265.805,-210.73"/>
<polygon fill="midnightblue" stroke="midnightblue" points="239.575,-210.64 230.115,-215.411 240.486,-217.581 239.575,-210.64"/>
</g>
<!-- Node9 -->
<g id="node9" class="node"><title>Node9</title>
<g id="a_node9"><a xlink:href="../../de/d18/classauthoring_1_1concretefeatures_1_1_stats_total_editor.html" target="_top" xlink:title="authoring.concretefeatures.\lStatsTotalEditor">
<polygon fill="white" stroke="black" points="266,-137 266,-167 416,-167 416,-137 266,-137"/>
<text text-anchor="start" x="274" y="-155" font-family="Helvetica,sans-Serif" font-size="10.00">authoring.concretefeatures.</text>
<text text-anchor="middle" x="341" y="-144" font-family="Helvetica,sans-Serif" font-size="10.00">StatsTotalEditor</text>
</a>
</g>
</g>
<!-- Node1&#45;&gt;Node9 -->
<g id="edge8" class="edge"><title>Node1&#45;&gt;Node9</title>
<path fill="none" stroke="midnightblue" d="M197.378,-205.584C217.735,-196.121 242.938,-184.893 266,-176 274.065,-172.89 282.722,-169.835 291.172,-167.002"/>
<polygon fill="midnightblue" stroke="midnightblue" points="195.669,-202.52 188.099,-209.931 198.639,-208.858 195.669,-202.52"/>
</g>
<!-- Node10 -->
<g id="node10" class="node"><title>Node10</title>
<g id="a_node10"><a xlink:href="../../d5/d7c/classauthoring_1_1createedit_1_1_action_creator.html" target="_top" xlink:title="authoring.createedit.Action\lCreator">
<polygon fill="white" stroke="black" points="267.5,-88 267.5,-118 414.5,-118 414.5,-88 267.5,-88"/>
<text text-anchor="start" x="275.5" y="-106" font-family="Helvetica,sans-Serif" font-size="10.00">authoring.createedit.Action</text>
<text text-anchor="middle" x="341" y="-95" font-family="Helvetica,sans-Serif" font-size="10.00">Creator</text>
</a>
</g>
</g>
<!-- Node1&#45;&gt;Node10 -->
<g id="edge9" class="edge"><title>Node1&#45;&gt;Node10</title>
<path fill="none" stroke="midnightblue" d="M176.828,-202.332C197.21,-180.293 230.853,-147.262 266,-127 271.85,-123.627 278.238,-120.656 284.731,-118.059"/>
<polygon fill="midnightblue" stroke="midnightblue" points="174.077,-200.156 169.941,-209.91 179.257,-204.864 174.077,-200.156"/>
</g>
<!-- Node11 -->
<g id="node11" class="node"><title>Node11</title>
<g id="a_node11"><a xlink:href="../../dc/dae/classauthoring_1_1createedit_1_1_game_properties_editor.html" target="_top" xlink:title="authoring.createedit.Game\lPropertiesEditor">
<polygon fill="white" stroke="black" points="268,-39 268,-69 414,-69 414,-39 268,-39"/>
<text text-anchor="start" x="276" y="-57" font-family="Helvetica,sans-Serif" font-size="10.00">authoring.createedit.Game</text>
<text text-anchor="middle" x="341" y="-46" font-family="Helvetica,sans-Serif" font-size="10.00">PropertiesEditor</text>
</a>
</g>
</g>
<!-- Node1&#45;&gt;Node11 -->
<g id="edge10" class="edge"><title>Node1&#45;&gt;Node11</title>
<path fill="none" stroke="midnightblue" d="M169.033,-200.363C186.175,-167.755 220.642,-110.6 266,-78 270.716,-74.6105 275.935,-71.6826 281.356,-69.1567"/>
<polygon fill="midnightblue" stroke="midnightblue" points="165.724,-199.144 164.276,-209.64 171.953,-202.338 165.724,-199.144"/>
</g>
<!-- Node12 -->
<g id="node12" class="node"><title>Node12</title>
<g id="a_node12"><a xlink:href="../../d4/d5e/classfxml__main_1_1_player_stat_editor.html" target="_top" xlink:title="fxml_main.PlayerStatEditor">
<polygon fill="white" stroke="black" points="268,-0.5 268,-19.5 414,-19.5 414,-0.5 268,-0.5"/>
<text text-anchor="middle" x="341" y="-7.5" font-family="Helvetica,sans-Serif" font-size="10.00">fxml_main.PlayerStatEditor</text>
</a>
</g>
</g>
<!-- Node1&#45;&gt;Node12 -->
<g id="edge11" class="edge"><title>Node1&#45;&gt;Node12</title>
<path fill="none" stroke="midnightblue" d="M163.802,-200.059C176.565,-158.104 208.175,-73.6284 266,-29 271.04,-25.1101 276.792,-22.0109 282.811,-19.5427"/>
<polygon fill="midnightblue" stroke="midnightblue" points="160.412,-199.179 160.958,-209.759 167.13,-201.148 160.412,-199.179"/>
</g>
<!-- Node2 -->
<g id="node2" class="node"><title>Node2</title>
<polygon fill="white" stroke="#bfbfbf" points="0.5,-215.5 0.5,-234.5 45.5,-234.5 45.5,-215.5 0.5,-215.5"/>
<text text-anchor="middle" x="23" y="-222.5" font-family="Helvetica,sans-Serif" font-size="10.00">Stage</text>
</g>
<!-- Node2&#45;&gt;Node1 -->
<g id="edge1" class="edge"><title>Node2&#45;&gt;Node1</title>
<path fill="none" stroke="midnightblue" d="M55.8689,-225C63.8394,-225 72.7217,-225 81.8041,-225"/>
<polygon fill="midnightblue" stroke="midnightblue" points="55.632,-221.5 45.632,-225 55.632,-228.5 55.632,-221.5"/>
</g>
</g>
</svg>
