<?xml version="1.0" encoding="UTF-8" standalone="no"?>
<!DOCTYPE svg PUBLIC "-//W3C//DTD SVG 1.1//EN"
 "http://www.w3.org/Graphics/SVG/1.1/DTD/svg11.dtd">
<!-- Generated by graphviz version 2.36.0 (20140111.2315)
 -->
<!-- Title: fxml_main.GridComponentAbstCtrl.initEntryControls Pages: 1 -->
<svg width="610pt" height="38pt"
 viewBox="0.00 0.00 610.00 38.00" xmlns="http://www.w3.org/2000/svg" xmlns:xlink="http://www.w3.org/1999/xlink">
<g id="graph0" class="graph" transform="scale(1 1) rotate(0) translate(4 34)">
<title>fxml_main.GridComponentAbstCtrl.initEntryControls</title>
<polygon fill="white" stroke="none" points="-4,4 -4,-34 606,-34 606,4 -4,4"/>
<!-- Node1 -->
<g id="node1" class="node"><title>Node1</title>
<polygon fill="#bfbfbf" stroke="black" points="0.5,-0 0.5,-30 167.5,-30 167.5,-0 0.5,-0"/>
<text text-anchor="start" x="8.5" y="-18" font-family="Helvetica,sans-Serif" font-size="10.00">fxml_main.GridComponentAbst</text>
<text text-anchor="middle" x="84" y="-7" font-family="Helvetica,sans-Serif" font-size="10.00">Ctrl.initEntryControls</text>
</g>
<!-- Node2 -->
<g id="node2" class="node"><title>Node2</title>
<g id="a_node2"><a xlink:href="../../da/d40/classfxml__main_1_1_grid_component_abst_ctrl.html#a690d85921c1558f7988bb18e895363ef" target="_top" xlink:title="fxml_main.GridComponentAbst\lCtrl\&lt; Patch \&gt;::makeCompleteEntryBox">
<polygon fill="white" stroke="black" points="204,-0 204,-30 408,-30 408,-0 204,-0"/>
<text text-anchor="start" x="212" y="-18" font-family="Helvetica,sans-Serif" font-size="10.00">fxml_main.GridComponentAbst</text>
<text text-anchor="middle" x="306" y="-7" font-family="Helvetica,sans-Serif" font-size="10.00">Ctrl&lt; Patch &gt;::makeCompleteEntryBox</text>
</a>
</g>
</g>
<!-- Node1&#45;&gt;Node2 -->
<g id="edge1" class="edge"><title>Node1&#45;&gt;Node2</title>
<path fill="none" stroke="midnightblue" d="M177.619,-15C186.268,-15 195.065,-15 203.787,-15"/>
<polygon fill="midnightblue" stroke="midnightblue" points="177.546,-11.5001 167.546,-15 177.546,-18.5001 177.546,-11.5001"/>
</g>
<!-- Node3 -->
<g id="node3" class="node"><title>Node3</title>
<g id="a_node3"><a xlink:href="../../d4/d3f/classfxml__main_1_1_patch_controller.html#a7b1011d19e297584a0b38a2571bdd60f" target="_top" xlink:title="fxml_main.PatchController.init\lEntryEditBtn">
<polygon fill="white" stroke="black" points="444,-0 444,-30 602,-30 602,-0 444,-0"/>
<text text-anchor="start" x="452" y="-18" font-family="Helvetica,sans-Serif" font-size="10.00">fxml_main.PatchController.init</text>
<text text-anchor="middle" x="523" y="-7" font-family="Helvetica,sans-Serif" font-size="10.00">EntryEditBtn</text>
</a>
</g>
</g>
<!-- Node2&#45;&gt;Node3 -->
<g id="edge2" class="edge"><title>Node2&#45;&gt;Node3</title>
<path fill="none" stroke="midnightblue" d="M418.325,-15C426.944,-15 435.531,-15 443.862,-15"/>
<polygon fill="midnightblue" stroke="midnightblue" points="418.204,-11.5001 408.204,-15 418.204,-18.5001 418.204,-11.5001"/>
</g>
</g>
</svg>
