<?xml version="1.0" encoding="UTF-8" standalone="no"?>
<!DOCTYPE svg PUBLIC "-//W3C//DTD SVG 1.1//EN"
 "http://www.w3.org/Graphics/SVG/1.1/DTD/svg11.dtd">
<!-- Generated by graphviz version 2.36.0 (20140111.2315)
 -->
<!-- Title: fxml_main.GridComponentAbstCtrl.initGlobalControls Pages: 1 -->
<svg width="414pt" height="38pt"
 viewBox="0.00 0.00 414.00 38.00" xmlns="http://www.w3.org/2000/svg" xmlns:xlink="http://www.w3.org/1999/xlink">
<g id="graph0" class="graph" transform="scale(1 1) rotate(0) translate(4 34)">
<title>fxml_main.GridComponentAbstCtrl.initGlobalControls</title>
<polygon fill="white" stroke="none" points="-4,4 -4,-34 410,-34 410,4 -4,4"/>
<!-- Node1 -->
<g id="node1" class="node"><title>Node1</title>
<polygon fill="#bfbfbf" stroke="black" points="0.5,-0 0.5,-30 167.5,-30 167.5,-0 0.5,-0"/>
<text text-anchor="start" x="8.5" y="-18" font-family="Helvetica,sans-Serif" font-size="10.00">fxml_main.GridComponentAbst</text>
<text text-anchor="middle" x="84" y="-7" font-family="Helvetica,sans-Serif" font-size="10.00">Ctrl.initGlobalControls</text>
</g>
<!-- Node2 -->
<g id="node2" class="node"><title>Node2</title>
<g id="a_node2"><a xlink:href="../../da/d40/classfxml__main_1_1_grid_component_abst_ctrl.html#a94666386d638d32bf86694a0f8113a16" target="_top" xlink:title="fxml_main.GridComponentAbst\lCtrl\&lt; Patch \&gt;::GridComponentAbstCtrl">
<polygon fill="white" stroke="black" points="204,-0 204,-30 406,-30 406,-0 204,-0"/>
<text text-anchor="start" x="212" y="-18" font-family="Helvetica,sans-Serif" font-size="10.00">fxml_main.GridComponentAbst</text>
<text text-anchor="middle" x="305" y="-7" font-family="Helvetica,sans-Serif" font-size="10.00">Ctrl&lt; Patch &gt;::GridComponentAbstCtrl</text>
</a>
</g>
</g>
<!-- Node1&#45;&gt;Node2 -->
<g id="edge1" class="edge"><title>Node1&#45;&gt;Node2</title>
<path fill="none" stroke="midnightblue" d="M177.799,-15C186.387,-15 195.115,-15 203.766,-15"/>
<polygon fill="midnightblue" stroke="midnightblue" points="177.795,-11.5001 167.795,-15 177.794,-18.5001 177.795,-11.5001"/>
</g>
</g>
</svg>
