<?xml version="1.0" encoding="UTF-8" standalone="no"?>
<!DOCTYPE svg PUBLIC "-//W3C//DTD SVG 1.1//EN"
 "http://www.w3.org/Graphics/SVG/1.1/DTD/svg11.dtd">
<!-- Generated by graphviz version 2.36.0 (20140111.2315)
 -->
<!-- Title: gamedata.events.conditions.StatComparison Pages: 1 -->
<svg width="548pt" height="136pt"
 viewBox="0.00 0.00 548.00 136.00" xmlns="http://www.w3.org/2000/svg" xmlns:xlink="http://www.w3.org/1999/xlink">
<g id="graph0" class="graph" transform="scale(1 1) rotate(0) translate(4 132)">
<title>gamedata.events.conditions.StatComparison</title>
<polygon fill="white" stroke="none" points="-4,4 -4,-132 544,-132 544,4 -4,4"/>
<!-- Node1 -->
<g id="node1" class="node"><title>Node1</title>
<polygon fill="#bfbfbf" stroke="black" points="192,-49 192,-79 348,-79 348,-49 192,-49"/>
<text text-anchor="start" x="200" y="-67" font-family="Helvetica,sans-Serif" font-size="10.00">gamedata.events.conditions.</text>
<text text-anchor="middle" x="270" y="-56" font-family="Helvetica,sans-Serif" font-size="10.00">StatComparison</text>
</g>
<!-- Node3 -->
<g id="node3" class="node"><title>Node3</title>
<g id="a_node3"><a xlink:href="../../de/d0d/classgamedata_1_1events_1_1conditions_1_1_stat_equals.html" target="_top" xlink:title="gamedata.events.conditions.\lStatEquals">
<polygon fill="white" stroke="black" points="384,-98 384,-128 540,-128 540,-98 384,-98"/>
<text text-anchor="start" x="392" y="-116" font-family="Helvetica,sans-Serif" font-size="10.00">gamedata.events.conditions.</text>
<text text-anchor="middle" x="462" y="-105" font-family="Helvetica,sans-Serif" font-size="10.00">StatEquals</text>
</a>
</g>
</g>
<!-- Node1&#45;&gt;Node3 -->
<g id="edge2" class="edge"><title>Node1&#45;&gt;Node3</title>
<path fill="none" stroke="midnightblue" d="M339.05,-81.5498C359.915,-86.9306 382.67,-92.799 402.813,-97.9938"/>
<polygon fill="midnightblue" stroke="midnightblue" points="339.855,-78.1428 329.297,-79.0346 338.107,-84.921 339.855,-78.1428"/>
</g>
<!-- Node4 -->
<g id="node4" class="node"><title>Node4</title>
<g id="a_node4"><a xlink:href="../../d8/d9d/classgamedata_1_1events_1_1conditions_1_1_stat_greater_than.html" target="_top" xlink:title="gamedata.events.conditions.\lStatGreaterThan">
<polygon fill="white" stroke="black" points="384,-49 384,-79 540,-79 540,-49 384,-49"/>
<text text-anchor="start" x="392" y="-67" font-family="Helvetica,sans-Serif" font-size="10.00">gamedata.events.conditions.</text>
<text text-anchor="middle" x="462" y="-56" font-family="Helvetica,sans-Serif" font-size="10.00">StatGreaterThan</text>
</a>
</g>
</g>
<!-- Node1&#45;&gt;Node4 -->
<g id="edge3" class="edge"><title>Node1&#45;&gt;Node4</title>
<path fill="none" stroke="midnightblue" d="M358.062,-64C366.677,-64 375.38,-64 383.884,-64"/>
<polygon fill="midnightblue" stroke="midnightblue" points="358.006,-60.5001 348.006,-64 358.006,-67.5001 358.006,-60.5001"/>
</g>
<!-- Node5 -->
<g id="node5" class="node"><title>Node5</title>
<g id="a_node5"><a xlink:href="../../d4/daf/classgamedata_1_1events_1_1conditions_1_1_stat_less_than.html" target="_top" xlink:title="gamedata.events.conditions.\lStatLessThan">
<polygon fill="white" stroke="black" points="384,-0 384,-30 540,-30 540,-0 384,-0"/>
<text text-anchor="start" x="392" y="-18" font-family="Helvetica,sans-Serif" font-size="10.00">gamedata.events.conditions.</text>
<text text-anchor="middle" x="462" y="-7" font-family="Helvetica,sans-Serif" font-size="10.00">StatLessThan</text>
</a>
</g>
</g>
<!-- Node1&#45;&gt;Node5 -->
<g id="edge4" class="edge"><title>Node1&#45;&gt;Node5</title>
<path fill="none" stroke="midnightblue" d="M339.05,-46.4502C359.915,-41.0694 382.67,-35.201 402.813,-30.0062"/>
<polygon fill="midnightblue" stroke="midnightblue" points="338.107,-43.079 329.297,-48.9654 339.855,-49.8572 338.107,-43.079"/>
</g>
<!-- Node2 -->
<g id="node2" class="node"><title>Node2</title>
<g id="a_node2"><a xlink:href="../../dd/d41/classgamedata_1_1events_1_1conditions_1_1_condition.html" target="_top" xlink:title="gamedata.events.conditions.\lCondition">
<polygon fill="white" stroke="black" points="0,-49 0,-79 156,-79 156,-49 0,-49"/>
<text text-anchor="start" x="8" y="-67" font-family="Helvetica,sans-Serif" font-size="10.00">gamedata.events.conditions.</text>
<text text-anchor="middle" x="78" y="-56" font-family="Helvetica,sans-Serif" font-size="10.00">Condition</text>
</a>
</g>
</g>
<!-- Node2&#45;&gt;Node1 -->
<g id="edge1" class="edge"><title>Node2&#45;&gt;Node1</title>
<path fill="none" stroke="midnightblue" d="M166.062,-64C174.677,-64 183.38,-64 191.884,-64"/>
<polygon fill="midnightblue" stroke="midnightblue" points="166.006,-60.5001 156.006,-64 166.006,-67.5001 166.006,-60.5001"/>
</g>
</g>
</svg>
