<?xml version="1.0" encoding="UTF-8" standalone="no"?>
<!DOCTYPE svg PUBLIC "-//W3C//DTD SVG 1.1//EN"
 "http://www.w3.org/Graphics/SVG/1.1/DTD/svg11.dtd">
<!-- Generated by graphviz version 2.36.0 (20140111.2315)
 -->
<!-- Title: gamedata.action.ActionConclusion Pages: 1 -->
<svg width="390pt" height="185pt"
 viewBox="0.00 0.00 390.00 185.00" xmlns="http://www.w3.org/2000/svg" xmlns:xlink="http://www.w3.org/1999/xlink">
<g id="graph0" class="graph" transform="scale(1 1) rotate(0) translate(4 181)">
<title>gamedata.action.ActionConclusion</title>
<polygon fill="white" stroke="none" points="-4,4 -4,-181 386,-181 386,4 -4,4"/>
<!-- Node1 -->
<g id="node1" class="node"><title>Node1</title>
<polygon fill="#bfbfbf" stroke="black" points="0.5,-78.5 0.5,-97.5 183.5,-97.5 183.5,-78.5 0.5,-78.5"/>
<text text-anchor="middle" x="92" y="-85.5" font-family="Helvetica,sans-Serif" font-size="10.00">gamedata.action.ActionConclusion</text>
</g>
<!-- Node2 -->
<g id="node2" class="node"><title>Node2</title>
<g id="a_node2"><a xlink:href="../../dd/d22/classgamedata_1_1action_1_1conclusions_1_1_actor_removal_conclusion.html" target="_top" xlink:title="gamedata.action.conclusions.\lActorRemovalConclusion">
<polygon fill="white" stroke="black" points="221,-147 221,-177 381,-177 381,-147 221,-147"/>
<text text-anchor="start" x="229" y="-165" font-family="Helvetica,sans-Serif" font-size="10.00">gamedata.action.conclusions.</text>
<text text-anchor="middle" x="301" y="-154" font-family="Helvetica,sans-Serif" font-size="10.00">ActorRemovalConclusion</text>
</a>
</g>
</g>
<!-- Node1&#45;&gt;Node2 -->
<g id="edge1" class="edge"><title>Node1&#45;&gt;Node2</title>
<path fill="none" stroke="midnightblue" d="M126.258,-101.517C151.751,-111.71 187.889,-125.802 220,-137 229.618,-140.354 239.957,-143.743 249.905,-146.897"/>
<polygon fill="midnightblue" stroke="midnightblue" points="127.287,-98.1585 116.703,-97.6794 124.679,-104.654 127.287,-98.1585"/>
</g>
<!-- Node3 -->
<g id="node3" class="node"><title>Node3</title>
<g id="a_node3"><a xlink:href="../../df/db2/classgamedata_1_1action_1_1conclusions_1_1_do_nothing_conclusion.html" target="_top" xlink:title="gamedata.action.conclusions.\lDoNothingConclusion">
<polygon fill="white" stroke="black" points="221,-98 221,-128 381,-128 381,-98 221,-98"/>
<text text-anchor="start" x="229" y="-116" font-family="Helvetica,sans-Serif" font-size="10.00">gamedata.action.conclusions.</text>
<text text-anchor="middle" x="301" y="-105" font-family="Helvetica,sans-Serif" font-size="10.00">DoNothingConclusion</text>
</a>
</g>
</g>
<!-- Node1&#45;&gt;Node3 -->
<g id="edge2" class="edge"><title>Node1&#45;&gt;Node3</title>
<path fill="none" stroke="midnightblue" d="M182.066,-98.7568C194.908,-100.308 208.051,-101.895 220.685,-103.421"/>
<polygon fill="midnightblue" stroke="midnightblue" points="182.196,-95.2471 171.848,-97.5227 181.357,-102.197 182.196,-95.2471"/>
</g>
<!-- Node4 -->
<g id="node4" class="node"><title>Node4</title>
<g id="a_node4"><a xlink:href="../../d9/d71/classgamedata_1_1action_1_1conclusions_1_1_receiver_removal_conclusion.html" target="_top" xlink:title="gamedata.action.conclusions.\lReceiverRemovalConclusion">
<polygon fill="white" stroke="black" points="221,-49 221,-79 381,-79 381,-49 221,-49"/>
<text text-anchor="start" x="229" y="-67" font-family="Helvetica,sans-Serif" font-size="10.00">gamedata.action.conclusions.</text>
<text text-anchor="middle" x="301" y="-56" font-family="Helvetica,sans-Serif" font-size="10.00">ReceiverRemovalConclusion</text>
</a>
</g>
</g>
<!-- Node1&#45;&gt;Node4 -->
<g id="edge3" class="edge"><title>Node1&#45;&gt;Node4</title>
<path fill="none" stroke="midnightblue" d="M185.394,-77.2876C197.172,-75.922 209.145,-74.5339 220.692,-73.1952"/>
<polygon fill="midnightblue" stroke="midnightblue" points="184.64,-73.8516 175.109,-78.4801 185.446,-80.805 184.64,-73.8516"/>
</g>
<!-- Node5 -->
<g id="node5" class="node"><title>Node5</title>
<g id="a_node5"><a xlink:href="../../dd/da2/classgamedata_1_1action_1_1conclusions_1_1_receiver_to_inventory_conclusion.html" target="_top" xlink:title="gamedata.action.conclusions.\lReceiverToInventoryConclusion">
<polygon fill="white" stroke="black" points="220,-0 220,-30 382,-30 382,-0 220,-0"/>
<text text-anchor="start" x="228" y="-18" font-family="Helvetica,sans-Serif" font-size="10.00">gamedata.action.conclusions.</text>
<text text-anchor="middle" x="301" y="-7" font-family="Helvetica,sans-Serif" font-size="10.00">ReceiverToInventoryConclusion</text>
</a>
</g>
</g>
<!-- Node1&#45;&gt;Node5 -->
<g id="edge4" class="edge"><title>Node1&#45;&gt;Node5</title>
<path fill="none" stroke="midnightblue" d="M126.755,-74.6265C152.234,-64.6823 188.132,-50.9911 220,-40 229.767,-36.6315 240.27,-33.2084 250.349,-30.0202"/>
<polygon fill="midnightblue" stroke="midnightblue" points="125.227,-71.4662 117.193,-78.3734 127.781,-77.9837 125.227,-71.4662"/>
</g>
</g>
</svg>
