<?xml version="1.0" encoding="UTF-8" standalone="no"?>
<!DOCTYPE svg PUBLIC "-//W3C//DTD SVG 1.1//EN"
 "http://www.w3.org/Graphics/SVG/1.1/DTD/svg11.dtd">
<!-- Generated by graphviz version 2.36.0 (20140111.2315)
 -->
<!-- Title: authoring.concretefeatures.GameCreator Pages: 1 -->
<svg width="730pt" height="218pt"
 viewBox="0.00 0.00 730.00 218.00" xmlns="http://www.w3.org/2000/svg" xmlns:xlink="http://www.w3.org/1999/xlink">
<g id="graph0" class="graph" transform="scale(1 1) rotate(0) translate(4 214)">
<title>authoring.concretefeatures.GameCreator</title>
<polygon fill="white" stroke="none" points="-4,4 -4,-214 726,-214 726,4 -4,4"/>
<!-- Node1 -->
<g id="node1" class="node"><title>Node1</title>
<polygon fill="#bfbfbf" stroke="black" points="572,-90 572,-120 722,-120 722,-90 572,-90"/>
<text text-anchor="start" x="580" y="-108" font-family="Helvetica,sans-Serif" font-size="10.00">authoring.concretefeatures.</text>
<text text-anchor="middle" x="647" y="-97" font-family="Helvetica,sans-Serif" font-size="10.00">GameCreator</text>
</g>
<!-- Node2 -->
<g id="node2" class="node"><title>Node2</title>
<polygon fill="white" stroke="#bfbfbf" points="319.5,-190.5 319.5,-209.5 364.5,-209.5 364.5,-190.5 319.5,-190.5"/>
<text text-anchor="middle" x="342" y="-197.5" font-family="Helvetica,sans-Serif" font-size="10.00">Stage</text>
</g>
<!-- Node2&#45;&gt;Node1 -->
<g id="edge1" class="edge"><title>Node2&#45;&gt;Node1</title>
<path fill="none" stroke="midnightblue" d="M374.921,-198.253C417.159,-195.087 493.349,-186.388 554,-163 581.306,-152.47 609.273,-133.429 627.09,-120.043"/>
<polygon fill="midnightblue" stroke="midnightblue" points="374.43,-194.778 364.696,-198.96 374.913,-201.762 374.43,-194.778"/>
</g>
<!-- Node3 -->
<g id="node3" class="node"><title>Node3</title>
<polygon fill="white" stroke="#bfbfbf" points="321.5,-152.5 321.5,-171.5 362.5,-171.5 362.5,-152.5 321.5,-152.5"/>
<text text-anchor="middle" x="342" y="-159.5" font-family="Helvetica,sans-Serif" font-size="10.00">VBox</text>
</g>
<!-- Node3&#45;&gt;Node1 -->
<g id="edge2" class="edge"><title>Node3&#45;&gt;Node1</title>
<path fill="none" stroke="#9a32cd" stroke-dasharray="5,2" d="M372.796,-159.133C413.881,-154.87 490.099,-145.844 554,-132 568.967,-128.757 585.058,-124.358 599.533,-120.053"/>
<polygon fill="#9a32cd" stroke="#9a32cd" points="372.253,-155.67 362.657,-160.162 372.96,-162.634 372.253,-155.67"/>
<text text-anchor="middle" x="508" y="-151" font-family="Helvetica,sans-Serif" font-size="10.00"> box</text>
</g>
<!-- Node4 -->
<g id="node4" class="node"><title>Node4</title>
<polygon fill="white" stroke="#bfbfbf" points="300,-114.5 300,-133.5 384,-133.5 384,-114.5 300,-114.5"/>
<text text-anchor="middle" x="342" y="-121.5" font-family="Helvetica,sans-Serif" font-size="10.00">List&lt; String &gt;</text>
</g>
<!-- Node4&#45;&gt;Node1 -->
<g id="edge3" class="edge"><title>Node4&#45;&gt;Node1</title>
<path fill="none" stroke="#9a32cd" stroke-dasharray="5,2" d="M394.183,-120.791C442.926,-117.734 516.834,-113.1 571.99,-109.641"/>
<polygon fill="#9a32cd" stroke="#9a32cd" points="393.941,-117.299 384.179,-121.418 394.379,-124.285 393.941,-117.299"/>
<text text-anchor="middle" x="508" y="-120" font-family="Helvetica,sans-Serif" font-size="10.00"> gridTypes</text>
</g>
<!-- Node5 -->
<g id="node5" class="node"><title>Node5</title>
<polygon fill="white" stroke="#bfbfbf" points="282,-76.5 282,-95.5 402,-95.5 402,-76.5 282,-76.5"/>
<text text-anchor="middle" x="342" y="-83.5" font-family="Helvetica,sans-Serif" font-size="10.00">ComboBox&lt; String &gt;</text>
</g>
<!-- Node5&#45;&gt;Node1 -->
<g id="edge4" class="edge"><title>Node5&#45;&gt;Node1</title>
<path fill="none" stroke="#9a32cd" stroke-dasharray="5,2" d="M412.351,-89.0096C453.534,-90.9479 506.772,-93.7165 554,-97 559.758,-97.4003 565.716,-97.8462 571.703,-98.317"/>
<polygon fill="#9a32cd" stroke="#9a32cd" points="412.303,-85.5037 402.151,-88.5349 411.978,-92.4961 412.303,-85.5037"/>
<text text-anchor="middle" x="508" y="-100" font-family="Helvetica,sans-Serif" font-size="10.00"> gridChoiceBox</text>
</g>
<!-- Node6 -->
<g id="node6" class="node"><title>Node6</title>
<g id="a_node6"><a xlink:href="../../de/dfa/classauthoring__environment_1_1_workspace_view.html" target="_top" xlink:title="authoring_environment.WorkspaceView">
<polygon fill="white" stroke="black" points="240,-38.5 240,-57.5 444,-57.5 444,-38.5 240,-38.5"/>
<text text-anchor="middle" x="342" y="-45.5" font-family="Helvetica,sans-Serif" font-size="10.00">authoring_environment.WorkspaceView</text>
</a>
</g>
</g>
<!-- Node6&#45;&gt;Node1 -->
<g id="edge5" class="edge"><title>Node6&#45;&gt;Node1</title>
<path fill="none" stroke="#9a32cd" stroke-dasharray="5,2" d="M445.851,-58.8093C480.425,-63.3238 519.073,-69.3358 554,-77 569.655,-80.4353 586.507,-85.2317 601.455,-89.8852"/>
<polygon fill="#9a32cd" stroke="#9a32cd" points="446.102,-55.313 435.739,-57.516 445.214,-62.2564 446.102,-55.313"/>
<text text-anchor="middle" x="508" y="-80" font-family="Helvetica,sans-Serif" font-size="10.00"> myWorkspaceView</text>
</g>
<!-- Node7 -->
<g id="node7" class="node"><title>Node7</title>
<polygon fill="white" stroke="#bfbfbf" points="52,-60.5 52,-79.5 108,-79.5 108,-60.5 52,-60.5"/>
<text text-anchor="middle" x="80" y="-67.5" font-family="Helvetica,sans-Serif" font-size="10.00">TabPane</text>
</g>
<!-- Node7&#45;&gt;Node6 -->
<g id="edge6" class="edge"><title>Node7&#45;&gt;Node6</title>
<path fill="none" stroke="midnightblue" d="M118.49,-66.8277C150.253,-64.1401 197.305,-60.1588 239.971,-56.5486"/>
<polygon fill="midnightblue" stroke="midnightblue" points="118.002,-63.3564 108.333,-67.6872 118.593,-70.3315 118.002,-63.3564"/>
</g>
<!-- Node8 -->
<g id="node8" class="node"><title>Node8</title>
<polygon fill="white" stroke="#bfbfbf" points="0.5,-11 0.5,-41 159.5,-41 159.5,-11 0.5,-11"/>
<text text-anchor="start" x="8.5" y="-29" font-family="Helvetica,sans-Serif" font-size="10.00">List&lt; authoring_environment.</text>
<text text-anchor="middle" x="80" y="-18" font-family="Helvetica,sans-Serif" font-size="10.00">SuperGrid &gt;</text>
</g>
<!-- Node8&#45;&gt;Node6 -->
<g id="edge7" class="edge"><title>Node8&#45;&gt;Node6</title>
<path fill="none" stroke="#9a32cd" stroke-dasharray="5,2" d="M169.93,-33.5248C192.47,-35.4321 216.845,-37.4946 239.938,-39.4486"/>
<polygon fill="#9a32cd" stroke="#9a32cd" points="169.974,-30.0161 159.714,-32.6604 169.383,-36.9912 169.974,-30.0161"/>
<text text-anchor="middle" x="200" y="-41" font-family="Helvetica,sans-Serif" font-size="10.00"> myGrids</text>
</g>
<!-- Node9 -->
<g id="node9" class="node"><title>Node9</title>
<polygon fill="white" stroke="#bfbfbf" points="319.5,-0.5 319.5,-19.5 364.5,-19.5 364.5,-0.5 319.5,-0.5"/>
<text text-anchor="middle" x="342" y="-7.5" font-family="Helvetica,sans-Serif" font-size="10.00">Insets</text>
</g>
<!-- Node9&#45;&gt;Node1 -->
<g id="edge8" class="edge"><title>Node9&#45;&gt;Node1</title>
<path fill="none" stroke="#9a32cd" stroke-dasharray="5,2" d="M374.921,-11.7472C417.159,-14.9129 493.349,-23.6121 554,-47 581.306,-57.5297 609.273,-76.5709 627.09,-89.9567"/>
<polygon fill="#9a32cd" stroke="#9a32cd" points="374.913,-8.23837 364.696,-11.0402 374.43,-15.2217 374.913,-8.23837"/>
<text text-anchor="middle" x="508" y="-50" font-family="Helvetica,sans-Serif" font-size="10.00"> MARGINS</text>
</g>
</g>
</svg>
