<?xml version="1.0" encoding="UTF-8" standalone="no"?>
<!DOCTYPE svg PUBLIC "-//W3C//DTD SVG 1.1//EN"
 "http://www.w3.org/Graphics/SVG/1.1/DTD/svg11.dtd">
<!-- Generated by graphviz version 2.36.0 (20140111.2315)
 -->
<!-- Title: authoring.concretefeatures.RangeEditor.RangeEditor Pages: 1 -->
<svg width="938pt" height="221pt"
 viewBox="0.00 0.00 938.00 221.00" xmlns="http://www.w3.org/2000/svg" xmlns:xlink="http://www.w3.org/1999/xlink">
<g id="graph0" class="graph" transform="scale(1 1) rotate(0) translate(4 217)">
<title>authoring.concretefeatures.RangeEditor.RangeEditor</title>
<polygon fill="white" stroke="none" points="-4,4 -4,-217 934,-217 934,4 -4,4"/>
<!-- Node1 -->
<g id="node1" class="node"><title>Node1</title>
<polygon fill="#bfbfbf" stroke="black" points="0,-134 0,-164 150,-164 150,-134 0,-134"/>
<text text-anchor="start" x="8" y="-152" font-family="Helvetica,sans-Serif" font-size="10.00">authoring.concretefeatures.</text>
<text text-anchor="middle" x="75" y="-141" font-family="Helvetica,sans-Serif" font-size="10.00">RangeEditor.RangeEditor</text>
</g>
<!-- Node2 -->
<g id="node2" class="node"><title>Node2</title>
<g id="a_node2"><a xlink:href="../../d6/d17/classauthoring_1_1concretefeatures_1_1_range_editor.html#a8fce9ab5a871769da6f36c3df0b8991b" target="_top" xlink:title="authoring.concretefeatures.\lRangeEditor.initialize">
<polygon fill="white" stroke="black" points="186,-134 186,-164 336,-164 336,-134 186,-134"/>
<text text-anchor="start" x="194" y="-152" font-family="Helvetica,sans-Serif" font-size="10.00">authoring.concretefeatures.</text>
<text text-anchor="middle" x="261" y="-141" font-family="Helvetica,sans-Serif" font-size="10.00">RangeEditor.initialize</text>
</a>
</g>
</g>
<!-- Node1&#45;&gt;Node2 -->
<g id="edge1" class="edge"><title>Node1&#45;&gt;Node2</title>
<path fill="none" stroke="midnightblue" d="M150.044,-149C158.514,-149 167.195,-149 175.784,-149"/>
<polygon fill="midnightblue" stroke="midnightblue" points="175.808,-152.5 185.808,-149 175.807,-145.5 175.808,-152.5"/>
</g>
<!-- Node3 -->
<g id="node3" class="node"><title>Node3</title>
<g id="a_node3"><a xlink:href="../../d6/d17/classauthoring_1_1concretefeatures_1_1_range_editor.html#aba8caab3e2df169dd5bf6cbe70222ae7" target="_top" xlink:title="authoring.concretefeatures.\lRangeEditor.getPrefTileSize">
<polygon fill="white" stroke="black" points="378,-183 378,-213 528,-213 528,-183 378,-183"/>
<text text-anchor="start" x="386" y="-201" font-family="Helvetica,sans-Serif" font-size="10.00">authoring.concretefeatures.</text>
<text text-anchor="middle" x="453" y="-190" font-family="Helvetica,sans-Serif" font-size="10.00">RangeEditor.getPrefTileSize</text>
</a>
</g>
</g>
<!-- Node2&#45;&gt;Node3 -->
<g id="edge2" class="edge"><title>Node2&#45;&gt;Node3</title>
<path fill="none" stroke="midnightblue" d="M320.297,-164.035C340.45,-169.232 363.206,-175.101 384.064,-180.48"/>
<polygon fill="midnightblue" stroke="midnightblue" points="383.256,-183.886 393.813,-182.994 385.004,-177.107 383.256,-183.886"/>
</g>
<!-- Node4 -->
<g id="node4" class="node"><title>Node4</title>
<g id="a_node4"><a xlink:href="../../d5/df6/classauthoring__environment_1_1_range_grid_view.html#abb88e480de6be8db723c9a30874e857d" target="_top" xlink:title="authoring_environment.Range\lGridView.returnSelectedList">
<polygon fill="white" stroke="black" points="372.5,-134 372.5,-164 533.5,-164 533.5,-134 372.5,-134"/>
<text text-anchor="start" x="380.5" y="-152" font-family="Helvetica,sans-Serif" font-size="10.00">authoring_environment.Range</text>
<text text-anchor="middle" x="453" y="-141" font-family="Helvetica,sans-Serif" font-size="10.00">GridView.returnSelectedList</text>
</a>
</g>
</g>
<!-- Node2&#45;&gt;Node4 -->
<g id="edge3" class="edge"><title>Node2&#45;&gt;Node4</title>
<path fill="none" stroke="midnightblue" d="M336.003,-149C344.541,-149 353.316,-149 362.036,-149"/>
<polygon fill="midnightblue" stroke="midnightblue" points="362.227,-152.5 372.227,-149 362.227,-145.5 362.227,-152.5"/>
</g>
<!-- Node8 -->
<g id="node8" class="node"><title>Node8</title>
<g id="a_node8"><a xlink:href="../../d5/df6/classauthoring__environment_1_1_range_grid_view.html#a8d597c01dc8e26e65ec45eea123e59ce" target="_top" xlink:title="authoring_environment.Range\lGridView.update">
<polygon fill="white" stroke="black" points="372.5,-61 372.5,-91 533.5,-91 533.5,-61 372.5,-61"/>
<text text-anchor="start" x="380.5" y="-79" font-family="Helvetica,sans-Serif" font-size="10.00">authoring_environment.Range</text>
<text text-anchor="middle" x="453" y="-68" font-family="Helvetica,sans-Serif" font-size="10.00">GridView.update</text>
</a>
</g>
</g>
<!-- Node2&#45;&gt;Node8 -->
<g id="edge7" class="edge"><title>Node2&#45;&gt;Node8</title>
<path fill="none" stroke="midnightblue" d="M301.368,-133.874C330.92,-122.52 371.56,-106.906 403.181,-94.7568"/>
<polygon fill="midnightblue" stroke="midnightblue" points="404.603,-97.96 412.682,-91.1063 402.092,-91.4257 404.603,-97.96"/>
</g>
<!-- Node5 -->
<g id="node5" class="node"><title>Node5</title>
<g id="a_node5"><a xlink:href="../../d5/da8/classauthoring__environment_1_1_range_grid.html#a5d631da91234e98b2970a530dc860503" target="_top" xlink:title="authoring_environment.Range\lGrid.selectedRangeList">
<polygon fill="white" stroke="black" points="570.5,-147 570.5,-177 731.5,-177 731.5,-147 570.5,-147"/>
<text text-anchor="start" x="578.5" y="-165" font-family="Helvetica,sans-Serif" font-size="10.00">authoring_environment.Range</text>
<text text-anchor="middle" x="651" y="-154" font-family="Helvetica,sans-Serif" font-size="10.00">Grid.selectedRangeList</text>
</a>
</g>
</g>
<!-- Node4&#45;&gt;Node5 -->
<g id="edge4" class="edge"><title>Node4&#45;&gt;Node5</title>
<path fill="none" stroke="midnightblue" d="M533.721,-154.288C542.499,-154.87 551.48,-155.466 560.369,-156.055"/>
<polygon fill="midnightblue" stroke="midnightblue" points="560.14,-159.548 570.35,-156.717 560.604,-152.563 560.14,-159.548"/>
</g>
<!-- Node6 -->
<g id="node6" class="node"><title>Node6</title>
<g id="a_node6"><a xlink:href="../../d5/da8/classauthoring__environment_1_1_range_grid.html#aee0028d314fe7e42143f91d67f9c25c1" target="_top" xlink:title="authoring_environment.Range\lGrid.findTile">
<polygon fill="white" stroke="black" points="768.5,-171 768.5,-201 929.5,-201 929.5,-171 768.5,-171"/>
<text text-anchor="start" x="776.5" y="-189" font-family="Helvetica,sans-Serif" font-size="10.00">authoring_environment.Range</text>
<text text-anchor="middle" x="849" y="-178" font-family="Helvetica,sans-Serif" font-size="10.00">Grid.findTile</text>
</a>
</g>
</g>
<!-- Node5&#45;&gt;Node6 -->
<g id="edge5" class="edge"><title>Node5&#45;&gt;Node6</title>
<path fill="none" stroke="midnightblue" d="M731.721,-171.762C740.499,-172.837 749.48,-173.936 758.369,-175.025"/>
<polygon fill="midnightblue" stroke="midnightblue" points="757.999,-178.505 768.35,-176.247 758.85,-171.557 757.999,-178.505"/>
</g>
<!-- Node7 -->
<g id="node7" class="node"><title>Node7</title>
<g id="a_node7"><a xlink:href="../../dc/d5a/classauthoring__environment_1_1_super_tile.html#afafc82a52123f943132cdfcf6d72370b" target="_top" xlink:title="authoring_environment.Super\lTile.isSelected">
<polygon fill="white" stroke="black" points="769,-122 769,-152 929,-152 929,-122 769,-122"/>
<text text-anchor="start" x="777" y="-140" font-family="Helvetica,sans-Serif" font-size="10.00">authoring_environment.Super</text>
<text text-anchor="middle" x="849" y="-129" font-family="Helvetica,sans-Serif" font-size="10.00">Tile.isSelected</text>
</a>
</g>
</g>
<!-- Node5&#45;&gt;Node7 -->
<g id="edge6" class="edge"><title>Node5&#45;&gt;Node7</title>
<path fill="none" stroke="midnightblue" d="M731.721,-151.832C740.653,-150.692 749.796,-149.526 758.837,-148.373"/>
<polygon fill="midnightblue" stroke="midnightblue" points="759.509,-151.816 768.985,-147.078 758.623,-144.872 759.509,-151.816"/>
</g>
<!-- Node9 -->
<g id="node9" class="node"><title>Node9</title>
<g id="a_node9"><a xlink:href="../../d5/df6/classauthoring__environment_1_1_range_grid_view.html#aff5aeff14e7d6170b2c11959c4fd73ff" target="_top" xlink:title="authoring_environment.Range\lGridView.cacluateGridSize">
<polygon fill="white" stroke="black" points="570.5,-98 570.5,-128 731.5,-128 731.5,-98 570.5,-98"/>
<text text-anchor="start" x="578.5" y="-116" font-family="Helvetica,sans-Serif" font-size="10.00">authoring_environment.Range</text>
<text text-anchor="middle" x="651" y="-105" font-family="Helvetica,sans-Serif" font-size="10.00">GridView.cacluateGridSize</text>
</a>
</g>
</g>
<!-- Node8&#45;&gt;Node9 -->
<g id="edge8" class="edge"><title>Node8&#45;&gt;Node9</title>
<path fill="none" stroke="midnightblue" d="M533.721,-91.0493C542.499,-92.7065 551.48,-94.4019 560.369,-96.0799"/>
<polygon fill="midnightblue" stroke="midnightblue" points="559.874,-99.5482 570.35,-97.964 561.173,-92.6697 559.874,-99.5482"/>
</g>
<!-- Node10 -->
<g id="node10" class="node"><title>Node10</title>
<g id="a_node10"><a xlink:href="../../d5/df6/classauthoring__environment_1_1_range_grid_view.html#afad32c83a08434d1a342f2031eb9b608" target="_top" xlink:title="authoring_environment.Range\lGridView.getPrefTileSize">
<polygon fill="white" stroke="black" points="570.5,-49 570.5,-79 731.5,-79 731.5,-49 570.5,-49"/>
<text text-anchor="start" x="578.5" y="-67" font-family="Helvetica,sans-Serif" font-size="10.00">authoring_environment.Range</text>
<text text-anchor="middle" x="651" y="-56" font-family="Helvetica,sans-Serif" font-size="10.00">GridView.getPrefTileSize</text>
</a>
</g>
</g>
<!-- Node8&#45;&gt;Node10 -->
<g id="edge9" class="edge"><title>Node8&#45;&gt;Node10</title>
<path fill="none" stroke="midnightblue" d="M533.721,-71.1191C542.405,-70.5875 551.287,-70.0436 560.082,-69.5052"/>
<polygon fill="midnightblue" stroke="midnightblue" points="560.583,-72.9812 570.35,-68.8765 560.155,-65.9943 560.583,-72.9812"/>
</g>
<!-- Node11 -->
<g id="node11" class="node"><title>Node11</title>
<g id="a_node11"><a xlink:href="../../d9/df3/classauthoring__environment_1_1_super_grid.html#aba69dd5b1d04abadf1186c952362a46e" target="_top" xlink:title="authoring_environment.Super\lGrid.displayPane">
<polygon fill="white" stroke="black" points="571,-0 571,-30 731,-30 731,-0 571,-0"/>
<text text-anchor="start" x="579" y="-18" font-family="Helvetica,sans-Serif" font-size="10.00">authoring_environment.Super</text>
<text text-anchor="middle" x="651" y="-7" font-family="Helvetica,sans-Serif" font-size="10.00">Grid.displayPane</text>
</a>
</g>
</g>
<!-- Node8&#45;&gt;Node11 -->
<g id="edge10" class="edge"><title>Node8&#45;&gt;Node11</title>
<path fill="none" stroke="midnightblue" d="M500.508,-60.9629C521.682,-54.1692 547.08,-46.0927 570,-39 576.329,-37.0415 582.947,-35.0177 589.549,-33.0142"/>
<polygon fill="midnightblue" stroke="midnightblue" points="590.616,-36.348 599.175,-30.1034 588.59,-29.6476 590.616,-36.348"/>
</g>
</g>
</svg>
