<?xml version="1.0" encoding="UTF-8" standalone="no"?>
<!DOCTYPE svg PUBLIC "-//W3C//DTD SVG 1.1//EN"
 "http://www.w3.org/Graphics/SVG/1.1/DTD/svg11.dtd">
<!-- Generated by graphviz version 2.36.0 (20140111.2315)
 -->
<!-- Title: authoring.concretefeatures.RangeEditor.initialize Pages: 1 -->
<!--zoomable 221 -->
<svg id="main" version="1.1" xmlns="http://www.w3.org/2000/svg" xmlns:xlink="http://www.w3.org/1999/xlink" xml:space="preserve" onload="init(evt)">
<style type="text/css"><![CDATA[
.edge:hover path { stroke: red; }
.edge:hover polygon { stroke: red; fill: red; }
]]></style>
<script type="text/javascript"><![CDATA[
var edges = document.getElementsByTagName('g');
if (edges && edges.length) {
  for (var i=0;i<edges.length;i++) {
    if (edges[i].id.substr(0,4)=='edge') {
      edges[i].setAttribute('class','edge');
    }
  }
}
]]></script>
        <defs>
                <circle id="rim" cx="0" cy="0" r="7"/>
                <circle id="rim2" cx="0" cy="0" r="3.5"/>
                <g id="zoomPlus">
                        <use xlink:href="#rim" fill="#404040">
                                <set attributeName="fill" to="#808080" begin="zoomplus.mouseover" end="zoomplus.mouseout"/>
                        </use>
                        <path d="M-4,0h8M0,-4v8" fill="none" stroke="white" stroke-width="1.5" pointer-events="none"/>
                </g>
                <g id="zoomMin">
                        <use xlink:href="#rim" fill="#404040">
                                <set attributeName="fill" to="#808080" begin="zoomminus.mouseover" end="zoomminus.mouseout"/>
                        </use>
                        <path d="M-4,0h8" fill="none" stroke="white" stroke-width="1.5" pointer-events="none"/>
                </g>
                <g id="dirArrow">
                        <path fill="none" stroke="white" stroke-width="1.5" d="M0,-3.0v7 M-2.5,-0.5L0,-3.0L2.5,-0.5"/>
                </g>
               <g id="resetDef">
                       <use xlink:href="#rim2" fill="#404040">
                               <set attributeName="fill" to="#808080" begin="reset.mouseover" end="reset.mouseout"/>
                       </use>
               </g>
        </defs>

<script type="text/javascript">
var viewWidth = 554;
var viewHeight = 221;
var sectionId = 'dynsection-4';
</script>
<script xlink:href="../../svgpan.js"/>
<svg id="graph" class="graph">
<g id="viewport">
<title>authoring.concretefeatures.RangeEditor.initialize</title>
<polygon fill="white" stroke="none" points="-4,4 -4,-217 550,-217 550,4 -4,4"/>
<!-- Node1 -->
<g id="node1" class="node"><title>Node1</title>
<polygon fill="#bfbfbf" stroke="black" points="0,-134 0,-164 150,-164 150,-134 0,-134"/>
<text text-anchor="start" x="8" y="-152" font-family="Helvetica,sans-Serif" font-size="10.00">authoring.concretefeatures.</text>
<text text-anchor="middle" x="75" y="-141" font-family="Helvetica,sans-Serif" font-size="10.00">RangeEditor.initialize</text>
</g>
<!-- Node2 -->
<g id="node2" class="node"><title>Node2</title>
<g id="a_node2"><a xlink:href="../../d6/d17/classauthoring_1_1concretefeatures_1_1_range_editor.html#aba8caab3e2df169dd5bf6cbe70222ae7" target="_top" xlink:title="authoring.concretefeatures.\lRangeEditor.getPrefTileSize">
<polygon fill="white" stroke="black" points="192,-183 192,-213 342,-213 342,-183 192,-183"/>
<text text-anchor="start" x="200" y="-201" font-family="Helvetica,sans-Serif" font-size="10.00">authoring.concretefeatures.</text>
<text text-anchor="middle" x="267" y="-190" font-family="Helvetica,sans-Serif" font-size="10.00">RangeEditor.getPrefTileSize</text>
</a>
</g>
</g>
<!-- Node1&#45;&gt;Node2 -->
<g id="edge1" class="edge"><title>Node1&#45;&gt;Node2</title>
<path fill="none" stroke="midnightblue" d="M134.297,-164.035C154.45,-169.232 177.206,-175.101 198.064,-180.48"/>
<polygon fill="midnightblue" stroke="midnightblue" points="197.256,-183.886 207.813,-182.994 199.004,-177.107 197.256,-183.886"/>
</g>
<!-- Node3 -->
<g id="node3" class="node"><title>Node3</title>
<g id="a_node3"><a xlink:href="../../d5/df6/classauthoring__environment_1_1_range_grid_view.html#abb88e480de6be8db723c9a30874e857d" target="_top" xlink:title="authoring_environment.Range\lGridView.returnSelectedList">
<polygon fill="white" stroke="black" points="186.5,-134 186.5,-164 347.5,-164 347.5,-134 186.5,-134"/>
<text text-anchor="start" x="194.5" y="-152" font-family="Helvetica,sans-Serif" font-size="10.00">authoring_environment.Range</text>
<text text-anchor="middle" x="267" y="-141" font-family="Helvetica,sans-Serif" font-size="10.00">GridView.returnSelectedList</text>
</a>
</g>
</g>
<!-- Node1&#45;&gt;Node3 -->
<g id="edge2" class="edge"><title>Node1&#45;&gt;Node3</title>
<path fill="none" stroke="midnightblue" d="M150.003,-149C158.541,-149 167.316,-149 176.036,-149"/>
<polygon fill="midnightblue" stroke="midnightblue" points="176.227,-152.5 186.227,-149 176.227,-145.5 176.227,-152.5"/>
</g>
<!-- Node5 -->
<g id="node5" class="node"><title>Node5</title>
<g id="a_node5"><a xlink:href="../../d5/df6/classauthoring__environment_1_1_range_grid_view.html#a8d597c01dc8e26e65ec45eea123e59ce" target="_top" xlink:title="authoring_environment.Range\lGridView.update">
<polygon fill="white" stroke="black" points="186.5,-61 186.5,-91 347.5,-91 347.5,-61 186.5,-61"/>
<text text-anchor="start" x="194.5" y="-79" font-family="Helvetica,sans-Serif" font-size="10.00">authoring_environment.Range</text>
<text text-anchor="middle" x="267" y="-68" font-family="Helvetica,sans-Serif" font-size="10.00">GridView.update</text>
</a>
</g>
</g>
<!-- Node1&#45;&gt;Node5 -->
<g id="edge4" class="edge"><title>Node1&#45;&gt;Node5</title>
<path fill="none" stroke="midnightblue" d="M115.368,-133.874C144.92,-122.52 185.56,-106.906 217.181,-94.7568"/>
<polygon fill="midnightblue" stroke="midnightblue" points="218.603,-97.96 226.682,-91.1063 216.092,-91.4257 218.603,-97.96"/>
</g>
<!-- Node4 -->
<g id="node4" class="node"><title>Node4</title>
<g id="a_node4"><a xlink:href="../../d5/da8/classauthoring__environment_1_1_range_grid.html#a093e8be49fb55fa9c517c7fafe991abd" target="_top" xlink:title="authoring_environment.Range\lGrid.rangeSelectedList">
<polygon fill="white" stroke="black" points="384.5,-147 384.5,-177 545.5,-177 545.5,-147 384.5,-147"/>
<text text-anchor="start" x="392.5" y="-165" font-family="Helvetica,sans-Serif" font-size="10.00">authoring_environment.Range</text>
<text text-anchor="middle" x="465" y="-154" font-family="Helvetica,sans-Serif" font-size="10.00">Grid.rangeSelectedList</text>
</a>
</g>
</g>
<!-- Node3&#45;&gt;Node4 -->
<g id="edge3" class="edge"><title>Node3&#45;&gt;Node4</title>
<path fill="none" stroke="midnightblue" d="M347.721,-154.288C356.499,-154.87 365.48,-155.466 374.369,-156.055"/>
<polygon fill="midnightblue" stroke="midnightblue" points="374.14,-159.548 384.35,-156.717 374.604,-152.563 374.14,-159.548"/>
</g>
<!-- Node6 -->
<g id="node6" class="node"><title>Node6</title>
<g id="a_node6"><a xlink:href="../../d5/df6/classauthoring__environment_1_1_range_grid_view.html#aff5aeff14e7d6170b2c11959c4fd73ff" target="_top" xlink:title="authoring_environment.Range\lGridView.cacluateGridSize">
<polygon fill="white" stroke="black" points="384.5,-98 384.5,-128 545.5,-128 545.5,-98 384.5,-98"/>
<text text-anchor="start" x="392.5" y="-116" font-family="Helvetica,sans-Serif" font-size="10.00">authoring_environment.Range</text>
<text text-anchor="middle" x="465" y="-105" font-family="Helvetica,sans-Serif" font-size="10.00">GridView.cacluateGridSize</text>
</a>
</g>
</g>
<!-- Node5&#45;&gt;Node6 -->
<g id="edge5" class="edge"><title>Node5&#45;&gt;Node6</title>
<path fill="none" stroke="midnightblue" d="M347.721,-91.0493C356.499,-92.7065 365.48,-94.4019 374.369,-96.0799"/>
<polygon fill="midnightblue" stroke="midnightblue" points="373.874,-99.5482 384.35,-97.964 375.173,-92.6697 373.874,-99.5482"/>
</g>
<!-- Node7 -->
<g id="node7" class="node"><title>Node7</title>
<g id="a_node7"><a xlink:href="../../d5/df6/classauthoring__environment_1_1_range_grid_view.html#afad32c83a08434d1a342f2031eb9b608" target="_top" xlink:title="authoring_environment.Range\lGridView.getPrefTileSize">
<polygon fill="white" stroke="black" points="384.5,-49 384.5,-79 545.5,-79 545.5,-49 384.5,-49"/>
<text text-anchor="start" x="392.5" y="-67" font-family="Helvetica,sans-Serif" font-size="10.00">authoring_environment.Range</text>
<text text-anchor="middle" x="465" y="-56" font-family="Helvetica,sans-Serif" font-size="10.00">GridView.getPrefTileSize</text>
</a>
</g>
</g>
<!-- Node5&#45;&gt;Node7 -->
<g id="edge6" class="edge"><title>Node5&#45;&gt;Node7</title>
<path fill="none" stroke="midnightblue" d="M347.721,-71.1191C356.405,-70.5875 365.287,-70.0436 374.082,-69.5052"/>
<polygon fill="midnightblue" stroke="midnightblue" points="374.583,-72.9812 384.35,-68.8765 374.155,-65.9943 374.583,-72.9812"/>
</g>
<!-- Node8 -->
<g id="node8" class="node"><title>Node8</title>
<g id="a_node8"><a xlink:href="../../d9/df3/classauthoring__environment_1_1_super_grid.html#aba69dd5b1d04abadf1186c952362a46e" target="_top" xlink:title="authoring_environment.Super\lGrid.displayPane">
<polygon fill="white" stroke="black" points="385,-0 385,-30 545,-30 545,-0 385,-0"/>
<text text-anchor="start" x="393" y="-18" font-family="Helvetica,sans-Serif" font-size="10.00">authoring_environment.Super</text>
<text text-anchor="middle" x="465" y="-7" font-family="Helvetica,sans-Serif" font-size="10.00">Grid.displayPane</text>
</a>
</g>
</g>
<!-- Node5&#45;&gt;Node8 -->
<g id="edge7" class="edge"><title>Node5&#45;&gt;Node8</title>
<path fill="none" stroke="midnightblue" d="M316.198,-60.9996C343.27,-52.5742 377.247,-41.9996 405.797,-33.1143"/>
<polygon fill="midnightblue" stroke="midnightblue" points="407.14,-36.3618 415.648,-30.0482 405.06,-29.6781 407.14,-36.3618"/>
</g>
</g>
</svg>
        <g id="navigator" transform="translate(0 0)" fill="#404254">
                <rect fill="#f2f5e9" fill-opacity="0.5" stroke="#606060" stroke-width=".5" x="0" y="0" width="60" height="60"/>
                <use id="zoomplus" xlink:href="#zoomPlus" x="17" y="9" onmousedown="handleZoom(evt,'in')"/>
                <use id="zoomminus" xlink:href="#zoomMin" x="42" y="9" onmousedown="handleZoom(evt,'out')"/>
                <use id="reset" xlink:href="#resetDef" x="30" y="36" onmousedown="handleReset()"/>
                <g id="arrowUp" xlink:href="#dirArrow" transform="translate(30 24)" onmousedown="handlePan(0,-1)">
                  <use xlink:href="#rim" fill="#404040">
                        <set attributeName="fill" to="#808080" begin="arrowUp.mouseover" end="arrowUp.mouseout"/>
                  </use>
                  <path fill="none" stroke="white" stroke-width="1.5" d="M0,-3.0v7 M-2.5,-0.5L0,-3.0L2.5,-0.5"/>
                </g>
                <g id="arrowRight" xlink:href="#dirArrow" transform="rotate(90) translate(36 -43)" onmousedown="handlePan(1,0)">
                  <use xlink:href="#rim" fill="#404040">
                        <set attributeName="fill" to="#808080" begin="arrowRight.mouseover" end="arrowRight.mouseout"/>
                  </use>
                  <path fill="none" stroke="white" stroke-width="1.5" d="M0,-3.0v7 M-2.5,-0.5L0,-3.0L2.5,-0.5"/>
                </g>
                <g id="arrowDown" xlink:href="#dirArrow" transform="rotate(180) translate(-30 -48)" onmousedown="handlePan(0,1)">
                  <use xlink:href="#rim" fill="#404040">
                        <set attributeName="fill" to="#808080" begin="arrowDown.mouseover" end="arrowDown.mouseout"/>
                  </use>
                  <path fill="none" stroke="white" stroke-width="1.5" d="M0,-3.0v7 M-2.5,-0.5L0,-3.0L2.5,-0.5"/>
                </g>
                <g id="arrowLeft" xlink:href="#dirArrow" transform="rotate(270) translate(-36 17)" onmousedown="handlePan(-1,0)">
                  <use xlink:href="#rim" fill="#404040">
                        <set attributeName="fill" to="#808080" begin="arrowLeft.mouseover" end="arrowLeft.mouseout"/>
                  </use>
                  <path fill="none" stroke="white" stroke-width="1.5" d="M0,-3.0v7 M-2.5,-0.5L0,-3.0L2.5,-0.5"/>
                </g>
        </g>
        <svg viewBox="0 0 15 15" width="100%" height="30px" preserveAspectRatio="xMaxYMin meet">
         <g id="arrow_out" transform="scale(0.3 0.3)">
          <a xlink:href="classauthoring_1_1concretefeatures_1_1_range_editor_a8fce9ab5a871769da6f36c3df0b8991b_cgraph_org.svg" target="_base">
           <rect id="button" ry="5" rx="5" y="6" x="6" height="38" width="38"
                fill="#f2f5e9" fill-opacity="0.5" stroke="#606060" stroke-width="1.0"/>
           <path id="arrow"
             d="M 11.500037,31.436501 C 11.940474,20.09759 22.043105,11.32322 32.158766,21.979434 L 37.068811,17.246167 C 37.068811,17.246167 37.088388,32 37.088388,32 L 22.160133,31.978069 C 22.160133,31.978069 26.997745,27.140456 26.997745,27.140456 C 18.528582,18.264221 13.291696,25.230495 11.500037,31.436501 z"
             style="fill:#404040;"/>
          </a>
         </g>
        </svg>
</svg>
