<?xml version="1.0" encoding="UTF-8" standalone="no"?>
<!DOCTYPE svg PUBLIC "-//W3C//DTD SVG 1.1//EN"
 "http://www.w3.org/Graphics/SVG/1.1/DTD/svg11.dtd">
<!-- Generated by graphviz version 2.36.0 (20140111.2315)
 -->
<!-- Title: utilities.leapMotion.LeapUIController.setUpGesture Pages: 1 -->
<svg width="318pt" height="38pt"
 viewBox="0.00 0.00 318.00 38.00" xmlns="http://www.w3.org/2000/svg" xmlns:xlink="http://www.w3.org/1999/xlink">
<g id="graph0" class="graph" transform="scale(1 1) rotate(0) translate(4 34)">
<title>utilities.leapMotion.LeapUIController.setUpGesture</title>
<polygon fill="white" stroke="none" points="-4,4 -4,-34 314,-34 314,4 -4,4"/>
<!-- Node1 -->
<g id="node1" class="node"><title>Node1</title>
<polygon fill="#bfbfbf" stroke="black" points="0,-0 0,-30 142,-30 142,-0 0,-0"/>
<text text-anchor="start" x="8" y="-18" font-family="Helvetica,sans-Serif" font-size="10.00">utilities.leapMotion.Leap</text>
<text text-anchor="middle" x="71" y="-7" font-family="Helvetica,sans-Serif" font-size="10.00">UIController.setUpGesture</text>
</g>
<!-- Node2 -->
<g id="node2" class="node"><title>Node2</title>
<g id="a_node2"><a xlink:href="../../dc/d64/classutilities_1_1leap_motion_1_1_leap_u_i_controller.html#a97786d1baa015f98e29bf39ae2b5d704" target="_top" xlink:title="utilities.leapMotion.Leap\lUIController.start">
<polygon fill="white" stroke="black" points="178,-0 178,-30 310,-30 310,-0 178,-0"/>
<text text-anchor="start" x="186" y="-18" font-family="Helvetica,sans-Serif" font-size="10.00">utilities.leapMotion.Leap</text>
<text text-anchor="middle" x="244" y="-7" font-family="Helvetica,sans-Serif" font-size="10.00">UIController.start</text>
</a>
</g>
</g>
<!-- Node1&#45;&gt;Node2 -->
<g id="edge1" class="edge"><title>Node1&#45;&gt;Node2</title>
<path fill="none" stroke="midnightblue" d="M152.083,-15C160.679,-15 169.349,-15 177.742,-15"/>
<polygon fill="midnightblue" stroke="midnightblue" points="152.046,-11.5001 142.046,-15 152.046,-18.5001 152.046,-11.5001"/>
</g>
</g>
</svg>
