<?xml version="1.0" encoding="UTF-8" standalone="no"?>
<!DOCTYPE svg PUBLIC "-//W3C//DTD SVG 1.1//EN"
 "http://www.w3.org/Graphics/SVG/1.1/DTD/svg11.dtd">
<!-- Generated by graphviz version 2.36.0 (20140111.2315)
 -->
<!-- Title: authoring_environment.WorkspaceView.getActiveGrid Pages: 1 -->
<svg width="388pt" height="38pt"
 viewBox="0.00 0.00 388.00 38.00" xmlns="http://www.w3.org/2000/svg" xmlns:xlink="http://www.w3.org/1999/xlink">
<g id="graph0" class="graph" transform="scale(1 1) rotate(0) translate(4 34)">
<title>authoring_environment.WorkspaceView.getActiveGrid</title>
<polygon fill="white" stroke="none" points="-4,4 -4,-34 384,-34 384,4 -4,4"/>
<!-- Node1 -->
<g id="node1" class="node"><title>Node1</title>
<polygon fill="#bfbfbf" stroke="black" points="0,-0 0,-30 182,-30 182,-0 0,-0"/>
<text text-anchor="start" x="8" y="-18" font-family="Helvetica,sans-Serif" font-size="10.00">authoring_environment.Workspace</text>
<text text-anchor="middle" x="91" y="-7" font-family="Helvetica,sans-Serif" font-size="10.00">View.getActiveGrid</text>
</g>
<!-- Node2 -->
<g id="node2" class="node"><title>Node2</title>
<g id="a_node2"><a xlink:href="../../df/d3a/classauthoring__environment_1_1_vooga_view.html#a2f5eb0a5a475c854cbb3e020dde0e418" target="_top" xlink:title="authoring_environment.Vooga\lView.VoogaView">
<polygon fill="white" stroke="black" points="218.5,-0 218.5,-30 379.5,-30 379.5,-0 218.5,-0"/>
<text text-anchor="start" x="226.5" y="-18" font-family="Helvetica,sans-Serif" font-size="10.00">authoring_environment.Vooga</text>
<text text-anchor="middle" x="299" y="-7" font-family="Helvetica,sans-Serif" font-size="10.00">View.VoogaView</text>
</a>
</g>
</g>
<!-- Node1&#45;&gt;Node2 -->
<g id="edge1" class="edge"><title>Node1&#45;&gt;Node2</title>
<path fill="none" stroke="midnightblue" d="M192.328,-15C201.103,-15 209.903,-15 218.475,-15"/>
<polygon fill="midnightblue" stroke="midnightblue" points="192.055,-11.5001 182.055,-15 192.055,-18.5001 192.055,-11.5001"/>
</g>
</g>
</svg>
