<?xml version="1.0" encoding="UTF-8" standalone="no"?>
<!DOCTYPE svg PUBLIC "-//W3C//DTD SVG 1.1//EN"
 "http://www.w3.org/Graphics/SVG/1.1/DTD/svg11.dtd">
<!-- Generated by graphviz version 2.36.0 (20140111.2315)
 -->
<!-- Title: authoring.createedit.SuperEditorMenu Pages: 1 -->
<svg width="154pt" height="108pt"
 viewBox="0.00 0.00 154.00 108.00" xmlns="http://www.w3.org/2000/svg" xmlns:xlink="http://www.w3.org/1999/xlink">
<g id="graph0" class="graph" transform="scale(1 1) rotate(0) translate(4 104)">
<title>authoring.createedit.SuperEditorMenu</title>
<polygon fill="white" stroke="none" points="-4,4 -4,-104 150,-104 150,4 -4,4"/>
<!-- Node1 -->
<g id="node1" class="node"><title>Node1</title>
<polygon fill="#bfbfbf" stroke="black" points="0,-1 0,-31 146,-31 146,-1 0,-1"/>
<text text-anchor="start" x="8" y="-19" font-family="Helvetica,sans-Serif" font-size="10.00">authoring.createedit.Super</text>
<text text-anchor="middle" x="73" y="-8" font-family="Helvetica,sans-Serif" font-size="10.00">EditorMenu</text>
</g>
<!-- Node2 -->
<g id="node2" class="node"><title>Node2</title>
<polygon fill="white" stroke="#bfbfbf" points="22.5,-80.5 22.5,-99.5 63.5,-99.5 63.5,-80.5 22.5,-80.5"/>
<text text-anchor="middle" x="43" y="-87.5" font-family="Helvetica,sans-Serif" font-size="10.00">VBox</text>
</g>
<!-- Node2&#45;&gt;Node1 -->
<g id="edge1" class="edge"><title>Node2&#45;&gt;Node1</title>
<path fill="none" stroke="midnightblue" d="M50.4151,-71.2038C55.5493,-58.8816 62.2926,-42.6978 67.0702,-31.2316"/>
<polygon fill="midnightblue" stroke="midnightblue" points="47.1746,-69.881 46.5592,-80.4579 53.6362,-72.5733 47.1746,-69.881"/>
</g>
<!-- Node3 -->
<g id="node3" class="node"><title>Node3</title>
<polygon fill="white" stroke="#bfbfbf" points="81.5,-80.5 81.5,-99.5 126.5,-99.5 126.5,-80.5 81.5,-80.5"/>
<text text-anchor="middle" x="104" y="-87.5" font-family="Helvetica,sans-Serif" font-size="10.00">Insets</text>
</g>
<!-- Node3&#45;&gt;Node1 -->
<g id="edge2" class="edge"><title>Node3&#45;&gt;Node1</title>
<path fill="none" stroke="#9a32cd" stroke-dasharray="5,2" d="M96.3378,-71.2038C91.0324,-58.8816 84.0643,-42.6978 79.1275,-31.2316"/>
<polygon fill="#9a32cd" stroke="#9a32cd" points="93.1528,-72.6572 100.322,-80.4579 99.5822,-69.8889 93.1528,-72.6572"/>
<text text-anchor="middle" x="116.5" y="-53.5" font-family="Helvetica,sans-Serif" font-size="10.00"> MARGINS</text>
</g>
</g>
</svg>
