<?xml version="1.0" encoding="UTF-8" standalone="no"?>
<!DOCTYPE svg PUBLIC "-//W3C//DTD SVG 1.1//EN"
 "http://www.w3.org/Graphics/SVG/1.1/DTD/svg11.dtd">
<!-- Generated by graphviz version 2.36.0 (20140111.2315)
 -->
<!-- Title: authoring_environment.VoogaView.VoogaView Pages: 1 -->
<svg width="388pt" height="87pt"
 viewBox="0.00 0.00 388.00 87.00" xmlns="http://www.w3.org/2000/svg" xmlns:xlink="http://www.w3.org/1999/xlink">
<g id="graph0" class="graph" transform="scale(1 1) rotate(0) translate(4 83)">
<title>authoring_environment.VoogaView.VoogaView</title>
<polygon fill="white" stroke="none" points="-4,4 -4,-83 384,-83 384,4 -4,4"/>
<!-- Node1 -->
<g id="node1" class="node"><title>Node1</title>
<polygon fill="#bfbfbf" stroke="black" points="0.5,-24 0.5,-54 161.5,-54 161.5,-24 0.5,-24"/>
<text text-anchor="start" x="8.5" y="-42" font-family="Helvetica,sans-Serif" font-size="10.00">authoring_environment.Vooga</text>
<text text-anchor="middle" x="81" y="-31" font-family="Helvetica,sans-Serif" font-size="10.00">View.VoogaView</text>
</g>
<!-- Node2 -->
<g id="node2" class="node"><title>Node2</title>
<g id="a_node2"><a xlink:href="../../de/dfa/classauthoring__environment_1_1_workspace_view.html#a531f28be9899230552f3eebccc3155f2" target="_top" xlink:title="authoring_environment.Workspace\lView.getActiveGrid">
<polygon fill="white" stroke="black" points="198,-49 198,-79 380,-79 380,-49 198,-49"/>
<text text-anchor="start" x="206" y="-67" font-family="Helvetica,sans-Serif" font-size="10.00">authoring_environment.Workspace</text>
<text text-anchor="middle" x="289" y="-56" font-family="Helvetica,sans-Serif" font-size="10.00">View.getActiveGrid</text>
</a>
</g>
</g>
<!-- Node1&#45;&gt;Node2 -->
<g id="edge1" class="edge"><title>Node1&#45;&gt;Node2</title>
<path fill="none" stroke="midnightblue" d="M161.645,-48.6657C170.282,-49.7139 179.151,-50.7902 187.99,-51.8629"/>
<polygon fill="midnightblue" stroke="midnightblue" points="187.595,-55.3405 197.944,-53.0709 188.438,-48.3915 187.595,-55.3405"/>
</g>
<!-- Node3 -->
<g id="node3" class="node"><title>Node3</title>
<g id="a_node3"><a xlink:href="../../df/d3a/classauthoring__environment_1_1_vooga_view.html#a19803f260aba2819514728b76f204027" target="_top" xlink:title="authoring_environment.Vooga\lView.initializeCreator">
<polygon fill="white" stroke="black" points="208.5,-0 208.5,-30 369.5,-30 369.5,-0 208.5,-0"/>
<text text-anchor="start" x="216.5" y="-18" font-family="Helvetica,sans-Serif" font-size="10.00">authoring_environment.Vooga</text>
<text text-anchor="middle" x="289" y="-7" font-family="Helvetica,sans-Serif" font-size="10.00">View.initializeCreator</text>
</a>
</g>
</g>
<!-- Node1&#45;&gt;Node3 -->
<g id="edge2" class="edge"><title>Node1&#45;&gt;Node3</title>
<path fill="none" stroke="midnightblue" d="M161.645,-29.721C173.586,-28.3298 185.969,-26.8871 198.106,-25.4731"/>
<polygon fill="midnightblue" stroke="midnightblue" points="198.699,-28.9277 208.227,-24.2939 197.889,-21.9747 198.699,-28.9277"/>
</g>
</g>
</svg>
