<?xml version="1.0" encoding="UTF-8" standalone="no"?>
<!DOCTYPE svg PUBLIC "-//W3C//DTD SVG 1.1//EN"
 "http://www.w3.org/Graphics/SVG/1.1/DTD/svg11.dtd">
<!-- Generated by graphviz version 2.36.0 (20140111.2315)
 -->
<!-- Title: authoring.data.GamePropertiesData.getNumPlayers Pages: 1 -->
<svg width="638pt" height="120pt"
 viewBox="0.00 0.00 638.00 120.00" xmlns="http://www.w3.org/2000/svg" xmlns:xlink="http://www.w3.org/1999/xlink">
<g id="graph0" class="graph" transform="scale(1 1) rotate(0) translate(4 116)">
<title>authoring.data.GamePropertiesData.getNumPlayers</title>
<polygon fill="white" stroke="none" points="-4,4 -4,-116 634,-116 634,4 -4,4"/>
<!-- Node1 -->
<g id="node1" class="node"><title>Node1</title>
<polygon fill="#bfbfbf" stroke="black" points="0,-33 0,-63 168,-63 168,-33 0,-33"/>
<text text-anchor="start" x="8" y="-51" font-family="Helvetica,sans-Serif" font-size="10.00">authoring.data.GameProperties</text>
<text text-anchor="middle" x="84" y="-40" font-family="Helvetica,sans-Serif" font-size="10.00">Data.getNumPlayers</text>
</g>
<!-- Node2 -->
<g id="node2" class="node"><title>Node2</title>
<g id="a_node2"><a xlink:href="../../d5/d1d/classauthoring_1_1data_1_1_game_authoring_data.html#a21045a0883cd8dbd1fb0b4328ba73cad" target="_top" xlink:title="authoring.data.GameAuthoring\lData.createGame">
<polygon fill="white" stroke="black" points="208,-60 208,-90 374,-90 374,-60 208,-60"/>
<text text-anchor="start" x="216" y="-78" font-family="Helvetica,sans-Serif" font-size="10.00">authoring.data.GameAuthoring</text>
<text text-anchor="middle" x="291" y="-67" font-family="Helvetica,sans-Serif" font-size="10.00">Data.createGame</text>
</a>
</g>
</g>
<!-- Node1&#45;&gt;Node2 -->
<g id="edge1" class="edge"><title>Node1&#45;&gt;Node2</title>
<path fill="none" stroke="midnightblue" d="M178.287,-60.2866C188.131,-61.5831 198.089,-62.8946 207.794,-64.1729"/>
<polygon fill="midnightblue" stroke="midnightblue" points="178.457,-56.7789 168.086,-58.943 177.543,-63.7189 178.457,-56.7789"/>
</g>
<!-- Node5 -->
<g id="node5" class="node"><title>Node5</title>
<g id="a_node5"><a xlink:href="../../dc/dae/classauthoring_1_1createedit_1_1_game_properties_editor.html#ac6acc81a35ab048db212ea9425d53a7a" target="_top" xlink:title="authoring.createedit.Game\lPropertiesEditor.GameProperties\lEditor">
<polygon fill="white" stroke="black" points="204.5,-0.5 204.5,-41.5 377.5,-41.5 377.5,-0.5 204.5,-0.5"/>
<text text-anchor="start" x="212.5" y="-29.5" font-family="Helvetica,sans-Serif" font-size="10.00">authoring.createedit.Game</text>
<text text-anchor="start" x="212.5" y="-18.5" font-family="Helvetica,sans-Serif" font-size="10.00">PropertiesEditor.GameProperties</text>
<text text-anchor="middle" x="291" y="-7.5" font-family="Helvetica,sans-Serif" font-size="10.00">Editor</text>
</a>
</g>
</g>
<!-- Node1&#45;&gt;Node5 -->
<g id="edge4" class="edge"><title>Node1&#45;&gt;Node5</title>
<path fill="none" stroke="midnightblue" d="M178.271,-35.7155C186.996,-34.5663 195.811,-33.4054 204.46,-32.2662"/>
<polygon fill="midnightblue" stroke="midnightblue" points="177.543,-32.2811 168.086,-37.057 178.457,-39.2211 177.543,-32.2811"/>
</g>
<!-- Node3 -->
<g id="node3" class="node"><title>Node3</title>
<g id="a_node3"><a xlink:href="../../db/d40/classfxml__main_1_1_authoring_controller.html#a2ec133c8edf0a7ab1e84f2e12455233d" target="_top" xlink:title="fxml_main.AuthoringController.save\lAsGame">
<polygon fill="white" stroke="black" points="428.5,-82 428.5,-112 615.5,-112 615.5,-82 428.5,-82"/>
<text text-anchor="start" x="436.5" y="-100" font-family="Helvetica,sans-Serif" font-size="10.00">fxml_main.AuthoringController.save</text>
<text text-anchor="middle" x="522" y="-89" font-family="Helvetica,sans-Serif" font-size="10.00">AsGame</text>
</a>
</g>
</g>
<!-- Node2&#45;&gt;Node3 -->
<g id="edge2" class="edge"><title>Node2&#45;&gt;Node3</title>
<path fill="none" stroke="midnightblue" d="M384.023,-83.8406C398.595,-85.2405 413.672,-86.689 428.261,-88.0905"/>
<polygon fill="midnightblue" stroke="midnightblue" points="384.316,-80.3528 374.027,-82.8804 383.647,-87.3207 384.316,-80.3528"/>
</g>
<!-- Node4 -->
<g id="node4" class="node"><title>Node4</title>
<g id="a_node4"><a xlink:href="../../db/d40/classfxml__main_1_1_authoring_controller.html#a0a9b65fb87ba111e2185014364016f95" target="_top" xlink:title="fxml_main.AuthoringController.saveGame">
<polygon fill="white" stroke="black" points="414,-43.5 414,-62.5 630,-62.5 630,-43.5 414,-43.5"/>
<text text-anchor="middle" x="522" y="-50.5" font-family="Helvetica,sans-Serif" font-size="10.00">fxml_main.AuthoringController.saveGame</text>
</a>
</g>
</g>
<!-- Node2&#45;&gt;Node4 -->
<g id="edge3" class="edge"><title>Node2&#45;&gt;Node4</title>
<path fill="none" stroke="midnightblue" d="M384.33,-66.1299C396.711,-64.9405 409.451,-63.7165 421.942,-62.5164"/>
<polygon fill="midnightblue" stroke="midnightblue" points="383.647,-62.6793 374.027,-67.1196 384.316,-69.6472 383.647,-62.6793"/>
</g>
</g>
</svg>
