<?xml version="1.0" encoding="UTF-8" standalone="no"?>
<!DOCTYPE svg PUBLIC "-//W3C//DTD SVG 1.1//EN"
 "http://www.w3.org/Graphics/SVG/1.1/DTD/svg11.dtd">
<!-- Generated by graphviz version 2.36.0 (20140111.2315)
 -->
<!-- Title: utilities.Reflection.createInstance Pages: 1 -->
<svg width="746pt" height="94pt"
 viewBox="0.00 0.00 746.00 94.00" xmlns="http://www.w3.org/2000/svg" xmlns:xlink="http://www.w3.org/1999/xlink">
<g id="graph0" class="graph" transform="scale(1 1) rotate(0) translate(4 90)">
<title>utilities.Reflection.createInstance</title>
<polygon fill="white" stroke="none" points="-4,4 -4,-90 742,-90 742,4 -4,4"/>
<!-- Node1 -->
<g id="node1" class="node"><title>Node1</title>
<polygon fill="#bfbfbf" stroke="black" points="0.5,-39 0.5,-69 133.5,-69 133.5,-39 0.5,-39"/>
<text text-anchor="start" x="8.5" y="-57" font-family="Helvetica,sans-Serif" font-size="10.00">utilities.Reflection.create</text>
<text text-anchor="middle" x="67" y="-46" font-family="Helvetica,sans-Serif" font-size="10.00">Instance</text>
</g>
<!-- Node2 -->
<g id="node2" class="node"><title>Node2</title>
<g id="a_node2"><a xlink:href="../../d1/df8/classutilities_1_1_reflection.html#ad9e9691f4aecc3fb683809489419bdd3" target="_top" xlink:title="utilities.Reflection.convertArgs">
<polygon fill="white" stroke="black" points="170,-66.5 170,-85.5 330,-85.5 330,-66.5 170,-66.5"/>
<text text-anchor="middle" x="250" y="-73.5" font-family="Helvetica,sans-Serif" font-size="10.00">utilities.Reflection.convertArgs</text>
</a>
</g>
</g>
<!-- Node1&#45;&gt;Node2 -->
<g id="edge1" class="edge"><title>Node1&#45;&gt;Node2</title>
<path fill="none" stroke="midnightblue" d="M133.601,-61.9736C142.348,-63.0368 151.432,-64.1409 160.489,-65.2418"/>
<polygon fill="midnightblue" stroke="midnightblue" points="160.335,-68.7487 170.685,-66.481 161.18,-61.7999 160.335,-68.7487"/>
</g>
<!-- Node4 -->
<g id="node4" class="node"><title>Node4</title>
<g id="a_node4"><a xlink:href="../../d1/df8/classutilities_1_1_reflection.html#ae1588738ad72d97bdd380aee418ed7fb" target="_top" xlink:title="utilities.Reflection.types\lMatch">
<polygon fill="white" stroke="black" points="186,-17 186,-47 314,-47 314,-17 186,-17"/>
<text text-anchor="start" x="194" y="-35" font-family="Helvetica,sans-Serif" font-size="10.00">utilities.Reflection.types</text>
<text text-anchor="middle" x="250" y="-24" font-family="Helvetica,sans-Serif" font-size="10.00">Match</text>
</a>
</g>
</g>
<!-- Node1&#45;&gt;Node4 -->
<g id="edge3" class="edge"><title>Node1&#45;&gt;Node4</title>
<path fill="none" stroke="midnightblue" d="M133.601,-46.0264C147.278,-44.364 161.778,-42.6016 175.712,-40.9079"/>
<polygon fill="midnightblue" stroke="midnightblue" points="176.234,-44.3703 185.739,-39.6892 175.389,-37.4215 176.234,-44.3703"/>
</g>
<!-- Node3 -->
<g id="node3" class="node"><title>Node3</title>
<g id="a_node3"><a xlink:href="../../d1/df8/classutilities_1_1_reflection.html#aadb82bd6d87fed9aefcf0e1c3bd72ce4" target="_top" xlink:title="utilities.Reflection.isVarArgs">
<polygon fill="white" stroke="black" points="367.5,-63.5 367.5,-82.5 514.5,-82.5 514.5,-63.5 367.5,-63.5"/>
<text text-anchor="middle" x="441" y="-70.5" font-family="Helvetica,sans-Serif" font-size="10.00">utilities.Reflection.isVarArgs</text>
</a>
</g>
</g>
<!-- Node2&#45;&gt;Node3 -->
<g id="edge2" class="edge"><title>Node2&#45;&gt;Node3</title>
<path fill="none" stroke="midnightblue" d="M330.058,-74.7451C339.024,-74.6028 348.181,-74.4574 357.194,-74.3144"/>
<polygon fill="midnightblue" stroke="midnightblue" points="357.348,-77.8125 367.291,-74.1541 357.237,-70.8134 357.348,-77.8125"/>
</g>
<!-- Node4&#45;&gt;Node3 -->
<g id="edge4" class="edge"><title>Node4&#45;&gt;Node3</title>
<path fill="none" stroke="midnightblue" d="M314.197,-45.7094C337.462,-50.7563 363.58,-56.4222 385.965,-61.278"/>
<polygon fill="midnightblue" stroke="midnightblue" points="385.448,-64.7473 395.963,-63.4469 386.932,-57.9064 385.448,-64.7473"/>
</g>
<!-- Node5 -->
<g id="node5" class="node"><title>Node5</title>
<g id="a_node5"><a xlink:href="../../d1/df8/classutilities_1_1_reflection.html#a5bcc85283f527ee85df9837b6c5a72df" target="_top" xlink:title="utilities.Reflection.isInstance">
<polygon fill="white" stroke="black" points="366,-22.5 366,-41.5 516,-41.5 516,-22.5 366,-22.5"/>
<text text-anchor="middle" x="441" y="-29.5" font-family="Helvetica,sans-Serif" font-size="10.00">utilities.Reflection.isInstance</text>
</a>
</g>
</g>
<!-- Node4&#45;&gt;Node5 -->
<g id="edge5" class="edge"><title>Node4&#45;&gt;Node5</title>
<path fill="none" stroke="midnightblue" d="M314.197,-32C327.495,-32 341.726,-32 355.659,-32"/>
<polygon fill="midnightblue" stroke="midnightblue" points="355.733,-35.5001 365.733,-32 355.733,-28.5001 355.733,-35.5001"/>
</g>
<!-- Node6 -->
<g id="node6" class="node"><title>Node6</title>
<g id="a_node6"><a xlink:href="../../d1/df8/classutilities_1_1_reflection.html#a5f4ab77dafe2951d634e7cdf568215fb" target="_top" xlink:title="utilities.Reflection.get\lFieldValue">
<polygon fill="white" stroke="black" points="586,-39 586,-69 704,-69 704,-39 586,-39"/>
<text text-anchor="start" x="594" y="-57" font-family="Helvetica,sans-Serif" font-size="10.00">utilities.Reflection.get</text>
<text text-anchor="middle" x="645" y="-46" font-family="Helvetica,sans-Serif" font-size="10.00">FieldValue</text>
</a>
</g>
</g>
<!-- Node5&#45;&gt;Node6 -->
<g id="edge6" class="edge"><title>Node5&#45;&gt;Node6</title>
<path fill="none" stroke="midnightblue" d="M516.07,-40.0671C535.541,-42.1877 556.452,-44.4651 575.61,-46.5516"/>
<polygon fill="midnightblue" stroke="midnightblue" points="575.431,-50.0527 585.751,-47.6561 576.189,-43.0938 575.431,-50.0527"/>
</g>
<!-- Node7 -->
<g id="node7" class="node"><title>Node7</title>
<g id="a_node7"><a xlink:href="../../d1/df8/classutilities_1_1_reflection.html#a4840f0caf75e6d525bde2dc97f63a51e" target="_top" xlink:title="utilities.Reflection.isAssignableFrom">
<polygon fill="white" stroke="black" points="552.5,-0.5 552.5,-19.5 737.5,-19.5 737.5,-0.5 552.5,-0.5"/>
<text text-anchor="middle" x="645" y="-7.5" font-family="Helvetica,sans-Serif" font-size="10.00">utilities.Reflection.isAssignableFrom</text>
</a>
</g>
</g>
<!-- Node5&#45;&gt;Node7 -->
<g id="edge7" class="edge"><title>Node5&#45;&gt;Node7</title>
<path fill="none" stroke="midnightblue" d="M516.07,-23.9329C525.951,-22.8568 536.202,-21.7403 546.407,-20.6289"/>
<polygon fill="midnightblue" stroke="midnightblue" points="547.019,-24.083 556.582,-19.5208 546.261,-17.1242 547.019,-24.083"/>
</g>
</g>
</svg>
