<?xml version="1.0" encoding="UTF-8" standalone="no"?>
<!DOCTYPE svg PUBLIC "-//W3C//DTD SVG 1.1//EN"
 "http://www.w3.org/Graphics/SVG/1.1/DTD/svg11.dtd">
<!-- Generated by graphviz version 2.36.0 (20140111.2315)
 -->
<!-- Title: utilities.Reflection.isInstance Pages: 1 -->
<svg width="492pt" height="87pt"
 viewBox="0.00 0.00 492.00 87.00" xmlns="http://www.w3.org/2000/svg" xmlns:xlink="http://www.w3.org/1999/xlink">
<g id="graph0" class="graph" transform="scale(1 1) rotate(0) translate(4 83)">
<title>utilities.Reflection.isInstance</title>
<polygon fill="white" stroke="none" points="-4,4 -4,-83 488,-83 488,4 -4,4"/>
<!-- Node1 -->
<g id="node1" class="node"><title>Node1</title>
<polygon fill="#bfbfbf" stroke="black" points="0,-29.5 0,-48.5 150,-48.5 150,-29.5 0,-29.5"/>
<text text-anchor="middle" x="75" y="-36.5" font-family="Helvetica,sans-Serif" font-size="10.00">utilities.Reflection.isInstance</text>
</g>
<!-- Node2 -->
<g id="node2" class="node"><title>Node2</title>
<g id="a_node2"><a xlink:href="../../d1/df8/classutilities_1_1_reflection.html#ae1588738ad72d97bdd380aee418ed7fb" target="_top" xlink:title="utilities.Reflection.types\lMatch">
<polygon fill="white" stroke="black" points="186,-24 186,-54 314,-54 314,-24 186,-24"/>
<text text-anchor="start" x="194" y="-42" font-family="Helvetica,sans-Serif" font-size="10.00">utilities.Reflection.types</text>
<text text-anchor="middle" x="250" y="-31" font-family="Helvetica,sans-Serif" font-size="10.00">Match</text>
</a>
</g>
</g>
<!-- Node1&#45;&gt;Node2 -->
<g id="edge1" class="edge"><title>Node1&#45;&gt;Node2</title>
<path fill="none" stroke="midnightblue" d="M160.235,-39C168.881,-39 177.557,-39 185.917,-39"/>
<polygon fill="midnightblue" stroke="midnightblue" points="160.12,-35.5001 150.12,-39 160.12,-42.5001 160.12,-35.5001"/>
</g>
<!-- Node3 -->
<g id="node3" class="node"><title>Node3</title>
<g id="a_node3"><a xlink:href="../../d1/df8/classutilities_1_1_reflection.html#a290b8d51f39afa882e8163aa4d07048b" target="_top" xlink:title="utilities.Reflection.create\lInstance">
<polygon fill="white" stroke="black" points="350.5,-49 350.5,-79 483.5,-79 483.5,-49 350.5,-49"/>
<text text-anchor="start" x="358.5" y="-67" font-family="Helvetica,sans-Serif" font-size="10.00">utilities.Reflection.create</text>
<text text-anchor="middle" x="417" y="-56" font-family="Helvetica,sans-Serif" font-size="10.00">Instance</text>
</a>
</g>
</g>
<!-- Node2&#45;&gt;Node3 -->
<g id="edge2" class="edge"><title>Node2&#45;&gt;Node3</title>
<path fill="none" stroke="midnightblue" d="M324.398,-50.121C333.055,-51.4326 341.848,-52.7648 350.388,-54.0587"/>
<polygon fill="midnightblue" stroke="midnightblue" points="324.733,-46.6318 314.321,-48.5942 323.684,-53.5528 324.733,-46.6318"/>
</g>
<!-- Node4 -->
<g id="node4" class="node"><title>Node4</title>
<g id="a_node4"><a xlink:href="../../d1/df8/classutilities_1_1_reflection.html#ae9e569c7f14d99af93e97d3a366e164d" target="_top" xlink:title="utilities.Reflection.call\lMethod">
<polygon fill="white" stroke="black" points="358,-0 358,-30 476,-30 476,-0 358,-0"/>
<text text-anchor="start" x="366" y="-18" font-family="Helvetica,sans-Serif" font-size="10.00">utilities.Reflection.call</text>
<text text-anchor="middle" x="417" y="-7" font-family="Helvetica,sans-Serif" font-size="10.00">Method</text>
</a>
</g>
</g>
<!-- Node2&#45;&gt;Node4 -->
<g id="edge3" class="edge"><title>Node2&#45;&gt;Node4</title>
<path fill="none" stroke="midnightblue" d="M324.529,-28.3049C335.738,-26.6744 347.171,-25.0115 357.987,-23.4383"/>
<polygon fill="midnightblue" stroke="midnightblue" points="323.713,-24.8866 314.321,-29.7896 324.721,-31.8137 323.713,-24.8866"/>
</g>
</g>
</svg>
