<?xml version="1.0" encoding="UTF-8" standalone="no"?>
<!DOCTYPE svg PUBLIC "-//W3C//DTD SVG 1.1//EN"
 "http://www.w3.org/Graphics/SVG/1.1/DTD/svg11.dtd">
<!-- Generated by graphviz version 2.36.0 (20140111.2315)
 -->
<!-- Title: utilities.Reflection.typesMatch Pages: 1 -->
<svg width="544pt" height="93pt"
 viewBox="0.00 0.00 544.00 93.00" xmlns="http://www.w3.org/2000/svg" xmlns:xlink="http://www.w3.org/1999/xlink">
<g id="graph0" class="graph" transform="scale(1 1) rotate(0) translate(4 89)">
<title>utilities.Reflection.typesMatch</title>
<polygon fill="white" stroke="none" points="-4,4 -4,-89 540,-89 540,4 -4,4"/>
<!-- Node1 -->
<g id="node1" class="node"><title>Node1</title>
<polygon fill="#bfbfbf" stroke="black" points="0,-14 0,-44 128,-44 128,-14 0,-14"/>
<text text-anchor="start" x="8" y="-32" font-family="Helvetica,sans-Serif" font-size="10.00">utilities.Reflection.types</text>
<text text-anchor="middle" x="64" y="-21" font-family="Helvetica,sans-Serif" font-size="10.00">Match</text>
</g>
<!-- Node2 -->
<g id="node2" class="node"><title>Node2</title>
<g id="a_node2"><a xlink:href="../../d1/df8/classutilities_1_1_reflection.html#a5bcc85283f527ee85df9837b6c5a72df" target="_top" xlink:title="utilities.Reflection.isInstance">
<polygon fill="white" stroke="black" points="164,-38.5 164,-57.5 314,-57.5 314,-38.5 164,-38.5"/>
<text text-anchor="middle" x="239" y="-45.5" font-family="Helvetica,sans-Serif" font-size="10.00">utilities.Reflection.isInstance</text>
</a>
</g>
</g>
<!-- Node1&#45;&gt;Node2 -->
<g id="edge1" class="edge"><title>Node1&#45;&gt;Node2</title>
<path fill="none" stroke="midnightblue" d="M128.436,-35.967C136.685,-36.8729 145.235,-37.8119 153.755,-38.7477"/>
<polygon fill="midnightblue" stroke="midnightblue" points="153.402,-42.2299 163.725,-39.8426 154.166,-35.2717 153.402,-42.2299"/>
</g>
<!-- Node5 -->
<g id="node5" class="node"><title>Node5</title>
<g id="a_node5"><a xlink:href="../../d1/df8/classutilities_1_1_reflection.html#aadb82bd6d87fed9aefcf0e1c3bd72ce4" target="_top" xlink:title="utilities.Reflection.isVarArgs">
<polygon fill="white" stroke="black" points="165.5,-0.5 165.5,-19.5 312.5,-19.5 312.5,-0.5 165.5,-0.5"/>
<text text-anchor="middle" x="239" y="-7.5" font-family="Helvetica,sans-Serif" font-size="10.00">utilities.Reflection.isVarArgs</text>
</a>
</g>
</g>
<!-- Node1&#45;&gt;Node5 -->
<g id="edge4" class="edge"><title>Node1&#45;&gt;Node5</title>
<path fill="none" stroke="midnightblue" d="M128.436,-22.033C137.195,-21.0711 146.293,-20.0719 155.336,-19.0788"/>
<polygon fill="midnightblue" stroke="midnightblue" points="155.942,-22.5333 165.5,-17.9624 155.177,-15.5752 155.942,-22.5333"/>
</g>
<!-- Node3 -->
<g id="node3" class="node"><title>Node3</title>
<g id="a_node3"><a xlink:href="../../d1/df8/classutilities_1_1_reflection.html#a5f4ab77dafe2951d634e7cdf568215fb" target="_top" xlink:title="utilities.Reflection.get\lFieldValue">
<polygon fill="white" stroke="black" points="384,-55 384,-85 502,-85 502,-55 384,-55"/>
<text text-anchor="start" x="392" y="-73" font-family="Helvetica,sans-Serif" font-size="10.00">utilities.Reflection.get</text>
<text text-anchor="middle" x="443" y="-62" font-family="Helvetica,sans-Serif" font-size="10.00">FieldValue</text>
</a>
</g>
</g>
<!-- Node2&#45;&gt;Node3 -->
<g id="edge2" class="edge"><title>Node2&#45;&gt;Node3</title>
<path fill="none" stroke="midnightblue" d="M314.07,-56.0671C333.541,-58.1877 354.452,-60.4651 373.61,-62.5516"/>
<polygon fill="midnightblue" stroke="midnightblue" points="373.431,-66.0527 383.751,-63.6561 374.189,-59.0938 373.431,-66.0527"/>
</g>
<!-- Node4 -->
<g id="node4" class="node"><title>Node4</title>
<g id="a_node4"><a xlink:href="../../d1/df8/classutilities_1_1_reflection.html#a4840f0caf75e6d525bde2dc97f63a51e" target="_top" xlink:title="utilities.Reflection.isAssignableFrom">
<polygon fill="white" stroke="black" points="350.5,-16.5 350.5,-35.5 535.5,-35.5 535.5,-16.5 350.5,-16.5"/>
<text text-anchor="middle" x="443" y="-23.5" font-family="Helvetica,sans-Serif" font-size="10.00">utilities.Reflection.isAssignableFrom</text>
</a>
</g>
</g>
<!-- Node2&#45;&gt;Node4 -->
<g id="edge3" class="edge"><title>Node2&#45;&gt;Node4</title>
<path fill="none" stroke="midnightblue" d="M314.07,-39.9329C323.951,-38.8568 334.202,-37.7403 344.407,-36.6289"/>
<polygon fill="midnightblue" stroke="midnightblue" points="345.019,-40.083 354.582,-35.5208 344.261,-33.1242 345.019,-40.083"/>
</g>
</g>
</svg>
