<?xml version="1.0" encoding="UTF-8" standalone="no"?>
<!DOCTYPE svg PUBLIC "-//W3C//DTD SVG 1.1//EN"
 "http://www.w3.org/Graphics/SVG/1.1/DTD/svg11.dtd">
<!-- Generated by graphviz version 2.36.0 (20140111.2315)
 -->
<!-- Title: utilities.Reflection.isVarArgs Pages: 1 -->
<svg width="522pt" height="87pt"
 viewBox="0.00 0.00 522.00 87.00" xmlns="http://www.w3.org/2000/svg" xmlns:xlink="http://www.w3.org/1999/xlink">
<g id="graph0" class="graph" transform="scale(1 1) rotate(0) translate(4 83)">
<title>utilities.Reflection.isVarArgs</title>
<polygon fill="white" stroke="none" points="-4,4 -4,-83 518,-83 518,4 -4,4"/>
<!-- Node1 -->
<g id="node1" class="node"><title>Node1</title>
<polygon fill="#bfbfbf" stroke="black" points="0.5,-29.5 0.5,-48.5 147.5,-48.5 147.5,-29.5 0.5,-29.5"/>
<text text-anchor="middle" x="74" y="-36.5" font-family="Helvetica,sans-Serif" font-size="10.00">utilities.Reflection.isVarArgs</text>
</g>
<!-- Node2 -->
<g id="node2" class="node"><title>Node2</title>
<g id="a_node2"><a xlink:href="../../d1/df8/classutilities_1_1_reflection.html#ad9e9691f4aecc3fb683809489419bdd3" target="_top" xlink:title="utilities.Reflection.convertArgs">
<polygon fill="white" stroke="black" points="184,-51.5 184,-70.5 344,-70.5 344,-51.5 184,-51.5"/>
<text text-anchor="middle" x="264" y="-58.5" font-family="Helvetica,sans-Serif" font-size="10.00">utilities.Reflection.convertArgs</text>
</a>
</g>
</g>
<!-- Node1&#45;&gt;Node2 -->
<g id="edge1" class="edge"><title>Node1&#45;&gt;Node2</title>
<path fill="none" stroke="midnightblue" d="M157.807,-48.6902C166.495,-49.7069 175.313,-50.7388 183.957,-51.7503"/>
<polygon fill="midnightblue" stroke="midnightblue" points="158.025,-45.1919 147.686,-47.5058 157.211,-52.1444 158.025,-45.1919"/>
</g>
<!-- Node5 -->
<g id="node5" class="node"><title>Node5</title>
<g id="a_node5"><a xlink:href="../../d1/df8/classutilities_1_1_reflection.html#ae1588738ad72d97bdd380aee418ed7fb" target="_top" xlink:title="utilities.Reflection.types\lMatch">
<polygon fill="white" stroke="black" points="200,-2 200,-32 328,-32 328,-2 200,-2"/>
<text text-anchor="start" x="208" y="-20" font-family="Helvetica,sans-Serif" font-size="10.00">utilities.Reflection.types</text>
<text text-anchor="middle" x="264" y="-9" font-family="Helvetica,sans-Serif" font-size="10.00">Match</text>
</a>
</g>
</g>
<!-- Node1&#45;&gt;Node5 -->
<g id="edge4" class="edge"><title>Node1&#45;&gt;Node5</title>
<path fill="none" stroke="midnightblue" d="M157.894,-29.2997C172.02,-27.6466 186.486,-25.9537 199.991,-24.3734"/>
<polygon fill="midnightblue" stroke="midnightblue" points="157.211,-25.8556 147.686,-30.4942 158.025,-32.8081 157.211,-25.8556"/>
</g>
<!-- Node3 -->
<g id="node3" class="node"><title>Node3</title>
<g id="a_node3"><a xlink:href="../../d1/df8/classutilities_1_1_reflection.html#ae9e569c7f14d99af93e97d3a366e164d" target="_top" xlink:title="utilities.Reflection.call\lMethod">
<polygon fill="white" stroke="black" points="388,-49 388,-79 506,-79 506,-49 388,-49"/>
<text text-anchor="start" x="396" y="-67" font-family="Helvetica,sans-Serif" font-size="10.00">utilities.Reflection.call</text>
<text text-anchor="middle" x="447" y="-56" font-family="Helvetica,sans-Serif" font-size="10.00">Method</text>
</a>
</g>
</g>
<!-- Node2&#45;&gt;Node3 -->
<g id="edge2" class="edge"><title>Node2&#45;&gt;Node3</title>
<path fill="none" stroke="midnightblue" d="M354.192,-62.4783C365.676,-62.6687 377.188,-62.8595 387.988,-63.0385"/>
<polygon fill="midnightblue" stroke="midnightblue" points="354.183,-58.9778 344.126,-62.3115 354.067,-65.9768 354.183,-58.9778"/>
</g>
<!-- Node4 -->
<g id="node4" class="node"><title>Node4</title>
<g id="a_node4"><a xlink:href="../../d1/df8/classutilities_1_1_reflection.html#a290b8d51f39afa882e8163aa4d07048b" target="_top" xlink:title="utilities.Reflection.create\lInstance">
<polygon fill="white" stroke="black" points="380.5,-0 380.5,-30 513.5,-30 513.5,-0 380.5,-0"/>
<text text-anchor="start" x="388.5" y="-18" font-family="Helvetica,sans-Serif" font-size="10.00">utilities.Reflection.create</text>
<text text-anchor="middle" x="447" y="-7" font-family="Helvetica,sans-Serif" font-size="10.00">Instance</text>
</a>
</g>
</g>
<!-- Node2&#45;&gt;Node4 -->
<g id="edge3" class="edge"><title>Node2&#45;&gt;Node4</title>
<path fill="none" stroke="midnightblue" d="M312.516,-48.9841C322.893,-46.3562 333.816,-43.587 344,-41 357.992,-37.4454 373.062,-33.6087 387.212,-30.0025"/>
<polygon fill="midnightblue" stroke="midnightblue" points="311.611,-45.6026 302.776,-51.4498 313.329,-52.3885 311.611,-45.6026"/>
</g>
<!-- Node5&#45;&gt;Node3 -->
<g id="edge6" class="edge"><title>Node5&#45;&gt;Node3</title>
<path fill="none" stroke="midnightblue" d="M332.487,-34.5242C350.791,-39.2773 370.441,-44.3796 388.161,-48.981"/>
<polygon fill="midnightblue" stroke="midnightblue" points="333.326,-31.1261 322.767,-32.0003 331.566,-37.9014 333.326,-31.1261"/>
</g>
<!-- Node5&#45;&gt;Node4 -->
<g id="edge5" class="edge"><title>Node5&#45;&gt;Node4</title>
<path fill="none" stroke="midnightblue" d="M338.116,-16.1921C352.107,-16.0375 366.674,-15.8765 380.41,-15.7248"/>
<polygon fill="midnightblue" stroke="midnightblue" points="338.012,-12.6929 328.051,-16.3033 338.089,-19.6925 338.012,-12.6929"/>
</g>
</g>
</svg>
