<?xml version="1.0" encoding="UTF-8" standalone="no"?>
<!DOCTYPE svg PUBLIC "-//W3C//DTD SVG 1.1//EN"
 "http://www.w3.org/Graphics/SVG/1.1/DTD/svg11.dtd">
<!-- Generated by graphviz version 2.36.0 (20140111.2315)
 -->
<!-- Title: utilities.Reflection.getFieldValue Pages: 1 -->
<svg width="646pt" height="87pt"
 viewBox="0.00 0.00 646.00 87.00" xmlns="http://www.w3.org/2000/svg" xmlns:xlink="http://www.w3.org/1999/xlink">
<g id="graph0" class="graph" transform="scale(1 1) rotate(0) translate(4 83)">
<title>utilities.Reflection.getFieldValue</title>
<polygon fill="white" stroke="none" points="-4,4 -4,-83 642,-83 642,4 -4,4"/>
<!-- Node1 -->
<g id="node1" class="node"><title>Node1</title>
<polygon fill="#bfbfbf" stroke="black" points="0,-24 0,-54 118,-54 118,-24 0,-24"/>
<text text-anchor="start" x="8" y="-42" font-family="Helvetica,sans-Serif" font-size="10.00">utilities.Reflection.get</text>
<text text-anchor="middle" x="59" y="-31" font-family="Helvetica,sans-Serif" font-size="10.00">FieldValue</text>
</g>
<!-- Node2 -->
<g id="node2" class="node"><title>Node2</title>
<g id="a_node2"><a xlink:href="../../d1/df8/classutilities_1_1_reflection.html#a5bcc85283f527ee85df9837b6c5a72df" target="_top" xlink:title="utilities.Reflection.isInstance">
<polygon fill="white" stroke="black" points="154,-29.5 154,-48.5 304,-48.5 304,-29.5 154,-29.5"/>
<text text-anchor="middle" x="229" y="-36.5" font-family="Helvetica,sans-Serif" font-size="10.00">utilities.Reflection.isInstance</text>
</a>
</g>
</g>
<!-- Node1&#45;&gt;Node2 -->
<g id="edge1" class="edge"><title>Node1&#45;&gt;Node2</title>
<path fill="none" stroke="midnightblue" d="M128.385,-39C136.77,-39 145.371,-39 153.836,-39"/>
<polygon fill="midnightblue" stroke="midnightblue" points="128.287,-35.5001 118.287,-39 128.287,-42.5001 128.287,-35.5001"/>
</g>
<!-- Node3 -->
<g id="node3" class="node"><title>Node3</title>
<g id="a_node3"><a xlink:href="../../d1/df8/classutilities_1_1_reflection.html#ae1588738ad72d97bdd380aee418ed7fb" target="_top" xlink:title="utilities.Reflection.types\lMatch">
<polygon fill="white" stroke="black" points="340,-24 340,-54 468,-54 468,-24 340,-24"/>
<text text-anchor="start" x="348" y="-42" font-family="Helvetica,sans-Serif" font-size="10.00">utilities.Reflection.types</text>
<text text-anchor="middle" x="404" y="-31" font-family="Helvetica,sans-Serif" font-size="10.00">Match</text>
</a>
</g>
</g>
<!-- Node2&#45;&gt;Node3 -->
<g id="edge2" class="edge"><title>Node2&#45;&gt;Node3</title>
<path fill="none" stroke="midnightblue" d="M314.235,-39C322.881,-39 331.557,-39 339.917,-39"/>
<polygon fill="midnightblue" stroke="midnightblue" points="314.12,-35.5001 304.12,-39 314.12,-42.5001 314.12,-35.5001"/>
</g>
<!-- Node4 -->
<g id="node4" class="node"><title>Node4</title>
<g id="a_node4"><a xlink:href="../../d1/df8/classutilities_1_1_reflection.html#a290b8d51f39afa882e8163aa4d07048b" target="_top" xlink:title="utilities.Reflection.create\lInstance">
<polygon fill="white" stroke="black" points="504.5,-49 504.5,-79 637.5,-79 637.5,-49 504.5,-49"/>
<text text-anchor="start" x="512.5" y="-67" font-family="Helvetica,sans-Serif" font-size="10.00">utilities.Reflection.create</text>
<text text-anchor="middle" x="571" y="-56" font-family="Helvetica,sans-Serif" font-size="10.00">Instance</text>
</a>
</g>
</g>
<!-- Node3&#45;&gt;Node4 -->
<g id="edge3" class="edge"><title>Node3&#45;&gt;Node4</title>
<path fill="none" stroke="midnightblue" d="M478.398,-50.121C487.055,-51.4326 495.848,-52.7648 504.388,-54.0587"/>
<polygon fill="midnightblue" stroke="midnightblue" points="478.733,-46.6318 468.321,-48.5942 477.684,-53.5528 478.733,-46.6318"/>
</g>
<!-- Node5 -->
<g id="node5" class="node"><title>Node5</title>
<g id="a_node5"><a xlink:href="../../d1/df8/classutilities_1_1_reflection.html#ae9e569c7f14d99af93e97d3a366e164d" target="_top" xlink:title="utilities.Reflection.call\lMethod">
<polygon fill="white" stroke="black" points="512,-0 512,-30 630,-30 630,-0 512,-0"/>
<text text-anchor="start" x="520" y="-18" font-family="Helvetica,sans-Serif" font-size="10.00">utilities.Reflection.call</text>
<text text-anchor="middle" x="571" y="-7" font-family="Helvetica,sans-Serif" font-size="10.00">Method</text>
</a>
</g>
</g>
<!-- Node3&#45;&gt;Node5 -->
<g id="edge4" class="edge"><title>Node3&#45;&gt;Node5</title>
<path fill="none" stroke="midnightblue" d="M478.529,-28.3049C489.738,-26.6744 501.171,-25.0115 511.987,-23.4383"/>
<polygon fill="midnightblue" stroke="midnightblue" points="477.713,-24.8866 468.321,-29.7896 478.721,-31.8137 477.713,-24.8866"/>
</g>
</g>
</svg>
