<?xml version="1.0" encoding="UTF-8" standalone="no"?>
<!DOCTYPE svg PUBLIC "-//W3C//DTD SVG 1.1//EN"
 "http://www.w3.org/Graphics/SVG/1.1/DTD/svg11.dtd">
<!-- Generated by graphviz version 2.36.0 (20140111.2315)
 -->
<!-- Title: fxml_main.LevelEditor Pages: 1 -->
<svg width="1392pt" height="336pt"
 viewBox="0.00 0.00 1392.00 336.00" xmlns="http://www.w3.org/2000/svg" xmlns:xlink="http://www.w3.org/1999/xlink">
<g id="graph0" class="graph" transform="scale(1 1) rotate(0) translate(4 332)">
<title>fxml_main.LevelEditor</title>
<polygon fill="white" stroke="none" points="-4,4 -4,-332 1388,-332 1388,4 -4,4"/>
<!-- Node1 -->
<g id="node1" class="node"><title>Node1</title>
<polygon fill="#bfbfbf" stroke="black" points="1262,-182.5 1262,-201.5 1384,-201.5 1384,-182.5 1262,-182.5"/>
<text text-anchor="middle" x="1323" y="-189.5" font-family="Helvetica,sans-Serif" font-size="10.00">fxml_main.LevelEditor</text>
</g>
<!-- Node2 -->
<g id="node2" class="node"><title>Node2</title>
<polygon fill="white" stroke="#bfbfbf" points="1024.5,-308.5 1024.5,-327.5 1065.5,-327.5 1065.5,-308.5 1024.5,-308.5"/>
<text text-anchor="middle" x="1045" y="-315.5" font-family="Helvetica,sans-Serif" font-size="10.00">VBox</text>
</g>
<!-- Node2&#45;&gt;Node1 -->
<g id="edge1" class="edge"><title>Node2&#45;&gt;Node1</title>
<path fill="none" stroke="midnightblue" d="M1075.82,-317.863C1116.51,-316.426 1190.49,-309.265 1244,-278 1277.41,-258.475 1304.58,-219.863 1316.08,-201.777"/>
<polygon fill="midnightblue" stroke="midnightblue" points="1075.65,-314.366 1065.74,-318.124 1075.83,-321.364 1075.65,-314.366"/>
</g>
<!-- Node3 -->
<g id="node3" class="node"><title>Node3</title>
<polygon fill="white" stroke="#bfbfbf" points="934.5,-259 934.5,-289 1155.5,-289 1155.5,-259 934.5,-259"/>
<text text-anchor="start" x="942.5" y="-277" font-family="Helvetica,sans-Serif" font-size="10.00">Consumer&lt; gamedata.gamecomponents.</text>
<text text-anchor="middle" x="1045" y="-266" font-family="Helvetica,sans-Serif" font-size="10.00">Level &gt;</text>
</g>
<!-- Node3&#45;&gt;Node1 -->
<g id="edge2" class="edge"><title>Node3&#45;&gt;Node1</title>
<path fill="none" stroke="#9a32cd" stroke-dasharray="5,2" d="M1165.65,-264.471C1192.03,-260.021 1219.42,-253.512 1244,-244 1270.11,-233.898 1296.34,-213.897 1310.75,-201.859"/>
<polygon fill="#9a32cd" stroke="#9a32cd" points="1164.92,-261.043 1155.6,-266.078 1166.03,-267.956 1164.92,-261.043"/>
<text text-anchor="middle" x="1209" y="-266" font-family="Helvetica,sans-Serif" font-size="10.00"> myOkLambda</text>
</g>
<!-- Node4 -->
<g id="node4" class="node"><title>Node4</title>
<g id="a_node4"><a xlink:href="../../da/d4c/classauthoring__environment_1_1_g_u_i_grid.html" target="_top" xlink:title="authoring_environment.GUIGrid">
<polygon fill="white" stroke="black" points="657,-120.5 657,-139.5 825,-139.5 825,-120.5 657,-120.5"/>
<text text-anchor="middle" x="741" y="-127.5" font-family="Helvetica,sans-Serif" font-size="10.00">authoring_environment.GUIGrid</text>
</a>
</g>
</g>
<!-- Node4&#45;&gt;Node1 -->
<g id="edge3" class="edge"><title>Node4&#45;&gt;Node1</title>
<path fill="none" stroke="#9a32cd" stroke-dasharray="5,2" d="M835.37,-137.4C919.339,-144.28 1046.03,-155.216 1156,-167 1195.19,-171.199 1205.03,-172.072 1244,-178 1252.84,-179.345 1262.22,-180.91 1271.3,-182.495"/>
<polygon fill="#9a32cd" stroke="#9a32cd" points="835.598,-133.907 825.346,-136.581 835.028,-140.884 835.598,-133.907"/>
<text text-anchor="middle" x="1045" y="-170" font-family="Helvetica,sans-Serif" font-size="10.00"> myGrid</text>
</g>
<!-- Node18 -->
<g id="node18" class="node"><title>Node18</title>
<g id="a_node18"><a xlink:href="../../d8/d01/classgamedata_1_1gamecomponents_1_1_level.html" target="_top" xlink:title="gamedata.gamecomponents.\lLevel">
<polygon fill="white" stroke="black" points="965,-82 965,-112 1125,-112 1125,-82 965,-82"/>
<text text-anchor="start" x="973" y="-100" font-family="Helvetica,sans-Serif" font-size="10.00">gamedata.gamecomponents.</text>
<text text-anchor="middle" x="1045" y="-89" font-family="Helvetica,sans-Serif" font-size="10.00">Level</text>
</a>
</g>
</g>
<!-- Node4&#45;&gt;Node18 -->
<g id="edge22" class="edge"><title>Node4&#45;&gt;Node18</title>
<path fill="none" stroke="#9a32cd" stroke-dasharray="5,2" d="M835.433,-119.79C876.903,-115.259 925.187,-109.983 964.848,-105.649"/>
<polygon fill="#9a32cd" stroke="#9a32cd" points="834.883,-116.33 825.322,-120.895 835.643,-123.288 834.883,-116.33"/>
<text text-anchor="middle" x="880" y="-122" font-family="Helvetica,sans-Serif" font-size="10.00"> myGrid</text>
</g>
<!-- Node5 -->
<g id="node5" class="node"><title>Node5</title>
<g id="a_node5"><a xlink:href="../../d9/df3/classauthoring__environment_1_1_super_grid.html" target="_top" xlink:title="authoring_environment.SuperGrid">
<polygon fill="white" stroke="black" points="296.5,-75.5 296.5,-94.5 475.5,-94.5 475.5,-75.5 296.5,-75.5"/>
<text text-anchor="middle" x="386" y="-82.5" font-family="Helvetica,sans-Serif" font-size="10.00">authoring_environment.SuperGrid</text>
</a>
</g>
</g>
<!-- Node5&#45;&gt;Node4 -->
<g id="edge4" class="edge"><title>Node5&#45;&gt;Node4</title>
<path fill="none" stroke="midnightblue" d="M471.895,-95.8223C530.84,-103.337 608.643,-113.255 665.246,-120.47"/>
<polygon fill="midnightblue" stroke="midnightblue" points="472.225,-92.3361 461.862,-94.5433 471.339,-99.2799 472.225,-92.3361"/>
</g>
<!-- Node6 -->
<g id="node6" class="node"><title>Node6</title>
<polygon fill="white" stroke="#bfbfbf" points="18,-39 18,-69 170,-69 170,-39 18,-39"/>
<text text-anchor="start" x="26" y="-57" font-family="Helvetica,sans-Serif" font-size="10.00">List&lt; List&lt; authoring</text>
<text text-anchor="middle" x="94" y="-46" font-family="Helvetica,sans-Serif" font-size="10.00">_environment.SuperTile &gt; &gt;</text>
</g>
<!-- Node6&#45;&gt;Node5 -->
<g id="edge5" class="edge"><title>Node6&#45;&gt;Node5</title>
<path fill="none" stroke="#9a32cd" stroke-dasharray="5,2" d="M180.194,-63.1069C216.737,-67.0132 259.424,-71.5764 296.342,-75.5228"/>
<polygon fill="#9a32cd" stroke="#9a32cd" points="180.375,-59.6064 170.059,-62.0236 179.631,-66.5668 180.375,-59.6064"/>
<text text-anchor="middle" x="242" y="-77" font-family="Helvetica,sans-Serif" font-size="10.00"> myGrid</text>
</g>
<!-- Node7 -->
<g id="node7" class="node"><title>Node7</title>
<polygon fill="white" stroke="#bfbfbf" points="74,-0.5 74,-19.5 114,-19.5 114,-0.5 74,-0.5"/>
<text text-anchor="middle" x="94" y="-7.5" font-family="Helvetica,sans-Serif" font-size="10.00">Pane</text>
</g>
<!-- Node7&#45;&gt;Node5 -->
<g id="edge6" class="edge"><title>Node7&#45;&gt;Node5</title>
<path fill="none" stroke="#9a32cd" stroke-dasharray="5,2" d="M124.367,-15.6196C142.708,-19.2234 166.787,-24.1256 188,-29 228.237,-38.2458 240.926,-33.8335 278,-52 287.101,-56.4596 286.812,-61.7228 296,-66 304.308,-69.8674 313.419,-72.9576 322.544,-75.4244"/>
<polygon fill="#9a32cd" stroke="#9a32cd" points="124.78,-12.1345 114.295,-13.6578 123.442,-19.0053 124.78,-12.1345"/>
<text text-anchor="middle" x="242" y="-55" font-family="Helvetica,sans-Serif" font-size="10.00"> myPane</text>
</g>
<!-- Node8 -->
<g id="node8" class="node"><title>Node8</title>
<polygon fill="white" stroke="#bfbfbf" points="356,-37.5 356,-56.5 416,-56.5 416,-37.5 356,-37.5"/>
<text text-anchor="middle" x="386" y="-44.5" font-family="Helvetica,sans-Serif" font-size="10.00">Observer</text>
</g>
<!-- Node8&#45;&gt;Node4 -->
<g id="edge7" class="edge"><title>Node8&#45;&gt;Node4</title>
<path fill="none" stroke="midnightblue" d="M426.594,-48.6733C477.714,-52.158 568.37,-62.8984 638,-96 647.405,-100.471 646.662,-106.39 656,-111 663.776,-114.839 672.34,-117.914 680.936,-120.373"/>
<polygon fill="midnightblue" stroke="midnightblue" points="426.506,-45.1611 416.308,-48.0344 426.072,-52.1477 426.506,-45.1611"/>
</g>
<!-- Node9 -->
<g id="node9" class="node"><title>Node9</title>
<g id="a_node9"><a xlink:href="../../d7/dd4/classauthoring_1_1data_1_1_patch_instance_data.html" target="_top" xlink:title="authoring.data.PatchInstanceData">
<polygon fill="white" stroke="black" points="296,-118.5 296,-137.5 476,-137.5 476,-118.5 296,-118.5"/>
<text text-anchor="middle" x="386" y="-125.5" font-family="Helvetica,sans-Serif" font-size="10.00">authoring.data.PatchInstanceData</text>
</a>
</g>
</g>
<!-- Node9&#45;&gt;Node4 -->
<g id="edge8" class="edge"><title>Node9&#45;&gt;Node4</title>
<path fill="none" stroke="#9a32cd" stroke-dasharray="5,2" d="M486.312,-128.563C540.049,-128.867 605.674,-129.239 656.714,-129.528"/>
<polygon fill="#9a32cd" stroke="#9a32cd" points="486.097,-125.061 476.077,-128.505 486.057,-132.061 486.097,-125.061"/>
<text text-anchor="middle" x="566" y="-133" font-family="Helvetica,sans-Serif" font-size="10.00"> myPatchData</text>
</g>
<!-- Node10 -->
<g id="node10" class="node"><title>Node10</title>
<g id="a_node10"><a xlink:href="../../d5/d29/interfaceauthoring_1_1data_1_1_authoring_data.html" target="_top" xlink:title="authoring.data.Authoring\lData\&lt; Patch \&gt;">
<polygon fill="white" stroke="black" points="25.5,-88 25.5,-118 162.5,-118 162.5,-88 25.5,-88"/>
<text text-anchor="start" x="33.5" y="-106" font-family="Helvetica,sans-Serif" font-size="10.00">authoring.data.Authoring</text>
<text text-anchor="middle" x="94" y="-95" font-family="Helvetica,sans-Serif" font-size="10.00">Data&lt; Patch &gt;</text>
</a>
</g>
</g>
<!-- Node10&#45;&gt;Node9 -->
<g id="edge9" class="edge"><title>Node10&#45;&gt;Node9</title>
<path fill="none" stroke="midnightblue" d="M172.598,-109.689C210.541,-112.96 256.403,-116.914 295.787,-120.309"/>
<polygon fill="midnightblue" stroke="midnightblue" points="172.89,-106.202 162.626,-108.83 172.289,-113.176 172.89,-106.202"/>
</g>
<!-- Node11 -->
<g id="node11" class="node"><title>Node11</title>
<polygon fill="white" stroke="#bfbfbf" points="0,-186 0,-216 188,-216 188,-186 0,-186"/>
<text text-anchor="start" x="8" y="-204" font-family="Helvetica,sans-Serif" font-size="10.00">List&lt; gamedata.gamecomponents.</text>
<text text-anchor="middle" x="94" y="-193" font-family="Helvetica,sans-Serif" font-size="10.00">Patch &gt;</text>
</g>
<!-- Node11&#45;&gt;Node9 -->
<g id="edge10" class="edge"><title>Node11&#45;&gt;Node9</title>
<path fill="none" stroke="#9a32cd" stroke-dasharray="5,2" d="M160.843,-183.3C219.127,-167.634 295.135,-147.208 296,-147 309.671,-143.707 324.593,-140.407 338.244,-137.503"/>
<polygon fill="#9a32cd" stroke="#9a32cd" points="159.672,-179.991 150.923,-185.967 161.489,-186.751 159.672,-179.991"/>
<text text-anchor="middle" x="242" y="-174" font-family="Helvetica,sans-Serif" font-size="10.00"> myPatches</text>
</g>
<!-- Node15 -->
<g id="node15" class="node"><title>Node15</title>
<g id="a_node15"><a xlink:href="../../d5/d55/classauthoring_1_1data_1_1_events_data_wrapper.html" target="_top" xlink:title="authoring.data.EventsData\lWrapper">
<polygon fill="white" stroke="black" points="313,-220 313,-250 459,-250 459,-220 313,-220"/>
<text text-anchor="start" x="321" y="-238" font-family="Helvetica,sans-Serif" font-size="10.00">authoring.data.EventsData</text>
<text text-anchor="middle" x="386" y="-227" font-family="Helvetica,sans-Serif" font-size="10.00">Wrapper</text>
</a>
</g>
</g>
<!-- Node11&#45;&gt;Node15 -->
<g id="edge16" class="edge"><title>Node11&#45;&gt;Node15</title>
<path fill="none" stroke="#9a32cd" stroke-dasharray="5,2" d="M198.338,-196.283C224.451,-196.537 252.356,-198.064 278,-202 301.058,-205.539 326.01,-213.012 346.013,-219.952"/>
<polygon fill="#9a32cd" stroke="#9a32cd" points="198.055,-192.782 188.043,-196.246 198.03,-199.782 198.055,-192.782"/>
<text text-anchor="middle" x="242" y="-205" font-family="Helvetica,sans-Serif" font-size="10.00"> myPatchTypes</text>
</g>
<!-- Node12 -->
<g id="node12" class="node"><title>Node12</title>
<g id="a_node12"><a xlink:href="../../d6/dda/classauthoring_1_1data_1_1_piece_instance_data.html" target="_top" xlink:title="authoring.data.PieceInstanceData">
<polygon fill="white" stroke="black" points="296.5,-156.5 296.5,-175.5 475.5,-175.5 475.5,-156.5 296.5,-156.5"/>
<text text-anchor="middle" x="386" y="-163.5" font-family="Helvetica,sans-Serif" font-size="10.00">authoring.data.PieceInstanceData</text>
</a>
</g>
</g>
<!-- Node12&#45;&gt;Node4 -->
<g id="edge11" class="edge"><title>Node12&#45;&gt;Node4</title>
<path fill="none" stroke="#9a32cd" stroke-dasharray="5,2" d="M485.678,-157.77C531.963,-153.702 587.85,-148.492 638,-143 647.671,-141.941 657.848,-140.744 667.876,-139.515"/>
<polygon fill="#9a32cd" stroke="#9a32cd" points="485.307,-154.289 475.65,-158.647 485.917,-161.263 485.307,-154.289"/>
<text text-anchor="middle" x="566" y="-160" font-family="Helvetica,sans-Serif" font-size="10.00"> myPieceData</text>
</g>
<!-- Node13 -->
<g id="node13" class="node"><title>Node13</title>
<g id="a_node13"><a xlink:href="../../d5/d29/interfaceauthoring_1_1data_1_1_authoring_data.html" target="_top" xlink:title="authoring.data.Authoring\lData\&lt; Piece \&gt;">
<polygon fill="white" stroke="black" points="25.5,-137 25.5,-167 162.5,-167 162.5,-137 25.5,-137"/>
<text text-anchor="start" x="33.5" y="-155" font-family="Helvetica,sans-Serif" font-size="10.00">authoring.data.Authoring</text>
<text text-anchor="middle" x="94" y="-144" font-family="Helvetica,sans-Serif" font-size="10.00">Data&lt; Piece &gt;</text>
</a>
</g>
</g>
<!-- Node13&#45;&gt;Node12 -->
<g id="edge12" class="edge"><title>Node13&#45;&gt;Node12</title>
<path fill="none" stroke="midnightblue" d="M173.224,-146.681C205.687,-145.41 243.709,-145.136 278,-148 297.992,-149.67 319.869,-153.066 338.602,-156.462"/>
<polygon fill="midnightblue" stroke="midnightblue" points="172.732,-143.198 162.892,-147.125 173.033,-150.192 172.732,-143.198"/>
</g>
<!-- Node14 -->
<g id="node14" class="node"><title>Node14</title>
<polygon fill="white" stroke="#bfbfbf" points="0,-241 0,-271 188,-271 188,-241 0,-241"/>
<text text-anchor="start" x="8" y="-259" font-family="Helvetica,sans-Serif" font-size="10.00">List&lt; gamedata.gamecomponents.</text>
<text text-anchor="middle" x="94" y="-248" font-family="Helvetica,sans-Serif" font-size="10.00">Piece &gt;</text>
</g>
<!-- Node14&#45;&gt;Node12 -->
<g id="edge13" class="edge"><title>Node14&#45;&gt;Node12</title>
<path fill="none" stroke="#9a32cd" stroke-dasharray="5,2" d="M182.664,-238.827C213.177,-231.951 247.414,-223.215 278,-213 309.754,-202.395 345.025,-185.936 366.088,-175.574"/>
<polygon fill="#9a32cd" stroke="#9a32cd" points="181.902,-235.411 172.897,-240.993 183.418,-242.244 181.902,-235.411"/>
<text text-anchor="middle" x="242" y="-236" font-family="Helvetica,sans-Serif" font-size="10.00"> myPieces</text>
</g>
<!-- Node14&#45;&gt;Node15 -->
<g id="edge15" class="edge"><title>Node14&#45;&gt;Node15</title>
<path fill="none" stroke="#9a32cd" stroke-dasharray="5,2" d="M198.417,-252.045C224.417,-250.74 252.248,-249.075 278,-247 289.273,-246.092 301.193,-244.942 312.826,-243.717"/>
<polygon fill="#9a32cd" stroke="#9a32cd" points="197.987,-248.562 188.17,-252.546 198.329,-255.553 197.987,-248.562"/>
<text text-anchor="middle" x="242" y="-255" font-family="Helvetica,sans-Serif" font-size="10.00"> myPieceTypes</text>
</g>
<!-- Node15&#45;&gt;Node1 -->
<g id="edge14" class="edge"><title>Node15&#45;&gt;Node1</title>
<path fill="none" stroke="#9a32cd" stroke-dasharray="5,2" d="M469.419,-231.21C654.544,-222.696 1099.77,-202.22 1261.77,-194.77"/>
<polygon fill="#9a32cd" stroke="#9a32cd" points="469.031,-227.724 459.202,-231.679 469.352,-234.716 469.031,-227.724"/>
<text text-anchor="middle" x="880" y="-217" font-family="Helvetica,sans-Serif" font-size="10.00"> myData</text>
</g>
<!-- Node16 -->
<g id="node16" class="node"><title>Node16</title>
<polygon fill="white" stroke="#bfbfbf" points="24.5,-295 24.5,-325 163.5,-325 163.5,-295 24.5,-295"/>
<text text-anchor="start" x="32.5" y="-313" font-family="Helvetica,sans-Serif" font-size="10.00">List&lt; gameengine.player.</text>
<text text-anchor="middle" x="94" y="-302" font-family="Helvetica,sans-Serif" font-size="10.00">Player &gt;</text>
</g>
<!-- Node16&#45;&gt;Node15 -->
<g id="edge17" class="edge"><title>Node16&#45;&gt;Node15</title>
<path fill="none" stroke="#9a32cd" stroke-dasharray="5,2" d="M173.356,-292.673C205.844,-285.207 243.85,-276.11 278,-267 297.39,-261.827 318.591,-255.607 336.969,-250.031"/>
<polygon fill="#9a32cd" stroke="#9a32cd" points="172.429,-289.294 163.461,-294.935 173.99,-296.118 172.429,-289.294"/>
<text text-anchor="middle" x="242" y="-288" font-family="Helvetica,sans-Serif" font-size="10.00"> myPlayers</text>
</g>
<!-- Node17 -->
<g id="node17" class="node"><title>Node17</title>
<g id="a_node17"><a xlink:href="../../de/dd8/classauthoring_1_1data_1_1_player_data.html" target="_top" xlink:title="authoring.data.PlayerData">
<polygon fill="white" stroke="black" points="494.5,-287.5 494.5,-306.5 637.5,-306.5 637.5,-287.5 494.5,-287.5"/>
<text text-anchor="middle" x="566" y="-294.5" font-family="Helvetica,sans-Serif" font-size="10.00">authoring.data.PlayerData</text>
</a>
</g>
</g>
<!-- Node16&#45;&gt;Node17 -->
<g id="edge19" class="edge"><title>Node16&#45;&gt;Node17</title>
<path fill="none" stroke="#9a32cd" stroke-dasharray="5,2" d="M173.696,-307.823C263.268,-305.346 408.27,-301.335 494.351,-298.954"/>
<polygon fill="#9a32cd" stroke="#9a32cd" points="173.493,-304.327 163.594,-308.103 173.687,-311.325 173.493,-304.327"/>
<text text-anchor="middle" x="242" y="-310" font-family="Helvetica,sans-Serif" font-size="10.00"> myPlayers</text>
</g>
<!-- Node17&#45;&gt;Node1 -->
<g id="edge18" class="edge"><title>Node17&#45;&gt;Node1</title>
<path fill="none" stroke="#9a32cd" stroke-dasharray="5,2" d="M647.863,-286.334C814.657,-264.305 1186.16,-215.074 1244,-206 1252.7,-204.635 1261.92,-203.078 1270.87,-201.51"/>
<polygon fill="#9a32cd" stroke="#9a32cd" points="647.116,-282.902 637.661,-287.682 648.033,-289.842 647.116,-282.902"/>
<text text-anchor="middle" x="880" y="-263" font-family="Helvetica,sans-Serif" font-size="10.00"> myPlayerData</text>
</g>
<!-- Node18&#45;&gt;Node1 -->
<g id="edge20" class="edge"><title>Node18&#45;&gt;Node1</title>
<path fill="none" stroke="#9a32cd" stroke-dasharray="5,2" d="M1135.57,-100.921C1170.59,-105.009 1210.33,-112.916 1244,-128 1273.09,-141.035 1300.24,-167.883 1313.51,-182.316"/>
<polygon fill="#9a32cd" stroke="#9a32cd" points="1135.67,-97.4117 1125.35,-99.8193 1134.92,-104.371 1135.67,-97.4117"/>
<text text-anchor="middle" x="1209" y="-131" font-family="Helvetica,sans-Serif" font-size="10.00"> myLevel</text>
</g>
<!-- Node19 -->
<g id="node19" class="node"><title>Node19</title>
<polygon fill="white" stroke="#bfbfbf" points="705.5,-82.5 705.5,-101.5 776.5,-101.5 776.5,-82.5 705.5,-82.5"/>
<text text-anchor="middle" x="741" y="-89.5" font-family="Helvetica,sans-Serif" font-size="10.00">Observable</text>
</g>
<!-- Node19&#45;&gt;Node18 -->
<g id="edge21" class="edge"><title>Node19&#45;&gt;Node18</title>
<path fill="none" stroke="midnightblue" d="M786.782,-92.7414C833.644,-93.5173 908.159,-94.751 964.952,-95.6913"/>
<polygon fill="midnightblue" stroke="midnightblue" points="786.7,-89.2397 776.643,-92.5736 786.584,-96.2387 786.7,-89.2397"/>
</g>
<!-- Node20 -->
<g id="node20" class="node"><title>Node20</title>
<polygon fill="white" stroke="#bfbfbf" points="656,-34.5 656,-53.5 826,-53.5 826,-34.5 656,-34.5"/>
<text text-anchor="middle" x="741" y="-41.5" font-family="Helvetica,sans-Serif" font-size="10.00">List&lt; gamedata.events.Event &gt;</text>
</g>
<!-- Node20&#45;&gt;Node1 -->
<g id="edge24" class="edge"><title>Node20&#45;&gt;Node1</title>
<path fill="none" stroke="#9a32cd" stroke-dasharray="5,2" d="M836.461,-36.9701C921.415,-33.2021 1048.94,-33.9175 1156,-61 1198.2,-71.6759 1209.35,-77.6545 1244,-104 1275.04,-127.6 1303.18,-164.97 1315.47,-182.426"/>
<polygon fill="#9a32cd" stroke="#9a32cd" points="836.139,-33.4813 826.316,-37.4504 836.47,-40.4735 836.139,-33.4813"/>
<text text-anchor="middle" x="1045" y="-64" font-family="Helvetica,sans-Serif" font-size="10.00"> myEvents</text>
</g>
<!-- Node20&#45;&gt;Node18 -->
<g id="edge23" class="edge"><title>Node20&#45;&gt;Node18</title>
<path fill="none" stroke="#9a32cd" stroke-dasharray="5,2" d="M806.26,-55.2773C852.584,-63.4072 915.39,-74.4294 964.815,-83.1032"/>
<polygon fill="#9a32cd" stroke="#9a32cd" points="806.795,-51.8179 796.34,-53.5365 805.585,-58.7125 806.795,-51.8179"/>
<text text-anchor="middle" x="880" y="-77" font-family="Helvetica,sans-Serif" font-size="10.00"> myEvents</text>
</g>
</g>
</svg>
