<?xml version="1.0" encoding="UTF-8" standalone="no"?>
<!DOCTYPE svg PUBLIC "-//W3C//DTD SVG 1.1//EN"
 "http://www.w3.org/Graphics/SVG/1.1/DTD/svg11.dtd">
<!-- Generated by graphviz version 2.36.0 (20140111.2315)
 -->
<!-- Title: gamedata.events.Event.getConditions Pages: 1 -->
<svg width="560pt" height="136pt"
 viewBox="0.00 0.00 560.00 136.00" xmlns="http://www.w3.org/2000/svg" xmlns:xlink="http://www.w3.org/1999/xlink">
<g id="graph0" class="graph" transform="scale(1 1) rotate(0) translate(4 132)">
<title>gamedata.events.Event.getConditions</title>
<polygon fill="white" stroke="none" points="-4,4 -4,-132 556,-132 556,4 -4,4"/>
<!-- Node1 -->
<g id="node1" class="node"><title>Node1</title>
<polygon fill="#bfbfbf" stroke="black" points="0,-49 0,-79 150,-79 150,-49 0,-49"/>
<text text-anchor="start" x="8" y="-67" font-family="Helvetica,sans-Serif" font-size="10.00">gamedata.events.Event.get</text>
<text text-anchor="middle" x="75" y="-56" font-family="Helvetica,sans-Serif" font-size="10.00">Conditions</text>
</g>
<!-- Node2 -->
<g id="node2" class="node"><title>Node2</title>
<g id="a_node2"><a xlink:href="../../d3/d12/classtests_1_1_test_game_creator.html#a9d232abfdb7506564874adbb3354c6bc" target="_top" xlink:title="tests.TestGameCreator.create\lNewEvent">
<polygon fill="white" stroke="black" points="195.5,-98 195.5,-128 356.5,-128 356.5,-98 195.5,-98"/>
<text text-anchor="start" x="203.5" y="-116" font-family="Helvetica,sans-Serif" font-size="10.00">tests.TestGameCreator.create</text>
<text text-anchor="middle" x="276" y="-105" font-family="Helvetica,sans-Serif" font-size="10.00">NewEvent</text>
</a>
</g>
</g>
<!-- Node1&#45;&gt;Node2 -->
<g id="edge1" class="edge"><title>Node1&#45;&gt;Node2</title>
<path fill="none" stroke="midnightblue" d="M146.977,-81.4768C168.911,-86.8775 192.864,-92.7755 214.057,-97.9938"/>
<polygon fill="midnightblue" stroke="midnightblue" points="147.606,-78.0271 137.059,-79.0346 145.932,-84.8241 147.606,-78.0271"/>
</g>
<!-- Node3 -->
<g id="node3" class="node"><title>Node3</title>
<g id="a_node3"><a xlink:href="../../d8/d60/classauthoring_1_1eventeditor_1_1_event_editor_controller.html#a93fff7a48d4492092faafda67a21acda" target="_top" xlink:title="authoring.eventeditor.Event\lEditorController.showEventInEditor">
<polygon fill="white" stroke="black" points="186,-49 186,-79 366,-79 366,-49 186,-49"/>
<text text-anchor="start" x="194" y="-67" font-family="Helvetica,sans-Serif" font-size="10.00">authoring.eventeditor.Event</text>
<text text-anchor="middle" x="276" y="-56" font-family="Helvetica,sans-Serif" font-size="10.00">EditorController.showEventInEditor</text>
</a>
</g>
</g>
<!-- Node1&#45;&gt;Node3 -->
<g id="edge2" class="edge"><title>Node1&#45;&gt;Node3</title>
<path fill="none" stroke="midnightblue" d="M160.269,-64C168.68,-64 177.24,-64 185.7,-64"/>
<polygon fill="midnightblue" stroke="midnightblue" points="160.1,-60.5001 150.1,-64 160.1,-67.5001 160.1,-60.5001"/>
</g>
<!-- Node5 -->
<g id="node5" class="node"><title>Node5</title>
<g id="a_node5"><a xlink:href="../../d7/df4/classtests_1_1_j_s_o_n_tester_main.html#a5f1fa68f3fcb37a473271cdbfeaaa92e" target="_top" xlink:title="tests.JSONTesterMain.test\lJSONwrite">
<polygon fill="white" stroke="black" points="206,-0 206,-30 346,-30 346,-0 206,-0"/>
<text text-anchor="start" x="214" y="-18" font-family="Helvetica,sans-Serif" font-size="10.00">tests.JSONTesterMain.test</text>
<text text-anchor="middle" x="276" y="-7" font-family="Helvetica,sans-Serif" font-size="10.00">JSONwrite</text>
</a>
</g>
</g>
<!-- Node1&#45;&gt;Node5 -->
<g id="edge4" class="edge"><title>Node1&#45;&gt;Node5</title>
<path fill="none" stroke="midnightblue" d="M146.977,-46.5232C168.911,-41.1225 192.864,-35.2245 214.057,-30.0062"/>
<polygon fill="midnightblue" stroke="midnightblue" points="145.932,-43.1759 137.059,-48.9654 147.606,-49.9729 145.932,-43.1759"/>
</g>
<!-- Node4 -->
<g id="node4" class="node"><title>Node4</title>
<g id="a_node4"><a xlink:href="../../d8/d60/classauthoring_1_1eventeditor_1_1_event_editor_controller.html#a2dae0a56f5b7831ccb424e86a33de715" target="_top" xlink:title="authoring.eventeditor.Event\lEditorController.initialize">
<polygon fill="white" stroke="black" points="402.5,-49 402.5,-79 551.5,-79 551.5,-49 402.5,-49"/>
<text text-anchor="start" x="410.5" y="-67" font-family="Helvetica,sans-Serif" font-size="10.00">authoring.eventeditor.Event</text>
<text text-anchor="middle" x="477" y="-56" font-family="Helvetica,sans-Serif" font-size="10.00">EditorController.initialize</text>
</a>
</g>
</g>
<!-- Node3&#45;&gt;Node4 -->
<g id="edge3" class="edge"><title>Node3&#45;&gt;Node4</title>
<path fill="none" stroke="midnightblue" d="M376.273,-64C385.018,-64 393.766,-64 402.247,-64"/>
<polygon fill="midnightblue" stroke="midnightblue" points="376.023,-60.5001 366.023,-64 376.023,-67.5001 376.023,-60.5001"/>
</g>
<!-- Node6 -->
<g id="node6" class="node"><title>Node6</title>
<g id="a_node6"><a xlink:href="../../d7/df4/classtests_1_1_j_s_o_n_tester_main.html#a931215da47157cbc5157c6a9df31ccd4" target="_top" xlink:title="tests.JSONTesterMain.main">
<polygon fill="white" stroke="black" points="404,-5.5 404,-24.5 550,-24.5 550,-5.5 404,-5.5"/>
<text text-anchor="middle" x="477" y="-12.5" font-family="Helvetica,sans-Serif" font-size="10.00">tests.JSONTesterMain.main</text>
</a>
</g>
</g>
<!-- Node5&#45;&gt;Node6 -->
<g id="edge5" class="edge"><title>Node5&#45;&gt;Node6</title>
<path fill="none" stroke="midnightblue" d="M356.223,-15C371.895,-15 388.269,-15 403.697,-15"/>
<polygon fill="midnightblue" stroke="midnightblue" points="356.042,-11.5001 346.042,-15 356.042,-18.5001 356.042,-11.5001"/>
</g>
</g>
</svg>
