<?xml version="1.0" encoding="UTF-8" standalone="no"?>
<!DOCTYPE svg PUBLIC "-//W3C//DTD SVG 1.1//EN"
 "http://www.w3.org/Graphics/SVG/1.1/DTD/svg11.dtd">
<!-- Generated by graphviz version 2.36.0 (20140111.2315)
 -->
<!-- Title: authoring.data.PlayerStatData.getStats Pages: 1 -->
<svg width="558pt" height="53pt"
 viewBox="0.00 0.00 558.00 53.00" xmlns="http://www.w3.org/2000/svg" xmlns:xlink="http://www.w3.org/1999/xlink">
<g id="graph0" class="graph" transform="scale(1 1) rotate(0) translate(4 49)">
<title>authoring.data.PlayerStatData.getStats</title>
<polygon fill="white" stroke="none" points="-4,4 -4,-49 554,-49 554,4 -4,4"/>
<!-- Node1 -->
<g id="node1" class="node"><title>Node1</title>
<polygon fill="#bfbfbf" stroke="black" points="0,-1 0,-31 140,-31 140,-1 0,-1"/>
<text text-anchor="start" x="8" y="-19" font-family="Helvetica,sans-Serif" font-size="10.00">authoring.data.PlayerStat</text>
<text text-anchor="middle" x="70" y="-8" font-family="Helvetica,sans-Serif" font-size="10.00">Data.getStats</text>
</g>
<!-- Node2 -->
<g id="node2" class="node"><title>Node2</title>
<g id="a_node2"><a xlink:href="../../d4/d5e/classfxml__main_1_1_player_stat_editor.html#adefbf23f32bcbadbbb2a18887464ff1d" target="_top" xlink:title="fxml_main.PlayerStatEditor.initialize">
<polygon fill="white" stroke="black" points="176.5,-25.5 176.5,-44.5 363.5,-44.5 363.5,-25.5 176.5,-25.5"/>
<text text-anchor="middle" x="270" y="-32.5" font-family="Helvetica,sans-Serif" font-size="10.00">fxml_main.PlayerStatEditor.initialize</text>
</a>
</g>
</g>
<!-- Node1&#45;&gt;Node2 -->
<g id="edge1" class="edge"><title>Node1&#45;&gt;Node2</title>
<path fill="none" stroke="midnightblue" d="M150.259,-23.6057C158.881,-24.433 167.71,-25.2803 176.472,-26.121"/>
<polygon fill="midnightblue" stroke="midnightblue" points="150.539,-20.1166 140.251,-22.6453 149.871,-27.0846 150.539,-20.1166"/>
</g>
<!-- Node3 -->
<g id="node3" class="node"><title>Node3</title>
<g id="a_node3"><a xlink:href="../../d4/d5e/classfxml__main_1_1_player_stat_editor.html#a9e9f70a562b031767fadca73fad1720c" target="_top" xlink:title="fxml_main.PlayerStatEditor.\lPlayerStatEditor">
<polygon fill="white" stroke="black" points="400.5,-1 400.5,-31 549.5,-31 549.5,-1 400.5,-1"/>
<text text-anchor="start" x="408.5" y="-19" font-family="Helvetica,sans-Serif" font-size="10.00">fxml_main.PlayerStatEditor.</text>
<text text-anchor="middle" x="475" y="-8" font-family="Helvetica,sans-Serif" font-size="10.00">PlayerStatEditor</text>
</a>
</g>
</g>
<!-- Node1&#45;&gt;Node3 -->
<g id="edge3" class="edge"><title>Node1&#45;&gt;Node3</title>
<path fill="none" stroke="midnightblue" d="M150.284,-16C222.844,-16 329.385,-16 400.175,-16"/>
<polygon fill="midnightblue" stroke="midnightblue" points="150.278,-12.5001 140.278,-16 150.278,-19.5001 150.278,-12.5001"/>
</g>
<!-- Node2&#45;&gt;Node3 -->
<g id="edge2" class="edge"><title>Node2&#45;&gt;Node3</title>
<path fill="none" stroke="midnightblue" d="M373.736,-25.3843C382.731,-24.5424 391.714,-23.7017 400.401,-22.8886"/>
<polygon fill="midnightblue" stroke="midnightblue" points="373.22,-21.9173 363.589,-26.334 373.872,-28.8868 373.22,-21.9173"/>
</g>
</g>
</svg>
