<?xml version="1.0" encoding="UTF-8" standalone="no"?>
<!DOCTYPE svg PUBLIC "-//W3C//DTD SVG 1.1//EN"
 "http://www.w3.org/Graphics/SVG/1.1/DTD/svg11.dtd">
<!-- Generated by graphviz version 2.36.0 (20140111.2315)
 -->
<!-- Title: authoring.eventeditor.NewActionController.initialize Pages: 1 -->
<svg width="592pt" height="136pt"
 viewBox="0.00 0.00 592.00 136.00" xmlns="http://www.w3.org/2000/svg" xmlns:xlink="http://www.w3.org/1999/xlink">
<g id="graph0" class="graph" transform="scale(1 1) rotate(0) translate(4 132)">
<title>authoring.eventeditor.NewActionController.initialize</title>
<polygon fill="white" stroke="none" points="-4,4 -4,-132 588,-132 588,4 -4,4"/>
<!-- Node1 -->
<g id="node1" class="node"><title>Node1</title>
<polygon fill="#bfbfbf" stroke="black" points="0.5,-49 0.5,-79 143.5,-79 143.5,-49 0.5,-49"/>
<text text-anchor="start" x="8.5" y="-67" font-family="Helvetica,sans-Serif" font-size="10.00">authoring.eventeditor.New</text>
<text text-anchor="middle" x="72" y="-56" font-family="Helvetica,sans-Serif" font-size="10.00">ActionController.initialize</text>
</g>
<!-- Node2 -->
<g id="node2" class="node"><title>Node2</title>
<g id="a_node2"><a xlink:href="../../d7/dcc/classutilities_1_1_class_grabber.html#aafd30d1c4beed85d57bce894927acb09" target="_top" xlink:title="utilities.ClassGrabber.get\lClasses">
<polygon fill="white" stroke="black" points="212,-98 212,-128 348,-128 348,-98 212,-98"/>
<text text-anchor="start" x="220" y="-116" font-family="Helvetica,sans-Serif" font-size="10.00">utilities.ClassGrabber.get</text>
<text text-anchor="middle" x="280" y="-105" font-family="Helvetica,sans-Serif" font-size="10.00">Classes</text>
</a>
</g>
</g>
<!-- Node1&#45;&gt;Node2 -->
<g id="edge1" class="edge"><title>Node1&#45;&gt;Node2</title>
<path fill="none" stroke="midnightblue" d="M136.207,-79.0346C158.254,-84.2789 183.176,-90.2069 205.956,-95.6255"/>
<polygon fill="midnightblue" stroke="midnightblue" points="205.374,-99.0847 215.913,-97.9938 206.994,-92.2747 205.374,-99.0847"/>
</g>
<!-- Node4 -->
<g id="node4" class="node"><title>Node4</title>
<g id="a_node4"><a xlink:href="../../dc/dc7/classauthoring_1_1eventeditor_1_1_new_action_controller.html#af07958b57f2d1d4b7b77ec2f56627cf7" target="_top" xlink:title="authoring.eventeditor.New\lActionController.showActionEditorPane">
<polygon fill="white" stroke="black" points="180,-49 180,-79 380,-79 380,-49 180,-49"/>
<text text-anchor="start" x="188" y="-67" font-family="Helvetica,sans-Serif" font-size="10.00">authoring.eventeditor.New</text>
<text text-anchor="middle" x="280" y="-56" font-family="Helvetica,sans-Serif" font-size="10.00">ActionController.showActionEditorPane</text>
</a>
</g>
</g>
<!-- Node1&#45;&gt;Node4 -->
<g id="edge3" class="edge"><title>Node1&#45;&gt;Node4</title>
<path fill="none" stroke="midnightblue" d="M143.605,-64C152.068,-64 160.855,-64 169.704,-64"/>
<polygon fill="midnightblue" stroke="midnightblue" points="169.708,-67.5001 179.708,-64 169.708,-60.5001 169.708,-67.5001"/>
</g>
<!-- Node5 -->
<g id="node5" class="node"><title>Node5</title>
<g id="a_node5"><a xlink:href="../../dc/dc7/classauthoring_1_1eventeditor_1_1_new_action_controller.html#ad509bdd5c1c03c04098c57cd808d6e04" target="_top" xlink:title="authoring.eventeditor.New\lActionController.trimClassList">
<polygon fill="white" stroke="black" points="201.5,-0 201.5,-30 358.5,-30 358.5,-0 201.5,-0"/>
<text text-anchor="start" x="209.5" y="-18" font-family="Helvetica,sans-Serif" font-size="10.00">authoring.eventeditor.New</text>
<text text-anchor="middle" x="280" y="-7" font-family="Helvetica,sans-Serif" font-size="10.00">ActionController.trimClassList</text>
</a>
</g>
</g>
<!-- Node1&#45;&gt;Node5 -->
<g id="edge4" class="edge"><title>Node1&#45;&gt;Node5</title>
<path fill="none" stroke="midnightblue" d="M136.207,-48.9654C158.254,-43.7211 183.176,-37.7931 205.956,-32.3745"/>
<polygon fill="midnightblue" stroke="midnightblue" points="206.994,-35.7253 215.913,-30.0062 205.374,-28.9153 206.994,-35.7253"/>
</g>
<!-- Node3 -->
<g id="node3" class="node"><title>Node3</title>
<g id="a_node3"><a xlink:href="../../d7/dcc/classutilities_1_1_class_grabber.html#ad4bda95822ecf4385d69f6ecec3fd545" target="_top" xlink:title="utilities.ClassGrabber.find\lClasses">
<polygon fill="white" stroke="black" points="431.5,-98 431.5,-128 568.5,-128 568.5,-98 431.5,-98"/>
<text text-anchor="start" x="439.5" y="-116" font-family="Helvetica,sans-Serif" font-size="10.00">utilities.ClassGrabber.find</text>
<text text-anchor="middle" x="500" y="-105" font-family="Helvetica,sans-Serif" font-size="10.00">Classes</text>
</a>
</g>
</g>
<!-- Node2&#45;&gt;Node3 -->
<g id="edge2" class="edge"><title>Node2&#45;&gt;Node3</title>
<path fill="none" stroke="midnightblue" d="M348.186,-113C371.283,-113 397.333,-113 421.203,-113"/>
<polygon fill="midnightblue" stroke="midnightblue" points="421.285,-116.5 431.285,-113 421.285,-109.5 421.285,-116.5"/>
</g>
<!-- Node6 -->
<g id="node6" class="node"><title>Node6</title>
<g id="a_node6"><a xlink:href="../../dc/dc7/classauthoring_1_1eventeditor_1_1_new_action_controller.html#a1cf08d1d89da95be308f7d5003644fe0" target="_top" xlink:title="authoring.eventeditor.New\lActionController.trimClassPaths">
<polygon fill="white" stroke="black" points="416.5,-0 416.5,-30 583.5,-30 583.5,-0 416.5,-0"/>
<text text-anchor="start" x="424.5" y="-18" font-family="Helvetica,sans-Serif" font-size="10.00">authoring.eventeditor.New</text>
<text text-anchor="middle" x="500" y="-7" font-family="Helvetica,sans-Serif" font-size="10.00">ActionController.trimClassPaths</text>
</a>
</g>
</g>
<!-- Node5&#45;&gt;Node6 -->
<g id="edge5" class="edge"><title>Node5&#45;&gt;Node6</title>
<path fill="none" stroke="midnightblue" d="M358.78,-15C374.127,-15 390.375,-15 406.161,-15"/>
<polygon fill="midnightblue" stroke="midnightblue" points="406.454,-18.5001 416.454,-15 406.454,-11.5001 406.454,-18.5001"/>
</g>
</g>
</svg>
