<?xml version="1.0" encoding="UTF-8" standalone="no"?>
<!DOCTYPE svg PUBLIC "-//W3C//DTD SVG 1.1//EN"
 "http://www.w3.org/Graphics/SVG/1.1/DTD/svg11.dtd">
<!-- Generated by graphviz version 2.36.0 (20140111.2315)
 -->
<!-- Title: authoring.concretefeatures.ReceiverEditor Pages: 1 -->
<svg width="258pt" height="178pt"
 viewBox="0.00 0.00 258.00 178.00" xmlns="http://www.w3.org/2000/svg" xmlns:xlink="http://www.w3.org/1999/xlink">
<g id="graph0" class="graph" transform="scale(1 1) rotate(0) translate(4 174)">
<title>authoring.concretefeatures.ReceiverEditor</title>
<polygon fill="white" stroke="none" points="-4,4 -4,-174 254,-174 254,4 -4,4"/>
<!-- Node1 -->
<g id="node1" class="node"><title>Node1</title>
<polygon fill="#bfbfbf" stroke="black" points="99,-1 99,-31 249,-31 249,-1 99,-1"/>
<text text-anchor="start" x="107" y="-19" font-family="Helvetica,sans-Serif" font-size="10.00">authoring.concretefeatures.</text>
<text text-anchor="middle" x="174" y="-8" font-family="Helvetica,sans-Serif" font-size="10.00">ReceiverEditor</text>
</g>
<!-- Node2 -->
<g id="node2" class="node"><title>Node2</title>
<g id="a_node2"><a xlink:href="../../d4/d2e/classauthoring_1_1abstractfeatures_1_1_popup_window.html" target="_top" xlink:title="authoring.abstractfeatures.\lPopupWindow">
<polygon fill="white" stroke="black" points="0,-81 0,-111 148,-111 148,-81 0,-81"/>
<text text-anchor="start" x="8" y="-99" font-family="Helvetica,sans-Serif" font-size="10.00">authoring.abstractfeatures.</text>
<text text-anchor="middle" x="74" y="-88" font-family="Helvetica,sans-Serif" font-size="10.00">PopupWindow</text>
</a>
</g>
</g>
<!-- Node2&#45;&gt;Node1 -->
<g id="edge1" class="edge"><title>Node2&#45;&gt;Node1</title>
<path fill="none" stroke="midnightblue" d="M100.456,-74.3645C117.902,-60.7566 140.303,-43.2833 155.775,-31.2157"/>
<polygon fill="midnightblue" stroke="midnightblue" points="98.074,-71.7835 92.3415,-80.6936 102.379,-77.303 98.074,-71.7835"/>
</g>
<!-- Node3 -->
<g id="node3" class="node"><title>Node3</title>
<polygon fill="white" stroke="#bfbfbf" points="51.5,-150.5 51.5,-169.5 96.5,-169.5 96.5,-150.5 51.5,-150.5"/>
<text text-anchor="middle" x="74" y="-157.5" font-family="Helvetica,sans-Serif" font-size="10.00">Stage</text>
</g>
<!-- Node3&#45;&gt;Node2 -->
<g id="edge2" class="edge"><title>Node3&#45;&gt;Node2</title>
<path fill="none" stroke="midnightblue" d="M74,-140.183C74,-130.886 74,-119.851 74,-111.263"/>
<polygon fill="midnightblue" stroke="midnightblue" points="70.5001,-140.379 74,-150.379 77.5001,-140.379 70.5001,-140.379"/>
</g>
<!-- Node4 -->
<g id="node4" class="node"><title>Node4</title>
<polygon fill="white" stroke="#bfbfbf" points="166,-86.5 166,-105.5 250,-105.5 250,-86.5 166,-86.5"/>
<text text-anchor="middle" x="208" y="-93.5" font-family="Helvetica,sans-Serif" font-size="10.00">List&lt; String &gt;</text>
</g>
<!-- Node4&#45;&gt;Node1 -->
<g id="edge3" class="edge"><title>Node4&#45;&gt;Node1</title>
<path fill="none" stroke="#9a32cd" stroke-dasharray="5,2" d="M200.104,-76.8856C194.043,-62.9816 185.793,-44.054 180.202,-31.227"/>
<polygon fill="#9a32cd" stroke="#9a32cd" points="197.027,-78.5862 204.231,-86.3546 203.444,-75.7891 197.027,-78.5862"/>
<text text-anchor="middle" x="217.5" y="-53.5" font-family="Helvetica,sans-Serif" font-size="10.00"> myPieces</text>
</g>
</g>
</svg>
