<?xml version="1.0" encoding="UTF-8" standalone="no"?>
<!DOCTYPE svg PUBLIC "-//W3C//DTD SVG 1.1//EN"
 "http://www.w3.org/Graphics/SVG/1.1/DTD/svg11.dtd">
<!-- Generated by graphviz version 2.36.0 (20140111.2315)
 -->
<!-- Title: gamedata.gamecomponents.GridComponent.setImageLocation Pages: 1 -->
<svg width="868pt" height="87pt"
 viewBox="0.00 0.00 868.00 87.00" xmlns="http://www.w3.org/2000/svg" xmlns:xlink="http://www.w3.org/1999/xlink">
<g id="graph0" class="graph" transform="scale(1 1) rotate(0) translate(4 83)">
<title>gamedata.gamecomponents.GridComponent.setImageLocation</title>
<polygon fill="white" stroke="none" points="-4,4 -4,-83 864,-83 864,4 -4,4"/>
<!-- Node1 -->
<g id="node1" class="node"><title>Node1</title>
<polygon fill="#bfbfbf" stroke="black" points="0.5,-24 0.5,-54 181.5,-54 181.5,-24 0.5,-24"/>
<text text-anchor="start" x="8.5" y="-42" font-family="Helvetica,sans-Serif" font-size="10.00">gamedata.gamecomponents.</text>
<text text-anchor="middle" x="91" y="-31" font-family="Helvetica,sans-Serif" font-size="10.00">GridComponent.setImageLocation</text>
</g>
<!-- Node2 -->
<g id="node2" class="node"><title>Node2</title>
<g id="a_node2"><a xlink:href="../../d7/dd4/classauthoring_1_1data_1_1_patch_instance_data.html#af4709ab2b1fb90846ae8d56fa277496b" target="_top" xlink:title="authoring.data.PatchInstance\lData.replace">
<polygon fill="white" stroke="black" points="218.5,-24 218.5,-54 375.5,-54 375.5,-24 218.5,-24"/>
<text text-anchor="start" x="226.5" y="-42" font-family="Helvetica,sans-Serif" font-size="10.00">authoring.data.PatchInstance</text>
<text text-anchor="middle" x="297" y="-31" font-family="Helvetica,sans-Serif" font-size="10.00">Data.replace</text>
</a>
</g>
</g>
<!-- Node1&#45;&gt;Node2 -->
<g id="edge1" class="edge"><title>Node1&#45;&gt;Node2</title>
<path fill="none" stroke="midnightblue" d="M191.809,-39C200.718,-39 209.65,-39 218.332,-39"/>
<polygon fill="midnightblue" stroke="midnightblue" points="191.774,-35.5001 181.774,-39 191.774,-42.5001 191.774,-35.5001"/>
</g>
<!-- Node3 -->
<g id="node3" class="node"><title>Node3</title>
<g id="a_node3"><a xlink:href="../../d7/dd4/classauthoring_1_1data_1_1_patch_instance_data.html#aa4da6c694f1ce08740a61884498439b0" target="_top" xlink:title="authoring.data.PatchInstance\lData.replace">
<polygon fill="white" stroke="black" points="436.5,-49 436.5,-79 593.5,-79 593.5,-49 436.5,-49"/>
<text text-anchor="start" x="444.5" y="-67" font-family="Helvetica,sans-Serif" font-size="10.00">authoring.data.PatchInstance</text>
<text text-anchor="middle" x="515" y="-56" font-family="Helvetica,sans-Serif" font-size="10.00">Data.replace</text>
</a>
</g>
</g>
<!-- Node2&#45;&gt;Node3 -->
<g id="edge2" class="edge"><title>Node2&#45;&gt;Node3</title>
<path fill="none" stroke="midnightblue" d="M385.956,-49.1801C402.628,-51.1097 419.96,-53.1158 436.288,-55.0055"/>
<polygon fill="midnightblue" stroke="midnightblue" points="386.012,-45.6633 375.676,-47.9903 385.207,-52.6169 386.012,-45.6633"/>
</g>
<!-- Node4 -->
<g id="node4" class="node"><title>Node4</title>
<g id="a_node4"><a xlink:href="../../da/d4c/classauthoring__environment_1_1_g_u_i_grid.html#a952391a274a83f5eee0044d7e5be3673" target="_top" xlink:title="authoring_environment.GUIGrid.replace\lPatchType">
<polygon fill="white" stroke="black" points="412,-0 412,-30 618,-30 618,-0 412,-0"/>
<text text-anchor="start" x="420" y="-18" font-family="Helvetica,sans-Serif" font-size="10.00">authoring_environment.GUIGrid.replace</text>
<text text-anchor="middle" x="515" y="-7" font-family="Helvetica,sans-Serif" font-size="10.00">PatchType</text>
</a>
</g>
</g>
<!-- Node2&#45;&gt;Node4 -->
<g id="edge3" class="edge"><title>Node2&#45;&gt;Node4</title>
<path fill="none" stroke="midnightblue" d="M385.684,-29.2573C394.291,-28.301 403.077,-27.3248 411.812,-26.3542"/>
<polygon fill="midnightblue" stroke="midnightblue" points="385.228,-25.7864 375.676,-30.3694 386.001,-32.7435 385.228,-25.7864"/>
</g>
<!-- Node5 -->
<g id="node5" class="node"><title>Node5</title>
<g id="a_node5"><a xlink:href="../../da/d4c/classauthoring__environment_1_1_g_u_i_grid.html#a89d8eeee5ec72e145a2c60735013581e" target="_top" xlink:title="authoring_environment.GUIGrid.update">
<polygon fill="white" stroke="black" points="654.5,-5.5 654.5,-24.5 859.5,-24.5 859.5,-5.5 654.5,-5.5"/>
<text text-anchor="middle" x="757" y="-12.5" font-family="Helvetica,sans-Serif" font-size="10.00">authoring_environment.GUIGrid.update</text>
</a>
</g>
</g>
<!-- Node4&#45;&gt;Node5 -->
<g id="edge4" class="edge"><title>Node4&#45;&gt;Node5</title>
<path fill="none" stroke="midnightblue" d="M628.295,-15C636.985,-15 645.73,-15 654.345,-15"/>
<polygon fill="midnightblue" stroke="midnightblue" points="628.13,-11.5001 618.13,-15 628.13,-18.5001 628.13,-11.5001"/>
</g>
</g>
</svg>
