<?xml version="1.0" encoding="UTF-8" standalone="no"?>
<!DOCTYPE svg PUBLIC "-//W3C//DTD SVG 1.1//EN"
 "http://www.w3.org/Graphics/SVG/1.1/DTD/svg11.dtd">
<!-- Generated by graphviz version 2.36.0 (20140111.2315)
 -->
<!-- Title: gamedata.gamecomponents.GridComponent.getName Pages: 1 -->
<svg width="376pt" height="283pt"
 viewBox="0.00 0.00 376.00 283.00" xmlns="http://www.w3.org/2000/svg" xmlns:xlink="http://www.w3.org/1999/xlink">
<g id="graph0" class="graph" transform="scale(1 1) rotate(0) translate(4 279)">
<title>gamedata.gamecomponents.GridComponent.getName</title>
<polygon fill="white" stroke="none" points="-4,4 -4,-279 372,-279 372,4 -4,4"/>
<!-- Node1 -->
<g id="node1" class="node"><title>Node1</title>
<polygon fill="#bfbfbf" stroke="black" points="0,-122 0,-152 160,-152 160,-122 0,-122"/>
<text text-anchor="start" x="8" y="-140" font-family="Helvetica,sans-Serif" font-size="10.00">gamedata.gamecomponents.</text>
<text text-anchor="middle" x="80" y="-129" font-family="Helvetica,sans-Serif" font-size="10.00">GridComponent.getName</text>
</g>
<!-- Node2 -->
<g id="node2" class="node"><title>Node2</title>
<g id="a_node2"><a xlink:href="../../d4/d3f/classfxml__main_1_1_patch_controller.html#a806919701c76bb361bf89e0815a76a96" target="_top" xlink:title="fxml_main.PatchController.make\lEntryBox">
<polygon fill="white" stroke="black" points="196.5,-245 196.5,-275 367.5,-275 367.5,-245 196.5,-245"/>
<text text-anchor="start" x="204.5" y="-263" font-family="Helvetica,sans-Serif" font-size="10.00">fxml_main.PatchController.make</text>
<text text-anchor="middle" x="282" y="-252" font-family="Helvetica,sans-Serif" font-size="10.00">EntryBox</text>
</a>
</g>
</g>
<!-- Node1&#45;&gt;Node2 -->
<g id="edge1" class="edge"><title>Node1&#45;&gt;Node2</title>
<path fill="none" stroke="midnightblue" d="M101.764,-159.532C123.338,-181.69 159.058,-215.014 196,-235 203.035,-238.806 210.719,-242.097 218.499,-244.926"/>
<polygon fill="midnightblue" stroke="midnightblue" points="104.189,-157.003 94.7447,-152.201 99.1324,-161.844 104.189,-157.003"/>
</g>
<!-- Node3 -->
<g id="node3" class="node"><title>Node3</title>
<g id="a_node3"><a xlink:href="../../dc/d77/classfxml__main_1_1_piece_controller.html#a57d25cb33125e10494c536f9fbce1434" target="_top" xlink:title="fxml_main.PieceController.make\lEntryBox">
<polygon fill="white" stroke="black" points="197,-196 197,-226 367,-226 367,-196 197,-196"/>
<text text-anchor="start" x="205" y="-214" font-family="Helvetica,sans-Serif" font-size="10.00">fxml_main.PieceController.make</text>
<text text-anchor="middle" x="282" y="-203" font-family="Helvetica,sans-Serif" font-size="10.00">EntryBox</text>
</a>
</g>
</g>
<!-- Node1&#45;&gt;Node3 -->
<g id="edge2" class="edge"><title>Node1&#45;&gt;Node3</title>
<path fill="none" stroke="midnightblue" d="M123.015,-156.298C144.592,-165.851 171.444,-177.191 196,-186 205.701,-189.48 216.146,-192.851 226.281,-195.931"/>
<polygon fill="midnightblue" stroke="midnightblue" points="124.366,-153.068 113.807,-152.189 121.513,-159.461 124.366,-153.068"/>
</g>
<!-- Node4 -->
<g id="node4" class="node"><title>Node4</title>
<g id="a_node4"><a xlink:href="../../da/dc9/classfxml__main_1_1_patch_type_editor.html#a8415ba9efdc335142c46073dcb2330fb" target="_top" xlink:title="fxml_main.PatchTypeEditor.\lPatchTypeEditor">
<polygon fill="white" stroke="black" points="209,-147 209,-177 355,-177 355,-147 209,-147"/>
<text text-anchor="start" x="217" y="-165" font-family="Helvetica,sans-Serif" font-size="10.00">fxml_main.PatchTypeEditor.</text>
<text text-anchor="middle" x="282" y="-154" font-family="Helvetica,sans-Serif" font-size="10.00">PatchTypeEditor</text>
</a>
</g>
</g>
<!-- Node1&#45;&gt;Node4 -->
<g id="edge3" class="edge"><title>Node1&#45;&gt;Node4</title>
<path fill="none" stroke="midnightblue" d="M170.286,-148.161C183.14,-149.768 196.234,-151.404 208.703,-152.963"/>
<polygon fill="midnightblue" stroke="midnightblue" points="170.402,-144.648 160.045,-146.881 169.534,-151.594 170.402,-144.648"/>
</g>
<!-- Node5 -->
<g id="node5" class="node"><title>Node5</title>
<g id="a_node5"><a xlink:href="../../df/d59/classfxml__main_1_1_patch_viewer.html#a621ed91e1508b5f96c0b00bed71073aa" target="_top" xlink:title="fxml_main.PatchViewer.Patch\lViewer">
<polygon fill="white" stroke="black" points="204.5,-98 204.5,-128 359.5,-128 359.5,-98 204.5,-98"/>
<text text-anchor="start" x="212.5" y="-116" font-family="Helvetica,sans-Serif" font-size="10.00">fxml_main.PatchViewer.Patch</text>
<text text-anchor="middle" x="282" y="-105" font-family="Helvetica,sans-Serif" font-size="10.00">Viewer</text>
</a>
</g>
</g>
<!-- Node1&#45;&gt;Node5 -->
<g id="edge4" class="edge"><title>Node1&#45;&gt;Node5</title>
<path fill="none" stroke="midnightblue" d="M170.071,-126.312C181.554,-124.934 193.231,-123.532 204.488,-122.181"/>
<polygon fill="midnightblue" stroke="midnightblue" points="169.557,-122.848 160.045,-127.515 170.391,-129.798 169.557,-122.848"/>
</g>
<!-- Node6 -->
<g id="node6" class="node"><title>Node6</title>
<g id="a_node6"><a xlink:href="../../df/dbd/classfxml__main_1_1_piece_editor.html#a33603f4cca25fedefefd2108dbe75163" target="_top" xlink:title="fxml_main.PieceEditor.Piece\lEditor">
<polygon fill="white" stroke="black" points="207,-49 207,-79 357,-79 357,-49 207,-49"/>
<text text-anchor="start" x="215" y="-67" font-family="Helvetica,sans-Serif" font-size="10.00">fxml_main.PieceEditor.Piece</text>
<text text-anchor="middle" x="282" y="-56" font-family="Helvetica,sans-Serif" font-size="10.00">Editor</text>
</a>
</g>
</g>
<!-- Node1&#45;&gt;Node6 -->
<g id="edge5" class="edge"><title>Node1&#45;&gt;Node6</title>
<path fill="none" stroke="midnightblue" d="M123.523,-117.944C145.028,-108.643 171.666,-97.628 196,-89 205.713,-85.556 216.165,-82.2023 226.302,-79.1276"/>
<polygon fill="midnightblue" stroke="midnightblue" points="122.105,-114.744 114.337,-121.948 124.902,-121.161 122.105,-114.744"/>
</g>
<!-- Node7 -->
<g id="node7" class="node"><title>Node7</title>
<g id="a_node7"><a xlink:href="../../d9/d15/classfxml__main_1_1_piece_type_editor.html#af2eefe9bd07a346d48960d99fae7511d" target="_top" xlink:title="fxml_main.PieceTypeEditor.\lPieceTypeEditor">
<polygon fill="white" stroke="black" points="209,-0 209,-30 355,-30 355,-0 209,-0"/>
<text text-anchor="start" x="217" y="-18" font-family="Helvetica,sans-Serif" font-size="10.00">fxml_main.PieceTypeEditor.</text>
<text text-anchor="middle" x="282" y="-7" font-family="Helvetica,sans-Serif" font-size="10.00">PieceTypeEditor</text>
</a>
</g>
</g>
<!-- Node1&#45;&gt;Node7 -->
<g id="edge6" class="edge"><title>Node1&#45;&gt;Node7</title>
<path fill="none" stroke="midnightblue" d="M101.81,-114.708C123.419,-92.7845 159.166,-59.807 196,-40 203.045,-36.2118 210.735,-32.9311 218.517,-30.108"/>
<polygon fill="midnightblue" stroke="midnightblue" points="99.2251,-112.346 94.7774,-121.962 104.251,-117.218 99.2251,-112.346"/>
</g>
</g>
</svg>
