<?xml version="1.0" encoding="UTF-8" standalone="no"?>
<!DOCTYPE svg PUBLIC "-//W3C//DTD SVG 1.1//EN"
 "http://www.w3.org/Graphics/SVG/1.1/DTD/svg11.dtd">
<!-- Generated by graphviz version 2.36.0 (20140111.2315)
 -->
<!-- Title: gamedata.gamecomponents.GridComponent.setLoc Pages: 1 -->
<svg width="406pt" height="185pt"
 viewBox="0.00 0.00 406.00 185.00" xmlns="http://www.w3.org/2000/svg" xmlns:xlink="http://www.w3.org/1999/xlink">
<g id="graph0" class="graph" transform="scale(1 1) rotate(0) translate(4 181)">
<title>gamedata.gamecomponents.GridComponent.setLoc</title>
<polygon fill="white" stroke="none" points="-4,4 -4,-181 402,-181 402,4 -4,4"/>
<!-- Node1 -->
<g id="node1" class="node"><title>Node1</title>
<polygon fill="#bfbfbf" stroke="black" points="0,-73 0,-103 160,-103 160,-73 0,-73"/>
<text text-anchor="start" x="8" y="-91" font-family="Helvetica,sans-Serif" font-size="10.00">gamedata.gamecomponents.</text>
<text text-anchor="middle" x="80" y="-80" font-family="Helvetica,sans-Serif" font-size="10.00">GridComponent.setLoc</text>
</g>
<!-- Node2 -->
<g id="node2" class="node"><title>Node2</title>
<g id="a_node2"><a xlink:href="../../d1/d4e/classauthoring__environment_1_1_shape_grid.html#aac40787167cbdb19177826ae890ee8e1" target="_top" xlink:title="authoring_environment.Shape\lGrid.addTerrain">
<polygon fill="white" stroke="black" points="216,-147 216,-177 378,-177 378,-147 216,-147"/>
<text text-anchor="start" x="224" y="-165" font-family="Helvetica,sans-Serif" font-size="10.00">authoring_environment.Shape</text>
<text text-anchor="middle" x="297" y="-154" font-family="Helvetica,sans-Serif" font-size="10.00">Grid.addTerrain</text>
</a>
</g>
</g>
<!-- Node1&#45;&gt;Node2 -->
<g id="edge1" class="edge"><title>Node1&#45;&gt;Node2</title>
<path fill="none" stroke="midnightblue" d="M121.934,-107.307C143.627,-117.059 170.91,-128.577 196,-137 206.773,-140.616 218.354,-143.977 229.68,-146.986"/>
<polygon fill="midnightblue" stroke="midnightblue" points="123.248,-104.059 112.696,-103.109 120.352,-110.432 123.248,-104.059"/>
</g>
<!-- Node3 -->
<g id="node3" class="node"><title>Node3</title>
<g id="a_node3"><a xlink:href="../../d1/d4e/classauthoring__environment_1_1_shape_grid.html#aace6e6745e4866e0f7956f0cfe25ca3d" target="_top" xlink:title="authoring_environment.Shape\lGrid.addUnit">
<polygon fill="white" stroke="black" points="216,-98 216,-128 378,-128 378,-98 216,-98"/>
<text text-anchor="start" x="224" y="-116" font-family="Helvetica,sans-Serif" font-size="10.00">authoring_environment.Shape</text>
<text text-anchor="middle" x="297" y="-105" font-family="Helvetica,sans-Serif" font-size="10.00">Grid.addUnit</text>
</a>
</g>
</g>
<!-- Node1&#45;&gt;Node3 -->
<g id="edge2" class="edge"><title>Node1&#45;&gt;Node3</title>
<path fill="none" stroke="midnightblue" d="M170.487,-98.4055C185.565,-100.159 201.129,-101.968 215.947,-103.691"/>
<polygon fill="midnightblue" stroke="midnightblue" points="170.479,-94.8811 160.142,-97.2026 169.671,-101.834 170.479,-94.8811"/>
</g>
<!-- Node4 -->
<g id="node4" class="node"><title>Node4</title>
<g id="a_node4"><a xlink:href="../../d0/d47/classgameengine_1_1movement_1_1_movement.html#a8ea733019f1f434af7d41aa4b91bd533" target="_top" xlink:title="gameengine.movement.Movement.do\lBehavior">
<polygon fill="white" stroke="black" points="196.5,-49 196.5,-79 397.5,-79 397.5,-49 196.5,-49"/>
<text text-anchor="start" x="204.5" y="-67" font-family="Helvetica,sans-Serif" font-size="10.00">gameengine.movement.Movement.do</text>
<text text-anchor="middle" x="297" y="-56" font-family="Helvetica,sans-Serif" font-size="10.00">Behavior</text>
</a>
</g>
</g>
<!-- Node1&#45;&gt;Node4 -->
<g id="edge3" class="edge"><title>Node1&#45;&gt;Node4</title>
<path fill="none" stroke="midnightblue" d="M170.144,-78.049C178.739,-77.0896 187.495,-76.1121 196.184,-75.1422"/>
<polygon fill="midnightblue" stroke="midnightblue" points="169.692,-74.5777 160.142,-79.1655 170.469,-81.5345 169.692,-74.5777"/>
</g>
<!-- Node5 -->
<g id="node5" class="node"><title>Node5</title>
<g id="a_node5"><a xlink:href="../../db/d00/classgame_player_1_1_apply_state.html#aed42c1aba25264bc6880036f693a1c9e" target="_top" xlink:title="gamePlayer.ApplyState.on\lClick">
<polygon fill="white" stroke="black" points="225.5,-0 225.5,-30 368.5,-30 368.5,-0 225.5,-0"/>
<text text-anchor="start" x="233.5" y="-18" font-family="Helvetica,sans-Serif" font-size="10.00">gamePlayer.ApplyState.on</text>
<text text-anchor="middle" x="297" y="-7" font-family="Helvetica,sans-Serif" font-size="10.00">Click</text>
</a>
</g>
</g>
<!-- Node1&#45;&gt;Node5 -->
<g id="edge4" class="edge"><title>Node1&#45;&gt;Node5</title>
<path fill="none" stroke="midnightblue" d="M122.906,-68.7213C144.455,-59.2679 171.315,-48.1858 196,-40 206.871,-36.3951 218.556,-33.0302 229.97,-30.0106"/>
<polygon fill="midnightblue" stroke="midnightblue" points="121.437,-65.5442 113.713,-72.7964 124.273,-71.9437 121.437,-65.5442"/>
</g>
</g>
</svg>
