<?xml version="1.0" encoding="UTF-8" standalone="no"?>
<!DOCTYPE svg PUBLIC "-//W3C//DTD SVG 1.1//EN"
 "http://www.w3.org/Graphics/SVG/1.1/DTD/svg11.dtd">
<!-- Generated by graphviz version 2.36.0 (20140111.2315)
 -->
<!-- Title: gamedata.gamecomponents.GridComponent.getImageLocation Pages: 1 -->
<svg width="868pt" height="258pt"
 viewBox="0.00 0.00 868.00 258.00" xmlns="http://www.w3.org/2000/svg" xmlns:xlink="http://www.w3.org/1999/xlink">
<g id="graph0" class="graph" transform="scale(1 1) rotate(0) translate(4 254)">
<title>gamedata.gamecomponents.GridComponent.getImageLocation</title>
<polygon fill="white" stroke="none" points="-4,4 -4,-254 864,-254 864,4 -4,4"/>
<!-- Node1 -->
<g id="node1" class="node"><title>Node1</title>
<polygon fill="#bfbfbf" stroke="black" points="0,-122 0,-152 182,-152 182,-122 0,-122"/>
<text text-anchor="start" x="8" y="-140" font-family="Helvetica,sans-Serif" font-size="10.00">gamedata.gamecomponents.</text>
<text text-anchor="middle" x="91" y="-129" font-family="Helvetica,sans-Serif" font-size="10.00">GridComponent.getImageLocation</text>
</g>
<!-- Node2 -->
<g id="node2" class="node"><title>Node2</title>
<g id="a_node2"><a xlink:href="../../da/dc9/classfxml__main_1_1_patch_type_editor.html#a8415ba9efdc335142c46073dcb2330fb" target="_top" xlink:title="fxml_main.PatchTypeEditor.\lPatchTypeEditor">
<polygon fill="white" stroke="black" points="224,-220 224,-250 370,-250 370,-220 224,-220"/>
<text text-anchor="start" x="232" y="-238" font-family="Helvetica,sans-Serif" font-size="10.00">fxml_main.PatchTypeEditor.</text>
<text text-anchor="middle" x="297" y="-227" font-family="Helvetica,sans-Serif" font-size="10.00">PatchTypeEditor</text>
</a>
</g>
</g>
<!-- Node1&#45;&gt;Node2 -->
<g id="edge1" class="edge"><title>Node1&#45;&gt;Node2</title>
<path fill="none" stroke="midnightblue" d="M123.536,-157.829C148.435,-173.636 184.453,-195.114 218,-210 226.189,-213.634 235.071,-216.993 243.809,-219.993"/>
<polygon fill="midnightblue" stroke="midnightblue" points="125.198,-154.737 114.891,-152.285 121.42,-160.63 125.198,-154.737"/>
</g>
<!-- Node3 -->
<g id="node3" class="node"><title>Node3</title>
<g id="a_node3"><a xlink:href="../../df/d59/classfxml__main_1_1_patch_viewer.html#a621ed91e1508b5f96c0b00bed71073aa" target="_top" xlink:title="fxml_main.PatchViewer.Patch\lViewer">
<polygon fill="white" stroke="black" points="219.5,-171 219.5,-201 374.5,-201 374.5,-171 219.5,-171"/>
<text text-anchor="start" x="227.5" y="-189" font-family="Helvetica,sans-Serif" font-size="10.00">fxml_main.PatchViewer.Patch</text>
<text text-anchor="middle" x="297" y="-178" font-family="Helvetica,sans-Serif" font-size="10.00">Viewer</text>
</a>
</g>
</g>
<!-- Node1&#45;&gt;Node3 -->
<g id="edge2" class="edge"><title>Node1&#45;&gt;Node3</title>
<path fill="none" stroke="midnightblue" d="M164.457,-154.404C187.024,-159.824 211.702,-165.752 233.525,-170.994"/>
<polygon fill="midnightblue" stroke="midnightblue" points="165.134,-150.967 154.593,-152.035 163.499,-157.773 165.134,-150.967"/>
</g>
<!-- Node4 -->
<g id="node4" class="node"><title>Node4</title>
<g id="a_node4"><a xlink:href="../../df/dbd/classfxml__main_1_1_piece_editor.html#a33603f4cca25fedefefd2108dbe75163" target="_top" xlink:title="fxml_main.PieceEditor.Piece\lEditor">
<polygon fill="white" stroke="black" points="222,-122 222,-152 372,-152 372,-122 222,-122"/>
<text text-anchor="start" x="230" y="-140" font-family="Helvetica,sans-Serif" font-size="10.00">fxml_main.PieceEditor.Piece</text>
<text text-anchor="middle" x="297" y="-129" font-family="Helvetica,sans-Serif" font-size="10.00">Editor</text>
</a>
</g>
</g>
<!-- Node1&#45;&gt;Node4 -->
<g id="edge3" class="edge"><title>Node1&#45;&gt;Node4</title>
<path fill="none" stroke="midnightblue" d="M192.115,-137C202.181,-137 212.272,-137 221.995,-137"/>
<polygon fill="midnightblue" stroke="midnightblue" points="192.071,-133.5 182.071,-137 192.071,-140.5 192.071,-133.5"/>
</g>
<!-- Node5 -->
<g id="node5" class="node"><title>Node5</title>
<g id="a_node5"><a xlink:href="../../d9/d15/classfxml__main_1_1_piece_type_editor.html#af2eefe9bd07a346d48960d99fae7511d" target="_top" xlink:title="fxml_main.PieceTypeEditor.\lPieceTypeEditor">
<polygon fill="white" stroke="black" points="224,-73 224,-103 370,-103 370,-73 224,-73"/>
<text text-anchor="start" x="232" y="-91" font-family="Helvetica,sans-Serif" font-size="10.00">fxml_main.PieceTypeEditor.</text>
<text text-anchor="middle" x="297" y="-80" font-family="Helvetica,sans-Serif" font-size="10.00">PieceTypeEditor</text>
</a>
</g>
</g>
<!-- Node1&#45;&gt;Node5 -->
<g id="edge4" class="edge"><title>Node1&#45;&gt;Node5</title>
<path fill="none" stroke="midnightblue" d="M164.457,-119.596C187.024,-114.176 211.702,-108.248 233.525,-103.006"/>
<polygon fill="midnightblue" stroke="midnightblue" points="163.499,-116.227 154.593,-121.965 165.134,-123.033 163.499,-116.227"/>
</g>
<!-- Node6 -->
<g id="node6" class="node"><title>Node6</title>
<g id="a_node6"><a xlink:href="../../d7/dd4/classauthoring_1_1data_1_1_patch_instance_data.html#af4709ab2b1fb90846ae8d56fa277496b" target="_top" xlink:title="authoring.data.PatchInstance\lData.replace">
<polygon fill="white" stroke="black" points="218.5,-24 218.5,-54 375.5,-54 375.5,-24 218.5,-24"/>
<text text-anchor="start" x="226.5" y="-42" font-family="Helvetica,sans-Serif" font-size="10.00">authoring.data.PatchInstance</text>
<text text-anchor="middle" x="297" y="-31" font-family="Helvetica,sans-Serif" font-size="10.00">Data.replace</text>
</a>
</g>
</g>
<!-- Node1&#45;&gt;Node6 -->
<g id="edge5" class="edge"><title>Node1&#45;&gt;Node6</title>
<path fill="none" stroke="midnightblue" d="M123.536,-116.171C148.435,-100.364 184.453,-78.8861 218,-64 226.189,-60.3663 235.071,-57.007 243.809,-54.0071"/>
<polygon fill="midnightblue" stroke="midnightblue" points="121.42,-113.37 114.891,-121.715 125.198,-119.263 121.42,-113.37"/>
</g>
<!-- Node7 -->
<g id="node7" class="node"><title>Node7</title>
<g id="a_node7"><a xlink:href="../../d7/dd4/classauthoring_1_1data_1_1_patch_instance_data.html#aa4da6c694f1ce08740a61884498439b0" target="_top" xlink:title="authoring.data.PatchInstance\lData.replace">
<polygon fill="white" stroke="black" points="436.5,-49 436.5,-79 593.5,-79 593.5,-49 436.5,-49"/>
<text text-anchor="start" x="444.5" y="-67" font-family="Helvetica,sans-Serif" font-size="10.00">authoring.data.PatchInstance</text>
<text text-anchor="middle" x="515" y="-56" font-family="Helvetica,sans-Serif" font-size="10.00">Data.replace</text>
</a>
</g>
</g>
<!-- Node6&#45;&gt;Node7 -->
<g id="edge6" class="edge"><title>Node6&#45;&gt;Node7</title>
<path fill="none" stroke="midnightblue" d="M385.956,-49.1801C402.628,-51.1097 419.96,-53.1158 436.288,-55.0055"/>
<polygon fill="midnightblue" stroke="midnightblue" points="386.012,-45.6633 375.676,-47.9903 385.207,-52.6169 386.012,-45.6633"/>
</g>
<!-- Node8 -->
<g id="node8" class="node"><title>Node8</title>
<g id="a_node8"><a xlink:href="../../da/d4c/classauthoring__environment_1_1_g_u_i_grid.html#a952391a274a83f5eee0044d7e5be3673" target="_top" xlink:title="authoring_environment.GUIGrid.replace\lPatchType">
<polygon fill="white" stroke="black" points="412,-0 412,-30 618,-30 618,-0 412,-0"/>
<text text-anchor="start" x="420" y="-18" font-family="Helvetica,sans-Serif" font-size="10.00">authoring_environment.GUIGrid.replace</text>
<text text-anchor="middle" x="515" y="-7" font-family="Helvetica,sans-Serif" font-size="10.00">PatchType</text>
</a>
</g>
</g>
<!-- Node6&#45;&gt;Node8 -->
<g id="edge7" class="edge"><title>Node6&#45;&gt;Node8</title>
<path fill="none" stroke="midnightblue" d="M385.684,-29.2573C394.291,-28.301 403.077,-27.3248 411.812,-26.3542"/>
<polygon fill="midnightblue" stroke="midnightblue" points="385.228,-25.7864 375.676,-30.3694 386.001,-32.7435 385.228,-25.7864"/>
</g>
<!-- Node9 -->
<g id="node9" class="node"><title>Node9</title>
<g id="a_node9"><a xlink:href="../../da/d4c/classauthoring__environment_1_1_g_u_i_grid.html#a89d8eeee5ec72e145a2c60735013581e" target="_top" xlink:title="authoring_environment.GUIGrid.update">
<polygon fill="white" stroke="black" points="654.5,-5.5 654.5,-24.5 859.5,-24.5 859.5,-5.5 654.5,-5.5"/>
<text text-anchor="middle" x="757" y="-12.5" font-family="Helvetica,sans-Serif" font-size="10.00">authoring_environment.GUIGrid.update</text>
</a>
</g>
</g>
<!-- Node8&#45;&gt;Node9 -->
<g id="edge8" class="edge"><title>Node8&#45;&gt;Node9</title>
<path fill="none" stroke="midnightblue" d="M628.295,-15C636.985,-15 645.73,-15 654.345,-15"/>
<polygon fill="midnightblue" stroke="midnightblue" points="628.13,-11.5001 618.13,-15 628.13,-18.5001 628.13,-11.5001"/>
</g>
</g>
</svg>
