<?xml version="1.0" encoding="UTF-8" standalone="no"?>
<!DOCTYPE svg PUBLIC "-//W3C//DTD SVG 1.1//EN"
 "http://www.w3.org/Graphics/SVG/1.1/DTD/svg11.dtd">
<!-- Generated by graphviz version 2.36.0 (20140111.2315)
 -->
<!-- Title: fxml_main.ActionViewer.ActionViewer Pages: 1 -->
<svg width="606pt" height="175pt"
 viewBox="0.00 0.00 606.00 175.00" xmlns="http://www.w3.org/2000/svg" xmlns:xlink="http://www.w3.org/1999/xlink">
<g id="graph0" class="graph" transform="scale(1 1) rotate(0) translate(4 171)">
<title>fxml_main.ActionViewer.ActionViewer</title>
<polygon fill="white" stroke="none" points="-4,4 -4,-171 602,-171 602,4 -4,4"/>
<!-- Node1 -->
<g id="node1" class="node"><title>Node1</title>
<polygon fill="#bfbfbf" stroke="black" points="0.5,-66 0.5,-96 163.5,-96 163.5,-66 0.5,-66"/>
<text text-anchor="start" x="8.5" y="-84" font-family="Helvetica,sans-Serif" font-size="10.00">fxml_main.ActionViewer.Action</text>
<text text-anchor="middle" x="82" y="-73" font-family="Helvetica,sans-Serif" font-size="10.00">Viewer</text>
</g>
<!-- Node2 -->
<g id="node2" class="node"><title>Node2</title>
<g id="a_node2"><a xlink:href="../../d8/d85/interfacegamedata_1_1action_1_1_action.html#ab8978be916a12ab9ec3c0eea6d227ba3" target="_top" xlink:title="gamedata.action.Action.get\lActionRange">
<polygon fill="white" stroke="black" points="211,-137 211,-167 361,-167 361,-137 211,-137"/>
<text text-anchor="start" x="219" y="-155" font-family="Helvetica,sans-Serif" font-size="10.00">gamedata.action.Action.get</text>
<text text-anchor="middle" x="286" y="-144" font-family="Helvetica,sans-Serif" font-size="10.00">ActionRange</text>
</a>
</g>
</g>
<!-- Node1&#45;&gt;Node2 -->
<g id="edge1" class="edge"><title>Node1&#45;&gt;Node2</title>
<path fill="none" stroke="midnightblue" d="M118.798,-96.0264C141.804,-105.446 172.438,-117.549 200,-127 206.902,-129.367 214.165,-131.715 221.418,-133.97"/>
<polygon fill="midnightblue" stroke="midnightblue" points="220.681,-137.404 231.267,-136.98 222.727,-130.71 220.681,-137.404"/>
</g>
<!-- Node3 -->
<g id="node3" class="node"><title>Node3</title>
<g id="a_node3"><a xlink:href="../../d8/d85/interfacegamedata_1_1action_1_1_action.html#ad3c6dcdc4b4816df2d687efc880d7469" target="_top" xlink:title="gamedata.action.Action.get\lEffectRange">
<polygon fill="white" stroke="black" points="211,-88 211,-118 361,-118 361,-88 211,-88"/>
<text text-anchor="start" x="219" y="-106" font-family="Helvetica,sans-Serif" font-size="10.00">gamedata.action.Action.get</text>
<text text-anchor="middle" x="286" y="-95" font-family="Helvetica,sans-Serif" font-size="10.00">EffectRange</text>
</a>
</g>
</g>
<!-- Node1&#45;&gt;Node3 -->
<g id="edge2" class="edge"><title>Node1&#45;&gt;Node3</title>
<path fill="none" stroke="midnightblue" d="M163.707,-89.7898C175.898,-91.1176 188.5,-92.4901 200.764,-93.8258"/>
<polygon fill="midnightblue" stroke="midnightblue" points="200.649,-97.3338 210.969,-94.9372 201.407,-90.375 200.649,-97.3338"/>
</g>
<!-- Node4 -->
<g id="node4" class="node"><title>Node4</title>
<g id="a_node4"><a xlink:href="../../d5/db5/classfxml__main_1_1_action_viewer.html#a0127b504623b1eaa8b7f3a9df707d1c7" target="_top" xlink:title="fxml_main.ActionViewer.initialize">
<polygon fill="white" stroke="black" points="200.5,-49.5 200.5,-68.5 371.5,-68.5 371.5,-49.5 200.5,-49.5"/>
<text text-anchor="middle" x="286" y="-56.5" font-family="Helvetica,sans-Serif" font-size="10.00">fxml_main.ActionViewer.initialize</text>
</a>
</g>
</g>
<!-- Node1&#45;&gt;Node4 -->
<g id="edge3" class="edge"><title>Node1&#45;&gt;Node4</title>
<path fill="none" stroke="midnightblue" d="M163.707,-72.2102C172.489,-71.2536 181.486,-70.2738 190.415,-69.3013"/>
<polygon fill="midnightblue" stroke="midnightblue" points="190.891,-72.7703 200.453,-68.2081 190.133,-65.8115 190.891,-72.7703"/>
</g>
<!-- Node6 -->
<g id="node6" class="node"><title>Node6</title>
<g id="a_node6"><a xlink:href="../../d8/d85/interfacegamedata_1_1action_1_1_action.html#a27ec072e7b30283ebd32e1569c30b1af" target="_top" xlink:title="gamedata.action.Action.to\lString">
<polygon fill="white" stroke="black" points="214,-0 214,-30 358,-30 358,-0 214,-0"/>
<text text-anchor="start" x="222" y="-18" font-family="Helvetica,sans-Serif" font-size="10.00">gamedata.action.Action.to</text>
<text text-anchor="middle" x="286" y="-7" font-family="Helvetica,sans-Serif" font-size="10.00">String</text>
</a>
</g>
</g>
<!-- Node1&#45;&gt;Node6 -->
<g id="edge5" class="edge"><title>Node1&#45;&gt;Node6</title>
<path fill="none" stroke="midnightblue" d="M124.249,-65.9678C146.579,-57.9767 174.698,-48.1483 200,-40 207.309,-37.6461 215,-35.2596 222.646,-32.9426"/>
<polygon fill="midnightblue" stroke="midnightblue" points="223.703,-36.2798 232.274,-30.0528 221.69,-29.5753 223.703,-36.2798"/>
</g>
<!-- Node5 -->
<g id="node5" class="node"><title>Node5</title>
<g id="a_node5"><a xlink:href="../../d5/db5/classfxml__main_1_1_action_viewer.html#a3105c10965f7d06ea81ed4b566e86a37" target="_top" xlink:title="fxml_main.ActionViewer.createHBox">
<polygon fill="white" stroke="black" points="408.5,-49.5 408.5,-68.5 597.5,-68.5 597.5,-49.5 408.5,-49.5"/>
<text text-anchor="middle" x="503" y="-56.5" font-family="Helvetica,sans-Serif" font-size="10.00">fxml_main.ActionViewer.createHBox</text>
</a>
</g>
</g>
<!-- Node4&#45;&gt;Node5 -->
<g id="edge4" class="edge"><title>Node4&#45;&gt;Node5</title>
<path fill="none" stroke="midnightblue" d="M371.665,-59C380.374,-59 389.292,-59 398.177,-59"/>
<polygon fill="midnightblue" stroke="midnightblue" points="398.18,-62.5001 408.18,-59 398.18,-55.5001 398.18,-62.5001"/>
</g>
</g>
</svg>
