<?xml version="1.0" encoding="UTF-8" standalone="no"?>
<!DOCTYPE svg PUBLIC "-//W3C//DTD SVG 1.1//EN"
 "http://www.w3.org/Graphics/SVG/1.1/DTD/svg11.dtd">
<!-- Generated by graphviz version 2.36.0 (20140111.2315)
 -->
<!-- Title: gamedata.action.ConcreteAction Pages: 1 -->
<!--zoomable 201 -->
<svg id="main" version="1.1" xmlns="http://www.w3.org/2000/svg" xmlns:xlink="http://www.w3.org/1999/xlink" xml:space="preserve" onload="init(evt)">
<style type="text/css"><![CDATA[
.edge:hover path { stroke: red; }
.edge:hover polygon { stroke: red; fill: red; }
]]></style>
<script type="text/javascript"><![CDATA[
var edges = document.getElementsByTagName('g');
if (edges && edges.length) {
  for (var i=0;i<edges.length;i++) {
    if (edges[i].id.substr(0,4)=='edge') {
      edges[i].setAttribute('class','edge');
    }
  }
}
]]></script>
        <defs>
                <circle id="rim" cx="0" cy="0" r="7"/>
                <circle id="rim2" cx="0" cy="0" r="3.5"/>
                <g id="zoomPlus">
                        <use xlink:href="#rim" fill="#404040">
                                <set attributeName="fill" to="#808080" begin="zoomplus.mouseover" end="zoomplus.mouseout"/>
                        </use>
                        <path d="M-4,0h8M0,-4v8" fill="none" stroke="white" stroke-width="1.5" pointer-events="none"/>
                </g>
                <g id="zoomMin">
                        <use xlink:href="#rim" fill="#404040">
                                <set attributeName="fill" to="#808080" begin="zoomminus.mouseover" end="zoomminus.mouseout"/>
                        </use>
                        <path d="M-4,0h8" fill="none" stroke="white" stroke-width="1.5" pointer-events="none"/>
                </g>
                <g id="dirArrow">
                        <path fill="none" stroke="white" stroke-width="1.5" d="M0,-3.0v7 M-2.5,-0.5L0,-3.0L2.5,-0.5"/>
                </g>
               <g id="resetDef">
                       <use xlink:href="#rim2" fill="#404040">
                               <set attributeName="fill" to="#808080" begin="reset.mouseover" end="reset.mouseout"/>
                       </use>
               </g>
        </defs>

<script type="text/javascript">
var viewWidth = 720;
var viewHeight = 201;
var sectionId = 'dynsection-1';
</script>
<script xlink:href="../../svgpan.js"/>
<svg id="graph" class="graph">
<g id="viewport">
<title>gamedata.action.ConcreteAction</title>
<polygon fill="white" stroke="none" points="-4,4 -4,-197 716,-197 716,4 -4,4"/>
<!-- Node1 -->
<g id="node1" class="node"><title>Node1</title>
<polygon fill="#bfbfbf" stroke="black" points="566.5,-91 566.5,-121 711.5,-121 711.5,-91 566.5,-91"/>
<text text-anchor="start" x="574.5" y="-109" font-family="Helvetica,sans-Serif" font-size="10.00">gamedata.action.Concrete</text>
<text text-anchor="middle" x="639" y="-98" font-family="Helvetica,sans-Serif" font-size="10.00">Action</text>
</g>
<!-- Node2 -->
<g id="node2" class="node"><title>Node2</title>
<g id="a_node2"><a xlink:href="../../d8/d85/interfacegamedata_1_1action_1_1_action.html" target="_top" xlink:title="gamedata.action.Action">
<polygon fill="white" stroke="black" points="292.5,-173.5 292.5,-192.5 423.5,-192.5 423.5,-173.5 292.5,-173.5"/>
<text text-anchor="middle" x="358" y="-180.5" font-family="Helvetica,sans-Serif" font-size="10.00">gamedata.action.Action</text>
</a>
</g>
</g>
<!-- Node2&#45;&gt;Node1 -->
<g id="edge1" class="edge"><title>Node2&#45;&gt;Node1</title>
<path fill="none" stroke="midnightblue" d="M433.939,-172.318C469.04,-166.305 511.145,-157.634 548,-146 568.871,-139.412 591.371,-129.412 608.653,-121.059"/>
<polygon fill="midnightblue" stroke="midnightblue" points="433.046,-168.918 423.761,-174.021 434.202,-175.822 433.046,-168.918"/>
</g>
<!-- Node3 -->
<g id="node3" class="node"><title>Node3</title>
<g id="a_node3"><a xlink:href="../../d8/d47/interfacegamedata_1_1action_1_1_action_conclusion.html" target="_top" xlink:title="gamedata.action.ActionConclusion">
<polygon fill="white" stroke="black" points="266.5,-135.5 266.5,-154.5 449.5,-154.5 449.5,-135.5 266.5,-135.5"/>
<text text-anchor="middle" x="358" y="-142.5" font-family="Helvetica,sans-Serif" font-size="10.00">gamedata.action.ActionConclusion</text>
</a>
</g>
</g>
<!-- Node3&#45;&gt;Node1 -->
<g id="edge2" class="edge"><title>Node3&#45;&gt;Node1</title>
<path fill="none" stroke="#9a32cd" stroke-dasharray="5,2" d="M443.953,-134.182C476.517,-129.925 514.005,-124.892 548,-120 553.948,-119.144 560.113,-118.234 566.299,-117.304"/>
<polygon fill="#9a32cd" stroke="#9a32cd" points="443.478,-130.714 434.014,-135.477 444.382,-137.655 443.478,-130.714"/>
<text text-anchor="middle" x="508" y="-134" font-family="Helvetica,sans-Serif" font-size="10.00"> myConclusion</text>
</g>
<!-- Node4 -->
<g id="node4" class="node"><title>Node4</title>
<g id="a_node4"><a xlink:href="../../d6/dcc/classgamedata_1_1action_1_1_stats_data_modifier.html" target="_top" xlink:title="gamedata.action.StatsData\lModifier">
<polygon fill="white" stroke="black" points="283,-39 283,-69 433,-69 433,-39 283,-39"/>
<text text-anchor="start" x="291" y="-57" font-family="Helvetica,sans-Serif" font-size="10.00">gamedata.action.StatsData</text>
<text text-anchor="middle" x="358" y="-46" font-family="Helvetica,sans-Serif" font-size="10.00">Modifier</text>
</a>
</g>
</g>
<!-- Node4&#45;&gt;Node1 -->
<g id="edge3" class="edge"><title>Node4&#45;&gt;Node1</title>
<path fill="none" stroke="#9a32cd" stroke-dasharray="5,2" d="M443.451,-63.6955C476.257,-68.0793 514.042,-73.8891 548,-81 561.174,-83.7587 575.266,-87.3565 588.296,-90.9593"/>
<polygon fill="#9a32cd" stroke="#9a32cd" points="443.81,-60.2126 433.439,-62.3809 442.898,-67.1531 443.81,-60.2126"/>
<text text-anchor="middle" x="508" y="-84" font-family="Helvetica,sans-Serif" font-size="10.00"> myDataModifier</text>
</g>
<!-- Node5 -->
<g id="node5" class="node"><title>Node5</title>
<polygon fill="white" stroke="#bfbfbf" points="0.5,-71 0.5,-101 155.5,-101 155.5,-71 0.5,-71"/>
<text text-anchor="start" x="8.5" y="-89" font-family="Helvetica,sans-Serif" font-size="10.00">List&lt; gamedata.action.Stats</text>
<text text-anchor="middle" x="78" y="-78" font-family="Helvetica,sans-Serif" font-size="10.00">TotalLogic &gt;</text>
</g>
<!-- Node5&#45;&gt;Node1 -->
<g id="edge5" class="edge"><title>Node5&#45;&gt;Node1</title>
<path fill="none" stroke="#9a32cd" stroke-dasharray="5,2" d="M165.815,-89.6824C168.576,-89.7908 171.309,-89.897 174,-90 312.939,-95.3205 475.313,-100.735 566.455,-103.702"/>
<polygon fill="#9a32cd" stroke="#9a32cd" points="165.867,-86.1817 155.735,-89.2811 165.588,-93.1762 165.867,-86.1817"/>
<text text-anchor="middle" x="358" y="-103" font-family="Helvetica,sans-Serif" font-size="10.00"> myStatsLogics</text>
</g>
<!-- Node5&#45;&gt;Node4 -->
<g id="edge4" class="edge"><title>Node5&#45;&gt;Node4</title>
<path fill="none" stroke="#9a32cd" stroke-dasharray="5,2" d="M166.113,-75.9726C203.623,-71.6549 247.019,-66.6596 282.948,-62.524"/>
<polygon fill="#9a32cd" stroke="#9a32cd" points="165.235,-72.5505 155.701,-77.1712 166.035,-79.5046 165.235,-72.5505"/>
<text text-anchor="middle" x="211" y="-78" font-family="Helvetica,sans-Serif" font-size="10.00"> myStatsLogics</text>
</g>
<!-- Node6 -->
<g id="node6" class="node"><title>Node6</title>
<polygon fill="white" stroke="#bfbfbf" points="293,-0.5 293,-19.5 423,-19.5 423,-0.5 293,-0.5"/>
<text text-anchor="middle" x="358" y="-7.5" font-family="Helvetica,sans-Serif" font-size="10.00">List&lt; Point2D.Double &gt;</text>
</g>
<!-- Node6&#45;&gt;Node1 -->
<g id="edge6" class="edge"><title>Node6&#45;&gt;Node1</title>
<path fill="none" stroke="#9a32cd" stroke-dasharray="5,2" d="M433.464,-14.8267C469.163,-19.07 511.904,-27.0388 548,-42 576.516,-53.8194 604.761,-76.0857 621.798,-90.9838"/>
<polygon fill="#9a32cd" stroke="#9a32cd" points="433.437,-11.3022 423.111,-13.6758 432.663,-18.2593 433.437,-11.3022"/>
<text text-anchor="middle" x="508" y="-56" font-family="Helvetica,sans-Serif" font-size="10.00"> myAttackRange</text>
<text text-anchor="middle" x="508" y="-45" font-family="Helvetica,sans-Serif" font-size="10.00">myEffectRange</text>
</g>
</g>
</svg>
        <g id="navigator" transform="translate(0 0)" fill="#404254">
                <rect fill="#f2f5e9" fill-opacity="0.5" stroke="#606060" stroke-width=".5" x="0" y="0" width="60" height="60"/>
                <use id="zoomplus" xlink:href="#zoomPlus" x="17" y="9" onmousedown="handleZoom(evt,'in')"/>
                <use id="zoomminus" xlink:href="#zoomMin" x="42" y="9" onmousedown="handleZoom(evt,'out')"/>
                <use id="reset" xlink:href="#resetDef" x="30" y="36" onmousedown="handleReset()"/>
                <g id="arrowUp" xlink:href="#dirArrow" transform="translate(30 24)" onmousedown="handlePan(0,-1)">
                  <use xlink:href="#rim" fill="#404040">
                        <set attributeName="fill" to="#808080" begin="arrowUp.mouseover" end="arrowUp.mouseout"/>
                  </use>
                  <path fill="none" stroke="white" stroke-width="1.5" d="M0,-3.0v7 M-2.5,-0.5L0,-3.0L2.5,-0.5"/>
                </g>
                <g id="arrowRight" xlink:href="#dirArrow" transform="rotate(90) translate(36 -43)" onmousedown="handlePan(1,0)">
                  <use xlink:href="#rim" fill="#404040">
                        <set attributeName="fill" to="#808080" begin="arrowRight.mouseover" end="arrowRight.mouseout"/>
                  </use>
                  <path fill="none" stroke="white" stroke-width="1.5" d="M0,-3.0v7 M-2.5,-0.5L0,-3.0L2.5,-0.5"/>
                </g>
                <g id="arrowDown" xlink:href="#dirArrow" transform="rotate(180) translate(-30 -48)" onmousedown="handlePan(0,1)">
                  <use xlink:href="#rim" fill="#404040">
                        <set attributeName="fill" to="#808080" begin="arrowDown.mouseover" end="arrowDown.mouseout"/>
                  </use>
                  <path fill="none" stroke="white" stroke-width="1.5" d="M0,-3.0v7 M-2.5,-0.5L0,-3.0L2.5,-0.5"/>
                </g>
                <g id="arrowLeft" xlink:href="#dirArrow" transform="rotate(270) translate(-36 17)" onmousedown="handlePan(-1,0)">
                  <use xlink:href="#rim" fill="#404040">
                        <set attributeName="fill" to="#808080" begin="arrowLeft.mouseover" end="arrowLeft.mouseout"/>
                  </use>
                  <path fill="none" stroke="white" stroke-width="1.5" d="M0,-3.0v7 M-2.5,-0.5L0,-3.0L2.5,-0.5"/>
                </g>
        </g>
        <svg viewBox="0 0 15 15" width="100%" height="30px" preserveAspectRatio="xMaxYMin meet">
         <g id="arrow_out" transform="scale(0.3 0.3)">
          <a xlink:href="classgamedata_1_1action_1_1_concrete_action__coll__graph_org.svg" target="_base">
           <rect id="button" ry="5" rx="5" y="6" x="6" height="38" width="38"
                fill="#f2f5e9" fill-opacity="0.5" stroke="#606060" stroke-width="1.0"/>
           <path id="arrow"
             d="M 11.500037,31.436501 C 11.940474,20.09759 22.043105,11.32322 32.158766,21.979434 L 37.068811,17.246167 C 37.068811,17.246167 37.088388,32 37.088388,32 L 22.160133,31.978069 C 22.160133,31.978069 26.997745,27.140456 26.997745,27.140456 C 18.528582,18.264221 13.291696,25.230495 11.500037,31.436501 z"
             style="fill:#404040;"/>
          </a>
         </g>
        </svg>
</svg>
