<?xml version="1.0" encoding="UTF-8" standalone="no"?>
<!DOCTYPE svg PUBLIC "-//W3C//DTD SVG 1.1//EN"
 "http://www.w3.org/Graphics/SVG/1.1/DTD/svg11.dtd">
<!-- Generated by graphviz version 2.36.0 (20140111.2315)
 -->
<!-- Title: authoring.concretefeatures.StatsCreatorBox Pages: 1 -->
<svg width="170pt" height="118pt"
 viewBox="0.00 0.00 170.00 118.00" xmlns="http://www.w3.org/2000/svg" xmlns:xlink="http://www.w3.org/1999/xlink">
<g id="graph0" class="graph" transform="scale(1 1) rotate(0) translate(4 114)">
<title>authoring.concretefeatures.StatsCreatorBox</title>
<polygon fill="white" stroke="none" points="-4,4 -4,-114 166,-114 166,4 -4,4"/>
<!-- Node1 -->
<g id="node1" class="node"><title>Node1</title>
<polygon fill="#bfbfbf" stroke="black" points="-1,-1 -1,-31 149,-31 149,-1 -1,-1"/>
<text text-anchor="start" x="7" y="-19" font-family="Helvetica,sans-Serif" font-size="10.00">authoring.concretefeatures.</text>
<text text-anchor="middle" x="74" y="-8" font-family="Helvetica,sans-Serif" font-size="10.00">StatsCreatorBox</text>
</g>
<!-- Node2 -->
<g id="node2" class="node"><title>Node2</title>
<polygon fill="white" stroke="#bfbfbf" points="20,-90.5 20,-109.5 62,-109.5 62,-90.5 20,-90.5"/>
<text text-anchor="middle" x="41" y="-97.5" font-family="Helvetica,sans-Serif" font-size="10.00">HBox</text>
</g>
<!-- Node2&#45;&gt;Node1 -->
<g id="edge1" class="edge"><title>Node2&#45;&gt;Node1</title>
<path fill="none" stroke="midnightblue" d="M48.4247,-80.5508C54.44,-65.6037 62.7912,-44.8523 68.2919,-31.1839"/>
<polygon fill="midnightblue" stroke="midnightblue" points="45.0181,-79.6409 44.5316,-90.2246 51.512,-82.2543 45.0181,-79.6409"/>
</g>
<!-- Node3 -->
<g id="node3" class="node"><title>Node3</title>
<polygon fill="white" stroke="#bfbfbf" points="80,-90.5 80,-109.5 136,-109.5 136,-90.5 80,-90.5"/>
<text text-anchor="middle" x="108" y="-97.5" font-family="Helvetica,sans-Serif" font-size="10.00">TextField</text>
</g>
<!-- Node3&#45;&gt;Node1 -->
<g id="edge2" class="edge"><title>Node3&#45;&gt;Node1</title>
<path fill="none" stroke="#9a32cd" stroke-dasharray="5,2" d="M100.53,-80.9845C94.3201,-66.0073 85.6035,-44.985 79.8811,-31.1839"/>
<polygon fill="#9a32cd" stroke="#9a32cd" points="97.2981,-82.3277 104.361,-90.2246 103.764,-79.6466 97.2981,-82.3277"/>
<text text-anchor="middle" x="129" y="-64" font-family="Helvetica,sans-Serif" font-size="10.00"> myValueField</text>
<text text-anchor="middle" x="129" y="-53" font-family="Helvetica,sans-Serif" font-size="10.00">myStatField</text>
</g>
</g>
</svg>
