<?xml version="1.0" encoding="UTF-8" standalone="no"?>
<!DOCTYPE svg PUBLIC "-//W3C//DTD SVG 1.1//EN"
 "http://www.w3.org/Graphics/SVG/1.1/DTD/svg11.dtd">
<!-- Generated by graphviz version 2.36.0 (20140111.2315)
 -->
<!-- Title: gamedata.gamecomponents.Inventory.getItemActions Pages: 1 -->
<!--zoomable 385 -->
<svg id="main" version="1.1" xmlns="http://www.w3.org/2000/svg" xmlns:xlink="http://www.w3.org/1999/xlink" xml:space="preserve" onload="init(evt)">
<style type="text/css"><![CDATA[
.edge:hover path { stroke: red; }
.edge:hover polygon { stroke: red; fill: red; }
]]></style>
<script type="text/javascript"><![CDATA[
var edges = document.getElementsByTagName('g');
if (edges && edges.length) {
  for (var i=0;i<edges.length;i++) {
    if (edges[i].id.substr(0,4)=='edge') {
      edges[i].setAttribute('class','edge');
    }
  }
}
]]></script>
        <defs>
                <circle id="rim" cx="0" cy="0" r="7"/>
                <circle id="rim2" cx="0" cy="0" r="3.5"/>
                <g id="zoomPlus">
                        <use xlink:href="#rim" fill="#404040">
                                <set attributeName="fill" to="#808080" begin="zoomplus.mouseover" end="zoomplus.mouseout"/>
                        </use>
                        <path d="M-4,0h8M0,-4v8" fill="none" stroke="white" stroke-width="1.5" pointer-events="none"/>
                </g>
                <g id="zoomMin">
                        <use xlink:href="#rim" fill="#404040">
                                <set attributeName="fill" to="#808080" begin="zoomminus.mouseover" end="zoomminus.mouseout"/>
                        </use>
                        <path d="M-4,0h8" fill="none" stroke="white" stroke-width="1.5" pointer-events="none"/>
                </g>
                <g id="dirArrow">
                        <path fill="none" stroke="white" stroke-width="1.5" d="M0,-3.0v7 M-2.5,-0.5L0,-3.0L2.5,-0.5"/>
                </g>
               <g id="resetDef">
                       <use xlink:href="#rim2" fill="#404040">
                               <set attributeName="fill" to="#808080" begin="reset.mouseover" end="reset.mouseout"/>
                       </use>
               </g>
        </defs>

<script type="text/javascript">
var viewWidth = 1922;
var viewHeight = 385;
var sectionId = 'dynsection-3';
</script>
<script xlink:href="../../svgpan.js"/>
<svg id="graph" class="graph">
<g id="viewport">
<title>gamedata.gamecomponents.Inventory.getItemActions</title>
<polygon fill="white" stroke="none" points="-4,4 -4,-381 1918,-381 1918,4 -4,4"/>
<!-- Node1 -->
<g id="node1" class="node"><title>Node1</title>
<polygon fill="#bfbfbf" stroke="black" points="0,-66 0,-96 160,-96 160,-66 0,-66"/>
<text text-anchor="start" x="8" y="-84" font-family="Helvetica,sans-Serif" font-size="10.00">gamedata.gamecomponents.</text>
<text text-anchor="middle" x="80" y="-73" font-family="Helvetica,sans-Serif" font-size="10.00">Inventory.getItemActions</text>
</g>
<!-- Node2 -->
<g id="node2" class="node"><title>Node2</title>
<g id="a_node2"><a xlink:href="../../d4/d63/classgamedata_1_1gamecomponents_1_1_piece.html#a2d4c2a1ab97291dfe693a28f7a9e7915" target="_top" xlink:title="gamedata.gamecomponents.\lPiece.getActions">
<polygon fill="white" stroke="black" points="196,-66 196,-96 356,-96 356,-66 196,-66"/>
<text text-anchor="start" x="204" y="-84" font-family="Helvetica,sans-Serif" font-size="10.00">gamedata.gamecomponents.</text>
<text text-anchor="middle" x="276" y="-73" font-family="Helvetica,sans-Serif" font-size="10.00">Piece.getActions</text>
</a>
</g>
</g>
<!-- Node1&#45;&gt;Node2 -->
<g id="edge1" class="edge"><title>Node1&#45;&gt;Node2</title>
<path fill="none" stroke="midnightblue" d="M170.436,-81C178.884,-81 187.408,-81 195.752,-81"/>
<polygon fill="midnightblue" stroke="midnightblue" points="170.187,-77.5001 160.187,-81 170.187,-84.5001 170.187,-77.5001"/>
</g>
<!-- Node3 -->
<g id="node3" class="node"><title>Node3</title>
<g id="a_node3"><a xlink:href="../../d8/d6c/classauthoring_1_1concretefeatures_1_1_library_unit_editor.html#adeb9a177c6883b70b936575c82f2642b" target="_top" xlink:title="authoring.concretefeatures.\lLibraryUnitEditor.LibraryUnitEditor">
<polygon fill="white" stroke="black" points="392,-137 392,-167 570,-167 570,-137 392,-137"/>
<text text-anchor="start" x="400" y="-155" font-family="Helvetica,sans-Serif" font-size="10.00">authoring.concretefeatures.</text>
<text text-anchor="middle" x="481" y="-144" font-family="Helvetica,sans-Serif" font-size="10.00">LibraryUnitEditor.LibraryUnitEditor</text>
</a>
</g>
</g>
<!-- Node2&#45;&gt;Node3 -->
<g id="edge2" class="edge"><title>Node2&#45;&gt;Node3</title>
<path fill="none" stroke="midnightblue" d="M321.269,-99.9554C342.475,-108.714 368.35,-118.935 392,-127 402.222,-130.486 413.222,-133.884 423.867,-136.995"/>
<polygon fill="midnightblue" stroke="midnightblue" points="322.456,-96.6584 311.878,-96.0473 319.766,-103.121 322.456,-96.6584"/>
</g>
<!-- Node4 -->
<g id="node4" class="node"><title>Node4</title>
<g id="a_node4"><a xlink:href="../../d1/db7/classgame_player_1_1_keyboard_action.html#a08ace57322b8639020688dd9493c3e1f" target="_top" xlink:title="gamePlayer.KeyboardAction.set\lActionKeyControl">
<polygon fill="white" stroke="black" points="397,-88 397,-118 565,-118 565,-88 397,-88"/>
<text text-anchor="start" x="405" y="-106" font-family="Helvetica,sans-Serif" font-size="10.00">gamePlayer.KeyboardAction.set</text>
<text text-anchor="middle" x="481" y="-95" font-family="Helvetica,sans-Serif" font-size="10.00">ActionKeyControl</text>
</a>
</g>
</g>
<!-- Node2&#45;&gt;Node4 -->
<g id="edge3" class="edge"><title>Node2&#45;&gt;Node4</title>
<path fill="none" stroke="midnightblue" d="M366.173,-90.664C376.35,-91.767 386.696,-92.8882 396.791,-93.9823"/>
<polygon fill="midnightblue" stroke="midnightblue" points="366.385,-87.1667 356.066,-89.5688 365.631,-94.1259 366.385,-87.1667"/>
</g>
<!-- Node8 -->
<g id="node8" class="node"><title>Node8</title>
<g id="a_node8"><a xlink:href="../../df/dd5/classgame_player_1_1_view_controller.html#ab8c14a8c53be9021a62d0107c2f75ef6" target="_top" xlink:title="gamePlayer.ViewController.update\lActions">
<polygon fill="white" stroke="black" points="1308,-44 1308,-74 1488,-74 1488,-44 1308,-44"/>
<text text-anchor="start" x="1316" y="-62" font-family="Helvetica,sans-Serif" font-size="10.00">gamePlayer.ViewController.update</text>
<text text-anchor="middle" x="1398" y="-51" font-family="Helvetica,sans-Serif" font-size="10.00">Actions</text>
</a>
</g>
</g>
<!-- Node2&#45;&gt;Node8 -->
<g id="edge27" class="edge"><title>Node2&#45;&gt;Node8</title>
<path fill="none" stroke="midnightblue" d="M366.231,-73.6294C451.4,-67.2358 583.36,-59 698,-59 698,-59 698,-59 924,-59 1057.65,-59 1212.54,-59 1307.64,-59"/>
<polygon fill="midnightblue" stroke="midnightblue" points="365.787,-70.1529 356.081,-74.3993 366.317,-77.1328 365.787,-70.1529"/>
</g>
<!-- Node25 -->
<g id="node25" class="node"><title>Node25</title>
<g id="a_node25"><a xlink:href="../../d7/df4/classtests_1_1_j_s_o_n_tester_main.html#a5f1fa68f3fcb37a473271cdbfeaaa92e" target="_top" xlink:title="tests.JSONTesterMain.test\lJSONwrite">
<polygon fill="white" stroke="black" points="411,-0 411,-30 551,-30 551,-0 411,-0"/>
<text text-anchor="start" x="419" y="-18" font-family="Helvetica,sans-Serif" font-size="10.00">tests.JSONTesterMain.test</text>
<text text-anchor="middle" x="481" y="-7" font-family="Helvetica,sans-Serif" font-size="10.00">JSONwrite</text>
</a>
</g>
</g>
<!-- Node2&#45;&gt;Node25 -->
<g id="edge28" class="edge"><title>Node2&#45;&gt;Node25</title>
<path fill="none" stroke="midnightblue" d="M332.875,-62.8337C364.503,-52.5508 403.594,-39.8415 433.53,-30.1084"/>
<polygon fill="midnightblue" stroke="midnightblue" points="331.746,-59.5205 323.318,-65.941 333.91,-66.1775 331.746,-59.5205"/>
</g>
<!-- Node5 -->
<g id="node5" class="node"><title>Node5</title>
<g id="a_node5"><a xlink:href="../../df/dd5/classgame_player_1_1_view_controller.html#a95c2acd43bb39b8606c69971c1cd30f5" target="_top" xlink:title="gamePlayer.ViewController.perform\lAction">
<polygon fill="white" stroke="black" points="606.5,-137 606.5,-167 791.5,-167 791.5,-137 606.5,-137"/>
<text text-anchor="start" x="614.5" y="-155" font-family="Helvetica,sans-Serif" font-size="10.00">gamePlayer.ViewController.perform</text>
<text text-anchor="middle" x="699" y="-144" font-family="Helvetica,sans-Serif" font-size="10.00">Action</text>
</a>
</g>
</g>
<!-- Node4&#45;&gt;Node5 -->
<g id="edge4" class="edge"><title>Node4&#45;&gt;Node5</title>
<path fill="none" stroke="midnightblue" d="M558.077,-120.258C582.144,-125.718 608.536,-131.705 631.85,-136.994"/>
<polygon fill="midnightblue" stroke="midnightblue" points="558.802,-116.834 548.275,-118.035 557.253,-123.66 558.802,-116.834"/>
</g>
<!-- Node6 -->
<g id="node6" class="node"><title>Node6</title>
<g id="a_node6"><a xlink:href="../../da/d55/classgame_player_1_1_keyboard_movement.html#af45fd8d279b1ee2d6be5466d425485ab" target="_top" xlink:title="gamePlayer.KeyboardMovement.set\lMovementKeyControl">
<polygon fill="white" stroke="black" points="828.5,-137 828.5,-167 1017.5,-167 1017.5,-137 828.5,-137"/>
<text text-anchor="start" x="836.5" y="-155" font-family="Helvetica,sans-Serif" font-size="10.00">gamePlayer.KeyboardMovement.set</text>
<text text-anchor="middle" x="923" y="-144" font-family="Helvetica,sans-Serif" font-size="10.00">MovementKeyControl</text>
</a>
</g>
</g>
<!-- Node5&#45;&gt;Node6 -->
<g id="edge5" class="edge"><title>Node5&#45;&gt;Node6</title>
<path fill="none" stroke="midnightblue" d="M801.631,-145.271C810.577,-145.23 819.605,-145.248 828.48,-145.325"/>
<polygon fill="midnightblue" stroke="midnightblue" points="801.552,-141.772 791.578,-145.343 801.602,-148.772 801.552,-141.772"/>
</g>
<!-- Node13 -->
<g id="node13" class="node"><title>Node13</title>
<g id="a_node13"><a xlink:href="../../df/dd5/classgame_player_1_1_view_controller.html#a22ee80193bbac79a935ee961a183bfcd" target="_top" xlink:title="gamePlayer.ViewController.set\lOnClick">
<polygon fill="white" stroke="black" points="842.5,-229 842.5,-259 1003.5,-259 1003.5,-229 842.5,-229"/>
<text text-anchor="start" x="850.5" y="-247" font-family="Helvetica,sans-Serif" font-size="10.00">gamePlayer.ViewController.set</text>
<text text-anchor="middle" x="923" y="-236" font-family="Helvetica,sans-Serif" font-size="10.00">OnClick</text>
</a>
</g>
</g>
<!-- Node5&#45;&gt;Node13 -->
<g id="edge14" class="edge"><title>Node5&#45;&gt;Node13</title>
<path fill="none" stroke="midnightblue" d="M740.695,-171.425C765.675,-183.102 798.442,-197.979 828,-210 844.236,-216.603 862.293,-223.288 878.206,-228.963"/>
<polygon fill="midnightblue" stroke="midnightblue" points="742.064,-168.201 731.524,-167.119 739.088,-174.537 742.064,-168.201"/>
</g>
<!-- Node6&#45;&gt;Node5 -->
<g id="edge12" class="edge"><title>Node6&#45;&gt;Node5</title>
<path fill="none" stroke="midnightblue" d="M818.408,-158.737C809.451,-158.769 800.429,-158.743 791.578,-158.657"/>
<polygon fill="midnightblue" stroke="midnightblue" points="818.502,-162.236 828.48,-158.675 818.459,-155.236 818.502,-162.236"/>
</g>
<!-- Node7 -->
<g id="node7" class="node"><title>Node7</title>
<g id="a_node7"><a xlink:href="../../df/dd5/classgame_player_1_1_view_controller.html#a7eb038fd9f20604ade0406f27ef76657" target="_top" xlink:title="gamePlayer.ViewController.bind\lAction">
<polygon fill="white" stroke="black" points="1072.5,-88 1072.5,-118 1239.5,-118 1239.5,-88 1072.5,-88"/>
<text text-anchor="start" x="1080.5" y="-106" font-family="Helvetica,sans-Serif" font-size="10.00">gamePlayer.ViewController.bind</text>
<text text-anchor="middle" x="1156" y="-95" font-family="Helvetica,sans-Serif" font-size="10.00">Action</text>
</a>
</g>
</g>
<!-- Node6&#45;&gt;Node7 -->
<g id="edge6" class="edge"><title>Node6&#45;&gt;Node7</title>
<path fill="none" stroke="midnightblue" d="M1004.67,-134.887C1030.6,-129.389 1059.1,-123.342 1084.26,-118.006"/>
<polygon fill="midnightblue" stroke="midnightblue" points="1003.93,-131.466 994.877,-136.965 1005.39,-138.314 1003.93,-131.466"/>
</g>
<!-- Node12 -->
<g id="node12" class="node"><title>Node12</title>
<g id="a_node12"><a xlink:href="../../df/dd5/classgame_player_1_1_view_controller.html#a27da17c1280cd953a14f6b76b18f9a4b" target="_top" xlink:title="gamePlayer.ViewController.toggle\lKeyboardControl">
<polygon fill="white" stroke="black" points="1068,-137 1068,-167 1244,-167 1244,-137 1068,-137"/>
<text text-anchor="start" x="1076" y="-155" font-family="Helvetica,sans-Serif" font-size="10.00">gamePlayer.ViewController.toggle</text>
<text text-anchor="middle" x="1156" y="-144" font-family="Helvetica,sans-Serif" font-size="10.00">KeyboardControl</text>
</a>
</g>
</g>
<!-- Node6&#45;&gt;Node12 -->
<g id="edge13" class="edge"><title>Node6&#45;&gt;Node12</title>
<path fill="none" stroke="midnightblue" d="M1027.83,-152C1041.24,-152 1054.86,-152 1067.96,-152"/>
<polygon fill="midnightblue" stroke="midnightblue" points="1027.62,-148.5 1017.62,-152 1027.62,-155.5 1027.62,-148.5"/>
</g>
<!-- Node7&#45;&gt;Node4 -->
<g id="edge7" class="edge"><title>Node7&#45;&gt;Node4</title>
<path fill="none" stroke="midnightblue" d="M1062.19,-103C930.493,-103 691.417,-103 565.198,-103"/>
<polygon fill="midnightblue" stroke="midnightblue" points="1062.26,-106.5 1072.26,-103 1062.26,-99.5001 1062.26,-106.5"/>
</g>
<!-- Node7&#45;&gt;Node8 -->
<g id="edge8" class="edge"><title>Node7&#45;&gt;Node8</title>
<path fill="none" stroke="midnightblue" d="M1248.83,-86.1643C1270.62,-82.1697 1293.72,-77.9342 1315.04,-74.0262"/>
<polygon fill="midnightblue" stroke="midnightblue" points="1248.13,-82.7348 1238.92,-87.9808 1249.39,-89.62 1248.13,-82.7348"/>
</g>
<!-- Node11 -->
<g id="node11" class="node"><title>Node11</title>
<g id="a_node11"><a xlink:href="../../df/df0/classtests_1_1_view_controller_test.html#a74e99f9c72cbdcd2d56271b2ad2df1ce" target="_top" xlink:title="tests.ViewControllerTest.bind\lActionTest">
<polygon fill="white" stroke="black" points="1321,-93 1321,-123 1475,-123 1475,-93 1321,-93"/>
<text text-anchor="start" x="1329" y="-111" font-family="Helvetica,sans-Serif" font-size="10.00">tests.ViewControllerTest.bind</text>
<text text-anchor="middle" x="1398" y="-100" font-family="Helvetica,sans-Serif" font-size="10.00">ActionTest</text>
</a>
</g>
</g>
<!-- Node7&#45;&gt;Node11 -->
<g id="edge11" class="edge"><title>Node7&#45;&gt;Node11</title>
<path fill="none" stroke="midnightblue" d="M1249.89,-104.935C1273.32,-105.423 1298.2,-105.942 1320.71,-106.411"/>
<polygon fill="midnightblue" stroke="midnightblue" points="1249.67,-101.43 1239.59,-104.721 1249.52,-108.428 1249.67,-101.43"/>
</g>
<!-- Node9 -->
<g id="node9" class="node"><title>Node9</title>
<g id="a_node9"><a xlink:href="../../d6/d24/classgame_player_1_1_select_state.html#a801827392f0faeee6b96925060d77838" target="_top" xlink:title="gamePlayer.SelectState.on\lClick">
<polygon fill="white" stroke="black" points="1561.5,-93 1561.5,-123 1708.5,-123 1708.5,-93 1561.5,-93"/>
<text text-anchor="start" x="1569.5" y="-111" font-family="Helvetica,sans-Serif" font-size="10.00">gamePlayer.SelectState.on</text>
<text text-anchor="middle" x="1635" y="-100" font-family="Helvetica,sans-Serif" font-size="10.00">Click</text>
</a>
</g>
</g>
<!-- Node8&#45;&gt;Node9 -->
<g id="edge9" class="edge"><title>Node8&#45;&gt;Node9</title>
<path fill="none" stroke="midnightblue" d="M1481.07,-76.1127C1507.44,-81.6115 1536.44,-87.658 1562.03,-92.9938"/>
<polygon fill="midnightblue" stroke="midnightblue" points="1481.61,-72.6496 1471.1,-74.0346 1480.18,-79.5022 1481.61,-72.6496"/>
</g>
<!-- Node10 -->
<g id="node10" class="node"><title>Node10</title>
<g id="a_node10"><a xlink:href="../../df/df0/classtests_1_1_view_controller_test.html#a785df2c49a72c183c22163ce927f5df1" target="_top" xlink:title="tests.ViewControllerTest.update\lActionsTest">
<polygon fill="white" stroke="black" points="1551.5,-44 1551.5,-74 1718.5,-74 1718.5,-44 1551.5,-44"/>
<text text-anchor="start" x="1559.5" y="-62" font-family="Helvetica,sans-Serif" font-size="10.00">tests.ViewControllerTest.update</text>
<text text-anchor="middle" x="1635" y="-51" font-family="Helvetica,sans-Serif" font-size="10.00">ActionsTest</text>
</a>
</g>
</g>
<!-- Node8&#45;&gt;Node10 -->
<g id="edge10" class="edge"><title>Node8&#45;&gt;Node10</title>
<path fill="none" stroke="midnightblue" d="M1498.49,-59C1516.14,-59 1534.34,-59 1551.46,-59"/>
<polygon fill="midnightblue" stroke="midnightblue" points="1498.18,-55.5001 1488.18,-59 1498.18,-62.5001 1498.18,-55.5001"/>
</g>
<!-- Node14 -->
<g id="node14" class="node"><title>Node14</title>
<g id="a_node14"><a xlink:href="../../df/dd5/classgame_player_1_1_view_controller.html#a10a40967a873f067cf91b024ff85b38e" target="_top" xlink:title="gamePlayer.ViewController.initializeGrid">
<polygon fill="white" stroke="black" points="1054,-241.5 1054,-260.5 1258,-260.5 1258,-241.5 1054,-241.5"/>
<text text-anchor="middle" x="1156" y="-248.5" font-family="Helvetica,sans-Serif" font-size="10.00">gamePlayer.ViewController.initializeGrid</text>
</a>
</g>
</g>
<!-- Node13&#45;&gt;Node14 -->
<g id="edge15" class="edge"><title>Node13&#45;&gt;Node14</title>
<path fill="none" stroke="midnightblue" d="M1014.18,-246.733C1027.23,-247.128 1040.74,-247.538 1053.99,-247.939"/>
<polygon fill="midnightblue" stroke="midnightblue" points="1013.92,-243.223 1003.82,-246.419 1013.71,-250.22 1013.92,-243.223"/>
</g>
<!-- Node15 -->
<g id="node15" class="node"><title>Node15</title>
<g id="a_node15"><a xlink:href="../../df/dd5/classgame_player_1_1_view_controller.html#aabf431713b65ec510f1cb2df12da4e45" target="_top" xlink:title="gamePlayer.ViewController.test\lPlayGameInTab">
<polygon fill="white" stroke="black" points="1315.5,-210 1315.5,-240 1480.5,-240 1480.5,-210 1315.5,-210"/>
<text text-anchor="start" x="1323.5" y="-228" font-family="Helvetica,sans-Serif" font-size="10.00">gamePlayer.ViewController.test</text>
<text text-anchor="middle" x="1398" y="-217" font-family="Helvetica,sans-Serif" font-size="10.00">PlayGameInTab</text>
</a>
</g>
</g>
<!-- Node14&#45;&gt;Node15 -->
<g id="edge16" class="edge"><title>Node14&#45;&gt;Node15</title>
<path fill="none" stroke="midnightblue" d="M1255.08,-240.375C1275.11,-238.204 1295.99,-235.942 1315.38,-233.842"/>
<polygon fill="midnightblue" stroke="midnightblue" points="1254.57,-236.909 1245,-241.466 1255.32,-243.869 1254.57,-236.909"/>
</g>
<!-- Node16 -->
<g id="node16" class="node"><title>Node16</title>
<g id="a_node16"><a xlink:href="../../df/dd5/classgame_player_1_1_view_controller.html#a0d1a3d443966f151b070dc751d2faf9a" target="_top" xlink:title="gamePlayer.ViewController.restartGame">
<polygon fill="white" stroke="black" points="1294,-357.5 1294,-376.5 1502,-376.5 1502,-357.5 1294,-357.5"/>
<text text-anchor="middle" x="1398" y="-364.5" font-family="Helvetica,sans-Serif" font-size="10.00">gamePlayer.ViewController.restartGame</text>
</a>
</g>
</g>
<!-- Node14&#45;&gt;Node16 -->
<g id="edge17" class="edge"><title>Node14&#45;&gt;Node16</title>
<path fill="none" stroke="midnightblue" d="M1174.95,-267.379C1199.79,-289.1 1246.92,-327.013 1294,-347 1304.31,-351.378 1315.61,-354.807 1326.83,-357.49"/>
<polygon fill="midnightblue" stroke="midnightblue" points="1177.21,-264.708 1167.41,-260.682 1172.57,-269.941 1177.21,-264.708"/>
</g>
<!-- Node17 -->
<g id="node17" class="node"><title>Node17</title>
<g id="a_node17"><a xlink:href="../../df/dd5/classgame_player_1_1_view_controller.html#a620f8a02d3ac7677cd179fcd812aca55" target="_top" xlink:title="gamePlayer.ViewController.check\lEndActions">
<polygon fill="white" stroke="black" points="1311,-161 1311,-191 1485,-191 1485,-161 1311,-161"/>
<text text-anchor="start" x="1319" y="-179" font-family="Helvetica,sans-Serif" font-size="10.00">gamePlayer.ViewController.check</text>
<text text-anchor="middle" x="1398" y="-168" font-family="Helvetica,sans-Serif" font-size="10.00">EndActions</text>
</a>
</g>
</g>
<!-- Node14&#45;&gt;Node17 -->
<g id="edge18" class="edge"><title>Node14&#45;&gt;Node17</title>
<path fill="none" stroke="midnightblue" d="M1189.47,-237.575C1216.98,-226.526 1257.64,-210.955 1294,-200 1304.64,-196.795 1316,-193.765 1327.15,-191.006"/>
<polygon fill="midnightblue" stroke="midnightblue" points="1187.92,-234.428 1179.96,-241.424 1190.55,-240.916 1187.92,-234.428"/>
</g>
<!-- Node20 -->
<g id="node20" class="node"><title>Node20</title>
<g id="a_node20"><a xlink:href="../../df/dd5/classgame_player_1_1_view_controller.html#adc15cd81cefb88c58f9d3b7478328df8" target="_top" xlink:title="gamePlayer.ViewController.test\lPlayGUIGame">
<polygon fill="white" stroke="black" points="1315.5,-308 1315.5,-338 1480.5,-338 1480.5,-308 1315.5,-308"/>
<text text-anchor="start" x="1323.5" y="-326" font-family="Helvetica,sans-Serif" font-size="10.00">gamePlayer.ViewController.test</text>
<text text-anchor="middle" x="1398" y="-315" font-family="Helvetica,sans-Serif" font-size="10.00">PlayGUIGame</text>
</a>
</g>
</g>
<!-- Node14&#45;&gt;Node20 -->
<g id="edge22" class="edge"><title>Node14&#45;&gt;Node20</title>
<path fill="none" stroke="midnightblue" d="M1192.1,-264.042C1219.61,-274.021 1258.96,-287.761 1294,-298 1305.92,-301.484 1318.72,-304.869 1331.1,-307.964"/>
<polygon fill="midnightblue" stroke="midnightblue" points="1193.12,-260.691 1182.53,-260.55 1190.72,-267.267 1193.12,-260.691"/>
</g>
<!-- Node21 -->
<g id="node21" class="node"><title>Node21</title>
<g id="a_node21"><a xlink:href="../../df/dd5/classgame_player_1_1_view_controller.html#a4c1754d129a4eac955390b428eaa448a" target="_top" xlink:title="gamePlayer.ViewController.test\lPlayGame">
<polygon fill="white" stroke="black" points="1315.5,-259 1315.5,-289 1480.5,-289 1480.5,-259 1315.5,-259"/>
<text text-anchor="start" x="1323.5" y="-277" font-family="Helvetica,sans-Serif" font-size="10.00">gamePlayer.ViewController.test</text>
<text text-anchor="middle" x="1398" y="-266" font-family="Helvetica,sans-Serif" font-size="10.00">PlayGame</text>
</a>
</g>
</g>
<!-- Node14&#45;&gt;Node21 -->
<g id="edge23" class="edge"><title>Node14&#45;&gt;Node21</title>
<path fill="none" stroke="midnightblue" d="M1266.51,-261.495C1282.91,-263.066 1299.57,-264.663 1315.25,-266.166"/>
<polygon fill="midnightblue" stroke="midnightblue" points="1266.64,-257.991 1256.35,-260.521 1265.97,-264.959 1266.64,-257.991"/>
</g>
<!-- Node17&#45;&gt;Node5 -->
<g id="edge19" class="edge"><title>Node17&#45;&gt;Node5</title>
<path fill="none" stroke="midnightblue" d="M1300.94,-181.406C1187.61,-186.535 993.656,-191.396 828,-176 808.076,-174.148 786.631,-170.709 767.097,-167"/>
<polygon fill="midnightblue" stroke="midnightblue" points="1301.15,-184.9 1310.98,-180.942 1300.83,-177.908 1301.15,-184.9"/>
</g>
<!-- Node18 -->
<g id="node18" class="node"><title>Node18</title>
<g id="a_node18"><a xlink:href="../../df/dd5/classgame_player_1_1_view_controller.html#a13ea7814bde61a8042c5b1a23af41416" target="_top" xlink:title="gamePlayer.ViewController.end\lAction">
<polygon fill="white" stroke="black" points="1553,-161 1553,-191 1717,-191 1717,-161 1553,-161"/>
<text text-anchor="start" x="1561" y="-179" font-family="Helvetica,sans-Serif" font-size="10.00">gamePlayer.ViewController.end</text>
<text text-anchor="middle" x="1635" y="-168" font-family="Helvetica,sans-Serif" font-size="10.00">Action</text>
</a>
</g>
</g>
<!-- Node17&#45;&gt;Node18 -->
<g id="edge20" class="edge"><title>Node17&#45;&gt;Node18</title>
<path fill="none" stroke="midnightblue" d="M1495.39,-176C1514.5,-176 1534.38,-176 1552.92,-176"/>
<polygon fill="midnightblue" stroke="midnightblue" points="1495.17,-172.5 1485.17,-176 1495.17,-179.5 1495.17,-172.5"/>
</g>
<!-- Node19 -->
<g id="node19" class="node"><title>Node19</title>
<g id="a_node19"><a xlink:href="../../db/d00/classgame_player_1_1_apply_state.html#aed42c1aba25264bc6880036f693a1c9e" target="_top" xlink:title="gamePlayer.ApplyState.on\lClick">
<polygon fill="white" stroke="black" points="1769.5,-161 1769.5,-191 1912.5,-191 1912.5,-161 1769.5,-161"/>
<text text-anchor="start" x="1777.5" y="-179" font-family="Helvetica,sans-Serif" font-size="10.00">gamePlayer.ApplyState.on</text>
<text text-anchor="middle" x="1841" y="-168" font-family="Helvetica,sans-Serif" font-size="10.00">Click</text>
</a>
</g>
</g>
<!-- Node18&#45;&gt;Node19 -->
<g id="edge21" class="edge"><title>Node18&#45;&gt;Node19</title>
<path fill="none" stroke="midnightblue" d="M1727.38,-176C1741.44,-176 1755.76,-176 1769.28,-176"/>
<polygon fill="midnightblue" stroke="midnightblue" points="1727.21,-172.5 1717.21,-176 1727.21,-179.5 1727.21,-172.5"/>
</g>
<!-- Node22 -->
<g id="node22" class="node"><title>Node22</title>
<g id="a_node22"><a xlink:href="../../db/d40/classfxml__main_1_1_authoring_controller.html#a2ec133c8edf0a7ab1e84f2e12455233d" target="_top" xlink:title="fxml_main.AuthoringController.save\lAsGame">
<polygon fill="white" stroke="black" points="1541.5,-237 1541.5,-267 1728.5,-267 1728.5,-237 1541.5,-237"/>
<text text-anchor="start" x="1549.5" y="-255" font-family="Helvetica,sans-Serif" font-size="10.00">fxml_main.AuthoringController.save</text>
<text text-anchor="middle" x="1635" y="-244" font-family="Helvetica,sans-Serif" font-size="10.00">AsGame</text>
</a>
</g>
</g>
<!-- Node21&#45;&gt;Node22 -->
<g id="edge24" class="edge"><title>Node21&#45;&gt;Node22</title>
<path fill="none" stroke="midnightblue" d="M1490.77,-265.409C1507.38,-263.854 1524.7,-262.232 1541.34,-260.675"/>
<polygon fill="midnightblue" stroke="midnightblue" points="1490.16,-261.95 1480.53,-266.367 1490.81,-268.92 1490.16,-261.95"/>
</g>
<!-- Node23 -->
<g id="node23" class="node"><title>Node23</title>
<g id="a_node23"><a xlink:href="../../df/dd5/classgame_player_1_1_view_controller.html#a2bf1dce04187ad5eacb5359ef2b4eff8" target="_top" xlink:title="gamePlayer.ViewController.newGame">
<polygon fill="white" stroke="black" points="1538,-286.5 1538,-305.5 1732,-305.5 1732,-286.5 1538,-286.5"/>
<text text-anchor="middle" x="1635" y="-293.5" font-family="Helvetica,sans-Serif" font-size="10.00">gamePlayer.ViewController.newGame</text>
</a>
</g>
</g>
<!-- Node21&#45;&gt;Node23 -->
<g id="edge25" class="edge"><title>Node21&#45;&gt;Node23</title>
<path fill="none" stroke="midnightblue" d="M1490.58,-282.573C1506.03,-284.019 1522.1,-285.524 1537.66,-286.981"/>
<polygon fill="midnightblue" stroke="midnightblue" points="1490.81,-279.08 1480.53,-281.633 1490.16,-286.05 1490.81,-279.08"/>
</g>
<!-- Node24 -->
<g id="node24" class="node"><title>Node24</title>
<g id="a_node24"><a xlink:href="../../df/dd5/classgame_player_1_1_view_controller.html#a2acd822c93c35674b6978a97b4ce6e3f" target="_top" xlink:title="gamePlayer.ViewController.\lViewController">
<polygon fill="white" stroke="black" points="1768,-281 1768,-311 1914,-311 1914,-281 1768,-281"/>
<text text-anchor="start" x="1776" y="-299" font-family="Helvetica,sans-Serif" font-size="10.00">gamePlayer.ViewController.</text>
<text text-anchor="middle" x="1841" y="-288" font-family="Helvetica,sans-Serif" font-size="10.00">ViewController</text>
</a>
</g>
</g>
<!-- Node23&#45;&gt;Node24 -->
<g id="edge26" class="edge"><title>Node23&#45;&gt;Node24</title>
<path fill="none" stroke="midnightblue" d="M1742.24,-296C1750.94,-296 1759.59,-296 1767.95,-296"/>
<polygon fill="midnightblue" stroke="midnightblue" points="1742.03,-292.5 1732.03,-296 1742.03,-299.5 1742.03,-292.5"/>
</g>
<!-- Node26 -->
<g id="node26" class="node"><title>Node26</title>
<g id="a_node26"><a xlink:href="../../d7/df4/classtests_1_1_j_s_o_n_tester_main.html#a931215da47157cbc5157c6a9df31ccd4" target="_top" xlink:title="tests.JSONTesterMain.main">
<polygon fill="white" stroke="black" points="626,-5.5 626,-24.5 772,-24.5 772,-5.5 626,-5.5"/>
<text text-anchor="middle" x="699" y="-12.5" font-family="Helvetica,sans-Serif" font-size="10.00">tests.JSONTesterMain.main</text>
</a>
</g>
</g>
<!-- Node25&#45;&gt;Node26 -->
<g id="edge29" class="edge"><title>Node25&#45;&gt;Node26</title>
<path fill="none" stroke="midnightblue" d="M561.439,-15C582.511,-15 605.147,-15 625.811,-15"/>
<polygon fill="midnightblue" stroke="midnightblue" points="561.235,-11.5001 551.235,-15 561.235,-18.5001 561.235,-11.5001"/>
</g>
</g>
</svg>
        <g id="navigator" transform="translate(0 0)" fill="#404254">
                <rect fill="#f2f5e9" fill-opacity="0.5" stroke="#606060" stroke-width=".5" x="0" y="0" width="60" height="60"/>
                <use id="zoomplus" xlink:href="#zoomPlus" x="17" y="9" onmousedown="handleZoom(evt,'in')"/>
                <use id="zoomminus" xlink:href="#zoomMin" x="42" y="9" onmousedown="handleZoom(evt,'out')"/>
                <use id="reset" xlink:href="#resetDef" x="30" y="36" onmousedown="handleReset()"/>
                <g id="arrowUp" xlink:href="#dirArrow" transform="translate(30 24)" onmousedown="handlePan(0,-1)">
                  <use xlink:href="#rim" fill="#404040">
                        <set attributeName="fill" to="#808080" begin="arrowUp.mouseover" end="arrowUp.mouseout"/>
                  </use>
                  <path fill="none" stroke="white" stroke-width="1.5" d="M0,-3.0v7 M-2.5,-0.5L0,-3.0L2.5,-0.5"/>
                </g>
                <g id="arrowRight" xlink:href="#dirArrow" transform="rotate(90) translate(36 -43)" onmousedown="handlePan(1,0)">
                  <use xlink:href="#rim" fill="#404040">
                        <set attributeName="fill" to="#808080" begin="arrowRight.mouseover" end="arrowRight.mouseout"/>
                  </use>
                  <path fill="none" stroke="white" stroke-width="1.5" d="M0,-3.0v7 M-2.5,-0.5L0,-3.0L2.5,-0.5"/>
                </g>
                <g id="arrowDown" xlink:href="#dirArrow" transform="rotate(180) translate(-30 -48)" onmousedown="handlePan(0,1)">
                  <use xlink:href="#rim" fill="#404040">
                        <set attributeName="fill" to="#808080" begin="arrowDown.mouseover" end="arrowDown.mouseout"/>
                  </use>
                  <path fill="none" stroke="white" stroke-width="1.5" d="M0,-3.0v7 M-2.5,-0.5L0,-3.0L2.5,-0.5"/>
                </g>
                <g id="arrowLeft" xlink:href="#dirArrow" transform="rotate(270) translate(-36 17)" onmousedown="handlePan(-1,0)">
                  <use xlink:href="#rim" fill="#404040">
                        <set attributeName="fill" to="#808080" begin="arrowLeft.mouseover" end="arrowLeft.mouseout"/>
                  </use>
                  <path fill="none" stroke="white" stroke-width="1.5" d="M0,-3.0v7 M-2.5,-0.5L0,-3.0L2.5,-0.5"/>
                </g>
        </g>
        <svg viewBox="0 0 15 15" width="100%" height="30px" preserveAspectRatio="xMaxYMin meet">
         <g id="arrow_out" transform="scale(0.3 0.3)">
          <a xlink:href="classgamedata_1_1gamecomponents_1_1_inventory_a0666419e3962ab4fc6d2b58293323e7e_icgraph_org.svg" target="_base">
           <rect id="button" ry="5" rx="5" y="6" x="6" height="38" width="38"
                fill="#f2f5e9" fill-opacity="0.5" stroke="#606060" stroke-width="1.0"/>
           <path id="arrow"
             d="M 11.500037,31.436501 C 11.940474,20.09759 22.043105,11.32322 32.158766,21.979434 L 37.068811,17.246167 C 37.068811,17.246167 37.088388,32 37.088388,32 L 22.160133,31.978069 C 22.160133,31.978069 26.997745,27.140456 26.997745,27.140456 C 18.528582,18.264221 13.291696,25.230495 11.500037,31.436501 z"
             style="fill:#404040;"/>
          </a>
         </g>
        </svg>
</svg>
