<?xml version="1.0" encoding="UTF-8" standalone="no"?>
<!DOCTYPE svg PUBLIC "-//W3C//DTD SVG 1.1//EN"
 "http://www.w3.org/Graphics/SVG/1.1/DTD/svg11.dtd">
<!-- Generated by graphviz version 2.36.0 (20140111.2315)
 -->
<!-- Title: gamedata.gamecomponents.Inventory.getAllInventory Pages: 1 -->
<svg width="1926pt" height="321pt"
 viewBox="0.00 0.00 1926.00 320.56" xmlns="http://www.w3.org/2000/svg" xmlns:xlink="http://www.w3.org/1999/xlink">
<g id="graph0" class="graph" transform="scale(1 1) rotate(0) translate(4 316.556)">
<title>gamedata.gamecomponents.Inventory.getAllInventory</title>
<polygon fill="white" stroke="none" points="-4,4 -4,-316.556 1922,-316.556 1922,4 -4,4"/>
<!-- Node1 -->
<g id="node1" class="node"><title>Node1</title>
<polygon fill="#bfbfbf" stroke="black" points="0,-30.5564 0,-60.5564 160,-60.5564 160,-30.5564 0,-30.5564"/>
<text text-anchor="start" x="8" y="-48.5564" font-family="Helvetica,sans-Serif" font-size="10.00">gamedata.gamecomponents.</text>
<text text-anchor="middle" x="80" y="-37.5564" font-family="Helvetica,sans-Serif" font-size="10.00">Inventory.getAllInventory</text>
</g>
<!-- Node2 -->
<g id="node2" class="node"><title>Node2</title>
<g id="a_node2"><a xlink:href="../../d8/d01/classgamedata_1_1gamecomponents_1_1_level.html#a5a04f9565ce8ed0bb887cb4a69548e9f" target="_top" xlink:title="gamedata.gamecomponents.\lLevel.garbageCollectPieces">
<polygon fill="white" stroke="black" points="196,-30.5564 196,-60.5564 356,-60.5564 356,-30.5564 196,-30.5564"/>
<text text-anchor="start" x="204" y="-48.5564" font-family="Helvetica,sans-Serif" font-size="10.00">gamedata.gamecomponents.</text>
<text text-anchor="middle" x="276" y="-37.5564" font-family="Helvetica,sans-Serif" font-size="10.00">Level.garbageCollectPieces</text>
</a>
</g>
</g>
<!-- Node1&#45;&gt;Node2 -->
<g id="edge1" class="edge"><title>Node1&#45;&gt;Node2</title>
<path fill="none" stroke="midnightblue" d="M170.436,-45.5564C178.884,-45.5564 187.408,-45.5564 195.752,-45.5564"/>
<polygon fill="midnightblue" stroke="midnightblue" points="170.187,-42.0565 160.187,-45.5564 170.187,-49.0565 170.187,-42.0565"/>
</g>
<!-- Node3 -->
<g id="node3" class="node"><title>Node3</title>
<g id="a_node3"><a xlink:href="../../d8/d01/classgamedata_1_1gamecomponents_1_1_level.html#a369f5f4a962d2ae8be063f5b2a01e0ff" target="_top" xlink:title="gamedata.gamecomponents.\lLevel.runGameEvents">
<polygon fill="white" stroke="black" points="392,-30.5564 392,-60.5564 552,-60.5564 552,-30.5564 392,-30.5564"/>
<text text-anchor="start" x="400" y="-48.5564" font-family="Helvetica,sans-Serif" font-size="10.00">gamedata.gamecomponents.</text>
<text text-anchor="middle" x="472" y="-37.5564" font-family="Helvetica,sans-Serif" font-size="10.00">Level.runGameEvents</text>
</a>
</g>
</g>
<!-- Node2&#45;&gt;Node3 -->
<g id="edge2" class="edge"><title>Node2&#45;&gt;Node3</title>
<path fill="none" stroke="midnightblue" d="M366.436,-45.5564C374.884,-45.5564 383.408,-45.5564 391.752,-45.5564"/>
<polygon fill="midnightblue" stroke="midnightblue" points="366.187,-42.0565 356.187,-45.5564 366.187,-49.0565 366.187,-42.0565"/>
</g>
<!-- Node4 -->
<g id="node4" class="node"><title>Node4</title>
<g id="a_node4"><a xlink:href="../../df/dd5/classgame_player_1_1_view_controller.html#a620f8a02d3ac7677cd179fcd812aca55" target="_top" xlink:title="gamePlayer.ViewController.check\lEndActions">
<polygon fill="white" stroke="black" points="588,-30.5564 588,-60.5564 762,-60.5564 762,-30.5564 588,-30.5564"/>
<text text-anchor="start" x="596" y="-48.5564" font-family="Helvetica,sans-Serif" font-size="10.00">gamePlayer.ViewController.check</text>
<text text-anchor="middle" x="675" y="-37.5564" font-family="Helvetica,sans-Serif" font-size="10.00">EndActions</text>
</a>
</g>
</g>
<!-- Node3&#45;&gt;Node4 -->
<g id="edge3" class="edge"><title>Node3&#45;&gt;Node4</title>
<path fill="none" stroke="midnightblue" d="M562.432,-45.5564C570.916,-45.5564 579.506,-45.5564 587.958,-45.5564"/>
<polygon fill="midnightblue" stroke="midnightblue" points="562.152,-42.0565 552.152,-45.5564 562.152,-49.0565 562.152,-42.0565"/>
</g>
<!-- Node5 -->
<g id="node5" class="node"><title>Node5</title>
<g id="a_node5"><a xlink:href="../../df/dd5/classgame_player_1_1_view_controller.html#a95c2acd43bb39b8606c69971c1cd30f5" target="_top" xlink:title="gamePlayer.ViewController.perform\lAction">
<polygon fill="white" stroke="black" points="798.5,-123.556 798.5,-153.556 983.5,-153.556 983.5,-123.556 798.5,-123.556"/>
<text text-anchor="start" x="806.5" y="-141.556" font-family="Helvetica,sans-Serif" font-size="10.00">gamePlayer.ViewController.perform</text>
<text text-anchor="middle" x="891" y="-130.556" font-family="Helvetica,sans-Serif" font-size="10.00">Action</text>
</a>
</g>
</g>
<!-- Node4&#45;&gt;Node5 -->
<g id="edge4" class="edge"><title>Node4&#45;&gt;Node5</title>
<path fill="none" stroke="midnightblue" d="M720.111,-64.7261C760.122,-82.1142 818.32,-107.406 855.156,-123.414"/>
<polygon fill="midnightblue" stroke="midnightblue" points="721.425,-61.4812 710.859,-60.7054 718.635,-67.9012 721.425,-61.4812"/>
</g>
<!-- Node20 -->
<g id="node20" class="node"><title>Node20</title>
<g id="a_node20"><a xlink:href="../../df/dd5/classgame_player_1_1_view_controller.html#a13ea7814bde61a8042c5b1a23af41416" target="_top" xlink:title="gamePlayer.ViewController.end\lAction">
<polygon fill="white" stroke="black" points="809,-30.5564 809,-60.5564 973,-60.5564 973,-30.5564 809,-30.5564"/>
<text text-anchor="start" x="817" y="-48.5564" font-family="Helvetica,sans-Serif" font-size="10.00">gamePlayer.ViewController.end</text>
<text text-anchor="middle" x="891" y="-37.5564" font-family="Helvetica,sans-Serif" font-size="10.00">Action</text>
</a>
</g>
</g>
<!-- Node4&#45;&gt;Node20 -->
<g id="edge22" class="edge"><title>Node4&#45;&gt;Node20</title>
<path fill="none" stroke="midnightblue" d="M772.327,-45.5564C784.55,-45.5564 796.962,-45.5564 808.914,-45.5564"/>
<polygon fill="midnightblue" stroke="midnightblue" points="772.117,-42.0565 762.117,-45.5564 772.117,-49.0565 772.117,-42.0565"/>
</g>
<!-- Node6 -->
<g id="node6" class="node"><title>Node6</title>
<g id="a_node6"><a xlink:href="../../da/d55/classgame_player_1_1_keyboard_movement.html#af45fd8d279b1ee2d6be5466d425485ab" target="_top" xlink:title="gamePlayer.KeyboardMovement.set\lMovementKeyControl">
<polygon fill="white" stroke="black" points="1020.5,-167.556 1020.5,-197.556 1209.5,-197.556 1209.5,-167.556 1020.5,-167.556"/>
<text text-anchor="start" x="1028.5" y="-185.556" font-family="Helvetica,sans-Serif" font-size="10.00">gamePlayer.KeyboardMovement.set</text>
<text text-anchor="middle" x="1115" y="-174.556" font-family="Helvetica,sans-Serif" font-size="10.00">MovementKeyControl</text>
</a>
</g>
</g>
<!-- Node5&#45;&gt;Node6 -->
<g id="edge5" class="edge"><title>Node5&#45;&gt;Node6</title>
<path fill="none" stroke="midnightblue" d="M993.673,-151.979C1019.14,-156.911 1045.28,-162.451 1066.65,-167.525"/>
<polygon fill="midnightblue" stroke="midnightblue" points="994.057,-148.489 983.578,-150.05 992.743,-155.365 994.057,-148.489"/>
</g>
<!-- Node14 -->
<g id="node14" class="node"><title>Node14</title>
<g id="a_node14"><a xlink:href="../../df/dd5/classgame_player_1_1_view_controller.html#a22ee80193bbac79a935ee961a183bfcd" target="_top" xlink:title="gamePlayer.ViewController.set\lOnClick">
<polygon fill="white" stroke="black" points="1034.5,-79.5564 1034.5,-109.556 1195.5,-109.556 1195.5,-79.5564 1034.5,-79.5564"/>
<text text-anchor="start" x="1042.5" y="-97.5564" font-family="Helvetica,sans-Serif" font-size="10.00">gamePlayer.ViewController.set</text>
<text text-anchor="middle" x="1115" y="-86.5564" font-family="Helvetica,sans-Serif" font-size="10.00">OnClick</text>
</a>
</g>
</g>
<!-- Node5&#45;&gt;Node14 -->
<g id="edge15" class="edge"><title>Node5&#45;&gt;Node14</title>
<path fill="none" stroke="midnightblue" d="M977.761,-121.559C997.676,-117.612 1018.73,-113.438 1038.19,-109.583"/>
<polygon fill="midnightblue" stroke="midnightblue" points="976.908,-118.16 967.779,-123.537 978.269,-125.026 976.908,-118.16"/>
</g>
<!-- Node6&#45;&gt;Node5 -->
<g id="edge13" class="edge"><title>Node6&#45;&gt;Node5</title>
<path fill="none" stroke="midnightblue" d="M1010.26,-168.733C985.45,-163.903 960.15,-158.525 939.352,-153.588"/>
<polygon fill="midnightblue" stroke="midnightblue" points="1009.63,-172.175 1020.11,-170.625 1010.95,-165.301 1009.63,-172.175"/>
</g>
<!-- Node7 -->
<g id="node7" class="node"><title>Node7</title>
<g id="a_node7"><a xlink:href="../../df/dd5/classgame_player_1_1_view_controller.html#a7eb038fd9f20604ade0406f27ef76657" target="_top" xlink:title="gamePlayer.ViewController.bind\lAction">
<polygon fill="white" stroke="black" points="1264.5,-216.556 1264.5,-246.556 1431.5,-246.556 1431.5,-216.556 1264.5,-216.556"/>
<text text-anchor="start" x="1272.5" y="-234.556" font-family="Helvetica,sans-Serif" font-size="10.00">gamePlayer.ViewController.bind</text>
<text text-anchor="middle" x="1348" y="-223.556" font-family="Helvetica,sans-Serif" font-size="10.00">Action</text>
</a>
</g>
</g>
<!-- Node6&#45;&gt;Node7 -->
<g id="edge6" class="edge"><title>Node6&#45;&gt;Node7</title>
<path fill="none" stroke="midnightblue" d="M1196.67,-199.669C1222.6,-205.168 1251.1,-211.214 1276.26,-216.55"/>
<polygon fill="midnightblue" stroke="midnightblue" points="1197.39,-196.242 1186.88,-197.591 1195.93,-203.09 1197.39,-196.242"/>
</g>
<!-- Node13 -->
<g id="node13" class="node"><title>Node13</title>
<g id="a_node13"><a xlink:href="../../df/dd5/classgame_player_1_1_view_controller.html#a27da17c1280cd953a14f6b76b18f9a4b" target="_top" xlink:title="gamePlayer.ViewController.toggle\lKeyboardControl">
<polygon fill="white" stroke="black" points="1260,-167.556 1260,-197.556 1436,-197.556 1436,-167.556 1260,-167.556"/>
<text text-anchor="start" x="1268" y="-185.556" font-family="Helvetica,sans-Serif" font-size="10.00">gamePlayer.ViewController.toggle</text>
<text text-anchor="middle" x="1348" y="-174.556" font-family="Helvetica,sans-Serif" font-size="10.00">KeyboardControl</text>
</a>
</g>
</g>
<!-- Node6&#45;&gt;Node13 -->
<g id="edge14" class="edge"><title>Node6&#45;&gt;Node13</title>
<path fill="none" stroke="midnightblue" d="M1219.83,-182.556C1233.24,-182.556 1246.86,-182.556 1259.96,-182.556"/>
<polygon fill="midnightblue" stroke="midnightblue" points="1219.62,-179.056 1209.62,-182.556 1219.62,-186.056 1219.62,-179.056"/>
</g>
<!-- Node8 -->
<g id="node8" class="node"><title>Node8</title>
<g id="a_node8"><a xlink:href="../../d1/db7/classgame_player_1_1_keyboard_action.html#a08ace57322b8639020688dd9493c3e1f" target="_top" xlink:title="gamePlayer.KeyboardAction.set\lActionKeyControl">
<polygon fill="white" stroke="black" points="1506,-154.556 1506,-184.556 1674,-184.556 1674,-154.556 1506,-154.556"/>
<text text-anchor="start" x="1514" y="-172.556" font-family="Helvetica,sans-Serif" font-size="10.00">gamePlayer.KeyboardAction.set</text>
<text text-anchor="middle" x="1590" y="-161.556" font-family="Helvetica,sans-Serif" font-size="10.00">ActionKeyControl</text>
</a>
</g>
</g>
<!-- Node7&#45;&gt;Node8 -->
<g id="edge7" class="edge"><title>Node7&#45;&gt;Node8</title>
<path fill="none" stroke="midnightblue" d="M1420.36,-214.059C1430.32,-211.568 1440.42,-209.017 1450,-206.556 1477.45,-199.506 1507.89,-191.434 1533.26,-184.632"/>
<polygon fill="midnightblue" stroke="midnightblue" points="1419.32,-210.71 1410.47,-216.524 1421.02,-217.502 1419.32,-210.71"/>
</g>
<!-- Node9 -->
<g id="node9" class="node"><title>Node9</title>
<g id="a_node9"><a xlink:href="../../df/dd5/classgame_player_1_1_view_controller.html#ab8c14a8c53be9021a62d0107c2f75ef6" target="_top" xlink:title="gamePlayer.ViewController.update\lActions">
<polygon fill="white" stroke="black" points="1500,-258.556 1500,-288.556 1680,-288.556 1680,-258.556 1500,-258.556"/>
<text text-anchor="start" x="1508" y="-276.556" font-family="Helvetica,sans-Serif" font-size="10.00">gamePlayer.ViewController.update</text>
<text text-anchor="middle" x="1590" y="-265.556" font-family="Helvetica,sans-Serif" font-size="10.00">Actions</text>
</a>
</g>
</g>
<!-- Node7&#45;&gt;Node9 -->
<g id="edge9" class="edge"><title>Node7&#45;&gt;Node9</title>
<path fill="none" stroke="midnightblue" d="M1441.71,-247.78C1461.86,-251.307 1483.1,-255.024 1502.98,-258.504"/>
<polygon fill="midnightblue" stroke="midnightblue" points="1442.05,-244.287 1431.59,-246.01 1440.84,-251.182 1442.05,-244.287"/>
</g>
<!-- Node12 -->
<g id="node12" class="node"><title>Node12</title>
<g id="a_node12"><a xlink:href="../../df/df0/classtests_1_1_view_controller_test.html#a74e99f9c72cbdcd2d56271b2ad2df1ce" target="_top" xlink:title="tests.ViewControllerTest.bind\lActionTest">
<polygon fill="white" stroke="black" points="1513,-209.556 1513,-239.556 1667,-239.556 1667,-209.556 1513,-209.556"/>
<text text-anchor="start" x="1521" y="-227.556" font-family="Helvetica,sans-Serif" font-size="10.00">tests.ViewControllerTest.bind</text>
<text text-anchor="middle" x="1590" y="-216.556" font-family="Helvetica,sans-Serif" font-size="10.00">ActionTest</text>
</a>
</g>
</g>
<!-- Node7&#45;&gt;Node12 -->
<g id="edge12" class="edge"><title>Node7&#45;&gt;Node12</title>
<path fill="none" stroke="midnightblue" d="M1441.89,-228.847C1465.32,-228.164 1490.2,-227.438 1512.71,-226.782"/>
<polygon fill="midnightblue" stroke="midnightblue" points="1441.49,-225.357 1431.59,-229.147 1441.69,-232.354 1441.49,-225.357"/>
</g>
<!-- Node8&#45;&gt;Node5 -->
<g id="edge8" class="edge"><title>Node8&#45;&gt;Node5</title>
<path fill="none" stroke="midnightblue" d="M1495.97,-161.636C1480.62,-160.49 1464.87,-159.411 1450,-158.556 1285.96,-149.13 1094.53,-143.419 983.884,-140.635"/>
<polygon fill="midnightblue" stroke="midnightblue" points="1495.75,-165.129 1505.98,-162.398 1496.28,-158.15 1495.75,-165.129"/>
</g>
<!-- Node10 -->
<g id="node10" class="node"><title>Node10</title>
<g id="a_node10"><a xlink:href="../../d6/d24/classgame_player_1_1_select_state.html#a801827392f0faeee6b96925060d77838" target="_top" xlink:title="gamePlayer.SelectState.on\lClick">
<polygon fill="white" stroke="black" points="1750.5,-282.556 1750.5,-312.556 1897.5,-312.556 1897.5,-282.556 1750.5,-282.556"/>
<text text-anchor="start" x="1758.5" y="-300.556" font-family="Helvetica,sans-Serif" font-size="10.00">gamePlayer.SelectState.on</text>
<text text-anchor="middle" x="1824" y="-289.556" font-family="Helvetica,sans-Serif" font-size="10.00">Click</text>
</a>
</g>
</g>
<!-- Node9&#45;&gt;Node10 -->
<g id="edge10" class="edge"><title>Node9&#45;&gt;Node10</title>
<path fill="none" stroke="midnightblue" d="M1690.2,-283.819C1710.4,-285.908 1731.3,-288.07 1750.37,-290.043"/>
<polygon fill="midnightblue" stroke="midnightblue" points="1690.34,-280.314 1680.03,-282.767 1689.62,-287.277 1690.34,-280.314"/>
</g>
<!-- Node11 -->
<g id="node11" class="node"><title>Node11</title>
<g id="a_node11"><a xlink:href="../../df/df0/classtests_1_1_view_controller_test.html#a785df2c49a72c183c22163ce927f5df1" target="_top" xlink:title="tests.ViewControllerTest.update\lActionsTest">
<polygon fill="white" stroke="black" points="1740.5,-233.556 1740.5,-263.556 1907.5,-263.556 1907.5,-233.556 1740.5,-233.556"/>
<text text-anchor="start" x="1748.5" y="-251.556" font-family="Helvetica,sans-Serif" font-size="10.00">tests.ViewControllerTest.update</text>
<text text-anchor="middle" x="1824" y="-240.556" font-family="Helvetica,sans-Serif" font-size="10.00">ActionsTest</text>
</a>
</g>
</g>
<!-- Node9&#45;&gt;Node11 -->
<g id="edge11" class="edge"><title>Node9&#45;&gt;Node11</title>
<path fill="none" stroke="midnightblue" d="M1690.33,-262.852C1706.99,-261.057 1724.12,-259.212 1740.3,-257.468"/>
<polygon fill="midnightblue" stroke="midnightblue" points="1689.6,-259.411 1680.03,-263.962 1690.35,-266.371 1689.6,-259.411"/>
</g>
<!-- Node15 -->
<g id="node15" class="node"><title>Node15</title>
<g id="a_node15"><a xlink:href="../../df/dd5/classgame_player_1_1_view_controller.html#a10a40967a873f067cf91b024ff85b38e" target="_top" xlink:title="gamePlayer.ViewController.initializeGrid">
<polygon fill="white" stroke="black" points="1246,-66.0564 1246,-85.0564 1450,-85.0564 1450,-66.0564 1246,-66.0564"/>
<text text-anchor="middle" x="1348" y="-73.0564" font-family="Helvetica,sans-Serif" font-size="10.00">gamePlayer.ViewController.initializeGrid</text>
</a>
</g>
</g>
<!-- Node14&#45;&gt;Node15 -->
<g id="edge16" class="edge"><title>Node14&#45;&gt;Node15</title>
<path fill="none" stroke="midnightblue" d="M1205.79,-87.171C1218.96,-86.0875 1232.61,-84.9653 1245.99,-83.8648"/>
<polygon fill="midnightblue" stroke="midnightblue" points="1205.5,-83.683 1195.82,-87.9911 1206.07,-90.6594 1205.5,-83.683"/>
</g>
<!-- Node15&#45;&gt;Node4 -->
<g id="edge21" class="edge"><title>Node15&#45;&gt;Node4</title>
<path fill="none" stroke="midnightblue" d="M1320.35,-61.2891C1293.4,-47.7349 1250.12,-28.3085 1210,-20.5564 1030.21,14.1844 980.177,-2.08267 798,-20.5564 777.995,-22.585 756.425,-26.439 737.066,-30.5244"/>
<polygon fill="midnightblue" stroke="midnightblue" points="1319,-64.5341 1329.5,-65.9846 1322.2,-58.3058 1319,-64.5341"/>
</g>
<!-- Node16 -->
<g id="node16" class="node"><title>Node16</title>
<g id="a_node16"><a xlink:href="../../df/dd5/classgame_player_1_1_view_controller.html#a0d1a3d443966f151b070dc751d2faf9a" target="_top" xlink:title="gamePlayer.ViewController.restartGame">
<polygon fill="white" stroke="black" points="1486,-104.056 1486,-123.056 1694,-123.056 1694,-104.056 1486,-104.056"/>
<text text-anchor="middle" x="1590" y="-111.056" font-family="Helvetica,sans-Serif" font-size="10.00">gamePlayer.ViewController.restartGame</text>
</a>
</g>
</g>
<!-- Node15&#45;&gt;Node16 -->
<g id="edge17" class="edge"><title>Node15&#45;&gt;Node16</title>
<path fill="none" stroke="midnightblue" d="M1419.32,-86.6905C1454.03,-92.1867 1495.48,-98.7493 1528.72,-104.013"/>
<polygon fill="midnightblue" stroke="midnightblue" points="1419.68,-83.2033 1409.25,-85.0963 1418.58,-90.1172 1419.68,-83.2033"/>
</g>
<!-- Node17 -->
<g id="node17" class="node"><title>Node17</title>
<g id="a_node17"><a xlink:href="../../df/dd5/classgame_player_1_1_view_controller.html#af1870a0b6786d96d118021fc62b6475d" target="_top" xlink:title="gamePlayer.ViewController.beginGame">
<polygon fill="white" stroke="black" points="1489,-66.0564 1489,-85.0564 1691,-85.0564 1691,-66.0564 1489,-66.0564"/>
<text text-anchor="middle" x="1590" y="-73.0564" font-family="Helvetica,sans-Serif" font-size="10.00">gamePlayer.ViewController.beginGame</text>
</a>
</g>
</g>
<!-- Node15&#45;&gt;Node17 -->
<g id="edge18" class="edge"><title>Node15&#45;&gt;Node17</title>
<path fill="none" stroke="midnightblue" d="M1460.35,-75.5564C1469.84,-75.5564 1479.4,-75.5564 1488.8,-75.5564"/>
<polygon fill="midnightblue" stroke="midnightblue" points="1460.09,-72.0565 1450.09,-75.5564 1460.09,-79.0565 1460.09,-72.0565"/>
</g>
<!-- Node18 -->
<g id="node18" class="node"><title>Node18</title>
<g id="a_node18"><a xlink:href="../../df/dd5/classgame_player_1_1_view_controller.html#a4c1754d129a4eac955390b428eaa448a" target="_top" xlink:title="gamePlayer.ViewController.test\lPlayGame">
<polygon fill="white" stroke="black" points="1507.5,-16.5564 1507.5,-46.5564 1672.5,-46.5564 1672.5,-16.5564 1507.5,-16.5564"/>
<text text-anchor="start" x="1515.5" y="-34.5564" font-family="Helvetica,sans-Serif" font-size="10.00">gamePlayer.ViewController.test</text>
<text text-anchor="middle" x="1590" y="-23.5564" font-family="Helvetica,sans-Serif" font-size="10.00">PlayGame</text>
</a>
</g>
</g>
<!-- Node15&#45;&gt;Node18 -->
<g id="edge19" class="edge"><title>Node15&#45;&gt;Node18</title>
<path fill="none" stroke="midnightblue" d="M1411.18,-64.1574C1440.49,-58.7834 1475.85,-52.3004 1507.29,-46.5358"/>
<polygon fill="midnightblue" stroke="midnightblue" points="1410.28,-60.7631 1401.08,-66.009 1411.54,-67.6483 1410.28,-60.7631"/>
</g>
<!-- Node19 -->
<g id="node19" class="node"><title>Node19</title>
<g id="a_node19"><a xlink:href="../../db/d40/classfxml__main_1_1_authoring_controller.html#a2ec133c8edf0a7ab1e84f2e12455233d" target="_top" xlink:title="fxml_main.AuthoringController.save\lAsGame">
<polygon fill="white" stroke="black" points="1730.5,-16.5564 1730.5,-46.5564 1917.5,-46.5564 1917.5,-16.5564 1730.5,-16.5564"/>
<text text-anchor="start" x="1738.5" y="-34.5564" font-family="Helvetica,sans-Serif" font-size="10.00">fxml_main.AuthoringController.save</text>
<text text-anchor="middle" x="1824" y="-23.5564" font-family="Helvetica,sans-Serif" font-size="10.00">AsGame</text>
</a>
</g>
</g>
<!-- Node18&#45;&gt;Node19 -->
<g id="edge20" class="edge"><title>Node18&#45;&gt;Node19</title>
<path fill="none" stroke="midnightblue" d="M1682.96,-31.5564C1698.59,-31.5564 1714.83,-31.5564 1730.47,-31.5564"/>
<polygon fill="midnightblue" stroke="midnightblue" points="1682.79,-28.0565 1672.79,-31.5564 1682.79,-35.0565 1682.79,-28.0565"/>
</g>
<!-- Node21 -->
<g id="node21" class="node"><title>Node21</title>
<g id="a_node21"><a xlink:href="../../db/d00/classgame_player_1_1_apply_state.html#aed42c1aba25264bc6880036f693a1c9e" target="_top" xlink:title="gamePlayer.ApplyState.on\lClick">
<polygon fill="white" stroke="black" points="1043.5,-30.5564 1043.5,-60.5564 1186.5,-60.5564 1186.5,-30.5564 1043.5,-30.5564"/>
<text text-anchor="start" x="1051.5" y="-48.5564" font-family="Helvetica,sans-Serif" font-size="10.00">gamePlayer.ApplyState.on</text>
<text text-anchor="middle" x="1115" y="-37.5564" font-family="Helvetica,sans-Serif" font-size="10.00">Click</text>
</a>
</g>
</g>
<!-- Node20&#45;&gt;Node21 -->
<g id="edge23" class="edge"><title>Node20&#45;&gt;Node21</title>
<path fill="none" stroke="midnightblue" d="M983.182,-45.5564C1003.27,-45.5564 1024.26,-45.5564 1043.39,-45.5564"/>
<polygon fill="midnightblue" stroke="midnightblue" points="983.089,-42.0565 973.089,-45.5564 983.089,-49.0565 983.089,-42.0565"/>
</g>
</g>
</svg>
