<?xml version="1.0" encoding="UTF-8" standalone="no"?>
<!DOCTYPE svg PUBLIC "-//W3C//DTD SVG 1.1//EN"
 "http://www.w3.org/Graphics/SVG/1.1/DTD/svg11.dtd">
<!-- Generated by graphviz version 2.36.0 (20140111.2315)
 -->
<!-- Title: gamedata.gamecomponents.Inventory.addItem Pages: 1 -->
<svg width="582pt" height="48pt"
 viewBox="0.00 0.00 582.00 48.00" xmlns="http://www.w3.org/2000/svg" xmlns:xlink="http://www.w3.org/1999/xlink">
<g id="graph0" class="graph" transform="scale(1 1) rotate(0) translate(4 44)">
<title>gamedata.gamecomponents.Inventory.addItem</title>
<polygon fill="white" stroke="none" points="-4,4 -4,-44 578,-44 578,4 -4,4"/>
<!-- Node1 -->
<g id="node1" class="node"><title>Node1</title>
<polygon fill="#bfbfbf" stroke="black" points="0,-5 0,-35 160,-35 160,-5 0,-5"/>
<text text-anchor="start" x="8" y="-23" font-family="Helvetica,sans-Serif" font-size="10.00">gamedata.gamecomponents.</text>
<text text-anchor="middle" x="80" y="-12" font-family="Helvetica,sans-Serif" font-size="10.00">Inventory.addItem</text>
</g>
<!-- Node2 -->
<g id="node2" class="node"><title>Node2</title>
<g id="a_node2"><a xlink:href="../../d4/d63/classgamedata_1_1gamecomponents_1_1_piece.html#ac2dfe291ea3bde03d94129001b569953" target="_top" xlink:title="gamedata.gamecomponents.\lPiece.addToInventory">
<polygon fill="white" stroke="black" points="196,-5 196,-35 356,-35 356,-5 196,-5"/>
<text text-anchor="start" x="204" y="-23" font-family="Helvetica,sans-Serif" font-size="10.00">gamedata.gamecomponents.</text>
<text text-anchor="middle" x="276" y="-12" font-family="Helvetica,sans-Serif" font-size="10.00">Piece.addToInventory</text>
</a>
</g>
</g>
<!-- Node1&#45;&gt;Node2 -->
<g id="edge1" class="edge"><title>Node1&#45;&gt;Node2</title>
<path fill="none" stroke="midnightblue" d="M170.436,-20C178.884,-20 187.408,-20 195.752,-20"/>
<polygon fill="midnightblue" stroke="midnightblue" points="170.187,-16.5001 160.187,-20 170.187,-23.5001 170.187,-16.5001"/>
</g>
<!-- Node3 -->
<g id="node3" class="node"><title>Node3</title>
<g id="a_node3"><a xlink:href="../../dd/da2/classgamedata_1_1action_1_1conclusions_1_1_receiver_to_inventory_conclusion.html#a9ddd913dbc35dad7d16ecc273e598a45" target="_top" xlink:title="gamedata.action.conclusions.\lReceiverToInventoryConclusion.run\lConclusion">
<polygon fill="white" stroke="black" points="392.5,0.5 392.5,-40.5 573.5,-40.5 573.5,0.5 392.5,0.5"/>
<text text-anchor="start" x="400.5" y="-28.5" font-family="Helvetica,sans-Serif" font-size="10.00">gamedata.action.conclusions.</text>
<text text-anchor="start" x="400.5" y="-17.5" font-family="Helvetica,sans-Serif" font-size="10.00">ReceiverToInventoryConclusion.run</text>
<text text-anchor="middle" x="483" y="-6.5" font-family="Helvetica,sans-Serif" font-size="10.00">Conclusion</text>
</a>
</g>
</g>
<!-- Node2&#45;&gt;Node3 -->
<g id="edge2" class="edge"><title>Node2&#45;&gt;Node3</title>
<path fill="none" stroke="midnightblue" d="M366.329,-20C374.97,-20 383.737,-20 392.381,-20"/>
<polygon fill="midnightblue" stroke="midnightblue" points="366.258,-16.5001 356.258,-20 366.258,-23.5001 366.258,-16.5001"/>
</g>
</g>
</svg>
