<?xml version="1.0" encoding="UTF-8" standalone="no"?>
<!DOCTYPE svg PUBLIC "-//W3C//DTD SVG 1.1//EN"
 "http://www.w3.org/Graphics/SVG/1.1/DTD/svg11.dtd">
<!-- Generated by graphviz version 2.36.0 (20140111.2315)
 -->
<!-- Title: authoring.data.PlayerStatData Pages: 1 -->
<svg width="170pt" height="164pt"
 viewBox="0.00 0.00 170.00 164.00" xmlns="http://www.w3.org/2000/svg" xmlns:xlink="http://www.w3.org/1999/xlink">
<g id="graph0" class="graph" transform="scale(1 1) rotate(0) translate(4 160)">
<title>authoring.data.PlayerStatData</title>
<polygon fill="white" stroke="none" points="-4,4 -4,-160 166,-160 166,4 -4,4"/>
<!-- Node1 -->
<g id="node1" class="node"><title>Node1</title>
<polygon fill="#bfbfbf" stroke="black" points="-0.5,-0.5 -0.5,-19.5 162.5,-19.5 162.5,-0.5 -0.5,-0.5"/>
<text text-anchor="middle" x="81" y="-7.5" font-family="Helvetica,sans-Serif" font-size="10.00">authoring.data.PlayerStatData</text>
</g>
<!-- Node2 -->
<g id="node2" class="node"><title>Node2</title>
<g id="a_node2"><a xlink:href="../../d6/d1d/classgamedata_1_1stats_1_1_stats.html" target="_top" xlink:title="gamedata.stats.Stats">
<polygon fill="white" stroke="black" points="20,-68.5 20,-87.5 142,-87.5 142,-68.5 20,-68.5"/>
<text text-anchor="middle" x="81" y="-75.5" font-family="Helvetica,sans-Serif" font-size="10.00">gamedata.stats.Stats</text>
</a>
</g>
</g>
<!-- Node2&#45;&gt;Node1 -->
<g id="edge1" class="edge"><title>Node2&#45;&gt;Node1</title>
<path fill="none" stroke="#9a32cd" stroke-dasharray="5,2" d="M81,-58.0413C81,-45.4724 81,-29.5631 81,-19.8411"/>
<polygon fill="#9a32cd" stroke="#9a32cd" points="77.5001,-58.3716 81,-68.3717 84.5001,-58.3717 77.5001,-58.3716"/>
<text text-anchor="middle" x="103" y="-41.5" font-family="Helvetica,sans-Serif" font-size="10.00"> myStats</text>
</g>
<!-- Node3 -->
<g id="node3" class="node"><title>Node3</title>
<polygon fill="white" stroke="#bfbfbf" points="17,-136.5 17,-155.5 145,-155.5 145,-136.5 17,-136.5"/>
<text text-anchor="middle" x="81" y="-143.5" font-family="Helvetica,sans-Serif" font-size="10.00">Map&lt; String, Double &gt;</text>
</g>
<!-- Node3&#45;&gt;Node2 -->
<g id="edge2" class="edge"><title>Node3&#45;&gt;Node2</title>
<path fill="none" stroke="#9a32cd" stroke-dasharray="5,2" d="M81,-126.041C81,-113.472 81,-97.5631 81,-87.8411"/>
<polygon fill="#9a32cd" stroke="#9a32cd" points="77.5001,-126.372 81,-136.372 84.5001,-126.372 77.5001,-126.372"/>
<text text-anchor="middle" x="103" y="-109.5" font-family="Helvetica,sans-Serif" font-size="10.00"> myStats</text>
</g>
</g>
</svg>
